<?xml version="1.0" encoding="utf-8"?>
<!-- Generator: Adobe Illustrator 24.1.2, SVG Export Plug-In . SVG Version: 6.00 Build 0)  -->
<svg version="1.1" id="Layer_1" xmlns="http://www.w3.org/2000/svg" xmlns:xlink="http://www.w3.org/1999/xlink" x="0px" y="0px"
	 width="512px" height="512px" viewBox="0 0 512 512" enable-background="new 0 0 512 512" xml:space="preserve">
<circle fill="#FFFFFF" cx="256" cy="256" r="256"/>
<g>
	<defs>
		<circle id="SVGID_1_" cx="256" cy="256" r="256"/>
	</defs>
	<clipPath id="SVGID_2_">
		<use xlink:href="#SVGID_1_"  overflow="visible"/>
	</clipPath>
	<g clip-path="url(#SVGID_2_)">
		<g>
			<path fill="#44C868" d="M554.9,486l-48.3-266.2c-0.5-2.7-2.1-5-4.5-6.3l-121.6-67.6c-1.6-0.9-3.3-1.2-5.1-1.1l22.1,285.4
				l-0.7,0.3l145.5,65.3c1.2,0.5,2.4,0.8,3.7,0.8c2,0,3.9-0.7,5.6-1.9C554.2,492.7,555.5,489.3,554.9,486z"/>
			<path fill="#44C868" d="M247.5,210.6l-124.4-64.8c-1.5-0.8-3.1-1.1-4.8-1c0.4,0,0.9,0,1.3,0L97.5,430.2l146.3,65.6
				c1.2,0.5,2.4,0.8,3.7,0.8l0,0V210.6z"/>
		</g>
		<g>
			<path fill="#4CE166" d="M119.6,144.8c-1.7-0.1-3.5,0.2-5.1,1.1L-7,213.6c-2.4,1.3-4,3.6-4.5,6.3L-59.9,486
				c-0.6,3.3,0.7,6.6,3.3,8.7c1.6,1.3,3.6,1.9,5.6,1.9c1.3,0,2.5-0.3,3.7-0.8l144.7-64.9L119.6,144.8z"/>
			<path fill="#4CE166" d="M375.4,144.8c-1.2,0.1-2.4,0.4-3.5,1l-124.4,64.8v286.1c0,0,0,0,0,0c1.3,0,2.5-0.3,3.7-0.8l146.3-65.6
				L375.4,144.8z"/>
		</g>
		<polygon fill="#FFDB56" points="-26.2,300.5 -36,354.6 109.3,277.8 112.7,234.3 113.3,227.1 		"/>
		<path fill="#A8EEFC" d="M110.6,260.9l-1.3,16.9L-36,354.6L-59.9,486c-0.6,3.3,0.7,6.6,3.3,8.7c1.6,1.3,3.6,1.9,5.6,1.9
			c1.3,0,2.5-0.3,3.7-0.8l144.7-64.9L110.6,260.9L110.6,260.9z"/>
		<g>
			<polygon fill="#FFBB24" points="247.5,246.3 113.3,227.1 109.3,277.8 247.5,487.6 247.5,411.3 165.1,281.5 247.5,291.4 			"/>
			<polygon fill="#FFBB24" points="492.5,208.2 434.1,175.7 378.8,188.7 379.4,197.6 382.2,232.8 			"/>
		</g>
		<polygon fill="#FFDB56" points="387.1,296.1 381.8,228.5 381.8,228.5 378.8,188.7 247.5,246.3 247.5,291.4 333.2,254.1 		"/>
		<path fill="#FFBB24" d="M554.9,486l-12.1-66.9L382.2,232.8l4.9,63.3l164.6,198.5C554.2,492.5,555.4,489.2,554.9,486z"/>
		<path fill="#FFDB56" d="M251.2,495.9l54.4-24.4l-58.1-60.1v85.3c0,0,0,0,0,0C248.8,496.7,250,496.4,251.2,495.9z"/>
		<g>
			<path fill="#1EA4E9" d="M506.5,219.8c-0.5-2.7-2.1-5-4.5-6.3l-9.6-5.3l-110.3,24.6l0,0l160.5,186.3L506.5,219.8z"/>
			<path fill="#1EA4E9" d="M247.5,496.7C247.5,496.7,247.5,496.7,247.5,496.7v-9L109.3,277.8L97.5,430.2l146.3,65.6
				C245,496.4,246.2,496.7,247.5,496.7z"/>
		</g>
	</g>
</g>
<g>
	<path fill="#FF4A4A" d="M313.9,26c-35.4,0-64.1,28.8-64.1,64.1c0,21.9,10.4,45.3,30.9,69.8c15,17.9,29.9,29.5,30.5,30
		c0.8,0.6,1.8,1,2.8,1c1,0,2-0.3,2.8-1c0.6-0.5,15.5-12,30.5-30c20.5-24.4,30.9-47.9,30.9-69.8C378.1,54.8,349.3,26,313.9,26z
		 M337.7,90.1c0,13.1-10.6,23.7-23.8,23.7c-13.1,0-23.8-10.6-23.8-23.7s10.6-23.7,23.8-23.7C327.1,66.4,337.7,77,337.7,90.1z"/>
	<path fill="#E7343F" d="M313.9,26c-2.8,0-5.6,0.2-8.3,0.5c31.5,4.1,55.9,31,55.9,63.6c0,21.9-10.4,45.3-30.9,69.8
		c-9.7,11.5-19.2,20.4-25,25.4c3.2,2.8,5.2,4.4,5.5,4.5c0.8,0.6,1.8,1,2.8,1c1,0,2-0.3,2.8-1c0.6-0.5,15.5-12,30.5-30
		c20.5-24.4,30.9-47.9,30.9-69.8C378.1,54.8,349.3,26,313.9,26z"/>
</g>
<g>
	<path fill="#FF4A4A" d="M353.7,260.3c-35.4,0-64.1,28.8-64.1,64.1c0,21.9,10.4,45.3,30.9,69.8c15,17.9,29.9,29.5,30.5,30
		c0.8,0.6,1.8,1,2.8,1c1,0,2-0.3,2.8-1c0.6-0.5,15.5-12,30.5-30c20.5-24.4,30.9-47.9,30.9-69.8C417.8,289,389,260.3,353.7,260.3z
		 M377.4,324.4c0,13.1-10.6,23.7-23.8,23.7c-13.1,0-23.8-10.6-23.8-23.7s10.6-23.7,23.8-23.7C366.8,300.6,377.4,311.3,377.4,324.4z"
		/>
	<path fill="#E7343F" d="M353.7,260.3c-2.8,0-5.6,0.2-8.3,0.5c31.5,4.1,55.9,31,55.9,63.6c0,21.9-10.4,45.3-30.9,69.8
		c-9.7,11.5-19.2,20.4-25,25.4c3.2,2.8,5.2,4.4,5.5,4.5c0.8,0.6,1.8,1,2.8,1c1,0,2-0.3,2.8-1c0.6-0.5,15.5-12,30.5-30
		c20.5-24.4,30.9-47.9,30.9-69.8C417.8,289,389,260.3,353.7,260.3z"/>
</g>
<g>
	<path fill="#FF4A4A" d="M139.7,178.3c-35.4,0-64.1,28.8-64.1,64.1c0,21.9,10.4,45.3,30.9,69.8c15,17.9,29.9,29.5,30.5,30
		c0.8,0.6,1.8,1,2.8,1c1,0,2-0.3,2.8-1c0.6-0.5,15.5-12,30.5-30c20.5-24.4,30.9-47.9,30.9-69.8C203.8,207,175,178.3,139.7,178.3z
		 M163.4,242.4c0,13.1-10.6,23.7-23.8,23.7s-23.8-10.6-23.8-23.7c0-13.1,10.6-23.7,23.8-23.7C152.8,218.6,163.4,229.3,163.4,242.4z"
		/>
	<path fill="#E7343F" d="M139.7,178.3c-2.8,0-5.6,0.2-8.3,0.5c31.5,4.1,55.9,31,55.9,63.6c0,21.9-10.4,45.3-30.9,69.8
		c-9.7,11.5-19.2,20.4-25,25.4c3.2,2.8,5.2,4.4,5.5,4.5c0.8,0.6,1.8,1,2.8,1c1,0,2-0.3,2.8-1c0.6-0.5,15.5-12,30.5-30
		c20.5-24.4,30.9-47.9,30.9-69.8C203.8,207,175,178.3,139.7,178.3z"/>
</g>
</svg>
