<?xml version="1.0" encoding="utf-8"?>
<!-- Generator: Adobe Illustrator 24.1.2, SVG Export Plug-In . SVG Version: 6.00 Build 0)  -->
<svg version="1.1" id="Layer_1" xmlns="http://www.w3.org/2000/svg" xmlns:xlink="http://www.w3.org/1999/xlink" x="0px" y="0px"
	 width="512px" height="512px" viewBox="0 0 512 512" enable-background="new 0 0 512 512" xml:space="preserve">
<circle fill="#FFFFFF" cx="256" cy="256" r="256"/>
<g>
	<defs>
		<circle id="SVGID_1_" cx="256" cy="256" r="256"/>
	</defs>
	<clipPath id="SVGID_2_">
		<use xlink:href="#SVGID_1_"  overflow="visible"/>
	</clipPath>
	<g clip-path="url(#SVGID_2_)">
		<path fill="#EDEDED" d="M351.4,162.9H95.6c-6.4,0-11.6,4.4-11.6,9.9v211.8c0,5.5,5.2,9.9,11.6,9.9h255.9c6.4,0,11.6-4.4,11.6-9.9
			V172.8C363,167.3,357.8,162.9,351.4,162.9z"/>
		<path fill="#F55A62" d="M351.4,92.2H95.6c-6.4,0-11.6,9.8-11.6,22v127.3h279V114.2C363,102,357.8,92.2,351.4,92.2z"/>
		<g>
			
				<ellipse transform="matrix(0.9966 -8.272786e-02 8.272786e-02 0.9966 -8.3177 9.4465)" fill="#FFFFFF" cx="109.8" cy="105.1" rx="8" ry="8"/>
			<ellipse transform="matrix(0.9728 -0.2316 0.2316 0.9728 -20.467 35.808)" fill="#FFFFFF" cx="142.3" cy="105.1" rx="8" ry="8"/>
			
				<ellipse transform="matrix(0.9966 -8.272786e-02 8.272786e-02 0.9966 -8.095 14.8199)" fill="#FFFFFF" cx="174.8" cy="105.1" rx="8" ry="8"/>
			<circle fill="#FFFFFF" cx="207.3" cy="105.1" r="8"/>
			
				<ellipse transform="matrix(0.1227 -0.9924 0.9924 0.1227 106.0181 330.1225)" fill="#FFFFFF" cx="239.7" cy="105.1" rx="8" ry="8"/>
			<circle fill="#FFFFFF" cx="272.2" cy="105.1" r="8"/>
			
				<ellipse transform="matrix(0.1227 -0.9924 0.9924 0.1227 162.9997 394.5842)" fill="#FFFFFF" cx="304.7" cy="105.1" rx="8" ry="8"/>
			<circle fill="#FFFFFF" cx="337.2" cy="105.1" r="8"/>
			<path fill="#2E4C6C" d="M109.8,70.9L109.8,70.9c-3,0-5.5,2.4-5.5,5.5v28.1c0,3,2.4,5.5,5.5,5.5l0,0c3,0,5.5-2.4,5.5-5.5V76.4
				C115.3,73.3,112.9,70.9,109.8,70.9z"/>
			<path fill="#2E4C6C" d="M142.3,70.9c-3,0-5.5,2.4-5.5,5.5v28.1c0,3,2.4,5.5,5.5,5.5c3,0,5.5-2.4,5.5-5.5V76.4
				C147.8,73.3,145.3,70.9,142.3,70.9z"/>
			<path fill="#2E4C6C" d="M174.8,70.9L174.8,70.9c-3,0-5.5,2.4-5.5,5.5v28.1c0,3,2.4,5.5,5.5,5.5l0,0c3,0,5.5-2.4,5.5-5.5V76.4
				C180.3,73.3,177.8,70.9,174.8,70.9z"/>
			<path fill="#2E4C6C" d="M207.3,70.9c-3,0-5.5,2.4-5.5,5.5v28.1c0,3,2.4,5.5,5.5,5.5c3,0,5.5-2.4,5.5-5.5V76.4
				C212.7,73.3,210.3,70.9,207.3,70.9z"/>
			<path fill="#2E4C6C" d="M239.7,70.9c-3,0-5.5,2.4-5.5,5.5v28.1c0,3,2.4,5.5,5.5,5.5c3,0,5.5-2.4,5.5-5.5V76.4
				C245.2,73.3,242.8,70.9,239.7,70.9z"/>
			<path fill="#2E4C6C" d="M272.2,70.9L272.2,70.9c-3,0-5.5,2.4-5.5,5.5v28.1c0,3,2.4,5.5,5.5,5.5l0,0c3,0,5.5-2.4,5.5-5.5V76.4
				C277.7,73.3,275.2,70.9,272.2,70.9z"/>
			<path fill="#2E4C6C" d="M304.7,70.9c-3,0-5.5,2.4-5.5,5.5v28.1c0,3,2.4,5.5,5.5,5.5c3,0,5.5-2.4,5.5-5.5V76.4
				C310.2,73.3,307.7,70.9,304.7,70.9z"/>
			<path fill="#2E4C6C" d="M337.2,70.9L337.2,70.9c-3,0-5.5,2.4-5.5,5.5v28.1c0,3,2.4,5.5,5.5,5.5h0c3,0,5.5-2.4,5.5-5.5V76.4
				C342.6,73.3,340.2,70.9,337.2,70.9z"/>
		</g>
		<g>
			<g>
				<path fill="#FFFFFF" d="M113.1,229.8c-0.5-0.1-0.9-0.1-1.1-0.2c-0.5-0.1-0.9-0.3-1.1-0.5c-0.2-0.2-0.3-0.5-0.3-0.8
					c0-0.5,0.2-0.9,0.5-1.1c0.3-0.2,0.7-0.4,1.2-0.4c0.9,0,1.7,0.3,2.5,0.8l0.9-1.3c-0.9-0.7-2-1-3.3-1c-1,0-1.9,0.3-2.4,0.8
					c-0.6,0.5-0.9,1.3-0.9,2.1c0,0.7,0.2,1.4,0.7,1.9c0.5,0.5,1.1,0.8,2,1c0.5,0.1,0.9,0.1,1.3,0.2c0.9,0.2,1.3,0.6,1.3,1.4
					c0,0.9-0.7,1.4-2,1.4c-1.1,0-2.1-0.3-2.9-1l-1,1.2c1.1,0.9,2.4,1.4,3.9,1.4c2.3,0,3.5-1,3.6-2.9c0-0.7-0.2-1.3-0.7-1.9
					C114.8,230.2,114.1,229.9,113.1,229.8z"/>
				<path fill="#FFFFFF" d="M121.7,232.6c0,0.5-0.1,0.9-0.4,1.1c-0.3,0.3-0.6,0.4-1,0.4s-0.8-0.1-1-0.4c-0.3-0.3-0.4-0.7-0.4-1.1
					v-4.3h-1.4v4.8c0,0.8,0.3,1.4,0.8,1.8c0.5,0.4,1,0.6,1.6,0.7c0.8,0,1.4-0.3,1.9-0.9h0v0.8h1.4v-7.2h-1.4V232.6z"/>
				<path fill="#FFFFFF" d="M130,228.9c-0.5-0.4-1-0.6-1.6-0.6c-0.8,0-1.4,0.3-1.9,0.9h0v-0.8H125v7.2h1.4v-4.3
					c0-0.5,0.1-0.9,0.4-1.2c0.3-0.3,0.6-0.4,1-0.4c0.4,0,0.8,0.1,1,0.4c0.3,0.3,0.4,0.6,0.4,1.2v4.3h1.4v-4.8
					C130.8,229.9,130.5,229.3,130,228.9z"/>
			</g>
			<g>
				<polygon fill="#FFFFFF" points="149.3,232 146.4,225.4 145,225.4 145,235.5 146.5,235.5 146.5,229.2 146.5,229.2 148.7,234.1 
					149.9,234.1 152,229.2 152.1,229.2 152.1,235.5 153.6,235.5 153.6,225.4 152.2,225.4 				"/>
				<path fill="#FFFFFF" d="M160.4,229.2c-0.2-0.2-0.5-0.5-0.8-0.6c-0.4-0.2-0.8-0.3-1.4-0.3c-0.6,0-1,0.1-1.4,0.3
					c-0.4,0.2-0.6,0.4-0.8,0.6c-0.3,0.3-0.5,0.6-0.6,1c-0.1,0.4-0.2,1-0.2,1.7c0,0.8,0.1,1.3,0.2,1.7c0.1,0.4,0.3,0.7,0.6,1
					c0.2,0.2,0.5,0.4,0.8,0.6c0.4,0.2,0.8,0.3,1.4,0.3c0.6,0,1-0.1,1.4-0.3c0.2-0.1,0.3-0.2,0.5-0.3c0.1-0.1,0.2-0.2,0.3-0.3
					c0.3-0.3,0.5-0.6,0.6-1c0.1-0.4,0.2-1,0.2-1.7c0-0.8-0.1-1.3-0.2-1.7C160.9,229.8,160.7,229.5,160.4,229.2z M159.7,233
					c0,0.2-0.1,0.4-0.3,0.6c-0.1,0.1-0.3,0.3-0.5,0.4c-0.2,0.1-0.4,0.2-0.7,0.2c-0.2,0-0.5-0.1-0.7-0.2c-0.2-0.1-0.4-0.2-0.5-0.4
					c-0.1-0.2-0.2-0.4-0.3-0.6c-0.1-0.2-0.1-0.6-0.1-1.1c0-0.5,0-0.9,0.1-1.1c0.1-0.2,0.1-0.4,0.3-0.6c0.1-0.2,0.3-0.3,0.5-0.4
					c0.2-0.1,0.4-0.1,0.7-0.1c0.3,0,0.5,0,0.7,0.1c0.2,0.1,0.4,0.2,0.5,0.4c0.1,0.2,0.2,0.4,0.3,0.6c0,0.2,0.1,0.6,0.1,1.1
					C159.7,232.4,159.7,232.8,159.7,233z"/>
				<path fill="#FFFFFF" d="M167.7,228.9c-0.5-0.4-1-0.6-1.6-0.6c-0.8,0-1.4,0.3-1.9,0.9h0v-0.8h-1.4v7.2h1.4v-4.3
					c0-0.5,0.1-0.9,0.4-1.2c0.3-0.3,0.6-0.4,1-0.4c0.4,0,0.8,0.1,1,0.4c0.3,0.3,0.4,0.6,0.4,1.2v4.3h1.4v-4.8
					C168.4,229.9,168.2,229.3,167.7,228.9z"/>
			</g>
			<g>
				<polygon fill="#FFFFFF" points="182.7,226.8 185.4,226.8 185.4,235.5 187,235.5 187,226.8 189.7,226.8 189.7,225.4 182.7,225.4 
									"/>
				<path fill="#FFFFFF" d="M193.7,232.6c0,0.5-0.1,0.9-0.4,1.1c-0.3,0.3-0.6,0.4-1,0.4c-0.4,0-0.8-0.1-1-0.4
					c-0.3-0.3-0.4-0.7-0.4-1.1v-4.3h-1.4v4.8c0,0.8,0.3,1.4,0.8,1.8c0.5,0.4,1,0.6,1.6,0.7c0.8,0,1.4-0.3,1.9-0.9h0v0.8h1.4v-7.2
					h-1.4V232.6z"/>
				<path fill="#FFFFFF" d="M199.6,228.3c-0.3,0-0.7,0.1-1,0.2c-0.4,0.1-0.7,0.3-1,0.6c-0.3,0.3-0.5,0.7-0.7,1.1
					c-0.2,0.5-0.3,1.1-0.3,1.8c0,0.7,0.1,1.3,0.3,1.8c0.2,0.5,0.4,0.9,0.7,1.1c0.2,0.1,0.3,0.2,0.5,0.3c0.2,0.1,0.3,0.2,0.5,0.2
					c0.4,0.1,0.7,0.2,1.1,0.2c1,0,1.9-0.4,2.6-1.2l-1-0.9c-0.5,0.5-1,0.7-1.6,0.7c-0.5,0-0.9-0.2-1.2-0.5c-0.3-0.3-0.5-0.7-0.5-1.3
					h4.5v-1.2c0-0.9-0.3-1.7-0.9-2.2C201.2,228.5,200.5,228.3,199.6,228.3z M198.1,231.3c0-0.6,0.2-1,0.5-1.3
					c0.3-0.3,0.6-0.4,1.1-0.4c0.4,0,0.8,0.1,1.1,0.4c0.3,0.3,0.4,0.7,0.5,1.3H198.1z"/>
			</g>
			<g>
				<polygon fill="#FFFFFF" points="225.1,232.6 225.1,232.6 223.1,225.4 222,225.4 220,232.6 220,232.6 218.4,225.4 216.8,225.4 
					219.3,235.5 220.6,235.5 222.5,228.3 222.6,228.3 224.5,235.5 225.8,235.5 228.3,225.4 226.7,225.4 				"/>
				<path fill="#FFFFFF" d="M231.7,228.3c-0.3,0-0.7,0.1-1,0.2c-0.4,0.1-0.7,0.3-1,0.6c-0.3,0.3-0.5,0.7-0.7,1.1
					c-0.2,0.5-0.3,1.1-0.3,1.8c0,0.7,0.1,1.3,0.3,1.8c0.2,0.5,0.4,0.9,0.7,1.1c0.2,0.1,0.3,0.2,0.5,0.3c0.2,0.1,0.3,0.2,0.5,0.2
					c0.4,0.1,0.7,0.2,1.1,0.2c1,0,1.9-0.4,2.6-1.2l-1-0.9c-0.5,0.5-1,0.7-1.6,0.7c-0.5,0-0.9-0.2-1.2-0.5c-0.3-0.3-0.5-0.7-0.5-1.3
					h4.5v-1.2c0-0.9-0.3-1.7-0.9-2.2C233.2,228.5,232.5,228.3,231.7,228.3z M230.1,231.3c0-0.6,0.2-1,0.5-1.3
					c0.3-0.3,0.6-0.4,1.1-0.4c0.4,0,0.8,0.1,1.1,0.4c0.3,0.3,0.4,0.7,0.5,1.3H230.1z"/>
				<path fill="#FFFFFF" d="M240.5,229.1c-0.3-0.3-0.5-0.5-0.8-0.6c-0.3-0.2-0.7-0.2-1-0.2c-0.9,0-1.5,0.3-1.9,0.9
					c-0.2,0.2-0.3,0.5-0.4,0.9c-0.1,0.4-0.1,1-0.1,1.8c0,0.9,0,1.5,0.1,1.8c0.1,0.4,0.2,0.7,0.4,0.9c0.2,0.3,0.5,0.5,0.8,0.7
					c0.3,0.2,0.7,0.3,1.1,0.3c0.8,0,1.4-0.3,1.9-0.8v0.8h1.4v-10.1h-1.4V229.1z M240.4,232.7c0,0.3-0.1,0.5-0.2,0.7
					c-0.1,0.2-0.2,0.4-0.4,0.5c-0.2,0.1-0.5,0.2-0.8,0.2c-0.3,0-0.6-0.1-0.8-0.2c-0.2-0.1-0.3-0.3-0.4-0.5c-0.1-0.2-0.1-0.5-0.2-0.7
					c0-0.3,0-0.5,0-0.8c0-0.3,0-0.6,0-0.8c0-0.3,0.1-0.5,0.2-0.7c0.1-0.2,0.2-0.4,0.4-0.5c0.2-0.1,0.4-0.2,0.8-0.2
					c0.3,0,0.6,0.1,0.8,0.2c0.2,0.1,0.3,0.3,0.4,0.5c0.1,0.2,0.2,0.5,0.2,0.7c0,0.3,0,0.5,0,0.8
					C240.5,232.2,240.4,232.4,240.4,232.7z"/>
			</g>
			<g>
				<polygon fill="#FFFFFF" points="256.1,226.8 258.9,226.8 258.9,235.5 260.4,235.5 260.4,226.8 263.2,226.8 263.2,225.4 
					256.1,225.4 				"/>
				<path fill="#FFFFFF" d="M268.9,228.9c-0.5-0.4-1-0.6-1.6-0.6c-0.8,0-1.4,0.3-1.9,0.9h0v-3.7h-1.4v10.1h1.4v-4.3
					c0-0.5,0.1-0.9,0.4-1.2c0.3-0.3,0.6-0.4,1-0.4c0.4,0,0.8,0.1,1,0.4c0.3,0.3,0.4,0.6,0.4,1.2v4.3h1.4v-4.8
					C269.6,229.9,269.3,229.3,268.9,228.9z"/>
				<path fill="#FFFFFF" d="M275.8,232.6c0,0.5-0.1,0.9-0.4,1.1c-0.3,0.3-0.6,0.4-1,0.4s-0.8-0.1-1-0.4c-0.3-0.3-0.4-0.7-0.4-1.1
					v-4.3h-1.4v4.8c0,0.8,0.3,1.4,0.8,1.8c0.5,0.4,1,0.6,1.6,0.7c0.8,0,1.4-0.3,1.9-0.9h0v0.8h1.4v-7.2h-1.4V232.6z"/>
			</g>
			<g>
				<polygon fill="#FFFFFF" points="291.5,235.5 293,235.5 293,231.2 297.2,231.2 297.2,229.9 293,229.9 293,226.9 297.9,226.9 
					297.9,225.4 291.5,225.4 				"/>
				<path fill="#FFFFFF" d="M300.2,229.1L300.2,229.1l0-0.8h-1.4v7.2h1.4v-4.3c0-0.5,0.2-0.9,0.5-1.1c0.3-0.2,0.6-0.4,1-0.4
					c0.3,0,0.6,0.1,1,0.4l1.1-1.3c-0.4-0.4-0.9-0.5-1.5-0.6C301.3,228.3,300.7,228.5,300.2,229.1z"/>
				<rect x="304.3" y="228.3" fill="#FFFFFF" width="1.4" height="7.2"/>
				<rect x="304.3" y="225.4" fill="#FFFFFF" width="1.4" height="1.4"/>
			</g>
			<g>
				<path fill="#FFFFFF" d="M324.6,229.8c-0.5-0.1-0.9-0.1-1.1-0.2c-0.5-0.1-0.9-0.3-1.1-0.5c-0.2-0.2-0.3-0.5-0.3-0.8
					c0-0.5,0.2-0.9,0.5-1.1c0.3-0.2,0.7-0.4,1.2-0.4c0.9,0,1.7,0.3,2.5,0.8l0.9-1.3c-0.9-0.7-2-1-3.3-1c-1,0-1.9,0.3-2.4,0.8
					c-0.6,0.5-0.9,1.3-0.9,2.1c0,0.7,0.2,1.4,0.7,1.9c0.5,0.5,1.1,0.8,2,1c0.5,0.1,0.9,0.1,1.3,0.2c0.9,0.2,1.3,0.6,1.3,1.4
					c0,0.9-0.7,1.4-2,1.4c-1.1,0-2.1-0.3-2.9-1l-1,1.2c1.1,0.9,2.4,1.4,3.9,1.4c2.3,0,3.5-1,3.6-2.9c0-0.7-0.2-1.3-0.7-1.9
					C326.2,230.2,325.5,229.9,324.6,229.8z"/>
				<path fill="#FFFFFF" d="M333.2,228.8c-0.5-0.4-1.3-0.5-2.2-0.5c-1.1,0-1.9,0.3-2.4,1.1l1.1,0.9c0.1-0.2,0.3-0.4,0.5-0.4
					c0.2-0.1,0.5-0.1,0.9-0.1c1,0,1.5,0.3,1.5,0.9v0.8h-2c-0.8,0-1.3,0.2-1.7,0.6c-0.4,0.4-0.6,0.9-0.6,1.5c0,0.6,0.2,1.2,0.7,1.6
					c0.4,0.4,1.1,0.6,1.9,0.6c0.5,0,0.9-0.1,1.2-0.2c0.3-0.1,0.5-0.3,0.6-0.5h0v0.6h1.4v-4.9C334,229.7,333.8,229.1,333.2,228.8z
					 M332.6,233c0,0.5-0.1,0.9-0.3,1c-0.2,0.2-0.7,0.2-1.3,0.2c-0.5,0-0.8-0.1-1-0.3c-0.2-0.2-0.3-0.4-0.3-0.6
					c0-0.6,0.4-0.8,1.2-0.9h1.7V233z"/>
				<path fill="#FFFFFF" d="M337.5,226.2H336v2.2h-0.7v1.1h0.7v4.3c0,0.6,0.2,1,0.5,1.3c0.3,0.3,0.7,0.5,1.2,0.5h0.8v-1.4H338
					c-0.4,0-0.5-0.2-0.5-0.5v-4.2h1.1v-1.1h-1.1V226.2z"/>
			</g>
			<g>
				<g>
					<g>
						<polygon fill="#4672B8" points="304.3,264.5 302.8,264.5 302.8,267.4 300.2,267.4 303.6,260.1 302,260.1 298.6,267.4 
							298.6,268.8 302.8,268.8 302.8,270.3 304.3,270.3 304.3,268.8 305.1,268.8 305.1,267.4 304.3,267.4 						"/>
					</g>
					<g>
						<polygon fill="#4672B8" points="292.9,284.9 292.9,286.4 294.4,285.3 294.4,293.9 295.8,293.9 295.8,283.8 294.4,283.8 						
							"/>
						<polygon fill="#4672B8" points="299.8,284.9 299.8,286.4 301.2,285.3 301.2,293.9 302.6,293.9 302.6,283.8 301.2,283.8 						
							"/>
					</g>
					<g>
						<polygon fill="#4672B8" points="292.9,308.5 292.9,310.1 294.4,309 294.4,317.6 295.8,317.6 295.8,307.5 294.4,307.5 						
							"/>
						<path fill="#4672B8" d="M303.7,312.4c0.3-0.3,0.5-0.6,0.7-0.9c0.2-0.3,0.3-0.7,0.3-1.1c0-0.8-0.3-1.5-0.8-2.1
							c-0.5-0.5-1.2-0.8-2.1-0.8c-0.8,0-1.5,0.3-2,0.8c-0.6,0.6-0.8,1.2-0.9,2.1c0,0.4,0.1,0.8,0.3,1.1c0.2,0.3,0.4,0.6,0.7,0.9
							c-0.8,0.5-1.2,1.3-1.2,2.3c0,0.9,0.3,1.6,0.9,2.2c0.6,0.6,1.3,0.8,2.2,0.9c0.9,0,1.6-0.3,2.2-0.9c0.6-0.5,0.9-1.3,0.9-2.2
							C304.9,313.7,304.5,312.9,303.7,312.4z M300.9,309.2c0.3-0.2,0.6-0.4,1-0.4c0.4,0,0.7,0.1,1,0.4c0.3,0.2,0.4,0.6,0.4,1.1
							c0,0.5-0.2,0.8-0.4,1.1c-0.3,0.3-0.6,0.4-1,0.4c-0.4,0-0.7-0.1-1-0.4c-0.3-0.2-0.4-0.6-0.5-1.1
							C300.4,309.8,300.6,309.5,300.9,309.2z M303,315.8c-0.3,0.3-0.7,0.5-1.2,0.5c-0.4,0-0.8-0.2-1.1-0.5c-0.3-0.3-0.5-0.7-0.5-1.1
							c0-0.5,0.2-0.9,0.5-1.2c0.3-0.3,0.7-0.4,1.1-0.5c0.5,0,0.8,0.2,1.2,0.5c0.3,0.3,0.5,0.7,0.5,1.2
							C303.5,315.1,303.3,315.5,303,315.8z"/>
					</g>
					<g>
						<path fill="#4672B8" d="M297.9,334c0-0.8-0.3-1.5-0.8-2.1c-0.5-0.5-1.2-0.8-2.1-0.8c-0.8,0-1.4,0.3-2,0.8
							c-0.5,0.6-0.8,1.2-0.8,2.1h1.4c0.1-0.5,0.2-0.8,0.5-1.1c0.3-0.3,0.6-0.4,1-0.4c0.4,0,0.8,0.2,1,0.4c0.2,0.3,0.4,0.6,0.4,1
							c0,0.1,0,0.3-0.1,0.5c-0.1,0.2-0.2,0.4-0.3,0.6l-3.9,4.9v1.4h5.8v-1.4H294l3.3-4.1C297.6,335.2,297.9,334.6,297.9,334z"/>
						<path fill="#4672B8" d="M304.6,336c-0.1-0.4-0.3-0.7-0.6-1c-0.2-0.2-0.4-0.4-0.7-0.5c-0.3-0.1-0.7-0.2-1.1-0.2
							c-0.6,0-1.1,0.2-1.6,0.6v-2.3h4v-1.4h-5.4v5.5h1.4c0.2-0.3,0.4-0.5,0.6-0.7c0.2-0.1,0.5-0.2,0.7-0.2c0.3,0,0.5,0,0.7,0.1
							c0.2,0.1,0.3,0.2,0.5,0.4c0.2,0.4,0.3,0.8,0.3,1.4c0,0.2,0,0.5,0,0.7c0,0.3-0.1,0.5-0.2,0.7c-0.1,0.2-0.2,0.4-0.4,0.5
							c-0.2,0.1-0.5,0.2-0.8,0.2c-0.8,0-1.3-0.4-1.4-1.2H299c0.1,0.9,0.5,1.6,1.1,2c0.6,0.4,1.2,0.6,1.9,0.6c0.5,0,0.9-0.1,1.3-0.4
							c0.4-0.2,0.7-0.5,0.9-0.7c0.2-0.3,0.4-0.6,0.5-0.9c0.1-0.4,0.1-0.9,0.1-1.5c0-0.4,0-0.8,0-1.1
							C304.7,336.5,304.6,336.2,304.6,336z"/>
					</g>
				</g>
				<g>
					<g>
						<path fill="#4672B8" d="M335.3,265c-0.1-0.4-0.3-0.7-0.6-1c-0.2-0.2-0.4-0.4-0.7-0.5c-0.3-0.1-0.7-0.2-1.1-0.2
							c-0.6,0-1.1,0.2-1.6,0.6v-2.3h4v-1.4h-5.4v5.5h1.4c0.2-0.3,0.4-0.5,0.6-0.7c0.2-0.1,0.5-0.2,0.7-0.2c0.3,0,0.5,0,0.7,0.1
							c0.2,0.1,0.3,0.2,0.5,0.4c0.2,0.4,0.3,0.8,0.3,1.4c0,0.2,0,0.5,0,0.7c0,0.3-0.1,0.5-0.2,0.7c-0.1,0.2-0.2,0.4-0.4,0.5
							c-0.2,0.1-0.5,0.2-0.8,0.2c-0.8,0-1.3-0.4-1.4-1.2h-1.4c0.1,0.9,0.5,1.6,1.1,2c0.6,0.4,1.2,0.6,1.9,0.6c0.5,0,0.9-0.1,1.3-0.4
							c0.4-0.2,0.7-0.5,0.9-0.7c0.2-0.3,0.4-0.6,0.5-0.9c0.1-0.4,0.1-0.9,0.1-1.5c0-0.4,0-0.8,0-1.1
							C335.4,265.5,335.4,265.2,335.3,265z"/>
					</g>
					<g>
						<polygon fill="#4672B8" points="323.7,284.9 323.7,286.4 325.1,285.3 325.1,293.9 326.6,293.9 326.6,283.8 325.1,283.8 						
							"/>
						<path fill="#4672B8" d="M335.4,286.6c0-0.8-0.3-1.5-0.8-2.1c-0.5-0.5-1.2-0.8-2.1-0.8c-0.8,0-1.4,0.3-2,0.8
							c-0.5,0.6-0.8,1.2-0.8,2.1h1.4c0.1-0.5,0.2-0.8,0.5-1.1c0.3-0.3,0.6-0.4,1-0.4c0.4,0,0.8,0.2,1,0.4c0.2,0.3,0.4,0.6,0.4,1
							c0,0.1,0,0.3-0.1,0.5c-0.1,0.2-0.2,0.4-0.3,0.6l-3.9,4.9v1.4h5.8v-1.4h-3.9l3.3-4.1C335.2,287.9,335.4,287.3,335.4,286.6z"/>
					</g>
					<g>
						<polygon fill="#4672B8" points="323.7,308.5 323.7,310.1 325.1,309 325.1,317.6 326.6,317.6 326.6,307.5 325.1,307.5 						
							"/>
						<path fill="#4672B8" d="M335.2,309.2c-0.1-0.2-0.2-0.5-0.4-0.7c-0.2-0.2-0.3-0.4-0.6-0.6c-0.2-0.2-0.5-0.3-0.8-0.4
							c-0.3-0.1-0.7-0.1-1.1-0.1c-0.4,0-0.8,0.1-1,0.3c-0.3,0.1-0.5,0.3-0.7,0.5c-0.2,0.2-0.4,0.4-0.5,0.6c-0.1,0.2-0.2,0.4-0.3,0.6
							c-0.1,0.2-0.1,0.3-0.1,0.5c0,0.1,0,0.2,0,0.2c0,0.1,0,0.1,0,0.2c0,0.1,0,0.2,0,0.3c0,0.1,0,0.2,0,0.2c0,0.1,0,0.1,0,0.2
							c0,0.1,0,0.2,0,0.4c0,0.2,0.1,0.3,0.1,0.5c0.1,0.2,0.2,0.4,0.3,0.5c0.1,0.2,0.2,0.4,0.4,0.5c0.2,0.2,0.4,0.3,0.6,0.4
							c0.2,0.1,0.5,0.2,0.8,0.2c0.2,0,0.4,0,0.6,0c0.2,0,0.3-0.1,0.5-0.1c-0.1,0.2-0.2,0.4-0.3,0.6c-0.1,0.3-0.3,0.6-0.5,0.9
							c-0.2,0.3-0.3,0.6-0.5,1c-0.2,0.3-0.3,0.6-0.5,0.9c-0.1,0.3-0.2,0.5-0.3,0.7c-0.1,0.2-0.1,0.3-0.1,0.3h1.7
							c0.4-0.9,0.8-1.7,1.2-2.4c0.2-0.3,0.3-0.6,0.4-0.9c0.1-0.3,0.3-0.6,0.4-0.8c0.1-0.2,0.2-0.5,0.3-0.6c0.1-0.2,0.1-0.3,0.1-0.3
							c0.1-0.2,0.1-0.4,0.2-0.5c0.1-0.2,0.1-0.3,0.1-0.5c0-0.2,0.1-0.3,0.1-0.5c0-0.2,0.1-0.4,0.1-0.6c0-0.2,0-0.3,0-0.6
							C335.3,309.6,335.3,309.4,335.2,309.2z M333.9,311c0,0.1-0.1,0.2-0.1,0.3c-0.1,0.1-0.1,0.2-0.2,0.3c-0.1,0.1-0.2,0.2-0.3,0.3
							c-0.1,0.1-0.2,0.2-0.4,0.2c-0.1,0.1-0.3,0.1-0.5,0.1c-0.4,0-0.6-0.1-0.8-0.2c-0.2-0.1-0.3-0.3-0.4-0.5
							c-0.1-0.2-0.1-0.4-0.2-0.6c0-0.2,0-0.4,0-0.6c0-0.1,0-0.2,0.1-0.3c0-0.1,0.1-0.3,0.2-0.5c0.1-0.2,0.3-0.3,0.4-0.4
							c0.2-0.1,0.4-0.2,0.7-0.2c0.3,0,0.5,0,0.6,0.1c0.2,0.1,0.3,0.1,0.4,0.2c0.1,0.1,0.2,0.2,0.3,0.4c0.1,0.1,0.1,0.3,0.1,0.4
							c0,0.1,0,0.3,0,0.4c0,0.1,0,0.3,0,0.4C333.9,310.8,333.9,310.9,333.9,311z"/>
					</g>
					<g>
						<path fill="#4672B8" d="M328.6,334c0-0.8-0.3-1.5-0.8-2.1c-0.5-0.5-1.2-0.8-2.1-0.8c-0.8,0-1.4,0.3-2,0.8
							c-0.5,0.6-0.8,1.2-0.8,2.1h1.4c0.1-0.5,0.2-0.8,0.5-1.1c0.3-0.3,0.6-0.4,1-0.4c0.4,0,0.8,0.2,1,0.4c0.2,0.3,0.4,0.6,0.4,1
							c0,0.1,0,0.3-0.1,0.5c-0.1,0.2-0.2,0.4-0.3,0.6l-3.9,4.9v1.4h5.8v-1.4h-3.9l3.3-4.1C328.4,335.2,328.6,334.6,328.6,334z"/>
						<path fill="#4672B8" d="M335.4,336.9c-0.1-0.2-0.2-0.4-0.3-0.5c-0.1-0.2-0.3-0.4-0.4-0.5c-0.2-0.2-0.4-0.3-0.6-0.4
							c-0.2-0.1-0.5-0.2-0.8-0.2c-0.2,0-0.4,0-0.6,0c-0.2,0-0.3,0.1-0.5,0.1c0.1-0.1,0.1-0.3,0.2-0.4c0.1-0.2,0.2-0.4,0.3-0.6
							c0.1-0.2,0.2-0.5,0.4-0.7c0.1-0.2,0.3-0.5,0.4-0.7c0.1-0.2,0.2-0.5,0.4-0.7c0.1-0.2,0.2-0.4,0.3-0.6c0.1-0.2,0.1-0.3,0.2-0.4
							c0-0.1,0.1-0.1,0.1-0.1h-1.6c-0.4,0.9-0.9,1.7-1.2,2.4c-0.2,0.3-0.3,0.6-0.5,0.9c-0.2,0.3-0.3,0.6-0.4,0.8
							c-0.1,0.3-0.2,0.5-0.3,0.6c-0.1,0.2-0.1,0.3-0.2,0.3c-0.1,0.2-0.1,0.4-0.2,0.5c-0.1,0.2-0.1,0.3-0.1,0.5
							c0,0.2-0.1,0.3-0.1,0.5c0,0.2-0.1,0.4-0.1,0.6c0,0.2,0,0.3,0,0.6c0,0.2,0.1,0.4,0.2,0.7c0.1,0.2,0.2,0.5,0.4,0.7
							c0.2,0.2,0.4,0.4,0.6,0.6c0.2,0.2,0.5,0.3,0.8,0.4c0.3,0.1,0.7,0.1,1.1,0.1c0.4,0,0.7-0.1,1-0.3c0.3-0.1,0.5-0.3,0.7-0.5
							c0.2-0.2,0.4-0.4,0.5-0.6c0.1-0.2,0.2-0.4,0.3-0.6c0.1-0.2,0.1-0.3,0.1-0.5c0-0.1,0-0.2,0-0.3c0-0.1,0-0.1,0-0.2
							c0-0.1,0-0.2,0-0.3c0-0.1,0-0.2,0-0.2c0-0.1,0-0.1,0-0.2c0-0.1,0-0.2,0-0.4C335.5,337.2,335.5,337,335.4,336.9z M334.1,338.6
							c0,0.1,0,0.2-0.1,0.3c0,0.1-0.1,0.2-0.2,0.3c-0.1,0.1-0.2,0.2-0.3,0.3c-0.1,0.1-0.2,0.2-0.4,0.2c-0.2,0.1-0.3,0.1-0.5,0.1
							c-0.3,0-0.5,0-0.6-0.1c-0.2-0.1-0.3-0.1-0.4-0.2c-0.1-0.1-0.2-0.2-0.3-0.4c-0.1-0.1-0.1-0.3-0.1-0.4c0-0.1,0-0.3,0-0.4
							c0-0.1,0-0.3,0-0.4c0-0.1,0-0.1,0-0.2c0-0.1,0.1-0.2,0.1-0.3c0.1-0.1,0.1-0.2,0.2-0.3c0.1-0.1,0.2-0.2,0.3-0.3
							c0.1-0.1,0.2-0.2,0.4-0.2c0.1-0.1,0.3-0.1,0.5-0.1c0.4,0,0.7,0.1,0.9,0.2c0.2,0.1,0.4,0.3,0.4,0.5c0.1,0.2,0.1,0.4,0.2,0.6
							c0,0.2,0,0.4,0,0.6C334.2,338.5,334.2,338.6,334.1,338.6z"/>
					</g>
				</g>
				<g>
					<g>
						<path fill="#F55A62" d="M125.8,289.5c-0.1-0.2-0.2-0.4-0.3-0.5c-0.1-0.2-0.3-0.4-0.4-0.5c-0.2-0.2-0.4-0.3-0.6-0.4
							c-0.2-0.1-0.5-0.2-0.8-0.2c-0.2,0-0.4,0-0.6,0c-0.2,0-0.3,0.1-0.5,0.1c0.1-0.1,0.1-0.3,0.2-0.4c0.1-0.2,0.2-0.4,0.3-0.6
							c0.1-0.2,0.2-0.5,0.4-0.7c0.1-0.2,0.3-0.5,0.4-0.7c0.1-0.2,0.2-0.5,0.4-0.7c0.1-0.2,0.2-0.4,0.3-0.6c0.1-0.2,0.1-0.3,0.2-0.4
							c0-0.1,0.1-0.1,0.1-0.1h-1.6c-0.4,0.9-0.9,1.7-1.2,2.4c-0.2,0.3-0.3,0.6-0.5,0.9c-0.2,0.3-0.3,0.6-0.4,0.8
							c-0.1,0.3-0.2,0.5-0.3,0.6c-0.1,0.2-0.1,0.3-0.2,0.3c-0.1,0.2-0.1,0.4-0.2,0.5c-0.1,0.2-0.1,0.3-0.1,0.5s-0.1,0.3-0.1,0.5
							c0,0.2-0.1,0.4-0.1,0.6c0,0.2,0,0.3,0,0.6c0,0.2,0.1,0.4,0.2,0.7c0.1,0.2,0.2,0.5,0.4,0.7c0.2,0.2,0.4,0.4,0.6,0.6
							c0.2,0.2,0.5,0.3,0.8,0.4c0.3,0.1,0.7,0.1,1.1,0.1c0.4,0,0.7-0.1,1-0.3c0.3-0.1,0.5-0.3,0.7-0.5c0.2-0.2,0.4-0.4,0.5-0.6
							c0.1-0.2,0.2-0.4,0.3-0.6c0.1-0.2,0.1-0.3,0.1-0.5s0-0.2,0-0.3c0-0.1,0-0.1,0-0.2c0-0.1,0-0.2,0-0.3c0-0.1,0-0.2,0-0.2
							c0-0.1,0-0.1,0-0.2c0-0.1,0-0.2,0-0.4C125.9,289.9,125.9,289.7,125.8,289.5z M124.5,291.3c0,0.1,0,0.2-0.1,0.3
							c0,0.1-0.1,0.2-0.2,0.3c-0.1,0.1-0.2,0.2-0.3,0.3c-0.1,0.1-0.2,0.2-0.4,0.2c-0.2,0.1-0.3,0.1-0.5,0.1c-0.3,0-0.5,0-0.6-0.1
							c-0.2-0.1-0.3-0.1-0.4-0.2c-0.1-0.1-0.2-0.2-0.3-0.4c-0.1-0.1-0.1-0.3-0.1-0.4c0-0.1,0-0.3,0-0.4c0-0.1,0-0.3,0-0.4
							c0-0.1,0-0.1,0-0.2c0-0.1,0.1-0.2,0.1-0.3c0.1-0.1,0.1-0.2,0.2-0.3c0.1-0.1,0.2-0.2,0.3-0.3c0.1-0.1,0.2-0.2,0.4-0.2
							c0.1-0.1,0.3-0.1,0.5-0.1c0.4,0,0.7,0.1,0.9,0.2c0.2,0.1,0.4,0.3,0.4,0.5c0.1,0.2,0.1,0.4,0.2,0.6c0,0.2,0,0.4,0,0.6
							C124.6,291.2,124.5,291.2,124.5,291.3z"/>
					</g>
					<g>
						<polygon fill="#F55A62" points="114.1,308.5 114.1,310.1 115.5,309 115.5,317.6 117,317.6 117,307.5 115.5,307.5 						"/>
						<path fill="#F55A62" d="M124.5,312.4c0.4-0.3,0.7-0.6,0.9-1c0.1-0.4,0.2-0.7,0.2-1.1c0-0.8-0.3-1.4-0.8-2
							c-0.5-0.6-1.3-0.9-2.2-0.9c-0.7,0-1.3,0.3-1.9,0.8c-0.5,0.5-0.8,1.1-0.9,1.9h1.4c0.1-0.4,0.3-0.7,0.5-0.9
							c0.3-0.2,0.5-0.3,0.8-0.3c0.4,0,0.8,0.1,1.1,0.4c0.3,0.3,0.4,0.6,0.4,1c0,0.4-0.1,0.8-0.4,1c-0.3,0.3-0.7,0.4-1.2,0.4h-0.5
							v1.3h0.6c0.4,0,0.8,0.1,1.1,0.4c0.3,0.3,0.4,0.7,0.5,1.2c0,0.5-0.2,0.9-0.5,1.2c-0.3,0.3-0.6,0.4-1.1,0.4
							c-0.4,0-0.7-0.1-1-0.3c-0.2-0.2-0.4-0.5-0.5-0.8h-1.4c0.2,0.8,0.5,1.5,1,1.9c0.5,0.4,1.1,0.7,1.8,0.7c0.9,0,1.6-0.3,2.2-0.9
							c0.6-0.5,0.9-1.3,0.9-2.2c0-0.4-0.1-0.8-0.3-1.2C125.2,313,124.9,312.6,124.5,312.4z"/>
					</g>
					<g>
						<path fill="#F55A62" d="M119,334c0-0.8-0.3-1.5-0.8-2.1c-0.5-0.5-1.2-0.8-2.1-0.8c-0.8,0-1.4,0.3-2,0.8
							c-0.5,0.6-0.8,1.2-0.8,2.1h1.4c0.1-0.5,0.2-0.8,0.5-1.1c0.3-0.3,0.6-0.4,1-0.4c0.4,0,0.8,0.2,1,0.4c0.2,0.3,0.4,0.6,0.4,1
							c0,0.1,0,0.3-0.1,0.5c-0.1,0.2-0.2,0.4-0.3,0.6l-3.9,4.9v1.4h5.8v-1.4h-3.9l3.3-4.1C118.8,335.2,119,334.6,119,334z"/>
						<path fill="#F55A62" d="M123,331.1c-0.8,0-1.4,0.2-2,0.7c-0.6,0.5-0.9,1.2-0.9,2.2v4.5c0,0.9,0.3,1.6,0.9,2.1
							c0.6,0.5,1.2,0.8,2,0.8c0.8,0,1.5-0.3,2-0.8c0.6-0.5,0.8-1.2,0.9-2.1V334c0-0.9-0.3-1.7-0.9-2.2
							C124.4,331.3,123.8,331.1,123,331.1z M124.4,338.4c0,1-0.5,1.5-1.4,1.5c-0.9,0-1.4-0.5-1.4-1.5v-4.3c0-1,0.5-1.5,1.4-1.5
							c0.9,0,1.4,0.5,1.4,1.5V338.4z"/>
					</g>
					<g>
						<path fill="#F55A62" d="M119,357.6c0-0.8-0.3-1.5-0.8-2.1c-0.5-0.5-1.2-0.8-2.1-0.8c-0.8,0-1.4,0.3-2,0.8
							c-0.5,0.6-0.8,1.2-0.8,2.1h1.4c0.1-0.5,0.2-0.8,0.5-1.1c0.3-0.3,0.6-0.4,1-0.4c0.4,0,0.8,0.2,1,0.4c0.2,0.3,0.4,0.6,0.4,1
							c0,0.1,0,0.3-0.1,0.5c-0.1,0.2-0.2,0.4-0.3,0.6l-3.9,4.9v1.4h5.8v-1.4h-3.9l3.3-4.1C118.8,358.9,119,358.3,119,357.6z"/>
						<polygon fill="#F55A62" points="120.3,357.7 121.7,357.7 121.7,356.3 124.4,356.3 121,364.9 122.6,364.9 126.1,356.3 
							126.1,354.8 120.3,354.8 						"/>
					</g>
				</g>
				<g>
					<g>
						<polygon fill="#4672B8" points="157.3,286.7 158.8,286.7 158.8,285.3 161.4,285.3 158,293.9 159.6,293.9 163.1,285.3 
							163.1,283.8 157.3,283.8 						"/>
					</g>
					<g>
						<polygon fill="#4672B8" points="151.1,308.5 151.1,310.1 152.5,309 152.5,317.6 154,317.6 154,307.5 152.5,307.5 						"/>
						<polygon fill="#4672B8" points="162.4,311.8 161,311.8 161,314.7 158.3,314.7 161.7,307.5 160.1,307.5 156.8,314.7 
							156.8,316.1 161,316.1 161,317.6 162.4,317.6 162.4,316.1 163.2,316.1 163.2,314.7 162.4,314.7 						"/>
					</g>
					<g>
						<path fill="#4672B8" d="M156,334c0-0.8-0.3-1.5-0.8-2.1c-0.5-0.5-1.2-0.8-2.1-0.8c-0.8,0-1.4,0.3-2,0.8
							c-0.5,0.6-0.8,1.2-0.8,2.1h1.4c0.1-0.5,0.2-0.8,0.5-1.1c0.3-0.3,0.6-0.4,1-0.4c0.4,0,0.8,0.2,1,0.4c0.2,0.3,0.4,0.6,0.4,1
							c0,0.1,0,0.3-0.1,0.5c-0.1,0.2-0.2,0.4-0.3,0.6l-3.9,4.9v1.4h5.8v-1.4h-3.9l3.3-4.1C155.8,335.2,156,334.6,156,334z"/>
						<polygon fill="#4672B8" points="157.9,332.2 157.9,333.7 159.3,332.7 159.3,341.3 160.8,341.3 160.8,331.2 159.3,331.2 						
							"/>
					</g>
					<g>
						<path fill="#4672B8" d="M156,357.6c0-0.8-0.3-1.5-0.8-2.1c-0.5-0.5-1.2-0.8-2.1-0.8c-0.8,0-1.4,0.3-2,0.8
							c-0.5,0.6-0.8,1.2-0.8,2.1h1.4c0.1-0.5,0.2-0.8,0.5-1.1c0.3-0.3,0.6-0.4,1-0.4c0.4,0,0.8,0.2,1,0.4c0.2,0.3,0.4,0.6,0.4,1
							c0,0.1,0,0.3-0.1,0.5c-0.1,0.2-0.2,0.4-0.3,0.6l-3.9,4.9v1.4h5.8v-1.4h-3.9l3.3-4.1C155.8,358.9,156,358.3,156,357.6z"/>
						<path fill="#4672B8" d="M161.9,359.7c0.3-0.3,0.5-0.6,0.7-0.9c0.2-0.3,0.3-0.7,0.3-1.1c0-0.8-0.3-1.5-0.8-2.1
							c-0.5-0.5-1.2-0.8-2.1-0.8c-0.8,0-1.5,0.3-2,0.8c-0.6,0.6-0.8,1.2-0.9,2.1c0,0.4,0.1,0.8,0.3,1.1c0.2,0.3,0.4,0.6,0.7,0.9
							c-0.8,0.5-1.2,1.3-1.2,2.3c0,0.9,0.3,1.6,0.9,2.2c0.6,0.6,1.3,0.8,2.2,0.9c0.9,0,1.6-0.3,2.2-0.9c0.6-0.5,0.9-1.3,0.9-2.2
							C163.1,361,162.7,360.3,161.9,359.7z M159,356.5c0.3-0.2,0.6-0.4,1-0.4c0.4,0,0.7,0.1,1,0.4c0.3,0.2,0.4,0.6,0.4,1.1
							c0,0.5-0.2,0.8-0.4,1.1c-0.3,0.3-0.6,0.4-1,0.4c-0.4,0-0.7-0.1-1-0.4c-0.3-0.2-0.4-0.6-0.5-1.1
							C158.6,357.2,158.7,356.8,159,356.5z M161.1,363.1c-0.3,0.3-0.7,0.5-1.2,0.5c-0.4,0-0.8-0.2-1.1-0.5c-0.3-0.3-0.5-0.7-0.5-1.1
							c0-0.5,0.2-0.9,0.5-1.2c0.3-0.3,0.7-0.4,1.1-0.5c0.5,0,0.8,0.2,1.2,0.5c0.3,0.3,0.5,0.7,0.5,1.2
							C161.6,362.4,161.5,362.8,161.1,363.1z"/>
					</g>
				</g>
				<g>
					<g>
						<polygon fill="#4672B8" points="193.9,261.2 193.9,262.7 195.3,261.7 195.3,270.3 196.8,270.3 196.8,260.1 195.3,260.1 						
							"/>
					</g>
					<g>
						<path fill="#4672B8" d="M197.9,288.7c0.3-0.3,0.5-0.6,0.7-0.9c0.2-0.3,0.3-0.7,0.3-1.1c0-0.8-0.3-1.5-0.8-2.1
							c-0.5-0.5-1.2-0.8-2.1-0.8c-0.8,0-1.5,0.3-2,0.8c-0.6,0.6-0.8,1.2-0.9,2.1c0,0.4,0.1,0.8,0.3,1.1c0.2,0.3,0.4,0.6,0.7,0.9
							c-0.8,0.5-1.2,1.3-1.2,2.3c0,0.9,0.3,1.6,0.9,2.2c0.6,0.6,1.3,0.8,2.2,0.9c0.9,0,1.6-0.3,2.2-0.9c0.6-0.5,0.9-1.3,0.9-2.2
							C199.1,290,198.7,289.2,197.9,288.7z M195,285.5c0.3-0.2,0.6-0.4,1-0.4c0.4,0,0.7,0.1,1,0.4c0.3,0.2,0.4,0.6,0.4,1.1
							c0,0.5-0.2,0.8-0.4,1.1c-0.3,0.3-0.6,0.4-1,0.4c-0.4,0-0.7-0.1-1-0.4c-0.3-0.2-0.4-0.6-0.5-1.1
							C194.5,286.1,194.7,285.8,195,285.5z M197.1,292.1c-0.3,0.3-0.7,0.5-1.2,0.5c-0.4,0-0.8-0.2-1.1-0.5c-0.3-0.3-0.5-0.7-0.5-1.1
							c0-0.5,0.2-0.9,0.5-1.2c0.3-0.3,0.7-0.4,1.1-0.5c0.5,0,0.8,0.2,1.2,0.5c0.3,0.3,0.5,0.7,0.5,1.2
							C197.6,291.4,197.4,291.8,197.1,292.1z"/>
					</g>
					<g>
						<polygon fill="#4672B8" points="187.1,308.5 187.1,310.1 188.5,309 188.5,317.6 190,317.6 190,307.5 188.5,307.5 						"/>
						<path fill="#4672B8" d="M198.7,312.4c-0.1-0.4-0.3-0.7-0.6-1c-0.2-0.2-0.4-0.4-0.7-0.5c-0.3-0.1-0.7-0.2-1.1-0.2
							c-0.6,0-1.1,0.2-1.6,0.6v-2.3h4v-1.4h-5.4v5.5h1.4c0.2-0.3,0.4-0.5,0.6-0.7c0.2-0.1,0.5-0.2,0.7-0.2c0.3,0,0.5,0,0.7,0.1
							c0.2,0.1,0.3,0.2,0.5,0.4c0.2,0.4,0.3,0.8,0.3,1.4c0,0.2,0,0.5,0,0.7c0,0.3-0.1,0.5-0.2,0.7c-0.1,0.2-0.2,0.4-0.4,0.5
							c-0.2,0.1-0.5,0.2-0.8,0.2c-0.8,0-1.3-0.4-1.4-1.2h-1.4c0.1,0.9,0.5,1.6,1.1,2c0.6,0.4,1.2,0.6,1.9,0.6c0.5,0,0.9-0.1,1.3-0.4
							c0.4-0.2,0.7-0.5,0.9-0.7c0.2-0.3,0.4-0.6,0.5-0.9c0.1-0.4,0.1-0.9,0.1-1.5c0-0.4,0-0.8,0-1.1
							C198.8,312.8,198.7,312.6,198.7,312.4z"/>
					</g>
					<g>
						<path fill="#4672B8" d="M192,334c0-0.8-0.3-1.5-0.8-2.1c-0.5-0.5-1.2-0.8-2.1-0.8c-0.8,0-1.4,0.3-2,0.8
							c-0.5,0.6-0.8,1.2-0.8,2.1h1.4c0.1-0.5,0.2-0.8,0.5-1.1c0.3-0.3,0.6-0.4,1-0.4c0.4,0,0.8,0.2,1,0.4c0.2,0.3,0.4,0.6,0.4,1
							c0,0.1,0,0.3-0.1,0.5c-0.1,0.2-0.2,0.4-0.3,0.6l-3.9,4.9v1.4h5.8v-1.4h-3.9l3.3-4.1C191.8,335.2,192,334.6,192,334z"/>
						<path fill="#4672B8" d="M198.8,334c0-0.8-0.3-1.5-0.8-2.1c-0.5-0.5-1.2-0.8-2.1-0.8c-0.8,0-1.4,0.3-2,0.8
							c-0.5,0.6-0.8,1.2-0.8,2.1h1.4c0.1-0.5,0.2-0.8,0.5-1.1c0.3-0.3,0.6-0.4,1-0.4c0.4,0,0.8,0.2,1,0.4c0.2,0.3,0.4,0.6,0.4,1
							c0,0.1,0,0.3-0.1,0.5c-0.1,0.2-0.2,0.4-0.3,0.6l-3.9,4.9v1.4h5.8v-1.4h-3.9l3.3-4.1C198.6,335.2,198.8,334.6,198.8,334z"/>
					</g>
					<g>
						<path fill="#4672B8" d="M192,357.6c0-0.8-0.3-1.5-0.8-2.1c-0.5-0.5-1.2-0.8-2.1-0.8c-0.8,0-1.4,0.3-2,0.8
							c-0.5,0.6-0.8,1.2-0.8,2.1h1.4c0.1-0.5,0.2-0.8,0.5-1.1c0.3-0.3,0.6-0.4,1-0.4c0.4,0,0.8,0.2,1,0.4c0.2,0.3,0.4,0.6,0.4,1
							c0,0.1,0,0.3-0.1,0.5c-0.1,0.2-0.2,0.4-0.3,0.6l-3.9,4.9v1.4h5.8v-1.4h-3.9l3.3-4.1C191.8,358.9,192,358.3,192,357.6z"/>
						<path fill="#4672B8" d="M198.6,356.5c-0.1-0.2-0.2-0.5-0.4-0.7c-0.2-0.2-0.3-0.4-0.6-0.6c-0.2-0.2-0.5-0.3-0.8-0.4
							c-0.3-0.1-0.7-0.1-1.1-0.1c-0.4,0-0.8,0.1-1,0.3c-0.3,0.1-0.5,0.3-0.7,0.5c-0.2,0.2-0.4,0.4-0.5,0.6c-0.1,0.2-0.2,0.4-0.3,0.6
							c-0.1,0.2-0.1,0.3-0.1,0.5c0,0.1,0,0.2,0,0.2c0,0.1,0,0.1,0,0.2c0,0.1,0,0.2,0,0.3c0,0.1,0,0.2,0,0.2c0,0.1,0,0.1,0,0.2
							c0,0.1,0,0.2,0,0.4c0,0.2,0.1,0.3,0.1,0.5c0.1,0.2,0.2,0.4,0.3,0.5c0.1,0.2,0.2,0.4,0.4,0.5c0.2,0.2,0.4,0.3,0.6,0.4
							c0.2,0.1,0.5,0.2,0.8,0.2c0.2,0,0.4,0,0.6,0c0.2,0,0.3-0.1,0.5-0.1c-0.1,0.2-0.2,0.4-0.3,0.6c-0.1,0.3-0.3,0.6-0.5,0.9
							c-0.2,0.3-0.3,0.6-0.5,1c-0.2,0.3-0.3,0.6-0.5,0.9c-0.1,0.3-0.2,0.5-0.3,0.7c-0.1,0.2-0.1,0.3-0.1,0.3h1.7
							c0.4-0.9,0.8-1.7,1.2-2.4c0.2-0.3,0.3-0.6,0.4-0.9c0.1-0.3,0.3-0.6,0.4-0.8c0.1-0.2,0.2-0.5,0.3-0.6c0.1-0.2,0.1-0.3,0.1-0.3
							c0.1-0.2,0.1-0.4,0.2-0.5c0.1-0.2,0.1-0.3,0.1-0.5c0-0.2,0.1-0.3,0.1-0.5c0-0.2,0.1-0.4,0.1-0.6c0-0.2,0-0.3,0-0.6
							C198.7,357,198.7,356.7,198.6,356.5z M197.3,358.3c0,0.1-0.1,0.2-0.1,0.3c-0.1,0.1-0.1,0.2-0.2,0.3c-0.1,0.1-0.2,0.2-0.3,0.3
							c-0.1,0.1-0.2,0.2-0.4,0.2c-0.1,0.1-0.3,0.1-0.5,0.1c-0.4,0-0.6-0.1-0.8-0.2c-0.2-0.1-0.3-0.3-0.4-0.5
							c-0.1-0.2-0.1-0.4-0.2-0.6c0-0.2,0-0.4,0-0.6c0-0.1,0-0.2,0.1-0.3c0-0.1,0.1-0.3,0.2-0.5c0.1-0.2,0.3-0.3,0.4-0.4
							c0.2-0.1,0.4-0.2,0.7-0.2c0.3,0,0.5,0,0.6,0.1c0.2,0.1,0.3,0.1,0.4,0.2c0.1,0.1,0.2,0.2,0.3,0.4c0.1,0.1,0.1,0.3,0.1,0.4
							c0,0.1,0,0.3,0,0.4c0,0.1,0,0.3,0,0.4C197.3,358.2,197.3,358.3,197.3,358.3z"/>
					</g>
				</g>
				<g>
					<g>
						<path fill="#4672B8" d="M235.7,263c0-0.8-0.3-1.5-0.8-2.1c-0.5-0.5-1.2-0.8-2.1-0.8c-0.8,0-1.4,0.3-2,0.8
							c-0.5,0.6-0.8,1.2-0.8,2.1h1.4c0.1-0.5,0.2-0.8,0.5-1.1c0.3-0.3,0.6-0.4,1-0.4c0.4,0,0.8,0.2,1,0.4c0.2,0.3,0.4,0.6,0.4,1
							c0,0.1,0,0.3-0.1,0.5c-0.1,0.2-0.2,0.4-0.3,0.6l-3.9,4.9v1.4h5.8v-1.4h-3.9l3.3-4.1C235.5,264.2,235.7,263.6,235.7,263z"/>
					</g>
					<g>
						<path fill="#4672B8" d="M235.5,285.5c-0.1-0.2-0.2-0.5-0.4-0.7c-0.2-0.2-0.3-0.4-0.6-0.6c-0.2-0.2-0.5-0.3-0.8-0.4
							c-0.3-0.1-0.7-0.1-1.1-0.1c-0.4,0-0.8,0.1-1,0.3c-0.3,0.1-0.5,0.3-0.7,0.5c-0.2,0.2-0.4,0.4-0.5,0.6c-0.1,0.2-0.2,0.4-0.3,0.6
							c-0.1,0.2-0.1,0.3-0.1,0.5c0,0.1,0,0.2,0,0.2c0,0.1,0,0.1,0,0.2c0,0.1,0,0.2,0,0.3c0,0.1,0,0.2,0,0.2c0,0.1,0,0.1,0,0.2
							c0,0.1,0,0.2,0,0.4s0.1,0.3,0.1,0.5c0.1,0.2,0.2,0.4,0.3,0.5c0.1,0.2,0.2,0.4,0.4,0.5c0.2,0.2,0.4,0.3,0.6,0.4
							c0.2,0.1,0.5,0.2,0.8,0.2c0.2,0,0.4,0,0.6,0c0.2,0,0.3-0.1,0.5-0.1c-0.1,0.2-0.2,0.4-0.3,0.6c-0.1,0.3-0.3,0.6-0.5,0.9
							c-0.2,0.3-0.3,0.6-0.5,1c-0.2,0.3-0.3,0.6-0.5,0.9c-0.1,0.3-0.2,0.5-0.3,0.7c-0.1,0.2-0.1,0.3-0.1,0.3h1.7
							c0.4-0.9,0.8-1.7,1.2-2.4c0.2-0.3,0.3-0.6,0.4-0.9c0.1-0.3,0.3-0.6,0.4-0.8c0.1-0.2,0.2-0.5,0.3-0.6c0.1-0.2,0.1-0.3,0.1-0.3
							c0.1-0.2,0.1-0.4,0.2-0.5c0.1-0.2,0.1-0.3,0.1-0.5c0-0.2,0.1-0.3,0.1-0.5c0-0.2,0.1-0.4,0.1-0.6c0-0.2,0-0.3,0-0.6
							C235.6,285.9,235.6,285.7,235.5,285.5z M234.2,287.3c0,0.1-0.1,0.2-0.1,0.3c-0.1,0.1-0.1,0.2-0.2,0.3
							c-0.1,0.1-0.2,0.2-0.3,0.3c-0.1,0.1-0.2,0.2-0.4,0.2c-0.1,0.1-0.3,0.1-0.5,0.1c-0.4,0-0.6-0.1-0.8-0.2
							c-0.2-0.1-0.3-0.3-0.4-0.5c-0.1-0.2-0.1-0.4-0.2-0.6c0-0.2,0-0.4,0-0.6c0-0.1,0-0.2,0.1-0.3c0-0.1,0.1-0.3,0.2-0.5
							c0.1-0.2,0.3-0.3,0.4-0.4c0.2-0.1,0.4-0.2,0.7-0.2c0.3,0,0.5,0,0.6,0.1c0.2,0.1,0.3,0.1,0.4,0.2c0.1,0.1,0.2,0.2,0.3,0.4
							c0.1,0.1,0.1,0.3,0.1,0.4c0,0.1,0,0.3,0,0.4c0,0.1,0,0.3,0,0.4C234.2,287.2,234.2,287.2,234.2,287.3z"/>
					</g>
					<g>
						<polygon fill="#4672B8" points="224,308.5 224,310.1 225.4,309 225.4,317.6 226.8,317.6 226.8,307.5 225.4,307.5 						"/>
						<path fill="#4672B8" d="M235.7,313.2c-0.1-0.2-0.2-0.4-0.3-0.5c-0.1-0.2-0.3-0.4-0.4-0.5c-0.2-0.2-0.4-0.3-0.6-0.4
							c-0.2-0.1-0.5-0.2-0.8-0.2c-0.2,0-0.4,0-0.6,0c-0.2,0-0.3,0.1-0.5,0.1c0.1-0.1,0.1-0.3,0.2-0.4c0.1-0.2,0.2-0.4,0.3-0.6
							c0.1-0.2,0.2-0.5,0.4-0.7c0.1-0.2,0.3-0.5,0.4-0.7c0.1-0.2,0.2-0.5,0.4-0.7c0.1-0.2,0.2-0.4,0.3-0.6c0.1-0.2,0.1-0.3,0.2-0.4
							c0-0.1,0.1-0.1,0.1-0.1h-1.6c-0.4,0.9-0.9,1.7-1.2,2.4c-0.2,0.3-0.3,0.6-0.5,0.9c-0.2,0.3-0.3,0.6-0.4,0.8
							c-0.1,0.3-0.2,0.5-0.3,0.6c-0.1,0.2-0.1,0.3-0.2,0.3c-0.1,0.2-0.1,0.4-0.2,0.5c-0.1,0.2-0.1,0.3-0.1,0.5
							c0,0.2-0.1,0.3-0.1,0.5c0,0.2-0.1,0.4-0.1,0.6c0,0.2,0,0.3,0,0.6c0,0.2,0.1,0.4,0.2,0.7c0.1,0.2,0.2,0.5,0.4,0.7
							c0.2,0.2,0.4,0.4,0.6,0.6c0.2,0.2,0.5,0.3,0.8,0.4c0.3,0.1,0.7,0.1,1.1,0.1c0.4,0,0.7-0.1,1-0.3c0.3-0.1,0.5-0.3,0.7-0.5
							c0.2-0.2,0.4-0.4,0.5-0.6c0.1-0.2,0.2-0.4,0.3-0.6c0.1-0.2,0.1-0.3,0.1-0.5c0-0.1,0-0.2,0-0.3c0-0.1,0-0.1,0-0.2
							c0-0.1,0-0.2,0-0.3c0-0.1,0-0.2,0-0.2c0-0.1,0-0.1,0-0.2c0-0.1,0-0.2,0-0.4C235.8,313.5,235.8,313.4,235.7,313.2z M234.4,315
							c0,0.1,0,0.2-0.1,0.3c0,0.1-0.1,0.2-0.2,0.3c-0.1,0.1-0.2,0.2-0.3,0.3c-0.1,0.1-0.2,0.2-0.4,0.2c-0.2,0.1-0.3,0.1-0.5,0.1
							c-0.3,0-0.5,0-0.6-0.1c-0.2-0.1-0.3-0.1-0.4-0.2c-0.1-0.1-0.2-0.2-0.3-0.4c-0.1-0.1-0.1-0.3-0.1-0.4c0-0.1,0-0.3,0-0.4
							c0-0.1,0-0.3,0-0.4c0-0.1,0-0.1,0-0.2c0-0.1,0.1-0.2,0.1-0.3c0.1-0.1,0.1-0.2,0.2-0.3c0.1-0.1,0.2-0.2,0.3-0.3
							c0.1-0.1,0.2-0.2,0.4-0.2c0.1-0.1,0.3-0.1,0.5-0.1c0.4,0,0.7,0.1,0.9,0.2c0.2,0.1,0.4,0.3,0.4,0.5c0.1,0.2,0.1,0.4,0.2,0.6
							c0,0.2,0,0.4,0,0.6C234.4,314.8,234.4,314.9,234.4,315z"/>
					</g>
					<g>
						<path fill="#4672B8" d="M228.9,334c0-0.8-0.3-1.5-0.8-2.1c-0.5-0.5-1.2-0.8-2.1-0.8c-0.8,0-1.4,0.3-2,0.8
							c-0.5,0.6-0.8,1.2-0.8,2.1h1.4c0.1-0.5,0.2-0.8,0.5-1.1c0.3-0.3,0.6-0.4,1-0.4c0.4,0,0.8,0.2,1,0.4c0.2,0.3,0.4,0.6,0.4,1
							c0,0.1,0,0.3-0.1,0.5c-0.1,0.2-0.2,0.4-0.3,0.6l-3.9,4.9v1.4h5.8v-1.4H225l3.3-4.1C228.7,335.2,228.9,334.6,228.9,334z"/>
						<path fill="#4672B8" d="M234.4,336c0.4-0.3,0.7-0.6,0.9-1c0.1-0.4,0.2-0.7,0.2-1.1c0-0.8-0.3-1.4-0.8-2
							c-0.5-0.6-1.3-0.9-2.2-0.9c-0.7,0-1.4,0.3-1.9,0.8c-0.5,0.5-0.8,1.1-0.9,1.9h1.4c0.1-0.4,0.3-0.7,0.5-0.9
							c0.3-0.2,0.5-0.3,0.8-0.3c0.4,0,0.8,0.1,1.1,0.4c0.3,0.3,0.4,0.6,0.4,1c0,0.4-0.1,0.8-0.4,1c-0.3,0.3-0.7,0.4-1.2,0.4H232v1.3
							h0.6c0.4,0,0.8,0.1,1.1,0.4c0.3,0.3,0.4,0.7,0.5,1.2c0,0.5-0.2,0.9-0.5,1.2c-0.3,0.3-0.6,0.4-1.1,0.4c-0.4,0-0.7-0.1-1-0.3
							c-0.2-0.2-0.4-0.5-0.5-0.8h-1.4c0.2,0.8,0.5,1.5,1,1.9c0.5,0.4,1.1,0.7,1.8,0.7c0.9,0,1.6-0.3,2.2-0.9
							c0.6-0.5,0.9-1.3,0.9-2.2c0-0.4-0.1-0.8-0.3-1.2C235.1,336.7,234.8,336.3,234.4,336z"/>
					</g>
					<g>
						<path fill="#4672B8" d="M227.6,359.7c0.4-0.3,0.7-0.6,0.9-1c0.1-0.4,0.2-0.7,0.2-1.1c0-0.8-0.3-1.4-0.8-2
							c-0.5-0.6-1.3-0.9-2.2-0.9c-0.7,0-1.3,0.3-1.9,0.8c-0.5,0.5-0.8,1.1-0.9,1.9h1.4c0.1-0.4,0.3-0.7,0.5-0.9
							c0.3-0.2,0.5-0.3,0.8-0.3c0.4,0,0.8,0.1,1.1,0.4c0.3,0.3,0.4,0.6,0.4,1c0,0.4-0.1,0.8-0.4,1c-0.3,0.3-0.7,0.4-1.2,0.4h-0.5
							v1.3h0.6c0.4,0,0.8,0.1,1.1,0.4c0.3,0.3,0.4,0.7,0.5,1.2c0,0.5-0.2,0.9-0.5,1.2c-0.3,0.3-0.6,0.4-1.1,0.4
							c-0.4,0-0.7-0.1-1-0.3c-0.2-0.2-0.4-0.5-0.5-0.8h-1.4c0.2,0.8,0.5,1.5,1,1.9c0.5,0.4,1.1,0.7,1.8,0.7c0.9,0,1.6-0.3,2.2-0.9
							c0.6-0.5,0.9-1.3,0.9-2.2c0-0.4-0.1-0.8-0.3-1.2C228.3,360.3,228,360,227.6,359.7z"/>
						<path fill="#4672B8" d="M232.9,354.7c-0.8,0-1.4,0.2-2,0.7c-0.6,0.5-0.9,1.2-0.9,2.2v4.5c0,0.9,0.3,1.6,0.9,2.1
							c0.6,0.5,1.2,0.8,2,0.8c0.8,0,1.5-0.3,2-0.8c0.6-0.5,0.8-1.2,0.9-2.1v-4.5c0-0.9-0.3-1.7-0.9-2.2
							C234.3,355,233.7,354.7,232.9,354.7z M234.3,362c0,1-0.5,1.5-1.4,1.5c-0.9,0-1.4-0.5-1.4-1.5v-4.3c0-1,0.5-1.5,1.4-1.5
							c0.9,0,1.4,0.5,1.4,1.5V362z"/>
					</g>
				</g>
				<g>
					<g>
						<path fill="#4672B8" d="M271.6,265c0.4-0.3,0.7-0.6,0.9-1c0.1-0.4,0.2-0.7,0.2-1.1c0-0.8-0.3-1.4-0.8-2
							c-0.5-0.6-1.3-0.9-2.2-0.9c-0.7,0-1.4,0.3-1.9,0.8c-0.5,0.5-0.8,1.1-0.9,1.9h1.4c0.1-0.4,0.3-0.7,0.5-0.9
							c0.3-0.2,0.5-0.3,0.8-0.3c0.4,0,0.8,0.1,1.1,0.4c0.3,0.3,0.4,0.6,0.4,1c0,0.4-0.1,0.8-0.4,1c-0.3,0.3-0.7,0.4-1.2,0.4h-0.5
							v1.3h0.6c0.4,0,0.8,0.1,1.1,0.4c0.3,0.3,0.4,0.7,0.5,1.2c0,0.5-0.2,0.9-0.5,1.2c-0.3,0.3-0.6,0.4-1.1,0.4
							c-0.4,0-0.7-0.1-1-0.3c-0.2-0.2-0.4-0.5-0.5-0.8h-1.4c0.2,0.8,0.5,1.5,1,1.9c0.5,0.4,1.1,0.7,1.8,0.7c0.9,0,1.6-0.3,2.2-0.9
							c0.6-0.5,0.9-1.3,0.9-2.2c0-0.4-0.1-0.8-0.3-1.2C272.3,265.6,272,265.3,271.6,265z"/>
					</g>
					<g>
						<polygon fill="#4672B8" points="261.2,284.9 261.2,286.4 262.6,285.3 262.6,293.9 264.1,293.9 264.1,283.8 262.6,283.8 						
							"/>
						<path fill="#4672B8" d="M270.1,283.7c-0.8,0-1.4,0.2-2,0.7c-0.6,0.5-0.9,1.2-0.9,2.2v4.5c0,0.9,0.3,1.6,0.9,2.1
							c0.6,0.5,1.2,0.8,2,0.8c0.8,0,1.5-0.3,2-0.8c0.6-0.5,0.8-1.2,0.9-2.1v-4.5c0-0.9-0.3-1.7-0.9-2.2
							C271.5,284,270.9,283.7,270.1,283.7z M271.5,291c0,1-0.5,1.5-1.4,1.5c-0.9,0-1.4-0.5-1.4-1.5v-4.3c0-1,0.5-1.5,1.4-1.5
							c0.9,0,1.4,0.5,1.4,1.5V291z"/>
					</g>
					<g>
						<polygon fill="#4672B8" points="261.2,308.5 261.2,310.1 262.6,309 262.6,317.6 264.1,317.6 264.1,307.5 262.6,307.5 						
							"/>
						<polygon fill="#4672B8" points="267.4,310.4 268.8,310.4 268.8,308.9 271.5,308.9 268.1,317.6 269.7,317.6 273.2,308.9 
							273.2,307.5 267.4,307.5 						"/>
					</g>
					<g>
						<path fill="#4672B8" d="M266.1,334c0-0.8-0.3-1.5-0.8-2.1c-0.5-0.5-1.2-0.8-2.1-0.8c-0.8,0-1.4,0.3-2,0.8
							c-0.5,0.6-0.8,1.2-0.8,2.1h1.4c0.1-0.5,0.2-0.8,0.5-1.1c0.3-0.3,0.6-0.4,1-0.4c0.4,0,0.8,0.2,1,0.4c0.2,0.3,0.4,0.6,0.4,1
							c0,0.1,0,0.3-0.1,0.5c-0.1,0.2-0.2,0.4-0.3,0.6l-3.9,4.9v1.4h5.8v-1.4h-3.9l3.3-4.1C265.9,335.2,266.1,334.6,266.1,334z"/>
						<polygon fill="#4672B8" points="272.5,335.5 271.1,335.5 271.1,338.4 268.4,338.4 271.8,331.2 270.2,331.2 266.8,338.4 
							266.8,339.8 271.1,339.8 271.1,341.3 272.5,341.3 272.5,339.8 273.3,339.8 273.3,338.4 272.5,338.4 						"/>
					</g>
					<g>
						<path fill="#4672B8" d="M264.8,359.7c0.4-0.3,0.7-0.6,0.9-1c0.1-0.4,0.2-0.7,0.2-1.1c0-0.8-0.3-1.4-0.8-2
							c-0.5-0.6-1.3-0.9-2.2-0.9c-0.7,0-1.4,0.3-1.9,0.8c-0.5,0.5-0.8,1.1-0.9,1.9h1.4c0.1-0.4,0.3-0.7,0.5-0.9
							c0.3-0.2,0.5-0.3,0.8-0.3c0.4,0,0.8,0.1,1.1,0.4c0.3,0.3,0.4,0.6,0.4,1c0,0.4-0.1,0.8-0.4,1c-0.3,0.3-0.7,0.4-1.2,0.4h-0.5
							v1.3h0.6c0.4,0,0.8,0.1,1.1,0.4c0.3,0.3,0.4,0.7,0.5,1.2c0,0.5-0.2,0.9-0.5,1.2c-0.3,0.3-0.6,0.4-1.1,0.4
							c-0.4,0-0.7-0.1-1-0.3c-0.2-0.2-0.4-0.5-0.5-0.8H260c0.2,0.8,0.5,1.5,1,1.9c0.5,0.4,1.1,0.7,1.8,0.7c0.9,0,1.6-0.3,2.2-0.9
							c0.6-0.5,0.9-1.3,0.9-2.2c0-0.4-0.1-0.8-0.3-1.2C265.5,360.3,265.2,360,264.8,359.7z"/>
						<polygon fill="#4672B8" points="268,355.9 268,357.4 269.4,356.4 269.4,364.9 270.9,364.9 270.9,354.8 269.4,354.8 						"/>
					</g>
				</g>
			</g>
		</g>
		<text transform="matrix(1 0 0 1 137.9976 210.0605)" fill="#FFFFFF" font-family="'Arial-Black'" font-size="116.69px">1</text>
		<text transform="matrix(1 0 0 1 216.3237 210.1221)" fill="#FFFFFF" font-family="'Arial-Black'" font-size="116.69px">2</text>
	</g>
</g>
<circle fill="#A11B28" cx="336.7" cy="352.1" r="93.5"/>
<ellipse transform="matrix(0.7071 -0.7071 0.7071 0.7071 -146.6007 343.1486)" fill="#FCD2D5" cx="340.9" cy="348.5" rx="93.5" ry="93.5"/>
<g>
	
		<ellipse transform="matrix(0.9873 -0.1588 0.1588 0.9873 -51.2481 58.3442)" fill="#E82532" cx="339.3" cy="349.8" rx="93.5" ry="93.5"/>
</g>
<path fill="#A11B28" d="M331,282.2l-84,82c4.3,27.7,20.7,51.3,43.7,65.4l54.6-51.6L331,282.2z"/>
<path fill="#A11B28" d="M331.1,393.2L292,430.4c9.6,5.6,20.3,9.6,31.7,11.5l26.8-26.4L331.1,393.2z"/>
<path fill="#FFFFFF" d="M330.8,346.2c-1.8-12.9-3.2-23.7-4.3-32.6c-1.1-8.8-1.6-15.3-1.6-19.3c0-4,1.4-7.5,4.1-10.4
	c2.8-2.9,6.4-4.3,11-4.3c4.6,0,8.3,1.4,11,4.3c2.8,2.9,4.1,6.3,4.1,10.4c0,4-0.5,10.5-1.6,19.3c-1.1,8.8-2.5,19.7-4.3,32.6
	c-1.8,12.9-3.1,23.5-4,31.8h-10.4C334,369.7,332.6,359.1,330.8,346.2z M329.6,415.6c-2.9-2.9-4.3-6.4-4.3-10.5
	c0-4.1,1.4-7.6,4.3-10.5c2.9-2.9,6.4-4.3,10.5-4.3c4.1,0,7.6,1.4,10.5,4.3c2.9,2.9,4.3,6.4,4.3,10.5c0,4.1-1.4,7.6-4.3,10.5
	c-2.9,2.9-6.4,4.3-10.5,4.3C336,419.9,332.5,418.4,329.6,415.6z"/>
</svg>
