<?xml version="1.0" encoding="utf-8"?>
<!-- Generator: Adobe Illustrator 24.1.2, SVG Export Plug-In . SVG Version: 6.00 Build 0)  -->
<svg version="1.1" id="Layer_1" xmlns="http://www.w3.org/2000/svg" xmlns:xlink="http://www.w3.org/1999/xlink" x="0px" y="0px"
	 width="512px" height="512px" viewBox="0 0 512 512" enable-background="new 0 0 512 512" xml:space="preserve">
<circle fill="#FFFFFF" cx="256" cy="256" r="256"/>
<g>
	<defs>
		<circle id="SVGID_1_" cx="256" cy="256" r="256"/>
	</defs>
	<clipPath id="SVGID_2_">
		<use xlink:href="#SVGID_1_"  overflow="visible"/>
	</clipPath>
</g>
<g>
	<defs>
		
			<ellipse id="SVGID_3_" transform="matrix(0.7071 -0.7071 0.7071 0.7071 -106.0386 255.9999)" cx="256" cy="256" rx="256" ry="256"/>
	</defs>
	<clipPath id="SVGID_4_">
		<use xlink:href="#SVGID_3_"  overflow="visible"/>
	</clipPath>
	<g clip-path="url(#SVGID_4_)">
		<path fill="#FFE07D" d="M466.6,406.8H45.4c-10.3,0-18.6-8.3-18.6-18.6V127.3c0-10.3,8.3-18.6,18.6-18.6h421.1
			c10.3,0,18.6,8.3,18.6,18.6v260.9C485.2,398.4,476.8,406.8,466.6,406.8z"/>
		<path fill="#FFD064" d="M466.6,108.6h-29.8c10.3,0,18.6,8.3,18.6,18.6v260.9c0,10.3-8.3,18.6-18.6,18.6h29.8
			c10.3,0,18.6-8.3,18.6-18.6V127.3C485.2,117,476.8,108.6,466.6,108.6z"/>
		<path fill="#D8E2F1" d="M209.4,108.6c0,26,21.4,47.1,47.5,46.6c25.5-0.5,45.7-21.8,45.7-47.4V34c0-5.1-4.1-9.2-9.2-9.2h-74.7
			c-5.1,0-9.2,4.1-9.2,9.2V108.6z"/>
		<path fill="#B9CBEA" d="M283.9,24.8v83.8c0,22.5-16,41.3-37.3,45.6c3.2,0.7,6.5,1,10,0.9c25.6-0.4,45.9-21.8,45.9-47.4V34
			c0-5.1-4.1-9.2-9.2-9.2L283.9,24.8L283.9,24.8z"/>
		<circle fill="#5766CB" cx="256" cy="108.6" r="16.8"/>
		<g>
			<path fill="#DD5790" d="M455.4,383.9h-37.3c-3.8,0-6.9-3.1-6.9-6.9c0-3.8,3.1-6.9,6.9-6.9h37.3c3.8,0,6.9,3.1,6.9,6.9
				C462.3,380.8,459.2,383.9,455.4,383.9z"/>
		</g>
		<g>
			<path fill="#E7A52E" d="M278.4,272.1h-37.3c-3.8,0-6.9-3.1-6.9-6.9c0-3.8,3.1-6.9,6.9-6.9h37.3c3.8,0,6.9,3.1,6.9,6.9
				C285.3,269,282.2,272.1,278.4,272.1z"/>
		</g>
		<g>
			<path fill="#E7A52E" d="M455.4,272.1H315.6c-3.8,0-6.9-3.1-6.9-6.9c0-3.8,3.1-6.9,6.9-6.9h139.8c3.8,0,6.9,3.1,6.9,6.9
				C462.3,269,459.2,272.1,455.4,272.1z"/>
		</g>
		<g>
			<path fill="#E7A52E" d="M278.4,301.9h-37.3c-3.8,0-6.9-3.1-6.9-6.9c0-3.8,3.1-6.9,6.9-6.9h37.3c3.8,0,6.9,3.1,6.9,6.9
				C285.3,298.8,282.2,301.9,278.4,301.9z"/>
		</g>
		<g>
			<path fill="#E7A52E" d="M455.4,301.9H315.6c-3.8,0-6.9-3.1-6.9-6.9c0-3.8,3.1-6.9,6.9-6.9h139.8c3.8,0,6.9,3.1,6.9,6.9
				C462.3,298.8,459.2,301.9,455.4,301.9z"/>
		</g>
		<g>
			<path fill="#E7A52E" d="M278.4,331.7h-37.3c-3.8,0-6.9-3.1-6.9-6.9c0-3.8,3.1-6.9,6.9-6.9h37.3c3.8,0,6.9,3.1,6.9,6.9
				C285.3,328.6,282.2,331.7,278.4,331.7z"/>
		</g>
		<g>
			<path fill="#E7A52E" d="M455.4,331.7H315.6c-3.8,0-6.9-3.1-6.9-6.9c0-3.8,3.1-6.9,6.9-6.9h139.8c3.8,0,6.9,3.1,6.9,6.9
				C462.3,328.6,459.2,331.7,455.4,331.7z"/>
		</g>
		<path fill="#DD5790" d="M455.4,183.7H241.1c-3.8,0-6.9,3.1-6.9,6.9v37.3c0,3.8,3.1,6.9,6.9,6.9h214.3c3.8,0,6.9-3.1,6.9-6.9v-37.3
			C462.3,186.8,459.2,183.7,455.4,183.7L455.4,183.7z"/>
		<g>
			<path fill="#DD5790" d="M209.4,198v173.4c0,1.3-0.2,2.5-0.5,3.6H57.2c-0.3-1.1-0.5-2.4-0.5-3.6V198c0-6.9,5.6-12.5,12.5-12.5
				h127.7C203.8,185.4,209.4,191,209.4,198L209.4,198z"/>
			<g>
				<circle fill="#F1D0A5" cx="133" cy="265.9" r="41.5"/>
				<path fill="#F1B986" d="M151.5,228.8c2.8,5.6,4.3,11.8,4.3,18.5c0,22.9-18.6,41.5-41.5,41.5c-6.6,0-12.9-1.6-18.5-4.3
					c6.8,13.6,20.9,23,37.2,23c22.9,0,41.5-18.6,41.5-41.5C174.5,249.7,165.2,235.6,151.5,228.8z"/>
				<path fill="#5766CB" d="M156.1,311c1.2,5.1,1.9,10.5,1.9,16c0,23.9-12.1,44.8-30.3,56.9H69.2c-5.7,0-10.4-3.8-12-8.9
					c4.4-38,36.7-67.5,75.9-67.5C141.1,307.5,148.8,308.7,156.1,311z"/>
				<path fill="#3342AA" d="M208.9,374.9c-3.5-30.2-24.6-55-52.8-63.9c1.2,5.1,1.9,10.5,1.9,16c0,23.9-12.1,44.8-30.3,56.9h69.2
					C202.6,383.9,207.3,380.1,208.9,374.9L208.9,374.9z"/>
			</g>
		</g>
	</g>
</g>
</svg>
