<?xml version="1.0" encoding="utf-8"?>
<!-- Generator: Adobe Illustrator 24.1.2, SVG Export Plug-In . SVG Version: 6.00 Build 0)  -->
<svg version="1.1" id="Layer_1" xmlns="http://www.w3.org/2000/svg" xmlns:xlink="http://www.w3.org/1999/xlink" x="0px" y="0px"
	 width="512px" height="512px" viewBox="0 0 512 512" enable-background="new 0 0 512 512" xml:space="preserve">
<circle fill="#FFFFFF" cx="256" cy="256" r="256"/>
<g>
	<defs>
		<circle id="SVGID_1_" cx="256" cy="256" r="256"/>
	</defs>
	<clipPath id="SVGID_2_">
		<use xlink:href="#SVGID_1_"  overflow="visible"/>
	</clipPath>
	<g clip-path="url(#SVGID_2_)">
		<g>
			<defs>
				<rect id="SVGID_3_" x="251.6" y="258" width="182.3" height="237"/>
			</defs>
			<clipPath id="SVGID_4_">
				<use xlink:href="#SVGID_3_"  overflow="visible"/>
			</clipPath>
			<path clip-path="url(#SVGID_4_)" fill="#591239" d="M395.1,447.7H297V332c0-27.1,22-49,49-49h0c27.1,0,49,22,49,49V447.7z"/>
			<path clip-path="url(#SVGID_4_)" fill="#FFC050" d="M404.7,556.1H291.5v-85.6c0-31.2,25.3-56.6,56.6-56.6h0
				c31.2,0,56.6,25.3,56.6,56.6V556.1z"/>
			<rect x="330" y="389.4" clip-path="url(#SVGID_4_)" fill="#F4A891" width="34.6" height="47.4"/>
			<g clip-path="url(#SVGID_4_)">
				<path fill="#F4A891" d="M398.8,349.2c0,4.1-3,7.8-7,8.7c-0.4,0.1-0.7,0.1-1.1,0.2c-0.2,0-0.4,0-0.6,0l-2.7,0l-0.1-5.6l0-1.3
					l-0.1-10.2l2.7,0c0.3,0,0.5,0,0.7,0l0,0c0.3,0,0.7,0.1,1,0.1c0,0,0,0,0,0c1.7,0.3,3.3,1,4.4,2.2
					C397.7,344.8,398.7,346.8,398.8,349.2z"/>
				<path fill="#F4A891" d="M294.2,349.2c0,4.1,3,7.8,7,8.7c0.4,0.1,0.7,0.1,1.1,0.2c0.2,0,0.4,0,0.6,0l2.7,0l0.1-5.6l0-1.3
					l0.1-10.2l-2.7,0c-0.3,0-0.5,0-0.7,0l0,0c-0.3,0-0.7,0.1-1,0.1c0,0,0,0,0,0c-1.7,0.3-3.3,1-4.4,2.2
					C295.2,344.8,294.2,346.8,294.2,349.2z"/>
				<path fill="#FFC7B0" d="M390.2,356.2v1.4l0,0.3c0,0.6,0,1.2,0,1.8c0,0.5-0.1,1-0.1,1.5c0,0.2,0,0.3-0.1,0.5
					c-0.5,6.3-2.4,12.2-5.4,17.4c-0.2,0.3-0.3,0.5-0.5,0.8c-4.8,8.2-12.2,14.7-21.1,18.4c0,0,0,0,0,0c-3.4,1.5-7.1,2.5-10.9,3
					c-1.4,0.2-2.8,0.3-4.2,0.4c-0.6,0-1.1,0-1.7,0c-2.1,0-4.1-0.1-6.1-0.4c-0.6-0.1-1.2-0.1-1.7-0.3c-18.7-3.2-33.5-18-36.3-36.7
					c-0.3-2-0.5-4-0.5-6.1l0-3.1l-0.1-14l-0.1-7c0-1.1,0-2.1,0.1-3.2c0.1-2,0.3-4,0.6-6c0.4-2.3,1-4.5,1.8-6.7c1-2.6,2.1-5,3.5-7.4
					c1.6-2.8,3.5-5.4,5.9-7.7c8-8,19.1-13,31.4-13.1c9.1-0.1,17.7,2.6,24.8,7.3c1,0.7,2,1.4,3,2.2c4.1,3.2,7.6,7,10.4,11.4
					c0.5,0.8,1,1.7,1.5,2.5c0,0,0,0,0,0c0.8,1.4,1.5,2.9,2.1,4.4c0.1,0.3,0.2,0.5,0.3,0.8c0.7,1.8,1.4,3.7,1.9,5.7
					c0.7,2.8,1.2,5.7,1.3,8.6l0,0.4l0,1.7l0,1.9l0,2.4v0l0,0.1v0.4l0,1.1l0,10.2v1.1L390.2,356.2z"/>
			</g>
			<g clip-path="url(#SVGID_4_)">
				<path fill="#F4A891" d="M339.3,363.1c0,0,0.6,3.2,5.1,2.9c3.9-0.2,4.3-3,4.3-3L339.3,363.1z"/>
				<g>
					<path fill="none" stroke="#591239" stroke-width="3.1549" stroke-linecap="round" stroke-miterlimit="10" d="M321.1,338.2
						c0,0,7-3.8,14.1,0.4"/>
				</g>
			</g>
			<path clip-path="url(#SVGID_4_)" fill="#FFFFFF" d="M326.6,419.9c4.6,24.7,21.8,114,21.8,114l19.3-113.4c0.7-4.1-2.5-7.8-6.7-7.7
				h0c-2.6,0.1-5,1.7-6,4.1l0,0c-3.1,7.7-13.8,8.1-17.5,0.7l-0.6-1.1c-0.9-1.9-2.9-3.1-5-3l0,0C328.5,413.5,326,416.6,326.6,419.9z"
				/>
			<path clip-path="url(#SVGID_4_)" fill="#07113D" d="M325.8,349.8v-5.4c0-1,0.8-1.8,1.8-1.8h0.2c1,0,1.8,0.8,1.8,1.8v5.4
				c0,1-0.8,1.8-1.8,1.8h-0.2C326.6,351.5,325.8,350.7,325.8,349.8z"/>
			<g clip-path="url(#SVGID_4_)">
				<g>
					<path fill="none" stroke="#591239" stroke-width="3.1549" stroke-linecap="round" stroke-miterlimit="10" d="M356,338.2
						c0,0,7-3.8,14.1,0.4"/>
				</g>
				<g opacity="0.1">
					<path fill="#D93838" d="M380.7,363.7c-0.1,4.4-4,7.9-8.8,7.8c-4.8-0.1-8.6-3.7-8.6-8.1c0.1-4.4,4-7.9,8.8-7.8
						C376.9,355.7,380.7,359.3,380.7,363.7z"/>
				</g>
				<g opacity="0.1">
					<path fill="#D93838" d="M326.7,363.7c-0.1,4.4-4,7.9-8.8,7.8c-4.8-0.1-8.6-3.7-8.6-8.1c0.1-4.4,4-7.9,8.8-7.8
						C323,355.7,326.8,359.3,326.7,363.7z"/>
				</g>
			</g>
			<path clip-path="url(#SVGID_4_)" fill="#07113D" d="M360.7,349.8v-5.4c0-1,0.8-1.8,1.8-1.8h0.2c1,0,1.8,0.8,1.8,1.8v5.4
				c0,1-0.8,1.8-1.8,1.8h-0.2C361.5,351.5,360.7,350.7,360.7,349.8z"/>
			<g clip-path="url(#SVGID_4_)">
				<path fill="#591239" d="M392.1,337.8c0,0.1,0,0.1,0,0.1c-0.1,1.6-0.3,2.7-0.3,3c0,0.1-1.6,0-1.6,0
					c-2.5-16.1-40.7-30.2-64.5-28.9c-2.7,0.1-5.1,0.8-7.2,1.7c-16.9,7.6-17.2,37.5-17.4,36.4c-14.2-64.8,41.8-66.1,41.8-66.1
					c15.6,0.6,26.4,5,33.7,11.2C392.3,308.4,392.6,329.7,392.1,337.8z"/>
			</g>
			
				<path clip-path="url(#SVGID_4_)" fill="none" stroke="#E48867" stroke-width="1.6721" stroke-linecap="round" stroke-miterlimit="10" d="
				M332.8,370.4c1.6,2.2,5.1,5.2,12.2,5c6.4-0.2,9.4-2.6,10.9-4.6"/>
			<path clip-path="url(#SVGID_4_)" fill="#591239" d="M311.5,312.9c0,0,9.6,14.2,34.3,15.5s36.8,0.2,43.7,23.8
				c1.9,6.5,1.5-25.3,1.5-25.3S338.3,284.1,311.5,312.9z"/>
			<path clip-path="url(#SVGID_4_)" fill="#591239" d="M317.8,312.1c0,0-10.8,23-15,38C298.5,365.2,294,306,317.8,312.1z"/>
		</g>
		<rect x="256.3" y="258" fill="none" stroke="#6A8593" stroke-width="3.6997" stroke-miterlimit="10" width="175.1" height="237"/>
	</g>
	<g clip-path="url(#SVGID_2_)">
		<g>
			<g>
				<defs>
					<rect id="SVGID_5_" x="154.7" y="-11.8" width="173.9" height="233"/>
				</defs>
				<clipPath id="SVGID_6_">
					<use xlink:href="#SVGID_5_"  overflow="visible"/>
				</clipPath>
				<g clip-path="url(#SVGID_6_)">
					<path fill="#D93838" d="M124.9,261.9c1.3-3,55.1-90.3,74.9-100.2s73.8-5.5,83.7,2.2c9.9,7.7,64.9,86.3,71.6,102.4
						c7.7,18.7,0,42.9-8.8,42.9c-8.8,0-207,0-207,0S108.4,299.3,124.9,261.9z"/>
					<g>
						<path fill="#07113D" d="M257.4,126.4h-25.2c-21.4,0-38.8-17.4-38.8-38.8V57.9c0-27,21.8-48.8,48.8-48.8h5.2
							c27,0,48.8,21.8,48.8,48.8v29.7C296.3,109,278.9,126.4,257.4,126.4z"/>
						<path fill="#F4A891" d="M207.1,70.2l-0.7,12l-0.5,8.1l-3.6-0.2c-0.3,0-0.5,0-0.8-0.1c-6-0.6-10.6-5.5-10.3-10.8
							c0.1-2.8,1.6-5.1,3.8-6.8c2-1.6,4.6-2.4,7.4-2.4h0c0.3,0,0.6,0,0.9,0L207.1,70.2z"/>
						<path fill="#F4A891" d="M285.9,70.4l0.7,12l0.5,8.1l3.6-0.2c0.3,0,0.5,0,0.8-0.1c6-0.6,10.6-5.5,10.3-10.8
							c-0.1-2.8-1.6-5.1-3.8-6.8c-2-1.6-4.6-2.4-7.4-2.4h0c-0.3,0-0.6,0-0.9,0L285.9,70.4z"/>
						<path fill="#F4A891" d="M248.4,166.6h-8.2c-7.5,0-13.7-6.2-13.7-13.7v-38.7c0-7.5,6.2-13.7,13.7-13.7h8.2
							c7.5,0,13.7,6.2,13.7,13.7v38.7C262.1,160.5,255.9,166.6,248.4,166.6z"/>
						<path fill="#FFC7B0" d="M290.6,69l-1.1,20.9l-0.2,3.1c-0.1,2.1-0.4,4.1-0.7,6.1c-3.2,16.6-15.9,29.7-32.1,33.9
							c-1.8,0.5-3.7,0.8-5.5,1.1c-0.6,0.1-1.1,0.1-1.7,0.2c-1.2,0.1-2.4,0.2-3.6,0.2c-0.9,0-1.7,0-2.6-0.1c-2-0.1-3.9-0.3-5.8-0.7
							c-0.8-0.1-1.6-0.3-2.3-0.5c-2.9-0.7-5.7-1.7-8.4-3c0,0,0,0,0,0c-12.7-6-22-17.9-24.5-31.8c0,0,0-0.1,0-0.1
							c-0.3-1.5-0.4-3-0.6-4.6c0-0.5-0.1-1-0.1-1.4c0-0.5,0-1,0-1.5c0-0.6,0-1.2,0-1.8v-0.3l0.1-1.4l0.2-3.7l0.3-6.4V77l0.3-6.4
							l0-0.1v0l0.1-2.4l0.1-1.9l0.1-1.7l0-0.4c0.2-3,0.8-5.8,1.6-8.5c0.6-1.9,1.3-3.8,2.1-5.6c0.1-0.3,0.2-0.5,0.3-0.8
							c0.7-1.5,1.4-2.9,2.3-4.3c0,0,0,0,0,0c3.2-5.3,7.4-9.9,12.4-13.4c1-0.7,2-1.4,3.1-2c7.3-4.3,15.9-6.6,25-6.1
							c12.1,0.6,23,6.1,30.6,14.4c2.2,2.5,4.1,5.1,5.5,8c1.2,2.3,2.3,4.8,3.1,7.4c0.6,1.6,1,3.3,1.3,5c0,0,0,0,0,0
							c0.1,0.6,0.2,1.1,0.2,1.7c0.1,1,0.2,2.1,0.3,3.1C290.7,64.9,290.7,67,290.6,69z"/>
						<g>
							<path fill="#07113D" d="M263.4,82.7L263.4,82.7c-1.1,0-2.1-0.9-2.1-2.1V74c0-1.1,0.9-2.1,2.1-2.1l0,0c1.1,0,2.1,0.9,2.1,2.1
								v6.6C265.5,81.7,264.5,82.7,263.4,82.7z"/>
							<path fill="#07113D" d="M227.3,82.5L227.3,82.5c-1.1,0-2.1-0.9-2.1-2.1v-6.6c0-1.1,0.9-2.1,2.1-2.1l0,0
								c1.1,0,2.1,0.9,2.1,2.1v6.6C229.4,81.6,228.5,82.5,227.3,82.5z"/>
							<path fill="#07113D" d="M270.5,66h-14.6c-1.4,0-2.6-1.2-2.6-2.6l0,0c0-1.4,1.2-2.6,2.6-2.6h14.6c1.4,0,2.6,1.2,2.6,2.6l0,0
								C273.1,64.8,271.9,66,270.5,66z"/>
							<path fill="#07113D" d="M235,66h-14.6c-1.4,0-2.6-1.2-2.6-2.6l0,0c0-1.4,1.2-2.6,2.6-2.6H235c1.4,0,2.6,1.2,2.6,2.6l0,0
								C237.6,64.8,236.4,66,235,66z"/>
							<path fill="#FFFFFF" d="M257.7,102.9c-4.2,6.2-8.1,10.3-13.9,9.4c-4.8-0.7-8.8-4.4-11.2-9.8L257.7,102.9z"/>
							<path fill="#E48867" d="M240.2,89.4h9.9C250.2,89.4,245.5,96,240.2,89.4z"/>
						</g>
						<path fill="#07113D" d="M232.7,42.6l25,7.7c3.9,1.2,7.6-2.6,6.1-6.5l-0.2-0.4l3,1.6c8.8,4.7,16,12,20.5,21l5.7,11.4
							c0,0,13.5-57.8-49.8-59.2c-50.5-1.1-44.2,49.6-44.2,49.6S210,39.3,232.7,42.6z"/>
					</g>
					<g>
						<path fill="#D93838" d="M301.6,205.8l-3.8,159l-120.4,1.1l-3.1-160.1c0-26.8,19.4-49.1,45-53.6c3.1-0.5,6.2-0.8,9.5-0.8h18.4
							C277.3,151.3,301.6,175.7,301.6,205.8z"/>
						<g>
							<polygon fill="#FFFFFF" points="267.8,367 219.9,367 220,148 268.7,148 							"/>
						</g>
						<path fill="#07113D" d="M232.3,150c0.8,1.2,13.2,19,13.2,19l14.9-18.2l-7-6.2l-13.6,1.7L232.3,150z"/>
						<polygon fill="#FFFFFF" points="269.3,160.4 246.4,147 219.7,160.4 219.7,143.9 269.3,143.9 						"/>
						<polygon fill="#07113D" points="254.1,220.6 236.8,220.6 240.5,157.8 251.7,157.8 						"/>
					</g>
					<path fill="#07113D" d="M206.9,38.9L205.3,77c-0.1,1.8-1.7,3.1-3.5,2.8l0,0c-1.4-0.3-2.4-1.5-2.5-2.9l-0.6-32.2L206.9,38.9z"/>
					<path fill="#07113D" d="M286.2,41.2l1.5,38.1c0.1,1.8,1.7,3.1,3.5,2.8l0,0c1.4-0.3,2.4-1.5,2.5-2.9l0.6-32.2L286.2,41.2z"/>
				</g>
			</g>
		</g>
		
			<rect x="150.8" y="-15.8" fill="none" stroke="#6A8593" stroke-width="3.6997" stroke-miterlimit="10" width="175.9" height="237"/>
	</g>
	<g clip-path="url(#SVGID_2_)">
		<g>
			<g>
				<defs>
					<rect id="SVGID_7_" x="34.5" y="167.1" width="173.9" height="233"/>
				</defs>
				<clipPath id="SVGID_8_">
					<use xlink:href="#SVGID_7_"  overflow="visible"/>
				</clipPath>
				<g clip-path="url(#SVGID_8_)">
					<path fill="#07113D" d="M6.4,440.3c1.3-3,55-90.3,74.9-100.2s72.9-4.6,82.8,3.1c9.9,7.7,65.8,85.4,72.5,101.5
						c7.7,18.7,0,42.9-8.8,42.9c-8.8,0-207,0.1-207,0.1S-10.1,477.8,6.4,440.3z"/>
					<path fill="#07113D" d="M184,385l-3.7,159l-120.4,1.1L56.7,385c0-26.8,19.4-49.1,45-53.6c3.1-0.5,6.2-0.8,9.5-0.8l18.4,0
						C159.6,330.5,184,354.9,184,385z"/>
					<g>
						<path fill="#B95241" d="M137.2,305.2l-25.2,0c-21.4,0-38.8-17.4-38.8-38.8l0-29.7c0-27,21.8-48.8,48.8-48.8l5.2,0
							c27,0,48.8,21.8,48.8,48.8l0,29.7C176.1,287.9,158.7,305.2,137.2,305.2z"/>
						<path fill="#F4A891" d="M86.9,249l-0.7,12l-0.5,8.1l-3.6-0.2c-0.3,0-0.5,0-0.8-0.1c-6-0.6-10.6-5.5-10.3-10.8
							c0.1-2.8,1.6-5.1,3.8-6.8c2-1.6,4.6-2.4,7.4-2.4h0c0.3,0,0.6,0,0.9,0L86.9,249z"/>
						<path fill="#F4A891" d="M165.7,249.3l0.7,12l0.5,8.1l3.6-0.2c0.3,0,0.5,0,0.8-0.1c6-0.6,10.6-5.5,10.3-10.8
							c-0.1-2.8-1.6-5.1-3.8-6.8c-2-1.6-4.6-2.4-7.4-2.4h0c-0.3,0-0.6,0-0.9,0L165.7,249.3z"/>
						<path fill="#F4A891" d="M127.7,350.3l-7.2,0c-7.8,0-14.2-6.4-14.2-14.2l0-42.5c0-7.8,6.4-14.2,14.2-14.2l7.2,0
							c7.8,0,14.2,6.4,14.2,14.2l0,42.5C141.9,343.9,135.5,350.3,127.7,350.3z"/>
						<path fill="#FFC7B0" d="M172.7,247.3l-1.1,22l-0.2,3.3c-0.1,2.2-0.4,4.3-0.8,6.4c-3.4,17.4-16.7,31.2-33.8,35.6
							c-1.9,0.5-3.8,0.9-5.8,1.1c-0.6,0.1-1.2,0.1-1.8,0.2c-1.3,0.1-2.5,0.2-3.8,0.2c-0.9,0-1.8,0-2.7-0.1c-2.1-0.1-4.1-0.4-6.1-0.7
							c-0.8-0.1-1.6-0.3-2.4-0.5c-3.1-0.7-6-1.8-8.8-3.1c0,0,0,0,0,0c-13.4-6.3-23.1-18.8-25.8-33.4c0-0.1,0-0.1,0-0.1
							c-0.3-1.6-0.5-3.2-0.6-4.8c0-0.5-0.1-1-0.1-1.5c0-0.5,0-1,0-1.6c0-0.6,0-1.2,0-1.9l0-0.3l0.1-1.5l0.2-3.9l0.3-6.7v-0.1
							l0.3-6.8l0-0.1v0l0.1-2.5l0.1-1.9l0.1-1.8l0-0.5c0.2-3.1,0.8-6.1,1.7-9c0.6-2,1.4-4,2.2-5.9c0.1-0.3,0.2-0.6,0.4-0.9
							c0.7-1.6,1.5-3.1,2.4-4.5c0,0,0,0,0,0c3.3-5.6,7.8-10.4,13.1-14.1c1.1-0.7,2.1-1.5,3.3-2.1c7.7-4.5,16.8-7,26.3-6.5
							c12.8,0.7,24.2,6.4,32.2,15.1c2.3,2.6,4.3,5.4,5.8,8.4c1.3,2.5,2.4,5.1,3.3,7.8c0.6,1.7,1,3.5,1.3,5.3c0,0,0,0,0,0
							c0.1,0.6,0.2,1.2,0.2,1.8c0.1,1.1,0.2,2.2,0.3,3.3C172.8,243,172.8,245.2,172.7,247.3z"/>
						<g>
							<path fill="#07113D" d="M143.2,261.5L143.2,261.5c-1.1,0-2.1-0.9-2.1-2.1l0-6.6c0-1.1,0.9-2.1,2.1-2.1l0,0
								c1.1,0,2.1,0.9,2.1,2.1l0,6.6C145.3,260.5,144.3,261.5,143.2,261.5z"/>
							<path fill="#07113D" d="M107.1,261.3L107.1,261.3c-1.1,0-2.1-0.9-2.1-2.1l0-6.6c0-1.1,0.9-2.1,2.1-2.1l0,0
								c1.1,0,2.1,0.9,2.1,2.1l0,6.6C109.2,260.4,108.3,261.3,107.1,261.3z"/>
							<path fill="#B95241" d="M150.7,244.8l-15.4,0c-1.2,0-2.2-1-2.2-2.2l0,0c0-1.2,1-2.2,2.2-2.2l15.4,0c1.2,0,2.2,1,2.2,2.2l0,0
								C152.9,243.8,151.9,244.8,150.7,244.8z"/>
							<path fill="#B95241" d="M115.2,244.8l-15.4,0c-1.2,0-2.2-1-2.2-2.2l0,0c0-1.2,1-2.2,2.2-2.2l15.4,0c1.2,0,2.2,1,2.2,2.2l0,0
								C117.4,243.8,116.4,244.8,115.2,244.8z"/>
							<path fill="#FFFFFF" d="M137.5,281.7c-4.2,6.2-8.1,10.3-13.9,9.4c-4.8-0.7-8.8-4.4-11.2-9.8L137.5,281.7z"/>
							<path fill="#E48867" d="M120,268.2l9.9,0C129.9,268.2,125.3,274.8,120,268.2z"/>
						</g>
						<path fill="#F4A891" d="M172.7,247.3l-1.1,22l-0.2,3.3c-0.1,2.2-0.4,4.3-0.8,6.4c-3.4,17.4-16.7,31.2-33.8,35.6
							c-1.9,0.5-3.8,0.9-5.8,1.1c-0.6,0.1-1.2,0.1-1.8,0.2c-1.3,0.1-2.5,0.2-3.8,0.2c-0.9,0-1.8,0-2.7-0.1c-2.4-0.1-4.7-0.4-7-0.8
							c-0.5-0.1-0.9-0.1-1.4-0.2c-3.1-0.7-6.1-1.8-8.9-3.1c0,0,0,0,0,0C92,305.5,82.1,293,79.5,278.2c0-0.1,0-0.1,0-0.1
							c-0.3-1.6-0.5-3.2-0.6-4.8c0-0.5-0.1-1-0.1-1.5c0-0.5,0-1,0-1.6c0-0.6,0-1.2,0-1.9l0-0.3l0.1-1.5l0.2-3.9l0.3-6.7
							c2.1,24.6,10.8,55.6,41.4,56.8c42.4,1.7,51.2-44.9,51.8-71.7C172.8,243,172.8,245.2,172.7,247.3z"/>
					</g>
					<g>
						<polygon fill="#FFFFFF" points="147.7,545.8 99.7,545.8 99.8,326.8 111.8,326.5 123.1,347.9 135.5,327.2 148.3,327.4 						
							"/>
					</g>
				</g>
			</g>
			<polygon fill="#EAECEE" points="112,326.3 105,338.2 95.7,333.2 99,326.3 			"/>
			<polygon fill="#EAECEE" points="135.7,327 143.2,338.2 152.4,335 149.6,327 			"/>
			
				<ellipse transform="matrix(0.4651 -0.8853 0.8853 0.4651 -106.5233 260.0962)" fill="#B95241" cx="162" cy="218.2" rx="16.3" ry="16.3"/>
			<path fill="#B95241" d="M148.6,223.6c0,6.9-5.6,12.5-12.5,12.5c-6.9,0-12.5-5.6-12.5-12.5c0-6.9,5.6-12.5,12.5-12.5
				C143,211.1,148.6,216.7,148.6,223.6z"/>
			
				<ellipse transform="matrix(0.326 -0.9454 0.9454 0.326 -133.7613 261.3245)" fill="#B95241" cx="116.4" cy="224.5" rx="11.7" ry="11.7"/>
			<path fill="#B95241" d="M105.9,221.3c0,6.1-5,11.1-11.1,11.1c-6.1,0-11.1-5-11.1-11.1c0-6.1,5-11.1,11.1-11.1
				C101,210.3,105.9,215.2,105.9,221.3z"/>
			<path fill="#B95241" d="M109.5,197.9c0,0,23.4-6.7,35.9,2.1c12.5,8.8,19.2,20.9,19.2,20.9l-48.1,4.2l-28.8-4.6l11.1-21.1
				L109.5,197.9z"/>
			<path fill="#B95241" d="M88.6,224.5l-5.3,35.4c-0.2,1.6-2.1,2.5-3.5,1.6l0,0c-0.6-0.4-1-1.1-1.1-1.8l-1.6-25.8
				C77.1,233.9,85.7,212.6,88.6,224.5z"/>
			<path fill="#B95241" d="M162.2,229.1l5.3,35.4c0.2,1.6,2.1,2.5,3.5,1.6l0,0c0.6-0.4,1-1.1,1.1-1.8l1.6-32.9
				C173.7,231.4,165.1,217.1,162.2,229.1z"/>
			<path fill="#B95241" d="M83.6,258.1c-0.6,8.6,4,47.9,39.5,48.7c35.5,0.8,42.7-37.2,43.3-45.2c0.6-8,5.9-7.1,5.9-5.4l-0.2,20.5
				c0,24-19.4,43.5-43.4,43.5l-5,0c-24,0-45.1-18.2-45.1-42.2l0.2-19.6C78.6,258.3,83.6,257.4,83.6,258.1z"/>
		</g>
		<rect x="33.6" y="163" fill="none" stroke="#6A8593" stroke-width="3.6997" stroke-miterlimit="10" width="175.1" height="237"/>
	</g>
</g>
</svg>
