<?xml version="1.0" encoding="utf-8"?>
<!-- Generator: Adobe Illustrator 24.1.2, SVG Export Plug-In . SVG Version: 6.00 Build 0)  -->
<svg version="1.1" id="Layer_1" xmlns="http://www.w3.org/2000/svg" xmlns:xlink="http://www.w3.org/1999/xlink" x="0px" y="0px"
	 width="512px" height="512px" viewBox="0 0 512 512" enable-background="new 0 0 512 512" xml:space="preserve">
<g>
	<circle fill="#FFFFFF" cx="256" cy="256" r="256"/>
</g>
<g>
	<linearGradient id="SVGID_1_" gradientUnits="userSpaceOnUse" x1="220" y1="372.5554" x2="220" y2="339.359">
		<stop  offset="0" style="stop-color:#E7E6FF"/>
		<stop  offset="0.3393" style="stop-color:#C9D2F8"/>
		<stop  offset="0.7637" style="stop-color:#AABDF1"/>
		<stop  offset="1" style="stop-color:#9EB5EE"/>
	</linearGradient>
	<path fill="url(#SVGID_1_)" d="M263.6,421.4h-87.3c-7.5,0-13.6-6.1-13.6-13.6v-70.9c0-7.5,6.1-13.6,13.6-13.6h87.3
		c7.5,0,13.6,6.1,13.6,13.6v70.9C277.3,415.3,271.2,421.4,263.6,421.4z"/>
	<linearGradient id="SVGID_2_" gradientUnits="userSpaceOnUse" x1="220" y1="398.4391" x2="220" y2="441.3187">
		<stop  offset="0" style="stop-color:#B2B1B9"/>
		<stop  offset="0.2957" style="stop-color:#89919D"/>
		<stop  offset="0.7729" style="stop-color:#4B6274"/>
		<stop  offset="1" style="stop-color:#334F64"/>
	</linearGradient>
	<path fill="url(#SVGID_2_)" d="M298,421.4H142c-4.3,0-7.7-3.5-7.7-7.7l0,0c0-4.3,3.5-7.7,7.7-7.7H298c4.3,0,7.7,3.5,7.7,7.7l0,0
		C305.7,417.9,302.2,421.4,298,421.4z"/>
	<linearGradient id="SVGID_3_" gradientUnits="userSpaceOnUse" x1="220" y1="380.5158" x2="220" y2="334.8524">
		<stop  offset="0" style="stop-color:#B2B1B9"/>
		<stop  offset="0.2957" style="stop-color:#89919D"/>
		<stop  offset="0.7729" style="stop-color:#4B6274"/>
		<stop  offset="1" style="stop-color:#334F64"/>
	</linearGradient>
	<path fill="url(#SVGID_3_)" d="M370,343.3H70c-7.5,0-13.6-6.1-13.6-13.6V134.6c0-7.5,6.1-13.6,13.6-13.6H370
		c7.5,0,13.6,6.1,13.6,13.6v195.1C383.7,337.2,377.6,343.3,370,343.3z"/>
	<path fill="#FFFFFF" d="M358.5,332.4h-277c-7.5,0-13.6-6.1-13.6-13.6V145.5c0-7.5,6.1-13.6,13.6-13.6h277c7.5,0,13.6,6.1,13.6,13.6
		v173.2C372.1,326.3,366,332.4,358.5,332.4z"/>
	<g>
		<defs>
			<path id="SVGID_4_" d="M358.5,332.4h-277c-7.5,0-13.6-6.1-13.6-13.6V145.5c0-7.5,6.1-13.6,13.6-13.6h277
				c7.5,0,13.6,6.1,13.6,13.6v173.2C372.1,326.3,366,332.4,358.5,332.4z"/>
		</defs>
		<clipPath id="SVGID_5_">
			<use xlink:href="#SVGID_4_"  overflow="visible"/>
		</clipPath>
		<g clip-path="url(#SVGID_5_)">
			<path fill="#E6E7EF" d="M172.2,131.9H80.1c-6.7,0-12.2,5.5-12.2,12.2v92.1C102.7,201.4,137.4,166.7,172.2,131.9z"/>
			<path fill="#E6E7EF" d="M80.1,332.4h90.7l200.5-200.5H229.1L67.9,283.4v36.7C67.9,326.9,73.3,332.4,80.1,332.4z"/>
			<polygon fill="#E6E7EF" points="372.1,262.1 372.1,231.3 271.1,332.4 301.8,332.4 			"/>
		</g>
	</g>
</g>
<g>
	<g>
		<path fill="#E9EFF4" d="M395.1,373.3H165.9v-38.9c0-27.6,17.7-52.1,43.9-60.9l42.1-14h57.3l42.1,14c26.2,8.7,43.9,33.3,43.9,60.9
			L395.1,373.3L395.1,373.3z"/>
		<path fill="#D0D1D3" d="M395.1,334.4c0-27.6-17.7-52.1-43.9-60.9l-42.1-14h-28.7v113.8h114.6V334.4z"/>
		<polygon fill="#FED8B2" points="309.1,259.5 280.5,288.2 251.8,259.5 251.8,230.9 309.1,230.9 		"/>
		<polygon fill="#EFC095" points="309.1,230.9 280.5,230.9 280.5,288.2 309.1,259.5 		"/>
		<path fill="#F4E3C3" d="M223.2,173.5c0-31.7,25.7-57.3,57.3-57.3s57.3,25.7,57.3,57.3s-25.7,86-57.3,86S223.2,205.2,223.2,173.5z"
			/>
		<path fill="#FED8B2" d="M337.8,173.5c0-31.7-25.7-57.3-57.3-57.3v143.3C312.1,259.5,337.8,205.2,337.8,173.5z"/>
		<path fill="#3F3B3B" d="M337.8,173.5c0-31.7-25.7-57.3-57.3-57.3s-57.3,25.7-57.3,57.3c0,12.6,4.1,28.9,11,43.8
			c-1.6-8.6-1.2-17.4-0.3-24.1c36.4-2.9,71.5-19.9,71.5-19.9s4.4,8.2,21.1,15.4c1.2,6.8,2.3,17.8,0.3,28.5
			C333.7,202.4,337.8,186.2,337.8,173.5z"/>
		<path fill="#272525" d="M337.8,173.5c0-31.7-25.7-57.3-57.3-57.3v67c14.9-5,24.9-9.8,24.9-9.8s4.4,8.2,21.1,15.4
			c1.2,6.8,2.3,17.8,0.3,28.5C333.7,202.4,337.8,186.2,337.8,173.5z"/>
		<polygon fill="#FC9483" points="268.4,372.3 276.5,297.7 284.5,297.7 292.5,372.3 		"/>
		<polygon fill="#FD8469" points="284.5,297.7 280.5,297.7 280.5,372.3 292.5,372.3 		"/>
		<path fill="#324A5E" d="M280.5,372.3l-41.8-108.4l-29,9.7c-26.2,8.7-43.9,33.3-43.9,60.9v38.9h114.6L280.5,372.3L280.5,372.3z"/>
		<path fill="#2B3B4E" d="M395.1,334.4c0-27.6-17.7-52.1-43.9-60.9l-29-9.7l-41.8,108.4v1h114.6L395.1,334.4L395.1,334.4z"/>
		<polygon fill="#1B2B3A" points="322.3,263.9 330.2,297.7 315.1,305.2 330.2,322.6 280.5,372.3 		"/>
		<polygon fill="#2B3B4E" points="238.7,263.9 230.8,297.7 245.8,305.2 230.8,322.6 280.5,372.3 		"/>
		<polygon fill="#FD8469" points="296.3,288.3 285.8,313.1 275.2,313.1 264.7,288.3 		"/>
		<polygon fill="#FC6F58" points="296.3,288.3 280.5,288.3 280.5,313.1 285.8,313.1 		"/>
		<polygon fill="#E9EFF4" points="305.3,297.7 322.3,263.9 309.1,259.5 280.5,288.2 		"/>
		<polygon fill="#FFFFFF" points="255.6,297.7 238.7,263.9 251.8,259.5 280.5,288.2 		"/>
	</g>
</g>
<g>
	<g>
		<rect x="221.7" y="156.8" fill="#565658" width="114.7" height="18.2"/>
		<rect x="279.1" y="156.8" fill="#4A4A4A" width="57.4" height="18.2"/>
	</g>
	<g>
		<path fill="#E9B540" d="M343.3,154.4c-0.8-7.8-4.9-9.3-6.3-9.5c-2.7-23.6-14.6-42.7-36.8-50c-0.3-2.5-1.4-4.9-3-6.7
			c-2.2-2.5-5.4-4-9-4h-1.6c-0.1,0.8-0.3,1.5-0.6,2.1c-1,2-3.1,3.3-5.5,3.3h-1.1h-1.1c-2.4,0-4.4-1.4-5.5-3.4
			c-0.3-0.6-0.6-1.4-0.6-2.1h-1.6c-3.5,0-6.7,1.5-8.9,3.9c-1.7,1.8-2.8,4.1-3.1,6.7c-22.7,7.1-34.3,26.4-37,50.1
			c-1.5,0.3-5.4,1.9-6.1,9.5c-0.1,1.2-0.2,2.5-0.1,4.1c0.3,0.5,0.6,1,0.9,1.5h18.1h23.3h0.9h16.6h1.2h24h0.9h23.3h18
			c0.3-0.5,0.7-0.9,1-1.5C343.4,156.9,343.4,155.6,343.3,154.4z"/>
		<path fill="#E1A836" d="M300.2,94.9L300.2,94.9c-0.3-2.5-1.4-4.9-3-6.7c-2.2-2.5-5.4-4-9-4h-1.6c-0.1,0.8-0.3,1.5-0.6,2.1
			c-1,2-3.1,3.3-5.5,3.3h-1.1h-1.1c-2.4,0-4.4-1.4-5.5-3.4c-0.3-0.6-0.6-1.4-0.6-2.1h-1.6c-3.5,0-6.7,1.5-8.9,3.9
			c-1.7,1.8-2.8,4.1-3.1,6.7c0,0,0,0,0,0v59.6h41.6V94.9z"/>
		<path fill="#E1A836" d="M337,144.8c-2.7-23.6-14.6-42.7-36.8-50c-0.3-2.5-1.4-4.9-3-6.7c-2.2-2.5-5.4-4-9-4h-1.6
			c-0.1,0.8-0.3,1.5-0.6,2.1c-1,2-3.1,3.3-5.5,3.3h-1.1h0v70.3h20.9h0.9h23.3h18c0.3-0.5,0.7-0.9,1-1.5c0.1-1.5,0-2.9-0.1-4.1
			C342.5,146.6,338.4,145.1,337,144.8z"/>
		<path fill="#D69A32" d="M300.2,154.3V94.9l0,0c-0.3-2.5-1.4-4.9-3-6.7c-2.2-2.5-5.4-4-9-4h-1.6c-0.1,0.8-0.3,1.5-0.6,2.1
			c-1,2-3.1,3.3-5.5,3.3h-1.1h0v64.7H300.2z"/>
		<path fill="#E1A836" d="M345.2,163.3c0,2.5-1.6,4.5-3.5,4.5H217.1c-1.9,0-3.5-2-3.5-4.5l0,0c0-2.5,1.6-4.5,3.5-4.5h124.6
			C343.6,158.8,345.2,160.8,345.2,163.3L345.2,163.3z"/>
		<path fill="#D69A32" d="M341.7,158.8h-62.3v8.9h62.3c1.9,0,3.5-2,3.5-4.5C345.2,160.8,343.6,158.8,341.7,158.8z"/>
	</g>
</g>
<g>
	<defs>
		<circle id="SVGID_6_" cx="256" cy="256" r="256"/>
	</defs>
	<clipPath id="SVGID_7_">
		<use xlink:href="#SVGID_6_"  overflow="visible"/>
	</clipPath>
	<g clip-path="url(#SVGID_7_)">
		<g>
			<path fill="#E9EFF4" d="M476,437.1H246.8v-38.9c0-27.6,17.7-52.1,43.9-60.9l42.1-14H390l42.1,14c26.2,8.7,43.9,33.3,43.9,60.9
				L476,437.1L476,437.1z"/>
			<path fill="#D0D1D3" d="M476,398.3c0-27.6-17.7-52.1-43.9-60.9l-42.1-14h-28.7v113.8H476V398.3z"/>
			<polygon fill="#FED8B2" points="390,323.4 361.4,352 332.7,323.4 332.7,294.7 390,294.7 			"/>
			<polygon fill="#EFC095" points="390,294.7 361.4,294.7 361.4,352 390,323.4 			"/>
			<path fill="#F4E3C3" d="M304.1,237.4c0-31.7,25.7-57.3,57.3-57.3s57.3,25.7,57.3,57.3s-25.7,86-57.3,86S304.1,269.1,304.1,237.4z
				"/>
			<path fill="#FED8B2" d="M418.7,237.4c0-31.7-25.7-57.3-57.3-57.3v143.3C393,323.4,418.7,269.1,418.7,237.4z"/>
			<path fill="#3F3B3B" d="M418.7,237.4c0-31.7-25.7-57.3-57.3-57.3s-57.3,25.7-57.3,57.3c0,12.6,4.1,28.9,11,43.8
				c-1.6-8.6-1.2-17.4-0.3-24.1c36.4-2.9,71.5-19.9,71.5-19.9s4.4,8.2,21.1,15.4c1.2,6.8,2.3,17.8,0.3,28.5
				C414.6,266.3,418.7,250,418.7,237.4z"/>
			<path fill="#272525" d="M418.7,237.4c0-31.7-25.7-57.3-57.3-57.3v67c14.9-5,24.9-9.8,24.9-9.8s4.4,8.2,21.1,15.4
				c1.2,6.8,2.3,17.8,0.3,28.5C414.6,266.3,418.7,250,418.7,237.4z"/>
			<polygon fill="#FC9483" points="349.3,436.1 357.4,361.6 365.4,361.6 373.4,436.1 			"/>
			<polygon fill="#FD8469" points="365.4,361.6 361.4,361.6 361.4,436.1 373.4,436.1 			"/>
			<path fill="#324A5E" d="M361.4,436.1l-41.8-108.4l-29,9.7c-26.2,8.7-43.9,33.3-43.9,60.9v38.9h114.6L361.4,436.1L361.4,436.1z"/>
			<path fill="#2B3B4E" d="M476,398.3c0-27.6-17.7-52.1-43.9-60.9l-29-9.7l-41.8,108.4v1H476L476,398.3L476,398.3z"/>
			<polygon fill="#1B2B3A" points="403.1,327.7 411.1,361.6 396,369.1 411.1,386.4 361.4,436.1 			"/>
			<polygon fill="#2B3B4E" points="319.6,327.7 311.7,361.6 326.7,369.1 311.7,386.4 361.4,436.1 			"/>
			<polygon fill="#FD8469" points="377.2,352.2 366.6,377 356.1,377 345.6,352.2 			"/>
			<polygon fill="#FC6F58" points="377.2,352.2 361.4,352.2 361.4,377 366.6,377 			"/>
			<polygon fill="#E9EFF4" points="386.2,361.6 403.1,327.7 390,323.4 361.4,352 			"/>
			<polygon fill="#FFFFFF" points="336.5,361.6 319.6,327.7 332.7,323.4 361.4,352 			"/>
		</g>
	</g>
</g>
</svg>
