<?xml version="1.0" encoding="utf-8"?>
<!-- Generator: Adobe Illustrator 24.1.2, SVG Export Plug-In . SVG Version: 6.00 Build 0)  -->
<svg version="1.1" id="Layer_1" xmlns="http://www.w3.org/2000/svg" xmlns:xlink="http://www.w3.org/1999/xlink" x="0px" y="0px"
	 width="512px" height="512px" viewBox="0 0 512 512" style="enable-background:new 0 0 512 512;" xml:space="preserve">
<style type="text/css">
	.st0{fill:#FFFFFF;}
	.st1{clip-path:url(#SVGID_2_);fill:#FFFFFF;}
	.st2{clip-path:url(#SVGID_2_);}
	.st3{fill:#E3E7E8;}
	.st4{fill:#BDC3C7;}
	.st5{fill:#95A5A6;}
	.st6{fill:#ECF0F1;}
	.st7{fill:#7F8C8D;}
	.st8{fill:#202E3B;}
	.st9{fill:#34495E;}
	.st10{fill:#597DA1;}
	.st11{fill:#F1C40F;}
	.st12{fill:#C0392B;}
	.st13{fill:#E74C3C;}
	.st14{fill:#2980B9;}
	.st15{fill:#F39C12;}
	.st16{fill:#FFE372;}
	.st17{fill:#D35400;}
</style>
<circle class="st0" cx="256" cy="256" r="256"/>
<g>
	<defs>
		<circle id="SVGID_1_" cx="256" cy="256" r="256"/>
	</defs>
	<clipPath id="SVGID_2_">
		<use xlink:href="#SVGID_1_"  style="overflow:visible;"/>
	</clipPath>
	<circle class="st1" cx="256" cy="256" r="256"/>
	<g class="st2">
		<path class="st3" d="M-355.3,935.8h-16.7c-6.4-10.2-17.7-16.9-30.5-16.9c-12.9,0-24.2,6.8-30.5,16.9h-16.7V974h16.7
			c6.4,10.2,17.7,16.9,30.5,16.9c12.9,0,24.2-6.8,30.5-16.9h16.7V935.8z"/>
		<path class="st4" d="M-449.9,955.8V974h16.7c6.4,10.2,17.7,16.9,30.5,16.9c12.9,0,24.2-6.8,30.5-16.9h16.7v-18.3H-449.9z"/>
		<g>
			<polygon class="st5" points="-445.2,933.6 -445.2,976.2 -449.5,985.9 -480.3,985.9 -484.5,976.2 -484.5,933.6 -483.5,931.2 
				-480.3,923.9 -449.5,923.9 -446.3,931.2 			"/>
			<path class="st4" d="M-449.8,968.6c-10,0-20,0-30.1,0c-5.1-8.9-5.1-18.5,0-27.4c10,0,20,0,30.1,0
				C-444.7,950.1-444.7,959.7-449.8,968.6z"/>
			<path class="st6" d="M-446.3,931.2c-0.5,3.4-1.7,6.8-3.6,10h-30.1c-1.9-3.3-3.1-6.6-3.6-10l3.2-7.3h30.8L-446.3,931.2z"/>
			<path class="st7" d="M-446.3,978.6c-0.5-3.4-1.7-6.8-3.6-10h-30.1c-1.9,3.3-3.1,6.6-3.6,10l3.2,7.3h30.8L-446.3,978.6z"/>
		</g>
		<g>
			<polygon class="st5" points="-324.1,933.6 -324.1,976.2 -328.4,985.9 -359.2,985.9 -363.4,976.2 -363.4,933.6 -362.4,931.2 
				-359.2,923.9 -328.4,923.9 -325.2,931.2 			"/>
			<path class="st4" d="M-328.8,968.6c-10,0-20,0-30.1,0c-5.1-8.9-5.1-18.5,0-27.4c10,0,20,0,30.1,0
				C-323.6,950.1-323.6,959.7-328.8,968.6z"/>
			<path class="st6" d="M-325.2,931.2c-0.5,3.4-1.7,6.8-3.6,10h-30.1c-1.9-3.3-3.1-6.6-3.6-10l3.2-7.3h30.8L-325.2,931.2z"/>
			<path class="st7" d="M-325.2,978.6c-0.5-3.4-1.7-6.8-3.6-10h-30.1c-1.9,3.3-3.1,6.6-3.6,10l3.2,7.3h30.8L-325.2,978.6z"/>
		</g>
		<rect x="-411" y="888.5" class="st8" width="16.8" height="30.3"/>
		<rect x="-415" y="901.9" class="st9" width="24.8" height="16.9"/>
		<rect x="-419.7" y="917.3" class="st10" width="34.3" height="1.5"/>
		<rect x="-419.7" y="918.8" class="st3" width="34.3" height="7.6"/>
		
			<rect x="-416.9" y="901.9" transform="matrix(0.9959 -9.059082e-02 9.059082e-02 0.9959 -83.4825 -32.7562)" class="st10" width="28.7" height="2.7"/>
		
			<rect x="-416.9" y="907.2" transform="matrix(0.9959 -9.058315e-02 9.058315e-02 0.9959 -83.9498 -32.7323)" class="st10" width="28.7" height="2.7"/>
		
			<rect x="-416.9" y="912.4" transform="matrix(0.9959 -9.058315e-02 9.058315e-02 0.9959 -84.4243 -32.7107)" class="st10" width="28.7" height="2.7"/>
		<path class="st11" d="M-399.7,888.5h-5.7c-1,0-1.7-0.8-1.7-1.7l0,0c0-1,0.8-1.7,1.7-1.7h5.7c1,0,1.7,0.8,1.7,1.7l0,0
			C-398,887.7-398.8,888.5-399.7,888.5z"/>
		<g>
			<polygon class="st12" points="-385.7,889.2 -421.9,889.2 -425.4,892.6 -421.6,896.4 -419.7,894.5 -385.7,894.5 			"/>
			<polygon class="st12" points="-382.3,894.5 -391.8,894.5 -391.8,889.2 -384.5,889.2 -379.4,884 -375.6,887.8 			"/>
			<polygon class="st12" points="-372.7,877.3 -325.2,877.3 -325.2,882.7 -370.5,882.7 -375.6,887.8 -379.4,884 			"/>
		</g>
		<g>
			<rect x="-413.3" y="889.2" class="st13" width="21.5" height="5.3"/>
		</g>
		<path class="st11" d="M-416.6,968.4c-4.9,0-8.9-4-8.9-8.9V952c0-4.9,4-8.9,8.9-8.9h28.1c4.9,0,8.9,4,8.9,8.9v7.6
			c0,4.9-4,8.9-8.9,8.9H-416.6z"/>
		<path class="st14" d="M-388.5,966.2h-28.1c-3.7,0-6.6-3-6.6-6.6V952c0-3.7,3-6.6,6.6-6.6h28.1c3.7,0,6.6,3,6.6,6.6v7.6
			C-381.9,963.2-384.9,966.2-388.5,966.2z"/>
	</g>
	<g class="st2">
		<rect x="-639.6" y="269.6" class="st3" width="1610.6" height="62.7"/>
		<rect x="-666" y="329" class="st4" width="1610.6" height="62.7"/>
	</g>
	<g class="st2">
		<rect x="236.7" y="99.1" class="st8" width="50.8" height="91.6"/>
		<rect x="224.6" y="139.6" class="st9" width="74.9" height="51"/>
		<rect x="203.2" y="188.3" class="st3" width="117.8" height="77.3"/>
		<path class="st4" d="M203.2,265.6H242c11.1,0,20.1-9,20.1-20.1v-57.2h-58.9V265.6z"/>
		<rect x="210.3" y="186" class="st10" width="103.5" height="4.6"/>
		
			<rect x="258.1" y="100.4" transform="matrix(9.058385e-02 -0.9959 0.9959 9.058385e-02 95.3118 391.6247)" class="st10" width="8" height="86.5"/>
		
			<rect x="258.1" y="116.2" transform="matrix(9.059152e-02 -0.9959 0.9959 9.059152e-02 79.5699 405.9966)" class="st10" width="8" height="86.5"/>
		
			<rect x="258.1" y="132" transform="matrix(9.058385e-02 -0.9959 0.9959 9.058385e-02 63.8316 420.3714)" class="st10" width="8" height="86.5"/>
		<path class="st11" d="M253.4,99.1h17.3c2.9,0,5.2-2.3,5.2-5.2l0,0c0-2.9-2.3-5.2-5.2-5.2h-17.3c-2.9,0-5.2,2.3-5.2,5.2l0,0
			C248.2,96.7,250.6,99.1,253.4,99.1z"/>
		<g>
			<polygon class="st12" points="78.1,132.8 93.6,117.2 330.3,117.2 336,122.9 347.4,111.5 337,101.2 87,101.2 66.7,121.4 			"/>
		</g>
		<g>
			<rect x="229.7" y="101.2" class="st13" width="64.9" height="16"/>
		</g>
		<rect x="142.8" y="265.6" class="st3" width="238.6" height="129.7"/>
		<rect x="142.8" y="330.4" class="st4" width="238.6" height="64.9"/>
		<g>
			<polygon class="st15" points="414.9,266.1 414.9,394.8 407.7,424 355.1,424 347.9,394.8 347.9,266.1 349.7,258.9 355.1,236.9 
				407.7,236.9 413.1,258.9 			"/>
			<ellipse class="st11" cx="381.4" cy="330.4" rx="40.9" ry="52.9"/>
			<path class="st16" d="M413.1,258.9c-0.9,10.2-2.9,20.5-6.1,30.3h-51.3c-3.3-9.8-5.3-20.1-6.1-30.3l5.4-22h52.6L413.1,258.9z"/>
			<path class="st17" d="M413.1,402c-0.9-10.2-2.9-20.5-6.1-30.3h-51.3c-3.3,9.8-5.3,20.1-6.1,30.3l5.4,22h52.6L413.1,402z"/>
		</g>
		<g>
			<polygon class="st15" points="176.3,266.1 176.3,394.8 169.1,424 116.5,424 109.3,394.8 109.3,266.1 111.1,258.9 116.5,236.9 
				169.1,236.9 174.5,258.9 			"/>
			<ellipse class="st11" cx="142.8" cy="330.4" rx="40.9" ry="52.9"/>
			<path class="st16" d="M174.5,258.9c-0.9,10.2-2.9,20.5-6.1,30.3h-51.3c-3.3-9.8-5.3-20.1-6.1-30.3l5.4-22h52.6L174.5,258.9z"/>
			<path class="st17" d="M174.5,402c-0.9-10.2-2.9-20.5-6.1-30.3h-51.3c-3.3,9.8-5.3,20.1-6.1,30.3l5.4,22h52.6L174.5,402z"/>
		</g>
		<path class="st4" d="M203.2,241.7L203.2,241.7v23.8h-23.8l0,0C192.5,265.6,203.2,254.9,203.2,241.7z"/>
		<path class="st3" d="M321,241.7L321,241.7v23.8h23.8l0,0C331.7,265.6,321,254.9,321,241.7z"/>
		<rect x="176.1" y="251.2" class="st9" width="7.6" height="158.5"/>
		<rect x="339.7" y="251.2" class="st9" width="7.6" height="158.5"/>
		<path class="st6" d="M262.1,376.2c-37.4,0-66.7-20.1-66.7-45.8c0-25.7,29.3-45.8,66.7-45.8c37.4,0,66.7,20.1,66.7,45.8
			C328.8,356.1,299.5,376.2,262.1,376.2z"/>
		<path class="st14" d="M315.4,330.4c0,17.9-23.9,32.4-53.3,32.4c-29.5,0-53.3-14.5-53.3-32.4s23.9-32.4,53.3-32.4
			C291.5,298,315.4,312.5,315.4,330.4z"/>
	</g>
</g>
</svg>
