<?xml version="1.0" encoding="utf-8"?>
<!-- Generator: Adobe Illustrator 24.1.2, SVG Export Plug-In . SVG Version: 6.00 Build 0)  -->
<svg version="1.1" id="Layer_1" xmlns="http://www.w3.org/2000/svg" xmlns:xlink="http://www.w3.org/1999/xlink" x="0px" y="0px"
	 width="512px" height="512px" viewBox="0 0 512 512" style="enable-background:new 0 0 512 512;" xml:space="preserve">
<style type="text/css">
	.st0{fill:#FFFFFF;}
	.st1{fill:url(#SVGID_1_);}
	.st2{fill:url(#SVGID_2_);}
	.st3{fill:url(#SVGID_3_);}
	.st4{fill:#E6E7EF;}
	.st5{fill:#627182;}
	.st6{fill:#536270;}
	.st7{fill:#3DCFF3;}
	.st8{fill:#ACACAC;}
	.st9{fill:#9D9E9D;}
	.st10{fill:#F64446;}
	.st11{fill:#FED974;}
	.st12{fill:#E7E7E7;}
	.st13{fill:#DBDDDD;}
	.st14{fill:#1A1D2E;}
	.st15{fill:#FF892E;}
	.st16{fill:#306B8C;}
	.st17{fill:#1F5887;}
	.st18{opacity:0.15;}
	.st19{fill:#3D91A6;}
	.st20{fill:#B05F1F;}
	.st21{fill:#1F1F1F;}
	.st22{fill:#424242;}
	.st23{fill:#828282;}
	.st24{fill:#575757;}
	.st25{fill:#4A4A4A;}
	.st26{fill:#303030;}
	.st27{fill:#262626;}
	.st28{fill:#5E5E5E;}
	.st29{fill:#46A7D4;}
	.st30{fill:#20485E;}
	.st31{fill:#E0671B;}
	.st32{fill:#B5F0FF;}
</style>
<g>
	<circle class="st0" cx="256" cy="256" r="256"/>
	<linearGradient id="SVGID_1_" gradientUnits="userSpaceOnUse" x1="258.132" y1="378.1393" x2="258.132" y2="338.8048">
		<stop  offset="0" style="stop-color:#E7E6FF"/>
		<stop  offset="0.3393" style="stop-color:#C9D2F8"/>
		<stop  offset="0.7637" style="stop-color:#AABDF1"/>
		<stop  offset="1" style="stop-color:#9EB5EE"/>
	</linearGradient>
	<path class="st1" d="M309.9,436H206.4c-8.9,0-16.1-7.2-16.1-16.1v-84c0-8.9,7.2-16.1,16.1-16.1h103.4c8.9,0,16.1,7.2,16.1,16.1v84
		C326,428.8,318.8,436,309.9,436z"/>
	<linearGradient id="SVGID_2_" gradientUnits="userSpaceOnUse" x1="258.132" y1="408.809" x2="258.132" y2="459.617">
		<stop  offset="0" style="stop-color:#B2B1B9"/>
		<stop  offset="0.2957" style="stop-color:#89919D"/>
		<stop  offset="0.7729" style="stop-color:#4B6274"/>
		<stop  offset="1" style="stop-color:#334F64"/>
	</linearGradient>
	<path class="st2" d="M350.5,436H165.8c-5,0-9.1-4.1-9.1-9.1l0,0c0-5,4.1-9.1,9.1-9.1h184.8c5,0,9.1,4.1,9.1,9.1l0,0
		C359.6,431.9,355.6,436,350.5,436z"/>
	<linearGradient id="SVGID_3_" gradientUnits="userSpaceOnUse" x1="258.132" y1="387.5716" x2="258.132" y2="333.4649">
		<stop  offset="0" style="stop-color:#B2B1B9"/>
		<stop  offset="0.2957" style="stop-color:#89919D"/>
		<stop  offset="0.7729" style="stop-color:#4B6274"/>
		<stop  offset="1" style="stop-color:#334F64"/>
	</linearGradient>
	<path class="st3" d="M435.9,343.5H80.3c-8.9,0-16.1-7.2-16.1-16.1V96.1c0-8.9,7.2-16.1,16.1-16.1h355.6c8.9,0,16.1,7.2,16.1,16.1
		v231.2C452.1,336.3,444.8,343.5,435.9,343.5z"/>
	<g>
		<path class="st0" d="M201.5,93c-41.2,41.2-82.4,82.4-123.6,123.6v56L268.9,93H201.5z"/>
		<path class="st0" d="M422.2,330.5c8.9,0,16.1-7.2,16.1-16.1v-67.2l-83.3,83.3H422.2z"/>
		<path class="st0" d="M433.1,97.3L199.9,330.5h118.8l119.7-119.7V109.1C438.4,104.4,436.3,100.2,433.1,97.3z"/>
		<path class="st4" d="M94,93h-1.7c-8,0-14.4,6.5-14.4,14.4v1.7C77.9,100.2,85.1,93,94,93z"/>
		<path class="st4" d="M94,93c-8.9,0-16.1,7.2-16.1,16.1v107.5c41.2-41.2,82.4-82.4,123.6-123.6H94z"/>
		<path class="st4" d="M77.9,314.4v1.7c0,8,6.5,14.4,14.4,14.4H94C85.1,330.5,77.9,323.3,77.9,314.4z"/>
		<path class="st4" d="M422.2,93H268.9l-191,179.6v41.8c0,8.9,7.2,16.1,16.1,16.1h105.8L433.1,97.3C430.3,94.6,426.4,93,422.2,93z"
			/>
		<polygon class="st4" points="355.1,330.5 438.4,247.2 438.4,210.8 318.6,330.5 		"/>
	</g>
	<g>
		<path class="st5" d="M108.9,200h31.2v55.1h-31.2c-1.9,0-3.5-1.5-3.5-3.5v-48.1C105.5,201.6,107,200,108.9,200z"/>
		<path class="st6" d="M112.9,234.5c0-1.8,1.5-3.3,3.3-3.3h21.8c1.8,0,3.3,1.5,3.3,3.3c0,1.8-1.5,3.3-3.3,3.3h-21.8
			C114.4,237.8,112.9,236.4,112.9,234.5z"/>
		<path class="st6" d="M112.9,244.7c0-1.8,1.5-3.3,3.3-3.3h21.8c1.8,0,3.3,1.5,3.3,3.3c0,1.8-1.5,3.3-3.3,3.3h-21.8
			C114.4,248,112.9,246.5,112.9,244.7z"/>
		<path class="st5" d="M211.6,186.4c1.3,0,2.4,1.1,2.4,2.4v31c0,4.6-3.7,8.3-8.3,8.3h-58.5v-41.7H211.6z"/>
		<path class="st7" d="M198.1,186.4v23.5c0,2-1.6,3.7-3.7,3.7h-49.5v-27.2H198.1z"/>
		<path class="st8" d="M151.2,311.8h-15V158.9h15V311.8z"/>
		<path class="st9" d="M151.2,311.8h-7.1V158.9h7.1V311.8z"/>
		<path class="st10" d="M95.4,128.9h211.7c1.4,0,2.5,1.1,2.5,2.5v33.7c0,1.4-1.1,2.5-2.5,2.5H95.4c-1.4,0-2.5-1.1-2.5-2.5v-33.7
			C92.9,130.1,94,128.9,95.4,128.9z"/>
		<path class="st11" d="M92.9,144.4v20.8c0,1.4,1.1,2.5,2.5,2.5h195.2v-21.1c0-1.2-1-2.2-2.2-2.2H92.9z"/>
		<path class="st12" d="M236,109.2h38.7c1.5,0,2.8,1.2,2.8,2.8v40.3c0,1.5-1.3,2.8-2.8,2.8H236c-1.5,0-2.8-1.2-2.8-2.8V112
			C233.2,110.4,234.5,109.2,236,109.2z"/>
		<path class="st13" d="M233.2,152.2c0,1.5,1.2,2.8,2.8,2.8h38.7c1.5,0,2.8-1.2,2.8-2.8V112c0-1.5-1.3-2.8-2.8-2.8h-13.5v2
			c0,15.4-12.5,27.9-27.9,27.9V152.2z"/>
		<path class="st10" d="M268.7,132.1c0,7.4-6,13.4-13.4,13.4c-7.4,0-13.4-6-13.4-13.4c0-7.4,6-13.4,13.4-13.4
			C262.7,118.7,268.7,124.7,268.7,132.1z"/>
		<path class="st7" d="M117.3,211.3h18.9v12.2h-18.9c-0.6,0-1.1-0.5-1.1-1.1v-10.1C116.2,211.8,116.7,211.3,117.3,211.3z"/>
		<g>
			<path class="st8" d="M97.4,311.8c0-1.8,1.5-3.3,3.3-3.3h181.2c1.8,0,3.3,1.5,3.3,3.3s-1.5,3.3-3.3,3.3H100.7
				C98.9,315.1,97.4,313.6,97.4,311.8z"/>
			<path class="st8" d="M288.2,311.8c0-1.8,1.5-3.3,3.3-3.3h10.2c1.8,0,3.3,1.5,3.3,3.3s-1.5,3.3-3.3,3.3h-10.2
				C289.7,315.1,288.2,313.6,288.2,311.8z"/>
		</g>
	</g>
	<g>
		<rect x="216.4" y="283.4" class="st14" width="92.5" height="5.8"/>
		<g>
			<rect x="213.3" y="221.9" class="st15" width="98.7" height="61.6"/>
			<g>
				<path class="st0" d="M284.7,245c0-2.9,1.8-4.6,4.5-4.6c2.7,0,4.5,1.7,4.5,4.6c0,2.9-1.8,4.6-4.5,4.6
					C286.5,249.6,284.7,247.8,284.7,245z M291.4,245c0-1.8-0.9-2.8-2.2-2.8c-1.4,0-2.2,1.1-2.2,2.8c0,1.8,0.9,2.9,2.2,2.9
					C290.6,247.9,291.4,246.7,291.4,245z"/>
				<path class="st0" d="M295.6,240.6h2.3v8.9h-2.3V240.6z"/>
				<path class="st0" d="M300.2,240.6h2.3v7.2h4v1.7h-6.2V240.6z"/>
			</g>
			<g>
				<path class="st0" d="M280.5,252.8c0,8.7-8,15.8-17.8,15.8c-9.8,0-17.8-7.1-17.8-15.8c0-8.7,8-15.8,17.8-15.8
					C272.5,237,280.5,244.1,280.5,252.8z"/>
			</g>
			<g>
				<path class="st16" d="M262.7,239c8.6,0,15.6,6.2,15.6,13.9c0,7.6-7,13.9-15.6,13.9c-8.6,0-15.6-6.2-15.6-13.9
					C247,245.2,254.1,239,262.7,239L262.7,239z M262.7,237c-9.8,0-17.8,7.1-17.8,15.8c0,8.7,8,15.8,17.8,15.8
					c9.8,0,17.8-7.1,17.8-15.8C280.5,244.1,272.5,237,262.7,237L262.7,237z"/>
			</g>
			<g>
				<path class="st14" d="M262.7,243.9c0,0-12.4,16.3,0,16.3V243.9z"/>
				<path class="st17" d="M262.7,243.9v16.3C275.1,260.2,262.7,243.9,262.7,243.9z M266.5,255.7c-0.4,0.1-0.9-0.6-1-1.4
					c-0.1-0.8,0.1-1.5,0.6-1.6c0.4-0.1,0.9,0.6,1,1.4C267.2,255,266.9,255.7,266.5,255.7z"/>
			</g>
			<rect x="213.3" y="252.8" class="st18" width="98.7" height="30.6"/>
			<path class="st19" d="M213.3,283.4H312H213.3z"/>
			<path class="st20" d="M315.8,286.8L315.8,286.8c-2.1,0-3.8-1.5-3.8-3.3v-61.3c0-1.8,1.7-3.3,3.7-3.3h0.1c2,0,3.7,1.5,3.7,3.3
				v61.3C319.5,285.3,317.8,286.8,315.8,286.8z"/>
			<path class="st20" d="M209.6,286.8L209.6,286.8c-2.1,0-3.8-1.5-3.8-3.3v-61.3c0-1.8,1.7-3.3,3.7-3.3h0.1c2,0,3.7,1.5,3.7,3.3
				v61.3C213.3,285.3,211.7,286.8,209.6,286.8z"/>
			<path class="st15" d="M319.7,283.4h-0.2v-61.6h0.2c13.2,0,15.6,8.1,15.6,18.2v25.2C335.3,275.3,332.9,283.4,319.7,283.4z"/>
			<path class="st18" d="M319.7,283.4h-0.2v-30.6h15.9v12.4C335.3,275.3,332.9,283.4,319.7,283.4z"/>
			<path class="st15" d="M205.6,221.9h0.2v61.6h-0.2c-13.2,0-15.6-8.1-15.6-18.2v-25.2C190,230,192.4,221.9,205.6,221.9z"/>
			<path class="st18" d="M205.6,283.4h0.2v-30.6H190v12.4C190,275.3,192.4,283.4,205.6,283.4z"/>
			<rect x="248.5" y="218.9" class="st20" width="28.3" height="3"/>
			<path class="st15" d="M278.8,214.1h-32.2c-1.5,0-2.7,1.1-2.7,2.4v0c0,1.3,1.2,2.4,2.7,2.4h32.2c1.5,0,2.7-1.1,2.7-2.4v0
				C281.5,215.1,280.3,214.1,278.8,214.1z"/>
			<path class="st14" d="M237.1,216.5L237.1,216.5c-0.7,0-1.3,0.5-1.3,1.1v2.7h-16.1v-2.7c0-0.6-0.6-1.1-1.2-1.1h0
				c-0.7,0-1.2,0.5-1.2,1.1v44.7c0,0.6,0.6,1.1,1.2,1.1h0c0.7,0,1.2-0.5,1.2-1.1v-2.1h16.1v2.1c0,0.6,0.6,1.1,1.2,1.1h0
				c0.7,0,1.2-0.5,1.2-1.1v-44.7C238.3,216.9,237.8,216.5,237.1,216.5z M235.8,221.4v6.7h-16.1v-6.7H235.8z M219.7,243.5v-6.7h16.1
				v6.7H219.7z M235.8,244.6v6.7h-16.1v-6.7H235.8z M219.7,235.8v-6.7h16.1v6.7H219.7z M219.7,259.1v-6.7h16.1v6.7H219.7z"/>
		</g>
		<g>
			<rect x="318.3" y="289.7" class="st21" width="3.1" height="10.3"/>
			<rect x="212.7" y="289.2" class="st21" width="99.8" height="10.8"/>
			<rect x="326.5" y="288.3" class="st21" width="72.2" height="11.8"/>
			<g>
				<path class="st22" d="M302.1,305.8c0,7-6.4,12.7-14.3,12.7c-7.9,0-14.3-5.7-14.3-12.7c0-7,6.4-12.7,14.3-12.7
					C295.7,293.1,302.1,298.8,302.1,305.8z"/>
				<path class="st23" d="M297.1,305.8c0,4.5-4.1,8.2-9.2,8.2c-5.1,0-9.2-3.7-9.2-8.2c0-4.5,4.1-8.2,9.2-8.2
					C292.9,297.6,297.1,301.3,297.1,305.8z"/>
				<path class="st24" d="M294.4,305.8c0,3.2-2.9,5.8-6.5,5.8c-3.6,0-6.5-2.6-6.5-5.8c0-3.2,2.9-5.8,6.5-5.8
					C291.4,300,294.4,302.6,294.4,305.8z"/>
			</g>
			<polygon class="st25" points="269.3,304.8 265.3,303.3 272.2,287.7 303.9,287.7 310.4,303.4 306.3,304.7 300.9,291.6 
				275.2,291.6 			"/>
			<g>
				<path class="st22" d="M251.4,305.8c0,7-6.4,12.7-14.3,12.7c-7.9,0-14.3-5.7-14.3-12.7c0-7,6.4-12.7,14.3-12.7
					C245,293.1,251.4,298.8,251.4,305.8z"/>
				<path class="st23" d="M246.4,305.8c0,4.5-4.1,8.2-9.2,8.2c-5.1,0-9.2-3.7-9.2-8.2c0-4.5,4.1-8.2,9.2-8.2
					C242.2,297.6,246.4,301.3,246.4,305.8z"/>
				<path class="st24" d="M243.7,305.8c0,3.2-2.9,5.8-6.5,5.8c-3.6,0-6.5-2.6-6.5-5.8c0-3.2,2.9-5.8,6.5-5.8
					C240.7,300,243.7,302.6,243.7,305.8z"/>
			</g>
			<polygon class="st25" points="218.6,304.8 214.5,303.3 221.5,287.7 253.2,287.7 259.7,303.4 255.6,304.7 250.2,291.6 
				224.5,291.6 			"/>
			<path class="st26" d="M348.6,258.2H346c-1.9,1.7-3,2.7-4.9,4.4v25.7h7.5V258.2z"/>
			<rect x="312.6" y="291.1" class="st27" width="9.8" height="7.3"/>
			<path class="st28" d="M317.9,299h8.6v-8.4h-8.6c-2.6,0-4.7,1.9-4.7,4.1v0.1C313.3,297.1,315.4,299,317.9,299z"/>
		</g>
		<g>
			<g>
				<path class="st22" d="M392.3,305.8c0,7-6.4,12.7-14.3,12.7c-7.9,0-14.3-5.7-14.3-12.7c0-7,6.4-12.7,14.3-12.7
					C385.9,293.1,392.3,298.8,392.3,305.8z"/>
				<path class="st23" d="M387.3,305.8c0,4.5-4.1,8.2-9.2,8.2c-5.1,0-9.2-3.7-9.2-8.2c0-4.5,4.1-8.2,9.2-8.2
					C383.1,297.6,387.3,301.3,387.3,305.8z"/>
				<path class="st24" d="M384.6,305.8c0,3.2-2.9,5.8-6.5,5.8c-3.6,0-6.5-2.6-6.5-5.8c0-3.2,2.9-5.8,6.5-5.8
					C381.6,300,384.6,302.6,384.6,305.8z"/>
			</g>
			<g>
				<path class="st16" d="M392.9,230.6h-40.2c-2.2,0-4,1.6-4,3.6v66.9c0,2,1.8,3.6,4,3.6h3.7c1.9,0,3.5-1.2,3.9-2.8l2.4-9.7
					c0.4-1.7,2.1-2.8,4-2.8c4.4,0.1,11.3,0.2,12.2,0.2c0.1,0,0.1,0,0.2,0l11-0.4c2-0.1,3.8,1.2,4.1,3l1.7,9.5c0.3,1.7,2,3,4,3h11.2
					c2.2,0,4-1.6,4-3.6v-43.9c0-0.7-0.3-1.5-0.7-2.1l-18.3-23.1C395.4,231.2,394.2,230.6,392.9,230.6z"/>
				<path class="st18" d="M348.6,274.9v26.2c0,2,1.8,3.6,4,3.6h3.7c1.9,0,3.5-1.2,3.9-2.8l2.4-9.7c0.4-1.7,2.1-2.8,4-2.8
					c4.4,0.1,11.3,0.2,12.2,0.2c0.1,0,0.1,0,0.2,0l11-0.4c2-0.1,3.8,1.2,4.1,3l1.7,9.5c0.3,1.7,2,3,4,3h11.2c2.2,0,4-1.6,4-3.6
					v-26.2H348.6z"/>
				<path class="st29" d="M403.3,255.8l-20.2,0c-2.4,0-4.4-1.8-4.4-3.9v-12.9c0-2.2,2-3.9,4.4-3.9h8.9c1.2,0,2.3,0.5,2.9,1.4
					l11.3,14.5C407.9,252.9,406.2,255.8,403.3,255.8z"/>
				<path class="st30" d="M387.1,263h-5.6c-0.7,0-1.2-0.5-1.2-1.1v0c0-0.6,0.5-1.1,1.2-1.1h5.6c0.7,0,1.2,0.5,1.2,1.1v0
					C388.3,262.6,387.8,263,387.1,263z"/>
				<path class="st31" d="M364.5,274.9c0,0.8-1.5,1.5-3.3,1.5c-1.8,0-3.3-0.7-3.3-1.5c0-0.8,1.5-1.5,3.3-1.5
					C363,273.4,364.5,274,364.5,274.9z"/>
				<path class="st30" d="M355.6,255.8h17.8c0.8,0,1.5-0.6,1.5-1.4v-18.1c0-0.7-0.7-1.4-1.5-1.4h-17.8c-0.8,0-1.5,0.6-1.5,1.4v18.1
					C354.1,255.2,354.8,255.8,355.6,255.8z"/>
				<path class="st22" d="M418.1,303.1h-12.3c-0.8,0-1.6-1-1.8-1.6l-5.3-12.1c0-0.9,0.8-1.6,1.8-1.6h17.6c1,0,1.8,0.7,1.8,1.6v12.1
					C419.9,302.4,419,303.1,418.1,303.1z"/>
			</g>
			<g>
				<path class="st30" d="M413.1,278.7c0,3.8-2,6.8-4.4,6.8c-2.4,0-4.4-3-4.4-6.8s2-6.8,4.4-6.8C411.1,271.9,413.1,275,413.1,278.7z
					"/>
				<path class="st32" d="M412.6,278.7c0,3-1.6,5.4-3.5,5.4c-1.9,0-3.5-2.4-3.5-5.4c0-3,1.6-5.4,3.5-5.4
					C411,273.4,412.6,275.8,412.6,278.7z"/>
			</g>
			<polygon class="st25" points="359.5,304.8 355.5,303.3 362.4,287.7 394.1,287.7 400.6,303.4 396.5,304.7 391.1,291.6 
				365.4,291.6 			"/>
		</g>
	</g>
</g>
</svg>
