<?xml version="1.0" encoding="utf-8"?>
<!-- Generator: Adobe Illustrator 24.1.2, SVG Export Plug-In . SVG Version: 6.00 Build 0)  -->
<svg version="1.1" id="Layer_1" xmlns="http://www.w3.org/2000/svg" xmlns:xlink="http://www.w3.org/1999/xlink" x="0px" y="0px"
	 width="512px" height="512px" viewBox="0 0 512 512" style="enable-background:new 0 0 512 512;" xml:space="preserve">
<style type="text/css">
	.st0{fill:#FFFFFF;}
	.st1{fill-rule:evenodd;clip-rule:evenodd;fill:#8DD7F7;}
	.st2{fill-rule:evenodd;clip-rule:evenodd;fill:#0094D9;}
	.st3{fill-rule:evenodd;clip-rule:evenodd;fill:#FFFFFF;}
	.st4{fill:#0094D9;}
	.st5{font-family:'Arial-Black';}
	.st6{font-size:65.0421px;}
</style>
<g>
	<circle class="st0" cx="256" cy="256" r="256"/>
</g>
<path class="st1" d="M100.6,176.5h69.9v122.6H80.9h-9.3c-2.7,0-4.9-1.9-5.4-4.5c-0.7-6.7-1.1-13.6-1.1-20.5c0-8,0.5-15.9,1.5-23.6
	h3.5v0c1.5-0.1,2.8-1.1,3.1-2.5v-7.6h-5.1c2.6-14.5,7-28.4,12.7-41.4C80.9,187.5,89.5,177.9,100.6,176.5L100.6,176.5z M66.8,299.1
	c-0.1-0.5-0.1-1.1-0.2-1.6C66.6,298.1,66.7,298.6,66.8,299.1z"/>
<path class="st2" d="M170.6,264v35.2h-70.3c0-9.7,3.9-18.5,10.3-24.9c6.4-6.4,15.2-10.3,24.9-10.3H170.6L170.6,264z M164.7,293.3
	v-17.6h-29.3c-6.5,0-12.3,2.6-16.6,6.9c-2.9,2.9-5.1,6.6-6.1,10.7H164.7z"/>
<path class="st2" d="M170.6,269.8v29.3h-64.5c0-16.2,13.1-29.3,29.3-29.3H170.6z"/>
<path class="st3" d="M82.3,209.6h3.4c0.8,0,1.5,0.7,1.5,1.5v13c0,0.8-0.7,1.5-1.5,1.5H84v14.9c0,1-0.7,1.8-1.6,1.8h-1.1h-0.5H65
	v-3.6h15.9v-13.1c-1.4-0.1-2.5-1.7-2.5-3.7v-8.6c0-2,1.1-3.7,2.6-3.7l0,0c0.3,0,0.5,0.1,0.7,0.2C81.9,209.7,82.1,209.6,82.3,209.6z"
	/>
<path class="st2" d="M144.1,223.9l-48.5,15.7c-3.4,1.4-8.3,0.9-7.7-4.6l4.2-36.2c0.5-3.9,3.8-9,11.5-9.1l40.4,0
	c2.6,0,4.9,1.9,5.4,4.3v25.1C148.9,222.3,147.4,222,144.1,223.9z"/>
<path class="st3" d="M104.5,189.7l39.5,0c2.6,0,4.9,1.9,5.4,4.3v21.4l-44.8,11.9c-2.6,0.7-4.8-2.2-4.8-4.8v-27.9
	C99.7,191.9,101.9,189.7,104.5,189.7z"/>
<rect x="83.4" y="281.4" class="st2" width="13.8" height="4.8"/>
<rect x="83.4" y="284.5" class="st3" width="13.8" height="1.7"/>
<path class="st2" d="M146.3,242.5h3.9c1.3,0,2.4,1.1,2.4,2.4v12.3c0,1.3-1.1,2.4-2.4,2.4h-3.9c-1.3,0-2.4-1.1-2.4-2.4v-12.3
	C143.9,243.5,144.9,242.5,146.3,242.5z"/>
<path class="st3" d="M149,242.5h1.2c1.3,0,2.4,1.1,2.4,2.4v12.3c0,1.3-1.1,2.4-2.4,2.4H149c-1.3,0-2.4-1.1-2.4-2.4v-12.3
	C146.6,243.5,147.7,242.5,149,242.5z"/>
<ellipse transform="matrix(0.7071 -0.7071 0.7071 0.7071 -171.8586 183.37)" class="st3" cx="135.4" cy="299.1" rx="27.1" ry="27.1"/>
<path class="st2" d="M135.4,276.6c12.4,0,22.5,10.1,22.5,22.5c0,12.4-10.1,22.5-22.5,22.5c-12.4,0-22.5-10.1-22.5-22.5
	C112.9,286.7,123,276.6,135.4,276.6z"/>
<path class="st2" d="M135.4,283.5c8.6,0,15.6,7,15.6,15.6c0,8.6-7,15.6-15.6,15.6c-8.6,0-15.6-7-15.6-15.6
	C119.8,290.5,126.8,283.5,135.4,283.5z"/>
<path class="st3" d="M137.8,283.7c-5.5,0.8-10.1,4.6-12.1,9.6c-0.7,1.8-1.1,3.8-1.1,5.9c0,7.8,5.8,14.3,13.3,15.4
	c-0.8,0.1-1.5,0.2-2.3,0.2c-8.6,0-15.6-7-15.6-15.6c0-2.1,0.4-4,1.1-5.9c2.3-5.7,7.9-9.8,14.5-9.8
	C136.2,283.5,137,283.6,137.8,283.7z"/>
<path class="st1" d="M461.7,254.6l-275.9-9v20.9L461.7,254.6L461.7,254.6z M461.6,231.9l-275.9-9.4v21.3L461.6,231.9L461.6,231.9z
	 M461.6,209.1l-275.8-9.9V221L461.6,209.1L461.6,209.1z M461.5,186.4l-275.8-10.5v22.3L461.5,186.4L461.5,186.4z M185.8,175.5
	l275.8-11.9L204,153.3c-9.6,0-17.5,6.7-18.3,16.1v-16.8l0-1.2V175.5z"/>
<polygon class="st2" points="461.8,300.1 185.8,291.8 185.8,300.3 "/>
<polygon class="st2" points="185.8,289.2 461.7,277.3 185.8,268.7 "/>
<text transform="matrix(0.891 0 -0.454 0.891 49.0595 372.9946)" class="st4 st5 st6">FAST TRACK</text>
</svg>
