<?xml version="1.0" encoding="utf-8"?>
<!-- Generator: Adobe Illustrator 24.1.2, SVG Export Plug-In . SVG Version: 6.00 Build 0)  -->
<svg version="1.1" id="Layer_1" xmlns="http://www.w3.org/2000/svg" xmlns:xlink="http://www.w3.org/1999/xlink" x="0px" y="0px"
	 width="512px" height="512px" viewBox="0 0 512 512" style="enable-background:new 0 0 512 512;" xml:space="preserve">
<style type="text/css">
	.st0{fill:#FFFFFF;}
	.st1{fill:url(#SVGID_1_);}
	.st2{fill:url(#SVGID_2_);}
	.st3{fill:url(#SVGID_3_);}
	.st4{fill:url(#SVGID_4_);}
	.st5{fill:url(#SVGID_5_);}
	.st6{fill:url(#SVGID_6_);}
	.st7{fill:url(#SVGID_7_);}
	.st8{fill:url(#SVGID_8_);}
	.st9{fill:url(#SVGID_9_);}
	.st10{fill:url(#SVGID_10_);}
	.st11{fill:url(#SVGID_11_);}
	.st12{fill:url(#SVGID_12_);}
	.st13{fill:url(#SVGID_13_);}
	.st14{fill:url(#SVGID_14_);}
	.st15{fill:url(#SVGID_15_);}
	.st16{fill:url(#SVGID_16_);}
	.st17{fill:url(#SVGID_17_);}
	.st18{fill:url(#SVGID_18_);}
	.st19{fill:url(#SVGID_19_);}
	.st20{fill:url(#SVGID_20_);}
	.st21{fill:url(#SVGID_21_);}
	.st22{fill:url(#SVGID_22_);}
</style>
<circle class="st0" cx="256" cy="256" r="256"/>
<g>
	
		<linearGradient id="SVGID_1_" gradientUnits="userSpaceOnUse" x1="-30.3761" y1="-93.2784" x2="-30.3761" y2="-38.6394" gradientTransform="matrix(8 0 0 8 448 838)">
		<stop  offset="0" style="stop-color:#FC5C7D"/>
		<stop  offset="0.129" style="stop-color:#F35E85"/>
		<stop  offset="0.343" style="stop-color:#D9659B"/>
		<stop  offset="0.616" style="stop-color:#B070BF"/>
		<stop  offset="0.934" style="stop-color:#777FF0"/>
		<stop  offset="1" style="stop-color:#6A82FB"/>
	</linearGradient>
	<path class="st1" d="M85.6,276.7h238.8c3.7,0,6.6-3,6.6-6.6V97.7c0-3.7-3-6.6-6.6-6.6H85.6C82,91,79,94,79,97.7v172.4
		C79,273.8,82,276.7,85.6,276.7z M92.2,250.2h172.4v13.3H92.2V250.2z M317.7,236.9h-39.8v-53.1h39.8V236.9z M317.7,263.5h-39.8
		v-13.3h39.8V263.5z M317.7,104.3v13.3h-26.5v13.3h26.5v13.3h-26.5v13.3h26.5v13.3h-39.8v-66.3H317.7z M92.2,104.3h172.4v132.6H92.2
		V104.3z"/>
	
		<linearGradient id="SVGID_2_" gradientUnits="userSpaceOnUse" x1="-34.5212" y1="-93.2784" x2="-34.5212" y2="-38.6394" gradientTransform="matrix(8 0 0 8 448 838)">
		<stop  offset="0" style="stop-color:#FC5C7D"/>
		<stop  offset="0.129" style="stop-color:#F35E85"/>
		<stop  offset="0.343" style="stop-color:#D9659B"/>
		<stop  offset="0.616" style="stop-color:#B070BF"/>
		<stop  offset="0.934" style="stop-color:#777FF0"/>
		<stop  offset="1" style="stop-color:#6A82FB"/>
	</linearGradient>
	<path class="st2" d="M171.8,150.7c-11,0-19.9,8.9-19.9,19.9c0,11,8.9,19.9,19.9,19.9c11,0,19.9-8.9,19.9-19.9
		C191.7,159.6,182.8,150.7,171.8,150.7z M171.8,177.3c-3.7,0-6.6-3-6.6-6.6s3-6.6,6.6-6.6s6.6,3,6.6,6.6S175.5,177.3,171.8,177.3z"
		/>
	
		<linearGradient id="SVGID_3_" gradientUnits="userSpaceOnUse" x1="-41.9822" y1="-93.2784" x2="-41.9822" y2="-38.6394" gradientTransform="matrix(8 0 0 8 448 838)">
		<stop  offset="0" style="stop-color:#FC5C7D"/>
		<stop  offset="0.129" style="stop-color:#F35E85"/>
		<stop  offset="0.343" style="stop-color:#D9659B"/>
		<stop  offset="0.616" style="stop-color:#B070BF"/>
		<stop  offset="0.934" style="stop-color:#777FF0"/>
		<stop  offset="1" style="stop-color:#6A82FB"/>
	</linearGradient>
	<path class="st3" d="M105.5,117.6h13.3v13.3h-13.3V117.6z"/>
	
		<linearGradient id="SVGID_4_" gradientUnits="userSpaceOnUse" x1="-25.4021" y1="-93.2784" x2="-25.4021" y2="-38.6394" gradientTransform="matrix(8 0 0 8 448 838)">
		<stop  offset="0" style="stop-color:#FC5C7D"/>
		<stop  offset="0.129" style="stop-color:#F35E85"/>
		<stop  offset="0.343" style="stop-color:#D9659B"/>
		<stop  offset="0.616" style="stop-color:#B070BF"/>
		<stop  offset="0.934" style="stop-color:#777FF0"/>
		<stop  offset="1" style="stop-color:#6A82FB"/>
	</linearGradient>
	<path class="st4" d="M238.2,117.6h13.3v13.3h-13.3V117.6z"/>
	
		<linearGradient id="SVGID_5_" gradientUnits="userSpaceOnUse" x1="-41.9822" y1="-93.2784" x2="-41.9822" y2="-38.6394" gradientTransform="matrix(8 0 0 8 448 838)">
		<stop  offset="0" style="stop-color:#FC5C7D"/>
		<stop  offset="0.129" style="stop-color:#F35E85"/>
		<stop  offset="0.343" style="stop-color:#D9659B"/>
		<stop  offset="0.616" style="stop-color:#B070BF"/>
		<stop  offset="0.934" style="stop-color:#777FF0"/>
		<stop  offset="1" style="stop-color:#6A82FB"/>
	</linearGradient>
	<path class="st5" d="M105.5,210.4h13.3v13.3h-13.3V210.4z"/>
	
		<linearGradient id="SVGID_6_" gradientUnits="userSpaceOnUse" x1="-25.4021" y1="-93.2784" x2="-25.4021" y2="-38.6394" gradientTransform="matrix(8 0 0 8 448 838)">
		<stop  offset="0" style="stop-color:#FC5C7D"/>
		<stop  offset="0.129" style="stop-color:#F35E85"/>
		<stop  offset="0.343" style="stop-color:#D9659B"/>
		<stop  offset="0.616" style="stop-color:#B070BF"/>
		<stop  offset="0.934" style="stop-color:#777FF0"/>
		<stop  offset="1" style="stop-color:#6A82FB"/>
	</linearGradient>
	<path class="st6" d="M238.2,210.4h13.3v13.3h-13.3V210.4z"/>
	
		<linearGradient id="SVGID_7_" gradientUnits="userSpaceOnUse" x1="-18.77" y1="-93.2784" x2="-18.77" y2="-38.6394" gradientTransform="matrix(8 0 0 8 448 838)">
		<stop  offset="0" style="stop-color:#FC5C7D"/>
		<stop  offset="0.129" style="stop-color:#F35E85"/>
		<stop  offset="0.343" style="stop-color:#D9659B"/>
		<stop  offset="0.616" style="stop-color:#B070BF"/>
		<stop  offset="0.934" style="stop-color:#777FF0"/>
		<stop  offset="1" style="stop-color:#6A82FB"/>
	</linearGradient>
	<path class="st7" d="M291.2,197.1h13.3v26.5h-13.3V197.1z"/>
	
		<linearGradient id="SVGID_8_" gradientUnits="userSpaceOnUse" x1="-34.5212" y1="-93.2784" x2="-34.5212" y2="-38.6394" gradientTransform="matrix(8 0 0 8 448 838)">
		<stop  offset="0" style="stop-color:#FC5C7D"/>
		<stop  offset="0.129" style="stop-color:#F35E85"/>
		<stop  offset="0.343" style="stop-color:#D9659B"/>
		<stop  offset="0.616" style="stop-color:#B070BF"/>
		<stop  offset="0.934" style="stop-color:#777FF0"/>
		<stop  offset="1" style="stop-color:#6A82FB"/>
	</linearGradient>
	<path class="st8" d="M171.8,124.2c-25.6,0-46.4,20.8-46.4,46.4s20.8,46.4,46.4,46.4s46.4-20.8,46.4-46.4
		C218.2,145,197.5,124.2,171.8,124.2z M171.8,203.8c-18.3,0-33.2-14.8-33.2-33.2s14.8-33.2,33.2-33.2s33.2,14.8,33.2,33.2
		C205,188.9,190.1,203.8,171.8,203.8z"/>
</g>
<g>
	
		<linearGradient id="SVGID_9_" gradientUnits="userSpaceOnUse" x1="-13.1875" y1="-83.7933" x2="-13.1875" y2="-47.1531" gradientTransform="matrix(8 0 0 8 448 838)">
		<stop  offset="0" style="stop-color:#FC5C7D"/>
		<stop  offset="0.129" style="stop-color:#F35E85"/>
		<stop  offset="0.343" style="stop-color:#D9659B"/>
		<stop  offset="0.616" style="stop-color:#B070BF"/>
		<stop  offset="0.934" style="stop-color:#777FF0"/>
		<stop  offset="1" style="stop-color:#6A82FB"/>
	</linearGradient>
	<path class="st9" d="M422.6,309.5H262.4c-2.5,0-4.4,2-4.4,4.4v115.6c0,2.5,2,4.4,4.4,4.4h160.1c2.5,0,4.4-2,4.4-4.4V313.9
		C427,311.5,425,309.5,422.6,309.5z M418.1,318.4v88.9H302.5v-88.9H418.1z M266.9,398.4h17.8v-8.9h-17.8v-8.9h17.8v-8.9h-17.8v-8.9
		h26.7v44.5h-26.7V398.4z M293.6,318.4v35.6h-26.7v-35.6H293.6z M266.9,425.1v-8.9h26.7v8.9H266.9z M418.1,425.1H302.5v-8.9h115.6
		V425.1z"/>
	
		<linearGradient id="SVGID_10_" gradientUnits="userSpaceOnUse" x1="-10.4079" y1="-83.7933" x2="-10.4079" y2="-47.1531" gradientTransform="matrix(8 0 0 8 448 838)">
		<stop  offset="0" style="stop-color:#FC5C7D"/>
		<stop  offset="0.129" style="stop-color:#F35E85"/>
		<stop  offset="0.343" style="stop-color:#D9659B"/>
		<stop  offset="0.616" style="stop-color:#B070BF"/>
		<stop  offset="0.934" style="stop-color:#777FF0"/>
		<stop  offset="1" style="stop-color:#6A82FB"/>
	</linearGradient>
	<path class="st10" d="M364.7,376.2c7.4,0,13.3-6,13.3-13.3s-6-13.3-13.3-13.3s-13.3,6-13.3,13.3S357.4,376.2,364.7,376.2z
		 M364.7,358.4c2.5,0,4.4,2,4.4,4.4s-2,4.4-4.4,4.4s-4.4-2-4.4-4.4S362.3,358.4,364.7,358.4z"/>
	
		<linearGradient id="SVGID_11_" gradientUnits="userSpaceOnUse" x1="-5.4046" y1="-83.7933" x2="-5.4046" y2="-47.1531" gradientTransform="matrix(8 0 0 8 448 838)">
		<stop  offset="0" style="stop-color:#FC5C7D"/>
		<stop  offset="0.129" style="stop-color:#F35E85"/>
		<stop  offset="0.343" style="stop-color:#D9659B"/>
		<stop  offset="0.616" style="stop-color:#B070BF"/>
		<stop  offset="0.934" style="stop-color:#777FF0"/>
		<stop  offset="1" style="stop-color:#6A82FB"/>
	</linearGradient>
	<path class="st11" d="M400.3,327.3h8.9v8.9h-8.9V327.3z"/>
	
		<linearGradient id="SVGID_12_" gradientUnits="userSpaceOnUse" x1="-16.523" y1="-83.7933" x2="-16.523" y2="-47.1531" gradientTransform="matrix(8 0 0 8 448 838)">
		<stop  offset="0" style="stop-color:#FC5C7D"/>
		<stop  offset="0.129" style="stop-color:#F35E85"/>
		<stop  offset="0.343" style="stop-color:#D9659B"/>
		<stop  offset="0.616" style="stop-color:#B070BF"/>
		<stop  offset="0.934" style="stop-color:#777FF0"/>
		<stop  offset="1" style="stop-color:#6A82FB"/>
	</linearGradient>
	<path class="st12" d="M311.4,327.3h8.9v8.9h-8.9V327.3z"/>
	
		<linearGradient id="SVGID_13_" gradientUnits="userSpaceOnUse" x1="-5.4046" y1="-83.7933" x2="-5.4046" y2="-47.1531" gradientTransform="matrix(8 0 0 8 448 838)">
		<stop  offset="0" style="stop-color:#FC5C7D"/>
		<stop  offset="0.129" style="stop-color:#F35E85"/>
		<stop  offset="0.343" style="stop-color:#D9659B"/>
		<stop  offset="0.616" style="stop-color:#B070BF"/>
		<stop  offset="0.934" style="stop-color:#777FF0"/>
		<stop  offset="1" style="stop-color:#6A82FB"/>
	</linearGradient>
	<path class="st13" d="M400.3,389.5h8.9v8.9h-8.9V389.5z"/>
	
		<linearGradient id="SVGID_14_" gradientUnits="userSpaceOnUse" x1="-16.523" y1="-83.7933" x2="-16.523" y2="-47.1531" gradientTransform="matrix(8 0 0 8 448 838)">
		<stop  offset="0" style="stop-color:#FC5C7D"/>
		<stop  offset="0.129" style="stop-color:#F35E85"/>
		<stop  offset="0.343" style="stop-color:#D9659B"/>
		<stop  offset="0.616" style="stop-color:#B070BF"/>
		<stop  offset="0.934" style="stop-color:#777FF0"/>
		<stop  offset="1" style="stop-color:#6A82FB"/>
	</linearGradient>
	<path class="st14" d="M311.4,389.5h8.9v8.9h-8.9V389.5z"/>
	
		<linearGradient id="SVGID_15_" gradientUnits="userSpaceOnUse" x1="-20.9704" y1="-83.7933" x2="-20.9704" y2="-47.1531" gradientTransform="matrix(8 0 0 8 448 838)">
		<stop  offset="0" style="stop-color:#FC5C7D"/>
		<stop  offset="0.129" style="stop-color:#F35E85"/>
		<stop  offset="0.343" style="stop-color:#D9659B"/>
		<stop  offset="0.616" style="stop-color:#B070BF"/>
		<stop  offset="0.934" style="stop-color:#777FF0"/>
		<stop  offset="1" style="stop-color:#6A82FB"/>
	</linearGradient>
	<path class="st15" d="M275.8,327.3h8.9v17.8h-8.9V327.3z"/>
	
		<linearGradient id="SVGID_16_" gradientUnits="userSpaceOnUse" x1="-10.4079" y1="-83.7933" x2="-10.4079" y2="-47.1531" gradientTransform="matrix(8 0 0 8 448 838)">
		<stop  offset="0" style="stop-color:#FC5C7D"/>
		<stop  offset="0.129" style="stop-color:#F35E85"/>
		<stop  offset="0.343" style="stop-color:#D9659B"/>
		<stop  offset="0.616" style="stop-color:#B070BF"/>
		<stop  offset="0.934" style="stop-color:#777FF0"/>
		<stop  offset="1" style="stop-color:#6A82FB"/>
	</linearGradient>
	<path class="st16" d="M364.7,394c17.2,0,31.1-13.9,31.1-31.1c0-17.2-13.9-31.1-31.1-31.1c-17.2,0-31.1,13.9-31.1,31.1
		C333.6,380,347.6,394,364.7,394z M364.7,340.6c12.3,0,22.2,10,22.2,22.2s-10,22.2-22.2,22.2s-22.2-10-22.2-22.2
		C342.5,350.6,352.5,340.6,364.7,340.6z"/>
</g>
<g>
	
		<linearGradient id="SVGID_17_" gradientUnits="userSpaceOnUse" x1="-33.4932" y1="-89.1733" x2="-33.4932" y2="-43.8636" gradientTransform="matrix(8 0 0 8 448 838)">
		<stop  offset="0" style="stop-color:#FC5C7D"/>
		<stop  offset="0.129" style="stop-color:#F35E85"/>
		<stop  offset="0.343" style="stop-color:#D9659B"/>
		<stop  offset="0.616" style="stop-color:#B070BF"/>
		<stop  offset="0.934" style="stop-color:#777FF0"/>
		<stop  offset="1" style="stop-color:#6A82FB"/>
	</linearGradient>
	<path class="st17" d="M189.1,320.4l7.8-7.8l-22-22c-2.1-2.1-5.6-2.1-7.8,0l-22,22l7.8,7.8l12.6-12.6V377c0,18.2,14.8,33,33,33H215
		v-11h-16.5c-12.1,0-22-9.8-22-22v-69.2L189.1,320.4z"/>
	
		<linearGradient id="SVGID_18_" gradientUnits="userSpaceOnUse" x1="-27.063" y1="-89.1733" x2="-27.063" y2="-43.8636" gradientTransform="matrix(8 0 0 8 448 838)">
		<stop  offset="0" style="stop-color:#FC5C7D"/>
		<stop  offset="0.129" style="stop-color:#F35E85"/>
		<stop  offset="0.343" style="stop-color:#D9659B"/>
		<stop  offset="0.616" style="stop-color:#B070BF"/>
		<stop  offset="0.934" style="stop-color:#777FF0"/>
		<stop  offset="1" style="stop-color:#6A82FB"/>
	</linearGradient>
	<path class="st18" d="M226,399h11v11h-11V399z"/>
</g>
<g>
	
		<linearGradient id="SVGID_19_" gradientUnits="userSpaceOnUse" x1="-6.5175" y1="-89.1733" x2="-6.5175" y2="-43.8636" gradientTransform="matrix(8 0 0 8 448 838)">
		<stop  offset="0" style="stop-color:#FC5C7D"/>
		<stop  offset="0.129" style="stop-color:#F35E85"/>
		<stop  offset="0.343" style="stop-color:#D9659B"/>
		<stop  offset="0.616" style="stop-color:#B070BF"/>
		<stop  offset="0.934" style="stop-color:#777FF0"/>
		<stop  offset="1" style="stop-color:#6A82FB"/>
	</linearGradient>
	<path class="st19" d="M377.4,168h-16.5v11h16.5c12.1,0,22,9.8,22,22v69.2l-12.6-12.6l-7.8,7.8l22,22c2.1,2.1,5.6,2.1,7.8,0l22-22
		l-7.8-7.8l-12.6,12.6V201C410.4,182.8,395.6,168,377.4,168z"/>
	
		<linearGradient id="SVGID_20_" gradientUnits="userSpaceOnUse" x1="-12.9477" y1="-89.1733" x2="-12.9477" y2="-43.8636" gradientTransform="matrix(8 0 0 8 448 838)">
		<stop  offset="0" style="stop-color:#FC5C7D"/>
		<stop  offset="0.129" style="stop-color:#F35E85"/>
		<stop  offset="0.343" style="stop-color:#D9659B"/>
		<stop  offset="0.616" style="stop-color:#B070BF"/>
		<stop  offset="0.934" style="stop-color:#777FF0"/>
		<stop  offset="1" style="stop-color:#6A82FB"/>
	</linearGradient>
	<path class="st20" d="M338.9,168h11v11h-11V168z"/>
</g>
<linearGradient id="SVGID_21_" gradientUnits="userSpaceOnUse" x1="298.5" y1="104" x2="298.5" y2="237">
	<stop  offset="0" style="stop-color:#FC5C7D"/>
	<stop  offset="0.5625" style="stop-color:#F35E85"/>
	<stop  offset="0.9525" style="stop-color:#D9659B"/>
</linearGradient>
<rect x="273" y="104" class="st21" width="51" height="133"/>
<g>
	<g>
		<path class="st0" d="M278.6,104.2h17.7c17.5,0,21.8,6.5,21.8,17.6v22.8c0,9.1-2.2,19.1-21.8,19.1h-17.7V104.2z M291.3,155.9h4.1
			c8.4,0,9.7-3.9,9.7-10V121c0-5.5-1.3-9-9.7-9h-4V155.9z"/>
	</g>
</g>
<g>
	<g>
		<g>
			<path class="st0" d="M278.4,182.8h12.1v24.4h0.1c3.1-5.3,9.9-17,14.3-24.4h13.7l-14.5,21l15.4,33.1H306l-10.4-24.3l-5.1,7.3v17.1
				h-12.1V182.8z"/>
		</g>
	</g>
</g>
<linearGradient id="SVGID_22_" gradientUnits="userSpaceOnUse" x1="281" y1="311" x2="281" y2="412">
	<stop  offset="0.1423" style="stop-color:#BD6DB4"/>
	<stop  offset="0.934" style="stop-color:#8D79DD"/>
</linearGradient>
<rect x="264" y="311" class="st22" width="34" height="101"/>
<g>
	<g>
		<path class="st0" d="M266.7,318.4h11.5c11.5,0,14.2,4.4,14.2,11.8v15.4c0,6.1-1.4,12.9-14.3,12.9h-11.5V318.4z M275,353.2h2.7
			c5.5,0,6.3-2.6,6.3-6.8v-16.7c0-3.7-0.9-6-6.4-6H275V353.2z"/>
	</g>
</g>
<g>
	<g>
		<g>
			<path class="st0" d="M266.5,371.4h7.9v16.4h0.1c2-3.6,6.4-11.4,9.3-16.4h8.9l-9.5,14.1l10,22.3h-8.7l-6.8-16.4l-3.4,4.9v11.5
				h-7.9V371.4z"/>
		</g>
	</g>
</g>
</svg>
