<?xml version="1.0" encoding="utf-8"?>
<!-- Generator: Adobe Illustrator 24.1.2, SVG Export Plug-In . SVG Version: 6.00 Build 0)  -->
<svg version="1.1" id="Layer_1" xmlns="http://www.w3.org/2000/svg" xmlns:xlink="http://www.w3.org/1999/xlink" x="0px" y="0px"
	 width="512px" height="512px" viewBox="0 0 512 512" style="enable-background:new 0 0 512 512;" xml:space="preserve">
<style type="text/css">
	.st0{fill:#FFFFFF;}
	.st1{fill:url(#SVGID_1_);}
	.st2{fill:url(#SVGID_2_);}
	.st3{fill:url(#SVGID_3_);}
	.st4{fill:#E6E7EF;}
	.st5{clip-path:url(#SVGID_5_);}
	.st6{fill:none;stroke:#000000;stroke-width:1.4536;stroke-miterlimit:10;}
	.st7{fill:none;}
	.st8{fill:#FFC837;stroke:#E5AA0A;stroke-width:2.1804;stroke-miterlimit:10;}
	.st9{fill:none;stroke:#E5AA0A;stroke-width:2.1804;stroke-miterlimit:10;}
	.st10{fill:#FFC837;stroke:#E5AA0A;stroke-width:2.6388;stroke-miterlimit:10;}
	.st11{fill:#E5AA0A;}
	.st12{fill:none;stroke:#FFFFFF;stroke-width:3.634;stroke-linecap:round;stroke-miterlimit:10;}
	.st13{fill:none;stroke:#000000;stroke-width:1.9333;stroke-miterlimit:10;}
	.st14{fill:#FFC837;stroke:#E5AA0A;stroke-width:2.9;stroke-miterlimit:10;}
	.st15{fill:none;stroke:#E5AA0A;stroke-width:2.9;stroke-miterlimit:10;}
	.st16{fill:none;stroke:#FFFFFF;stroke-width:4.8333;stroke-linecap:round;stroke-miterlimit:10;}
	.st17{fill:none;stroke:#000000;stroke-width:1.9844;stroke-linecap:round;stroke-miterlimit:10;}
	.st18{fill:none;stroke:#000000;stroke-width:1.9844;stroke-miterlimit:10;}
	.st19{fill:none;stroke:#000000;stroke-width:2.6388;stroke-miterlimit:10;}
	.st20{fill:#FFC837;stroke:#E5AA0A;stroke-width:3.9581;stroke-miterlimit:10;}
	.st21{fill:none;stroke:#E5AA0A;stroke-width:3.9581;stroke-miterlimit:10;}
	.st22{fill:none;stroke:#FFFFFF;stroke-width:6.5969;stroke-linecap:round;stroke-miterlimit:10;}
	.st23{fill:none;stroke:#000000;stroke-width:2.6388;stroke-linecap:round;stroke-miterlimit:10;}
</style>
<circle class="st0" cx="256" cy="256" r="256"/>
<linearGradient id="SVGID_1_" gradientUnits="userSpaceOnUse" x1="255.5934" y1="363.328" x2="255.5934" y2="328.3221">
	<stop  offset="0" style="stop-color:#E7E6FF"/>
	<stop  offset="0.3393" style="stop-color:#C9D2F8"/>
	<stop  offset="0.7637" style="stop-color:#AABDF1"/>
	<stop  offset="1" style="stop-color:#9EB5EE"/>
</linearGradient>
<path class="st1" d="M301.6,414.8h-92.1c-7.9,0-14.4-6.4-14.4-14.4v-74.8c0-7.9,6.4-14.4,14.4-14.4h92.1c7.9,0,14.4,6.4,14.4,14.4
	v74.8C316,408.4,309.6,414.8,301.6,414.8z"/>
<linearGradient id="SVGID_2_" gradientUnits="userSpaceOnUse" x1="255.5934" y1="390.6227" x2="255.5934" y2="435.8395">
	<stop  offset="0" style="stop-color:#B2B1B9"/>
	<stop  offset="0.2957" style="stop-color:#89919D"/>
	<stop  offset="0.7729" style="stop-color:#4B6274"/>
	<stop  offset="1" style="stop-color:#334F64"/>
</linearGradient>
<path class="st2" d="M337.8,414.8H173.4c-4.5,0-8.1-3.6-8.1-8.1l0,0c0-4.5,3.6-8.1,8.1-8.1h164.4c4.5,0,8.1,3.6,8.1,8.1l0,0
	C345.9,411.2,342.3,414.8,337.8,414.8z"/>
<linearGradient id="SVGID_3_" gradientUnits="userSpaceOnUse" x1="255.5934" y1="371.7223" x2="255.5934" y2="323.5698">
	<stop  offset="0" style="stop-color:#B2B1B9"/>
	<stop  offset="0.2957" style="stop-color:#89919D"/>
	<stop  offset="0.7729" style="stop-color:#4B6274"/>
	<stop  offset="1" style="stop-color:#334F64"/>
</linearGradient>
<path class="st3" d="M413.8,332.5H97.4c-7.9,0-14.4-6.4-14.4-14.4V112.4c0-7.9,6.4-14.4,14.4-14.4h316.4c7.9,0,14.4,6.4,14.4,14.4
	v205.8C428.2,326.1,421.8,332.5,413.8,332.5z"/>
<g>
	<path class="st4" d="M109.6,104.5H108c-7.1,0-12.9,5.8-12.9,12.9v1.5C95.2,111,101.6,104.5,109.6,104.5z"/>
	<path class="st4" d="M95.2,301.6v1.5c0,7.1,5.8,12.9,12.9,12.9h1.5C101.6,316,95.2,309.5,95.2,301.6z"/>
	<g>
		<path class="st0" d="M205.2,108.5c-36.7,36.7-73.3,73.3-110,110v49.8l170-159.8H205.2z"/>
		<path class="st0" d="M402.5,319.7c7.4,0,13.5-6,13.5-13.5v-56.1l-69.6,69.6H402.5z"/>
		<path class="st0" d="M411.3,112.4L203.7,320h105.7L416,213.4v-90.5C416,118.7,414.2,115,411.3,112.4z"/>
		<path class="st4" d="M109.6,108.5c-7.9,0-14.4,6.4-14.4,14.4v95.6c36.7-36.7,73.3-73.3,110-110H109.6z"/>
		<path class="st4" d="M401.6,108.5H265.2l-170,159.8v37.2c0,7.9,6.4,14.4,14.4,14.4h94.2l207.6-207.6
			C408.8,110,405.4,108.5,401.6,108.5z"/>
		<polygon class="st4" points="346.4,319.7 416,250.1 416,219.7 316,319.7 		"/>
	</g>
</g>
<g>
	<defs>
		<rect id="SVGID_4_" x="96" y="108" width="320.8" height="211.5"/>
	</defs>
	<clipPath id="SVGID_5_">
		<use xlink:href="#SVGID_4_"  style="overflow:visible;"/>
	</clipPath>
	<g class="st5">
		<g>
			<g>
				<g>
					<path class="st6" d="M151.2,231.6c0.5-0.4,1.2-0.9,1.9-1.3c1.7-0.9,3.9-1.8,6.6-2.6c5.1-1.5,11.8-2.7,19.5-3.5
						c7.2-0.8,15.3-1.2,23.8-1.2c8.8,0,17.2,0.4,24.5,1.2"/>
					<path class="st6" d="M151.2,227.9c1.9-5.4,20-10.2,42.5-11c0.4,0,0.8,0,1.2,0c12.9-0.4,24.6,0.6,32.7,2.5"/>
				</g>
				<g>
					<polyline class="st6" points="151.2,227.8 151.2,229.2 151.2,231.6 151.2,235.5 					"/>
				</g>
				<line class="st6" x1="157.7" y1="223" x2="157.7" y2="231.7"/>
				<line class="st6" x1="172.6" y1="219" x2="172.6" y2="229.2"/>
				<line class="st6" x1="190.8" y1="217.2" x2="190.8" y2="227.7"/>
				<line class="st6" x1="212" y1="217" x2="212" y2="227.9"/>
			</g>
			<path class="st7" d="M198,241.1c0,0.1,0,0.2,0,0.3"/>
			<path class="st7" d="M198,261.4L198,261.4C198,261.4,198,261.4,198,261.4"/>
			<path class="st7" d="M198,287c-0.1,0-0.1,0.1-0.2,0.1"/>
			<path class="st8" d="M230,231.1v22.3c0,0,0,0,0,0c-8.8-1.2-19.3-2-30.5-2c-1.2,0-2.3,0-3.5,0c-19.1,0.3-35.6,2.6-44.9,6V237
				c0.8-5.2,20.6-9.3,44.9-9.3C209.6,227.7,221.8,229,230,231.1C230,231.1,230,231.1,230,231.1z"/>
			<path class="st9" d="M151.2,237c0,0.1,0,0.2,0,0.3"/>
			<path class="st9" d="M151.2,257.4L151.2,257.4C151.2,257.3,151.2,257.3,151.2,257.4"/>
			<path class="st9" d="M151.2,283c-0.1,0-0.1,0.1-0.2,0.1"/>
			<path class="st8" d="M230,253.3v28.1c-8.4-0.4-19.3-0.6-31.2-0.6c-24.6,0-44.9,0.9-47.7,2.1v-25.6c9.3-3.4,25.8-5.7,44.9-6
				c1.1,0,2.3,0,3.5,0C210.7,251.3,221.2,252.1,230,253.3C230,253.3,230,253.3,230,253.3z"/>
			<path class="st10" d="M230,281.3v133.9h-78.9V285.8c2.8-3.5,23.1-6.3,47.7-6.3C210.8,279.6,221.7,280.2,230,281.3z"/>
			<path class="st11" d="M230,231v16.1c-8.8-1.3-19.3-2-30.6-2c-1.2,0-2.3,0-3.4,0v-17.5C209.6,227.7,221.8,229,230,231z"/>
			<path class="st11" d="M230,253.3v24.2c-8.4-0.4-19.3-0.6-31.2-0.6c-0.9,0-1.9,0-2.8,0v-25.6c1.1,0,2.3,0,3.5,0
				C210.7,251.3,221.2,252.1,230,253.3z"/>
			<path class="st11" d="M230,281.2v44.7h-34v-45.2c0.9,0,1.8,0,2.8,0C210.7,280.6,221.6,280.8,230,281.2z"/>
			<line class="st12" x1="160.1" y1="237.3" x2="160.1" y2="249.3"/>
			<line class="st12" x1="160.1" y1="260.6" x2="160.1" y2="278"/>
		</g>
		<g>
			<g>
				<g>
					<path class="st13" d="M186.7,191.8c0.7-0.6,1.6-1.1,2.6-1.7c2.2-1.2,5.2-2.4,8.8-3.4c6.7-2,15.7-3.6,26-4.7
						c9.5-1,20.3-1.6,31.7-1.6c11.8,0,22.9,0.6,32.6,1.6"/>
					<path class="st13" d="M186.8,186.9c2.5-7.2,26.7-13.5,56.5-14.6c0.5,0,1,0,1.6-0.1c17.2-0.5,32.7,0.8,43.5,3.4"/>
				</g>
				<g>
					<polyline class="st13" points="186.7,186.8 186.7,188.7 186.7,191.8 186.7,197 					"/>
				</g>
				<line class="st13" x1="195.4" y1="180.4" x2="195.4" y2="192"/>
				<line class="st13" x1="215.2" y1="175.1" x2="215.2" y2="188.6"/>
				<line class="st13" x1="239.4" y1="172.6" x2="239.4" y2="186.7"/>
				<line class="st13" x1="267.7" y1="172.4" x2="267.7" y2="186.9"/>
			</g>
			<path class="st7" d="M249.1,204.4c0,0.1,0,0.3,0,0.4"/>
			<path class="st7" d="M249,231.5L249,231.5C249,231.5,249,231.5,249,231.5"/>
			<path class="st7" d="M249.1,265.6c-0.1,0-0.2,0.1-0.2,0.1"/>
			<path class="st14" d="M291.6,191.1v29.6c0,0,0,0,0,0c-11.7-1.7-25.6-2.6-40.6-2.6c-1.5,0-3.1,0-4.6,0c-25.3,0.3-47.3,3.4-59.7,8
				v-27c1-6.9,27.4-12.4,59.7-12.4C264.5,186.7,280.6,188.4,291.6,191.1C291.6,191.1,291.6,191.1,291.6,191.1z"/>
			<path class="st15" d="M186.7,199c0,0.1,0,0.3,0,0.4"/>
			<path class="st15" d="M186.7,226.1L186.7,226.1C186.7,226.1,186.7,226.1,186.7,226.1"/>
			<path class="st15" d="M186.7,260.2c-0.1,0-0.2,0.1-0.2,0.1"/>
			<path class="st14" d="M291.6,220.7v37.4c-11.2-0.5-25.7-0.8-41.5-0.8c-32.7,0-59.7,1.2-63.4,2.8v-34.1c12.4-4.5,34.3-7.6,59.7-8
				c1.5,0,3,0,4.6,0C266,218.1,279.9,219,291.6,220.7C291.6,220.7,291.6,220.7,291.6,220.7z"/>
			<path class="st10" d="M291.6,258.1v157.1H186.7V263.4c3.7-4.1,30.7-7.3,63.4-7.3C266,256.1,280.5,256.8,291.6,258.1z"/>
			<path class="st11" d="M291.6,191.1v21.5c-11.7-1.7-25.7-2.6-40.6-2.6c-1.5,0-3,0-4.6,0v-23.3
				C264.5,186.7,280.6,188.4,291.6,191.1z"/>
			<path class="st11" d="M291.6,220.7v32.2c-11.2-0.5-25.7-0.8-41.5-0.8c-1.2,0-2.5,0-3.7,0v-34.1c1.5,0,3,0,4.6,0
				C266,218.1,279.9,219,291.6,220.7z"/>
			<path class="st11" d="M291.6,258.9v147.7h-45.2V257c1.2,0,2.5,0,3.7,0C265.9,257,280.4,257.7,291.6,258.9z"/>
			<line class="st16" x1="198.6" y1="199.5" x2="198.6" y2="215.4"/>
			<line class="st16" x1="198.6" y1="230.4" x2="198.6" y2="253.6"/>
		</g>
		<g>
			<line class="st17" x1="244.1" y1="235.1" x2="185.3" y2="286.4"/>
			<line class="st18" x1="185.3" y1="272.1" x2="185.3" y2="286.4"/>
			<line class="st18" x1="234.8" y1="228.9" x2="234.8" y2="243.3"/>
			<line class="st18" x1="212.5" y1="248.9" x2="212.5" y2="263.3"/>
			<line class="st18" x1="194.5" y1="264.1" x2="194.5" y2="278.5"/>
			<line class="st17" x1="243.9" y1="220.8" x2="185.2" y2="272.1"/>
			<line class="st18" x1="243.9" y1="226.8" x2="185.2" y2="278.1"/>
			<line class="st18" x1="243.8" y1="220.7" x2="269.6" y2="220.7"/>
			<line class="st18" x1="243.8" y1="235.1" x2="269.6" y2="235.1"/>
			<line class="st18" x1="243.8" y1="227.7" x2="269.6" y2="227.7"/>
		</g>
		<g>
			<g>
				<g>
					<path class="st19" d="M240.3,146.8c0.9-0.8,2.1-1.6,3.5-2.3c3.1-1.7,7.1-3.2,12.1-4.7c9.2-2.7,21.4-4.9,35.5-6.4
						c13-1.4,27.7-2.2,43.3-2.2c16.1,0,31.2,0.8,44.5,2.2"/>
					<path class="st19" d="M240.4,140.1c3.4-9.8,36.4-18.5,77.1-19.9c0.7,0,1.4-0.1,2.1-0.1c23.5-0.7,44.7,1.1,59.4,4.6"/>
				</g>
				<g>
					<polyline class="st19" points="240.3,139.9 240.3,142.5 240.3,146.7 240.3,153.9 					"/>
				</g>
				<line class="st19" x1="252.1" y1="131.2" x2="252.1" y2="147"/>
				<line class="st19" x1="279.2" y1="123.9" x2="279.2" y2="142.4"/>
				<line class="st19" x1="312.2" y1="120.6" x2="312.2" y2="139.8"/>
				<line class="st19" x1="350.8" y1="120.3" x2="350.8" y2="140.1"/>
			</g>
			<path class="st7" d="M325.4,164c0,0.2,0,0.4,0,0.6"/>
			<path class="st7" d="M325.3,201L325.3,201C325.3,200.9,325.4,200.9,325.3,201"/>
			<path class="st7" d="M325.4,247.5c-0.1,0.1-0.2,0.1-0.3,0.2"/>
			<path class="st20" d="M383.5,145.8v40.4c0,0,0,0,0,0c-16-2.3-35-3.6-55.4-3.6c-2.1,0-4.2,0-6.3,0c-34.6,0.5-64.6,4.7-81.4,10.9
				v-36.9c1.4-9.4,37.3-16.9,81.4-16.9C346.4,139.8,368.5,142.1,383.5,145.8C383.4,145.8,383.5,145.8,383.5,145.8z"/>
			<path class="st21" d="M240.3,156.7c0,0.2,0,0.4,0,0.6"/>
			<path class="st21" d="M240.3,193.6L240.3,193.6C240.3,193.5,240.3,193.5,240.3,193.6"/>
			<path class="st21" d="M240.3,240.1c-0.1,0.1-0.2,0.1-0.3,0.2"/>
			<path class="st20" d="M383.5,186.2v51.1c-15.2-0.6-35-1-56.6-1c-44.7,0-81.5,1.7-86.5,3.8v-46.5c16.9-6.2,46.8-10.4,81.4-10.9
				c2.1,0,4.2,0,6.3,0C348.4,182.6,367.4,184,383.5,186.2C383.4,186.2,383.5,186.2,383.5,186.2z"/>
			<path class="st10" d="M383.5,237.2v177.9H240.3V243.3c5-4.7,41.9-8.3,86.5-8.3C348.5,235,368.2,235.8,383.5,237.2z"/>
			<path class="st11" d="M383.4,145.8v29.3c-16-2.3-35-3.6-55.5-3.6c-2.1,0-4.2,0-6.2,0v-31.8C346.4,139.8,368.5,142.1,383.4,145.8z
				"/>
			<path class="st11" d="M383.4,186.2v44c-15.2-0.6-35-1-56.6-1c-1.7,0-3.4,0-5.1,0v-46.5c2.1,0,4.2,0,6.3,0
				C348.4,182.6,367.4,184,383.4,186.2z"/>
			<path class="st11" d="M383.4,237.8v162.8h-61.7V235.8c1.7,0,3.4,0,5.1,0C348.4,235.7,368.2,236.5,383.4,237.8z"/>
			<line class="st22" x1="256.4" y1="157.2" x2="256.4" y2="179"/>
			<line class="st22" x1="256.4" y1="199.5" x2="256.4" y2="231.1"/>
		</g>
		<g>
			<line class="st23" x1="304.3" y1="220.9" x2="226.1" y2="289.2"/>
			<line class="st19" x1="226.1" y1="270.1" x2="226.1" y2="289.2"/>
			<line class="st19" x1="304.3" y1="202.1" x2="304.3" y2="221.2"/>
			<line class="st19" x1="274.6" y1="227.8" x2="274.6" y2="247"/>
			<line class="st19" x1="238.3" y1="259.5" x2="238.3" y2="278.6"/>
			<line class="st23" x1="304.1" y1="201.9" x2="225.9" y2="270.2"/>
			<line class="st19" x1="304.1" y1="209.8" x2="225.9" y2="278.1"/>
			<line class="st19" x1="303.9" y1="201.8" x2="371.9" y2="201.8"/>
			<line class="st19" x1="303.9" y1="220.9" x2="371.9" y2="220.9"/>
			<line class="st19" x1="303.9" y1="211" x2="372.5" y2="211"/>
		</g>
	</g>
</g>
</svg>
