<svg id="Capa_1" enable-background="new 0 0 512 512" height="512" viewBox="0 0 512 512" width="512" xmlns="http://www.w3.org/2000/svg"><path d="m279.937 504.5h-211.447l26.677-33.811h158.093z" fill="#909ba5"/><path d="m253.26 470.689h-19.698l26.677 33.811h19.698z" fill="#808b95"/><path d="m237.509 470.689h-126.59v-82.03c0-34.957 28.338-63.295 63.295-63.295 34.957 0 63.295 28.338 63.295 63.295z" fill="#e49824"/><path d="m174.214 325.364c-2.876 0-5.701.21-8.474.581 30.947 4.144 54.821 30.632 54.821 62.714v82.03h16.948v-82.03c0-34.957-28.338-63.295-63.295-63.295z" fill="#df8621"/><circle cx="174.214" cy="386.766" fill="#544f57" r="31.932"/><path d="m174.214 354.834c-2.353 0-4.643.262-6.851.745 14.341 3.137 25.08 15.904 25.08 31.187 0 15.282-10.739 28.05-25.08 31.187 2.208.483 4.499.745 6.851.745 17.635 0 31.932-14.296 31.932-31.932-.001-17.636-14.297-31.932-31.932-31.932z" fill="#454045"/><circle cx="281.115" cy="266.171" fill="#544f57" r="29.413"/><path d="m281.115 236.758c-2.448 0-4.823.304-7.097.867 12.815 3.176 22.316 14.749 22.316 28.546s-9.501 25.37-22.316 28.546c2.273.563 4.649.867 7.097.867 16.245 0 29.413-13.169 29.413-29.413s-13.168-29.413-29.413-29.413z" fill="#454045"/><path d="m174.214 325.364c21.853 0 41.119 11.075 52.493 27.918l66.915-60.486c-3.796 1.786-8.033 2.789-12.506 2.789-13.896 0-25.533-9.639-28.61-22.593l-83.695 52.618c1.782-.152 3.581-.246 5.403-.246z" fill="#e49824"/><path d="m281.115 295.584c-13.896 0-25.533-9.639-28.61-22.593l-13.095 8.233c5.449 15.094 18.856 26.38 35.158 28.793l19.053-17.222c-3.796 1.786-8.033 2.789-12.506 2.789z" fill="#df8621"/><circle cx="174.75" cy="161.209" fill="#544f57" r="26.115"/><path d="m174.75 135.094c-2.446 0-4.811.344-7.056.972 10.994 3.079 19.06 13.166 19.06 25.143s-8.066 22.064-19.06 25.143c2.245.629 4.61.972 7.056.972 14.423 0 26.115-11.692 26.115-26.115s-11.692-26.115-26.115-26.115z" fill="#454045"/><path d="m200.516 165.456c-2.029 12.402-12.79 21.868-25.766 21.868-1.428 0-2.829-.119-4.195-.34l81.95 86.006c-.52-2.19-.803-4.471-.803-6.82 0-16.244 13.169-29.413 29.413-29.413 2.496 0 4.918.314 7.233.899z" fill="#e49824"/><path d="m174.75 187.324c-1.428 0-2.829-.119-4.195-.34l15.263 16.018c13.27-3.505 24.032-13.162 29.067-25.735l-14.369-11.812c-2.029 12.404-12.79 21.869-25.766 21.869z" fill="#df8621"/><path d="m237.655 257.405 14.851 15.586c-.52-2.19-.803-4.471-.803-6.82 0-16.244 13.169-29.413 29.413-29.413 2.496 0 4.918.314 7.233.899l-17.711-14.559c-16.632 4.032-29.598 17.433-32.983 34.307z" fill="#df8621"/><path d="m268.439 89.872c-3.743-4.701-10.401-5.879-15.529-2.747l-78.562 47.978c.135-.002.268-.01.403-.01 14.423 0 26.115 11.692 26.115 26.115 0 2.027-.239 3.997-.675 5.891l66.952-61.001c4.635-4.223 5.202-11.319 1.296-16.226z" fill="#e49824"/><path d="m216.948 151.831c-2.805-12.678-11.172-23.257-22.414-29.055l-20.186 12.328c.135-.002.268-.01.403-.01 14.423 0 26.115 11.692 26.115 26.115 0 2.027-.239 3.997-.675 5.891z" fill="#df8621"/><path d="m374.105 78.692-20.798 20.798c-3.827 3.827-10.033 3.827-13.86 0l-54.461-54.461c-3.827-3.827-3.827-10.033 0-13.86l20.798-20.798c3.827-3.827 10.033-3.827 13.861 0l54.461 54.461c3.827 3.827 3.827 10.032-.001 13.86z" fill="#e49824"/><path d="m374.105 64.831-54.461-54.461c-3.828-3.827-10.033-3.827-13.861 0l-9.255 9.255c3.828-3.827 10.033-3.827 13.861 0l54.461 54.461c3.828 3.827 3.828 10.033 0 13.86l9.255-9.255c3.828-3.827 3.828-10.032 0-13.86z" fill="#df8621"/><path d="m359.718 85.103h27.233v27.233h-27.233z" fill="#909ba5" transform="matrix(.707 -.707 .707 .707 39.542 292.902)"/><path d="m174.214 347.329c-21.743 0-39.432 17.688-39.432 39.432s17.688 39.432 39.432 39.432 39.432-17.688 39.432-39.432-17.689-39.432-39.432-39.432zm0 63.864c-13.472 0-24.432-10.96-24.432-24.432s10.96-24.432 24.432-24.432 24.432 10.96 24.432 24.432-10.96 24.432-24.432 24.432z"/><path d="m144.928 436.334c-4.143 0-7.5 3.357-7.5 7.5s3.357 7.5 7.5 7.5h58.572c4.143 0 7.5-3.357 7.5-7.5s-3.357-7.5-7.5-7.5z"/><path d="m307.347 32.727c-2.929 2.93-2.929 7.678 0 10.607l1.174 1.174c1.465 1.464 3.385 2.196 5.304 2.196s3.839-.732 5.304-2.196c2.929-2.93 2.929-7.678 0-10.607l-1.174-1.174c-2.931-2.928-7.679-2.928-10.608 0z"/><path d="m339.967 75.953 1.174 1.173c1.464 1.463 3.382 2.194 5.301 2.194 1.92 0 3.841-.733 5.306-2.199 2.928-2.93 2.926-7.679-.005-10.606l-1.174-1.173c-2.929-2.927-7.678-2.927-10.606.005-2.929 2.93-2.927 7.679.004 10.606z"/><path d="m504.5 496.995h-220.927l-24.426-30.957c-1.422-1.803-3.592-2.854-5.888-2.854h-8.251v-74.53c0-12.296-3.152-23.871-8.689-33.958l61.566-55.651c11.947-6.119 20.142-18.56 20.142-32.879 0-16.604-11.021-30.682-26.131-35.306l-79.148-65.062 59.444-54.159c5.487-4.998 7.468-12.523 5.683-19.322l25.469-18.325 30.798 30.798c3.373 3.372 7.803 5.059 12.233 5.059 2.327 0 4.655-.466 6.829-1.397l10.91 10.91-2.397 2.397c-2.929 2.93-2.929 7.678 0 10.607 1.465 1.464 3.385 2.196 5.304 2.196s3.839-.732 5.304-2.196l9.621-9.621 21.961 49.202c1.245 2.79 3.983 4.445 6.853 4.445 1.021 0 2.06-.21 3.053-.653 3.782-1.688 5.48-6.123 3.792-9.905l-18.419-41.267 41.267 18.419c3.783 1.689 8.217-.008 9.905-3.792 1.688-3.782-.009-8.217-3.792-9.905l-49.202-21.961 9.621-9.621c2.929-2.93 2.929-7.678 0-10.607-2.93-2.928-7.678-2.928-10.607 0l-2.397 2.397-10.902-10.902c.917-2.131 1.398-4.447 1.398-6.837 0-4.621-1.8-8.966-5.067-12.234l-15.976-15.976c-2.93-2.928-7.678-2.928-10.607 0-2.929 2.93-2.929 7.678 0 10.607l15.976 15.976c.558.557.675 1.192.675 1.627s-.117 1.069-.675 1.627l-.769.769s-.001.001-.001.001l-19.257 19.257c-.012.012-.024.025-.036.037l-.734.734c-.897.896-2.356.896-3.254 0l-54.462-54.462c-.897-.896-.897-2.356 0-3.253l20.798-20.798c.896-.898 2.357-.898 3.254 0l17.28 17.28c2.93 2.928 7.678 2.928 10.607 0 2.929-2.93 2.929-7.678 0-10.607l-17.28-17.28c-6.746-6.744-17.723-6.744-24.469 0l-20.798 20.798c-6.745 6.746-6.745 17.722 0 24.468l12.917 12.917-23.873 17.177c-5.983-3.397-13.551-3.474-19.725.298l-76.918 46.974c-17.293 1.364-30.948 15.873-30.948 33.51 0 15.779 10.929 29.054 25.615 32.653l39.347 41.294c1.474 1.547 3.45 2.326 5.431 2.326 1.858 0 3.721-.687 5.173-2.07 2.999-2.857 3.113-7.604.256-10.604l-30.555-32.067c7.41-2.746 13.596-8.034 17.495-14.798l64.966 53.404c-10.926 3.856-19.51 12.717-22.985 23.815l-8.231-8.639c-2.856-2.998-7.603-3.113-10.604-.256-2.999 2.857-3.113 7.604-.256 10.604l13.96 14.652-74.398 46.774c-35.349 3.924-62.931 33.982-62.931 70.361v15.046c0 4.143 3.357 7.5 7.5 7.5s7.5-3.357 7.5-7.5v-15.046c0-30.839 25.103-55.795 55.795-55.795 30.766 0 55.795 25.029 55.795 55.795v74.53h-111.59v-29.497c0-4.143-3.357-7.5-7.5-7.5s-7.5 3.357-7.5 7.5v29.497h-8.251c-2.296 0-4.466 1.052-5.888 2.854l-24.425 30.957h-57.354c-4.143 0-7.5 3.357-7.5 7.5s3.357 7.5 7.5 7.5h497c4.143 0 7.5-3.357 7.5-7.5s-3.357-7.5-7.5-7.5zm-131.165-406.93 8.65 8.65-8.65 8.65-8.65-8.65zm-116.516 3.456c1.895-1.157 4.368-.72 5.752 1.018 1.442 1.812 1.232 4.452-.479 6.012l-55.323 50.406c-2.441-7.607-7.522-14.042-14.161-18.221zm-82.068 86.299c-10.087 0-18.616-8.207-18.616-18.615 0-9.814 7.735-18.35 18.321-18.606l.295-.009c10.265 0 18.615 8.351 18.615 18.615 0 10.224-8.31 18.615-18.615 18.615zm106.364 64.433c12.083 0 21.913 9.83 21.913 21.913s-9.83 21.913-21.913 21.913c-12.048 0-21.913-9.798-21.913-21.913 0-12.083 9.83-21.913 21.913-21.913zm-89.381 75.8 57.141-35.924c4.923 8.801 13.346 15.391 23.371 17.873l-44.572 40.29c-9.307-10.718-21.776-18.62-35.94-22.239zm-107.772 176.942 14.842-18.812h150.82l14.843 18.812z"/><path d="m174.751 153.558c-4.143 0-7.5 3.357-7.5 7.5v.293c0 4.143 3.357 7.5 7.5 7.5s7.5-3.357 7.5-7.5v-.293c0-4.143-3.357-7.5-7.5-7.5z"/><path d="m281.115 273.813c4.143 0 7.5-3.357 7.5-7.5v-.293c0-4.143-3.357-7.5-7.5-7.5s-7.5 3.357-7.5 7.5v.293c0 4.142 3.358 7.5 7.5 7.5z"/><path d="m174.214 379.115c-4.143 0-7.5 3.357-7.5 7.5v.293c0 4.143 3.357 7.5 7.5 7.5s7.5-3.357 7.5-7.5v-.293c0-4.143-3.358-7.5-7.5-7.5z"/></svg>