<?xml version="1.0" encoding="iso-8859-1"?>
<!-- Generator: Adobe Illustrator 19.0.0, SVG Export Plug-In . SVG Version: 6.00 Build 0)  -->
<svg version="1.1" id="Capa_1" xmlns="http://www.w3.org/2000/svg" xmlns:xlink="http://www.w3.org/1999/xlink" x="0px" y="0px"
	 viewBox="0 0 512 512" style="enable-background:new 0 0 512 512;" xml:space="preserve">
<path style="fill:#5085D4;" d="M512,256c0,42.268-10.24,82.145-28.382,117.27c-22.367,43.343-56.754,79.469-98.748,103.974
	C347.015,499.336,302.988,512,256,512c-57.945,0-101.667-18.658-128.985-34.756c-20.713-12.2-32.007-22.925-32.913-22.925
	c-2.234-1.981-17.594-13.77-35.188-34.935c-11.747-14.117-22.008-29.573-30.532-46.103C10.272,338.176,0,298.247,0,256
	c0-42.268,10.24-82.145,28.382-117.27c11.42-22.135,25.98-42.373,43.079-60.157C118.039,30.142,183.495,0,256,0
	c72.589,0,138.014,30.163,184.538,78.573c17.109,17.794,31.669,38.054,43.079,60.178C501.77,173.898,512,213.774,512,256z"/>
<g>
	<path style="fill:#DCE6EB;" d="M483.618,94.871V373.27c-22.367,43.343-56.754,79.469-98.748,103.974H127.015
		c-20.713-12.2-32.007-22.925-32.913-22.925c-2.234-1.981-17.594-13.77-35.188-34.935c-11.747-14.117-22.008-29.573-30.532-46.103
		V94.871c0-8.997,7.291-16.298,16.288-16.298h422.66C476.327,78.573,483.618,85.874,483.618,94.871z"/>
	<path style="fill:#DCE6EB;" d="M483.618,162.309V373.27c-14.223,27.561-33.313,52.203-56.122,72.8
		c-13.053,11.789-27.339,22.251-42.626,31.174H127.015c-20.713-12.2-32.007-22.925-32.913-22.925
		c-0.98-0.874-4.488-3.635-9.619-8.249c-6.542-5.9-15.708-14.813-25.569-26.686c-11.747-14.117-22.008-29.573-30.532-46.103V162.309
		H483.618z"/>
</g>
<path style="fill:#FFF5F5;" d="M483.618,162.309V373.27c-14.223,27.561-33.313,52.203-56.122,72.8H84.483
	c-6.542-5.9-15.708-14.813-25.569-26.686c-11.747-14.117-22.008-29.573-30.532-46.103V162.309H483.618z"/>
<g>
	<path style="fill:#B9C3CD;" d="M95.402,37.781v68.456c0,8.821-7.226,16.048-16.048,16.048H78.86
		c-8.821,0-16.048-7.226-16.048-16.048V37.781c0-8.831,7.226-16.048,16.048-16.048h0.495C88.176,21.734,95.402,28.95,95.402,37.781z
		"/>
	<path style="fill:#B9C3CD;" d="M183.849,37.781v68.456c0,8.821-7.226,16.048-16.048,16.048h-0.495
		c-8.822,0-16.048-7.226-16.048-16.048V37.781c0-8.831,7.226-16.048,16.048-16.048h0.495
		C176.623,21.734,183.849,28.95,183.849,37.781z"/>
	<path style="fill:#B9C3CD;" d="M272.295,37.781v68.456c0,8.821-7.226,16.048-16.048,16.048h-0.495
		c-8.821,0-16.048-7.226-16.048-16.048V37.781c0-8.831,7.226-16.048,16.048-16.048h0.495
		C265.069,21.734,272.295,28.95,272.295,37.781z"/>
	<path style="fill:#B9C3CD;" d="M360.742,37.781v68.456c0,8.821-7.226,16.048-16.048,16.048h-0.495
		c-8.821,0-16.048-7.226-16.048-16.048V37.781c0-8.831,7.226-16.048,16.048-16.048h0.495
		C353.516,21.734,360.742,28.95,360.742,37.781z"/>
	<path style="fill:#B9C3CD;" d="M449.188,37.781v68.456c0,8.821-7.226,16.048-16.048,16.048h-0.495
		c-8.821,0-16.048-7.226-16.048-16.048V37.781c0-8.831,7.226-16.048,16.048-16.048h0.495
		C441.962,21.734,449.188,28.95,449.188,37.781z"/>
</g>
<g>
	<path style="fill:#DCE6EB;" d="M95.402,37.781v35.443c0,8.821-7.226,16.048-16.048,16.048H78.86
		c-8.821,0-16.048-7.226-16.048-16.048V37.781c0-8.831,7.226-16.048,16.048-16.048h0.495C88.176,21.734,95.402,28.95,95.402,37.781z
		"/>
	<path style="fill:#DCE6EB;" d="M183.849,37.781v35.443c0,8.821-7.226,16.048-16.048,16.048h-0.495
		c-8.822,0-16.048-7.226-16.048-16.048V37.781c0-8.831,7.226-16.048,16.048-16.048h0.495
		C176.623,21.734,183.849,28.95,183.849,37.781z"/>
	<path style="fill:#DCE6EB;" d="M272.295,37.781v35.443c0,8.821-7.226,16.048-16.048,16.048h-0.495
		c-8.821,0-16.048-7.226-16.048-16.048V37.781c0-8.831,7.226-16.048,16.048-16.048h0.495
		C265.069,21.734,272.295,28.95,272.295,37.781z"/>
	<path style="fill:#DCE6EB;" d="M360.742,37.781v35.443c0,8.821-7.226,16.048-16.048,16.048h-0.495
		c-8.821,0-16.048-7.226-16.048-16.048V37.781c0-8.831,7.226-16.048,16.048-16.048h0.495
		C353.516,21.734,360.742,28.95,360.742,37.781z"/>
	<path style="fill:#DCE6EB;" d="M449.188,37.781v35.443c0,8.821-7.226,16.048-16.048,16.048h-0.495
		c-8.821,0-16.048-7.226-16.048-16.048V37.781c0-8.831,7.226-16.048,16.048-16.048h0.495
		C441.962,21.734,449.188,28.95,449.188,37.781z"/>
</g>
<path style="fill:#FF4682;" d="M272.804,301.032c0,53.615-39.266,98.053-90.605,106.134c-5.489,0.864-11.125,1.317-16.857,1.317
	c-59.346,0-107.451-48.105-107.451-107.451S105.997,193.57,165.343,193.57c5.731,0,11.368,0.453,16.857,1.327
	C233.539,202.968,272.804,247.417,272.804,301.032z"/>
<path style="fill:#FF73A0;" d="M272.804,301.032c0,53.615-39.266,98.053-90.605,106.134c-51.339-8.091-90.594-52.519-90.594-106.134
	s39.255-98.053,90.594-106.134C233.539,202.968,272.804,247.417,272.804,301.032z"/>
<g>
	<path style="fill:#EBE1DC;" d="M145.087,247.46c-19.242,0-34.108,9.037-34.108,33.379v40.667c0,24.341,14.867,33.379,34.108,33.379
		c19.24,0,34.253-9.037,34.253-33.379v-40.667C179.34,256.497,164.327,247.46,145.087,247.46z M160.392,321.505
		c0,11.515-5.831,16.762-15.305,16.762c-9.62,0-15.159-5.247-15.159-16.762v-40.667c0-11.515,5.54-16.763,15.159-16.763
		c9.473,0,15.305,5.248,15.305,16.763V321.505z"/>
	<path style="fill:#EBE1DC;" d="M211.261,247.168c-1.602,0-2.914,0.583-3.934,1.457l-17.2,13.119
		c-2.331,1.457-3.644,4.227-3.644,6.85c0,3.791,2.478,7.579,6.122,7.579c1.021,0,2.334-0.291,3.498-1.312l4.665-4.664v77.835
		c0,3.936,4.665,5.977,9.476,5.977c4.663,0,9.473-2.041,9.473-5.977v-94.743C219.716,249.5,215.197,247.168,211.261,247.168z"/>
</g>
<g>
	<circle style="fill:#FF4682;" cx="312.179" cy="219.105" r="14.386"/>
	<circle style="fill:#FF4682;" cx="354.689" cy="219.105" r="14.386"/>
	<circle style="fill:#FF4682;" cx="397.21" cy="219.105" r="14.386"/>
	<circle style="fill:#FF4682;" cx="439.721" cy="219.105" r="14.386"/>
</g>
<g>
	<circle style="fill:#FF73A0;" cx="312.179" cy="260.067" r="14.386"/>
	<circle style="fill:#FF73A0;" cx="354.689" cy="260.067" r="14.386"/>
	<circle style="fill:#FF73A0;" cx="397.21" cy="260.067" r="14.386"/>
	<circle style="fill:#FF73A0;" cx="439.721" cy="260.067" r="14.386"/>
	<circle style="fill:#FF73A0;" cx="312.179" cy="301.028" r="14.386"/>
	<circle style="fill:#FF73A0;" cx="354.689" cy="301.028" r="14.386"/>
	<circle style="fill:#FF73A0;" cx="397.21" cy="301.028" r="14.386"/>
	<circle style="fill:#FF73A0;" cx="439.721" cy="301.028" r="14.386"/>
	<circle style="fill:#FF73A0;" cx="312.179" cy="341.99" r="14.386"/>
	<circle style="fill:#FF73A0;" cx="354.689" cy="341.99" r="14.386"/>
	<circle style="fill:#FF73A0;" cx="397.21" cy="341.99" r="14.386"/>
	<circle style="fill:#FF73A0;" cx="439.721" cy="341.99" r="14.386"/>
	<circle style="fill:#FF73A0;" cx="312.179" cy="382.952" r="14.386"/>
	<circle style="fill:#FF73A0;" cx="354.689" cy="382.952" r="14.386"/>
	<circle style="fill:#FF73A0;" cx="397.21" cy="382.952" r="14.386"/>
	<circle style="fill:#FF73A0;" cx="439.721" cy="382.952" r="14.386"/>
</g>
<g>
</g>
<g>
</g>
<g>
</g>
<g>
</g>
<g>
</g>
<g>
</g>
<g>
</g>
<g>
</g>
<g>
</g>
<g>
</g>
<g>
</g>
<g>
</g>
<g>
</g>
<g>
</g>
<g>
</g>
</svg>
