<?xml version="1.0" encoding="UTF-8" standalone="no"?>
<svg
   xmlns:dc="http://purl.org/dc/elements/1.1/"
   xmlns:cc="http://creativecommons.org/ns#"
   xmlns:rdf="http://www.w3.org/1999/02/22-rdf-syntax-ns#"
   xmlns:svg="http://www.w3.org/2000/svg"
   xmlns="http://www.w3.org/2000/svg"
   xmlns:sodipodi="http://sodipodi.sourceforge.net/DTD/sodipodi-0.dtd"
   xmlns:inkscape="http://www.inkscape.org/namespaces/inkscape"
   inkscape:version="1.0 (4035a4fb49, 2020-05-01)"
   height="512"
   width="512"
   sodipodi:docname="Home Button.svg"
   xml:space="preserve"
   viewBox="0 0 512.00002 512.00002"
   y="0px"
   x="0px"
   id="Homebutton_1"
   version="1.1"><metadata
   id="metadata113"><rdf:RDF><cc:Work
       rdf:about=""><dc:format>image/svg+xml</dc:format><dc:type
         rdf:resource="http://purl.org/dc/dcmitype/StillImage" /><dc:title></dc:title></cc:Work></rdf:RDF></metadata><defs
   id="defs111" /><sodipodi:namedview
   inkscape:current-layer="Homebutton_1"
   inkscape:window-maximized="0"
   inkscape:window-y="7"
   inkscape:window-x="1894"
   inkscape:cy="148.54047"
   inkscape:cx="401.06427"
   inkscape:zoom="0.70014589"
   showgrid="false"
   id="namedview109"
   inkscape:window-height="1621"
   inkscape:window-width="1711"
   inkscape:pageshadow="2"
   inkscape:pageopacity="0"
   guidetolerance="10"
   gridtolerance="10"
   objecttolerance="10"
   borderopacity="1"
   bordercolor="#666666"
   pagecolor="#ffffff" />
<style
   id="style92"
   type="text/css">
	.st_hb0{fill:#FFCF33;}
	.st_hb1{fill:#00AEEF;}
	.st_hb2{fill:#FFFFFF;}
	.st_hb3{fill:#1F88B4;}
</style>
<circle
   r="256"
   style="stroke-width:0.632255"
   id="circle94"
   cy="256"
   cx="256"
   class="st_hb0" />
<g
   transform="matrix(0.63225489,0,0,0.63225489,-214.33443,-199.16031)"
   id="g106">
	<path
   id="path96"
   d="M 1044.4,622.4 778.3,377.5 c -9.4,-8.7 -21.6,-13.4 -34.4,-13.4 -12.8,0 -25,4.8 -34.4,13.4 l -52.1,47.9 c -8.1,-10 -20.5,-16.3 -34.3,-16.3 h -56.2 c -24.4,0 -44.2,19.8 -44.2,44.2 v 96.1 l -79.3,73 c -15.5,14.3 -20.6,36.2 -12.9,55.9 7.7,19.7 26.3,32.4 47.4,32.4 h 8.9 v 245.7 c 0,27.1 22.1,49.2 49.2,49.2 h 412.4 c 11.8,0 23.3,-4.3 32.5,-12 10.7,-9.1 16.9,-22 16.9,-35.5 V 710.7 h 12.4 c 21.1,0 39.7,-12.7 47.4,-32.4 7.4,-19.6 2.3,-41.6 -13.2,-55.9 z m -34.4,55.2 h -31.3 c -7.8,0 -14.1,6.3 -14.1,14.1 v 266.4 c 0,8 -8.3,14.4 -16.3,14.4 H 535.8 c -8.9,0 -16.2,-7.2 -16.2,-16.2 V 691.7 c 0,-7.8 -6.3,-14.1 -14.1,-14.1 h -27.8 c -16.2,0 -23.9,-19.9 -12,-30.8 l 90,-82.8 V 453.3 c 0,-6.2 5,-11.2 11.2,-11.2 h 56.2 c 6.2,0 11.2,5 11.2,11.2 v 38.3 l 97.6,-89.8 c 3.4,-3.1 7.7,-4.7 12,-4.7 4.3,0 8.6,1.6 12,4.7 l 266.1,245 c 11.9,10.9 4.1,30.8 -12,30.8 z"
   class="st_hb1" />
	<path
   id="path98"
   d="m 1022,646.8 -266.1,-245 c -3.4,-3.1 -7.7,-4.7 -12,-4.7 -4.3,0 -8.6,1.6 -12,4.7 l -97.6,89.8 v -38.3 c 0,-6.2 -5,-11.2 -11.2,-11.2 h -56.2 c -6.2,0 -11.2,5 -11.2,11.2 V 564 l -90,82.8 c -11.9,11 -4.2,30.8 12,30.8 h 27.8 c 7.8,0 14.1,6.3 14.1,14.1 v 264.7 c 0,8.9 7.2,16.2 16.2,16.2 h 412.4 c 8,0 16.3,-6.4 16.3,-14.4 V 691.7 c 0,-7.8 6.3,-14.1 14.1,-14.1 h 31.3 c 16.2,0 24,-19.9 12.1,-30.8 z m -9.6,14 c -0.7,1.7 -2,1.7 -2.5,1.7 h -31.3 c -16.1,0 -29.2,13.1 -29.2,29.2 V 957 c -0.4,0.3 -0.9,0.5 -1.2,0.5 H 535.8 c -0.6,0 -1,-0.5 -1,-1 V 691.7 c 0,-16.1 -13.1,-29.2 -29.2,-29.2 h -27.8 c -0.5,0 -1.8,0 -2.5,-1.7 -0.7,-1.7 0.3,-2.6 0.7,-2.9 l 94.9,-87.3 V 457.3 h 48.3 v 68.8 L 742.1,413 c 0.6,-0.6 1.3,-0.7 1.8,-0.7 0.5,0 1.2,0.1 1.8,0.7 l 266.1,244.9 c 0.3,0.3 1.3,1.2 0.6,2.9 z"
   class="st_hb2" />
	<path
   id="path100"
   d="m 1012.4,660.8 c -0.7,1.7 -2,1.7 -2.5,1.7 h -31.3 c -16.1,0 -29.2,13.1 -29.2,29.2 V 957 c -0.4,0.3 -0.9,0.5 -1.2,0.5 H 535.8 c -0.6,0 -1,-0.5 -1,-1 V 691.7 c 0,-16.1 -13.1,-29.2 -29.2,-29.2 h -27.8 c -0.5,0 -1.8,0 -2.5,-1.7 -0.7,-1.7 0.3,-2.6 0.7,-2.9 l 94.9,-87.3 V 457.3 h 48.3 v 68.8 L 742.1,413 c 0.6,-0.6 1.3,-0.7 1.8,-0.7 0.5,0 1.2,0.1 1.8,0.7 l 266.1,244.9 c 0.3,0.3 1.3,1.2 0.6,2.9 z"
   class="st_hb1" />
	<path
   id="path102"
   d="m 1044.4,622.5 -266.1,-245 c -9.4,-8.7 -21.6,-13.4 -34.4,-13.4 v 33.1 c 4.3,0 8.6,1.6 12,4.7 L 1022,646.8 c 11.9,11 4.2,30.8 -12,30.8 h -31.3 c -7.8,0 -14.1,6.3 -14.1,14.1 v 266.4 c 0,8 -8.4,14.4 -16.3,14.4 H 743.9 v 33.1 h 204.3 c 11.8,0 23.3,-4.3 32.5,-12 10.7,-9.1 16.9,-22 16.9,-35.5 V 710.7 h 12.4 c 21.1,0 39.7,-12.7 47.3,-32.4 7.7,-19.6 2.6,-41.6 -12.9,-55.8 z"
   class="st_hb3" />
	<path
   id="path104"
   d="m 1012.4,660.8 c -0.7,1.7 -2,1.7 -2.5,1.7 h -31.3 c -16.1,0 -29.2,13.1 -29.2,29.2 V 957 c -0.4,0.3 -0.9,0.5 -1.2,0.5 H 743.9 V 412.3 c 0.5,0 1.2,0.1 1.8,0.7 l 266.1,244.9 c 0.3,0.3 1.3,1.2 0.6,2.9 z"
   class="st_hb3" />
</g>
</svg>
