<svg id="flat" height="512" viewBox="0 0 64 64" width="512" xmlns="http://www.w3.org/2000/svg"><path d="m29.197 41.89-.468.485-7.062-7.083.459-.473 13.435-13.435.33-.275 7.015 7.047-.274.299z" fill="#a8bccb"/><path d="m51.824 34.819h-8.485l-7.071-7.071-11.086 11.07 3.547 3.557 6.832-6.849 6.364 6.364h9.899z" fill="#7c8c9a"/><path d="m16.469 37.648-.676.676 9.977 9.821.6-.6 3.53-3.533a1 1 0 0 0 0-1.414l-8.485-8.486a1 1 0 0 0 -1.415 0z" fill="#627687"/><path d="m46.324 42.876v-8.885a2 2 0 0 1 2-2h12.676v12.885h-12.676a2 2 0 0 1 -2-2z" fill="#627687"/><path d="m46.874 7.242-12.02 12.021a1 1 0 0 0 0 1.414l8.485 8.486a1 1 0 0 0 1.414 0l12.021-12.021.288-.345-9.812-9.891z" fill="#ea4747"/><path d="m57.481 17.849-11.314-11.314a2 2 0 0 1 0-2.828 2 2 0 0 1 2.829 0l11.313 11.313a2 2 0 0 1 0 2.829 2 2 0 0 1 -2.828 0z" fill="#627687"/><path d="m46.582 6.434h2v20.001h-2z" fill="#cc3e3e" transform="matrix(.707 -.707 .707 .707 2.315 38.459)"/><path d="m42.339 10.677h2v20h-2z" fill="#cc3e3e" transform="matrix(.707 -.707 .707 .707 -1.927 36.702)"/><path d="m6.98 47.136 9.884 9.916 9.504-9.505-9.899-9.899z" fill="#ea4747"/><path d="m5.63 52.886h4a1 1 0 0 1 1 1v6a0 0 0 0 1 0 0h-6a0 0 0 0 1 0 0v-6a1 1 0 0 1 1-1z" fill="#7c8c9a" transform="matrix(-.707 -.707 .707 -.707 -26.846 101.652)"/><rect fill="#627687" height="4" rx="2" transform="matrix(.707 .707 -.707 .707 40.495 7.231)" width="16" x="3.519" y="50.497"/><g fill="#cc3e3e"><path d="m17.59 41.426h2v8h-2z" transform="matrix(.707 -.707 .707 .707 -26.675 26.448)"/><path d="m12.64 45.133h2v2h-2z" transform="matrix(.707 -.707 .707 .707 -28.63 23.164)"/><path d="m16.883 49.376h2v2h-2z" transform="matrix(.707 -.707 .707 .707 -30.387 27.408)"/></g></svg>