<?xml version="1.0" encoding="iso-8859-1"?>
<!-- Generator: Adobe Illustrator 19.0.0, SVG Export Plug-In . SVG Version: 6.00 Build 0)  -->
<svg version="1.1" id="Capa_1" xmlns="http://www.w3.org/2000/svg" xmlns:xlink="http://www.w3.org/1999/xlink" x="0px" y="0px"
	 viewBox="0 0 512 512" style="enable-background:new 0 0 512 512;" xml:space="preserve">
<style
   type="text/css"
   id="style2">
	.st_mo0{fill:#6D91A9;}
	.st_mo1{clip-path:url(#SVGID_2_);}
	.st_mo2{fill:url(#SVGID_3_);}
	.st_mo3{fill:#FBAC42;}
	.st_mo4{fill:#F15A29;}
	.st_mo5{fill:#EDA33E;}
	.st_mo6{fill:#E25528;}
	.st_mo7{fill:#FFFFFF;}
	.st_mo8{fill:#EFEFF0;}
	.st_mo9{fill:#E3B47A;}
	.st_mo10{fill:url(#SVGID_4_);}
</style>
<circle
   class="st_mo0"
   cx="256"
   cy="256"
   id="circle4"
   r="256" />
<g
   id="g96">
	<defs
   id="defs7">
		<circle
   id="SVGID_1_"
   cx="256"
   cy="256"
   r="256" />
	</defs>
	<clipPath
   id="SVGID_2_">
		<use
   xlink:href="#SVGID_1_"
   style="overflow:visible;"
   id="use9" />
	</clipPath>
	<g
   class="st_mo1"
   clip-path="url(#SVGID_2_)"
   id="g94">
		<linearGradient
   id="SVGID_3_"
   gradientUnits="userSpaceOnUse"
   x1="240.7482"
   y1="459.6501"
   x2="324.7474"
   y2="292.9305">
			<stop
   offset="0.1379"
   style="stop-color:#FFFFFF"
   id="stop12" />
			<stop
   offset="1"
   style="stop-color:#BCBEC0"
   id="stop14" />
		</linearGradient>
		<polygon
   class="st_mo2"
   points="413.4,398.7 193.4,490.6 111.8,433.9 265.6,398.6   "
   id="polygon17" />
		<g
   id="g21">
			<path
   class="st_mo3"
   d="M308.8,286.6c-0.4-11.5,5.5-21.6,14.4-27.3l-5.3-14.7h-52.2c-1.8,0-3.3,1.5-3.3,3.3V300l-14.7,5.3     c-5.6-9-15.8-14.9-27.3-14.4c-15.9,0.6-28.9,13.4-29.6,29.3c-0.8,17.7,13.3,32.3,30.8,32.3c11,0,20.7-5.8,26.1-14.5l14.7,5.3     v52.2c0,1.8,1.5,3.3,3.3,3.3h147.6c1.8,0,3.3-1.5,3.3-3.3V247.9c0-1.8-1.5-3.3-3.3-3.3h-52.2l-5.3,14.7     c8.7,5.5,14.5,15.1,14.5,26.1c0,17.5-14.6,31.6-32.3,30.8C322.2,315.5,309.4,302.5,308.8,286.6z"
   id="path19" />
		</g>
		<g
   id="g25">
			<path
   class="st_mo4"
   d="M304.5,198.4c-11.5,0.4-21.6-5.5-27.3-14.4l-14.7,5.3v52.2c0,1.8,1.5,3.3,3.3,3.3H318l5.3,14.7     c-9,5.6-14.9,15.8-14.4,27.3c0.6,15.9,13.4,28.9,29.3,29.6c17.7,0.8,32.3-13.3,32.3-30.8c0-11-5.8-20.7-14.5-26.1l5.3-14.7h52.2     c1.8,0,3.3-1.5,3.3-3.3V93.8c0-1.8-1.5-3.3-3.3-3.3H265.8c-1.8,0-3.3,1.5-3.3,3.3V146l14.7,5.3c5.5-8.7,15.1-14.5,26.1-14.5     c17.5,0,31.6,14.6,30.8,32.3C333.4,185,320.4,197.9,304.5,198.4z"
   id="path23" />
		</g>
		<g
   id="g29">
			<path
   class="st_mo3"
   d="M216.2,202.7c0.4,11.5-5.5,21.6-14.4,27.3l5.3,14.7h52.2c1.8,0,3.3-1.5,3.3-3.3v-52.2l14.7-5.3     c5.6,9,15.8,14.9,27.3,14.4c15.9-0.6,28.9-13.4,29.6-29.3c0.8-17.7-13.3-32.3-30.8-32.3c-11,0-20.7,5.8-26.1,14.5l-14.7-5.3V93.8     c0-1.8-1.5-3.3-3.3-3.3H111.7c-1.8,0-3.3,1.5-3.3,3.3v147.6c0,1.8,1.5,3.3,3.3,3.3h52.2l5.3-14.7c-8.7-5.5-14.5-15.1-14.5-26.1     c0-17.5,14.6-31.6,32.3-30.8C202.8,173.8,215.7,186.8,216.2,202.7z"
   id="path27" />
		</g>
		<g
   id="g39">
			<path
   class="st_mo5"
   d="M306.7,286.6c0.6,15.9,13.4,28.9,29.3,29.6c0.8,0,1.7,0,2.5,0c-0.1,0-0.2,0-0.3,0     c-15.9-0.7-28.8-13.7-29.3-29.6c-0.4-11.5,5.5-21.6,14.4-27.3l-5.3-14.7h-2.2l5.3,14.7C312.1,264.9,306.2,275.1,306.7,286.6z"
   id="path31" />
			<path
   class="st_mo5"
   d="M245.7,305.3l1.7-0.6c-5.7-8.6-15.6-14.2-26.8-13.8C231.2,291.2,240.4,296.9,245.7,305.3z"
   id="path33" />
			<path
   class="st_mo5"
   d="M245.7,338c-5.3,8.4-14.6,14.1-25.2,14.4c0.4,0,0.8,0,1.2,0c10.7,0,20.2-5.5,25.7-13.8L245.7,338z"
   id="path35" />
			<path
   class="st_mo5"
   d="M413.4,244.6h-2.2c1.8,0,3.3,1.5,3.3,3.3v147.6c0,1.8-1.5,3.3-3.3,3.3h2.2c1.8,0,3.3-1.5,3.3-3.3V247.9     C416.7,246.1,415.2,244.6,413.4,244.6z"
   id="path37" />
		</g>
		<g
   id="g49">
			<path
   class="st_mo6"
   d="M302.3,198.4c-10.6-0.4-19.8-6-25.1-14.4l-1.7,0.6C281.2,193.2,291.1,198.8,302.3,198.4z"
   id="path41" />
			<path
   class="st_mo6"
   d="M275.5,150.6l1.7,0.6c5.3-8.4,14.6-14.1,25.2-14.4c-0.4,0-0.8,0-1.2,0C290.5,136.8,281,142.3,275.5,150.6z"
   id="path43" />
			<path
   class="st_mo6"
   d="M413.4,90.6h-2.2c1.8,0,3.3,1.5,3.3,3.3v147.6c0,1.8-1.5,3.3-3.3,3.3h2.2c1.8,0,3.3-1.5,3.3-3.3V93.8     C416.7,92,415.2,90.6,413.4,90.6z"
   id="path45" />
			<path
   class="st_mo6"
   d="M356,259.4l5.3-14.7h-2.2l-5.3,14.7c8.7,5.5,14.5,15.1,14.5,26.1c0,16.7-13.3,30.3-29.8,30.8     c17.5,0.6,32-13.4,32-30.8C370.4,274.5,364.7,264.8,356,259.4z"
   id="path47" />
		</g>
		<g
   id="g59">
			<path
   class="st_mo5"
   d="M154.6,203.9c0-16.7,13.3-30.3,29.8-30.8c-17.5-0.6-32,13.4-32,30.8c0,11,5.8,20.7,14.5,26.1l-5.3,14.7h2.2     l5.3-14.7C160.4,224.5,154.6,214.9,154.6,203.9z"
   id="path51" />
			<path
   class="st_mo5"
   d="M260.4,93.8V146l14.7,5.3c0.1-0.2,0.3-0.4,0.4-0.6l-13-4.6V93.8c0-1.8-1.5-3.3-3.3-3.3h-2.2     C258.9,90.6,260.4,92,260.4,93.8z"
   id="path53" />
			<path
   class="st_mo5"
   d="M275.1,184l-14.7,5.3v52.2c0,1.8-1.5,3.3-3.3,3.3h2.2c1.8,0,3.3-1.5,3.3-3.3v-52.2l13-4.6     C275.3,184.4,275.2,184.2,275.1,184z"
   id="path55" />
			<path
   class="st_mo5"
   d="M303.3,136.8c-0.3,0-0.6,0-1,0c16.9,0.6,30.4,15,29.6,32.3c-0.7,15.9-13.7,28.8-29.6,29.3c0,0,0,0-0.1,0     c0.7,0,1.5,0,2.2,0c15.9-0.6,28.9-13.4,29.6-29.3C334.9,151.4,320.8,136.8,303.3,136.8z"
   id="path57" />
		</g>
		<g
   id="g63">
			<path
   class="st_mo4"
   d="M212.1,317.9c12.3-0.4,23.1,5.8,29.1,15.4l15.7-5.6V272c0-1.9-1.6-3.5-3.5-3.5h-55.7l-5.6-15.7     c9.6-6,15.9-16.8,15.4-29.1c-0.6-17-14.3-30.9-31.3-31.7c-18.9-0.9-34.5,14.2-34.5,32.9c0,11.8,6.2,22.1,15.4,27.9l-5.6,15.7     H95.8c-1.9,0-3.5,1.6-3.5,3.5v157.6c0,1.9,1.6,3.5,3.5,3.5h157.6c1.9,0,3.5-1.6,3.5-3.5v-55.7l-15.7-5.6     c-5.8,9.3-16.1,15.4-27.9,15.4c-18.7,0-33.7-15.6-32.9-34.5C181.2,332.2,195.1,318.5,212.1,317.9z"
   id="path61" />
		</g>
		<g
   id="g73">
			<path
   class="st_mo6"
   d="M212.1,317.9c0.1,0,0.2,0,0.4,0c-0.7,0-1.4,0-2.2,0c-17,0.6-30.9,14.3-31.7,31.3     c-0.9,18.9,14.2,34.5,32.9,34.5c0.3,0,0.5,0,0.8,0c-18.2-0.6-32.7-15.9-31.9-34.4C181.2,332.2,195.1,318.5,212.1,317.9z"
   id="path65" />
			<path
   class="st_mo6"
   d="M174.3,192c17,0.8,30.7,14.7,31.3,31.7c0.4,12.3-5.8,23.1-15.4,29.1l5.6,15.7h1.8l-5.6-15.7     c9.6-6,15.9-16.8,15.4-29.1c-0.6-17-14.3-30.9-31.3-31.7c-0.8,0-1.6,0-2.5,0C173.9,192,174.1,192,174.3,192z"
   id="path67" />
			<path
   class="st_mo6"
   d="M253.4,268.5h-1.8c1.9,0,3.5,1.6,3.5,3.5v55.7l-14.2,5.1c0.1,0.2,0.2,0.3,0.3,0.5l15.7-5.6V272     C256.9,270,255.3,268.5,253.4,268.5z"
   id="path69" />
			<path
   class="st_mo6"
   d="M240.8,368.7l14.2,5.1v55.7c0,1.9-1.6,3.5-3.5,3.5h1.8c1.9,0,3.5-1.6,3.5-3.5v-55.7l-15.7-5.6     C241,368.4,240.9,368.6,240.8,368.7z"
   id="path71" />
		</g>
		
		<linearGradient
   id="SVGID_4_"
   gradientUnits="userSpaceOnUse"
   x1="76.0025"
   y1="495.0129"
   x2="162.3374"
   y2="323.6576">
			<stop
   offset="0.1379"
   style="stop-color:#FFFFFF"
   id="stop87" />
			<stop
   offset="1"
   style="stop-color:#BCBEC0"
   id="stop89" />
		</linearGradient>
		<polygon
   class="st_mo10"
   points="254.7,433 23.7,525 -58,468.3 95.8,433   "
   id="polygon92" />
	</g>
</g>
</svg>
