<?xml version="1.0" encoding="utf-8"?>
<!-- Generator: Adobe Illustrator 24.1.2, SVG Export Plug-In . SVG Version: 6.00 Build 0)  -->
<svg version="1.1" id="Capa_1" xmlns="http://www.w3.org/2000/svg" xmlns:xlink="http://www.w3.org/1999/xlink" x="0px" y="0px"
	 width="512px" height="512px" viewBox="0 0 512 512" style="enable-background:new 0 0 512 512;" xml:space="preserve">
<style type="text/css">
	.st_mod0{fill:#E4FFD6;}
	.st_mod1{fill:#5BD2F3;}
	.st_mod2{fill:#F0A21A;}
	.st_mod3{fill:#E7552B;}
	.st_mod4{fill:#1B556F;}
</style>
<circle class="st_mod0" cx="256" cy="256" r="256"/>
<g>
	<path class="st_mod1" d="M195.3,174.4c21.1-0.3,38.3,16.7,38.3,37.8c0,10.2-4,19.4-10.6,26.2h57.1v-57.1c6.8,6.5,16,10.6,26.2,10.6
		c21,0,38.1-17.2,37.8-38.3c-0.3-21-18.8-38.3-39.8-37.2c-9.4,0.5-17.8,4.4-24.2,10.5V69.8H134.8c-12.8,0-23.3,10.4-23.3,23.3v145.3
		h57.1c-6.1-6.3-10-14.8-10.5-24.2C157.1,193.2,174.3,174.7,195.3,174.4z"/>
	<path class="st_mod2" d="M365,302.3c-21.1,0.3-38.3-16.7-38.3-37.8c0-10.2,4-19.4,10.6-26.2h-57.1v57.1c-6.8-6.5-16-10.6-26.2-10.6
		c-21,0-38.1,17.2-37.8,38.3c0.3,21,18.8,38.3,39.8,37.2c9.4-0.5,17.8-4.4,24.2-10.5v57.1h145.3c12.8,0,23.3-10.4,23.3-23.3V238.4
		h-57.1c6.1,6.3,10,14.8,10.5,24.2C403.3,283.5,386,302,365,302.3z"/>
	<path class="st_mod3" d="M189.5,348.2c-0.3-21.1,16.7-38.3,37.8-38.3c10.2,0,19.4,4,26.2,10.6v-57.1h-57.1c6.5-6.8,10.6-16,10.6-26.2
		c0-21-17.2-38.1-38.3-37.8c-21,0.3-38.3,18.8-37.2,39.8c0.5,9.4,4.4,17.8,10.5,24.2H84.9v145.3c0,12.8,10.4,23.3,23.3,23.3h145.3
		v-57.1c-6.3,6.1-14.8,10-24.2,10.5C208.3,386.5,189.8,369.2,189.5,348.2z"/>
	<path class="st_mod4" d="M354.4,154.7c-1.8,21-20.4,36.5-41.3,34.5c-10.1-1-18.9-5.9-25-13.1l-5.6,56.8l56.8,5.6
		c-7.2,6.1-12.1,14.9-13.1,25c-2.1,20.9,13.4,39.6,34.5,41.3c20.9,1.8,39.9-14.9,40.9-35.9c0.4-9.4-2.7-18.2-8.1-25.1l56.8,5.6
		l14.2-144.6c1.3-12.8-8.1-24.2-20.9-25.4L298.9,65.1l-5.6,56.8c6.9-5.5,15.7-8.5,25.1-8.1C339.4,114.8,356.1,133.8,354.4,154.7z"/>
</g>
</svg>
