<?xml version="1.0"?>
<svg xmlns="http://www.w3.org/2000/svg" xmlns:xlink="http://www.w3.org/1999/xlink" version="1.1" id="Capa_1" x="0px" y="0px" viewBox="0 0 512 512" style="enable-background:new 0 0 512 512;" xml:space="preserve" width="512px" height="512px" class=""><g><path style="fill:#60DD78" d="M446.001,512H65.999c-8.284,0-15-6.716-15-15V15c0-8.284,6.716-15,15-15H296  c3.978,0,7.793,1.58,10.606,4.394l150.001,150c2.813,2.812,4.394,6.628,4.394,10.606v332.001C461,505.285,454.285,512,446.001,512z" data-original="#59C9FF" class="" data-old_color="#59C9FF"/><path style="fill:#2FC756" d="M456.607,154.393l-150.001-150C303.794,1.58,299.978,0,296,0h-40v512h190c8.284,0,15-6.716,15-15V165  C461,161.021,459.42,157.206,456.607,154.393z" data-original="#4BA9EF" class="active-path" data-old_color="#4BA9EF"/><path style="fill:#FFF35D;" d="M306,241h-35v-35c0-8.284-6.716-15-15-15c-8.284,0-15,6.716-15,15v35h-35c-8.284,0-15,6.716-15,15  c0,8.284,6.716,15,15,15h35v35c0,8.284,6.716,15,15,15c8.284,0,15-6.716,15-15v-35h35c8.284,0,15-6.716,15-15S314.284,241,306,241z" data-original="#FFF35D" class=""/><path style="fill:#FFDC4C" d="M306,241h-35v-35c0-8.284-6.716-15-15-15v130c8.284,0,15-6.716,15-15v-35h35c8.284,0,15-6.716,15-15  S314.284,241,306,241z" data-original="#FFDC4C" class="" data-old_color="#FFDC4C"/></g> </svg>
