<svg id="Office_1" enable-background="new 0 0 500.593 500.593" height="512" viewBox="0 0 500.593 500.593" width="512" xmlns="http://www.w3.org/2000/svg"><path d="m495.297 255.593c0 135.31-109.69 245-245 245s-245-109.69-245-245c0-38.735 8.989-75.37 24.995-107.934 5.056-10.285 19.136-7.607 25.529-17.017 8.114-11.943 8.93-35.689 18.971-45.996 44.503-45.682 106.691-74.052 175.505-74.052 72.019 0 136.781 31.075 181.608 80.547 3.831 4.228-14.484 8.59-10.952 13.079s28.91 9.104 32.127 13.838c26.645 39.21 42.217 86.554 42.217 137.535z" fill="#c0e0ff"/><path d="m250.297 500.593c95.749 0 178.657-54.934 218.959-134.997v-59.289-132c0-7.927-6.427-14.354-14.354-14.354h-90-62.016-24.984-65.016-14.984-72.016-80c-7.927 0-14.354 6.427-14.354 14.354v132 59.681c40.375 79.851 123.171 134.605 218.765 134.605z" fill="#5e5e5e"/><path d="m302.886 159.953h-24.984-65.016-14.984-72.016-8.63v301.393c36.329 23.543 79.286 37.72 125.461 39.123 38.593-1.005 75.255-8.614 108.508-21.571.018-.008.035-.016.052-.024v-318.921z" fill="#333"/><g fill="#fff"><path d="m444.776 249.301h-77.458-54.436-257c-3.831 0-6.937 3.106-6.937 6.938v10.48c0 3.832 3.106 6.938 6.937 6.938h257 54.436 77.458c3.832 0 6.938-3.106 6.938-6.938v-10.48c0-3.833-3.106-6.938-6.938-6.938z"/><path d="m444.776 303.301h-77.458-54.436-257c-3.831 0-6.937 3.106-6.937 6.938v10.48c0 3.832 3.106 6.938 6.937 6.938h257 54.436 77.458c3.832 0 6.938-3.106 6.938-6.938v-10.48c0-3.833-3.106-6.938-6.938-6.938z"/><path d="m444.776 360.301h-77.458-54.436-257c-3.831 0-6.937 3.106-6.937 6.938v10.48c0 3.832 3.106 6.938 6.937 6.938h257 54.436 77.458c3.832 0 6.938-3.106 6.938-6.938v-10.48c0-3.833-3.106-6.938-6.938-6.938z"/><path d="m444.776 195.301h-77.458-54.436-257c-3.831 0-6.937 3.106-6.937 6.938v10.48c0 3.832 3.106 6.938 6.937 6.938h257 54.436 77.458c3.832 0 6.938-3.106 6.938-6.938v-10.48c0-3.833-3.106-6.938-6.938-6.938z"/></g><path d="m117.256 249.301v24.354h195.627 38.394v-24.354h-38.394z" fill="#cecece"/><path d="m117.256 303.301v24.354h195.627 38.394v-24.354h-38.394z" fill="#cecece"/><path d="m117.256 360.301v24.354h195.627 38.394v-24.354h-38.394z" fill="#cecece"/><path d="m351.277 219.655v-24.354h-38.394-195.627v24.354h195.627z" fill="#cecece"/><path d="m336.923 0h-172.722c-7.927 0-14.354 6.426-14.354 14.354v17.717 2.797 444.248c30.653 13.797 64.654 21.478 100.449 21.478 36.002 0 70.189-7.767 100.98-21.714v-446.572-2.618-15.336c.001-7.928-6.425-14.354-14.353-14.354z" fill="#ff3972"/><path d="m211.761 0h-47.56c-7.927 0-14.354 6.426-14.354 14.354v17.717 2.797 444.248c16.589 7.466 34.164 13.123 52.467 16.759v-483.713c0-5.862 4.019-10.772 9.447-12.162z" fill="#cc175d"/><path d="m324.787 39.397h-148.594c-3.831 0-6.937 3.106-6.937 6.937v13.27c0 3.831 3.106 6.937 6.937 6.937h148.594c3.831 0 6.937-3.106 6.937-6.937v-13.27c.001-3.831-3.105-6.937-6.937-6.937z" fill="#fff"/><path d="m169.256 45.472v14.996c0 3.355 2.72 6.075 6.075 6.075h26.984v-27.146h-26.984c-3.355 0-6.075 2.72-6.075 6.075z" fill="#cecece"/><path d="m325.65 99.116h-150.319c-3.355 0-6.075 2.72-6.075 6.075v14.996c0 3.355 2.72 6.075 6.075 6.075h150.319c3.355 0 6.075-2.72 6.075-6.075v-14.996c0-3.355-2.72-6.075-6.075-6.075z" fill="#fff"/><path d="m169.256 105.191v14.996c0 3.355 2.72 6.075 6.075 6.075h26.984v-27.146h-26.984c-3.355 0-6.075 2.72-6.075 6.075z" fill="#cecece"/><path d="m325.65 158.835h-150.319c-3.355 0-6.075 2.72-6.075 6.075v14.996c0 3.355 2.72 6.075 6.075 6.075h150.319c3.355 0 6.075-2.72 6.075-6.075v-14.996c0-3.355-2.72-6.075-6.075-6.075z" fill="#fff"/><path d="m169.256 164.91v14.996c0 3.355 2.72 6.075 6.075 6.075h26.984v-27.145h-26.984c-3.355-.001-6.075 2.719-6.075 6.074z" fill="#cecece"/><path d="m325.65 218.554h-150.319c-3.355 0-6.075 2.72-6.075 6.075v14.996c0 3.355 2.72 6.075 6.075 6.075h150.319c3.355 0 6.075-2.72 6.075-6.075v-14.996c0-3.355-2.72-6.075-6.075-6.075z" fill="#fff"/><path d="m169.256 224.629v14.996c0 3.355 2.72 6.075 6.075 6.075h26.984v-27.145h-26.984c-3.355-.001-6.075 2.719-6.075 6.074z" fill="#cecece"/><path d="m325.65 278.273h-150.319c-3.355 0-6.075 2.72-6.075 6.075v14.996c0 3.355 2.72 6.075 6.075 6.075h150.319c3.355 0 6.075-2.72 6.075-6.075v-14.996c0-3.355-2.72-6.075-6.075-6.075z" fill="#fff"/><path d="m169.256 284.348v14.996c0 3.355 2.72 6.075 6.075 6.075h26.984v-27.145h-26.984c-3.355-.001-6.075 2.719-6.075 6.074z" fill="#cecece"/><path d="m324.787 337.993h-148.594c-3.831 0-6.937 3.106-6.937 6.937v13.27c0 3.831 3.106 6.937 6.937 6.937h148.594c3.831 0 6.937-3.106 6.937-6.937v-13.27c.001-3.831-3.105-6.937-6.937-6.937z" fill="#fff"/><path d="m169.256 344.067v14.996c0 3.355 2.72 6.075 6.075 6.075h26.984v-27.145h-26.984c-3.355 0-6.075 2.719-6.075 6.074z" fill="#cecece"/><path d="m139.297 135.279c0-6.842-5.546-12.387-12.388-12.387h-53.023c-5.279 0-9.558-4.28-9.558-9.558 0-5.279 4.279-9.558 9.558-9.558h19.881c4.857 0 8.794-3.937 8.794-8.794v-1.529c0-4.857-3.937-8.794-8.794-8.794h-18.963c-17.953 18.429-33.027 39.671-44.498 63.008h96.603c6.842-.001 12.388-5.547 12.388-12.388z" fill="#fff"/><path d="m373.155 104.552c-.005 7.398 6.043 13.456 13.442 13.461l66.476.048c-6.434-9.468-13.51-18.462-21.172-26.918l-45.285-.033c-7.398-.005-13.455 6.044-13.461 13.442z" fill="#fff"/></svg>