<svg id="ae472ba2-5121-4baa-9ced-567b2defa869" data-name="Layer 1" xmlns="http://www.w3.org/2000/svg" xmlns:xlink="http://www.w3.org/1999/xlink" viewBox="0 0 514 512"><defs><style>.fd19f537-5d0f-4c3c-a45c-2d1e91acbcc5{fill:none;}.b1732569-2d67-4b9f-a529-2de72c421c23{fill:#fff;}.b199955c-5147-481f-8635-e90c5003af97{clip-path:url(#a85a1c0f-3a33-44b5-a2f7-420461435adf);}.fa1b131b-5a5b-4193-9cc9-40b2ce090f07{fill:#445ea0;}.edeff67d-f320-4d39-9ac1-84dfcae226ba{fill:#2e4c89;}.fa22f00a-e86d-45d6-b705-d1481b745f1e{fill:#293d7c;}.a7b821d3-7415-4632-ac40-9f1686d63cfa{fill:#1a2b63;}.a6f8d741-6f8e-4771-a67c-e7a32a238881{fill:#d9eafc;}.eae11a35-800c-4878-9dfd-07311ac02a89{fill:#c3ddf4;}.bff03a59-c7a8-46a2-8d71-ae6356102b93{fill:#aec1ed;}.ef19fa2e-d83c-4bfb-b71e-bd1596bfea34{fill:#ffaf10;}.e702b96d-ba3a-4497-b9b4-6cf2b5ebe832{fill:#ff9518;}.bc39490c-8ba0-48d7-bda1-5307df00bd99{fill:#5dc1d8;}</style><clipPath id="a85a1c0f-3a33-44b5-a2f7-420461435adf" transform="translate(0.02)"><circle class="fd19f537-5d0f-4c3c-a45c-2d1e91acbcc5" cx="257.98" cy="256" r="256"/></clipPath></defs><circle class="b1732569-2d67-4b9f-a529-2de72c421c23" cx="258" cy="256" r="256"/><g class="b199955c-5147-481f-8635-e90c5003af97"><rect class="fa1b131b-5a5b-4193-9cc9-40b2ce090f07" x="185.74" y="357.58" width="78.71" height="41.23"/><rect class="edeff67d-f320-4d39-9ac1-84dfcae226ba" x="185.74" y="357.58" width="19.84" height="41.23"/><path class="fa22f00a-e86d-45d6-b705-d1481b745f1e" d="M316.85,397.81H127.56a5.11,5.11,0,0,0-5.1,5.1v25.57a5.12,5.12,0,0,0,5.1,5.11H316.85Z" transform="translate(0.02)"/><path class="a7b821d3-7415-4632-ac40-9f1686d63cfa" d="M142.3,428.48V402.91a5.12,5.12,0,0,1,5.1-5.1H127.56a5.11,5.11,0,0,0-5.1,5.1v25.57a5.12,5.12,0,0,0,5.1,5.11H147.4A5.12,5.12,0,0,1,142.3,428.48Z" transform="translate(0.02)"/><path class="fa22f00a-e86d-45d6-b705-d1481b745f1e" d="M445.05,58H5.1A5.11,5.11,0,0,0-.02,63.1V353.48a5.11,5.11,0,0,0,5.1,5.1H316.85V205.82a7,7,0,0,1,7-7h126.3V63.11A5.111,5.111,0,0,0,445.05,58Z" transform="translate(0.02)"/><path class="b1732569-2d67-4b9f-a529-2de72c421c23" d="M22.39,307.56a3.07,3.07,0,0,0,3.07,3.06H316.85V205.82a7,7,0,0,1,7-7H427.76V108.05H22.39Z" transform="translate(0.02)"/><path class="a6f8d741-6f8e-4771-a67c-e7a32a238881" d="M42.24,307.56V108.05H22.39V307.56a3.07,3.07,0,0,0,3.07,3.06H45.3A3.06,3.06,0,0,1,42.24,307.56Z" transform="translate(0.02)"/><circle class="fa1b131b-5a5b-4193-9cc9-40b2ce090f07" cx="225.1" cy="334.51" r="13.77"/><path class="eae11a35-800c-4878-9dfd-07311ac02a89" d="M316.85,222.19H263.43a3,3,0,0,0-3,3v59.64a3,3,0,0,0,3,3h53.42Z" transform="translate(0.02)"/><path class="bff03a59-c7a8-46a2-8d71-ae6356102b93" d="M280.27,284.83V225.19a3,3,0,0,1,3-3H263.43a3,3,0,0,0-3,3v59.64a3,3,0,0,0,3,3h19.84a3,3,0,0,1-3-3Z" transform="translate(0.02)"/><path class="eae11a35-800c-4878-9dfd-07311ac02a89" d="M323.85,198.82h46.62V133.43a5,5,0,0,0-5-5H84.68a5,5,0,0,0-5,5V200a5,5,0,0,0,5,5H316.91A7,7,0,0,1,323.85,198.82Z" transform="translate(0.02)"/><path class="bff03a59-c7a8-46a2-8d71-ae6356102b93" d="M99.52,200V133.43a5,5,0,0,1,5-5H84.68a5,5,0,0,0-5,5V200a5,5,0,0,0,5,5h19.84A5,5,0,0,1,99.52,200Z" transform="translate(0.02)"/><path class="ef19fa2e-d83c-4bfb-b71e-bd1596bfea34" d="M424.7,84H25.46a3.07,3.07,0,0,0-3.07,3.06v22H427.76v-22A3.069,3.069,0,0,0,424.7,84Z" transform="translate(0.02)"/><path class="e702b96d-ba3a-4497-b9b4-6cf2b5ebe832" d="M45.3,84H25.46a3.07,3.07,0,0,0-3.07,3.06v22H42.24v-22A3.069,3.069,0,0,1,45.3,84Z" transform="translate(0.02)"/><path class="bc39490c-8ba0-48d7-bda1-5307df00bd99" d="M171.5,238H87.33a7.5,7.5,0,1,1,0-15H171.5a7.5,7.5,0,0,1,0,15Z" transform="translate(0.02)"/><path class="bc39490c-8ba0-48d7-bda1-5307df00bd99" d="M171.5,262.51H87.33a7.5,7.5,0,1,1,0-15H171.5a7.5,7.5,0,0,1,0,15Z" transform="translate(0.02)"/><path class="bc39490c-8ba0-48d7-bda1-5307df00bd99" d="M171.5,287H87.33a7.5,7.5,0,1,1,0-15H171.5a7.5,7.5,0,0,1,0,15Z" transform="translate(0.02)"/><path class="bc39490c-8ba0-48d7-bda1-5307df00bd99" d="M237.56,238H194.23a7.5,7.5,0,0,1,0-15h43.33a7.5,7.5,0,0,1,0,15Z" transform="translate(0.02)"/><path class="bc39490c-8ba0-48d7-bda1-5307df00bd99" d="M237.56,262.51H194.23a7.5,7.5,0,0,1,0-15h43.33a7.5,7.5,0,0,1,0,15Z" transform="translate(0.02)"/><path class="bc39490c-8ba0-48d7-bda1-5307df00bd99" d="M237.56,287H194.23a7.5,7.5,0,0,1,0-15h43.33a7.5,7.5,0,0,1,0,15Z" transform="translate(0.02)"/><path class="fa1b131b-5a5b-4193-9cc9-40b2ce090f07" d="M503.98,197.82a8,8,0,0,1,8,8V447.59a8,8,0,0,1-8,8H323.85a8,8,0,0,1-8-8V205.82a8,8,0,0,1,8-8Z" transform="translate(0.02)"/><path class="b1732569-2d67-4b9f-a529-2de72c421c23" d="M337.57,424.17a5,5,0,0,1-5-5V218.23a5,5,0,0,1,5-5H490.29a5,5,0,0,1,5,5V419.17a5,5,0,0,1-5,5Z" transform="translate(0.02)"/><path class="a6f8d741-6f8e-4771-a67c-e7a32a238881" d="M352.41,419.17V218.23a5,5,0,0,1,5-5H337.57a5,5,0,0,0-5,5V419.17a5,5,0,0,0,5,5h19.84A5,5,0,0,1,352.41,419.17Z" transform="translate(0.02)"/><path class="fa1b131b-5a5b-4193-9cc9-40b2ce090f07" d="M404.57,444.17a5,5,0,0,1-5-5v-1.94a5,5,0,0,1,5-5h18.72a5,5,0,0,1,5,5v1.94a5,5,0,0,1-5,5Z" transform="translate(0.02)"/><path class="ef19fa2e-d83c-4bfb-b71e-bd1596bfea34" d="M495.29,232.52V218.23a5,5,0,0,0-5-5H337.57a5,5,0,0,0-5,5v14.29Z" transform="translate(0.02)"/><path class="e702b96d-ba3a-4497-b9b4-6cf2b5ebe832" d="M357.41,213.23H337.57a5,5,0,0,0-5,5v14.29h19.84V218.23A5,5,0,0,1,357.41,213.23Z" transform="translate(0.02)"/><path class="bc39490c-8ba0-48d7-bda1-5307df00bd99" d="M447.98,324H379.84a7.5,7.5,0,1,1,0-15h68.14a7.5,7.5,0,0,1,0,15Z" transform="translate(0.02)"/><path class="bc39490c-8ba0-48d7-bda1-5307df00bd99" d="M447.98,347.11H379.84a7.5,7.5,0,0,1,0-15h68.14a7.5,7.5,0,0,1,0,15Z" transform="translate(0.02)"/><path class="bc39490c-8ba0-48d7-bda1-5307df00bd99" d="M447.98,370.23H379.84a7.5,7.5,0,1,1,0-15h68.14a7.5,7.5,0,0,1,0,15Z" transform="translate(0.02)"/><path class="eae11a35-800c-4878-9dfd-07311ac02a89" d="M479.75,291.31a5,5,0,0,1-5,5H353.1a5,5,0,0,1-5-5V250.06a5,5,0,0,1,5-5H474.75a5,5,0,0,1,5,5Z" transform="translate(0.02)"/><path class="bff03a59-c7a8-46a2-8d71-ae6356102b93" d="M367.98,291.31V250.06a5,5,0,0,1,5-5H353.1a5,5,0,0,0-5,5v41.25a5,5,0,0,0,5,5h19.88A5,5,0,0,1,367.98,291.31Z" transform="translate(0.02)"/><path class="eae11a35-800c-4878-9dfd-07311ac02a89" d="M461.76,408.46a5,5,0,0,1-5,5H371.1a5,5,0,0,1-5-5V391.55a5,5,0,0,1,5-5h85.66a5,5,0,0,1,5,5Z" transform="translate(0.02)"/><path class="bff03a59-c7a8-46a2-8d71-ae6356102b93" d="M385.98,408.46V391.55a5,5,0,0,1,5-5H371.1a5,5,0,0,0-5,5v16.91a5,5,0,0,0,5,5h19.88A5,5,0,0,1,385.98,408.46Z" transform="translate(0.02)"/></g></svg>