<svg id="Layer_1" enable-background="new 0 0 512 512" height="512" viewBox="0 0 512 512" width="512" xmlns="http://www.w3.org/2000/svg"><g><path d="m496.42 219.707c-22.039-112.675-121.292-197.705-240.42-197.705s-218.381 85.03-240.42 197.705z" fill="#ffdd40"/><path d="m424.517 126.498h-22.888v62.957h36.476v-49.369c0-7.504-6.084-13.588-13.588-13.588z" fill="#47477f"/><path d="m110.476 126.498h-22.888c-7.504 0-13.588 6.083-13.588 13.588v49.369h36.476z" fill="#47477f"/><path d="m424.517 157.977h-22.889v31.479h36.476v-45.066c.001 7.504-6.083 13.587-13.587 13.587z" fill="#2d2d59"/><path d="m74 144.389v45.066h36.476v-31.479h-22.888c-7.504.001-13.588-6.082-13.588-13.587z" fill="#2d2d59"/><path d="m436.385 0c-6.447 0-13.365 2.131-19.3 5.725-6.96 5.226-11.463 13.547-11.463 22.921v49.993h51.113c4.582 0 8.296-3.714 8.296-8.296v-41.697c-.001-15.821-12.826-28.646-28.646-28.646z" fill="#d3dcfb"/><path d="m436.385 0c-6.447 0-13.365 2.131-19.3 5.725-6.96 5.226-11.463 13.547-11.463 22.921v35.333c0-.469.011-.935.033-1.398.586-12.2 9.359-22.343 21.077-25.789 3.216-.946 6.491-1.458 9.653-1.458 15.82 0 28.645 12.825 28.645 28.645v-35.334c0-15.82-12.825-28.645-28.645-28.645z" fill="#bec8f7"/><g><path d="m407.739 189.456v-160.81c0-15.821 12.825-28.646 28.646-28.646-30.385 0-273.067 0-303.373 0-15.821 0-28.646 12.825-28.646 28.646v160.81z" fill="#e9efff"/></g><path d="m182.197 155.544v-126.898c0-15.821 12.825-28.646 28.645-28.646-38.064 0-68.346 0-77.83 0-15.821 0-28.646 12.825-28.646 28.646v160.81h111.742c-18.729 0-33.911-15.183-33.911-33.912z" fill="#d3dcfb"/><path d="m475.823 219.707v-11.904c0-11.302-9.162-20.465-20.464-20.465h-398.718c-11.302 0-20.465 9.162-20.465 20.465v11.904z" fill="#5f5f9b"/><path d="m201.557 214.926c-10.308-11.313-3.118-21.56.735-25.676.506-.541.69-1.247.589-1.912h-146.24c-11.302 0-20.465 9.162-20.465 20.465v11.904h162.129c.819-.468 1.625-.838 2.367-1.127 1.492-.581 1.963-2.471.885-3.654z" fill="#47477f"/><path d="m42.936 388.012h68.19v-34.931h-84.559c4.553 12.129 10.035 23.803 16.369 34.931z" fill="#746bf9"/><path d="m485.432 353.081h-81.561v34.931h65.194c6.333-11.128 11.815-22.802 16.367-34.931z" fill="#827df9"/><path d="m403.871 462.343c27.405-20.778 50.303-47.185 66.969-77.507h-66.969z" fill="#47477f"/><path d="m111.125 464.576v-79.74h-69.965c17.27 31.419 41.232 58.635 69.965 79.74z" fill="#2d2d59"/><path d="m407.634 353.081h-303.268v106.363c41.712 32.911 94.378 52.556 151.634 52.556s109.922-19.645 151.634-52.557z" fill="#e9efff"/><g><path d="m214.367 353.081h-110.001v106.363c24.617 19.424 53.052 34.222 83.993 43.092-3.853-4.911-6.162-11.083-6.162-17.771v-100.21c0-15.892 13.003-28.895 28.895-28.895h3.276v-2.579z" fill="#d3dcfb"/></g><path d="m484.225 356.256c10.825-27.658 16.773-57.761 16.773-89.255 0-16.926-1.717-33.452-4.985-49.412h-480.027c-3.268 15.96-4.985 32.486-4.985 49.412 0 31.494 5.948 61.597 16.774 89.255h121.26v-24.663c0-4.13 3.361-7.491 7.491-7.491h198.95c4.13 0 7.491 3.361 7.491 7.491v24.663z" fill="#47477f"/><path d="m15.987 217.589c-3.268 15.96-4.986 32.486-4.986 49.412 0 31.494 5.948 61.597 16.774 89.255h121.26v-24.663c0-4.13 3.361-7.491 7.491-7.491h43.513c.007-.934-.555-1.838-1.534-2.211-7.289-2.775-7.417-13.874-7.417-13.874s0-61.833 0-75.333c0-8.849 5.675-12.582 9.586-14.105.514-.2.896-.561 1.146-.99z" fill="#2d2d59"/><path d="m355.475 322.514h-198.95c-5.014 0-9.079 4.065-9.079 9.079v24.663h217.107v-24.663c.001-5.014-4.064-9.079-9.078-9.079z" fill="#5f5f9b"/><path d="m203.677 354.983c-14.092-11.954-8.059-24.128-4.074-29.551.689-.937.547-2.138-.174-2.918h-42.905c-5.014 0-9.079 4.065-9.079 9.079v24.663h56.983c-.101-.481-.351-.934-.751-1.273z" fill="#47477f"/><path d="m473.362 246.171h-60.064c-5.206 0-9.426 4.22-9.426 9.426v62.651c0 5.206 4.22 9.426 9.426 9.426h60.064c5.206 0 9.426-4.22 9.426-9.426v-62.651c0-5.205-4.22-9.426-9.426-9.426z" fill="#5f5f9b"/><path d="m463.263 258.525h-19.88c-4.294 0-7.775 3.481-7.775 7.775v21.041c0 4.294 3.481 7.775 7.775 7.775h19.88c4.294 0 7.775-3.481 7.775-7.775v-21.041c0-4.294-3.481-7.775-7.775-7.775z" fill="#8686bf"/><g><path d="m270.734 294.862h-31.374c-4.385 0-7.939-3.555-7.939-7.939 0-4.385 3.555-7.939 7.939-7.939h31.374c4.385 0 7.939 3.555 7.939 7.939.001 4.385-3.554 7.939-7.939 7.939z" fill="#8686bf"/></g><g><path d="m368.347 262.351h-12.202c-4.385 0-7.939-3.555-7.939-7.939 0-4.385 3.555-7.939 7.939-7.939h12.202c4.385 0 7.939 3.555 7.939 7.939 0 4.385-3.555 7.939-7.939 7.939z" fill="#ff4155"/></g><g><path d="m368.347 295.116h-12.202c-4.385 0-7.939-3.555-7.939-7.939 0-4.385 3.555-7.939 7.939-7.939h12.202c4.385 0 7.939 3.555 7.939 7.939s-3.555 7.939-7.939 7.939z" fill="#42c3fc"/></g><g><path d="m265.493 450.538h-20.891c-4.385 0-7.939-3.555-7.939-7.939 0-4.385 3.555-7.939 7.939-7.939h20.891c4.385 0 7.939 3.555 7.939 7.939.001 4.385-3.554 7.939-7.939 7.939z" fill="#bec8f7"/></g><g><path d="m287.789 478.624h-65.483c-4.385 0-7.939-3.555-7.939-7.939 0-4.385 3.555-7.939 7.939-7.939h65.483c4.385 0 7.939 3.555 7.939 7.939 0 4.385-3.554 7.939-7.939 7.939z" fill="#bec8f7"/></g><g><path d="m330.027 394.366h-149.959c-4.385 0-7.939-3.555-7.939-7.939 0-4.385 3.555-7.939 7.939-7.939h149.959c4.385 0 7.939 3.555 7.939 7.939 0 4.385-3.555 7.939-7.939 7.939z" fill="#bec8f7"/></g><g><path d="m330.027 422.452h-149.959c-4.385 0-7.939-3.555-7.939-7.939s3.555-7.939 7.939-7.939h149.959c4.385 0 7.939 3.555 7.939 7.939s-3.555 7.939-7.939 7.939z" fill="#bec8f7"/></g></g></svg>