<svg id="Layer_1" data-name="Layer 1" xmlns="http://www.w3.org/2000/svg" width="512" height="512" viewBox="0 0 512 512"><defs><style>.cls-1{fill:#fff;}.cls-2{fill:#8dc63f;}.cls-3{fill:#b8e86b;}.cls-4{fill:#f9b233;}.cls-10,.cls-11,.cls-5,.cls-8,.cls-9{fill:none;}.cls-6{fill:#d8b60f;}.cls-7{fill:#ffde17;}.cls-10,.cls-8,.cls-9{stroke:#04311c;stroke-width:8.71px;}.cls-11,.cls-8,.cls-9{stroke-miterlimit:10;}.cls-10,.cls-9{stroke-linecap:round;}.cls-10{stroke-linejoin:bevel;}.cls-11{stroke:#fff;stroke-width:10.88px;}.cls-12{fill:#001689;}</style></defs><circle class="cls-1" cx="256" cy="256" r="256"/><path class="cls-2" d="M390.81,101.87c0,4-4.44,7.92-12.41,11.36-21.37,9.27-68.21,15.71-122.49,15.71-33.47,0-64-2.44-87.62-6.49h0l-.61-.13c70.73-.65,127.41-17.19,127.41-37.52,0-3.13-1.35-6.14-3.88-9C348.54,78.84,390.81,89.37,390.81,101.87Z"/><path class="cls-3" d="M295.05,84.8c0,20.33-56.68,36.87-127.41,37.52h-.09C153,119.8,141.09,116.62,133,113c-7.7-3.35-12-7.14-12-11.14,0-9.75,25.73-18.33,64.29-23.07V63.87h21.38V76.66c15.23-1.22,31.82-1.87,49.18-1.87,12.19,0,24,.35,35.26,1C293.7,78.66,295.05,81.67,295.05,84.8Z"/><path class="cls-4" d="M178.26,289V289l-.79-.13A5.42,5.42,0,0,0,178.26,289Z"/><line class="cls-5" x1="378.4" y1="278.24" x2="378.4" y2="278.2"/><path class="cls-6" d="M378.4,113.23V153c-19,10.36-68.51,17.72-126.62,17.72a574.14,574.14,0,0,1-73.52-4.4V289a5.42,5.42,0,0,1-.79-.08c-3.17-.44-6.22-.92-9.18-1.44h0l-.53-.13h-.08c-5.23-.91-10.14-1.91-14.58-3A117.68,117.68,0,0,1,133,278c-7.7-3.4-12-7.19-12-11.15s4.27-7.75,12-11.14V113c8.06,3.61,19.94,6.79,34.52,9.31h.09l.61.13h0c23.59,4,54.15,6.49,87.62,6.49C310.19,128.94,357,122.5,378.4,113.23Z"/><path class="cls-6" d="M378.4,278.24v35c-21.46,9.23-68.16,15.67-122.31,15.67-29,0-55.85-1.83-77.83-5V443.17c-34.52-4.87-57-12.93-57-22.07,0-4,4.22-7.7,11.79-11.1V278a117.68,117.68,0,0,0,20,6.35c4.44,1.05,9.35,2.05,14.58,3h.08l.53.13h0c3,.52,6,1,9.18,1.44l.79.13c6.09.87,12.53,1.61,19.28,2.26,1.79.18,3.57.35,5.36.48,7.26.61,14.8,1.13,22.63,1.48,3,.13,6.05.26,9.14.35,6.92.22,14,.35,21.24.35,1.7,0,3.4,0,5,0s3.4,0,5.05,0c3.31,0,6.62-.13,9.88-.22,2.74-.09,5.44-.17,8.14-.3.52,0,1-.05,1.53-.05,1.39-.08,2.78-.13,4.17-.21,8.41-.44,16.5-1,24.21-1.79,1.08-.09,2.17-.17,3.22-.3q6.39-.66,12.32-1.44l3.91-.52c1.7-.22,3.36-.48,5-.74l5.57-.92c2.91-.47,5.74-1,8.44-1.56l2.35-.53c1.48-.3,2.88-.6,4.27-1,1-.22,1.91-.44,2.83-.7s1.83-.48,2.74-.74,1.78-.48,2.61-.74,1.7-.48,2.53-.78,1.56-.48,2.35-.74,1.52-.53,2.26-.83a18.6,18.6,0,0,0,2.13-.78C377.14,278.77,377.79,278.5,378.4,278.24Z"/><path class="cls-7" d="M390.81,266.88a5.44,5.44,0,0,1-.13,1.13.14.14,0,0,1-.05.13.63.63,0,0,1,0,.27,4.76,4.76,0,0,1-.44,1.13,2.15,2.15,0,0,1-.17.35,3.08,3.08,0,0,1-.3.47c-.05.09-.09.18-.13.27l-.09,0v.09l0,0h0s0,0,0,.09a13,13,0,0,1-1,1.17,16.37,16.37,0,0,1-1.57,1.39,6.4,6.4,0,0,1-.91.74c-.35.22-.66.48-1.05.7-.7.44-1.44.92-2.26,1.35a26.29,26.29,0,0,1-2.66,1.31l-1.48.65c-.65.26-1.3.57-2,.83a18.6,18.6,0,0,1-2.13.78c-.74.3-1.48.57-2.26.83s-1.53.52-2.35.74-1.66.56-2.53.78-1.7.52-2.61.74-1.83.52-2.74.74-1.87.48-2.83.7c-1.39.35-2.79.65-4.27,1l-2.35.53c-2.7.56-5.53,1.09-8.44,1.56l-5.57.92c-1.61.26-3.27.52-5,.74l-3.91.52q-5.94.78-12.32,1.44c-1.05.13-2.14.21-3.22.3-7.71.79-15.8,1.35-24.21,1.79-1.39.08-2.78.13-4.17.21-.53,0-1,.05-1.53.05-2.7.13-5.4.21-8.14.3-3.26.09-6.57.18-9.88.22-1.65,0-3.35,0-5.05,0s-3.35,0-5,0c-7.22,0-14.32-.13-21.24-.35-3.09-.09-6.14-.22-9.14-.35-7.83-.35-15.37-.87-22.63-1.48-1.79-.13-3.57-.3-5.36-.48-6.75-.65-13.19-1.39-19.28-2.26V166.33a574.14,574.14,0,0,0,73.52,4.4c58.11,0,107.64-7.36,126.62-17.72V255.56c.52.22,1,.44,1.48.66a34.78,34.78,0,0,1,5.14,2.83,8.07,8.07,0,0,1,1.17.82,2.79,2.79,0,0,1,.57.44,12.92,12.92,0,0,1,2.31,2.22c.08.13.17.22.26.35s.26.39.39.56a9.48,9.48,0,0,1,.61,1.14c.09.26.17.52.26.78a1.38,1.38,0,0,1,.09.39A5.44,5.44,0,0,1,390.81,266.88Z"/><path class="cls-7" d="M390.94,421.1c0,14.93-60.38,27-134.85,27-29,0-55.85-1.82-77.83-5V324c22,3.13,48.84,5,77.83,5,54.15,0,100.85-6.44,122.31-15.67V409.7C386.45,413.14,390.94,417,390.94,421.1Z"/><path class="cls-4" d="M379.88,277.55a14.3,14.3,0,0,1-1.48.69c-.61.26-1.26.53-2,.79.66-.26,1.31-.57,2-.83Z"/><path class="cls-8" d="M378.16,409.87c7.71,3.4,12,7.19,12,11.19,0,14.93-60,27.07-134,27.07S122,436,122,421.06c0-3.83,3.92-7.49,11-10.75"/><path class="cls-8" d="M133.05,254.5c-7.09,3.26-11,6.92-11,10.75,0,14.93,60,27.07,134.07,27.07,21.33,0,41.48-1,59.37-2.78"/><path class="cls-8" d="M378.16,254.06c7.71,3.4,12,7.19,12,11.19,0,9.05-22.15,17.11-56.15,22"/><line class="cls-9" x1="378.4" y1="113.23" x2="378.16" y2="254.06"/><line class="cls-9" x1="134.63" y1="113.23" x2="134.39" y2="254.06"/><line class="cls-9" x1="134.63" y1="113.23" x2="134.39" y2="254.06"/><line class="cls-9" x1="134.63" y1="113.23" x2="134.39" y2="254.06"/><line class="cls-9" x1="134.62" y1="276.7" x2="134.4" y2="409.87"/><line class="cls-9" x1="378.13" y1="276.7" x2="377.9" y2="409.87"/><path class="cls-8" d="M185.35,78.8"/><path class="cls-10" d="M184.18,79.49H184c-37.26,4.83-61.94,13.23-61.94,22.85,0,15,60,27.08,134,27.08s134-12.1,134-27.08-60-27.07-134-27.07c-17.28,0-33.74.65-48.93,1.87"/><polyline class="cls-10" points="184.18 79.49 184 79.49 185.35 63.87 206.73 63.87 207.42 77.1 207.16 77.14"/><line class="cls-11" x1="339.23" y1="156.13" x2="339.23" y2="248.01"/><line class="cls-11" x1="339.23" y1="309.19" x2="339.23" y2="405.35"/><path class="cls-12" d="M247.34,262.83H203V240h7.47V190.36H203V167.55h45.62q15.62,0,25.48,1.92a49.76,49.76,0,0,1,18.7,7.88,41.49,41.49,0,0,1,13.7,16.3,47.69,47.69,0,0,1,3.76,10.55,51.87,51.87,0,0,1,1.3,11.78,48.43,48.43,0,0,1-5.27,22.6,40.65,40.65,0,0,1-13.22,15.55A42.66,42.66,0,0,1,276,261.18Q266.72,262.83,247.34,262.83Z"/><path class="cls-1" d="M255,244.24H223.32V230.33h4.46V200.05H223.2V186.14H255v13.91h-4.62v30.28H255Zm36.38,0H261.13V230.33H264l-12.83-16.54L266,200.05h-4.75V186.14h28.8v13.91h-4.54l-11.94,11,14.92,19.25h2.91Z"/></svg>