<?xml version="1.0" encoding="iso-8859-1"?>
<!-- Generator: Adobe Illustrator 19.0.0, SVG Export Plug-In . SVG Version: 6.00 Build 0)  -->
<svg version="1.1" id="Capa_1" xmlns="http://www.w3.org/2000/svg" xmlns:xlink="http://www.w3.org/1999/xlink" x="0px" y="0px"
	 viewBox="0 0 512 512" style="enable-background:new 0 0 512 512;" xml:space="preserve">
<style
   id="style2"
   type="text/css">
	.st_pb0{fill:#A3195B;}
	.st_pb1{fill:#F9B233;}
	.st_pb2{fill:none;stroke:#04311C;stroke-width:2;stroke-miterlimit:10;}
	.st_pb3{fill:#8DC63F;}
	.st_pb4{fill:#B8E86B;}
	.st_pb5{fill:none;}
	.st_pb6{fill:#D8B60F;}
	.st_pb7{fill:#FFDE17;}
	.st_pb8{fill:none;stroke:#04311C;stroke-width:4.8446;stroke-miterlimit:10;}
	.st_pb9{fill:none;stroke:#04311C;stroke-width:4.8446;stroke-linecap:round;stroke-miterlimit:10;}
	.st_pb10{fill:none;stroke:#04311C;stroke-width:4.8446;stroke-linecap:round;stroke-linejoin:bevel;stroke-miterlimit:10;}
	.st_pb11{fill:none;stroke:#FFFFFF;stroke-width:6.0558;stroke-miterlimit:10;}
	.st_pb12{fill:#001689;}
	.st_pb13{fill:#FFFFFF;}
	.st_pb14{display:none;}
	.st_pb15{display:inline;fill:#1D71B8;}
</style>
<g
   transform="matrix(1.7534247,0,0,1.7534247,-182.35616,-94.684932)"
   id="Layer_1">
	<circle
   id="circle4"
   r="146"
   cy="200"
   cx="250"
   class="st_pb0" />
</g>
<g
   transform="matrix(1.7534247,0,0,1.7534247,-182.35616,-94.684932)"
   id="Drawing">
	<path
   id="path7"
   d="m 178.7,204 c 0,0 -0.1,0 0,0 -0.1,0 -0.1,0 0,0 z"
   class="st_pb1" />
	<path
   id="path9"
   d="m 178.6,204 c 0,0 0,0 0,0 0,0 0,0 0,0 z"
   class="st_pb1" />
	<path
   id="path11"
   d="M 111,126.3"
   class="st_pb2" />
	<g
   id="g75">
		<g
   id="g63">
			<path
   id="path13"
   d="m 324.3,114.4 c 0,2.3 -2.5,4.4 -6.9,6.3 -11.9,5.2 -38,8.7 -68.2,8.7 -18.6,0 -35.6,-1.4 -48.8,-3.6 v 0 c -0.1,0 -0.2,0 -0.3,-0.1 39.4,-0.4 70.9,-9.6 70.9,-20.9 0,-1.7 -0.8,-3.4 -2.2,-5 32,1.8 55.5,7.7 55.5,14.6 z"
   class="st_pb3" />
			<path
   id="path15"
   d="m 271,104.9 c 0,11.3 -31.5,20.5 -70.9,20.9 0,0 0,0 0,0 -8.1,-1.4 -14.7,-3.2 -19.2,-5.2 -4.3,-1.9 -6.7,-4 -6.7,-6.2 0,-5.4 14.3,-10.2 35.8,-12.8 v -8.3 h 11.9 v 7.1 c 8.5,-0.7 17.7,-1 27.4,-1 6.8,0 13.4,0.2 19.6,0.5 1.4,1.6 2.1,3.3 2.1,5 z"
   class="st_pb4" />
			<path
   id="path17"
   d="m 206,218.6 v 0 h -0.4 c 0.1,-0.1 0.3,0 0.4,0 z"
   class="st_pb1" />
			<line
   id="line19"
   y2="212.60001"
   x2="317.39999"
   y1="212.60001"
   x1="317.39999"
   class="st_pb5" />
			<path
   id="path21"
   d="m 317.4,120.8 v 22.1 c -10.6,5.8 -38.1,9.9 -70.5,9.9 -15.1,0 -29.1,-0.9 -40.9,-2.4 v 68.3 c -0.1,0 -0.3,0 -0.4,0 -1.8,-0.2 -3.5,-0.5 -5.1,-0.8 v 0 c -0.1,0 -0.2,0 -0.3,-0.1 0,0 0,0 0,0 -2.9,-0.5 -5.6,-1.1 -8.1,-1.6 -4.5,-1.1 -8.3,-2.3 -11.1,-3.5 -4.3,-1.9 -6.7,-4 -6.7,-6.2 0,-2.2 2.4,-4.3 6.7,-6.2 v -79.4 c 4.5,2 11.1,3.8 19.2,5.2 0,0 0,0 0,0 0.1,0 0.2,0 0.3,0.1 v 0 c 13.1,2.3 30.1,3.6 48.8,3.6 30.1,-0.3 56.2,-3.9 68.1,-9 z"
   class="st_pb6" />
			<path
   id="path23"
   d="m 317.4,212.6 v 19.5 c -11.9,5.1 -37.9,8.7 -68.1,8.7 -16.1,0 -31.1,-1 -43.3,-2.8 v 66.3 c -19.2,-2.7 -31.7,-7.2 -31.7,-12.3 0,-2.2 2.3,-4.3 6.6,-6.2 v -73.4 c 2.9,1.3 6.7,2.5 11.1,3.5 2.5,0.6 5.2,1.1 8.1,1.6 0,0 0,0 0,0 0.1,0 0.2,0 0.3,0.1 v 0 c 1.6,0.3 3.3,0.6 5.1,0.8 l 0.4,0.1 c 3.4,0.5 7,0.9 10.7,1.3 1,0.1 2,0.2 3,0.3 4,0.3 8.2,0.6 12.6,0.8 1.7,0.1 3.4,0.1 5.1,0.2 3.9,0.1 7.8,0.2 11.8,0.2 0.9,0 1.9,0 2.8,0 0.9,0 1.9,0 2.8,0 1.8,0 3.7,-0.1 5.5,-0.1 1.5,0 3,-0.1 4.5,-0.2 0.3,0 0.6,0 0.8,0 0.8,0 1.6,-0.1 2.3,-0.1 4.7,-0.2 9.2,-0.6 13.5,-1 0.6,0 1.2,-0.1 1.8,-0.2 2.4,-0.2 4.7,-0.5 6.9,-0.8 0.7,-0.1 1.5,-0.2 2.2,-0.3 0.9,-0.1 1.9,-0.3 2.8,-0.4 1.1,-0.2 2.1,-0.3 3.1,-0.5 1.6,-0.3 3.2,-0.6 4.7,-0.9 0.4,-0.1 0.9,-0.2 1.3,-0.3 0.8,-0.2 1.6,-0.3 2.4,-0.5 0.5,-0.1 1.1,-0.2 1.6,-0.4 0.5,-0.1 1,-0.3 1.5,-0.4 0.5,-0.1 1,-0.3 1.5,-0.4 0.5,-0.1 0.9,-0.3 1.4,-0.4 0.5,-0.1 0.9,-0.3 1.3,-0.4 0.4,-0.1 0.8,-0.3 1.3,-0.5 0.4,-0.1 0.8,-0.3 1.2,-0.4 0.4,-0.2 0.8,-0.4 1.1,-0.5 z"
   class="st_pb6" />
			<path
   id="path25"
   d="m 324.3,206.3 c 0,0.2 0,0.4 -0.1,0.6 0,0 0,0 0,0.1 0,0 0,0.1 0,0.1 0,0.2 -0.1,0.4 -0.2,0.6 0,0 0,0.1 -0.1,0.2 0,0.1 -0.1,0.2 -0.2,0.3 0,0 0,0.1 -0.1,0.1 v 0 c 0,0 0,0 0,0 v 0 0 c 0,0 0,0 0,0 -0.2,0.2 -0.3,0.4 -0.6,0.7 -0.1,0.1 -0.3,0.3 -0.4,0.4 -0.1,0.1 -0.3,0.3 -0.5,0.4 -0.1,0.1 -0.3,0.3 -0.5,0.4 -0.2,0.1 -0.4,0.3 -0.6,0.4 -0.4,0.2 -0.8,0.5 -1.3,0.8 -0.5,0.3 -1,0.5 -1.5,0.7 -0.3,0.1 -0.5,0.2 -0.8,0.4 -0.4,0.1 -0.7,0.3 -1.1,0.5 -0.4,0.2 -0.8,0.3 -1.2,0.4 -0.4,0.2 -0.8,0.3 -1.3,0.5 -0.4,0.1 -0.8,0.3 -1.3,0.4 -0.5,0.2 -0.9,0.3 -1.4,0.4 -0.5,0.1 -0.9,0.3 -1.5,0.4 -0.5,0.1 -1,0.3 -1.5,0.4 -0.5,0.1 -1,0.3 -1.6,0.4 -0.8,0.2 -1.6,0.4 -2.4,0.5 -0.4,0.1 -0.9,0.2 -1.3,0.3 -1.5,0.3 -3.1,0.6 -4.7,0.9 -1,0.2 -2,0.3 -3.1,0.5 -0.9,0.1 -1.8,0.3 -2.8,0.4 -0.7,0.1 -1.5,0.2 -2.2,0.3 -2.2,0.3 -4.5,0.6 -6.9,0.8 -0.6,0.1 -1.2,0.1 -1.8,0.2 -4.3,0.4 -8.8,0.8 -13.5,1 -0.8,0 -1.6,0.1 -2.3,0.1 -0.3,0 -0.6,0 -0.8,0 -1.5,0.1 -3,0.1 -4.5,0.2 -1.8,0 -3.7,0.1 -5.5,0.1 -0.9,0 -1.9,0 -2.8,0 -0.9,0 -1.9,0 -2.8,0 -4,0 -8,-0.1 -11.8,-0.2 -1.7,0 -3.4,-0.1 -5.1,-0.2 -4.4,-0.2 -8.6,-0.5 -12.6,-0.8 -1,-0.1 -2,-0.2 -3,-0.3 -3.8,-0.4 -7.3,-0.8 -10.7,-1.3 v -68.3 c 11.8,1.6 25.8,2.4 40.9,2.4 32.3,0 59.9,-4.1 70.5,-9.9 V 200 c 0.3,0.1 0.6,0.2 0.8,0.4 1.1,0.5 2.1,1 2.9,1.6 0.2,0.1 0.5,0.3 0.7,0.5 0.1,0.1 0.2,0.1 0.3,0.2 0.5,0.4 0.9,0.8 1.3,1.2 0,0.1 0.1,0.1 0.1,0.2 0.1,0.1 0.1,0.2 0.2,0.3 0.1,0.2 0.2,0.4 0.3,0.6 0,0.1 0.1,0.3 0.1,0.4 0,0.1 0,0.1 0,0.2 0.3,0.3 0.3,0.4 0.3,0.7 z"
   class="st_pb7" />
			<path
   id="path27"
   d="m 324.4,292.1 c 0,8.3 -33.6,15 -75,15 -16.1,0 -31.1,-1 -43.3,-2.8 V 238 c 12.2,1.7 27.2,2.8 43.3,2.8 30.1,0 56.1,-3.6 68.1,-8.7 v 53.7 c 4.4,1.9 6.9,4 6.9,6.3 z"
   class="st_pb7" />
			<path
   id="path29"
   d="m 318.2,212.2 c -0.3,0.1 -0.5,0.3 -0.8,0.4 -0.3,0.1 -0.7,0.3 -1.1,0.4 0.4,-0.1 0.7,-0.3 1.1,-0.5 0.3,-0.1 0.5,-0.2 0.8,-0.3 z"
   class="st_pb1" />
			<path
   id="path31"
   d="m 317.3,285.8 c 4.3,1.9 6.7,4 6.7,6.2 0,8.3 -33.4,15.1 -74.6,15.1 -41.2,0 -74.6,-6.8 -74.6,-15.1 0,-2.1 2.2,-4.2 6.1,-6"
   class="st_pb8" />
			<g
   id="g37">
				<path
   id="path33"
   d="m 180.9,199.4 c -3.9,1.8 -6.1,3.9 -6.1,6 0,8.3 33.4,15.1 74.6,15.1 11.9,0 23.1,-0.6 33,-1.6"
   class="st_pb8" />
				<path
   id="path35"
   d="m 317.3,199.1 c 4.3,1.9 6.7,4 6.7,6.2 0,5 -12.3,9.5 -31.2,12.3"
   class="st_pb8" />
			</g>
			<line
   id="line39"
   y2="199.10001"
   x2="317.29999"
   y1="120.8"
   x1="317.39999"
   class="st_pb9" />
			<line
   id="line41"
   y2="199.10001"
   x2="181.60001"
   y1="120.8"
   x1="181.7"
   class="st_pb9" />
			<line
   id="line43"
   y2="199.10001"
   x2="181.60001"
   y1="120.8"
   x1="181.7"
   class="st_pb9" />
			<line
   id="line45"
   y2="199.10001"
   x2="181.60001"
   y1="120.8"
   x1="181.7"
   class="st_pb9" />
			<line
   id="line47"
   y2="285.79999"
   x2="181.60001"
   y1="211.7"
   x1="181.7"
   class="st_pb9" />
			<line
   id="line49"
   y2="285.79999"
   x2="317.10001"
   y1="211.7"
   x1="317.20001"
   class="st_pb9" />
			<path
   id="path51"
   d="M 210,101.6"
   class="st_pb8" />
			<g
   id="g57">
				<path
   id="path53"
   d="m 209.3,102 v 0 c -20.8,2.7 -34.6,7.4 -34.6,12.7 0,8.3 33.4,15.1 74.6,15.1 41.2,0 74.6,-6.7 74.6,-15.1 0,-8.4 -33.4,-15.1 -74.6,-15.1 -9.6,0 -18.8,0.4 -27.2,1"
   class="st_pb10" />
				<polyline
   id="polyline55"
   points="209.3,102 209.2,102 210,93.3 221.9,93.3 222.2,100.7 222.1,100.7     "
   class="st_pb10" />
			</g>
			<line
   id="line59"
   y2="195.8"
   x2="295.60001"
   y1="144.60001"
   x1="295.60001"
   class="st_pb11" />
			<line
   id="line61"
   y2="283.29999"
   x2="295.60001"
   y1="229.8"
   x1="295.60001"
   class="st_pb11" />
		</g>
		<g
   id="g73">
			<g
   id="g67">
				<path
   id="path65"
   d="m 244.5,204 h -24.7 v -12.7 h 4.2 v -27.6 h -4.2 V 151 h 25.4 c 5.8,0 10.5,0.4 14.2,1.1 3.7,0.7 7.2,2.2 10.4,4.4 3.2,2.2 5.8,5.3 7.6,9.1 0.9,1.8 1.6,3.8 2.1,5.9 0.5,2.1 0.7,4.3 0.7,6.6 0,4.6 -1,8.8 -2.9,12.6 -1.9,3.8 -4.4,6.6 -7.4,8.7 -2.9,2 -6.1,3.3 -9.5,3.9 -3.4,0.4 -8.8,0.7 -15.9,0.7 z"
   class="st_pb12" />
			</g>
			<g
   id="g71">
				<path
   id="path69"
   d="M 248.7,193.7 H 231.1 V 186 h 2.5 V 169.1 H 231 v -7.7 h 17.7 v 7.7 h -2.6 V 186 h 2.6 z m 20.3,0 H 252.2 V 186 h 1.6 l -7.1,-9.2 8.3,-7.6 h -2.6 v -7.7 h 16 v 7.7 h -2.5 l -6.6,6.1 8.3,10.7 h 1.6 v 7.7 z"
   class="st_pb13" />
			</g>
		</g>
	</g>
</g>
<g
   class="st_pb14"
   id="Layer_2">
	<circle
   id="circle78"
   r="146"
   cy="200"
   cx="250"
   class="st_pb15" />
</g>
</svg>
