<svg id="Layer_1" enable-background="new 0 0 512 512" height="512" viewBox="0 0 512 512" width="512" xmlns="http://www.w3.org/2000/svg"><g><path d="m256 11.001c-135.309 0-244.998 109.69-244.998 244.999 0 107.34 69.034 198.545 165.122 231.669h159.753c96.088-33.124 165.122-124.329 165.122-231.669 0-135.309-109.69-244.999-244.999-244.999z" fill="#746bf9"/><path d="m491.868 317.304c-3.208 0-6.245-1.92-7.514-5.079l-59.569-148.218c-1.667-4.149.344-8.863 4.493-10.531 4.151-1.664 8.864.345 10.531 4.493l59.569 148.218c1.667 4.149-.344 8.863-4.493 10.531-.99.397-2.011.586-3.017.586z" fill="#bec8f7"/><path d="m439.809 157.969c-1.667-4.148-6.38-6.157-10.531-4.493-4.148 1.668-6.16 6.382-4.493 10.531l22.688 56.453c2.181-13.275 14.607-7.073 14.608-7.072z" fill="#a2b6f4"/><g><path d="m139.274 317.304c-3.208 0-6.245-1.92-7.514-5.079l-59.568-148.218c-1.667-4.149.344-8.863 4.493-10.531 4.15-1.664 8.864.345 10.531 4.493l59.568 148.218c1.667 4.149-.344 8.863-4.493 10.531-.99.397-2.012.586-3.017.586z" fill="#bec8f7"/><path d="m87.215 157.969c-1.667-4.148-6.38-6.157-10.531-4.493-4.148 1.668-6.16 6.382-4.493 10.531l22.688 56.453c2.181-13.275 14.607-7.073 14.608-7.072z" fill="#a2b6f4"/></g><g><path d="m285.074 354.113-16.23-229.497c-3.872 1.917-8.231 3-12.844 3-4.614 0-8.972-1.083-12.844-3l-16.23 229.497c-1.403 11.602 4.156 22.277 13.204 28.128.114-.01.224-.039.34-.039h31.061c.115 0 .225.029.339.039 9.049-5.851 14.608-16.526 13.204-28.128z" fill="#ffb332"/></g><g><path d="m285.074 354.113-16.23-229.497c-3.872 1.917-8.231 3-12.844 3-4.614 0-8.972-1.083-12.844-3l-16.23 229.497c-1.403 11.602 4.156 22.277 13.204 28.128.114-.01.224-.039.34-.039h31.061c.115 0 .225.029.339.039 9.049-5.851 14.608-16.526 13.204-28.128z" fill="#ffb332"/></g><g><path d="m285.074 354.113-5.091-71.985c-4.252 8.976-13.391 15.186-23.983 15.186s-19.732-6.21-23.983-15.186l-5.09 71.985c-1.403 11.602 4.156 22.277 13.204 28.128.114-.01.224-.039.34-.039h31.061c.115 0 .225.029.339.039 9.048-5.851 14.607-16.526 13.203-28.128z" fill="#ff9100"/></g><g><g><path d="m272.237 174.648h-32.474c-4.471 0-8.096-3.624-8.096-8.096 0-4.471 3.625-8.096 8.096-8.096h32.474c4.471 0 8.096 3.624 8.096 8.096s-3.625 8.096-8.096 8.096z" fill="#fceca9"/></g></g><path d="m251.334 166.552c0-4.471 3.624-8.096 8.096-8.096h-19.667c-4.471 0-8.096 3.625-8.096 8.096 0 4.472 3.624 8.096 8.096 8.096h19.667c-4.471 0-8.096-3.624-8.096-8.096z" fill="#ffdd40"/><g><path d="m432.184 126.187c-9.176 0-17.323-5.605-20.635-14.066h-14.808c-4.471 0-8.096-3.624-8.096-8.096s3.625-8.096 8.096-8.096h16.087c6.211 0 11.71 4.008 13.685 9.973.81 2.449 3.089 4.093 5.672 4.093 3.292 0 5.971-2.679 5.971-5.971 0-4.472 3.625-8.096 8.096-8.096s8.096 3.624 8.096 8.096c-.002 12.222-9.944 22.163-22.164 22.163z" fill="#e9efff"/></g><g><path d="m432.297 144.951c-4.471 0-8.096-3.624-8.096-8.096v-25.797c0-4.472 3.625-8.096 8.096-8.096s8.096 3.624 8.096 8.096v25.797c0 4.472-3.625 8.096-8.096 8.096z" fill="#ffb332"/></g><g><path d="m432.297 175.083c-12.771 0-23.162-10.391-23.162-23.162s10.391-23.162 23.162-23.162c12.772 0 23.162 10.391 23.162 23.162s-10.39 23.162-23.162 23.162zm0-30.132c-3.843 0-6.97 3.127-6.97 6.97s3.127 6.97 6.97 6.97 6.971-3.127 6.971-6.97-3.127-6.97-6.971-6.97z" fill="#ffdd40"/></g><g><path d="m372.726 317.304c-1.005 0-2.026-.189-3.016-.586-4.149-1.668-6.16-6.382-4.493-10.531l59.568-148.218c1.668-4.15 6.381-6.156 10.531-4.493 4.149 1.668 6.16 6.382 4.493 10.531l-59.568 148.218c-1.27 3.159-4.307 5.079-7.515 5.079z" fill="#e9efff"/></g><path d="m498.02 336.132h-131.445c-1.491 0-2.925-.239-4.273-.671 0 22.174 18.143 40.317 40.317 40.317h59.357c22.174 0 40.317-18.143 40.317-40.317-1.348.432-2.782.671-4.273.671z" fill="#ffb332"/><g><path d="m433.803 372.873c-14.668-5.924-18.803-24.811-8.415-36.742h-58.814c-1.491 0-2.925-.238-4.272-.671 0 22.174 18.142 40.317 40.317 40.317h46.164c-5.287.001-10.343-1.032-14.98-2.904z" fill="#ff9100"/></g><g><path d="m228.569 99.666c0 5.278 1.502 10.21 4.096 14.399h-107.4c-5.526 0-10.005-4.48-10.005-10.006 0-5.17 3.939-9.489 9.088-9.963l109.122-10.051c-3.086 4.437-4.901 9.82-4.901 15.621z" fill="#ff9100"/></g><g><path d="m386.736 114.065h-107.4c2.594-4.188 4.096-9.121 4.096-14.399 0-5.801-1.815-11.184-4.901-15.621l109.122 10.051c5.149.474 9.088 4.793 9.088 9.963 0 5.527-4.48 10.006-10.005 10.006z" fill="#ffb332"/></g><path d="m318.004 114.065c-4.99-2.039-8.47-6.99-8.33-12.722.006-.225.008-.451.008-.677 0-.058 0-.116 0-.174-.037-5.852 3.54-10.816 8.576-12.788l-39.726-3.659c3.085 4.436 4.901 9.819 4.901 15.621 0 5.278-1.502 10.21-4.096 14.399z" fill="#ff9100"/><g><path d="m79.816 126.187c-12.221 0-22.163-9.942-22.163-22.162 0-4.472 3.625-8.096 8.096-8.096s8.096 3.624 8.096 8.096c0 3.292 2.678 5.971 5.971 5.971 2.583 0 4.862-1.645 5.671-4.091 1.974-5.966 7.474-9.975 13.686-9.975h16.087c4.471 0 8.096 3.624 8.096 8.096s-3.625 8.096-8.096 8.096h-14.808c-3.313 8.461-11.459 14.065-20.636 14.065z" fill="#e9efff"/></g><g><path d="m79.703 144.951c-4.471 0-8.096-3.624-8.096-8.096v-25.797c0-4.472 3.625-8.096 8.096-8.096s8.096 3.624 8.096 8.096v25.797c0 4.472-3.625 8.096-8.096 8.096z" fill="#ffb332"/></g><g><path d="m79.703 175.083c-12.771 0-23.162-10.391-23.162-23.162s10.391-23.162 23.162-23.162 23.162 10.391 23.162 23.162c.001 12.771-10.39 23.162-23.162 23.162zm0-30.132c-3.843 0-6.97 3.127-6.97 6.97s3.127 6.97 6.97 6.97 6.97-3.127 6.97-6.97c.001-3.843-3.126-6.97-6.97-6.97z" fill="#ffdd40"/></g><g><path d="m20.132 317.304c-1.005 0-2.027-.189-3.016-.586-4.149-1.668-6.16-6.382-4.493-10.531l59.569-148.218c1.668-4.15 6.383-6.156 10.531-4.493 4.149 1.668 6.16 6.382 4.493 10.531l-59.57 148.218c-1.269 3.159-4.306 5.079-7.514 5.079z" fill="#e9efff"/></g><g><path d="m256 71.717c6.194 0 11.93 1.949 16.641 5.259l-2.536-31.351c-.585-7.233-6.71-12.614-13.966-12.58-.047 0-.092 0-.138 0s-.092 0-.139 0c-7.256-.034-13.381 5.347-13.966 12.58l-2.536 31.351c4.709-3.31 10.446-5.259 16.64-5.259z" fill="#ffb332"/></g><path d="m270.428 49.617c-1.752 6.099-7.45 10.56-14.242 10.517-.062 0-.124 0-.186 0s-.123 0-.185 0c-6.793.042-12.49-4.419-14.242-10.517l-2.214 27.359c4.71-3.311 10.447-5.26 16.641-5.26 6.195 0 11.93 1.949 16.641 5.26z" fill="#ff9100"/><g><path d="m256 128.652c-16.008 0-28.985-12.977-28.985-28.985s12.977-28.985 28.985-28.985c16.009 0 28.986 12.977 28.986 28.985s-12.977 28.985-28.986 28.985z" fill="#ffdd40"/></g><g><path d="m262.5 106.389c-7.835 0-14.187-6.352-14.187-14.187s6.352-14.187 14.187-14.187c7.836 0 14.187 6.352 14.187 14.187s-6.351 14.187-14.187 14.187z" fill="#fceca9"/></g><g><path d="m498.02 309.206h-131.445c-7.721 0-13.981 6.259-13.981 13.981s6.259 13.981 13.981 13.981h131.445c7.721 0 13.981-6.259 13.981-13.981-.001-7.722-6.26-13.981-13.981-13.981z" fill="#ffdd40"/></g><path d="m412.094 323.187c0-7.722 6.259-13.981 13.98-13.981h-59.5c-7.721 0-13.98 6.259-13.98 13.981 0 7.721 6.259 13.98 13.98 13.98h59.5c-7.72 0-13.98-6.259-13.98-13.98z" fill="#ffb332"/><path d="m325.377 485.339c-3.953 0-7.887-.699-11.567-2.142-29.819-11.689-35.461-44.283-35.461-44.283h-22.349-22.349s-5.642 32.594-35.461 44.283c-3.68 1.442-7.614 2.142-11.567 2.142-3.745 0-7.302.839-10.5 2.33 25.038 8.631 51.907 13.33 79.876 13.33 27.97 0 54.839-4.699 79.877-13.33-3.197-1.491-6.753-2.33-10.499-2.33z" fill="#ffb332"/><path d="m263.912 457.96c8.661-.995 14.85-3.498 18.833-5.694-3.385-7.565-4.395-13.352-4.395-13.352h-22.35-22.349s-5.642 32.594-35.46 44.283c-3.68 1.442-7.614 2.142-11.567 2.142-3.745 0-7.301.839-10.499 2.33 16.246 5.601 33.267 9.533 50.855 11.613 15.416-8.667 23.205-24.081 26.665-33.304 1.646-4.392 5.607-7.483 10.267-8.018z" fill="#ff9100"/><path d="m275.366 383.548c-1.135-1.526-2.959-2.381-4.861-2.381h-29.01c-1.901 0-3.726.856-4.861 2.382-5.723 7.698-9.315 18.758-9.315 31.054 0 8.371 1.667 16.167 4.535 22.723.976 2.231 3.193 3.66 5.628 3.66h37.035c2.435 0 4.652-1.429 5.628-3.66 2.869-6.555 4.535-14.352 4.535-22.723.001-12.297-3.59-23.356-9.314-31.055z" fill="#ffb332"/><path d="m145.426 336.132h-131.445c-1.491 0-2.925-.239-4.273-.671 0 22.174 18.142 40.317 40.317 40.317h59.357c22.174 0 40.317-18.143 40.317-40.317-1.348.432-2.782.671-4.273.671z" fill="#ffb332"/><g><path d="m81.209 372.873c-14.667-5.924-18.803-24.811-8.415-36.742h-58.813c-1.491 0-2.925-.238-4.273-.671 0 22.174 18.142 40.317 40.317 40.317h46.164c-5.287.001-10.344-1.032-14.98-2.904z" fill="#ff9100"/></g><g><path d="m145.425 309.206h-131.444c-7.722 0-13.981 6.259-13.981 13.981s6.259 13.981 13.981 13.981h131.445c7.721 0 13.981-6.259 13.981-13.981-.001-7.722-6.26-13.981-13.982-13.981z" fill="#ffdd40"/></g><path d="m59.5 323.187c0-7.722 6.259-13.981 13.98-13.981h-59.5c-7.72 0-13.98 6.259-13.98 13.981 0 7.721 6.259 13.98 13.98 13.98h59.5c-7.72 0-13.98-6.259-13.98-13.98z" fill="#ffb332"/><ellipse cx="266.12" cy="411.076" fill="#ffdd40" rx="10.12" ry="18.125"/></g></svg>