<?xml version="1.0" encoding="UTF-8" standalone="no"?>
<svg
   xmlns:dc="http://purl.org/dc/elements/1.1/"
   xmlns:cc="http://creativecommons.org/ns#"
   xmlns:rdf="http://www.w3.org/1999/02/22-rdf-syntax-ns#"
   xmlns:svg="http://www.w3.org/2000/svg"
   xmlns="http://www.w3.org/2000/svg"
   xmlns:sodipodi="http://sodipodi.sourceforge.net/DTD/sodipodi-0.dtd"
   xmlns:inkscape="http://www.inkscape.org/namespaces/inkscape"
   inkscape:version="1.0 (4035a4fb49, 2020-05-01)"
   height="512"
   width="512"
   sodipodi:docname="Secure Lock.svg"
   xml:space="preserve"
   viewBox="0 0 512 512"
   y="0px"
   x="0px"
   id="Layer_1"
   version="1.1"><metadata
   id="metadata27"><rdf:RDF><cc:Work
       rdf:about=""><dc:format>image/svg+xml</dc:format><dc:type
         rdf:resource="http://purl.org/dc/dcmitype/StillImage" /><dc:title></dc:title></cc:Work></rdf:RDF></metadata><defs
   id="defs25" /><sodipodi:namedview
   inkscape:current-layer="Layer_1"
   inkscape:window-maximized="0"
   inkscape:window-y="0"
   inkscape:window-x="0"
   inkscape:cy="600"
   inkscape:cx="600"
   inkscape:zoom="0.84"
   showgrid="false"
   id="namedview23"
   inkscape:window-height="1448"
   inkscape:window-width="1873"
   inkscape:pageshadow="2"
   inkscape:pageopacity="0"
   guidetolerance="10"
   gridtolerance="10"
   objecttolerance="10"
   borderopacity="1"
   bordercolor="#666666"
   pagecolor="#ffffff" />
<style
   id="style2"
   type="text/css">
	.st_sl0{fill:#E05B49;}
	.st_sl1{fill:#BD3E25;}
	.st_sl2{fill:#EBEDEF;}
	.st_sl3{fill:#BCC3C7;}
	.st_sl4{fill:#2C414F;}
	.st_sl5{fill:#EFC84A;}
	.st_sl6{fill:#D1933E;}
</style>
<g
   transform="matrix(0.512,0,0,0.512,-51.2,-51.2)"
   id="g20">
	<circle
   id="circle4"
   r="500"
   cy="600"
   cx="600"
   class="st_sl0" />
	<path
   id="path6"
   d="M 1091.4,692.9 767.6,369.1 C 729,327.7 669.4,300.7 602.3,300 485.2,298.9 389.1,378.4 388.2,477.2 l -0.4,102.6 h -27 v 275.1 c 0,15 7.3,28.2 18.5,36.4 l 208.5,208.5 c 4,0.1 8.1,0.1 12.1,0.1 244.5,0.1 448,-175.3 491.5,-407 z"
   class="st_sl1" />
	<g
   id="g18">
		<path
   id="path8"
   d="m 448.3,477.8 c 0.6,-65.6 69.5,-118.4 153.5,-117.6 84,0.9 151.8,54.9 151.1,120.6 l -0.6,155 h 60.1 L 813,481.3 C 813.9,382.5 719.4,301.2 602.3,300 485.2,298.9 389.1,378.4 388.2,477.2 l -0.6,158.6 h 60.1 z"
   class="st_sl2" />
		<path
   id="path10"
   d="m 601.8,360.1 c 84,0.9 151.8,54.9 151.1,120.6 l -0.6,155 h 60.1 L 813,481.2 c 0.9,-98.8 -93.6,-180.1 -210.7,-181.3 -0.7,0 -1.3,0 -2,0 V 360 c 0.6,0.1 1,0.1 1.5,0.1 z"
   class="st_sl3" />
		<path
   id="path12"
   d="M 628.8,726.7 646.9,844 h -93.8 l 19.5,-116.4 c -13.5,-8.9 -22.5,-24.3 -22.5,-41.7 0,-27.7 22.4,-50.1 50,-50.1 27.6,0 50,22.4 50,50.1 -0.1,16.9 -8.5,31.7 -21.3,40.8 z"
   class="st_sl4" />
		<path
   id="path14"
   d="m 839.2,579.8 v 275.1 c 0,24.9 -20.2,45.1 -45.1,45.1 H 405.9 C 381,900 360.8,879.8 360.8,854.9 V 579.8 Z M 646.9,844 628.8,726.8 c 12.9,-9.1 21.2,-23.9 21.2,-40.9 0,-27.7 -22.4,-50.1 -50,-50.1 -27.6,0 -50,22.4 -50,50.1 0,17.4 9,32.8 22.5,41.7 L 553.1,844 Z"
   class="st_sl5" />
		<path
   id="path16"
   d="m 812.5,579.8 h -60.1 -152 v 56 c 27.4,0.2 49.6,22.5 49.6,50.1 0,16.9 -8.4,31.8 -21.2,40.9 L 646.9,844 h -46.5 v 56 h 193.7 c 24.9,0 45.1,-20.2 45.1,-45.1 V 579.8 Z"
   class="st_sl6" />
	</g>
</g>
</svg>
