<svg id="Layer_1" enable-background="new 0 0 512 512" height="512" viewBox="0 0 512 512" width="512" xmlns="http://www.w3.org/2000/svg"><g><path d="m383.331 476.35c70.558-43.006 117.671-120.676 117.671-209.352 0-135.311-109.691-245.002-245.002-245.002s-245.002 109.691-245.002 245.002c0 36.812 8.134 71.718 22.678 103.045z" fill="#73c3f9"/><path d="m373.675 0h-192.577c-1.288 0-2.572.04-3.852.108-14.491 7.939-27.718 27.312-27.718 58.871v48.245c0 5.057-4.114 9.171-9.17 9.171h-48.247c-39.265 0-54.405 19.902-58.88 27.833-.064 1.242-.1 2.488-.1 3.737v220.912c38.669 84.451 123.913 143.123 222.869 143.123 47.089 0 91.068-13.296 128.408-36.322v-103.709c-1.352 0-2.705-.239-3.992-.716-54.825-20.335-91-72.97-91-132.081v-49.702c0-1.604 1.11-2.987 2.699-3.363 23.688-5.608 26.085-25.125 26.016-33.255-.012-1.465.914-2.777 2.305-3.265 20.626-7.238 42.299-10.856 63.972-10.856v-127.997c0-5.928-4.805-10.734-10.733-10.734z" fill="#e9efff"/><path d="m111.112 146.4c0-24.1 29.245-28.441 29.245-28.441l-1.219-1.563h-47.027c-39.265 0-54.405 19.902-58.88 27.833-.064 1.242-.1 2.488-.1 3.737v220.912c17.484 38.184 44.491 71.096 77.98 95.7.001-87.006.001-299.068.001-318.178z" fill="#d3dcfb"/><path d="m477.142 184.926c-22.601-5.351-24.901-23.936-24.836-31.749.018-2.139-1.333-4.048-3.352-4.757-41.782-14.66-87.31-14.66-129.092 0-2.019.708-3.37 2.617-3.352 4.757.066 7.814-2.234 26.398-24.835 31.749-2.278.54-3.904 2.547-3.904 4.888v49.745c0 59.936 36.788 113.146 92.099 133.661 2.931 1.087 6.146 1.087 9.077 0 55.278-20.504 92.1-73.694 92.1-133.661v-49.745c-.001-2.341-1.627-4.348-3.905-4.888z" fill="#49d88b"/><path d="m448.807 321.365c-.536-1.864-2.234-3.146-4.172-3.229-8.85-.382-11.764-6-12.718-9.918-.51-2.097-2.453-3.51-4.608-3.39-30.28 1.698-35.963-22.796-36.999-30.465-.214-1.588-.793-3.096-1.692-4.422l-18.998-28.01c0-.99-.548-1.891-1.411-2.377-31.131-17.54-28.292-50.34-25.946-62.647.465-2.438-1.121-4.784-3.557-5.256-10.034-1.947-13.11-10.058-14.03-14.131-.32-1.418-1.353-2.53-2.693-3.096-2.375-1.003-3.784-2.491-4.591-4.113-.568.824-.892 1.816-.883 2.866.066 7.814-2.234 26.398-24.835 31.749-2.278.54-3.904 2.547-3.904 4.888v49.745c0 59.937 36.788 113.146 92.099 133.661 2.931 1.087 6.146 1.087 9.077 0 25.519-9.465 47.092-25.908 62.937-46.758-1.687-1.445-2.593-3.419-3.076-5.097z" fill="#38c674"/><g><path d="m377.151 380.555c-58.802-21.81-97.202-78.19-97.202-140.995v-49.745c0-5.975 4.08-11.115 9.923-12.5 15.69-3.714 18.893-15.141 18.817-24.072-.046-5.483 3.405-10.387 8.586-12.204 43.291-15.189 90.976-15.19 134.269.001 5.18 1.816 8.631 6.721 8.583 12.204-.075 8.93 3.129 20.357 18.816 24.071h.001c5.843 1.384 9.923 6.524 9.923 12.5v49.745c0 63.272-38.813 119.336-97.201 140.995-4.679 1.734-9.833 1.736-14.515 0zm-81.559-188.564v47.569c0 55.796 33.903 106.634 86.998 126.327 1.171.436 2.464.436 3.638 0 52.213-19.368 86.997-69.566 86.997-126.327v-47.569c-24.726-6.933-28.335-27.825-28.705-36.826-38.845-13.171-81.38-13.171-120.223 0-.37 9.001-3.977 29.893-28.705 36.826z" fill="#73f9a9"/></g><path d="m448.807 321.365c-.238-.827-.713-1.53-1.328-2.074-15.115 20.851-36.162 37.29-61.251 46.596-1.174.436-2.467.436-3.638 0-53.095-19.693-86.998-70.531-86.998-126.327v-47.569c23.677-6.638 27.987-26.067 28.636-35.609-.496-.871-1.289-1.555-2.244-1.958-6.499-2.743-5.815-9.11-5.132-11.961.103-.429.132-.867.11-1.301-5.005 1.903-8.319 6.71-8.274 12.081.075 8.931-3.128 20.358-18.817 24.072-5.842 1.384-9.923 6.524-9.923 12.5v49.745c0 62.805 38.4 119.185 97.202 140.995 4.682 1.736 9.836 1.735 14.516 0 27.724-10.284 51.021-28.335 67.859-51.221-.692-.493-1.528-.807-2.437-.866-5.323-.344-7.439-4.178-8.281-7.103z" fill="#49d88b"/><path d="m384.408 343.279c18.971-8.252 35.149-21.582 47.051-38.833 13.153-19.063 20.105-41.501 20.105-64.887v-33.528c-12.773-7.704-21.928-19.585-26.141-33.953-26.853-6.848-55.177-6.848-82.03 0-4.213 14.368-13.368 26.249-26.141 33.952v33.529c0 23.381 6.949 45.814 20.095 64.875 11.902 17.256 28.083 30.59 47.061 38.845z" fill="#38c674"/><path d="m430.439 305.872c-.851-.709-1.954-1.111-3.129-1.045-30.28 1.698-35.963-22.796-36.999-30.465-.214-1.588-.793-3.096-1.692-4.422l-18.998-28.01c0-.99-.548-1.891-1.411-2.377-31.131-17.54-28.292-50.34-25.946-62.647.094-.495.084-.982.019-1.455-4.594 12.851-13.274 23.487-25.031 30.578v33.529c0 23.381 6.949 45.814 20.095 64.875 11.902 17.255 28.083 30.589 47.06 38.844 18.442-8.02 34.231-20.85 46.032-37.405z" fill="#24b55e"/><g><path d="m373.62 273.823-18.749-18.749c-4.072-4.073-4.072-10.676 0-14.749 4.073-4.072 10.676-4.072 14.749 0l11.374 11.374 21.632-21.633c4.073-4.072 10.676-4.072 14.749 0 4.073 4.073 4.073 10.676 0 14.749l-29.007 29.007c-4.07 4.071-10.676 4.073-14.748.001z" fill="#e9efff"/></g><g><path d="m256.267 301.568h-169.691c-4.316 0-7.815-3.499-7.815-7.815s3.499-7.815 7.815-7.815h169.69c4.316 0 7.815 3.498 7.815 7.815s-3.498 7.815-7.814 7.815z" fill="#bec8f7"/></g><g><path d="m256.267 266.684h-169.691c-4.316 0-7.815-3.498-7.815-7.815s3.499-7.815 7.815-7.815h169.69c4.316 0 7.815 3.498 7.815 7.815.001 4.316-3.498 7.815-7.814 7.815z" fill="#bec8f7"/></g><g><path d="m256.267 231.799h-169.691c-4.316 0-7.815-3.498-7.815-7.815s3.499-7.815 7.815-7.815h169.69c4.316 0 7.815 3.498 7.815 7.815.001 4.317-3.498 7.815-7.814 7.815z" fill="#bec8f7"/></g><g><path d="m256.267 196.914h-169.691c-4.316 0-7.815-3.498-7.815-7.815 0-4.316 3.499-7.815 7.815-7.815h169.69c4.316 0 7.815 3.498 7.815 7.815.001 4.317-3.498 7.815-7.814 7.815z" fill="#bec8f7"/></g><g><path d="m256.267 162.03h-169.691c-4.316 0-7.815-3.498-7.815-7.815s3.499-7.815 7.815-7.815h169.69c4.316 0 7.815 3.498 7.815 7.815.001 4.316-3.498 7.815-7.814 7.815z" fill="#bec8f7"/></g><g><path d="m341.16 51.057h-33.971c-4.316 0-7.815-3.498-7.815-7.815s3.499-7.815 7.815-7.815h33.971c4.316 0 7.815 3.498 7.815 7.815s-3.499 7.815-7.815 7.815z" fill="#bec8f7"/></g><path d="m330.964 460.361h-225.421c7.205 5.615 14.733 10.835 22.55 15.63h202.871c4.316 0 7.815-3.498 7.815-7.815s-3.499-7.815-7.815-7.815z" fill="#bec8f7"/><g><path d="m330.964 441.107h-244.388c-4.316 0-7.815-3.498-7.815-7.815 0-4.316 3.499-7.815 7.815-7.815h244.388c4.316 0 7.815 3.498 7.815 7.815 0 4.316-3.499 7.815-7.815 7.815z" fill="#bec8f7"/></g><g><path d="m330.964 406.222h-244.388c-4.316 0-7.815-3.498-7.815-7.815s3.499-7.815 7.815-7.815h244.388c4.316 0 7.815 3.498 7.815 7.815s-3.499 7.815-7.815 7.815z" fill="#bec8f7"/></g><g><path d="m307.325 371.337h-220.749c-4.316 0-7.815-3.499-7.815-7.815s3.499-7.815 7.815-7.815h220.748c4.316 0 7.815 3.498 7.815 7.815s-3.498 7.815-7.814 7.815z" fill="#bec8f7"/></g><g><path d="m280.754 336.452h-194.178c-4.316 0-7.815-3.498-7.815-7.815s3.499-7.815 7.815-7.815h194.177c4.316 0 7.815 3.498 7.815 7.815.001 4.317-3.498 7.815-7.814 7.815z" fill="#bec8f7"/></g><path d="m54.35 96.74c-13.586 13.586-21.218 32.012-21.218 51.225 0 0 10.734-30.007 58.979-30.007h48.246c5.928 0 10.734-4.806 10.734-10.734v-48.245c0-48.245 30.007-58.979 30.007-58.979-19.213 0-37.639 7.632-51.225 21.218z" fill="#d3dcfb"/><path d="m33.132 147.966s10.734-30.007 58.979-30.007h48.246c5.928 0 10.734-4.806 10.734-10.734v-28.725c-44.021 19-54.739-23.761-54.739-23.761l-42.002 42.002c-13.586 13.585-21.218 32.011-21.218 51.225z" fill="#bec8f7"/></g></svg>