<?xml version="1.0" encoding="iso-8859-1"?>
<!-- Generator: Adobe Illustrator 19.0.0, SVG Export Plug-In . SVG Version: 6.00 Build 0)  -->
<svg version="1.1" id="Capa_1" xmlns="http://www.w3.org/2000/svg" xmlns:xlink="http://www.w3.org/1999/xlink" x="0px" y="0px"
	 viewBox="0 0 512 512" style="enable-background:new 0 0 512 512;" xml:space="preserve">
<style
   id="style2"
   type="text/css">
	.st_sc0{fill:#FFFFFF;}
	.st_sc1{fill:#005898;}
</style>
<circle
   r="256"
   style="stroke-width:3.99376"
   id="circle4"
   cy="256"
   cx="256"
   class="st_sc0" />
<g
   transform="matrix(3.9937598,0,0,3.9937598,-1121.4478,-1057.1482)"
   id="g12">
	<path
   id="path6"
   d="m 344.9,346.1 c -9.5,0 -17.2,-7.7 -17.2,-17.2 0,-9.5 7.7,-17.2 17.2,-17.2 9.5,0 17.2,7.7 17.2,17.2 0,9.5 -7.7,17.2 -17.2,17.2 z m 0,-33.6 c -9.1,0 -16.4,7.4 -16.4,16.4 0,9.1 7.4,16.4 16.4,16.4 9.1,0 16.4,-7.4 16.4,-16.4 0,-9.1 -7.3,-16.4 -16.4,-16.4 z"
   class="st_sc1" />
	<path
   id="path8"
   d="m 344.9,346.5 c -9.7,0 -17.6,-7.9 -17.6,-17.6 0,-9.7 7.9,-17.6 17.6,-17.6 9.7,0 17.6,7.9 17.6,17.6 0,9.7 -7.9,17.6 -17.6,17.6 z m 0,-33.7 c -8.9,0 -16.1,7.2 -16.1,16.1 0,8.9 7.2,16.1 16.1,16.1 8.9,0 16.1,-7.2 16.1,-16.1 0,-8.8 -7.2,-16.1 -16.1,-16.1 z"
   class="st_sc1" />
	<path
   id="path10"
   d="M 398.5,337.1 V 320.6 L 384.1,319 c -1,-3.9 -2.5,-7.5 -4.5,-10.8 l 9.1,-11.4 -11.7,-11.7 -11.4,9.1 c -3.3,-2 -7,-3.5 -10.8,-4.5 l -1.6,-14.5 h -16.5 l -1.6,14.5 c -3.9,1 -7.5,2.5 -10.8,4.5 l -11.4,-9.1 -11.7,11.7 9.1,11.4 c -2,3.3 -3.5,7 -4.5,10.8 l -14.4,1.6 v 16.5 l 14.4,1.6 c 1,3.9 2.5,7.5 4.5,10.9 l -9.1,11.3 11.7,11.7 11.3,-9.1 c 3.3,2 7,3.5 10.9,4.5 l 1.6,14.4 h 16.5 l 1.6,-14.4 c 3.9,-1 7.5,-2.5 10.9,-4.5 l 11.3,9.1 11.7,-11.7 -9.1,-11.3 c 2,-3.3 3.5,-7 4.5,-10.9 z m -53.6,12.2 c -11.3,0 -20.4,-9.1 -20.4,-20.4 0,-11.3 9.1,-20.4 20.4,-20.4 11.3,0 20.4,9.1 20.4,20.4 0,11.3 -9.1,20.4 -20.4,20.4 z"
   class="st_sc1" />
</g>
</svg>
