<?xml version="1.0" encoding="utf-8"?>
<!-- Generator: Adobe Illustrator 24.1.2, SVG Export Plug-In . SVG Version: 6.00 Build 0)  -->
<svg version="1.1" id="Layer_1" xmlns="http://www.w3.org/2000/svg" xmlns:xlink="http://www.w3.org/1999/xlink" x="0px" y="0px"
	 width="512px" height="512px" viewBox="0 0 512 512" style="enable-background:new 0 0 512 512;" xml:space="preserve">
<style type="text/css">
	.st_cfg0{fill:#FF9933;}
	.st_cfg1{fill:#A5A5A4;}
	.st_cfg2{fill:#5E5F62;}
	.st_cfg3{fill:#FFFFFF;}
	.st_cfg4{fill:#1A469D;}
	.st_cfg5{fill:#55A6FF;}
	.st_cfg6{fill:#C62C46;}
	.st_cfg7{fill:#7B6919;}
	.st_cfg8{fill:#E2AFA8;}
	.st_cfg9{fill:#5C3A7E;}
	.st_cfg10{fill:#8D8C84;}
	.st_cfg11{fill:#434343;}
</style>
<circle class="st_cfg0" cx="256" cy="256" r="256"/>
<g>
	<path class="st_cfg1" d="M66.5,63.4h378.4c12.1,0,21.8,9.8,21.8,21.8v291.1c0,12.1-9.8,21.8-21.8,21.8H66.5c-12.1,0-21.8-9.8-21.8-21.8
		V85.3C44.7,73.2,54.5,63.4,66.5,63.4z"/>
	<path class="st_cfg1" d="M168.4,449.1h174.6c16.1,0,29.1,13,29.1,29.1c0,4-3.3,7.3-7.3,7.3H146.6c-4,0-7.3-3.3-7.3-7.3
		C139.3,462.1,152.3,449.1,168.4,449.1z"/>
	<path class="st_cfg2" d="M335.8,449.1H175.7l14.6-50.9h131L335.8,449.1z"/>
	<path class="st_cfg3" d="M75.2,74.2h361.5c8.7,0,15.7,7.7,15.7,17.3V351c0,9.6-7,17.3-15.7,17.3H75.2c-8.7,0-15.7-7.7-15.7-17.3V91.5
		C59.4,82,66.5,74.2,75.2,74.2z"/>
	<path class="st_cfg2" d="M292.1,391.1h-72.8c-4,0-7.3-3.3-7.3-7.3s3.3-7.3,7.3-7.3h72.8c4,0,7.3,3.3,7.3,7.3S296.1,391.1,292.1,391.1z"
		/>
	<rect x="76.6" y="88" class="st_cfg4" width="352.1" height="39.3"/>
	<rect x="76.6" y="146" class="st_cfg5" width="144.8" height="80.3"/>
	<rect x="76.6" y="252.1" class="st_cfg6" width="144.8" height="84.3"/>
	<rect x="242.3" y="146" class="st_cfg7" width="186.5" height="50.6"/>
	<rect x="242.3" y="285.8" class="st_cfg8" width="186.5" height="50.6"/>
	<rect x="242.3" y="217.7" class="st_cfg9" width="186.5" height="50.6"/>
	<g>
		<path d="M288.6,212.2V175l-19.9-5c-1.2-3.7-2.7-7.3-4.5-10.8l10.6-17.6l-26.3-26.3l-17.6,10.6c-3.5-1.8-7.1-3.3-10.8-4.5l-5-19.9
			h-18.6l-21.6,53.9h21.6c21,0,38.1,17.1,38.1,38.1s-17.1,38.1-38.1,38.1h-21.6l21.6,53.9h18.6l5-19.9c3.7-1.2,7.3-2.7,10.8-4.5
			l17.6,10.6l26.3-26.3l-10.6-17.6c1.8-3.5,3.3-7.1,4.5-10.8L288.6,212.2z"/>
		<path d="M158.5,193.6c0-21,17.1-38.1,38.1-38.1v-53.9H178l-5,19.9c-3.7,1.2-7.3,2.7-10.8,4.5l-17.6-10.6l-26.3,26.3l10.6,17.6
			c-1.8,3.5-3.3,7.1-4.5,10.8l-19.9,5v37.2l19.9,5c1.2,3.7,2.7,7.3,4.5,10.8l-10.6,17.6l26.3,26.3l17.6-10.6
			c3.5,1.8,7.1,3.3,10.8,4.5l5,19.9h18.6v-53.9C175.6,231.7,158.5,214.6,158.5,193.6z"/>
		<path class="st_cfg10" d="M196.6,139.3l-10.8,16.2h10.8c21,0,38.1,17.1,38.1,38.1s-17.1,38.1-38.1,38.1h-10.8l10.8,16.2
			c30,0,54.3-24.3,54.3-54.3S226.6,139.3,196.6,139.3z"/>
		<path class="st_cfg11" d="M158.5,193.6c0-21,17.1-38.1,38.1-38.1v-16.2c-30,0-54.3,24.3-54.3,54.3s24.3,54.3,54.3,54.3v-16.2
			C175.6,231.7,158.5,214.6,158.5,193.6z"/>
	</g>
	<g>
		<path d="M379.6,305.9v-23.4l-12.5-3.1c-0.8-2.3-1.7-4.6-2.8-6.8l6.6-11.1L354.4,245l-11.1,6.6c-2.2-1.1-4.4-2-6.8-2.8l-3.1-12.5
			h-11.7l-13.6,33.9h13.6c13.2,0,24,10.7,24,24s-10.7,24-24,24h-13.6l13.6,33.9h11.7l3.1-12.5c2.3-0.8,4.6-1.7,6.8-2.8l11.1,6.6
			l16.5-16.5l-6.6-11.1c1.1-2.2,2-4.4,2.8-6.8L379.6,305.9z"/>
		<path d="M297.8,294.2c0-13.2,10.7-24,24-24v-33.9H310l-3.1,12.5c-2.3,0.8-4.6,1.7-6.8,2.8l-11.1-6.6l-16.5,16.5l6.6,11.1
			c-1.1,2.2-2,4.4-2.8,6.8l-12.5,3.1v23.4l12.5,3.1c0.8,2.3,1.7,4.6,2.8,6.8l-6.6,11.1l16.5,16.5l11.1-6.6c2.2,1.1,4.4,2,6.8,2.8
			l3.1,12.5h11.7v-33.9C308.5,318.2,297.8,307.5,297.8,294.2z"/>
		<path class="st_cfg10" d="M321.7,260.1l-6.8,10.2h6.8c13.2,0,24,10.7,24,24s-10.7,24-24,24h-6.8l6.8,10.2c18.9,0,34.1-15.3,34.1-34.1
			C355.9,275.4,340.6,260.1,321.7,260.1z"/>
		<path class="st_cfg11" d="M297.8,294.2c0-13.2,10.7-24,24-24v-10.2c-18.9,0-34.1,15.3-34.1,34.1c0,18.9,15.3,34.1,34.1,34.1v-10.2
			C308.5,318.2,297.8,307.5,297.8,294.2z"/>
	</g>
</g>
</svg>
