<?xml version="1.0" encoding="utf-8"?>
<!-- Generator: Adobe Illustrator 24.1.2, SVG Export Plug-In . SVG Version: 6.00 Build 0)  -->
<svg version="1.1" id="Layer_1" xmlns="http://www.w3.org/2000/svg" xmlns:xlink="http://www.w3.org/1999/xlink" x="0px" y="0px"
	 width="512px" height="512px" viewBox="0 0 512 512" style="enable-background:new 0 0 512 512;" xml:space="preserve">
<style type="text/css">
	.st0{fill:#FFFFFF;}
	.st1{clip-path:url(#SVGID_2_);}
	.st2{fill:none;stroke:#000000;stroke-width:4.0006;stroke-miterlimit:10;}
	.st3{fill:none;}
	.st4{fill:#FFC837;stroke:#E5AA0A;stroke-width:6.0009;stroke-miterlimit:10;}
	.st5{fill:none;stroke:#E5AA0A;stroke-width:6.0009;stroke-miterlimit:10;}
	.st6{fill:#FFC837;stroke:#E5AA0A;stroke-width:10.3897;stroke-miterlimit:10;}
	.st7{fill:#E5AA0A;}
	.st8{fill:none;stroke:#FFFFFF;stroke-width:10.0015;stroke-linecap:round;stroke-miterlimit:10;}
	.st9{fill:none;stroke:#000000;stroke-width:5.3209;stroke-miterlimit:10;}
	.st10{fill:#FFC837;stroke:#E5AA0A;stroke-width:7.9813;stroke-miterlimit:10;}
	.st11{fill:none;stroke:#E5AA0A;stroke-width:7.9813;stroke-miterlimit:10;}
	.st12{fill:#FFC837;stroke:#E5AA0A;stroke-width:7.9887;stroke-miterlimit:10;}
	.st13{fill:none;stroke:#FFFFFF;stroke-width:13.3022;stroke-linecap:round;stroke-miterlimit:10;}
	.st14{fill:none;stroke:#000000;stroke-width:5.4614;stroke-linecap:round;stroke-miterlimit:10;}
	.st15{fill:none;stroke:#000000;stroke-width:5.4614;stroke-miterlimit:10;}
	.st16{fill:none;stroke:#000000;stroke-width:7.2624;stroke-miterlimit:10;}
	.st17{fill:#FFC837;stroke:#E5AA0A;stroke-width:10.8936;stroke-miterlimit:10;}
	.st18{fill:none;stroke:#E5AA0A;stroke-width:10.8936;stroke-miterlimit:10;}
	.st19{fill:none;stroke:#FFFFFF;stroke-width:18.156;stroke-linecap:round;stroke-miterlimit:10;}
	.st20{fill:none;stroke:#000000;stroke-width:7.2624;stroke-linecap:round;stroke-miterlimit:10;}
</style>
<circle class="st0" cx="256" cy="256" r="256"/>
<g>
	<defs>
		<circle id="SVGID_1_" cx="256" cy="256" r="256"/>
	</defs>
	<clipPath id="SVGID_2_">
		<use xlink:href="#SVGID_1_"  style="overflow:visible;"/>
	</clipPath>
	<g class="st1">
		<g>
			<g>
				<path class="st2" d="M46.2,353.5c1.4-1.2,3.2-2.4,5.3-3.5c4.6-2.5,10.8-4.9,18.3-7.1c13.9-4.1,32.4-7.4,53.8-9.6
					c19.8-2.1,42-3.3,65.6-3.3c24.3,0,47.3,1.2,67.5,3.3"/>
				<path class="st2" d="M46.4,343.3c5.2-14.9,55.2-28,116.9-30.2c1.1,0,2.2-0.1,3.2-0.1c35.6-1.1,67.7,1.7,90.1,7"/>
			</g>
			<g>
				<polyline class="st2" points="46.2,343 46.2,347 46.2,353.4 46.2,364.3 				"/>
			</g>
			<line class="st2" x1="64.2" y1="329.8" x2="64.2" y2="353.8"/>
			<line class="st2" x1="105.2" y1="318.8" x2="105.2" y2="346.8"/>
			<line class="st2" x1="155.2" y1="313.8" x2="155.2" y2="342.8"/>
			<line class="st2" x1="213.7" y1="313.3" x2="213.7" y2="343.3"/>
		</g>
		<path class="st3" d="M175.2,379.6c-0.1,0.3-0.1,0.6-0.1,0.9"/>
		<path class="st3" d="M175.1,435.6L175.1,435.6C175.1,435.5,175.2,435.5,175.1,435.6"/>
		<path class="st3" d="M175.2,506.1c-0.2,0.1-0.4,0.2-0.5,0.3"/>
		<path class="st4" d="M263.3,352v61.2c0,0,0,0-0.1,0c-24.2-3.4-53-5.4-84-5.4c-3.2,0-6.4,0-9.5,0.1c-52.4,0.7-97.9,7.1-123.4,16.5
			v-55.9c2.2-14.2,56.6-25.6,123.4-25.6C207,342.8,240.5,346.4,263.3,352C263.2,352,263.2,352,263.3,352z"/>
		<path class="st5" d="M46.2,368.4c-0.1,0.3-0.1,0.6-0.1,0.9"/>
		<path class="st5" d="M46.2,424.4L46.2,424.4C46.2,424.4,46.2,424.3,46.2,424.4"/>
		<path class="st5" d="M46.2,494.9c-0.2,0.1-0.4,0.2-0.5,0.3"/>
		<path class="st4" d="M263.3,413.3v77.5c-23.1-1-53.1-1.6-85.9-1.6c-67.7,0-123.6,2.5-131.2,5.8v-70.6c25.6-9.3,71-15.8,123.4-16.5
			c3.1,0,6.3-0.1,9.5-0.1C210.1,407.8,239,409.8,263.3,413.3C263.2,413.2,263.2,413.3,263.3,413.3z"/>
		<path class="st6" d="M263.3,493.9v368.5h-217v-356c7.6-9.7,63.4-17.2,131.2-17.2C210.2,489.2,240.2,490.9,263.3,493.9z"/>
		<path class="st7" d="M263.2,352v44.4c-24.2-3.4-53.1-5.4-84.1-5.4c-3.2,0-6.3,0-9.4,0.1v-48.3C207,342.8,240.5,346.4,263.2,352z"
			/>
		<path class="st7" d="M263.2,413.2v66.7c-23.1-1-53.1-1.6-85.9-1.6c-2.6,0-5.1,0-7.7,0v-70.5c3.1,0,6.3-0.1,9.5-0.1
			C210.1,407.8,239,409.8,263.2,413.2z"/>
		<path class="st7" d="M263.2,489.9v122.9h-93.5V488.4c2.5,0,5.1,0,7.7,0C210.1,488.3,240.1,488.9,263.2,489.9z"/>
		<line class="st8" x1="70.7" y1="369.3" x2="70.7" y2="402.3"/>
		<line class="st8" x1="70.7" y1="433.3" x2="70.7" y2="481.3"/>
	</g>
	<g class="st1">
		<g>
			<g>
				<path class="st9" d="M144,244.1c1.9-1.6,4.3-3.1,7-4.6c6.2-3.4,14.4-6.5,24.3-9.4c18.5-5.4,43.1-9.8,71.5-12.8
					c26.3-2.8,55.9-4.4,87.2-4.4c32.4-0.1,62.9,1.5,89.8,4.4"/>
				<path class="st9" d="M144.3,230.4c6.9-19.8,73.4-37.2,155.5-40.2c1.4-0.1,2.9-0.1,4.3-0.1c47.3-1.4,90.1,2.3,119.9,9.3"/>
			</g>
			<g>
				<polyline class="st9" points="144,230.1 144,235.4 144,243.9 144,258.4 				"/>
			</g>
			<line class="st9" x1="167.9" y1="212.5" x2="167.9" y2="244.5"/>
			<line class="st9" x1="222.5" y1="197.9" x2="222.5" y2="235.1"/>
			<line class="st9" x1="289" y1="191.3" x2="289" y2="229.8"/>
			<line class="st9" x1="366.8" y1="190.6" x2="366.8" y2="230.5"/>
		</g>
		<path class="st3" d="M315.6,278.8c-0.1,0.4-0.1,0.8-0.1,1.2"/>
		<path class="st3" d="M315.5,353.2L315.5,353.2C315.5,353.2,315.6,353.1,315.5,353.2"/>
		<path class="st3" d="M315.6,447c-0.3,0.1-0.5,0.2-0.7,0.3"/>
		<path class="st10" d="M432.8,242.1v81.4c0,0-0.1,0-0.1,0c-32.2-4.6-70.6-7.2-111.7-7.2c-4.2,0-8.5,0-12.6,0.1
			c-69.8,0.9-130.2,9.5-164.2,21.9v-74.3c2.9-18.9,75.3-34.1,164.2-34.1C358,229.8,402.5,234.5,432.8,242.1
			C432.7,242.1,432.7,242.1,432.8,242.1z"/>
		<path class="st11" d="M144.1,263.9c-0.1,0.4-0.1,0.8-0.1,1.2"/>
		<path class="st11" d="M144,338.3L144,338.3C144,338.3,144.1,338.3,144,338.3"/>
		<path class="st11" d="M144.1,432.1c-0.3,0.1-0.5,0.2-0.7,0.3"/>
		<path class="st10" d="M432.8,323.5v103c-30.7-1.3-70.6-2.1-114.2-2.1c-90.1,0-164.3,3.3-174.5,7.6v-93.8
			c34-12.4,94.4-21,164.2-21.9c4.2-0.1,8.4-0.1,12.6-0.1C362.1,316.3,400.5,318.9,432.8,323.5C432.7,323.5,432.7,323.5,432.8,323.5z
			"/>
		<path class="st12" d="M432.8,426.3v432.4H144.1V441.1c10.1-11.4,84.4-20.2,174.5-20.2C362.2,420.8,402.1,422.9,432.8,426.3z"/>
		<path class="st7" d="M432.7,242v59.1c-32.2-4.6-70.6-7.2-111.8-7.2c-4.2,0-8.4,0-12.5,0.1v-64.2C358,229.8,402.5,234.5,432.7,242z
			"/>
		<path class="st7" d="M432.7,323.5v88.7c-30.7-1.3-70.6-2.1-114.2-2.1c-3.4,0-6.8,0-10.2,0v-93.7c4.2-0.1,8.4-0.1,12.6-0.1
			C362.1,316.3,400.5,318.9,432.7,323.5z"/>
		<path class="st7" d="M432.7,428.6v406.6H308.3V423.4c3.4,0,6.8,0,10.2,0C362.1,423.4,402,425.3,432.7,428.6z"/>
		<line class="st13" x1="176.6" y1="265.1" x2="176.6" y2="309"/>
		<line class="st13" x1="176.6" y1="350.2" x2="176.6" y2="414.1"/>
	</g>
	<g class="st1">
		<line class="st14" x1="301.9" y1="363.1" x2="140.1" y2="504.5"/>
		<line class="st15" x1="140.1" y1="464.9" x2="140.1" y2="504.5"/>
		<line class="st15" x1="276.5" y1="346" x2="276.5" y2="385.6"/>
		<line class="st15" x1="215" y1="401.1" x2="215" y2="440.7"/>
		<line class="st15" x1="165.3" y1="443" x2="165.3" y2="482.6"/>
		<line class="st14" x1="301.5" y1="323.8" x2="139.7" y2="465.1"/>
		<line class="st15" x1="301.5" y1="340.2" x2="139.7" y2="481.5"/>
		<line class="st15" x1="301.2" y1="323.5" x2="372.2" y2="323.5"/>
		<line class="st15" x1="301.2" y1="363.1" x2="372.2" y2="363.1"/>
		<line class="st15" x1="301.2" y1="342.7" x2="372.2" y2="342.7"/>
	</g>
	<g class="st1">
		<g>
			<g>
				<path class="st16" d="M291.5,120.2c2.6-2.1,5.8-4.3,9.6-6.3c8.4-4.6,19.6-8.9,33.2-12.9c25.3-7.4,58.8-13.4,97.6-17.5
					c35.9-3.8,76.3-6,119.1-6.1c44.2-0.1,85.9,2.1,122.6,6"/>
				<path class="st16" d="M291.8,101.6c9.5-27.1,100.1-50.8,212.3-54.8c1.9-0.1,3.9-0.1,5.9-0.2c64.6-1.9,122.9,3.1,163.6,12.6"/>
			</g>
			<g>
				<polyline class="st16" points="291.4,101.2 291.4,108.3 291.4,120 291.4,139.8 				"/>
			</g>
			<line class="st16" x1="324.1" y1="77.2" x2="324.1" y2="120.7"/>
			<line class="st16" x1="398.5" y1="57.2" x2="398.5" y2="108"/>
			<line class="st16" x1="489.3" y1="48.1" x2="489.3" y2="100.8"/>
			<line class="st16" x1="595.5" y1="47.2" x2="595.5" y2="101.7"/>
		</g>
		<path class="st3" d="M525.6,167.6c-0.1,0.5-0.1,1.1-0.1,1.6"/>
		<path class="st3" d="M525.5,269.2L525.5,269.2c0-0.1,0.1-0.1,0.1-0.1"/>
		<path class="st3" d="M525.6,397.2c-0.4,0.1-0.7,0.3-0.9,0.5"/>
		<path class="st17" d="M685.5,117.5v111.2c0,0-0.1,0-0.1,0c-44-6.2-96.3-9.8-152.5-9.8c-5.8,0-11.5,0-17.2,0.1
			c-95.2,1.3-177.7,12.9-224.1,29.9V147.3c3.9-25.8,102.8-46.5,224.1-46.5c67.8,0,128.6,6.4,169.8,16.7
			C685.4,117.5,685.5,117.5,685.5,117.5z"/>
		<path class="st18" d="M291.5,147.3c-0.1,0.5-0.1,1.1-0.1,1.6"/>
		<path class="st18" d="M291.4,248.9L291.4,248.9c0-0.1,0.1-0.1,0.1-0.1"/>
		<path class="st18" d="M291.5,376.9c-0.4,0.1-0.7,0.3-0.9,0.5"/>
		<path class="st17" d="M685.5,232.3v140.6c-41.9-1.8-96.4-2.9-155.9-2.9c-123,0-224.3,4.6-238.1,10.4V252.4
			c46.4-16.9,128.9-28.6,224.1-29.9c5.7-0.1,11.5-0.1,17.2-0.1c56.2,0,108.6,3.6,152.5,9.8C685.4,232.3,685.5,232.3,685.5,232.3z"/>
		<path class="st17" d="M685.5,374.5v489.7h-394V391.1c13.8-12.9,115.2-22.9,238.1-22.9C589.2,368.2,643.6,370.6,685.5,374.5z"/>
		<path class="st7" d="M685.4,117.4v80.7c-44-6.2-96.4-9.9-152.6-9.9c-5.8,0-11.5,0-17.1,0.1v-87.6
			C583.5,100.8,644.3,107.2,685.4,117.4z"/>
		<path class="st7" d="M685.4,228.6v121c-41.9-1.8-96.4-2.9-155.9-2.9c-4.7,0-9.3,0-13.9,0V218.9c5.7-0.1,11.5-0.1,17.2-0.1
			C589.1,218.8,641.4,222.4,685.4,228.6z"/>
		<path class="st7" d="M685.4,370.7v448.2H515.6V365c4.6,0,9.2,0,13.9,0C589,364.9,643.5,367.1,685.4,370.7z"/>
		<line class="st19" x1="335.9" y1="148.9" x2="335.9" y2="208.8"/>
		<line class="st19" x1="335.9" y1="265.1" x2="335.9" y2="352.2"/>
	</g>
	<g class="st1">
		<line class="st20" x1="467.5" y1="324.1" x2="252.4" y2="512"/>
		<line class="st16" x1="252.4" y1="459.3" x2="252.4" y2="512"/>
		<line class="st16" x1="467.5" y1="272.3" x2="467.5" y2="325"/>
		<line class="st16" x1="385.8" y1="343.1" x2="385.8" y2="395.8"/>
		<line class="st16" x1="286" y1="430.3" x2="286" y2="483"/>
		<line class="st20" x1="467" y1="271.8" x2="251.9" y2="459.7"/>
		<line class="st16" x1="467" y1="293.6" x2="251.9" y2="481.5"/>
		<line class="st16" x1="466.6" y1="271.4" x2="653.6" y2="271.4"/>
		<line class="st16" x1="466.6" y1="324.1" x2="653.6" y2="324.1"/>
		<line class="st16" x1="466.6" y1="296.9" x2="655.4" y2="296.9"/>
	</g>
</g>
</svg>
