<svg id="Layer_1" enable-background="new 0 0 50 50" height="512" viewBox="0 0 50 50" width="512" xmlns="http://www.w3.org/2000/svg" xmlns:xlink="http://www.w3.org/1999/xlink"><linearGradient id="XMLID_2_" gradientUnits="userSpaceOnUse" x1="24.584" x2="25.251" y1="50.605" y2="9.515"><stop offset=".00000053836" stop-color="#ffcb46"/><stop offset="1" stop-color="#fcb63a"/></linearGradient><linearGradient id="SVGID_1_" gradientUnits="userSpaceOnUse" x1="25" x2="25" y1="5.02" y2="26.924"><stop offset=".00000009742" stop-color="#8a59a4"/><stop offset=".5269" stop-color="#6b7fbe"/><stop offset=".957" stop-color="#6b7fbe"/></linearGradient><g><g><path id="XMLID_393_" d="m49 24.994c0 14.2141-12.3723 25.2508-26.1999 23.9-12.2201-1.11-21.8001-11.39-21.8001-23.9 0-13.25 10.75-24 24-24 13.3371 0 24 10.8341 24 24z" fill="url(#XMLID_2_)"/><path d="m41.6267 12.884v24.2321c0 1.2303-.9957 2.226-2.2259 2.226h-28.8016c-1.2302 0-2.2259-.9957-2.2259-2.226v-24.2321c0-1.2302.9957-2.2259 2.2259-2.2259h28.8016c1.2302 0 2.2259.9957 2.2259 2.2259z" fill="#fff"/><path d="m8.3733 15.7848v-2.9008c0-1.2302.9957-2.226 2.2259-2.226h28.8016c1.2303 0 2.226.9958 2.226 2.226v2.9008z" fill="url(#SVGID_1_)"/><g fill="#fff"><circle cx="17.841" cy="13.221" r="1.01"/><circle cx="14.922" cy="13.221" r="1.01"/><circle cx="12.003" cy="13.221" r="1.01"/></g><g><path d="m36.5841 8.8769c-.76-.74-1.96-.74-2.72 0 .7297-.691.7639-1.9659 0-2.71.767.747 1.9518.7482 2.72 0-.7632.7434-.7302 2.0185 0 2.71z" fill="#fff"/></g><g><path d="m25.0278 6.5016c-.6151-.5989-1.5862-.5989-2.2013 0 .5906-.5593.6182-1.591 0-2.1932.6207.6045 1.5796.6055 2.2013 0-.6177.6016-.5909 1.6336 0 2.1932z" fill="#fff"/></g><g><path d="m14.555 8.5422c-.5723-.5572-1.4759-.5572-2.0482 0 .5495-.5204.5752-1.4804 0-2.0406.5775.5625 1.4698.5634 2.0482 0-.5747.5598-.5498 1.5199 0 2.0406z" fill="#fff"/></g><g><path d="m5.552 24.6621c-.57-.55-1.48-.55-2.05 0 .5502-.5124.5709-1.4887 0-2.04.6056.5849 1.468.562 2.05 0-.5711.5514-.5505 1.5273 0 2.04z" fill="#fff"/></g><g><path d="m46.0035 22.6836c-.5-.49-1.3-.49-1.8 0 .4886-.469.4983-1.3116 0-1.7899.5137.4932 1.286.4934 1.8 0-.4983.4784-.4884 1.321 0 1.7899z" fill="#fff"/></g></g><g><path d="m25 .9939c-13.25 0-24 10.75-24 24 0 12.5103 9.58 22.79 21.8 23.9001 13.8276 1.3509 26.2-9.6857 26.2-23.9001 0-13.166-10.6629-24-24-24z" fill="url(#XMLID_2_)"/><path d="m41.6267 12.884v24.2321c0 1.2303-.9957 2.226-2.2259 2.226h-28.8016c-1.2302 0-2.2259-.9957-2.2259-2.226v-24.2321c0-1.2302.9957-2.2259 2.2259-2.2259h28.8016c1.2302 0 2.2259.9957 2.2259 2.2259z" fill="#fff"/><path d="m8.3733 15.7848v-2.9008c0-1.2302.9957-2.226 2.2259-2.226h28.8016c1.2303 0 2.226.9958 2.226 2.226v2.9008z" fill="url(#SVGID_1_)"/><g fill="#fff"><circle cx="17.841" cy="13.221" r="1.01"/><circle cx="14.922" cy="13.221" r="1.01"/><circle cx="12.003" cy="13.221" r="1.01"/></g><g><path d="m36.5841 8.8769c-.76-.74-1.96-.74-2.72 0 .7297-.691.7639-1.9659 0-2.71.767.747 1.9518.7482 2.72 0-.7632.7434-.7302 2.0185 0 2.71z" fill="#fff"/></g><g><path d="m25.0278 6.5016c-.6151-.5989-1.5862-.5989-2.2013 0 .5906-.5593.6182-1.591 0-2.1932.6207.6045 1.5796.6055 2.2013 0-.6177.6016-.5909 1.6336 0 2.1932z" fill="#fff"/></g><g><path d="m14.555 8.5422c-.5723-.5572-1.4759-.5572-2.0482 0 .5495-.5204.5752-1.4804 0-2.0406.5775.5625 1.4698.5634 2.0482 0-.5747.5598-.5498 1.5199 0 2.0406z" fill="#fff"/></g><g><path d="m5.552 24.6621c-.57-.55-1.48-.55-2.05 0 .5502-.5124.5709-1.4887 0-2.04.6056.5849 1.468.562 2.05 0-.5711.5514-.5505 1.5273 0 2.04z" fill="#fff"/></g><g><path d="m46.0035 22.6836c-.5-.49-1.3-.49-1.8 0 .4886-.469.4983-1.3116 0-1.7899.5137.4932 1.286.4934 1.8 0-.4983.4784-.4884 1.321 0 1.7899z" fill="#fff"/></g><path d="m10.637 18.463h28.726v16.138h-28.726z" fill="#dddddc"/></g><g><circle cx="16.497" cy="24.589" fill="#3b3e42" r="3.224"/><g><path d="m17.9618 25.4359c.1716.1716.1716.4513 0 .6229s-.4449.1653-.6166-.0064l-.8518-.8518-.8454.8518c-.1716.1716-.445.178-.6166.0064s-.1716-.4513 0-.6229l.8517-.8455-.8517-.8517c-.1716-.1716-.178-.445-.0064-.6167.1716-.1716.4513-.1716.6229 0l.8454.8518.8518-.8518c.1716-.1716.4513-.1716.6229 0s.1653.445-.0064.6167l-.8518.8517z" fill="#fff"/></g><g fill="#fff"><path d="m21.166 23.278h15.621v1.101h-15.621z"/><path d="m21.166 25.718h15.621v1.101h-15.621z"/><path d="m21.166 28.158h15.621v1.101h-15.621z"/><path d="m13.214 30.598h23.573v1.101h-23.573z"/></g></g></g></svg>