<?xml version="1.0"?>
<svg xmlns="http://www.w3.org/2000/svg" xmlns:xlink="http://www.w3.org/1999/xlink" version="1.1" id="Capa_1" x="0px" y="0px" viewBox="0 0 512 512" style="enable-background:new 0 0 512 512;" xml:space="preserve" width="512px" height="512px" class=""><g><path style="fill:#455A64;" d="M256,0c-82.436,0.094-149.239,66.898-149.333,149.333v96c0,5.891,4.776,10.667,10.667,10.667  S128,251.224,128,245.333h21.333c0,5.891,4.776,10.667,10.667,10.667c5.891,0,10.667-4.776,10.667-10.667v-96  C170.667,102.205,208.872,64,256,64s85.333,38.205,85.333,85.333v53.333c0,5.891,4.776,10.667,10.667,10.667h42.667  c5.891,0,10.667-4.776,10.667-10.667v-53.333C405.239,66.898,338.436,0.094,256,0z" data-original="#455A64" class=""/><path style="fill:#B3B3B3" d="M394.667,234.667H117.333c-17.673,0-32,14.327-32,32v192c0,29.455,23.878,53.333,53.333,53.333  h234.667c29.455,0,53.333-23.878,53.333-53.333v-192C426.667,248.994,412.34,234.667,394.667,234.667z" data-original="#FFC107" class="active-path" data-old_color="#FFC107"/><path style="fill:#455A64;" d="M284.8,372.693c8.864-8.011,13.905-19.412,13.867-31.36c0-23.564-19.103-42.667-42.667-42.667  s-42.667,19.103-42.667,42.667c-0.038,11.948,5.003,23.349,13.867,31.36l-13.312,39.936c-1.862,5.589,1.16,11.629,6.749,13.491  c1.084,0.361,2.22,0.546,3.363,0.547h64c5.891-0.004,10.663-4.784,10.659-10.675c-0.001-1.143-0.185-2.278-0.547-3.363  L284.8,372.693z" data-original="#455A64" class=""/></g> </svg>
