<?xml version="1.0" encoding="utf-8"?>
<!-- Generator: Adobe Illustrator 24.1.2, SVG Export Plug-In . SVG Version: 6.00 Build 0)  -->
<svg version="1.1" id="Layer_1" xmlns="http://www.w3.org/2000/svg" xmlns:xlink="http://www.w3.org/1999/xlink" x="0px" y="0px"
	 width="512px" height="512px" viewBox="0 0 512 512" enable-background="new 0 0 512 512" xml:space="preserve">
<g>
	<circle fill="#FFFFFF" cx="256" cy="256" r="256"/>
</g>
<g>
	<path fill="#B2B2B2" d="M291.2,81.5c-0.1,0-0.1,0-0.2,0c-0.1,0-0.1,0-0.2,0.1c-0.1,0-0.2,0.1-0.3,0.1c0,0,0,0-0.1,0l-58.2,22
		l-0.9-2.5c-2.3-6.1-9.1-9.2-15.2-6.9l-23.2,8.8c0-2-0.4-4-1.1-6c-3.5-9.2-13.7-13.8-22.9-10.3c-9.2,3.5-13.8,13.7-10.3,22.9
		c0.7,2,1.8,3.7,3.1,5.2l-23.2,8.8c-6.1,2.3-9.2,9.1-6.9,15.2l0.9,2.5l-58.2,22c0,0,0,0,0,0c-0.1,0-0.2,0.1-0.3,0.1
		c-0.1,0-0.1,0.1-0.2,0.1c-0.1,0-0.1,0.1-0.2,0.1c-4,1.9-5.9,6.6-4.3,10.7l109.9,291.1c1.7,4.4,6.6,6.7,11,5l32.1-12.1l184-69.5
		c4.4-1.7,6.7-6.6,5-11l-99.3-263l-10.6-28.1C300,82.5,295.4,80.3,291.2,81.5z M172.5,96.2c4-1.5,8.4,0.5,9.9,4.5
		c1.5,4-0.5,8.4-4.5,9.9c-4,1.5-8.4-0.5-9.9-4.5C166.5,102.1,168.5,97.7,172.5,96.2z"/>
	<g>
		<path fill="#8C3517" d="M295.1,83.8L405,374.9c1.7,4.4-0.6,9.4-5,11l-216.1,81.6c-4.4,1.7-9.4-0.6-11-5L62.9,171.4
			c-1.6-4.3,0.5-9.1,4.7-10.9c0.1,0,0.2-0.1,0.3-0.1l216.1-81.6c0.1,0,0.2-0.1,0.3-0.1C288.7,77.2,293.5,79.5,295.1,83.8z"/>
		<path fill="#D25022" d="M398.5,381.9l-216.1,81.6c-3.3,1.3-7-0.4-8.3-3.7L64.2,168.7c-1.3-3.3,0.4-7,3.7-8.3l216.1-81.6
			c3.3-1.3,7,0.4,8.3,3.7l109.9,291.1C403.5,376.9,401.8,380.7,398.5,381.9z"/>
		<path fill="#EDEDED" d="M305.7,111.9l99.3,263c1.7,4.4-0.6,9.4-5,11l-184,69.5l-30.3-13.7l95-341.2L305.7,111.9z"/>
		<g>
			<polygon fill="#FFFFFA" points="280.7,100.6 84.8,174.5 185.7,441.7 350.6,379.5 369.9,336.8 			"/>
			<polygon fill="#E0E0CE" points="350.6,379.5 369.9,336.8 338.9,348.5 			"/>
		</g>
		<g>
			<path fill="#FFD800" d="M209.7,91.4l-23.2,8.8c0-2-0.4-4-1.1-6c-3.5-9.2-13.7-13.8-22.9-10.3c-9.2,3.5-13.8,13.7-10.3,22.9
				c0.7,2,1.8,3.7,3.1,5.2l-23.2,8.8c-6.1,2.3-9.2,9.1-6.9,15.2l9.7,25.6l99.7-37.6l-9.7-25.6C222.6,92.2,215.8,89.1,209.7,91.4z
				 M171.5,107.7c-4,1.5-8.4-0.5-9.9-4.5c-1.5-4,0.5-8.4,4.5-9.9c4-1.5,8.4,0.5,9.9,4.5C177.5,101.7,175.5,106.2,171.5,107.7z"/>
			<path fill="#F6F6F6" d="M128.1,143.7l6.7,17.8l99.7-37.6l-6.7-17.8L128.1,143.7z"/>
			<path fill="#DADADA" d="M132.5,155.4l2.3,6.2l99.7-37.6l-2.3-6.2L132.5,155.4z"/>
		</g>
		
			<rect x="118.9" y="159.5" transform="matrix(0.9355 -0.3532 0.3532 0.9355 -46.4551 79.2282)" fill="#C3D5DF" width="149.8" height="14.8"/>
		<g>
			<g>
				
					<rect x="185.7" y="192.7" transform="matrix(0.9355 -0.3532 0.3532 0.9355 -53.9981 96.6684)" fill="#DAE3E8" width="104.4" height="7.2"/>
				
					<rect x="191.5" y="210.6" transform="matrix(0.9355 -0.3532 0.3532 0.9355 -60.7874 95.3202)" fill="#DAE3E8" width="78.4" height="7.2"/>
				
					<rect x="181.4" y="183.9" transform="matrix(0.9355 -0.3532 0.3532 0.9355 -51.9911 90.029)" fill="#8BCFCA" width="78.4" height="7.2"/>
			</g>
			<g>
				<path fill="#ED1C24" d="M155.9,213.7c-1.5,1.6-6.8,15.7-10,22.6l-5.3-2.4c-0.7-0.4-2.2-1.7-2.8-0.3l-0.6,2.6
					c-0.5,1.4,1.1,2.9,2.1,3.2l8.9,4.8c0.9,0.3,2.1-0.6,2.6-2.1l0.4-1.2l0,0l6.7-26.1C158.4,213.3,159.6,210,155.9,213.7z"/>
				<g>
					<path fill="#DAE3E8" d="M169.8,242.8l-26.4,10c-2.8,1.1-5.9-0.4-7-3.1l-10-26.4c-1.1-2.8,0.4-5.9,3.1-7l26.4-10
						c2.8-1.1,5.9,0.4,7,3.1l10,26.4C173.9,238.6,172.5,241.8,169.8,242.8z M130.7,219.2c-1.2,0.4-1.8,1.8-1.3,3l10,26.4
						c0.4,1.2,1.8,1.8,3,1.3l26.4-10c1.2-0.4,1.8-1.8,1.3-3l-10-26.4c-0.4-1.2-1.8-1.8-3-1.3L130.7,219.2z"/>
				</g>
			</g>
			<g>
				
					<rect x="205.4" y="245" transform="matrix(0.9355 -0.3532 0.3532 0.9355 -71.2089 107.0212)" fill="#DAE3E8" width="104.4" height="7.2"/>
				
					<rect x="211.3" y="262.9" transform="matrix(0.9355 -0.3532 0.3532 0.9355 -77.9982 105.673)" fill="#DAE3E8" width="78.4" height="7.2"/>
				
					<rect x="201.2" y="236.2" transform="matrix(0.9355 -0.3532 0.3532 0.9355 -69.2019 100.3818)" fill="#8BCFCA" width="78.4" height="7.2"/>
			</g>
			<g>
				<path fill="#ED1C24" d="M175.7,266c-1.5,1.6-6.8,15.7-10,22.6l-5.3-2.4c-0.7-0.4-2.2-1.7-2.8-0.3l-0.6,2.6
					c-0.5,1.4,1.1,2.9,2.1,3.2l8.9,4.8c0.9,0.3,2.1-0.6,2.6-2.1l0.4-1.2l0,0l6.7-26.1C178.2,265.6,179.4,262.4,175.7,266z"/>
				<g>
					<path fill="#DAE3E8" d="M189.5,295.1l-26.4,10c-2.8,1.1-5.9-0.4-7-3.1l-10-26.4c-1.1-2.8,0.4-5.9,3.1-7l26.4-10
						c2.8-1.1,5.9,0.4,7,3.1l10,26.4C193.7,291,192.3,294.1,189.5,295.1z M150.4,271.5c-1.2,0.4-1.8,1.8-1.3,3l10,26.4
						c0.4,1.2,1.8,1.8,3,1.3l26.4-10c1.2-0.4,1.8-1.8,1.3-3l-10-26.4c-0.4-1.2-1.8-1.8-3-1.3L150.4,271.5z"/>
				</g>
			</g>
			<g>
				
					<rect x="225.2" y="297.4" transform="matrix(0.9355 -0.3532 0.3532 0.9355 -88.4197 117.3739)" fill="#DAE3E8" width="104.4" height="7.2"/>
				
					<rect x="231.1" y="315.3" transform="matrix(0.9355 -0.3532 0.3532 0.9355 -95.209 116.0258)" fill="#DAE3E8" width="78.4" height="7.2"/>
				
					<rect x="221" y="288.5" transform="matrix(0.9355 -0.3532 0.3532 0.9355 -86.4127 110.7345)" fill="#8BCFCA" width="78.4" height="7.2"/>
			</g>
			<g>
				<g>
					<path fill="#DAE3E8" d="M209.3,347.5l-26.4,10c-2.8,1.1-5.9-0.4-7-3.1l-10-26.4c-1.1-2.8,0.4-5.9,3.1-7l26.4-10
						c2.8-1.1,5.9,0.4,7,3.1l10,26.4C213.5,343.3,212.1,346.4,209.3,347.5z M170.2,323.8c-1.2,0.4-1.8,1.8-1.3,3l10,26.4
						c0.4,1.2,1.8,1.8,3,1.3l26.4-10c1.2-0.4,1.8-1.8,1.3-3l-10-26.4c-0.4-1.2-1.8-1.8-3-1.3L170.2,323.8z"/>
				</g>
			</g>
			<g>
				
					<rect x="244.9" y="349.7" transform="matrix(0.9355 -0.3532 0.3532 0.9355 -105.6305 127.7267)" fill="#DAE3E8" width="104.4" height="7.2"/>
				
					<rect x="250.8" y="367.6" transform="matrix(0.9355 -0.3532 0.3532 0.9355 -112.4198 126.3785)" fill="#DAE3E8" width="78.4" height="7.2"/>
				
					<rect x="240.7" y="340.9" transform="matrix(0.9355 -0.3532 0.3532 0.9355 -103.6235 121.0873)" fill="#8BCFCA" width="78.4" height="7.2"/>
			</g>
			<g>
				<g>
					<path fill="#DAE3E8" d="M229,399.8l-26.4,10c-2.8,1.1-5.9-0.4-7-3.1l-10-26.4c-1.1-2.8,0.4-5.9,3.1-7l26.4-10
						c2.8-1.1,5.9,0.4,7,3.1l10,26.4C233.2,395.6,231.8,398.7,229,399.8z M189.9,376.2c-1.2,0.4-1.8,1.8-1.3,3l10,26.4
						c0.4,1.2,1.8,1.8,3,1.3l26.4-10c1.2-0.4,1.8-1.8,1.3-3l-10-26.4c-0.4-1.2-1.8-1.8-3-1.3L189.9,376.2z"/>
				</g>
			</g>
		</g>
	</g>
</g>
<g>
	<path fill="#C6C6C6" d="M404.9,107.8c-0.3-1.3-0.9-2.5-2-3.6l-6.3-6.3c-2.4-2.4-6-2.8-7.9-0.9l-10.4,10.4l-4.7,4.7L268.6,217
		l-11.5,21.6l0,0l0,0l-0.2,0.3c0,0,0,0,0,0l-3.3,6.3c0,0.1-0.1,0.2,0,0.3c0.1,0.4,0.4,0.8,0.6,1.1s0.6,0.5,1.1,0.6
		c0.1,0,0.2,0,0.3,0l6.3-3.3l0.1-0.1l0.1,0l0.1,0l0,0l0,0l16.4-8.7l0,0l5.2-2.7l0,0l104.9-104.9l4.7-4.7l0,0l0,0l10.4-10.4
		C404.9,111,405.2,109.4,404.9,107.8z"/>
	<g>
		
			<rect x="251.4" y="158.4" transform="matrix(0.7071 -0.7071 0.7071 0.7071 -24.2136 279.7825)" fill-rule="evenodd" clip-rule="evenodd" fill="#F99F05" width="148.4" height="21.5"/>
		<path fill-rule="evenodd" clip-rule="evenodd" fill="#F0B16C" d="M280.8,229.2l-5.2,2.7l0,0l-16.4,8.7l0,0l0,0l-0.2,0.1l-0.1,0.1
			l-6.3,3.3c-0.1,0-0.2,0.1-0.3,0c-0.4-0.1-0.8-0.4-1.1-0.6s-0.5-0.6-0.6-1.1c0-0.1,0-0.2,0-0.3l3.3-6.3l0.2-0.3l0,0l8.7-16.4l0,0
			l2.7-5.2L280.8,229.2z"/>
		<path fill-rule="evenodd" clip-rule="evenodd" fill="#ED1C24" d="M258.8,240.8l-6.3,3.3c-0.1,0-0.2,0.1-0.3,0
			c-0.4-0.1-0.8-0.4-1.1-0.6s-0.5-0.6-0.6-1.1c0-0.1,0-0.2,0-0.3l3.3-6.3c0.2,0.2,0.5,0.4,0.7,0.6c0.6,0.6,1.3,1.1,1.9,1.8
			c0.6,0.6,1.2,1.3,1.8,1.9C258.5,240.4,258.6,240.6,258.8,240.8z"/>
		<polygon fill="#58595B" points="370.5,109.1 265.6,214 254.1,235.6 375.5,114.1 		"/>
		<path fill="#414042" d="M254.1,235.6l121.5-121.5l5.1,5.1L259.1,240.7l-0.3,0.2c-0.7-0.9-1.5-1.7-2.4-2.6
			c-0.8-0.8-1.7-1.6-2.6-2.4L254.1,235.6z"/>
		
			<rect x="377.1" y="103.6" transform="matrix(0.7071 -0.7071 0.7071 0.7071 30.5971 302.4859)" fill="#D1D3D4" width="6.7" height="21.5"/>
		<path fill="#F85A68" d="M399.9,101.2l-6.3-6.3c-2.4-2.4-6-2.8-7.9-0.9l-10.4,10.4l15.2,15.2l10.4-10.4
			C402.7,107.2,402.3,103.6,399.9,101.2z"/>
		<path fill="#EDEDED" d="M400.8,109.1l-10.4,10.4l-7.6-7.6L396.7,98l3.2,3.2C402.3,103.6,402.7,107.2,400.8,109.1z"/>
	</g>
</g>
<g>
	<g>
		<rect x="215.8" y="276.4" fill="#FF892E" width="153.1" height="107.6"/>
		<g>
			<path fill="#FFFFFF" d="M326.5,316.8c0-5.1,2.8-7.9,7-7.9c4.2,0,7,2.9,7,7.9c0,5.1-2.8,8.1-7,8.1
				C329.3,324.9,326.5,321.9,326.5,316.8z M336.9,316.8c0-3.1-1.3-4.9-3.4-4.9c-2.1,0-3.4,1.9-3.4,4.9c0,3.1,1.3,5.1,3.4,5.1
				C335.6,321.9,336.9,319.9,336.9,316.8z"/>
			<path fill="#FFFFFF" d="M343.4,309.2h3.5v15.5h-3.5V309.2z"/>
			<path fill="#FFFFFF" d="M350.6,309.2h3.5v12.5h6.1v2.9h-9.6V309.2z"/>
		</g>
		<g>
			<path fill="#FFFFFF" d="M319.9,330.6c0,15.3-12.4,27.6-27.6,27.6c-15.3,0-27.6-12.4-27.6-27.6c0-15.3,12.4-27.6,27.6-27.6
				C307.6,303,319.9,315.3,319.9,330.6z"/>
		</g>
		<g>
			<path fill="#306B8C" d="M292.3,306.4c13.4,0,24.2,10.9,24.2,24.2c0,13.4-10.9,24.2-24.2,24.2c-13.4,0-24.2-10.9-24.2-24.2
				C268.1,317.2,279,306.4,292.3,306.4L292.3,306.4z M292.3,303c-15.3,0-27.6,12.4-27.6,27.6c0,15.3,12.4,27.6,27.6,27.6
				c15.3,0,27.6-12.4,27.6-27.6C319.9,315.3,307.6,303,292.3,303L292.3,303z"/>
		</g>
		<g>
			<path fill="#1A1D2E" d="M292.3,315c0,0-19.3,28.4,0,28.4V315z"/>
			<path fill="#1F5887" d="M292.3,315v28.4C311.6,343.4,292.3,315,292.3,315z M298.2,335.7c-0.7,0.1-1.4-1-1.6-2.4
				c-0.2-1.4,0.2-2.7,0.9-2.8c0.7-0.1,1.4,1,1.6,2.4C299.3,334.4,298.9,335.6,298.2,335.7z"/>
		</g>
		<rect x="215.8" y="330.6" opacity="0.15" width="153.1" height="53.5"/>
		<path fill="#3D91A6" d="M215.8,384.1h153.1H215.8z"/>
		<path fill="#B05F1F" d="M374.7,390h-0.1c-3.2,0-5.7-2.6-5.7-5.7V277c0-3.2,2.6-5.7,5.7-5.7h0.1c3.2,0,5.7,2.6,5.7,5.7v107.2
			C380.5,387.4,377.9,390,374.7,390z"/>
		<path fill="#B05F1F" d="M210,390h-0.1c-3.2,0-5.7-2.6-5.7-5.7V277c0-3.2,2.6-5.7,5.7-5.7h0.1c3.2,0,5.7,2.6,5.7,5.7v107.2
			C215.8,387.4,213.2,390,210,390z"/>
		<path fill="#FF892E" d="M380.8,384.1h-0.4V276.4h0.4c20.4,0,24.2,14.2,24.2,31.8v44C405,369.9,401.2,384.1,380.8,384.1z"/>
		<path opacity="0.15" d="M380.8,384.1h-0.4v-53.5H405v21.7C405,369.9,401.2,384.1,380.8,384.1z"/>
		<path fill="#FF892E" d="M203.8,276.4h0.4v107.6h-0.4c-20.4,0-24.2-14.2-24.2-31.8v-44C179.6,290.7,183.4,276.4,203.8,276.4z"/>
		<path opacity="0.15" d="M203.8,384.1h0.4v-53.5h-24.6v21.7C179.6,369.9,183.4,384.1,203.8,384.1z"/>
		<rect x="270.4" y="271.2" fill="#B05F1F" width="43.9" height="5.2"/>
		<path fill="#FF892E" d="M317.3,262.8h-50c-2.3,0-4.2,1.9-4.2,4.2v0.1c0,2.3,1.9,4.2,4.2,4.2h50c2.3,0,4.2-1.9,4.2-4.2V267
			C321.5,264.7,319.6,262.8,317.3,262.8z"/>
		<path fill="#1A1D2E" d="M252.7,267L252.7,267c-1.1,0-1.9,0.9-1.9,1.9v4.7h-25v-4.7c0-1.1-0.9-1.9-1.9-1.9h0
			c-1.1,0-1.9,0.9-1.9,1.9v78.2c0,1.1,0.9,1.9,1.9,1.9h0c1.1,0,1.9-0.9,1.9-1.9v-3.7h25v3.7c0,1.1,0.9,1.9,1.9,1.9h0
			c1.1,0,1.9-0.9,1.9-1.9v-78.2C254.6,267.9,253.7,267,252.7,267z M250.7,275.6v11.7h-25v-11.7H250.7z M225.7,314.4v-11.7h25v11.7
			H225.7z M250.7,316.3v11.7h-25v-11.7H250.7z M225.7,300.8v-11.7h25v11.7H225.7z M225.7,341.5v-11.7h25v11.7H225.7z"/>
	</g>
	<g>
		<polygon fill="#0A0B12" points="226.3,429.9 210.8,429.9 201.1,411.5 235.9,411.5 		"/>
		<polygon fill="#0A0B12" points="374.4,429.9 358.9,429.9 349.2,411.5 384.1,411.5 		"/>
		<rect x="217.8" y="384.1" fill="#1A1D2E" width="148.9" height="12.7"/>
		<rect x="169.3" y="396.8" fill="#3D91A6" width="246" height="8.9"/>
		<rect x="196.4" y="405.7" fill="#1A1D2E" width="191.9" height="5.8"/>
		<g>
			<path fill="#20485E" d="M214.8,429.9c0,12.5-10.2,22.7-22.7,22.7c-12.5,0-22.7-10.2-22.7-22.7c0-12.5,10.2-22.7,22.7-22.7
				C204.6,407.2,214.8,417.3,214.8,429.9z"/>
			<path fill="#1A1D2E" d="M192,447.3c-9.6,0-17.4-7.8-17.4-17.4c0-9.6,7.8-17.4,17.4-17.4c9.6,0,17.4,7.8,17.4,17.4
				C209.4,439.5,201.6,447.3,192,447.3z M192,414.9c-8.3,0-15,6.7-15,15c0,8.3,6.7,15,15,15s15-6.7,15-15
				C207,421.6,200.3,414.9,192,414.9z"/>
			<path fill="#1A1D2E" d="M198.4,429.9c0,3.5-2.8,6.3-6.3,6.3c-3.5,0-6.3-2.8-6.3-6.3c0-3.5,2.8-6.3,6.3-6.3
				C195.5,423.5,198.4,426.4,198.4,429.9z"/>
		</g>
		<g>
			<path fill="#20485E" d="M268.2,429.9c0,12.5-10.2,22.7-22.7,22.7c-12.5,0-22.7-10.2-22.7-22.7c0-12.5,10.2-22.7,22.7-22.7
				C258,407.2,268.2,417.3,268.2,429.9z"/>
			<path fill="#1A1D2E" d="M245.5,447.3c-9.6,0-17.4-7.8-17.4-17.4c0-9.6,7.8-17.4,17.4-17.4c9.6,0,17.4,7.8,17.4,17.4
				C262.9,439.5,255.1,447.3,245.5,447.3z M245.5,414.9c-8.3,0-15,6.7-15,15c0,8.3,6.7,15,15,15c8.3,0,15-6.7,15-15
				C260.5,421.6,253.8,414.9,245.5,414.9z"/>
			<path fill="#1A1D2E" d="M251.8,429.9c0,3.5-2.8,6.3-6.3,6.3c-3.5,0-6.3-2.8-6.3-6.3c0-3.5,2.8-6.3,6.3-6.3
				C249,423.5,251.8,426.4,251.8,429.9z"/>
		</g>
		<g>
			<path fill="#20485E" d="M361.9,429.9c0,12.5-10.2,22.7-22.7,22.7c-12.5,0-22.7-10.2-22.7-22.7c0-12.5,10.2-22.7,22.7-22.7
				C351.7,407.2,361.9,417.3,361.9,429.9z"/>
			<path fill="#1A1D2E" d="M339.2,447.3c-9.6,0-17.4-7.8-17.4-17.4c0-9.6,7.8-17.4,17.4-17.4c9.6,0,17.4,7.8,17.4,17.4
				C356.6,439.5,348.8,447.3,339.2,447.3z M339.2,414.9c-8.3,0-15,6.7-15,15c0,8.3,6.7,15,15,15c8.3,0,15-6.7,15-15
				C354.2,421.6,347.4,414.9,339.2,414.9z"/>
			<path fill="#1A1D2E" d="M345.5,429.9c0,3.5-2.8,6.3-6.3,6.3s-6.3-2.8-6.3-6.3c0-3.5,2.8-6.3,6.3-6.3S345.5,426.4,345.5,429.9z"/>
		</g>
		<g>
			<path fill="#20485E" d="M415.3,429.9c0,12.5-10.2,22.7-22.7,22.7c-12.5,0-22.7-10.2-22.7-22.7c0-12.5,10.2-22.7,22.7-22.7
				C405.2,407.2,415.3,417.3,415.3,429.9z"/>
			<path fill="#1A1D2E" d="M392.6,447.3c-9.6,0-17.4-7.8-17.4-17.4c0-9.6,7.8-17.4,17.4-17.4c9.6,0,17.4,7.8,17.4,17.4
				C410,439.5,402.2,447.3,392.6,447.3z M392.6,414.9c-8.3,0-15,6.7-15,15c0,8.3,6.7,15,15,15s15-6.7,15-15
				C407.6,421.6,400.9,414.9,392.6,414.9z"/>
			<path fill="#1A1D2E" d="M398.9,429.9c0,3.5-2.8,6.3-6.3,6.3c-3.5,0-6.3-2.8-6.3-6.3c0-3.5,2.8-6.3,6.3-6.3
				C396.1,423.5,398.9,426.4,398.9,429.9z"/>
		</g>
		<polygon fill="#1A1D2E" points="435.4,411.6 423,404.3 423,397.8 435.4,390.5 		"/>
		<rect x="415.3" y="397.8" fill="#0A0B12" width="7.7" height="6.3"/>
		<polygon fill="#1A1D2E" points="149.3,390.5 161.7,397.8 161.7,404.3 149.3,411.6 		"/>
		<rect x="161.7" y="398" fill="#0A0B12" width="7.7" height="6.3"/>
	</g>
</g>
</svg>
