<?xml version="1.0" encoding="utf-8"?>
<!-- Generator: Adobe Illustrator 24.1.2, SVG Export Plug-In . SVG Version: 6.00 Build 0)  -->
<svg version="1.1" id="Layer_1" xmlns="http://www.w3.org/2000/svg" xmlns:xlink="http://www.w3.org/1999/xlink" x="0px" y="0px"
	 width="512px" height="512px" viewBox="0 0 512 512" enable-background="new 0 0 512 512" xml:space="preserve">
<circle fill="#FFFFFF" cx="256" cy="256" r="256"/>
<g>
	<defs>
		<circle id="SVGID_1_" cx="256" cy="256" r="256"/>
	</defs>
	<clipPath id="SVGID_2_">
		<use xlink:href="#SVGID_1_"  overflow="visible"/>
	</clipPath>
	<g clip-path="url(#SVGID_2_)">
		<path fill="#F8BD83" d="M509,314.8c0,0,71.5,94.3,86.3,142.2c14.8,47.9,3.6,136.4,3.6,136.4l-96.2,22.8c0,0-41.5-77.1-40.5-92.1
			c1-14.9,3.6-181,9.1-183.5C476.7,338.2,509,314.8,509,314.8z"/>
		<path fill="#F7AC6F" d="M539,370c0,0,9.5,51,5.6,70.7c-3.9,19.7-15.1,25.1-22.9,22.1c-7.8-3-36.3-55.8-36.3-55.8L539,370z"/>
		<path fill="#F7AC6F" d="M494.8,420.5l-49,56.4c-7.5,8.7-20.8,9.6-29.5,2.1l0,0c-8.7-7.5-9.6-20.8-2.1-29.5l49-56.4
			c7.5-8.7,20.8-9.6,29.5-2.1l0,0C501.4,398.6,502.3,411.8,494.8,420.5z"/>
		<path fill="#F7AC6F" d="M473.5,388.3l-49,56.4c-7.5,8.7-20.8,9.6-29.5,2.1l0,0c-8.7-7.5-9.6-20.8-2.1-29.5l49-56.4
			c7.5-8.7,20.8-9.6,29.5-2.1l0,0C480.2,366.3,481.1,379.6,473.5,388.3z"/>
		<g>
			<g>
				<path fill="#006F8A" d="M349,217.8l211.3,108.6c4,2.1,5.6,7,3.5,11.1l-60,116.7c-2.1,4-7,5.6-11.1,3.6L281.5,349.1
					c-4-2.1-5.6-7-3.6-11.1l60-116.7C340,217.3,344.9,215.7,349,217.8z"/>
				<path fill="#3A90A5" d="M349,217.8l211.3,108.6c2.5,1.3,4.1,3.7,4.4,6.3c-0.8-1.3-1.9-2.5-3.4-3.3L350,220.8
					c-4-2.1-9-0.5-11.1,3.6l-60,116.7c-0.8,1.5-1,3.2-0.8,4.7c-1.3-2.3-1.5-5.2-0.2-7.8l60-116.7C340,217.3,344.9,215.7,349,217.8z"
					/>
				
					<linearGradient id="SVGID_3_" gradientUnits="userSpaceOnUse" x1="165.6672" y1="84.0235" x2="35.3996" y2="168.8995" gradientTransform="matrix(-0.8894 -0.4572 -0.4572 0.8894 572.8356 279.5215)">
					<stop  offset="0" style="stop-color:#B3B3B3"/>
					<stop  offset="0.1626" style="stop-color:#C2C2C2"/>
					<stop  offset="0.4396" style="stop-color:#D6D6D6"/>
					<stop  offset="0.7185" style="stop-color:#E2E2E2"/>
					<stop  offset="1" style="stop-color:#E6E6E6"/>
				</linearGradient>
				<path fill="url(#SVGID_3_)" d="M491.8,454.7c4,2.1,9,0.5,11.1-3.6l60-116.7c0.8-1.5,1-3.2,0.9-4.7c1.3,2.3,1.5,5.3,0.2,7.8
					l-60,116.7c-2.1,4-7,5.6-11.1,3.6L281.5,349.1c-2.5-1.3-4.1-3.7-4.4-6.3c0.8,1.3,1.9,2.5,3.4,3.3L491.8,454.7z"/>
			</g>
			<path fill="#3A90A5" d="M563.9,337.5l-60,116.7c-0.9,1.7-2.2,2.9-3.8,3.6c-60.2-47.1-87.7-125-71-198.9l131.3,67.5
				C564.3,328.5,565.9,333.4,563.9,337.5z"/>
			<g>
				<g>
					<path fill="#CCE2E8" d="M388,328.6c4.5,2.3,10,0.5,12.3-3.9c2.3-4.5,0.5-10-3.9-12.3c-4.5-2.3-10-0.5-12.3,3.9
						C381.8,320.8,383.6,326.3,388,328.6z"/>
					<g>
						<path fill="#CCE2E8" d="M359.5,303.7c7.9-15.4,23-16.2,23.7-16.2c3.7-0.1,6.9,2.8,7,6.5c0,1.2-0.2,2.4-0.7,3.4
							c-1.1,2.1-3.2,3.6-5.8,3.7c-0.1,0-7.8,0.5-12.1,8.8c-4.2,8.1-0.3,14.7-0.1,15.1c1.4,2.1,1.4,4.7,0.3,6.8
							c-0.5,1-1.3,1.9-2.3,2.6c-3.1,2.1-7.3,1.2-9.4-1.9C359.8,331.8,351.6,319.1,359.5,303.7z"/>
						<path fill="#CCE2E8" d="M333.4,290.3c14.1-27.4,40.4-28.7,41.6-28.7c3.7-0.1,6.9,2.8,7,6.5c0.1,1.2-0.2,2.4-0.7,3.4
							c-1.1,2.1-3.2,3.6-5.7,3.7c-0.8,0-19.7,1.2-30,21.4c-10.3,20.1-0.4,36.1,0.1,36.9c1.4,2.1,1.4,4.7,0.4,6.8
							c-0.5,1-1.3,1.9-2.3,2.6c-3.1,2.1-7.3,1.2-9.4-1.9C333.7,339.9,319.4,317.7,333.4,290.3z"/>
					</g>
				</g>
			</g>
		</g>
		<path fill="#F8BD83" d="M493.4,594.1c0,0-36.6-39.9-43.4-68.8c-6.9-28.9,7.8-76.7,3.8-98.1c-2.3-12.4-11.3-35.4-11.9-54.9
			c-0.6-18.9,6-29.9,15.5-32.1c8.9-2.1,19.2,6.6,25.6,23c7.5,19.1,7.2,39.4,10.4,50.1c7.6,25.2,36.2,52.4,46.9,88.3
			c10.8,35.9,9.3,72.4,0.7,74.4C532.5,578,519.3,608.3,493.4,594.1z"/>
		<path fill="#FACC9F" d="M462.3,377.9l4.3-1c6.8-1.6,11-8.5,9.4-15.3l-3.3-13.8c-1.6-6.8-8.5-11-15.3-9.4l-4.3,1
			c-6.8,1.6-11,8.5-9.4,15.3l3.3,13.8C448.7,375.3,455.5,379.5,462.3,377.9z"/>
		<g>
			<path fill="#F59A50" d="M482.7,398.8c0,0-6-2-13.5,0.2c-7.5,2.2-11.2,6.9-11.2,6.9s3.8-2.9,11.8-5.3
				C477.9,398.4,482.7,398.8,482.7,398.8z"/>
			<path fill="#F59A50" d="M483.8,402.8c0,0-6-2-13.5,0.2c-7.5,2.2-11.2,6.9-11.2,6.9s3.8-2.9,11.8-5.3
				C479,402.3,483.8,402.8,483.8,402.8z"/>
		</g>
	</g>
	<g clip-path="url(#SVGID_2_)">
		<path fill-rule="evenodd" clip-rule="evenodd" fill="#677980" d="M-200.3,67H112c2.4,0,4.4,1.9,4.4,4.3v10.6c0,2.4-2,4.4-4.4,4.4
			h-312.3c-2.3,0-4.3-2-4.3-4.4V71.3C-204.6,68.9-202.6,67-200.3,67L-200.3,67z"/>
		<path fill-rule="evenodd" clip-rule="evenodd" fill="#677980" d="M-240.7,401.4h476.6c2.3,0,4.3,2,4.3,4.4v10.6
			c0,2.4-2,4.3-4.3,4.3h-476.6c-2.4,0-4.3-1.9-4.3-4.3v-10.6C-245,403.3-243.1,401.4-240.7,401.4L-240.7,401.4z"/>
		<rect x="-189" y="86.4" fill-rule="evenodd" clip-rule="evenodd" fill="#FFB71D" width="289.8" height="315"/>
		<rect x="-189" y="86.4" fill-rule="evenodd" clip-rule="evenodd" fill="#FFAB00" width="289.8" height="16.5"/>
		<path fill-rule="evenodd" clip-rule="evenodd" fill="#FDFDFD" d="M-51.8,267.1h152.6V121.6H-51.8c-40,0-72.7,32.8-72.7,72.7l0,0
			C-124.5,234.3-91.7,267.1-51.8,267.1L-51.8,267.1z"/>
		<path fill-rule="evenodd" clip-rule="evenodd" fill="#8DA196" d="M100.8,251.8V136.9H-51.8c-31.6,0-57.4,25.9-57.4,57.4
			c0,31.5,25.8,57.4,57.4,57.4H100.8z"/>
		<g>
			<path fill="#9EB2A7" d="M-51.8,136.9c-3.4,0-6.8,0.4-10,0.9l-23.8,102.9c9.5,6.9,21.2,11.1,33.8,11.1h29.3L3.9,136.9H-51.8z"/>
			<polygon fill="#9EB2A7" points="62,136.9 35.5,251.8 57.9,251.8 84.3,136.9 			"/>
			<polygon fill="#9EB2A7" points="25.3,136.9 -1.2,251.8 12.7,251.8 39.1,136.9 			"/>
		</g>
		<rect x="145.4" y="278.4" fill-rule="evenodd" clip-rule="evenodd" fill="#FFB71D" width="42.7" height="96.2"/>
		<rect x="169.3" y="293.4" fill-rule="evenodd" clip-rule="evenodd" fill="#FA9E00" width="18.8" height="21.8"/>
		<g>
			<rect x="-189" y="344.8" fill="#B94F48" width="289.8" height="16.5"/>
			<rect x="-189" y="300.6" fill="#B94F48" width="289.8" height="23.1"/>
		</g>
		<rect x="132.4" y="374.6" fill-rule="evenodd" clip-rule="evenodd" fill="#FFB71D" width="68.9" height="26.7"/>
		<rect x="145.4" y="365.6" fill-rule="evenodd" clip-rule="evenodd" fill="#FFAB00" width="42.7" height="9"/>
		<path fill-rule="evenodd" clip-rule="evenodd" fill="#677980" d="M164.5,293.1l20.2-24.3l23.3,19.4l-20.2,24.3
			c-5.4,6.4-15,7.3-21.3,2l0,0C160,309.1,159.1,299.6,164.5,293.1L164.5,293.1z"/>
		<path fill-rule="evenodd" clip-rule="evenodd" fill="#EBEBEB" d="M190.7,273.8l100.7-121.3c0.8-0.9,2.2-1.1,3.1-0.3l7.9,6.5
			c0.9,0.8,1.1,2.2,0.3,3.1L202,283.1L190.7,273.8z"/>
		<g>
			<path fill="#B94F48" d="M236.4,218.7c-2.5,3.1-5.1,6.2-7.7,9.3c2.6,0.8,5.1,1.5,7.7,2.2c1.2,2.4,2.4,4.7,3.6,7.2
				c2.5-3.1,5.1-6.2,7.7-9.3c-1.2-2.4-2.4-4.8-3.6-7.2C241.5,220.2,239,219.5,236.4,218.7z"/>
			<polygon fill="#B94F48" points="203.4,258.5 195.7,267.7 203.4,270 207,277.1 214.7,267.8 211.1,260.7 			"/>
			<path fill="#B94F48" d="M219.9,238.6c-2.5,3.1-5.1,6.2-7.7,9.3c2.6,0.7,5.2,1.5,7.8,2.2c1.2,2.4,2.3,4.7,3.5,7.1
				c2.6-3.1,5.2-6.1,7.7-9.3c-1.2-2.4-2.3-4.7-3.5-7.1C225.1,240.1,222.5,239.3,219.9,238.6z"/>
			<polygon fill="#B94F48" points="293.7,161.3 285.9,159.1 278.3,168.4 286,170.6 289.5,177.7 297.2,168.5 			"/>
			<path fill="#B94F48" d="M252.9,198.9c-2.5,3-5.1,6.1-7.7,9.3c2.6,0.7,5.1,1.4,7.7,2.1c1.2,2.4,2.3,4.8,3.5,7.2
				c2.5-3.1,5.1-6.2,7.7-9.3c-1.2-2.4-2.4-4.8-3.5-7.2C258.1,200.3,255.5,199.6,252.9,198.9z"/>
			<path fill="#B94F48" d="M269.5,179c-2.6,3.1-5.2,6.1-7.7,9.3c2.6,0.7,5.1,1.4,7.6,2.2c1.2,2.4,2.4,4.8,3.6,7.2
				c2.5-3,5.1-6.2,7.7-9.3c-1.2-2.4-2.4-4.7-3.6-7.2C274.5,180.5,272.1,179.7,269.5,179z"/>
		</g>
		<g>
			<path fill="#AC4640" d="M219.9,250.1c1.2,2.4,2.3,4.7,3.5,7.1c2.6-3.1,5.2-6.1,7.7-9.3c-1.2-2.4-2.3-4.7-3.5-7.1L219.9,250.1z"/>
			<polygon fill="#AC4640" points="203.4,270 207,277.1 214.7,267.8 211.1,260.7 			"/>
			<path fill="#AC4640" d="M236.4,230.2c1.2,2.4,2.4,4.7,3.6,7.2c2.5-3.1,5.1-6.2,7.7-9.3c-1.2-2.4-2.4-4.8-3.6-7.2L236.4,230.2z"/>
			<polygon fill="#AC4640" points="293.7,161.3 286,170.6 289.5,177.7 297.2,168.5 			"/>
			<path fill="#AC4640" d="M269.4,190.4c1.2,2.4,2.4,4.8,3.6,7.2c2.5-3,5.1-6.2,7.7-9.3c-1.2-2.4-2.4-4.7-3.6-7.2L269.4,190.4z"/>
			<path fill="#AC4640" d="M253,210.3c1.2,2.4,2.3,4.8,3.5,7.2c2.5-3.1,5.1-6.2,7.7-9.3c-1.2-2.4-2.4-4.8-3.5-7.2L253,210.3z"/>
		</g>
		<path fill-rule="evenodd" clip-rule="evenodd" fill="#EBEBEB" d="M171.7,297.5c2.4-2.9,6.6-3.3,9.5-0.9c2.9,2.4,3.3,6.7,0.9,9.5
			c-2.4,2.9-6.7,3.3-9.5,0.9C169.7,304.6,169.3,300.4,171.7,297.5L171.7,297.5z"/>
		<rect x="-189" y="86.4" fill-rule="evenodd" clip-rule="evenodd" fill="#FFAB00" width="45" height="315"/>
		<g>
			<rect x="-189" y="344.8" fill="#A3332C" width="45" height="16.5"/>
			<rect x="-189" y="300.6" fill="#A3332C" width="45" height="23.1"/>
		</g>
	</g>
</g>
</svg>
