<?xml version="1.0" encoding="utf-8"?>
<!-- Generator: Adobe Illustrator 24.1.2, SVG Export Plug-In . SVG Version: 6.00 Build 0)  -->
<svg version="1.1" id="Layer_1" xmlns="http://www.w3.org/2000/svg" xmlns:xlink="http://www.w3.org/1999/xlink" x="0px" y="0px"
	 width="512px" height="512px" viewBox="0 0 512 512" enable-background="new 0 0 512 512" xml:space="preserve">
<g>
	<circle fill="#FFFFFF" cx="256" cy="256" r="256"/>
</g>
<g>
	<image overflow="visible" opacity="0.75" width="416" height="325" xlink:href="587B40A9.png"  transform="matrix(1 0 0 1 55 84)">
	</image>
	<g>
		<g>
			<polygon fill="#FFC837" stroke="#E5AA0A" stroke-width="13.0583" stroke-miterlimit="10" points="381.5,121 381.5,140.2 
				354.5,140.2 354.5,121 70.5,121 70.5,145.6 79.3,145.6 79.3,379.8 432.7,379.8 432.7,145.6 441.5,145.6 441.5,121 			"/>
			<path fill="none" stroke="#000000" stroke-width="1.1987" stroke-linecap="round" stroke-miterlimit="10" d="M359.7,379.7v-11.1
				h16.5v11.1h4V145.6h-4v11.7h-16.5v-11.7h-4v234.1H359.7z M359.7,161.8h16.5v12.7h-16.5V161.8z M359.7,179h16.5v12.7h-16.5V179z
				 M359.7,196.3h16.5V209h-16.5V196.3z M359.7,213.5h16.5v12.7h-16.5V213.5z M359.7,230.7h16.5v12.7h-16.5V230.7z M359.7,248h16.5
				v12.7h-16.5V248z M359.7,265.2h16.5v12.7h-16.5V265.2z M359.7,282.4h16.5v12.7h-16.5V282.4z M359.7,299.7h16.5v12.7h-16.5V299.7z
				 M359.7,316.9h16.5v12.7h-16.5V316.9z M359.7,334.1h16.5v12.7h-16.5V334.1z M359.7,351.3h16.5v12.7h-16.5V351.3z"/>
			<path fill="#F7931E" d="M429.6,118.8c-54.7-10.2-111.1-15.7-168.7-16v-3.6c1.9-0.7,3.3-1.8,3.3-3.1c0-2.1-3.7-3.9-8.1-3.9
				c-4.5,0-8.1,1.8-8.1,3.9c0,1.3,1.3,2.4,3.3,3.1v3.6c-58.1,0.2-114.9,5.7-170.1,16h278.2v15.7h17.5v-15.7H429.6z"/>
			<path opacity="0.5" fill="#FFFFFF" d="M117.6,348.1c0,5.8-2.6,10.6-5.8,10.6h-7.8c-3.2,0-5.8-4.8-5.8-10.6V177.3
				c0-5.8,2.6-10.6,5.8-10.6h7.8c3.2,0,5.8,4.8,5.8,10.6V348.1z M105.8,126.4H96v13.8h9.8V126.4z M123.1,126.4h-9.8v13.8h9.8V126.4z
				 M140.3,126.4h-9.8v13.8h9.8V126.4z M157.5,126.4h-9.8v13.8h9.8V126.4z M174.7,126.4H165v13.8h9.8V126.4z M192,126.4h-9.8v13.8
				h9.8V126.4z M209.2,126.4h-9.8v13.8h9.8V126.4z M226.4,126.4h-9.8v13.8h9.8V126.4z M243.7,126.4h-9.8v13.8h9.8V126.4z
				 M260.9,126.4h-9.8v13.8h9.8V126.4z M278.1,126.4h-9.8v13.8h9.8V126.4z M295.4,126.4h-9.8v13.8h9.8V126.4z M312.6,126.4h-9.8
				v13.8h9.8V126.4z M329.8,126.4H320v13.8h9.8V126.4z M347,126.4h-9.8v13.8h9.8V126.4z M398.8,126.4h-9.8v13.8h9.8V126.4z
				 M416,126.4h-9.8v13.8h9.8V126.4z M88.6,126.4h-9.8v13.8h9.8V126.4z M433.2,126.4h-9.8v13.8h9.8V126.4z"/>
		</g>
	</g>
</g>
<g>
	
		<image overflow="visible" opacity="0.75" width="312" height="303" xlink:href="587B40AB.png"  transform="matrix(1 0 0 1 105 165)">
	</image>
	<g>
		<g>
			<path fill="#FFD782" d="M275.9,440.4h-24.2c-2.7,0-4.8-2.2-4.8-4.8V324.1c0-2.7,2.2-4.8,4.8-4.8h24.2c2.7,0,4.8,2.2,4.8,4.8
				v111.5C280.8,438.3,278.6,440.4,275.9,440.4z"/>
			<path fill="#FFC36E" d="M275.9,440.4h-24.2c-2.7,0-4.8-2.2-4.8-4.8v-82.4c0-2.7,2.2-4.8,4.8-4.8h24.2c2.7,0,4.8,2.2,4.8,4.8v82.4
				C280.8,438.3,278.6,440.4,275.9,440.4z"/>
			<path fill="#C3E678" d="M324.4,440.4h-24.2c-2.7,0-4.8-2.2-4.8-4.8V236.8c0-2.7,2.2-4.8,4.8-4.8h24.2c2.7,0,4.8,2.2,4.8,4.8
				v198.8C329.3,438.3,327.1,440.4,324.4,440.4z"/>
			<path fill="#A5D76E" d="M324.4,440.4h-24.2c-2.7,0-4.8-2.2-4.8-4.8V295c0-2.7,2.2-4.8,4.8-4.8h24.2c2.7,0,4.8,2.2,4.8,4.8v140.6
				C329.3,438.3,327.1,440.4,324.4,440.4z"/>
			<path fill="#00D2FF" d="M179,440.4h-24.2c-2.7,0-4.8-2.2-4.8-4.8v-82.4c0-2.7,2.2-4.8,4.8-4.8H179c2.7,0,4.8,2.2,4.8,4.8v82.4
				C183.8,438.3,181.7,440.4,179,440.4z"/>
			<path fill="#9BE6D2" d="M372.9,440.4h-24.2c-2.7,0-4.8-2.2-4.8-4.8V207.7c0-2.7,2.2-4.8,4.8-4.8h24.2c2.7,0,4.8,2.2,4.8,4.8
				v227.9C377.7,438.3,375.6,440.4,372.9,440.4z"/>
			<path fill="#78D2BE" d="M372.9,440.4h-24.2c-2.7,0-4.8-2.2-4.8-4.8V265.9c0-2.7,2.2-4.8,4.8-4.8h24.2c2.7,0,4.8,2.2,4.8,4.8
				v169.7C377.7,438.3,375.6,440.4,372.9,440.4z"/>
			<path fill="#FF6464" d="M227.5,440.4h-24.2c-2.7,0-4.8-2.2-4.8-4.8V295c0-2.7,2.2-4.8,4.8-4.8h24.2c2.7,0,4.8,2.2,4.8,4.8v140.6
				C232.3,438.3,230.1,440.4,227.5,440.4z"/>
			<path fill="#D2555A" d="M227.5,440.4h-24.2c-2.7,0-4.8-2.2-4.8-4.8V324.1c0-2.7,2.2-4.8,4.8-4.8h24.2c2.7,0,4.8,2.2,4.8,4.8
				v111.5C232.3,438.3,230.1,440.4,227.5,440.4z"/>
			<path fill="#18BDF6" d="M179,440.4h-24.2c-2.7,0-4.8-2.2-4.8-4.8v-53.3c0-2.7,2.2-4.8,4.8-4.8H179c2.7,0,4.8,2.2,4.8,4.8v53.3
				C183.8,438.3,181.7,440.4,179,440.4z"/>
			<g>
				<path fill="#D7DEED" d="M128.1,416.2h-9.7c-2.7,0-4.8-2.2-4.8-4.8l0,0c0-2.7,2.2-4.8,4.8-4.8h9.7V416.2z"/>
				<path fill="#D7DEED" d="M128.1,387.1h-9.7c-2.7,0-4.8-2.2-4.8-4.8l0,0c0-2.7,2.2-4.8,4.8-4.8h9.7V387.1z"/>
				<path fill="#D7DEED" d="M128.1,358h-9.7c-2.7,0-4.8-2.2-4.8-4.8l0,0c0-2.7,2.2-4.8,4.8-4.8h9.7V358z"/>
				<path fill="#D7DEED" d="M128.1,328.9h-9.7c-2.7,0-4.8-2.2-4.8-4.8l0,0c0-2.7,2.2-4.8,4.8-4.8h9.7V328.9z"/>
				<path fill="#D7DEED" d="M128.1,299.8h-9.7c-2.7,0-4.8-2.2-4.8-4.8l0,0c0-2.7,2.2-4.8,4.8-4.8h9.7V299.8z"/>
				<path fill="#D7DEED" d="M128.1,270.8h-9.7c-2.7,0-4.8-2.2-4.8-4.8l0,0c0-2.7,2.2-4.8,4.8-4.8h9.7V270.8z"/>
				<path fill="#D7DEED" d="M128.1,241.7h-9.7c-2.7,0-4.8-2.2-4.8-4.8l0,0c0-2.7,2.2-4.8,4.8-4.8h9.7V241.7z"/>
				<path fill="#D7DEED" d="M128.1,212.6h-9.7c-2.7,0-4.8-2.2-4.8-4.8l0,0c0-2.7,2.2-4.8,4.8-4.8h9.7V212.6z"/>
			</g>
			<path fill="#C7CFE2" d="M128.1,440.4L128.1,440.4c-2.7,0-4.8-2.2-4.8-4.8V178.6c0-2.7,2.2-4.8,4.8-4.8l0,0c2.7,0,4.8,2.2,4.8,4.8
				v256.9C132.9,438.3,130.8,440.4,128.1,440.4z"/>
			<path fill="#AFB9D2" d="M113.5,440.4L113.5,440.4c0-2.7,2.2-4.8,4.8-4.8h271.5c2.7,0,4.8,2.2,4.8,4.8l0,0c0,2.7-2.2,4.8-4.8,4.8
				H118.4C115.7,445.3,113.5,443.1,113.5,440.4z"/>
		</g>
	</g>
</g>
<g>
	<circle fill="#ED374D" cx="254.3" cy="161.7" r="117.1"/>
	<path fill="#C91F3B" d="M254.3,44.6c64.7,0,117.1,52.4,117.1,117.1c0,64.7-52.4,117.1-117.1,117.1"/>
	<path fill="#33363A" d="M254.3,281.7c-66.2,0-120-53.8-120-120s53.8-120,120-120c66.2,0,120,53.8,120,120S320.5,281.7,254.3,281.7z
		 M254.3,47.5c-63,0-114.2,51.2-114.2,114.2c0,63,51.2,114.2,114.2,114.2c63,0,114.2-51.2,114.2-114.2
		C368.6,98.7,317.3,47.5,254.3,47.5z"/>
	<circle fill="#B21B39" cx="254.3" cy="161.7" r="87.9"/>
	<path fill="#A01C35" d="M166.5,161.7c0-48.5,39.3-87.9,87.9-87.9c48.5,0,87.9,39.3,87.9,87.9"/>
	<path fill="#33363A" d="M254.3,252.4c-50,0-90.7-40.7-90.7-90.7S204.3,71,254.3,71s90.7,40.7,90.7,90.7S304.4,252.4,254.3,252.4z
		 M254.3,76.7c-46.9,0-85,38.1-85,85s38.1,85,85,85s85-38.1,85-85S301.2,76.7,254.3,76.7z"/>
	<g>
		<path fill="#D3DEEA" d="M254.3,211.5c-2.3,0-4.5,0.9-6.1,2.5c-1.6,1.6-2.5,3.8-2.5,6.1c0,2.3,0.9,4.5,2.5,6.1
			c1.6,1.6,3.8,2.5,6.1,2.5c2.3,0,4.5-0.9,6.1-2.5c1.6-1.6,2.5-3.8,2.5-6.1c0-2.3-0.9-4.5-2.5-6.1
			C258.8,212.4,256.6,211.5,254.3,211.5z"/>
		<path fill="#D3DEEA" d="M286.9,169.3c0.5-0.6,1-1.3,1.4-1.9c0.3-0.5,0.6-0.9,0.9-1.4c0.4-0.6,0.7-1.2,1-1.7
			c0.3-0.5,0.6-1.1,0.9-1.6c0.3-0.5,0.5-1.1,0.8-1.6c0.3-0.6,0.6-1.2,0.8-1.9c0.2-0.5,0.3-0.9,0.5-1.4c0.3-0.7,0.5-1.4,0.7-2.2
			c0.1-0.2,0.1-0.4,0.2-0.6c1-3.5,1.5-7.2,1.5-10.9c0-11-4.3-21.4-12.1-29.2c-7.8-7.8-18.2-12.1-29.2-12.1c0,0,0,0,0,0
			c-11,0-21.4,4.3-29.2,12.1c-7.8,7.8-12.1,18.2-12.1,29.2c0,1,0.2,2,0.5,2.9l0,0v0c0.1,0.4,0.3,0.7,0.5,1.1c0,0.1,0.1,0.1,0.1,0.2
			c0.2,0.3,0.4,0.7,0.6,1c0,0.1,0.1,0.1,0.1,0.2c0.4,0.5,0.9,1,1.4,1.4c0.1,0.1,0.2,0.2,0.3,0.3c0.2,0.1,0.4,0.3,0.6,0.4
			c0.2,0.1,0.5,0.3,0.7,0.4c0.2,0.1,0.4,0.2,0.6,0.2c0.3,0.1,0.6,0.2,1,0.3c0.2,0,0.3,0.1,0.5,0.1c0.5,0.1,1,0.2,1.6,0.2
			c4.8,0,8.6-3.9,8.6-8.6c0-6.4,2.5-12.5,7.1-17c4.5-4.5,10.6-7,17-7c0,0,0,0,0,0c6.4,0,12.5,2.5,17,7c4.5,4.5,7.1,10.6,7.1,17
			c0,0.8,0,1.6-0.1,2.4c-0.1,0.8-0.2,1.5-0.3,2.3c-0.9,4.7-3.2,8.9-6.6,12.4c-4.5,4.5-10.6,7-17,7c0,0,0,0,0,0
			c-4.8,0-8.6,3.9-8.6,8.6c0,0.1,0,0.2,0,0.4c0,0.1,0,0.3,0,0.4v9.3v12.1c0,4.8,3.9,8.6,8.6,8.6c4.8,0,8.6-3.9,8.6-8.6v-5.1v-9.3
			c7.7-1.6,14.9-5.5,20.6-11.2c0.9-0.9,1.8-1.9,2.6-2.8C286.4,170,286.7,169.6,286.9,169.3z"/>
	</g>
	<g>
		<path fill="#FFFFFF" d="M254.3,206.7c-2.3,0-4.5,0.9-6.1,2.5c-1.6,1.6-2.5,3.8-2.5,6.1c0,2.3,0.9,4.5,2.5,6.1
			c1.6,1.6,3.8,2.5,6.1,2.5c2.3,0,4.5-0.9,6.1-2.5c1.6-1.6,2.5-3.8,2.5-6.1c0-2.3-0.9-4.5-2.5-6.1
			C258.8,207.6,256.6,206.7,254.3,206.7z"/>
		<path fill="#FFFFFF" d="M295.6,139.2c0-11-4.3-21.4-12.1-29.2c-7.8-7.8-18.2-12.1-29.2-12.1c0,0,0,0,0,0c-11,0-21.4,4.3-29.2,12.1
			c-7.8,7.8-12.1,18.2-12.1,29.2c0,4.8,3.9,8.6,8.6,8.6c4.8,0,8.6-3.9,8.6-8.6c0-6.4,2.5-12.5,7.1-17c4.5-4.5,10.6-7,17-7
			c0,0,0,0,0,0c6.4,0,12.5,2.5,17,7c4.5,4.5,7.1,10.6,7.1,17c0,6.4-2.5,12.5-7,17c-4.5,4.5-10.6,7-17,7c0,0,0,0,0,0
			c-4.8,0-8.6,3.9-8.6,8.6c0,0.1,0,0.2,0,0.4c0,0.1,0,0.3,0,0.4V194c0,4.8,3.9,8.6,8.6,8.6c4.8,0,8.6-3.9,8.6-8.6v-14.4
			c7.7-1.6,14.9-5.5,20.6-11.2C291.3,160.6,295.6,150.2,295.6,139.2z"/>
	</g>
	<g>
		<path fill="#D3DEEA" d="M254.3,216c-2.3,0-4.5,0.9-6.1,2.5c-0.4,0.4-0.8,0.9-1.1,1.4c0.3,0.5,0.7,1,1.1,1.4
			c1.6,1.6,3.8,2.5,6.1,2.5c2.3,0,4.5-0.9,6.1-2.5c0.4-0.4,0.8-0.9,1.1-1.4c-0.3-0.5-0.7-1-1.1-1.4C258.8,217,256.6,216,254.3,216z"
			/>
		<path fill="#D3DEEA" d="M283.5,168.4c6.7-6.7,10.8-15.3,11.8-24.6c-1-9.3-5.1-17.9-11.8-24.6c-7.8-7.8-18.2-12.1-29.2-12.1
			c0,0,0,0,0,0c-11,0-21.4,4.3-29.2,12.1c-6.3,6.3-10.2,14.2-11.6,22.8c1.2,3.3,4.3,5.7,8.1,5.7c4.8,0,8.6-3.9,8.6-8.6
			c0-6.4,2.5-12.5,7.1-17c4.5-4.5,10.6-7,17-7c0,0,0,0,0,0c6.4,0,12.5,2.5,17,7c4.5,4.5,7.1,10.6,7.1,17c0,1.6-0.2,3.1-0.4,4.7
			c0.3,1.5,0.4,3.1,0.4,4.6c0,6.4-2.5,12.5-7,17c-4.5,4.5-10.6,7-17,7c0,0,0,0,0,0c-4.8,0-8.6,3.9-8.6,8.6c0,0.1,0,0.2,0,0.4
			c0,0.1,0,0.3,0,0.4V194c0,4.8,3.9,8.6,8.6,8.6c4.8,0,8.6-3.9,8.6-8.6v-5.1v-9.3C270.7,177.9,277.8,174.1,283.5,168.4z"/>
	</g>
</g>
</svg>
