<?xml version="1.0" encoding="utf-8"?>
<!-- Generator: Adobe Illustrator 24.1.2, SVG Export Plug-In . SVG Version: 6.00 Build 0)  -->
<svg version="1.1" id="Layer_1" xmlns="http://www.w3.org/2000/svg" xmlns:xlink="http://www.w3.org/1999/xlink" x="0px" y="0px"
	 width="512px" height="512px" viewBox="0 0 512 512" enable-background="new 0 0 512 512" xml:space="preserve">
<circle fill="#FFFFFF" cx="256" cy="256" r="256"/>
<g>
	<defs>
		<circle id="SVGID_1_" cx="256" cy="256" r="256"/>
	</defs>
	<clipPath id="SVGID_2_">
		<use xlink:href="#SVGID_1_"  overflow="visible"/>
	</clipPath>
	<g clip-path="url(#SVGID_2_)">
		<path fill="#EDEDED" d="M378.6,134.5H37.2c-8.5,0-15.4,5.9-15.4,13.2v282.5c0,7.3,6.9,13.2,15.4,13.2h341.3
			c8.5,0,15.4-5.9,15.4-13.2V147.7C394,140.4,387.1,134.5,378.6,134.5z"/>
		<path fill="#F55A62" d="M378.6,40.2H37.2c-8.5,0-15.4,13.1-15.4,29.3v169.9H394V69.5C394,53.4,387.1,40.2,378.6,40.2z"/>
		<g>
			
				<ellipse transform="matrix(0.9966 -8.272786e-02 8.272786e-02 0.9966 -4.5593 4.8509)" fill="#FFFFFF" cx="56.3" cy="57.4" rx="10.6" ry="10.6"/>
			
				<ellipse transform="matrix(0.9728 -0.2316 0.2316 0.9728 -10.5947 24.6196)" fill="#FFFFFF" cx="99.6" cy="57.4" rx="10.6" ry="10.6"/>
			
				<ellipse transform="matrix(0.9966 -8.272786e-02 8.272786e-02 0.9966 -4.2623 12.0194)" fill="#FFFFFF" cx="142.9" cy="57.4" rx="10.6" ry="10.6"/>
			<circle fill="#FFFFFF" cx="186.2" cy="57.4" r="10.6"/>
			
				<ellipse transform="matrix(0.1227 -0.9924 0.9924 0.1227 144.3788 278.2186)" fill="#FFFFFF" cx="229.6" cy="57.4" rx="10.6" ry="10.6"/>
			<circle fill="#FFFFFF" cx="272.9" cy="57.4" r="10.6"/>
			
				<ellipse transform="matrix(0.1227 -0.9924 0.9924 0.1227 220.3963 364.2151)" fill="#FFFFFF" cx="316.2" cy="57.4" rx="10.6" ry="10.6"/>
			<circle fill="#FFFFFF" cx="359.5" cy="57.4" r="10.6"/>
			<path fill="#2E4C6C" d="M56.3,11.8L56.3,11.8c-4,0-7.3,3.3-7.3,7.3v37.5c0,4,3.3,7.3,7.3,7.3l0,0c4,0,7.3-3.3,7.3-7.3V19.1
				C63.6,15.1,60.3,11.8,56.3,11.8z"/>
			<path fill="#2E4C6C" d="M99.6,11.8c-4,0-7.3,3.3-7.3,7.3v37.5c0,4,3.3,7.3,7.3,7.3c4,0,7.3-3.3,7.3-7.3V19.1
				C106.9,15.1,103.6,11.8,99.6,11.8z"/>
			<path fill="#2E4C6C" d="M142.9,11.8L142.9,11.8c-4,0-7.3,3.3-7.3,7.3v37.5c0,4,3.3,7.3,7.3,7.3l0,0c4,0,7.3-3.3,7.3-7.3V19.1
				C150.2,15.1,146.9,11.8,142.9,11.8z"/>
			<path fill="#2E4C6C" d="M186.2,11.8c-4,0-7.3,3.3-7.3,7.3v37.5c0,4,3.3,7.3,7.3,7.3c4,0,7.3-3.3,7.3-7.3V19.1
				C193.5,15.1,190.3,11.8,186.2,11.8z"/>
			<path fill="#2E4C6C" d="M229.6,11.8c-4,0-7.3,3.3-7.3,7.3v37.5c0,4,3.3,7.3,7.3,7.3c4,0,7.3-3.3,7.3-7.3V19.1
				C236.9,15.1,233.6,11.8,229.6,11.8z"/>
			<path fill="#2E4C6C" d="M272.9,11.8L272.9,11.8c-4,0-7.3,3.3-7.3,7.3v37.5c0,4,3.3,7.3,7.3,7.3l0,0c4,0,7.3-3.3,7.3-7.3V19.1
				C280.2,15.1,276.9,11.8,272.9,11.8z"/>
			<path fill="#2E4C6C" d="M316.2,11.8c-4,0-7.3,3.3-7.3,7.3v37.5c0,4,3.3,7.3,7.3,7.3c4,0,7.3-3.3,7.3-7.3V19.1
				C323.5,15.1,320.2,11.8,316.2,11.8z"/>
			<path fill="#2E4C6C" d="M359.5,11.8L359.5,11.8c-4,0-7.3,3.3-7.3,7.3v37.5c0,4,3.3,7.3,7.3,7.3h0c4,0,7.3-3.3,7.3-7.3V19.1
				C366.8,15.1,363.6,11.8,359.5,11.8z"/>
		</g>
		<g>
			<g>
				<path fill="#FFFFFF" d="M60.7,223.8c-0.6-0.1-1.1-0.2-1.5-0.2c-0.7-0.1-1.2-0.3-1.5-0.7c-0.3-0.3-0.5-0.7-0.5-1.1
					c0-0.6,0.2-1.1,0.7-1.5c0.4-0.3,0.9-0.5,1.6-0.5c1.2,0,2.3,0.4,3.3,1l1.1-1.7c-1.2-0.9-2.7-1.4-4.4-1.4c-1.4,0-2.5,0.4-3.2,1.1
					c-0.8,0.7-1.2,1.7-1.2,2.8c0,1,0.3,1.8,0.9,2.5c0.6,0.7,1.5,1.1,2.6,1.3c0.6,0.1,1.2,0.2,1.8,0.2c1.2,0.2,1.8,0.8,1.8,1.8
					c0,1.2-0.9,1.9-2.7,1.9c-1.5,0-2.8-0.5-3.8-1.3l-1.3,1.5c1.4,1.2,3.2,1.9,5.2,1.9c3.1,0,4.7-1.3,4.7-3.9c0-1-0.3-1.8-0.9-2.5
					C62.9,224.4,61.9,224,60.7,223.8z"/>
				<path fill="#FFFFFF" d="M72.1,227.6c0,0.6-0.2,1.2-0.5,1.5c-0.4,0.4-0.8,0.5-1.4,0.5c-0.6,0-1-0.2-1.4-0.5
					c-0.4-0.4-0.5-0.9-0.5-1.5v-5.7h-1.9v6.4c0,1.1,0.4,1.9,1.1,2.5c0.6,0.6,1.4,0.9,2.2,0.9c1,0,1.9-0.4,2.5-1.1h0v1H74v-9.6h-1.9
					V227.6z"/>
				<path fill="#FFFFFF" d="M83.2,222.6c-0.7-0.6-1.4-0.8-2.2-0.8c-1,0-1.9,0.4-2.5,1.1h0v-1h-1.9v9.6h1.9v-5.7
					c0-0.7,0.2-1.2,0.5-1.5c0.4-0.4,0.8-0.5,1.4-0.5c0.6,0,1,0.2,1.4,0.5c0.4,0.4,0.5,0.9,0.5,1.5v5.7h1.9v-6.4
					C84.2,224,83.8,223.2,83.2,222.6z"/>
			</g>
			<g>
				<polygon fill="#FFFFFF" points="108.9,226.8 105.1,218 103.1,218 103.1,231.5 105.2,231.5 105.2,223.1 105.2,223.1 108,229.5 
					109.7,229.5 112.6,223.1 112.6,223.1 112.6,231.5 114.7,231.5 114.7,218 112.7,218 				"/>
				<path fill="#FFFFFF" d="M123.7,223c-0.3-0.3-0.6-0.6-1.1-0.9c-0.5-0.2-1.1-0.4-1.8-0.4c-0.7,0-1.3,0.1-1.8,0.4
					c-0.5,0.3-0.8,0.5-1.1,0.9c-0.4,0.4-0.6,0.8-0.8,1.3c-0.2,0.5-0.2,1.3-0.2,2.3c0,1,0.1,1.8,0.2,2.3c0.2,0.5,0.4,1,0.8,1.4
					c0.3,0.3,0.6,0.6,1.1,0.8c0.5,0.3,1.1,0.4,1.8,0.4c0.8,0,1.4-0.2,1.8-0.4c0.3-0.1,0.5-0.2,0.6-0.4c0.2-0.1,0.3-0.3,0.5-0.4
					c0.4-0.4,0.7-0.8,0.8-1.4c0.2-0.5,0.2-1.3,0.2-2.3c0-1-0.1-1.8-0.2-2.3C124.4,223.8,124.1,223.4,123.7,223z M122.7,228.1
					c-0.1,0.3-0.2,0.6-0.4,0.8c-0.1,0.2-0.4,0.3-0.6,0.5c-0.3,0.1-0.6,0.2-0.9,0.2c-0.3,0-0.6-0.1-0.9-0.2c-0.3-0.1-0.5-0.3-0.6-0.5
					c-0.2-0.2-0.3-0.5-0.4-0.8c-0.1-0.3-0.1-0.8-0.1-1.5c0-0.7,0-1.2,0.1-1.5c0.1-0.3,0.2-0.6,0.4-0.8c0.2-0.2,0.4-0.4,0.6-0.5
					c0.3-0.1,0.6-0.2,0.9-0.2c0.4,0,0.7,0.1,0.9,0.2c0.3,0.1,0.5,0.3,0.6,0.5c0.2,0.2,0.3,0.5,0.4,0.8c0.1,0.3,0.1,0.8,0.1,1.5
					C122.8,227.3,122.8,227.8,122.7,228.1z"/>
				<path fill="#FFFFFF" d="M133.5,222.6c-0.7-0.6-1.4-0.8-2.2-0.8c-1,0-1.9,0.4-2.5,1.1h0v-1h-1.9v9.6h1.9v-5.7
					c0-0.7,0.2-1.2,0.5-1.5c0.4-0.4,0.8-0.5,1.4-0.5c0.6,0,1,0.2,1.4,0.5c0.4,0.4,0.5,0.9,0.5,1.5v5.7h1.9v-6.4
					C134.4,224,134.1,223.2,133.5,222.6z"/>
			</g>
			<g>
				<polygon fill="#FFFFFF" points="153.4,219.8 157.1,219.8 157.1,231.5 159.2,231.5 159.2,219.8 162.9,219.8 162.9,218 153.4,218 
									"/>
				<path fill="#FFFFFF" d="M168.1,227.6c0,0.6-0.2,1.2-0.5,1.5c-0.4,0.4-0.8,0.5-1.4,0.5c-0.6,0-1-0.2-1.4-0.5
					c-0.4-0.4-0.5-0.9-0.5-1.5v-5.7h-1.9v6.4c0,1.1,0.4,1.9,1.1,2.5c0.6,0.6,1.4,0.9,2.2,0.9c1,0,1.9-0.4,2.5-1.1h0v1h1.9v-9.6h-1.9
					V227.6z"/>
				<path fill="#FFFFFF" d="M176.1,221.7c-0.5,0-0.9,0.1-1.4,0.2c-0.5,0.2-0.9,0.4-1.3,0.8c-0.4,0.4-0.7,0.9-0.9,1.5
					c-0.2,0.6-0.4,1.4-0.4,2.4c0,1,0.1,1.8,0.4,2.4c0.3,0.6,0.6,1.1,1,1.5c0.2,0.2,0.4,0.3,0.7,0.4c0.2,0.1,0.5,0.2,0.7,0.3
					c0.5,0.1,1,0.2,1.5,0.2c1.3,0,2.5-0.5,3.5-1.6l-1.4-1.2c-0.6,0.6-1.3,0.9-2.1,0.9c-0.7,0-1.2-0.2-1.6-0.6
					c-0.4-0.4-0.7-1-0.7-1.8h6v-1.6c0-1.3-0.4-2.3-1.2-3C178.1,222.1,177.2,221.8,176.1,221.7z M174,225.8c0-0.7,0.2-1.3,0.6-1.7
					c0.4-0.4,0.8-0.5,1.4-0.5c0.6,0,1.1,0.2,1.4,0.5c0.4,0.4,0.6,0.9,0.6,1.7H174z"/>
			</g>
			<g>
				<polygon fill="#FFFFFF" points="210,227.6 210,227.6 207.4,218 205.9,218 203.3,227.6 203.2,227.6 201.1,218 199,218 
					202.3,231.5 204,231.5 206.6,221.7 206.7,221.7 209.2,231.5 210.9,231.5 214.3,218 212.1,218 				"/>
				<path fill="#FFFFFF" d="M218.8,221.7c-0.5,0-0.9,0.1-1.4,0.2c-0.5,0.2-0.9,0.4-1.3,0.8c-0.4,0.4-0.7,0.9-0.9,1.5
					c-0.2,0.6-0.4,1.4-0.4,2.4c0,1,0.1,1.8,0.4,2.4c0.3,0.6,0.6,1.1,1,1.5c0.2,0.2,0.4,0.3,0.7,0.4c0.2,0.1,0.5,0.2,0.7,0.3
					c0.5,0.1,1,0.2,1.5,0.2c1.3,0,2.5-0.5,3.5-1.6l-1.4-1.2c-0.6,0.6-1.3,0.9-2.1,0.9c-0.7,0-1.2-0.2-1.6-0.6
					c-0.4-0.4-0.7-1-0.7-1.8h6v-1.6c0-1.3-0.4-2.3-1.2-3C220.8,222.1,219.9,221.8,218.8,221.7z M216.8,225.8c0-0.7,0.2-1.3,0.6-1.7
					c0.4-0.4,0.8-0.5,1.4-0.5c0.6,0,1.1,0.2,1.4,0.5c0.4,0.4,0.6,0.9,0.6,1.7H216.8z"/>
				<path fill="#FFFFFF" d="M230.5,222.9c-0.4-0.3-0.7-0.6-1.1-0.8c-0.4-0.2-0.9-0.3-1.4-0.3c-1.2,0-2,0.5-2.6,1.3
					c-0.3,0.3-0.4,0.7-0.5,1.2c-0.1,0.5-0.2,1.3-0.2,2.5c0,1.1,0.1,1.9,0.2,2.4c0.1,0.5,0.3,0.9,0.5,1.2c0.3,0.4,0.7,0.7,1.1,0.9
					c0.4,0.2,0.9,0.3,1.5,0.4c1,0,1.9-0.4,2.5-1.1v1h1.9V218h-1.9V222.9z M230.5,227.7c0,0.4-0.1,0.7-0.2,1
					c-0.1,0.3-0.3,0.5-0.5,0.7c-0.3,0.2-0.6,0.3-1.1,0.3c-0.5,0-0.8-0.1-1-0.3c-0.3-0.2-0.5-0.4-0.6-0.7c-0.1-0.3-0.2-0.6-0.2-1
					c0-0.3-0.1-0.7-0.1-1.1c0-0.4,0-0.8,0.1-1.1c0-0.3,0.1-0.7,0.2-0.9c0.1-0.3,0.3-0.5,0.6-0.7c0.2-0.2,0.6-0.2,1-0.2
					c0.5,0,0.8,0.1,1.1,0.3c0.3,0.2,0.4,0.4,0.5,0.7c0.1,0.3,0.2,0.6,0.2,0.9c0,0.3,0,0.7,0,1.1C230.5,227,230.5,227.3,230.5,227.7z
					"/>
			</g>
			<g>
				<polygon fill="#FFFFFF" points="251.4,219.8 255.1,219.8 255.1,231.5 257.1,231.5 257.1,219.8 260.8,219.8 260.8,218 251.4,218 
									"/>
				<path fill="#FFFFFF" d="M268.4,222.6c-0.7-0.6-1.4-0.8-2.2-0.8c-1,0-1.9,0.4-2.5,1.1h0V218h-1.9v13.5h1.9v-5.7
					c0-0.7,0.2-1.2,0.5-1.5c0.4-0.4,0.8-0.5,1.4-0.5c0.6,0,1,0.2,1.4,0.5c0.4,0.4,0.5,0.9,0.5,1.5v5.7h1.9v-6.4
					C269.4,224,269.1,223.2,268.4,222.6z"/>
				<path fill="#FFFFFF" d="M277.7,227.6c0,0.6-0.2,1.2-0.5,1.5c-0.4,0.4-0.8,0.5-1.4,0.5c-0.6,0-1-0.2-1.4-0.5
					c-0.4-0.4-0.5-0.9-0.5-1.5v-5.7h-1.9v6.4c0,1.1,0.4,1.9,1.1,2.5c0.6,0.6,1.4,0.9,2.2,0.9c1,0,1.9-0.4,2.5-1.1h0v1h1.9v-9.6h-1.9
					V227.6z"/>
			</g>
			<g>
				<polygon fill="#FFFFFF" points="298.6,231.5 300.6,231.5 300.6,225.7 306.2,225.7 306.2,223.9 300.6,223.9 300.6,219.9 
					307.2,219.9 307.2,218 298.6,218 				"/>
				<path fill="#FFFFFF" d="M310.2,222.9L310.2,222.9l0-1h-1.9v9.6h1.9v-5.8c0-0.7,0.2-1.2,0.6-1.5c0.4-0.3,0.8-0.5,1.3-0.5
					c0.4,0,0.9,0.2,1.3,0.5l1.4-1.7c-0.6-0.5-1.2-0.7-2-0.7C311.7,221.7,310.8,222.1,310.2,222.9z"/>
				<rect x="315.6" y="221.9" fill="#FFFFFF" width="1.9" height="9.6"/>
				<rect x="315.6" y="218" fill="#FFFFFF" width="1.9" height="1.9"/>
			</g>
			<g>
				<path fill="#FFFFFF" d="M342.7,223.8c-0.6-0.1-1.1-0.2-1.5-0.2c-0.7-0.1-1.2-0.3-1.5-0.7c-0.3-0.3-0.5-0.7-0.5-1.1
					c0-0.6,0.2-1.1,0.7-1.5c0.4-0.3,0.9-0.5,1.6-0.5c1.2,0,2.3,0.4,3.3,1l1.1-1.7c-1.2-0.9-2.7-1.4-4.4-1.4c-1.4,0-2.5,0.4-3.2,1.1
					c-0.8,0.7-1.2,1.7-1.2,2.8c0,1,0.3,1.8,0.9,2.5c0.6,0.7,1.5,1.1,2.6,1.3c0.6,0.1,1.2,0.2,1.8,0.2c1.2,0.2,1.8,0.8,1.8,1.8
					c0,1.2-0.9,1.9-2.7,1.9c-1.5,0-2.8-0.5-3.8-1.3l-1.3,1.5c1.4,1.2,3.2,1.9,5.2,1.9c3.1,0,4.7-1.3,4.7-3.9c0-1-0.3-1.8-0.9-2.5
					C344.9,224.4,344,224,342.7,223.8z"/>
				<path fill="#FFFFFF" d="M354.3,222.4c-0.7-0.5-1.7-0.7-2.9-0.7c-1.4,0-2.5,0.4-3.2,1.4l1.5,1.2c0.2-0.3,0.4-0.5,0.7-0.6
					c0.3-0.1,0.7-0.1,1.1-0.1c1.3,0,2,0.4,2,1.2v1h-2.7c-1,0-1.8,0.3-2.3,0.8c-0.5,0.5-0.8,1.2-0.8,2c0,0.8,0.3,1.5,0.9,2.1
					c0.6,0.6,1.4,0.8,2.5,0.9c0.7,0,1.2-0.1,1.5-0.2c0.4-0.2,0.7-0.4,0.8-0.7h0v0.9h1.9v-6.6C355.4,223.7,355,222.9,354.3,222.4z
					 M353.4,228.1c0,0.7-0.2,1.2-0.5,1.4c-0.3,0.2-0.9,0.3-1.7,0.3c-0.6,0-1.1-0.1-1.4-0.4c-0.3-0.2-0.4-0.5-0.4-0.8
					c0-0.7,0.5-1.1,1.7-1.2h2.3V228.1z"/>
				<path fill="#FFFFFF" d="M359.9,218.9H358v2.9h-1v1.5h1v5.8c0,0.8,0.2,1.3,0.7,1.7c0.4,0.4,1,0.6,1.7,0.6h1v-1.8h-0.7
					c-0.5,0-0.7-0.2-0.7-0.7v-5.6h1.4v-1.5h-1.4V218.9z"/>
			</g>
			<g>
				<g>
					<g>
						<polygon fill="#4672B8" points="315.7,270.1 313.7,270.1 313.7,274 310.2,274 314.8,264.3 312.6,264.3 308.1,274 308.1,275.8 
							313.7,275.8 313.7,277.8 315.7,277.8 315.7,275.8 316.7,275.8 316.7,274 315.7,274 						"/>
					</g>
					<g>
						<polygon fill="#4672B8" points="300.5,297.3 300.5,299.3 302.5,297.9 302.5,309.4 304.4,309.4 304.4,295.9 302.5,295.9 						
							"/>
						<polygon fill="#4672B8" points="309.6,297.3 309.6,299.3 311.6,297.9 311.6,309.4 313.5,309.4 313.5,295.9 311.6,295.9 						
							"/>
					</g>
					<g>
						<polygon fill="#4672B8" points="300.5,328.8 300.5,330.9 302.5,329.5 302.5,340.9 304.4,340.9 304.4,327.5 302.5,327.5 						
							"/>
						<path fill="#4672B8" d="M314.9,334c0.4-0.4,0.7-0.8,1-1.2c0.2-0.4,0.4-0.9,0.4-1.5c0-1.1-0.4-2.1-1.1-2.8
							c-0.7-0.7-1.6-1.1-2.8-1.1c-1.1,0-2,0.4-2.7,1.1c-0.7,0.7-1.1,1.7-1.1,2.8c0,0.6,0.1,1.1,0.4,1.5c0.2,0.5,0.5,0.9,0.9,1.2
							c-1,0.7-1.6,1.7-1.6,3c0,1.2,0.4,2.2,1.2,2.9c0.8,0.7,1.7,1.1,2.9,1.1c1.2,0,2.1-0.4,2.9-1.1c0.8-0.7,1.2-1.7,1.2-2.9
							C316.5,335.7,316,334.7,314.9,334z M311.1,329.7c0.4-0.3,0.8-0.5,1.3-0.5c0.5,0,1,0.2,1.4,0.5c0.4,0.3,0.6,0.8,0.6,1.5
							c0,0.6-0.2,1.1-0.6,1.4c-0.4,0.3-0.8,0.5-1.4,0.5c-0.5,0-0.9-0.2-1.3-0.5c-0.4-0.3-0.6-0.8-0.6-1.4
							C310.5,330.6,310.7,330.1,311.1,329.7z M314,338.5c-0.4,0.4-0.9,0.6-1.5,0.6c-0.6,0-1.1-0.2-1.5-0.6c-0.4-0.4-0.7-0.9-0.7-1.5
							c0-0.6,0.2-1.1,0.7-1.5c0.4-0.4,0.9-0.6,1.5-0.6c0.6,0,1.1,0.2,1.5,0.6c0.4,0.4,0.6,0.9,0.6,1.5
							C314.6,337.6,314.4,338.1,314,338.5z"/>
					</g>
					<g>
						<path fill="#4672B8" d="M307.1,362.8c0-1.1-0.4-2-1.1-2.7c-0.7-0.7-1.7-1.1-2.8-1.1c-1,0-1.9,0.4-2.6,1.1
							c-0.7,0.7-1.1,1.7-1.1,2.8h1.9c0.1-0.6,0.3-1.1,0.6-1.4c0.4-0.3,0.8-0.5,1.3-0.5c0.6,0,1.1,0.2,1.4,0.6
							c0.3,0.4,0.5,0.8,0.5,1.3c0,0.2,0,0.4-0.1,0.6c-0.1,0.2-0.2,0.5-0.4,0.7l-5.3,6.6v1.8h7.7v-1.9h-5.2l4.3-5.4
							C306.8,364.5,307.1,363.7,307.1,362.8z"/>
						<path fill="#4672B8" d="M316,365.5c-0.2-0.5-0.4-0.9-0.8-1.3c-0.3-0.3-0.6-0.5-1-0.7c-0.4-0.2-0.9-0.3-1.4-0.3
							c-0.8,0-1.5,0.2-2.2,0.7V361h5.4V359h-7.2v7.3h1.8c0.2-0.4,0.5-0.7,0.8-0.9c0.3-0.2,0.6-0.2,1-0.2c0.4,0,0.7,0.1,1,0.2
							c0.3,0.1,0.5,0.3,0.6,0.5c0.3,0.5,0.4,1.1,0.4,1.9c0,0.3,0,0.6,0,1c0,0.3-0.1,0.7-0.2,0.9c-0.1,0.3-0.3,0.5-0.6,0.7
							c-0.3,0.2-0.6,0.3-1.1,0.3c-1.1,0-1.7-0.5-1.9-1.6h-1.9c0.2,1.2,0.7,2.1,1.4,2.7c0.8,0.5,1.6,0.8,2.5,0.8
							c0.7,0,1.3-0.2,1.8-0.5c0.5-0.3,0.9-0.6,1.2-1c0.3-0.4,0.5-0.8,0.6-1.2c0.1-0.5,0.2-1.1,0.2-2c0-0.6,0-1-0.1-1.4
							C316.2,366.1,316.1,365.8,316,365.5z"/>
					</g>
				</g>
				<g>
					<g>
						<path fill="#4672B8" d="M357,270.8c-0.2-0.5-0.4-0.9-0.8-1.3c-0.3-0.3-0.6-0.5-1-0.7c-0.4-0.2-0.9-0.3-1.4-0.3
							c-0.8,0-1.5,0.2-2.2,0.7v-3.1h5.4v-1.9h-7.2v7.3h1.8c0.2-0.4,0.5-0.7,0.8-0.9c0.3-0.2,0.6-0.2,1-0.2c0.4,0,0.7,0.1,1,0.2
							c0.3,0.1,0.5,0.3,0.6,0.5c0.3,0.5,0.4,1.1,0.4,1.9c0,0.3,0,0.6,0,1c0,0.3-0.1,0.7-0.2,0.9c-0.1,0.3-0.3,0.5-0.6,0.7
							c-0.3,0.2-0.6,0.3-1.1,0.3c-1.1,0-1.7-0.5-1.9-1.6h-1.9c0.2,1.2,0.7,2.1,1.4,2.7c0.8,0.5,1.6,0.8,2.5,0.8
							c0.7,0,1.3-0.2,1.8-0.5c0.5-0.3,0.9-0.6,1.2-1c0.3-0.4,0.5-0.8,0.6-1.2c0.1-0.5,0.2-1.1,0.2-2c0-0.6,0-1-0.1-1.4
							C357.2,271.4,357.1,271.1,357,270.8z"/>
					</g>
					<g>
						<polygon fill="#4672B8" points="341.6,297.3 341.6,299.3 343.5,297.9 343.5,309.4 345.4,309.4 345.4,295.9 343.5,295.9 						
							"/>
						<path fill="#4672B8" d="M357.2,299.6c0-1.1-0.4-2-1.1-2.7c-0.7-0.7-1.7-1.1-2.8-1.1c-1,0-1.9,0.4-2.6,1.1
							c-0.7,0.7-1.1,1.7-1.1,2.8h1.9c0.1-0.6,0.3-1.1,0.6-1.4c0.4-0.3,0.8-0.5,1.3-0.5c0.6,0,1.1,0.2,1.4,0.6
							c0.3,0.4,0.5,0.8,0.5,1.3c0,0.2,0,0.4-0.1,0.6c-0.1,0.2-0.2,0.5-0.4,0.7l-5.3,6.6v1.8h7.7v-1.9H352l4.3-5.4
							C356.9,301.3,357.2,300.5,357.2,299.6z"/>
					</g>
					<g>
						<polygon fill="#4672B8" points="341.6,328.8 341.6,330.9 343.5,329.5 343.5,340.9 345.4,340.9 345.4,327.5 343.5,327.5 						
							"/>
						<path fill="#4672B8" d="M356.9,329.7c-0.1-0.3-0.3-0.6-0.5-0.9c-0.2-0.3-0.5-0.6-0.8-0.8c-0.3-0.2-0.7-0.4-1.1-0.5
							c-0.4-0.1-0.9-0.2-1.5-0.1c-0.5,0-1,0.2-1.4,0.3c-0.4,0.2-0.7,0.4-1,0.6c-0.3,0.2-0.5,0.5-0.7,0.8c-0.2,0.3-0.3,0.5-0.4,0.8
							c-0.1,0.2-0.2,0.5-0.2,0.6c0,0.2-0.1,0.3-0.1,0.3c0,0.1,0,0.2,0,0.3c0,0.1,0,0.2,0,0.4c0,0.1,0,0.2,0,0.3c0,0.1,0,0.2,0,0.2
							c0,0.1,0,0.3,0.1,0.5c0,0.2,0.1,0.4,0.2,0.7c0.1,0.2,0.2,0.5,0.4,0.7c0.1,0.2,0.3,0.5,0.6,0.7c0.2,0.2,0.5,0.4,0.8,0.5
							c0.3,0.1,0.7,0.2,1.1,0.2c0.3,0,0.6,0,0.8,0c0.2,0,0.4-0.1,0.6-0.2c-0.1,0.2-0.3,0.5-0.5,0.8c-0.2,0.4-0.4,0.7-0.6,1.2
							c-0.2,0.4-0.4,0.9-0.7,1.3c-0.2,0.4-0.4,0.8-0.6,1.2c-0.2,0.4-0.3,0.6-0.4,0.9c-0.1,0.2-0.2,0.3-0.2,0.3h2.2
							c0.6-1.2,1.1-2.3,1.6-3.2c0.2-0.4,0.4-0.8,0.6-1.2c0.2-0.4,0.4-0.8,0.5-1.1c0.2-0.3,0.3-0.6,0.4-0.8c0.1-0.2,0.2-0.4,0.2-0.4
							c0.1-0.2,0.2-0.5,0.3-0.7c0.1-0.2,0.1-0.4,0.2-0.6c0.1-0.2,0.1-0.4,0.2-0.7c0-0.2,0.1-0.5,0.1-0.8c0-0.2,0-0.4,0-0.7
							C357.1,330.3,357,330,356.9,329.7z M355.2,332.1c0,0.1-0.1,0.3-0.2,0.4c-0.1,0.1-0.2,0.3-0.3,0.4c-0.1,0.1-0.2,0.3-0.4,0.4
							c-0.1,0.1-0.3,0.2-0.5,0.3c-0.2,0.1-0.4,0.1-0.6,0.1c-0.5,0-0.8-0.1-1.1-0.3c-0.3-0.2-0.4-0.4-0.6-0.7
							c-0.1-0.3-0.2-0.5-0.2-0.8c0-0.3,0-0.6,0-0.8c0-0.1,0-0.2,0.1-0.4c0.1-0.2,0.2-0.4,0.3-0.6c0.1-0.2,0.3-0.4,0.6-0.6
							c0.2-0.2,0.6-0.3,0.9-0.3c0.3,0,0.6,0,0.9,0.1c0.2,0.1,0.4,0.2,0.6,0.3c0.1,0.1,0.3,0.3,0.3,0.5c0.1,0.2,0.1,0.4,0.2,0.6
							c0,0.2,0.1,0.4,0.1,0.6c0,0.2,0,0.4,0,0.5C355.2,331.9,355.2,332,355.2,332.1z"/>
					</g>
					<g>
						<path fill="#4672B8" d="M348.1,362.8c0-1.1-0.4-2-1.1-2.7c-0.7-0.7-1.7-1.1-2.8-1.1c-1,0-1.9,0.4-2.6,1.1
							c-0.7,0.7-1.1,1.7-1.1,2.8h1.9c0.1-0.6,0.3-1.1,0.6-1.4c0.4-0.3,0.8-0.5,1.3-0.5c0.6,0,1.1,0.2,1.4,0.6
							c0.3,0.4,0.5,0.8,0.5,1.3c0,0.2,0,0.4-0.1,0.6c-0.1,0.2-0.2,0.5-0.4,0.7l-5.3,6.6v1.8h7.7v-1.9h-5.2l4.3-5.4
							C347.8,364.5,348.1,363.7,348.1,362.8z"/>
						<path fill="#4672B8" d="M357.2,366.6c-0.1-0.2-0.2-0.5-0.4-0.7c-0.2-0.2-0.3-0.5-0.6-0.7c-0.2-0.2-0.5-0.4-0.8-0.5
							c-0.3-0.1-0.7-0.2-1.1-0.2c-0.3,0-0.6,0-0.8,0c-0.2,0-0.4,0.1-0.6,0.2c0.1-0.1,0.2-0.3,0.3-0.6c0.1-0.2,0.3-0.5,0.4-0.8
							c0.2-0.3,0.3-0.6,0.5-1c0.2-0.3,0.3-0.7,0.5-1c0.2-0.3,0.3-0.6,0.5-0.9c0.1-0.3,0.3-0.6,0.4-0.8c0.1-0.2,0.2-0.4,0.3-0.5
							c0.1-0.1,0.1-0.2,0.1-0.2h-2.2c-0.6,1.2-1.1,2.3-1.6,3.3c-0.2,0.4-0.4,0.8-0.6,1.2c-0.2,0.4-0.4,0.8-0.6,1.1
							c-0.2,0.3-0.3,0.6-0.4,0.9c-0.1,0.2-0.2,0.4-0.2,0.4c-0.1,0.2-0.2,0.5-0.3,0.7c-0.1,0.2-0.1,0.4-0.2,0.6
							c-0.1,0.2-0.1,0.4-0.2,0.7c0,0.2-0.1,0.5-0.1,0.8c0,0.2,0,0.5,0,0.7c0,0.3,0.1,0.6,0.2,0.9c0.1,0.3,0.3,0.6,0.5,0.9
							c0.2,0.3,0.5,0.6,0.8,0.8c0.3,0.2,0.7,0.4,1.1,0.5c0.4,0.1,0.9,0.2,1.5,0.1c0.5,0,1-0.2,1.4-0.3c0.4-0.2,0.7-0.4,1-0.7
							c0.3-0.3,0.5-0.5,0.7-0.8c0.2-0.3,0.3-0.6,0.4-0.8c0.1-0.2,0.2-0.5,0.2-0.6c0-0.2,0.1-0.3,0.1-0.3c0-0.1,0-0.2,0-0.3
							c0-0.1,0-0.2,0-0.4s0-0.2,0-0.3c0-0.1,0-0.2,0-0.2c0-0.1,0-0.3-0.1-0.5C357.4,367.1,357.3,366.9,357.2,366.6z M355.5,369
							c0,0.1-0.1,0.2-0.1,0.4c-0.1,0.1-0.1,0.3-0.2,0.4c-0.1,0.1-0.2,0.3-0.4,0.4c-0.1,0.1-0.3,0.2-0.5,0.3
							c-0.2,0.1-0.4,0.1-0.7,0.1c-0.3,0-0.6,0-0.9-0.1c-0.2-0.1-0.4-0.2-0.6-0.3c-0.1-0.1-0.3-0.3-0.3-0.5c-0.1-0.2-0.1-0.4-0.2-0.5
							c0-0.2-0.1-0.4-0.1-0.6c0-0.2,0-0.4,0-0.5c0-0.1,0-0.2,0-0.3c0-0.1,0.1-0.3,0.2-0.4c0.1-0.1,0.2-0.3,0.3-0.4
							c0.1-0.2,0.2-0.3,0.4-0.4c0.1-0.1,0.3-0.2,0.5-0.3c0.2-0.1,0.4-0.1,0.6-0.1c0.5,0,0.9,0.1,1.2,0.3c0.3,0.2,0.5,0.4,0.6,0.7
							c0.1,0.3,0.2,0.5,0.2,0.8c0,0.3,0,0.5,0,0.8C355.5,368.8,355.5,368.9,355.5,369z"/>
					</g>
				</g>
				<g>
					<g>
						<path fill="#F55A62" d="M77.6,303.5c-0.1-0.2-0.2-0.5-0.4-0.7c-0.2-0.2-0.3-0.5-0.6-0.7c-0.2-0.2-0.5-0.4-0.8-0.5
							c-0.3-0.1-0.7-0.2-1.1-0.2c-0.3,0-0.6,0-0.8,0c-0.2,0-0.4,0.1-0.6,0.2c0.1-0.1,0.2-0.3,0.3-0.6c0.1-0.2,0.3-0.5,0.4-0.8
							c0.2-0.3,0.3-0.6,0.5-1c0.2-0.3,0.3-0.7,0.5-1c0.2-0.3,0.3-0.6,0.5-0.9c0.1-0.3,0.3-0.6,0.4-0.8c0.1-0.2,0.2-0.4,0.3-0.5
							c0.1-0.1,0.1-0.2,0.1-0.2h-2.2c-0.6,1.2-1.1,2.3-1.6,3.3c-0.2,0.4-0.4,0.8-0.6,1.2c-0.2,0.4-0.4,0.8-0.6,1.1
							c-0.2,0.3-0.3,0.6-0.4,0.9c-0.1,0.2-0.2,0.4-0.2,0.4c-0.1,0.2-0.2,0.5-0.3,0.7c-0.1,0.2-0.1,0.4-0.2,0.6
							c-0.1,0.2-0.1,0.4-0.2,0.7c0,0.2-0.1,0.5-0.1,0.8c0,0.2,0,0.5,0,0.7c0,0.3,0.1,0.6,0.2,0.9c0.1,0.3,0.3,0.6,0.5,0.9
							c0.2,0.3,0.5,0.6,0.8,0.8c0.3,0.2,0.7,0.4,1.1,0.5c0.4,0.1,0.9,0.2,1.5,0.1c0.5,0,1-0.2,1.4-0.3c0.4-0.2,0.7-0.4,1-0.7
							c0.3-0.3,0.5-0.5,0.7-0.8c0.2-0.3,0.3-0.6,0.4-0.8c0.1-0.2,0.2-0.5,0.2-0.6c0-0.2,0.1-0.3,0.1-0.3c0-0.1,0-0.2,0-0.3
							c0-0.1,0-0.2,0-0.4c0-0.1,0-0.2,0-0.3c0-0.1,0-0.2,0-0.2c0-0.1,0-0.3-0.1-0.5C77.7,303.9,77.7,303.7,77.6,303.5z M75.9,305.9
							c0,0.1-0.1,0.2-0.1,0.4c-0.1,0.1-0.1,0.3-0.2,0.4c-0.1,0.1-0.2,0.3-0.4,0.4c-0.1,0.1-0.3,0.2-0.5,0.3
							c-0.2,0.1-0.4,0.1-0.7,0.1c-0.3,0-0.6,0-0.9-0.1c-0.2-0.1-0.4-0.2-0.6-0.3c-0.1-0.1-0.3-0.3-0.3-0.5c-0.1-0.2-0.1-0.4-0.2-0.5
							c0-0.2-0.1-0.4-0.1-0.6c0-0.2,0-0.4,0-0.5c0-0.1,0-0.2,0-0.3c0-0.1,0.1-0.3,0.2-0.4c0.1-0.1,0.2-0.3,0.3-0.4
							c0.1-0.2,0.2-0.3,0.4-0.4c0.1-0.1,0.3-0.2,0.5-0.3c0.2-0.1,0.4-0.1,0.6-0.1c0.5,0,0.9,0.1,1.2,0.3c0.3,0.2,0.5,0.4,0.6,0.7
							c0.1,0.3,0.2,0.5,0.2,0.8c0,0.3,0,0.5,0,0.8C75.9,305.7,75.9,305.7,75.9,305.9z"/>
					</g>
					<g>
						<polygon fill="#F55A62" points="61.9,328.8 61.9,330.9 63.8,329.5 63.8,340.9 65.8,340.9 65.8,327.5 63.8,327.5 						"/>
						<path fill="#F55A62" d="M75.8,334c0.6-0.4,0.9-0.8,1.2-1.3c0.2-0.5,0.3-1,0.3-1.5c0-1-0.4-1.9-1.1-2.7
							c-0.7-0.8-1.7-1.2-2.9-1.2c-1,0-1.8,0.4-2.5,1c-0.7,0.7-1.1,1.5-1.2,2.5h1.9c0.1-0.6,0.4-1,0.7-1.2c0.3-0.3,0.7-0.4,1.1-0.4
							c0.6,0,1,0.2,1.4,0.5c0.4,0.4,0.6,0.8,0.6,1.4c0,0.6-0.2,1-0.5,1.4c-0.4,0.4-0.9,0.5-1.5,0.5h-0.7v1.7h0.8
							c0.6,0,1.1,0.2,1.5,0.5c0.4,0.4,0.6,0.9,0.6,1.6c0,0.7-0.2,1.2-0.6,1.6c-0.4,0.4-0.9,0.6-1.4,0.6c-0.5,0-1-0.1-1.3-0.4
							c-0.3-0.3-0.6-0.6-0.7-1.1h-1.9c0.2,1.1,0.7,2,1.4,2.6c0.7,0.6,1.5,0.9,2.4,0.9c1.2,0,2.2-0.4,2.9-1.1c0.8-0.7,1.2-1.7,1.2-3
							c0-0.6-0.1-1.1-0.4-1.6C76.8,334.8,76.4,334.3,75.8,334z"/>
					</g>
					<g>
						<path fill="#F55A62" d="M68.5,362.8c0-1.1-0.4-2-1.1-2.7c-0.7-0.7-1.7-1.1-2.8-1.1c-1,0-1.9,0.4-2.6,1.1
							c-0.7,0.7-1.1,1.7-1.1,2.8h1.9c0.1-0.6,0.3-1.1,0.6-1.4c0.4-0.3,0.8-0.5,1.3-0.5c0.6,0,1.1,0.2,1.4,0.6
							c0.3,0.4,0.5,0.8,0.5,1.3c0,0.2,0,0.4-0.1,0.6c-0.1,0.2-0.2,0.5-0.4,0.7l-5.3,6.6v1.8h7.7v-1.9h-5.2l4.3-5.4
							C68.2,364.5,68.5,363.7,68.5,362.8z"/>
						<path fill="#F55A62" d="M73.8,358.9c-1,0-1.9,0.3-2.6,1c-0.8,0.7-1.2,1.6-1.2,2.9v5.9c0,1.2,0.4,2.2,1.2,2.9
							c0.7,0.7,1.6,1,2.6,1c1,0,1.9-0.4,2.7-1c0.7-0.7,1.1-1.6,1.2-2.9v-5.9c0-1.2-0.4-2.2-1.2-2.9
							C75.7,359.3,74.8,358.9,73.8,358.9z M75.7,368.6c0,1.4-0.7,2.1-1.9,2.1c-1.2,0-1.9-0.7-1.9-2.1v-5.7c0-1.4,0.7-2,1.9-2.1
							c1.2,0,1.9,0.7,1.9,2.1V368.6z"/>
					</g>
					<g>
						<path fill="#F55A62" d="M68.5,394.4c0-1.1-0.4-2-1.1-2.7c-0.7-0.7-1.7-1.1-2.8-1.1c-1,0-1.9,0.4-2.6,1.1
							c-0.7,0.7-1.1,1.7-1.1,2.8h1.9c0.1-0.6,0.3-1.1,0.6-1.4c0.4-0.3,0.8-0.5,1.3-0.5c0.6,0,1.1,0.2,1.4,0.6
							c0.3,0.4,0.5,0.8,0.5,1.3c0,0.2,0,0.4-0.1,0.6c-0.1,0.2-0.2,0.5-0.4,0.7l-5.3,6.6v1.8h7.7v-1.9h-5.2l4.3-5.4
							C68.2,396,68.5,395.2,68.5,394.4z"/>
						<polygon fill="#F55A62" points="70.2,394.5 72.1,394.5 72.1,392.5 75.7,392.5 71.2,404.1 73.3,404.1 77.9,392.5 77.9,390.6 
							70.2,390.6 						"/>
					</g>
				</g>
				<g>
					<g>
						<polygon fill="#4672B8" points="119.6,299.8 121.5,299.8 121.5,297.8 125.1,297.8 120.5,309.4 122.7,309.4 127.3,297.8 
							127.3,295.9 119.6,295.9 						"/>
					</g>
					<g>
						<polygon fill="#4672B8" points="111.3,328.8 111.3,330.9 113.2,329.5 113.2,340.9 115.1,340.9 115.1,327.5 113.2,327.5 						
							"/>
						<polygon fill="#4672B8" points="126.4,333.2 124.5,333.2 124.5,337.1 121,337.1 125.5,327.5 123.4,327.5 118.9,337.1 
							118.9,338.9 124.5,338.9 124.5,340.9 126.4,340.9 126.4,338.9 127.5,338.9 127.5,337.1 126.4,337.1 						"/>
					</g>
					<g>
						<path fill="#4672B8" d="M117.8,362.8c0-1.1-0.4-2-1.1-2.7c-0.7-0.7-1.7-1.1-2.8-1.1c-1,0-1.9,0.4-2.6,1.1
							c-0.7,0.7-1.1,1.7-1.1,2.8h1.9c0.1-0.6,0.3-1.1,0.6-1.4c0.4-0.3,0.8-0.5,1.3-0.5c0.6,0,1.1,0.2,1.4,0.6
							c0.3,0.4,0.5,0.8,0.5,1.3c0,0.2,0,0.4-0.1,0.6c-0.1,0.2-0.2,0.5-0.4,0.7l-5.3,6.6v1.8h7.7v-1.9h-5.2l4.3-5.4
							C117.6,364.5,117.8,363.7,117.8,362.8z"/>
						<polygon fill="#4672B8" points="120.4,360.4 120.4,362.5 122.3,361.1 122.3,372.5 124.2,372.5 124.2,359 122.3,359 						"/>
					</g>
					<g>
						<path fill="#4672B8" d="M117.8,394.4c0-1.1-0.4-2-1.1-2.7c-0.7-0.7-1.7-1.1-2.8-1.1c-1,0-1.9,0.4-2.6,1.1
							c-0.7,0.7-1.1,1.7-1.1,2.8h1.9c0.1-0.6,0.3-1.1,0.6-1.4c0.4-0.3,0.8-0.5,1.3-0.5c0.6,0,1.1,0.2,1.4,0.6
							c0.3,0.4,0.5,0.8,0.5,1.3c0,0.2,0,0.4-0.1,0.6c-0.1,0.2-0.2,0.5-0.4,0.7l-5.3,6.6v1.8h7.7v-1.9h-5.2l4.3-5.4
							C117.6,396,117.8,395.2,117.8,394.4z"/>
						<path fill="#4672B8" d="M125.7,397.1c0.4-0.4,0.7-0.8,1-1.2c0.2-0.4,0.4-0.9,0.4-1.5c0-1.1-0.4-2.1-1.1-2.8
							c-0.7-0.7-1.6-1.1-2.8-1.1c-1.1,0-2,0.4-2.7,1.1c-0.7,0.7-1.1,1.7-1.1,2.8c0,0.6,0.1,1.1,0.4,1.5c0.2,0.5,0.5,0.9,0.9,1.2
							c-1,0.7-1.6,1.7-1.6,3c0,1.2,0.4,2.2,1.2,2.9c0.8,0.7,1.7,1.1,2.9,1.1c1.2,0,2.1-0.4,2.9-1.1c0.8-0.7,1.2-1.7,1.2-2.9
							C127.3,398.9,126.7,397.8,125.7,397.1z M121.8,392.9c0.4-0.3,0.8-0.5,1.3-0.5c0.5,0,1,0.2,1.4,0.5c0.4,0.3,0.6,0.8,0.6,1.5
							c0,0.6-0.2,1.1-0.6,1.4c-0.4,0.3-0.8,0.5-1.4,0.5c-0.5,0-0.9-0.2-1.3-0.5c-0.4-0.3-0.6-0.8-0.6-1.4
							C121.3,393.7,121.5,393.2,121.8,392.9z M124.7,401.7c-0.4,0.4-0.9,0.6-1.5,0.6c-0.6,0-1.1-0.2-1.5-0.6
							c-0.4-0.4-0.7-0.9-0.7-1.5c0-0.6,0.2-1.1,0.7-1.5c0.4-0.4,0.9-0.6,1.5-0.6c0.6,0,1.1,0.2,1.5,0.6c0.4,0.4,0.6,0.9,0.6,1.5
							C125.3,400.8,125.1,401.3,124.7,401.7z"/>
					</g>
				</g>
				<g>
					<g>
						<polygon fill="#4672B8" points="168.4,265.7 168.4,267.7 170.3,266.3 170.3,277.8 172.2,277.8 172.2,264.3 170.3,264.3 						
							"/>
					</g>
					<g>
						<path fill="#4672B8" d="M173.7,302.4c0.4-0.4,0.7-0.8,1-1.2c0.2-0.4,0.4-0.9,0.4-1.5c0-1.1-0.4-2.1-1.1-2.8
							c-0.7-0.7-1.6-1.1-2.8-1.1c-1.1,0-2,0.4-2.7,1.1c-0.7,0.7-1.1,1.7-1.1,2.8c0,0.6,0.1,1.1,0.4,1.5c0.2,0.5,0.5,0.9,0.9,1.2
							c-1,0.7-1.6,1.7-1.6,3c0,1.2,0.4,2.2,1.2,2.9c0.8,0.7,1.7,1.1,2.9,1.1c1.2,0,2.1-0.4,2.9-1.1c0.8-0.7,1.2-1.7,1.2-2.9
							C175.3,304.1,174.8,303.1,173.7,302.4z M169.9,298.2c0.4-0.3,0.8-0.5,1.3-0.5c0.5,0,1,0.2,1.4,0.5c0.4,0.3,0.6,0.8,0.6,1.5
							c0,0.6-0.2,1.1-0.6,1.4c-0.4,0.3-0.8,0.5-1.4,0.5c-0.5,0-0.9-0.2-1.3-0.5c-0.4-0.3-0.6-0.8-0.6-1.4
							C169.3,299,169.5,298.5,169.9,298.2z M172.7,306.9c-0.4,0.4-0.9,0.6-1.5,0.6c-0.6,0-1.1-0.2-1.5-0.6c-0.4-0.4-0.7-0.9-0.7-1.5
							c0-0.6,0.2-1.1,0.7-1.5c0.4-0.4,0.9-0.6,1.5-0.6c0.6,0,1.1,0.2,1.5,0.6c0.4,0.4,0.6,0.9,0.6,1.5
							C173.3,306,173.1,306.5,172.7,306.9z"/>
					</g>
					<g>
						<polygon fill="#4672B8" points="159.3,328.8 159.3,330.9 161.2,329.5 161.2,340.9 163.1,340.9 163.1,327.5 161.2,327.5 						
							"/>
						<path fill="#4672B8" d="M174.8,334c-0.2-0.5-0.4-0.9-0.8-1.3c-0.3-0.3-0.6-0.5-1-0.7c-0.4-0.2-0.9-0.3-1.4-0.3
							c-0.8,0-1.5,0.2-2.2,0.7v-3.1h5.4v-1.9h-7.2v7.3h1.8c0.2-0.4,0.5-0.7,0.8-0.9c0.3-0.2,0.6-0.2,1-0.2c0.4,0,0.7,0.1,1,0.2
							c0.3,0.1,0.5,0.3,0.6,0.5c0.3,0.5,0.4,1.1,0.4,1.9c0,0.3,0,0.6,0,1c0,0.3-0.1,0.7-0.2,0.9c-0.1,0.3-0.3,0.5-0.6,0.7
							c-0.3,0.2-0.6,0.3-1.1,0.3c-1.1,0-1.7-0.5-1.9-1.6h-1.9c0.2,1.2,0.7,2.1,1.4,2.7c0.8,0.5,1.6,0.8,2.5,0.8
							c0.7,0,1.3-0.2,1.8-0.5c0.5-0.3,0.9-0.6,1.2-1c0.3-0.4,0.5-0.8,0.6-1.2c0.1-0.5,0.2-1.1,0.2-2c0-0.6,0-1-0.1-1.4
							C174.9,334.6,174.9,334.2,174.8,334z"/>
					</g>
					<g>
						<path fill="#4672B8" d="M165.8,362.8c0-1.1-0.4-2-1.1-2.7c-0.7-0.7-1.7-1.1-2.8-1.1c-1,0-1.9,0.4-2.6,1.1
							c-0.7,0.7-1.1,1.7-1.1,2.8h1.9c0.1-0.6,0.3-1.1,0.6-1.4c0.4-0.3,0.8-0.5,1.3-0.5c0.6,0,1.1,0.2,1.4,0.6
							c0.3,0.4,0.5,0.8,0.5,1.3c0,0.2,0,0.4-0.1,0.6c-0.1,0.2-0.2,0.5-0.4,0.7l-5.3,6.6v1.8h7.7v-1.9h-5.2l4.3-5.4
							C165.6,364.5,165.8,363.7,165.8,362.8z"/>
						<path fill="#4672B8" d="M174.9,362.8c0-1.1-0.4-2-1.1-2.7c-0.7-0.7-1.7-1.1-2.8-1.1c-1,0-1.9,0.4-2.6,1.1
							c-0.7,0.7-1.1,1.7-1.1,2.8h1.9c0.1-0.6,0.3-1.1,0.6-1.4c0.4-0.3,0.8-0.5,1.3-0.5c0.6,0,1.1,0.2,1.4,0.6
							c0.3,0.4,0.5,0.8,0.5,1.3c0,0.2,0,0.4-0.1,0.6c-0.1,0.2-0.2,0.5-0.4,0.7l-5.3,6.6v1.8h7.7v-1.9h-5.2l4.3-5.4
							C174.7,364.5,174.9,363.7,174.9,362.8z"/>
					</g>
					<g>
						<path fill="#4672B8" d="M165.8,394.4c0-1.1-0.4-2-1.1-2.7c-0.7-0.7-1.7-1.1-2.8-1.1c-1,0-1.9,0.4-2.6,1.1
							c-0.7,0.7-1.1,1.7-1.1,2.8h1.9c0.1-0.6,0.3-1.1,0.6-1.4c0.4-0.3,0.8-0.5,1.3-0.5c0.6,0,1.1,0.2,1.4,0.6
							c0.3,0.4,0.5,0.8,0.5,1.3c0,0.2,0,0.4-0.1,0.6c-0.1,0.2-0.2,0.5-0.4,0.7l-5.3,6.6v1.8h7.7v-1.9h-5.2l4.3-5.4
							C165.6,396,165.8,395.2,165.8,394.4z"/>
						<path fill="#4672B8" d="M174.7,392.8c-0.1-0.3-0.3-0.6-0.5-0.9c-0.2-0.3-0.5-0.6-0.8-0.8c-0.3-0.2-0.7-0.4-1.1-0.5
							c-0.4-0.1-0.9-0.2-1.5-0.1c-0.5,0-1,0.2-1.4,0.3c-0.4,0.2-0.7,0.4-1,0.6c-0.3,0.2-0.5,0.5-0.7,0.8c-0.2,0.3-0.3,0.5-0.4,0.8
							c-0.1,0.2-0.2,0.5-0.2,0.6c0,0.2-0.1,0.3-0.1,0.3c0,0.1,0,0.2,0,0.3c0,0.1,0,0.2,0,0.4c0,0.1,0,0.2,0,0.3c0,0.1,0,0.2,0,0.2
							c0,0.1,0,0.3,0.1,0.5c0,0.2,0.1,0.4,0.2,0.7c0.1,0.2,0.2,0.5,0.4,0.7c0.1,0.2,0.3,0.5,0.6,0.7c0.2,0.2,0.5,0.4,0.8,0.5
							c0.3,0.1,0.7,0.2,1.1,0.2c0.3,0,0.6,0,0.8,0c0.2,0,0.4-0.1,0.6-0.2c-0.1,0.2-0.3,0.5-0.5,0.8c-0.2,0.4-0.4,0.7-0.6,1.2
							c-0.2,0.4-0.4,0.9-0.7,1.3c-0.2,0.4-0.4,0.8-0.6,1.2c-0.2,0.4-0.3,0.6-0.4,0.9c-0.1,0.2-0.2,0.3-0.2,0.3h2.2
							c0.6-1.2,1.1-2.3,1.6-3.2c0.2-0.4,0.4-0.8,0.6-1.2c0.2-0.4,0.4-0.8,0.5-1.1c0.2-0.3,0.3-0.6,0.4-0.8c0.1-0.2,0.2-0.4,0.2-0.4
							c0.1-0.2,0.2-0.5,0.3-0.7c0.1-0.2,0.1-0.4,0.2-0.6c0.1-0.2,0.1-0.4,0.2-0.7c0-0.2,0.1-0.5,0.1-0.8c0-0.2,0-0.4,0-0.7
							C174.8,393.4,174.8,393.1,174.7,392.8z M172.9,395.3c0,0.1-0.1,0.3-0.2,0.4c-0.1,0.1-0.2,0.3-0.3,0.4
							c-0.1,0.1-0.2,0.3-0.4,0.4c-0.1,0.1-0.3,0.2-0.5,0.3c-0.2,0.1-0.4,0.1-0.6,0.1c-0.5,0-0.8-0.1-1.1-0.3
							c-0.3-0.2-0.4-0.4-0.6-0.7c-0.1-0.3-0.2-0.5-0.2-0.8c0-0.3,0-0.6,0-0.8c0-0.1,0-0.2,0.1-0.4c0.1-0.2,0.2-0.4,0.3-0.6
							c0.1-0.2,0.3-0.4,0.6-0.6c0.2-0.2,0.6-0.3,0.9-0.3c0.3,0,0.6,0,0.9,0.1c0.2,0.1,0.4,0.2,0.6,0.3c0.1,0.1,0.3,0.3,0.3,0.5
							c0.1,0.2,0.1,0.4,0.2,0.6c0,0.2,0.1,0.4,0.1,0.6c0,0.2,0,0.4,0,0.5C173,395.1,172.9,395.2,172.9,395.3z"/>
					</g>
				</g>
				<g>
					<g>
						<path fill="#4672B8" d="M224.1,268c0-1.1-0.4-2-1.1-2.7c-0.7-0.7-1.7-1.1-2.8-1.1c-1,0-1.9,0.4-2.6,1.1
							c-0.7,0.7-1.1,1.7-1.1,2.8h1.9c0.1-0.6,0.3-1.1,0.6-1.4c0.4-0.3,0.8-0.5,1.3-0.5c0.6,0,1.1,0.2,1.4,0.6
							c0.3,0.4,0.5,0.8,0.5,1.3c0,0.2,0,0.4-0.1,0.6c-0.1,0.2-0.2,0.5-0.4,0.7l-5.3,6.6v1.8h7.7v-1.9H219l4.3-5.4
							C223.9,269.7,224.1,268.9,224.1,268z"/>
					</g>
					<g>
						<path fill="#4672B8" d="M223.9,298.1c-0.1-0.3-0.3-0.6-0.5-0.9c-0.2-0.3-0.5-0.6-0.8-0.8c-0.3-0.2-0.7-0.4-1.1-0.5
							c-0.4-0.1-0.9-0.2-1.5-0.1c-0.5,0-1,0.2-1.4,0.3c-0.4,0.2-0.7,0.4-1,0.6c-0.3,0.2-0.5,0.5-0.7,0.8c-0.2,0.3-0.3,0.5-0.4,0.8
							c-0.1,0.2-0.2,0.5-0.2,0.6c0,0.2-0.1,0.3-0.1,0.3c0,0.1,0,0.2,0,0.3c0,0.1,0,0.2,0,0.4c0,0.1,0,0.2,0,0.3c0,0.1,0,0.2,0,0.2
							c0,0.1,0,0.3,0.1,0.5c0,0.2,0.1,0.4,0.2,0.7c0.1,0.2,0.2,0.5,0.4,0.7c0.1,0.2,0.3,0.5,0.6,0.7c0.2,0.2,0.5,0.4,0.8,0.5
							c0.3,0.1,0.7,0.2,1.1,0.2c0.3,0,0.6,0,0.8,0c0.2,0,0.4-0.1,0.6-0.2c-0.1,0.2-0.3,0.5-0.5,0.8c-0.2,0.4-0.4,0.7-0.6,1.2
							c-0.2,0.4-0.4,0.9-0.7,1.3c-0.2,0.4-0.4,0.8-0.6,1.2c-0.2,0.4-0.3,0.6-0.4,0.9c-0.1,0.2-0.2,0.3-0.2,0.3h2.2
							c0.6-1.2,1.1-2.3,1.6-3.2c0.2-0.4,0.4-0.8,0.6-1.2c0.2-0.4,0.4-0.8,0.5-1.1c0.2-0.3,0.3-0.6,0.4-0.8c0.1-0.2,0.2-0.4,0.2-0.4
							c0.1-0.2,0.2-0.5,0.3-0.7c0.1-0.2,0.1-0.4,0.2-0.6c0.1-0.2,0.1-0.4,0.2-0.7c0-0.2,0.1-0.5,0.1-0.8c0-0.2,0-0.4,0-0.7
							C224.1,298.7,224,298.4,223.9,298.1z M222.1,300.6c0,0.1-0.1,0.3-0.2,0.4c-0.1,0.1-0.2,0.3-0.3,0.4c-0.1,0.1-0.2,0.3-0.4,0.4
							c-0.1,0.1-0.3,0.2-0.5,0.3c-0.2,0.1-0.4,0.1-0.6,0.1c-0.5,0-0.8-0.1-1.1-0.3c-0.3-0.2-0.4-0.4-0.6-0.7
							c-0.1-0.3-0.2-0.5-0.2-0.8c0-0.3,0-0.6,0-0.8c0-0.1,0-0.2,0.1-0.4c0.1-0.2,0.2-0.4,0.3-0.6c0.1-0.2,0.3-0.4,0.6-0.6
							c0.2-0.2,0.6-0.3,0.9-0.3c0.3,0,0.6,0,0.9,0.1c0.2,0.1,0.4,0.2,0.6,0.3c0.1,0.1,0.3,0.3,0.3,0.5c0.1,0.2,0.1,0.4,0.2,0.6
							c0,0.2,0.1,0.4,0.1,0.6c0,0.2,0,0.4,0,0.5C222.2,300.3,222.2,300.4,222.1,300.6z"/>
					</g>
					<g>
						<polygon fill="#4672B8" points="208.5,328.8 208.5,330.9 210.4,329.5 210.4,340.9 212.4,340.9 212.4,327.5 210.4,327.5 						
							"/>
						<path fill="#4672B8" d="M224.2,335.1c-0.1-0.2-0.2-0.5-0.4-0.7c-0.2-0.2-0.3-0.5-0.6-0.7c-0.2-0.2-0.5-0.4-0.8-0.5
							c-0.3-0.1-0.7-0.2-1.1-0.2c-0.3,0-0.6,0-0.8,0c-0.2,0-0.4,0.1-0.6,0.2c0.1-0.1,0.2-0.3,0.3-0.6c0.1-0.2,0.3-0.5,0.4-0.8
							c0.2-0.3,0.3-0.6,0.5-1c0.2-0.3,0.3-0.7,0.5-1s0.3-0.6,0.5-0.9c0.1-0.3,0.3-0.6,0.4-0.8c0.1-0.2,0.2-0.4,0.3-0.5
							c0.1-0.1,0.1-0.2,0.1-0.2h-2.2c-0.6,1.2-1.1,2.3-1.6,3.3c-0.2,0.4-0.4,0.8-0.6,1.2c-0.2,0.4-0.4,0.8-0.6,1.1
							c-0.2,0.3-0.3,0.6-0.4,0.9c-0.1,0.2-0.2,0.4-0.2,0.4c-0.1,0.2-0.2,0.5-0.3,0.7c-0.1,0.2-0.1,0.4-0.2,0.6
							c-0.1,0.2-0.1,0.4-0.2,0.7c0,0.2-0.1,0.5-0.1,0.8c0,0.2,0,0.5,0,0.7c0,0.3,0.1,0.6,0.2,0.9c0.1,0.3,0.3,0.6,0.5,0.9
							c0.2,0.3,0.5,0.6,0.8,0.8c0.3,0.2,0.7,0.4,1.1,0.5c0.4,0.1,0.9,0.2,1.5,0.1c0.5,0,1-0.2,1.4-0.3c0.4-0.2,0.7-0.4,1-0.7
							c0.3-0.3,0.5-0.5,0.7-0.8c0.2-0.3,0.3-0.6,0.4-0.8c0.1-0.2,0.2-0.5,0.2-0.6c0-0.2,0.1-0.3,0.1-0.3c0-0.1,0-0.2,0-0.3
							c0-0.1,0-0.2,0-0.4c0-0.1,0-0.2,0-0.3c0-0.1,0-0.2,0-0.2c0-0.1,0-0.3-0.1-0.5C224.3,335.5,224.3,335.3,224.2,335.1z
							 M222.5,337.4c0,0.1-0.1,0.2-0.1,0.4c-0.1,0.1-0.1,0.3-0.2,0.4c-0.1,0.1-0.2,0.3-0.4,0.4c-0.1,0.1-0.3,0.2-0.5,0.3
							c-0.2,0.1-0.4,0.1-0.7,0.1c-0.3,0-0.6,0-0.9-0.1c-0.2-0.1-0.4-0.2-0.6-0.3c-0.1-0.1-0.3-0.3-0.3-0.5c-0.1-0.2-0.1-0.4-0.2-0.5
							c0-0.2-0.1-0.4-0.1-0.6c0-0.2,0-0.4,0-0.5c0-0.1,0-0.2,0-0.3c0-0.1,0.1-0.3,0.2-0.4c0.1-0.1,0.2-0.3,0.3-0.4
							c0.1-0.2,0.2-0.3,0.4-0.4c0.1-0.1,0.3-0.2,0.5-0.3c0.2-0.1,0.4-0.1,0.6-0.1c0.5,0,0.9,0.1,1.2,0.3c0.3,0.2,0.5,0.4,0.6,0.7
							c0.1,0.3,0.2,0.5,0.2,0.8c0,0.3,0,0.5,0,0.8C222.5,337.2,222.5,337.3,222.5,337.4z"/>
					</g>
					<g>
						<path fill="#4672B8" d="M215.1,362.8c0-1.1-0.4-2-1.1-2.7c-0.7-0.7-1.7-1.1-2.8-1.1c-1,0-1.9,0.4-2.6,1.1
							c-0.7,0.7-1.1,1.7-1.1,2.8h1.9c0.1-0.6,0.3-1.1,0.6-1.4c0.4-0.3,0.8-0.5,1.3-0.5c0.6,0,1.1,0.2,1.4,0.6
							c0.3,0.4,0.5,0.8,0.5,1.3c0,0.2,0,0.4-0.1,0.6c-0.1,0.2-0.2,0.5-0.4,0.7l-5.3,6.6v1.8h7.7v-1.9h-5.2l4.3-5.4
							C214.8,364.5,215.1,363.7,215.1,362.8z"/>
						<path fill="#4672B8" d="M222.4,365.5c0.6-0.4,0.9-0.8,1.2-1.3c0.2-0.5,0.3-1,0.3-1.5c0-1-0.4-1.9-1.1-2.7
							c-0.7-0.8-1.7-1.2-2.9-1.2c-1,0-1.8,0.4-2.5,1c-0.7,0.7-1.1,1.5-1.2,2.5h1.9c0.1-0.6,0.4-1,0.7-1.2c0.3-0.3,0.7-0.4,1.1-0.4
							c0.6,0,1,0.2,1.4,0.5c0.4,0.4,0.6,0.8,0.6,1.4c0,0.6-0.2,1-0.5,1.4c-0.4,0.4-0.9,0.5-1.5,0.5h-0.7v1.7h0.8
							c0.6,0,1.1,0.2,1.5,0.5c0.4,0.4,0.6,0.9,0.6,1.6c0,0.7-0.2,1.2-0.6,1.6c-0.4,0.4-0.9,0.6-1.4,0.6c-0.5,0-1-0.1-1.3-0.4
							c-0.3-0.3-0.6-0.6-0.7-1.1h-1.9c0.2,1.1,0.7,2,1.4,2.6c0.7,0.6,1.5,0.9,2.4,0.9c1.2,0,2.2-0.4,2.9-1.1c0.8-0.7,1.2-1.7,1.2-3
							c0-0.6-0.1-1.1-0.4-1.6C223.4,366.4,223,365.9,222.4,365.5z"/>
					</g>
					<g>
						<path fill="#4672B8" d="M213.3,397.1c0.6-0.4,0.9-0.8,1.2-1.3c0.2-0.5,0.3-1,0.3-1.5c0-1-0.4-1.9-1.1-2.7
							c-0.7-0.8-1.7-1.2-2.9-1.2c-1,0-1.8,0.4-2.5,1c-0.7,0.7-1.1,1.5-1.2,2.5h1.9c0.1-0.6,0.4-1,0.7-1.2c0.3-0.3,0.7-0.4,1.1-0.4
							c0.6,0,1,0.2,1.4,0.5c0.4,0.4,0.6,0.8,0.6,1.4c0,0.6-0.2,1-0.5,1.4c-0.4,0.4-0.9,0.5-1.5,0.5h-0.7v1.7h0.8
							c0.6,0,1.1,0.2,1.5,0.5c0.4,0.4,0.6,0.9,0.6,1.6c0,0.7-0.2,1.2-0.6,1.6c-0.4,0.4-0.9,0.6-1.4,0.6c-0.5,0-1-0.1-1.3-0.4
							c-0.3-0.3-0.6-0.6-0.7-1.1H207c0.2,1.1,0.7,2,1.4,2.6c0.7,0.6,1.5,0.9,2.4,0.9c1.2,0,2.2-0.4,2.9-1.1c0.8-0.7,1.2-1.7,1.2-3
							c0-0.6-0.1-1.1-0.4-1.6C214.3,397.9,213.9,397.5,213.3,397.1z"/>
						<path fill="#4672B8" d="M220.4,390.5c-1,0-1.9,0.3-2.6,1c-0.8,0.7-1.2,1.6-1.2,2.9v5.9c0,1.2,0.4,2.2,1.2,2.9
							c0.7,0.7,1.6,1,2.6,1c1,0,1.9-0.4,2.7-1c0.7-0.7,1.1-1.6,1.2-2.9v-5.9c0-1.2-0.4-2.2-1.2-2.9
							C222.3,390.8,221.4,390.5,220.4,390.5z M222.3,400.2c0,1.4-0.7,2.1-1.9,2.1c-1.2,0-1.9-0.7-1.9-2.1v-5.7c0-1.4,0.7-2,1.9-2.1
							c1.2,0,1.9,0.7,1.9,2.1V400.2z"/>
					</g>
				</g>
				<g>
					<g>
						<path fill="#4672B8" d="M272.1,270.8c0.6-0.4,0.9-0.8,1.2-1.3c0.2-0.5,0.3-1,0.3-1.5c0-1-0.4-1.9-1.1-2.7
							c-0.7-0.8-1.7-1.2-2.9-1.2c-1,0-1.8,0.4-2.5,1c-0.7,0.7-1.1,1.5-1.2,2.5h1.9c0.1-0.6,0.4-1,0.7-1.2c0.3-0.3,0.7-0.4,1.1-0.4
							c0.6,0,1,0.2,1.4,0.5c0.4,0.4,0.6,0.8,0.6,1.4c0,0.6-0.2,1-0.5,1.4c-0.4,0.4-0.9,0.5-1.5,0.5h-0.7v1.7h0.8
							c0.6,0,1.1,0.2,1.5,0.5c0.4,0.4,0.6,0.9,0.6,1.6c0,0.7-0.2,1.2-0.6,1.6c-0.4,0.4-0.9,0.6-1.4,0.6c-0.5,0-1-0.1-1.3-0.4
							c-0.3-0.3-0.6-0.6-0.7-1.1h-1.9c0.2,1.1,0.7,2,1.4,2.6c0.7,0.6,1.5,0.9,2.4,0.9c1.2,0,2.2-0.4,2.9-1.1c0.8-0.7,1.2-1.7,1.2-3
							c0-0.6-0.1-1.1-0.4-1.6C273,271.6,272.6,271.2,272.1,270.8z"/>
					</g>
					<g>
						<polygon fill="#4672B8" points="258.2,297.3 258.2,299.3 260.1,297.9 260.1,309.4 262,309.4 262,295.9 260.1,295.9 						"/>
						<path fill="#4672B8" d="M270,295.8c-1,0-1.9,0.3-2.6,1c-0.8,0.7-1.2,1.6-1.2,2.9v5.9c0,1.2,0.4,2.2,1.2,2.9
							c0.7,0.7,1.6,1,2.6,1c1,0,1.9-0.4,2.7-1c0.7-0.7,1.1-1.6,1.2-2.9v-5.9c0-1.2-0.4-2.2-1.2-2.9C272,296.1,271.1,295.8,270,295.8
							z M271.9,305.5c0,1.4-0.7,2.1-1.9,2.1c-1.2,0-1.9-0.7-1.9-2.1v-5.7c0-1.4,0.7-2,1.9-2.1c1.2,0,1.9,0.7,1.9,2.1V305.5z"/>
					</g>
					<g>
						<polygon fill="#4672B8" points="258.2,328.8 258.2,330.9 260.1,329.5 260.1,340.9 262,340.9 262,327.5 260.1,327.5 						"/>
						<polygon fill="#4672B8" points="266.5,331.3 268.4,331.3 268.4,329.4 272,329.4 267.4,340.9 269.6,340.9 274.1,329.4 
							274.1,327.5 266.5,327.5 						"/>
					</g>
					<g>
						<path fill="#4672B8" d="M264.7,362.8c0-1.1-0.4-2-1.1-2.7c-0.7-0.7-1.7-1.1-2.8-1.1c-1,0-1.9,0.4-2.6,1.1
							c-0.7,0.7-1.1,1.7-1.1,2.8h1.9c0.1-0.6,0.3-1.1,0.6-1.4c0.4-0.3,0.8-0.5,1.3-0.5c0.6,0,1.1,0.2,1.4,0.6
							c0.3,0.4,0.5,0.8,0.5,1.3c0,0.2,0,0.4-0.1,0.6c-0.1,0.2-0.2,0.5-0.4,0.7l-5.3,6.6v1.8h7.7v-1.9h-5.2l4.3-5.4
							C264.4,364.5,264.7,363.7,264.7,362.8z"/>
						<polygon fill="#4672B8" points="273.3,364.8 271.4,364.8 271.4,368.7 267.8,368.7 272.4,359 270.2,359 265.7,368.7 
							265.7,370.5 271.4,370.5 271.4,372.5 273.3,372.5 273.3,370.5 274.4,370.5 274.4,368.7 273.3,368.7 						"/>
					</g>
					<g>
						<path fill="#4672B8" d="M263,397.1c0.6-0.4,0.9-0.8,1.2-1.3c0.2-0.5,0.3-1,0.3-1.5c0-1-0.4-1.9-1.1-2.7
							c-0.7-0.8-1.7-1.2-2.9-1.2c-1,0-1.8,0.4-2.5,1c-0.7,0.7-1.1,1.5-1.2,2.5h1.9c0.1-0.6,0.4-1,0.7-1.2c0.3-0.3,0.7-0.4,1.1-0.4
							c0.6,0,1,0.2,1.4,0.5c0.4,0.4,0.6,0.8,0.6,1.4c0,0.6-0.2,1-0.5,1.4c-0.4,0.4-0.9,0.5-1.5,0.5h-0.7v1.7h0.8
							c0.6,0,1.1,0.2,1.5,0.5c0.4,0.4,0.6,0.9,0.6,1.6c0,0.7-0.2,1.2-0.6,1.6c-0.4,0.4-0.9,0.6-1.4,0.6c-0.5,0-1-0.1-1.3-0.4
							c-0.3-0.3-0.6-0.6-0.7-1.1h-1.9c0.2,1.1,0.7,2,1.4,2.6c0.7,0.6,1.5,0.9,2.4,0.9c1.2,0,2.2-0.4,2.9-1.1c0.8-0.7,1.2-1.7,1.2-3
							c0-0.6-0.1-1.1-0.4-1.6C264,397.9,263.5,397.5,263,397.1z"/>
						<polygon fill="#4672B8" points="267.3,392 267.3,394.1 269.2,392.7 269.2,404.1 271.1,404.1 271.1,390.6 269.2,390.6 						
							"/>
					</g>
				</g>
			</g>
		</g>
		<text transform="matrix(1 0 0 1 93.8306 197.4766)" fill="#FFFFFF" font-family="'Arial-Black'" font-size="155.6729px">1</text>
		<text transform="matrix(1 0 0 1 198.3232 197.5586)" fill="#FFFFFF" font-family="'Arial-Black'" font-size="155.6729px">2</text>
	</g>
	<g clip-path="url(#SVGID_2_)">
		<rect x="94.6" y="332" fill="#1A1D2E" width="173.9" height="12.3"/>
		<g>
			<rect x="88.9" y="201.5" fill="#FF892E" width="185.5" height="130.4"/>
			<g>
				<path fill="#FFFFFF" d="M222.9,250.5c0-6.1,3.5-9.6,8.5-9.6c5.1,0,8.5,3.5,8.5,9.6c0,6.1-3.5,9.8-8.5,9.8
					C226.4,260.3,222.9,256.6,222.9,250.5z M235.6,250.5c0-3.7-1.6-6-4.2-6c-2.6,0-4.2,2.2-4.2,6c0,3.8,1.6,6.2,4.2,6.2
					C234,256.6,235.6,254.2,235.6,250.5z"/>
				<path fill="#FFFFFF" d="M243.5,241.2h4.2v18.8h-4.2V241.2z"/>
				<path fill="#FFFFFF" d="M252.2,241.2h4.2v15.2h7.4v3.6h-11.7V241.2z"/>
			</g>
			<g>
				<path fill="#FFFFFF" d="M215.1,267.2c0,18.5-15,33.5-33.5,33.5c-18.5,0-33.5-15-33.5-33.5c0-18.5,15-33.5,33.5-33.5
					C200.1,233.7,215.1,248.7,215.1,267.2z"/>
			</g>
			<g>
				<path fill="#306B8C" d="M181.6,237.8c16.2,0,29.4,13.2,29.4,29.4c0,16.2-13.2,29.4-29.4,29.4s-29.4-13.2-29.4-29.4
					C152.2,251,165.4,237.8,181.6,237.8L181.6,237.8z M181.6,233.7c-18.5,0-33.5,15-33.5,33.5c0,18.5,15,33.5,33.5,33.5
					c18.5,0,33.5-15,33.5-33.5C215.1,248.7,200.1,233.7,181.6,233.7L181.6,233.7z"/>
			</g>
			<g>
				<path fill="#1A1D2E" d="M181.6,248.2c0,0-23.3,34.5,0,34.5V248.2z"/>
				<path fill="#1F5887" d="M181.6,248.2v34.5C204.9,282.7,181.6,248.2,181.6,248.2z M188.7,273.3c-0.8,0.1-1.7-1.2-1.9-2.9
					c-0.2-1.7,0.3-3.2,1.1-3.3c0.8-0.1,1.7,1.2,1.9,2.9C190,271.7,189.5,273.2,188.7,273.3z"/>
			</g>
			<rect x="88.9" y="267.2" opacity="0.15" width="185.5" height="64.8"/>
			<path fill="#3D91A6" d="M88.9,332h185.5H88.9z"/>
			<path fill="#B05F1F" d="M281.4,339.1h-0.1c-3.8,0-7-3.1-7-7V202.2c0-3.8,3.1-7,7-7h0.1c3.8,0,7,3.1,7,7v129.9
				C288.4,336,285.3,339.1,281.4,339.1z"/>
			<path fill="#B05F1F" d="M81.9,339.1h-0.1c-3.8,0-7-3.1-7-7V202.2c0-3.8,3.1-7,7-7h0.1c3.8,0,7,3.1,7,7v129.9
				C88.9,336,85.7,339.1,81.9,339.1z"/>
			<path fill="#FF892E" d="M288.8,332h-0.5V201.5h0.5c24.7,0,29.3,17.3,29.3,38.5v53.4C318.2,314.7,313.6,332,288.8,332z"/>
			<path opacity="0.15" d="M288.8,332h-0.5v-64.8h29.8v26.3C318.2,314.7,313.6,332,288.8,332z"/>
			<path fill="#FF892E" d="M74.3,201.5h0.5V332h-0.5C49.6,332,45,314.7,45,293.4v-53.4C45,218.8,49.6,201.5,74.3,201.5z"/>
			<path opacity="0.15" d="M74.3,332h0.5v-64.8H45v26.3C45,314.7,49.6,332,74.3,332z"/>
			<rect x="155" y="195.2" fill="#B05F1F" width="53.2" height="6.3"/>
			<path fill="#FF892E" d="M211.9,185h-60.6c-2.8,0-5,2.3-5,5v0.1c0,2.8,2.3,5,5,5h60.6c2.8,0,5-2.3,5-5V190
				C216.9,187.3,214.7,185,211.9,185z"/>
			<path fill="#1A1D2E" d="M133.5,190.1L133.5,190.1c-1.3,0-2.4,1-2.4,2.3v5.8h-30.3v-5.8c0-1.3-1-2.3-2.3-2.3h0
				c-1.3,0-2.3,1-2.3,2.3v94.7c0,1.3,1,2.3,2.3,2.3h0c1.3,0,2.3-1,2.3-2.3v-4.5h30.3v4.5c0,1.3,1,2.3,2.3,2.3h0c1.3,0,2.3-1,2.3-2.3
				v-94.7C135.9,191.1,134.8,190.1,133.5,190.1z M131.2,200.5v14.1h-30.3v-14.1H131.2z M100.9,247.5v-14.1h30.3v14.1H100.9z
				 M131.2,249.8v14.1h-30.3v-14.1H131.2z M100.9,231v-14.1h30.3V231H100.9z M100.9,280.4v-14.1h30.3v14.1H100.9z"/>
		</g>
		<g>
			<rect x="286.2" y="345.4" fill="#1F1F1F" width="5.9" height="21.8"/>
			<rect x="87.8" y="344.3" fill="#1F1F1F" width="187.6" height="22.8"/>
			<rect x="301.6" y="342.2" fill="#1F1F1F" width="135.6" height="24.9"/>
			<g>
				<path fill="#424242" d="M255.7,379.4c0,14.8-12,26.9-26.9,26.9c-14.8,0-26.9-12-26.9-26.9c0-14.8,12-26.9,26.9-26.9
					C243.7,352.6,255.7,364.6,255.7,379.4z"/>
				<path fill="#828282" d="M246.2,379.4c0,9.6-7.8,17.4-17.4,17.4c-9.6,0-17.3-7.8-17.3-17.4c0-9.6,7.8-17.4,17.3-17.4
					C238.5,362.1,246.2,369.9,246.2,379.4z"/>
				<path fill="#575757" d="M241.2,379.4c0,6.8-5.5,12.3-12.3,12.3c-6.8,0-12.3-5.5-12.3-12.3c0-6.8,5.5-12.3,12.3-12.3
					C235.7,367.1,241.2,372.7,241.2,379.4z"/>
			</g>
			<polygon fill="#4A4A4A" points="194.1,377.2 186.5,374.1 199.5,341 259.1,341 271.3,374.2 263.6,377.1 253.4,349.3 205.2,349.3 
							"/>
			<g>
				<path fill="#424242" d="M160.5,379.4c0,14.8-12,26.9-26.9,26.9c-14.8,0-26.9-12-26.9-26.9c0-14.8,12-26.9,26.9-26.9
					C148.4,352.6,160.5,364.6,160.5,379.4z"/>
				<path fill="#828282" d="M150.9,379.4c0,9.6-7.8,17.4-17.4,17.4c-9.6,0-17.3-7.8-17.3-17.4c0-9.6,7.8-17.4,17.3-17.4
					C143.2,362.1,150.9,369.9,150.9,379.4z"/>
				<path fill="#575757" d="M145.9,379.4c0,6.8-5.5,12.3-12.3,12.3c-6.8,0-12.3-5.5-12.3-12.3c0-6.8,5.5-12.3,12.3-12.3
					C140.4,367.1,145.9,372.7,145.9,379.4z"/>
			</g>
			<polygon fill="#4A4A4A" points="98.8,377.2 91.2,374.1 104.3,341 163.9,341 176,374.2 168.3,377.1 158.1,349.3 109.9,349.3 			
				"/>
			<path fill="#303030" d="M343.1,278.5h-4.8c-3.6,3.6-5.7,5.7-9.3,9.3v54.4h14.1V278.5z"/>
			<rect x="275.4" y="348.2" fill="#262626" width="18.4" height="15.4"/>
			<path fill="#5E5E5E" d="M285.5,365h16.1v-17.8h-16.1c-4.9,0-8.8,3.9-8.8,8.8v0.2C276.7,361,280.6,365,285.5,365z"/>
		</g>
		<g>
			<g>
				<path fill="#424242" d="M425.3,379.4c0,14.8-12,26.9-26.9,26.9c-14.8,0-26.9-12-26.9-26.9c0-14.8,12-26.9,26.9-26.9
					C413.2,352.6,425.3,364.6,425.3,379.4z"/>
				<path fill="#828282" d="M415.8,379.4c0,9.6-7.8,17.4-17.3,17.4c-9.6,0-17.4-7.8-17.4-17.4c0-9.6,7.8-17.4,17.4-17.4
					C408,362.1,415.8,369.9,415.8,379.4z"/>
				<path fill="#575757" d="M410.7,379.4c0,6.8-5.5,12.3-12.3,12.3c-6.8,0-12.3-5.5-12.3-12.3c0-6.8,5.5-12.3,12.3-12.3
					C405.2,367.1,410.7,372.7,410.7,379.4z"/>
			</g>
			<g>
				<path fill="#306B8C" d="M426.3,220h-75.6c-4.2,0-7.6,3.4-7.6,7.6v141.8c0,4.2,3.4,7.6,7.6,7.6h6.9c3.6,0,6.6-2.5,7.4-6l4.6-20.6
					c0.8-3.5,3.9-6,7.5-6c8.2,0.1,21.1,0.4,22.9,0.4c0.1,0,0.3,0,0.4,0l20.6-0.8c3.8-0.1,7.2,2.6,7.8,6.4l3.3,20.1
					c0.6,3.7,3.8,6.4,7.5,6.4h21c4.2,0,7.6-3.4,7.6-7.6v-92.9c0-1.6-0.5-3.1-1.4-4.4l-34.3-48.9C431.1,221.2,428.8,220,426.3,220z"
					/>
				<path opacity="0.15" d="M343.1,313.9v55.6c0,4.2,3.4,7.6,7.6,7.6h6.9c3.6,0,6.6-2.5,7.4-6l4.6-20.6c0.8-3.5,3.9-6,7.5-6
					c8.2,0.1,21.1,0.4,22.9,0.4c0.1,0,0.3,0,0.4,0l20.6-0.8c3.8-0.1,7.2,2.6,7.8,6.4l3.3,20.1c0.6,3.7,3.8,6.4,7.5,6.4h21
					c4.2,0,7.6-3.4,7.6-7.6v-55.6H343.1z"/>
				<path fill="#46A7D4" d="M446,273.4l-37.9,0c-4.6,0-8.3-3.7-8.3-8.3v-27.4c0-4.6,3.7-8.3,8.3-8.3h16.7c2.2,0,4.2,1.1,5.5,2.9
					l21.2,30.6C454.5,267.4,451.4,273.4,446,273.4z"/>
				<path fill="#20485E" d="M415.5,288.8h-10.6c-1.3,0-2.3-1-2.3-2.3v0c0-1.3,1-2.3,2.3-2.3h10.6c1.3,0,2.3,1,2.3,2.3v0
					C417.8,287.8,416.7,288.8,415.5,288.8z"/>
				<path fill="#E0671B" d="M373,313.9c0,1.8-2.7,3.2-6.1,3.2c-3.4,0-6.1-1.4-6.1-3.2c0-1.8,2.7-3.2,6.1-3.2
					C370.2,310.7,373,312.1,373,313.9z"/>
				<path fill="#20485E" d="M356.3,273.4h33.4c1.6,0,2.9-1.3,2.9-2.9v-38.3c0-1.6-1.3-2.9-2.9-2.9h-33.4c-1.6,0-2.9,1.3-2.9,2.9
					v38.3C353.4,272.1,354.7,273.4,356.3,273.4z"/>
				<path fill="#424242" d="M473.6,373.6h-23c-1.4,0-3-2.1-3.4-3.4l-10-25.5c0-1.9,1.5-3.4,3.4-3.4h33c1.9,0,3.4,1.5,3.4,3.4v25.5
					C477,372.1,475.5,373.6,473.6,373.6z"/>
			</g>
			<g>
				<path fill="#20485E" d="M464.3,322c0,8-3.7,14.4-8.3,14.4c-4.6,0-8.3-6.5-8.3-14.4s3.7-14.4,8.3-14.4
					C460.5,307.6,464.3,314.1,464.3,322z"/>
				<path fill="#B5F0FF" d="M463.4,322c0,6.3-2.9,11.4-6.5,11.4c-3.6,0-6.5-5.1-6.5-11.4c0-6.3,2.9-11.4,6.5-11.4
					C460.5,310.7,463.4,315.8,463.4,322z"/>
			</g>
			<polygon fill="#4A4A4A" points="363.7,377.2 356,374.1 369.1,341 428.7,341 440.8,374.2 433.1,377.1 422.9,349.3 374.7,349.3 			
				"/>
		</g>
	</g>
</g>
</svg>
