<?xml version="1.0" encoding="utf-8"?>
<!-- Generator: Adobe Illustrator 24.1.2, SVG Export Plug-In . SVG Version: 6.00 Build 0)  -->
<svg version="1.1" id="Layer_1" xmlns="http://www.w3.org/2000/svg" xmlns:xlink="http://www.w3.org/1999/xlink" x="0px" y="0px"
	 width="512px" height="512px" viewBox="0 0 512 512" enable-background="new 0 0 512 512" xml:space="preserve">
<g>
	<circle fill="#FFFFFF" cx="256" cy="256" r="256"/>
</g>
<g>
	<path fill="#B2B2B2" d="M291.2,81.5c-0.1,0-0.1,0-0.2,0c-0.1,0-0.1,0-0.2,0.1c-0.1,0-0.2,0.1-0.3,0.1c0,0,0,0-0.1,0l-58.2,22
		l-0.9-2.5c-2.3-6.1-9.1-9.2-15.2-6.9l-23.2,8.8c0-2-0.4-4-1.1-6c-3.5-9.2-13.7-13.8-22.9-10.3c-9.2,3.5-13.8,13.7-10.3,22.9
		c0.7,2,1.8,3.7,3.1,5.2l-23.2,8.8c-6.1,2.3-9.2,9.1-6.9,15.2l0.9,2.5l-58.2,22c0,0,0,0,0,0c-0.1,0-0.2,0.1-0.3,0.1
		c-0.1,0-0.1,0.1-0.2,0.1c-0.1,0-0.1,0.1-0.2,0.1c-4,1.9-5.9,6.6-4.3,10.7l109.9,291.1c1.7,4.4,6.6,6.7,11,5l32.1-12.1l184-69.5
		c4.4-1.7,6.7-6.6,5-11l-99.3-263l-10.6-28.1C300,82.5,295.4,80.3,291.2,81.5z M172.5,96.2c4-1.5,8.4,0.5,9.9,4.5
		c1.5,4-0.5,8.4-4.5,9.9c-4,1.5-8.4-0.5-9.9-4.5C166.5,102.1,168.5,97.7,172.5,96.2z"/>
	<g>
		<path fill="#8C3517" d="M295.1,83.8L405,374.9c1.7,4.4-0.6,9.4-5,11l-216.1,81.6c-4.4,1.7-9.4-0.6-11-5L62.9,171.4
			c-1.6-4.3,0.5-9.1,4.7-10.9c0.1,0,0.2-0.1,0.3-0.1l216.1-81.6c0.1,0,0.2-0.1,0.3-0.1C288.7,77.2,293.5,79.5,295.1,83.8z"/>
		<path fill="#D25022" d="M398.5,381.9l-216.1,81.6c-3.3,1.3-7-0.4-8.3-3.7L64.2,168.7c-1.3-3.3,0.4-7,3.7-8.3l216.1-81.6
			c3.3-1.3,7,0.4,8.3,3.7l109.9,291.1C403.5,376.9,401.8,380.7,398.5,381.9z"/>
		<path fill="#EDEDED" d="M305.7,111.9l99.3,263c1.7,4.4-0.6,9.4-5,11l-184,69.5l-30.3-13.7l95-341.2L305.7,111.9z"/>
		<g>
			<polygon fill="#FFFFFA" points="280.7,100.6 84.8,174.5 185.7,441.7 350.6,379.5 369.9,336.8 			"/>
			<polygon fill="#E0E0CE" points="350.6,379.5 369.9,336.8 338.9,348.5 			"/>
		</g>
		<g>
			<path fill="#FFD800" d="M209.7,91.4l-23.2,8.8c0-2-0.4-4-1.1-6c-3.5-9.2-13.7-13.8-22.9-10.3c-9.2,3.5-13.8,13.7-10.3,22.9
				c0.7,2,1.8,3.7,3.1,5.2l-23.2,8.8c-6.1,2.3-9.2,9.1-6.9,15.2l9.7,25.6l99.7-37.6l-9.7-25.6C222.6,92.2,215.8,89.1,209.7,91.4z
				 M171.5,107.7c-4,1.5-8.4-0.5-9.9-4.5c-1.5-4,0.5-8.4,4.5-9.9c4-1.5,8.4,0.5,9.9,4.5C177.5,101.7,175.5,106.2,171.5,107.7z"/>
			<path fill="#F6F6F6" d="M128.1,143.7l6.7,17.8l99.7-37.6l-6.7-17.8L128.1,143.7z"/>
			<path fill="#DADADA" d="M132.5,155.4l2.3,6.2l99.7-37.6l-2.3-6.2L132.5,155.4z"/>
		</g>
		
			<rect x="118.9" y="159.5" transform="matrix(0.9355 -0.3532 0.3532 0.9355 -46.4551 79.2282)" fill="#C3D5DF" width="149.8" height="14.8"/>
		<g>
			<g>
				
					<rect x="185.7" y="192.7" transform="matrix(0.9355 -0.3532 0.3532 0.9355 -53.9981 96.6684)" fill="#DAE3E8" width="104.4" height="7.2"/>
				
					<rect x="191.5" y="210.6" transform="matrix(0.9355 -0.3532 0.3532 0.9355 -60.7874 95.3202)" fill="#DAE3E8" width="78.4" height="7.2"/>
				
					<rect x="181.4" y="183.9" transform="matrix(0.9355 -0.3532 0.3532 0.9355 -51.9911 90.029)" fill="#8BCFCA" width="78.4" height="7.2"/>
			</g>
			<g>
				<path fill="#ED1C24" d="M155.9,213.7c-1.5,1.6-6.8,15.7-10,22.6l-5.3-2.4c-0.7-0.4-2.2-1.7-2.8-0.3l-0.6,2.6
					c-0.5,1.4,1.1,2.9,2.1,3.2l8.9,4.8c0.9,0.3,2.1-0.6,2.6-2.1l0.4-1.2l0,0l6.7-26.1C158.4,213.3,159.6,210,155.9,213.7z"/>
				<g>
					<path fill="#DAE3E8" d="M169.8,242.8l-26.4,10c-2.8,1.1-5.9-0.4-7-3.1l-10-26.4c-1.1-2.8,0.4-5.9,3.1-7l26.4-10
						c2.8-1.1,5.9,0.4,7,3.1l10,26.4C173.9,238.6,172.5,241.8,169.8,242.8z M130.7,219.2c-1.2,0.4-1.8,1.8-1.3,3l10,26.4
						c0.4,1.2,1.8,1.8,3,1.3l26.4-10c1.2-0.4,1.8-1.8,1.3-3l-10-26.4c-0.4-1.2-1.8-1.8-3-1.3L130.7,219.2z"/>
				</g>
			</g>
			<g>
				
					<rect x="205.4" y="245" transform="matrix(0.9355 -0.3532 0.3532 0.9355 -71.2089 107.0212)" fill="#DAE3E8" width="104.4" height="7.2"/>
				
					<rect x="211.3" y="262.9" transform="matrix(0.9355 -0.3532 0.3532 0.9355 -77.9982 105.673)" fill="#DAE3E8" width="78.4" height="7.2"/>
				
					<rect x="201.2" y="236.2" transform="matrix(0.9355 -0.3532 0.3532 0.9355 -69.2019 100.3818)" fill="#8BCFCA" width="78.4" height="7.2"/>
			</g>
			<g>
				<path fill="#ED1C24" d="M175.7,266c-1.5,1.6-6.8,15.7-10,22.6l-5.3-2.4c-0.7-0.4-2.2-1.7-2.8-0.3l-0.6,2.6
					c-0.5,1.4,1.1,2.9,2.1,3.2l8.9,4.8c0.9,0.3,2.1-0.6,2.6-2.1l0.4-1.2l0,0l6.7-26.1C178.2,265.6,179.4,262.4,175.7,266z"/>
				<g>
					<path fill="#DAE3E8" d="M189.5,295.1l-26.4,10c-2.8,1.1-5.9-0.4-7-3.1l-10-26.4c-1.1-2.8,0.4-5.9,3.1-7l26.4-10
						c2.8-1.1,5.9,0.4,7,3.1l10,26.4C193.7,291,192.3,294.1,189.5,295.1z M150.4,271.5c-1.2,0.4-1.8,1.8-1.3,3l10,26.4
						c0.4,1.2,1.8,1.8,3,1.3l26.4-10c1.2-0.4,1.8-1.8,1.3-3l-10-26.4c-0.4-1.2-1.8-1.8-3-1.3L150.4,271.5z"/>
				</g>
			</g>
			<g>
				
					<rect x="225.2" y="297.4" transform="matrix(0.9355 -0.3532 0.3532 0.9355 -88.4197 117.3739)" fill="#DAE3E8" width="104.4" height="7.2"/>
				
					<rect x="231.1" y="315.3" transform="matrix(0.9355 -0.3532 0.3532 0.9355 -95.209 116.0258)" fill="#DAE3E8" width="78.4" height="7.2"/>
				
					<rect x="221" y="288.5" transform="matrix(0.9355 -0.3532 0.3532 0.9355 -86.4127 110.7345)" fill="#8BCFCA" width="78.4" height="7.2"/>
			</g>
			<g>
				<g>
					<path fill="#DAE3E8" d="M209.3,347.5l-26.4,10c-2.8,1.1-5.9-0.4-7-3.1l-10-26.4c-1.1-2.8,0.4-5.9,3.1-7l26.4-10
						c2.8-1.1,5.9,0.4,7,3.1l10,26.4C213.5,343.3,212.1,346.4,209.3,347.5z M170.2,323.8c-1.2,0.4-1.8,1.8-1.3,3l10,26.4
						c0.4,1.2,1.8,1.8,3,1.3l26.4-10c1.2-0.4,1.8-1.8,1.3-3l-10-26.4c-0.4-1.2-1.8-1.8-3-1.3L170.2,323.8z"/>
				</g>
			</g>
			<g>
				
					<rect x="244.9" y="349.7" transform="matrix(0.9355 -0.3532 0.3532 0.9355 -105.6305 127.7267)" fill="#DAE3E8" width="104.4" height="7.2"/>
				
					<rect x="250.8" y="367.6" transform="matrix(0.9355 -0.3532 0.3532 0.9355 -112.4198 126.3785)" fill="#DAE3E8" width="78.4" height="7.2"/>
				
					<rect x="240.7" y="340.9" transform="matrix(0.9355 -0.3532 0.3532 0.9355 -103.6235 121.0873)" fill="#8BCFCA" width="78.4" height="7.2"/>
			</g>
			<g>
				<g>
					<path fill="#DAE3E8" d="M229,399.8l-26.4,10c-2.8,1.1-5.9-0.4-7-3.1l-10-26.4c-1.1-2.8,0.4-5.9,3.1-7l26.4-10
						c2.8-1.1,5.9,0.4,7,3.1l10,26.4C233.2,395.6,231.8,398.7,229,399.8z M189.9,376.2c-1.2,0.4-1.8,1.8-1.3,3l10,26.4
						c0.4,1.2,1.8,1.8,3,1.3l26.4-10c1.2-0.4,1.8-1.8,1.3-3l-10-26.4c-0.4-1.2-1.8-1.8-3-1.3L189.9,376.2z"/>
				</g>
			</g>
		</g>
	</g>
</g>
<g>
	<path fill="#C6C6C6" d="M404.9,107.8c-0.3-1.3-0.9-2.5-2-3.6l-6.3-6.3c-2.4-2.4-6-2.8-7.9-0.9l-10.4,10.4l-4.7,4.7L268.6,217
		l-11.5,21.6l0,0l0,0l-0.2,0.3c0,0,0,0,0,0l-3.3,6.3c0,0.1-0.1,0.2,0,0.3c0.1,0.4,0.4,0.8,0.6,1.1s0.6,0.5,1.1,0.6
		c0.1,0,0.2,0,0.3,0l6.3-3.3l0.1-0.1l0.1,0l0.1,0l0,0l0,0l16.4-8.7l0,0l5.2-2.7l0,0l104.9-104.9l4.7-4.7l0,0l0,0l10.4-10.4
		C404.9,111,405.2,109.4,404.9,107.8z"/>
	<g>
		
			<rect x="251.4" y="158.4" transform="matrix(0.7071 -0.7071 0.7071 0.7071 -24.2136 279.7825)" fill-rule="evenodd" clip-rule="evenodd" fill="#F99F05" width="148.4" height="21.5"/>
		<path fill-rule="evenodd" clip-rule="evenodd" fill="#F0B16C" d="M280.8,229.2l-5.2,2.7l0,0l-16.4,8.7l0,0l0,0l-0.2,0.1l-0.1,0.1
			l-6.3,3.3c-0.1,0-0.2,0.1-0.3,0c-0.4-0.1-0.8-0.4-1.1-0.6s-0.5-0.6-0.6-1.1c0-0.1,0-0.2,0-0.3l3.3-6.3l0.2-0.3l0,0l8.7-16.4l0,0
			l2.7-5.2L280.8,229.2z"/>
		<path fill-rule="evenodd" clip-rule="evenodd" fill="#ED1C24" d="M258.8,240.8l-6.3,3.3c-0.1,0-0.2,0.1-0.3,0
			c-0.4-0.1-0.8-0.4-1.1-0.6s-0.5-0.6-0.6-1.1c0-0.1,0-0.2,0-0.3l3.3-6.3c0.2,0.2,0.5,0.4,0.7,0.6c0.6,0.6,1.3,1.1,1.9,1.8
			c0.6,0.6,1.2,1.3,1.8,1.9C258.5,240.4,258.6,240.6,258.8,240.8z"/>
		<polygon fill="#58595B" points="370.5,109.1 265.6,214 254.1,235.6 375.5,114.1 		"/>
		<path fill="#414042" d="M254.1,235.6l121.5-121.5l5.1,5.1L259.1,240.7l-0.3,0.2c-0.7-0.9-1.5-1.7-2.4-2.6
			c-0.8-0.8-1.7-1.6-2.6-2.4L254.1,235.6z"/>
		
			<rect x="377.1" y="103.6" transform="matrix(0.7071 -0.7071 0.7071 0.7071 30.5971 302.4859)" fill="#D1D3D4" width="6.7" height="21.5"/>
		<path fill="#F85A68" d="M399.9,101.2l-6.3-6.3c-2.4-2.4-6-2.8-7.9-0.9l-10.4,10.4l15.2,15.2l10.4-10.4
			C402.7,107.2,402.3,103.6,399.9,101.2z"/>
		<path fill="#EDEDED" d="M400.8,109.1l-10.4,10.4l-7.6-7.6L396.7,98l3.2,3.2C402.3,103.6,402.7,107.2,400.8,109.1z"/>
	</g>
</g>
<g>
	<path fill="#E9EFF4" d="M455,443.2H203.4v-42.7c0-30.3,19.4-57.2,48.1-66.8l46.2-15.4h62.9l46.2,15.4c28.8,9.6,48.1,36.5,48.1,66.8
		V443.2L455,443.2z"/>
	<path fill="#D0D1D3" d="M455,400.5c0-30.3-19.4-57.2-48.1-66.8l-46.2-15.4h-31.4v124.8H455V400.5z"/>
	<polygon fill="#FED8B2" points="360.7,318.3 329.2,349.7 297.8,318.3 297.8,286.8 360.7,286.8 	"/>
	<polygon fill="#EFC095" points="360.7,286.8 329.2,286.8 329.2,349.7 360.7,318.3 	"/>
	<path fill="#F4E3C3" d="M266.3,224c0-34.8,28.1-62.9,62.9-62.9c34.8,0,62.9,28.1,62.9,62.9s-28.1,94.3-62.9,94.3
		S266.3,258.7,266.3,224z"/>
	<path fill="#FED8B2" d="M392.1,224c0-34.8-28.1-62.9-62.9-62.9v157.2C364,318.3,392.1,258.7,392.1,224z"/>
	<path fill="#3F3B3B" d="M392.1,224c0-34.8-28.1-62.9-62.9-62.9s-62.9,28.1-62.9,62.9c0,13.9,4.5,31.7,12.1,48.1
		c-1.8-9.4-1.3-19.1-0.4-26.4c39.9-3.1,78.5-21.9,78.5-21.9s4.8,9,23.1,16.9c1.3,7.4,2.6,19.5,0.3,31.3
		C387.6,255.6,392.1,237.8,392.1,224z"/>
	<path fill="#272525" d="M392.1,224c0-34.8-28.1-62.9-62.9-62.9v73.5c16.3-5.4,27.3-10.7,27.3-10.7s4.8,9,23.1,16.9
		c1.3,7.4,2.6,19.5,0.3,31.3C387.6,255.6,392.1,237.8,392.1,224z"/>
	<polygon fill="#FC9483" points="316,442.1 324.8,360.2 333.7,360.2 342.4,442.1 	"/>
	<polygon fill="#FD8469" points="333.7,360.2 329.2,360.2 329.2,442.1 342.4,442.1 	"/>
	<path fill="#324A5E" d="M329.2,442.1l-45.8-118.9l-31.8,10.6c-28.8,9.6-48.1,36.5-48.1,66.8v42.7h125.8V442.1L329.2,442.1z"/>
	<path fill="#2B3B4E" d="M455,400.5c0-30.3-19.4-57.2-48.1-66.8L375,323.1L329.2,442v1.1H455V400.5L455,400.5z"/>
	<polygon fill="#1B2B3A" points="375.1,323.1 383.8,360.2 367.3,368.5 383.8,387.5 329.2,442.1 	"/>
	<polygon fill="#2B3B4E" points="283.4,323.1 274.7,360.2 291.2,368.5 274.7,387.5 329.2,442.1 	"/>
	<polygon fill="#FD8469" points="346.6,349.9 335,377.2 323.4,377.2 311.9,349.9 	"/>
	<polygon fill="#FC6F58" points="346.6,349.9 329.2,349.9 329.2,377.2 335,377.2 	"/>
	<polygon fill="#E9EFF4" points="356.5,360.2 375.1,323.1 360.7,318.3 329.2,349.7 	"/>
	<polygon fill="#FFFFFF" points="302,360.2 283.4,323.1 297.8,318.3 329.2,349.7 	"/>
</g>
</svg>
