<?xml version="1.0" encoding="utf-8"?>
<!-- Generator: Adobe Illustrator 24.1.2, SVG Export Plug-In . SVG Version: 6.00 Build 0)  -->
<svg version="1.1" id="Layer_1" xmlns="http://www.w3.org/2000/svg" xmlns:xlink="http://www.w3.org/1999/xlink" x="0px" y="0px"
	 width="512px" height="512px" viewBox="0 0 512 512" enable-background="new 0 0 512 512" xml:space="preserve">
<g>
	<circle fill="#FFFFFF" cx="256" cy="256" r="256"/>
</g>
<g>
	
		<image overflow="visible" opacity="0.75" width="192" height="150" xlink:href="A1625A8E.png"  transform="matrix(1 0 0 1 64.0916 75.0916)">
	</image>
	<g>
		<g>
			<polygon fill="#FFC837" stroke="#E5AA0A" stroke-width="6.0141" stroke-miterlimit="10" points="214.2,92.4 214.2,101.2 
				201.8,101.2 201.8,92.4 71,92.4 71,103.7 75.1,103.7 75.1,211.6 237.8,211.6 237.8,103.7 241.9,103.7 241.9,92.4 			"/>
			<path fill="none" stroke="#000000" stroke-width="0.5521" stroke-linecap="round" stroke-miterlimit="10" d="M204.2,211.5v-5.1
				h7.6v5.1h1.9V103.7h-1.9v5.4h-7.6v-5.4h-1.9v107.8H204.2z M204.2,111.2h7.6v5.8h-7.6V111.2z M204.2,119.1h7.6v5.9h-7.6V119.1z
				 M204.2,127h7.6v5.9h-7.6V127z M204.2,135h7.6v5.9h-7.6V135z M204.2,142.9h7.6v5.9h-7.6V142.9z M204.2,150.8h7.6v5.9h-7.6V150.8z
				 M204.2,158.8h7.6v5.8h-7.6V158.8z M204.2,166.7h7.6v5.9h-7.6V166.7z M204.2,174.6h7.6v5.9h-7.6V174.6z M204.2,182.6h7.6v5.9
				h-7.6V182.6z M204.2,190.5h7.6v5.8h-7.6V190.5z M204.2,198.4h7.6v5.9h-7.6V198.4z"/>
			<path fill="#F7931E" d="M236.4,91.3c-25.2-4.7-51.2-7.2-77.7-7.4v-1.7c0.9-0.3,1.5-0.8,1.5-1.4c0-1-1.7-1.8-3.8-1.8
				s-3.8,0.8-3.8,1.8c0,0.6,0.6,1.1,1.5,1.4V84c-26.7,0.1-52.9,2.6-78.3,7.4H204v7.2h8.1v-7.2H236.4z"/>
			<path opacity="0.5" fill="#FFFFFF" d="M92.7,196.9c0,2.7-1.2,4.9-2.7,4.9h-3.6c-1.5,0-2.7-2.2-2.7-4.9v-78.7
				c0-2.7,1.2-4.9,2.7-4.9H90c1.5,0,2.7,2.2,2.7,4.9V196.9z M87.3,94.9h-4.5v6.3h4.5V94.9z M95.2,94.9h-4.5v6.3h4.5V94.9z
				 M103.1,94.9h-4.5v6.3h4.5V94.9z M111.1,94.9h-4.5v6.3h4.5V94.9z M119,94.9h-4.5v6.3h4.5V94.9z M126.9,94.9h-4.5v6.3h4.5V94.9z
				 M134.9,94.9h-4.5v6.3h4.5V94.9z M142.8,94.9h-4.5v6.3h4.5V94.9z M150.8,94.9h-4.5v6.3h4.5V94.9z M158.7,94.9h-4.5v6.3h4.5V94.9z
				 M166.6,94.9h-4.5v6.3h4.5V94.9z M174.6,94.9h-4.5v6.3h4.5V94.9z M182.5,94.9H178v6.3h4.5V94.9z M190.4,94.9h-4.5v6.3h4.5V94.9z
				 M198.4,94.9h-4.5v6.3h4.5V94.9z M222.2,94.9h-4.5v6.3h4.5V94.9z M230.1,94.9h-4.5v6.3h4.5V94.9z M79.3,94.9h-4.5v6.3h4.5V94.9z
				 M238,94.9h-4.5v6.3h4.5V94.9z"/>
		</g>
	</g>
</g>
<g>
	
		<image overflow="visible" opacity="0.75" width="264" height="207" xlink:href="A1625A92.png"  transform="matrix(1 0 0 1 177.4681 231.4681)">
	</image>
	<g>
		<g>
			<polygon fill="#FFC837" stroke="#E5AA0A" stroke-width="8.298" stroke-miterlimit="10" points="384.9,255.8 384.9,268 367.7,268 
				367.7,255.8 187.2,255.8 187.2,271.4 192.8,271.4 192.8,420.3 417.4,420.3 417.4,271.4 423,271.4 423,255.8 			"/>
			<path fill="none" stroke="#000000" stroke-width="0.7617" stroke-linecap="round" stroke-miterlimit="10" d="M371,420.2v-7h10.5
				v7h2.6V271.4h-2.6v7.4H371v-7.4h-2.6v148.8H371z M371,281.7h10.5v8.1H371V281.7z M371,292.7h10.5v8.1H371V292.7z M371,303.6h10.5
				v8.1H371V303.6z M371,314.6h10.5v8.1H371V314.6z M371,325.5h10.5v8.1H371V325.5z M371,336.5h10.5v8.1H371V336.5z M371,347.4h10.5
				v8.1H371V347.4z M371,358.4h10.5v8.1H371V358.4z M371,369.3h10.5v8.1H371V369.3z M371,380.3h10.5v8.1H371V380.3z M371,391.2h10.5
				v8.1H371V391.2z M371,402.2h10.5v8.1H371V402.2z"/>
			<path fill="#F7931E" d="M415.4,254.4c-34.8-6.5-70.6-10-107.2-10.2v-2.3c1.2-0.5,2.1-1.2,2.1-2c0-1.4-2.3-2.5-5.2-2.5
				s-5.2,1.1-5.2,2.5c0,0.8,0.8,1.5,2.1,2v2.3c-36.9,0.2-73,3.6-108.1,10.2h176.8v10h11.1v-10H415.4z"/>
			<path opacity="0.5" fill="#FFFFFF" d="M217.2,400.1c0,3.7-1.7,6.7-3.7,6.7h-5c-2.1,0-3.7-3-3.7-6.7V291.6c0-3.7,1.7-6.7,3.7-6.7
				h5c2.1,0,3.7,3,3.7,6.7V400.1z M209.7,259.2h-6.2v8.7h6.2V259.2z M220.6,259.2h-6.2v8.7h6.2V259.2z M231.6,259.2h-6.2v8.7h6.2
				V259.2z M242.5,259.2h-6.2v8.7h6.2V259.2z M253.5,259.2h-6.2v8.7h6.2V259.2z M264.4,259.2h-6.2v8.7h6.2V259.2z M275.4,259.2h-6.2
				v8.7h6.2V259.2z M286.3,259.2h-6.2v8.7h6.2V259.2z M297.3,259.2h-6.2v8.7h6.2V259.2z M308.2,259.2H302v8.7h6.2V259.2z
				 M319.2,259.2H313v8.7h6.2V259.2z M330.1,259.2h-6.2v8.7h6.2V259.2z M341.1,259.2h-6.2v8.7h6.2V259.2z M352,259.2h-6.2v8.7h6.2
				V259.2z M363,259.2h-6.2v8.7h6.2V259.2z M395.8,259.2h-6.2v8.7h6.2V259.2z M406.8,259.2h-6.2v8.7h6.2V259.2z M198.7,259.2h-6.2
				v8.7h6.2V259.2z M417.7,259.2h-6.2v8.7h6.2V259.2z"/>
		</g>
	</g>
</g>
<g>
	<g>
		
			<linearGradient id="SVGID_1_" gradientUnits="userSpaceOnUse" x1="84.4045" y1="317.7643" x2="84.4045" y2="279.0255" gradientTransform="matrix(0.9836 0.1802 -0.1802 0.9836 74.4086 -22.629)">
			<stop  offset="0.2398" style="stop-color:#000000"/>
			<stop  offset="1" style="stop-color:#076C77"/>
		</linearGradient>
		<path fill="url(#SVGID_1_)" d="M129,235.8l-13,70.8c-11.4-7.4-19.5-19.1-22.3-32.4c-1.4-6.4-1.6-13.3-0.3-20.2l4.4-24L129,235.8z"
			/>
		<path fill="#09909F" d="M223,313.3l-19.7-28.5l-27.7-5.1l7.6,11l-89.5-16.4c2.9,13.3,10.9,25,22.3,32.4c5.5,3.6,11.8,6.2,18.7,7.4
			l41.4,7.6l-9.5,6.6l27.7,5.1l9.5-6.6l19-13.1l-0.1-0.2L223,313.3z"/>
	</g>
</g>
</svg>
