<?xml version="1.0" encoding="utf-8"?>
<!-- Generator: Adobe Illustrator 24.1.2, SVG Export Plug-In . SVG Version: 6.00 Build 0)  -->
<svg version="1.1" id="Layer_1" xmlns="http://www.w3.org/2000/svg" xmlns:xlink="http://www.w3.org/1999/xlink" x="0px" y="0px"
	 width="512px" height="512px" viewBox="0 0 512 512" enable-background="new 0 0 512 512" xml:space="preserve">
<g>
	<circle fill="#FFFFFF" cx="256" cy="256" r="256"/>
</g>
<g>
	<path fill="#B2B2B2" d="M291.2,81.5c-0.1,0-0.1,0-0.2,0c-0.1,0-0.1,0-0.2,0.1c-0.1,0-0.2,0.1-0.3,0.1c0,0,0,0-0.1,0l-58.2,22
		l-0.9-2.5c-2.3-6.1-9.1-9.2-15.2-6.9l-23.2,8.8c0-2-0.4-4-1.1-6c-3.5-9.2-13.7-13.8-22.9-10.3c-9.2,3.5-13.8,13.7-10.3,22.9
		c0.7,2,1.8,3.7,3.1,5.2l-23.2,8.8c-6.1,2.3-9.2,9.1-6.9,15.2l0.9,2.5l-58.2,22c0,0,0,0,0,0c-0.1,0-0.2,0.1-0.3,0.1
		c-0.1,0-0.1,0.1-0.2,0.1c-0.1,0-0.1,0.1-0.2,0.1c-4,1.9-5.9,6.6-4.3,10.7l109.9,291.1c1.7,4.4,6.6,6.7,11,5l32.1-12.1l184-69.5
		c4.4-1.7,6.7-6.6,5-11l-99.3-263l-10.6-28.1C300,82.5,295.4,80.3,291.2,81.5z M172.5,96.2c4-1.5,8.4,0.5,9.9,4.5
		c1.5,4-0.5,8.4-4.5,9.9c-4,1.5-8.4-0.5-9.9-4.5C166.5,102.1,168.5,97.7,172.5,96.2z"/>
	<g>
		<path fill="#8C3517" d="M295.1,83.8L405,374.9c1.7,4.4-0.6,9.4-5,11l-216.1,81.6c-4.4,1.7-9.4-0.6-11-5L62.9,171.4
			c-1.6-4.3,0.5-9.1,4.7-10.9c0.1,0,0.2-0.1,0.3-0.1l216.1-81.6c0.1,0,0.2-0.1,0.3-0.1C288.7,77.2,293.5,79.5,295.1,83.8z"/>
		<path fill="#D25022" d="M398.5,381.9l-216.1,81.6c-3.3,1.3-7-0.4-8.3-3.7L64.2,168.7c-1.3-3.3,0.4-7,3.7-8.3l216.1-81.6
			c3.3-1.3,7,0.4,8.3,3.7l109.9,291.1C403.5,376.9,401.8,380.7,398.5,381.9z"/>
		<path fill="#EDEDED" d="M305.7,111.9l99.3,263c1.7,4.4-0.6,9.4-5,11l-184,69.5l-30.3-13.7l95-341.2L305.7,111.9z"/>
		<g>
			<polygon fill="#FFFFFA" points="280.7,100.6 84.8,174.5 185.7,441.7 350.6,379.5 369.9,336.8 			"/>
			<polygon fill="#E0E0CE" points="350.6,379.5 369.9,336.8 338.9,348.5 			"/>
		</g>
		<g>
			<path fill="#FFD800" d="M209.7,91.4l-23.2,8.8c0-2-0.4-4-1.1-6c-3.5-9.2-13.7-13.8-22.9-10.3c-9.2,3.5-13.8,13.7-10.3,22.9
				c0.7,2,1.8,3.7,3.1,5.2l-23.2,8.8c-6.1,2.3-9.2,9.1-6.9,15.2l9.7,25.6l99.7-37.6l-9.7-25.6C222.6,92.2,215.8,89.1,209.7,91.4z
				 M171.5,107.7c-4,1.5-8.4-0.5-9.9-4.5c-1.5-4,0.5-8.4,4.5-9.9c4-1.5,8.4,0.5,9.9,4.5C177.5,101.7,175.5,106.2,171.5,107.7z"/>
			<path fill="#F6F6F6" d="M128.1,143.7l6.7,17.8l99.7-37.6l-6.7-17.8L128.1,143.7z"/>
			<path fill="#DADADA" d="M132.5,155.4l2.3,6.2l99.7-37.6l-2.3-6.2L132.5,155.4z"/>
		</g>
		
			<rect x="118.9" y="159.5" transform="matrix(0.9355 -0.3532 0.3532 0.9355 -46.4551 79.2282)" fill="#C3D5DF" width="149.8" height="14.8"/>
		<g>
			<g>
				
					<rect x="185.7" y="192.7" transform="matrix(0.9355 -0.3532 0.3532 0.9355 -53.9981 96.6684)" fill="#DAE3E8" width="104.4" height="7.2"/>
				
					<rect x="191.5" y="210.6" transform="matrix(0.9355 -0.3532 0.3532 0.9355 -60.7874 95.3202)" fill="#DAE3E8" width="78.4" height="7.2"/>
				
					<rect x="181.4" y="183.9" transform="matrix(0.9355 -0.3532 0.3532 0.9355 -51.9911 90.029)" fill="#8BCFCA" width="78.4" height="7.2"/>
			</g>
			<g>
				<path fill="#ED1C24" d="M155.9,213.7c-1.5,1.6-6.8,15.7-10,22.6l-5.3-2.4c-0.7-0.4-2.2-1.7-2.8-0.3l-0.6,2.6
					c-0.5,1.4,1.1,2.9,2.1,3.2l8.9,4.8c0.9,0.3,2.1-0.6,2.6-2.1l0.4-1.2l0,0l6.7-26.1C158.4,213.3,159.6,210,155.9,213.7z"/>
				<g>
					<path fill="#DAE3E8" d="M169.8,242.8l-26.4,10c-2.8,1.1-5.9-0.4-7-3.1l-10-26.4c-1.1-2.8,0.4-5.9,3.1-7l26.4-10
						c2.8-1.1,5.9,0.4,7,3.1l10,26.4C173.9,238.6,172.5,241.8,169.8,242.8z M130.7,219.2c-1.2,0.4-1.8,1.8-1.3,3l10,26.4
						c0.4,1.2,1.8,1.8,3,1.3l26.4-10c1.2-0.4,1.8-1.8,1.3-3l-10-26.4c-0.4-1.2-1.8-1.8-3-1.3L130.7,219.2z"/>
				</g>
			</g>
			<g>
				
					<rect x="205.4" y="245" transform="matrix(0.9355 -0.3532 0.3532 0.9355 -71.2089 107.0212)" fill="#DAE3E8" width="104.4" height="7.2"/>
				
					<rect x="211.3" y="262.9" transform="matrix(0.9355 -0.3532 0.3532 0.9355 -77.9982 105.673)" fill="#DAE3E8" width="78.4" height="7.2"/>
				
					<rect x="201.2" y="236.2" transform="matrix(0.9355 -0.3532 0.3532 0.9355 -69.2019 100.3818)" fill="#8BCFCA" width="78.4" height="7.2"/>
			</g>
			<g>
				<path fill="#ED1C24" d="M175.7,266c-1.5,1.6-6.8,15.7-10,22.6l-5.3-2.4c-0.7-0.4-2.2-1.7-2.8-0.3l-0.6,2.6
					c-0.5,1.4,1.1,2.9,2.1,3.2l8.9,4.8c0.9,0.3,2.1-0.6,2.6-2.1l0.4-1.2l0,0l6.7-26.1C178.2,265.6,179.4,262.4,175.7,266z"/>
				<g>
					<path fill="#DAE3E8" d="M189.5,295.1l-26.4,10c-2.8,1.1-5.9-0.4-7-3.1l-10-26.4c-1.1-2.8,0.4-5.9,3.1-7l26.4-10
						c2.8-1.1,5.9,0.4,7,3.1l10,26.4C193.7,291,192.3,294.1,189.5,295.1z M150.4,271.5c-1.2,0.4-1.8,1.8-1.3,3l10,26.4
						c0.4,1.2,1.8,1.8,3,1.3l26.4-10c1.2-0.4,1.8-1.8,1.3-3l-10-26.4c-0.4-1.2-1.8-1.8-3-1.3L150.4,271.5z"/>
				</g>
			</g>
			<g>
				
					<rect x="225.2" y="297.4" transform="matrix(0.9355 -0.3532 0.3532 0.9355 -88.4197 117.3739)" fill="#DAE3E8" width="104.4" height="7.2"/>
				
					<rect x="231.1" y="315.3" transform="matrix(0.9355 -0.3532 0.3532 0.9355 -95.209 116.0258)" fill="#DAE3E8" width="78.4" height="7.2"/>
				
					<rect x="221" y="288.5" transform="matrix(0.9355 -0.3532 0.3532 0.9355 -86.4127 110.7345)" fill="#8BCFCA" width="78.4" height="7.2"/>
			</g>
			<g>
				<g>
					<path fill="#DAE3E8" d="M209.3,347.5l-26.4,10c-2.8,1.1-5.9-0.4-7-3.1l-10-26.4c-1.1-2.8,0.4-5.9,3.1-7l26.4-10
						c2.8-1.1,5.9,0.4,7,3.1l10,26.4C213.5,343.3,212.1,346.4,209.3,347.5z M170.2,323.8c-1.2,0.4-1.8,1.8-1.3,3l10,26.4
						c0.4,1.2,1.8,1.8,3,1.3l26.4-10c1.2-0.4,1.8-1.8,1.3-3l-10-26.4c-0.4-1.2-1.8-1.8-3-1.3L170.2,323.8z"/>
				</g>
			</g>
			<g>
				
					<rect x="244.9" y="349.7" transform="matrix(0.9355 -0.3532 0.3532 0.9355 -105.6305 127.7267)" fill="#DAE3E8" width="104.4" height="7.2"/>
				
					<rect x="250.8" y="367.6" transform="matrix(0.9355 -0.3532 0.3532 0.9355 -112.4198 126.3785)" fill="#DAE3E8" width="78.4" height="7.2"/>
				
					<rect x="240.7" y="340.9" transform="matrix(0.9355 -0.3532 0.3532 0.9355 -103.6235 121.0873)" fill="#8BCFCA" width="78.4" height="7.2"/>
			</g>
			<g>
				<g>
					<path fill="#DAE3E8" d="M229,399.8l-26.4,10c-2.8,1.1-5.9-0.4-7-3.1l-10-26.4c-1.1-2.8,0.4-5.9,3.1-7l26.4-10
						c2.8-1.1,5.9,0.4,7,3.1l10,26.4C233.2,395.6,231.8,398.7,229,399.8z M189.9,376.2c-1.2,0.4-1.8,1.8-1.3,3l10,26.4
						c0.4,1.2,1.8,1.8,3,1.3l26.4-10c1.2-0.4,1.8-1.8,1.3-3l-10-26.4c-0.4-1.2-1.8-1.8-3-1.3L189.9,376.2z"/>
				</g>
			</g>
		</g>
	</g>
</g>
<g>
	<path fill="#C6C6C6" d="M404.9,107.8c-0.3-1.3-0.9-2.5-2-3.6l-6.3-6.3c-2.4-2.4-6-2.8-7.9-0.9l-10.4,10.4l-4.7,4.7L268.6,217
		l-11.5,21.6l0,0l0,0l-0.2,0.3c0,0,0,0,0,0l-3.3,6.3c0,0.1-0.1,0.2,0,0.3c0.1,0.4,0.4,0.8,0.6,1.1s0.6,0.5,1.1,0.6
		c0.1,0,0.2,0,0.3,0l6.3-3.3l0.1-0.1l0.1,0l0.1,0l0,0l0,0l16.4-8.7l0,0l5.2-2.7l0,0l104.9-104.9l4.7-4.7l0,0l0,0l10.4-10.4
		C404.9,111,405.2,109.4,404.9,107.8z"/>
	<g>
		
			<rect x="251.4" y="158.4" transform="matrix(0.7071 -0.7071 0.7071 0.7071 -24.2136 279.7825)" fill-rule="evenodd" clip-rule="evenodd" fill="#F99F05" width="148.4" height="21.5"/>
		<path fill-rule="evenodd" clip-rule="evenodd" fill="#F0B16C" d="M280.8,229.2l-5.2,2.7l0,0l-16.4,8.7l0,0l0,0l-0.2,0.1l-0.1,0.1
			l-6.3,3.3c-0.1,0-0.2,0.1-0.3,0c-0.4-0.1-0.8-0.4-1.1-0.6s-0.5-0.6-0.6-1.1c0-0.1,0-0.2,0-0.3l3.3-6.3l0.2-0.3l0,0l8.7-16.4l0,0
			l2.7-5.2L280.8,229.2z"/>
		<path fill-rule="evenodd" clip-rule="evenodd" fill="#ED1C24" d="M258.8,240.8l-6.3,3.3c-0.1,0-0.2,0.1-0.3,0
			c-0.4-0.1-0.8-0.4-1.1-0.6s-0.5-0.6-0.6-1.1c0-0.1,0-0.2,0-0.3l3.3-6.3c0.2,0.2,0.5,0.4,0.7,0.6c0.6,0.6,1.3,1.1,1.9,1.8
			c0.6,0.6,1.2,1.3,1.8,1.9C258.5,240.4,258.6,240.6,258.8,240.8z"/>
		<polygon fill="#58595B" points="370.5,109.1 265.6,214 254.1,235.6 375.5,114.1 		"/>
		<path fill="#414042" d="M254.1,235.6l121.5-121.5l5.1,5.1L259.1,240.7l-0.3,0.2c-0.7-0.9-1.5-1.7-2.4-2.6
			c-0.8-0.8-1.7-1.6-2.6-2.4L254.1,235.6z"/>
		
			<rect x="377.1" y="103.6" transform="matrix(0.7071 -0.7071 0.7071 0.7071 30.5971 302.4859)" fill="#D1D3D4" width="6.7" height="21.5"/>
		<path fill="#F85A68" d="M399.9,101.2l-6.3-6.3c-2.4-2.4-6-2.8-7.9-0.9l-10.4,10.4l15.2,15.2l10.4-10.4
			C402.7,107.2,402.3,103.6,399.9,101.2z"/>
		<path fill="#EDEDED" d="M400.8,109.1l-10.4,10.4l-7.6-7.6L396.7,98l3.2,3.2C402.3,103.6,402.7,107.2,400.8,109.1z"/>
	</g>
</g>
<g>
	<g>
		<path fill="#8DC63F" d="M422.2,187.6c0,3-3.3,5.8-9.1,8.3c-15.7,6.8-50.1,11.5-89.9,11.5c-24.6,0-47-1.8-64.3-4.8h0
			c-0.2,0-0.3-0.1-0.4-0.1c51.9-0.5,93.5-12.6,93.5-27.5c0-2.3-1-4.5-2.8-6.6C391.2,170.7,422.2,178.4,422.2,187.6z"/>
		<path fill="#B8E86B" d="M351.9,175c0,14.9-41.6,27.1-93.5,27.5c0,0,0,0-0.1,0c-10.7-1.9-19.4-4.2-25.3-6.8
			c-5.7-2.5-8.8-5.2-8.8-8.2c0-7.2,18.9-13.5,47.2-16.9v-11h15.7v9.4c11.2-0.9,23.4-1.4,36.1-1.4c8.9,0,17.6,0.3,25.9,0.7
			C350.9,170.5,351.9,172.7,351.9,175z"/>
		<path fill="#F9B233" d="M266.2,325L266.2,325l-0.6-0.1C265.8,324.9,266,325,266.2,325z"/>
		<line fill="none" x1="413.1" y1="317.1" x2="413.1" y2="317"/>
		<path fill="#2E3192" d="M413.1,195.9v29.2c-13.9,7.6-50.3,13-93,13c-19.9,0-38.4-1.2-54-3.2V325c-0.2,0-0.4,0-0.6-0.1
			c-2.3-0.3-4.6-0.7-6.7-1.1h0c-0.1,0-0.3-0.1-0.4-0.1c0,0,0,0-0.1,0c-3.8-0.7-7.4-1.4-10.7-2.2c-5.9-1.4-10.9-3-14.7-4.7
			c-5.7-2.5-8.8-5.3-8.8-8.2c0-2.9,3.1-5.7,8.8-8.2V195.7c5.9,2.7,14.6,5,25.3,6.8c0,0,0,0,0.1,0c0.2,0,0.3,0.1,0.4,0.1h0
			c17.3,3,39.8,4.8,64.3,4.8C363,207.4,397.4,202.7,413.1,195.9z"/>
		<path fill="#2E3192" d="M413.1,317.1v25.7c-15.8,6.8-50,11.5-89.8,11.5c-21.3,0-41-1.3-57.1-3.6v87.5
			c-25.3-3.6-41.9-9.5-41.9-16.2c0-2.9,3.1-5.7,8.7-8.1v-96.9c3.8,1.7,8.8,3.3,14.7,4.7c3.3,0.8,6.9,1.5,10.7,2.2c0,0,0,0,0.1,0
			c0.1,0,0.3,0.1,0.4,0.1h0c2.2,0.4,4.4,0.7,6.7,1.1l0.6,0.1c4.5,0.6,9.2,1.2,14.2,1.7c1.3,0.1,2.6,0.3,3.9,0.4
			c5.3,0.4,10.9,0.8,16.6,1.1c2.2,0.1,4.4,0.2,6.7,0.3c5.1,0.2,10.3,0.3,15.6,0.3c1.2,0,2.5,0,3.7,0c1.2,0,2.5,0,3.7,0
			c2.4,0,4.9-0.1,7.3-0.2c2-0.1,4-0.1,6-0.2c0.4,0,0.7,0,1.1,0c1-0.1,2-0.1,3.1-0.2c6.2-0.3,12.1-0.7,17.8-1.3
			c0.8-0.1,1.6-0.1,2.4-0.2c3.1-0.3,6.1-0.7,9-1.1c1-0.1,1.9-0.3,2.9-0.4c1.2-0.2,2.5-0.4,3.6-0.5c1.4-0.2,2.7-0.4,4.1-0.7
			c2.1-0.4,4.2-0.7,6.2-1.2c0.6-0.1,1.2-0.3,1.7-0.4c1.1-0.2,2.1-0.4,3.1-0.7c0.7-0.2,1.4-0.3,2.1-0.5c0.7-0.2,1.3-0.4,2-0.5
			c0.7-0.2,1.3-0.4,1.9-0.5c0.6-0.2,1.2-0.4,1.9-0.6c0.6-0.2,1.2-0.4,1.7-0.5c0.6-0.2,1.1-0.4,1.7-0.6c0.5-0.2,1.1-0.4,1.6-0.6
			C412.2,317.4,412.7,317.3,413.1,317.1z"/>
		<path fill="#0071BC" d="M422.2,308.7c0,0.3,0,0.5-0.1,0.8c0,0,0,0.1,0,0.1c0,0.1,0,0.1,0,0.2c-0.1,0.3-0.2,0.5-0.3,0.8
			c0,0.1-0.1,0.2-0.1,0.3c-0.1,0.1-0.1,0.2-0.2,0.4c0,0.1-0.1,0.1-0.1,0.2l-0.1,0c0,0,0,0,0,0.1l0,0h0c0,0,0,0,0,0.1
			c-0.2,0.3-0.4,0.6-0.7,0.9c-0.2,0.2-0.4,0.4-0.5,0.5c-0.2,0.2-0.4,0.4-0.6,0.5c-0.2,0.2-0.4,0.4-0.7,0.5c-0.3,0.2-0.5,0.4-0.8,0.5
			c-0.5,0.3-1.1,0.7-1.7,1c-0.6,0.4-1.3,0.7-1.9,1c-0.4,0.2-0.7,0.3-1.1,0.5c-0.5,0.2-1,0.4-1.4,0.6c-0.5,0.2-1,0.4-1.6,0.6
			c-0.5,0.2-1.1,0.4-1.7,0.6c-0.6,0.2-1.1,0.4-1.7,0.5c-0.6,0.2-1.2,0.4-1.9,0.6c-0.6,0.2-1.2,0.4-1.9,0.5c-0.7,0.2-1.3,0.4-2,0.5
			c-0.7,0.2-1.4,0.4-2.1,0.5c-1,0.3-2,0.5-3.1,0.7c-0.6,0.1-1.2,0.3-1.7,0.4c-2,0.4-4.1,0.8-6.2,1.2c-1.3,0.2-2.7,0.4-4.1,0.7
			c-1.2,0.2-2.4,0.4-3.6,0.5c-1,0.1-1.9,0.3-2.9,0.4c-2.9,0.4-5.9,0.7-9,1.1c-0.8,0.1-1.6,0.2-2.4,0.2c-5.7,0.6-11.6,1-17.8,1.3
			c-1,0.1-2,0.1-3.1,0.2c-0.4,0-0.7,0-1.1,0c-2,0.1-4,0.2-6,0.2c-2.4,0.1-4.8,0.1-7.3,0.2c-1.2,0-2.5,0-3.7,0c-1.2,0-2.5,0-3.7,0
			c-5.3,0-10.5-0.1-15.6-0.3c-2.3-0.1-4.5-0.2-6.7-0.3c-5.8-0.3-11.3-0.6-16.6-1.1c-1.3-0.1-2.6-0.2-3.9-0.4c-5-0.5-9.7-1-14.2-1.7
			v-90.1c15.5,2,34.1,3.2,54,3.2c42.7,0,79-5.4,93-13v75.3c0.4,0.2,0.7,0.3,1.1,0.5c1.4,0.7,2.7,1.3,3.8,2.1
			c0.3,0.2,0.6,0.4,0.9,0.6c0.2,0.1,0.3,0.2,0.4,0.3c0.7,0.5,1.2,1.1,1.7,1.6c0.1,0.1,0.1,0.2,0.2,0.3c0.1,0.1,0.2,0.3,0.3,0.4
			c0.2,0.3,0.3,0.5,0.4,0.8c0.1,0.2,0.1,0.4,0.2,0.6c0,0.1,0.1,0.2,0.1,0.3C422.2,308.2,422.2,308.4,422.2,308.7z"/>
		<path fill="#0071BC" d="M422.3,421.9c0,11-44.3,19.8-99,19.8c-21.3,0-41-1.3-57.1-3.6v-87.5c16.1,2.3,35.9,3.6,57.1,3.6
			c39.8,0,74-4.7,89.8-11.5v70.8C419,416.1,422.3,418.9,422.3,421.9z"/>
		<path fill="#F9B233" d="M414.2,316.5c-0.4,0.2-0.7,0.4-1.1,0.5c-0.4,0.2-0.9,0.4-1.4,0.6c0.5-0.2,1-0.4,1.4-0.6
			C413.5,316.9,413.8,316.7,414.2,316.5z"/>
		<path fill="none" stroke="#04311C" stroke-width="6.3918" stroke-miterlimit="10" d="M412.9,413.7c5.7,2.5,8.8,5.3,8.8,8.2
			c0,11-44,19.9-98.4,19.9s-98.4-8.9-98.4-19.9c0-2.8,2.9-5.5,8.1-7.9"/>
		<g>
			<path fill="none" stroke="#04311C" stroke-width="6.3918" stroke-miterlimit="10" d="M233,299.6c-5.2,2.4-8.1,5.1-8.1,7.9
				c0,11,44.1,19.9,98.4,19.9c15.7,0,30.5-0.7,43.6-2"/>
			<path fill="none" stroke="#04311C" stroke-width="6.3918" stroke-miterlimit="10" d="M412.9,299.3c5.7,2.5,8.8,5.3,8.8,8.2
				c0,6.6-16.3,12.6-41.2,16.2"/>
		</g>
		
			<line fill="none" stroke="#04311C" stroke-width="6.3918" stroke-linecap="round" stroke-miterlimit="10" x1="413.1" y1="195.9" x2="412.9" y2="299.3"/>
		
			<line fill="none" stroke="#04311C" stroke-width="6.3918" stroke-linecap="round" stroke-miterlimit="10" x1="234.1" y1="195.9" x2="234" y2="299.3"/>
		
			<line fill="none" stroke="#04311C" stroke-width="6.3918" stroke-linecap="round" stroke-miterlimit="10" x1="234.1" y1="195.9" x2="234" y2="299.3"/>
		
			<line fill="none" stroke="#04311C" stroke-width="6.3918" stroke-linecap="round" stroke-miterlimit="10" x1="234.1" y1="195.9" x2="234" y2="299.3"/>
		
			<line fill="none" stroke="#04311C" stroke-width="6.3918" stroke-linecap="round" stroke-miterlimit="10" x1="234.1" y1="315.9" x2="234" y2="413.7"/>
		
			<line fill="none" stroke="#04311C" stroke-width="6.3918" stroke-linecap="round" stroke-miterlimit="10" x1="412.9" y1="315.9" x2="412.7" y2="413.7"/>
		<path fill="none" stroke="#04311C" stroke-width="6.3918" stroke-miterlimit="10" d="M271.4,170.6"/>
		<g>
			
				<path fill="none" stroke="#04311C" stroke-width="6.3918" stroke-linecap="round" stroke-linejoin="bevel" stroke-miterlimit="10" d="
				M270.5,171.1h-0.1c-27.4,3.5-45.5,9.7-45.5,16.8c0,11,44,19.9,98.4,19.9s98.4-8.9,98.4-19.9c0-11-44-19.9-98.4-19.9
				c-12.7,0-24.8,0.5-35.9,1.4"/>
			
				<polyline fill="none" stroke="#04311C" stroke-width="6.3918" stroke-linecap="round" stroke-linejoin="bevel" stroke-miterlimit="10" points="
				270.5,171.1 270.4,171.1 271.4,159.7 287.1,159.7 287.6,169.4 287.4,169.4 			"/>
		</g>
		<line fill="none" stroke="#FFFFFF" stroke-width="7.9898" stroke-miterlimit="10" x1="384.4" y1="227.4" x2="384.4" y2="294.9"/>
		<line fill="none" stroke="#FFFFFF" stroke-width="7.9898" stroke-miterlimit="10" x1="384.4" y1="339.8" x2="384.4" y2="410.4"/>
	</g>
	<g>
		<g>
			<path fill="#001689" d="M316.9,305.7h-32.5V289h5.5v-36.5h-5.5v-16.7h33.5c7.6,0,13.9,0.5,18.7,1.4c4.9,0.9,9.4,2.9,13.7,5.8
				c4.3,3,7.6,6.9,10.1,12c1.2,2.4,2.1,5,2.8,7.7c0.6,2.7,1,5.6,1,8.7c0,6.1-1.3,11.6-3.9,16.6c-2.5,5-5.8,8.8-9.7,11.4
				c-3.8,2.6-8,4.4-12.6,5.2C333.4,305.3,326.4,305.7,316.9,305.7z"/>
		</g>
		<g>
			<path fill="#FFFFFF" d="M322.5,292.1h-23.3v-10.2h3.3v-22.2h-3.4v-10.2h23.4v10.2h-3.4v22.2h3.4V292.1z M349.2,292.1H327v-10.2
				h2.1l-9.4-12.1l10.9-10.1h-3.5v-10.2h21.1v10.2h-3.3l-8.8,8.1l11,14.1h2.1V292.1z"/>
		</g>
	</g>
</g>
</svg>
