<?xml version="1.0" encoding="utf-8"?>
<!-- Generator: Adobe Illustrator 24.1.2, SVG Export Plug-In . SVG Version: 6.00 Build 0)  -->
<svg version="1.1" id="Layer_1" xmlns="http://www.w3.org/2000/svg" xmlns:xlink="http://www.w3.org/1999/xlink" x="0px" y="0px"
	 width="512px" height="512px" viewBox="0 0 512 512" enable-background="new 0 0 512 512" xml:space="preserve">
<g>
	<circle fill="#FFFFFF" cx="256" cy="256" r="256"/>
</g>
<g>
	
		<image overflow="visible" opacity="0.75" width="377" height="295" xlink:href="2D60036C.png"  transform="matrix(1 0 0 1 67.4353 58.4353)">
	</image>
	<g>
		<g>
			<polygon fill="#FFC837" stroke="#E5AA0A" stroke-width="11.8088" stroke-miterlimit="10" points="362.8,91.8 362.8,109.1 
				338.3,109.1 338.3,91.8 81.5,91.8 81.5,114 89.5,114 89.5,325.8 409,325.8 409,114 417,114 417,91.8 			"/>
			<path fill="none" stroke="#000000" stroke-width="1.084" stroke-linecap="round" stroke-miterlimit="10" d="M343,325.7v-10H358
				v10h3.6V114H358v10.6H343V114h-3.6v211.7H343z M343,128.7H358v11.5H343V128.7z M343,144.3H358v11.5H343V144.3z M343,159.8H358
				v11.5H343V159.8z M343,175.4H358v11.5H343V175.4z M343,191H358v11.5H343V191z M343,206.6H358v11.5H343V206.6z M343,222.2H358
				v11.5H343V222.2z M343,237.7H358v11.5H343V237.7z M343,253.3H358v11.5H343V253.3z M343,268.9H358v11.5H343V268.9z M343,284.5H358
				V296H343V284.5z M343,300.1H358v11.5H343V300.1z"/>
			<path fill="#F7931E" d="M406.2,89.8c-49.5-9.2-100.5-14.2-152.6-14.5V72c1.8-0.7,3-1.6,3-2.8c0-1.9-3.3-3.5-7.4-3.5
				s-7.4,1.6-7.4,3.5c0,1.2,1.2,2.1,3,2.8v3.3C192.3,75.5,140.9,80.5,91,89.8h251.6V104h15.8V89.8H406.2z"/>
			<path opacity="0.5" fill="#FFFFFF" d="M124.1,297.1c0,5.3-2.4,9.6-5.3,9.6h-7.1c-2.9,0-5.3-4.3-5.3-9.6V142.7
				c0-5.3,2.4-9.6,5.3-9.6h7.1c2.9,0,5.3,4.3,5.3,9.6V297.1z M113.4,96.7h-8.9v12.4h8.9V96.7z M129,96.7h-8.8v12.4h8.8V96.7z
				 M144.6,96.7h-8.8v12.4h8.8V96.7z M160.2,96.7h-8.8v12.4h8.8V96.7z M175.8,96.7h-8.9v12.4h8.9V96.7z M191.3,96.7h-8.8v12.4h8.8
				V96.7z M206.9,96.7h-8.8v12.4h8.8V96.7z M222.5,96.7h-8.9v12.4h8.9V96.7z M238.1,96.7h-8.8v12.4h8.8V96.7z M253.7,96.7h-8.8v12.4
				h8.8V96.7z M269.2,96.7h-8.8v12.4h8.8V96.7z M284.8,96.7H276v12.4h8.8V96.7z M300.4,96.7h-8.8v12.4h8.8V96.7z M316,96.7h-8.9
				v12.4h8.9V96.7z M331.6,96.7h-8.9v12.4h8.9V96.7z M378.3,96.7h-8.9v12.4h8.9V96.7z M393.9,96.7h-8.8v12.4h8.8V96.7z M97.9,96.7
				H89v12.4h8.8V96.7z M409.5,96.7h-8.8v12.4h8.8V96.7z"/>
		</g>
	</g>
</g>
<g>
	
		<image overflow="visible" opacity="0.75" width="234" height="319" xlink:href="2D60036D.png"  transform="matrix(1 0 0 1 184 173)">
	</image>
	<g>
		<g>
			<g>
				<path fill="#8DC63F" d="M393.2,212.5c0,3-3.3,5.8-9.1,8.3c-15.7,6.8-50.1,11.5-89.9,11.5c-24.6,0-47-1.8-64.3-4.8h0
					c-0.2,0-0.3-0.1-0.4-0.1c51.9-0.5,93.5-12.6,93.5-27.5c0-2.3-1-4.5-2.8-6.6C362.2,195.6,393.2,203.4,393.2,212.5z"/>
				<path fill="#B8E86B" d="M322.9,200c0,14.9-41.6,27.1-93.5,27.5c0,0,0,0-0.1,0c-10.7-1.9-19.4-4.2-25.3-6.8
					c-5.7-2.5-8.8-5.2-8.8-8.2c0-7.2,18.9-13.5,47.2-16.9v-11h15.7v9.4c11.2-0.9,23.4-1.4,36.1-1.4c8.9,0,17.6,0.3,25.9,0.7
					C321.9,195.5,322.9,197.7,322.9,200z"/>
				<path fill="#F9B233" d="M237.2,349.9L237.2,349.9l-0.6-0.1C236.8,349.9,237,349.9,237.2,349.9z"/>
				<path fill="#2E3192" d="M384.1,220.9v29.2c-13.9,7.6-50.3,13-93,13c-19.9,0-38.4-1.2-54-3.2v90.1c-0.2,0-0.4,0-0.6-0.1
					c-2.3-0.3-4.6-0.7-6.7-1.1h0c-0.1,0-0.3-0.1-0.4-0.1c0,0,0,0-0.1,0c-3.8-0.7-7.4-1.4-10.7-2.2c-5.9-1.4-10.9-3-14.7-4.7
					c-5.7-2.5-8.8-5.3-8.8-8.2c0-2.9,3.1-5.7,8.8-8.2V220.7c5.9,2.7,14.6,5,25.3,6.8c0,0,0,0,0.1,0c0.2,0,0.3,0.1,0.4,0.1h0
					c17.3,3,39.8,4.8,64.3,4.8C334.1,232.4,368.4,227.7,384.1,220.9z"/>
				<path fill="#2E3192" d="M384.1,342v25.7c-15.8,6.8-50,11.5-89.8,11.5c-21.3,0-41-1.3-57.1-3.6v87.5
					c-25.3-3.6-41.9-9.5-41.9-16.2c0-2.9,3.1-5.7,8.7-8.1v-96.9c3.8,1.7,8.8,3.3,14.7,4.7c3.3,0.8,6.9,1.5,10.7,2.2c0,0,0,0,0.1,0
					c0.1,0,0.3,0.1,0.4,0.1h0c2.2,0.4,4.4,0.7,6.7,1.1l0.6,0.1c4.5,0.6,9.2,1.2,14.2,1.7c1.3,0.1,2.6,0.3,3.9,0.4
					c5.3,0.4,10.9,0.8,16.6,1.1c2.2,0.1,4.4,0.2,6.7,0.3c5.1,0.2,10.3,0.3,15.6,0.3c1.2,0,2.5,0,3.7,0c1.2,0,2.5,0,3.7,0
					c2.4,0,4.9-0.1,7.3-0.2c2-0.1,4-0.1,6-0.2c0.4,0,0.7,0,1.1,0c1-0.1,2-0.1,3.1-0.2c6.2-0.3,12.1-0.7,17.8-1.3
					c0.8-0.1,1.6-0.1,2.4-0.2c3.1-0.3,6.1-0.7,9-1.1c1-0.1,1.9-0.3,2.9-0.4c1.2-0.2,2.5-0.4,3.6-0.5c1.4-0.2,2.7-0.4,4.1-0.7
					c2.1-0.4,4.2-0.7,6.2-1.2c0.6-0.1,1.2-0.3,1.7-0.4c1.1-0.2,2.1-0.4,3.1-0.7c0.7-0.2,1.4-0.3,2.1-0.5c0.7-0.2,1.3-0.4,2-0.5
					c0.7-0.2,1.3-0.4,1.9-0.5c0.6-0.2,1.2-0.4,1.9-0.6c0.6-0.2,1.2-0.4,1.7-0.5c0.6-0.2,1.1-0.4,1.7-0.6c0.5-0.2,1.1-0.4,1.6-0.6
					C383.2,342.4,383.7,342.2,384.1,342z"/>
				<path fill="#0071BC" d="M393.2,333.7c0,0.3,0,0.5-0.1,0.8c0,0,0,0.1,0,0.1c0,0.1,0,0.1,0,0.2c-0.1,0.3-0.2,0.5-0.3,0.8
					c0,0.1-0.1,0.2-0.1,0.3c-0.1,0.1-0.1,0.2-0.2,0.4c0,0.1-0.1,0.1-0.1,0.2l-0.1,0c0,0,0,0,0,0.1l0,0h0c0,0,0,0,0,0.1
					c-0.2,0.3-0.4,0.6-0.7,0.9c-0.2,0.2-0.4,0.4-0.5,0.5c-0.2,0.2-0.4,0.4-0.6,0.5c-0.2,0.2-0.4,0.4-0.7,0.5
					c-0.3,0.2-0.5,0.4-0.8,0.5c-0.5,0.3-1.1,0.7-1.7,1c-0.6,0.4-1.3,0.7-1.9,1c-0.4,0.2-0.7,0.3-1.1,0.5c-0.5,0.2-1,0.4-1.4,0.6
					c-0.5,0.2-1,0.4-1.6,0.6c-0.5,0.2-1.1,0.4-1.7,0.6c-0.6,0.2-1.1,0.4-1.7,0.5c-0.6,0.2-1.2,0.4-1.9,0.6c-0.6,0.2-1.2,0.4-1.9,0.5
					c-0.7,0.2-1.3,0.4-2,0.5c-0.7,0.2-1.4,0.4-2.1,0.5c-1,0.3-2,0.5-3.1,0.7c-0.6,0.1-1.2,0.3-1.7,0.4c-2,0.4-4.1,0.8-6.2,1.2
					c-1.3,0.2-2.7,0.4-4.1,0.7c-1.2,0.2-2.4,0.4-3.6,0.5c-1,0.1-1.9,0.3-2.9,0.4c-2.9,0.4-5.9,0.7-9,1.1c-0.8,0.1-1.6,0.2-2.4,0.2
					c-5.7,0.6-11.6,1-17.8,1.3c-1,0.1-2,0.1-3.1,0.2c-0.4,0-0.7,0-1.1,0c-2,0.1-4,0.2-6,0.2c-2.4,0.1-4.8,0.1-7.3,0.2
					c-1.2,0-2.5,0-3.7,0c-1.2,0-2.5,0-3.7,0c-5.3,0-10.5-0.1-15.6-0.3c-2.3-0.1-4.5-0.2-6.7-0.3c-5.8-0.3-11.3-0.6-16.6-1.1
					c-1.3-0.1-2.6-0.2-3.9-0.4c-5-0.5-9.7-1-14.2-1.7v-90.1c15.5,2,34.1,3.2,54,3.2c42.7,0,79-5.4,93-13v75.3
					c0.4,0.2,0.7,0.3,1.1,0.5c1.4,0.7,2.7,1.3,3.8,2.1c0.3,0.2,0.6,0.4,0.9,0.6c0.2,0.1,0.3,0.2,0.4,0.3c0.7,0.5,1.2,1.1,1.7,1.6
					c0.1,0.1,0.1,0.2,0.2,0.3c0.1,0.1,0.2,0.3,0.3,0.4c0.2,0.3,0.3,0.5,0.4,0.8c0.1,0.2,0.1,0.4,0.2,0.6c0,0.1,0.1,0.2,0.1,0.3
					C393.2,333.1,393.2,333.4,393.2,333.7z"/>
				<path fill="#0071BC" d="M393.3,446.9c0,11-44.3,19.8-99,19.8c-21.3,0-41-1.3-57.1-3.6v-87.5c16.1,2.3,35.9,3.6,57.1,3.6
					c39.8,0,74-4.7,89.8-11.5v70.8C390,441.1,393.3,443.9,393.3,446.9z"/>
				<path fill="#F9B233" d="M385.2,341.5c-0.4,0.2-0.7,0.4-1.1,0.5c-0.4,0.2-0.9,0.4-1.4,0.6c0.5-0.2,1-0.4,1.4-0.6
					C384.5,341.8,384.9,341.7,385.2,341.5z"/>
				<path fill="none" stroke="#04311C" stroke-width="6.3918" stroke-miterlimit="10" d="M384,438.7c5.7,2.5,8.8,5.3,8.8,8.2
					c0,11-44,19.9-98.4,19.9s-98.4-8.9-98.4-19.9c0-2.8,2.9-5.5,8.1-7.9"/>
				<g>
					<path fill="none" stroke="#04311C" stroke-width="6.3918" stroke-miterlimit="10" d="M204,324.6c-5.2,2.4-8.1,5.1-8.1,7.9
						c0,11,44.1,19.9,98.4,19.9c15.7,0,30.5-0.7,43.6-2"/>
					<path fill="none" stroke="#04311C" stroke-width="6.3918" stroke-miterlimit="10" d="M384,324.3c5.7,2.5,8.8,5.3,8.8,8.2
						c0,6.6-16.3,12.6-41.2,16.2"/>
				</g>
				
					<line fill="none" stroke="#04311C" stroke-width="6.3918" stroke-linecap="round" stroke-miterlimit="10" x1="384.1" y1="220.9" x2="384" y2="324.3"/>
				
					<line fill="none" stroke="#04311C" stroke-width="6.3918" stroke-linecap="round" stroke-miterlimit="10" x1="205.2" y1="220.9" x2="205" y2="324.3"/>
				
					<line fill="none" stroke="#04311C" stroke-width="6.3918" stroke-linecap="round" stroke-miterlimit="10" x1="205.2" y1="220.9" x2="205" y2="324.3"/>
				
					<line fill="none" stroke="#04311C" stroke-width="6.3918" stroke-linecap="round" stroke-miterlimit="10" x1="205.2" y1="220.9" x2="205" y2="324.3"/>
				
					<line fill="none" stroke="#04311C" stroke-width="6.3918" stroke-linecap="round" stroke-miterlimit="10" x1="205.1" y1="340.9" x2="205" y2="438.7"/>
				
					<line fill="none" stroke="#04311C" stroke-width="6.3918" stroke-linecap="round" stroke-miterlimit="10" x1="383.9" y1="340.9" x2="383.8" y2="438.7"/>
				<path fill="none" stroke="#04311C" stroke-width="6.3918" stroke-miterlimit="10" d="M242.4,195.6"/>
				<g>
					
						<path fill="none" stroke="#04311C" stroke-width="6.3918" stroke-linecap="round" stroke-linejoin="bevel" stroke-miterlimit="10" d="
						M241.5,196.1h-0.1c-27.4,3.5-45.5,9.7-45.5,16.8c0,11,44,19.9,98.4,19.9s98.4-8.9,98.4-19.9s-44-19.9-98.4-19.9
						c-12.7,0-24.8,0.5-35.9,1.4"/>
					
						<polyline fill="none" stroke="#04311C" stroke-width="6.3918" stroke-linecap="round" stroke-linejoin="bevel" stroke-miterlimit="10" points="
						241.5,196.1 241.4,196.1 242.4,184.6 258.1,184.6 258.6,194.3 258.4,194.4 					"/>
				</g>
				
					<line fill="none" stroke="#FFFFFF" stroke-width="7.9898" stroke-miterlimit="10" x1="355.4" y1="252.4" x2="355.4" y2="319.8"/>
				
					<line fill="none" stroke="#FFFFFF" stroke-width="7.9898" stroke-miterlimit="10" x1="355.4" y1="364.7" x2="355.4" y2="435.3"/>
			</g>
			<g>
				<g>
					<path fill="#001689" d="M287.9,330.7h-32.5V314h5.5v-36.5h-5.5v-16.7h33.5c7.6,0,13.9,0.5,18.7,1.4c4.9,0.9,9.4,2.9,13.7,5.8
						c4.3,3,7.6,6.9,10.1,12c1.2,2.4,2.1,5,2.8,7.7c0.6,2.7,1,5.6,1,8.7c0,6.1-1.3,11.6-3.9,16.6c-2.5,5-5.8,8.8-9.7,11.4
						c-3.8,2.6-8,4.4-12.6,5.2C304.4,330.3,297.4,330.7,287.9,330.7z"/>
				</g>
				<g>
					<path fill="#FFFFFF" d="M293.6,317.1h-23.3v-10.2h3.3v-22.2h-3.4v-10.2h23.4v10.2h-3.4v22.2h3.4V317.1z M320.3,317.1H298v-10.2
						h2.1l-9.4-12.1l10.9-10.1h-3.5v-10.2h21.1v10.2h-3.3l-8.8,8.1l11,14.1h2.1V317.1z"/>
				</g>
			</g>
		</g>
	</g>
</g>
</svg>
