<?xml version="1.0" encoding="utf-8"?>
<!-- Generator: Adobe Illustrator 24.1.2, SVG Export Plug-In . SVG Version: 6.00 Build 0)  -->
<svg version="1.1" id="Layer_1" xmlns="http://www.w3.org/2000/svg" xmlns:xlink="http://www.w3.org/1999/xlink" x="0px" y="0px"
	 width="512px" height="512px" viewBox="0 0 512 512" enable-background="new 0 0 512 512" xml:space="preserve">
<g>
	<circle fill="#FFFFFF" cx="256" cy="256" r="256"/>
</g>
<g>
	
		<image overflow="visible" opacity="0.75" width="416" height="325" xlink:href="9C669920.png"  transform="matrix(1 0 0 1 55 104)">
	</image>
	<g>
		<g>
			<polygon fill="#FFC837" stroke="#E5AA0A" stroke-width="13.0583" stroke-miterlimit="10" points="381.5,141 381.5,160.2 
				354.5,160.2 354.5,141 70.5,141 70.5,165.6 79.3,165.6 79.3,399.8 432.7,399.8 432.7,165.6 441.5,165.6 441.5,141 			"/>
			<path fill="none" stroke="#000000" stroke-width="1.1987" stroke-linecap="round" stroke-miterlimit="10" d="M359.7,399.7v-11.1
				h16.5v11.1h4V165.6h-4v11.7h-16.5v-11.7h-4v234.1H359.7z M359.7,181.8h16.5v12.7h-16.5V181.8z M359.7,199h16.5v12.7h-16.5V199z
				 M359.7,216.3h16.5V229h-16.5V216.3z M359.7,233.5h16.5v12.7h-16.5V233.5z M359.7,250.7h16.5v12.7h-16.5V250.7z M359.7,268h16.5
				v12.7h-16.5V268z M359.7,285.2h16.5v12.7h-16.5V285.2z M359.7,302.4h16.5v12.7h-16.5V302.4z M359.7,319.7h16.5v12.7h-16.5V319.7z
				 M359.7,336.9h16.5v12.7h-16.5V336.9z M359.7,354.1h16.5v12.7h-16.5V354.1z M359.7,371.3h16.5v12.7h-16.5V371.3z"/>
			<path fill="#F7931E" d="M429.6,138.8c-54.7-10.2-111.1-15.7-168.7-16v-3.6c1.9-0.7,3.3-1.8,3.3-3.1c0-2.1-3.7-3.9-8.1-3.9
				c-4.5,0-8.1,1.8-8.1,3.9c0,1.3,1.3,2.4,3.3,3.1v3.6c-58.1,0.2-114.9,5.7-170.1,16h278.2v15.7h17.5v-15.7H429.6z"/>
			<path opacity="0.5" fill="#FFFFFF" d="M117.6,368.1c0,5.8-2.6,10.6-5.8,10.6h-7.8c-3.2,0-5.8-4.8-5.8-10.6V197.3
				c0-5.8,2.6-10.6,5.8-10.6h7.8c3.2,0,5.8,4.8,5.8,10.6V368.1z M105.8,146.4H96v13.8h9.8V146.4z M123.1,146.4h-9.8v13.8h9.8V146.4z
				 M140.3,146.4h-9.8v13.8h9.8V146.4z M157.5,146.4h-9.8v13.8h9.8V146.4z M174.7,146.4H165v13.8h9.8V146.4z M192,146.4h-9.8v13.8
				h9.8V146.4z M209.2,146.4h-9.8v13.8h9.8V146.4z M226.4,146.4h-9.8v13.8h9.8V146.4z M243.7,146.4h-9.8v13.8h9.8V146.4z
				 M260.9,146.4h-9.8v13.8h9.8V146.4z M278.1,146.4h-9.8v13.8h9.8V146.4z M295.4,146.4h-9.8v13.8h9.8V146.4z M312.6,146.4h-9.8
				v13.8h9.8V146.4z M329.8,146.4H320v13.8h9.8V146.4z M347,146.4h-9.8v13.8h9.8V146.4z M398.8,146.4h-9.8v13.8h9.8V146.4z
				 M416,146.4h-9.8v13.8h9.8V146.4z M88.6,146.4h-9.8v13.8h9.8V146.4z M433.2,146.4h-9.8v13.8h9.8V146.4z"/>
		</g>
	</g>
</g>
<g>
	<path fill="#D3DEEA" d="M222,386.9c-2.3,0-4.5,0.9-6.1,2.5c-1.6,1.6-2.5,3.8-2.5,6.1c0,2.3,0.9,4.5,2.5,6.1
		c1.6,1.6,3.8,2.5,6.1,2.5c2.3,0,4.5-0.9,6.1-2.5c1.6-1.6,2.5-3.8,2.5-6.1c0-2.3-0.9-4.5-2.5-6.1C226.5,387.8,224.2,386.9,222,386.9
		z"/>
	<path fill="#D3DEEA" d="M254.6,344.6c0.5-0.6,1-1.3,1.4-1.9c0.3-0.5,0.6-0.9,0.9-1.4c0.4-0.6,0.7-1.2,1-1.7
		c0.3-0.5,0.6-1.1,0.9-1.6c0.3-0.5,0.5-1.1,0.8-1.6c0.3-0.6,0.6-1.2,0.8-1.9c0.2-0.5,0.3-0.9,0.5-1.4c0.3-0.7,0.5-1.4,0.7-2.2
		c0.1-0.2,0.1-0.4,0.2-0.6c1-3.5,1.5-7.2,1.5-10.9c0-11-4.3-21.4-12.1-29.2C243.4,282.3,233,278,222,278c0,0,0,0,0,0
		c-11,0-21.4,4.3-29.2,12.1c-7.8,7.8-12.1,18.2-12.1,29.2c0,1,0.2,2,0.5,2.9l0,0v0c0.1,0.4,0.3,0.7,0.5,1.1c0,0.1,0.1,0.1,0.1,0.2
		c0.2,0.3,0.4,0.7,0.6,1c0,0.1,0.1,0.1,0.1,0.2c0.4,0.5,0.9,1,1.4,1.4c0.1,0.1,0.2,0.2,0.3,0.3c0.2,0.1,0.4,0.3,0.6,0.4
		c0.2,0.1,0.5,0.3,0.7,0.4c0.2,0.1,0.4,0.2,0.6,0.2c0.3,0.1,0.6,0.2,1,0.3c0.2,0,0.3,0.1,0.5,0.1c0.5,0.1,1,0.2,1.6,0.2
		c4.8,0,8.6-3.9,8.6-8.6c0-6.4,2.5-12.5,7.1-17c4.5-4.5,10.6-7,17-7c0,0,0,0,0,0c6.4,0,12.5,2.5,17,7c4.5,4.5,7.1,10.6,7.1,17
		c0,0.8,0,1.6-0.1,2.4c-0.1,0.8-0.2,1.5-0.3,2.3c-0.9,4.7-3.2,8.9-6.6,12.4c-4.5,4.5-10.6,7-17,7c0,0,0,0,0,0
		c-4.8,0-8.6,3.9-8.6,8.6c0,0.1,0,0.2,0,0.4c0,0.1,0,0.3,0,0.4v9.3v12.1c0,4.8,3.9,8.6,8.6,8.6c4.8,0,8.6-3.9,8.6-8.6V369v-9.3
		c7.7-1.6,14.9-5.5,20.6-11.2c0.9-0.9,1.8-1.9,2.6-2.8C254.1,345.3,254.3,344.9,254.6,344.6z"/>
</g>
<g>
	<path fill="#FFFFFF" d="M222,382.1c-2.3,0-4.5,0.9-6.1,2.5c-1.6,1.6-2.5,3.8-2.5,6.1c0,2.3,0.9,4.5,2.5,6.1
		c1.6,1.6,3.8,2.5,6.1,2.5c2.3,0,4.5-0.9,6.1-2.5c1.6-1.6,2.5-3.8,2.5-6.1c0-2.3-0.9-4.5-2.5-6.1C226.5,383,224.2,382.1,222,382.1z"
		/>
	<path fill="#FFFFFF" d="M263.3,314.5c0-11-4.3-21.4-12.1-29.2c-7.8-7.8-18.2-12.1-29.2-12.1c0,0,0,0,0,0c-11,0-21.4,4.3-29.2,12.1
		c-7.8,7.8-12.1,18.2-12.1,29.2c0,4.8,3.9,8.6,8.6,8.6c4.8,0,8.6-3.9,8.6-8.6c0-6.4,2.5-12.5,7.1-17c4.5-4.5,10.6-7,17-7
		c0,0,0,0,0,0c6.4,0,12.5,2.5,17,7c4.5,4.5,7.1,10.6,7.1,17c0,6.4-2.5,12.5-7,17c-4.5,4.5-10.6,7-17,7c0,0,0,0,0,0
		c-4.8,0-8.6,3.9-8.6,8.6c0,0.1,0,0.2,0,0.4c0,0.1,0,0.3,0,0.4v21.4c0,4.8,3.9,8.6,8.6,8.6c4.8,0,8.6-3.9,8.6-8.6v-14.4
		c7.7-1.6,14.9-5.5,20.6-11.2C259,335.9,263.3,325.5,263.3,314.5z"/>
</g>
<g>
	<path fill="#D3DEEA" d="M222,391.4c-2.3,0-4.5,0.9-6.1,2.5c-0.4,0.4-0.8,0.9-1.1,1.4c0.3,0.5,0.7,1,1.1,1.4
		c1.6,1.6,3.8,2.5,6.1,2.5c2.3,0,4.5-0.9,6.1-2.5c0.4-0.4,0.8-0.9,1.1-1.4c-0.3-0.5-0.7-1-1.1-1.4
		C226.5,392.3,224.2,391.4,222,391.4z"/>
	<path fill="#D3DEEA" d="M251.2,343.7c6.7-6.7,10.8-15.3,11.8-24.6c-1-9.3-5.1-17.9-11.8-24.6c-7.8-7.8-18.2-12.1-29.2-12.1
		c0,0,0,0,0,0c-11,0-21.4,4.3-29.2,12.1c-6.3,6.3-10.2,14.2-11.6,22.8c1.2,3.3,4.3,5.7,8.1,5.7c4.8,0,8.6-3.9,8.6-8.6
		c0-6.4,2.5-12.5,7.1-17c4.5-4.5,10.6-7,17-7c0,0,0,0,0,0c6.4,0,12.5,2.5,17,7c4.5,4.5,7.1,10.6,7.1,17c0,1.6-0.2,3.1-0.4,4.7
		c0.3,1.5,0.4,3.1,0.4,4.6c0,6.4-2.5,12.5-7,17c-4.5,4.5-10.6,7-17,7c0,0,0,0,0,0c-4.8,0-8.6,3.9-8.6,8.6c0,0.1,0,0.2,0,0.4
		c0,0.1,0,0.3,0,0.4v12.1c0,4.8,3.9,8.6,8.6,8.6c4.8,0,8.6-3.9,8.6-8.6v-5.1v-9.3C238.3,353.3,245.5,349.4,251.2,343.7z"/>
</g>
<path fill="#ED374D" d="M347.9,303.6c-1.6-4.9-6-8.5-11.2-8.9l-70.5-6.4L238.3,223c-2.1-4.8-6.7-7.9-11.9-7.9s-9.9,3.1-11.9,7.9
	l-27.9,65.3l-70.5,6.4c-5.2,0.5-9.6,4-11.2,8.9c-1.6,4.9-0.1,10.4,3.8,13.8l53.3,46.8l-15.7,69.3c-1.2,5.1,0.8,10.4,5.1,13.4
	c2.3,1.6,4.9,2.5,7.6,2.5c2.3,0,4.6-0.6,6.7-1.9l60.8-36.4l60.8,36.4c4.5,2.7,10.1,2.4,14.3-0.6c4.2-3.1,6.2-8.3,5.1-13.4
	l-15.7-69.3l53.3-46.7C348,314,349.5,308.6,347.9,303.6z"/>
</svg>
