<?xml version="1.0" encoding="utf-8"?>
<!-- Generator: Adobe Illustrator 24.1.2, SVG Export Plug-In . SVG Version: 6.00 Build 0)  -->
<svg version="1.1" id="Layer_1" xmlns="http://www.w3.org/2000/svg" xmlns:xlink="http://www.w3.org/1999/xlink" x="0px" y="0px"
	 width="512px" height="512px" viewBox="0 0 512 512" enable-background="new 0 0 512 512" xml:space="preserve">
<g>
	<circle fill="#FFFFFF" cx="256" cy="256" r="256"/>
</g>
<g>
	<path fill="#B2B2B2" d="M291.2,81.5c-0.1,0-0.1,0-0.2,0c-0.1,0-0.1,0-0.2,0.1c-0.1,0-0.2,0.1-0.3,0.1c0,0,0,0-0.1,0l-58.2,22
		l-0.9-2.5c-2.3-6.1-9.1-9.2-15.2-6.9l-23.2,8.8c0-2-0.4-4-1.1-6c-3.5-9.2-13.7-13.8-22.9-10.3c-9.2,3.5-13.8,13.7-10.3,22.9
		c0.7,2,1.8,3.7,3.1,5.2l-23.2,8.8c-6.1,2.3-9.2,9.1-6.9,15.2l0.9,2.5l-58.2,22c0,0,0,0,0,0c-0.1,0-0.2,0.1-0.3,0.1
		c-0.1,0-0.1,0.1-0.2,0.1c-0.1,0-0.1,0.1-0.2,0.1c-4,1.9-5.9,6.6-4.3,10.7l109.9,291.1c1.7,4.4,6.6,6.7,11,5l32.1-12.1l184-69.5
		c4.4-1.7,6.7-6.6,5-11l-99.3-263l-10.6-28.1C300,82.5,295.4,80.3,291.2,81.5z M172.5,96.2c4-1.5,8.4,0.5,9.9,4.5
		c1.5,4-0.5,8.4-4.5,9.9c-4,1.5-8.4-0.5-9.9-4.5C166.5,102.1,168.5,97.7,172.5,96.2z"/>
	<g>
		<path fill="#8C3517" d="M295.1,83.8L405,374.9c1.7,4.4-0.6,9.4-5,11l-216.1,81.6c-4.4,1.7-9.4-0.6-11-5L62.9,171.4
			c-1.6-4.3,0.5-9.1,4.7-10.9c0.1,0,0.2-0.1,0.3-0.1l216.1-81.6c0.1,0,0.2-0.1,0.3-0.1C288.7,77.2,293.5,79.5,295.1,83.8z"/>
		<path fill="#D25022" d="M398.5,381.9l-216.1,81.6c-3.3,1.3-7-0.4-8.3-3.7L64.2,168.7c-1.3-3.3,0.4-7,3.7-8.3l216.1-81.6
			c3.3-1.3,7,0.4,8.3,3.7l109.9,291.1C403.5,376.9,401.8,380.7,398.5,381.9z"/>
		<path fill="#EDEDED" d="M305.7,111.9l99.3,263c1.7,4.4-0.6,9.4-5,11l-184,69.5l-30.3-13.7l95-341.2L305.7,111.9z"/>
		<g>
			<polygon fill="#FFFFFA" points="280.7,100.6 84.8,174.5 185.7,441.7 350.6,379.5 369.9,336.8 			"/>
			<polygon fill="#E0E0CE" points="350.6,379.5 369.9,336.8 338.9,348.5 			"/>
		</g>
		<g>
			<path fill="#FFD800" d="M209.7,91.4l-23.2,8.8c0-2-0.4-4-1.1-6c-3.5-9.2-13.7-13.8-22.9-10.3c-9.2,3.5-13.8,13.7-10.3,22.9
				c0.7,2,1.8,3.7,3.1,5.2l-23.2,8.8c-6.1,2.3-9.2,9.1-6.9,15.2l9.7,25.6l99.7-37.6l-9.7-25.6C222.6,92.2,215.8,89.1,209.7,91.4z
				 M171.5,107.7c-4,1.5-8.4-0.5-9.9-4.5c-1.5-4,0.5-8.4,4.5-9.9c4-1.5,8.4,0.5,9.9,4.5C177.5,101.7,175.5,106.2,171.5,107.7z"/>
			<path fill="#F6F6F6" d="M128.1,143.7l6.7,17.8l99.7-37.6l-6.7-17.8L128.1,143.7z"/>
			<path fill="#DADADA" d="M132.5,155.4l2.3,6.2l99.7-37.6l-2.3-6.2L132.5,155.4z"/>
		</g>
		
			<rect x="118.9" y="159.5" transform="matrix(0.9355 -0.3532 0.3532 0.9355 -46.4551 79.2282)" fill="#C3D5DF" width="149.8" height="14.8"/>
		<g>
			<g>
				
					<rect x="185.7" y="192.7" transform="matrix(0.9355 -0.3532 0.3532 0.9355 -53.9981 96.6684)" fill="#DAE3E8" width="104.4" height="7.2"/>
				
					<rect x="191.5" y="210.6" transform="matrix(0.9355 -0.3532 0.3532 0.9355 -60.7874 95.3202)" fill="#DAE3E8" width="78.4" height="7.2"/>
				
					<rect x="181.4" y="183.9" transform="matrix(0.9355 -0.3532 0.3532 0.9355 -51.9911 90.029)" fill="#8BCFCA" width="78.4" height="7.2"/>
			</g>
			<g>
				<path fill="#ED1C24" d="M155.9,213.7c-1.5,1.6-6.8,15.7-10,22.6l-5.3-2.4c-0.7-0.4-2.2-1.7-2.8-0.3l-0.6,2.6
					c-0.5,1.4,1.1,2.9,2.1,3.2l8.9,4.8c0.9,0.3,2.1-0.6,2.6-2.1l0.4-1.2l0,0l6.7-26.1C158.4,213.3,159.6,210,155.9,213.7z"/>
				<g>
					<path fill="#DAE3E8" d="M169.8,242.8l-26.4,10c-2.8,1.1-5.9-0.4-7-3.1l-10-26.4c-1.1-2.8,0.4-5.9,3.1-7l26.4-10
						c2.8-1.1,5.9,0.4,7,3.1l10,26.4C173.9,238.6,172.5,241.8,169.8,242.8z M130.7,219.2c-1.2,0.4-1.8,1.8-1.3,3l10,26.4
						c0.4,1.2,1.8,1.8,3,1.3l26.4-10c1.2-0.4,1.8-1.8,1.3-3l-10-26.4c-0.4-1.2-1.8-1.8-3-1.3L130.7,219.2z"/>
				</g>
			</g>
			<g>
				
					<rect x="205.4" y="245" transform="matrix(0.9355 -0.3532 0.3532 0.9355 -71.2089 107.0212)" fill="#DAE3E8" width="104.4" height="7.2"/>
				
					<rect x="211.3" y="262.9" transform="matrix(0.9355 -0.3532 0.3532 0.9355 -77.9982 105.673)" fill="#DAE3E8" width="78.4" height="7.2"/>
				
					<rect x="201.2" y="236.2" transform="matrix(0.9355 -0.3532 0.3532 0.9355 -69.2019 100.3818)" fill="#8BCFCA" width="78.4" height="7.2"/>
			</g>
			<g>
				<path fill="#ED1C24" d="M175.7,266c-1.5,1.6-6.8,15.7-10,22.6l-5.3-2.4c-0.7-0.4-2.2-1.7-2.8-0.3l-0.6,2.6
					c-0.5,1.4,1.1,2.9,2.1,3.2l8.9,4.8c0.9,0.3,2.1-0.6,2.6-2.1l0.4-1.2l0,0l6.7-26.1C178.2,265.6,179.4,262.4,175.7,266z"/>
				<g>
					<path fill="#DAE3E8" d="M189.5,295.1l-26.4,10c-2.8,1.1-5.9-0.4-7-3.1l-10-26.4c-1.1-2.8,0.4-5.9,3.1-7l26.4-10
						c2.8-1.1,5.9,0.4,7,3.1l10,26.4C193.7,291,192.3,294.1,189.5,295.1z M150.4,271.5c-1.2,0.4-1.8,1.8-1.3,3l10,26.4
						c0.4,1.2,1.8,1.8,3,1.3l26.4-10c1.2-0.4,1.8-1.8,1.3-3l-10-26.4c-0.4-1.2-1.8-1.8-3-1.3L150.4,271.5z"/>
				</g>
			</g>
			<g>
				
					<rect x="225.2" y="297.4" transform="matrix(0.9355 -0.3532 0.3532 0.9355 -88.4197 117.3739)" fill="#DAE3E8" width="104.4" height="7.2"/>
				
					<rect x="231.1" y="315.3" transform="matrix(0.9355 -0.3532 0.3532 0.9355 -95.209 116.0258)" fill="#DAE3E8" width="78.4" height="7.2"/>
				
					<rect x="221" y="288.5" transform="matrix(0.9355 -0.3532 0.3532 0.9355 -86.4127 110.7345)" fill="#8BCFCA" width="78.4" height="7.2"/>
			</g>
			<g>
				<g>
					<path fill="#DAE3E8" d="M209.3,347.5l-26.4,10c-2.8,1.1-5.9-0.4-7-3.1l-10-26.4c-1.1-2.8,0.4-5.9,3.1-7l26.4-10
						c2.8-1.1,5.9,0.4,7,3.1l10,26.4C213.5,343.3,212.1,346.4,209.3,347.5z M170.2,323.8c-1.2,0.4-1.8,1.8-1.3,3l10,26.4
						c0.4,1.2,1.8,1.8,3,1.3l26.4-10c1.2-0.4,1.8-1.8,1.3-3l-10-26.4c-0.4-1.2-1.8-1.8-3-1.3L170.2,323.8z"/>
				</g>
			</g>
			<g>
				
					<rect x="244.9" y="349.7" transform="matrix(0.9355 -0.3532 0.3532 0.9355 -105.6305 127.7267)" fill="#DAE3E8" width="104.4" height="7.2"/>
				
					<rect x="250.8" y="367.6" transform="matrix(0.9355 -0.3532 0.3532 0.9355 -112.4198 126.3785)" fill="#DAE3E8" width="78.4" height="7.2"/>
				
					<rect x="240.7" y="340.9" transform="matrix(0.9355 -0.3532 0.3532 0.9355 -103.6235 121.0873)" fill="#8BCFCA" width="78.4" height="7.2"/>
			</g>
			<g>
				<g>
					<path fill="#DAE3E8" d="M229,399.8l-26.4,10c-2.8,1.1-5.9-0.4-7-3.1l-10-26.4c-1.1-2.8,0.4-5.9,3.1-7l26.4-10
						c2.8-1.1,5.9,0.4,7,3.1l10,26.4C233.2,395.6,231.8,398.7,229,399.8z M189.9,376.2c-1.2,0.4-1.8,1.8-1.3,3l10,26.4
						c0.4,1.2,1.8,1.8,3,1.3l26.4-10c1.2-0.4,1.8-1.8,1.3-3l-10-26.4c-0.4-1.2-1.8-1.8-3-1.3L189.9,376.2z"/>
				</g>
			</g>
		</g>
	</g>
</g>
<g>
	<path fill="#C6C6C6" d="M404.9,107.8c-0.3-1.3-0.9-2.5-2-3.6l-6.3-6.3c-2.4-2.4-6-2.8-7.9-0.9l-10.4,10.4l-4.7,4.7L268.6,217
		l-11.5,21.6l0,0l0,0l-0.2,0.3c0,0,0,0,0,0l-3.3,6.3c0,0.1-0.1,0.2,0,0.3c0.1,0.4,0.4,0.8,0.6,1.1s0.6,0.5,1.1,0.6
		c0.1,0,0.2,0,0.3,0l6.3-3.3l0.1-0.1l0.1,0l0.1,0l0,0l0,0l16.4-8.7l0,0l5.2-2.7l0,0l104.9-104.9l4.7-4.7l0,0l0,0l10.4-10.4
		C404.9,111,405.2,109.4,404.9,107.8z"/>
	<g>
		
			<rect x="251.4" y="158.4" transform="matrix(0.7071 -0.7071 0.7071 0.7071 -24.2136 279.7825)" fill-rule="evenodd" clip-rule="evenodd" fill="#F99F05" width="148.4" height="21.5"/>
		<path fill-rule="evenodd" clip-rule="evenodd" fill="#F0B16C" d="M280.8,229.2l-5.2,2.7l0,0l-16.4,8.7l0,0l0,0l-0.2,0.1l-0.1,0.1
			l-6.3,3.3c-0.1,0-0.2,0.1-0.3,0c-0.4-0.1-0.8-0.4-1.1-0.6s-0.5-0.6-0.6-1.1c0-0.1,0-0.2,0-0.3l3.3-6.3l0.2-0.3l0,0l8.7-16.4l0,0
			l2.7-5.2L280.8,229.2z"/>
		<path fill-rule="evenodd" clip-rule="evenodd" fill="#ED1C24" d="M258.8,240.8l-6.3,3.3c-0.1,0-0.2,0.1-0.3,0
			c-0.4-0.1-0.8-0.4-1.1-0.6s-0.5-0.6-0.6-1.1c0-0.1,0-0.2,0-0.3l3.3-6.3c0.2,0.2,0.5,0.4,0.7,0.6c0.6,0.6,1.3,1.1,1.9,1.8
			c0.6,0.6,1.2,1.3,1.8,1.9C258.5,240.4,258.6,240.6,258.8,240.8z"/>
		<polygon fill="#58595B" points="370.5,109.1 265.6,214 254.1,235.6 375.5,114.1 		"/>
		<path fill="#414042" d="M254.1,235.6l121.5-121.5l5.1,5.1L259.1,240.7l-0.3,0.2c-0.7-0.9-1.5-1.7-2.4-2.6
			c-0.8-0.8-1.7-1.6-2.6-2.4L254.1,235.6z"/>
		
			<rect x="377.1" y="103.6" transform="matrix(0.7071 -0.7071 0.7071 0.7071 30.5971 302.4859)" fill="#D1D3D4" width="6.7" height="21.5"/>
		<path fill="#F85A68" d="M399.9,101.2l-6.3-6.3c-2.4-2.4-6-2.8-7.9-0.9l-10.4,10.4l15.2,15.2l10.4-10.4
			C402.7,107.2,402.3,103.6,399.9,101.2z"/>
		<path fill="#EDEDED" d="M400.8,109.1l-10.4,10.4l-7.6-7.6L396.7,98l3.2,3.2C402.3,103.6,402.7,107.2,400.8,109.1z"/>
	</g>
</g>
<g>
	
		<image overflow="visible" opacity="0.75" width="401" height="220" xlink:href="A9414C94.png"  transform="matrix(1 0 0 1 65 242)">
	</image>
	<g>
		<g>
			<rect x="115.8" y="376" fill="#1A1D2E" width="149.2" height="10.6"/>
			<g>
				<rect x="110.8" y="264.2" fill="#FF892E" width="159.1" height="111.9"/>
				<g>
					<path fill="#FFFFFF" d="M225.8,306.1c0-5.3,3-8.3,7.3-8.3c4.3,0,7.3,3,7.3,8.3c0,5.3-3,8.4-7.3,8.4
						C228.8,314.5,225.8,311.4,225.8,306.1z M236.7,306.1c0-3.2-1.4-5.1-3.6-5.1c-2.2,0-3.6,1.9-3.6,5.1c0,3.2,1.4,5.3,3.6,5.3
						C235.3,311.4,236.7,309.4,236.7,306.1z"/>
					<path fill="#FFFFFF" d="M243.5,298.2h3.6v16.1h-3.6V298.2z"/>
					<path fill="#FFFFFF" d="M250.9,298.2h3.6v13h6.4v3.1h-10V298.2z"/>
				</g>
				<g>
					<path fill="#FFFFFF" d="M219.1,320.4c0,15.8-12.8,28.7-28.7,28.7c-15.8,0-28.7-12.8-28.7-28.7c0-15.8,12.9-28.7,28.7-28.7
						C206.2,291.7,219.1,304.6,219.1,320.4z"/>
				</g>
				<g>
					<path fill="#306B8C" d="M190.4,295.3c13.9,0,25.2,11.3,25.2,25.2c0,13.9-11.3,25.2-25.2,25.2c-13.9,0-25.2-11.3-25.2-25.2
						C165.2,306.6,176.5,295.3,190.4,295.3L190.4,295.3z M190.4,291.7c-15.8,0-28.7,12.8-28.7,28.7c0,15.8,12.9,28.7,28.7,28.7
						c15.8,0,28.7-12.8,28.7-28.7C219.1,304.6,206.2,291.7,190.4,291.7L190.4,291.7z"/>
				</g>
				<g>
					<path fill="#1A1D2E" d="M190.3,304.2c0,0-20,29.6,0,29.6V304.2z"/>
					<path fill="#1F5887" d="M190.3,304.2v29.6C210.3,333.8,190.3,304.2,190.3,304.2z M196.5,325.7c-0.7,0.1-1.4-1-1.6-2.5
						c-0.2-1.5,0.2-2.8,0.9-2.9c0.7-0.1,1.4,1,1.6,2.5C197.6,324.4,197.2,325.6,196.5,325.7z"/>
				</g>
				<rect x="110.8" y="320.4" opacity="0.15" width="159.1" height="55.6"/>
				<path fill="#3D91A6" d="M110.8,376h159.1H110.8z"/>
				<path fill="#B05F1F" d="M276,382.1h-0.1c-3.3,0-6-2.7-6-6V264.7c0-3.3,2.7-6,6-6h0.1c3.3,0,6,2.7,6,6v111.4
					C281.9,379.5,279.3,382.1,276,382.1z"/>
				<path fill="#B05F1F" d="M104.9,382.1h-0.1c-3.3,0-6-2.7-6-6V264.7c0-3.3,2.7-6,6-6h0.1c3.3,0,6,2.7,6,6v111.4
					C110.8,379.5,108.2,382.1,104.9,382.1z"/>
				<path fill="#FF892E" d="M282.3,376h-0.4V264.2h0.4c21.2,0,25.2,14.8,25.2,33V343C307.5,361.2,303.5,376,282.3,376z"/>
				<path opacity="0.15" d="M282.3,376h-0.4v-55.6h25.6V343C307.5,361.2,303.5,376,282.3,376z"/>
				<path fill="#FF892E" d="M98.4,264.2h0.4V376h-0.4c-21.2,0-25.2-14.8-25.2-33v-45.8C73.2,279,77.2,264.2,98.4,264.2z"/>
				<path opacity="0.15" d="M98.4,376h0.4v-55.6H73.2V343C73.2,361.2,77.2,376,98.4,376z"/>
				<rect x="167.6" y="258.8" fill="#B05F1F" width="45.6" height="5.4"/>
				<path fill="#FF892E" d="M216.3,250h-51.9c-2.4,0-4.3,1.9-4.3,4.3v0.1c0,2.4,1.9,4.3,4.3,4.3h51.9c2.4,0,4.3-1.9,4.3-4.3v-0.1
					C220.7,251.9,218.7,250,216.3,250z"/>
				<path fill="#1A1D2E" d="M149.2,254.4L149.2,254.4c-1.1,0-2,0.9-2,2v4.9h-26v-4.9c0-1.1-0.9-2-2-2h0c-1.1,0-2,0.9-2,2v81.2
					c0,1.1,0.9,2,2,2h0c1.1,0,2-0.9,2-2v-3.8h26v3.8c0,1.1,0.9,2,2,2h0c1.1,0,2-0.9,2-2v-81.2C151.1,255.2,150.2,254.4,149.2,254.4z
					 M147.1,263.3v12.1h-26v-12.1H147.1z M121.2,303.6v-12.1h26v12.1H121.2z M147.1,305.6v12.1h-26v-12.1H147.1z M121.2,289.5v-12.1
					h26v12.1H121.2z M121.2,331.8v-12.1h26v12.1H121.2z"/>
			</g>
			<g>
				<rect x="280.1" y="387.5" fill="#1F1F1F" width="5.1" height="18.7"/>
				<rect x="109.9" y="386.6" fill="#1F1F1F" width="160.9" height="19.6"/>
				<rect x="293.3" y="384.8" fill="#1F1F1F" width="116.3" height="21.4"/>
				<g>
					<path fill="#424242" d="M253.9,416.7c0,12.7-10.3,23-23,23c-12.7,0-23-10.3-23-23c0-12.7,10.3-23,23-23
						C243.6,393.7,253.9,404,253.9,416.7z"/>
					<path fill="#828282" d="M245.8,416.7c0,8.2-6.7,14.9-14.9,14.9c-8.2,0-14.9-6.7-14.9-14.9c0-8.2,6.7-14.9,14.9-14.9
						C239.1,401.9,245.8,408.5,245.8,416.7z"/>
					<path fill="#575757" d="M241.4,416.7c0,5.8-4.7,10.5-10.5,10.5c-5.8,0-10.5-4.7-10.5-10.5c0-5.8,4.7-10.5,10.5-10.5
						C236.7,406.2,241.4,410.9,241.4,416.7z"/>
				</g>
				<polygon fill="#4A4A4A" points="201.1,414.8 194.5,412.2 205.8,383.8 256.9,383.8 267.3,412.3 260.7,414.7 251.9,390.9 
					210.6,390.9 				"/>
				<g>
					<path fill="#424242" d="M172.2,416.7c0,12.7-10.3,23-23,23c-12.7,0-23-10.3-23-23c0-12.7,10.3-23,23-23
						C161.9,393.7,172.2,404,172.2,416.7z"/>
					<path fill="#828282" d="M164.1,416.7c0,8.2-6.7,14.9-14.9,14.9c-8.2,0-14.9-6.7-14.9-14.9c0-8.2,6.7-14.9,14.9-14.9
						C157.4,401.9,164.1,408.5,164.1,416.7z"/>
					<path fill="#575757" d="M159.7,416.7c0,5.8-4.7,10.5-10.5,10.5c-5.8,0-10.5-4.7-10.5-10.5c0-5.8,4.7-10.5,10.5-10.5
						C155,406.2,159.7,410.9,159.7,416.7z"/>
				</g>
				<polygon fill="#4A4A4A" points="119.4,414.8 112.8,412.2 124,383.8 175.1,383.8 185.6,412.3 178.9,414.7 170.2,390.9 
					128.9,390.9 				"/>
				<path fill="#303030" d="M328.8,330.2h-4.1c-3.1,3.1-4.9,4.9-8,8v46.7h12.1V330.2z"/>
				<rect x="270.8" y="390" fill="#262626" width="15.8" height="13.2"/>
				<path fill="#5E5E5E" d="M279.4,404.3h13.8v-15.2h-13.8c-4.2,0-7.5,3.4-7.5,7.5v0.2C271.9,400.9,275.3,404.3,279.4,404.3z"/>
			</g>
			<g>
				<g>
					<path fill="#424242" d="M399.3,416.7c0,12.7-10.3,23-23,23c-12.7,0-23-10.3-23-23c0-12.7,10.3-23,23-23
						C389,393.7,399.3,404,399.3,416.7z"/>
					<path fill="#828282" d="M391.2,416.7c0,8.2-6.7,14.9-14.9,14.9c-8.2,0-14.9-6.7-14.9-14.9c0-8.2,6.7-14.9,14.9-14.9
						C384.5,401.9,391.2,408.5,391.2,416.7z"/>
					<path fill="#575757" d="M386.8,416.7c0,5.8-4.7,10.5-10.5,10.5c-5.8,0-10.5-4.7-10.5-10.5c0-5.8,4.7-10.5,10.5-10.5
						C382.1,406.2,386.8,410.9,386.8,416.7z"/>
				</g>
				<g>
					<path fill="#306B8C" d="M400.2,280h-64.8c-3.6,0-6.5,2.9-6.5,6.5v121.6c0,3.6,2.9,6.5,6.5,6.5h5.9c3.1,0,5.7-2.1,6.4-5.1
						l3.9-17.6c0.7-3,3.4-5.2,6.5-5.1c7,0.1,18.1,0.3,19.6,0.4c0.1,0,0.2,0,0.4,0l17.6-0.7c3.3-0.1,6.2,2.2,6.7,5.5l2.8,17.2
						c0.5,3.2,3.2,5.5,6.4,5.5h18c3.6,0,6.5-2.9,6.5-6.5v-79.7c0-1.3-0.4-2.6-1.2-3.7l-29.4-41.9C404.3,281.1,402.3,280,400.2,280z"
						/>
					<path opacity="0.15" d="M328.8,360.5v47.6c0,3.6,2.9,6.5,6.5,6.5h5.9c3.1,0,5.7-2.1,6.4-5.1l3.9-17.6c0.7-3,3.4-5.2,6.5-5.1
						c7,0.1,18.1,0.3,19.6,0.4c0.1,0,0.2,0,0.4,0l17.6-0.7c3.3-0.1,6.2,2.2,6.7,5.5l2.8,17.2c0.5,3.2,3.2,5.5,6.4,5.5h18
						c3.6,0,6.5-2.9,6.5-6.5v-47.6H328.8z"/>
					<path fill="#46A7D4" d="M417.1,325.8l-32.5,0c-3.9,0-7.1-3.2-7.1-7.1v-23.5c0-3.9,3.2-7.1,7.1-7.1h14.3c1.9,0,3.6,0.9,4.7,2.5
						l18.2,26.3C424.4,320.6,421.7,325.8,417.1,325.8z"/>
					<path fill="#20485E" d="M390.9,339h-9.1c-1.1,0-2-0.9-2-2v0c0-1.1,0.9-2,2-2h9.1c1.1,0,2,0.9,2,2v0
						C392.9,338.1,392,339,390.9,339z"/>
					<path fill="#E0671B" d="M354.5,360.5c0,1.5-2.4,2.7-5.3,2.7c-2.9,0-5.3-1.2-5.3-2.7c0-1.5,2.4-2.7,5.3-2.7
						C352.1,357.8,354.5,359,354.5,360.5z"/>
					<path fill="#20485E" d="M340.2,325.8h28.7c1.4,0,2.5-1.1,2.5-2.5v-32.8c0-1.4-1.1-2.5-2.5-2.5h-28.7c-1.4,0-2.5,1.1-2.5,2.5
						v32.8C337.7,324.7,338.8,325.8,340.2,325.8z"/>
					<path fill="#424242" d="M440.8,411.8H421c-1.2,0-2.6-1.8-2.9-2.9l-8.6-21.9c0-1.6,1.3-2.9,2.9-2.9h28.3c1.6,0,2.9,1.3,2.9,2.9
						v21.9C443.7,410.5,442.4,411.8,440.8,411.8z"/>
				</g>
				<g>
					<path fill="#20485E" d="M432.8,367.5c0,6.8-3.2,12.4-7.1,12.4c-3.9,0-7.1-5.5-7.1-12.4s3.2-12.4,7.1-12.4
						C429.6,355.2,432.8,360.7,432.8,367.5z"/>
					<path fill="#B5F0FF" d="M432,367.5c0,5.4-2.5,9.7-5.6,9.7c-3.1,0-5.6-4.4-5.6-9.7c0-5.4,2.5-9.7,5.6-9.7
						C429.5,357.8,432,362.1,432,367.5z"/>
				</g>
				<polygon fill="#4A4A4A" points="346.5,414.8 339.9,412.2 351.1,383.8 402.2,383.8 412.7,412.3 406,414.7 397.3,390.9 
					355.9,390.9 				"/>
			</g>
		</g>
	</g>
</g>
</svg>
