<svg id="Capa_1" enable-background="new 0 0 512 512" height="512" viewBox="0 0 512 512" width="512" xmlns="http://www.w3.org/2000/svg"><g><path d="m280 0h-225c-30.327 0-55 24.673-55 55v402c0 30.327 24.673 55 55 55h280c30.327 0 55-24.673 55-55v-347z" fill="#edf2f2"/><path d="m280 0h-85v512h140c30.327 0 55-24.673 55-55v-347z" fill="#c9dcdc"/><g><g><g><path d="m245 201h-170c-8.284 0-15-6.716-15-15s6.716-15 15-15h170c8.284 0 15 6.716 15 15s-6.716 15-15 15z" fill="#646e6e"/></g><g><path d="m205 261h-130c-8.284 0-15-6.716-15-15s6.716-15 15-15h130c8.284 0 15 6.716 15 15s-6.716 15-15 15z" fill="#646e6e"/></g><g><path d="m205 321h-130c-8.284 0-15-6.716-15-15s6.716-15 15-15h130c8.284 0 15 6.716 15 15s-6.716 15-15 15z" fill="#646e6e"/></g><g><path d="m245 381h-170c-8.284 0-15-6.716-15-15s6.716-15 15-15h170c8.284 0 15 6.716 15 15s-6.716 15-15 15z" fill="#646e6e"/></g></g><path d="m507.606 265.394-60-60c-5.857-5.858-15.355-5.858-21.213 0s-5.858 15.355 0 21.213l34.394 34.393h-203.787c-8.284 0-15 6.716-15 15s6.716 15 15 15h203.787l-34.394 34.394c-5.858 5.858-5.858 15.355 0 21.213 2.929 2.929 6.768 4.393 10.607 4.393s7.678-1.464 10.606-4.394l60-60c5.859-5.857 5.859-15.354 0-21.212z" fill="#176ede"/><path d="m280 0v95c0 8.284 6.716 15 15 15h95z" fill="#a5bfbf"/></g><g fill="#3c4646"><path d="m260 186c0-8.284-6.716-15-15-15h-50v30h50c8.284 0 15-6.716 15-15z"/><path d="m220 246c0-8.284-6.716-15-15-15h-10v30h10c8.284 0 15-6.716 15-15z"/><path d="m220 306c0-8.284-6.716-15-15-15h-10v30h10c8.284 0 15-6.716 15-15z"/><path d="m245 351h-50v30h50c8.284 0 15-6.716 15-15s-6.716-15-15-15z"/></g></g></svg>