<?xml version="1.0"?>
<svg xmlns="http://www.w3.org/2000/svg" height="512px" viewBox="0 0 48 48" width="512px" class=""><g><g isolation="isolate"><g id="Layer_1" data-name="Layer 1"><path d="m36.43 2.364c0 .626-4.594 1.535-11.793 1.535s-11.793-.909-11.793-1.535h-.2v20.076c0 .958 5.369 1.735 11.993 1.735s11.993-.775 11.993-1.735v-20.076z" fill="#47576d" data-original="#47576D" class=""/><path d="m36.63 21.772v-19.408h-.2c0 .626-4.594 1.535-11.793 1.535a55.885 55.885 0 0 1 -9.437-.673v7.246a11.928 11.928 0 0 0 11.8 11.967h.2a56.5 56.5 0 0 0 9.43-.667z" fill="#4e6078" data-original="#4E6078" class=""/><ellipse cx="24.637" cy="2.364" fill="#556881" rx="11.993" ry="1.735" data-original="#556881" class=""/><path d="m28.427 24.085v-9.178c0-.928 0-3.394-14.589-3.394-.411 0-.806 0-1.194.006v10.921c0 .958 5.369 1.735 11.993 1.735 1.326 0 2.597-.032 3.79-.09z" fill="#47576d" opacity=".2" mix-blend-mode="multiply" data-original="#47576D" class=""/><path d="m.75 14.907v19.864c0 1.046 5.86 1.893 13.088 1.893h.162" fill="#a7928d" data-original="#A7928D"/><path d="m26.726 14.907c0 .707-4.9 1.694-12.889 1.694s-12.887-.987-12.887-1.694h-.2v19.864c0 1.046 5.86 1.893 13.088 1.893s13.089-.847 13.089-1.893v-19.864z" fill="#96a7b3" data-original="#96A7B3" class=""/><path d="m26.927 34.728v-19.821h-.2c0 .707-4.9 1.694-12.889 1.694a60.227 60.227 0 0 1 -10.373-.741v6.973a12.636 12.636 0 0 0 12.447 12.633q.318 0 .641 0a61.119 61.119 0 0 0 10.374-.738z" fill="#a7b4ba" data-original="#A7B4BA" class=""/><ellipse cx="13.838" cy="14.907" fill="#b5c1ca" rx="13.088" ry="1.894" data-original="#B5C1CA" class=""/><path d="m15.053 23.3v13.356c6.658-.089 11.874-.9 11.874-1.885v-15.1c-11.863.502-11.874 2.808-11.874 3.629z" fill="#96a7b3" data-original="#96A7B3" class=""/><path d="m47.05 23.37c0 .844-5.763 2.021-15.149 2.021s-15.148-1.177-15.148-2.021h-.2v21.659c0 1.227 6.872 2.221 15.349 2.221s15.348-.994 15.348-2.221v-21.659z" fill="#c0d0d8" data-original="#C0D0D8" class=""/><path d="m47.25 43.762v-20.392h-.2c0 .844-5.763 2.021-15.149 2.021a72.1 72.1 0 0 1 -11.842-.819v10.1a10.775 10.775 0 0 0 10 10.755c1.664.118 3.464.194 5.344.194 4.772-.004 10.038-.778 11.847-1.859z" fill="#d5dbdf" data-original="#D5DBDF" class="active-path" style="fill:#D5DBDF"/><ellipse cx="31.902" cy="23.37" fill="#b5c1ca" rx="15.348" ry="2.221" data-original="#B5C1CA" class=""/><path d="m12.644 11.05a.75.75 0 0 0 .75-.75v-6.458a16.424 16.424 0 0 0 3.821.79v5.668a.75.75 0 0 0 1.5 0v-1.621h1.635a.75.75 0 0 0 0-1.5h-1.635v-2.4q1.454.111 3.332.161v5.89a.75.75 0 1 0 1.5 0v-5.867c.358 0 .71.008 1.09.008 6.373 0 9.626-.515 11.243-1.129v14.658a.75.75 0 0 0 1.5 0v-16.015c0-.927-1.656-2.485-12.743-2.485s-12.743 1.558-12.743 2.485v7.815a.75.75 0 0 0 .75.75zm22.711-8.565c-1.392.441-4.974.986-10.718.986s-9.326-.545-10.719-.986c1.394-.441 4.982-.985 10.719-.985s9.324.544 10.718.985z" data-original="#000000" class="" style="fill:#04458F" data-old_color="#000000"/><path d="m31.9 20.4c-3.776 0-16.1.214-16.1 2.971v21.658c0 2.757 12.325 2.971 16.1 2.971s16.1-.214 16.1-2.971v-21.659c0-2.757-12.322-2.97-16.1-2.97zm14.33 2.97c-1.413.663-6.685 1.471-14.329 1.471s-12.914-.808-14.328-1.471c1.419-.664 6.691-1.47 14.327-1.47s12.912.806 14.33 1.47zm-14.33 23.13c-8.239 0-13.734-.939-14.6-1.624v-20.068c3.278 1.35 11.062 1.522 14.263 1.532v18.2a.75.75 0 1 0 1.5 0v-2.74h2.997a.75.75 0 0 0 0-1.5h-2.994v-3.944h2.994a.75.75 0 0 0 0-1.5h-2.994v-3.944h2.994a.75.75 0 0 0 0-1.5h-2.994v-3.078c1.259-.014 2.915-.052 4.683-.151v18.354a.75.75 0 0 0 1.5 0v-18.454a27.175 27.175 0 0 0 7.251-1.274v20.067c-.863.685-6.358 1.624-14.6 1.624z" data-original="#000000" class="" style="fill:#04458F" data-old_color="#000000"/><path d="m14 35.914h-.16c-7.451 0-11.568-.835-12.338-1.335v-18.279a13.679 13.679 0 0 0 2.798.7v16.377a.75.75 0 0 0 1.5 0v-2.643h1.868a.75.75 0 0 0 0-1.5h-1.868v-3.142h1.868a.75.75 0 0 0 0-1.5h-1.868v-3.144h1.868a.75.75 0 0 0 0-1.5h-1.868v-2.754c1.061.118 2.3.212 3.772.274v15.909a.75.75 0 0 0 1.5 0v-15.86c.859.021 1.773.034 2.766.034 7.1 0 10.629-.576 12.339-1.251v2.2a.75.75 0 0 0 1.5 0v-3.6c0-2.386-9.678-2.644-13.839-2.644s-13.838.265-13.838 2.651v19.864c0 .987 1.8 2.643 13.838 2.643h.162a.75.75 0 0 0 0-1.5zm11.756-21.007c-1.379.5-5.352 1.144-11.918 1.144s-10.538-.651-11.918-1.144c1.38-.5 5.353-1.144 11.918-1.144s10.538.648 11.918 1.144z" data-original="#000000" class="" style="fill:#04458F" data-old_color="#000000"/></g></g></g> </svg>
