<svg height="512" viewBox="0 0 128 128" width="512" xmlns="http://www.w3.org/2000/svg"><g><circle cx="47.168" cy="47.168" fill="#3ea2e5" r="40.86"/><circle cx="47.168" cy="47.168" fill="#dfeef4" r="30.01"/><path d="m118.951 105.714-37.034-37.034-.038.039a40.716 40.716 0 0 1 -13.16 13.16l-.039.038 37.034 37.034a9.361 9.361 0 0 0 13.237 0 9.361 9.361 0 0 0 0-13.237z" fill="#fc883a"/><path d="m32.28 32.244h29.813v29.813h-29.813z" fill="#f2da30"/><path d="m110.76 108.765a1.745 1.745 0 0 1 -1.238-.513l-11.828-11.828a1.75 1.75 0 1 1 2.475-2.475l11.831 11.828a1.751 1.751 0 0 1 -1.237 2.988z" fill="#e57b33"/><path d="m93.131 91.136a1.741 1.741 0 0 1 -1.237-.513l-3.561-3.561a1.75 1.75 0 0 1 2.475-2.475l3.56 3.561a1.751 1.751 0 0 1 -1.237 2.988z" fill="#e57b33"/><path d="m32.28 39.64h10.89v3.5h-10.89z" fill="#ddc226"/><path d="m51.21 39.64h10.88v3.5h-10.88z" fill="#ddc226"/><path d="m43.166 32.244h8.04v14.317h-8.04z" fill="#fc883a"/></g></svg>