<svg xmlns="http://www.w3.org/2000/svg" viewBox="0 0 97.11 123.11"><defs><style>.cls-1{fill:#a24d40;}.cls-2{fill:#a96756;}.cls-3,.cls-7{fill:#deb29e;}.cls-4{fill:#c49182;}.cls-5{fill:#b27769;}.cls-6{fill:#ffe4d9;}.cls-7{opacity:0.5;}.cls-8{fill:#efcbbd;}.cls-9{fill:#2f94cc;}.cls-10{fill:#52a5dd;}.cls-11{fill:#eac7b9;}</style></defs><g id="Layer_2" data-name="Layer 2"><g id="Layer_1-2" data-name="Layer 1"><path class="cls-1" d="M97.11,95.78c0,15.09-21.74,27.33-48.55,27.33S0,110.87,0,95.78,21.74,68.45,48.56,68.45,97.11,80.69,97.11,95.78Z"/><rect class="cls-1" y="91.31" width="97.11" height="5.48"/><path class="cls-2" d="M97.11,91.31c0,15.09-21.74,27.33-48.55,27.33S0,106.4,0,91.31,21.74,64,48.56,64,97.11,76.22,97.11,91.31Z"/><path class="cls-3" d="M95,89c0,14.43-20.8,26.13-46.44,26.13S2.11,103.43,2.11,89s20.8-26.14,46.45-26.14S95,74.56,95,89Z"/><rect class="cls-3" x="2.11" y="32.22" width="92.88" height="56.77"/><path class="cls-4" d="M95,32.22c0,14.44-20.8,26.14-46.44,26.14S2.11,46.66,2.11,32.22,22.91,6.08,48.56,6.08,95,17.79,95,32.22Z"/><path class="cls-5" d="M48.26,12.72c20.63,0,37.47,9.13,38.49,20.6,0-.36,0-.73,0-1.1,0-12-17.26-21.69-38.54-21.69S9.72,20.24,9.72,32.22a10,10,0,0,0,0,1.1C10.78,21.85,27.63,12.72,48.26,12.72Z"/><path class="cls-6" d="M48.26,53.91c20.63,0,37.47-9.12,38.49-20.59-1-11.47-17.86-20.6-38.49-20.6S10.78,21.85,9.77,33.32C10.78,44.79,27.63,53.91,48.26,53.91Z"/><path class="cls-3" d="M30.4,31c0,.82-1.19,1.49-2.65,1.49S25.1,31.82,25.1,31s1.19-1.49,2.65-1.49S30.4,30.18,30.4,31Z"/><path class="cls-7" d="M32.72,31.56c0,1.54-2.23,2.79-5,2.79s-5-1.25-5-2.79,2.23-2.8,5-2.8S32.72,30,32.72,31.56Z"/><ellipse class="cls-7" cx="58.98" cy="19.93" rx="3.38" ry="1.9"/><path class="cls-7" d="M80.09,33.89c0,1.77-2.56,3.2-5.7,3.2s-5.7-1.43-5.7-3.2,2.55-3.21,5.7-3.21S80.09,32.11,80.09,33.89Z"/><rect class="cls-3" x="25.1" y="27.96" width="5.29" height="3.04"/><polygon class="cls-8" points="23.76 49.22 23.2 48.45 47.27 31.03 24.66 17.27 25.69 16.8 49.24 30.79 23.76 49.22"/><polygon class="cls-8" points="73.06 49.22 47.57 30.79 70.74 16.8 71.8 17.24 49.54 31.03 73.61 48.45 73.06 49.22"/><path class="cls-4" d="M50.3,30.68c0,.63-.92,1.15-2,1.15s-2-.52-2-1.15.91-1.15,2-1.15S50.3,30,50.3,30.68Z"/><path class="cls-9" d="M33.05,26.61c0,1.65-2.37,3-5.3,3s-5.29-1.33-5.29-3,2.37-3,5.29-3S33.05,25,33.05,26.61Z"/><rect class="cls-9" x="22.46" y="21.95" width="10.59" height="4.66"/><path class="cls-10" d="M33.05,22c0,1.65-2.37,3-5.3,3s-5.29-1.33-5.29-3,2.37-3,5.29-3S33.05,20.3,33.05,22Z"/><path class="cls-3" d="M30.4,21.92c0,.83-1.19,1.49-2.65,1.49s-2.65-.66-2.65-1.49,1.19-1.49,2.65-1.49S30.4,21.1,30.4,21.92Z"/><rect class="cls-3" x="25.1" y="20.88" width="5.29" height="1.04"/><path class="cls-11" d="M30.4,20.88c0,.82-1.19,1.49-2.65,1.49s-2.65-.67-2.65-1.49,1.19-1.49,2.65-1.49S30.4,20.06,30.4,20.88Z"/><path class="cls-9" d="M61.27,19.31c0,.72-1,1.29-2.29,1.29s-2.29-.57-2.29-1.29S57.71,18,59,18,61.27,18.6,61.27,19.31Z"/><rect class="cls-9" x="56.69" y="17.3" width="4.58" height="2.02"/><ellipse class="cls-10" cx="58.98" cy="17.3" rx="2.29" ry="1.29"/><path class="cls-3" d="M60.12,17.29c0,.35-.51.64-1.14.64s-1.15-.29-1.15-.64.52-.65,1.15-.65S60.12,16.93,60.12,17.29Z"/><rect class="cls-3" x="57.83" y="16.83" width="2.29" height="0.45"/><path class="cls-11" d="M60.12,16.83c0,.36-.51.65-1.14.65s-1.15-.29-1.15-.65.52-.64,1.15-.64S60.12,16.48,60.12,16.83Z"/><path class="cls-4" d="M48.56,69.28C23.33,69.28,2.82,58,2.15,43.86c0,.23,0,.47,0,.7C2.11,59,22.91,70.7,48.56,70.7S95,59,95,44.56c0-.23,0-.47,0-.7C94.29,58,73.78,69.28,48.56,69.28Z"/><path class="cls-4" d="M48.56,81.58c-25.23,0-45.74-11.32-46.41-25.43,0,.24,0,.47,0,.71C2.11,71.29,22.91,83,48.56,83S95,71.29,95,56.86c0-.24,0-.47,0-.71C94.29,70.26,73.78,81.58,48.56,81.58Z"/><path class="cls-4" d="M48.56,93.29C23.33,93.29,2.82,82,2.15,67.86c0,.24,0,.47,0,.71,0,14.44,20.8,26.14,46.45,26.14S95,83,95,68.57c0-.24,0-.47,0-.71C94.29,82,73.78,93.29,48.56,93.29Z"/><path class="cls-4" d="M48.56,105.59c-25.23,0-45.74-11.32-46.41-25.43,0,.23,0,.47,0,.71C2.11,95.3,22.91,107,48.56,107S95,95.3,95,80.87c0-.24,0-.48,0-.71C94.29,94.27,73.78,105.59,48.56,105.59Z"/><path class="cls-5" d="M48.56,58.84C22.69,58.84,1.64,46.9,1.64,32.22S22.69,5.61,48.56,5.61,95.47,17.55,95.47,32.22,74.43,58.84,48.56,58.84Zm0-52.28c-25.35,0-46,11.51-46,25.66s20.62,25.66,46,25.66,46-11.51,46-25.66S73.9,6.56,48.56,6.56Z"/><path class="cls-9" d="M48.56,0C22.69,0,1.64,11.94,1.64,26.61S22.69,53.23,48.56,53.23c12.36,0,23.63-2.74,32-7.19.82-.43,2.08-.42,1.37-.8a1.57,1.57,0,0,0-1.52-.16c-8.27,4.45-19.5,7.2-31.86,7.2-25.35,0-46-11.52-46-25.67S23.21,1,48.56,1s46,11.51,46,25.66c0,5.89-3.58,11.32-9.57,15.65a2.41,2.41,0,0,0-.83,1.9c-.07.83.81-.77,1.28-1.1,6.3-4.53,10.07-10.24,10.07-16.45C95.47,11.94,74.43,0,48.56,0Z"/><rect class="cls-9" x="43.75" y="0.59" width="0.95" height="5.61"/><rect class="cls-9" x="43.75" y="52.75" width="0.95" height="5.43"/><rect class="cls-9" x="26.8" y="3.28" width="0.95" height="5.61"/><rect class="cls-9" x="26.8" y="49.81" width="0.95" height="5.61"/><rect class="cls-9" x="11.51" y="10.57" width="0.95" height="5.51"/><rect class="cls-9" x="11.51" y="42.66" width="0.95" height="5.61"/><rect class="cls-9" x="1.64" y="26.61" width="0.95" height="5.61"/><ellipse class="cls-9" cx="11.98" cy="48.27" rx="0.47" ry="0.27"/><path class="cls-9" d="M2.59,32.22c0,.15-.21.27-.48.27s-.47-.12-.47-.27.21-.27.47-.27S2.59,32.07,2.59,32.22Z"/><path class="cls-9" d="M12.46,16.08c0,.14-.22.26-.48.26s-.47-.12-.47-.26.21-.27.47-.27S12.46,15.93,12.46,16.08Z"/><path class="cls-9" d="M27.75,8.89c0,.14-.21.26-.47.26S26.8,9,26.8,8.89s.21-.27.48-.27S27.75,8.74,27.75,8.89Z"/><path class="cls-9" d="M44.7,6.2c0,.14-.21.26-.47.26s-.48-.12-.48-.26.21-.27.48-.27S44.7,6.05,44.7,6.2Z"/><path class="cls-9" d="M27.75,55.42c0,.15-.21.27-.47.27s-.48-.12-.48-.27.21-.27.48-.27S27.75,55.27,27.75,55.42Z"/><path class="cls-9" d="M44.7,58.18c0,.15-.21.27-.47.27s-.48-.12-.48-.27.21-.26.48-.26S44.7,58,44.7,58.18Z"/><rect class="cls-9" x="52.41" y="0.59" width="0.95" height="5.61"/><rect class="cls-9" x="52.41" y="52.75" width="0.95" height="5.43"/><rect class="cls-9" x="69.36" y="3.28" width="0.95" height="5.61"/><rect class="cls-9" x="69.36" y="49.81" width="0.95" height="5.61"/><rect class="cls-9" x="84.65" y="10.57" width="0.95" height="5.51"/><rect class="cls-9" x="94.52" y="26.61" width="0.95" height="5.61"/><ellipse class="cls-9" cx="95" cy="32.22" rx="0.47" ry="0.27"/><path class="cls-9" d="M84.65,16.08c0,.14.22.26.48.26s.47-.12.47-.26-.21-.27-.47-.27S84.65,15.93,84.65,16.08Z"/><path class="cls-9" d="M69.36,8.89c0,.14.21.26.47.26s.48-.12.48-.26-.21-.27-.48-.27S69.36,8.74,69.36,8.89Z"/><path class="cls-9" d="M52.41,6.2c0,.14.21.26.47.26s.48-.12.48-.26-.21-.27-.48-.27S52.41,6.05,52.41,6.2Z"/><path class="cls-9" d="M69.36,55.42c0,.15.21.27.47.27s.48-.12.48-.27-.21-.27-.48-.27S69.36,55.27,69.36,55.42Z"/><path class="cls-9" d="M52.41,58.18c0,.15.21.27.47.27s.48-.12.48-.27-.21-.26-.48-.26S52.41,58,52.41,58.18Z"/><path class="cls-9" d="M82.17,45.36a1.48,1.48,0,0,0-1.53-.12,2,2,0,0,0-.81,1.85v4.17h.54v-4a1.56,1.56,0,0,1,.58-1.4A1.09,1.09,0,0,1,82,46a4.35,4.35,0,0,1,1.81,3.46V61.85h.54V49.57A5.28,5.28,0,0,0,82.17,45.36Z"/><path class="cls-9" d="M80.37,51.25c0,.08-.12.15-.27.15s-.27-.07-.27-.15.12-.14.27-.14S80.37,51.17,80.37,51.25Z"/><path class="cls-9" d="M84.39,108c0,.08-.12.15-.27.15s-.27-.07-.27-.15.12-.14.27-.14S84.39,107.93,84.39,108Z"/><path class="cls-9" d="M86.43,42.92a1.52,1.52,0,0,0-1.54-.11,2,2,0,0,0-.81,1.85v4.16h.54v-4a1.54,1.54,0,0,1,.58-1.4,1.09,1.09,0,0,1,1.1.1A4.33,4.33,0,0,1,88.1,47V59.41h.54V47.14A5.29,5.29,0,0,0,86.43,42.92Z"/><path class="cls-9" d="M88.64,104.92c0,.08-.12.15-.27.15s-.27-.07-.27-.15.12-.14.27-.14S88.64,104.84,88.64,104.92Z"/><path class="cls-9" d="M84.62,48.83c0,.08-.12.15-.27.15s-.27-.07-.27-.15.12-.14.27-.14S84.62,48.75,84.62,48.83Z"/><path class="cls-9" d="M88.46,49.42a.35.35,0,0,0-.18-.31.12.12,0,0,0-.1,0l-3.79,2.18v.59l4-2.31A.21.21,0,0,0,88.46,49.42Z"/><path class="cls-9" d="M88.46,52.39a.33.33,0,0,0-.18-.3.12.12,0,0,0-.1,0l-3.79,2.18v.59l4-2.32A.19.19,0,0,0,88.46,52.39Z"/><path class="cls-9" d="M88.46,55.07a.35.35,0,0,0-.18-.31.11.11,0,0,0-.1,0L84.39,57v.59l4-2.32A.21.21,0,0,0,88.46,55.07Z"/><path class="cls-9" d="M88.46,58a.35.35,0,0,0-.18-.31h-.1l-3.79,2.18v.6l4-2.32A.21.21,0,0,0,88.46,58Z"/><path class="cls-9" d="M88.46,60.82a.35.35,0,0,0-.18-.31.16.16,0,0,0-.1,0L84.39,62.7v.59l4-2.32A.21.21,0,0,0,88.46,60.82Z"/><path class="cls-9" d="M88.46,63.8a.35.35,0,0,0-.18-.31.11.11,0,0,0-.1,0l-3.79,2.18v.59l4-2.32A.21.21,0,0,0,88.46,63.8Z"/><path class="cls-9" d="M88.46,66.48a.35.35,0,0,0-.18-.31.17.17,0,0,0-.1,0l-3.79,2.18V69l4-2.32A.21.21,0,0,0,88.46,66.48Z"/><path class="cls-9" d="M88.46,69.45a.35.35,0,0,0-.18-.31.12.12,0,0,0-.1,0l-3.79,2.18v.59l4-2.31A.21.21,0,0,0,88.46,69.45Z"/><path class="cls-9" d="M88.46,72.23a.35.35,0,0,0-.18-.31.17.17,0,0,0-.1,0l-3.79,2.19v.59l4-2.32A.21.21,0,0,0,88.46,72.23Z"/><path class="cls-9" d="M88.46,75.21a.35.35,0,0,0-.18-.31.17.17,0,0,0-.1,0l-3.79,2.18v.6l4-2.32A.21.21,0,0,0,88.46,75.21Z"/><path class="cls-9" d="M88.46,77.89a.34.34,0,0,0-.18-.31.12.12,0,0,0-.1,0l-3.79,2.18v.59l4-2.31A.21.21,0,0,0,88.46,77.89Z"/><path class="cls-9" d="M88.46,80.85a.35.35,0,0,0-.18-.31.11.11,0,0,0-.1,0l-3.79,2.18v.59l4-2.32A.21.21,0,0,0,88.46,80.85Z"/><path class="cls-9" d="M88.46,83.64a.35.35,0,0,0-.18-.31.12.12,0,0,0-.1,0l-3.79,2.18v.59l4-2.31A.21.21,0,0,0,88.46,83.64Z"/><path class="cls-9" d="M88.46,86.62a.34.34,0,0,0-.18-.31.12.12,0,0,0-.1,0l-3.79,2.18v.59l4-2.31A.23.23,0,0,0,88.46,86.62Z"/><path class="cls-9" d="M88.46,89.29a.35.35,0,0,0-.18-.31.11.11,0,0,0-.1,0l-3.79,2.18v.59l4-2.32A.21.21,0,0,0,88.46,89.29Z"/><path class="cls-9" d="M88.46,92.26a.35.35,0,0,0-.18-.31.17.17,0,0,0-.1,0l-3.79,2.18v.6l4-2.32A.21.21,0,0,0,88.46,92.26Z"/><path class="cls-9" d="M88.46,95.52a.35.35,0,0,0-.18-.31.16.16,0,0,0-.1,0L84.39,97.4V98l4-2.32A.21.21,0,0,0,88.46,95.52Z"/><path class="cls-9" d="M88.46,98.5a.35.35,0,0,0-.18-.31.11.11,0,0,0-.1,0l-3.79,2.18V101l4-2.32A.21.21,0,0,0,88.46,98.5Z"/><path class="cls-9" d="M88.46,101.18a.35.35,0,0,0-.18-.31.17.17,0,0,0-.1,0l-3.79,2.18v.6l4-2.32A.21.21,0,0,0,88.46,101.18Z"/><path class="cls-9" d="M88.46,104.15a.35.35,0,0,0-.18-.31.12.12,0,0,0-.1,0L84.39,106v.59l4-2.31A.21.21,0,0,0,88.46,104.15Z"/><path class="cls-9" d="M84.12,56c-.15,0-.27-.06-.27-.14V108h.54V55.85C84.39,55.93,84.27,56,84.12,56Z"/><path class="cls-9" d="M88.37,53.53c-.15,0-.27-.06-.27-.14v51.53h.54V53.39C88.64,53.47,88.52,53.53,88.37,53.53Z"/><path class="cls-3" d="M78.46,33.35c0,1.27-1.82,2.3-4.07,2.3s-4.08-1-4.08-2.3,1.83-2.29,4.08-2.29S78.46,32.08,78.46,33.35Z"/><rect class="cls-3" x="70.31" y="29.76" width="8.15" height="3.59"/><path class="cls-11" d="M78.46,29.76c0,1.27-1.82,2.3-4.07,2.3s-4.08-1-4.08-2.3,1.83-2.29,4.08-2.29S78.46,28.49,78.46,29.76Z"/><path class="cls-4" d="M76.43,29.76c0,.64-.92,1.15-2,1.15s-2-.51-2-1.15.91-1.15,2-1.15S76.43,29.13,76.43,29.76Z"/></g></g></svg>