<?xml version="1.0" encoding="utf-8"?>
<!-- Generator: Adobe Illustrator 24.1.2, SVG Export Plug-In . SVG Version: 6.00 Build 0)  -->
<svg version="1.1" id="Layer_1" xmlns="http://www.w3.org/2000/svg" xmlns:xlink="http://www.w3.org/1999/xlink" x="0px" y="0px"
	 width="512px" height="512px" viewBox="0 0 512 512" enable-background="new 0 0 512 512" xml:space="preserve">
<g>
	<circle fill="#FFFFFF" cx="256" cy="256" r="256"/>
</g>
<g>
	<g>
		<path fill="#8DC63F" d="M390.8,101.9c0,4-4.4,7.9-12.4,11.4c-21.4,9.3-68.2,15.7-122.5,15.7c-33.5,0-64-2.4-87.6-6.5h0
			c-0.2,0-0.4-0.1-0.6-0.1c70.7-0.7,127.4-17.2,127.4-37.5c0-3.1-1.3-6.1-3.9-9.1C348.5,78.8,390.8,89.4,390.8,101.9z"/>
		<path fill="#B8E86B" d="M295,84.8c0,20.3-56.7,36.9-127.4,37.5c0,0,0,0-0.1,0c-14.6-2.5-26.5-5.7-34.5-9.3
			c-7.7-3.4-12-7.1-12-11.1c0-9.8,25.7-18.3,64.3-23.1V63.9h21.4v12.8c15.2-1.2,31.8-1.9,49.2-1.9c12.2,0,24,0.3,35.3,1
			C293.7,78.7,295,81.7,295,84.8z"/>
		<path fill="#F9B233" d="M178.3,289L178.3,289l-0.8-0.1C177.7,289,178,289,178.3,289z"/>
		<line fill="none" x1="378.4" y1="278.2" x2="378.4" y2="278.2"/>
		<path fill="#2E3192" d="M378.4,113.2V153c-19,10.4-68.5,17.7-126.6,17.7c-27.1,0-52.4-1.6-73.5-4.4V289c-0.3,0-0.5,0-0.8-0.1
			c-3.2-0.4-6.2-0.9-9.2-1.4h0c-0.2,0-0.3-0.1-0.5-0.1c0,0,0,0-0.1,0c-5.2-0.9-10.1-1.9-14.6-3c-8.1-1.9-14.8-4-20-6.4
			c-7.7-3.4-12-7.2-12-11.1c0-4,4.3-7.7,12-11.1V113c8.1,3.6,19.9,6.8,34.5,9.3c0,0,0,0,0.1,0c0.2,0,0.4,0.1,0.6,0.1h0
			c23.6,4,54.1,6.5,87.6,6.5C310.2,128.9,357,122.5,378.4,113.2z"/>
		<path fill="#2E3192" d="M378.4,278.2v35c-21.5,9.2-68.2,15.7-122.3,15.7c-29,0-55.8-1.8-77.8-5v119.2c-34.5-4.9-57-12.9-57-22.1
			c0-4,4.2-7.7,11.8-11.1V278c5.2,2.3,12,4.4,20,6.4c4.4,1,9.4,2,14.6,3c0,0,0,0,0.1,0c0.2,0,0.3,0.1,0.5,0.1h0c3,0.5,6,1,9.2,1.4
			l0.8,0.1c6.1,0.9,12.5,1.6,19.3,2.3c1.8,0.2,3.6,0.3,5.4,0.5c7.3,0.6,14.8,1.1,22.6,1.5c3,0.1,6.1,0.3,9.1,0.3
			c6.9,0.2,14,0.3,21.2,0.3c1.7,0,3.4,0,5,0c1.7,0,3.4,0,5,0c3.3,0,6.6-0.1,9.9-0.2c2.7-0.1,5.4-0.2,8.1-0.3c0.5,0,1,0,1.5,0
			c1.4-0.1,2.8-0.1,4.2-0.2c8.4-0.4,16.5-1,24.2-1.8c1.1-0.1,2.2-0.2,3.2-0.3c4.3-0.4,8.4-0.9,12.3-1.4c1.3-0.2,2.6-0.3,3.9-0.5
			c1.7-0.2,3.4-0.5,5-0.7c1.9-0.3,3.7-0.6,5.6-0.9c2.9-0.5,5.7-1,8.4-1.6c0.8-0.2,1.6-0.3,2.4-0.5c1.5-0.3,2.9-0.6,4.3-1
			c1-0.2,1.9-0.4,2.8-0.7c0.9-0.2,1.8-0.5,2.7-0.7c0.9-0.2,1.8-0.5,2.6-0.7c0.9-0.2,1.7-0.5,2.5-0.8c0.8-0.2,1.6-0.5,2.4-0.7
			s1.5-0.5,2.3-0.8c0.7-0.2,1.4-0.5,2.1-0.8C377.1,278.8,377.8,278.5,378.4,278.2z"/>
		<path fill="#0071BC" d="M390.8,266.9c0,0.4,0,0.7-0.1,1.1c0,0,0,0.1,0,0.1c0,0.1,0,0.2,0,0.3c-0.1,0.3-0.2,0.7-0.4,1.1
			c0,0.1-0.1,0.2-0.2,0.3c-0.1,0.2-0.2,0.3-0.3,0.5c0,0.1-0.1,0.2-0.1,0.3l-0.1,0c0,0,0,0,0,0.1l0,0h0c0,0,0,0,0,0.1
			c-0.3,0.4-0.6,0.8-1,1.2c-0.2,0.3-0.5,0.5-0.7,0.7c-0.3,0.3-0.5,0.5-0.8,0.7c-0.3,0.3-0.6,0.5-0.9,0.7c-0.3,0.2-0.7,0.5-1,0.7
			c-0.7,0.4-1.4,0.9-2.3,1.3c-0.8,0.5-1.7,0.9-2.7,1.3c-0.5,0.2-1,0.4-1.5,0.7c-0.7,0.3-1.3,0.6-2,0.8c-0.7,0.3-1.4,0.6-2.1,0.8
			c-0.7,0.3-1.5,0.6-2.3,0.8s-1.5,0.5-2.4,0.7c-0.8,0.3-1.7,0.6-2.5,0.8c-0.8,0.3-1.7,0.5-2.6,0.7c-0.9,0.3-1.8,0.5-2.7,0.7
			c-0.9,0.3-1.9,0.5-2.8,0.7c-1.4,0.3-2.8,0.7-4.3,1c-0.8,0.2-1.6,0.3-2.4,0.5c-2.7,0.6-5.5,1.1-8.4,1.6c-1.8,0.3-3.7,0.6-5.6,0.9
			c-1.6,0.3-3.3,0.5-5,0.7c-1.3,0.2-2.6,0.3-3.9,0.5c-4,0.5-8.1,1-12.3,1.4c-1,0.1-2.1,0.2-3.2,0.3c-7.7,0.8-15.8,1.3-24.2,1.8
			c-1.4,0.1-2.8,0.1-4.2,0.2c-0.5,0-1,0-1.5,0c-2.7,0.1-5.4,0.2-8.1,0.3c-3.3,0.1-6.6,0.2-9.9,0.2c-1.7,0-3.4,0-5,0
			c-1.7,0-3.4,0-5,0c-7.2,0-14.3-0.1-21.2-0.3c-3.1-0.1-6.1-0.2-9.1-0.3c-7.8-0.3-15.4-0.9-22.6-1.5c-1.8-0.1-3.6-0.3-5.4-0.5
			c-6.7-0.7-13.2-1.4-19.3-2.3V166.3c21.2,2.8,46.4,4.4,73.5,4.4c58.1,0,107.6-7.4,126.6-17.7v102.6c0.5,0.2,1,0.4,1.5,0.7
			c2,0.9,3.7,1.8,5.1,2.8c0.4,0.3,0.8,0.5,1.2,0.8c0.2,0.1,0.4,0.3,0.6,0.4c0.9,0.7,1.7,1.4,2.3,2.2c0.1,0.1,0.2,0.2,0.3,0.3
			c0.1,0.2,0.3,0.4,0.4,0.6c0.2,0.3,0.4,0.7,0.6,1.1c0.1,0.3,0.2,0.5,0.3,0.8c0,0.1,0.1,0.3,0.1,0.4
			C390.8,266.1,390.8,266.5,390.8,266.9z"/>
		<path fill="#0071BC" d="M390.9,421.1c0,14.9-60.4,27-134.9,27c-29,0-55.8-1.8-77.8-5V323.9c22,3.1,48.8,5,77.8,5
			c54.1,0,100.9-6.4,122.3-15.7v96.5C386.5,413.1,390.9,417,390.9,421.1z"/>
		<path fill="#F9B233" d="M379.9,277.5c-0.5,0.3-1,0.5-1.5,0.7c-0.6,0.3-1.3,0.5-2,0.8c0.7-0.3,1.3-0.6,2-0.8
			C378.9,278,379.4,277.8,379.9,277.5z"/>
		<path fill="none" stroke="#04311C" stroke-width="8.7057" stroke-miterlimit="10" d="M378.2,409.9c7.7,3.4,12,7.2,12,11.2
			c0,14.9-60,27.1-134,27.1S122,436,122,421.1c0-3.8,3.9-7.5,11-10.8"/>
		<g>
			<path fill="none" stroke="#04311C" stroke-width="8.7057" stroke-miterlimit="10" d="M133.1,254.5c-7.1,3.3-11,6.9-11,10.8
				c0,14.9,60,27.1,134.1,27.1c21.3,0,41.5-1,59.4-2.8"/>
			<path fill="none" stroke="#04311C" stroke-width="8.7057" stroke-miterlimit="10" d="M378.2,254.1c7.7,3.4,12,7.2,12,11.2
				c0,9.1-22.2,17.1-56.2,22"/>
		</g>
		
			<line fill="none" stroke="#04311C" stroke-width="8.7057" stroke-linecap="round" stroke-miterlimit="10" x1="378.4" y1="113.2" x2="378.2" y2="254.1"/>
		
			<line fill="none" stroke="#04311C" stroke-width="8.7057" stroke-linecap="round" stroke-miterlimit="10" x1="134.6" y1="113.2" x2="134.4" y2="254.1"/>
		
			<line fill="none" stroke="#04311C" stroke-width="8.7057" stroke-linecap="round" stroke-miterlimit="10" x1="134.6" y1="113.2" x2="134.4" y2="254.1"/>
		
			<line fill="none" stroke="#04311C" stroke-width="8.7057" stroke-linecap="round" stroke-miterlimit="10" x1="134.6" y1="113.2" x2="134.4" y2="254.1"/>
		
			<line fill="none" stroke="#04311C" stroke-width="8.7057" stroke-linecap="round" stroke-miterlimit="10" x1="134.6" y1="276.7" x2="134.4" y2="409.9"/>
		
			<line fill="none" stroke="#04311C" stroke-width="8.7057" stroke-linecap="round" stroke-miterlimit="10" x1="378.1" y1="276.7" x2="377.9" y2="409.9"/>
		<path fill="none" stroke="#04311C" stroke-width="8.7057" stroke-miterlimit="10" d="M185.4,78.8"/>
		<g>
			
				<path fill="none" stroke="#04311C" stroke-width="8.7057" stroke-linecap="round" stroke-linejoin="bevel" stroke-miterlimit="10" d="
				M184.2,79.5H184c-37.3,4.8-61.9,13.2-61.9,22.9c0,15,60,27.1,134,27.1s134-12.1,134-27.1s-60-27.1-134-27.1
				c-17.3,0-33.7,0.7-48.9,1.9"/>
			
				<polyline fill="none" stroke="#04311C" stroke-width="8.7057" stroke-linecap="round" stroke-linejoin="bevel" stroke-miterlimit="10" points="
				184.2,79.5 184,79.5 185.4,63.9 206.7,63.9 207.4,77.1 207.2,77.1 			"/>
		</g>
		<line fill="none" stroke="#FFFFFF" stroke-width="10.8821" stroke-miterlimit="10" x1="339.2" y1="156.1" x2="339.2" y2="248"/>
		<line fill="none" stroke="#FFFFFF" stroke-width="10.8821" stroke-miterlimit="10" x1="339.2" y1="309.2" x2="339.2" y2="405.3"/>
	</g>
	<g>
		<g>
			<path fill="#001689" d="M247.3,262.8H203V240h7.5v-49.7H203v-22.8h45.6c10.4,0,18.9,0.6,25.5,1.9c6.6,1.3,12.9,3.9,18.7,7.9
				c5.8,4,10.4,9.5,13.7,16.3c1.6,3.3,2.9,6.8,3.8,10.5c0.9,3.7,1.3,7.7,1.3,11.8c0,8.3-1.8,15.8-5.3,22.6
				c-3.5,6.8-7.9,11.9-13.2,15.5c-5.2,3.6-10.9,6-17.1,7.1C269.8,262.3,260.3,262.8,247.3,262.8z"/>
		</g>
		<g>
			<path fill="#FFFFFF" d="M255,244.2h-31.7v-13.9h4.5V200h-4.6v-13.9H255V200h-4.6v30.3h4.6V244.2z M291.4,244.2h-30.3v-13.9h2.8
				l-12.8-16.5L266,200h-4.8v-13.9h28.8V200h-4.5l-11.9,11l14.9,19.3h2.9V244.2z"/>
		</g>
	</g>
</g>
</svg>
