<?xml version="1.0" encoding="utf-8"?>
<!-- Generator: Adobe Illustrator 24.1.2, SVG Export Plug-In . SVG Version: 6.00 Build 0)  -->
<svg version="1.1" id="Layer_1" xmlns="http://www.w3.org/2000/svg" xmlns:xlink="http://www.w3.org/1999/xlink" x="0px" y="0px"
	 width="512px" height="512px" viewBox="0 0 512 512" enable-background="new 0 0 512 512" xml:space="preserve">
<g>
	<circle fill="#FFFFFF" cx="256" cy="256" r="256"/>
</g>
<g>
	
		<rect id="rect6763" x="115.3" y="115.3" transform="matrix(0.7071 -0.7071 0.7071 0.7071 -106.0387 256)" fill="#E0393E" stroke="#231F20" stroke-width="3.2833" stroke-miterlimit="4" width="281.4" height="281.4"/>
	
		<rect id="rect6769" x="135.8" y="135.8" transform="matrix(0.7071 -0.7071 0.7071 0.7071 -106.0417 256.0027)" fill="none" stroke="#FFFFFF" stroke-width="3.2833" stroke-miterlimit="4" width="240.4" height="240.4"/>
	<path id="path3397" fill="#FFFFFF" d="M243.7,381.6l6.9-0.8c0.2,1.7,0.8,3.1,1.8,4c1,0.9,2.1,1.4,3.5,1.4c1.5,0,2.7-0.6,3.7-1.7
		c1-1.1,1.5-2.6,1.5-4.5c0-1.8-0.5-3.2-1.4-4.2c-1-1-2.1-1.6-3.5-1.6c-0.9,0-2,0.2-3.3,0.5l0.8-5.8c1.9,0.1,3.4-0.4,4.4-1.2
		c1-0.9,1.5-2.1,1.5-3.5c0-1.2-0.4-2.2-1.1-3c-0.7-0.7-1.7-1.1-2.9-1.1c-1.2,0-2.2,0.4-3.1,1.3c-0.9,0.8-1.4,2.1-1.6,3.7l-6.5-1.1
		c0.5-2.2,1.1-4,2.1-5.4c0.9-1.3,2.2-2.4,3.8-3.1c1.6-0.8,3.5-1.1,5.5-1.1c3.5,0,6.3,1.1,8.4,3.3c1.7,1.8,2.6,3.9,2.6,6.1
		c0,3.2-1.8,5.8-5.3,7.8c2.1,0.5,3.8,1.5,5.1,3c1.3,1.6,1.9,3.5,1.9,5.7c0,3.2-1.2,6-3.6,8.3c-2.4,2.3-5.3,3.4-8.8,3.4
		c-3.3,0-6.1-1-8.3-2.9C245.4,387.2,244.1,384.7,243.7,381.6z"/>
	<path id="path1390" fill="#FFFFFF" d="M255,111.2c0,0-0.9,0.1-1.5,0.7c-2.7,3.2-3.9,8.2-4.1,12.6c-0.6,5.9,3.6,10.4,2.9,16.4
		c-4.4-4.7-7.9-7.2-13.3-9.2c-0.6-0.2-1.2-0.4-1.8-0.7c0.5,2.1,1.4,3.7,2.9,5.6c5.3,6.3-0.3,14.1,0.6,21c-2-3.2-5-5.5-8.1-7.8
		c-0.6-0.4-1.7-1.1-2.5-0.3l1.3,2.5c3.4,4.7,2.6,12.1,0.7,17.3c-3.1-2.9-5.8-6.9-10-6.6c4.5,7.2,3.5,17.5,7,25.2
		c3.1,6.8,9.9,10.9,16.9,12.2c2.7,0.4,8.4,0.7,8.4,0.7v-1.3c-8.7-1.4-8.3-11.2-14.8-15.8l-0.3-0.3l0.3-0.1c0.4-0.2,0.8,0,1.6,0.1
		c1.1,0.2,2.6,1.7,3.2,0.3c-1.6-3.7-1.1-7.1-0.9-11h0.4c3.2,4.7,2.8,10.9,7.3,14.8c0.4,0.1,1,0.7,1.3-0.1
		c-0.1-6.5-3.8-12.7-1.8-19.5c0.8,2.1,1.8,5.2,4.1,6c3.4-3.4,2.5-9.5,2.1-14.1c3.8,4.9,5,13,2.3,19.2c-0.3,0.7-1.1,1.5-0.3,2.3
		c2.6-0.9,4.7-3.7,6.3-6l0.1-0.4l0.1,0.4c0.5,2,0.2,4.1-0.3,6c-0.3,1.7-2.4,2.9-1.5,4.5c2.7-0.8,4.6-3.4,6.6-5.3
		c1,7.9-4.4,15.4-11,18.9v1.2c0,0,3.1-0.2,5.1-0.6c10.9-1.4,21.3-10.5,23.9-21.4c2.1-5.7,0.3-11.3,0.6-17.3v-0.7l-0.3,0.1
		c-2.7,2.9-2.9,7.2-4.5,10.7c-0.7,1-1.4,2.9-2.8,2.9c-0.2-4.5,1.8-8.8,3.4-12.8c1.6-5.3-0.1-10.9-3.2-15.2c-0.2-0.2-0.4-0.4-0.6-0.4
		c0.1,0.2,0.2,0.4,0.3,0.7c0.9,6-2.1,10.7-6.6,14.5c-0.7,0.5-1.5,1.8-2.3,1.2c2-6.9,4-15.1-0.7-21.4c-0.8-1.2-1.9-3.4-3.8-4.1
		c-0.1,4.5-0.1,10.1-3.4,13.5c0-2.1,0.5-4.5,0.4-7C265.7,131.3,252.6,123.9,255,111.2z M228,202.8v5.9h56.1v-5.9H228z"/>
	<path id="path3400" fill="#FFFFFF" d="M167.8,236.8c-2.4,0-4.3,0.5-5.9,1.3c-1.6,0.8-3,2-4,3.5c-1,1.6-1.5,3.5-1.9,5.9
		c-0.4,2.3-0.6,5-0.6,8.1c0,3.2,0,6.1,0.3,8.5c0.3,2.4,0.8,4.4,1.6,6c0.8,1.7,1.9,3,3.4,3.8c1.4,0.8,3.3,1.3,5.6,1.3
		c1.8,0,3.3-0.4,4.5-1c1.3-0.7,2.3-1.8,3.2-3.2h0.1v3.5h5.4v-19.9h-12v5.4h4.8v3.8c0,1-0.1,1.9-0.4,2.6c-0.3,0.7-0.7,1.3-1.2,1.8
		c-0.5,0.5-0.9,0.9-1.5,1.2c-0.5,0.2-1,0.3-1.5,0.3c-1.1,0-2-0.4-2.6-1s-1.1-1.5-1.5-2.8c-0.4-1.3-0.6-2.8-0.7-4.5
		c-0.1-1.8-0.3-3.8-0.3-6c0-4.6,0.4-8,1.2-10c0.8-2,2.2-2.9,4-2.9c0.8,0,1.4,0.2,1.9,0.6s1,0.9,1.3,1.5c0.3,0.6,0.6,1.3,0.7,2.1
		c0.2,0.7,0.3,1.4,0.3,2.1h7c0-3.7-0.8-6.6-2.6-8.6C174.8,237.9,171.8,236.8,167.8,236.8z M223.6,236.8c-3.5,0-6.3,1-8.4,2.8
		c-2,1.8-2.9,4.4-2.9,8.1c0,1.5,0.1,3,0.4,4.1c0.4,1.2,1.1,2.1,1.9,2.9c0.8,0.9,1.7,1.7,2.9,2.3c1.2,0.7,2.6,1.2,4.3,1.8
		c1.2,0.4,2.4,0.9,3.2,1.3c0.8,0.4,1.5,0.8,2.1,1.3c0.5,0.5,0.8,1,1,1.6c0.2,0.6,0.3,1.2,0.3,2.1c0,1.5-0.4,2.8-1.3,3.5
		c-0.9,0.7-1.9,1-3.1,1c-1,0-1.7-0.2-2.3-0.4c-0.6-0.3-1.2-0.5-1.6-1c-0.4-0.5-0.6-1.1-0.7-1.8c-0.1-0.7-0.1-1.5-0.1-2.3v-1.2h-7.5
		v1.5c0,3.4,0.8,6,2.6,7.9c1.8,1.9,4.9,2.9,9.1,2.9c4,0,7.1-1,9.4-2.8c2.3-1.8,3.4-4.6,3.4-8.5c0-1.1-0.1-2.3-0.3-3.2
		c-0.2-0.9-0.5-1.7-1-2.5c-0.5-0.8-1.3-1.5-2.2-2.2c-0.9-0.7-2.1-1.3-3.5-1.9l-5.7-2.5c-1.6-0.7-2.6-1.4-3.1-2.2
		c-0.5-0.8-0.7-1.7-0.7-2.8c0-0.5,0-1.1,0.1-1.6c0.1-0.5,0.4-0.9,0.7-1.3c0.3-0.4,0.8-0.8,1.3-1c0.6-0.2,1.2-0.3,2.1-0.3
		c1.4,0,2.5,0.4,3.1,1.3c0.6,0.9,1,2.4,1,4.1h7v-1c0-1.8-0.3-3.3-0.9-4.5c-0.6-1.3-1.3-2.3-2.3-3.1c-1-0.8-2.3-1.4-3.7-1.8
		C226.8,237,225.3,236.8,223.6,236.8z M251.7,236.8c-2.8,0-4.9,0.5-6.6,1.5c-1.7,0.9-2.9,2.3-3.8,4c-0.9,1.7-1.5,3.7-1.8,6
		c-0.3,2.4-0.4,5-0.4,7.8c0,2.8,0.2,5.4,0.4,7.8c0.3,2.4,0.9,4.3,1.8,6s2.2,3,3.8,4c1.7,0.9,3.8,1.5,6.6,1.5c2.8,0,4.9-0.5,6.6-1.5
		c1.7-0.9,2.9-2.3,3.8-4s1.5-3.7,1.8-6c0.3-2.4,0.4-5,0.4-7.8c0-2.8-0.2-5.4-0.4-7.8c-0.3-2.4-0.9-4.3-1.8-6c-0.9-1.7-2.2-3-3.8-4
		C256.7,237.3,254.5,236.8,251.7,236.8z M191.7,237.5l-9.8,36.9h7.8l1.8-7.8h9.8l1.6,7.8h7.8l-9.7-36.9H191.7z M268.8,237.5v36.9
		h20.5v-6.2h-13.2v-30.8H268.8z M292.9,237.5v36.9h7.5v-36.9H292.9z M305.8,237.5v36.9h6.9v-25.8h0.1l8.9,25.8h8.5v-36.9h-6.7v25.2
		h-0.1l-8.9-25.2H305.8z M335.4,237.5v36.9h21.1v-6.2h-13.6v-9.8h12.5v-6.2h-12.5v-8.6h13.2v-6.2H335.4z M251.7,242.4
		c1.1,0,2,0.2,2.6,0.7c0.7,0.5,1.3,1.2,1.6,2.3c0.4,1.1,0.6,2.5,0.7,4.3c0.1,1.7,0.1,3.8,0.1,6.3c0,2.5,0,4.6-0.1,6.3
		c-0.1,1.7-0.4,3.2-0.7,4.3c-0.4,1.1-0.9,1.8-1.6,2.3c-0.7,0.5-1.5,0.7-2.6,0.7c-1.1,0-2-0.2-2.6-0.7c-0.7-0.5-1.3-1.3-1.6-2.3
		c-0.4-1.1-0.6-2.5-0.7-4.3c-0.1-1.7-0.1-3.8-0.1-6.3s0-4.6,0.1-6.3c0.1-1.7,0.4-3.2,0.7-4.3c0.4-1.1,0.9-1.8,1.6-2.3
		C249.8,242.6,250.6,242.4,251.7,242.4z M196.2,244h0.1l3.5,16.6h-7.2L196.2,244z"/>
</g>
</svg>
