<?xml version="1.0" encoding="utf-8"?>
<!-- Generator: Adobe Illustrator 24.1.2, SVG Export Plug-In . SVG Version: 6.00 Build 0)  -->
<svg version="1.1" id="Layer_1" xmlns="http://www.w3.org/2000/svg" xmlns:xlink="http://www.w3.org/1999/xlink" x="0px" y="0px"
	 width="512px" height="512px" viewBox="0 0 512 512" enable-background="new 0 0 512 512" xml:space="preserve">
<g>
	<circle fill="#FFFFFF" cx="256" cy="256" r="256"/>
</g>
<g>
	<g>
		<path fill="#8DC63F" d="M328.8,271.2c0,2.5-2.7,4.8-7.6,6.9c-13.1,5.7-41.7,9.6-74.8,9.6c-20.4,0-39.1-1.5-53.5-4h0
			c-0.1,0-0.2-0.1-0.4-0.1c43.2-0.4,77.8-10.5,77.8-22.9c0-1.9-0.8-3.7-2.4-5.5C302.9,257.1,328.8,263.6,328.8,271.2z"/>
		<path fill="#B8E86B" d="M270.3,260.8c0,12.4-34.6,22.5-77.8,22.9c0,0,0,0-0.1,0c-8.9-1.5-16.2-3.5-21.1-5.7
			c-4.7-2-7.3-4.4-7.3-6.8c0-6,15.7-11.2,39.3-14.1V248h13.1v7.8c9.3-0.7,19.4-1.1,30-1.1c7.4,0,14.7,0.2,21.5,0.6
			C269.4,257,270.3,258.9,270.3,260.8z"/>
		<path fill="#F9B233" d="M198.9,385.5L198.9,385.5l-0.5-0.1C198.6,385.5,198.8,385.5,198.9,385.5z"/>
		<line fill="none" x1="321.2" y1="378.9" x2="321.2" y2="378.9"/>
		<path fill="#D8B60F" d="M321.2,278.1v24.3c-11.6,6.3-41.8,10.8-77.3,10.8c-16.6,0-32-1-44.9-2.7v74.9c-0.2,0-0.3,0-0.5-0.1
			c-1.9-0.3-3.8-0.6-5.6-0.9h0c-0.1,0-0.2-0.1-0.3-0.1c0,0,0,0-0.1,0c-3.2-0.6-6.2-1.2-8.9-1.8c-4.9-1.2-9.1-2.5-12.2-3.9
			c-4.7-2.1-7.3-4.4-7.3-6.8c0-2.4,2.6-4.7,7.3-6.8V278c4.9,2.2,12.2,4.1,21.1,5.7c0,0,0,0,0.1,0c0.1,0,0.2,0.1,0.4,0.1h0
			c14.4,2.5,33.1,4,53.5,4C279.5,287.7,308.1,283.8,321.2,278.1z"/>
		<path fill="#D8B60F" d="M321.2,378.9v21.4c-13.1,5.6-41.6,9.6-74.7,9.6c-17.7,0-34.1-1.1-47.5-3v72.8c-21.1-3-34.8-7.9-34.8-13.5
			c0-2.4,2.6-4.7,7.2-6.8v-80.6c3.2,1.4,7.3,2.7,12.2,3.9c2.7,0.6,5.7,1.2,8.9,1.8c0,0,0,0,0.1,0c0.1,0,0.2,0.1,0.3,0.1h0
			c1.8,0.3,3.7,0.6,5.6,0.9l0.5,0.1c3.7,0.5,7.7,1,11.8,1.4c1.1,0.1,2.2,0.2,3.3,0.3c4.4,0.4,9,0.7,13.8,0.9
			c1.8,0.1,3.7,0.2,5.6,0.2c4.2,0.1,8.6,0.2,13,0.2c1,0,2.1,0,3.1,0c1,0,2.1,0,3.1,0c2,0,4-0.1,6-0.1c1.7-0.1,3.3-0.1,5-0.2
			c0.3,0,0.6,0,0.9,0c0.9-0.1,1.7-0.1,2.6-0.1c5.1-0.3,10.1-0.6,14.8-1.1c0.7-0.1,1.3-0.1,2-0.2c2.6-0.3,5.1-0.6,7.5-0.9
			c0.8-0.1,1.6-0.2,2.4-0.3c1-0.1,2-0.3,3-0.5c1.2-0.2,2.3-0.4,3.4-0.6c1.8-0.3,3.5-0.6,5.2-1c0.5-0.1,1-0.2,1.4-0.3
			c0.9-0.2,1.8-0.4,2.6-0.6c0.6-0.1,1.2-0.3,1.7-0.4c0.6-0.1,1.1-0.3,1.7-0.5c0.6-0.1,1.1-0.3,1.6-0.5c0.5-0.1,1-0.3,1.5-0.5
			c0.5-0.1,1-0.3,1.4-0.5c0.5-0.2,0.9-0.3,1.4-0.5c0.5-0.1,0.9-0.3,1.3-0.5C320.4,379.3,320.8,379.1,321.2,378.9z"/>
		<path fill="#FFDE17" d="M328.8,372c0,0.2,0,0.5-0.1,0.7c0,0,0,0.1,0,0.1c0,0.1,0,0.1,0,0.2c-0.1,0.2-0.1,0.5-0.3,0.7
			c0,0.1-0.1,0.1-0.1,0.2c-0.1,0.1-0.1,0.2-0.2,0.3c0,0.1-0.1,0.1-0.1,0.2l-0.1,0c0,0,0,0,0,0.1l0,0h0c0,0,0,0,0,0.1
			c-0.2,0.2-0.4,0.5-0.6,0.7c-0.1,0.2-0.3,0.3-0.5,0.4c-0.2,0.2-0.3,0.3-0.5,0.4c-0.2,0.2-0.4,0.3-0.6,0.5c-0.2,0.1-0.4,0.3-0.6,0.4
			c-0.4,0.3-0.9,0.6-1.4,0.8c-0.5,0.3-1.1,0.6-1.6,0.8c-0.3,0.1-0.6,0.3-0.9,0.4c-0.4,0.2-0.8,0.3-1.2,0.5c-0.4,0.2-0.9,0.3-1.3,0.5
			c-0.5,0.2-0.9,0.3-1.4,0.5c-0.5,0.2-0.9,0.3-1.4,0.5c-0.5,0.2-1,0.3-1.5,0.5c-0.5,0.2-1,0.3-1.6,0.5c-0.6,0.2-1.1,0.3-1.7,0.5
			c-0.6,0.2-1.1,0.3-1.7,0.4c-0.9,0.2-1.7,0.4-2.6,0.6c-0.5,0.1-1,0.2-1.4,0.3c-1.6,0.3-3.4,0.7-5.2,1c-1.1,0.2-2.2,0.4-3.4,0.6
			c-1,0.2-2,0.3-3,0.5c-0.8,0.1-1.6,0.2-2.4,0.3c-2.4,0.3-4.9,0.6-7.5,0.9c-0.6,0.1-1.3,0.1-2,0.2c-4.7,0.5-9.7,0.8-14.8,1.1
			c-0.9,0.1-1.7,0.1-2.6,0.1c-0.3,0-0.6,0-0.9,0c-1.6,0.1-3.3,0.1-5,0.2c-2,0.1-4,0.1-6,0.1c-1,0-2,0-3.1,0c-1,0-2,0-3.1,0
			c-4.4,0-8.7-0.1-13-0.2c-1.9-0.1-3.7-0.1-5.6-0.2c-4.8-0.2-9.4-0.5-13.8-0.9c-1.1-0.1-2.2-0.2-3.3-0.3c-4.1-0.4-8.1-0.9-11.8-1.4
			v-74.9c12.9,1.7,28.3,2.7,44.9,2.7c35.5,0,65.7-4.5,77.3-10.8v62.6c0.3,0.1,0.6,0.3,0.9,0.4c1.2,0.6,2.3,1.1,3.1,1.7
			c0.3,0.2,0.5,0.3,0.7,0.5c0.1,0.1,0.2,0.2,0.3,0.3c0.6,0.4,1,0.9,1.4,1.4c0.1,0.1,0.1,0.1,0.2,0.2c0.1,0.1,0.2,0.2,0.2,0.3
			c0.1,0.2,0.3,0.5,0.4,0.7c0.1,0.2,0.1,0.3,0.2,0.5c0,0.1,0.1,0.2,0.1,0.2C328.7,371.5,328.8,371.8,328.8,372z"/>
		<path fill="#FFDE17" d="M328.8,466.2c0,9.1-36.9,16.5-82.4,16.5c-17.7,0-34.1-1.1-47.5-3v-72.8c13.4,1.9,29.8,3,47.5,3
			c33.1,0,61.6-3.9,74.7-9.6v58.9C326.1,461.3,328.8,463.7,328.8,466.2z"/>
		<path fill="#F9B233" d="M322.1,378.5c-0.3,0.2-0.6,0.3-0.9,0.4c-0.4,0.2-0.8,0.3-1.2,0.5c0.4-0.2,0.8-0.3,1.2-0.5
			C321.5,378.8,321.8,378.6,322.1,378.5z"/>
		<path fill="none" stroke="#04311C" stroke-width="5.3171" stroke-miterlimit="10" d="M321,459.3c4.7,2.1,7.3,4.4,7.3,6.8
			c0,9.1-36.6,16.5-81.9,16.5s-81.9-7.4-81.9-16.5c0-2.3,2.4-4.6,6.7-6.6"/>
		<g>
			<path fill="none" stroke="#04311C" stroke-width="5.3171" stroke-miterlimit="10" d="M171.3,364.4c-4.3,2-6.7,4.2-6.7,6.6
				c0,9.1,36.7,16.5,81.9,16.5c13,0,25.3-0.6,36.3-1.7"/>
			<path fill="none" stroke="#04311C" stroke-width="5.3171" stroke-miterlimit="10" d="M321,364.2c4.7,2.1,7.3,4.4,7.3,6.8
				c0,5.5-13.5,10.4-34.3,13.5"/>
		</g>
		
			<line fill="none" stroke="#04311C" stroke-width="5.3171" stroke-linecap="round" stroke-miterlimit="10" x1="321.2" y1="278.1" x2="321" y2="364.2"/>
		
			<line fill="none" stroke="#04311C" stroke-width="5.3171" stroke-linecap="round" stroke-miterlimit="10" x1="172.3" y1="278.1" x2="172.1" y2="364.2"/>
		
			<line fill="none" stroke="#04311C" stroke-width="5.3171" stroke-linecap="round" stroke-miterlimit="10" x1="172.3" y1="278.1" x2="172.1" y2="364.2"/>
		
			<line fill="none" stroke="#04311C" stroke-width="5.3171" stroke-linecap="round" stroke-miterlimit="10" x1="172.3" y1="278.1" x2="172.1" y2="364.2"/>
		
			<line fill="none" stroke="#04311C" stroke-width="5.3171" stroke-linecap="round" stroke-miterlimit="10" x1="172.3" y1="378" x2="172.1" y2="459.3"/>
		
			<line fill="none" stroke="#04311C" stroke-width="5.3171" stroke-linecap="round" stroke-miterlimit="10" x1="321" y1="378" x2="320.9" y2="459.3"/>
		<path fill="none" stroke="#04311C" stroke-width="5.3171" stroke-miterlimit="10" d="M203.3,257.1"/>
		<g>
			
				<path fill="none" stroke="#04311C" stroke-width="5.3171" stroke-linecap="round" stroke-linejoin="bevel" stroke-miterlimit="10" d="
				M202.5,257.5h-0.1c-22.8,3-37.8,8.1-37.8,14c0,9.1,36.6,16.5,81.9,16.5s81.9-7.4,81.9-16.5c0-9.1-36.6-16.5-81.9-16.5
				c-10.6,0-20.6,0.4-29.9,1.1"/>
			
				<polyline fill="none" stroke="#04311C" stroke-width="5.3171" stroke-linecap="round" stroke-linejoin="bevel" stroke-miterlimit="10" points="
				202.5,257.5 202.4,257.5 203.3,248 216.3,248 216.7,256.1 216.6,256.1 			"/>
		</g>
		<line fill="none" stroke="#FFFFFF" stroke-width="6.6464" stroke-miterlimit="10" x1="297.2" y1="304.3" x2="297.2" y2="360.5"/>
		<line fill="none" stroke="#FFFFFF" stroke-width="6.6464" stroke-miterlimit="10" x1="297.2" y1="397.8" x2="297.2" y2="456.6"/>
	</g>
	<g>
		<g>
			<path fill="#001689" d="M241.1,369.5h-27.1v-13.9h4.6v-30.3h-4.6v-13.9h27.9c6.4,0,11.5,0.4,15.6,1.2c4,0.8,7.9,2.4,11.4,4.8
				c3.5,2.5,6.3,5.8,8.4,10c1,2,1.8,4.2,2.3,6.4c0.5,2.3,0.8,4.7,0.8,7.2c0,5-1.1,9.6-3.2,13.8c-2.1,4.1-4.8,7.3-8.1,9.5
				c-3.2,2.2-6.7,3.6-10.5,4.3C254.8,369.2,249,369.5,241.1,369.5z"/>
		</g>
		<g>
			<path fill="#FFFFFF" d="M245.8,358.2h-19.4v-8.5h2.7v-18.5h-2.8v-8.5h19.4v8.5H243v18.5h2.8V358.2z M268,358.2h-18.5v-8.5h1.7
				l-7.8-10.1l9.1-8.4h-2.9v-8.5h17.6v8.5h-2.8l-7.3,6.7l9.1,11.8h1.8V358.2z"/>
		</g>
	</g>
</g>
<g>
	<g>
		<path fill="#8DC63F" d="M204.3,57.8c0,1.4-1.5,2.7-4.3,3.9c-7.3,3.2-23.4,5.4-42.1,5.4c-11.5,0-22-0.8-30.1-2.2h0
			c-0.1,0-0.1,0-0.2,0c24.3-0.2,43.8-5.9,43.8-12.9c0-1.1-0.5-2.1-1.3-3.1C189.8,49.9,204.3,53.5,204.3,57.8z"/>
		<path fill="#B8E86B" d="M171.4,52c0,7-19.5,12.7-43.8,12.9c0,0,0,0,0,0c-5-0.9-9.1-2-11.9-3.2c-2.6-1.2-4.1-2.5-4.1-3.8
			c0-3.3,8.8-6.3,22.1-7.9v-5.1h7.3v4.4c5.2-0.4,10.9-0.6,16.9-0.6c4.2,0,8.3,0.1,12.1,0.3C170.9,49.9,171.4,50.9,171.4,52z"/>
		<path fill="#F9B233" d="M131.3,122.1L131.3,122.1l-0.3,0C131.1,122.1,131.2,122.1,131.3,122.1z"/>
		<line fill="none" x1="200" y1="118.4" x2="200" y2="118.4"/>
		<path d="M200,61.7v13.7c-6.5,3.6-23.5,6.1-43.5,6.1c-9.3,0-18-0.6-25.3-1.5v42.1c-0.1,0-0.2,0-0.3,0c-1.1-0.1-2.1-0.3-3.2-0.5h0
			c-0.1,0-0.1,0-0.2,0c0,0,0,0,0,0c-1.8-0.3-3.5-0.7-5-1c-2.8-0.7-5.1-1.4-6.9-2.2c-2.6-1.2-4.1-2.5-4.1-3.8c0-1.4,1.5-2.7,4.1-3.8
			v-49c2.8,1.2,6.8,2.3,11.9,3.2c0,0,0,0,0,0c0.1,0,0.1,0,0.2,0h0c8.1,1.4,18.6,2.2,30.1,2.2C176.6,67.1,192.7,64.9,200,61.7z"/>
		<path d="M200,118.4v12c-7.4,3.2-23.4,5.4-42,5.4c-10,0-19.2-0.6-26.7-1.7v41c-11.9-1.7-19.6-4.4-19.6-7.6c0-1.4,1.5-2.6,4.1-3.8
			v-45.3c1.8,0.8,4.1,1.5,6.9,2.2c1.5,0.4,3.2,0.7,5,1c0,0,0,0,0,0c0.1,0,0.1,0,0.2,0h0c1,0.2,2.1,0.3,3.2,0.5l0.3,0
			c2.1,0.3,4.3,0.6,6.6,0.8c0.6,0.1,1.2,0.1,1.8,0.2c2.5,0.2,5.1,0.4,7.8,0.5c1,0,2.1,0.1,3.1,0.1c2.4,0.1,4.8,0.1,7.3,0.1
			c0.6,0,1.2,0,1.7,0c0.6,0,1.2,0,1.7,0c1.1,0,2.3,0,3.4-0.1c0.9,0,1.9-0.1,2.8-0.1c0.2,0,0.3,0,0.5,0c0.5,0,1,0,1.4-0.1
			c2.9-0.1,5.7-0.3,8.3-0.6c0.4,0,0.7-0.1,1.1-0.1c1.5-0.1,2.9-0.3,4.2-0.5c0.4-0.1,0.9-0.1,1.3-0.2c0.6-0.1,1.2-0.2,1.7-0.3
			c0.7-0.1,1.3-0.2,1.9-0.3c1-0.2,2-0.3,2.9-0.5c0.3-0.1,0.5-0.1,0.8-0.2c0.5-0.1,1-0.2,1.5-0.3c0.3-0.1,0.7-0.1,1-0.2
			c0.3-0.1,0.6-0.2,0.9-0.3c0.3-0.1,0.6-0.2,0.9-0.3c0.3-0.1,0.6-0.2,0.9-0.3c0.3-0.1,0.5-0.2,0.8-0.3c0.3-0.1,0.5-0.2,0.8-0.3
			c0.3-0.1,0.5-0.2,0.7-0.3C199.6,118.6,199.8,118.5,200,118.4z"/>
		<path fill="#333333" d="M204.3,114.5c0,0.1,0,0.3,0,0.4c0,0,0,0,0,0c0,0,0,0.1,0,0.1c0,0.1-0.1,0.3-0.1,0.4c0,0,0,0.1-0.1,0.1
			c0,0.1-0.1,0.1-0.1,0.2c0,0,0,0.1,0,0.1l0,0c0,0,0,0,0,0l0,0h0c0,0,0,0,0,0c-0.1,0.1-0.2,0.3-0.3,0.4c-0.1,0.1-0.2,0.2-0.3,0.2
			c-0.1,0.1-0.2,0.2-0.3,0.2c-0.1,0.1-0.2,0.2-0.3,0.3c-0.1,0.1-0.2,0.2-0.4,0.2c-0.2,0.1-0.5,0.3-0.8,0.5c-0.3,0.2-0.6,0.3-0.9,0.4
			c-0.2,0.1-0.3,0.1-0.5,0.2c-0.2,0.1-0.4,0.2-0.7,0.3c-0.2,0.1-0.5,0.2-0.7,0.3c-0.3,0.1-0.5,0.2-0.8,0.3c-0.3,0.1-0.5,0.2-0.8,0.3
			c-0.3,0.1-0.6,0.2-0.9,0.3c-0.3,0.1-0.6,0.2-0.9,0.3c-0.3,0.1-0.6,0.2-0.9,0.3c-0.3,0.1-0.6,0.2-1,0.2c-0.5,0.1-1,0.2-1.5,0.3
			c-0.3,0.1-0.5,0.1-0.8,0.2c-0.9,0.2-1.9,0.4-2.9,0.5c-0.6,0.1-1.3,0.2-1.9,0.3c-0.6,0.1-1.1,0.2-1.7,0.3c-0.4,0.1-0.9,0.1-1.3,0.2
			c-1.4,0.2-2.8,0.3-4.2,0.5c-0.4,0-0.7,0.1-1.1,0.1c-2.6,0.3-5.4,0.5-8.3,0.6c-0.5,0-1,0-1.4,0.1c-0.2,0-0.3,0-0.5,0
			c-0.9,0-1.9,0.1-2.8,0.1c-1.1,0-2.3,0.1-3.4,0.1c-0.6,0-1.2,0-1.7,0c-0.6,0-1.2,0-1.7,0c-2.5,0-4.9,0-7.3-0.1
			c-1.1,0-2.1-0.1-3.1-0.1c-2.7-0.1-5.3-0.3-7.8-0.5c-0.6,0-1.2-0.1-1.8-0.2c-2.3-0.2-4.5-0.5-6.6-0.8V80c7.3,1,15.9,1.5,25.3,1.5
			c20,0,37-2.5,43.5-6.1v35.2c0.2,0.1,0.3,0.1,0.5,0.2c0.7,0.3,1.3,0.6,1.8,1c0.1,0.1,0.3,0.2,0.4,0.3c0.1,0,0.1,0.1,0.2,0.1
			c0.3,0.2,0.6,0.5,0.8,0.8c0,0,0.1,0.1,0.1,0.1c0,0.1,0.1,0.1,0.1,0.2c0.1,0.1,0.1,0.3,0.2,0.4c0,0.1,0.1,0.2,0.1,0.3
			c0,0,0,0.1,0,0.1C204.3,114.3,204.3,114.4,204.3,114.5z"/>
		<path fill="#333333" d="M204.4,167.5c0,5.1-20.7,9.3-46.3,9.3c-10,0-19.2-0.6-26.7-1.7v-41c7.6,1.1,16.8,1.7,26.7,1.7
			c18.6,0,34.6-2.2,42-5.4v33.1C202.8,164.8,204.4,166.1,204.4,167.5z"/>
		<path fill="#F9B233" d="M200.6,118.2c-0.2,0.1-0.3,0.2-0.5,0.2c-0.2,0.1-0.4,0.2-0.7,0.3c0.2-0.1,0.4-0.2,0.7-0.3
			C200.2,118.3,200.4,118.3,200.6,118.2z"/>
		<path fill="none" stroke="#04311C" stroke-width="2.9905" stroke-miterlimit="10" d="M200,163.6c2.6,1.2,4.1,2.5,4.1,3.8
			c0,5.1-20.6,9.3-46,9.3s-46.1-4.2-46.1-9.3c0-1.3,1.3-2.6,3.8-3.7"/>
		<g>
			<path fill="none" stroke="#04311C" stroke-width="2.9905" stroke-miterlimit="10" d="M115.8,110.3c-2.4,1.1-3.8,2.4-3.8,3.7
				c0,5.1,20.6,9.3,46.1,9.3c7.3,0,14.2-0.3,20.4-1"/>
			<path fill="none" stroke="#04311C" stroke-width="2.9905" stroke-miterlimit="10" d="M200,110.1c2.6,1.2,4.1,2.5,4.1,3.8
				c0,3.1-7.6,5.9-19.3,7.6"/>
		</g>
		
			<line fill="none" stroke="#04311C" stroke-width="2.9905" stroke-linecap="round" stroke-miterlimit="10" x1="200" y1="61.7" x2="200" y2="110.1"/>
		
			<line fill="none" stroke="#04311C" stroke-width="2.9905" stroke-linecap="round" stroke-miterlimit="10" x1="116.3" y1="61.7" x2="116.2" y2="110.1"/>
		
			<line fill="none" stroke="#04311C" stroke-width="2.9905" stroke-linecap="round" stroke-miterlimit="10" x1="116.3" y1="61.7" x2="116.2" y2="110.1"/>
		
			<line fill="none" stroke="#04311C" stroke-width="2.9905" stroke-linecap="round" stroke-miterlimit="10" x1="116.3" y1="61.7" x2="116.2" y2="110.1"/>
		
			<line fill="none" stroke="#04311C" stroke-width="2.9905" stroke-linecap="round" stroke-miterlimit="10" x1="116.3" y1="117.9" x2="116.2" y2="163.6"/>
		
			<line fill="none" stroke="#04311C" stroke-width="2.9905" stroke-linecap="round" stroke-miterlimit="10" x1="200" y1="117.9" x2="199.9" y2="163.6"/>
		<path fill="none" stroke="#04311C" stroke-width="2.9905" stroke-miterlimit="10" d="M133.7,49.9"/>
		<g>
			
				<path fill="none" stroke="#04311C" stroke-width="2.9905" stroke-linecap="round" stroke-linejoin="bevel" stroke-miterlimit="10" d="
				M133.3,50.1L133.3,50.1C120.5,51.8,112,54.7,112,58c0,5.1,20.6,9.3,46,9.3s46-4.2,46-9.3s-20.6-9.3-46-9.3
				c-5.9,0-11.6,0.2-16.8,0.6"/>
			
				<polyline fill="none" stroke="#04311C" stroke-width="2.9905" stroke-linecap="round" stroke-linejoin="bevel" stroke-miterlimit="10" points="
				133.3,50.1 133.3,50.1 133.7,44.8 141.1,44.8 141.3,49.3 141.2,49.3 			"/>
		</g>
		<line fill="none" stroke="#FFFFFF" stroke-width="3.7381" stroke-miterlimit="10" x1="186.6" y1="76.5" x2="186.6" y2="108"/>
		<line fill="none" stroke="#FFFFFF" stroke-width="3.7381" stroke-miterlimit="10" x1="186.6" y1="129" x2="186.6" y2="162.1"/>
	</g>
	<g>
		<g>
			<path fill="#001689" d="M155,113.1h-15.2v-7.8h2.6V88.2h-2.6v-7.8h15.7c3.6,0,6.5,0.2,8.8,0.7c2.3,0.4,4.4,1.3,6.4,2.7
				c2,1.4,3.6,3.2,4.7,5.6c0.6,1.1,1,2.3,1.3,3.6c0.3,1.3,0.4,2.6,0.4,4c0,2.8-0.6,5.4-1.8,7.8c-1.2,2.3-2.7,4.1-4.5,5.3
				c-1.8,1.2-3.7,2-5.9,2.4C162.7,112.9,159.5,113.1,155,113.1z"/>
		</g>
		<g>
			<path fill="#FFFFFF" d="M157.7,106.7h-10.9V102h1.5V91.6h-1.6v-4.8h10.9v4.8h-1.6V102h1.6V106.7z M170.2,106.7h-10.4V102h1
				l-4.4-5.7l5.1-4.7h-1.6v-4.8h9.9v4.8h-1.6l-4.1,3.8l5.1,6.6h1V106.7z"/>
		</g>
	</g>
</g>
<g>
	<g>
		<path fill="#8DC63F" d="M391,60.1c0,1.4-1.5,2.7-4.3,3.9c-7.3,3.2-23.4,5.4-42.1,5.4c-11.5,0-22-0.8-30.1-2.2h0
			c-0.1,0-0.1,0-0.2,0c24.3-0.2,43.8-5.9,43.8-12.9c0-1.1-0.5-2.1-1.3-3.1C376.4,52.1,391,55.8,391,60.1z"/>
		<path fill="#B8E86B" d="M358.1,54.2c0,7-19.5,12.7-43.8,12.9c0,0,0,0,0,0c-5-0.9-9.1-2-11.9-3.2c-2.6-1.2-4.1-2.5-4.1-3.8
			c0-3.3,8.8-6.3,22.1-7.9V47h7.3v4.4c5.2-0.4,10.9-0.6,16.9-0.6c4.2,0,8.3,0.1,12.1,0.3C357.6,52.1,358.1,53.1,358.1,54.2z"/>
		<path fill="#F9B233" d="M317.9,124.3L317.9,124.3l-0.3,0C317.8,124.3,317.9,124.3,317.9,124.3z"/>
		<line fill="none" x1="386.7" y1="120.6" x2="386.7" y2="120.6"/>
		<path fill="#2E3192" d="M386.7,64v13.7c-6.5,3.6-23.5,6.1-43.5,6.1c-9.3,0-18-0.6-25.3-1.5v42.1c-0.1,0-0.2,0-0.3,0
			c-1.1-0.1-2.1-0.3-3.2-0.5h0c-0.1,0-0.1,0-0.2,0c0,0,0,0,0,0c-1.8-0.3-3.5-0.7-5-1c-2.8-0.7-5.1-1.4-6.9-2.2
			c-2.6-1.2-4.1-2.5-4.1-3.8c0-1.4,1.5-2.7,4.1-3.8v-49c2.8,1.2,6.8,2.3,11.9,3.2c0,0,0,0,0,0c0.1,0,0.1,0,0.2,0h0
			c8.1,1.4,18.6,2.2,30.1,2.2C363.3,69.4,379.4,67.1,386.7,64z"/>
		<path fill="#2E3192" d="M386.7,120.6v12c-7.4,3.2-23.4,5.4-42,5.4c-10,0-19.2-0.6-26.7-1.7v41c-11.9-1.7-19.6-4.4-19.6-7.6
			c0-1.4,1.5-2.6,4.1-3.8v-45.3c1.8,0.8,4.1,1.5,6.9,2.2c1.5,0.4,3.2,0.7,5,1c0,0,0,0,0,0c0.1,0,0.1,0,0.2,0h0
			c1,0.2,2.1,0.3,3.2,0.5l0.3,0c2.1,0.3,4.3,0.6,6.6,0.8c0.6,0.1,1.2,0.1,1.8,0.2c2.5,0.2,5.1,0.4,7.8,0.5c1,0,2.1,0.1,3.1,0.1
			c2.4,0.1,4.8,0.1,7.3,0.1c0.6,0,1.2,0,1.7,0c0.6,0,1.2,0,1.7,0c1.1,0,2.3,0,3.4-0.1c0.9,0,1.9-0.1,2.8-0.1c0.2,0,0.3,0,0.5,0
			c0.5,0,1,0,1.4-0.1c2.9-0.1,5.7-0.3,8.3-0.6c0.4,0,0.7-0.1,1.1-0.1c1.5-0.1,2.9-0.3,4.2-0.5c0.4-0.1,0.9-0.1,1.3-0.2
			c0.6-0.1,1.2-0.2,1.7-0.3c0.7-0.1,1.3-0.2,1.9-0.3c1-0.2,2-0.3,2.9-0.5c0.3-0.1,0.5-0.1,0.8-0.2c0.5-0.1,1-0.2,1.5-0.3
			c0.3-0.1,0.7-0.1,1-0.2c0.3-0.1,0.6-0.2,0.9-0.3c0.3-0.1,0.6-0.2,0.9-0.3c0.3-0.1,0.6-0.2,0.9-0.3c0.3-0.1,0.5-0.2,0.8-0.3
			c0.3-0.1,0.5-0.2,0.8-0.3c0.3-0.1,0.5-0.2,0.7-0.3C386.3,120.8,386.5,120.7,386.7,120.6z"/>
		<path fill="#0071BC" d="M391,116.7c0,0.1,0,0.3,0,0.4c0,0,0,0,0,0c0,0,0,0.1,0,0.1c0,0.1-0.1,0.3-0.1,0.4c0,0,0,0.1-0.1,0.1
			c0,0.1-0.1,0.1-0.1,0.2c0,0,0,0.1,0,0.1l0,0c0,0,0,0,0,0l0,0h0c0,0,0,0,0,0c-0.1,0.1-0.2,0.3-0.3,0.4c-0.1,0.1-0.2,0.2-0.3,0.2
			c-0.1,0.1-0.2,0.2-0.3,0.2c-0.1,0.1-0.2,0.2-0.3,0.3c-0.1,0.1-0.2,0.2-0.4,0.2c-0.2,0.1-0.5,0.3-0.8,0.5c-0.3,0.2-0.6,0.3-0.9,0.4
			c-0.2,0.1-0.3,0.1-0.5,0.2c-0.2,0.1-0.4,0.2-0.7,0.3c-0.2,0.1-0.5,0.2-0.7,0.3c-0.3,0.1-0.5,0.2-0.8,0.3c-0.3,0.1-0.5,0.2-0.8,0.3
			c-0.3,0.1-0.6,0.2-0.9,0.3c-0.3,0.1-0.6,0.2-0.9,0.3c-0.3,0.1-0.6,0.2-0.9,0.3c-0.3,0.1-0.6,0.2-1,0.2c-0.5,0.1-1,0.2-1.5,0.3
			c-0.3,0.1-0.5,0.1-0.8,0.2c-0.9,0.2-1.9,0.4-2.9,0.5c-0.6,0.1-1.3,0.2-1.9,0.3c-0.6,0.1-1.1,0.2-1.7,0.3c-0.4,0.1-0.9,0.1-1.3,0.2
			c-1.4,0.2-2.8,0.3-4.2,0.5c-0.4,0-0.7,0.1-1.1,0.1c-2.6,0.3-5.4,0.5-8.3,0.6c-0.5,0-1,0-1.4,0.1c-0.2,0-0.3,0-0.5,0
			c-0.9,0-1.9,0.1-2.8,0.1c-1.1,0-2.3,0.1-3.4,0.1c-0.6,0-1.2,0-1.7,0c-0.6,0-1.2,0-1.7,0c-2.5,0-4.9,0-7.3-0.1
			c-1.1,0-2.1-0.1-3.1-0.1c-2.7-0.1-5.3-0.3-7.8-0.5c-0.6,0-1.2-0.1-1.8-0.2c-2.3-0.2-4.5-0.5-6.6-0.8V82.2c7.3,1,15.9,1.5,25.3,1.5
			c20,0,37-2.5,43.5-6.1v35.2c0.2,0.1,0.3,0.1,0.5,0.2c0.7,0.3,1.3,0.6,1.8,1c0.1,0.1,0.3,0.2,0.4,0.3c0.1,0,0.1,0.1,0.2,0.1
			c0.3,0.2,0.6,0.5,0.8,0.8c0,0,0.1,0.1,0.1,0.1c0,0.1,0.1,0.1,0.1,0.2c0.1,0.1,0.1,0.3,0.2,0.4c0,0.1,0.1,0.2,0.1,0.3
			c0,0,0,0.1,0,0.1C390.9,116.5,391,116.6,391,116.7z"/>
		<path fill="#0071BC" d="M391,169.7c0,5.1-20.7,9.3-46.3,9.3c-10,0-19.2-0.6-26.7-1.7v-41c7.6,1.1,16.8,1.7,26.7,1.7
			c18.6,0,34.6-2.2,42-5.4v33.1C389.5,167,391,168.3,391,169.7z"/>
		<path fill="#F9B233" d="M387.2,120.4c-0.2,0.1-0.3,0.2-0.5,0.2c-0.2,0.1-0.4,0.2-0.7,0.3c0.2-0.1,0.4-0.2,0.7-0.3
			C386.9,120.6,387,120.5,387.2,120.4z"/>
		<path fill="none" stroke="#04311C" stroke-width="2.9905" stroke-miterlimit="10" d="M386.6,165.9c2.6,1.2,4.1,2.5,4.1,3.8
			c0,5.1-20.6,9.3-46,9.3s-46.1-4.2-46.1-9.3c0-1.3,1.3-2.6,3.8-3.7"/>
		<g>
			<path fill="none" stroke="#04311C" stroke-width="2.9905" stroke-miterlimit="10" d="M302.4,112.5c-2.4,1.1-3.8,2.4-3.8,3.7
				c0,5.1,20.6,9.3,46.1,9.3c7.3,0,14.2-0.3,20.4-1"/>
			<path fill="none" stroke="#04311C" stroke-width="2.9905" stroke-miterlimit="10" d="M386.6,112.3c2.6,1.2,4.1,2.5,4.1,3.8
				c0,3.1-7.6,5.9-19.3,7.6"/>
		</g>
		
			<line fill="none" stroke="#04311C" stroke-width="2.9905" stroke-linecap="round" stroke-miterlimit="10" x1="386.7" y1="64" x2="386.6" y2="112.3"/>
		
			<line fill="none" stroke="#04311C" stroke-width="2.9905" stroke-linecap="round" stroke-miterlimit="10" x1="303" y1="64" x2="302.9" y2="112.3"/>
		
			<line fill="none" stroke="#04311C" stroke-width="2.9905" stroke-linecap="round" stroke-miterlimit="10" x1="303" y1="64" x2="302.9" y2="112.3"/>
		
			<line fill="none" stroke="#04311C" stroke-width="2.9905" stroke-linecap="round" stroke-miterlimit="10" x1="303" y1="64" x2="302.9" y2="112.3"/>
		
			<line fill="none" stroke="#04311C" stroke-width="2.9905" stroke-linecap="round" stroke-miterlimit="10" x1="303" y1="120.1" x2="302.9" y2="165.9"/>
		
			<line fill="none" stroke="#04311C" stroke-width="2.9905" stroke-linecap="round" stroke-miterlimit="10" x1="386.6" y1="120.1" x2="386.5" y2="165.9"/>
		<path fill="none" stroke="#04311C" stroke-width="2.9905" stroke-miterlimit="10" d="M320.4,52.1"/>
		<g>
			
				<path fill="none" stroke="#04311C" stroke-width="2.9905" stroke-linecap="round" stroke-linejoin="bevel" stroke-miterlimit="10" d="
				M320,52.4L320,52.4c-12.9,1.7-21.3,4.5-21.3,7.9c0,5.1,20.6,9.3,46,9.3s46-4.2,46-9.3s-20.6-9.3-46-9.3c-5.9,0-11.6,0.2-16.8,0.6
				"/>
			
				<polyline fill="none" stroke="#04311C" stroke-width="2.9905" stroke-linecap="round" stroke-linejoin="bevel" stroke-miterlimit="10" points="
				320,52.4 319.9,52.4 320.4,47 327.7,47 328,51.5 327.9,51.6 			"/>
		</g>
		<line fill="none" stroke="#FFFFFF" stroke-width="3.7381" stroke-miterlimit="10" x1="373.2" y1="78.7" x2="373.2" y2="110.3"/>
		<line fill="none" stroke="#FFFFFF" stroke-width="3.7381" stroke-miterlimit="10" x1="373.2" y1="131.3" x2="373.2" y2="164.3"/>
	</g>
	<g>
		<g>
			<path fill="#001689" d="M341.7,115.3h-15.2v-7.8h2.6V90.5h-2.6v-7.8h15.7c3.6,0,6.5,0.2,8.8,0.7c2.3,0.4,4.4,1.3,6.4,2.7
				c2,1.4,3.6,3.2,4.7,5.6c0.6,1.1,1,2.3,1.3,3.6c0.3,1.3,0.4,2.6,0.4,4c0,2.8-0.6,5.4-1.8,7.8c-1.2,2.3-2.7,4.1-4.5,5.3
				c-1.8,1.2-3.7,2-5.9,2.4C349.4,115.2,346.1,115.3,341.7,115.3z"/>
		</g>
		<g>
			<path fill="#FFFFFF" d="M344.3,109h-10.9v-4.8h1.5V93.8h-1.6V89h10.9v4.8h-1.6v10.4h1.6V109z M356.8,109h-10.4v-4.8h1l-4.4-5.7
				l5.1-4.7h-1.6V89h9.9v4.8h-1.6l-4.1,3.8l5.1,6.6h1V109z"/>
		</g>
	</g>
</g>
<path fill="#507C5C" d="M281.9,104.9h-20.2V84.8c0-1.2-1-2.1-2.1-2.1h-16.8c-1.2,0-2.1,1-2.1,2.1v20.2h-20.2c-1.2,0-2.1,1-2.1,2.1
	l0,0v16.8l0,0c0,0.1,0,0.1,0,0.2c0,0.1,0,0.1,0,0.2c0,0,0,0,0,0.1c0,0.1,0,0.1,0,0.2c0,0,0,0,0,0c0,0.1,0,0.1,0.1,0.2c0,0,0,0,0,0
	c0,0.1,0,0.1,0.1,0.2c0,0,0,0,0,0c0,0,0.1,0.1,0.1,0.1c0,0,0,0,0,0c0,0,0.1,0.1,0.1,0.1c0,0,0,0,0,0.1c0,0,0.1,0.1,0.1,0.1
	c0,0,0,0,0.1,0.1c0,0,0,0,0.1,0.1c0,0,0.1,0.1,0.1,0.1c0,0,0,0,0.1,0c0,0,0.1,0.1,0.1,0.1c0,0,0,0,0.1,0c0,0,0.1,0.1,0.1,0.1
	c0,0,0,0,0,0c0,0,0.1,0,0.1,0.1c0,0,0,0,0,0c0.1,0,0.1,0,0.2,0.1c0,0,0,0,0,0c0.1,0,0.1,0,0.2,0c0,0,0.1,0,0.1,0c0,0,0.1,0,0.1,0
	c0.1,0,0.1,0,0.2,0h20.2v20.2c0,1.2,1,2.1,2.1,2.1h16.8c1.2,0,2.1-1,2.1-2.1v-22.3c0-0.1,0-0.1,0-0.2c0-0.1,0-0.1,0-0.2
	c0,0,0,0,0-0.1c0-0.1,0-0.1,0-0.2c0,0,0,0,0,0c0-0.1,0-0.1-0.1-0.2c0,0,0,0,0,0c0-0.1,0-0.1-0.1-0.2c0,0,0,0,0,0
	c0,0-0.1-0.1-0.1-0.1c0,0,0,0,0,0c0,0-0.1-0.1-0.1-0.1c0,0,0,0,0-0.1c0,0-0.1-0.1-0.1-0.1c0,0,0,0,0,0l-16.2-16.2V86.9h12.6v20.2
	c0,1.2,1,2.1,2.1,2.1h20.2v12.6h-8.3c-1.2,0-2.1,1-2.1,2.1s1,2.1,2.1,2.1h10.4c1.2,0,2.1-1,2.1-2.1v-16.8
	C284,105.9,283,104.9,281.9,104.9z M257.4,144.1h-12.6v-20.2c0-0.1,0-0.1,0-0.2c0-0.1,0-0.1,0-0.2c0,0,0,0,0-0.1c0-0.1,0-0.1,0-0.2
	c0,0,0,0,0,0c0-0.1,0-0.1-0.1-0.2c0,0,0,0,0,0c0-0.1,0-0.1-0.1-0.2c0,0,0,0,0,0c0,0-0.1-0.1-0.1-0.1c0,0,0,0,0,0
	c0,0-0.1-0.1-0.1-0.1c0,0,0,0,0-0.1c0,0-0.1-0.1-0.1-0.1c0,0,0,0,0,0c0,0,0,0,0,0c0,0-0.1-0.1-0.1-0.1c0,0,0,0,0,0
	c0,0-0.1-0.1-0.1-0.1c0,0,0,0,0,0c0,0-0.1-0.1-0.1-0.1c0,0,0,0,0,0c-0.1,0-0.1-0.1-0.2-0.1c0,0,0,0,0,0c-0.1,0-0.1,0-0.2-0.1
	c0,0,0,0,0,0c-0.1,0-0.1,0-0.2,0c0,0,0,0-0.1,0c-0.1,0-0.1,0-0.2,0c-0.1,0-0.1,0-0.2,0h-20.2v-12.6h19.3l15.6,15.6L257.4,144.1
	L257.4,144.1L257.4,144.1z"/>
<g>
	
		<image overflow="visible" opacity="0.13" width="70" height="116" xlink:href="6C5490A4.png"  transform="matrix(1 0 0 1 221.8999 164.8999)">
	</image>
	<g>
		<path fill-rule="evenodd" clip-rule="evenodd" fill="#208F2B" d="M265.3,203.5v31.1h8.7l-22.7,27.8l-22.7-27.8h8.7v-31.1H265.3
			L265.3,203.5z M265.3,184.8v12.4h-28.1v-12.4H265.3L265.3,184.8z M265.3,172.4v6.2h-28.1v-6.2H265.3z"/>
		
			<path fill="none" stroke="#F2F2F2" stroke-width="1.48" stroke-linecap="round" stroke-linejoin="round" stroke-miterlimit="10" d="
			M265.3,203.5v31.1h8.7l-22.7,27.8l-22.7-27.8h8.7v-31.1H265.3L265.3,203.5z M265.3,184.8v12.4h-28.1v-12.4H265.3L265.3,184.8z
			 M265.3,172.4v6.2h-28.1v-6.2H265.3z"/>
	</g>
</g>
</svg>
