<?xml version="1.0" encoding="utf-8"?>
<!-- Generator: Adobe Illustrator 24.1.2, SVG Export Plug-In . SVG Version: 6.00 Build 0)  -->
<svg version="1.1" id="Layer_1" xmlns="http://www.w3.org/2000/svg" xmlns:xlink="http://www.w3.org/1999/xlink" x="0px" y="0px"
	 width="512px" height="512px" viewBox="0 0 512 512" enable-background="new 0 0 512 512" xml:space="preserve">
<g>
	<circle fill="#FFFFFF" cx="256" cy="256" r="256"/>
</g>
<g>
	
		<image overflow="visible" opacity="0.75" width="396" height="304" xlink:href="DD80BEB6.png"  transform="matrix(1 0 0 1 65 111)">
	</image>
	<g>
		<g>
			<g>
				<rect x="73.5" y="119.1" fill="#F7941E" width="365.1" height="273.8"/>
				<path d="M424.9,132.8v246.4H87.1V132.8H424.9 M438.5,119.1H73.5v273.8h365.1V119.1L438.5,119.1z"/>
			</g>
			<g>
				<rect x="73.5" y="249.2" width="365.1" height="13.7"/>
			</g>
			<g>
				<path d="M156.8,206.4c0,3.6,0.6,6.6,1.7,8.9c2.1,4.3,6,6.5,11.7,6.5c3.5,0,6.5-1.2,9.1-3.6c2.6-2.4,3.9-5.8,3.9-10.3
					c0-5.9-2.4-9.8-7.2-11.8c-2.7-1.1-7-1.7-12.8-1.7v-12.6c5.7-0.1,9.7-0.6,12-1.7c3.9-1.7,5.9-5.2,5.9-10.5c0-3.4-1-6.2-3-8.4
					c-2-2.1-4.8-3.2-8.4-3.2c-4.2,0-7.2,1.3-9.2,4c-2,2.6-2.9,6.2-2.8,10.6h-16.5c0.2-4.5,0.9-8.7,2.3-12.7c1.4-3.5,3.7-6.8,6.8-9.7
					c2.3-2.1,5.1-3.7,8.2-4.8s7.1-1.7,11.7-1.7c8.6,0,15.5,2.2,20.8,6.7c5.3,4.4,7.9,10.4,7.9,17.9c0,5.3-1.6,9.7-4.7,13.4
					c-2,2.3-4,3.8-6.2,4.6c1.6,0,3.9,1.4,6.9,4.2c4.5,4.2,6.8,9.9,6.8,17.1c0,7.6-2.6,14.3-7.9,20c-5.3,5.8-13,8.6-23.4,8.6
					c-12.7,0-21.5-4.2-26.5-12.5c-2.6-4.4-4-10.2-4.3-17.3L156.8,206.4L156.8,206.4z"/>
				<path d="M268.4,142.6H290l-30.5,57.1v34.2h-19.1v-34.2l-31.6-57.1h22.5l19,39.8L268.4,142.6z"/>
				<path d="M368.5,158.8h-48.3v19.4h44.4V194h-44.4v23.5h50.5v16.4h-69.2v-91.3h67L368.5,158.8L368.5,158.8z"/>
			</g>
			<g>
				<path d="M123.7,302.1v-12c5.6-0.2,9.5-0.6,11.7-1.1c3.5-0.8,6.4-2.4,8.7-4.7c1.5-1.6,2.7-3.8,3.5-6.4c0.5-1.6,0.7-2.8,0.7-3.6
					h14.7V364h-18.1v-61.9H123.7z"/>
				<path d="M193.6,346.4c2.5-6,8.5-12.3,17.8-19c8.1-5.8,13.4-10,15.8-12.5c3.7-3.9,5.5-8.2,5.5-12.9c0-3.8-1.1-7-3.2-9.5
					c-2.1-2.5-5.1-3.8-9-3.8c-5.4,0-9,2-11,6c-1.1,2.3-1.8,6-2,11h-17.2c0.3-7.6,1.7-13.8,4.2-18.5c4.7-9,13.1-13.4,25.1-13.4
					c9.5,0,17.1,2.6,22.7,7.9c5.6,5.3,8.4,12.2,8.4,20.9c0,6.6-2,12.6-6,17.7c-2.6,3.4-6.9,7.2-12.8,11.5l-7.1,5
					c-4.4,3.1-7.5,5.4-9.1,6.8c-1.6,1.4-3,3-4.1,4.9h39.2V364h-61.5C189.6,357.6,191,351.7,193.6,346.4z"/>
				<path d="M315,285.6c4.6,8.1,6.9,19.5,6.9,34.3c0,14.8-2.3,26.2-6.9,34.3c-4.6,8-12.6,12-24.1,12c-11.4,0-19.5-4-24.1-12
					c-4.6-8-6.9-19.4-6.9-34.3c0-14.8,2.3-26.3,6.9-34.3c4.6-8.1,12.6-12.1,24.1-12.1C302.4,273.6,310.4,277.6,315,285.6z
					 M280.5,343.7c1.7,5.5,5.2,8.2,10.4,8.2c5.2,0,8.7-2.7,10.3-8.2c1.6-5.5,2.4-13.4,2.4-23.7c0-10.8-0.8-18.8-2.4-24
					c-1.6-5.2-5.1-7.8-10.3-7.8c-5.2,0-8.7,2.6-10.4,7.8c-1.7,5.2-2.5,13.2-2.5,24C278,330.3,278.8,338.2,280.5,343.7z"/>
				<path d="M347.2,336.4c0,3.6,0.6,6.6,1.7,8.9c2.1,4.3,6,6.5,11.7,6.5c3.5,0,6.5-1.2,9.1-3.6c2.6-2.4,3.9-5.8,3.9-10.3
					c0-5.9-2.4-9.8-7.2-11.8c-2.7-1.1-7-1.7-12.8-1.7v-12.6c5.7-0.1,9.7-0.6,12-1.7c3.9-1.7,5.9-5.2,5.9-10.5c0-3.4-1-6.2-3-8.4
					c-2-2.1-4.8-3.2-8.4-3.2c-4.2,0-7.2,1.3-9.2,4c-2,2.6-2.9,6.2-2.8,10.6h-16.5c0.2-4.5,0.9-8.7,2.3-12.7c1.4-3.5,3.7-6.8,6.8-9.7
					c2.3-2.1,5.1-3.7,8.2-4.8c3.2-1.1,7.1-1.7,11.7-1.7c8.6,0,15.5,2.2,20.8,6.7c5.3,4.4,7.9,10.4,7.9,17.9c0,5.3-1.6,9.7-4.7,13.4
					c-2,2.3-4,3.8-6.2,4.6c1.6,0,3.9,1.4,6.9,4.2c4.5,4.2,6.8,9.9,6.8,17.1c0,7.6-2.6,14.3-7.9,20c-5.3,5.8-13,8.6-23.4,8.6
					c-12.7,0-21.5-4.2-26.5-12.5c-2.6-4.4-4-10.2-4.3-17.3L347.2,336.4L347.2,336.4z"/>
			</g>
		</g>
	</g>
</g>
</svg>
