<?xml version="1.0" encoding="utf-8"?>
<!-- Generator: Adobe Illustrator 24.1.2, SVG Export Plug-In . SVG Version: 6.00 Build 0)  -->
<svg version="1.1" id="Layer_1" xmlns="http://www.w3.org/2000/svg" xmlns:xlink="http://www.w3.org/1999/xlink" x="0px" y="0px"
	 width="512px" height="512px" viewBox="0 0 512 512" enable-background="new 0 0 512 512" xml:space="preserve">
<g>
	<circle fill="#FFFFFF" cx="256" cy="256" r="256"/>
</g>
<g>
	<path fill="#72A3FC" d="M414.1,435.5l-65.4-65.4c-5-5-12.9-5.8-18.9-1.9c-79.7,52.8-188.6,7.8-207.6-86c-1.4-7-7.6-12-14.7-12H15
		c-4.3,0-8.4,1.8-11.2,5.1s-4.2,7.5-3.6,11.8c24.7,198.7,257.1,292,412.6,170.9c3.4-2.6,5.5-6.6,5.8-10.9
		C418.7,442.7,417.2,438.5,414.1,435.5z"/>
	<path fill="#FD6B82" d="M234.9,3.8c-3.2-2.8-7.5-4.2-11.8-3.6c-115.6,14.3-208.5,106.1-223,223c-0.5,4.3,0.8,8.6,3.6,11.8
		c2.8,3.2,6.9,5.1,11.2,5.1h92.5c7.1,0,13.3-5,14.7-12c10.8-53.1,52.6-95,105.7-105.7c7-1.4,12-7.6,12-14.7V15
		C239.9,10.7,238.1,6.6,234.9,3.8z"/>
	<path fill="#2892FC" d="M414.1,435.5l-65.4-65.4c-5-5-12.9-5.8-18.9-1.9c-23.1,15.3-48.7,22.4-73.8,22.5V512
		c54,0.1,109-16.9,156.7-54.1c3.4-2.6,5.5-6.6,5.8-10.9C418.7,442.7,417.2,438.5,414.1,435.5z"/>
	<path fill="#FCB12B" d="M287,0.1c-4.3-0.5-8.6,0.8-11.8,3.6c-3.2,2.8-5.1,6.9-5.1,11.2v92.5c0,7.1,5,13.3,12,14.7
		c93.8,19,138.8,127.9,86,207.6c-3.9,5.9-3.1,13.8,1.9,18.9l65.4,65.4c2.8,2.8,6.6,4.4,10.6,4.4c0.3,0,0.6,0,0.9,0
		c4.3-0.3,8.3-2.4,10.9-5.8C579,257.2,485.7,24.8,287,0.1z"/>
</g>
<g>
	<g>
		<path fill="#8DC63F" d="M227.6,277.1c0,2.1-2.3,4.1-6.4,5.8c-11,4.8-35.1,8.1-63,8.1c-17.2,0-32.9-1.3-45.1-3.3h0
			c-0.1,0-0.2,0-0.3-0.1c36.4-0.3,65.5-8.8,65.5-19.3c0-1.6-0.7-3.2-2-4.7C205.8,265.2,227.6,270.6,227.6,277.1z"/>
		<path fill="#B8E86B" d="M178.3,268.3c0,10.5-29.2,19-65.5,19.3c0,0,0,0,0,0c-7.5-1.3-13.6-2.9-17.8-4.8c-4-1.7-6.2-3.7-6.2-5.7
			c0-5,13.2-9.4,33.1-11.9v-7.7h11v6.6c7.8-0.6,16.4-1,25.3-1c6.3,0,12.4,0.2,18.1,0.5C177.6,265.1,178.3,266.7,178.3,268.3z"/>
		<path fill="#F9B233" d="M118.2,373.3L118.2,373.3l-0.4,0C118,373.3,118.1,373.3,118.2,373.3z"/>
		<line fill="none" x1="221.2" y1="367.8" x2="221.2" y2="367.8"/>
		<path fill="#D8B60F" d="M221.2,282.9v20.5c-9.8,5.3-35.2,9.1-65.1,9.1c-14,0-26.9-0.8-37.8-2.3v63.1c-0.1,0-0.3,0-0.4,0
			c-1.6-0.2-3.2-0.5-4.7-0.7h0c-0.1,0-0.2,0-0.3-0.1c0,0,0,0,0,0c-2.7-0.5-5.2-1-7.5-1.5c-4.1-1-7.6-2.1-10.3-3.3
			c-4-1.7-6.2-3.7-6.2-5.7c0-2,2.2-4,6.2-5.7v-73.4c4.1,1.9,10.3,3.5,17.8,4.8c0,0,0,0,0,0c0.1,0,0.2,0,0.3,0.1h0
			c12.1,2.1,27.9,3.3,45.1,3.3C186.1,291,210.2,287.7,221.2,282.9z"/>
		<path fill="#D8B60F" d="M221.2,367.8v18c-11,4.7-35.1,8.1-62.9,8.1c-14.9,0-28.7-0.9-40-2.6v61.3c-17.8-2.5-29.3-6.7-29.3-11.4
			c0-2,2.2-4,6.1-5.7v-67.9c2.7,1.2,6.2,2.3,10.3,3.3c2.3,0.5,4.8,1.1,7.5,1.5c0,0,0,0,0,0c0.1,0,0.2,0,0.3,0.1h0
			c1.5,0.3,3.1,0.5,4.7,0.7l0.4,0.1c3.1,0.4,6.4,0.8,9.9,1.2c0.9,0.1,1.8,0.2,2.8,0.2c3.7,0.3,7.6,0.6,11.6,0.8
			c1.5,0.1,3.1,0.1,4.7,0.2c3.6,0.1,7.2,0.2,10.9,0.2c0.9,0,1.7,0,2.6,0c0.9,0,1.7,0,2.6,0c1.7,0,3.4-0.1,5.1-0.1
			c1.4,0,2.8-0.1,4.2-0.2c0.3,0,0.5,0,0.8,0c0.7,0,1.4-0.1,2.1-0.1c4.3-0.2,8.5-0.5,12.5-0.9c0.6,0,1.1-0.1,1.7-0.2
			c2.2-0.2,4.3-0.5,6.3-0.7c0.7-0.1,1.3-0.2,2-0.3c0.9-0.1,1.7-0.2,2.6-0.4c1-0.2,1.9-0.3,2.9-0.5c1.5-0.2,3-0.5,4.3-0.8
			c0.4-0.1,0.8-0.2,1.2-0.3c0.8-0.2,1.5-0.3,2.2-0.5c0.5-0.1,1-0.2,1.5-0.4c0.5-0.1,0.9-0.2,1.4-0.4c0.5-0.1,0.9-0.2,1.3-0.4
			c0.4-0.1,0.9-0.2,1.3-0.4c0.4-0.1,0.8-0.2,1.2-0.4c0.4-0.1,0.8-0.3,1.2-0.4c0.4-0.1,0.7-0.2,1.1-0.4
			C220.5,368.1,220.9,367.9,221.2,367.8z"/>
		<path fill="#FFDE17" d="M227.6,362c0,0.2,0,0.4-0.1,0.6c0,0,0,0,0,0.1c0,0,0,0.1,0,0.1c0,0.2-0.1,0.4-0.2,0.6c0,0,0,0.1-0.1,0.2
			c0,0.1-0.1,0.2-0.2,0.2c0,0,0,0.1-0.1,0.1l0,0c0,0,0,0,0,0l0,0h0c0,0,0,0,0,0c-0.2,0.2-0.3,0.4-0.5,0.6c-0.1,0.1-0.2,0.2-0.4,0.4
			c-0.1,0.1-0.3,0.2-0.4,0.4c-0.1,0.1-0.3,0.3-0.5,0.4c-0.2,0.1-0.3,0.2-0.5,0.4c-0.4,0.2-0.7,0.5-1.2,0.7c-0.4,0.2-0.9,0.5-1.4,0.7
			c-0.2,0.1-0.5,0.2-0.8,0.3c-0.3,0.1-0.7,0.3-1,0.4c-0.4,0.2-0.7,0.3-1.1,0.4c-0.4,0.2-0.8,0.3-1.2,0.4c-0.4,0.1-0.8,0.3-1.2,0.4
			c-0.4,0.2-0.9,0.3-1.3,0.4c-0.4,0.1-0.9,0.3-1.3,0.4c-0.5,0.1-0.9,0.3-1.4,0.4c-0.5,0.1-1,0.2-1.5,0.4c-0.7,0.2-1.4,0.3-2.2,0.5
			c-0.4,0.1-0.8,0.2-1.2,0.3c-1.4,0.3-2.8,0.6-4.3,0.8c-0.9,0.2-1.9,0.3-2.9,0.5c-0.8,0.1-1.7,0.3-2.6,0.4c-0.7,0.1-1.3,0.2-2,0.3
			c-2,0.3-4.1,0.5-6.3,0.7c-0.5,0.1-1.1,0.1-1.7,0.2c-4,0.4-8.1,0.7-12.5,0.9c-0.7,0-1.4,0.1-2.1,0.1c-0.3,0-0.5,0-0.8,0
			c-1.4,0.1-2.8,0.1-4.2,0.2c-1.7,0-3.4,0.1-5.1,0.1c-0.9,0-1.7,0-2.6,0c-0.9,0-1.7,0-2.6,0c-3.7,0-7.4-0.1-10.9-0.2
			c-1.6,0-3.2-0.1-4.7-0.2c-4-0.2-7.9-0.4-11.6-0.8c-0.9-0.1-1.8-0.2-2.8-0.2c-3.5-0.3-6.8-0.7-9.9-1.2v-63.1
			c10.9,1.4,23.9,2.3,37.8,2.3c29.9,0,55.4-3.8,65.1-9.1v52.8c0.3,0.1,0.5,0.2,0.8,0.3c1,0.5,1.9,0.9,2.6,1.5
			c0.2,0.1,0.4,0.3,0.6,0.4c0.1,0.1,0.2,0.1,0.3,0.2c0.5,0.4,0.9,0.7,1.2,1.1c0,0.1,0.1,0.1,0.1,0.2c0.1,0.1,0.1,0.2,0.2,0.3
			c0.1,0.2,0.2,0.4,0.3,0.6c0,0.1,0.1,0.3,0.1,0.4c0,0.1,0,0.1,0,0.2C227.6,361.6,227.6,361.8,227.6,362z"/>
		<path fill="#FFDE17" d="M227.6,441.3c0,7.7-31.1,13.9-69.4,13.9c-14.9,0-28.7-0.9-40-2.6v-61.3c11.3,1.6,25.1,2.6,40,2.6
			c27.9,0,51.9-3.3,62.9-8.1v49.6C225.3,437.2,227.6,439.2,227.6,441.3z"/>
		<path fill="#F9B233" d="M222,367.4c-0.2,0.1-0.5,0.2-0.8,0.4c-0.3,0.1-0.6,0.3-1,0.4c0.3-0.1,0.7-0.3,1-0.4
			C221.5,367.7,221.7,367.6,222,367.4z"/>
		<path fill="none" stroke="#04311C" stroke-width="4.4787" stroke-miterlimit="10" d="M221.1,435.5c4,1.7,6.2,3.7,6.2,5.8
			c0,7.7-30.9,13.9-69,13.9s-69-6.2-69-13.9c0-2,2-3.9,5.7-5.5"/>
		<g>
			<path fill="none" stroke="#04311C" stroke-width="4.4787" stroke-miterlimit="10" d="M95,355.6c-3.7,1.7-5.7,3.6-5.7,5.5
				c0,7.7,30.9,13.9,69,13.9c11,0,21.3-0.5,30.5-1.4"/>
			<path fill="none" stroke="#04311C" stroke-width="4.4787" stroke-miterlimit="10" d="M221.1,355.4c4,1.7,6.2,3.7,6.2,5.8
				c0,4.7-11.4,8.8-28.9,11.3"/>
		</g>
		
			<line fill="none" stroke="#04311C" stroke-width="4.4787" stroke-linecap="round" stroke-miterlimit="10" x1="221.2" y1="282.9" x2="221.1" y2="355.4"/>
		
			<line fill="none" stroke="#04311C" stroke-width="4.4787" stroke-linecap="round" stroke-miterlimit="10" x1="95.8" y1="282.9" x2="95.7" y2="355.4"/>
		
			<line fill="none" stroke="#04311C" stroke-width="4.4787" stroke-linecap="round" stroke-miterlimit="10" x1="95.8" y1="282.9" x2="95.7" y2="355.4"/>
		
			<line fill="none" stroke="#04311C" stroke-width="4.4787" stroke-linecap="round" stroke-miterlimit="10" x1="95.8" y1="282.9" x2="95.7" y2="355.4"/>
		
			<line fill="none" stroke="#04311C" stroke-width="4.4787" stroke-linecap="round" stroke-miterlimit="10" x1="95.8" y1="367" x2="95.7" y2="435.5"/>
		
			<line fill="none" stroke="#04311C" stroke-width="4.4787" stroke-linecap="round" stroke-miterlimit="10" x1="221.1" y1="367" x2="220.9" y2="435.5"/>
		<path fill="none" stroke="#04311C" stroke-width="4.4787" stroke-miterlimit="10" d="M121.9,265.2"/>
		<g>
			
				<path fill="none" stroke="#04311C" stroke-width="4.4787" stroke-linecap="round" stroke-linejoin="bevel" stroke-miterlimit="10" d="
				M121.3,265.6L121.3,265.6c-19.3,2.5-32,6.8-32,11.8c0,7.7,30.9,13.9,69,13.9s69-6.2,69-13.9c0-7.7-30.9-13.9-69-13.9
				c-8.9,0-17.4,0.3-25.2,1"/>
			
				<polyline fill="none" stroke="#04311C" stroke-width="4.4787" stroke-linecap="round" stroke-linejoin="bevel" stroke-miterlimit="10" points="
				121.3,265.6 121.2,265.6 121.9,257.5 132.9,257.5 133.2,264.3 133.1,264.3 			"/>
		</g>
		<line fill="none" stroke="#FFFFFF" stroke-width="5.5984" stroke-miterlimit="10" x1="201" y1="305" x2="201" y2="352.2"/>
		<line fill="none" stroke="#FFFFFF" stroke-width="5.5984" stroke-miterlimit="10" x1="201" y1="383.7" x2="201" y2="433.2"/>
	</g>
	<g>
		<g>
			<path fill="#001689" d="M153.8,359.9H131v-11.7h3.8v-25.5H131v-11.7h23.5c5.4,0,9.7,0.3,13.1,1c3.4,0.7,6.6,2,9.6,4.1
				c3,2.1,5.3,4.9,7,8.4c0.8,1.7,1.5,3.5,1.9,5.4c0.4,1.9,0.7,3.9,0.7,6.1c0,4.3-0.9,8.1-2.7,11.6c-1.8,3.5-4.1,6.1-6.8,8
				c-2.7,1.9-5.6,3.1-8.8,3.6C165.3,359.6,160.4,359.9,153.8,359.9z"/>
		</g>
		<g>
			<path fill="#FFFFFF" d="M157.7,350.3h-16.3v-7.2h2.3v-15.6h-2.4v-7.2h16.4v7.2h-2.4v15.6h2.4V350.3z M176.4,350.3h-15.6v-7.2h1.4
				l-6.6-8.5l7.7-7.1h-2.4v-7.2h14.8v7.2h-2.3l-6.1,5.7l7.7,9.9h1.5V350.3z"/>
		</g>
	</g>
</g>
<g>
	<g>
		<path fill="#8DC63F" d="M282.6,312.1c0,2.1-2.3,4.1-6.4,5.8c-11,4.8-35.1,8.1-63,8.1c-17.2,0-32.9-1.3-45.1-3.3h0
			c-0.1,0-0.2,0-0.3-0.1c36.4-0.3,65.5-8.8,65.5-19.3c0-1.6-0.7-3.2-2-4.7C260.8,300.2,282.6,305.6,282.6,312.1z"/>
		<path fill="#B8E86B" d="M233.3,303.3c0,10.5-29.2,19-65.5,19.3c0,0,0,0,0,0c-7.5-1.3-13.6-2.9-17.8-4.8c-4-1.7-6.2-3.7-6.2-5.7
			c0-5,13.2-9.4,33.1-11.9v-7.7h11v6.6c7.8-0.6,16.4-1,25.3-1c6.3,0,12.4,0.2,18.1,0.5C232.6,300.1,233.3,301.7,233.3,303.3z"/>
		<path fill="#F9B233" d="M173.2,408.3L173.2,408.3l-0.4,0C173,408.3,173.1,408.3,173.2,408.3z"/>
		<line fill="none" x1="276.2" y1="402.8" x2="276.2" y2="402.8"/>
		<path fill="#D8B60F" d="M276.2,317.9v20.5c-9.8,5.3-35.2,9.1-65.1,9.1c-14,0-26.9-0.8-37.8-2.3v63.1c-0.1,0-0.3,0-0.4,0
			c-1.6-0.2-3.2-0.5-4.7-0.7h0c-0.1,0-0.2,0-0.3-0.1c0,0,0,0,0,0c-2.7-0.5-5.2-1-7.5-1.5c-4.1-1-7.6-2.1-10.3-3.3
			c-4-1.7-6.2-3.7-6.2-5.7c0-2,2.2-4,6.2-5.7v-73.4c4.1,1.9,10.3,3.5,17.8,4.8c0,0,0,0,0,0c0.1,0,0.2,0,0.3,0.1h0
			c12.1,2.1,27.9,3.3,45.1,3.3C241.1,326,265.2,322.7,276.2,317.9z"/>
		<path fill="#D8B60F" d="M276.2,402.8v18c-11,4.7-35.1,8.1-62.9,8.1c-14.9,0-28.7-0.9-40-2.6v61.3c-17.8-2.5-29.3-6.7-29.3-11.4
			c0-2,2.2-4,6.1-5.7v-67.9c2.7,1.2,6.2,2.3,10.3,3.3c2.3,0.5,4.8,1.1,7.5,1.5c0,0,0,0,0,0c0.1,0,0.2,0,0.3,0.1h0
			c1.5,0.3,3.1,0.5,4.7,0.7l0.4,0.1c3.1,0.4,6.4,0.8,9.9,1.2c0.9,0.1,1.8,0.2,2.8,0.2c3.7,0.3,7.6,0.6,11.6,0.8
			c1.5,0.1,3.1,0.1,4.7,0.2c3.6,0.1,7.2,0.2,10.9,0.2c0.9,0,1.7,0,2.6,0c0.9,0,1.7,0,2.6,0c1.7,0,3.4-0.1,5.1-0.1
			c1.4,0,2.8-0.1,4.2-0.2c0.3,0,0.5,0,0.8,0c0.7,0,1.4-0.1,2.1-0.1c4.3-0.2,8.5-0.5,12.5-0.9c0.6,0,1.1-0.1,1.7-0.2
			c2.2-0.2,4.3-0.5,6.3-0.7c0.7-0.1,1.3-0.2,2-0.3c0.9-0.1,1.7-0.2,2.6-0.4c1-0.2,1.9-0.3,2.9-0.5c1.5-0.2,3-0.5,4.3-0.8
			c0.4-0.1,0.8-0.2,1.2-0.3c0.8-0.2,1.5-0.3,2.2-0.5c0.5-0.1,1-0.2,1.5-0.4c0.5-0.1,0.9-0.2,1.4-0.4c0.5-0.1,0.9-0.2,1.3-0.4
			c0.4-0.1,0.9-0.2,1.3-0.4c0.4-0.1,0.8-0.2,1.2-0.4c0.4-0.1,0.8-0.3,1.2-0.4c0.4-0.1,0.7-0.2,1.1-0.4
			C275.5,403.1,275.9,402.9,276.2,402.8z"/>
		<path fill="#FFDE17" d="M282.6,397c0,0.2,0,0.4-0.1,0.6c0,0,0,0,0,0.1c0,0,0,0.1,0,0.1c0,0.2-0.1,0.4-0.2,0.6c0,0,0,0.1-0.1,0.2
			c0,0.1-0.1,0.2-0.2,0.2c0,0,0,0.1-0.1,0.1l0,0c0,0,0,0,0,0l0,0h0c0,0,0,0,0,0c-0.2,0.2-0.3,0.4-0.5,0.6c-0.1,0.1-0.2,0.2-0.4,0.4
			c-0.1,0.1-0.3,0.2-0.4,0.4c-0.1,0.1-0.3,0.3-0.5,0.4c-0.2,0.1-0.3,0.2-0.5,0.4c-0.4,0.2-0.7,0.5-1.2,0.7c-0.4,0.2-0.9,0.5-1.4,0.7
			c-0.2,0.1-0.5,0.2-0.8,0.3c-0.3,0.1-0.7,0.3-1,0.4c-0.4,0.2-0.7,0.3-1.1,0.4c-0.4,0.2-0.8,0.3-1.2,0.4c-0.4,0.1-0.8,0.3-1.2,0.4
			c-0.4,0.2-0.9,0.3-1.3,0.4c-0.4,0.1-0.9,0.3-1.3,0.4c-0.5,0.1-0.9,0.3-1.4,0.4c-0.5,0.1-1,0.2-1.5,0.4c-0.7,0.2-1.4,0.3-2.2,0.5
			c-0.4,0.1-0.8,0.2-1.2,0.3c-1.4,0.3-2.8,0.6-4.3,0.8c-0.9,0.2-1.9,0.3-2.9,0.5c-0.8,0.1-1.7,0.3-2.6,0.4c-0.7,0.1-1.3,0.2-2,0.3
			c-2,0.3-4.1,0.5-6.3,0.7c-0.5,0.1-1.1,0.1-1.7,0.2c-4,0.4-8.1,0.7-12.5,0.9c-0.7,0-1.4,0.1-2.1,0.1c-0.3,0-0.5,0-0.8,0
			c-1.4,0.1-2.8,0.1-4.2,0.2c-1.7,0-3.4,0.1-5.1,0.1c-0.9,0-1.7,0-2.6,0c-0.9,0-1.7,0-2.6,0c-3.7,0-7.4-0.1-10.9-0.2
			c-1.6,0-3.2-0.1-4.7-0.2c-4-0.2-7.9-0.4-11.6-0.8c-0.9-0.1-1.8-0.2-2.8-0.2c-3.5-0.3-6.8-0.7-9.9-1.2v-63.1
			c10.9,1.4,23.9,2.3,37.8,2.3c29.9,0,55.4-3.8,65.1-9.1v52.8c0.3,0.1,0.5,0.2,0.8,0.3c1,0.5,1.9,0.9,2.6,1.5
			c0.2,0.1,0.4,0.3,0.6,0.4c0.1,0.1,0.2,0.1,0.3,0.2c0.5,0.4,0.9,0.7,1.2,1.1c0,0.1,0.1,0.1,0.1,0.2c0.1,0.1,0.1,0.2,0.2,0.3
			c0.1,0.2,0.2,0.4,0.3,0.6c0,0.1,0.1,0.3,0.1,0.4c0,0.1,0,0.1,0,0.2C282.6,396.6,282.6,396.8,282.6,397z"/>
		<path fill="#FFDE17" d="M282.6,476.3c0,7.7-31.1,13.9-69.4,13.9c-14.9,0-28.7-0.9-40-2.6v-61.3c11.3,1.6,25.1,2.6,40,2.6
			c27.9,0,51.9-3.3,62.9-8.1v49.6C280.3,472.2,282.6,474.2,282.6,476.3z"/>
		<path fill="#F9B233" d="M277,402.4c-0.2,0.1-0.5,0.2-0.8,0.4c-0.3,0.1-0.6,0.3-1,0.4c0.3-0.1,0.7-0.3,1-0.4
			C276.5,402.7,276.7,402.6,277,402.4z"/>
		<path fill="none" stroke="#04311C" stroke-width="4.4787" stroke-miterlimit="10" d="M276.1,470.5c4,1.7,6.2,3.7,6.2,5.8
			c0,7.7-30.9,13.9-69,13.9s-69-6.2-69-13.9c0-2,2-3.9,5.7-5.5"/>
		<g>
			<path fill="none" stroke="#04311C" stroke-width="4.4787" stroke-miterlimit="10" d="M150,390.6c-3.7,1.7-5.7,3.6-5.7,5.5
				c0,7.7,30.9,13.9,69,13.9c11,0,21.3-0.5,30.5-1.4"/>
			<path fill="none" stroke="#04311C" stroke-width="4.4787" stroke-miterlimit="10" d="M276.1,390.4c4,1.7,6.2,3.7,6.2,5.8
				c0,4.7-11.4,8.8-28.9,11.3"/>
		</g>
		
			<line fill="none" stroke="#04311C" stroke-width="4.4787" stroke-linecap="round" stroke-miterlimit="10" x1="276.2" y1="317.9" x2="276.1" y2="390.4"/>
		
			<line fill="none" stroke="#04311C" stroke-width="4.4787" stroke-linecap="round" stroke-miterlimit="10" x1="150.8" y1="317.9" x2="150.7" y2="390.4"/>
		
			<line fill="none" stroke="#04311C" stroke-width="4.4787" stroke-linecap="round" stroke-miterlimit="10" x1="150.8" y1="317.9" x2="150.7" y2="390.4"/>
		
			<line fill="none" stroke="#04311C" stroke-width="4.4787" stroke-linecap="round" stroke-miterlimit="10" x1="150.8" y1="317.9" x2="150.7" y2="390.4"/>
		
			<line fill="none" stroke="#04311C" stroke-width="4.4787" stroke-linecap="round" stroke-miterlimit="10" x1="150.8" y1="402" x2="150.7" y2="470.5"/>
		
			<line fill="none" stroke="#04311C" stroke-width="4.4787" stroke-linecap="round" stroke-miterlimit="10" x1="276.1" y1="402" x2="275.9" y2="470.5"/>
		<path fill="none" stroke="#04311C" stroke-width="4.4787" stroke-miterlimit="10" d="M176.9,300.2"/>
		<g>
			
				<path fill="none" stroke="#04311C" stroke-width="4.4787" stroke-linecap="round" stroke-linejoin="bevel" stroke-miterlimit="10" d="
				M176.3,300.6L176.3,300.6c-19.3,2.5-32,6.8-32,11.8c0,7.7,30.9,13.9,69,13.9s69-6.2,69-13.9c0-7.7-30.9-13.9-69-13.9
				c-8.9,0-17.4,0.3-25.2,1"/>
			
				<polyline fill="none" stroke="#04311C" stroke-width="4.4787" stroke-linecap="round" stroke-linejoin="bevel" stroke-miterlimit="10" points="
				176.3,300.6 176.2,300.6 176.9,292.5 187.9,292.5 188.2,299.3 188.1,299.3 			"/>
		</g>
		<line fill="none" stroke="#FFFFFF" stroke-width="5.5984" stroke-miterlimit="10" x1="256" y1="340" x2="256" y2="387.2"/>
		<line fill="none" stroke="#FFFFFF" stroke-width="5.5984" stroke-miterlimit="10" x1="256" y1="418.7" x2="256" y2="468.2"/>
	</g>
	<g>
		<g>
			<path fill="#001689" d="M208.8,394.9H186v-11.7h3.8v-25.5H186v-11.7h23.5c5.4,0,9.7,0.3,13.1,1c3.4,0.7,6.6,2,9.6,4.1
				c3,2.1,5.3,4.9,7,8.4c0.8,1.7,1.5,3.5,1.9,5.4c0.4,1.9,0.7,3.9,0.7,6.1c0,4.3-0.9,8.1-2.7,11.6c-1.8,3.5-4.1,6.1-6.8,8
				c-2.7,1.9-5.6,3.1-8.8,3.6C220.3,394.6,215.4,394.9,208.8,394.9z"/>
		</g>
		<g>
			<path fill="#FFFFFF" d="M212.7,385.3h-16.3v-7.2h2.3v-15.6h-2.4v-7.2h16.4v7.2h-2.4v15.6h2.4V385.3z M231.4,385.3h-15.6v-7.2h1.4
				l-6.6-8.5l7.7-7.1h-2.4v-7.2h14.8v7.2h-2.3l-6.1,5.7l7.7,9.9h1.5V385.3z"/>
		</g>
	</g>
</g>
<g>
	<g>
		<path fill="#8DC63F" d="M246.6,67.1c0,2.1-2.3,4.1-6.4,5.8c-11,4.8-35.1,8.1-63,8.1c-17.2,0-32.9-1.3-45.1-3.3h0
			c-0.1,0-0.2,0-0.3-0.1c36.4-0.3,65.5-8.8,65.5-19.3c0-1.6-0.7-3.2-2-4.7C224.9,55.3,246.6,60.7,246.6,67.1z"/>
		<path fill="#B8E86B" d="M197.3,58.3c0,10.5-29.2,19-65.5,19.3c0,0,0,0,0,0c-7.5-1.3-13.6-2.9-17.8-4.8c-4-1.7-6.2-3.7-6.2-5.7
			c0-5,13.2-9.4,33.1-11.9v-7.7h11v6.6c7.8-0.6,16.4-1,25.3-1c6.3,0,12.4,0.2,18.1,0.5C196.6,55.2,197.3,56.7,197.3,58.3z"/>
		<path fill="#F9B233" d="M137.2,163.4L137.2,163.4l-0.4,0C137,163.4,137.1,163.4,137.2,163.4z"/>
		<line fill="none" x1="240.2" y1="157.8" x2="240.2" y2="157.8"/>
		<path fill="#2E3192" d="M240.2,73v20.5c-9.8,5.3-35.2,9.1-65.1,9.1c-14,0-26.9-0.8-37.8-2.3v63.1c-0.1,0-0.3,0-0.4,0
			c-1.6-0.2-3.2-0.5-4.7-0.7h0c-0.1,0-0.2,0-0.3-0.1c0,0,0,0,0,0c-2.7-0.5-5.2-1-7.5-1.5c-4.1-1-7.6-2.1-10.3-3.3
			c-4-1.7-6.2-3.7-6.2-5.7c0-2,2.2-4,6.2-5.7V72.8c4.1,1.9,10.3,3.5,17.8,4.8c0,0,0,0,0,0c0.1,0,0.2,0,0.3,0.1h0
			c12.1,2.1,27.9,3.3,45.1,3.3C205.1,81,229.2,77.7,240.2,73z"/>
		<path fill="#2E3192" d="M240.2,157.8v18c-11,4.7-35.1,8.1-62.9,8.1c-14.9,0-28.7-0.9-40-2.6v61.3c-17.8-2.5-29.3-6.7-29.3-11.4
			c0-2,2.2-4,6.1-5.7v-67.9c2.7,1.2,6.2,2.3,10.3,3.3c2.3,0.5,4.8,1.1,7.5,1.5c0,0,0,0,0,0c0.1,0,0.2,0,0.3,0.1h0
			c1.5,0.3,3.1,0.5,4.7,0.7l0.4,0.1c3.1,0.4,6.4,0.8,9.9,1.2c0.9,0.1,1.8,0.2,2.8,0.2c3.7,0.3,7.6,0.6,11.6,0.8
			c1.5,0.1,3.1,0.1,4.7,0.2c3.6,0.1,7.2,0.2,10.9,0.2c0.9,0,1.7,0,2.6,0c0.9,0,1.7,0,2.6,0c1.7,0,3.4-0.1,5.1-0.1
			c1.4,0,2.8-0.1,4.2-0.2c0.3,0,0.5,0,0.8,0c0.7,0,1.4-0.1,2.1-0.1c4.3-0.2,8.5-0.5,12.5-0.9c0.6,0,1.1-0.1,1.7-0.2
			c2.2-0.2,4.3-0.5,6.3-0.7c0.7-0.1,1.3-0.2,2-0.3c0.9-0.1,1.7-0.2,2.6-0.4c1-0.2,1.9-0.3,2.9-0.5c1.5-0.2,3-0.5,4.3-0.8
			c0.4-0.1,0.8-0.2,1.2-0.3c0.8-0.2,1.5-0.3,2.2-0.5c0.5-0.1,1-0.2,1.5-0.4c0.5-0.1,0.9-0.2,1.4-0.4c0.5-0.1,0.9-0.2,1.3-0.4
			c0.4-0.1,0.9-0.2,1.3-0.4c0.4-0.1,0.8-0.2,1.2-0.4c0.4-0.1,0.8-0.3,1.2-0.4c0.4-0.1,0.7-0.2,1.1-0.4
			C239.6,158.1,239.9,158,240.2,157.8z"/>
		<path fill="#0071BC" d="M246.6,152c0,0.2,0,0.4-0.1,0.6c0,0,0,0,0,0.1c0,0,0,0.1,0,0.1c0,0.2-0.1,0.4-0.2,0.6c0,0,0,0.1-0.1,0.2
			c0,0.1-0.1,0.2-0.2,0.2c0,0,0,0.1-0.1,0.1l0,0c0,0,0,0,0,0l0,0h0c0,0,0,0,0,0c-0.2,0.2-0.3,0.4-0.5,0.6c-0.1,0.1-0.2,0.2-0.4,0.4
			c-0.1,0.1-0.3,0.2-0.4,0.4c-0.1,0.1-0.3,0.3-0.5,0.4c-0.2,0.1-0.3,0.2-0.5,0.4c-0.4,0.2-0.7,0.5-1.2,0.7c-0.4,0.2-0.9,0.5-1.4,0.7
			c-0.2,0.1-0.5,0.2-0.8,0.3c-0.3,0.1-0.7,0.3-1,0.4c-0.4,0.2-0.7,0.3-1.1,0.4c-0.4,0.2-0.8,0.3-1.2,0.4c-0.4,0.1-0.8,0.3-1.2,0.4
			c-0.4,0.2-0.9,0.3-1.3,0.4c-0.4,0.1-0.9,0.3-1.3,0.4c-0.5,0.1-0.9,0.3-1.4,0.4c-0.5,0.1-1,0.2-1.5,0.4c-0.7,0.2-1.4,0.3-2.2,0.5
			c-0.4,0.1-0.8,0.2-1.2,0.3c-1.4,0.3-2.8,0.6-4.3,0.8c-0.9,0.2-1.9,0.3-2.9,0.5c-0.8,0.1-1.7,0.3-2.6,0.4c-0.7,0.1-1.3,0.2-2,0.3
			c-2,0.3-4.1,0.5-6.3,0.7c-0.5,0.1-1.1,0.1-1.7,0.2c-4,0.4-8.1,0.7-12.5,0.9c-0.7,0-1.4,0.1-2.1,0.1c-0.3,0-0.5,0-0.8,0
			c-1.4,0.1-2.8,0.1-4.2,0.2c-1.7,0-3.4,0.1-5.1,0.1c-0.9,0-1.7,0-2.6,0c-0.9,0-1.7,0-2.6,0c-3.7,0-7.4-0.1-10.9-0.2
			c-1.6,0-3.2-0.1-4.7-0.2c-4-0.2-7.9-0.4-11.6-0.8c-0.9-0.1-1.8-0.2-2.8-0.2c-3.5-0.3-6.8-0.7-9.9-1.2v-63.1
			c10.9,1.4,23.9,2.3,37.8,2.3c29.9,0,55.4-3.8,65.1-9.1v52.8c0.3,0.1,0.5,0.2,0.8,0.3c1,0.5,1.9,0.9,2.6,1.5
			c0.2,0.1,0.4,0.3,0.6,0.4c0.1,0.1,0.2,0.1,0.3,0.2c0.5,0.4,0.9,0.7,1.2,1.1c0,0.1,0.1,0.1,0.1,0.2c0.1,0.1,0.1,0.2,0.2,0.3
			c0.1,0.2,0.2,0.4,0.3,0.6c0,0.1,0.1,0.3,0.1,0.4c0,0.1,0,0.1,0,0.2C246.6,151.6,246.6,151.8,246.6,152z"/>
		<path fill="#0071BC" d="M246.7,231.3c0,7.7-31.1,13.9-69.4,13.9c-14.9,0-28.7-0.9-40-2.6v-61.3c11.3,1.6,25.1,2.6,40,2.6
			c27.9,0,51.9-3.3,62.9-8.1v49.6C244.4,227.2,246.7,229.2,246.7,231.3z"/>
		<path fill="#F9B233" d="M241,157.5c-0.2,0.1-0.5,0.2-0.8,0.4c-0.3,0.1-0.6,0.3-1,0.4c0.3-0.1,0.7-0.3,1-0.4
			C240.5,157.7,240.7,157.6,241,157.5z"/>
		<path fill="none" stroke="#04311C" stroke-width="4.4787" stroke-miterlimit="10" d="M240.1,225.6c4,1.7,6.2,3.7,6.2,5.8
			c0,7.7-30.9,13.9-69,13.9s-69-6.2-69-13.9c0-2,2-3.9,5.7-5.5"/>
		<g>
			<path fill="none" stroke="#04311C" stroke-width="4.4787" stroke-miterlimit="10" d="M114,145.6c-3.7,1.7-5.7,3.6-5.7,5.5
				c0,7.7,30.9,13.9,69,13.9c11,0,21.3-0.5,30.5-1.4"/>
			<path fill="none" stroke="#04311C" stroke-width="4.4787" stroke-miterlimit="10" d="M240.1,145.4c4,1.7,6.2,3.7,6.2,5.8
				c0,4.7-11.4,8.8-28.9,11.3"/>
		</g>
		
			<line fill="none" stroke="#04311C" stroke-width="4.4787" stroke-linecap="round" stroke-miterlimit="10" x1="240.2" y1="73" x2="240.1" y2="145.4"/>
		
			<line fill="none" stroke="#04311C" stroke-width="4.4787" stroke-linecap="round" stroke-miterlimit="10" x1="114.8" y1="73" x2="114.7" y2="145.4"/>
		
			<line fill="none" stroke="#04311C" stroke-width="4.4787" stroke-linecap="round" stroke-miterlimit="10" x1="114.8" y1="73" x2="114.7" y2="145.4"/>
		
			<line fill="none" stroke="#04311C" stroke-width="4.4787" stroke-linecap="round" stroke-miterlimit="10" x1="114.8" y1="73" x2="114.7" y2="145.4"/>
		
			<line fill="none" stroke="#04311C" stroke-width="4.4787" stroke-linecap="round" stroke-miterlimit="10" x1="114.8" y1="157.1" x2="114.7" y2="225.6"/>
		
			<line fill="none" stroke="#04311C" stroke-width="4.4787" stroke-linecap="round" stroke-miterlimit="10" x1="240.1" y1="157.1" x2="240" y2="225.6"/>
		<path fill="none" stroke="#04311C" stroke-width="4.4787" stroke-miterlimit="10" d="M140.9,55.2"/>
		<g>
			
				<path fill="none" stroke="#04311C" stroke-width="4.4787" stroke-linecap="round" stroke-linejoin="bevel" stroke-miterlimit="10" d="
				M140.3,55.6L140.3,55.6c-19.3,2.5-32,6.8-32,11.8c0,7.7,30.9,13.9,69,13.9s69-6.2,69-13.9s-30.9-13.9-69-13.9
				c-8.9,0-17.4,0.3-25.2,1"/>
			
				<polyline fill="none" stroke="#04311C" stroke-width="4.4787" stroke-linecap="round" stroke-linejoin="bevel" stroke-miterlimit="10" points="
				140.3,55.6 140.2,55.6 140.9,47.6 151.9,47.6 152.3,54.4 152.1,54.4 			"/>
		</g>
		<line fill="none" stroke="#FFFFFF" stroke-width="5.5984" stroke-miterlimit="10" x1="220.1" y1="95" x2="220.1" y2="142.3"/>
		<line fill="none" stroke="#FFFFFF" stroke-width="5.5984" stroke-miterlimit="10" x1="220.1" y1="173.8" x2="220.1" y2="223.2"/>
	</g>
	<g>
		<g>
			<path fill="#001689" d="M172.8,149.9H150v-11.7h3.8v-25.5H150v-11.7h23.5c5.4,0,9.7,0.3,13.1,1c3.4,0.7,6.6,2,9.6,4.1
				c3,2.1,5.3,4.9,7,8.4c0.8,1.7,1.5,3.5,1.9,5.4c0.4,1.9,0.7,3.9,0.7,6.1c0,4.3-0.9,8.1-2.7,11.6c-1.8,3.5-4.1,6.1-6.8,8
				c-2.7,1.9-5.6,3.1-8.8,3.6C184.3,149.6,179.4,149.9,172.8,149.9z"/>
		</g>
		<g>
			<path fill="#FFFFFF" d="M176.7,140.4h-16.3v-7.2h2.3v-15.6h-2.4v-7.2h16.4v7.2h-2.4v15.6h2.4V140.4z M195.5,140.4h-15.6v-7.2h1.4
				l-6.6-8.5l7.7-7.1h-2.4v-7.2h14.8v7.2h-2.3l-6.1,5.7l7.7,9.9h1.5V140.4z"/>
		</g>
	</g>
</g>
<g>
	<g>
		<path fill="#8DC63F" d="M447.5,102.8c0,2.1-2.3,4.1-6.4,5.8c-11,4.8-35.1,8.1-63,8.1c-17.2,0-32.9-1.3-45.1-3.3h0
			c-0.1,0-0.2,0-0.3-0.1c36.4-0.3,65.5-8.8,65.5-19.3c0-1.6-0.7-3.2-2-4.7C425.8,91,447.5,96.4,447.5,102.8z"/>
		<path fill="#B8E86B" d="M398.3,94.1c0,10.5-29.2,19-65.5,19.3c0,0,0,0,0,0c-7.5-1.3-13.6-2.9-17.8-4.8c-4-1.7-6.2-3.7-6.2-5.7
			c0-5,13.2-9.4,33.1-11.9v-7.7h11v6.6c7.8-0.6,16.4-1,25.3-1c6.3,0,12.4,0.2,18.1,0.5C397.6,90.9,398.3,92.4,398.3,94.1z"/>
		<path fill="#F9B233" d="M338.2,199.1L338.2,199.1l-0.4,0C337.9,199.1,338,199.1,338.2,199.1z"/>
		<line fill="none" x1="441.1" y1="193.6" x2="441.1" y2="193.5"/>
		<path d="M441.1,108.7v20.5c-9.8,5.3-35.2,9.1-65.1,9.1c-14,0-26.9-0.8-37.8-2.3v63.1c-0.1,0-0.3,0-0.4,0c-1.6-0.2-3.2-0.5-4.7-0.7
			h0c-0.1,0-0.2,0-0.3-0.1c0,0,0,0,0,0c-2.7-0.5-5.2-1-7.5-1.5c-4.1-1-7.6-2.1-10.3-3.3c-4-1.7-6.2-3.7-6.2-5.7c0-2,2.2-4,6.2-5.7
			v-73.4c4.1,1.9,10.3,3.5,17.8,4.8c0,0,0,0,0,0c0.1,0,0.2,0,0.3,0.1h0c12.1,2.1,27.9,3.3,45.1,3.3
			C406.1,116.8,430.2,113.4,441.1,108.7z"/>
		<path d="M441.1,193.6v18c-11,4.7-35.1,8.1-62.9,8.1c-14.9,0-28.7-0.9-40-2.6v61.3c-17.8-2.5-29.3-6.7-29.3-11.4c0-2,2.2-4,6.1-5.7
			v-67.9c2.7,1.2,6.2,2.3,10.3,3.3c2.3,0.5,4.8,1.1,7.5,1.5c0,0,0,0,0,0c0.1,0,0.2,0,0.3,0.1h0c1.5,0.3,3.1,0.5,4.7,0.7l0.4,0.1
			c3.1,0.4,6.4,0.8,9.9,1.2c0.9,0.1,1.8,0.2,2.8,0.2c3.7,0.3,7.6,0.6,11.6,0.8c1.5,0.1,3.1,0.1,4.7,0.2c3.6,0.1,7.2,0.2,10.9,0.2
			c0.9,0,1.7,0,2.6,0c0.9,0,1.7,0,2.6,0c1.7,0,3.4-0.1,5.1-0.1c1.4,0,2.8-0.1,4.2-0.2c0.3,0,0.5,0,0.8,0c0.7,0,1.4-0.1,2.1-0.1
			c4.3-0.2,8.5-0.5,12.5-0.9c0.6,0,1.1-0.1,1.7-0.2c2.2-0.2,4.3-0.5,6.3-0.7c0.7-0.1,1.3-0.2,2-0.3c0.9-0.1,1.7-0.2,2.6-0.4
			c1-0.2,1.9-0.3,2.9-0.5c1.5-0.2,3-0.5,4.3-0.8c0.4-0.1,0.8-0.2,1.2-0.3c0.8-0.2,1.5-0.3,2.2-0.5c0.5-0.1,1-0.2,1.5-0.4
			c0.5-0.1,0.9-0.2,1.4-0.4c0.5-0.1,0.9-0.2,1.3-0.4c0.4-0.1,0.9-0.2,1.3-0.4c0.4-0.1,0.8-0.2,1.2-0.4c0.4-0.1,0.8-0.3,1.2-0.4
			c0.4-0.1,0.7-0.2,1.1-0.4C440.5,193.8,440.8,193.7,441.1,193.6z"/>
		<path fill="#333333" d="M447.5,187.7c0,0.2,0,0.4-0.1,0.6c0,0,0,0,0,0.1c0,0,0,0.1,0,0.1c0,0.2-0.1,0.4-0.2,0.6c0,0,0,0.1-0.1,0.2
			c0,0.1-0.1,0.2-0.2,0.2c0,0,0,0.1-0.1,0.1l0,0c0,0,0,0,0,0l0,0h0c0,0,0,0,0,0c-0.2,0.2-0.3,0.4-0.5,0.6c-0.1,0.1-0.2,0.2-0.4,0.4
			c-0.1,0.1-0.3,0.2-0.4,0.4c-0.1,0.1-0.3,0.3-0.5,0.4c-0.2,0.1-0.3,0.2-0.5,0.4c-0.4,0.2-0.7,0.5-1.2,0.7c-0.4,0.2-0.9,0.5-1.4,0.7
			c-0.2,0.1-0.5,0.2-0.8,0.3c-0.3,0.1-0.7,0.3-1,0.4c-0.4,0.2-0.7,0.3-1.1,0.4c-0.4,0.2-0.8,0.3-1.2,0.4c-0.4,0.1-0.8,0.3-1.2,0.4
			c-0.4,0.2-0.9,0.3-1.3,0.4c-0.4,0.1-0.9,0.3-1.3,0.4c-0.5,0.1-0.9,0.3-1.4,0.4c-0.5,0.1-1,0.2-1.5,0.4c-0.7,0.2-1.4,0.3-2.2,0.5
			c-0.4,0.1-0.8,0.2-1.2,0.3c-1.4,0.3-2.8,0.6-4.3,0.8c-0.9,0.2-1.9,0.3-2.9,0.5c-0.8,0.1-1.7,0.3-2.6,0.4c-0.7,0.1-1.3,0.2-2,0.3
			c-2,0.3-4.1,0.5-6.3,0.7c-0.5,0.1-1.1,0.1-1.7,0.2c-4,0.4-8.1,0.7-12.5,0.9c-0.7,0-1.4,0.1-2.1,0.1c-0.3,0-0.5,0-0.8,0
			c-1.4,0.1-2.8,0.1-4.2,0.2c-1.7,0-3.4,0.1-5.1,0.1c-0.9,0-1.7,0-2.6,0c-0.9,0-1.7,0-2.6,0c-3.7,0-7.4-0.1-10.9-0.2
			c-1.6,0-3.2-0.1-4.7-0.2c-4-0.2-7.9-0.4-11.6-0.8c-0.9-0.1-1.8-0.2-2.8-0.2c-3.5-0.3-6.8-0.7-9.9-1.2V136
			c10.9,1.4,23.9,2.3,37.8,2.3c29.9,0,55.4-3.8,65.1-9.1v52.8c0.3,0.1,0.5,0.2,0.8,0.3c1,0.5,1.9,0.9,2.6,1.5
			c0.2,0.1,0.4,0.3,0.6,0.4c0.1,0.1,0.2,0.1,0.3,0.2c0.5,0.4,0.9,0.7,1.2,1.1c0,0.1,0.1,0.1,0.1,0.2c0.1,0.1,0.1,0.2,0.2,0.3
			c0.1,0.2,0.2,0.4,0.3,0.6c0,0.1,0.1,0.3,0.1,0.4c0,0.1,0,0.1,0,0.2C447.5,187.3,447.5,187.5,447.5,187.7z"/>
		<path fill="#333333" d="M447.6,267.1c0,7.7-31.1,13.9-69.4,13.9c-14.9,0-28.7-0.9-40-2.6v-61.3c11.3,1.6,25.1,2.6,40,2.6
			c27.9,0,51.9-3.3,62.9-8.1v49.6C445.3,263,447.6,265,447.6,267.1z"/>
		<path fill="#F9B233" d="M441.9,193.2c-0.2,0.1-0.5,0.2-0.8,0.4c-0.3,0.1-0.6,0.3-1,0.4c0.3-0.1,0.7-0.3,1-0.4
			C441.4,193.4,441.7,193.3,441.9,193.2z"/>
		<path fill="none" stroke="#04311C" stroke-width="4.4787" stroke-miterlimit="10" d="M441,261.3c4,1.7,6.2,3.7,6.2,5.8
			c0,7.7-30.9,13.9-69,13.9s-69-6.2-69-13.9c0-2,2-3.9,5.7-5.5"/>
		<g>
			<path fill="none" stroke="#04311C" stroke-width="4.4787" stroke-miterlimit="10" d="M314.9,181.4c-3.7,1.7-5.7,3.6-5.7,5.5
				c0,7.7,30.9,13.9,69,13.9c11,0,21.3-0.5,30.5-1.4"/>
			<path fill="none" stroke="#04311C" stroke-width="4.4787" stroke-miterlimit="10" d="M441,181.1c4,1.7,6.2,3.7,6.2,5.8
				c0,4.7-11.4,8.8-28.9,11.3"/>
		</g>
		
			<line fill="none" stroke="#04311C" stroke-width="4.4787" stroke-linecap="round" stroke-miterlimit="10" x1="441.1" y1="108.7" x2="441" y2="181.1"/>
		
			<line fill="none" stroke="#04311C" stroke-width="4.4787" stroke-linecap="round" stroke-miterlimit="10" x1="315.7" y1="108.7" x2="315.6" y2="181.1"/>
		
			<line fill="none" stroke="#04311C" stroke-width="4.4787" stroke-linecap="round" stroke-miterlimit="10" x1="315.7" y1="108.7" x2="315.6" y2="181.1"/>
		
			<line fill="none" stroke="#04311C" stroke-width="4.4787" stroke-linecap="round" stroke-miterlimit="10" x1="315.7" y1="108.7" x2="315.6" y2="181.1"/>
		
			<line fill="none" stroke="#04311C" stroke-width="4.4787" stroke-linecap="round" stroke-miterlimit="10" x1="315.7" y1="192.8" x2="315.6" y2="261.3"/>
		
			<line fill="none" stroke="#04311C" stroke-width="4.4787" stroke-linecap="round" stroke-miterlimit="10" x1="441" y1="192.8" x2="440.9" y2="261.3"/>
		<path fill="none" stroke="#04311C" stroke-width="4.4787" stroke-miterlimit="10" d="M341.8,91"/>
		<g>
			
				<path fill="none" stroke="#04311C" stroke-width="4.4787" stroke-linecap="round" stroke-linejoin="bevel" stroke-miterlimit="10" d="
				M341.2,91.3L341.2,91.3c-19.3,2.5-32,6.8-32,11.8c0,7.7,30.9,13.9,69,13.9s69-6.2,69-13.9s-30.9-13.9-69-13.9
				c-8.9,0-17.4,0.3-25.2,1"/>
			
				<polyline fill="none" stroke="#04311C" stroke-width="4.4787" stroke-linecap="round" stroke-linejoin="bevel" stroke-miterlimit="10" points="
				341.2,91.3 341.1,91.3 341.8,83.3 352.8,83.3 353.2,90.1 353,90.1 			"/>
		</g>
		<line fill="none" stroke="#FFFFFF" stroke-width="5.5984" stroke-miterlimit="10" x1="421" y1="130.7" x2="421" y2="178"/>
		<line fill="none" stroke="#FFFFFF" stroke-width="5.5984" stroke-miterlimit="10" x1="421" y1="209.5" x2="421" y2="259"/>
	</g>
	<g>
		<g>
			<path fill="#001689" d="M373.7,185.6h-22.8v-11.7h3.8v-25.5h-3.8v-11.7h23.5c5.4,0,9.7,0.3,13.1,1c3.4,0.7,6.6,2,9.6,4.1
				c3,2.1,5.3,4.9,7,8.4c0.8,1.7,1.5,3.5,1.9,5.4c0.4,1.9,0.7,3.9,0.7,6.1c0,4.3-0.9,8.1-2.7,11.6c-1.8,3.5-4.1,6.1-6.8,8
				c-2.7,1.9-5.6,3.1-8.8,3.6C385.3,185.4,380.4,185.6,373.7,185.6z"/>
		</g>
		<g>
			<path fill="#FFFFFF" d="M377.7,176.1h-16.3v-7.2h2.3v-15.6h-2.4v-7.2h16.4v7.2h-2.4v15.6h2.4V176.1z M396.4,176.1h-15.6v-7.2h1.4
				l-6.6-8.5l7.7-7.1h-2.4v-7.2h14.8v7.2h-2.3l-6.1,5.7l7.7,9.9h1.5V176.1z"/>
		</g>
	</g>
</g>
<g>
	<g>
		<path fill="#8DC63F" d="M478.5,129.8c0,2.1-2.3,4.1-6.4,5.8c-11,4.8-35.1,8.1-63,8.1c-17.2,0-32.9-1.3-45.1-3.3h0
			c-0.1,0-0.2,0-0.3-0.1c36.4-0.3,65.5-8.8,65.5-19.3c0-1.6-0.7-3.2-2-4.7C456.8,118,478.5,123.4,478.5,129.8z"/>
		<path fill="#B8E86B" d="M429.3,121.1c0,10.5-29.2,19-65.5,19.3c0,0,0,0,0,0c-7.5-1.3-13.6-2.9-17.8-4.8c-4-1.7-6.2-3.7-6.2-5.7
			c0-5,13.2-9.4,33.1-11.9v-7.7h11v6.6c7.8-0.6,16.4-1,25.3-1c6.3,0,12.4,0.2,18.1,0.5C428.6,117.9,429.3,119.4,429.3,121.1z"/>
		<path fill="#F9B233" d="M369.2,226.1L369.2,226.1l-0.4,0C368.9,226.1,369,226.1,369.2,226.1z"/>
		<line fill="none" x1="472.1" y1="220.6" x2="472.1" y2="220.5"/>
		<path d="M472.1,135.7v20.5c-9.8,5.3-35.2,9.1-65.1,9.1c-14,0-26.9-0.8-37.8-2.3v63.1c-0.1,0-0.3,0-0.4,0c-1.6-0.2-3.2-0.5-4.7-0.7
			h0c-0.1,0-0.2,0-0.3-0.1c0,0,0,0,0,0c-2.7-0.5-5.2-1-7.5-1.5c-4.1-1-7.6-2.1-10.3-3.3c-4-1.7-6.2-3.7-6.2-5.7c0-2,2.2-4,6.2-5.7
			v-73.4c4.1,1.9,10.3,3.5,17.8,4.8c0,0,0,0,0,0c0.1,0,0.2,0,0.3,0.1h0c12.1,2.1,27.9,3.3,45.1,3.3
			C437.1,143.8,461.2,140.4,472.1,135.7z"/>
		<path d="M472.1,220.6v18c-11,4.7-35.1,8.1-62.9,8.1c-14.9,0-28.7-0.9-40-2.6v61.3c-17.8-2.5-29.3-6.7-29.3-11.4c0-2,2.2-4,6.1-5.7
			v-67.9c2.7,1.2,6.2,2.3,10.3,3.3c2.3,0.5,4.8,1.1,7.5,1.5c0,0,0,0,0,0c0.1,0,0.2,0,0.3,0.1h0c1.5,0.3,3.1,0.5,4.7,0.7l0.4,0.1
			c3.1,0.4,6.4,0.8,9.9,1.2c0.9,0.1,1.8,0.2,2.8,0.2c3.7,0.3,7.6,0.6,11.6,0.8c1.5,0.1,3.1,0.1,4.7,0.2c3.6,0.1,7.2,0.2,10.9,0.2
			c0.9,0,1.7,0,2.6,0c0.9,0,1.7,0,2.6,0c1.7,0,3.4-0.1,5.1-0.1c1.4,0,2.8-0.1,4.2-0.2c0.3,0,0.5,0,0.8,0c0.7,0,1.4-0.1,2.1-0.1
			c4.3-0.2,8.5-0.5,12.5-0.9c0.6,0,1.1-0.1,1.7-0.2c2.2-0.2,4.3-0.5,6.3-0.7c0.7-0.1,1.3-0.2,2-0.3c0.9-0.1,1.7-0.2,2.6-0.4
			c1-0.2,1.9-0.3,2.9-0.5c1.5-0.2,3-0.5,4.3-0.8c0.4-0.1,0.8-0.2,1.2-0.3c0.8-0.2,1.5-0.3,2.2-0.5c0.5-0.1,1-0.2,1.5-0.4
			c0.5-0.1,0.9-0.2,1.4-0.4c0.5-0.1,0.9-0.2,1.3-0.4c0.4-0.1,0.9-0.2,1.3-0.4c0.4-0.1,0.8-0.2,1.2-0.4c0.4-0.1,0.8-0.3,1.2-0.4
			c0.4-0.1,0.7-0.2,1.1-0.4C471.5,220.8,471.8,220.7,472.1,220.6z"/>
		<path fill="#333333" d="M478.5,214.7c0,0.2,0,0.4-0.1,0.6c0,0,0,0,0,0.1c0,0,0,0.1,0,0.1c0,0.2-0.1,0.4-0.2,0.6c0,0,0,0.1-0.1,0.2
			c0,0.1-0.1,0.2-0.2,0.2c0,0,0,0.1-0.1,0.1l0,0c0,0,0,0,0,0l0,0h0c0,0,0,0,0,0c-0.2,0.2-0.3,0.4-0.5,0.6c-0.1,0.1-0.2,0.2-0.4,0.4
			c-0.1,0.1-0.3,0.2-0.4,0.4c-0.1,0.1-0.3,0.3-0.5,0.4c-0.2,0.1-0.3,0.2-0.5,0.4c-0.4,0.2-0.7,0.5-1.2,0.7c-0.4,0.2-0.9,0.5-1.4,0.7
			c-0.2,0.1-0.5,0.2-0.8,0.3c-0.3,0.1-0.7,0.3-1,0.4c-0.4,0.2-0.7,0.3-1.1,0.4c-0.4,0.2-0.8,0.3-1.2,0.4c-0.4,0.1-0.8,0.3-1.2,0.4
			c-0.4,0.2-0.9,0.3-1.3,0.4c-0.4,0.1-0.9,0.3-1.3,0.4c-0.5,0.1-0.9,0.3-1.4,0.4c-0.5,0.1-1,0.2-1.5,0.4c-0.7,0.2-1.4,0.3-2.2,0.5
			c-0.4,0.1-0.8,0.2-1.2,0.3c-1.4,0.3-2.8,0.6-4.3,0.8c-0.9,0.2-1.9,0.3-2.9,0.5c-0.8,0.1-1.7,0.3-2.6,0.4c-0.7,0.1-1.3,0.2-2,0.3
			c-2,0.3-4.1,0.5-6.3,0.7c-0.5,0.1-1.1,0.1-1.7,0.2c-4,0.4-8.1,0.7-12.5,0.9c-0.7,0-1.4,0.1-2.1,0.1c-0.3,0-0.5,0-0.8,0
			c-1.4,0.1-2.8,0.1-4.2,0.2c-1.7,0-3.4,0.1-5.1,0.1c-0.9,0-1.7,0-2.6,0c-0.9,0-1.7,0-2.6,0c-3.7,0-7.4-0.1-10.9-0.2
			c-1.6,0-3.2-0.1-4.7-0.2c-4-0.2-7.9-0.4-11.6-0.8c-0.9-0.1-1.8-0.2-2.8-0.2c-3.5-0.3-6.8-0.7-9.9-1.2V163
			c10.9,1.4,23.9,2.3,37.8,2.3c29.9,0,55.4-3.8,65.1-9.1v52.8c0.3,0.1,0.5,0.2,0.8,0.3c1,0.5,1.9,0.9,2.6,1.5
			c0.2,0.1,0.4,0.3,0.6,0.4c0.1,0.1,0.2,0.1,0.3,0.2c0.5,0.4,0.9,0.7,1.2,1.1c0,0.1,0.1,0.1,0.1,0.2c0.1,0.1,0.1,0.2,0.2,0.3
			c0.1,0.2,0.2,0.4,0.3,0.6c0,0.1,0.1,0.3,0.1,0.4c0,0.1,0,0.1,0,0.2C478.5,214.3,478.5,214.5,478.5,214.7z"/>
		<path fill="#333333" d="M478.6,294.1c0,7.7-31.1,13.9-69.4,13.9c-14.9,0-28.7-0.9-40-2.6v-61.3c11.3,1.6,25.1,2.6,40,2.6
			c27.9,0,51.9-3.3,62.9-8.1v49.6C476.3,290,478.6,292,478.6,294.1z"/>
		<path fill="#F9B233" d="M472.9,220.2c-0.2,0.1-0.5,0.2-0.8,0.4c-0.3,0.1-0.6,0.3-1,0.4c0.3-0.1,0.7-0.3,1-0.4
			C472.4,220.4,472.7,220.3,472.9,220.2z"/>
		<path fill="none" stroke="#04311C" stroke-width="4.4787" stroke-miterlimit="10" d="M472,288.3c4,1.7,6.2,3.7,6.2,5.8
			c0,7.7-30.9,13.9-69,13.9s-69-6.2-69-13.9c0-2,2-3.9,5.7-5.5"/>
		<g>
			<path fill="none" stroke="#04311C" stroke-width="4.4787" stroke-miterlimit="10" d="M345.9,208.4c-3.7,1.7-5.7,3.6-5.7,5.5
				c0,7.7,30.9,13.9,69,13.9c11,0,21.3-0.5,30.5-1.4"/>
			<path fill="none" stroke="#04311C" stroke-width="4.4787" stroke-miterlimit="10" d="M472,208.1c4,1.7,6.2,3.7,6.2,5.8
				c0,4.7-11.4,8.8-28.9,11.3"/>
		</g>
		
			<line fill="none" stroke="#04311C" stroke-width="4.4787" stroke-linecap="round" stroke-miterlimit="10" x1="472.1" y1="135.7" x2="472" y2="208.1"/>
		
			<line fill="none" stroke="#04311C" stroke-width="4.4787" stroke-linecap="round" stroke-miterlimit="10" x1="346.7" y1="135.7" x2="346.6" y2="208.1"/>
		
			<line fill="none" stroke="#04311C" stroke-width="4.4787" stroke-linecap="round" stroke-miterlimit="10" x1="346.7" y1="135.7" x2="346.6" y2="208.1"/>
		
			<line fill="none" stroke="#04311C" stroke-width="4.4787" stroke-linecap="round" stroke-miterlimit="10" x1="346.7" y1="135.7" x2="346.6" y2="208.1"/>
		
			<line fill="none" stroke="#04311C" stroke-width="4.4787" stroke-linecap="round" stroke-miterlimit="10" x1="346.7" y1="219.8" x2="346.6" y2="288.3"/>
		
			<line fill="none" stroke="#04311C" stroke-width="4.4787" stroke-linecap="round" stroke-miterlimit="10" x1="472" y1="219.8" x2="471.9" y2="288.3"/>
		<path fill="none" stroke="#04311C" stroke-width="4.4787" stroke-miterlimit="10" d="M372.8,118"/>
		<g>
			
				<path fill="none" stroke="#04311C" stroke-width="4.4787" stroke-linecap="round" stroke-linejoin="bevel" stroke-miterlimit="10" d="
				M372.2,118.3L372.2,118.3c-19.3,2.5-32,6.8-32,11.8c0,7.7,30.9,13.9,69,13.9s69-6.2,69-13.9s-30.9-13.9-69-13.9
				c-8.9,0-17.4,0.3-25.2,1"/>
			
				<polyline fill="none" stroke="#04311C" stroke-width="4.4787" stroke-linecap="round" stroke-linejoin="bevel" stroke-miterlimit="10" points="
				372.2,118.3 372.1,118.3 372.8,110.3 383.8,110.3 384.2,117.1 384,117.1 			"/>
		</g>
		<line fill="none" stroke="#FFFFFF" stroke-width="5.5984" stroke-miterlimit="10" x1="452" y1="157.7" x2="452" y2="205"/>
		<line fill="none" stroke="#FFFFFF" stroke-width="5.5984" stroke-miterlimit="10" x1="452" y1="236.5" x2="452" y2="286"/>
	</g>
	<g>
		<g>
			<path fill="#001689" d="M404.7,212.6h-22.8v-11.7h3.8v-25.5h-3.8v-11.7h23.5c5.4,0,9.7,0.3,13.1,1c3.4,0.7,6.6,2,9.6,4.1
				c3,2.1,5.3,4.9,7,8.4c0.8,1.7,1.5,3.5,1.9,5.4c0.4,1.9,0.7,3.9,0.7,6.1c0,4.3-0.9,8.1-2.7,11.6c-1.8,3.5-4.1,6.1-6.8,8
				c-2.7,1.9-5.6,3.1-8.8,3.6C416.3,212.4,411.4,212.6,404.7,212.6z"/>
		</g>
		<g>
			<path fill="#FFFFFF" d="M408.7,203.1h-16.3v-7.2h2.3v-15.6h-2.4v-7.2h16.4v7.2h-2.4v15.6h2.4V203.1z M427.4,203.1h-15.6v-7.2h1.4
				l-6.6-8.5l7.7-7.1h-2.4v-7.2h14.8v7.2h-2.3l-6.1,5.7l7.7,9.9h1.5V203.1z"/>
		</g>
	</g>
</g>
<g>
	<defs>
		<circle id="SVGID_1_" cx="256" cy="256" r="256"/>
	</defs>
	<clipPath id="SVGID_2_">
		<use xlink:href="#SVGID_1_"  overflow="visible"/>
	</clipPath>
	<g clip-path="url(#SVGID_2_)">
		<g>
			<path fill="#8DC63F" d="M378.6,323.1c0,2.1-2.3,4.1-6.4,5.8c-11,4.8-35.1,8.1-63,8.1c-17.2,0-32.9-1.3-45.1-3.3h0
				c-0.1,0-0.2,0-0.3-0.1c36.4-0.3,65.5-8.8,65.5-19.3c0-1.6-0.7-3.2-2-4.7C356.8,311.2,378.6,316.6,378.6,323.1z"/>
			<path fill="#B8E86B" d="M329.3,314.3c0,10.5-29.2,19-65.5,19.3c0,0,0,0,0,0c-7.5-1.3-13.6-2.9-17.8-4.8c-4-1.7-6.2-3.7-6.2-5.7
				c0-5,13.2-9.4,33.1-11.9v-7.7h11v6.6c7.8-0.6,16.4-1,25.3-1c6.3,0,12.4,0.2,18.1,0.5C328.6,311.1,329.3,312.7,329.3,314.3z"/>
			<path fill="#F9B233" d="M269.2,419.3L269.2,419.3l-0.4,0C269,419.3,269.1,419.3,269.2,419.3z"/>
			<line fill="none" x1="372.2" y1="413.8" x2="372.2" y2="413.8"/>
			<path fill="#D8B60F" d="M372.2,328.9v20.5c-9.8,5.3-35.2,9.1-65.1,9.1c-14,0-26.9-0.8-37.8-2.3v63.1c-0.1,0-0.3,0-0.4,0
				c-1.6-0.2-3.2-0.5-4.7-0.7h0c-0.1,0-0.2,0-0.3-0.1c0,0,0,0,0,0c-2.7-0.5-5.2-1-7.5-1.5c-4.1-1-7.6-2.1-10.3-3.3
				c-4-1.7-6.2-3.7-6.2-5.7c0-2,2.2-4,6.2-5.7v-73.4c4.1,1.9,10.3,3.5,17.8,4.8c0,0,0,0,0,0c0.1,0,0.2,0,0.3,0.1h0
				c12.1,2.1,27.9,3.3,45.1,3.3C337.1,337,361.2,333.7,372.2,328.9z"/>
			<path fill="#D8B60F" d="M372.2,413.8v18c-11,4.7-35.1,8.1-62.9,8.1c-14.9,0-28.7-0.9-40-2.6v61.3c-17.8-2.5-29.3-6.7-29.3-11.4
				c0-2,2.2-4,6.1-5.7v-67.9c2.7,1.2,6.2,2.3,10.3,3.3c2.3,0.5,4.8,1.1,7.5,1.5c0,0,0,0,0,0c0.1,0,0.2,0,0.3,0.1h0
				c1.5,0.3,3.1,0.5,4.7,0.7l0.4,0.1c3.1,0.4,6.4,0.8,9.9,1.2c0.9,0.1,1.8,0.2,2.8,0.2c3.7,0.3,7.6,0.6,11.6,0.8
				c1.5,0.1,3.1,0.1,4.7,0.2c3.6,0.1,7.2,0.2,10.9,0.2c0.9,0,1.7,0,2.6,0c0.9,0,1.7,0,2.6,0c1.7,0,3.4-0.1,5.1-0.1
				c1.4,0,2.8-0.1,4.2-0.2c0.3,0,0.5,0,0.8,0c0.7,0,1.4-0.1,2.1-0.1c4.3-0.2,8.5-0.5,12.5-0.9c0.6,0,1.1-0.1,1.7-0.2
				c2.2-0.2,4.3-0.5,6.3-0.7c0.7-0.1,1.3-0.2,2-0.3c0.9-0.1,1.7-0.2,2.6-0.4c1-0.2,1.9-0.3,2.9-0.5c1.5-0.2,3-0.5,4.3-0.8
				c0.4-0.1,0.8-0.2,1.2-0.3c0.8-0.2,1.5-0.3,2.2-0.5c0.5-0.1,1-0.2,1.5-0.4c0.5-0.1,0.9-0.2,1.4-0.4c0.5-0.1,0.9-0.2,1.3-0.4
				c0.4-0.1,0.9-0.2,1.3-0.4c0.4-0.1,0.8-0.2,1.2-0.4c0.4-0.1,0.8-0.3,1.2-0.4c0.4-0.1,0.7-0.2,1.1-0.4
				C371.5,414.1,371.9,413.9,372.2,413.8z"/>
			<path fill="#FFDE17" d="M378.6,408c0,0.2,0,0.4-0.1,0.6c0,0,0,0,0,0.1c0,0,0,0.1,0,0.1c0,0.2-0.1,0.4-0.2,0.6c0,0,0,0.1-0.1,0.2
				c0,0.1-0.1,0.2-0.2,0.2c0,0,0,0.1-0.1,0.1l0,0c0,0,0,0,0,0l0,0h0c0,0,0,0,0,0c-0.2,0.2-0.3,0.4-0.5,0.6c-0.1,0.1-0.2,0.2-0.4,0.4
				c-0.1,0.1-0.3,0.2-0.4,0.4c-0.1,0.1-0.3,0.3-0.5,0.4c-0.2,0.1-0.3,0.2-0.5,0.4c-0.4,0.2-0.7,0.5-1.2,0.7
				c-0.4,0.2-0.9,0.5-1.4,0.7c-0.2,0.1-0.5,0.2-0.8,0.3c-0.3,0.1-0.7,0.3-1,0.4c-0.4,0.2-0.7,0.3-1.1,0.4c-0.4,0.2-0.8,0.3-1.2,0.4
				c-0.4,0.1-0.8,0.3-1.2,0.4c-0.4,0.2-0.9,0.3-1.3,0.4c-0.4,0.1-0.9,0.3-1.3,0.4c-0.5,0.1-0.9,0.3-1.4,0.4c-0.5,0.1-1,0.2-1.5,0.4
				c-0.7,0.2-1.4,0.3-2.2,0.5c-0.4,0.1-0.8,0.2-1.2,0.3c-1.4,0.3-2.8,0.6-4.3,0.8c-0.9,0.2-1.9,0.3-2.9,0.5
				c-0.8,0.1-1.7,0.3-2.6,0.4c-0.7,0.1-1.3,0.2-2,0.3c-2,0.3-4.1,0.5-6.3,0.7c-0.5,0.1-1.1,0.1-1.7,0.2c-4,0.4-8.1,0.7-12.5,0.9
				c-0.7,0-1.4,0.1-2.1,0.1c-0.3,0-0.5,0-0.8,0c-1.4,0.1-2.8,0.1-4.2,0.2c-1.7,0-3.4,0.1-5.1,0.1c-0.9,0-1.7,0-2.6,0
				c-0.9,0-1.7,0-2.6,0c-3.7,0-7.4-0.1-10.9-0.2c-1.6,0-3.2-0.1-4.7-0.2c-4-0.2-7.9-0.4-11.6-0.8c-0.9-0.1-1.8-0.2-2.8-0.2
				c-3.5-0.3-6.8-0.7-9.9-1.2v-63.1c10.9,1.4,23.9,2.3,37.8,2.3c29.9,0,55.4-3.8,65.1-9.1v52.8c0.3,0.1,0.5,0.2,0.8,0.3
				c1,0.5,1.9,0.9,2.6,1.5c0.2,0.1,0.4,0.3,0.6,0.4c0.1,0.1,0.2,0.1,0.3,0.2c0.5,0.4,0.9,0.7,1.2,1.1c0,0.1,0.1,0.1,0.1,0.2
				c0.1,0.1,0.1,0.2,0.2,0.3c0.1,0.2,0.2,0.4,0.3,0.6c0,0.1,0.1,0.3,0.1,0.4c0,0.1,0,0.1,0,0.2C378.6,407.6,378.6,407.8,378.6,408z"
				/>
			<path fill="#FFDE17" d="M378.6,487.3c0,7.7-31.1,13.9-69.4,13.9c-14.9,0-28.7-0.9-40-2.6v-61.3c11.3,1.6,25.1,2.6,40,2.6
				c27.9,0,51.9-3.3,62.9-8.1v49.6C376.3,483.2,378.6,485.2,378.6,487.3z"/>
			<path fill="#F9B233" d="M373,413.4c-0.2,0.1-0.5,0.2-0.8,0.4c-0.3,0.1-0.6,0.3-1,0.4c0.3-0.1,0.7-0.3,1-0.4
				C372.5,413.7,372.7,413.6,373,413.4z"/>
			<path fill="none" stroke="#04311C" stroke-width="4.4787" stroke-miterlimit="10" d="M372.1,481.5c4,1.7,6.2,3.7,6.2,5.8
				c0,7.7-30.9,13.9-69,13.9s-69-6.2-69-13.9c0-2,2-3.9,5.7-5.5"/>
			<g>
				<path fill="none" stroke="#04311C" stroke-width="4.4787" stroke-miterlimit="10" d="M246,401.6c-3.7,1.7-5.7,3.6-5.7,5.5
					c0,7.7,30.9,13.9,69,13.9c11,0,21.3-0.5,30.5-1.4"/>
				<path fill="none" stroke="#04311C" stroke-width="4.4787" stroke-miterlimit="10" d="M372.1,401.4c4,1.7,6.2,3.7,6.2,5.8
					c0,4.7-11.4,8.8-28.9,11.3"/>
			</g>
			
				<line fill="none" stroke="#04311C" stroke-width="4.4787" stroke-linecap="round" stroke-miterlimit="10" x1="372.2" y1="328.9" x2="372.1" y2="401.4"/>
			
				<line fill="none" stroke="#04311C" stroke-width="4.4787" stroke-linecap="round" stroke-miterlimit="10" x1="246.8" y1="328.9" x2="246.7" y2="401.4"/>
			
				<line fill="none" stroke="#04311C" stroke-width="4.4787" stroke-linecap="round" stroke-miterlimit="10" x1="246.8" y1="328.9" x2="246.7" y2="401.4"/>
			
				<line fill="none" stroke="#04311C" stroke-width="4.4787" stroke-linecap="round" stroke-miterlimit="10" x1="246.8" y1="328.9" x2="246.7" y2="401.4"/>
			
				<line fill="none" stroke="#04311C" stroke-width="4.4787" stroke-linecap="round" stroke-miterlimit="10" x1="246.8" y1="413" x2="246.7" y2="481.5"/>
			
				<line fill="none" stroke="#04311C" stroke-width="4.4787" stroke-linecap="round" stroke-miterlimit="10" x1="372.1" y1="413" x2="371.9" y2="481.5"/>
			<path fill="none" stroke="#04311C" stroke-width="4.4787" stroke-miterlimit="10" d="M272.9,311.2"/>
			<g>
				
					<path fill="none" stroke="#04311C" stroke-width="4.4787" stroke-linecap="round" stroke-linejoin="bevel" stroke-miterlimit="10" d="
					M272.3,311.6L272.3,311.6c-19.3,2.5-32,6.8-32,11.8c0,7.7,30.9,13.9,69,13.9s69-6.2,69-13.9c0-7.7-30.9-13.9-69-13.9
					c-8.9,0-17.4,0.3-25.2,1"/>
				
					<polyline fill="none" stroke="#04311C" stroke-width="4.4787" stroke-linecap="round" stroke-linejoin="bevel" stroke-miterlimit="10" points="
					272.3,311.6 272.2,311.6 272.9,303.5 283.9,303.5 284.2,310.3 284.1,310.3 				"/>
			</g>
			<line fill="none" stroke="#FFFFFF" stroke-width="5.5984" stroke-miterlimit="10" x1="352" y1="351" x2="352" y2="398.2"/>
			<line fill="none" stroke="#FFFFFF" stroke-width="5.5984" stroke-miterlimit="10" x1="352" y1="429.7" x2="352" y2="479.2"/>
		</g>
		<g>
			<g>
				<path fill="#001689" d="M304.8,405.9H282v-11.7h3.8v-25.5H282v-11.7h23.5c5.4,0,9.7,0.3,13.1,1c3.4,0.7,6.6,2,9.6,4.1
					c3,2.1,5.3,4.9,7,8.4c0.8,1.7,1.5,3.5,1.9,5.4c0.4,1.9,0.7,3.9,0.7,6.1c0,4.3-0.9,8.1-2.7,11.6c-1.8,3.5-4.1,6.1-6.8,8
					c-2.7,1.9-5.6,3.1-8.8,3.6C316.3,405.6,311.4,405.9,304.8,405.9z"/>
			</g>
			<g>
				<path fill="#FFFFFF" d="M308.7,396.3h-16.3v-7.2h2.3v-15.6h-2.4v-7.2h16.4v7.2h-2.4v15.6h2.4V396.3z M327.4,396.3h-15.6v-7.2
					h1.4l-6.6-8.5l7.7-7.1h-2.4v-7.2h14.8v7.2h-2.3l-6.1,5.7l7.7,9.9h1.5V396.3z"/>
			</g>
		</g>
	</g>
</g>
</svg>
