<svg id="icons" enable-background="new 0 0 64 64" height="512" viewBox="0 0 64 64" width="512" xmlns="http://www.w3.org/2000/svg"><path d="m20 38v-27.006c0-.553-.447-1-1-1h-2.078c-.488-3.387-3.401-6-6.92-6s-6.432 2.613-6.92 6h-2.082c-.553 0-1 .447-1 1v27.006c0 .553.447 1 1 1h18c.553 0 1-.447 1-1zm-9.998-32.006c2.757 0 5 2.243 5 5 0 1.124-.386 2.15-1.014 2.987-.407-.538-.923-.975-1.502-1.308.325-.479.516-1.058.516-1.68 0-1.654-1.346-3-3-3s-3 1.346-3 3c0 .621.19 1.199.515 1.679-.578.333-1.095.77-1.502 1.307-.626-.834-1.011-1.858-1.012-2.979 0-.003.001-.005.001-.007s-.001-.004-.001-.007c.003-2.752 2.244-4.992 4.999-4.992zm0 6c-.552 0-1-.448-1-1s.448-1 1-1 1 .448 1 1-.448 1-1 1zm-.002 2c1.009 0 1.927.513 2.477 1.32-.733.422-1.57.682-2.475.682s-1.743-.261-2.477-.683c.551-.807 1.469-1.319 2.475-1.319zm8 23.006h-16v-25.006h1.082c.254 1.762 1.157 3.316 2.469 4.4.005.004.01.007.015.011 1.209.993 2.754 1.591 4.437 1.591 3.52 0 6.433-2.614 6.92-6.002h1.077z"/><path d="m15 20.996h-10.002c-.553 0-1 .447-1 1s.447 1 1 1h10.002c.553 0 1-.447 1-1s-.447-1-1-1z"/><path d="m15 23.996h-10.002c-.553 0-1 .447-1 1s.447 1 1 1h10.002c.553 0 1-.447 1-1s-.447-1-1-1z"/><path d="m13 27.996c0-.553-.447-1-1-1h-4.002c-.553 0-1 .447-1 1s.447 1 1 1h4.002c.553 0 1-.447 1-1z"/><path d="m7.022 32.002h-.01c-.552 0-.994.447-.994 1s.452 1 1.005 1c.552 0 1-.447 1-1s-.449-1-1.001-1z"/><path d="m10.022 32.002h-.011c-.552 0-.994.447-.994 1s.452 1 1.005 1c.552 0 1-.447 1-1s-.448-1-1-1z"/><path d="m13.024 32.002h-.011c-.552 0-.994.447-.994 1s.452 1 1.005 1c.552 0 1-.447 1-1s-.448-1-1-1z"/><path d="m41 39c.553 0 1-.447 1-1v-27.006c0-.553-.447-1-1-1h-2.078c-.488-3.387-3.401-6-6.92-6s-6.432 2.613-6.92 6h-2.082c-.553 0-1 .447-1 1v27.006c0 .553.447 1 1 1zm-8.998-33.006c2.757 0 5 2.243 5 5 0 1.124-.386 2.15-1.014 2.987-.407-.538-.923-.975-1.502-1.308.325-.479.516-1.058.516-1.68 0-1.654-1.346-3-3-3s-3 1.346-3 3c0 .621.19 1.199.515 1.679-.578.333-1.095.77-1.502 1.307-.626-.834-1.011-1.858-1.012-2.979 0-.003.001-.005.001-.007s-.001-.004-.001-.007c.003-2.752 2.244-4.992 4.999-4.992zm0 6c-.552 0-1-.448-1-1s.448-1 1-1 1 .448 1 1-.448 1-1 1zm-.002 2c1.009 0 1.927.513 2.477 1.32-.733.422-1.57.682-2.475.682s-1.743-.261-2.477-.683c.551-.807 1.469-1.319 2.475-1.319zm-8-2h1.082c.254 1.762 1.157 3.316 2.469 4.4.005.004.01.007.015.011 1.209.993 2.754 1.591 4.437 1.591 3.52 0 6.433-2.614 6.92-6.002h1.077v25.006h-16z"/><path d="m37 20.996h-10.002c-.553 0-1 .447-1 1s.447 1 1 1h10.002c.553 0 1-.447 1-1s-.447-1-1-1z"/><path d="m37 23.996h-10.002c-.553 0-1 .447-1 1s.447 1 1 1h10.002c.553 0 1-.447 1-1s-.447-1-1-1z"/><path d="m35 27.996c0-.553-.447-1-1-1h-4.002c-.553 0-1 .447-1 1s.447 1 1 1h4.002c.553 0 1-.447 1-1z"/><path d="m29.022 32.002h-.011c-.552 0-.994.447-.994 1s.452 1 1.005 1c.552 0 1-.447 1-1s-.448-1-1-1z"/><path d="m32.022 32.002h-.011c-.552 0-.994.447-.994 1s.452 1 1.005 1c.552 0 1-.447 1-1s-.448-1-1-1z"/><path d="m35.024 32.002h-.011c-.552 0-.994.447-.994 1s.452 1 1.005 1c.552 0 1-.447 1-1s-.448-1-1-1z"/><path d="m63 9.994h-2.08c-.488-3.387-3.401-6-6.92-6s-6.432 2.613-6.92 6h-2.08c-.553 0-1 .447-1 1v27.006c0 .553.447 1 1 1h18c.553 0 1-.447 1-1v-27.006c0-.553-.447-1-1-1zm-9-4c2.757 0 5 2.243 5 5 0 1.123-.386 2.149-1.013 2.985-.407-.537-.923-.974-1.502-1.307.325-.479.515-1.057.515-1.678 0-1.654-1.346-3-3-3s-3 1.346-3 3c0 .621.19 1.199.515 1.679-.579.333-1.095.77-1.502 1.307-.625-.832-1.009-1.854-1.012-2.973 0-.005.003-.008.003-.013s-.003-.008-.003-.013c.008-2.751 2.247-4.987 4.999-4.987zm-1 5c0-.552.448-1 1-1s1 .448 1 1-.448 1-1 1-1-.448-1-1zm1 3c1.008 0 1.926.512 2.476 1.319-.732.422-1.57.683-2.476.683s-1.743-.261-2.476-.683c.55-.807 1.468-1.319 2.476-1.319zm8 23.006h-16v-25.006h1.08c.254 1.765 1.16 3.32 2.475 4.404 0 .001.001.001.001.001 1.21.997 2.759 1.597 4.444 1.597s3.234-.6 4.444-1.597c0 0 .001 0 .001-.001 1.314-1.084 2.221-2.64 2.475-4.404h1.08z"/><path d="m59 20.996h-10.002c-.553 0-1 .447-1 1s.447 1 1 1h10.002c.553 0 1-.447 1-1s-.447-1-1-1z"/><path d="m59 23.996h-10.002c-.553 0-1 .447-1 1s.447 1 1 1h10.002c.553 0 1-.447 1-1s-.447-1-1-1z"/><path d="m57 27.996c0-.553-.447-1-1-1h-4.002c-.553 0-1 .447-1 1s.447 1 1 1h4.002c.553 0 1-.447 1-1z"/><path d="m51.022 32.002h-.011c-.552 0-.994.447-.994 1s.452 1 1.005 1c.552 0 1-.447 1-1s-.448-1-1-1z"/><path d="m54.021 32.002h-.011c-.552 0-.994.447-.994 1s.452 1 1.005 1c.552 0 1-.447 1-1s-.449-1-1-1z"/><path d="m57.024 32.002h-.011c-.552 0-.994.447-.994 1s.452 1 1.005 1c.552 0 1-.447 1-1s-.448-1-1-1z"/><path d="m19 46.006c-2.756 0-4.998 2.243-4.998 5 0 2.756 2.242 4.998 4.998 4.998s4.998-2.242 4.998-4.998c0-2.757-2.242-5-4.998-5zm0 7.998c-1.653 0-2.998-1.345-2.998-2.998 0-1.654 1.345-3 2.998-3s2.998 1.346 2.998 3c0 1.653-1.345 2.998-2.998 2.998z"/><path d="m53.002 48.002h-25.526c-1.24-3.488-4.565-5.996-8.474-5.996-4.963 0-9 4.037-9 9s4.037 9 9 9c3.91 0 7.235-2.51 8.475-6h9.525v1.996c0 .553.447 1 1 1h4.998c.553 0 1-.447 1-1v-1.996h1.002v2.998c0 .553.447 1 1 1h6c.553 0 1-.447 1-1v-2.998c.553 0 1-.447 1-1v-4.004c0-.553-.447-1-1-1zm-34 10.004c-3.859 0-7-3.141-7-7s3.141-7 7-7 7 3.141 7 7-3.141 7-7 7zm8.94-8.004h24.06v2.004h-24.059c.036-.329.059-.662.059-1 0-.34-.023-.674-.06-1.004zm14.058 5h-2.998v-.996h2.998zm9.002 1.002h-4v-1.998h4z"/></svg>