<?xml version="1.0" encoding="utf-8"?>
<!-- Generator: Adobe Illustrator 24.1.2, SVG Export Plug-In . SVG Version: 6.00 Build 0)  -->
<svg version="1.1" id="Office_1" xmlns="http://www.w3.org/2000/svg" xmlns:xlink="http://www.w3.org/1999/xlink" x="0px" y="0px"
	 width="512px" height="512px" viewBox="0 0 512 512" enable-background="new 0 0 512 512" xml:space="preserve">
<path fill="#C0E0FF" d="M506.6,261.4C506.6,399.8,394.4,512,256,512S5.4,399.8,5.4,261.4c0-39.6,9.2-77.1,25.6-110.4
	c5.2-10.5,19.6-7.8,26.1-17.4c8.3-12.2,9.1-36.5,19.4-47C122,39.9,185.6,10.8,256,10.8c73.7,0,139.9,31.8,185.7,82.4
	c3.9,4.3-14.8,8.8-11.2,13.4c3.6,4.6,29.6,9.3,32.9,14.2C490.7,160.9,506.6,209.3,506.6,261.4L506.6,261.4z"/>
<path fill="#5E5E5E" d="M256,512c97.9,0,182.7-56.2,223.9-138.1v-60.6v-135c0-8.1-6.6-14.7-14.7-14.7h-92.1h-63.4h-25.6h-66.5h-15.3
	h-73.7H46.9c-8.1,0-14.7,6.6-14.7,14.7v135v61C73.5,456,158.2,512,256,512L256,512z"/>
<path fill="#333333" d="M309.8,163.6h-25.6h-66.5h-15.3h-73.7h-8.8v308.3c37.2,24.1,81.1,38.6,128.3,40c39.5-1,77-8.8,111-22.1
	c0,0,0,0,0.1,0V163.6L309.8,163.6z"/>
<g>
	<path fill="#FFFFFF" d="M454.9,255h-79.2H320H57.2c-3.9,0-7.1,3.2-7.1,7.1v10.7c0,3.9,3.2,7.1,7.1,7.1H320h55.7h79.2
		c3.9,0,7.1-3.2,7.1-7.1v-10.7C462,258.2,458.8,255,454.9,255L454.9,255z"/>
	<path fill="#FFFFFF" d="M454.9,310.2h-79.2H320H57.2c-3.9,0-7.1,3.2-7.1,7.1V328c0,3.9,3.2,7.1,7.1,7.1H320h55.7h79.2
		c3.9,0,7.1-3.2,7.1-7.1v-10.7C462,313.4,458.8,310.2,454.9,310.2z"/>
	<path fill="#FFFFFF" d="M454.9,368.5h-79.2H320H57.2c-3.9,0-7.1,3.2-7.1,7.1v10.7c0,3.9,3.2,7.1,7.1,7.1H320h55.7h79.2
		c3.9,0,7.1-3.2,7.1-7.1v-10.7C462,371.7,458.8,368.5,454.9,368.5z"/>
	<path fill="#FFFFFF" d="M454.9,199.8h-79.2H320H57.2c-3.9,0-7.1,3.2-7.1,7.1v10.7c0,3.9,3.2,7.1,7.1,7.1H320h55.7h79.2
		c3.9,0,7.1-3.2,7.1-7.1v-10.7C462,202.9,458.8,199.8,454.9,199.8z"/>
</g>
<path fill="#CECECE" d="M119.9,255v24.9H320h39.3V255H320H119.9z"/>
<path fill="#CECECE" d="M119.9,310.2v24.9H320h39.3v-24.9H320H119.9z"/>
<path fill="#CECECE" d="M119.9,368.5v24.9H320h39.3v-24.9H320H119.9z"/>
<path fill="#CECECE" d="M359.3,224.7v-24.9H320H119.9v24.9H320H359.3z"/>
<path fill="#FF3972" d="M344.6,0H167.9c-8.1,0-14.7,6.6-14.7,14.7v18.1v2.9V490c31.4,14.1,66.1,22,102.7,22
	c36.8,0,71.8-7.9,103.3-22.2V33v-2.7V14.7C359.3,6.6,352.7,0,344.6,0L344.6,0z"/>
<path fill="#CC175D" d="M216.6,0h-48.6c-8.1,0-14.7,6.6-14.7,14.7v18.1v2.9V490c17,7.6,34.9,13.4,53.7,17.1V12.4
	C206.9,6.4,211,1.4,216.6,0L216.6,0z"/>
<path fill="#FFFFFF" d="M332.2,40.3h-152c-3.9,0-7.1,3.2-7.1,7.1V61c0,3.9,3.2,7.1,7.1,7.1h152c3.9,0,7.1-3.2,7.1-7.1V47.4
	C339.3,43.5,336.1,40.3,332.2,40.3z"/>
<path fill="#CECECE" d="M173.1,46.5v15.3c0,3.4,2.8,6.2,6.2,6.2h27.6V40.3h-27.6C175.9,40.3,173.1,43.1,173.1,46.5z"/>
<path fill="#FFFFFF" d="M333.1,101.4H179.3c-3.4,0-6.2,2.8-6.2,6.2v15.3c0,3.4,2.8,6.2,6.2,6.2h153.7c3.4,0,6.2-2.8,6.2-6.2v-15.3
	C339.3,104.2,336.5,101.4,333.1,101.4z"/>
<path fill="#CECECE" d="M173.1,107.6v15.3c0,3.4,2.8,6.2,6.2,6.2h27.6v-27.8h-27.6C175.9,101.4,173.1,104.2,173.1,107.6z"/>
<path fill="#FFFFFF" d="M333.1,162.5H179.3c-3.4,0-6.2,2.8-6.2,6.2V184c0,3.4,2.8,6.2,6.2,6.2h153.7c3.4,0,6.2-2.8,6.2-6.2v-15.3
	C339.3,165.2,336.5,162.5,333.1,162.5z"/>
<path fill="#CECECE" d="M173.1,168.7V184c0,3.4,2.8,6.2,6.2,6.2h27.6v-27.8h-27.6C175.9,162.5,173.1,165.2,173.1,168.7z"/>
<path fill="#FFFFFF" d="M333.1,223.5H179.3c-3.4,0-6.2,2.8-6.2,6.2v15.3c0,3.4,2.8,6.2,6.2,6.2h153.7c3.4,0,6.2-2.8,6.2-6.2v-15.3
	C339.3,226.3,336.5,223.5,333.1,223.5z"/>
<path fill="#CECECE" d="M173.1,229.7v15.3c0,3.4,2.8,6.2,6.2,6.2h27.6v-27.8h-27.6C175.9,223.5,173.1,226.3,173.1,229.7z"/>
<path fill="#FFFFFF" d="M333.1,284.6H179.3c-3.4,0-6.2,2.8-6.2,6.2v15.3c0,3.4,2.8,6.2,6.2,6.2h153.7c3.4,0,6.2-2.8,6.2-6.2v-15.3
	C339.3,287.4,336.5,284.6,333.1,284.6z"/>
<path fill="#CECECE" d="M173.1,290.8v15.3c0,3.4,2.8,6.2,6.2,6.2h27.6v-27.8h-27.6C175.9,284.6,173.1,287.4,173.1,290.8L173.1,290.8
	z"/>
<path fill="#FFFFFF" d="M332.2,345.7h-152c-3.9,0-7.1,3.2-7.1,7.1v13.6c0,3.9,3.2,7.1,7.1,7.1h152c3.9,0,7.1-3.2,7.1-7.1v-13.6
	C339.3,348.9,336.1,345.7,332.2,345.7z"/>
<path fill="#CECECE" d="M173.1,351.9v15.3c0,3.4,2.8,6.2,6.2,6.2h27.6v-27.8h-27.6C175.9,345.7,173.1,348.5,173.1,351.9L173.1,351.9
	z"/>
<path fill="#FFFFFF" d="M142.5,138.4c0-7-5.7-12.7-12.7-12.7H75.6c-5.4,0-9.8-4.4-9.8-9.8c0-5.4,4.4-9.8,9.8-9.8h20.3c5,0,9-4,9-9
	v-1.6c0-5-4-9-9-9H76.5C58.1,105.4,42.7,127.2,31,151h98.8C136.8,151,142.5,145.4,142.5,138.4z"/>
<path fill="#FFFFFF" d="M381.7,106.9c0,7.6,6.2,13.8,13.7,13.8l68,0c-6.6-9.7-13.8-18.9-21.7-27.5l-46.3,0
	C387.9,93.2,381.7,99.4,381.7,106.9z"/>
<g>
	
		<image overflow="visible" opacity="0.75" width="360" height="283" xlink:href="BB6DA6EE.png"  transform="matrix(1 0 0 1 81.9765 159.9765)">
	</image>
	<g>
		<g>
			<polygon fill="#FFC837" stroke="#E5AA0A" stroke-width="11.3376" stroke-miterlimit="10" points="365,192.6 365,209.2 
				341.5,209.2 341.5,192.6 94.9,192.6 94.9,213.9 102.6,213.9 102.6,417.3 409.4,417.3 409.4,213.9 417.1,213.9 417.1,192.6 			"/>
			<path fill="none" stroke="#000000" stroke-width="1.0408" stroke-linecap="round" stroke-miterlimit="10" d="M346,417.2v-9.6
				h14.3v9.6h3.5V213.9h-3.5v10.2H346v-10.2h-3.5v203.2H346z M346,228h14.3v11H346V228z M346,243h14.3v11H346V243z M346,258h14.3v11
				H346V258z M346,272.9h14.3v11H346V272.9z M346,287.9h14.3v11H346V287.9z M346,302.8h14.3v11H346V302.8z M346,317.8h14.3v11H346
				V317.8z M346,332.7h14.3v11H346V332.7z M346,347.7h14.3v11H346V347.7z M346,362.7h14.3v11H346V362.7z M346,377.6h14.3v11H346
				V377.6z M346,392.6h14.3v11H346V392.6z"/>
			<path fill="#F7931E" d="M406.7,190.7c-47.5-8.9-96.5-13.6-146.5-13.9v-3.2c1.7-0.6,2.8-1.6,2.8-2.7c0-1.9-3.2-3.4-7.1-3.4
				s-7.1,1.5-7.1,3.4c0,1.1,1.2,2.1,2.8,2.7v3.2c-50.4,0.2-99.8,5-147.7,13.9h241.5v13.6h15.2v-13.6H406.7z"/>
			<path opacity="0.5" fill="#FFFFFF" d="M135.8,389.8c0,5.1-2.3,9.2-5.1,9.2h-6.8c-2.8,0-5.1-4.1-5.1-9.2V241.5
				c0-5.1,2.3-9.2,5.1-9.2h6.8c2.8,0,5.1,4.1,5.1,9.2V389.8z M125.6,197.3h-8.5v11.9h8.5V197.3z M140.6,197.3h-8.5v11.9h8.5V197.3z
				 M155.5,197.3h-8.5v11.9h8.5V197.3z M170.5,197.3H162v11.9h8.5V197.3z M185.5,197.3H177v11.9h8.5V197.3z M200.4,197.3h-8.5v11.9
				h8.5V197.3z M215.4,197.3h-8.5v11.9h8.5V197.3z M230.3,197.3h-8.5v11.9h8.5V197.3z M245.3,197.3h-8.5v11.9h8.5V197.3z
				 M260.2,197.3h-8.5v11.9h8.5V197.3z M275.2,197.3h-8.5v11.9h8.5V197.3z M290.2,197.3h-8.5v11.9h8.5V197.3z M305.1,197.3h-8.5
				v11.9h8.5V197.3z M320.1,197.3h-8.5v11.9h8.5V197.3z M335,197.3h-8.5v11.9h8.5V197.3z M379.9,197.3h-8.5v11.9h8.5V197.3z
				 M394.9,197.3h-8.5v11.9h8.5V197.3z M110.6,197.3h-8.5v11.9h8.5V197.3z M409.8,197.3h-8.5v11.9h8.5V197.3z"/>
		</g>
	</g>
</g>
</svg>
