<?xml version="1.0" encoding="utf-8"?>
<!-- Generator: Adobe Illustrator 24.1.2, SVG Export Plug-In . SVG Version: 6.00 Build 0)  -->
<svg version="1.1" id="Layer_1" xmlns="http://www.w3.org/2000/svg" xmlns:xlink="http://www.w3.org/1999/xlink" x="0px" y="0px"
	 width="512px" height="512px" viewBox="0 0 512 512" enable-background="new 0 0 512 512" xml:space="preserve">
<circle fill="#FFFFFF" cx="256" cy="256" r="256"/>
<g>
	<defs>
		<circle id="SVGID_1_" cx="256" cy="256" r="256"/>
	</defs>
	<clipPath id="SVGID_2_">
		<use xlink:href="#SVGID_1_"  overflow="visible"/>
	</clipPath>
	<g clip-path="url(#SVGID_2_)">
		<path fill="#F8BD83" d="M384.3,236.1c0,0,99.4,131.1,120,197.7c20.5,66.6,5,189.7,5,189.7l-133.8,31.8c0,0-57.7-107.3-56.3-128
			c1.4-20.7,5-251.7,12.7-255.1C339.4,268.7,384.3,236.1,384.3,236.1z"/>
		<path fill="#F7AC6F" d="M426.1,312.9c0,0,13.2,70.9,7.8,98.3c-5.5,27.4-21,34.9-31.9,30.8c-10.9-4.1-50.4-77.5-50.4-77.5
			L426.1,312.9z"/>
		<path fill="#F7AC6F" d="M364.5,383.1l-68.2,78.4c-10.5,12.1-28.9,13.3-41,2.9l0,0c-12.1-10.5-13.3-28.9-2.9-41l68.2-78.4
			c10.5-12.1,28.9-13.3,41-2.9l0,0C373.7,352.6,375,371,364.5,383.1z"/>
		<path fill="#F7AC6F" d="M335.1,338.3l-68.2,78.4c-10.5,12.1-28.9,13.3-41,2.9l0,0c-12.1-10.5-13.3-28.9-2.9-41l68.2-78.4
			c10.5-12.1,28.9-13.3,41-2.9l0,0C344.2,307.8,345.5,326.2,335.1,338.3z"/>
		<g>
			<g>
				<path fill="#006F8A" d="M161.8,101.2l293.8,151.1c5.6,2.9,7.8,9.8,4.9,15.4l-83.4,162.3c-2.9,5.6-9.8,7.8-15.4,4.9L68,283.8
					c-5.6-2.9-7.8-9.8-4.9-15.4l83.4-162.3C149.3,100.5,156.2,98.3,161.8,101.2z"/>
				<path fill="#3A90A5" d="M161.8,101.2l293.8,151.1c3.5,1.8,5.7,5.2,6.1,8.8c-1.1-1.9-2.6-3.5-4.7-4.5L163.3,105.5
					c-5.6-2.9-12.5-0.7-15.4,4.9L64.4,272.7c-1.1,2.1-1.4,4.4-1.2,6.6c-1.8-3.2-2.1-7.3-0.2-10.9l83.4-162.3
					C149.3,100.5,156.2,98.3,161.8,101.2z"/>
				
					<linearGradient id="SVGID_3_" gradientUnits="userSpaceOnUse" x1="361.3117" y1="80.1987" x2="180.1814" y2="198.2143" gradientTransform="matrix(-0.8894 -0.4572 -0.4572 0.8894 572.8356 279.5215)">
					<stop  offset="0" style="stop-color:#B3B3B3"/>
					<stop  offset="0.1626" style="stop-color:#C2C2C2"/>
					<stop  offset="0.4396" style="stop-color:#D6D6D6"/>
					<stop  offset="0.7185" style="stop-color:#E2E2E2"/>
					<stop  offset="1" style="stop-color:#E6E6E6"/>
				</linearGradient>
				<path fill="url(#SVGID_3_)" d="M360.4,430.6c5.6,2.9,12.5,0.7,15.4-4.9l83.4-162.3c1.1-2.1,1.4-4.4,1.2-6.6
					c1.8,3.2,2.1,7.3,0.2,10.9l-83.4,162.3c-2.9,5.6-9.8,7.8-15.4,4.9L68,283.8c-3.5-1.8-5.7-5.2-6.1-8.8c1.1,1.9,2.6,3.5,4.7,4.5
					L360.4,430.6z"/>
			</g>
			<path fill="#3A90A5" d="M460.6,267.6l-83.4,162.3c-1.2,2.3-3.1,4-5.3,5.1c-83.8-65.5-121.9-173.8-98.7-276.6l182.5,93.8
				C461.3,255.1,463.5,262,460.6,267.6z"/>
			<g>
				<g>
					<path fill="#CCE2E8" d="M216.2,255.4c6.2,3.2,13.9,0.7,17.1-5.5c3.2-6.2,0.7-13.9-5.5-17.1c-6.2-3.2-13.9-0.7-17.1,5.5
						C207.5,244.5,209.9,252.2,216.2,255.4z"/>
					<g>
						<path fill="#CCE2E8" d="M176.5,220.7c11-21.5,32-22.5,32.9-22.5c5.2-0.2,9.6,3.9,9.8,9.1c0.1,1.7-0.3,3.3-1,4.7
							c-1.5,2.9-4.5,5-8,5.1c-0.1,0-10.9,0.7-16.8,12.3c-5.8,11.3-0.5,20.4-0.1,20.9c1.9,2.9,1.9,6.5,0.5,9.4
							c-0.7,1.4-1.8,2.6-3.2,3.6c-4.4,2.9-10.2,1.7-13.1-2.7C176.8,259.8,165.5,242.1,176.5,220.7z"/>
						<path fill="#CCE2E8" d="M140.2,202.1c19.6-38.1,56.2-39.9,57.8-39.9c5.2-0.2,9.5,3.8,9.8,9c0.1,1.7-0.3,3.3-1,4.7
							c-1.5,2.9-4.5,5-8,5.1c-1.1,0.1-27.4,1.7-41.8,29.7c-14.3,27.9-0.5,50.2,0.1,51.2c1.9,2.9,2,6.6,0.5,9.5
							c-0.7,1.4-1.8,2.6-3.2,3.6c-4.4,2.9-10.2,1.7-13.1-2.7C140.5,271,120.7,240.1,140.2,202.1z"/>
					</g>
				</g>
			</g>
		</g>
		<path fill="#F8BD83" d="M362.6,624.5c0,0-50.9-55.5-60.4-95.6c-9.5-40.1,10.8-106.6,5.3-136.3c-3.2-17.2-15.7-49.3-16.5-76.3
			c-0.8-26.3,8.3-41.5,21.5-44.6c12.3-2.9,26.7,9.2,35.6,32c10.4,26.6,10,54.8,14.5,69.6c10.6,35.1,50.3,72.9,65.3,122.7
			c15,49.8,12.9,100.6,1,103.4C417,602.1,398.7,644.2,362.6,624.5z"/>
		<path fill="#FACC9F" d="M319.5,323.9l6-1.4c9.4-2.2,15.3-11.8,13.1-21.2L334,282c-2.2-9.4-11.8-15.3-21.2-13.1l-6,1.4
			c-9.4,2.2-15.3,11.8-13.1,21.2l4.6,19.2C300.5,320.3,310,326.1,319.5,323.9z"/>
		<g>
			<path fill="#F59A50" d="M347.7,353c0,0-8.3-2.7-18.7,0.3c-10.5,3-15.6,9.6-15.6,9.6s5.3-4.1,16.5-7.3
				C341.1,352.4,347.7,353,347.7,353z"/>
			<path fill="#F59A50" d="M349.3,358.5c0,0-8.3-2.7-18.7,0.3c-10.5,3-15.6,9.6-15.6,9.6s5.3-4.1,16.5-7.3
				C342.7,357.8,349.3,358.5,349.3,358.5z"/>
		</g>
	</g>
</g>
</svg>
