<?xml version="1.0" encoding="utf-8"?>
<!-- Generator: Adobe Illustrator 24.1.2, SVG Export Plug-In . SVG Version: 6.00 Build 0)  -->
<svg version="1.1" id="Layer_1" xmlns="http://www.w3.org/2000/svg" xmlns:xlink="http://www.w3.org/1999/xlink" x="0px" y="0px"
	 width="512px" height="512px" viewBox="0 0 512 512" enable-background="new 0 0 512 512" xml:space="preserve">
<g>
	<circle fill="#FFFFFF" cx="256" cy="256" r="256"/>
</g>
<g>
	<defs>
		<circle id="SVGID_1_" cx="256" cy="256" r="256"/>
	</defs>
	<clipPath id="SVGID_2_">
		<use xlink:href="#SVGID_1_"  overflow="visible"/>
	</clipPath>
	<g clip-path="url(#SVGID_2_)">
		<path fill="#C2C7CA" d="M344.7,204.8H201.2c-6.2,0-12.1,2.4-16.5,6.8c-4.4,4.4-6.8,10.2-6.8,16.5l0.1,29.6l7.2,0l-0.1-29.6
			c0-4.3,1.7-8.3,4.7-11.4c3-3,7.1-4.7,11.4-4.7h143.5V204.8z"/>
		<path fill="#C2C7CA" d="M344.7,192.7H57.9c-12.8,0-23.3,10.4-23.3,23.3v55.4h7.2v-55.4c0-8.9,7.2-16.1,16.1-16.1h286.8V192.7z"/>
		<path fill="#C2C7CA" d="M360.8,362.3H340c-8,0-14.4-6.5-14.4-14.4V291c0-8,6.5-14.4,14.4-14.4h37.6v9.6H340
			c-2.7,0-4.9,2.2-4.9,4.9v56.9c0,2.7,2.2,4.9,4.9,4.9h20.7V362.3z"/>
		<path fill="#C2C7CA" d="M305.9,377h-9.6V234.9c0-11.1,9-20.1,20.1-20.1h45.8c11.1,0,20.1,9,20.1,20.1v125.3h-9.6V234.9
			c0-5.8-4.7-10.6-10.6-10.6h-45.8c-5.8,0-10.6,4.7-10.6,10.6V377z"/>
		<g>
			<rect x="-17.1" y="311.6" fill="#161414" width="31.7" height="80.4"/>
			<rect x="62" y="311.6" fill="#161414" width="31.7" height="80.4"/>
		</g>
		
			<ellipse transform="matrix(0.7071 -0.7071 0.7071 0.7071 -209.1074 118.3102)" fill="#2F9DBA" cx="38.3" cy="311.6" rx="55.4" ry="55.4"/>
		<g>
			<rect x="126.2" y="311.6" fill="#161414" width="31.7" height="80.4"/>
			<rect x="205.3" y="311.6" fill="#161414" width="31.7" height="80.4"/>
		</g>
		
			<ellipse transform="matrix(0.3673 -0.9301 0.9301 0.3673 -174.8957 366.0462)" fill="#2F9DBA" cx="181.6" cy="311.6" rx="55.4" ry="55.4"/>
		<circle fill="#2D889E" cx="377.6" cy="281.3" r="34.4"/>
		<g>
			<circle fill="#161414" cx="377.6" cy="255.2" r="3.8"/>
			<path fill="#161414" d="M381.4,307.5c0,2.1-1.7,3.8-3.8,3.8s-3.8-1.7-3.8-3.8c0-2.1,1.7-3.8,3.8-3.8S381.4,305.4,381.4,307.5z"/>
			<path fill="#161414" d="M367.8,256.8c1,1.8,0.4,4.1-1.4,5.2c-1.8,1-4.1,0.4-5.2-1.4c-1-1.8-0.4-4.1,1.4-5.2
				C364.5,254.4,366.8,255,367.8,256.8z"/>
			<path fill="#161414" d="M394,302.1c1,1.8,0.4,4.1-1.4,5.2c-1.8,1-4.1,0.4-5.2-1.4c-1-1.8-0.4-4.1,1.4-5.2
				C390.6,299.7,392.9,300.3,394,302.1z"/>
			<path fill="#161414" d="M356.9,265c1.8,1,2.4,3.4,1.4,5.2c-1,1.8-3.4,2.4-5.2,1.4c-1.8-1-2.4-3.4-1.4-5.2
				C352.7,264.6,355.1,264,356.9,265z"/>
			<path fill="#161414" d="M402.1,291.1c1.8,1,2.4,3.4,1.4,5.2c-1,1.8-3.4,2.4-5.2,1.4c-1.8-1-2.4-3.4-1.4-5.2
				C398,290.7,400.3,290.1,402.1,291.1z"/>
			<path fill="#161414" d="M351.5,277.6c2.1,0,3.8,1.7,3.8,3.8c0,2.1-1.7,3.8-3.8,3.8c-2.1,0-3.8-1.7-3.8-3.8
				C347.7,279.3,349.4,277.6,351.5,277.6z"/>
			<path fill="#161414" d="M403.8,277.6c2.1,0,3.8,1.7,3.8,3.8c0,2.1-1.7,3.8-3.8,3.8c-2.1,0-3.8-1.7-3.8-3.8
				C400,279.3,401.7,277.6,403.8,277.6z"/>
			<path fill="#161414" d="M353.1,291.1c1.8-1,4.1-0.4,5.2,1.4c1,1.8,0.4,4.1-1.4,5.2c-1.8,1-4.1,0.4-5.2-1.4
				C350.7,294.5,351.3,292.2,353.1,291.1z"/>
			<path fill="#161414" d="M398.4,265c1.8-1,4.1-0.4,5.2,1.4c1,1.8,0.4,4.1-1.4,5.2s-4.1,0.4-5.2-1.4
				C395.9,268.3,396.6,266,398.4,265z"/>
			<path fill="#161414" d="M361.3,302.1c1-1.8,3.4-2.4,5.2-1.4c1.8,1,2.4,3.4,1.4,5.2c-1,1.8-3.4,2.4-5.2,1.4
				C360.8,306.2,360.2,303.9,361.3,302.1z"/>
			<path fill="#161414" d="M387.4,256.8c1-1.8,3.4-2.4,5.2-1.4c1.8,1,2.4,3.4,1.4,5.2c-1,1.8-3.4,2.4-5.2,1.4
				S386.4,258.6,387.4,256.8z"/>
		</g>
		<circle fill="#2F9DBA" cx="377.6" cy="357.6" r="34.4"/>
		<g>
			<path fill="#161414" d="M381.4,331.4c0,2.1-1.7,3.8-3.8,3.8s-3.8-1.7-3.8-3.8c0-2.1,1.7-3.8,3.8-3.8S381.4,329.3,381.4,331.4z"/>
			<path fill="#161414" d="M381.4,383.7c0,2.1-1.7,3.8-3.8,3.8s-3.8-1.7-3.8-3.8c0-2.1,1.7-3.8,3.8-3.8S381.4,381.6,381.4,383.7z"/>
			<path fill="#161414" d="M367.8,333c1,1.8,0.4,4.1-1.4,5.2c-1.8,1-4.1,0.4-5.2-1.4c-1-1.8-0.4-4.1,1.4-5.2
				C364.5,330.6,366.8,331.2,367.8,333z"/>
			<path fill="#161414" d="M394,378.3c1,1.8,0.4,4.1-1.4,5.2c-1.8,1-4.1,0.4-5.2-1.4c-1-1.8-0.4-4.1,1.4-5.2
				C390.6,375.9,392.9,376.5,394,378.3z"/>
			<path fill="#161414" d="M356.9,341.2c1.8,1,2.4,3.4,1.4,5.2c-1,1.8-3.4,2.4-5.2,1.4c-1.8-1-2.4-3.4-1.4-5.2
				C352.7,340.8,355.1,340.2,356.9,341.2z"/>
			<path fill="#161414" d="M402.1,367.4c1.8,1,2.4,3.4,1.4,5.2c-1,1.8-3.4,2.4-5.2,1.4c-1.8-1-2.4-3.4-1.4-5.2
				C398,366.9,400.3,366.3,402.1,367.4z"/>
			<path fill="#161414" d="M351.5,353.8c2.1,0,3.8,1.7,3.8,3.8c0,2.1-1.7,3.8-3.8,3.8c-2.1,0-3.8-1.7-3.8-3.8
				C347.7,355.5,349.4,353.8,351.5,353.8z"/>
			<path fill="#161414" d="M403.8,353.8c2.1,0,3.8,1.7,3.8,3.8c0,2.1-1.7,3.8-3.8,3.8c-2.1,0-3.8-1.7-3.8-3.8
				C400,355.5,401.7,353.8,403.8,353.8z"/>
			<path fill="#161414" d="M353.1,367.4c1.8-1,4.1-0.4,5.2,1.4c1,1.8,0.4,4.1-1.4,5.2c-1.8,1-4.1,0.4-5.2-1.4
				C350.7,370.7,351.3,368.4,353.1,367.4z"/>
			<path fill="#161414" d="M398.4,341.2c1.8-1,4.1-0.4,5.2,1.4c1,1.8,0.4,4.1-1.4,5.2c-1.8,1-4.1,0.4-5.2-1.4
				C395.9,344.6,396.6,342.3,398.4,341.2z"/>
			<path fill="#161414" d="M361.3,378.3c1-1.8,3.4-2.4,5.2-1.4c1.8,1,2.4,3.4,1.4,5.2c-1,1.8-3.4,2.4-5.2,1.4
				C360.8,382.4,360.2,380.1,361.3,378.3z"/>
			<path fill="#161414" d="M387.4,333c1-1.8,3.4-2.4,5.2-1.4c1.8,1,2.4,3.4,1.4,5.2c-1,1.8-3.4,2.4-5.2,1.4
				C387,337.1,386.4,334.8,387.4,333z"/>
		</g>
		<path fill="#C2C7CA" d="M288.4,369.5h-9.6v-84.9c0-1.2-1-2.2-2.2-2.2c-6.5,0-11.7-5.3-11.7-11.7v-16.7c0-6.5,5.3-11.7,11.7-11.7
			h24.1v9.6h-24.1c-1.2,0-2.2,1-2.2,2.2v16.7c0,1.2,1,2.2,2.2,2.2c6.5,0,11.7,5.3,11.7,11.7V369.5z"/>
		<path fill="#FFA518" d="M50.7,258.7h-25c-2.6,0-4.7-2.1-4.7-4.7v0c0-2.6,2.1-4.7,4.7-4.7h25c2.6,0,4.7,2.1,4.7,4.7l0,0
			C55.5,256.6,53.3,258.7,50.7,258.7z"/>
		<path fill="#FFA518" d="M194.1,258.7h-25c-2.6,0-4.7-2.1-4.7-4.7l0,0c0-2.6,2.1-4.7,4.7-4.7h25c2.6,0,4.7,2.1,4.7,4.7l0,0
			C198.8,256.6,196.7,258.7,194.1,258.7z"/>
		<path fill="#2D889E" d="M95.4,315.4H-19c-2.2,0-4-1.8-4-4l0,0c0-2.2,1.8-4,4-4H95.4c2.2,0,4,1.8,4,4l0,0
			C99.4,313.6,97.6,315.4,95.4,315.4z"/>
		<path fill="#2D889E" d="M238.7,315.2H124.3c-2.2,0-4-1.8-4-4l0,0c0-2.2,1.8-4,4-4h114.5c2.2,0,4,1.8,4,4l0,0
			C242.7,313.4,240.9,315.2,238.7,315.2z"/>
		<path fill="#C2C7CA" d="M300.1,224.4h-34.9c-8,0-14.4,6.5-14.4,14.4V358h9.6V238.8c0-2.7,2.2-4.9,4.9-4.9h34.9V224.4z"/>
		<path fill="#FFA518" d="M313.1,391.9h-60.8c-2.5,0-4.5-2-4.5-4.5v-35.8c0-2.5,2-4.5,4.5-4.5h60.8c2.5,0,4.5,2,4.5,4.5v35.8
			C317.6,389.9,315.6,391.9,313.1,391.9z"/>
	</g>
	<g clip-path="url(#SVGID_2_)">
		<path fill="#627182" d="M444.6,219.7v79.2c0,3.1-2.5,5.7-5.7,5.7h-51.3V214h51.3C442,214,444.6,216.5,444.6,219.7z"/>
		<path fill="#536270" d="M427,276.2h-35.8c-3,0-5.4-2.4-5.4-5.4c0-3,2.4-5.4,5.4-5.4H427c3,0,5.4,2.4,5.4,5.4
			C432.4,273.8,430,276.2,427,276.2z"/>
		<path fill="#536270" d="M427,292.9h-35.8c-3,0-5.4-2.4-5.4-5.4c0-3,2.4-5.4,5.4-5.4H427c3,0,5.4,2.4,5.4,5.4
			C432.4,290.5,430,292.9,427,292.9z"/>
		<path fill="#627182" d="M375.9,191.6v68.6h-96.2c-7.5,0-13.6-6.1-13.6-13.6v-51c0-2.2,1.7-3.9,3.9-3.9H375.9z"/>
		<path fill="#3DCFF3" d="M379.7,191.6v44.7h-81.5c-3.3,0-6-2.7-6-6v-38.7H379.7z"/>
		<path fill="#ACACAC" d="M369.4,146.4h24.6v251.5h-24.6V146.4z"/>
		<path fill="#9D9E9D" d="M369.4,146.4h11.7v251.5h-11.7V146.4z"/>
		<path fill="#F64446" d="M465.3,101.3v55.5c0,2.3-1.9,4.2-4.2,4.2H112.9c-2.3,0-4.2-1.9-4.2-4.2v-55.5c0-2.3,1.9-4.2,4.2-4.2h348.2
			C463.4,97.1,465.3,98.9,465.3,101.3z"/>
		<path fill="#FED974" d="M143.7,122.6c-2,0-3.7,1.6-3.7,3.7V161h321.1c2.3,0,4.2-1.9,4.2-4.2v-34.2H143.7z"/>
		<path fill="#E7E7E7" d="M234.4,69.1v66.2c0,2.5-2.1,4.6-4.6,4.6h-63.6c-2.5,0-4.6-2.1-4.6-4.6V69.1c0-2.5,2.1-4.6,4.6-4.6h63.6
			C232.4,64.6,234.4,66.6,234.4,69.1z"/>
		<path fill="#DBDDDD" d="M234.4,113.9c-25.4,0-46-20.6-46-46v-3.3h-22.3c-2.5,0-4.6,2.1-4.6,4.6v66.2c0,2.5,2.1,4.6,4.6,4.6h63.6
			c2.5,0,4.6-2.1,4.6-4.6V113.9z"/>
		<path fill="#F64446" d="M198,80.3c12.1,0,22,9.8,22,22c0,12.1-9.8,22-22,22c-12.1,0-22-9.9-22-22C176,90.1,185.9,80.3,198,80.3z"
			/>
		<path fill="#3DCFF3" d="M427,234.3v16.5c0,1-0.8,1.8-1.8,1.8h-31.2v-20.1h31.2C426.2,232.5,427,233.4,427,234.3z"/>
		<g>
			<path fill="#ACACAC" d="M452.5,403.3h-298c-3,0-5.4-2.4-5.4-5.4s2.4-5.4,5.4-5.4h298c3,0,5.4,2.4,5.4,5.4
				S455.4,403.3,452.5,403.3z"/>
			<path fill="#ACACAC" d="M138.6,403.3h-16.8c-3,0-5.4-2.4-5.4-5.4s2.4-5.4,5.4-5.4h16.8c3,0,5.4,2.4,5.4,5.4
				S141.5,403.3,138.6,403.3z"/>
		</g>
	</g>
</g>
</svg>
