<?xml version="1.0" encoding="utf-8"?>
<!-- Generator: Adobe Illustrator 24.1.2, SVG Export Plug-In . SVG Version: 6.00 Build 0)  -->
<svg version="1.1" id="Layer_1" xmlns="http://www.w3.org/2000/svg" xmlns:xlink="http://www.w3.org/1999/xlink" x="0px" y="0px"
	 width="512px" height="512px" viewBox="0 0 512 512" enable-background="new 0 0 512 512" xml:space="preserve">
<g>
	<circle fill="#FFFFFF" cx="256" cy="256" r="256"/>
</g>
<g>
	
		<image overflow="visible" opacity="0.75" width="288" height="285" xlink:href="208AAA7E.png"  transform="matrix(1 0 0 1 119 170)">
	</image>
	<g>
		<g>
			<rect x="228.6" y="284.9" fill="#C2C7CA" width="57.9" height="36.6"/>
			<g>
				<path fill="#C1272D" d="M345.8,319.5h-23.6c-9,0-17.7-3-24.8-8.5c-11.4-8.9-25.8-14.1-41.4-14.1c-15.6,0-30,5.3-41.4,14.1
					c-7.1,5.5-15.8,8.5-24.8,8.5h-23.6v90.2h23.6c9,0,17.7,3,24.8,8.5c11.4,8.9,25.8,14.1,41.4,14.1c15.6,0,30-5.3,41.4-14.1
					c7.1-5.5,15.8-8.5,24.8-8.5h23.6V319.5z"/>
			</g>
			<g>
				<path fill="#FFA518" d="M381,418.7h-31.5c-2,0-3.6-1.6-3.6-3.6V314.3c0-2,1.6-3.6,3.6-3.6H381c2,0,3.6,1.6,3.6,3.6V415
					C384.7,417,383,418.7,381,418.7z"/>
			</g>
			<g>
				<path fill="#FFA518" d="M162.5,418.7H131c-2,0-3.6-1.6-3.6-3.6V314.3c0-2,1.6-3.6,3.6-3.6h31.5c2,0,3.6,1.6,3.6,3.6V415
					C166.2,417,164.5,418.7,162.5,418.7z"/>
			</g>
			<g>
				<path fill="#161414" d="M257.4,286.8c-30,0-54.4-24.4-54.4-54.4c0-30,24.4-54.4,54.4-54.4c30,0,54.4,24.4,54.4,54.4
					C311.7,262.4,287.3,286.8,257.4,286.8z M257.4,185.2c-26.1,0-47.3,21.2-47.3,47.3c0,26.1,21.2,47.3,47.3,47.3
					c26.1,0,47.3-21.2,47.3-47.3C304.6,206.4,283.4,185.2,257.4,185.2z"/>
				<g>
					<rect x="254" y="190.3" fill="#161414" width="6.8" height="6.8"/>
					<rect x="254" y="267.8" fill="#161414" width="6.8" height="6.8"/>
					
						<rect x="226.5" y="201.6" transform="matrix(0.7071 -0.7071 0.7071 0.7071 -77.633 222.633)" fill="#161414" width="6.8" height="6.8"/>
					
						<rect x="281.4" y="256.5" transform="matrix(0.7071 -0.7071 0.7071 0.7071 -100.3527 277.4817)" fill="#161414" width="6.8" height="6.8"/>
					<rect x="215.2" y="229.1" fill="#161414" width="6.8" height="6.8"/>
					<rect x="292.7" y="229.1" fill="#161414" width="6.8" height="6.8"/>
					
						<rect x="226.5" y="256.5" transform="matrix(0.7071 -0.7071 0.7071 0.7071 -116.4173 238.6976)" fill="#161414" width="6.8" height="6.8"/>
					
						<rect x="281.4" y="201.6" transform="matrix(0.7071 -0.7071 0.7071 0.7071 -61.5673 261.4237)" fill="#161414" width="6.8" height="6.8"/>
				</g>
				<g>
					<path fill="#2F9DBA" d="M265,230.9c0,4.2-3.4,7.7-7.7,7.7c-4.2,0-7.7-3.4-7.7-7.7c0-4.2,3.4-7.7,7.7-7.7
						C261.6,223.2,265,226.7,265,230.9z"/>
				</g>
				<path fill="#161414" d="M255.4,232.8L255.4,232.8c-1.1-1.4-0.8-3.4,0.7-4.4l23.8-14.3l-20.1,19
					C258.6,234.3,256.5,234.2,255.4,232.8z"/>
			</g>
		</g>
	</g>
</g>
<g>
	<defs>
		<circle id="SVGID_1_" cx="256" cy="256" r="256"/>
	</defs>
	<clipPath id="SVGID_2_">
		<use xlink:href="#SVGID_1_"  overflow="visible"/>
	</clipPath>
	<g clip-path="url(#SVGID_2_)">
		<path fill="#C2C7CA" d="M560.6,140.6H352.5c-9,0-17.5,3.5-23.9,9.9c-6.4,6.4-9.9,14.9-9.9,23.9l0.1,42.9l10.4,0l-0.1-42.9
			c0-6.2,2.4-12.1,6.8-16.5c4.4-4.4,10.3-6.8,16.5-6.8h208.1V140.6z"/>
		<path fill="#C2C7CA" d="M560.6,123h-416c-18.6,0-33.7,15.1-33.7,33.7V237h10.4v-80.3c0-12.9,10.5-23.3,23.3-23.3h416V123z"/>
		<path fill="#C2C7CA" d="M560.6,106.8H-63.3c-18.6,0-33.7,15.1-33.7,33.7v144.2h10.4V140.6c0-12.9,10.5-23.3,23.3-23.3h623.9V106.8
			z"/>
		<path fill="#C2C7CA" d="M560.6,90.7h-831.7c-18.6,0-33.7,15.1-33.7,33.7V298h10.4V124.4c0-12.9,10.5-23.3,23.3-23.3h831.7V90.7z"
			/>
		<path fill="#C2C7CA" d="M504.4,390.4h-13.9V184.2c0-16.1,13.1-29.2,29.2-29.2h66.4c16.1,0,29.2,13.1,29.2,29.2v181.7h-13.9V184.2
			c0-8.4-6.9-15.3-15.3-15.3h-66.4c-8.4,0-15.3,6.9-15.3,15.3V390.4z"/>
		<path fill="#C2C7CA" d="M479,379.4h-13.9V256.2c0-1.8-1.4-3.2-3.2-3.2c-9.4,0-17-7.6-17-17v-24.2c0-9.4,7.6-17,17-17h34.9v13.9
			h-34.9c-1.8,0-3.2,1.4-3.2,3.2V236c0,1.8,1.4,3.2,3.2,3.2c9.4,0,17,7.6,17,17V379.4z"/>
		<path fill="#C2C7CA" d="M495.9,169h-50.6c-11.5,0-20.9,9.4-20.9,20.9v172.8h13.9V189.9c0-3.9,3.2-7.1,7.1-7.1h50.6V169z"/>
		<path fill="#FFA518" d="M514.8,412h-88.2c-3.6,0-6.5-2.9-6.5-6.5v-52c0-3.6,2.9-6.5,6.5-6.5h88.2c3.6,0,6.5,2.9,6.5,6.5v52
			C521.3,409.1,518.4,412,514.8,412z"/>
	</g>
</g>
</svg>
