<?xml version="1.0" encoding="utf-8"?>
<!-- Generator: Adobe Illustrator 24.1.2, SVG Export Plug-In . SVG Version: 6.00 Build 0)  -->
<svg version="1.1" id="Layer_1" xmlns="http://www.w3.org/2000/svg" xmlns:xlink="http://www.w3.org/1999/xlink" x="0px" y="0px"
	 width="512px" height="512px" viewBox="0 0 512 512" enable-background="new 0 0 512 512" xml:space="preserve">
<path fill="#FF757C" d="M256,0c141.4,0,256,114.6,256,256S397.4,512,256,512C114.6,512,0,397.4,0,256S114.6,0,256,0z"/>
<path fill="#15BDB1" d="M31.6,282.9h448.8v130.1c0,8.7-7.1,15.8-15.8,15.8H47.4c-8.7,0-15.8-7.1-15.8-15.8
	C31.6,412.9,31.6,282.9,31.6,282.9z"/>
<path fill="#20D0C2" d="M31.6,282.9h448.8l-37.1-67.3H68.7L31.6,282.9L31.6,282.9z"/>
<g>
	<path fill="#0E7886" d="M102.3,332.4h307.4c6.2,0,11.4,5.1,11.4,11.4V360c0,6.2-5.1,11.4-11.4,11.4H102.3
		c-6.2,0-11.4-5.1-11.4-11.4v-16.2C91,337.5,96.1,332.4,102.3,332.4z"/>
	<path fill="#0E7886" d="M100.8,232.4h310.4l9.8,28H91L100.8,232.4L100.8,232.4z"/>
</g>
<path fill="#FFFFFF" d="M121.3,83.6h269.5v176.8H121.3V83.6z"/>
<path fill="#DFE1E3" d="M107.2,449h297.5v-2.6H107.2V449z"/>
<path fill="#FFFFFF" d="M107.2,446.3h297.5l-14-113.9H121.3L107.2,446.3z"/>
<g>
	<path fill="#C8CACC" d="M148.9,216.2h210v4.3h-210V216.2z M148.9,228.5L148.9,228.5h210v4.3h-210V228.5z M148.9,240.7L148.9,240.7
		h139.8v4.3H148.9V240.7z"/>
	<path fill="#C8CACC" d="M148.9,194.3H321v4.3H148.9V194.3z M148.9,120.8L148.9,120.8h210v4.3h-210V120.8z M148.9,133L148.9,133h210
		v4.3h-210V133z M148.9,145.3L148.9,145.3h210v4.3h-210V145.3z M148.9,157.5L148.9,157.5H321v4.3H148.9V157.5z M148.9,169.8
		L148.9,169.8h210.5v4.3H148.9V169.8z M148.9,182.1L148.9,182.1h210.5v4.3H148.9V182.1z"/>
</g>
<path fill="#FF5B61" d="M430.8,300.4c5,0,9.1,4.1,9.1,9.1c0,5-4.1,9.1-9.1,9.1c-5,0-9.1-4.1-9.1-9.1
	C421.7,304.5,425.8,300.4,430.8,300.4z"/>
<path fill="#FBB429" d="M458.1,300.4c5,0,9.1,4.1,9.1,9.1c0,5-4.1,9.1-9.1,9.1c-5,0-9.1-4.1-9.1-9.1
	C449,304.5,453.1,300.4,458.1,300.4z"/>
<g>
	
		<image overflow="visible" opacity="0.75" width="306" height="282" xlink:href="39F1CCEE.png"  transform="matrix(1 0 0 1 99 149)">
	</image>
	<g>
		<g>
			<g>
				<path d="M291.3,268.3v-37.2l-19.9-5c-1.2-3.7-2.7-7.3-4.5-10.8l10.6-17.6l-26.3-26.3L233.6,182c-3.5-1.8-7.1-3.3-10.8-4.5
					l-5-19.9h-18.6l-21.6,53.9h21.6c21,0,38.1,17.1,38.1,38.1s-17.1,38.1-38.1,38.1h-21.6l21.6,53.9h18.6l5-19.9
					c3.7-1.2,7.3-2.7,10.8-4.5l17.6,10.6l26.3-26.3l-10.6-17.6c1.8-3.5,3.3-7.1,4.5-10.8L291.3,268.3z"/>
				<path d="M161.2,249.7c0-21,17.1-38.1,38.1-38.1v-53.9h-18.6l-5,19.9c-3.7,1.2-7.3,2.7-10.8,4.5l-17.6-10.6L121,197.8l10.6,17.6
					c-1.8,3.5-3.3,7.1-4.5,10.8l-19.9,5v37.2l19.9,5c1.2,3.7,2.7,7.3,4.5,10.8L121,301.8l26.3,26.3l17.6-10.6
					c3.5,1.8,7.1,3.3,10.8,4.5l5,19.9h18.6V288C178.3,287.8,161.2,270.7,161.2,249.7z"/>
				<path fill="#8D8C84" d="M199.3,195.4l-10.8,16.2h10.8c21,0,38.1,17.1,38.1,38.1s-17.1,38.1-38.1,38.1h-10.8l10.8,16.2
					c30,0,54.3-24.3,54.3-54.3S229.3,195.4,199.3,195.4z"/>
				<path fill="#434343" d="M161.2,249.7c0-21,17.1-38.1,38.1-38.1v-16.2c-30,0-54.3,24.3-54.3,54.3s24.3,54.3,54.3,54.3v-16.2
					C178.3,287.8,161.2,270.7,161.2,249.7z"/>
			</g>
			<g>
				<path d="M382.3,362v-23.4l-12.5-3.1c-0.8-2.3-1.7-4.6-2.8-6.8l6.6-11.1l-16.5-16.5l-11.1,6.6c-2.2-1.1-4.4-2-6.8-2.8l-3.1-12.5
					h-11.7l-13.6,33.9h13.6c13.2,0,24,10.7,24,24s-10.7,24-24,24h-13.6l13.6,33.9h11.7l3.1-12.5c2.3-0.8,4.6-1.7,6.8-2.8l11.1,6.6
					l16.5-16.5l-6.6-11.1c1.1-2.2,2-4.4,2.8-6.8L382.3,362z"/>
				<path d="M300.5,350.3c0-13.2,10.7-24,24-24v-33.9h-11.8l-3.1,12.5c-2.3,0.8-4.6,1.7-6.8,2.8l-11.1-6.6l-16.5,16.5l6.6,11.1
					c-1.1,2.2-2,4.4-2.8,6.8l-12.5,3.1V362l12.5,3.1c0.8,2.3,1.7,4.6,2.8,6.8l-6.6,11.1l16.5,16.5l11.1-6.6c2.2,1.1,4.4,2,6.8,2.8
					l3.1,12.5h11.7v-33.9C311.2,374.3,300.5,363.6,300.5,350.3z"/>
				<path fill="#8D8C84" d="M324.4,316.2l-6.8,10.2h6.8c13.2,0,24,10.7,24,24s-10.7,24-24,24h-6.8l6.8,10.2
					c18.9,0,34.1-15.3,34.1-34.1C358.6,331.5,343.3,316.2,324.4,316.2z"/>
				<path fill="#434343" d="M300.5,350.3c0-13.2,10.7-24,24-24v-10.2c-18.9,0-34.1,15.3-34.1,34.1c0,18.9,15.3,34.1,34.1,34.1v-10.2
					C311.2,374.3,300.5,363.6,300.5,350.3z"/>
			</g>
		</g>
	</g>
</g>
</svg>
