<?xml version="1.0" encoding="utf-8"?>
<!-- Generator: Adobe Illustrator 24.1.2, SVG Export Plug-In . SVG Version: 6.00 Build 0)  -->
<svg version="1.1" id="Layer_1" xmlns="http://www.w3.org/2000/svg" xmlns:xlink="http://www.w3.org/1999/xlink" x="0px" y="0px"
	 width="512px" height="512px" viewBox="0 0 512 512" enable-background="new 0 0 512 512" xml:space="preserve">
<g>
	<path fill="#FFFFFF" d="M256,511.5c-68.2,0-132.4-26.6-180.7-74.8C27.1,388.4,0.5,324.2,0.5,256c0-68.2,26.6-132.4,74.8-180.7
		C123.6,27.1,187.8,0.5,256,0.5c68.2,0,132.4,26.6,180.7,74.8c48.3,48.3,74.8,112.4,74.8,180.7c0,68.2-26.6,132.4-74.8,180.7
		C388.4,484.9,324.2,511.5,256,511.5z"/>
	<path d="M256,1c34.4,0,67.8,6.7,99.3,20c30.4,12.8,57.6,31.2,81.1,54.6s41.8,50.7,54.6,81.1c13.3,31.4,20,64.8,20,99.3
		s-6.7,67.8-20,99.3c-12.8,30.4-31.2,57.6-54.6,81.1s-50.7,41.8-81.1,54.6c-31.4,13.3-64.8,20-99.3,20s-67.8-6.7-99.3-20
		c-30.4-12.8-57.6-31.2-81.1-54.6S33.9,385.6,21,355.3C7.7,323.8,1,290.4,1,256s6.7-67.8,20-99.3c12.8-30.4,31.2-57.6,54.6-81.1
		s50.7-41.8,81.1-54.6C188.2,7.7,221.6,1,256,1 M256,0C114.6,0,0,114.6,0,256s114.6,256,256,256s256-114.6,256-256S397.4,0,256,0
		L256,0z"/>
</g>
<g>
	<rect x="213.6" y="208.2" fill="#C2C7CA" width="89.6" height="56.6"/>
	<path fill="#C1272D" d="M394.8,261.7h-36.5c-13.9,0-27.4-4.6-38.4-13.1c-17.7-13.7-39.9-21.9-64-21.9c-24.1,0-46.3,8.2-64,21.9
		c-11,8.5-24.5,13.1-38.4,13.1h-36.5v139.5h36.5c13.9,0,27.4,4.6,38.4,13.1c17.7,13.7,39.9,21.9,64,21.9c24.1,0,46.3-8.2,64-21.9
		c11-8.5,24.5-13.1,38.4-13.1h36.5V261.7z"/>
	<path fill="#FFA518" d="M449.2,415.1h-48.8c-3.1,0-5.6-2.5-5.6-5.6V253.7c0-3.1,2.5-5.6,5.6-5.6h48.8c3.1,0,5.6,2.5,5.6,5.6v155.8
		C454.9,412.6,452.3,415.1,449.2,415.1z"/>
	<path fill="#FFA518" d="M111.3,415.1H62.5c-3.1,0-5.6-2.5-5.6-5.6V253.7c0-3.1,2.5-5.6,5.6-5.6h48.8c3.1,0,5.6,2.5,5.6,5.6v155.8
		C116.9,412.6,114.4,415.1,111.3,415.1z"/>
	<g>
		<path fill="#161414" d="M258,211.2c-46.4,0-84.1-37.7-84.1-84.1c0-46.4,37.7-84.1,84.1-84.1c46.4,0,84.1,37.7,84.1,84.1
			C342.1,173.5,304.4,211.2,258,211.2z M258,54c-40.3,0-73.1,32.8-73.1,73.1c0,40.3,32.8,73.1,73.1,73.1c40.3,0,73.1-32.8,73.1-73.1
			C331.1,86.8,298.3,54,258,54z"/>
		<g>
			<rect x="252.7" y="61.9" fill="#161414" width="10.5" height="10.5"/>
			<rect x="252.7" y="181.8" fill="#161414" width="10.5" height="10.5"/>
			
				<rect x="210.3" y="79.4" transform="matrix(0.7071 -0.7071 0.7071 0.7071 3.26 177.2276)" fill="#161414" width="10.5" height="10.5"/>
			
				<rect x="295.1" y="164.3" transform="matrix(0.7071 -0.7071 0.7071 0.7071 -31.88 262.0604)" fill="#161414" width="10.5" height="10.5"/>
			
				<rect x="192.7" y="121.8" transform="matrix(6.123234e-17 -1 1 6.123234e-17 70.902 325.0945)" fill="#161414" width="10.5" height="10.5"/>
			
				<rect x="312.7" y="121.8" transform="matrix(6.123234e-17 -1 1 6.123234e-17 190.8767 445.0692)" fill="#161414" width="10.5" height="10.5"/>
			
				<rect x="210.3" y="164.3" transform="matrix(-0.7071 -0.7071 0.7071 -0.7071 248.1284 441.8083)" fill="#161414" width="10.5" height="10.5"/>
			
				<rect x="295.1" y="79.4" transform="matrix(-0.7071 -0.7071 0.7071 -0.7071 452.9437 356.9724)" fill="#161414" width="10.5" height="10.5"/>
		</g>
		<path fill="#2F9DBA" d="M269.9,124.7c0,6.6-5.3,11.9-11.9,11.9c-6.6,0-11.9-5.3-11.9-11.9c0-6.6,5.3-11.9,11.9-11.9
			C264.5,112.8,269.9,118.1,269.9,124.7z"/>
		<path fill="#161414" d="M255,127.6L255,127.6c-1.7-2.2-1.2-5.3,1.2-6.8L293,98.7l-31.1,29.3C259.9,130,256.7,129.8,255,127.6z"/>
	</g>
</g>
</svg>
