<?xml version="1.0" encoding="utf-8"?>
<!-- Generator: Adobe Illustrator 24.1.2, SVG Export Plug-In . SVG Version: 6.00 Build 0)  -->
<svg version="1.1" id="Layer_1" xmlns="http://www.w3.org/2000/svg" xmlns:xlink="http://www.w3.org/1999/xlink" x="0px" y="0px"
	 width="512px" height="512px" viewBox="0 0 512 512" enable-background="new 0 0 512 512" xml:space="preserve">
<g>
	<circle fill="#9EC4D5" cx="256" cy="256" r="256"/>
</g>
<radialGradient id="SVGID_1_" cx="303.1273" cy="160.1091" r="107.9133" gradientUnits="userSpaceOnUse">
	<stop  offset="0" style="stop-color:#FFFFFF"/>
	<stop  offset="2.870559e-02" style="stop-color:#EEEEEE"/>
	<stop  offset="0.1331" style="stop-color:#B7B7B7"/>
	<stop  offset="0.2411" style="stop-color:#868686"/>
	<stop  offset="0.3502" style="stop-color:#5D5D5D"/>
	<stop  offset="0.4608" style="stop-color:#3B3B3B"/>
	<stop  offset="0.5734" style="stop-color:#212121"/>
	<stop  offset="0.6887" style="stop-color:#0F0F0F"/>
	<stop  offset="0.8085" style="stop-color:#040404"/>
	<stop  offset="0.94" style="stop-color:#000000"/>
</radialGradient>
<path fill="url(#SVGID_1_)" d="M110.4,273.5c14.4,7.6,20,13.6,20,21.2c0,7.6-4.5,14.5,1.7,16.6c6.2,2.1,6.6,3.9,4.4,5.3
	c-2.3,1.3-9.3,8.9-2,13.1c7.4,4.2,11.4,10.5,10.1,14.7c-1.4,4.2-14.1,21.2,4.8,26.3c18.9,5.1,46.6,2.4,55.9,9
	c9.3,6.6,22.8,42.4,15.3,60.4h160.9c0,0-15.5-65.7-16.7-88c0,0-5.4-49,6.6-65.9c12-16.8,34.8-43.1,34.8-99.6
	c0-56.5-53.2-114.5-149-114.5C172.5,72,137,144.7,137,183.1c0,0,5.6,36.3-6,50.7C119.4,248.2,96,265.9,110.4,273.5z"/>
<linearGradient id="SVGID_2_" gradientUnits="userSpaceOnUse" x1="105.2735" y1="255.9791" x2="262.7828" y2="255.9791">
	<stop  offset="0" style="stop-color:#FFFFFF"/>
	<stop  offset="0.1005" style="stop-color:#D9D9D9"/>
	<stop  offset="0.289" style="stop-color:#989898"/>
	<stop  offset="0.4687" style="stop-color:#626262"/>
	<stop  offset="0.6344" style="stop-color:#373737"/>
	<stop  offset="0.7834" style="stop-color:#191919"/>
	<stop  offset="0.9103" style="stop-color:#070707"/>
	<stop  offset="1" style="stop-color:#000000"/>
</linearGradient>
<path fill="url(#SVGID_2_)" d="M215.7,379.6c-9.3-6.6-37-3.9-55.9-9c-18.9-5.1-6.2-22.1-4.8-26.3c1.4-4.2-2.7-10.5-10.1-14.7
	c-7.4-4.2-0.3-11.7,2-13.1c2.3-1.4,1.8-3.2-4.4-5.3c-6.2-2.1-1.7-9-1.7-16.6c0-7.6-5.6-13.6-20-21.2c-14.4-7.6,9-25.2,20.6-39.7
	c11.6-14.4,6-50.7,6-50.7c0-37.7,34.1-108.4,115.3-111.1c-2-0.1-4.1-0.1-6.1-0.1c-84.7,0-120.2,72.7-120.2,111.2
	c0,0,5.6,36.3-6,50.7c-11.6,14.4-35.1,32-20.6,39.7c14.4,7.6,20,13.6,20,21.2c0,7.6-4.5,14.5,1.7,16.6c6.2,2.1,6.6,3.9,4.4,5.3
	c-2.3,1.3-9.3,8.9-2,13.1c7.4,4.2,11.4,10.5,10.1,14.7c-1.4,4.2-14.1,21.2,4.8,26.3c18.9,5.1,46.6,2.4,55.9,9
	c9.3,6.6,22.8,42.4,15.3,60.4h11C238.5,422,225,386.2,215.7,379.6z"/>
</svg>
