<?xml version="1.0" encoding="utf-8"?>
<!-- Generator: Adobe Illustrator 24.1.2, SVG Export Plug-In . SVG Version: 6.00 Build 0)  -->
<svg version="1.1" id="Reports_1" xmlns="http://www.w3.org/2000/svg" xmlns:xlink="http://www.w3.org/1999/xlink" x="0px" y="0px"
	 width="512px" height="512px" viewBox="0 0 512 512" enable-background="new 0 0 512 512" xml:space="preserve">
<circle fill="#445EA0" cx="256" cy="267" r="245"/>
<path fill="#FFAF10" d="M100.7,421.6c-2.8,0-5-2.3-5-5V71.2H62.6c-2.8,0-5,2.3-5,5v334.5c13.4,18.4,29.2,34.9,47.1,48.9h276.4
	c2.8,0,5-2.3,5-5v-33.1L100.7,421.6L100.7,421.6z"/>
<path fill="#EF9614" d="M76.6,76.2c0-2.8,2.3-5,5-5h-19c-2.8,0-5,2.3-5,5v334.5c5.9,8.1,12.2,15.8,19,23.1V76.2z"/>
<path fill="#FF9518" d="M133.7,385.6c-2.8,0-5-2.3-5-5V36H97.9c-2.8,0-5,2.3-5,5v378.5c0,2.8,2.3,5,5,5h318.5c2.8,0,5-2.2,5-5v-33.8
	L133.7,385.6L133.7,385.6z"/>
<path fill="#EF8318" d="M110.9,419.5V41c0-2.8,2.3-5,5-5h-18c-2.8,0-5,2.3-5,5v378.5c0,2.8,2.3,5,5,5h18
	C113.1,424.5,110.9,422.2,110.9,419.5z"/>
<path fill="#D9EAFC" d="M454.4,383.5c0,2.8-2.3,5-5,5H130.9c-2.8,0-5-2.3-5-5V5c0-2.8,2.3-5,5-5h318.5c2.8,0,5,2.3,5,5V383.5z"/>
<path fill="#C3DDF4" d="M145.7,383.5V5c0-2.8,2.3-5,5-5h-19.8c-2.8,0-5,2.3-5,5v378.5c0,2.8,2.3,5,5,5h19.8
	C148,388.5,145.7,386.2,145.7,383.5z"/>
<g>
	<path fill="#DB722C" d="M415.1,50.8h-69.6c-4.1,0-7.5-3.4-7.5-7.5c0-4.1,3.4-7.5,7.5-7.5h69.6c4.1,0,7.5,3.4,7.5,7.5
		C422.6,47.4,419.2,50.8,415.1,50.8z"/>
	<path fill="#DB722C" d="M415.1,76.3h-69.6c-4.1,0-7.5-3.4-7.5-7.5c0-4.1,3.4-7.5,7.5-7.5h69.6c4.1,0,7.5,3.4,7.5,7.5
		C422.6,72.9,419.2,76.3,415.1,76.3z"/>
	<path fill="#DB722C" d="M415.1,101.8h-69.6c-4.1,0-7.5-3.4-7.5-7.5s3.4-7.5,7.5-7.5h69.6c4.1,0,7.5,3.4,7.5,7.5
		C422.6,98.4,419.2,101.8,415.1,101.8z"/>
	<path fill="#DB722C" d="M415.1,127.3h-69.6c-4.1,0-7.5-3.4-7.5-7.5c0-4.1,3.4-7.5,7.5-7.5h69.6c4.1,0,7.5,3.4,7.5,7.5
		C422.6,123.9,419.2,127.3,415.1,127.3z"/>
</g>
<g>
	<path fill="#52BBEF" d="M285.4,305.3H168.2c-4.1,0-7.5-3.4-7.5-7.5s3.4-7.5,7.5-7.5h117.2c4.1,0,7.5,3.4,7.5,7.5
		C292.9,301.9,289.5,305.3,285.4,305.3z"/>
	<path fill="#52BBEF" d="M285.4,330.8H168.2c-4.1,0-7.5-3.4-7.5-7.5c0-4.1,3.4-7.5,7.5-7.5h117.2c4.1,0,7.5,3.4,7.5,7.5
		C292.9,327.4,289.5,330.8,285.4,330.8z"/>
	<path fill="#52BBEF" d="M285.4,356.3H168.2c-4.1,0-7.5-3.4-7.5-7.5c0-4.1,3.4-7.5,7.5-7.5h117.2c4.1,0,7.5,3.4,7.5,7.5
		C292.9,352.9,289.5,356.3,285.4,356.3z"/>
</g>
<g>
	<path fill="#FE3745" d="M415.1,171.8H308.4c-4.1,0-7.5-3.4-7.5-7.5s3.4-7.5,7.5-7.5h106.7c4.1,0,7.5,3.4,7.5,7.5
		S419.2,171.8,415.1,171.8z"/>
	<path fill="#FE3745" d="M415.1,197.3H308.4c-4.1,0-7.5-3.4-7.5-7.5s3.4-7.5,7.5-7.5h106.7c4.1,0,7.5,3.4,7.5,7.5
		S419.2,197.3,415.1,197.3z"/>
	<path fill="#FE3745" d="M415.1,222.8H308.4c-4.1,0-7.5-3.4-7.5-7.5c0-4.1,3.4-7.5,7.5-7.5h106.7c4.1,0,7.5,3.4,7.5,7.5
		C422.6,219.4,419.2,222.8,415.1,222.8z"/>
	<path fill="#FE3745" d="M415.1,248.3H308.4c-4.1,0-7.5-3.4-7.5-7.5s3.4-7.5,7.5-7.5h106.7c4.1,0,7.5,3.4,7.5,7.5
		S419.2,248.3,415.1,248.3z"/>
	<path fill="#FE3745" d="M154.8,215.8H184c0-16.1,13.1-29.2,29.2-29.2v-29.2C181,157.3,154.8,183.5,154.8,215.8z"/>
</g>
<path fill="#91E0E8" d="M228.1,142.4v29.2c16.1,0,29.2,13.1,29.2,29.2h29.2C286.6,168.6,260.4,142.4,228.1,142.4z"/>
<g>
	<path fill="#FFAF10" d="M242.5,215.8c0,16.1-13.1,29.2-29.2,29.2S184,231.9,184,215.8h-29.2c0,32.3,26.2,58.5,58.5,58.5
		c32.3,0,58.5-26.2,58.5-58.5H242.5z"/>
	<path fill="#FFAF10" d="M188.4,115.1V45.3c0-1.7-1.4-3-3-3h-18.2c-1.6,0-3,1.3-3,3v69.8H188.4z"/>
</g>
<path fill="#FE3745" d="M227.5,115.1V64.3c0-1.7-1.4-3-3-3h-18.2c-1.6,0-3,1.3-3,3v50.8H227.5z"/>
<path fill="#37C47A" d="M266.6,115.1V87.3c0-1.7-1.4-3-3-3h-18.2c-1.6,0-3,1.3-3,3v27.8H266.6z"/>
<path fill="#91E0E8" d="M305.7,115.1V45.3c0-1.7-1.4-3-3-3h-18.2c-1.6,0-3,1.3-3,3v69.8H305.7z"/>
<path fill="#FE3745" d="M379.6,319.7c0-1.7,1.3-3,3-3h13.6v-33.6c0-2.8-2.3-5-5-5H346c-2.8,0-5,2.3-5,5v45.1c0,2.8,2.3,5,5,5h33.6
	V319.7z"/>
<path fill="#37C47A" d="M415.1,347.2c0,2.8-2.3,5-5,5h-27.5c-2.8,0-5-2.3-5-5v-27.5c0-2.8,2.3-5,5-5h27.5c2.8,0,5,2.3,5,5V347.2z"/>
<path fill="#52BBEF" d="M310.9,127.3H159c-4.1,0-7.5-3.4-7.5-7.5c0-4.1,3.4-7.5,7.5-7.5h151.9c4.1,0,7.5,3.4,7.5,7.5
	C318.4,123.9,315,127.3,310.9,127.3z"/>
<g>
	<radialGradient id="SVGID_1_" cx="294.1662" cy="238.5801" r="86.8872" gradientUnits="userSpaceOnUse">
		<stop  offset="0" style="stop-color:#FFFFFF"/>
		<stop  offset="2.870559e-02" style="stop-color:#EEEEEE"/>
		<stop  offset="0.1331" style="stop-color:#B7B7B7"/>
		<stop  offset="0.2411" style="stop-color:#868686"/>
		<stop  offset="0.3502" style="stop-color:#5D5D5D"/>
		<stop  offset="0.4608" style="stop-color:#3B3B3B"/>
		<stop  offset="0.5734" style="stop-color:#212121"/>
		<stop  offset="0.6887" style="stop-color:#0F0F0F"/>
		<stop  offset="0.8085" style="stop-color:#040404"/>
		<stop  offset="0.94" style="stop-color:#000000"/>
	</radialGradient>
	<path fill="url(#SVGID_1_)" d="M139,329.9c11.6,6.1,16.1,11,16.1,17.1c0,6.1-3.6,11.7,1.3,13.3c5,1.7,5.3,3.1,3.5,4.2
		c-1.8,1.1-7.5,7.1-1.6,10.5c5.9,3.4,9.2,8.5,8.1,11.9c-1.1,3.4-11.4,17.1,3.9,21.2c15.2,4.1,37.5,1.9,45,7.3
		c7.5,5.3,18.4,34.1,12.3,48.6h129.6c0,0-12.5-52.9-13.5-70.9c0,0-4.3-39.5,5.3-53c9.7-13.5,28-34.7,28-80.2
		c0-45.5-42.9-92.2-120-92.2c-68.2,0-96.8,58.5-96.8,89.5c0,0,4.5,29.2-4.8,40.8C146.2,309.5,127.4,323.7,139,329.9z"/>
	<linearGradient id="SVGID_2_" gradientUnits="userSpaceOnUse" x1="134.8627" y1="315.7706" x2="261.6826" y2="315.7706">
		<stop  offset="0" style="stop-color:#FFFFFF"/>
		<stop  offset="0.1005" style="stop-color:#D9D9D9"/>
		<stop  offset="0.289" style="stop-color:#989898"/>
		<stop  offset="0.4687" style="stop-color:#626262"/>
		<stop  offset="0.6344" style="stop-color:#373737"/>
		<stop  offset="0.7834" style="stop-color:#191919"/>
		<stop  offset="0.9103" style="stop-color:#070707"/>
		<stop  offset="1" style="stop-color:#000000"/>
	</linearGradient>
	<path fill="url(#SVGID_2_)" d="M223.7,415.3c-7.5-5.3-29.8-3.1-45-7.3c-15.2-4.1-5-17.8-3.9-21.2c1.1-3.4-2.2-8.5-8.1-11.9
		c-5.9-3.4-0.2-9.4,1.6-10.5c1.8-1.1,1.4-2.5-3.5-4.2c-5-1.7-1.3-7.2-1.3-13.3c0-6.1-4.5-11-16.1-17.1c-11.6-6.1,7.3-20.3,16.6-31.9
		c9.4-11.6,4.8-40.8,4.8-40.8c0-30.4,27.5-87.2,92.8-89.4c-1.6,0-3.3-0.1-4.9-0.1c-68.2,0-96.8,58.5-96.8,89.5
		c0,0,4.5,29.2-4.8,40.8c-9.4,11.6-28.2,25.8-16.6,31.9c11.6,6.1,16.1,11,16.1,17.1c0,6.1-3.6,11.7,1.3,13.3c5,1.7,5.3,3.1,3.5,4.2
		c-1.8,1.1-7.5,7.1-1.6,10.5c5.9,3.4,9.2,8.5,8.1,11.9c-1.1,3.4-11.4,17.1,3.9,21.2c15.2,4.1,37.5,1.9,45,7.3
		c7.5,5.3,18.4,34.1,12.3,48.6h8.9C242.1,449.4,231.3,420.6,223.7,415.3z"/>
</g>
</svg>
