<?xml version="1.0" encoding="utf-8"?>
<!-- Generator: Adobe Illustrator 24.1.2, SVG Export Plug-In . SVG Version: 6.00 Build 0)  -->
<svg version="1.1" id="Reports_1" xmlns="http://www.w3.org/2000/svg" xmlns:xlink="http://www.w3.org/1999/xlink" x="0px" y="0px"
	 width="512px" height="512px" viewBox="0 0 512 512" enable-background="new 0 0 512 512" xml:space="preserve">
<circle fill="#445EA0" cx="256" cy="267" r="245"/>
<path fill="#FFAF10" d="M100.7,421.6c-2.8,0-5-2.3-5-5V71.2H62.6c-2.8,0-5,2.3-5,5v334.5c13.4,18.4,29.2,34.9,47.1,48.9h276.4
	c2.8,0,5-2.3,5-5v-33.1L100.7,421.6L100.7,421.6z"/>
<path fill="#EF9614" d="M76.6,76.2c0-2.8,2.3-5,5-5h-19c-2.8,0-5,2.3-5,5v334.5c5.9,8.1,12.2,15.8,19,23.1V76.2z"/>
<path fill="#FF9518" d="M133.7,385.6c-2.8,0-5-2.3-5-5V36H97.9c-2.8,0-5,2.3-5,5v378.5c0,2.8,2.3,5,5,5h318.5c2.8,0,5-2.2,5-5v-33.8
	L133.7,385.6L133.7,385.6z"/>
<path fill="#EF8318" d="M110.9,419.5V41c0-2.8,2.3-5,5-5h-18c-2.8,0-5,2.3-5,5v378.5c0,2.8,2.3,5,5,5h18
	C113.1,424.5,110.9,422.2,110.9,419.5z"/>
<path fill="#D9EAFC" d="M454.4,383.5c0,2.8-2.3,5-5,5H130.9c-2.8,0-5-2.3-5-5V5c0-2.8,2.3-5,5-5h318.5c2.8,0,5,2.3,5,5V383.5z"/>
<path fill="#C3DDF4" d="M145.7,383.5V5c0-2.8,2.3-5,5-5h-19.8c-2.8,0-5,2.3-5,5v378.5c0,2.8,2.3,5,5,5h19.8
	C148,388.5,145.7,386.2,145.7,383.5z"/>
<g>
	<path fill="#DB722C" d="M415.1,50.8h-69.6c-4.1,0-7.5-3.4-7.5-7.5c0-4.1,3.4-7.5,7.5-7.5h69.6c4.1,0,7.5,3.4,7.5,7.5
		C422.6,47.4,419.2,50.8,415.1,50.8z"/>
	<path fill="#DB722C" d="M415.1,76.3h-69.6c-4.1,0-7.5-3.4-7.5-7.5c0-4.1,3.4-7.5,7.5-7.5h69.6c4.1,0,7.5,3.4,7.5,7.5
		C422.6,72.9,419.2,76.3,415.1,76.3z"/>
	<path fill="#DB722C" d="M415.1,101.8h-69.6c-4.1,0-7.5-3.4-7.5-7.5s3.4-7.5,7.5-7.5h69.6c4.1,0,7.5,3.4,7.5,7.5
		C422.6,98.4,419.2,101.8,415.1,101.8z"/>
	<path fill="#DB722C" d="M415.1,127.3h-69.6c-4.1,0-7.5-3.4-7.5-7.5c0-4.1,3.4-7.5,7.5-7.5h69.6c4.1,0,7.5,3.4,7.5,7.5
		C422.6,123.9,419.2,127.3,415.1,127.3z"/>
</g>
<g>
	<path fill="#52BBEF" d="M285.4,305.3H168.2c-4.1,0-7.5-3.4-7.5-7.5s3.4-7.5,7.5-7.5h117.2c4.1,0,7.5,3.4,7.5,7.5
		C292.9,301.9,289.5,305.3,285.4,305.3z"/>
	<path fill="#52BBEF" d="M285.4,330.8H168.2c-4.1,0-7.5-3.4-7.5-7.5c0-4.1,3.4-7.5,7.5-7.5h117.2c4.1,0,7.5,3.4,7.5,7.5
		C292.9,327.4,289.5,330.8,285.4,330.8z"/>
	<path fill="#52BBEF" d="M285.4,356.3H168.2c-4.1,0-7.5-3.4-7.5-7.5c0-4.1,3.4-7.5,7.5-7.5h117.2c4.1,0,7.5,3.4,7.5,7.5
		C292.9,352.9,289.5,356.3,285.4,356.3z"/>
</g>
<g>
	<path fill="#FE3745" d="M415.1,171.8H308.4c-4.1,0-7.5-3.4-7.5-7.5s3.4-7.5,7.5-7.5h106.7c4.1,0,7.5,3.4,7.5,7.5
		S419.2,171.8,415.1,171.8z"/>
	<path fill="#FE3745" d="M415.1,197.3H308.4c-4.1,0-7.5-3.4-7.5-7.5s3.4-7.5,7.5-7.5h106.7c4.1,0,7.5,3.4,7.5,7.5
		S419.2,197.3,415.1,197.3z"/>
	<path fill="#FE3745" d="M415.1,222.8H308.4c-4.1,0-7.5-3.4-7.5-7.5c0-4.1,3.4-7.5,7.5-7.5h106.7c4.1,0,7.5,3.4,7.5,7.5
		C422.6,219.4,419.2,222.8,415.1,222.8z"/>
	<path fill="#FE3745" d="M415.1,248.3H308.4c-4.1,0-7.5-3.4-7.5-7.5s3.4-7.5,7.5-7.5h106.7c4.1,0,7.5,3.4,7.5,7.5
		S419.2,248.3,415.1,248.3z"/>
	<path fill="#FE3745" d="M154.8,215.8H184c0-16.1,13.1-29.2,29.2-29.2v-29.2C181,157.3,154.8,183.5,154.8,215.8z"/>
</g>
<path fill="#91E0E8" d="M228.1,142.4v29.2c16.1,0,29.2,13.1,29.2,29.2h29.2C286.6,168.6,260.4,142.4,228.1,142.4z"/>
<g>
	<path fill="#FFAF10" d="M242.5,215.8c0,16.1-13.1,29.2-29.2,29.2S184,231.9,184,215.8h-29.2c0,32.3,26.2,58.5,58.5,58.5
		c32.3,0,58.5-26.2,58.5-58.5H242.5z"/>
	<path fill="#FFAF10" d="M188.4,115.1V45.3c0-1.7-1.4-3-3-3h-18.2c-1.6,0-3,1.3-3,3v69.8H188.4z"/>
</g>
<path fill="#FE3745" d="M227.5,115.1V64.3c0-1.7-1.4-3-3-3h-18.2c-1.6,0-3,1.3-3,3v50.8H227.5z"/>
<path fill="#37C47A" d="M266.6,115.1V87.3c0-1.7-1.4-3-3-3h-18.2c-1.6,0-3,1.3-3,3v27.8H266.6z"/>
<path fill="#91E0E8" d="M305.7,115.1V45.3c0-1.7-1.4-3-3-3h-18.2c-1.6,0-3,1.3-3,3v69.8H305.7z"/>
<path fill="#FE3745" d="M379.6,319.7c0-1.7,1.3-3,3-3h13.6v-33.6c0-2.8-2.3-5-5-5H346c-2.8,0-5,2.3-5,5v45.1c0,2.8,2.3,5,5,5h33.6
	V319.7z"/>
<path fill="#37C47A" d="M415.1,347.2c0,2.8-2.3,5-5,5h-27.5c-2.8,0-5-2.3-5-5v-27.5c0-2.8,2.3-5,5-5h27.5c2.8,0,5,2.3,5,5V347.2z"/>
<path fill="#52BBEF" d="M310.9,127.3H159c-4.1,0-7.5-3.4-7.5-7.5c0-4.1,3.4-7.5,7.5-7.5h151.9c4.1,0,7.5,3.4,7.5,7.5
	C318.4,123.9,315,127.3,310.9,127.3z"/>
<g>
	
		<image overflow="visible" opacity="0.75" width="306" height="281" xlink:href="3A2ADC2E.png"  transform="matrix(1 0 0 1 102 115)">
	</image>
	<g>
		<g>
			<g>
				<path d="M294.8,233.8v-37.2l-19.9-5c-1.2-3.7-2.7-7.3-4.5-10.8l10.6-17.6l-26.3-26.3l-17.6,10.6c-3.5-1.8-7.1-3.3-10.8-4.5
					l-5-19.9h-18.6L181.1,177h21.6c21,0,38.1,17.1,38.1,38.1s-17.1,38.1-38.1,38.1h-21.6l21.6,53.9h18.6l5-19.9
					c3.7-1.2,7.3-2.7,10.8-4.5l17.6,10.6L281,267l-10.6-17.6c1.8-3.5,3.3-7.1,4.5-10.8L294.8,233.8z"/>
				<path d="M164.7,215.2c0-21,17.1-38.1,38.1-38.1v-53.9h-18.6l-5,19.9c-3.7,1.2-7.3,2.7-10.8,4.5L150.8,137l-26.3,26.3l10.6,17.6
					c-1.8,3.5-3.3,7.1-4.5,10.8l-19.9,5v37.2l19.9,5c1.2,3.7,2.7,7.3,4.5,10.8l-10.6,17.6l26.3,26.3l17.6-10.6
					c3.5,1.8,7.1,3.3,10.8,4.5l5,19.9h18.6v-53.9C181.8,253.3,164.7,236.2,164.7,215.2z"/>
				<path fill="#8D8C84" d="M202.8,160.9L192,177.1h10.8c21,0,38.1,17.1,38.1,38.1s-17.1,38.1-38.1,38.1H192l10.8,16.2
					c30,0,54.3-24.3,54.3-54.3S232.8,160.9,202.8,160.9z"/>
				<path fill="#434343" d="M164.7,215.2c0-21,17.1-38.1,38.1-38.1v-16.2c-30,0-54.3,24.3-54.3,54.3s24.3,54.3,54.3,54.3v-16.2
					C181.8,253.3,164.7,236.2,164.7,215.2z"/>
			</g>
			<g>
				<path d="M385.8,327.5v-23.4l-12.5-3.1c-0.8-2.3-1.7-4.6-2.8-6.8l6.6-11.1l-16.5-16.5l-11.1,6.6c-2.2-1.1-4.4-2-6.8-2.8
					l-3.1-12.5h-11.7l-13.6,33.9h13.6c13.2,0,24,10.7,24,24s-10.7,24-24,24h-13.6l13.6,33.9h11.7l3.1-12.5c2.3-0.8,4.6-1.7,6.8-2.8
					l11.1,6.6l16.5-16.5l-6.6-11.1c1.1-2.2,2-4.4,2.8-6.8L385.8,327.5z"/>
				<path d="M304,315.8c0-13.2,10.7-24,24-24v-33.9h-11.8l-3.1,12.5c-2.3,0.8-4.6,1.7-6.8,2.8l-11.1-6.6l-16.5,16.5l6.6,11.1
					c-1.1,2.2-2,4.4-2.8,6.8l-12.5,3.1v23.4l12.5,3.1c0.8,2.3,1.7,4.6,2.8,6.8l-6.6,11.1l16.5,16.5l11.1-6.6c2.2,1.1,4.4,2,6.8,2.8
					l3.1,12.5h11.7v-33.9C314.7,339.8,304,329.1,304,315.8z"/>
				<path fill="#8D8C84" d="M327.9,281.7l-6.8,10.2h6.8c13.2,0,24,10.7,24,24s-10.7,24-24,24h-6.8l6.8,10.2
					c18.9,0,34.1-15.3,34.1-34.1C362.1,297,346.8,281.7,327.9,281.7z"/>
				<path fill="#434343" d="M304,315.8c0-13.2,10.7-24,24-24v-10.2c-18.9,0-34.1,15.3-34.1,34.1c0,18.9,15.3,34.1,34.1,34.1v-10.2
					C314.7,339.8,304,329.1,304,315.8z"/>
			</g>
		</g>
	</g>
</g>
</svg>
