<?xml version="1.0" encoding="utf-8"?>
<!-- Generator: Adobe Illustrator 24.1.2, SVG Export Plug-In . SVG Version: 6.00 Build 0)  -->
<svg version="1.1" id="Layer_1" xmlns="http://www.w3.org/2000/svg" xmlns:xlink="http://www.w3.org/1999/xlink" x="0px" y="0px"
	 width="512px" height="512px" viewBox="0 0 512 512" enable-background="new 0 0 512 512" xml:space="preserve">
<g>
	<circle fill="#FFFFFF" cx="256" cy="256" r="256"/>
</g>
<g>
	<g>
		
			<image overflow="visible" opacity="0.75" width="329" height="361" xlink:href="80E12ECA.png"  transform="matrix(1 0 0 1 99.3442 83.3442)">
		</image>
		<g>
			<rect x="107.8" y="91.8" fill="#C2C2C2" width="296.5" height="328.5"/>
		</g>
	</g>
	<text transform="matrix(1 0 0 1 217.3379 191.7998)" font-family="'Arial-Black'" font-size="14px">ON</text>
	<text transform="matrix(1 0 0 1 216.1621 217.709)" font-family="'Arial-Black'" font-size="14px">ID1</text>
	<text transform="matrix(1 0 0 1 216.1621 243.9453)" font-family="'Arial-Black'" font-size="14px">ID2</text>
	<text transform="matrix(1 0 0 1 212.4058 268.8726)" font-family="'Arial-Black'" font-size="14px">ACK</text>
	<g>
		
			<image overflow="visible" opacity="0.75" width="338" height="372" xlink:href="80E12ECE.png"  transform="matrix(1 0 0 1 87 73)">
		</image>
		<g>
			
				<rect x="120" y="106" fill="none" stroke="#000000" stroke-width="4.0297" stroke-linejoin="round" stroke-miterlimit="10" width="272" height="306"/>
		</g>
	</g>
	<path fill="#1F140F" d="M287.1,214.2c0.6,0.3,0.8,0.6,0.8,0.9c0,0.3-0.2,0.6,0.1,0.7c0.3,0.1,0.3,0.2,0.2,0.2
		c-0.1,0.1-0.4,0.4-0.1,0.5c0.3,0.2,0.5,0.4,0.4,0.6c-0.1,0.2-0.6,0.9,0.2,1.1c0.8,0.2,1.9,0.1,2.3,0.4c0.4,0.3,0.9,1.7,0.6,2.5h6.6
		c0,0-0.6-2.7-0.7-3.6c0,0-0.2-2,0.3-2.7c0.5-0.7,1.4-1.8,1.4-4.1c0-2.3-2.2-4.7-6.1-4.7c-3.5,0-4.9,3-4.9,4.5c0,0,0.2,1.5-0.2,2.1
		C287.4,213.2,286.5,213.9,287.1,214.2z"/>
	<rect x="291" y="180" fill="#1F140F" width="4" height="14"/>
	<g>
		<g>
			<g>
				<g>
					<path fill="#001689" d="M194.2,161.5h-11.4v-5.9h1.9v-12.7h-1.9V137h11.7c2.7,0,4.9,0.2,6.5,0.5c1.7,0.3,3.3,1,4.8,2
						c1.5,1,2.7,2.4,3.5,4.2c0.4,0.8,0.7,1.7,1,2.7c0.2,1,0.3,2,0.3,3c0,2.1-0.5,4.1-1.4,5.8c-0.9,1.7-2,3.1-3.4,4
						c-1.3,0.9-2.8,1.5-4.4,1.8C200,161.3,197.5,161.5,194.2,161.5z"/>
				</g>
				<g>
					<path fill="#FFFFFF" d="M196.2,156.7h-8.1v-3.6h1.1v-7.8H188v-3.6h8.2v3.6H195v7.8h1.2V156.7z M205.5,156.7h-7.8v-3.6h0.7
						l-3.3-4.2l3.8-3.5h-1.2v-3.6h7.4v3.6H204l-3.1,2.8l3.8,4.9h0.7V156.7z"/>
				</g>
			</g>
			<g>
				<path fill="#001689" d="M229.4,147.3h-4.8v-2.5h0.8v-5.4h-0.8v-2.5h4.9c1.1,0,2,0.1,2.8,0.2c0.7,0.1,1.4,0.4,2,0.9
					c0.6,0.4,1.1,1,1.5,1.8c0.2,0.4,0.3,0.7,0.4,1.1c0.1,0.4,0.1,0.8,0.1,1.3c0,0.9-0.2,1.7-0.6,2.4c-0.4,0.7-0.9,1.3-1.4,1.7
					c-0.6,0.4-1.2,0.6-1.8,0.8C231.8,147.3,230.8,147.3,229.4,147.3z M229.4,139.5v5.4h0.4c0.9,0,1.5-0.2,1.8-0.7
					c0.3-0.5,0.4-1.1,0.4-1.9c0-0.5-0.1-0.9-0.2-1.3c-0.1-0.4-0.3-0.8-0.7-1c-0.3-0.2-0.9-0.4-1.6-0.4H229.4z"/>
				<path fill="#001689" d="M242.7,147.3h-5.1v-2.3h0.7v-2.7h-0.7v-2.3h4.5v4.9h0.6V147.3z M238,138.1c0-0.4,0.2-0.7,0.6-0.9
					c0.4-0.2,0.9-0.4,1.5-0.4c0.6,0,1.1,0.1,1.4,0.4c0.4,0.3,0.5,0.6,0.5,0.9c0,0.4-0.2,0.7-0.6,0.9c-0.4,0.2-0.9,0.3-1.4,0.3
					c-0.6,0-1.1-0.1-1.5-0.3C238.2,138.9,238,138.6,238,138.1z"/>
				<path fill="#001689" d="M246.7,142.2l-2.9-0.3c0.3-0.7,0.8-1.2,1.6-1.5c0.7-0.3,1.7-0.4,3.1-0.4c0.5,0,1,0,1.4,0
					c0.4,0,0.8,0.1,1.1,0.1c0.7,0.1,1.1,0.3,1.5,0.6c0.3,0.3,0.5,0.5,0.7,0.8c0.1,0.3,0.2,0.8,0.2,1.4v2.1h0.9v2.3h-4.6v-0.5
					c-0.6,0.4-1.5,0.6-2.6,0.6c-1,0-1.8-0.2-2.3-0.7c-0.5-0.4-0.8-1-0.8-1.6c0-0.7,0.3-1.2,1-1.6c0.6-0.4,1.5-0.6,2.5-0.6
					c0.9,0,1.7,0.1,2.2,0.4v-0.2c0-0.4,0-0.8-0.1-0.9c-0.1-0.2-0.2-0.3-0.5-0.5c-0.2-0.1-0.5-0.2-0.9-0.2
					C247.5,141.5,247.1,141.7,246.7,142.2z M249.5,145.5v-1.3c-0.3-0.2-0.7-0.3-1.1-0.3c-0.3,0-0.6,0.1-0.8,0.3
					c-0.2,0.2-0.3,0.4-0.3,0.7c0,0.3,0.1,0.5,0.3,0.7c0.2,0.2,0.4,0.3,0.7,0.3C248.9,145.9,249.2,145.8,249.5,145.5z"/>
				<path fill="#001689" d="M260.9,147.3h-5.6v-2.3h0.9v-2.7h-0.9v-2.3h4.6v1c0.4-0.3,0.8-0.6,1.4-0.8c0.6-0.2,1.1-0.3,1.6-0.3
					c1.2,0,2,0.5,2.4,1.4c1.1-0.9,2.2-1.4,3.4-1.4c0.6,0,1.1,0.1,1.5,0.4c0.4,0.3,0.7,0.6,0.9,1.1c0.2,0.5,0.3,1.1,0.3,2v1.6h0.9
					v2.3h-4.7v-3.1c0-0.8-0.1-1.3-0.2-1.5c-0.1-0.2-0.3-0.3-0.7-0.3c-0.4,0-0.8,0.2-1.2,0.5v2.2h1v2.3h-4.7v-3.1
					c0-0.8-0.1-1.3-0.2-1.5c-0.1-0.2-0.3-0.3-0.7-0.3c-0.4,0-0.8,0.2-1.2,0.5v2.2h1V147.3z"/>
				<path fill="#001689" d="M273.4,143.7c0-1.1,0.4-1.9,1.3-2.7c0.9-0.7,2.1-1.1,3.6-1.1c1.5,0,2.8,0.4,3.7,1.1
					c1,0.7,1.4,1.6,1.4,2.7c0,1.1-0.5,2-1.4,2.7c-0.9,0.7-2.1,1.1-3.6,1.1c-1.6,0-2.9-0.4-3.8-1.1
					C273.8,145.7,273.4,144.8,273.4,143.7z M277.2,143.7c0,1.1,0.4,1.7,1.2,1.7c0.9,0,1.3-0.6,1.3-1.7c0-0.5-0.1-0.9-0.3-1.2
					c-0.2-0.3-0.5-0.4-0.9-0.4c-0.4,0-0.7,0.1-0.9,0.4C277.3,142.8,277.2,143.2,277.2,143.7z"/>
				<path fill="#001689" d="M290.3,147.3h-5.7v-2.3h0.9v-2.7h-0.9v-2.3h4.6v0.9c0.9-0.7,1.9-1,2.9-1c0.9,0,1.6,0.3,2.1,0.8
					c0.5,0.5,0.7,1.3,0.7,2.4v1.8h0.9v2.3h-4.6v-3.2c0-0.7-0.1-1.2-0.2-1.4c-0.1-0.2-0.4-0.3-0.7-0.3c-0.3,0-0.7,0.1-1.1,0.4v2.3h1
					V147.3z"/>
				<path fill="#001689" d="M307.9,145.1v2.3h-4.7v-0.5c-0.7,0.4-1.5,0.6-2.4,0.6c-1,0-1.9-0.3-2.7-0.9c-0.8-0.6-1.2-1.5-1.2-2.6
					c0-1.2,0.4-2.2,1.1-2.9c0.7-0.7,1.7-1,2.9-1c0.9,0,1.6,0.2,2.3,0.6v-1.3h-0.9v-2.3h4.6v8H307.9z M303.2,143.7
					c0-0.4-0.1-0.8-0.3-1.1c-0.2-0.3-0.5-0.4-0.9-0.4c-0.8,0-1.3,0.5-1.3,1.6c0,0.4,0.1,0.8,0.3,1.1c0.2,0.3,0.5,0.4,0.9,0.4
					c0.4,0,0.7-0.1,0.9-0.4C303.1,144.7,303.2,144.3,303.2,143.7z"/>
				<path fill="#001689" d="M318.5,147.3h-5.6v-2.5h0.8v-5.4h-0.8v-2.5h5.6v2.5h-0.8v5.4h0.8V147.3z M324.9,147.3h-5.3v-2.5h0.5
					l-2.3-2.9l2.6-2.4h-0.8v-2.5h5.1v2.5h-0.8l-2.1,2l2.6,3.4h0.5V147.3z"/>
				<path fill="#001689" d="M331.7,145.1l3.1,0.4c-0.1,0.3-0.3,0.6-0.6,0.9c-0.2,0.3-0.5,0.5-0.9,0.7c-0.7,0.4-1.6,0.6-2.6,0.6
					c-1.7,0-2.9-0.3-3.8-1c-0.8-0.7-1.3-1.6-1.3-2.7c0-1.1,0.4-2,1.3-2.7c0.8-0.7,1.9-1.1,3.4-1.1c1.4,0,2.5,0.3,3.3,1
					c0.8,0.7,1.3,1.7,1.3,3.1h-5.7c0,1.2,0.4,1.7,1.3,1.7C331.1,145.9,331.4,145.6,331.7,145.1z M329.3,143.2h2.1c0-0.1,0-0.2,0-0.3
					c0-0.4-0.1-0.7-0.3-1c-0.2-0.3-0.5-0.4-0.8-0.4c-0.3,0-0.6,0.1-0.8,0.4c-0.2,0.3-0.3,0.6-0.3,1
					C329.3,143.1,329.3,143.2,329.3,143.2z"/>
				<path fill="#001689" d="M340.3,150.6h-3.1v-2.2h1.2l0.4-0.7l-2.8-5.3h-0.6v-2.3h4.9v2.3h-0.8l1.3,2.8l1.2-2.8h-0.7v-2.3h3.7v2.3
					h-0.7L340.3,150.6z"/>
			</g>
			<g>
				<path fill="#76777A" d="M225.8,160.2v-7.8h-1.1v-1.3h3.8v1.3h-1.1v7.8h1.1v1.3h-3.8v-1.3H225.8z"/>
				<path fill="#76777A" d="M234.7,154.3v0.9c0.9-0.7,1.7-1,2.5-1c0.5,0,0.9,0.1,1.2,0.3c0.3,0.2,0.5,0.5,0.6,0.8
					c0.1,0.3,0.1,0.8,0.1,1.4v3.5h1.2v1.3h-2.6v-4.7c0-0.5-0.1-0.9-0.2-1.1c-0.2-0.2-0.4-0.2-0.6-0.2c-0.6,0-1.3,0.3-2.1,0.9v3.9
					h1.2v1.3H232v-1.3h1.3v-4.7H232v-1.3H234.7z"/>
				<path fill="#76777A" d="M243.5,155.6v-1.3h0.9v-1.1l1.4-1.3v2.4h1.3v1.3h-1.3v3.5c0,0.6,0,0.9,0.1,1c0.1,0.1,0.2,0.2,0.5,0.2
					c0.3,0,0.5,0,0.8-0.1v1.3c-0.4,0.1-0.7,0.2-1.1,0.2c-0.4,0-0.8-0.1-1.1-0.3c-0.3-0.2-0.4-0.4-0.5-0.7c-0.1-0.3-0.1-0.8-0.1-1.5
					v-3.6H243.5z"/>
				<path fill="#76777A" d="M258.4,158.3h-6.1c0.1,0.7,0.4,1.2,0.8,1.6c0.4,0.4,1,0.6,1.7,0.6c1,0,1.8-0.4,2.4-1.2l1.3,0.6
					c-0.4,0.6-0.9,1.1-1.6,1.4c-0.7,0.3-1.3,0.5-2,0.5c-1.1,0-2-0.3-2.8-1c-0.8-0.7-1.2-1.6-1.2-2.8c0-1.1,0.4-2,1.1-2.7
					c0.8-0.7,1.6-1.1,2.6-1.1c1,0,1.8,0.3,2.6,1C258,155.8,258.4,156.9,258.4,158.3z M257,157.2c-0.1-0.5-0.4-1-0.8-1.4
					c-0.4-0.4-1-0.6-1.6-0.6c-0.6,0-1.1,0.2-1.5,0.6c-0.4,0.4-0.6,0.8-0.7,1.4H257z"/>
				<path fill="#76777A" d="M263.4,160.3v-4.7H262v-1.3h2.6v1.6c0.2-0.4,0.4-0.8,0.7-1.1c0.3-0.3,0.6-0.5,0.9-0.6
					c0.3-0.1,0.7-0.1,1.3-0.1h0.4v1.4h-0.3c-0.7,0-1.3,0.1-1.6,0.2c-0.4,0.1-0.6,0.4-0.8,0.8c-0.2,0.4-0.3,1.1-0.3,2v1.6h1.6v1.3
					H262v-1.3H263.4z"/>
				<path fill="#76777A" d="M274.2,154.3v0.9c0.9-0.7,1.7-1,2.5-1c0.5,0,0.9,0.1,1.2,0.3c0.3,0.2,0.5,0.5,0.6,0.8
					c0.1,0.3,0.1,0.8,0.1,1.4v3.5h1.2v1.3h-2.6v-4.7c0-0.5-0.1-0.9-0.2-1.1c-0.2-0.2-0.4-0.2-0.6-0.2c-0.6,0-1.3,0.3-2.1,0.9v3.9
					h1.2v1.3h-3.9v-1.3h1.3v-4.7h-1.3v-1.3H274.2z"/>
				<path fill="#76777A" d="M290.4,160.3v1.3h-2.5v-0.9c-0.7,0.7-1.5,1-2.3,1c-0.7,0-1.2-0.2-1.7-0.6c-0.5-0.4-0.7-1-0.7-1.6
					c0-0.7,0.3-1.2,0.8-1.7c0.5-0.4,1.1-0.7,1.9-0.7c0.7,0,1.3,0.2,2,0.6v-0.7c0-0.4,0-0.7-0.1-0.9c-0.1-0.2-0.2-0.4-0.5-0.5
					c-0.3-0.2-0.6-0.2-1-0.2c-0.7,0-1.2,0.3-1.5,0.9l-1.4-0.4c0.6-1.1,1.6-1.7,3.1-1.7c0.5,0,1,0.1,1.4,0.2c0.4,0.1,0.7,0.3,0.9,0.6
					c0.2,0.2,0.3,0.5,0.4,0.7c0.1,0.3,0.1,0.7,0.1,1.3v3.3H290.4z M287.8,158.8c-0.6-0.5-1.2-0.7-1.9-0.7c-0.4,0-0.7,0.1-1,0.3
					c-0.3,0.2-0.4,0.5-0.4,0.9c0,0.3,0.1,0.6,0.3,0.9c0.2,0.2,0.5,0.3,0.9,0.3c0.7,0,1.3-0.3,1.9-0.9V158.8z"/>
				<path fill="#76777A" d="M293.7,155.6v-1.3h0.9v-1.1l1.4-1.3v2.4h1.3v1.3H296v3.5c0,0.6,0,0.9,0.1,1c0.1,0.1,0.2,0.2,0.5,0.2
					c0.3,0,0.5,0,0.8-0.1v1.3c-0.4,0.1-0.7,0.2-1.1,0.2c-0.4,0-0.8-0.1-1.1-0.3c-0.3-0.2-0.4-0.4-0.5-0.7c-0.1-0.3-0.1-0.8-0.1-1.5
					v-3.6H293.7z"/>
				<path fill="#76777A" d="M302.1,160.3v-4.7h-1.1v-1.3h2.5v6h1.1v1.3h-3.7v-1.3H302.1z M301.9,151.8c0-0.2,0.1-0.4,0.2-0.6
					c0.2-0.2,0.4-0.3,0.6-0.3c0.2,0,0.4,0.1,0.6,0.2c0.2,0.2,0.3,0.4,0.3,0.6c0,0.2-0.1,0.4-0.3,0.6c-0.2,0.2-0.4,0.2-0.6,0.2
					c-0.2,0-0.4-0.1-0.6-0.3C301.9,152.3,301.9,152.1,301.9,151.8z"/>
				<path fill="#76777A" d="M308.1,157.9c0-1.1,0.4-2,1.1-2.7c0.7-0.7,1.6-1.1,2.7-1.1c1,0,1.9,0.4,2.7,1.1c0.7,0.7,1.1,1.6,1.1,2.8
					c0,1.1-0.4,2.1-1.1,2.8c-0.7,0.7-1.6,1.1-2.7,1.1c-1.1,0-2-0.4-2.7-1.1C308.5,159.9,308.1,159,308.1,157.9z M309.6,157.9
					c0,0.7,0.2,1.3,0.7,1.8c0.4,0.5,1,0.7,1.6,0.7c0.7,0,1.2-0.2,1.6-0.7c0.4-0.5,0.7-1,0.7-1.7c0-0.7-0.2-1.3-0.7-1.7
					c-0.4-0.5-1-0.7-1.6-0.7c-0.7,0-1.2,0.2-1.6,0.7C309.8,156.6,309.6,157.2,309.6,157.9z"/>
				<path fill="#76777A" d="M322,154.3v0.9c0.9-0.7,1.7-1,2.5-1c0.5,0,0.9,0.1,1.2,0.3c0.3,0.2,0.5,0.5,0.6,0.8
					c0.1,0.3,0.1,0.8,0.1,1.4v3.5h1.2v1.3H325v-4.7c0-0.5-0.1-0.9-0.2-1.1c-0.2-0.2-0.4-0.2-0.6-0.2c-0.6,0-1.3,0.3-2.1,0.9v3.9h1.2
					v1.3h-3.9v-1.3h1.3v-4.7h-1.3v-1.3H322z"/>
				<path fill="#76777A" d="M338.2,160.3v1.3h-2.5v-0.9c-0.7,0.7-1.5,1-2.3,1c-0.7,0-1.2-0.2-1.7-0.6c-0.5-0.4-0.7-1-0.7-1.6
					c0-0.7,0.3-1.2,0.8-1.7c0.5-0.4,1.1-0.7,1.9-0.7c0.7,0,1.3,0.2,2,0.6v-0.7c0-0.4,0-0.7-0.1-0.9c-0.1-0.2-0.2-0.4-0.5-0.5
					c-0.3-0.2-0.6-0.2-1-0.2c-0.7,0-1.2,0.3-1.5,0.9l-1.4-0.4c0.6-1.1,1.6-1.7,3.1-1.7c0.5,0,1,0.1,1.4,0.2c0.4,0.1,0.7,0.3,0.9,0.6
					c0.2,0.2,0.3,0.5,0.4,0.7c0.1,0.3,0.1,0.7,0.1,1.3v3.3H338.2z M335.6,158.8c-0.6-0.5-1.2-0.7-1.9-0.7c-0.4,0-0.7,0.1-1,0.3
					c-0.3,0.2-0.4,0.5-0.4,0.9c0,0.3,0.1,0.6,0.3,0.9c0.2,0.2,0.5,0.3,0.9,0.3c0.7,0,1.3-0.3,1.9-0.9V158.8z"/>
				<path fill="#76777A" d="M342.6,160.3v-7.9h-1.3v-1.3h2.7v9.1h1.1v1.3h-3.8v-1.3H342.6z"/>
			</g>
		</g>
	</g>
	<g>
		<g>
			<g>
				<path d="M286.3,243.4c-0.8-0.1-1.6,0.4-1.7,1.2c0,0.1,0,0.2,0,0.2c0,0.8,0.7,1.5,1.5,1.5c0.8,0,1.5-0.7,1.5-1.5
					c0-0.1,0-0.2,0-0.2C287.4,244,286.9,243.5,286.3,243.4z"/>
				<path d="M282.9,240c-0.1,0-0.2,0.1-0.1,0.2v3.6c0,0,0,0,0,0c0,0.1,0.1,0.2,0.2,0.2h0.7c0.2-0.7,0.8-1.3,1.5-1.5
					c1.3-0.4,2.7,0.2,3.1,1.5h0.6v-4.7h-4.6L282.9,240z"/>
				<path d="M289,236.3C289,236.3,289,236.3,289,236.3c0-0.1-0.1-0.3-0.3-0.2h-2.3c-0.1,0-0.2,0.1-0.2,0.1l-1.1,2.2h3.9V236.3z"/>
				<path d="M299.7,243.4c-0.7,0-1.4,0.5-1.5,1.2c0,0.1,0,0.2,0,0.2c0,0.8,0.7,1.5,1.5,1.5c0.8,0,1.5-0.7,1.5-1.5c0-0.1,0-0.2,0-0.2
					C301.1,243.9,300.5,243.4,299.7,243.4z"/>
				<path d="M289.9,240.1h12.8v-7.5h-14.2v2.4h0.2c0,0,0,0,0,0c0.7,0,1.2,0.5,1.2,1.2V240.1z"/>
				<path d="M303,241h-13.1v3h7.5c0.2-0.7,0.8-1.3,1.5-1.5c1.3-0.4,2.7,0.2,3.1,1.5h1c0,0,0,0,0,0c0.1,0,0.2-0.1,0.2-0.2v-2.5
					C303.3,241.2,303.2,241,303,241z"/>
			</g>
		</g>
	</g>
	<g>
		<g>
			<polygon points="300.5,256.3 290.2,264.8 285.5,261.3 283.6,263.4 289.4,270.2 290.4,271.3 291.5,270.2 302.4,258.4 			"/>
		</g>
	</g>
	<g>
		
			<image overflow="visible" opacity="0.75" width="65" height="65" xlink:href="80E12EC9.png"  transform="matrix(1 0 0 1 292 274)">
		</image>
		<g>
			<g>
				<g>
					<g>
						<defs>
							<circle id="SVGID_1_" cx="321.5" cy="303.5" r="15"/>
						</defs>
						<clipPath id="SVGID_2_">
							<use xlink:href="#SVGID_1_"  overflow="visible"/>
						</clipPath>
					</g>
				</g>
			</g>
			<g>
				<g>
					<g>
						<defs>
							<circle id="SVGID_3_" cx="321.5" cy="303.5" r="15"/>
						</defs>
						<clipPath id="SVGID_4_">
							<use xlink:href="#SVGID_3_"  overflow="visible"/>
						</clipPath>
						<g clip-path="url(#SVGID_4_)">
							<g>
								<defs>
									<rect id="SVGID_5_" x="301.5" y="283.5" width="40" height="40"/>
								</defs>
								<clipPath id="SVGID_6_">
									<use xlink:href="#SVGID_5_"  overflow="visible"/>
								</clipPath>
								<g clip-path="url(#SVGID_6_)">
									
										<image overflow="visible" width="84" height="84" xlink:href="80E12ECA.jpg"  transform="matrix(0.48 0 0 0.48 301.44 283.2)">
									</image>
								</g>
							</g>
						</g>
					</g>
					<circle fill="none" stroke="#999999" stroke-width="3.6364" stroke-miterlimit="10" cx="321.5" cy="303.5" r="15"/>
				</g>
				<radialGradient id="SVGID_7_" cx="321.5" cy="303.5" r="9.5" gradientUnits="userSpaceOnUse">
					<stop  offset="0.2816" style="stop-color:#FFFFFF"/>
					<stop  offset="1" style="stop-color:#000000"/>
				</radialGradient>
				<circle fill="url(#SVGID_7_)" stroke="#1A1A1A" stroke-width="2" stroke-miterlimit="10" cx="321.5" cy="303.5" r="9.5"/>
			</g>
			<g>
				<g>
					<g>
						<defs>
							<circle id="SVGID_8_" cx="321.5" cy="303.5" r="15"/>
						</defs>
						<clipPath id="SVGID_9_">
							<use xlink:href="#SVGID_8_"  overflow="visible"/>
						</clipPath>
					</g>
				</g>
			</g>
		</g>
	</g>
	<g>
		<radialGradient id="SVGID_10_" cx="190.5" cy="301.5" r="21.5" gradientUnits="userSpaceOnUse">
			<stop  offset="0" style="stop-color:#000000"/>
			<stop  offset="0.3491" style="stop-color:#020202"/>
			<stop  offset="0.4925" style="stop-color:#090909"/>
			<stop  offset="0.5983" style="stop-color:#151515"/>
			<stop  offset="0.6855" style="stop-color:#272727"/>
			<stop  offset="0.7613" style="stop-color:#3E3E3E"/>
			<stop  offset="0.8293" style="stop-color:#5A5A5A"/>
			<stop  offset="0.8912" style="stop-color:#7C7C7C"/>
			<stop  offset="0.9468" style="stop-color:#A1A1A1"/>
			<stop  offset="0.9985" style="stop-color:#CCCCCC"/>
			<stop  offset="1" style="stop-color:#CDCDCD"/>
		</radialGradient>
		<circle fill="url(#SVGID_10_)" stroke="#666666" stroke-width="2" stroke-miterlimit="10" cx="190.5" cy="301.5" r="21.5"/>
		<circle fill="#1A1A1A" stroke="#666666" stroke-width="2.4762" stroke-miterlimit="10" cx="190.5" cy="301.5" r="13"/>
		<rect x="184.5" y="275" fill="#1A1A1A" stroke="#666666" stroke-miterlimit="10" width="12" height="53"/>
		<circle fill="#E6E6E6" stroke="#666666" stroke-width="0.5313" stroke-miterlimit="10" cx="191" cy="302" r="8.5"/>
	</g>
	<g>
		<circle fill="none" stroke="#808080" stroke-miterlimit="10" cx="354" cy="286" r="5"/>
		<ellipse fill="none" stroke="#808080" stroke-miterlimit="10" cx="354" cy="307.5" rx="3.5" ry="14"/>
		<path fill="none" stroke="#808080" stroke-miterlimit="10" d="M348.5,285.5c0,15.5,0.9,28,2,28"/>
		<path fill="none" stroke="#808080" stroke-miterlimit="10" d="M359.3,285.5c0,15.5-0.9,28-2,28"/>
		<g>
			<path fill="none" stroke="#999999" stroke-miterlimit="10" d="M349,289c0,1.7,2.2,3,5,3"/>
			<path fill="none" stroke="#999999" stroke-miterlimit="10" d="M358.5,289c0,1.7-2.2,3-5,3"/>
		</g>
	</g>
	<g>
		<circle fill="none" stroke="#999999" stroke-width="1.9375" stroke-miterlimit="10" cx="265" cy="187.3" r="7.8"/>
		<circle fill="#747171" stroke="#4D4D4D" stroke-width="1.7437" stroke-miterlimit="10" cx="265" cy="187.3" r="4.4"/>
	</g>
	<g>
		<circle fill="none" stroke="#999999" stroke-width="1.9375" stroke-miterlimit="10" cx="265" cy="263.4" r="7.8"/>
		<circle fill="#747171" stroke="#4D4D4D" stroke-width="1.7437" stroke-miterlimit="10" cx="265" cy="263.4" r="4.4"/>
	</g>
	<g>
		<circle fill="none" stroke="#999999" stroke-width="1.9375" stroke-miterlimit="10" cx="265" cy="238.4" r="7.8"/>
		<circle fill="#747171" stroke="#4D4D4D" stroke-width="1.7437" stroke-miterlimit="10" cx="265" cy="238.4" r="4.4"/>
	</g>
	<g>
		<circle fill="none" stroke="#999999" stroke-width="1.9375" stroke-miterlimit="10" cx="265" cy="213.4" r="7.8"/>
		<circle fill="#747171" stroke="#4D4D4D" stroke-width="1.7437" stroke-miterlimit="10" cx="265" cy="213.4" r="4.4"/>
	</g>
</g>
</svg>
