<?xml version="1.0" encoding="utf-8"?>
<!-- Generator: Adobe Illustrator 24.1.2, SVG Export Plug-In . SVG Version: 6.00 Build 0)  -->
<svg version="1.1" id="Layer_1" xmlns="http://www.w3.org/2000/svg" xmlns:xlink="http://www.w3.org/1999/xlink" x="0px" y="0px"
	 width="512px" height="512px" viewBox="0 0 512 512" enable-background="new 0 0 512 512" xml:space="preserve">
<g>
	<circle fill="#FFFFFF" cx="256" cy="256" r="256"/>
</g>
<g>
	
		<image overflow="visible" opacity="0.75" width="416" height="325" xlink:href="40FBED6E.png"  transform="matrix(1 0 0 1 55 104)">
	</image>
	<g>
		<g>
			<polygon fill="#FFC837" stroke="#E5AA0A" stroke-width="13.0583" stroke-miterlimit="10" points="381.5,141 381.5,160.2 
				354.5,160.2 354.5,141 70.5,141 70.5,165.6 79.3,165.6 79.3,399.8 432.7,399.8 432.7,165.6 441.5,165.6 441.5,141 			"/>
			<path fill="none" stroke="#000000" stroke-width="1.1987" stroke-linecap="round" stroke-miterlimit="10" d="M359.7,399.7v-11.1
				h16.5v11.1h4V165.6h-4v11.7h-16.5v-11.7h-4v234.1H359.7z M359.7,181.8h16.5v12.7h-16.5V181.8z M359.7,199h16.5v12.7h-16.5V199z
				 M359.7,216.3h16.5V229h-16.5V216.3z M359.7,233.5h16.5v12.7h-16.5V233.5z M359.7,250.7h16.5v12.7h-16.5V250.7z M359.7,268h16.5
				v12.7h-16.5V268z M359.7,285.2h16.5v12.7h-16.5V285.2z M359.7,302.4h16.5v12.7h-16.5V302.4z M359.7,319.7h16.5v12.7h-16.5V319.7z
				 M359.7,336.9h16.5v12.7h-16.5V336.9z M359.7,354.1h16.5v12.7h-16.5V354.1z M359.7,371.3h16.5v12.7h-16.5V371.3z"/>
			<path fill="#F7931E" d="M429.6,138.8c-54.7-10.2-111.1-15.7-168.7-16v-3.6c1.9-0.7,3.3-1.8,3.3-3.1c0-2.1-3.7-3.9-8.1-3.9
				c-4.5,0-8.1,1.8-8.1,3.9c0,1.3,1.3,2.4,3.3,3.1v3.6c-58.1,0.2-114.9,5.7-170.1,16h278.2v15.7h17.5v-15.7H429.6z"/>
			<path opacity="0.5" fill="#FFFFFF" d="M117.6,368.1c0,5.8-2.6,10.6-5.8,10.6h-7.8c-3.2,0-5.8-4.8-5.8-10.6V197.3
				c0-5.8,2.6-10.6,5.8-10.6h7.8c3.2,0,5.8,4.8,5.8,10.6V368.1z M105.8,146.4H96v13.8h9.8V146.4z M123.1,146.4h-9.8v13.8h9.8V146.4z
				 M140.3,146.4h-9.8v13.8h9.8V146.4z M157.5,146.4h-9.8v13.8h9.8V146.4z M174.7,146.4H165v13.8h9.8V146.4z M192,146.4h-9.8v13.8
				h9.8V146.4z M209.2,146.4h-9.8v13.8h9.8V146.4z M226.4,146.4h-9.8v13.8h9.8V146.4z M243.7,146.4h-9.8v13.8h9.8V146.4z
				 M260.9,146.4h-9.8v13.8h9.8V146.4z M278.1,146.4h-9.8v13.8h9.8V146.4z M295.4,146.4h-9.8v13.8h9.8V146.4z M312.6,146.4h-9.8
				v13.8h9.8V146.4z M329.8,146.4H320v13.8h9.8V146.4z M347,146.4h-9.8v13.8h9.8V146.4z M398.8,146.4h-9.8v13.8h9.8V146.4z
				 M416,146.4h-9.8v13.8h9.8V146.4z M88.6,146.4h-9.8v13.8h9.8V146.4z M433.2,146.4h-9.8v13.8h9.8V146.4z"/>
		</g>
	</g>
</g>
<g>
	
		<image overflow="visible" opacity="0.75" width="306" height="281" xlink:href="40FBED72.png"  transform="matrix(1 0 0 1 132 106)">
	</image>
	<g>
		<g>
			<g>
				<path d="M324.7,225v-37.2l-19.9-5c-1.2-3.7-2.7-7.3-4.5-10.8l10.6-17.6l-26.3-26.3L267,138.7c-3.5-1.8-7.1-3.3-10.8-4.5l-5-19.9
					h-18.6L211,168.2h21.6c21,0,38.1,17.1,38.1,38.1s-17.1,38.1-38.1,38.1H211l21.6,53.9h18.6l5-19.9c3.7-1.2,7.3-2.7,10.8-4.5
					l17.6,10.6l26.3-26.3l-10.6-17.6c1.8-3.5,3.3-7.1,4.5-10.8L324.7,225z"/>
				<path d="M194.6,206.4c0-21,17.1-38.1,38.1-38.1v-53.9h-18.6l-5,19.9c-3.7,1.2-7.3,2.7-10.8,4.5l-17.6-10.6l-26.3,26.3l10.6,17.6
					c-1.8,3.5-3.3,7.1-4.5,10.8l-19.9,5v37.2l19.9,5c1.2,3.7,2.7,7.3,4.5,10.8l-10.6,17.6l26.3,26.3l17.6-10.6
					c3.5,1.8,7.1,3.3,10.8,4.5l5,19.9h18.6v-53.9C211.7,244.5,194.6,227.4,194.6,206.4z"/>
				<path fill="#8D8C84" d="M232.7,152.1l-10.8,16.2h10.8c21,0,38.1,17.1,38.1,38.1s-17.1,38.1-38.1,38.1h-10.8l10.8,16.2
					c30,0,54.3-24.3,54.3-54.3S262.7,152.1,232.7,152.1z"/>
				<path fill="#434343" d="M194.6,206.4c0-21,17.1-38.1,38.1-38.1v-16.2c-30,0-54.3,24.3-54.3,54.3s24.3,54.3,54.3,54.3v-16.2
					C211.7,244.5,194.6,227.4,194.6,206.4z"/>
			</g>
			<g>
				<path d="M415.7,318.7v-23.4l-12.5-3.1c-0.8-2.3-1.7-4.6-2.8-6.8l6.6-11.1l-16.5-16.5l-11.1,6.6c-2.2-1.1-4.4-2-6.8-2.8
					l-3.1-12.5h-11.7L344.2,283h13.6c13.2,0,24,10.7,24,24s-10.7,24-24,24h-13.6l13.6,33.9h11.7l3.1-12.5c2.3-0.8,4.6-1.7,6.8-2.8
					l11.1,6.6l16.5-16.5l-6.6-11.1c1.1-2.2,2-4.4,2.8-6.8L415.7,318.7z"/>
				<path d="M333.9,307c0-13.2,10.7-24,24-24v-33.9h-11.8l-3.1,12.5c-2.3,0.8-4.6,1.7-6.8,2.8l-11.1-6.6l-16.5,16.5l6.6,11.1
					c-1.1,2.2-2,4.4-2.8,6.8l-12.5,3.1v23.4l12.5,3.1c0.8,2.3,1.7,4.6,2.8,6.8l-6.6,11.1l16.5,16.5l11.1-6.6c2.2,1.1,4.4,2,6.8,2.8
					l3.1,12.5h11.7V331C344.6,331,333.9,320.3,333.9,307z"/>
				<path fill="#8D8C84" d="M357.8,272.9l-6.8,10.2h6.8c13.2,0,24,10.7,24,24s-10.7,24-24,24H351l6.8,10.2
					c18.9,0,34.1-15.3,34.1-34.1C392,288.2,376.7,272.9,357.8,272.9z"/>
				<path fill="#434343" d="M333.9,307c0-13.2,10.7-24,24-24v-10.2c-18.9,0-34.1,15.3-34.1,34.1c0,18.9,15.3,34.1,34.1,34.1v-10.2
					C344.6,331,333.9,320.3,333.9,307z"/>
			</g>
		</g>
	</g>
</g>
</svg>
