<?xml version="1.0" encoding="utf-8"?>
<!-- Generator: Adobe Illustrator 24.1.2, SVG Export Plug-In . SVG Version: 6.00 Build 0)  -->
<svg version="1.1" id="Layer_1" xmlns="http://www.w3.org/2000/svg" xmlns:xlink="http://www.w3.org/1999/xlink" x="0px" y="0px"
	 width="512px" height="512px" viewBox="0 0 512 512" enable-background="new 0 0 512 512" xml:space="preserve">
<g>
	<circle fill="#FFFFFF" cx="256" cy="256" r="256"/>
</g>
<g>
	<g>
		<path fill="#8DC63F" d="M287.1,100.2c0,3.1-3.4,6.1-9.5,8.7c-16.3,7.1-52.1,12-93.6,12c-25.6,0-49-1.9-67-5h0
			c-0.2,0-0.3-0.1-0.5-0.1c54.1-0.5,97.4-13.1,97.4-28.7c0-2.4-1-4.7-3-6.9C254.7,82.6,287.1,90.6,287.1,100.2z"/>
		<path fill="#B8E86B" d="M213.9,87.1c0,15.5-43.3,28.2-97.4,28.7c0,0,0,0-0.1,0c-11.1-1.9-20.2-4.4-26.4-7.1
			c-5.9-2.6-9.2-5.5-9.2-8.5c0-7.5,19.7-14,49.2-17.6V71.1h16.3v9.8c11.6-0.9,24.3-1.4,37.6-1.4c9.3,0,18.4,0.3,27,0.7
			C212.8,82.4,213.9,84.7,213.9,87.1z"/>
		<path fill="#F9B233" d="M124.6,243.2L124.6,243.2l-0.6-0.1C124.2,243.2,124.4,243.2,124.6,243.2z"/>
		<line fill="none" x1="277.6" y1="235" x2="277.6" y2="235"/>
		<path fill="#D8B60F" d="M277.6,108.8v30.4c-14.5,7.9-52.4,13.5-96.8,13.5c-20.7,0-40-1.2-56.2-3.4v93.8c-0.2,0-0.4,0-0.6-0.1
			c-2.4-0.3-4.8-0.7-7-1.1h0c-0.1,0-0.3-0.1-0.4-0.1c0,0,0,0-0.1,0c-4-0.7-7.8-1.5-11.1-2.3c-6.2-1.5-11.3-3.1-15.3-4.9
			c-5.9-2.6-9.2-5.5-9.2-8.5c0-3,3.3-5.9,9.2-8.5V108.7c6.2,2.8,15.2,5.2,26.4,7.1c0,0,0,0,0.1,0c0.2,0,0.3,0.1,0.5,0.1h0
			c18,3.1,41.4,5,67,5C225.4,120.9,261.2,115.9,277.6,108.8z"/>
		<path fill="#D8B60F" d="M277.6,235v26.8c-16.4,7.1-52.1,12-93.5,12c-22.2,0-42.7-1.4-59.5-3.8v91.1c-26.4-3.7-43.6-9.9-43.6-16.9
			c0-3,3.2-5.9,9-8.5V234.8c4,1.8,9.2,3.4,15.3,4.9c3.4,0.8,7.2,1.6,11.1,2.3c0,0,0,0,0.1,0c0.1,0,0.3,0.1,0.4,0.1h0
			c2.3,0.4,4.6,0.8,7,1.1l0.6,0.1c4.7,0.7,9.6,1.2,14.7,1.7c1.4,0.1,2.7,0.3,4.1,0.4c5.6,0.5,11.3,0.9,17.3,1.1
			c2.3,0.1,4.6,0.2,7,0.3c5.3,0.2,10.7,0.3,16.2,0.3c1.3,0,2.6,0,3.9,0c1.3,0,2.6,0,3.9,0c2.5,0,5.1-0.1,7.6-0.2
			c2.1-0.1,4.2-0.1,6.2-0.2c0.4,0,0.8,0,1.2,0c1.1-0.1,2.1-0.1,3.2-0.2c6.4-0.3,12.6-0.8,18.5-1.4c0.8-0.1,1.7-0.1,2.5-0.2
			c3.3-0.3,6.4-0.7,9.4-1.1c1-0.1,2-0.3,3-0.4c1.3-0.2,2.6-0.4,3.8-0.6c1.5-0.2,2.9-0.5,4.3-0.7c2.2-0.4,4.4-0.8,6.5-1.2
			c0.6-0.1,1.2-0.3,1.8-0.4c1.1-0.2,2.2-0.5,3.3-0.7c0.7-0.2,1.5-0.3,2.2-0.5c0.7-0.2,1.4-0.4,2.1-0.6c0.7-0.2,1.4-0.4,2-0.6
			c0.7-0.2,1.3-0.4,1.9-0.6c0.6-0.2,1.2-0.4,1.8-0.6c0.6-0.2,1.2-0.4,1.7-0.6c0.6-0.2,1.1-0.4,1.6-0.6
			C276.6,235.4,277.1,235.2,277.6,235z"/>
		<path fill="#FFDE17" d="M287.1,226.3c0,0.3,0,0.6-0.1,0.9c0,0,0,0.1,0,0.1c0,0.1,0,0.1,0,0.2c-0.1,0.3-0.2,0.6-0.3,0.9
			c0,0.1-0.1,0.2-0.1,0.3c-0.1,0.1-0.1,0.2-0.2,0.4c0,0.1-0.1,0.1-0.1,0.2l-0.1,0c0,0,0,0,0,0.1l0,0h0c0,0,0,0,0,0.1
			c-0.2,0.3-0.5,0.6-0.8,0.9c-0.2,0.2-0.4,0.4-0.6,0.5c-0.2,0.2-0.4,0.4-0.6,0.5c-0.2,0.2-0.5,0.4-0.7,0.6c-0.3,0.2-0.5,0.4-0.8,0.5
			c-0.5,0.3-1.1,0.7-1.7,1c-0.6,0.4-1.3,0.7-2,1c-0.4,0.2-0.7,0.3-1.1,0.5c-0.5,0.2-1,0.4-1.5,0.6c-0.5,0.2-1.1,0.4-1.6,0.6
			c-0.6,0.2-1.1,0.4-1.7,0.6c-0.6,0.2-1.2,0.4-1.8,0.6c-0.6,0.2-1.3,0.4-1.9,0.6c-0.6,0.2-1.3,0.4-2,0.6c-0.7,0.2-1.4,0.4-2.1,0.6
			c-0.7,0.2-1.4,0.4-2.2,0.5c-1.1,0.3-2.1,0.5-3.3,0.7c-0.6,0.1-1.2,0.3-1.8,0.4c-2.1,0.4-4.2,0.8-6.5,1.2c-1.4,0.2-2.8,0.5-4.3,0.7
			c-1.2,0.2-2.5,0.4-3.8,0.6c-1,0.1-2,0.3-3,0.4c-3,0.4-6.2,0.8-9.4,1.1c-0.8,0.1-1.6,0.2-2.5,0.2c-5.9,0.6-12.1,1-18.5,1.4
			c-1.1,0.1-2.1,0.1-3.2,0.2c-0.4,0-0.8,0-1.2,0c-2.1,0.1-4.1,0.2-6.2,0.2c-2.5,0.1-5,0.1-7.6,0.2c-1.3,0-2.6,0-3.9,0
			c-1.3,0-2.6,0-3.9,0c-5.5,0-10.9-0.1-16.2-0.3c-2.4-0.1-4.7-0.2-7-0.3c-6-0.3-11.7-0.7-17.3-1.1c-1.4-0.1-2.7-0.2-4.1-0.4
			c-5.2-0.5-10.1-1.1-14.7-1.7v-93.8c16.2,2.1,35.5,3.4,56.2,3.4c44.4,0,82.3-5.6,96.8-13.5v78.4c0.4,0.2,0.8,0.3,1.1,0.5
			c1.5,0.7,2.8,1.4,3.9,2.2c0.3,0.2,0.6,0.4,0.9,0.6c0.2,0.1,0.3,0.2,0.4,0.3c0.7,0.5,1.3,1.1,1.8,1.7c0.1,0.1,0.1,0.2,0.2,0.3
			c0.1,0.1,0.2,0.3,0.3,0.4c0.2,0.3,0.3,0.6,0.5,0.9c0.1,0.2,0.1,0.4,0.2,0.6c0,0.1,0.1,0.2,0.1,0.3
			C287,225.8,287.1,226,287.1,226.3z"/>
		<path fill="#FFDE17" d="M287.2,344.2c0,11.4-46.2,20.7-103.1,20.7c-22.2,0-42.7-1.4-59.5-3.8v-91.1c16.8,2.4,37.3,3.8,59.5,3.8
			c41.4,0,77.1-4.9,93.5-12v73.7C283.7,338.1,287.2,341.1,287.2,344.2z"/>
		<path fill="#F9B233" d="M278.7,234.5c-0.4,0.2-0.7,0.4-1.1,0.5c-0.5,0.2-1,0.4-1.5,0.6c0.5-0.2,1-0.4,1.5-0.6
			C278,234.8,278.3,234.6,278.7,234.5z"/>
		<path fill="none" stroke="#04311C" stroke-width="6.6555" stroke-miterlimit="10" d="M277.4,335.6c5.9,2.6,9.2,5.5,9.2,8.6
			c0,11.4-45.9,20.7-102.5,20.7s-102.5-9.3-102.5-20.7c0-2.9,3-5.7,8.4-8.2"/>
		<g>
			<path fill="none" stroke="#04311C" stroke-width="6.6555" stroke-miterlimit="10" d="M90,216.9c-5.4,2.5-8.4,5.3-8.4,8.2
				c0,11.4,45.9,20.7,102.5,20.7c16.3,0,31.7-0.8,45.4-2.1"/>
			<path fill="none" stroke="#04311C" stroke-width="6.6555" stroke-miterlimit="10" d="M277.4,216.5c5.9,2.6,9.2,5.5,9.2,8.6
				c0,6.9-16.9,13.1-42.9,16.8"/>
		</g>
		
			<line fill="none" stroke="#04311C" stroke-width="6.6555" stroke-linecap="round" stroke-miterlimit="10" x1="277.6" y1="108.8" x2="277.4" y2="216.5"/>
		
			<line fill="none" stroke="#04311C" stroke-width="6.6555" stroke-linecap="round" stroke-miterlimit="10" x1="91.2" y1="108.8" x2="91" y2="216.5"/>
		
			<line fill="none" stroke="#04311C" stroke-width="6.6555" stroke-linecap="round" stroke-miterlimit="10" x1="91.2" y1="108.8" x2="91" y2="216.5"/>
		
			<line fill="none" stroke="#04311C" stroke-width="6.6555" stroke-linecap="round" stroke-miterlimit="10" x1="91.2" y1="108.8" x2="91" y2="216.5"/>
		
			<line fill="none" stroke="#04311C" stroke-width="6.6555" stroke-linecap="round" stroke-miterlimit="10" x1="91.2" y1="233.8" x2="91" y2="335.6"/>
		
			<line fill="none" stroke="#04311C" stroke-width="6.6555" stroke-linecap="round" stroke-miterlimit="10" x1="277.4" y1="233.8" x2="277.2" y2="335.6"/>
		<path fill="none" stroke="#04311C" stroke-width="6.6555" stroke-miterlimit="10" d="M130,82.5"/>
		<g>
			
				<path fill="none" stroke="#04311C" stroke-width="6.6555" stroke-linecap="round" stroke-linejoin="bevel" stroke-miterlimit="10" d="
				M129.1,83.1H129c-28.5,3.7-47.4,10.1-47.4,17.5c0,11.4,45.9,20.7,102.5,20.7s102.5-9.3,102.5-20.7s-45.9-20.7-102.5-20.7
				c-13.2,0-25.8,0.5-37.4,1.4"/>
			
				<polyline fill="none" stroke="#04311C" stroke-width="6.6555" stroke-linecap="round" stroke-linejoin="bevel" stroke-miterlimit="10" points="
				129.1,83.1 129,83.1 130,71.1 146.3,71.1 146.9,81.2 146.7,81.3 			"/>
		</g>
		<line fill="none" stroke="#FFFFFF" stroke-width="8.3194" stroke-miterlimit="10" x1="247.6" y1="141.6" x2="247.6" y2="211.9"/>
		<line fill="none" stroke="#FFFFFF" stroke-width="8.3194" stroke-miterlimit="10" x1="247.6" y1="258.7" x2="247.6" y2="332.2"/>
	</g>
	<g>
		<g>
			<path fill="#001689" d="M177.4,223.2h-33.9v-17.4h5.7v-38h-5.7v-17.4h34.9c8,0,14.5,0.5,19.5,1.5c5.1,1,9.8,3,14.3,6
				c4.4,3.1,7.9,7.2,10.5,12.5c1.3,2.5,2.2,5.2,2.9,8.1c0.7,2.9,1,5.9,1,9c0,6.3-1.3,12.1-4,17.3c-2.7,5.2-6,9.1-10.1,11.9
				c-4,2.8-8.3,4.6-13.1,5.4C194.6,222.8,187.3,223.2,177.4,223.2z"/>
		</g>
		<g>
			<path fill="#FFFFFF" d="M183.3,209H159v-10.6h3.4v-23.2h-3.5v-10.6h24.3v10.6h-3.5v23.2h3.5V209z M211.1,209h-23.1v-10.6h2.2
				l-9.8-12.6l11.4-10.5H188v-10.6h22v10.6h-3.5l-9.1,8.4l11.4,14.7h2.2V209z"/>
		</g>
	</g>
</g>
<g>
	
		<image overflow="visible" opacity="0.75" width="312" height="303" xlink:href="1240FC9C.png"  transform="matrix(1 0 0 1 117 166)">
	</image>
	<g>
		<g>
			<path fill="#FFD782" d="M287.8,441.2h-24.2c-2.7,0-4.8-2.2-4.8-4.8V324.9c0-2.7,2.2-4.8,4.8-4.8h24.2c2.7,0,4.8,2.2,4.8,4.8
				v111.5C292.7,439.1,290.5,441.2,287.8,441.2z"/>
			<path fill="#FFC36E" d="M287.8,441.2h-24.2c-2.7,0-4.8-2.2-4.8-4.8V354c0-2.7,2.2-4.8,4.8-4.8h24.2c2.7,0,4.8,2.2,4.8,4.8v82.4
				C292.7,439.1,290.5,441.2,287.8,441.2z"/>
			<path fill="#C3E678" d="M336.3,441.2h-24.2c-2.7,0-4.8-2.2-4.8-4.8V237.6c0-2.7,2.2-4.8,4.8-4.8h24.2c2.7,0,4.8,2.2,4.8,4.8
				v198.8C341.1,439.1,339,441.2,336.3,441.2z"/>
			<path fill="#A5D76E" d="M336.3,441.2h-24.2c-2.7,0-4.8-2.2-4.8-4.8V295.8c0-2.7,2.2-4.8,4.8-4.8h24.2c2.7,0,4.8,2.2,4.8,4.8
				v140.6C341.1,439.1,339,441.2,336.3,441.2z"/>
			<path fill="#00D2FF" d="M190.9,441.2h-24.2c-2.7,0-4.8-2.2-4.8-4.8V354c0-2.7,2.2-4.8,4.8-4.8h24.2c2.7,0,4.8,2.2,4.8,4.8v82.4
				C195.7,439.1,193.5,441.2,190.9,441.2z"/>
			<path fill="#9BE6D2" d="M384.8,441.2h-24.2c-2.7,0-4.8-2.2-4.8-4.8V208.5c0-2.7,2.2-4.8,4.8-4.8h24.2c2.7,0,4.8,2.2,4.8,4.8
				v227.9C389.6,439.1,387.5,441.2,384.8,441.2z"/>
			<path fill="#78D2BE" d="M384.8,441.2h-24.2c-2.7,0-4.8-2.2-4.8-4.8V266.7c0-2.7,2.2-4.8,4.8-4.8h24.2c2.7,0,4.8,2.2,4.8,4.8
				v169.7C389.6,439.1,387.5,441.2,384.8,441.2z"/>
			<path fill="#FF6464" d="M239.3,441.2h-24.2c-2.7,0-4.8-2.2-4.8-4.8V295.8c0-2.7,2.2-4.8,4.8-4.8h24.2c2.7,0,4.8,2.2,4.8,4.8
				v140.6C244.2,439.1,242,441.2,239.3,441.2z"/>
			<path fill="#D2555A" d="M239.3,441.2h-24.2c-2.7,0-4.8-2.2-4.8-4.8V324.9c0-2.7,2.2-4.8,4.8-4.8h24.2c2.7,0,4.8,2.2,4.8,4.8
				v111.5C244.2,439.1,242,441.2,239.3,441.2z"/>
			<path fill="#18BDF6" d="M190.9,441.2h-24.2c-2.7,0-4.8-2.2-4.8-4.8v-53.3c0-2.7,2.2-4.8,4.8-4.8h24.2c2.7,0,4.8,2.2,4.8,4.8v53.3
				C195.7,439.1,193.5,441.2,190.9,441.2z"/>
			<g>
				<path fill="#D7DEED" d="M140,417h-9.7c-2.7,0-4.8-2.2-4.8-4.8l0,0c0-2.7,2.2-4.8,4.8-4.8h9.7V417z"/>
				<path fill="#D7DEED" d="M140,387.9h-9.7c-2.7,0-4.8-2.2-4.8-4.8l0,0c0-2.7,2.2-4.8,4.8-4.8h9.7V387.9z"/>
				<path fill="#D7DEED" d="M140,358.8h-9.7c-2.7,0-4.8-2.2-4.8-4.8l0,0c0-2.7,2.2-4.8,4.8-4.8h9.7V358.8z"/>
				<path fill="#D7DEED" d="M140,329.7h-9.7c-2.7,0-4.8-2.2-4.8-4.8l0,0c0-2.7,2.2-4.8,4.8-4.8h9.7V329.7z"/>
				<path fill="#D7DEED" d="M140,300.7h-9.7c-2.7,0-4.8-2.2-4.8-4.8l0,0c0-2.7,2.2-4.8,4.8-4.8h9.7V300.7z"/>
				<path fill="#D7DEED" d="M140,271.6h-9.7c-2.7,0-4.8-2.2-4.8-4.8l0,0c0-2.7,2.2-4.8,4.8-4.8h9.7V271.6z"/>
				<path fill="#D7DEED" d="M140,242.5h-9.7c-2.7,0-4.8-2.2-4.8-4.8l0,0c0-2.7,2.2-4.8,4.8-4.8h9.7V242.5z"/>
				<path fill="#D7DEED" d="M140,213.4h-9.7c-2.7,0-4.8-2.2-4.8-4.8l0,0c0-2.7,2.2-4.8,4.8-4.8h9.7V213.4z"/>
			</g>
			<path fill="#C7CFE2" d="M140,441.2L140,441.2c-2.7,0-4.8-2.2-4.8-4.8V179.5c0-2.7,2.2-4.8,4.8-4.8l0,0c2.7,0,4.8,2.2,4.8,4.8
				v256.9C144.8,439.1,142.6,441.2,140,441.2z"/>
			<path fill="#AFB9D2" d="M125.4,441.2L125.4,441.2c0-2.7,2.2-4.8,4.8-4.8h271.5c2.7,0,4.8,2.2,4.8,4.8l0,0c0,2.7-2.2,4.8-4.8,4.8
				H130.3C127.6,446.1,125.4,443.9,125.4,441.2z"/>
		</g>
	</g>
</g>
</svg>
