<?xml version="1.0" encoding="utf-8"?>
<!-- Generator: Adobe Illustrator 24.1.2, SVG Export Plug-In . SVG Version: 6.00 Build 0)  -->
<svg version="1.1" id="Layer_1" xmlns="http://www.w3.org/2000/svg" xmlns:xlink="http://www.w3.org/1999/xlink" x="0px" y="0px"
	 width="512px" height="512px" viewBox="0 0 512 512" enable-background="new 0 0 512 512" xml:space="preserve">
<g>
	<circle fill="#FFFFFF" cx="256" cy="256" r="256"/>
</g>
<g>
	<polygon fill="#FF193D" points="428.9,243 378.2,217.6 378.2,143.9 400.5,143.9 428.7,172.1 438.8,223 	"/>
	<path fill="#444444" d="M411.6,377.7c-18.4,0-33.4-15-33.4-33.4v-22.3c0-6.1-5-11.1-11.1-11.1h-22.3v-22.3h22.3
		c18.4,0,33.4,15,33.4,33.4v22.3c0,6.1,5,11.1,11.1,11.1s11.1-5,11.1-11.1V193.7c0-12.7-7.1-24.2-18.5-29.9l-64.5-32.2l10-19.9
		l64.5,32.2c19,9.5,30.8,28.6,30.8,49.8v150.6C445,362.7,430,377.7,411.6,377.7z"/>
	<path fill="#FF4949" d="M355.9,99.4v289.5H133.3V99.4c0-18.5,14.9-33.4,33.4-33.4h155.9C341,66,355.9,80.9,355.9,99.4z"/>
	<path fill="#FF193D" d="M355.9,99.4v289.5H244.6V66h77.9C341,66,355.9,80.9,355.9,99.4z"/>
	<path fill="#444444" d="M344.8,377.7H144.4c-18.5,0-33.4,15.7-33.4,34.1V446h267.2v-34.1C378.2,393.4,363.3,377.7,344.8,377.7z"/>
	<path fill="#EDE9E8" d="M177.8,110.5v111.3h133.6V110.5H177.8z"/>
	<rect x="244.6" y="110.5" fill="#DFD7D5" width="66.8" height="111.3"/>
	<path fill="#FFD400" d="M252.8,247.9l-8.2-9.4l-8.2,9.4c-6,6.7-36.3,41.4-36.3,63c0,24.5,20,44.5,44.5,44.5s44.5-20,44.5-44.5
		C289.1,289.3,258.9,254.6,252.8,247.9z"/>
	<path fill="#FF9F00" d="M244.6,355.5V238.6l8.2,9.4c6,6.7,36.3,41.4,36.3,63C289.1,335.4,269.1,355.5,244.6,355.5z"/>
	<path fill="#292929" d="M378.2,411.9V446H244.6v-68.3h100.2C363.3,377.7,378.2,393.4,378.2,411.9z"/>
</g>
</svg>
