<?xml version="1.0" encoding="utf-8"?>
<!-- Generator: Adobe Illustrator 24.1.2, SVG Export Plug-In . SVG Version: 6.00 Build 0)  -->
<svg version="1.1" id="Layer_1" xmlns="http://www.w3.org/2000/svg" xmlns:xlink="http://www.w3.org/1999/xlink" x="0px" y="0px"
	 width="512px" height="512px" viewBox="0 0 512 512" enable-background="new 0 0 512 512" xml:space="preserve">
<g>
	<circle fill="#FFFFFF" cx="256" cy="256" r="256"/>
</g>
<g>
	<path opacity="0.3" fill="#AAAAAA" d="M436.2,418.4c0,1.5-80.7,2.7-180.2,2.7s-180.2-1.2-180.2-2.7c0-1.5,80.7-2.7,180.2-2.7
		S436.2,416.9,436.2,418.4z"/>
	<g>
		<g>
			<path fill="#0D3A4C" d="M393.2,346L393.2,346c-3.1,0-5.6-2.5-5.6-5.6v-14.2c0-3.1,2.5-5.6,5.6-5.6l0,0c3.1,0,5.6,2.5,5.6,5.6
				v14.2C398.7,343.6,396.3,346,393.2,346z"/>
			<path opacity="0.3" fill="#0D3A4C" d="M393.2,346L393.2,346c-3.1,0-5.6-2.5-5.6-5.6v-14.2c0-3.1,2.5-5.6,5.6-5.6l0,0
				c3.1,0,5.6,2.5,5.6,5.6v14.2C398.7,343.6,396.3,346,393.2,346z"/>
		</g>
		<g>
			<path fill="#0D3A4C" d="M118.2,346L118.2,346c-3.1,0-5.6-2.5-5.6-5.6v-14.2c0-3.1,2.5-5.6,5.6-5.6l0,0c3.1,0,5.6,2.5,5.6,5.6
				v14.2C123.7,343.6,121.3,346,118.2,346z"/>
			<path opacity="0.3" fill="#0D3A4C" d="M118.2,346L118.2,346c-3.1,0-5.6-2.5-5.6-5.6v-14.2c0-3.1,2.5-5.6,5.6-5.6l0,0
				c3.1,0,5.6,2.5,5.6,5.6v14.2C123.7,343.6,121.3,346,118.2,346z"/>
		</g>
		<path fill="#0D3A4C" d="M392.3,348.5l-128.5,12.3c-4.2,0.4-7.8-2.9-7.8-7.1v-12.3c0-3.9,3.2-7.1,7.1-7.1h128.5
			c3.9,0,7.1,3.2,7.1,7.1l0,0C398.7,345.1,396,348.2,392.3,348.5z"/>
		<path fill="#0D3A4C" d="M119.7,348.5l128.5,12.3c4.2,0.4,7.8-2.9,7.8-7.1v-12.3c0-3.9-3.2-7.1-7.1-7.1H120.4
			c-3.9,0-7.1,3.2-7.1,7.1l0,0C113.3,345.1,116,348.2,119.7,348.5z"/>
		<path fill="#154C68" d="M259.8,310.7l20.4,72.6c1.7,4.4,3.1,8.8,4.3,13.4l3.5,13.2c0.8,3-1.4,5.9-4.5,5.9H256h-27.5
			c-3.1,0-5.3-2.9-4.5-5.9l3.5-13.2c1.2-4.5,2.7-9,4.3-13.4l20.4-72.6c0.2-0.5,0.4-0.9,0.8-1.3c1.6-1.7,4.4-1.7,6,0
			C259.3,309.8,259.6,310.2,259.8,310.7z"/>
		<path fill="#0D3A4C" d="M297.5,415.7h-83c-2.3,0-4.2-1.9-4.2-4.2v-1.5c0-6.8,5.5-12.4,12.4-12.4h66.8c6.8,0,12.4,5.5,12.4,12.4
			v1.5C301.7,413.8,299.8,415.7,297.5,415.7z"/>
		<circle fill="#FFFFFF" cx="256" cy="348" r="4.6"/>
		<g>
			<path fill="#FDBB03" d="M419.3,327.3h-51.5c-14.3,0-25.9-11.6-25.9-25.9v0h103.3v0C445.2,315.8,433.6,327.3,419.3,327.3z"/>
			<path opacity="0.3" fill="#FDBB03" d="M341.8,301.4c0,0.7,0,1.5,0.1,2.2l97.4,14.2c3.7-4.5,5.9-10.2,5.9-16.4l0,0H341.8
				L341.8,301.4z"/>
			<g>
				<path fill="#FDBB03" d="M446.1,303.5H340.9c-1.5,0-2.8-1.2-2.8-2.8l0,0c0-1.5,1.2-2.8,2.8-2.8h105.3c1.5,0,2.8,1.2,2.8,2.8l0,0
					C448.9,302.3,447.7,303.5,446.1,303.5z"/>
				<path opacity="0.8" fill="#FDBB03" d="M446.1,303.5H340.9c-1.5,0-2.8-1.2-2.8-2.8l0,0c0-1.5,1.2-2.8,2.8-2.8h105.3
					c1.5,0,2.8,1.2,2.8,2.8l0,0C448.9,302.3,447.7,303.5,446.1,303.5z"/>
			</g>
		</g>
		<g>
			<circle fill="#FFFFFF" cx="118.5" cy="340.4" r="3.2"/>
		</g>
		<g>
			<path fill="#FDBB03" d="M144.3,327.3H92.7c-14.3,0-25.9-11.6-25.9-25.9v0h103.3v0C170.2,315.8,158.6,327.3,144.3,327.3z"/>
			<path opacity="0.3" fill="#FDBB03" d="M66.8,301.4c0,0.7,0,1.5,0.1,2.2l97.4,14.2c3.7-4.5,5.9-10.2,5.9-16.4l0,0H66.8L66.8,301.4
				z"/>
			<g>
				<path fill="#FDBB03" d="M171.1,303.5H65.9c-1.5,0-2.8-1.2-2.8-2.8l0,0c0-1.5,1.2-2.8,2.8-2.8h105.3c1.5,0,2.8,1.2,2.8,2.8l0,0
					C173.9,302.3,172.7,303.5,171.1,303.5z"/>
				<path opacity="0.8" fill="#FDBB03" d="M171.1,303.5H65.9c-1.5,0-2.8-1.2-2.8-2.8l0,0c0-1.5,1.2-2.8,2.8-2.8h105.3
					c1.5,0,2.8,1.2,2.8,2.8l0,0C173.9,302.3,172.7,303.5,171.1,303.5z"/>
			</g>
		</g>
		<path fill="#154C68" d="M308.9,415.7H203.1c-1.5,0-2.7-1.2-2.7-2.7l0,0c0-1.5,1.2-2.7,2.7-2.7h105.9c1.5,0,2.7,1.2,2.7,2.7l0,0
			C311.7,414.5,310.4,415.7,308.9,415.7z"/>
		<circle fill="#FFFFFF" cx="393.5" cy="340.4" r="3.2"/>
	</g>
</g>
<g>
	
		<image overflow="visible" opacity="0.75" width="198" height="156" xlink:href="3B4537EE.png"  transform="matrix(1 0 0 1 297.8558 152.8558)">
	</image>
	<g>
		<g>
			<polygon fill="#FFC837" stroke="#E5AA0A" stroke-width="6.2194" stroke-miterlimit="10" points="453,170.7 453,179.9 
				440.1,179.9 440.1,170.7 304.8,170.7 304.8,182.4 309,182.4 309,294 477.3,294 477.3,182.4 481.5,182.4 481.5,170.7 			"/>
			<path fill="none" stroke="#000000" stroke-width="0.5709" stroke-linecap="round" stroke-miterlimit="10" d="M442.6,293.9v-5.3
				h7.9v5.3h1.9V182.4h-1.9v5.6h-7.9v-5.6h-1.9v111.5H442.6z M442.6,190.2h7.9v6h-7.9V190.2z M442.6,198.4h7.9v6.1h-7.9V198.4z
				 M442.6,206.6h7.9v6.1h-7.9V206.6z M442.6,214.8h7.9v6.1h-7.9V214.8z M442.6,223h7.9v6.1h-7.9V223z M442.6,231.2h7.9v6.1h-7.9
				V231.2z M442.6,239.4h7.9v6h-7.9V239.4z M442.6,247.6h7.9v6.1h-7.9V247.6z M442.6,255.8h7.9v6.1h-7.9V255.8z M442.6,264h7.9v6.1
				h-7.9V264z M442.6,272.2h7.9v6h-7.9V272.2z M442.6,280.4h7.9v6.1h-7.9V280.4z"/>
			<path fill="#F7931E" d="M475.9,169.7c-26.1-4.9-52.9-7.5-80.4-7.6v-1.7c0.9-0.3,1.6-0.9,1.6-1.5c0-1-1.7-1.9-3.9-1.9
				c-2.1,0-3.9,0.8-3.9,1.9c0,0.6,0.6,1.1,1.6,1.5v1.7c-27.7,0.1-54.7,2.7-81,7.6h132.5v7.5h8.3v-7.5H475.9z"/>
			<path opacity="0.5" fill="#FFFFFF" d="M327.3,278.9c0,2.8-1.2,5.1-2.8,5.1h-3.7c-1.5,0-2.8-2.3-2.8-5.1v-81.3
				c0-2.8,1.2-5.1,2.8-5.1h3.7c1.5,0,2.8,2.3,2.8,5.1V278.9z M321.7,173.3H317v6.5h4.7V173.3z M329.9,173.3h-4.7v6.5h4.7V173.3z
				 M338.1,173.3h-4.6v6.5h4.6V173.3z M346.3,173.3h-4.7v6.5h4.7V173.3z M354.5,173.3h-4.7v6.5h4.7V173.3z M362.7,173.3H358v6.5h4.6
				V173.3z M370.9,173.3h-4.6v6.5h4.6V173.3z M379.1,173.3h-4.7v6.5h4.7V173.3z M387.3,173.3h-4.7v6.5h4.7V173.3z M395.5,173.3h-4.6
				v6.5h4.6V173.3z M403.7,173.3h-4.6v6.5h4.6V173.3z M411.9,173.3h-4.7v6.5h4.7V173.3z M420.1,173.3h-4.7v6.5h4.7V173.3z
				 M428.4,173.3h-4.7v6.5h4.7V173.3z M436.6,173.3h-4.7v6.5h4.7V173.3z M461.2,173.3h-4.7v6.5h4.7V173.3z M469.4,173.3h-4.7v6.5
				h4.7V173.3z M313.5,173.3h-4.6v6.5h4.6V173.3z M477.6,173.3h-4.7v6.5h4.7V173.3z"/>
		</g>
	</g>
</g>
<g>
	
		<image overflow="visible" opacity="0.75" width="198" height="156" xlink:href="3B4537F2.png"  transform="matrix(1 0 0 1 22.8558 152.8558)">
	</image>
	<g>
		<g>
			<polygon fill="#FFC837" stroke="#E5AA0A" stroke-width="6.2194" stroke-miterlimit="10" points="178,170.7 178,179.9 
				165.1,179.9 165.1,170.7 29.8,170.7 29.8,182.4 34,182.4 34,294 202.3,294 202.3,182.4 206.5,182.4 206.5,170.7 			"/>
			<path fill="none" stroke="#000000" stroke-width="0.5709" stroke-linecap="round" stroke-miterlimit="10" d="M167.6,293.9v-5.3
				h7.9v5.3h1.9V182.4h-1.9v5.6h-7.9v-5.6h-1.9v111.5H167.6z M167.6,190.2h7.9v6h-7.9V190.2z M167.6,198.4h7.9v6.1h-7.9V198.4z
				 M167.6,206.6h7.9v6.1h-7.9V206.6z M167.6,214.8h7.9v6.1h-7.9V214.8z M167.6,223h7.9v6.1h-7.9V223z M167.6,231.2h7.9v6.1h-7.9
				V231.2z M167.6,239.4h7.9v6h-7.9V239.4z M167.6,247.6h7.9v6.1h-7.9V247.6z M167.6,255.8h7.9v6.1h-7.9V255.8z M167.6,264h7.9v6.1
				h-7.9V264z M167.6,272.2h7.9v6h-7.9V272.2z M167.6,280.4h7.9v6.1h-7.9V280.4z"/>
			<path fill="#F7931E" d="M200.9,169.7c-26.1-4.9-52.9-7.5-80.4-7.6v-1.7c0.9-0.3,1.6-0.9,1.6-1.5c0-1-1.7-1.9-3.9-1.9
				s-3.9,0.8-3.9,1.9c0,0.6,0.6,1.1,1.6,1.5v1.7c-27.7,0.1-54.7,2.7-81,7.6h132.5v7.5h8.3v-7.5H200.9z"/>
			<path opacity="0.5" fill="#FFFFFF" d="M52.3,278.9c0,2.8-1.2,5.1-2.8,5.1h-3.7c-1.5,0-2.8-2.3-2.8-5.1v-81.3
				c0-2.8,1.2-5.1,2.8-5.1h3.7c1.5,0,2.8,2.3,2.8,5.1V278.9z M46.7,173.3H42v6.5h4.7V173.3z M54.9,173.3h-4.7v6.5h4.7V173.3z
				 M63.1,173.3h-4.6v6.5h4.6V173.3z M71.3,173.3h-4.7v6.5h4.7V173.3z M79.5,173.3h-4.7v6.5h4.7V173.3z M87.7,173.3H83v6.5h4.6
				V173.3z M95.9,173.3h-4.6v6.5h4.6V173.3z M104.1,173.3h-4.7v6.5h4.7V173.3z M112.3,173.3h-4.7v6.5h4.7V173.3z M120.5,173.3h-4.6
				v6.5h4.6V173.3z M128.7,173.3h-4.6v6.5h4.6V173.3z M136.9,173.3h-4.7v6.5h4.7V173.3z M145.1,173.3h-4.7v6.5h4.7V173.3z
				 M153.4,173.3h-4.7v6.5h4.7V173.3z M161.6,173.3h-4.7v6.5h4.7V173.3z M186.2,173.3h-4.7v6.5h4.7V173.3z M194.4,173.3h-4.7v6.5
				h4.7V173.3z M38.5,173.3h-4.6v6.5h4.6V173.3z M202.6,173.3h-4.7v6.5h4.7V173.3z"/>
		</g>
	</g>
</g>
</svg>
