<?xml version="1.0" encoding="utf-8"?>
<!-- Generator: Adobe Illustrator 24.1.2, SVG Export Plug-In . SVG Version: 6.00 Build 0)  -->
<svg version="1.1" id="Layer_1" xmlns="http://www.w3.org/2000/svg" xmlns:xlink="http://www.w3.org/1999/xlink" x="0px" y="0px"
	 width="512px" height="512px" viewBox="0 0 512 512" enable-background="new 0 0 512 512" xml:space="preserve">
<g>
	<circle fill="#FFFFFF" cx="256" cy="256" r="256"/>
</g>
<g>
	
		<image overflow="visible" opacity="0.75" width="336" height="265" xlink:href="F606571A.png"  transform="matrix(1 0 0 1 42 168)">
	</image>
	<g>
		<g>
			<polygon fill="#FFC837" stroke="#E5AA0A" stroke-width="10.3657" stroke-miterlimit="10" points="302.4,199.7 302.4,214.9 
				280.9,214.9 280.9,199.7 55.5,199.7 55.5,219.2 62.5,219.2 62.5,405.2 343,405.2 343,219.2 350,219.2 350,199.7 			"/>
			<path fill="none" stroke="#000000" stroke-width="0.9515" stroke-linecap="round" stroke-miterlimit="10" d="M285.1,405v-8.8
				h13.1v8.8h3.2V219.2h-3.2v9.3h-13.1v-9.3h-3.2V405H285.1z M285.1,232.1h13.1v10.1h-13.1V232.1z M285.1,245.8h13.1v10.1h-13.1
				V245.8z M285.1,259.5h13.1v10.1h-13.1V259.5z M285.1,273.2h13.1v10.1h-13.1V273.2z M285.1,286.8h13.1v10.1h-13.1V286.8z
				 M285.1,300.5h13.1v10.1h-13.1V300.5z M285.1,314.2h13.1v10.1h-13.1V314.2z M285.1,327.8h13.1v10.1h-13.1V327.8z M285.1,341.5
				h13.1v10.1h-13.1V341.5z M285.1,355.2h13.1v10.1h-13.1V355.2z M285.1,368.9h13.1V379h-13.1V368.9z M285.1,382.6h13.1v10.1h-13.1
				V382.6z"/>
			<path fill="#F7931E" d="M340.5,198c-43.4-8.1-88.2-12.4-133.9-12.7v-2.9c1.5-0.6,2.6-1.4,2.6-2.5c0-1.7-2.9-3.1-6.5-3.1
				s-6.5,1.4-6.5,3.1c0,1,1.1,1.9,2.6,2.5v2.9c-46.1,0.2-91.2,4.5-135,12.7h220.8v12.5h13.9V198H340.5z"/>
			<path opacity="0.5" fill="#FFFFFF" d="M92.9,380c0,4.6-2.1,8.4-4.6,8.4H82c-2.6,0-4.6-3.8-4.6-8.4V244.4c0-4.6,2.1-8.4,4.6-8.4
				h6.2c2.6,0,4.6,3.8,4.6,8.4V380z M83.5,204h-7.8v10.9h7.8V204z M97.2,204h-7.8v10.9h7.8V204z M110.9,204h-7.7v10.9h7.7V204z
				 M124.6,204h-7.8v10.9h7.8V204z M138.3,204h-7.8v10.9h7.8V204z M151.9,204h-7.7v10.9h7.7V204z M165.6,204h-7.7v10.9h7.7V204z
				 M179.3,204h-7.8v10.9h7.8V204z M193,204h-7.8v10.9h7.8V204z M206.6,204h-7.7v10.9h7.7V204z M220.3,204h-7.7v10.9h7.7V204z
				 M234,204h-7.8v10.9h7.8V204z M247.7,204h-7.8v10.9h7.8V204z M261.4,204h-7.8v10.9h7.8V204z M275,204h-7.8v10.9h7.8V204z
				 M316.1,204h-7.8v10.9h7.8V204z M329.7,204H322v10.9h7.8V204z M69.9,204h-7.7v10.9h7.7V204z M343.4,204h-7.8v10.9h7.8V204z"/>
		</g>
	</g>
</g>
<g>
	<path fill="#242C35" d="M455.1,123v137.2c0,10.9-8.9,19.8-19.8,19.8h-56.6c-10.9,0-19.8-8.9-19.8-19.8V123
		c0-10.9,8.9-19.8,19.8-19.8h56.6C446.2,103.3,455.1,112.1,455.1,123z"/>
	<path fill="#424C59" d="M455.1,123v137.2c0,10.9-8.9,19.8-19.8,19.8h-50.9c-10.9,0-19.8-8.9-19.8-19.8V123
		c0-10.9,8.9-19.8,19.8-19.8h50.9C446.2,103.3,455.1,112.1,455.1,123z"/>
	<path fill="#D8A32E" d="M426.9,194.1c0,8.9-5.9,16.5-14,19c-1.9,0.6-3.8,0.9-5.9,0.9c-11,0-19.9-8.9-19.9-19.9c0-1.5,0.2-3,0.5-4.4
		l14.7-15.9l7.9,2.3l8.9,2.6l7.3,11C426.7,191.1,426.9,192.6,426.9,194.1z"/>
	<path fill="#FCC63F" d="M426.9,194.1c0,8.9-5.9,16.5-14,19c-8.1-2.5-14-10.1-14-19c0-8,4.7-14.8,11.4-18l8.9,2.6l7.3,11
		C426.7,191.1,426.9,192.6,426.9,194.1z"/>
	<path fill="#242C35" d="M433.6,194.1c0-14.7-11.9-26.6-26.6-26.6s-26.6,11.9-26.6,26.6l0,0C396.1,182.3,417.8,182.3,433.6,194.1
		L433.6,194.1z"/>
	<path fill="#239999" d="M426.9,250.1c0,8.9-5.9,16.5-14,19c-1.9,0.6-3.8,0.9-5.9,0.9c-11,0-19.9-8.9-19.9-19.9c0-1.5,0.2-3,0.5-4.4
		l14.7-15.9l7.9,2.3l8.9,2.6l7.3,11C426.7,247.2,426.9,248.6,426.9,250.1z"/>
	<path fill="#45B8C4" d="M426.9,250.1c0,8.9-5.9,16.5-14,19c-8.1-2.5-14-10.1-14-19c0-8,4.7-14.8,11.4-18l8.9,2.6l7.3,11
		C426.7,247.2,426.9,248.6,426.9,250.1z"/>
	<path fill="#242C35" d="M433.6,250.1c0-14.7-11.9-26.6-26.6-26.6s-26.6,11.9-26.6,26.6l0,0C396.1,238.3,417.8,238.3,433.6,250.1
		L433.6,250.1z"/>
	<path fill="#D8401D" d="M426.9,138c0,8.9-5.9,16.5-14,19c-1.9,0.6-3.8,0.9-5.9,0.9c-11,0-19.9-8.9-19.9-19.9c0-1.5,0.2-3,0.5-4.4
		l14.7-15.9l7.9,2.3l8.9,2.6l7.3,11C426.7,135,426.9,136.5,426.9,138z"/>
	<path fill="#F9572B" d="M426.9,138c0,8.9-5.9,16.5-14,19c-8.1-2.5-14-10.1-14-19c0-8,4.7-14.8,11.4-18l8.9,2.6l7.3,11
		C426.7,135,426.9,136.5,426.9,138z"/>
	<path fill="#242C35" d="M433.6,138c0-14.7-11.9-26.6-26.6-26.6s-26.6,11.9-26.6,26.6l0,0C396.1,126.2,417.8,126.2,433.6,138
		L433.6,138z"/>
</g>
</svg>
