<?xml version="1.0" encoding="utf-8"?>
<!-- Generator: Adobe Illustrator 24.1.2, SVG Export Plug-In . SVG Version: 6.00 Build 0)  -->
<svg version="1.1" id="Layer_1" xmlns="http://www.w3.org/2000/svg" xmlns:xlink="http://www.w3.org/1999/xlink" x="0px" y="0px"
	 width="512px" height="512px" viewBox="0 0 512 512" enable-background="new 0 0 512 512" xml:space="preserve">
<g>
	<circle fill="#FFFFFF" cx="256" cy="256" r="256"/>
</g>
<g>
	<image overflow="visible" opacity="0.75" width="416" height="325" xlink:href="B91734C1.png"  transform="matrix(1 0 0 1 55 84)">
	</image>
	<g>
		<g>
			<polygon fill="#FFC837" stroke="#E5AA0A" stroke-width="13.0583" stroke-miterlimit="10" points="381.5,121 381.5,140.2 
				354.5,140.2 354.5,121 70.5,121 70.5,145.6 79.3,145.6 79.3,379.8 432.7,379.8 432.7,145.6 441.5,145.6 441.5,121 			"/>
			<path fill="none" stroke="#000000" stroke-width="1.1987" stroke-linecap="round" stroke-miterlimit="10" d="M359.7,379.7v-11.1
				h16.5v11.1h4V145.6h-4v11.7h-16.5v-11.7h-4v234.1H359.7z M359.7,161.8h16.5v12.7h-16.5V161.8z M359.7,179h16.5v12.7h-16.5V179z
				 M359.7,196.3h16.5V209h-16.5V196.3z M359.7,213.5h16.5v12.7h-16.5V213.5z M359.7,230.7h16.5v12.7h-16.5V230.7z M359.7,248h16.5
				v12.7h-16.5V248z M359.7,265.2h16.5v12.7h-16.5V265.2z M359.7,282.4h16.5v12.7h-16.5V282.4z M359.7,299.7h16.5v12.7h-16.5V299.7z
				 M359.7,316.9h16.5v12.7h-16.5V316.9z M359.7,334.1h16.5v12.7h-16.5V334.1z M359.7,351.3h16.5v12.7h-16.5V351.3z"/>
			<path fill="#F7931E" d="M429.6,118.8c-54.7-10.2-111.1-15.7-168.7-16v-3.6c1.9-0.7,3.3-1.8,3.3-3.1c0-2.1-3.7-3.9-8.1-3.9
				c-4.5,0-8.1,1.8-8.1,3.9c0,1.3,1.3,2.4,3.3,3.1v3.6c-58.1,0.2-114.9,5.7-170.1,16h278.2v15.7h17.5v-15.7H429.6z"/>
			<path opacity="0.5" fill="#FFFFFF" d="M117.6,348.1c0,5.8-2.6,10.6-5.8,10.6h-7.8c-3.2,0-5.8-4.8-5.8-10.6V177.3
				c0-5.8,2.6-10.6,5.8-10.6h7.8c3.2,0,5.8,4.8,5.8,10.6V348.1z M105.8,126.4H96v13.8h9.8V126.4z M123.1,126.4h-9.8v13.8h9.8V126.4z
				 M140.3,126.4h-9.8v13.8h9.8V126.4z M157.5,126.4h-9.8v13.8h9.8V126.4z M174.7,126.4H165v13.8h9.8V126.4z M192,126.4h-9.8v13.8
				h9.8V126.4z M209.2,126.4h-9.8v13.8h9.8V126.4z M226.4,126.4h-9.8v13.8h9.8V126.4z M243.7,126.4h-9.8v13.8h9.8V126.4z
				 M260.9,126.4h-9.8v13.8h9.8V126.4z M278.1,126.4h-9.8v13.8h9.8V126.4z M295.4,126.4h-9.8v13.8h9.8V126.4z M312.6,126.4h-9.8
				v13.8h9.8V126.4z M329.8,126.4H320v13.8h9.8V126.4z M347,126.4h-9.8v13.8h9.8V126.4z M398.8,126.4h-9.8v13.8h9.8V126.4z
				 M416,126.4h-9.8v13.8h9.8V126.4z M88.6,126.4h-9.8v13.8h9.8V126.4z M433.2,126.4h-9.8v13.8h9.8V126.4z"/>
		</g>
	</g>
</g>
<g>
	
		<image overflow="visible" opacity="0.75" width="312" height="303" xlink:href="B91734C3.png"  transform="matrix(1 0 0 1 105 165)">
	</image>
	<g>
		<g>
			<path fill="#FFD782" d="M275.9,440.4h-24.2c-2.7,0-4.8-2.2-4.8-4.8V324.1c0-2.7,2.2-4.8,4.8-4.8h24.2c2.7,0,4.8,2.2,4.8,4.8
				v111.5C280.8,438.3,278.6,440.4,275.9,440.4z"/>
			<path fill="#FFC36E" d="M275.9,440.4h-24.2c-2.7,0-4.8-2.2-4.8-4.8v-82.4c0-2.7,2.2-4.8,4.8-4.8h24.2c2.7,0,4.8,2.2,4.8,4.8v82.4
				C280.8,438.3,278.6,440.4,275.9,440.4z"/>
			<path fill="#C3E678" d="M324.4,440.4h-24.2c-2.7,0-4.8-2.2-4.8-4.8V236.8c0-2.7,2.2-4.8,4.8-4.8h24.2c2.7,0,4.8,2.2,4.8,4.8
				v198.8C329.3,438.3,327.1,440.4,324.4,440.4z"/>
			<path fill="#A5D76E" d="M324.4,440.4h-24.2c-2.7,0-4.8-2.2-4.8-4.8V295c0-2.7,2.2-4.8,4.8-4.8h24.2c2.7,0,4.8,2.2,4.8,4.8v140.6
				C329.3,438.3,327.1,440.4,324.4,440.4z"/>
			<path fill="#00D2FF" d="M179,440.4h-24.2c-2.7,0-4.8-2.2-4.8-4.8v-82.4c0-2.7,2.2-4.8,4.8-4.8H179c2.7,0,4.8,2.2,4.8,4.8v82.4
				C183.8,438.3,181.7,440.4,179,440.4z"/>
			<path fill="#9BE6D2" d="M372.9,440.4h-24.2c-2.7,0-4.8-2.2-4.8-4.8V207.7c0-2.7,2.2-4.8,4.8-4.8h24.2c2.7,0,4.8,2.2,4.8,4.8
				v227.9C377.7,438.3,375.6,440.4,372.9,440.4z"/>
			<path fill="#78D2BE" d="M372.9,440.4h-24.2c-2.7,0-4.8-2.2-4.8-4.8V265.9c0-2.7,2.2-4.8,4.8-4.8h24.2c2.7,0,4.8,2.2,4.8,4.8
				v169.7C377.7,438.3,375.6,440.4,372.9,440.4z"/>
			<path fill="#FF6464" d="M227.5,440.4h-24.2c-2.7,0-4.8-2.2-4.8-4.8V295c0-2.7,2.2-4.8,4.8-4.8h24.2c2.7,0,4.8,2.2,4.8,4.8v140.6
				C232.3,438.3,230.1,440.4,227.5,440.4z"/>
			<path fill="#D2555A" d="M227.5,440.4h-24.2c-2.7,0-4.8-2.2-4.8-4.8V324.1c0-2.7,2.2-4.8,4.8-4.8h24.2c2.7,0,4.8,2.2,4.8,4.8
				v111.5C232.3,438.3,230.1,440.4,227.5,440.4z"/>
			<path fill="#18BDF6" d="M179,440.4h-24.2c-2.7,0-4.8-2.2-4.8-4.8v-53.3c0-2.7,2.2-4.8,4.8-4.8H179c2.7,0,4.8,2.2,4.8,4.8v53.3
				C183.8,438.3,181.7,440.4,179,440.4z"/>
			<g>
				<path fill="#D7DEED" d="M128.1,416.2h-9.7c-2.7,0-4.8-2.2-4.8-4.8l0,0c0-2.7,2.2-4.8,4.8-4.8h9.7V416.2z"/>
				<path fill="#D7DEED" d="M128.1,387.1h-9.7c-2.7,0-4.8-2.2-4.8-4.8l0,0c0-2.7,2.2-4.8,4.8-4.8h9.7V387.1z"/>
				<path fill="#D7DEED" d="M128.1,358h-9.7c-2.7,0-4.8-2.2-4.8-4.8l0,0c0-2.7,2.2-4.8,4.8-4.8h9.7V358z"/>
				<path fill="#D7DEED" d="M128.1,328.9h-9.7c-2.7,0-4.8-2.2-4.8-4.8l0,0c0-2.7,2.2-4.8,4.8-4.8h9.7V328.9z"/>
				<path fill="#D7DEED" d="M128.1,299.8h-9.7c-2.7,0-4.8-2.2-4.8-4.8l0,0c0-2.7,2.2-4.8,4.8-4.8h9.7V299.8z"/>
				<path fill="#D7DEED" d="M128.1,270.8h-9.7c-2.7,0-4.8-2.2-4.8-4.8l0,0c0-2.7,2.2-4.8,4.8-4.8h9.7V270.8z"/>
				<path fill="#D7DEED" d="M128.1,241.7h-9.7c-2.7,0-4.8-2.2-4.8-4.8l0,0c0-2.7,2.2-4.8,4.8-4.8h9.7V241.7z"/>
				<path fill="#D7DEED" d="M128.1,212.6h-9.7c-2.7,0-4.8-2.2-4.8-4.8l0,0c0-2.7,2.2-4.8,4.8-4.8h9.7V212.6z"/>
			</g>
			<path fill="#C7CFE2" d="M128.1,440.4L128.1,440.4c-2.7,0-4.8-2.2-4.8-4.8V178.6c0-2.7,2.2-4.8,4.8-4.8l0,0c2.7,0,4.8,2.2,4.8,4.8
				v256.9C132.9,438.3,130.8,440.4,128.1,440.4z"/>
			<path fill="#AFB9D2" d="M113.5,440.4L113.5,440.4c0-2.7,2.2-4.8,4.8-4.8h271.5c2.7,0,4.8,2.2,4.8,4.8l0,0c0,2.7-2.2,4.8-4.8,4.8
				H118.4C115.7,445.3,113.5,443.1,113.5,440.4z"/>
		</g>
	</g>
</g>
</svg>
