<?xml version="1.0" encoding="utf-8"?>
<!-- Generator: Adobe Illustrator 24.1.2, SVG Export Plug-In . SVG Version: 6.00 Build 0)  -->
<svg version="1.1" id="Layer_1" xmlns="http://www.w3.org/2000/svg" xmlns:xlink="http://www.w3.org/1999/xlink" x="0px" y="0px"
	 width="512px" height="512px" viewBox="0 0 512 512" enable-background="new 0 0 512 512" xml:space="preserve">
<circle fill="#FFFFFF" cx="256" cy="256" r="256"/>
<g>
	<defs>
		<circle id="SVGID_1_" cx="256" cy="256" r="256"/>
	</defs>
	<clipPath id="SVGID_2_">
		<use xlink:href="#SVGID_1_"  overflow="visible"/>
	</clipPath>
	<circle clip-path="url(#SVGID_2_)" fill="#FFFFFF" cx="256" cy="256" r="256"/>
</g>
<g id="Layer_18">
	<path fill="#C7E2FB" d="M138.4,117.1h235.1v299.3H138.4V117.1z"/>
	<path fill="#EBF7FE" d="M138.4,366.7c8,1,16,1.5,24,1.5c107.8,0.1,195.2-87.2,195.3-194.9c0-19-2.8-38-8.2-56.2H138.4V366.7z"/>
	<path fill="#F7D881" d="M138.4,117.1h235.1v53.4H138.4V117.1z"/>
	<path fill="#FFFFFF" d="M159.8,191.9h192.4v203.1H159.8V191.9z"/>
	<path fill="#F7D881" d="M159.8,191.9h192.4v32.1H159.8V191.9z"/>
	<path fill="#A0A8B2" d="M170.5,95.7h32.1v42.8h-32.1V95.7z"/>
	<path fill="#A0A8B2" d="M309.4,95.7h32.1v42.8h-32.1V95.7z"/>
	<path fill="#F7D881" d="M352.2,272v-10.7h-53.4h-37.4v-37.4h-10.7v37.4h-90.8V272h90.8v32.1h-90.8v10.7h90.8v32.1h-90.8v10.7h90.8
		v37.4h10.7v-37.4h90.8v-10.7h-90.8v-32.1h90.8v-10.7h-90.8V272H352.2z"/>
	<g>
		<path fill="#A0A8B2" d="M303.2,258.9l21.4-32.1l-8.9-5.9l-17.8,26.7l-6-6.1l-7.6,7.6l10.7,10.7c1,1,2.4,1.5,3.8,1.4h0.5
			C300.9,261.2,302.3,260.3,303.2,258.9z"/>
		<path fill="#A0A8B2" d="M298.8,304.1c-1.4,0-2.8-0.5-3.8-1.5l-10.7-10.7l7.6-7.6l6,6.1l17.8-26.7l8.9,5.9l-21.4,32.1
			c-0.9,1.3-2.3,2.2-3.9,2.4L298.8,304.1z"/>
		<path fill="#A0A8B2" d="M202.6,346.8c-1.4,0-2.8-0.5-3.8-1.5l-10.7-10.7l7.6-7.6l6,6.1l17.8-26.7l8.9,5.9L207,344.3
			c-0.9,1.3-2.3,2.2-3.9,2.4L202.6,346.8z"/>
		<path fill="#A0A8B2" d="M298.8,389.6c-1.4,0-2.8-0.5-3.8-1.5l-10.7-10.7l7.6-7.6l6,6.1l17.8-26.7l8.9,5.9l-21.4,32.1
			c-0.9,1.3-2.3,2.2-3.9,2.4L298.8,389.6z"/>
	</g>
</g>
</svg>
