<svg xmlns="http://www.w3.org/2000/svg" xmlns:xlink="http://www.w3.org/1999/xlink" width="512" height="512"><circle fill="#FFF" cx="256" cy="256" r="256"/><g fill="#B1B1B1"><path d="M328.9 396.8c0 13.4-58.7 24.2-131.1 24.2-72.4 0-131.1-10.8-131.1-24.2 0-13.4 58.7-24.2 131.1-24.2 72.4 0 131.1 10.8 131.1 24.2z"/><path d="M444.3 372.6c0 13.4-58.7 24.2-131.1 24.2S182.1 386 182.1 372.6c0-13.4 58.7-24.2 131.1-24.2s131.1 10.8 131.1 24.2z"/></g><path fill="#D4D4D3" stroke="#C6C6C5" stroke-width="3.53" stroke-miterlimit="10" d="M388.8 302.1V92H191.2v262.4h150.7z"/><g fill="#C6C6C5"><path d="M210.9 110.3h162.7v4.4H210.9zM210.9 124.2h162.7v4.4H210.9zM210.9 138.1h162.7v4.4H210.9zM210.9 152h162.7v4.4H210.9zM210.9 165.9h162.7v4.4H210.9zM210.9 179.8h162.7v4.4H210.9z"/></g><g fill="#C6C6C5"><path d="M284 197.1h89.2v4.4H284zM284 211h89.2v4.4H284zM284 224.9h89.2v4.4H284zM284 238.9h89.2v4.4H284zM284 252.8h89.2v4.4H284z"/></g><path fill="#00B0C2" d="M210.9 202.1h67.3v60.6h-67.3z"/><g fill="#C6C6C5"><path d="M284.2 277.1h72.9v4.4h-72.9zM284.2 291h72.9v4.4h-72.9zM284.2 304.9h72.9v4.4h-72.9zM284.2 318.8h72.9v4.4h-72.9zM284.2 332.7h72.9v4.4h-72.9z"/></g><path fill="#00B0C2" d="M211.2 277.1h67.3v60.6h-67.3z"/><path fill="#929191" d="M341.9 354.4l47-52.2s-7-25.8-47-31.7c0-.1 24.7 43.2 0 83.9z"/><g><path fill="#FFF" stroke="#C6C6C5" stroke-width="3.53" stroke-miterlimit="10" d="M433.5 326V115.9H235.8v262.4h150.7z"/><g fill="#C6C6C5"><path d="M255.6 134.1h162.7v4.4H255.6zM255.6 148.1h162.7v4.4H255.6zM255.6 162h162.7v4.4H255.6zM255.6 175.9h162.7v4.4H255.6zM255.6 189.8h162.7v4.4H255.6zM255.6 203.7h162.7v4.4H255.6z"/></g><g fill="#C6C6C5"><path d="M328.7 221h89.2v4.4h-89.2zM328.7 234.9h89.2v4.4h-89.2zM328.7 248.8h89.2v4.4h-89.2zM328.7 262.7h89.2v4.4h-89.2zM328.7 276.6h89.2v4.4h-89.2z"/></g><path fill="#E56B63" d="M255.6 226H323v60.6h-67.4z"/><g fill="#C6C6C5"><path d="M328.9 301h72.9v4.4h-72.9zM328.9 314.9h72.9v4.4h-72.9zM328.9 328.8h72.9v4.4h-72.9zM328.9 342.7h72.9v4.4h-72.9zM328.9 356.6h72.9v4.4h-72.9z"/></g><path fill="#E56B63" d="M255.8 301h67.3v60.6h-67.3z"/><path fill="#929191" d="M386.5 378.3l47-52.2s-7-25.8-47-31.7c0-.1 24.8 43.1 0 83.9z"/></g><g><defs><circle id="a" cx="256" cy="256" r="256"/></defs><clipPath id="b"><use xlink:href="#a" overflow="visible"/></clipPath><g clip-path="url(#b)"><path fill="#EDEDED" d="M464.6 144H250.2c-5.4 0-9.7 3.7-9.7 8.3v177.4c0 4.6 4.3 8.3 9.7 8.3h214.3c5.4 0 9.7-3.7 9.7-8.3V152.3c0-4.5-4.3-8.3-9.6-8.3z"/><path fill="#F55A62" d="M464.6 84.9H250.2c-5.4 0-9.7 8.2-9.7 18.4V210h233.7V103.3c0-10.2-4.3-18.4-9.6-18.4z"/><circle transform="rotate(-4.747 262.178 95.663) scale(1.00003)" fill="#FFF" cx="262.2" cy="95.7" r="6.7"/><circle transform="rotate(-13.394 289.307 95.653)" fill="#FFF" cx="289.4" cy="95.7" r="6.7"/><circle transform="rotate(-4.747 316.59 95.664) scale(1.00003)" fill="#FFF" cx="316.6" cy="95.7" r="6.7"/><circle fill="#FFF" cx="343.8" cy="95.7" r="6.7"/><circle transform="rotate(-82.952 371.004 95.659)" fill="#FFF" cx="371" cy="95.7" r="6.7"/><circle fill="#FFF" cx="398.2" cy="95.7" r="6.7"/><circle transform="rotate(-82.952 425.415 95.66)" fill="#FFF" cx="425.4" cy="95.7" r="6.7"/><circle fill="#FFF" cx="452.6" cy="95.7" r="6.7"/><path fill="#2E4C6C" d="M262.2 67c-2.5 0-4.6 2.1-4.6 4.6v23.6c0 2.5 2.1 4.6 4.6 4.6 2.5 0 4.6-2.1 4.6-4.6V71.6c0-2.5-2.1-4.6-4.6-4.6zM289.4 67c-2.5 0-4.6 2.1-4.6 4.6v23.6c0 2.5 2.1 4.6 4.6 4.6 2.5 0 4.6-2.1 4.6-4.6V71.6c0-2.5-2.1-4.6-4.6-4.6zM316.6 67c-2.5 0-4.6 2.1-4.6 4.6v23.6c0 2.5 2.1 4.6 4.6 4.6 2.5 0 4.6-2.1 4.6-4.6V71.6c0-2.5-2.1-4.6-4.6-4.6zM343.8 67c-2.5 0-4.6 2.1-4.6 4.6v23.6c0 2.5 2.1 4.6 4.6 4.6 2.5 0 4.6-2.1 4.6-4.6V71.6c0-2.5-2.1-4.6-4.6-4.6zM371 67c-2.5 0-4.6 2.1-4.6 4.6v23.6c0 2.5 2.1 4.6 4.6 4.6 2.5 0 4.6-2.1 4.6-4.6V71.6c0-2.5-2.1-4.6-4.6-4.6zM398.2 67c-2.5 0-4.6 2.1-4.6 4.6v23.6c0 2.5 2.1 4.6 4.6 4.6 2.5 0 4.6-2.1 4.6-4.6V71.6c0-2.5-2.1-4.6-4.6-4.6zM425.4 67c-2.5 0-4.6 2.1-4.6 4.6v23.6c0 2.5 2.1 4.6 4.6 4.6 2.5 0 4.6-2.1 4.6-4.6V71.6c0-2.5-2.1-4.6-4.6-4.6zM452.6 67c-2.5 0-4.6 2.1-4.6 4.6v23.6c0 2.5 2.1 4.6 4.6 4.6 2.5 0 4.6-2.1 4.6-4.6V71.6c0-2.5-2.1-4.6-4.6-4.6z"/><g><g fill="#FFF"><path d="M264.9 200.1c-.4-.1-.7-.1-1-.1-.4-.1-.7-.2-.9-.4-.2-.2-.3-.4-.3-.7 0-.4.1-.7.4-.9.3-.2.6-.3 1-.3.8 0 1.5.2 2.1.7l.7-1.1c-.8-.6-1.7-.9-2.7-.9-.9 0-1.6.2-2 .7-.5.5-.7 1-.7 1.8 0 .6.2 1.1.6 1.6.4.4.9.7 1.7.8.4.1.8.1 1.1.2.7.1 1.1.5 1.1 1.1 0 .8-.6 1.2-1.7 1.2-.9 0-1.7-.3-2.4-.8l-.8 1c.9.8 2 1.2 3.2 1.2 1.9 0 2.9-.8 3-2.5 0-.6-.2-1.1-.6-1.6-.4-.6-1-.9-1.8-1zM272.1 202.5c0 .4-.1.7-.3 1-.2.2-.5.3-.9.3s-.6-.1-.9-.3c-.2-.2-.3-.5-.3-1v-3.6h-1.2v4c0 .7.2 1.2.7 1.5.4.4.9.5 1.4.5.6 0 1.2-.2 1.6-.7v.6h1.2v-6h-1.2v3.7zM279.1 199.3c-.4-.4-.9-.5-1.4-.5-.6 0-1.2.2-1.6.7v-.6h-1.2v6h1.2v-3.6c0-.4.1-.7.3-1 .2-.2.5-.3.9-.3.3 0 .6.1.9.3.2.2.3.5.3 1v3.6h1.2v-4c0-.7-.2-1.2-.6-1.6z"/></g><g fill="#FFF"><path d="M295.3 202l-2.5-5.5h-1.2v8.4h1.3v-5.3l1.8 4.1h1.1l1.7-4.1h.1v5.3h1.2v-8.4h-1.2zM304.5 199.6c-.2-.2-.4-.4-.7-.5-.3-.2-.7-.2-1.2-.2s-.8.1-1.1.2c-.3.2-.5.3-.7.5-.2.2-.4.5-.5.8-.1.3-.2.8-.2 1.5 0 .6.1 1.1.2 1.5.1.3.3.6.5.9.2.2.4.4.7.5.3.2.7.3 1.1.3.5 0 .9-.1 1.2-.3.2-.1.3-.2.4-.2l.3-.3c.2-.2.4-.5.5-.9.1-.3.1-.8.1-1.5 0-.6 0-1.1-.1-1.5-.1-.3-.2-.6-.5-.8zm-.6 3.2c0 .2-.1.4-.2.5-.1.1-.2.2-.4.3-.2.1-.4.1-.6.1-.2 0-.4 0-.6-.1-.2-.1-.3-.2-.4-.3-.1-.2-.2-.3-.2-.5s-.1-.5-.1-.9 0-.7.1-.9c0-.2.1-.4.2-.5.1-.1.2-.2.4-.3.2-.1.4-.1.6-.1.2 0 .4 0 .6.1.2.1.3.2.4.3.1.1.2.3.2.5s.1.5.1.9 0 .7-.1.9zM310.6 199.3c-.4-.4-.9-.5-1.4-.5-.6 0-1.2.2-1.6.7v-.6h-1.2v6h1.2v-3.6c0-.4.1-.7.3-1 .2-.2.5-.3.9-.3.3 0 .6.1.9.3.2.2.3.5.3 1v3.6h1.2v-4c.1-.7-.1-1.2-.6-1.6z"/></g><g fill="#FFF"><path d="M323.2 197.6h2.3v7.3h1.3v-7.3h2.3v-1.1h-5.9zM332.4 202.5c0 .4-.1.7-.3 1-.2.2-.5.3-.9.3-.3 0-.6-.1-.9-.3-.2-.2-.3-.5-.3-1v-3.6h-1.2v4c0 .7.2 1.2.7 1.5.4.4.9.5 1.4.5.6 0 1.2-.2 1.6-.7v.6h1.2v-6h-1.2v3.7zM337.4 198.8c-.3 0-.6.1-.9.2-.3.1-.6.3-.8.5-.2.2-.4.5-.6 1-.2.4-.2.9-.2 1.5s.1 1.1.3 1.5c.2.4.4.7.6.9.1.1.3.2.4.3.1.1.3.2.4.2.3.1.6.1.9.1.8 0 1.6-.3 2.2-1l-.9-.7c-.4.4-.8.6-1.3.6-.4 0-.8-.1-1-.4-.3-.3-.4-.6-.4-1.1h3.8v-1c0-.8-.3-1.4-.7-1.9-.5-.4-1.1-.7-1.8-.7zm-1.3 2.6c0-.5.1-.8.4-1.1.2-.2.5-.3.9-.3s.7.1.9.3c.2.2.4.6.4 1.1h-2.6z"/></g><g fill="#FFF"><path d="M358.7 202.5l-1.6-6h-1l-1.6 6-1.4-6h-1.3l2.1 8.4h1.1l1.6-6.1 1.6 6.1h1.1l2.1-8.4h-1.3zM364.2 198.8c-.3 0-.6.1-.9.2-.3.1-.6.3-.8.5-.2.2-.4.5-.6 1-.2.4-.2.9-.2 1.5s.1 1.1.3 1.5c.2.4.4.7.6.9.1.1.3.2.4.3.1.1.3.2.4.2.3.1.6.1.9.1.8 0 1.6-.3 2.2-1l-.9-.7c-.4.4-.8.6-1.3.6-.4 0-.8-.1-1-.4-.3-.3-.4-.6-.4-1.1h3.8v-1c0-.8-.3-1.4-.7-1.9-.5-.4-1.1-.7-1.8-.7zm-1.2 2.6c0-.5.1-.8.4-1.1.2-.2.5-.3.9-.3s.7.1.9.3c.2.2.4.6.4 1.1H363zM371.6 199.5c-.2-.2-.5-.4-.7-.5-.3-.1-.6-.2-.9-.2-.7 0-1.3.3-1.6.8-.2.2-.3.4-.3.7-.1.3-.1.8-.1 1.5s0 1.2.1 1.5c.1.3.2.6.3.8.2.2.4.4.7.6.3.1.6.2.9.2.6 0 1.2-.2 1.6-.7v.6h1.2v-8.5h-1.2v3.2zm0 3.1c0 .2-.1.4-.2.6-.1.2-.2.3-.3.4-.2.1-.4.2-.7.2-.3 0-.5-.1-.7-.2-.2-.1-.3-.3-.4-.4-.1-.2-.1-.4-.1-.6v-.7-.7c0-.2.1-.4.1-.6.1-.2.2-.3.4-.4.2-.1.4-.1.7-.1.3 0 .5.1.7.2.2.1.3.3.3.4.1.2.1.4.2.6V202.6z"/></g><g fill="#FFF"><path d="M384.7 197.6h2.3v7.3h1.3v-7.3h2.3v-1.1h-5.9zM395.4 199.3c-.4-.4-.9-.5-1.4-.5-.6 0-1.2.2-1.6.7v-3.1h-1.2v8.5h1.2v-3.6c0-.4.1-.7.3-1 .2-.2.5-.3.9-.3.3 0 .6.1.9.3.2.2.3.5.3 1v3.6h1.2v-4c0-.7-.2-1.2-.6-1.6zM401.2 202.5c0 .4-.1.7-.3 1-.2.2-.5.3-.9.3s-.6-.1-.9-.3c-.2-.2-.3-.5-.3-1v-3.6h-1.2v4c0 .7.2 1.2.7 1.5.4.4.9.5 1.4.5.6 0 1.2-.2 1.6-.7v.6h1.2v-6h-1.2v3.7z"/></g><g fill="#FFF"><path d="M414.3 204.9h1.3v-3.6h3.5v-1.1h-3.5v-2.5h4.1v-1.2h-5.4zM421.6 199.5v-.6h-1.2v6h1.2v-3.6c0-.4.1-.8.4-1 .2-.2.5-.3.8-.3.3 0 .5.1.8.3l.9-1.1c-.4-.3-.8-.5-1.3-.5-.7.1-1.2.4-1.6.8zM425 198.9h1.2v6H425zM425 196.5h1.2v1.2H425z"/></g><g fill="#FFF"><path d="M442 200.1c-.4-.1-.7-.1-1-.1-.4-.1-.7-.2-.9-.4-.2-.2-.3-.4-.3-.7 0-.4.1-.7.4-.9.3-.2.6-.3 1-.3.8 0 1.5.2 2.1.7l.7-1.1c-.8-.6-1.7-.9-2.7-.9-.9 0-1.6.2-2 .7-.5.5-.7 1-.7 1.8 0 .6.2 1.1.6 1.6.4.4.9.7 1.7.8.4.1.8.1 1.1.2.7.1 1.1.5 1.1 1.1 0 .8-.6 1.2-1.7 1.2-.9 0-1.7-.3-2.4-.8l-.8 1c.9.8 2 1.2 3.2 1.2 1.9 0 2.9-.8 3-2.5 0-.6-.2-1.1-.6-1.6-.4-.6-1-.9-1.8-1zM449.3 199.3c-.5-.3-1.1-.4-1.8-.4-.9 0-1.6.3-2 .9l1 .7c.1-.2.2-.3.4-.4.2-.1.4-.1.7-.1.8 0 1.2.2 1.2.8v.6h-1.7c-.6 0-1.1.2-1.5.5-.3.3-.5.8-.5 1.3s.2 1 .6 1.3c.4.3.9.5 1.6.5.4 0 .7-.1 1-.2.2-.1.4-.2.5-.5v.5h1.2v-4.1c0-.6-.2-1.1-.7-1.4zm-.5 3.5c0 .5-.1.7-.3.9-.2.1-.6.2-1.1.2-.4 0-.7-.1-.9-.2-.2-.1-.3-.3-.3-.5 0-.5.3-.7 1-.7h1.5v.3zM452.8 197.1h-1.2v1.8h-.6v.9h.6v3.6c0 .5.1.8.4 1.1.3.3.6.4 1 .4h.6v-1.1h-.5c-.3 0-.4-.1-.4-.4v-3.5h.9v-.9h-.9v-1.9z"/></g><path fill="#4672B8" d="M425.1 229.2h-1.3v2.4h-2.2l2.9-6.1h-1.4l-2.8 6.1v1.1h3.5v1.3h1.3v-1.3h.6v-1.1h-.6z"/><g fill="#4672B8"><path d="M415.6 246.2v1.3l1.2-.9v7.2h1.2v-8.4h-1.2zM421.3 246.2v1.3l1.2-.9v7.2h1.2v-8.4h-1.2z"/></g><g fill="#4672B8"><path d="M415.6 266.1v1.3l1.2-.9v7.2h1.2v-8.5h-1.2zM424.6 269.3c.3-.2.5-.5.6-.8.2-.3.2-.6.2-1 0-.7-.2-1.3-.7-1.7-.4-.5-1-.7-1.7-.7s-1.3.2-1.7.7c-.5.5-.7 1-.7 1.7 0 .4.1.7.2 1 .1.3.3.5.6.8-.7.5-1 1.1-1 1.9 0 .8.3 1.4.8 1.8.5.5 1.1.7 1.8.7s1.3-.2 1.8-.7c.5-.5.7-1.1.7-1.8.1-.8-.2-1.5-.9-1.9zm-2.4-2.7c.2-.2.5-.3.8-.3.3 0 .6.1.8.3.2.2.4.5.4.9s-.1.7-.4.9c-.2.2-.5.3-.8.3-.3 0-.6-.1-.8-.3-.2-.2-.4-.5-.4-.9s.1-.7.4-.9zm1.8 5.5c-.3.3-.6.4-1 .4s-.7-.1-.9-.4c-.3-.2-.4-.6-.4-1s.1-.7.4-1c.3-.2.6-.4.9-.4.4 0 .7.1 1 .4.3.2.4.6.4 1 0 .5-.1.8-.4 1z"/></g><g fill="#4672B8"><path d="M419.7 287.4c0-.7-.2-1.3-.7-1.7-.5-.5-1-.7-1.8-.7-.7 0-1.2.2-1.6.7-.4.5-.7 1-.7 1.7h1.2c0-.4.2-.7.4-.9.2-.2.5-.3.8-.3.4 0 .7.1.9.4.2.2.3.5.3.8v.4c0 .1-.1.3-.3.5l-3.3 4.1v1.1h4.8v-1.2h-3.2l2.7-3.4c.3-.5.5-1 .5-1.5zM425.3 289.1c-.1-.3-.3-.6-.5-.8-.2-.2-.4-.3-.6-.4-.3-.1-.6-.2-.9-.2-.5 0-1 .2-1.4.5v-1.9h3.4V285h-4.5v4.6h1.1c.1-.3.3-.4.5-.5.2-.1.4-.2.6-.2.2 0 .5 0 .6.1.2.1.3.2.4.3.2.3.2.7.2 1.2v.6c0 .2-.1.4-.1.6-.1.2-.2.3-.3.4-.2.1-.4.2-.7.2-.7 0-1.1-.3-1.2-1h-1.2c.1.8.4 1.3.9 1.7.5.3 1 .5 1.6.5.4 0 .8-.1 1.1-.3.3-.2.6-.4.7-.6.2-.2.3-.5.4-.8.1-.3.1-.7.1-1.3v-.9c-.1-.1-.2-.3-.2-.5z"/></g><path fill="#4672B8" d="M451 229.6c-.1-.3-.3-.6-.5-.8-.2-.2-.4-.3-.6-.4-.3-.1-.6-.2-.9-.2-.5 0-1 .2-1.4.5v-1.9h3.4v-1.2h-4.5v4.6h1.1c.1-.3.3-.4.5-.5.2-.1.4-.2.6-.2.2 0 .5 0 .6.1.2.1.3.2.4.3.2.3.2.7.2 1.2v.6c0 .2-.1.4-.1.6-.1.2-.2.3-.3.4-.2.1-.4.2-.7.2-.7 0-1.1-.3-1.2-1h-1.2c.1.8.4 1.3.9 1.7.5.3 1 .5 1.6.5.4 0 .8-.1 1.1-.3.3-.2.6-.4.7-.6.2-.2.3-.5.4-.8.1-.3.1-.7.1-1.3v-.9c-.1-.2-.1-.4-.2-.6z"/><g fill="#4672B8"><path d="M441.3 246.2v1.3l1.2-.9v7.2h1.2v-8.4h-1.2zM451.1 247.7c0-.7-.2-1.3-.7-1.7-.5-.5-1-.7-1.8-.7-.7 0-1.2.2-1.6.7-.4.5-.7 1-.7 1.7h1.2c0-.4.2-.7.4-.9.2-.2.5-.3.8-.3.4 0 .7.1.9.4.2.2.3.5.3.8v.4c0 .1-.1.3-.3.5l-3.3 4.1v1.1h4.8v-1.2h-3.2l2.7-3.4c.4-.4.5-.9.5-1.5z"/></g><g fill="#4672B8"><path d="M441.3 266.1v1.3l1.2-.9v7.2h1.2v-8.5h-1.2zM451 266.6l-.3-.6c-.1-.2-.3-.3-.5-.5-.2-.1-.4-.2-.7-.3-.3-.1-.6-.1-.9-.1-.3 0-.6.1-.9.2-.2.1-.5.2-.6.4-.2.2-.3.3-.4.5-.1.2-.2.3-.2.5-.1.2-.1.3-.1.4v1.2c0 .1.1.3.1.4.1.1.1.3.2.5s.2.3.3.4c.1.1.3.2.5.3.2.1.4.1.7.1h.5c.1 0 .3-.1.4-.1-.1.1-.2.3-.3.5-.1.2-.2.5-.4.7s-.3.5-.4.8c-.1.3-.3.5-.4.7-.1.2-.2.4-.3.5-.1.1-.1.2-.1.2h1.4c.4-.7.7-1.4 1-2 .1-.3.3-.5.4-.8.1-.3.2-.5.3-.7.1-.2.2-.4.3-.5.1-.1.1-.2.1-.3.1-.2.1-.3.2-.4 0-.1.1-.3.1-.4 0-.1.1-.3.1-.4 0-.1.1-.3.1-.5v-.5c-.1.2-.2 0-.2-.2zm-1.1 1.5c0 .1-.1.2-.1.3 0 .1-.1.2-.2.3-.1.1-.1.2-.2.2-.1.1-.2.1-.3.2-.1 0-.3.1-.4.1-.3 0-.5-.1-.7-.2-.2-.1-.3-.3-.4-.4-.1-.2-.1-.3-.1-.5v-.5s0-.1.1-.3c0-.1.1-.3.2-.4.1-.1.2-.3.4-.4.2-.1.3-.2.6-.2.2 0 .4 0 .5.1.1 0 .3.1.4.2.1.1.2.2.2.3.1.1.1.2.1.4v.7c-.1 0-.1.1-.1.1z"/></g><g fill="#4672B8"><path d="M445.4 287.4c0-.7-.2-1.3-.7-1.7-.5-.5-1-.7-1.8-.7-.7 0-1.2.2-1.6.7-.4.5-.7 1-.7 1.7h1.2c0-.4.2-.7.4-.9.2-.2.5-.3.8-.3.4 0 .7.1.9.4.2.2.3.5.3.8v.4c0 .1-.1.3-.3.5l-3.3 4.1v1.1h4.8v-1.2h-3.2l2.7-3.4c.3-.5.5-1 .5-1.5zM451.1 289.8c-.1-.1-.1-.3-.2-.5s-.2-.3-.4-.4c-.1-.1-.3-.2-.5-.3-.2-.1-.4-.1-.7-.1h-.5c-.1 0-.3.1-.4.1.1-.1.1-.2.2-.4s.2-.3.3-.5l.3-.6.3-.6.3-.6c.1-.2.2-.4.2-.5.1-.1.1-.3.2-.3 0-.1.1-.1.1-.1H449c-.4.8-.7 1.4-1 2.1-.1.3-.3.5-.4.8-.1.3-.2.5-.3.7-.1.2-.2.4-.3.5-.1.1-.1.2-.1.3-.1.2-.1.3-.2.4 0 .1-.1.3-.1.4 0 .1-.1.3-.1.4 0 .1-.1.3-.1.5v.5c0 .2.1.4.2.6l.3.6c.1.2.3.4.5.5.2.1.4.3.7.3.3.1.6.1.9.1.3 0 .6-.1.9-.2.2-.1.5-.3.6-.4.2-.2.3-.3.4-.5.1-.2.2-.3.2-.5.1-.2.1-.3.1-.4v-.2-.2-.2-.2-.1-.3c0-.4 0-.5-.1-.7zm-1 1.5c0 .1 0 .2-.1.2 0 .1-.1.2-.1.3s-.1.2-.2.3c-.1.1-.2.1-.3.2-.1 0-.3.1-.5.1s-.4 0-.5-.1c-.1-.1-.3-.1-.4-.2-.1-.1-.2-.2-.2-.3-.1-.1-.1-.2-.1-.3v-.4-.3-.2c0-.1.1-.2.1-.3 0-.1.1-.2.2-.3.1-.1.1-.2.2-.3s.2-.1.3-.2c.1 0 .3-.1.4 0 .3 0 .6.1.7.2.2.1.3.3.4.4.1.2.1.3.1.5v.7z"/></g><g><path fill="#F55A62" d="M275.6 250.1c-.1-.1-.1-.3-.2-.5s-.2-.3-.4-.4c-.1-.1-.3-.2-.5-.3-.2-.1-.4-.1-.7-.1h-.5c-.1 0-.3.1-.4.1.1-.1.1-.2.2-.4s.2-.3.3-.5l.3-.6.3-.6.3-.6c.1-.2.2-.4.2-.5.1-.1.1-.3.2-.3 0-.1.1-.1.1-.1h-1.4c-.4.8-.7 1.4-1 2.1-.1.3-.3.5-.4.8-.1.3-.2.5-.3.7-.1.2-.2.4-.3.5-.1.1-.1.2-.1.3-.1.2-.1.3-.2.4 0 .1-.1.3-.1.4s-.1.3-.1.4c0 .1-.1.3-.1.5v.5c0 .2.1.4.2.6l.3.6c.1.2.3.4.5.5.2.1.4.3.7.3.3.1.6.1.9.1.3 0 .6-.1.9-.2.2-.1.5-.3.6-.4.2-.2.3-.3.4-.5.1-.2.2-.3.2-.5.1-.2.1-.3.1-.4v-.2-.2-.2-.2-.1-.3c.1-.4 0-.5 0-.7zm-1.1 1.5c0 .1 0 .2-.1.2 0 .1-.1.2-.1.3-.1.1-.1.2-.2.3-.1.1-.2.1-.3.2-.1 0-.3.1-.5.1s-.4 0-.5-.1c-.1-.1-.3-.1-.4-.2-.1-.1-.2-.2-.2-.3-.1-.1-.1-.2-.1-.3v-.4-.3-.2c0-.1.1-.2.1-.3 0-.1.1-.2.2-.3.1-.1.1-.2.2-.3.1-.1.2-.1.3-.2.1 0 .3-.1.4 0 .3 0 .6.1.7.2.2.1.3.3.4.4.1.2.1.3.1.5v.7z"/><g fill="#F55A62"><path d="M265.7 266.1v1.3l1.2-.9v7.2h1.2v-8.5h-1.2zM274.5 269.3c.3-.2.6-.5.7-.8.1-.3.2-.6.2-.9 0-.6-.2-1.2-.7-1.7-.5-.5-1.1-.7-1.8-.7-.6 0-1.1.2-1.6.7-.4.4-.7 1-.8 1.6h1.2c.1-.3.2-.6.5-.8.2-.2.4-.2.7-.2.4 0 .7.1.9.3.2.2.3.5.4.9 0 .4-.1.6-.3.9-.2.2-.5.3-1 .3h-.4v1.1h.5c.4 0 .7.1.9.3.2.2.4.6.4 1s-.1.7-.4 1c-.2.2-.5.4-.9.4-.3 0-.6-.1-.8-.3-.2-.2-.4-.4-.5-.7h-1.2c.1.7.4 1.2.9 1.6.4.4 1 .6 1.5.6.7 0 1.4-.2 1.8-.7.5-.5.7-1.1.7-1.9 0-.4-.1-.7-.2-1-.1-.5-.4-.8-.7-1z"/></g><g fill="#F55A62"><path d="M269.8 287.4c0-.7-.2-1.3-.7-1.7-.5-.5-1-.7-1.8-.7-.7 0-1.2.2-1.6.7-.4.5-.7 1-.7 1.7h1.2c0-.4.2-.7.4-.9.2-.2.5-.3.8-.3.4 0 .7.1.9.4.2.2.3.5.3.8v.4c0 .1-.1.3-.3.5l-3.3 4.1v1.1h4.8v-1.2h-3.2l2.7-3.4c.4-.5.5-1 .5-1.5zM273.2 285c-.6 0-1.2.2-1.6.6-.5.4-.7 1-.7 1.8v3.7c0 .8.3 1.4.7 1.8.5.4 1 .6 1.6.6.7 0 1.2-.2 1.7-.6.5-.4.7-1 .7-1.8v-3.7c0-.8-.3-1.4-.7-1.8-.5-.4-1.1-.6-1.7-.6zm1.2 6.1c0 .9-.4 1.3-1.2 1.3-.8 0-1.2-.4-1.2-1.3v-3.6c0-.8.4-1.3 1.2-1.3.8 0 1.2.4 1.2 1.3v3.6z"/></g><g fill="#F55A62"><path d="M269.8 307.2c0-.7-.2-1.3-.7-1.7-.5-.5-1-.7-1.8-.7-.7 0-1.2.2-1.6.7-.4.5-.7 1-.7 1.7h1.2c0-.4.2-.7.4-.9.2-.2.5-.3.8-.3.4 0 .7.1.9.4.2.2.3.5.3.8v.4c0 .1-.1.3-.3.5l-3.3 4.1v1.1h4.8v-1.2h-3.2l2.7-3.4c.4-.4.5-.9.5-1.5zM270.9 307.3h1.3v-1.2h2.2l-2.9 7.2h1.4l2.9-7.2v-1.2h-4.9z"/></g></g><g><path fill="#4672B8" d="M301.9 247.8h1.3v-1.2h2.2l-2.9 7.2h1.4l2.9-7.2v-1.2h-4.9z"/><g fill="#4672B8"><path d="M296.7 266.1v1.3l1.2-.9v7.2h1.2v-8.5h-1.2zM306.2 268.8H305v2.5h-2.2l2.9-6.1h-1.4l-2.8 6.1v1.1h3.5v1.3h1.2v-1.3h.7v-1.1h-.7z"/></g><g fill="#4672B8"><path d="M300.8 287.4c0-.7-.2-1.3-.7-1.7-.5-.5-1-.7-1.8-.7-.7 0-1.2.2-1.6.7-.4.5-.7 1-.7 1.7h1.2c0-.4.2-.7.4-.9.2-.2.5-.3.8-.3.4 0 .7.1.9.4.2.2.3.5.3.8v.4c0 .1-.1.3-.3.5l-3.3 4.1v1.1h4.8v-1.2h-3.2l2.7-3.4c.4-.5.5-1 .5-1.5zM302.4 285.9v1.3l1.2-.9v7.2h1.3V285h-1.3z"/></g><g fill="#4672B8"><path d="M300.8 307.2c0-.7-.2-1.3-.7-1.7-.5-.5-1-.7-1.8-.7-.7 0-1.2.2-1.6.7-.4.5-.7 1-.7 1.7h1.2c0-.4.2-.7.4-.9.2-.2.5-.3.8-.3.4 0 .7.1.9.4.2.2.3.5.3.8v.4c0 .1-.1.3-.3.5l-3.3 4.1v1.1h4.8v-1.2h-3.2l2.7-3.4c.4-.4.5-.9.5-1.5zM305.8 308.9c.3-.2.5-.5.6-.8.2-.3.2-.6.2-1 0-.7-.2-1.3-.7-1.7-.4-.5-1-.7-1.7-.7s-1.3.2-1.7.7c-.5.5-.7 1-.7 1.7 0 .4.1.7.2 1 .1.3.3.5.6.8-.7.5-1 1.1-1 1.9 0 .8.3 1.4.8 1.8.5.5 1.1.7 1.8.7s1.3-.2 1.8-.7c.5-.5.7-1.1.7-1.8.1-.8-.3-1.4-.9-1.9zm-2.4-2.6c.2-.2.5-.3.8-.3.3 0 .6.1.8.3.2.2.4.5.4.9s-.1.7-.4.9c-.2.2-.5.3-.8.3-.3 0-.6-.1-.8-.3-.2-.2-.4-.5-.4-.9s.1-.7.4-.9zm1.7 5.5c-.3.3-.6.4-1 .4s-.7-.1-.9-.4c-.3-.2-.4-.6-.4-1s.1-.7.4-1c.3-.2.6-.4.9-.4.4 0 .7.1 1 .4.3.2.4.6.4 1s-.1.7-.4 1z"/></g></g><g><path fill="#4672B8" d="M332.6 226.4v1.3l1.2-.9v7.2h1.2v-8.5h-1.2zM335.9 249.5c.3-.2.5-.5.6-.8.2-.3.2-.6.2-1 0-.7-.2-1.3-.7-1.7-.4-.5-1-.7-1.7-.7s-1.3.2-1.7.7c-.5.5-.7 1-.7 1.7 0 .4.1.7.2 1 .1.3.3.5.6.8-.7.5-1 1.1-1 1.9 0 .8.3 1.4.8 1.8.5.5 1.1.7 1.8.7s1.3-.2 1.8-.7c.5-.5.7-1.1.7-1.8.1-.9-.2-1.5-.9-1.9zm-2.4-2.7c.2-.2.5-.3.8-.3.3 0 .6.1.8.3.2.2.4.5.4.9s-.1.7-.4.9c-.2.2-.5.3-.8.3-.3 0-.6-.1-.8-.3-.2-.2-.4-.5-.4-.9s.2-.7.4-.9zm1.8 5.5c-.3.3-.6.4-1 .4s-.7-.1-.9-.4c-.3-.2-.4-.6-.4-1s.1-.7.4-1c.3-.2.6-.4.9-.4.4 0 .7.1 1 .4.3.2.4.6.4 1s-.1.8-.4 1z"/><g fill="#4672B8"><path d="M326.9 266.1v1.3l1.2-.9v7.2h1.2v-8.5h-1.2zM336.6 269.3c-.1-.3-.3-.6-.5-.8-.2-.2-.4-.3-.6-.4-.3-.1-.6-.2-.9-.2-.5 0-1 .2-1.4.5v-1.9h3.4v-1.2h-4.5v4.6h1.1c.1-.3.3-.4.5-.5.2-.1.4-.2.6-.2.2 0 .5 0 .6.1.2.1.3.2.4.3.2.3.2.7.2 1.2v.6c0 .2-.1.4-.1.6-.1.2-.2.3-.3.4-.2.1-.4.2-.7.2-.7 0-1.1-.3-1.2-1H332c.1.8.4 1.3.9 1.7.5.3 1 .5 1.6.5.4 0 .8-.1 1.1-.3.3-.2.6-.4.7-.6.2-.2.3-.5.4-.8.1-.3.1-.7.1-1.3v-.9c-.1-.2-.1-.5-.2-.6z"/></g><g fill="#4672B8"><path d="M331 287.4c0-.7-.2-1.3-.7-1.7-.5-.5-1-.7-1.8-.7-.7 0-1.2.2-1.6.7-.4.5-.7 1-.7 1.7h1.2c0-.4.2-.7.4-.9.2-.2.5-.3.8-.3.4 0 .7.1.9.4.2.2.3.5.3.8v.4c0 .1-.1.3-.3.5l-3.3 4.1v1.1h4.8v-1.2h-3.2l2.7-3.4c.3-.5.5-1 .5-1.5zM336.7 287.4c0-.7-.2-1.3-.7-1.7-.5-.5-1-.7-1.8-.7-.7 0-1.2.2-1.6.7-.4.5-.7 1-.7 1.7h1.2c0-.4.2-.7.4-.9.2-.2.5-.3.8-.3.4 0 .7.1.9.4.2.2.3.5.3.8v.4c0 .1-.1.3-.3.5l-3.3 4.1v1.1h4.8v-1.2h-3.2l2.7-3.4c.3-.5.5-1 .5-1.5z"/></g><g fill="#4672B8"><path d="M331 307.2c0-.7-.2-1.3-.7-1.7-.5-.5-1-.7-1.8-.7-.7 0-1.2.2-1.6.7-.4.5-.7 1-.7 1.7h1.2c0-.4.2-.7.4-.9.2-.2.5-.3.8-.3.4 0 .7.1.9.4.2.2.3.5.3.8v.4c0 .1-.1.3-.3.5l-3.3 4.1v1.1h4.8v-1.2h-3.2l2.7-3.4c.3-.4.5-.9.5-1.5zM336.5 306.3l-.3-.6c-.1-.2-.3-.3-.5-.5-.2-.1-.4-.2-.7-.3-.3-.1-.6-.1-.9-.1-.3 0-.6.1-.9.2-.2.1-.5.2-.6.4-.2.2-.3.3-.4.5-.1.2-.2.3-.2.5-.1.2-.1.3-.1.4v1.2c0 .1.1.3.1.4.1.1.1.3.2.5s.2.3.3.4c.1.1.3.2.5.3.2.1.4.1.7.1h.5c.1 0 .3-.1.4-.1-.1.1-.2.3-.3.5-.1.2-.2.5-.4.7-.1.3-.3.5-.4.8-.1.3-.3.5-.4.7-.1.2-.2.4-.3.5-.1.1-.1.2-.1.2h1.4c.4-.7.7-1.4 1-2 .1-.3.3-.5.4-.8.1-.3.2-.5.3-.7.1-.2.2-.4.3-.5.1-.1.1-.2.1-.3.1-.2.1-.3.2-.4 0-.1.1-.3.1-.4 0-.1.1-.3.1-.4 0-.1.1-.3.1-.5v-.5c-.1.1-.1-.1-.2-.2zm-1.1 1.5c0 .1-.1.2-.1.3 0 .1-.1.2-.2.3-.1.1-.1.2-.2.2-.1.1-.2.1-.3.2-.1 0-.3.1-.4.1-.3 0-.5-.1-.7-.2-.2-.1-.3-.3-.4-.4-.1-.2-.1-.3-.1-.5v-.5s0-.1.1-.3c0-.1.1-.3.2-.4.1-.1.2-.3.4-.4.2-.1.3-.2.6-.2.2 0 .4 0 .5.1.1 0 .3.1.4.2.1.1.2.2.2.3.1.1.1.2.1.4v.7s-.1 0-.1.1z"/></g></g><g><path fill="#4672B8" d="M367.6 227.9c0-.7-.2-1.3-.7-1.7-.5-.5-1-.7-1.8-.7-.7 0-1.2.2-1.6.7-.4.5-.7 1-.7 1.7h1.2c0-.4.2-.7.4-.9.2-.2.5-.3.8-.3.4 0 .7.1.9.4.2.2.3.5.3.8v.4c0 .1-.1.3-.3.5l-3.3 4.1v1.1h4.8v-1.2h-3.2l2.7-3.4c.3-.5.5-1 .5-1.5zM367.4 246.8l-.3-.6c-.1-.2-.3-.3-.5-.5-.2-.1-.4-.2-.7-.3-.3-.1-.6-.1-.9-.1-.3 0-.6.1-.9.2-.2.1-.5.2-.6.4-.2.2-.3.3-.4.5-.1.2-.2.3-.2.5-.1.2-.1.3-.1.4v1.2c0 .1.1.3.1.4.1.1.1.3.2.5s.2.3.3.4c.1.1.3.2.5.3.2.1.4.1.7.1h.5c.1 0 .3-.1.4-.1-.1.1-.2.3-.3.5-.1.2-.2.5-.4.7-.1.3-.3.5-.4.8-.1.3-.3.5-.4.7-.1.2-.2.4-.3.5-.1.1-.1.2-.1.2h1.4c.4-.7.7-1.4 1-2 .1-.3.3-.5.4-.8.1-.3.2-.5.3-.7.1-.2.2-.4.3-.5.1-.1.1-.2.1-.3.1-.2.1-.3.2-.4 0-.1.1-.3.1-.4 0-.1.1-.3.1-.4 0-.1.1-.3.1-.5v-.5c-.1.1-.1 0-.2-.2zm-1.1 1.5c0 .1-.1.2-.1.3 0 .1-.1.2-.2.3-.1.1-.1.2-.2.2-.1.1-.2.1-.3.2-.1 0-.3.1-.4.1-.3 0-.5-.1-.7-.2-.2-.1-.3-.3-.4-.4-.1-.2-.1-.3-.1-.5v-.5s0-.1.1-.3c0-.1.1-.3.2-.4.1-.1.2-.3.4-.4.2-.1.3-.2.6-.2.2 0 .4 0 .5.1.1 0 .3.1.4.2.1.1.2.2.2.3.1.1.1.2.1.4v.7s-.1 0-.1.1z"/><g fill="#4672B8"><path d="M357.8 266.1v1.3l1.2-.9v7.2h1.2v-8.5H359zM367.6 270c-.1-.1-.1-.3-.2-.5s-.2-.3-.4-.4c-.1-.1-.3-.2-.5-.3-.2-.1-.4-.1-.7-.1h-.5c-.1 0-.3.1-.4.1.1-.1.1-.2.2-.4s.2-.3.3-.5l.3-.6.3-.6.3-.6c.1-.2.2-.4.2-.5.1-.1.1-.3.2-.3 0-.1.1-.1.1-.1h-1.4c-.4.8-.7 1.4-1 2.1-.1.3-.3.5-.4.8-.1.3-.2.5-.3.7-.1.2-.2.4-.3.5-.1.1-.1.2-.1.3-.1.2-.1.3-.2.4 0 .1-.1.3-.1.4 0 .1-.1.3-.1.4 0 .1-.1.3-.1.5v.5c0 .2.1.4.2.6l.3.6c.1.2.3.4.5.5.2.1.4.3.7.3.3.1.6.1.9.1.3 0 .6-.1.9-.2.2-.1.5-.3.6-.4.2-.2.3-.3.4-.5.1-.2.2-.3.2-.5.1-.2.1-.3.1-.4v-.2-.2-.2-.2-.1-.3c.1-.4.1-.6 0-.7zm-1.1 1.5c0 .1 0 .2-.1.2 0 .1-.1.2-.1.3-.1.1-.1.2-.2.3-.1.1-.2.1-.3.2-.1 0-.3.1-.5.1s-.4 0-.5-.1c-.1-.1-.3-.1-.4-.2-.1-.1-.2-.2-.2-.3-.1-.1-.1-.2-.1-.3v-.4-.3-.2c0-.1.1-.2.1-.3 0-.1.1-.2.2-.3.1-.1.1-.2.2-.3.1-.1.2-.1.3-.2.1 0 .3-.1.4 0 .3 0 .6.1.7.2.2.1.3.3.4.4.1.2.1.3.1.5v.5c.1 0 0 .1 0 .2z"/></g><g fill="#4672B8"><path d="M361.9 287.4c0-.7-.2-1.3-.7-1.7-.5-.5-1-.7-1.8-.7-.7 0-1.2.2-1.6.7-.4.5-.7 1-.7 1.7h1.2c0-.4.2-.7.4-.9.2-.2.5-.3.8-.3.4 0 .7.1.9.4.2.2.3.5.3.8v.4c0 .1-.1.3-.3.5l-3.3 4.1v1.1h4.8v-1.2h-3.2l2.7-3.4c.3-.5.5-1 .5-1.5zM366.5 289.1c.3-.2.6-.5.7-.8.1-.3.2-.6.2-.9 0-.6-.2-1.2-.7-1.7-.5-.5-1.1-.7-1.8-.7-.6 0-1.1.2-1.6.7-.4.4-.7 1-.8 1.6h1.2c.1-.3.2-.6.5-.8.2-.2.4-.2.7-.2.4 0 .7.1.9.3.2.2.3.5.4.9 0 .4-.1.6-.3.9-.2.2-.5.3-1 .3h-.4v1.1h.5c.4 0 .7.1.9.3.2.2.4.6.4 1s-.1.7-.4 1c-.2.2-.5.4-.9.4-.3 0-.6-.1-.8-.3-.2-.2-.4-.4-.5-.7h-1.2c.1.7.4 1.2.9 1.6.4.4 1 .6 1.5.6.7 0 1.4-.2 1.8-.7.5-.5.7-1.1.7-1.9 0-.4-.1-.7-.2-1-.1-.5-.3-.8-.7-1z"/></g><g fill="#4672B8"><path d="M360.8 308.9c.3-.2.6-.5.7-.8.1-.3.2-.6.2-.9 0-.6-.2-1.2-.7-1.7-.5-.5-1.1-.7-1.8-.7-.6 0-1.1.2-1.6.7-.4.4-.7 1-.8 1.6h1.2c.1-.3.2-.6.5-.8.2-.2.4-.2.7-.2.4 0 .7.1.9.3.2.2.3.5.4.9 0 .4-.1.6-.3.9-.2.2-.5.3-1 .3h-.4v1.1h.5c.4 0 .7.1.9.3.2.2.4.6.4 1s-.1.7-.4 1c-.2.2-.5.4-.9.4-.3 0-.6-.1-.8-.3-.2-.2-.4-.4-.5-.7h-1.2c.1.7.4 1.2.9 1.6.4.4 1 .6 1.5.6.7 0 1.4-.2 1.8-.7.5-.5.7-1.1.7-1.9 0-.4-.1-.7-.2-1-.1-.4-.3-.7-.7-1zM365.2 304.8c-.6 0-1.2.2-1.6.6-.5.4-.7 1-.7 1.8v3.7c0 .8.3 1.4.7 1.8.5.4 1 .6 1.6.6.7 0 1.2-.2 1.7-.6.5-.4.7-1 .7-1.8v-3.7c0-.8-.3-1.4-.7-1.8-.4-.4-1-.6-1.7-.6zm1.2 6.1c0 .9-.4 1.3-1.2 1.3-.8 0-1.2-.4-1.2-1.3v-3.6c0-.8.4-1.3 1.2-1.3.8 0 1.2.4 1.2 1.3v3.6z"/></g></g><g><path fill="#4672B8" d="M397.7 229.6c.3-.2.6-.5.7-.8.1-.3.2-.6.2-.9 0-.6-.2-1.2-.7-1.7-.5-.5-1.1-.7-1.8-.7-.6 0-1.1.2-1.6.7-.4.4-.7 1-.8 1.6h1.2c.1-.3.2-.6.5-.8.2-.2.4-.2.7-.2.4 0 .7.1.9.3.2.2.3.5.4.9 0 .4-.1.6-.3.9-.2.2-.5.3-1 .3h-.4v1.1h.5c.4 0 .7.1.9.3.2.2.4.6.4 1s-.1.7-.4 1c-.2.2-.5.4-.9.4-.3 0-.6-.1-.8-.3-.2-.2-.4-.4-.5-.7h-1.2c.1.7.4 1.2.9 1.6.4.4 1 .6 1.5.6.7 0 1.4-.2 1.8-.7.5-.5.7-1.1.7-1.9 0-.4-.1-.7-.2-1-.1-.5-.4-.7-.7-1z"/><g fill="#4672B8"><path d="M388.9 246.2v1.3l1.3-.9v7.2h1.2v-8.4h-1.2zM396.4 245.3c-.6 0-1.2.2-1.6.6-.5.4-.7 1-.7 1.8v3.7c0 .8.3 1.4.7 1.8.5.4 1 .6 1.6.6.7 0 1.2-.2 1.7-.6.5-.4.7-1 .7-1.8v-3.7c0-.8-.3-1.4-.7-1.8-.5-.4-1-.6-1.7-.6zm1.2 6.1c0 .9-.4 1.3-1.2 1.3-.8 0-1.2-.4-1.2-1.3v-3.6c0-.8.4-1.3 1.2-1.3.8 0 1.2.4 1.2 1.3v3.6z"/></g><g fill="#4672B8"><path d="M388.9 266.1v1.3l1.3-.9v7.2h1.2v-8.5h-1.2zM394.2 267.6h1.2v-1.2h2.2l-2.8 7.3h1.3l2.9-7.3v-1.2h-4.8z"/></g><g fill="#4672B8"><path d="M393.1 287.4c0-.7-.2-1.3-.7-1.7-.5-.5-1-.7-1.8-.7-.7 0-1.2.2-1.6.7-.4.5-.7 1-.7 1.7h1.2c0-.4.2-.7.4-.9.2-.2.5-.3.8-.3.4 0 .7.1.9.4.2.2.3.5.3.8v.4c0 .1-.1.3-.3.5l-3.3 4.1v1.1h4.8v-1.2h-3.2l2.7-3.4c.3-.5.5-1 .5-1.5zM398.4 288.7h-1.2v2.4H395l2.9-6.1h-1.4l-2.8 6.1v1.1h3.5v1.3h1.2v-1.3h.7v-1.1h-.7z"/></g><g fill="#4672B8"><path d="M392 308.9c.3-.2.6-.5.7-.8.1-.3.2-.6.2-.9 0-.6-.2-1.2-.7-1.7-.5-.5-1.1-.7-1.8-.7-.6 0-1.1.2-1.6.7-.4.4-.7 1-.8 1.6h1.2c.1-.3.2-.6.5-.8.2-.2.4-.2.7-.2.4 0 .7.1.9.3.2.2.3.5.4.9 0 .4-.1.6-.3.9-.2.2-.5.3-1 .3h-.4v1.1h.5c.4 0 .7.1.9.3.2.2.4.6.4 1s-.1.7-.4 1c-.2.2-.5.4-.9.4-.3 0-.6-.1-.8-.3-.2-.2-.4-.4-.5-.7H388c.1.7.4 1.2.9 1.6.4.4 1 .6 1.5.6.7 0 1.4-.2 1.8-.7.5-.5.7-1.1.7-1.9 0-.4-.1-.7-.2-1-.1-.4-.4-.7-.7-1zM394.7 305.7v1.3l1.2-.9v7.2h1.2v-8.4h-1.2z"/></g></g></g><text transform="translate(285.766 183.581)" fill="#FFF" font-family="'Arial-Black'" font-size="97.748">1</text><text transform="translate(351.377 183.632)" fill="#FFF" font-family="'Arial-Black'" font-size="97.748">2</text></g></g><path fill="#9E7521" d="M304.5 393.8l-207.2-.6 19.3-157.7 207.1.5z"/><path fill="#FFF" d="M107.223 393.2l.42-152.5 188.1.519-.42 152.5z"/><path fill="#F8B133" d="M173.9 252v-16.4l-76.1-.2-.1 16.4v11l-.4 130.4 207.2.6.4-141.4z"/></svg>