<?xml version="1.0" encoding="utf-8"?>
<!-- Generator: Adobe Illustrator 24.1.2, SVG Export Plug-In . SVG Version: 6.00 Build 0)  -->
<svg version="1.1" id="Layer_1" xmlns="http://www.w3.org/2000/svg" xmlns:xlink="http://www.w3.org/1999/xlink" x="0px" y="0px"
	 width="512px" height="512px" viewBox="0 0 512 512" enable-background="new 0 0 512 512" xml:space="preserve">
<g>
	<circle fill="#FFFFFF" cx="256" cy="256" r="256"/>
</g>
<g>
	<path fill="#B1B1B1" d="M328.9,396.8c0,13.4-58.7,24.2-131.1,24.2c-72.4,0-131.1-10.8-131.1-24.2c0-13.4,58.7-24.2,131.1-24.2
		C270.2,372.6,328.9,383.4,328.9,396.8z"/>
	<path fill="#B1B1B1" d="M444.3,372.6c0,13.4-58.7,24.2-131.1,24.2S182.1,386,182.1,372.6c0-13.4,58.7-24.2,131.1-24.2
		S444.3,359.2,444.3,372.6z"/>
</g>
<g>
	<polygon fill="#D4D4D3" stroke="#C6C6C5" stroke-width="3.5297" stroke-miterlimit="10" points="388.8,302.1 388.8,92 191.2,92 
		191.2,354.4 341.9,354.4 	"/>
	<g>
		<rect x="210.9" y="110.3" fill="#C6C6C5" width="162.7" height="4.4"/>
		<rect x="210.9" y="124.2" fill="#C6C6C5" width="162.7" height="4.4"/>
		<rect x="210.9" y="138.1" fill="#C6C6C5" width="162.7" height="4.4"/>
		<rect x="210.9" y="152" fill="#C6C6C5" width="162.7" height="4.4"/>
		<rect x="210.9" y="165.9" fill="#C6C6C5" width="162.7" height="4.4"/>
		<rect x="210.9" y="179.8" fill="#C6C6C5" width="162.7" height="4.4"/>
	</g>
	<g>
		<rect x="284" y="197.1" fill="#C6C6C5" width="89.2" height="4.4"/>
		<rect x="284" y="211" fill="#C6C6C5" width="89.2" height="4.4"/>
		<rect x="284" y="224.9" fill="#C6C6C5" width="89.2" height="4.4"/>
		<rect x="284" y="238.9" fill="#C6C6C5" width="89.2" height="4.4"/>
		<rect x="284" y="252.8" fill="#C6C6C5" width="89.2" height="4.4"/>
	</g>
	<rect x="210.9" y="202.1" fill="#00B0C2" width="67.3" height="60.6"/>
	<g>
		<rect x="284.2" y="277.1" fill="#C6C6C5" width="72.9" height="4.4"/>
		<rect x="284.2" y="291" fill="#C6C6C5" width="72.9" height="4.4"/>
		<rect x="284.2" y="304.9" fill="#C6C6C5" width="72.9" height="4.4"/>
		<rect x="284.2" y="318.8" fill="#C6C6C5" width="72.9" height="4.4"/>
		<rect x="284.2" y="332.7" fill="#C6C6C5" width="72.9" height="4.4"/>
	</g>
	<rect x="211.2" y="277.1" fill="#00B0C2" width="67.3" height="60.6"/>
	<path fill="#929191" d="M341.9,354.4l47-52.2c0,0-7-25.8-47-31.7C341.9,270.4,366.6,313.7,341.9,354.4z"/>
</g>
<g>
	<polygon fill="#FFFFFF" stroke="#C6C6C5" stroke-width="3.5297" stroke-miterlimit="10" points="433.5,326 433.5,115.9 
		235.8,115.9 235.8,378.3 386.5,378.3 	"/>
	<g>
		<rect x="255.6" y="134.1" fill="#C6C6C5" width="162.7" height="4.4"/>
		<rect x="255.6" y="148.1" fill="#C6C6C5" width="162.7" height="4.4"/>
		<rect x="255.6" y="162" fill="#C6C6C5" width="162.7" height="4.4"/>
		<rect x="255.6" y="175.9" fill="#C6C6C5" width="162.7" height="4.4"/>
		<rect x="255.6" y="189.8" fill="#C6C6C5" width="162.7" height="4.4"/>
		<rect x="255.6" y="203.7" fill="#C6C6C5" width="162.7" height="4.4"/>
	</g>
	<g>
		<rect x="328.7" y="221" fill="#C6C6C5" width="89.2" height="4.4"/>
		<rect x="328.7" y="234.9" fill="#C6C6C5" width="89.2" height="4.4"/>
		<rect x="328.7" y="248.8" fill="#C6C6C5" width="89.2" height="4.4"/>
		<rect x="328.7" y="262.7" fill="#C6C6C5" width="89.2" height="4.4"/>
		<rect x="328.7" y="276.6" fill="#C6C6C5" width="89.2" height="4.4"/>
	</g>
	<rect x="255.6" y="226" fill="#E56B63" width="67.4" height="60.6"/>
	<g>
		<rect x="328.9" y="301" fill="#C6C6C5" width="72.9" height="4.4"/>
		<rect x="328.9" y="314.9" fill="#C6C6C5" width="72.9" height="4.4"/>
		<rect x="328.9" y="328.8" fill="#C6C6C5" width="72.9" height="4.4"/>
		<rect x="328.9" y="342.7" fill="#C6C6C5" width="72.9" height="4.4"/>
		<rect x="328.9" y="356.6" fill="#C6C6C5" width="72.9" height="4.4"/>
	</g>
	<rect x="255.8" y="301" fill="#E56B63" width="67.3" height="60.6"/>
	<path fill="#929191" d="M386.5,378.3l47-52.2c0,0-7-25.8-47-31.7C386.5,294.3,411.3,337.5,386.5,378.3z"/>
</g>
<polygon fill="#9E7521" points="304.5,393.8 97.3,393.2 116.6,235.5 323.7,236 "/>
<rect x="125.3" y="223.2" transform="matrix(2.756373e-03 -1 1 2.756373e-03 -116.3226 517.8849)" fill="#FFFFFF" width="152.5" height="188.1"/>
<polygon fill="#F8B133" points="173.9,252 173.9,235.6 97.8,235.4 97.7,251.8 97.7,262.8 97.3,393.2 304.5,393.8 304.9,252.4 "/>
</svg>
