<?xml version="1.0" encoding="utf-8"?>
<!-- Generator: Adobe Illustrator 24.1.2, SVG Export Plug-In . SVG Version: 6.00 Build 0)  -->
<svg version="1.1" id="Layer_1_1_" xmlns="http://www.w3.org/2000/svg" xmlns:xlink="http://www.w3.org/1999/xlink" x="0px" y="0px"
	 width="512px" height="512px" viewBox="0 0 512 512" enable-background="new 0 0 512 512" xml:space="preserve">
<circle fill="#FFFFFF" cx="256" cy="256" r="256"/>
<g>
	<path fill="#2D80B3" d="M85.1,222.2h204.8c14.1,0,25.6,11.5,25.6,25.6v128c0,14.1-11.5,25.6-25.6,25.6H85.1
		c-14.1,0-25.6-11.5-25.6-25.6v-128C59.5,233.6,71,222.2,85.1,222.2z"/>
	<path fill="#396795" d="M315.5,375.8c0,14.1-11.5,25.6-25.6,25.6H85.1c-14.1,0-25.6-11.5-25.6-25.6H315.5z"/>
	<path fill="#A2C32A" d="M296.3,375.8v-128c0-3.5-2.9-6.4-6.4-6.4H85.1c-3.5,0-6.4,2.9-6.4,6.4v128H296.3z"/>
	<path fill="#2D80B3" d="M168.3,401.4v12.8c0,14.1-11.5,25.6-25.6,25.6h89.6c-14.1,0-25.6-11.5-25.6-25.6v-12.8"/>
	<path fill="#EEDC9A" d="M149.1,350.2h76.8c10.6,0,19.2-8.6,19.2-19.2V222.2l-38.4-38.4h-57.6c-10.6,0-19.2,8.6-19.2,19.2v128
		C129.9,341.6,138.5,350.2,149.1,350.2z"/>
	<path fill="#EEBE33" d="M206.7,183.8v38.4h38.4L206.7,183.8z"/>
	<path fill="#8ACCE7" d="M430.7,151.8c0,17.7-14.3,32-32,32H277.1c-17.7,0-32-14.3-32-32c0-15.7,11.4-29.1,26.8-31.6
		c-0.8-2.2-1.2-4.5-1.2-6.8c0-2.1,0.3-4.1,1-6.1c3.3-10.1,14.2-15.5,24.3-12.1c1.9,0.6,3.7,1.5,5.3,2.7
		c12.1-25.6,42.6-36.5,68.2-24.4c17.9,8.5,29.3,26.5,29.3,46.3C416.4,119.8,430.7,134.1,430.7,151.8
		C430.7,151.8,430.7,151.8,430.7,151.8z"/>
	<path d="M289.9,215.8h-42.1l-36.5-36.5c-1.2-1.2-2.8-1.9-4.5-1.9h-57.6c-14.1,0-25.6,11.5-25.6,25.6v12.8H85.1
		c-17.7,0-32,14.3-32,32v128c0,17.7,14.3,32,32,32h76.8v6.4c0,10.6-8.6,19.2-19.2,19.2c-3.5,0-6.4,2.9-6.4,6.4s2.9,6.4,6.4,6.4h89.6
		c3.5,0,6.4-2.9,6.4-6.4s-2.9-6.4-6.4-6.4c-10.6,0-19.2-8.6-19.2-19.2v-6.4h76.8c17.7,0,32-14.3,32-32v-128
		C321.9,230.1,307.6,215.8,289.9,215.8z M309.1,247.8v121.6h-6.4V247.8c0-7.1-5.7-12.8-12.8-12.8h-38.4v-6.4h38.4
		C300.5,228.6,309.1,237.2,309.1,247.8z M213.1,199.2l16.5,16.5h-16.5V199.2z M136.3,203c0-7.1,5.7-12.8,12.8-12.8h51.2v32
		c0,3.5,2.9,6.4,6.4,6.4h32V331c0,7.1-5.7,12.8-12.8,12.8h-76.8c-7.1,0-12.8-5.7-12.8-12.8V203z M149.1,356.6h76.8
		c14.1,0,25.6-11.5,25.6-25.6v-83.2h38.4v121.6H85.1V247.8h38.4V331C123.5,345.1,135,356.6,149.1,356.6z M85.1,228.6h38.4v6.4H85.1
		c-7.1,0-12.8,5.7-12.8,12.8v121.6h-6.4V247.8C65.9,237.2,74.5,228.6,85.1,228.6z M206.7,433.4h-38.4c4.2-5.5,6.4-12.3,6.4-19.2
		v-6.4h25.6v6.4C200.3,421.1,202.5,427.8,206.7,433.4z M289.9,395H85.1c-8.1,0-15.4-5.1-18.1-12.8h241
		C305.3,389.8,298,395,289.9,395z"/>
	<path d="M149.1,203h25.6v12.8h-25.6V203z"/>
	<path d="M174.7,235h25.6v12.8h-25.6V235z"/>
	<path d="M213.1,235h12.8v12.8h-12.8V235z"/>
	<path d="M200.3,260.6h25.6v12.8h-25.6V260.6z"/>
	<path d="M149.1,260.6h38.4v12.8h-38.4V260.6z"/>
	<path d="M149.1,286.2h25.6V299h-25.6V286.2z"/>
	<path d="M187.5,286.2h25.6V299h-25.6V286.2z"/>
	<path d="M193.9,311.8h25.6v12.8h-25.6V311.8z"/>
	<path d="M404.8,113.9c-3.3-31.6-31.6-54.7-63.2-51.4c-17.7,1.8-33.6,11.7-43,26.8c-13.3-4.8-28,2.1-32.8,15.4
		c-1,2.8-1.5,5.7-1.5,8.7c0,0.7,0,1.5,0.1,2.2c-20,7-30.5,28.9-23.5,48.9c5.4,15.4,19.9,25.7,36.2,25.7h121.6
		c21.2,0,38.4-17.2,38.4-38.4C437.1,132.9,423.4,116.9,404.8,113.9z M398.7,177.4H277.1c-14.1,0-25.6-11.5-25.6-25.6
		c0-14.1,11.5-25.6,25.6-25.6c3.5,0,7,0.7,10.2,2.1l5.1-11.7c-4.8-2.1-10.1-3.2-15.4-3.2c0-7.1,5.7-12.8,12.8-12.8
		c2.7,0,5.4,0.9,7.5,2.5c2.9,2.1,6.9,1.5,8.9-1.4c0.2-0.3,0.4-0.7,0.6-1c10.6-22.4,37.3-31.9,59.7-21.3
		c15.6,7.4,25.6,23.2,25.6,40.5c0,5.8-1.1,11.5-3.3,16.8l11.9,4.8c1.9-4.6,3.1-9.5,3.7-14.5c13.8,3.3,22.2,17.1,18.9,30.8
		C420.8,169.3,410.5,177.4,398.7,177.4L398.7,177.4z"/>
	<path d="M187.5,119.8h22.9l-8.3,8.3l9.1,9.1l19.2-19.2c2.5-2.5,2.5-6.6,0-9.1l-19.2-19.2l-9.1,9.1l8.3,8.3h-29.3
		c-3.5,0-6.4,2.9-6.4,6.4v19.2h12.8V119.8z"/>
	<path d="M174.7,158.2h12.8V171h-12.8V158.2z"/>
	<path d="M174.7,139h12.8v12.8h-12.8V139z"/>
</g>
</svg>
