<?xml version="1.0" encoding="utf-8"?>
<!-- Generator: Adobe Illustrator 24.1.2, SVG Export Plug-In . SVG Version: 6.00 Build 0)  -->
<svg version="1.1" id="Layer_1_1_" xmlns="http://www.w3.org/2000/svg" xmlns:xlink="http://www.w3.org/1999/xlink" x="0px" y="0px"
	 width="512px" height="512px" viewBox="0 0 512 512" enable-background="new 0 0 512 512" xml:space="preserve">
<circle fill="#FFFFFF" cx="256" cy="256" r="256"/>
<g>
	<path fill="#70B1E1" d="M364.6,86.3H147.4c-16.8,0-30.3,13.6-30.3,30.3v269.8c0,21.8,17.6,39.4,39.4,39.4h208
		c16.8,0,30.3-13.6,30.3-30.3V116.6C394.9,99.8,381.3,86.3,364.6,86.3z"/>
	<path fill="#5F87C4" d="M364.6,425.6H155.7v-60.4h208.9c16.8,0,30.3-13.6,30.3-30.3v60.3C394.9,412,381.3,425.6,364.6,425.6z"/>
	<path fill="#656D7A" d="M147.4,86.3c-16.8,0-30.3,13.6-30.3,30.3v269.8c0,21.8,17.6,39.4,39.4,39.4h9.8V86.3H147.4z"/>
	<rect x="166.3" y="86.3" fill="#353944" width="10.7" height="339.2"/>
	<path fill="#FFFFFF" d="M364.6,365.2H153.1c-12.5,0-22.7,10.1-22.7,22.7s10.1,22.7,22.7,22.7h211.4c16.8,0,30.3-13.6,30.3-30.3
		v-45.3C394.9,351.7,381.3,365.2,364.6,365.2z"/>
	<path fill="#DFDFDF" d="M394.9,349.9v15.2c0,16.8-13.6,30.3-30.3,30.3H131.7c-1.7-4.8-1.7-10.2,0.1-15.2h232.8
		C381.3,380.2,394.9,366.7,394.9,349.9z"/>
	<rect x="200.7" y="216.8" fill="#FDFEFF" width="170.5" height="100"/>
	<g>
		<rect x="212.7" y="235.9" fill="#E8E7E8" width="146.5" height="7.1"/>
		<rect x="212.7" y="263.2" fill="#E8E7E8" width="146.5" height="7.1"/>
		<rect x="212.7" y="290.6" fill="#E8E7E8" width="146.5" height="7.1"/>
	</g>
	<polygon fill="#656D7A" points="263.8,241 258.5,258.1 273.9,249 	"/>
	<path fill="#F7CFA3" d="M273.4,216.8l-1.7,2.2c-1.2,1.6-2.1,3.3-2.7,5.2l-5.2,16.8l10.1,7.9l15.1-9c1.7-1,3.2-2.3,4.4-3.9l1.7-2.2
		L273.4,216.8z"/>
	<path fill="#D64331" d="M357.8,139.3l-71.5,91c-1.6,2-1.2,4.9,0.8,6.5c2,1.6,4.9,1.2,6.5-0.8l71.5-91L357.8,139.3z"/>
	<path fill="#F1592F" d="M350.5,133.6l-71.5,91c-1.6,2-1.2,4.9,0.8,6.5c2,1.6,4.9,1.2,6.5-0.8l71.5-91L350.5,133.6z"/>
	<path fill="#D64331" d="M343.3,127.9l-71.5,91c-1.6,2-1.2,4.9,0.8,6.5c2,1.6,4.9,1.2,6.5-0.8l71.5-91L343.3,127.9z"/>
	
		<rect x="352.9" y="120" transform="matrix(0.618 -0.7862 0.7862 0.618 30.8511 331.1756)" fill="#E8BB20" width="6.5" height="27.6"/>
	<path fill="#F5EA07" d="M377.3,119l-11.7-9.2c-2.8-2.2-6.8-1.7-9,1.1l-9.3,11.8l21.7,17.1l9.3-11.8
		C380.5,125.2,380.1,121.2,377.3,119z"/>
</g>
</svg>
