<?xml version="1.0" encoding="utf-8"?>
<!-- Generator: Adobe Illustrator 24.1.2, SVG Export Plug-In . SVG Version: 6.00 Build 0)  -->
<svg version="1.1" id="Layer_1" xmlns="http://www.w3.org/2000/svg" xmlns:xlink="http://www.w3.org/1999/xlink" x="0px" y="0px"
	 width="512px" height="512px" viewBox="0 0 512 512" enable-background="new 0 0 512 512" xml:space="preserve">
<circle fill="#FFFFFF" cx="256" cy="256" r="256"/>
<g>
	<defs>
		<circle id="SVGID_1_" cx="256" cy="256" r="256"/>
	</defs>
	<clipPath id="SVGID_2_">
		<use xlink:href="#SVGID_1_"  overflow="visible"/>
	</clipPath>
	<g clip-path="url(#SVGID_2_)">
		<g>
			<path fill="#44C868" d="M554.9,486l-48.3-266.2c-0.5-2.7-2.1-5-4.5-6.3l-121.6-67.6c-1.6-0.9-3.3-1.2-5.1-1.1l22.1,285.4
				l-0.7,0.3l145.5,65.3c1.2,0.5,2.4,0.8,3.7,0.8c2,0,3.9-0.7,5.6-1.9C554.2,492.7,555.5,489.3,554.9,486z"/>
			<path fill="#44C868" d="M247.5,210.6l-124.4-64.8c-1.5-0.8-3.1-1.1-4.8-1c0.4,0,0.9,0,1.3,0L97.5,430.2l146.3,65.6
				c1.2,0.5,2.4,0.8,3.7,0.8l0,0V210.6z"/>
		</g>
		<g>
			<path fill="#4CE166" d="M119.6,144.8c-1.7-0.1-3.5,0.2-5.1,1.1L-7,213.6c-2.4,1.3-4,3.6-4.5,6.3L-59.9,486
				c-0.6,3.3,0.7,6.6,3.3,8.7c1.6,1.3,3.6,1.9,5.6,1.9c1.3,0,2.5-0.3,3.7-0.8l144.7-64.9L119.6,144.8z"/>
			<path fill="#4CE166" d="M375.4,144.8c-1.2,0.1-2.4,0.4-3.5,1l-124.4,64.8v286.1c0,0,0,0,0,0c1.3,0,2.5-0.3,3.7-0.8l146.3-65.6
				L375.4,144.8z"/>
		</g>
		<polygon fill="#FFDB56" points="-26.2,300.5 -36,354.6 109.3,277.8 112.7,234.3 113.3,227.1 		"/>
		<path fill="#A8EEFC" d="M110.6,260.9l-1.3,16.9L-36,354.6L-59.9,486c-0.6,3.3,0.7,6.6,3.3,8.7c1.6,1.3,3.6,1.9,5.6,1.9
			c1.3,0,2.5-0.3,3.7-0.8l144.7-64.9L110.6,260.9L110.6,260.9z"/>
		<g>
			<polygon fill="#FFBB24" points="247.5,246.3 113.3,227.1 109.3,277.8 247.5,487.6 247.5,411.3 165.1,281.5 247.5,291.4 			"/>
			<polygon fill="#FFBB24" points="492.5,208.2 434.1,175.7 378.8,188.7 379.4,197.6 382.2,232.8 			"/>
		</g>
		<polygon fill="#FFDB56" points="387.1,296.1 381.8,228.5 381.8,228.5 378.8,188.7 247.5,246.3 247.5,291.4 333.2,254.1 		"/>
		<path fill="#FFBB24" d="M554.9,486l-12.1-66.9L382.2,232.8l4.9,63.3l164.6,198.5C554.2,492.5,555.4,489.2,554.9,486z"/>
		<path fill="#FFDB56" d="M251.2,495.9l54.4-24.4l-58.1-60.1v85.3c0,0,0,0,0,0C248.8,496.7,250,496.4,251.2,495.9z"/>
		<g>
			<path fill="#1EA4E9" d="M506.5,219.8c-0.5-2.7-2.1-5-4.5-6.3l-9.6-5.3l-110.3,24.6l0,0l160.5,186.3L506.5,219.8z"/>
			<path fill="#1EA4E9" d="M247.5,496.7C247.5,496.7,247.5,496.7,247.5,496.7v-9L109.3,277.8L97.5,430.2l146.3,65.6
				C245,496.4,246.2,496.7,247.5,496.7z"/>
		</g>
	</g>
</g>
<path fill="#173042" d="M314.1,66.4c11.4,0,20.7-9.3,20.7-20.7c0-11.4-9.3-20.7-20.7-20.7c-11.4,0-20.7,9.3-20.7,20.7
	C293.4,57.1,302.7,66.4,314.1,66.4z M344.9,129.2l-6.7-36c-1.5-8.3-8.8-14.3-17.3-14.3h-14.7c-8.5,0-15.7,6-17.3,14.3l-6.7,36
	c-0.4,2.3,0.1,4.7,1.4,6.6l11,16c0.9,1.3,1.4,2.7,1.5,4.3l2.7,33.2c0.4,4.6,4.2,8.1,8.8,8.1h11.9c4.6,0,8.4-3.5,8.8-8.1l2.7-33.2
	c0.1-1.5,0.6-3,1.5-4.3l11-16C344.8,133.8,345.3,131.5,344.9,129.2z"/>
<path fill="#173042" d="M345.8,312.4c11.4,0,20.7-9.3,20.7-20.7c0-11.4-9.3-20.7-20.7-20.7c-11.4,0-20.7,9.3-20.7,20.7
	C325.1,303.1,334.4,312.4,345.8,312.4z M376.5,375.1l-6.7-36c-1.5-8.3-8.8-14.3-17.3-14.3h-14.7c-8.5,0-15.7,6-17.3,14.3l-6.7,36
	c-0.4,2.3,0.1,4.7,1.4,6.6l11,16c0.9,1.3,1.4,2.7,1.5,4.3l2.7,33.2c0.4,4.6,4.2,8.1,8.8,8.1h11.9c4.6,0,8.4-3.5,8.8-8.1l2.7-33.2
	c0.1-1.5,0.6-3,1.5-4.3l11-16C376.5,379.8,377,377.4,376.5,375.1z"/>
<path fill="#173042" d="M103.8,236.4c11.4,0,20.7-9.3,20.7-20.7c0-11.4-9.3-20.7-20.7-20.7c-11.4,0-20.7,9.3-20.7,20.7
	C83.1,227.1,92.4,236.4,103.8,236.4z M134.5,299.1l-6.7-36c-1.5-8.3-8.8-14.3-17.3-14.3H95.9c-8.5,0-15.7,6-17.3,14.3l-6.7,36
	c-0.4,2.3,0.1,4.7,1.4,6.6l11,16c0.9,1.3,1.4,2.7,1.5,4.3l2.7,33.2c0.4,4.6,4.2,8.1,8.8,8.1h11.9c4.6,0,8.4-3.5,8.8-8.1l2.7-33.2
	c0.1-1.5,0.6-3,1.5-4.3l11-16C134.5,303.8,135,301.4,134.5,299.1z"/>
</svg>
