<svg id="Layer_1" enable-background="new 0 0 50 50" height="512" viewBox="0 0 50 50" width="512" xmlns="http://www.w3.org/2000/svg"><g><g><g><g><g><g enable-background="new"><g><path d="m48.97647 28.88149-.00404 1.16175-26.40406 15.34436.00405-1.16175z" fill="#be9e39"/></g><g><path d="m22.57242 44.22585-.00405 1.16175-15.92979-9.19707.00404-1.16176z" fill="#d8b441"/></g><g><path d="m48.97647 28.88149-26.40405 15.34436-15.9298-9.19708 26.40405-15.34436z" fill="#fee182"/></g></g></g><g><g><g><g enable-background="new"><g><path d="m23.3155 43.86631.00309.95163.13169.07653-.00308-.95163z" fill="#fed44c"/></g><g><path d="m23.4472 43.94284.00308.95163.93914-.54221-.00309-.95163z" fill="#d8b441"/></g><g><path d="m23.91752 43.88852c-.13333.07698-.24081.26306-.24038.41634.00043.15316.10862.21484.24195.13786s.24081-.26318.24038-.41633c-.00044-.15328-.10862-.21484-.24195-.13787z" fill="#be9e39"/></g><g><path d="m23.3155 43.86631.1317.07653.93913-.54221-.13169-.07653z" fill="#fee182"/></g></g></g></g><g><g><g enable-background="new"><g><path d="m47.92608 29.58188.00309.95163.13169.07653-.00308-.95163z" fill="#fed44c"/></g><g><path d="m48.05778 29.65841.00308.95163.93914-.54221-.00309-.95163z" fill="#d8b441"/></g><g><path d="m48.5281 29.60409c-.13333.07698-.24081.26306-.24038.41633.00043.15316.10862.21484.24195.13786.13332-.07697.24081-.26318.24038-.41633-.00043-.15328-.10862-.21484-.24195-.13786z" fill="#be9e39"/></g><g><path d="m47.92608 29.58188.1317.07653.93913-.54221-.13169-.07653z" fill="#fee182"/></g></g></g></g></g></g><g><g enable-background="new"><g><path d="m46.70761 13.6904.04582 16.1635 1.47787-.85325-.04583-16.1635z" fill="#fed44c"/></g><g><path d="m46.16919 13.75943.04582 16.1635.53842-.06903-.04582-16.1635z" fill="#d8b441"/></g><g><path d="m46.04824 14.07108.04583 16.1635.12094-.31165-.04582-16.1635z" fill="#be9e39"/></g><g><path d="m44.56158 14.9294.04583 16.1635 1.48666-.85832-.04583-16.1635z" fill="#fed44c"/></g><g><path d="m44.02316 14.99844.04582 16.1635.53843-.06904-.04583-16.1635z" fill="#d8b441"/></g><g><path d="m43.90222 15.31009.04582 16.1635.12094-.31165-.04582-16.1635z" fill="#be9e39"/></g><g><path d="m42.41556 16.16841.04583 16.1635 1.48665-.85832-.04582-16.1635z" fill="#fed44c"/></g><g><path d="m41.87626 16.23795.04582 16.1635.53931-.06954-.04583-16.1635z" fill="#d8b441"/></g><g><path d="m41.7562 16.5491.04582 16.16349.12006-.31114-.04582-16.1635z" fill="#be9e39"/></g><g><path d="m40.26954 17.40742.04582 16.1635 1.48666-.85833-.04582-16.16349z" fill="#fed44c"/></g><g><path d="m39.73197 17.47695.04582 16.1635.53757-.06953-.04582-16.1635z" fill="#d8b441"/></g><g><path d="m39.61105 17.7876.04583 16.16349.12091-.31064-.04582-16.1635z" fill="#be9e39"/></g><g><path d="m38.12352 18.64642.04582 16.1635 1.48754-.85883-.04583-16.16349z" fill="#fed44c"/></g><g><path d="m37.58595 18.71595.04582 16.1635.53757-.06953-.04582-16.1635z" fill="#d8b441"/></g><g><path d="m37.46503 19.0266.04583 16.1635.12091-.31065-.04582-16.1635z" fill="#be9e39"/></g><g><path d="m35.97838 19.88492.04582 16.1635 1.48666-.85832-.04583-16.1635z" fill="#fed44c"/></g><g><path d="m35.43907 19.95447.04583 16.16349.5393-.06954-.04582-16.1635z" fill="#d8b441"/></g><g><path d="m35.31901 20.26561.04582 16.16349.12007-.31114-.04583-16.16349z" fill="#be9e39"/></g><g><path d="m33.83235 21.12393.04583 16.1635 1.48665-.85833-.04582-16.16349z" fill="#fed44c"/></g><g><path d="m33.29305 21.19347.04582 16.1635.53931-.06954-.04583-16.1635z" fill="#d8b441"/></g><g><path d="m33.17211 21.50512.04582 16.1635.12094-.31165-.04582-16.1635z" fill="#be9e39"/></g><g><path d="m31.68633 22.36294.04582 16.16349 1.48578-.85781-.04582-16.1635z" fill="#fed44c"/></g><g><path d="m31.14703 22.43248.04582 16.16349.5393-.06954-.04582-16.16349z" fill="#d8b441"/></g><g><path d="m31.02609 22.74413.04582 16.1635.12094-.31166-.04582-16.16349z" fill="#be9e39"/></g><g><path d="m29.54031 23.60194.04582 16.1635 1.48578-.85781-.04582-16.1635z" fill="#fed44c"/></g><g><path d="m29.00274 23.67147.04582 16.1635.53757-.06953-.04582-16.1635z" fill="#d8b441"/></g><g><path d="m28.88094 23.98263.04583 16.1635.12179-.31116-.04582-16.1635z" fill="#be9e39"/></g><g><path d="m27.39429 24.84095.04582 16.16349 1.48666-.85831-.04583-16.1635z" fill="#fed44c"/></g><g><path d="m26.85672 24.91048.04582 16.1635.53757-.06954-.04582-16.16349z" fill="#d8b441"/></g><g><path d="m26.73492 25.22163.04582 16.1635.1218-.31115-.04582-16.1635z" fill="#be9e39"/></g><g><path d="m25.24914 26.07945.04583 16.1635 1.48577-.85782-.04582-16.1635z" fill="#fed44c"/></g><g><path d="m24.70984 26.14899.04582 16.1635.53931-.06954-.04583-16.1635z" fill="#d8b441"/></g><g><path d="m24.5889 26.46064.04582 16.1635.12094-.31165-.04582-16.1635z" fill="#be9e39"/></g><g><path d="m23.05251 27.27988.04582 16.16349.05853.03401-.04583-16.16349z" fill="#d8b441"/></g><g><path d="m24.6408 26.10887-.12713.32741-1.46116.8436.05852.03401 1.47787-.85325.12094-.31165.5393-.06954 1.48578-.85782.1218-.31115.53757-.06953 1.48665-.85832.1218-.31116.53757-.06953 1.48578-.85781.12094-.31165.5393-.06954 1.48578-.85782.12094-.31165.5393-.06954 1.48666-.85832.12006-.31114.53931-.06955 1.48665-.85832.12092-.31065.53757-.06953 1.48753-.85882.12092-.31065.53757-.06953 1.48666-.85832.12006-.31115.5393-.06954 1.48666-.85832.12094-.31165.53842-.06904 1.48666-.85832.12095-.31165.53842-.06903 1.47786-.85325-.05852-.03401-1.46028.8431-.56653.07307-.12801.32791-1.45148.83802-.56653.07308-.12801.32791-1.45149.83802-.5674.07358-.12713.32741-1.45149.83801-.56562.0736-.12803.32689-1.45237.83852-.56563.0736-.12802.32688-1.45149.83802-.56741.07358-.12713.32741-1.45237.83852-.56652.07308-.12713.32741-1.45237.83852-.56652.07307-.12713.32741-1.45237.83853-.56475.07309-.12803.32688-1.45324.83903-.56475.07309-.12803.32689-1.45237.83852z" fill="#fed44c"/></g><g><path d="m23.11103 27.31389.04583 16.16349 1.47786-.85324-.04582-16.1635z" fill="#fed44c"/></g></g></g><g><g enable-background="new"><g><path d="m31.64842 5.02293.04582 16.1635 1.47787-.85324-.04583-16.1635z" fill="#fed44c"/></g><g><path d="m31.10999 5.09197.04583 16.1635.53842-.06904-.04582-16.1635z" fill="#d8b441"/></g><g><path d="m30.98905 5.40362.04583 16.1635.12094-.31165-.04583-16.1635z" fill="#be9e39"/></g><g><path d="m29.5024 6.26194.04582 16.1635 1.48666-.85832-.04583-16.1635z" fill="#fed44c"/></g><g><path d="m28.96397 6.33098.04582 16.16349.53843-.06903-.04582-16.1635z" fill="#d8b441"/></g><g><path d="m28.84303 6.64263.04582 16.1635.12094-.31166-.04582-16.16349z" fill="#be9e39"/></g><g><path d="m27.35637 7.50095.04583 16.16349 1.48665-.85831-.04582-16.1635z" fill="#fed44c"/></g><g><path d="m26.81707 7.57049.04582 16.1635.53931-.06955-.04583-16.16349z" fill="#d8b441"/></g><g><path d="m26.69701 7.88163.04582 16.1635.12006-.31114-.04582-16.1635z" fill="#be9e39"/></g><g><path d="m25.21035 8.73995.04583 16.1635 1.48665-.85832-.04582-16.1635z" fill="#fed44c"/></g><g><path d="m24.67278 8.80948.04582 16.1635.53758-.06953-.04583-16.1635z" fill="#d8b441"/></g><g><path d="m24.55186 9.12013.04583 16.1635.12091-.31065-.04582-16.1635z" fill="#be9e39"/></g><g><path d="m23.06433 9.97896.04582 16.1635 1.48754-.85883-.04583-16.1635z" fill="#fed44c"/></g><g><path d="m22.52676 10.04849.04582 16.1635.53757-.06953-.04582-16.1635z" fill="#d8b441"/></g><g><path d="m22.40584 10.35914.04583 16.1635.12091-.31065-.04582-16.1635z" fill="#be9e39"/></g><g><path d="m20.91919 11.21746.04582 16.1635 1.48666-.85832-.04583-16.1635z" fill="#fed44c"/></g><g><path d="m20.37988 11.287.04583 16.1635.5393-.06954-.04582-16.1635z" fill="#d8b441"/></g><g><path d="m20.25982 11.59814.04582 16.1635.12007-.31114-.04583-16.1635z" fill="#be9e39"/></g><g><path d="m18.77316 12.45647.04583 16.16349 1.48665-.85832-.04582-16.1635z" fill="#fed44c"/></g><g><path d="m18.23386 12.52601.04582 16.1635.53931-.06955-.04583-16.16349z" fill="#d8b441"/></g><g><path d="m18.11292 12.83766.04582 16.1635.12094-.31165-.04582-16.1635z" fill="#be9e39"/></g><g><path d="m16.62714 13.69547.04583 16.1635 1.48577-.85781-.04582-16.1635z" fill="#fed44c"/></g><g><path d="m16.08784 13.76501.04583 16.1635.5393-.06954-.04583-16.1635z" fill="#d8b441"/></g><g><path d="m15.9669 14.07666.04582 16.1635.12095-.31165-.04583-16.1635z" fill="#be9e39"/></g><g><path d="m14.48112 14.93448.04582 16.1635 1.48578-.85782-.04582-16.1635z" fill="#fed44c"/></g><g><path d="m13.94355 15.00401.04582 16.1635.53757-.06953-.04582-16.1635z" fill="#d8b441"/></g><g><path d="m13.82175 15.31516.04583 16.1635.12179-.31115-.04582-16.1635z" fill="#be9e39"/></g><g><path d="m12.3351 16.17348.04582 16.1635 1.48666-.85832-.04583-16.1635z" fill="#fed44c"/></g><g><path d="m11.79753 16.24302.04582 16.16349.53757-.06953-.04582-16.1635z" fill="#d8b441"/></g><g><path d="m11.67573 16.55417.04582 16.1635.1218-.31116-.04582-16.16349z" fill="#be9e39"/></g><g><path d="m10.18995 17.41199.04583 16.16349 1.48577-.85781-.04582-16.1635z" fill="#fed44c"/></g><g><path d="m9.65065 17.48153.04583 16.16349.5393-.06954-.04583-16.16349z" fill="#d8b441"/></g><g><path d="m9.52971 17.79318.04582 16.1635.12095-.31166-.04583-16.16349z" fill="#be9e39"/></g><g><path d="m7.99332 18.61241.04582 16.1635.05853.03401-.04583-16.1635z" fill="#d8b441"/></g><g><path d="m9.58161 17.4414-.12713.32741-1.46116.8436.05852.03401 1.47787-.85324.12094-.31165.5393-.06954 1.48578-.85782.1218-.31115.53757-.06954 1.48665-.85832.1218-.31115.53757-.06953 1.48578-.85782.12094-.31165.5393-.06954 1.48578-.85781.12094-.31165.5393-.06954 1.48666-.85833.12006-.31114.53931-.06954 1.48665-.85832.12092-.31065.53757-.06953 1.48753-.85883.12092-.31065.53757-.06953 1.48666-.85832.12006-.31114.5393-.06954 1.48666-.85832.12094-.31165.53843-.06904 1.48665-.85832.12094-.31165.53843-.06904 1.47786-.85324-.05852-.03401-1.46028.84309-.56653.07308-.12801.32791-1.45148.83802-.56653.07307-.12801.32792-1.45149.83802-.5674.07358-.12713.3274-1.45149.83802-.56563.0736-.12802.32688-1.45237.83853-.56563.0736-.12802.32688-1.45149.83802-.56741.07358-.12713.32741-1.45236.83852-.56653.07308-.12713.3274-1.45236.83853-.56653.07307-.12713.32741-1.45237.83852-.56475.07309-.12803.32689-1.45324.83903-.56475.07309-.12803.32689-1.45236.83852z" fill="#fed44c"/></g><g><path d="m8.05184 18.64642.04583 16.1635 1.47786-.85324-.04582-16.1635z" fill="#fed44c"/></g></g></g></g><g><g><g enable-background="new"><g><path d="m22.4224 44.23679-.00308.95164-.1317.07653.00309-.95163z" fill="#be9e39"/></g><g><path d="m22.29071 44.31333-.00309.95163-.93913-.54221.00308-.95164z" fill="#fed44c"/></g><g><path d="m21.82038 44.259c.13333.07698.24081.26306.24038.41634-.00043.15316-.10862.21484-.24195.13786s-.24081-.26318-.24038-.41634c.00044-.15327.10863-.21483.24195-.13786z" fill="#be9e39"/></g><g><path d="m22.4224 44.23679-.13169.07654-.93914-.54222.13169-.07653z" fill="#fee182"/></g></g></g><g><g enable-background="new"><g><path d="m7.71653 35.69662-.00308.95163-.13169.07653.00308-.95162z" fill="#be9e39"/></g><g><path d="m7.58484 35.77316-.00308.95162-.93914-.5422.00308-.95164z" fill="#fed44c"/></g><g><path d="m7.11452 35.71883c.13333.07697.24081.26305.24038.41633-.00043.15316-.10862.21484-.24195.13786s-.24081-.26318-.24038-.41633c.00043-.15327.10862-.21483.24195-.13786z" fill="#be9e39"/></g><g><path d="m7.71653 35.69662-.13169.07654-.93914-.54222.1317-.07653z" fill="#fee182"/></g></g></g></g></g><g><g><path d="m22.81253 39.87782.37931-.22043-.00772 2.72442-.37932.22044z" fill="#d8b441"/></g><g><path d="m22.8048 42.60225.37932-.22044 5.84649 3.37547-.37932.22044z" fill="#fee182"/></g><g><path d="m22.82215 36.48204.37932-.22044-.00772 2.72443-.37932.22043z" fill="#d8b441"/></g><g><path d="m22.81443 39.20646.37932-.22043 5.84649 3.37547-.37932.22043z" fill="#fee182"/></g><g><path d="m22.83179 33.08241.37932-.22043-.00772 2.72442-.37932.22044z" fill="#d8b441"/></g><g><path d="m28.66865 39.85749.37932-.22043-.00772 2.72442-.37932.22044z" fill="#802a2a"/></g><g><path d="m22.82216 36.48202.37932-.22044 5.84649 3.37548-.37932.22043z" fill="#8f2f2f"/></g><g><path d="m22.82407 35.80684.37932-.22044 5.84649 3.37547-.37932.22044z" fill="#fee182"/></g><g><path d="m22.84142 29.68682.37932-.22044-.00773 2.72442-.37932.22044z" fill="#d8b441"/></g><g><path d="m22.8318 33.08238.37932-.22043 5.84649 3.37547-.37932.22044z" fill="#8f2f2f"/></g><g><path d="m28.67829 36.45786.37932-.22044-.00773 2.72442-.37932.22044z" fill="#802a2a"/></g><g><path d="m22.83369 32.41124.37932-.22044 5.84649 3.37547-.37932.22044z" fill="#fee182"/></g><g><path d="m28.68792 33.06229.37931-.22044-.00772 2.72443-.37932.22043z" fill="#802a2a"/></g><g><path d="m22.84142 29.68682.37932-.22044 5.84649 3.37547-.37931.22044z" fill="#8f2f2f"/></g><g><path d="m28.81376 43.16582-.00773 2.72442-5.84649-3.37547.00772-2.72443z" fill="#be9e39"/></g><g><path d="m28.82338 39.77003-.00772 2.72443-5.84649-3.37548.00772-2.72442z" fill="#be9e39"/></g><g><path d="m28.83302 36.3704-.00772 2.72442-5.84649-3.37547.00772-2.72442z" fill="#be9e39"/></g><g><path d="m28.84265 32.97483-.00773 2.72442-5.84649-3.37547.00772-2.72442z" fill="#be9e39"/></g><g><path d="m22.17671 28.61881.37932-.22044 7.1832 4.14722-.37932.22044z" fill="#fee182"/></g><g><path d="m29.35991 32.76603.37932-.22044-.04049 14.28167-.37932.22044z" fill="#d8b441"/></g><g><path d="m22.17671 28.61881 7.1832 4.14722-.04049 14.28167-7.1832-4.14722zm6.48421 13.96312.00772-2.72442-5.84649-3.37547-.00772 2.72442zm.00964-3.39962.00772-2.72442-5.84649-3.37547-.00772 2.72442zm-.01927 6.79541.00772-2.72442-5.84649-3.37547-.00772 2.72442zm.02889-10.19101.00772-2.72442-5.84649-3.37547-.00772 2.72442z" fill="#fed44c"/></g></g><g><g><path d="m1.6763 28.45634.37932-.22044-.00772 2.72442-.37932.22044z" fill="#d8b441"/></g><g><path d="m1.66858 31.18076.37932-.22044 5.84649 3.37547-.37932.22044z" fill="#fee182"/></g><g><path d="m1.68593 25.06055.37932-.22044-.00773 2.72443-.37932.22043z" fill="#d8b441"/></g><g><path d="m1.6782 27.78497.37932-.22043 5.84649 3.37547-.37932.22044z" fill="#fee182"/></g><g><path d="m1.69557 21.66093.37932-.22044-.00773 2.72442-.37932.22044z" fill="#d8b441"/></g><g><path d="m7.53243 28.43601.37932-.22044-.00773 2.72442-.37932.22044z" fill="#802a2a"/></g><g><path d="m1.68593 25.06053.37932-.22043 5.8465 3.37547-.37932.22044z" fill="#8f2f2f"/></g><g><path d="m1.68784 24.38535.37932-.22044 5.84649 3.37547-.37932.22044z" fill="#fee182"/></g><g><path d="m1.70519 18.26533.37932-.22044-.00772 2.72442-.37932.22044z" fill="#d8b441"/></g><g><path d="m1.69557 21.66089.37932-.22043 5.84649 3.37547-.37932.22044z" fill="#8f2f2f"/></g><g><path d="m7.54206 25.03637.37932-.22044-.00772 2.72443-.37932.22043z" fill="#802a2a"/></g><g><path d="m1.69747 20.98975.37932-.22044 5.84649 3.37547-.37932.22044z" fill="#fee182"/></g><g><path d="m7.55169 21.6408.37932-.22043-.00772 2.72442-.37932.22043z" fill="#802a2a"/></g><g><path d="m1.7052 18.26533.37932-.22044 5.84649 3.37548-.37932.22043z" fill="#8f2f2f"/></g><g><path d="m7.67753 31.74433-.00772 2.72442-5.8465-3.37547.00773-2.72442z" fill="#be9e39"/></g><g><path d="m7.68716 28.34855-.00773 2.72442-5.84649-3.37547.00773-2.72443z" fill="#be9e39"/></g><g><path d="m7.6968 24.94891-.00773 2.72442-5.84649-3.37547.00772-2.72442z" fill="#be9e39"/></g><g><path d="m7.70642 21.55334-.00772 2.72443-5.84649-3.37548.00772-2.72442z" fill="#be9e39"/></g><g><path d="m1.04049 17.19732.37932-.22043 7.18319 4.14722-.37932.22043z" fill="#fee182"/></g><g><path d="m8.22368 21.34454.37932-.22043-.04049 14.28166-.37932.22044z" fill="#d8b441"/></g><g><path d="m1.04049 17.19732 7.18319 4.14722-.04049 14.28167-7.18319-4.14722zm6.4842 13.96313.00772-2.72442-5.84649-3.37547-.00772 2.72441zm.00964-3.39963.00772-2.72442-5.84649-3.37547-.00772 2.72442zm-.01926 6.79541.00772-2.72442-5.84649-3.37547-.00772 2.72442zm.02889-10.19101.00772-2.72442-5.84649-3.37547-.00772 2.72442z" fill="#fed44c"/></g></g><g><g><g><g enable-background="new"><g><path d="m48.97647 12.32554-.00404 1.16175-26.40406 15.34436.00405-1.16176z" fill="#be9e39"/></g><g><path d="m22.57242 27.66989-.00405 1.16176-15.92979-9.19708.00404-1.16175z" fill="#d8b441"/></g><g><path d="m48.97647 12.32554-26.40405 15.34435-15.9298-9.19707 26.40405-15.34436z" fill="#fee182"/></g></g></g><g><g><g enable-background="new"><g><path d="m7.71653 19.14067-.00308.95163-.13169.07654.00308-.95163z" fill="#be9e39"/></g><g><path d="m7.58484 19.21721-.00308.95163-.93914-.54222.00308-.95163z" fill="#fed44c"/></g><g><path d="m7.11452 19.16288c.13333.07697.24081.26306.24038.41633-.00043.15315-.10862.21484-.24195.13786s-.24081-.26318-.24038-.41633c.00043-.15327.10862-.21483.24195-.13786z" fill="#be9e39"/></g><g><path d="m7.71653 19.14067-.13169.07654-.93914-.54222.1317-.07653z" fill="#fee182"/></g></g></g></g><g><g><g><g enable-background="new"><g><path d="m22.72271 27.66414.00308.95163.1317.07653-.00309-.95163z" fill="#fed44c"/></g><g><path d="m22.8544 27.74067.00309.95163.93914-.54221-.00309-.95163z" fill="#d8b441"/></g><g><path d="m23.32473 27.68635c-.13333.07697-.24081.26306-.24038.41633.00043.15315.10862.21484.24195.13786s.24081-.26318.24038-.41633c-.00044-.15328-.10863-.21484-.24195-.13786z" fill="#be9e39"/></g><g><path d="m22.72271 27.66414.13169.07653.93914-.54221-.13169-.07653z" fill="#fee182"/></g></g></g></g><g><g><g enable-background="new"><g><path d="m47.92608 13.03522.00309.95163.13169.07653-.00308-.95163z" fill="#fed44c"/></g><g><path d="m48.05778 13.11175.00308.95163.93914-.54221-.00309-.95163z" fill="#d8b441"/></g><g><path d="m48.5281 13.05742c-.13333.07698-.24081.26306-.24038.41633.00043.15316.10862.21484.24195.13786.13332-.07698.24081-.26318.24038-.41633-.00043-.15327-.10862-.21483-.24195-.13786z" fill="#be9e39"/></g><g><path d="m47.92608 13.03522.1317.07653.93913-.54221-.13169-.07654z" fill="#fee182"/></g></g></g></g></g></g><g><g enable-background="new"><g><path d="m23.66811 26.87167-.0036.17659-1.08853.63259.00359-.1766z" fill="#be9e39"/></g><g><path d="m22.57957 27.50425-.00359.1766-1.09566-.63258.0036-.17659z" fill="#d8b441"/></g><g><path d="m23.66811 26.87167-1.08854.63258-1.09565-.63257 1.08854-.63259z" fill="#fed44c"/></g></g></g><g><g enable-background="new"><g><path d="m8.83041 18.30052-.0036.17659-1.08854.63259.0036-.17659z" fill="#be9e39"/></g><g><path d="m7.74187 18.93311-.0036.17659-1.09565-.63258.0036-.17659z" fill="#d8b441"/></g><g><path d="m8.83041 18.30052-1.08854.63259-1.09565-.63258 1.08854-.63259z" fill="#fed44c"/></g></g></g><g><g enable-background="new"><g><path d="m34.14483 3.58445-.0036.17659-1.08854.63259.0036-.17659z" fill="#be9e39"/></g><g><path d="m33.05629 4.21704-.0036.17659-1.09565-.63258.0036-.17659z" fill="#d8b441"/></g><g><path d="m34.14483 3.58445-1.08854.63259-1.09565-.63258 1.08854-.63259z" fill="#fed44c"/></g></g></g><g><g enable-background="new"><g><path d="m48.97823 12.15403-.0036.17659-1.08854.63259.0036-.17659z" fill="#be9e39"/></g><g><path d="m47.88969 12.78662-.0036.17659-1.09565-.63258.0036-.17659z" fill="#d8b441"/></g><g><path d="m48.97823 12.15403-1.08854.63259-1.09565-.63258 1.08854-.63259z" fill="#fed44c"/></g></g></g></g><g><g><g enable-background="new"><g><path d="m22.29071 27.75738-.00309.95163-.93913-.54221.00308-.95164z" fill="#fed44c"/></g></g></g><g><path d="m22.4224 27.68085-.00308.95163-.1317.07653.00309-.95163z" fill="#be9e39"/></g><g><path d="m22.4224 27.68085-.13169.07653-.93914-.54222.13169-.07653z" fill="#fee182"/></g><g><path d="m21.82038 27.70305c.13333.07698.24081.26306.24038.41633-.00043.15316-.10862.21484-.24195.13786-.13333-.07697-.24081-.26318-.24038-.41633.00044-.15327.10863-.21483.24195-.13786z" fill="#be9e39"/></g></g></g></svg>