<svg id="Layer_1" enable-background="new 0 0 52 52" height="512" viewBox="0 0 52 52" width="512" xmlns="http://www.w3.org/2000/svg"><g><g><g><path d="m46.15535 12.31244-.07812 24.68224-22.34747 12.98693.07812-24.68224z" fill="#a87648"/><path d="m23.82386 25.30593-.07388 24.69407-17.9146-10.35728.07388-24.65194v-.04219h.03169l7.98233 4.63206.99199.5804 1.22412.71767.42215.23213.2427.13719z" fill="#b27e4b"/><path d="m46.16462 12.32571-22.36189 12.99079-7.00906-4.05789-.23213-.1372-.8548-.4749-.37995-.22163-.42209-.2427-.9498-.53822-.06331-.02106-7.98233-4.64262 22.35132-12.98028 9.82488 5.65647-1.74755-.99273 1.37189.78092.36933.21107 1.07643.61209z" fill="#bc874d"/><g><path d="m38.07913 7.65573-22.37239 12.99078-.37995-.22163 22.38301-12.98022z" fill="#9e6e46"/></g></g><g><g><g enable-background="new"><g><path d="m33.12525 7.3707c.69849-.4032 1.32983-.44159 1.78522-.17676l-2.2597-1.31067c-.45551-.26471-1.08685-.22644-1.78522.17688-.37897.21875-.73511.52734-1.0578.8858l2.25977 1.31067c.32268-.35846.67882-.66711 1.05773-.88592z" fill="#ecf0f1"/><path d="m29.80774 6.94595c-.85931.95441-1.45947 2.29193-1.45618 3.45135.00214.79224.28424 1.35095.73749 1.61444l2.25983 1.31067c-.45343-.26349-.73535-.8222-.73761-1.61456-.00336-1.15936.59692-2.49677 1.45624-3.45123z" fill="#e0e2e2"/></g><g><path d="m33.12527 7.37076c1.38795-.80133 2.51091-.1614 2.51543 1.43345s-1.1111 3.54442-2.49905 4.34575c-1.38793.80132-2.52587.15284-2.53039-1.44201s1.12608-3.53587 2.51401-4.33719z" fill="#d4d6d6"/></g><g><path d="m33.12555 8.5163c.83755-.48356 1.51519-.0974 1.51792.865s-.67048 2.13885-1.50803 2.62241c-.83753.48355-1.52421.09223-1.52694-.87016-.00273-.9624.67952-2.1337 1.51705-2.61725z" fill="#c4c6c6"/></g></g></g><g><g enable-background="new"><g><path d="m25.61753 15.70979-2.25974-1.31062 6.4516-7.45225 2.24711 1.30329z" fill="#ecf0f1"/></g></g></g><g><path d="m16.56154 21.11085-.01057 3.48249-2.25854-1.30296.01056-3.48255 1.8364 1.07089z" fill="#c4c6c6"/></g><g><path d="m25.616 15.7077-9.05446 5.41371-.8548-.4749-.37995-.22163-1.03436-.59592 9.06502-5.43478z" fill="#e0e2e2"/></g></g></g><g><g><g><g><g><path d="m22.59809 43.85794-.01001 3.45001c0 .09003-.02997.15002-.08997.19-.02002.01001-.04999.02002-.09003.02002-.03998 0-.07996-.01001-.12-.03003l-3-1.73999c-.13-.07001-.22998-.25-.22998-.40997l.01001-3.45001c0-.09003.02997-.16003.08997-.19.06-.03998.13-.03003.20001.01001l3.01001 1.73999c.13001.07.24.26001.22999.40997z" fill="#fff"/></g></g></g><g><g><g><path d="m21.47786 43.35319-.42881.81595.26557.15332.58604.33583z" fill="#3f434f"/></g></g></g><g><g><g><path d="m21.31462 44.32246-.00457 1.61412.32044.18501.00458-1.61412z" fill="#3f434f"/></g></g></g><g><g><g><path d="m19.72276 45.16415-.00098.34553 2.21241 1.27733.00098-.34552z" fill="#3f434f"/></g></g></g><g><g><g><g><path d="m18.13813 41.27798-.01001 3.44995c0 .09003-.04004.16003-.10004.19-.01996.02002-.04999.02002-.07996.02002-.04004 0-.08002-.01001-.13-.02997l-3-1.73004c-.12-.07996-.23004-.26001-.23004-.41998l.01001-3.45001c0-.08997.04004-.14996.09003-.19.06-.02997.14001-.02997.20996.01001l3 1.73999c.13.07001.24005.26001.24005.41003z" fill="#fff"/></g></g></g></g><g><g><g><path d="m15.67963 40.10223-.00326 1.15005c-.00103.36317.20883.78495.48743.99885l-.00294 1.03657c-.1954-.09008-.34273-.08167-.34304.02678l.86258.49801c.00031-.10844-.14648-.28667-.34176-.42214l.00294-1.03656c.12736.0508.23732.03849.32321-.01549.10134-.07537.16769-.21643.16827-.41819l.00326-1.15005z" fill="#3f434f"/></g></g></g><g><g><g><path d="m20.03283 43.58242-.00458 1.61411.32046.18502.00457-1.61412z" fill="#3f434f"/></g></g></g><g><g><g><path d="m20.19387 42.61188-.42662.81721.26558.15333.58384.33456z" fill="#3f434f"/></g></g></g></g></g></g></svg>