<svg id="Layer_1" enable-background="new 0 0 52 52" height="512" viewBox="0 0 52 52" width="512" xmlns="http://www.w3.org/2000/svg"><g><g><g><path d="m33.36568 3.60573-.09146 32.25974-1.47477-.85146.09146-32.25974z" fill="#3293c9"/></g><g><path d="m33.65257 3.43901-.09146 32.25974-.28689.16672.09146-32.25974z" fill="#077e9a"/></g><g><path d="m31.89091 2.75427-.09146 32.25974-1.46006.8485.09146-32.25974z" fill="#077e9a"/></g><g><path d="m30.43085 3.60277-.09146 32.25974-.28361-.16374.09146-32.25974z" fill="#3293c9"/></g><g><path d="m33.65257 3.43901-.28689.16672-1.47477-.85146-1.46006.8485-.28361-.16374 1.74695-1.01522z" fill="#3498db"/></g><g><path d="m39.03787 6.88057-.09146 32.25975-1.47476-.85146.09145-32.25975z" fill="#3293c9"/></g><g><g><path d="m39.03787 35.04028-.00397.70343-18.84761 10.95303.00398-.70343z" fill="#c4c6c6"/></g><g><path d="m18.7155 45.14185-.00398.70343-4.27712-2.46939.00397-.70344z" fill="#d4d6d6"/></g><g><path d="m39.03787 35.04028-18.8476 10.95303-1.47477-.85146-4.19743-2.42339-1.47477-.85145 1.46519-.85148 15.92236-9.25306 1.46006-.8485z" fill="#ecf0f1"/></g><g><path d="m39.03787 28.00035-.00397.70344-18.84761 10.95303.00398-.70344z" fill="#c4c6c6"/></g><g><path d="m18.7155 38.10192-.00398.70344-4.2572-2.45789.00398-.70344z" fill="#d4d6d6"/></g><g><path d="m39.03787 28.00035-18.8476 10.95303-1.47477-.85146-4.19743-2.42338-1.47477-.85146 1.46519-.85147 15.92236-9.25306 1.46006-.8485z" fill="#ecf0f1"/></g><g><g><g><g><path d="m19.71895 29.28858.013 4.48897 4.01349 2.35951-.013-4.48897-1.72747-1.01871-.51954-.30235z" fill="#e5bd13"/></g></g></g><g><g><g><path d="m23.72715 31.65074.01634 4.48335 4.03807-2.36123-.01329-4.47926v-.00668h-.00664l-1.7518 1.02745-.39816.23506-.11944.06714z" fill="#d6b218"/></g></g></g><g><g><g><path d="m19.7164 29.29272 4.01308 2.35956 1.7641-1.03363.51069-.29233.0103-.00519 1.7538-1.02841-4.01311-2.35955z" fill="#f1c40f"/></g></g></g><g><g><g><path d="m21.47893 28.25913 4.01308 2.35952.51069-.29233.01029-.00519-4.0234-2.35956-.00517.00523z" fill="#e4e8f4"/></g></g></g><g><g><g><path d="m26.01648 31.38962-.51954.30892-.0065-1.06916v-.01316l.11689-.06571.40265-.23006v.00658z" fill="#d4dae8"/></g></g></g><g><g><g><g><g><g><path d="m23.17523 34.55779-.12097.23293.07492.04377.16531.09587z" fill="#3f434f"/></g></g></g></g><g><g><g><g><path d="m23.12918 34.83449-.00129.4608.09039.05281.00129-.46079z" fill="#3f434f"/></g></g></g></g><g><g><g><g><path d="m22.68014 35.07478-.00028.09864.62409.36465.00028-.09864z" fill="#3f434f"/></g></g></g></g><g><g><g><g><path d="m21.53962 33.62971-.00092.32832c-.00029.10368.05891.22409.1375.28515l-.00083.29592c-.05512-.02572-.09668-.02332-.09677.00764l.24332.14217c.00009-.03096-.04132-.08184-.09641-.12051l.00083-.29591c.03593.0145.06695.01099.09118-.00442.02859-.02152.0473-.06179.04747-.11938l.00092-.32832z" fill="#3f434f"/></g></g></g></g><g><g><g><g><path d="m22.7676 34.62323-.00129.46079.0904.05282.00129-.4608z" fill="#3f434f"/></g></g></g></g><g><g><g><g><path d="m22.81303 34.34616-.12034.23329.07491.04378.16469.0955z" fill="#3f434f"/></g></g></g></g></g><g><g><g><path d="m22.17875 35.01118c-.01108 0-.02304-.00354-.03471-.01033l-.84644-.49443c-.03617-.02126-.06563-.07409-.06563-.11719l.00292-.98591c0-.0248.00962-.04457.02625-.05431.01662-.00945.03733-.00797.05775.00384l.84645.49443c.03733.02214.06767.07497.06709.11807l-.00263.98591c0 .0245-.00992.04398-.02683.05343-.00731.00442-.01547.00649-.02422.00649zm-.8937-1.63236c-.00233 0-.00437.00059-.00612.00148-.00525.00325-.00846.01181-.00846.02303l-.00292.98591c0 .0307.02246.07084.04813.0859l.84644.49443c.00963.00561.01779.0062.02333.00384.00525-.00325.00846-.01122.00875-.02214l.00262-.98591c0-.03011-.02333-.07143-.04959-.08678l-.84644-.49443c-.00582-.00356-.01136-.00533-.01574-.00533z" fill="#3f434f"/></g></g></g><g><g><g><path d="m23.4385 35.74707c-.01108 0-.02304-.00325-.03442-.01004l-.84644-.49443c-.03704-.02155-.06592-.0732-.06592-.11719l.00292-.9862c0-.0245.00933-.04428.02625-.05402.01692-.01004.03733-.00856.05775.00354l.84644.49472c.03733.02155.06767.07468.06709.11807l-.00262.98591c0 .02391-.00933.04339-.02596.05313-.00759.00444-.01605.00651-.02509.00651zm-.89341-1.63206c-.00233 0-.00467.00059-.00642.00147-.00525.00325-.00846.01151-.00846.02273l-.00292.9862c0 .0307.02275.07084.04842.0859l.84615.49443c.00933.00531.01808.0062.02363.00354.00525-.00325.00846-.01122.00846-.02184l.00262-.98591c0-.0304-.02333-.07143-.04959-.08678l-.84644-.49472c-.00582-.00325-.01107-.00502-.01545-.00502z" fill="#3f434f"/></g></g></g><g><g><g><path d="m20.919 34.27546c-.01108 0-.02304-.00325-.03442-.01004l-.84644-.49443c-.03704-.02155-.06592-.0732-.06592-.11719l.00292-.98621c0-.0245.00933-.04428.02625-.05402.01692-.01004.03733-.00856.05775.00354l.84644.49473c.03733.02155.06767.07468.06709.11807l-.00262.98591c0 .02391-.00933.04339-.02596.05313-.00759.00444-.01605.00651-.02509.00651zm-.8934-1.63207c-.00233 0-.00467.00059-.00642.00148-.00525.00325-.00846.01151-.00846.02273l-.00292.9862c0 .0307.02275.07084.04842.0859l.84615.49443c.00933.00531.01808.0062.02362.00354.00525-.00325.00846-.01122.00846-.02184l.00262-.98591c0-.0304-.02333-.07143-.04958-.08678l-.84644-.49472c-.00583-.00326-.01108-.00503-.01545-.00503z" fill="#3f434f"/></g></g></g></g><g><g><path d="m20.45279 32.98882-.00013.04586c-.17246-.08806-.31041-.00154-.31097.19981l.30991.18105-.00102.36601c-.00018.06334.04475.14208.0996.17412s.10007.00597.10025-.05737l-.0417-.02436c-.0001.03669-.02648.0519-.05841.03325s-.05814-.06459-.05804-.10128l.00102-.36601.30991.18105c.00056-.20135-.1357-.44807-.30884-.56191l.00013-.04586z" fill="#3f434f"/></g></g><g><g><path d="m26.48627 33.36308c-.04264.02464-.07613.08012-.07613.12944l.00303.70564c0 .04623.03351.06474.0731.04315l1.10242-.64403c.04262-.02464.07613-.08321.07613-.12944l-.00305-.70568c0-.04928-.03349-.06779-.07309-.04311z" fill="#fff"/></g><g><path d="m26.40708 32.44783.00305.70877c0 .04623.03349.0647.07309.04006l1.10242-.64403c.04264-.0216.07613-.08012.07613-.1294l-.00305-.70568c0-.04931-.03349-.06778-.07309-.04314l-1.10242.64403c-.04263.02467-.07613.08011-.07613.12939z" fill="#fff"/></g><g><path d="m26.51533 33.72116.00008.03164 1.04413-.60998-.00009-.03164z" fill="#5b5e71"/></g><g><path d="m26.51506 33.62619.00009.03165 1.04412-.60998-.00008-.03165z" fill="#5b5e71"/></g><g><path d="m26.51453 33.43629.00009.03165 1.04412-.60998-.00009-.03165z" fill="#5b5e71"/></g><g><path d="m26.51639 34.10096.00009.03164 1.04412-.60998-.00009-.03165z" fill="#5b5e71"/></g><g><path d="m26.51612 34.00599.00009.03168 1.04413-.60999-.00009-.03167z" fill="#5b5e71"/></g><g><path d="m26.51586 33.91106.00009.03164 1.04412-.60998-.00009-.03165z" fill="#5b5e71"/></g><g><path d="m26.51559 33.81609.00009.03165 1.04412-.60999-.00008-.03164z" fill="#5b5e71"/></g><g><path d="m26.51479 33.53123.00009.03167 1.04413-.60998-.00009-.03167z" fill="#5b5e71"/></g><g><path d="m26.51267 32.77391.00009.03164 1.04412-.60998-.00008-.03165z" fill="#5b5e71"/></g><g><path d="m26.51241 32.67894.00009.03165 1.04412-.60999-.00009-.03164z" fill="#5b5e71"/></g><g><path d="m26.51187 32.48904.00009.03165 1.04413-.60999-.00009-.03164z" fill="#5b5e71"/></g><g><path d="m26.51161 32.39408.00009.03167 1.04412-.60998-.00009-.03168z" fill="#5b5e71"/></g><g><path d="m26.51346 33.0565.0001.03391 1.04412-.60998-.00009-.03391z" fill="#5b5e71"/></g><g><path d="m26.5132 32.96154.00009.03391 1.04413-.60999-.0001-.03391z" fill="#5b5e71"/></g><g><path d="m26.51293 32.86657.0001.03391 1.04412-.60998-.00009-.03391z" fill="#5b5e71"/></g><g><path d="m26.51214 32.58398.00009.03167 1.04412-.60998-.00009-.03168z" fill="#5b5e71"/></g></g></g><g><g><g><g><path d="m28.37189 24.22883.013 4.48897 4.01349 2.35951-.013-4.48896-1.72747-1.01872-.51954-.30235z" fill="#e5bd13"/></g></g></g><g><g><g><path d="m32.38008 26.59099.01635 4.48335 4.03806-2.36123-.01328-4.47926v-.00668h-.00664l-1.7518 1.02745-.39816.23507-.11944.06714z" fill="#d6b218"/></g></g></g><g><g><g><path d="m28.36934 24.23298 4.01308 2.35955 1.7641-1.03362.51069-.29234.0103-.00519 1.7538-1.0284-4.01311-2.35956z" fill="#f1c40f"/></g></g></g><g><g><g><path d="m30.13186 23.19938 4.01308 2.35953.5107-.29234.01029-.00519-4.02341-2.35955-.00516.00522z" fill="#e4e8f4"/></g></g></g><g><g><g><path d="m34.66941 26.32987-.51953.30893-.0065-1.06917v-.01316l.11689-.06571.40264-.23005v.00657z" fill="#d4dae8"/></g></g></g><g><g><g><g><g><g><path d="m31.82817 29.49804-.12097.23293.07492.04378.16531.09587z" fill="#3f434f"/></g></g></g></g><g><g><g><g><path d="m31.78212 29.77475-.00129.46079.09039.05282.00129-.4608z" fill="#3f434f"/></g></g></g></g><g><g><g><g><path d="m31.33308 30.01503-.00028.09864.62409.36465.00028-.09864z" fill="#3f434f"/></g></g></g></g><g><g><g><g><path d="m30.19256 28.56996-.00092.32832c-.00029.10368.05891.22409.1375.28515l-.00083.29592c-.05512-.02572-.09668-.02332-.09677.00764l.24332.14217c.00009-.03096-.04132-.08184-.09641-.12051l.00083-.29592c.03593.0145.06695.01099.09118-.00442.02859-.02152.0473-.06178.04747-.11938l.00092-.32831z" fill="#3f434f"/></g></g></g></g><g><g><g><g><path d="m31.42054 29.56348-.00129.46079.0904.05282.00129-.46079z" fill="#3f434f"/></g></g></g></g><g><g><g><g><path d="m31.46597 29.28641-.12035.2333.07492.04377.16469.09551z" fill="#3f434f"/></g></g></g></g></g><g><g><g><path d="m30.83169 29.95143c-.01108 0-.02304-.00354-.03471-.01033l-.84644-.49443c-.03617-.02125-.06563-.07409-.06563-.11719l.00292-.98591c0-.0248.00962-.04457.02625-.05431.01662-.00945.03733-.00797.05775.00384l.84645.49443c.03733.02214.06767.07498.06709.11807l-.00263.98591c0 .0245-.00992.04398-.02683.05343-.00731.00443-.01547.00649-.02422.00649zm-.8937-1.63236c-.00233 0-.00437.00059-.00612.00147-.00525.00325-.00846.01181-.00846.02303l-.00292.98591c0 .0307.02246.07084.04813.0859l.84644.49443c.00963.00561.01779.0062.02333.00384.00525-.00325.00846-.01122.00875-.02214l.00262-.98591c0-.03011-.02333-.07143-.04959-.08678l-.84644-.49443c-.00582-.00355-.01136-.00532-.01574-.00532z" fill="#3f434f"/></g></g></g><g><g><g><path d="m32.09143 30.68732c-.01109 0-.02304-.00325-.03442-.01004l-.84644-.49443c-.03704-.02155-.06592-.0732-.06592-.11719l.00292-.9862c0-.0245.00933-.04428.02625-.05402.01692-.01004.03733-.00856.05775.00354l.84645.49472c.03733.02155.06767.07468.06709.11807l-.00262.98591c0 .02391-.00933.04339-.02596.05313-.00759.00445-.01605.00651-.0251.00651zm-.8934-1.63206c-.00233 0-.00467.00059-.00642.00148-.00525.00325-.00846.01151-.00846.02273l-.00292.9862c0 .0307.02275.07084.04842.0859l.84615.49443c.00933.00531.01808.0062.02362.00354.00525-.00325.00846-.01122.00846-.02184l.00262-.98591c0-.0304-.02333-.07143-.04958-.08678l-.84644-.49473c-.00582-.00325-.01107-.00502-.01545-.00502z" fill="#3f434f"/></g></g></g><g><g><g><path d="m29.57194 29.21571c-.01108 0-.02304-.00325-.03442-.01004l-.84644-.49443c-.03704-.02155-.06592-.07321-.06592-.11719l.00292-.9862c0-.0245.00933-.04428.02625-.05402.01692-.01004.03733-.00856.05775.00354l.84644.49473c.03733.02155.06767.07468.06709.11807l-.00262.98591c0 .02391-.00933.04339-.02596.05313-.00759.00443-.01605.0065-.02509.0065zm-.8934-1.63206c-.00233 0-.00467.00059-.00642.00148-.00525.00325-.00846.01151-.00846.02273l-.00292.9862c0 .0307.02275.07084.04842.0859l.84615.49443c.00933.00531.01808.0062.02362.00354.00525-.00325.00846-.01122.00846-.02184l.00262-.98591c0-.0304-.02333-.07143-.04958-.08678l-.84644-.49472c-.00583-.00326-.01108-.00503-.01545-.00503z" fill="#3f434f"/></g></g></g></g><g><g><path d="m29.10573 27.92908-.00013.04586c-.17246-.08806-.31041-.00154-.31097.19981l.30991.18105-.00103.36601c-.00018.06333.04475.14208.0996.17412s.10007.00596.10025-.05737l-.0417-.02436c-.0001.03669-.02648.0519-.05841.03325s-.05814-.06459-.05804-.10128l.00103-.36601.30991.18105c.00056-.20135-.1357-.44807-.30884-.56191l.00013-.04586z" fill="#3f434f"/></g></g><g><g><path d="m35.13921 28.30333c-.04264.02464-.07613.08012-.07613.12944l.00303.70564c0 .04623.03351.06474.0731.04315l1.10242-.64403c.04262-.02464.07613-.08321.07613-.12944l-.00305-.70568c0-.04928-.0335-.06779-.07309-.04311z" fill="#fff"/></g><g><path d="m35.06002 27.38808.00305.70877c0 .04623.03349.0647.07309.04006l1.10242-.64403c.04264-.02159.07614-.08012.07614-.1294l-.00305-.70568c0-.04932-.0335-.06779-.07309-.04315l-1.10242.64403c-.04264.02468-.07614.08013-.07614.1294z" fill="#fff"/></g><g><path d="m35.16826 28.66141.00009.03165 1.04413-.60998-.00009-.03165z" fill="#5b5e71"/></g><g><path d="m35.168 28.56645.00009.03164 1.04412-.60998-.00009-.03164z" fill="#5b5e71"/></g><g><path d="m35.16747 28.37655.00009.03165 1.04412-.60999-.00009-.03164z" fill="#5b5e71"/></g><g><path d="m35.16933 29.04121.00009.03164 1.04412-.60998-.00008-.03164z" fill="#5b5e71"/></g><g><path d="m35.16906 28.94625.00009.03167 1.04413-.60998-.00009-.03168z" fill="#5b5e71"/></g><g><path d="m35.1688 28.85131.00008.03165 1.04413-.60999-.00009-.03164z" fill="#5b5e71"/></g><g><path d="m35.16853 28.75635.00009.03164 1.04413-.60998-.0001-.03165z" fill="#5b5e71"/></g><g><path d="m35.16773 28.47149.00009.03167 1.04412-.60998-.00008-.03168z" fill="#5b5e71"/></g><g><path d="m35.16561 27.71416.00009.03164 1.04412-.60998-.00008-.03164z" fill="#5b5e71"/></g><g><path d="m35.16534 27.6192.00009.03164 1.04413-.60998-.00009-.03165z" fill="#5b5e71"/></g><g><path d="m35.16481 27.4293.00009.03164 1.04413-.60998-.00009-.03165z" fill="#5b5e71"/></g><g><path d="m35.16455 27.33433.00008.03168 1.04413-.60998-.00009-.03168z" fill="#5b5e71"/></g><g><path d="m35.1664 27.99675.0001.03392 1.04412-.60999-.00009-.03391z" fill="#5b5e71"/></g><g><path d="m35.16614 27.90179.00009.03391 1.04413-.60998-.0001-.03391z" fill="#5b5e71"/></g><g><path d="m35.16587 27.80683.0001.03391 1.04412-.60999-.00009-.03391z" fill="#5b5e71"/></g><g><path d="m35.16508 27.52423.00009.03168 1.04412-.60999-.00009-.03167z" fill="#5b5e71"/></g></g></g><path d="m39.03787 20.96042-.00397.70344-18.84761 10.95303.00398-.70343z" fill="#c4c6c6"/></g><g><path d="m18.7155 31.062-.00398.70343-4.2572-2.45789.00398-.70344z" fill="#d4d6d6"/></g><g><path d="m39.03787 20.96042-18.8476 10.95304-1.47477-.85146-4.19743-2.42339-1.47477-.85145 1.46519-.85148 15.92236-9.25306 1.46006-.8485z" fill="#ecf0f1"/></g><g><path d="m39.03787 13.9205-.00397.70343-18.84761 10.95304.00398-.70344z" fill="#c4c6c6"/></g><g><path d="m18.7155 24.02207-.00398.70344-4.2572-2.4579.00398-.70343z" fill="#d4d6d6"/></g><g><path d="m39.03787 13.9205-18.8476 10.95303-1.47477-.85146-4.19743-2.42338-1.47477-.85146 1.46519-.85147 15.92236-9.25307 1.46006-.84849z" fill="#ecf0f1"/></g><g><g><g><g><path d="m22.39207 13.38537.013 4.48897 4.01349 2.35951-.013-4.48896-1.72747-1.01872-.51954-.30234z" fill="#e5bd13"/></g></g></g><g><g><g><path d="m26.40026 15.74754.01635 4.48334 4.03807-2.36123-.01329-4.47926v-.00668h-.00664l-1.7518 1.02745-.39817.23507-.11943.06714z" fill="#d6b218"/></g></g></g><g><g><g><path d="m22.38952 13.38952 4.01308 2.35955 1.7641-1.03362.51069-.29233.0103-.0052 1.7538-1.0284-4.01311-2.35955z" fill="#f1c40f"/></g></g></g><g><g><g><path d="m24.15204 12.35592 4.01308 2.35953.5107-.29233.01029-.0052-4.02341-2.35955-.00516.00522z" fill="#e4e8f4"/></g></g></g><g><g><g><path d="m28.68959 15.48641-.51953.30893-.0065-1.06917v-.01316l.11689-.0657.40264-.23006v.00658z" fill="#d4dae8"/></g></g></g><g><g><g><g><g><g><path d="m25.84834 18.65458-.12096.23294.07492.04377.16531.09587z" fill="#3f434f"/></g></g></g></g><g><g><g><g><path d="m25.8023 18.93129-.00129.46079.09039.05282.00129-.4608z" fill="#3f434f"/></g></g></g></g><g><g><g><g><path d="m25.35326 19.17157-.00028.09864.62409.36465.00028-.09864z" fill="#3f434f"/></g></g></g></g><g><g><g><g><path d="m24.21274 17.7265-.00092.32831c-.00029.10368.05891.22409.1375.28515l-.00083.29592c-.05512-.02572-.09668-.02332-.09677.00764l.24332.14217c.00009-.03096-.04132-.08184-.09641-.12051l.00083-.29592c.03593.0145.06695.01099.09118-.00442.02859-.02152.0473-.06178.04747-.11938l.00092-.32832z" fill="#3f434f"/></g></g></g></g><g><g><g><g><path d="m25.44072 18.72002-.00129.46079.0904.05282.00129-.46079z" fill="#3f434f"/></g></g></g></g><g><g><g><g><path d="m25.48615 18.44295-.12035.2333.07492.04377.16469.09551z" fill="#3f434f"/></g></g></g></g></g><g><g><g><path d="m24.85187 19.10797c-.01108 0-.02304-.00354-.03471-.01033l-.84644-.49443c-.03617-.02125-.06563-.07409-.06563-.11719l.00292-.98591c0-.0248.00962-.04457.02625-.05431.01662-.00945.03733-.00797.05775.00384l.84645.49443c.03733.02214.06767.07498.06709.11807l-.00263.98591c0 .0245-.00992.04398-.02683.05343-.00731.00443-.01547.00649-.02422.00649zm-.8937-1.63236c-.00233 0-.00437.00059-.00612.00148-.00525.00325-.00846.01181-.00846.02302l-.00292.98591c0 .0307.02246.07084.04813.0859l.84644.49443c.00963.00561.01779.0062.02333.00384.00525-.00325.00846-.01122.00875-.02214l.00262-.98591c0-.03011-.02333-.07143-.04959-.08678l-.84644-.49443c-.00582-.00354-.01136-.00532-.01574-.00532z" fill="#3f434f"/></g></g></g><g><g><g><path d="m26.11161 19.84386c-.01108 0-.02304-.00325-.03442-.01004l-.84644-.49443c-.03704-.02155-.06592-.07321-.06592-.11719l.00292-.9862c0-.0245.00933-.04428.02625-.05402.01692-.01004.03733-.00856.05775.00354l.84644.49473c.03733.02155.06767.07468.06709.11807l-.00262.98591c0 .02391-.00933.04339-.02596.05313-.00759.00443-.01604.0065-.02509.0065zm-.8934-1.63206c-.00233 0-.00467.00059-.00642.00148-.00525.00325-.00846.01151-.00846.02273l-.00292.9862c0 .0307.02275.07084.04842.0859l.84615.49443c.00933.00531.01808.0062.02363.00354.00525-.00325.00846-.01122.00846-.02184l.00262-.98591c0-.0304-.02333-.07143-.04959-.08678l-.84644-.49472c-.00582-.00326-.01107-.00503-.01545-.00503z" fill="#3f434f"/></g></g></g><g><g><g><path d="m23.59212 18.37225c-.01108 0-.02304-.00325-.03442-.01004l-.84644-.49443c-.03704-.02155-.06592-.0732-.06592-.11719l.00292-.9862c0-.0245.00933-.04428.02625-.05402.01692-.01004.03733-.00856.05775.00354l.84644.49472c.03733.02155.06767.07468.06709.11807l-.00262.98591c0 .02391-.00933.04339-.02596.05313-.00759.00444-.01605.00651-.02509.00651zm-.8934-1.63206c-.00233 0-.00467.00059-.00642.00148-.00525.00325-.00846.01151-.00846.02273l-.00292.9862c0 .0307.02275.07084.04842.0859l.84615.49443c.00933.00531.01808.0062.02362.00354.00525-.00325.00846-.01122.00846-.02184l.00262-.98591c0-.0304-.02333-.07143-.04958-.08678l-.84644-.49473c-.00583-.00325-.01108-.00502-.01545-.00502z" fill="#3f434f"/></g></g></g></g><g><g><path d="m23.12591 17.08562-.00013.04586c-.17246-.08806-.31041-.00154-.31097.19981l.30991.18105-.00102.36601c-.00018.06333.04475.14208.0996.17412s.10007.00596.10025-.05737l-.0417-.02436c-.0001.03669-.02648.05191-.05841.03325-.03193-.01865-.05814-.06459-.05804-.10128l.00103-.36601.30991.18105c.00056-.20135-.1357-.44807-.30884-.56191l.00013-.04586z" fill="#3f434f"/></g></g><g><g><path d="m29.15938 17.45987c-.04264.02464-.07613.08012-.07613.12944l.00303.70564c0 .04623.03351.06474.0731.04315l1.10242-.64403c.04262-.02464.07613-.08321.07613-.12944l-.00305-.70568c0-.04928-.03349-.06778-.07309-.04311z" fill="#fff"/></g><g><path d="m29.0802 16.54463.00305.70877c0 .04623.03349.0647.07309.04006l1.10242-.64403c.04264-.02159.07613-.08012.07613-.1294l-.00305-.70568c0-.04931-.03349-.06778-.07309-.04315l-1.10242.64403c-.04263.02467-.07613.08012-.07613.1294z" fill="#fff"/></g><g><path d="m29.18844 17.81796.00009.03164 1.04413-.60998-.00009-.03165z" fill="#5b5e71"/></g><g><path d="m29.18818 17.72299.00009.03164 1.04412-.60998-.00009-.03164z" fill="#5b5e71"/></g><g><path d="m29.18765 17.53309.00008.03165 1.04413-.60999-.00009-.03164z" fill="#5b5e71"/></g><g><path d="m29.18951 18.19775.00009.03165 1.04412-.60999-.00009-.03164z" fill="#5b5e71"/></g><g><path d="m29.18924 18.10279.00009.03167 1.04413-.60998-.00009-.03167z" fill="#5b5e71"/></g><g><path d="m29.18898 18.00785.00008.03165 1.04413-.60998-.00009-.03165z" fill="#5b5e71"/></g><g><path d="m29.18871 17.91289.00009.03164 1.04412-.60998-.00008-.03164z" fill="#5b5e71"/></g><g><path d="m29.18791 17.62803.00009.03167 1.04413-.60998-.00009-.03168z" fill="#5b5e71"/></g><g><path d="m29.18579 16.8707.00009.03165 1.04412-.60999-.00008-.03164z" fill="#5b5e71"/></g><g><path d="m29.18552 16.77574.00009.03164 1.04413-.60998-.00009-.03165z" fill="#5b5e71"/></g><g><path d="m29.18499 16.58584.00009.03164 1.04413-.60998-.00009-.03165z" fill="#5b5e71"/></g><g><path d="m29.18473 16.49087.00008.03168 1.04413-.60998-.00009-.03168z" fill="#5b5e71"/></g><g><path d="m29.18658 17.1533.0001.03391 1.04412-.60999-.00009-.03391z" fill="#5b5e71"/></g><g><path d="m29.18632 17.05833.00009.03391 1.04413-.60998-.0001-.03391z" fill="#5b5e71"/></g><g><path d="m29.18605 16.96337.00009.03391 1.04413-.60998-.00009-.03392z" fill="#5b5e71"/></g><g><path d="m29.18526 16.68077.00009.03168 1.04412-.60999-.00009-.03167z" fill="#5b5e71"/></g></g></g><g><path d="m39.03787 6.88057-.00397.70344-18.84761 10.95303.00398-.70344z" fill="#c4c6c6"/></g><g><path d="m37.86658 7.89579-.09146 32.25974-.28877-.16672.09146-32.25974z" fill="#3293c9"/></g><g><path d="m39.61353 6.88057-.09146 32.25974-1.74695 1.01522.09146-32.25974z" fill="#3087a5"/></g><g><path d="m39.61353 6.88057-1.74695 1.01522-.28877-.16672 1.46006-.8485-1.47477-.85146.28689-.16672z" fill="#3498db"/></g><g><path d="m14.50849 12.85583-.09146 32.25974-1.46518.85147.09145-32.25974z" fill="#077e9a"/></g><g><path d="m14.51807 14.55876-.09145 32.25974-1.47477-.85146.09145-32.25974z" fill="#d4d6d6"/></g><g><path d="m14.23631 14.72251-.09146 32.25974-1.75838-1.01521.09146-32.25974z" fill="#3293c9"/></g><g><path d="m14.51807 14.55876-.09145 32.25974-.28177.16375.09146-32.25974z" fill="#328eb7"/></g><g><path d="m14.50849 12.85583-1.46519.85147 1.47477.85146-.28176.16375-1.75838-1.01521 1.74695-1.01521z" fill="#3498db"/></g><g><path d="m18.7155 16.98215-.00398.70343-4.19742-2.42338.00397-.70344z" fill="#d4d6d6"/></g><g><path d="m39.03787 6.88057-18.8476 10.95303-1.47477-.85145-4.19743-2.42339-1.47477-.85146 1.46519-.85147 15.92236-9.25306 1.46006-.8485z" fill="#ecf0f1"/></g><g><path d="m20.19027 17.8336-.09146 32.25975-1.47477-.85146.09146-32.25974z" fill="#d4d6d6"/></g><g><path d="m21.94422 17.14885-.09146 32.25974-1.74695 1.01522.09146-32.25974z" fill="#3087a5"/></g><g><path d="m20.19727 18.16407-.09146 32.25974-1.76353-1.01818.09145-32.25974z" fill="#3293c9"/></g><g><path d="m21.94422 17.14885-1.74695 1.01522-1.76354-1.01818.28177-.16374 1.47477.85145 1.46518-.85147z" fill="#3498db"/></g></g><g><g><g><g><path d="m16.29127 8.99134.01301 4.48897 4.01349 2.35951-.013-4.48897-1.72748-1.01871-.51954-.30235z" fill="#e5bd13"/></g></g></g><g><g><g><path d="m20.29947 11.3535.01635 4.48335 4.03806-2.36123-.01328-4.47926v-.00668h-.00664l-1.7518 1.02745-.39817.23507-.11944.06713z" fill="#d6b218"/></g></g></g><g><g><g><path d="m16.28873 8.99549 4.01308 2.35955 1.7641-1.03362.51069-.29234.01029-.00519 1.75381-1.0284-4.01311-2.35956z" fill="#f1c40f"/></g></g></g><g><g><g><path d="m18.05125 7.96189 4.01308 2.35953.51069-.29234.0103-.00519-4.02341-2.35955-.00516.00522z" fill="#e4e8f4"/></g></g></g><g><g><g><path d="m22.5888 11.09238-.51954.30893-.0065-1.06917v-.01316l.1169-.06571.40264-.23005v.00657z" fill="#d4dae8"/></g></g></g><g><g><g><g><g><g><path d="m19.74755 14.26055-.12096.23293.07492.04378.16531.09587z" fill="#3f434f"/></g></g></g></g><g><g><g><g><path d="m19.70151 14.53726-.0013.46079.0904.05282.00129-.4608z" fill="#3f434f"/></g></g></g></g><g><g><g><g><path d="m19.25246 14.77754-.00027.09864.62409.36465.00027-.09864z" fill="#3f434f"/></g></g></g></g><g><g><g><g><path d="m18.11195 13.33247-.00092.32831c-.00029.10368.05891.22409.1375.28515l-.00083.29592c-.05512-.02572-.09668-.02332-.09677.00764l.24332.14217c.00009-.03096-.04132-.08184-.09641-.12051l.00083-.29592c.03593.0145.06695.01099.09118-.00442.02859-.02152.0473-.06179.04747-.11938l.00092-.32831z" fill="#3f434f"/></g></g></g></g><g><g><g><g><path d="m19.33993 14.32599-.00129.46079.09039.05282.00129-.46079z" fill="#3f434f"/></g></g></g></g><g><g><g><g><path d="m19.38536 14.04892-.12035.2333.07492.04377.16469.09551z" fill="#3f434f"/></g></g></g></g></g><g><g><g><path d="m18.75107 14.71394c-.01108 0-.02304-.00354-.03471-.01033l-.84644-.49443c-.03617-.02125-.06563-.07409-.06563-.11719l.00292-.98591c0-.02479.00962-.04457.02625-.05431.01663-.00945.03733-.00797.05775.00384l.84644.49443c.03733.02214.06767.07498.06709.11807l-.00263.98591c0 .0245-.00992.04398-.02683.05343-.00729.00442-.01546.00649-.02421.00649zm-.89369-1.63236c-.00233 0-.00438.00059-.00613.00148-.00525.00325-.00846.01181-.00846.02302l-.00292.98591c0 .0307.02246.07084.04813.0859l.84644.49443c.00963.00561.01779.0062.02333.00384.00525-.00325.00846-.01122.00875-.02214l.00262-.98591c0-.03011-.02333-.07143-.04959-.08678l-.84644-.49443c-.00581-.00355-.01136-.00532-.01573-.00532z" fill="#3f434f"/></g></g></g><g><g><g><path d="m20.01082 15.44983c-.01108 0-.02304-.00325-.03442-.01004l-.84644-.49443c-.03704-.02155-.06592-.0732-.06592-.11719l.00292-.9862c0-.0245.00933-.04428.02625-.05402.01692-.01004.03733-.00856.05775.00354l.84644.49473c.03733.02155.06767.07468.06709.11807l-.00262.98591c0 .02391-.00933.04339-.02596.05313-.00759.00443-.01605.0065-.02509.0065zm-.8934-1.63206c-.00233 0-.00467.00059-.00642.00148-.00525.00325-.00846.01151-.00846.02273l-.00292.9862c0 .0307.02275.07084.04842.0859l.84615.49443c.00933.00531.01808.0062.02363.00354.00525-.00325.00846-.01122.00846-.02184l.00262-.98591c0-.0304-.02333-.07143-.04959-.08678l-.84644-.49473c-.00583-.00325-.01108-.00502-.01545-.00502z" fill="#3f434f"/></g></g></g><g><g><g><path d="m17.49133 13.97822c-.01108 0-.02304-.00325-.03442-.01004l-.84644-.49443c-.03704-.02155-.06592-.0732-.06592-.11719l.00292-.9862c0-.0245.00933-.04428.02625-.05402.01692-.01004.03733-.00856.05775.00354l.84644.49473c.03733.02155.06767.07468.06709.11807l-.00262.98591c0 .02391-.00933.04339-.02596.05313-.00759.00443-.01605.0065-.02509.0065zm-.89341-1.63206c-.00233 0-.00467.00059-.00642.00148-.00525.00325-.00846.01151-.00846.02273l-.00292.9862c0 .0307.02275.07084.04842.0859l.84615.49443c.00933.00531.01808.0062.02362.00354.00525-.00325.00846-.01122.00846-.02184l.00262-.98591c0-.0304-.02333-.07143-.04958-.08678l-.84644-.49473c-.00582-.00325-.01107-.00502-.01545-.00502z" fill="#3f434f"/></g></g></g></g><g><g><path d="m17.02512 12.69159-.00013.04586c-.17246-.08806-.31041-.00154-.31097.19981l.30991.18105-.00103.36601c-.00018.06333.04475.14208.0996.17412s.10007.00596.10025-.05737l-.0417-.02436c-.0001.03669-.02648.05191-.05841.03325-.03193-.01865-.05814-.06459-.05804-.10128l.00103-.36601.30991.18105c.00056-.20135-.1357-.44807-.30884-.56191l.00013-.04586z" fill="#3f434f"/></g></g><g><g><path d="m23.05859 13.06584c-.04264.02464-.07614.08012-.07614.12944l.00303.70564c0 .04623.03351.06474.0731.04315l1.10242-.64403c.04262-.02464.07614-.08321.07614-.12944l-.00305-.70568c0-.04928-.03349-.06778-.07309-.04311z" fill="#fff"/></g><g><path d="m22.97941 12.15059.00305.70877c0 .04623.03349.0647.07309.04006l1.10242-.64403c.04264-.02159.07613-.08012.07613-.1294l-.00305-.70568c0-.04931-.03349-.06778-.07309-.04315l-1.10242.64403c-.04263.02468-.07613.08013-.07613.1294z" fill="#fff"/></g><g><path d="m23.08765 13.42392.00009.03165 1.04413-.60999-.00009-.03164z" fill="#5b5e71"/></g><g><path d="m23.08739 13.32896.00008.03164 1.04413-.60998-.00009-.03164z" fill="#5b5e71"/></g><g><path d="m23.08685 13.13906.00009.03164 1.04413-.60998-.00009-.03164z" fill="#5b5e71"/></g><g><path d="m23.08872 13.80372.00008.03165 1.04413-.60999-.00009-.03164z" fill="#5b5e71"/></g><g><path d="m23.08845 13.70876.00009.03167 1.04412-.60998-.00008-.03168z" fill="#5b5e71"/></g><g><path d="m23.08818 13.61382.00009.03165 1.04413-.60999-.00009-.03164z" fill="#5b5e71"/></g><g><path d="m23.08792 13.51886.00009.03164 1.04412-.60998-.00009-.03165z" fill="#5b5e71"/></g><g><path d="m23.08712 13.23399.00009.03168 1.04412-.60998-.00008-.03168z" fill="#5b5e71"/></g><g><path d="m23.085 12.47667.00009.03164 1.04412-.60998-.00009-.03164z" fill="#5b5e71"/></g><g><path d="m23.08473 12.3817.00009.03165 1.04413-.60998-.00009-.03165z" fill="#5b5e71"/></g><g><path d="m23.0842 12.19181.00009.03164 1.04412-.60998-.00008-.03165z" fill="#5b5e71"/></g><g><path d="m23.08393 12.09684.00009.03168 1.04413-.60999-.00009-.03167z" fill="#5b5e71"/></g><g><path d="m23.08579 12.75926.0001.03392 1.04412-.60999-.00009-.03391z" fill="#5b5e71"/></g><g><path d="m23.08552 12.6643.0001.03391 1.04413-.60998-.0001-.03391z" fill="#5b5e71"/></g><g><path d="m23.08526 12.56933.00009.03392 1.04413-.60998-.0001-.03392z" fill="#5b5e71"/></g><g><path d="m23.08447 12.28674.00008.03168 1.04413-.60999-.00009-.03167z" fill="#5b5e71"/></g></g></g><g><g><g><g><path d="m24.94421 3.9316.013 4.48896 4.0135 2.35952-.013-4.48897-1.72748-1.01872-.51954-.30234z" fill="#e5bd13"/></g></g></g><g><g><g><path d="m28.95241 6.29376.01635 4.48335 4.03806-2.36124-.01328-4.47925v-.00668h-.00664l-1.7518 1.02744-.39817.23507-.11944.06714z" fill="#d6b218"/></g></g></g><g><g><g><path d="m24.94167 3.93574 4.01307 2.35956 1.76411-1.03363.51069-.29233.01029-.00519 1.75381-1.02841-4.01311-2.35955z" fill="#f1c40f"/></g></g></g><g><g><g><path d="m26.70419 2.90215 4.01308 2.35952.51069-.29233.0103-.00519-4.02341-2.35956-.00516.00523z" fill="#e4e8f4"/></g></g></g><g><g><g><path d="m31.24174 6.03264-.51954.30892-.0065-1.06917v-.01315l.11689-.06571.40265-.23006v.00658z" fill="#d4dae8"/></g></g></g><g><g><g><g><g><g><path d="m28.40049 9.2008-.12096.23294.07491.04377.16532.09587z" fill="#3f434f"/></g></g></g></g><g><g><g><g><path d="m28.35444 9.47751-.00129.46079.0904.05282.00129-.46079z" fill="#3f434f"/></g></g></g></g><g><g><g><g><path d="m27.9054 9.71779-.00027.09864.62409.36465.00027-.09863z" fill="#3f434f"/></g></g></g></g><g><g><g><g><path d="m26.76489 8.27273-.00092.32831c-.00029.10368.05891.22409.1375.28515l-.00083.29592c-.05512-.02572-.09668-.02332-.09677.00764l.24332.14217c.00009-.03096-.04132-.08184-.09641-.12051l.00083-.29592c.03593.0145.06695.01099.09118-.00442.02859-.02152.0473-.06179.04747-.11938l.00092-.32831z" fill="#3f434f"/></g></g></g></g><g><g><g><g><path d="m27.99287 9.26624-.00129.4608.09039.05282.00129-.4608z" fill="#3f434f"/></g></g></g></g><g><g><g><g><path d="m28.0383 8.98918-.12035.23329.07492.04377.16469.09551z" fill="#3f434f"/></g></g></g></g></g><g><g><g><path d="m27.40401 9.6542c-.01108 0-.02304-.00354-.03471-.01033l-.84644-.49443c-.03617-.02125-.06563-.07409-.06563-.11719l.00292-.98591c0-.0248.00962-.04457.02625-.05431.01663-.00945.03733-.00797.05775.00384l.84644.49443c.03733.02214.06767.07498.06709.11807l-.00263.98591c0 .0245-.00992.04398-.02683.05343-.00729.00442-.01546.00649-.02421.00649zm-.89369-1.63236c-.00233 0-.00438.00059-.00613.00148-.00525.00325-.00846.01181-.00846.02302l-.00292.98591c0 .0307.02246.07084.04813.0859l.84645.49443c.00962.00561.01779.0062.02333.00384.00525-.00325.00846-.01122.00875-.02214l.00262-.98591c0-.03011-.02333-.07143-.04959-.08678l-.84644-.49443c-.00582-.00355-.01137-.00532-.01574-.00532z" fill="#3f434f"/></g></g></g><g><g><g><path d="m28.66376 10.39009c-.01108 0-.02304-.00325-.03442-.01004l-.84644-.49443c-.03704-.02155-.06592-.0732-.06592-.11719l.00292-.9862c0-.0245.00933-.04428.02625-.05402.01692-.01004.03733-.00856.05775.00354l.84644.49473c.03733.02155.06767.07468.06709.11807l-.00263.98591c0 .02391-.00933.04339-.02596.05313-.00758.00443-.01604.0065-.02508.0065zm-.8934-1.63207c-.00233 0-.00467.00059-.00642.00148-.00525.00325-.00846.01151-.00846.02273l-.00292.9862c0 .0307.02275.07084.04842.0859l.84615.49443c.00933.00531.01808.0062.02363.00354.00525-.00325.00846-.01122.00846-.02184l.00262-.98591c0-.0304-.02333-.07143-.04959-.08678l-.84644-.49473c-.00583-.00325-.01108-.00502-.01545-.00502z" fill="#3f434f"/></g></g></g><g><g><g><path d="m26.14426 8.91847c-.01108 0-.02304-.00325-.03442-.01004l-.84644-.49442c-.03704-.02155-.06592-.0732-.06592-.11719l.00292-.9862c0-.0245.00933-.04428.02625-.05402.01692-.01004.03733-.00856.05775.00354l.84644.49473c.03733.02155.06767.07468.06709.11807l-.00262.98591c0 .02391-.00933.04339-.02596.05313-.00758.00443-.01604.00649-.02509.00649zm-.8934-1.63206c-.00233 0-.00467.00059-.00642.00148-.00525.00325-.00846.01151-.00846.02273l-.00292.9862c0 .0307.02275.07084.04842.0859l.84615.49443c.00933.00531.01808.0062.02362.00354.00525-.00325.00846-.01122.00846-.02184l.00262-.98591c0-.0304-.02333-.07143-.04958-.08678l-.84644-.49473c-.00582-.00325-.01107-.00502-.01545-.00502z" fill="#3f434f"/></g></g></g></g><g><g><path d="m25.67805 7.63184-.00012.04586c-.17246-.08806-.31041-.00154-.31097.19981l.30991.18105-.00103.36601c-.00018.06333.04475.14208.0996.17412.05484.03204.10007.00597.10024-.05737l-.0417-.02436c-.0001.03669-.02648.05191-.05841.03325-.03193-.01865-.05814-.06459-.05804-.10128l.00103-.36601.30991.18105c.00056-.20135-.1357-.44807-.30884-.56191l.00013-.04586z" fill="#3f434f"/></g></g><g><g><path d="m31.71153 8.00609c-.04264.02464-.07614.08012-.07614.12944l.00303.70564c0 .04623.03351.06474.0731.04315l1.10242-.64403c.04262-.02464.07613-.08321.07613-.12944l-.00305-.70568c0-.04928-.0335-.06778-.07309-.04311z" fill="#fff"/></g><g><path d="m31.63235 7.09085.00305.70877c0 .04623.03349.0647.07309.04006l1.10243-.64403c.04264-.02159.07613-.08012.07613-.1294l-.00305-.70568c0-.04931-.0335-.06778-.07309-.04315l-1.10243.64403c-.04264.02468-.07613.08012-.07613.1294z" fill="#fff"/></g><g><path d="m31.74059 8.36418.00009.03164 1.04413-.60998-.00009-.03164z" fill="#5b5e71"/></g><g><path d="m31.74033 8.26921.00008.03165 1.04413-.60998-.00009-.03165z" fill="#5b5e71"/></g><g><path d="m31.73979 8.07932.00009.03164 1.04413-.60998-.00009-.03165z" fill="#5b5e71"/></g><g><path d="m31.74166 8.74397.00008.03165 1.04413-.60998-.00009-.03165z" fill="#5b5e71"/></g><g><path d="m31.74139 8.64901.00009.03168 1.04412-.60999-.00009-.03167z" fill="#5b5e71"/></g><g><path d="m31.74112 8.55408.00009.03164 1.04413-.60998-.00009-.03165z" fill="#5b5e71"/></g><g><path d="m31.74086 8.45911.00009.03165 1.04412-.60999-.00009-.03164z" fill="#5b5e71"/></g><g><path d="m31.74006 8.17425.00009.03167 1.04413-.60998-.0001-.03167z" fill="#5b5e71"/></g><g><path d="m31.73794 7.41692.00009.03165 1.04412-.60998-.00009-.03165z" fill="#5b5e71"/></g><g><path d="m31.73767 7.32196.00009.03164 1.04413-.60998-.00009-.03164z" fill="#5b5e71"/></g><g><path d="m31.73714 7.13206.00009.03165 1.04412-.60999-.00008-.03164z" fill="#5b5e71"/></g><g><path d="m31.73687 7.0371.00009.03167 1.04413-.60998-.00009-.03168z" fill="#5b5e71"/></g><g><path d="m31.73873 7.69952.00009.03391 1.04413-.60998-.00009-.03392z" fill="#5b5e71"/></g><g><path d="m31.73846 7.60455.0001.03392 1.04412-.60999-.00009-.03391z" fill="#5b5e71"/></g><g><path d="m31.7382 7.50959.00009.03391 1.04413-.60998-.0001-.03391z" fill="#5b5e71"/></g><g><path d="m31.73741 7.22699.00008.03168 1.04413-.60998-.00009-.03168z" fill="#5b5e71"/></g></g></g></g></svg>