<svg id="Layer_1" enable-background="new 0 0 52 52" height="512" viewBox="0 0 52 52" width="512" xmlns="http://www.w3.org/2000/svg"><g><g><g fill="#363a44"><path d="m18.18019 38.80082c0 .64146.23094 1.09473.59871 1.30856l2.41191 1.40268c-.36777-.21382-.59871-.66714-.59871-1.31717-.00856-1.29144.9066-2.87374 2.03558-3.52376.56446-.32501 1.08623-.3592 1.45399-.14539l-2.41191-1.39412c-.36777-.22238-.88097-.18814-1.45399.13688-1.12898.64996-2.03558 2.23227-2.03558 3.53232z"/><path d="m23.42506 35.77052c0 .64146.23094 1.09473.59871 1.30856l2.41191 1.40268c-.36777-.21382-.59871-.66714-.59871-1.31717-.00856-1.29144.9066-2.87374 2.03558-3.52376.56446-.32501 1.08623-.3592 1.45399-.14539l-2.41191-1.39412c-.36777-.22238-.88097-.18814-1.45399.13688-1.12898.64997-2.03558 2.23227-2.03558 3.53232z"/><path d="m41.96572 25.06494c0 .64146.23095 1.09473.59871 1.30856l2.4119 1.40268c-.36776-.21382-.59871-.66715-.59871-1.31717-.00856-1.29144.9066-2.87374 2.03558-3.52376.56446-.32501 1.08623-.3592 1.45399-.14538l-2.4119-1.39412c-.36777-.22238-.88097-.18814-1.45399.13688-1.12898.64995-2.03558 2.23226-2.03558 3.53231z"/></g><g><path d="m38.42748 29.5482-9.4503-5.49191-.00542-1.91122 9.45031 5.49192z" fill="#e74c3c"/></g><g><path d="m43.02898 26.89153-9.45031-5.49192-.02789-9.84065 9.4503 5.49192z" fill="#e74c3c"/></g><g><path d="m38.42207 27.63699-9.45031-5.49192 3.02996-1.74934 9.4503 5.49191z" fill="#525566"/></g><g><path d="m47.31365 14.53253c-.0862-.04788-.16763-.08617-.24903-.11493-.12451-.05267-.27776-.02876-.44056.06705l-3.22763 1.86284-9.45306-5.48792 3.22766-1.86763c.1628-.09102.31605-.11972.44056-.06705.08619.02876.16759.06705.249.11493z" fill="#e74c3c"/></g><g><path d="m33.83232 10.94695c.03613-.03549.0731-.06499.11147-.08937l9.4503 5.49192c-.03836.02438-.07534.05387-.11147.08937-3.15017-1.83067-6.30014-3.66126-9.4503-5.49192z" fill="#e74c3c"/></g><g><path d="m33.58123 11.36463c3.15016 1.83066 6.30013 3.66125 9.45029 5.49191-.01738.0619-.02795.12665-.03045.19434l-9.4503-5.49191c.0025-.06769.01308-.13244.03046-.19434z" fill="#e74c3c"/></g><g><path d="m33.83232 10.94695c3.15016 1.83066 6.30013 3.66125 9.4503 5.49191-.05185.05095-.10194.11426-.15182.19255-3.15017-1.83066-6.30014-3.66124-9.45031-5.49189.04988-.07831.09997-.14162.15183-.19257z" fill="#e74c3c"/></g><g><path d="m46.62283 14.48481c.16205-.09356.3151-.11858.44081-.06802.91049.32945 1.78431 1.76746 2.65297 3.54627.17868.37189.27184.82486.2733 1.3413l.01009 3.56244-6.97102 4.02472-.0279-9.84065c.00538-.14591.0483-.27818.11605-.39762.08913-.14492.1785-.24119.27696-.30376z" fill="#d8463f"/></g><g><path d="m33.66683 11.16134c.00455-.0074.00911-.01468.01366-.02183 3.15017 1.83067 6.30014 3.66125 9.45031 5.49191-.00456.00715-.00911.01443-.01367.02184-2.83509-1.64758-6.61521-3.84434-9.4503-5.49192z" fill="#e74c3c"/></g><g><path d="m33.58123 11.36463c.02009-.07153.04927-.13925.0856-.20329l9.4503 5.49192c-.03632.06403-.06551.13175-.08559.20328-3.15018-1.83066-6.30015-3.66125-9.45031-5.49191z" fill="#e74c3c"/></g><g><path d="m14.91931 41.20631-9.4503-5.49192 23.50275-13.56932 9.45031 5.49192z" fill="#525566"/></g><g><path d="m45.76685 14.47986c-.21547-.12451-.47888-.14842-.81886-.01432l-3.10791 1.79579c-.22988.13404-.41186.45491-.41186.71832l.02394 8.90705-9.44824-5.49271-.02873-8.90711c0-.26335.18198-.58422.41183-.71832l3.10794-1.79579c.33998-.13404.60336-.11013.82365.01438z" fill="#5b5e71"/></g><g><path d="m44.94761 14.46666c.53226-.21232.88189-.03411 1.14934.32176l-2.6814 1.54811c-.11992.07554-.20929.17181-.27787.28204-.08808.15357-.13124.28554-.13614.40765l.02743 9.86531-4.60149 2.65667-.00542-1.91121 3.02995-1.74934-.02526-8.90963c-.00075-.26352.1821-.58372.4114-.71611z" fill="#474b59"/></g><g><path d="m40.38498 15.70733.06035 10.67766-25.7286 14.85441-.06035-10.67765z" fill="#e0e2e2"/></g><g><path d="m14.92473 43.11752-9.4503-5.49191-.00542-1.91122 9.4503 5.49192z" fill="#525566"/></g><g><path d="m38.42207 27.63699.00541 1.91121-23.50275 13.56932-.00542-1.91121z" fill="#474b59"/></g><path d="m14.7163 41.08833-9.48043-5.50942-.02979-10.50908 9.4503 5.49192z" fill="#d4d6d6"/><g><path d="m6.0037 26.12522-.28465-.16539.02659 9.32501.28362-.19074z" fill="#474b59"/><path d="m14.17306 40.18172-.00093-.35592-8.14287-4.73149v-.00021l-.28362.19074z" fill="#5b5e71"/></g><path d="" fill="#e4e8f4"/><path d="m14.65638 30.56175-9.4503-5.49192 25.7286-14.85441 9.4503 5.49191z" fill="#ecf0f1"/><g><path d="m6.0037 26.12522.02556 8.96909.00634.00354 7.73011-4.46284z" fill="#474b59"/><path d="m14.1473 30.85671-.38159-.2217-7.73011 4.46284 8.13653 4.72795z" fill="#5b5e71"/></g><g><path d="m46.89219 15.54765c-.04084-.03628-.10064-.02809-.16782.00468.61872.58958 1.3237 1.6117 2.04833 2.77777.08145.1292-.02867.39274-.19146.48847l-1.67232.96173c-.08613.04798-.16758.03839-.20117-.02855l-.37823-.69468c-.03839-.07162-.11492-.08613-.20117-.03324l-2.27712 1.34441.00011.03534c0 .08122.05746.1196.13411.07654l1.95377-1.15389c.08625-.0529.16279-.03839.20117.03324l.37835.69444c.03347.06717.11492.07654.20105.02879l2.08789-1.20679c.1629-.09573.27303-.35904.19157-.48847-.74697-1.20187-1.47488-2.26027-2.10706-2.83979z" fill="#e74c3c"/><path d="m46.32952 19.05707.37823.69468c.03359.06694.11504.07653.20117.02855l1.67232-.96173c.16278-.09573.27291-.35927.19146-.48847-.72463-1.16606-1.42961-2.18818-2.04833-2.77777-.00374.00187-.00562-.00187-.00936.00023l-2.73914 1.5801c-.07665.04307-.13411.14371-.13411.22984l.00948 3.00573 2.27712-1.34441c.08624-.05288.16277-.03837.20116.03325z" fill="#84dbff"/></g><path d="m43.76103 26.45372 5.24486-3.02083c-.22857-.95757-.95135-1.39617-1.67413-1.39617-.39538 0-.80928.12352-1.22935.36439-1.30971.75992-2.34138 2.53292-2.34138 4.05261z" fill="#c14242"/><path d="m46.41233 22.93645c-1.1249.64946-2.03931 2.23327-2.03564 3.52589.00368 1.29886.92407 1.82337 2.04897 1.17391 1.13037-.65262 2.04477-2.23645 2.04109-3.53531-.00368-1.29262-.92406-1.81711-2.05442-1.16449z" fill="#525566"/><g><path d="m47.99807 24.42447c.00284 1.00267-.69625 2.22178-1.56646 2.72419-.8797.51063-1.58577.10827-1.58626-.90397-.00283-.99822.70105-2.2136 1.57599-2.71875.86784-.4983 1.57391-.09594 1.57673.89853zm-1.28333-.73406c.00762.168.01521.32508.02279.47942.00267.09971.00296.20353.008.30187.00874.10643.06026.14953.13959.10373.01025-.00592.02096-.0133.03211-.02225.22572-.18231.44667-.37281.68187-.57155-.20091-.30543-.48458-.39889-.88436-.29122m-.61838 1.12599c.00882-.25137.01763-.50274.02881-.7555l-.01195-.01773c-.39198.34398-.67655.76825-.87271 1.3002.15229-.04415.29506-.08553.43783-.12964.05949-.01793.12135-.03722.18321-.05926.02959-.00922.05613-.0206.07976-.03424.09985-.05765.14776-.15578.15505-.30383m-.62748 2.11913c.09457-.24342.18679-.47454.27425-.70565.04728-.12581.01612-.19539-.06245-.18834-.18333.01554-.37374.05433-.57609.08358.01541.39338.13284.65397.36429.81041m1.67706-1.51282c.03112.05592.07172.09815.10759.1486.05019.06406.10039.12813.15775.19901.21793-.41316.31687-.7932.32291-1.18253-.18045.19174-.34429.36296-.50574.53827-.09734.10545-.12798.21891-.08251.29665m-.72548 1.43398c.16658-.09617.33442-.23082.5093-.4061-.14791-.08702-.28153-.17953-.42936-.24196-.01045-.00411-.02979.00252-.05222.01547-.04409.02545-.10007.07535-.12363.11617-.12798.21893-.23927.44738-.36243.68541.15464-.02523.30597-.08102.45834-.16899m.00254-1.9087c-.00135.00076-.00269.00153-.00404.00231-.18375.10609-.34253.38271-.3372.59425.00296.21006.15561.29331.3391.18736.00146-.00084.00289-.00168.00436-.00255.18545-.10707.33712-.37251.33651-.58561-.0006-.21036-.15566-.30146-.33873-.19576m-.00347-.38111c-.05231.0302-.09496.10682-.09478.16692.00254.05873.0431.08185.09541.05165s.09496-.10409.0948-.1642c-.00017-.05737-.04311-.08183-.09543-.05437m.25824 1.20549c.00255.05873.04548.08047.09541.05164.05231-.0302.09496-.10409.09479-.16419-.00016-.05737-.0431-.08183-.09541-.05163-.00126.00065-.00252.00135-.00377.00207-.0484.02794-.09118.10352-.09102.16211m-.8315-.1247c.04993-.02883.09259-.10272.09242-.16283-.00016-.05737-.0431-.08183-.09304-.053-.00131.00068-.00263.00141-.00394.00217-.05061.02922-.09333.10476-.09085.16201.00017.06011.0431.08185.09541.05165m1.17217-.67675c.05231-.0302.09259-.10272.09241-.16283-.00016-.05737-.0431-.08183-.09303-.05301-.00132.00069-.00263.00141-.00394.00217-.0505.02916-.09102.10343-.09086.16202.00256.05873.04311.08185.09542.05165m-.98262 1.17208c.00255.05873.0431.08184.0954.05165.05231-.0302.09259-.10272.09242-.16282-.00016-.05737-.0431-.08183-.09304-.053-.00131.00068-.00262.00141-.00393.00216-.05049.02915-.09102.10342-.09085.16201" fill="#ecf0f1"/></g><path d="m25.22036 37.1593 5.24487-3.02083c-.22857-.95757-.95135-1.39617-1.67413-1.39617-.39538 0-.80928.12352-1.22936.36439-1.30971.75992-2.34138 2.53292-2.34138 4.05261z" fill="#3f434f"/><path d="m27.87166 33.64203c-1.1249.64946-2.03931 2.23328-2.03564 3.52589.00368 1.29886.92407 1.82337 2.04897 1.17391 1.13037-.65262 2.04477-2.23645 2.04109-3.53531-.00367-1.29261-.92405-1.81711-2.05442-1.16449z" fill="#525566"/><g><path d="m29.4574 35.13006c.00284 1.00267-.69625 2.22178-1.56646 2.72419-.8797.51063-1.58577.10826-1.58626-.90397-.00283-.99822.70105-2.2136 1.57599-2.71875.86785-.49831 1.57391-.09594 1.57673.89853zm-1.28333-.73406c.00762.168.01521.32508.02279.47943.00266.0997.00296.20352.008.30186.00874.10643.06026.14953.13959.10373.01025-.00592.02096-.0133.03211-.02224.22573-.18231.44667-.37281.68187-.57155-.20091-.30544-.48457-.39891-.88436-.29123m-.61838 1.12599c.00881-.25137.01763-.50275.02881-.7555l-.01195-.01773c-.39197.34398-.67655.76825-.87271 1.3002.15229-.04415.29506-.08553.43783-.12964.05949-.01793.12135-.03722.18321-.05926.02959-.00922.05613-.0206.07976-.03424.09985-.05765.14776-.15578.15505-.30383m-.62747 2.11912c.09457-.24342.18679-.47454.27425-.70565.04727-.12581.01612-.19539-.06245-.18834-.18333.01554-.37374.05433-.57609.08358.0154.39339.13284.65398.36429.81041m1.67705-1.51281c.03112.05592.07172.09815.10759.1486.05019.06406.10039.12812.15774.19901.21793-.41316.31687-.7932.32291-1.18253-.18045.19175-.34429.36296-.50574.53827-.09733.10544-.12797.21891-.0825.29665m-.72548 1.43397c.16658-.09617.33442-.23082.5093-.4061-.14791-.08701-.28153-.17953-.42936-.24196-.01045-.00411-.02979.00252-.05222.01546-.04409.02545-.10007.07536-.12363.11617-.12798.21893-.23926.44738-.36243.68541.15465-.02522.30597-.08101.45834-.16898m.00254-1.90869c-.00135.00076-.0027.00153-.00404.00231-.18376.10609-.34253.38271-.3372.59425.00296.21006.1556.29331.3391.18736.00146-.00084.00289-.00169.00436-.00255.18546-.10707.33712-.37251.33652-.58561-.00061-.21037-.15567-.30146-.33874-.19576m-.00346-.38112c-.05231.0302-.09496.10682-.09479.16692.00255.05873.0431.08185.09541.05165s.09496-.10409.0948-.1642c-.00017-.05737-.04311-.08183-.09542-.05437m.25824 1.20549c.00255.05873.04548.08047.09541.05164.05231-.0302.09496-.10408.0948-.16419-.00016-.05737-.0431-.08184-.09541-.05164-.00126.00065-.00252.00135-.00377.00207-.04842.02796-.0912.10353-.09103.16212m-.83151-.12469c.04994-.02883.09259-.10273.09242-.16283-.00016-.05737-.0431-.08184-.09303-.05301-.00131.00068-.00263.00141-.00394.00217-.05061.02922-.09333.10476-.09085.16201.00016.06011.0431.08185.0954.05166m1.17217-.67676c.05231-.0302.09259-.10272.09242-.16283-.00016-.05737-.0431-.08184-.09303-.05301-.00132.00069-.00263.00141-.00393.00217-.0505.02916-.09102.10343-.09086.16202.00254.05873.04309.08185.0954.05165m-.98262 1.17208c.00255.05873.0431.08184.0954.05165.05231-.0302.09259-.10272.09242-.16282-.00016-.05737-.0431-.08183-.09303-.053-.00131.00068-.00262.00141-.00393.00216-.0505.02915-.09103.10343-.09086.16201" fill="#ecf0f1"/></g><path d="m19.9755 40.18959 5.24486-3.02083c-.22857-.95757-.95135-1.39617-1.67413-1.39617-.39538 0-.80928.12352-1.22936.36439-1.30971.75992-2.34137 2.53292-2.34137 4.05261z" fill="#3f434f"/><path d="m22.62679 36.67232c-1.1249.64946-2.03931 2.23328-2.03564 3.52589.00368 1.29886.92407 1.82337 2.04897 1.17391 1.13037-.65262 2.04477-2.23645 2.04109-3.53531-.00367-1.29261-.92405-1.81711-2.05442-1.16449z" fill="#525566"/><g><path d="m24.21254 38.16035c.00284 1.00267-.69625 2.22178-1.56646 2.72419-.8797.51063-1.58577.10826-1.58626-.90397-.00283-.99822.70105-2.2136 1.57599-2.71875.86784-.49831 1.57391-.09594 1.57673.89853zm-1.28333-.73406c.00762.168.01521.32508.02279.47943.00266.0997.00296.20352.008.30186.00874.10643.06026.14953.13959.10373.01025-.00592.02096-.0133.03211-.02225.22573-.18231.44667-.37281.68187-.57154-.20091-.30544-.48458-.39891-.88436-.29123m-.61838 1.12599c.00881-.25137.01763-.50275.02881-.7555l-.01195-.01773c-.39197.34398-.67655.76825-.87271 1.3002.15229-.04415.29506-.08553.43783-.12964.05949-.01793.12135-.03722.18321-.05926.02959-.00922.05613-.0206.07976-.03424.09984-.05765.14776-.15578.15505-.30383m-.62748 2.11913c.09457-.24342.18679-.47454.27425-.70565.04727-.12581.01612-.19539-.06245-.18834-.18333.01554-.37374.05433-.57609.08358.01541.39338.13284.65397.36429.81041m1.67706-1.51282c.03112.05592.07172.09815.10759.1486.05019.06406.10039.12812.15774.19901.21793-.41317.31687-.7932.32291-1.18253-.18045.19175-.34429.36296-.50574.53827-.09733.10544-.12797.21891-.0825.29665m-.72549 1.43397c.16658-.09617.33442-.23082.5093-.4061-.14791-.08702-.28153-.17953-.42936-.24196-.01045-.00411-.02979.00252-.05222.01546-.04409.02545-.10007.07536-.12363.11617-.12798.21893-.23927.44738-.36243.68541.15465-.02522.30597-.08101.45834-.16898m.00254-1.90869c-.00135.00076-.0027.00153-.00404.00231-.18376.10609-.34254.38271-.3372.59425.00296.21006.1556.29331.3391.18736.00146-.00084.00289-.00169.00436-.00255.18546-.10707.33712-.37251.33652-.58561-.0006-.21036-.15566-.30146-.33874-.19576m-.00346-.38112c-.05231.0302-.09496.10682-.09479.16692.00255.05873.0431.08185.09541.05165s.09496-.10409.0948-.1642c-.00017-.05737-.0431-.08183-.09542-.05437m.25824 1.20549c.00255.05873.04548.08047.09541.05164.05231-.0302.09496-.10408.0948-.16419-.00016-.05737-.0431-.08184-.09541-.05164-.00126.00065-.00252.00135-.00377.00207-.04842.02796-.0912.10353-.09103.16212m-.83151-.1247c.04994-.02883.0926-.10272.09242-.16283-.00016-.05737-.0431-.08184-.09303-.05301-.00131.00068-.00263.00141-.00394.00217-.05061.02922-.09333.10476-.09085.16201.00017.06012.0431.08186.0954.05166m1.17218-.67675c.05231-.0302.09259-.10272.09242-.16283-.00016-.05737-.0431-.08184-.09303-.05301-.00132.00069-.00263.00141-.00394.00217-.0505.02916-.09102.10343-.09086.16202.00255.05873.0431.08185.09541.05165m-.98263 1.17209c.00255.05873.0431.08184.0954.05165.05231-.0302.0926-.10272.09242-.16282-.00016-.05737-.0431-.08183-.09303-.05301-.00132.00069-.00262.00141-.00393.00216-.05049.02915-.09102.10343-.09086.16202" fill="#ecf0f1"/></g><g><g enable-background="new"><g><path d="m17.31991 32.85937.17158-.09971-.02471 9.12311-.17158.09971z" fill="#c4c6c6"/></g><g><path d="m13.39522 30.59345.17158-.09971 3.92469 2.26592-.17158.09971z" fill="#ecf0f1"/></g><g><g><g><g><path d="m10.8216 32.7882-.01162 3.04321-1.80062 1.04641.01162-3.04322z" fill="#d6b218"/></g><path d="m9.02098 33.8346-.01162 3.04322-2.35827-1.36154.01163-3.04322z" fill="#e5bd13"/><g><g><path d="m6.89666 32.92927-.07472-.04313-.0106 1.36465.07534-.03788z" fill="#d6b218"/><path d="m6.88668 34.21291-.07534.03788v.00002l2.03891 1.1771.00062-.08104z" fill="#f1c40f"/><path d="m6.89666 32.92927-.00998 1.28364 1.96419 1.13396.00987-1.28364z" fill="#c6a51a"/></g><g><path d="m6.89666 34.56478-.07472-.04314-.0106.766.07534-.0379z" fill="#d6b218"/><path d="m6.88668 35.24974-.07534.0379v.00001l2.03891 1.17709.00062-.08103z" fill="#f1c40f"/><path d="m6.89666 34.56478-.00998.68496 1.96419 1.13397.00987-.68497z" fill="#c6a51a"/></g></g><g><g><path d="m10.56836 33.25225.07472-.04314.0106 1.36466-.07535-.03789z" fill="#e5bd13"/><path d="m10.57833 34.53588.07535.03789v.00002l-1.46591.84627-.00063-.08104z" fill="#f1c40f"/><path d="m10.56836 33.25225.00997 1.28363-1.39119.80314-.00986-1.28363z" fill="#c6a51a"/></g><g><path d="m10.56836 34.88776.07472-.04314.0106.76599-.07535-.03789z" fill="#e5bd13"/><path d="m10.57833 35.57272.07535.03789v.00002l-1.46591.84628-.00063-.08104z" fill="#f1c40f"/><path d="m10.56836 34.88776.00997.68496-1.39119.80315-.00986-.68497z" fill="#c6a51a"/></g></g><path d="m10.8216 32.7882-1.80062 1.0464-2.35826-1.36154 1.80062-1.04641z" fill="#f1c40f"/><g><path d="m8.46351 31.61156v.08548l.7804.4505.0738-.04288z" fill="#c6a51a"/><path d="m6.98196 32.47259.07378.04259 1.40777-.81814v-.08548z" fill="#d6b218"/><path d="m9.24391 32.14754-.7804-.4505-1.40777.81814.7803.45051z" fill="#e5bd13"/></g><g><path d="m9.52622 32.22448v.08547l.7804.45051.0738-.04288z" fill="#c6a51a"/><path d="m8.04467 33.08551.07378.04259 1.40777-.81815v-.08547z" fill="#d6b218"/><path d="m10.30662 32.76046-.7804-.45051-1.40777.81815.7803.45051z" fill="#e5bd13"/></g></g><g><g><g><g><g><path d="m9.43888 34.5421.05929.11283-.03672.02121-.08103.04643z" fill="#3f434f"/></g></g></g><g><g><g><path d="m9.46145 34.67614.00063.2232-.04431.02558-.00063-.2232z" fill="#3f434f"/></g></g></g><g><g><g><path d="m9.68154 34.79253.00013.04778-.30589.17663-.00013-.04778z" fill="#3f434f"/></g></g></g><g><g><g><path d="m10.24055 34.09255.00045.15903c.00014.05022-.02887.10855-.06739.13812l.00041.14334c.02702-.01246.04739-.0113.04743.0037l-.11926.06887c-.00004-.015.02025-.03964.04725-.05837l-.00041-.14334c-.01761.00703-.03281.00533-.04469-.00214-.01401-.01042-.02319-.02993-.02326-.05783l-.00045-.15903z" fill="#3f434f"/></g></g></g><g><g><g><path d="m9.63867 34.5738.00063.2232-.0443.02559-.00064-.22321z" fill="#3f434f"/></g></g></g><g><g><g><path d="m9.6164 34.43959.05899.11301-.03672.0212-.08072.04626z" fill="#3f434f"/></g></g></g></g><g><g><g><g><path d="m9.91542 34.75858c-.00829-.00458-.01315-.01402-.01315-.02588l-.00129-.47756c-.00029-.02087.01458-.04647.03288-.05719l.41488-.2395c.01001-.00572.02016-.00644.02831-.00186.00815.00472.01287.0143.01287.02631l.00143.47756c0 .02087-.01444.04647-.03217.05676l-.41488.23949c-.00572.00329-.01158.005-.01701.005-.00429.00001-.00829-.00099-.01187-.00313zm.44218-.78498-.41488.2395c-.01287.00743-.0243.02745-.0243.04203l.00129.47756c.00014.00529.00171.00915.00429.01073.00272.00114.00672.00085.01144-.00186l.41488-.23949c.01258-.00729.02359-.02674.02359-.04161l-.00143-.47756c0-.00544-.00157-.00958-.00415-.01115-.00086-.00043-.00186-.00071-.003-.00071-.00215-.00001-.00487.00084-.00773.00256z" fill="#3f434f"/></g></g></g><g><g><g><path d="m9.29754 35.11503c-.00815-.00472-.01272-.01415-.01272-.02573l-.00129-.47756c-.00029-.02102.01458-.04676.03288-.05719l.41487-.23964c.01001-.00586.02001-.00658.02831-.00172.00829.00472.01287.0143.01287.02617l.00143.47771c0 .02131-.01415.04633-.03231.05676l-.41488.2395c-.00558.00329-.01144.00486-.01687.00486-.00442-.00001-.00857-.00101-.01229-.00316zm.44261-.78497-.41488.23964c-.01287.00743-.0243.02731-.0243.04204l.00129.47756c0 .00515.00157.00901.00415.01058.00272.00129.007.00086.01158-.00172l.41473-.23949c.01258-.00729.02373-.02674.02373-.04161l-.00143-.47771c0-.00543-.00157-.00944-.00415-.01101-.00086-.00043-.002-.00071-.00315-.00071-.00213 0-.00471.00085-.00757.00243z" fill="#3f434f"/></g></g></g></g></g></g><g><g><g><path d="m13.59232 34.39213-.01162 3.04322-1.80062 1.0464.01162-3.04321z" fill="#d6b218"/></g><path d="m11.7917 35.43854-.01162 3.04321-2.35827-1.36154.01162-3.04321z" fill="#e5bd13"/><g><g><path d="m9.66738 34.5332-.07472-.04313-.0106 1.36466.07534-.03789z" fill="#d6b218"/><path d="m9.6574 35.81684-.07534.03789v.00001l2.0389 1.1771.00063-.08104z" fill="#f1c40f"/><path d="m9.66738 34.5332-.00998 1.28364 1.96419 1.13396.00986-1.28364z" fill="#c6a51a"/></g><g><path d="m9.66738 36.16871-.07472-.04313-.0106.76599.07534-.03789z" fill="#d6b218"/><path d="m9.6574 36.85368-.07534.03789v.00002l2.0389 1.17709.00063-.08104z" fill="#f1c40f"/><path d="m9.66738 36.16871-.00998.68497 1.96419 1.13396.00986-.68497z" fill="#c6a51a"/></g></g><g><g><path d="m13.33908 34.85618.07471-.04313.01061 1.36466-.07535-.03789z" fill="#e5bd13"/><path d="m13.34905 36.13982.07535.03789v.00001l-1.46591.84628-.00063-.08104z" fill="#f1c40f"/><path d="m13.33908 34.85618.00997 1.28364-1.39119.80314-.00986-1.28364z" fill="#c6a51a"/></g><g><path d="m13.33908 36.49169.07471-.04314.01061.766-.07535-.03789z" fill="#e5bd13"/><path d="m13.34905 37.17666.07535.03789v.00002l-1.46591.84627-.00063-.08104z" fill="#f1c40f"/><path d="m13.33908 36.49169.00997.68497-1.39119.80314-.00986-.68497z" fill="#c6a51a"/></g></g><path d="m13.59232 34.39213-1.80062 1.04641-2.35827-1.36154 1.80062-1.04641z" fill="#f1c40f"/><g><path d="m11.23423 33.2155v.08547l.7804.45051.0738-.04288z" fill="#c6a51a"/><path d="m9.75268 34.07653.07378.04259 1.40777-.81815v-.08547z" fill="#d6b218"/><path d="m12.01463 33.75148-.7804-.45051-1.40777.81815.7803.45051z" fill="#e5bd13"/></g><g><path d="m12.29694 33.82841v.08548l.7804.45051.0738-.04289z" fill="#c6a51a"/><path d="m10.81539 34.68944.07378.04259 1.40777-.81814v-.08548z" fill="#d6b218"/><path d="m13.07734 34.3644-.7804-.45051-1.40777.81814.7803.45051z" fill="#e5bd13"/></g></g><g><g><g><g><g><path d="m12.20959 36.14604.05929.11283-.03672.0212-.08102.04644z" fill="#3f434f"/></g></g></g><g><g><g><path d="m12.23216 36.28007.00064.2232-.04431.02559-.00063-.2232z" fill="#3f434f"/></g></g></g><g><g><g><path d="m12.45226 36.39646.00013.04778-.30589.17663-.00013-.04778z" fill="#3f434f"/></g></g></g><g><g><g><path d="m13.01127 35.69649.00045.15903c.00014.05022-.02887.10855-.06739.13813l.00041.14334c.02702-.01246.04739-.0113.04743.0037l-.11926.06887c-.00004-.015.02025-.03964.04725-.05837l-.00041-.14334c-.01761.00703-.03281.00533-.04469-.00214-.01401-.01042-.02319-.02993-.02326-.05783l-.00045-.15903z" fill="#3f434f"/></g></g></g><g><g><g><path d="m12.40939 36.17773.00063.22321-.04431.02559-.00063-.22321z" fill="#3f434f"/></g></g></g><g><g><g><path d="m12.38712 36.04353.05899.113-.03672.0212-.08073.04627z" fill="#3f434f"/></g></g></g></g><g><g><g><g><path d="m12.68614 36.36251c-.00829-.00458-.01315-.01402-.01315-.02588l-.00129-.47756c-.00029-.02087.01458-.04647.03288-.05719l.41487-.2395c.01001-.00572.02016-.00644.02831-.00186.00815.00472.01287.0143.01287.02631l.00143.47756c0 .02087-.01444.04647-.03217.05676l-.41487.23949c-.00572.00329-.01158.005-.01701.005-.00429.00001-.00829-.00099-.01187-.00313zm.44218-.78498-.41487.2395c-.01287.00743-.0243.02745-.0243.04203l.00129.47756c.00014.00529.00172.00915.00429.01073.00272.00114.00672.00085.01144-.00186l.41487-.23949c.01258-.00729.02359-.02674.02359-.04161l-.00143-.47756c0-.00544-.00157-.00958-.00415-.01115-.00086-.00043-.00186-.00071-.003-.00071-.00215-.00001-.00487.00085-.00773.00256z" fill="#3f434f"/></g></g></g><g><g><g><path d="m12.06826 36.71896c-.00815-.00471-.01272-.01415-.01272-.02573l-.00129-.47756c-.00029-.02102.01458-.04676.03288-.05719l.41488-.23964c.01001-.00586.02001-.00658.02831-.00172.00829.00472.01287.0143.01287.02617l.00143.47771c0 .02131-.01415.04633-.03231.05676l-.41487.2395c-.00558.00329-.01144.00486-.01687.00486-.00444-.00001-.00859-.00101-.01231-.00316zm.44261-.78497-.41487.23964c-.01287.00743-.0243.02731-.0243.04204l.00129.47756c0 .00515.00157.00901.00415.01058.00272.00129.007.00086.01158-.00171l.41473-.2395c.01258-.00729.02373-.02674.02373-.04161l-.00143-.47771c0-.00543-.00157-.00943-.00415-.01101-.00086-.00043-.002-.00071-.00315-.00071-.00215 0-.00472.00086-.00758.00243z" fill="#3f434f"/></g></g></g></g></g></g></g><g><g><g><g><path d="m10.8216 29.53103-.01162 3.04322-1.80062 1.0464.01162-3.04322z" fill="#d6b218"/></g><path d="m9.02098 30.57743-.01162 3.04322-2.35827-1.36154.01163-3.04322z" fill="#e5bd13"/><g><g><path d="m6.89666 29.6721-.07472-.04313-.0106 1.36466.07534-.03789z" fill="#d6b218"/><path d="m6.88668 30.95574-.07534.03789v.00001l2.03891 1.1771.00062-.08104z" fill="#f1c40f"/><path d="m6.89666 29.6721-.00998 1.28364 1.96419 1.13396.00987-1.28364z" fill="#c6a51a"/></g><g><path d="m6.89666 31.30761-.07472-.04314-.0106.766.07534-.03789z" fill="#d6b218"/><path d="m6.88668 31.99258-.07534.03789v.00001l2.03891 1.1771.00062-.08104z" fill="#f1c40f"/><path d="m6.89666 31.30761-.00998.68497 1.96419 1.13396.00987-.68497z" fill="#c6a51a"/></g></g><g><g><path d="m10.56836 29.99508.07472-.04314.0106 1.36467-.07535-.03789z" fill="#e5bd13"/><path d="m10.57833 31.27872.07535.03789v.00001l-1.46591.84628-.00063-.08104z" fill="#f1c40f"/><path d="m10.56836 29.99508.00997 1.28364-1.39119.80314-.00986-1.28364z" fill="#c6a51a"/></g><g><path d="m10.56836 31.63059.07472-.04314.0106.766-.07535-.03789z" fill="#e5bd13"/><path d="m10.57833 32.31556.07535.03789v.00001l-1.46591.84628-.00063-.08104z" fill="#f1c40f"/><path d="m10.56836 31.63059.00997.68497-1.39119.80314-.00986-.68497z" fill="#c6a51a"/></g></g><path d="m10.8216 29.53103-1.80062 1.0464-2.35826-1.36154 1.80062-1.0464z" fill="#f1c40f"/><g><path d="m8.46351 28.35439v.08548l.7804.45051.0738-.04289z" fill="#c6a51a"/><path d="m6.98196 29.21542.07378.04259 1.40777-.81814v-.08548z" fill="#d6b218"/><path d="m9.24391 28.89038-.7804-.45051-1.40777.81814.7803.45051z" fill="#e5bd13"/></g><g><path d="m9.52622 28.96731v.08547l.7804.45051.0738-.04288z" fill="#c6a51a"/><path d="m8.04467 29.82834.07378.04259 1.40777-.81815v-.08547z" fill="#d6b218"/><path d="m10.30662 29.50329-.7804-.45051-1.40777.81815.7803.45051z" fill="#e5bd13"/></g></g><g><g><g><g><g><path d="m9.43888 31.28493.05929.11283-.03672.02121-.08103.04644z" fill="#3f434f"/></g></g></g><g><g><g><path d="m9.46145 31.41897.00063.2232-.04431.02559-.00063-.22321z" fill="#3f434f"/></g></g></g><g><g><g><path d="m9.68154 31.53536.00013.04778-.30589.17663-.00013-.04778z" fill="#3f434f"/></g></g></g><g><g><g><path d="m10.24055 30.83538.00045.15903c.00014.05022-.02887.10854-.06739.13812l.00041.14334c.02702-.01246.04739-.01129.04743.0037l-.11926.06886c-.00004-.015.02025-.03964.04725-.05837l-.00041-.14334c-.01761.00702-.03281.00532-.04469-.00214-.01401-.01042-.02319-.02993-.02326-.05783l-.00045-.15903z" fill="#3f434f"/></g></g></g><g><g><g><path d="m9.63867 31.31663.00063.22321-.0443.02558-.00064-.2232z" fill="#3f434f"/></g></g></g><g><g><g><path d="m9.6164 31.18242.05899.11301-.03672.0212-.08072.04627z" fill="#3f434f"/></g></g></g></g><g><g><g><g><path d="m9.91542 31.50141c-.00829-.00458-.01315-.01401-.01315-.02588l-.00129-.47756c-.00029-.02088.01458-.04647.03288-.05719l.41488-.2395c.01001-.00572.02016-.00643.02831-.00186.00815.00472.01287.0143.01287.02631l.00143.47756c0 .02088-.01444.04647-.03217.05676l-.41488.2395c-.00572.00329-.01158.005-.01701.005-.00429 0-.00829-.001-.01187-.00314zm.44218-.78498-.41488.2395c-.01287.00743-.0243.02745-.0243.04204l.00129.47756c.00014.00529.00171.00915.00429.01072.00272.00114.00672.00086.01144-.00186l.41488-.23949c.01258-.00729.02359-.02674.02359-.04161l-.00143-.47756c0-.00543-.00157-.00958-.00415-.01115-.00086-.00043-.00186-.00072-.003-.00072-.00215 0-.00487.00086-.00773.00257z" fill="#3f434f"/></g></g></g><g><g><g><path d="m9.29754 31.85786c-.00815-.00472-.01272-.01416-.01272-.02574l-.00129-.47756c-.00029-.02102.01458-.04675.03288-.05719l.41487-.23964c.01001-.00586.02001-.00658.02831-.00172.00829.00472.01287.0143.01287.02617l.00143.47771c0 .0213-.01415.04633-.03231.05676l-.41488.2395c-.00558.00329-.01144.00486-.01687.00486-.00442 0-.00857-.001-.01229-.00315zm.44261-.78497-.41488.23964c-.01287.00743-.0243.02731-.0243.04204l.00129.47756c0 .00515.00157.00901.00415.01058.00272.00129.007.00086.01158-.00171l.41473-.2395c.01258-.00729.02373-.02674.02373-.04161l-.00143-.47771c0-.00543-.00157-.00944-.00415-.01101-.00086-.00043-.002-.00072-.00315-.00072-.00213.00001-.00471.00086-.00757.00244z" fill="#3f434f"/></g></g></g></g></g></g><g><g><g><path d="m13.59232 31.13496-.01162 3.04322-1.80062 1.04641.01162-3.04322z" fill="#d6b218"/></g><path d="m11.7917 32.18137-.01162 3.04322-2.35827-1.36155.01162-3.04321z" fill="#e5bd13"/><g><g><path d="m9.66738 31.27604-.07472-.04314-.0106 1.36466.07534-.03789z" fill="#d6b218"/><path d="m9.6574 32.55967-.07534.03789v.00002l2.0389 1.17709.00063-.08104z" fill="#f1c40f"/><path d="m9.66738 31.27604-.00998 1.28363 1.96419 1.13396.00986-1.28363z" fill="#c6a51a"/></g><g><path d="m9.66738 32.91154-.07472-.04313-.0106.76599.07534-.03789z" fill="#d6b218"/><path d="m9.6574 33.59651-.07534.03789v.00002l2.0389 1.17709.00063-.08104z" fill="#f1c40f"/><path d="m9.66738 32.91154-.00998.68497 1.96419 1.13396.00986-.68496z" fill="#c6a51a"/></g></g><g><g><path d="m13.33908 31.59901.07471-.04313.01061 1.36466-.07535-.03789z" fill="#e5bd13"/><path d="m13.34905 32.88265.07535.03789v.00002l-1.46591.84627-.00063-.08104z" fill="#f1c40f"/><path d="m13.33908 31.59901.00997 1.28364-1.39119.80314-.00986-1.28363z" fill="#c6a51a"/></g><g><path d="m13.33908 33.23452.07471-.04313.01061.76599-.07535-.03789z" fill="#e5bd13"/><path d="m13.34905 33.91949.07535.03789v.00002l-1.46591.84627-.00063-.08104z" fill="#f1c40f"/><path d="m13.33908 33.23452.00997.68497-1.39119.80314-.00986-.68497z" fill="#c6a51a"/></g></g><path d="m13.59232 31.13496-1.80062 1.04641-2.35827-1.36154 1.80062-1.04641z" fill="#f1c40f"/><g><path d="m11.23423 29.95833v.08547l.7804.45051.0738-.04288z" fill="#c6a51a"/><path d="m9.75268 30.81936.07378.04259 1.40777-.81815v-.08547z" fill="#d6b218"/><path d="m12.01463 30.49431-.7804-.45051-1.40777.81815.7803.45051z" fill="#e5bd13"/></g><g><path d="m12.29694 30.57124v.08548l.7804.45051.0738-.04289z" fill="#c6a51a"/><path d="m10.81539 31.43228.07378.04259 1.40777-.81815v-.08548z" fill="#d6b218"/><path d="m13.07734 31.10723-.7804-.45051-1.40777.81815.7803.4505z" fill="#e5bd13"/></g></g><g><g><g><g><g><path d="m12.20959 32.88887.05929.11283-.03672.0212-.08102.04644z" fill="#3f434f"/></g></g></g><g><g><g><path d="m12.23216 33.0229.00064.22321-.04431.02558-.00063-.2232z" fill="#3f434f"/></g></g></g><g><g><g><path d="m12.45226 33.13929.00013.04778-.30589.17663-.00013-.04777z" fill="#3f434f"/></g></g></g><g><g><g><path d="m13.01127 32.43932.00045.15903c.00014.05022-.02887.10855-.06739.13812l.00041.14334c.02702-.01246.04739-.0113.04743.0037l-.11926.06887c-.00004-.015.02025-.03964.04725-.05837l-.00041-.14334c-.01761.00703-.03281.00533-.04469-.00214-.01401-.01042-.02319-.02993-.02326-.05783l-.00045-.15903z" fill="#3f434f"/></g></g></g><g><g><g><path d="m12.40939 32.92057.00063.2232-.04431.02559-.00063-.22321z" fill="#3f434f"/></g></g></g><g><g><g><path d="m12.38712 32.78636.05899.113-.03672.02121-.08073.04626z" fill="#3f434f"/></g></g></g></g><g><g><g><g><path d="m12.68614 33.10534c-.00829-.00458-.01315-.01402-.01315-.02588l-.00129-.47756c-.00029-.02087.01458-.04647.03288-.05719l.41487-.2395c.01001-.00572.02016-.00644.02831-.00186.00815.00472.01287.0143.01287.02631l.00143.47756c0 .02087-.01444.04647-.03217.05676l-.41487.23949c-.00572.00329-.01158.005-.01701.005-.00429.00002-.00829-.00098-.01187-.00313zm.44218-.78497-.41487.2395c-.01287.00743-.0243.02745-.0243.04203l.00129.47756c.00014.00529.00172.00915.00429.01073.00272.00114.00672.00085.01144-.00186l.41487-.23949c.01258-.00729.02359-.02674.02359-.04161l-.00143-.47756c0-.00544-.00157-.00958-.00415-.01115-.00086-.00043-.00186-.00071-.003-.00071-.00215-.00002-.00487.00084-.00773.00256z" fill="#3f434f"/></g></g></g><g><g><g><path d="m12.06826 33.4618c-.00815-.00471-.01272-.01415-.01272-.02573l-.00129-.47756c-.00029-.02102.01458-.04676.03288-.05719l.41488-.23964c.01001-.00586.02001-.00658.02831-.00172.00829.00472.01287.0143.01287.02617l.00143.47771c0 .02131-.01415.04633-.03231.05676l-.41487.2395c-.00558.00329-.01144.00486-.01687.00486-.00444-.00002-.00859-.00102-.01231-.00316zm.44261-.78498-.41487.23964c-.01287.00743-.0243.02731-.0243.04204l.00129.47756c0 .00515.00157.00901.00415.01058.00272.00129.007.00086.01158-.00171l.41473-.2395c.01258-.00729.02373-.02674.02373-.04161l-.00143-.47771c0-.00543-.00157-.00944-.00415-.01101-.00086-.00043-.002-.00071-.00315-.00071-.00215 0-.00472.00086-.00758.00243z" fill="#3f434f"/></g></g></g></g></g></g></g><g><path d="m17.31991 32.85937-.02471 9.12311-3.92469-2.26592.02471-9.12311z" fill="#d4d6d6"/></g></g><g enable-background="new"><g><path d="m5.95715 26.29557.17158-.09971-.02471 9.12156-.17158.09971z" fill="#c4c6c6"/></g><g><path d="m2.02471 24.02518.17158-.09971 3.93244 2.27039-.17158.09971z" fill="#e0e2e2"/></g><g><path d="m5.95715 26.29557-.02471 9.12156-3.93244-2.2704.02471-9.12155z" fill="#d4d6d6"/></g></g></g><g><path d="m45.23923 20.77184.00128.44951-1.28236.74038-.00128-.44952z" fill="#525566"/></g><g><g><path d="m13.46495 40.98446-.00237.83652-1.03241-.59606.00237-.83653z" fill="#e74c3c"/></g><g><path d="m14.4997 41.57742-.00237.83652-1.03242-.59607.00238-.83652z" fill="#f1c40f"/></g><g><path d="m6.98799 37.24498-.00238.83652-1.03237-.59603.00237-.83653z" fill="#e74c3c"/></g><g><path d="m8.02273 37.83794-.00237.83652-1.03237-.59604.00237-.83653z" fill="#f1c40f"/></g></g></g><g><g><g><path d="m13.8901 32.23748.17515.10141v.91413l-.17515.1301z" fill="#c4c6c6"/><path d="m14.06525 33.25302 2.72699 1.57339-.00207.23005-2.90007-1.67334z" fill="#ecf0f1"/></g><path d="m14.06525 32.33889 2.73507 1.58215-.00808.90537-2.72699-1.57339z" fill="#c4c6c6"/></g><g><g><path d="m13.8901 34.87848.17515.10141v.91412l-.17515.1301z" fill="#c4c6c6"/><path d="m14.06525 35.89401 2.72699 1.57339-.00207.23005-2.90007-1.67334z" fill="#ecf0f1"/></g><path d="m14.06525 34.97989 2.73507 1.58214-.00808.90537-2.72699-1.57339z" fill="#c4c6c6"/></g><g><g><path d="m13.8901 37.51947.17515.10141v.91412l-.17515.1301z" fill="#c4c6c6"/><path d="m14.06525 38.535 2.72699 1.57339-.00207.23005-2.90007-1.67334z" fill="#ecf0f1"/></g><path d="m14.06525 37.62088 2.73507 1.58214-.00808.90537-2.72699-1.57339z" fill="#c4c6c6"/></g></g><g><g><g><path d="m2.52346 25.67068.17515.1014v.91413l-.17515.1301z" fill="#c4c6c6"/><path d="m2.69861 26.68621 2.72699 1.57339-.00206.23005-2.90008-1.67334z" fill="#e0e2e2"/></g><path d="m2.69861 25.77208 2.73508 1.58215-.00809.90537-2.72699-1.57339z" fill="#b4b5b5"/></g><g><g><path d="m2.52346 28.31167.17515.1014v.91413l-.17515.1301z" fill="#c4c6c6"/><path d="m2.69861 29.3272 2.72699 1.57339-.00206.23005-2.90008-1.67334z" fill="#e0e2e2"/></g><path d="m2.69861 28.41307 2.73508 1.58215-.00809.90537-2.72699-1.57339z" fill="#b4b5b5"/></g><g><g><path d="m2.52346 30.95266.17515.10141v.91412l-.17515.1301z" fill="#c4c6c6"/><path d="m2.69861 31.96819 2.72699 1.57339-.00206.23005-2.90008-1.67334z" fill="#e0e2e2"/></g><path d="m2.69861 31.05407 2.73508 1.58214-.00809.90537-2.72699-1.57339z" fill="#b4b5b5"/></g></g></g></svg>