<svg id="Layer_1" enable-background="new 0 0 50 50" height="512" viewBox="0 0 50 50" width="512" xmlns="http://www.w3.org/2000/svg"><g><g><g><g enable-background="new"><g><path d="m45.17882 24.3763-.07062 23.02609c0 .38166-.12693.64966-.35273.77642l-1.27861.7434c.21159-.12745.35273-.39545.35273-.77642l.05641-23.02609c.01412-.77642-.53616-1.70717-1.19926-2.08814l-36.58541-21.13567c-.33861-.18394-.64897-.2115-.86064-.07096l1.27869-.74271c.22571-.12745.52204-.11298.86064.08474l36.59946 21.1212c.66318.38097 1.19934 1.3124 1.19934 2.08814z" fill="#61c4f0"/></g><g><path d="m42.68919 23.02864c.66663.38488 1.20538 1.31806 1.2032 2.08407l-.06529 23.03134c-.00217.76601-.54444 1.07506-1.21107.69019l-36.59166-21.12621c-.66661-.38487-1.20536-1.31805-1.20319-2.08406l.0653-23.03134c.00217-.76601.54444-1.07506 1.21105-.69019z" fill="#208cbd"/></g></g></g><g><g enable-background="new"><g><path d="m31.8272 32.07114c.16785.10378.30055.34017.41599.52683.13273.22304.24223.46627.27054.7024.01701.13671.08033.29979.16114.43283l.08082.12004.12715.1533c.05194.08349.05753.1601.07468.24302l.03425.19329.14443.18966c.12138.13695.26026.23702.3933.35395.07521.0633.15035.13995.23133.21345.08678.06998.1794.12346.27203.17694.08105.04679.1621.09359.24313.14037.09552.05515.1896.11127.28366.16558s.18816.10683.28369.15548c.0696.03548.1392.07097.20879.11115.02882.01664.05765.034.08646.05245l.09826.11673.01124.1265-.09869.03629-.08118-.00024-.14473-.08356-.14471-.08355c-.07526-.04345-.15631-.09024-.23737-.13704-.14471-.09006-.28934-.20031-.43407-.28387-.09263-.05348-.19681-.12049-.28939-.19383l-.13307-.10358-.13315-.07687-.10989-.0967-.17359-.12697-.07519-.0698c-.06941-.06032-.15042-.12011-.2198-.19378l-.06942-.05996-.10404-.11321-.12127-.17665-.13275-.21654-.0346-.07347-.04621-.05994-.05195-.08313-.05194-.09-.0865-.16345-.04031-.10316-.09799-.20298-.06334-.15658-.069-.20648-.0344-.13988-.01718-.06993-.00555-.0896-.04031-.10316-.13285-.18334-.0577-.10019-.06332-.16308-.09799-.20298.0523-.04318.0696-.00645.0464-.00647z" fill="#269dd6"/></g><g><path d="m33.99868 33.11843.11572.08669.06913.15993-.00628.16953-.00602.07642-.04636-.00653-.08699.00291-.00027.09311-.00045.15988c-.00021.0729.00537.14951.01675.22945l-.00049.17287-.05823.0864-.07547.02981-.00045.15952c-.00021.07326-.0004.13967-.00058.20607l-.12727-.10673c-.04036-.04174-.09755-.12247-.14819-.15171-.02188-.01264-.04256-.0159-.06012-.00182l-.11008-.0303-.12145-.11675-.05764-.11967-.04039-.06995-.02297-.08014-.04012-.16306-.04005-.19627.00628-.16953.00615-.12297.06973-.05336.05219-.00312.06958.00041c.01451.00151.03186.01008.05069.02095.01881.01086.03908.02401.05934.0357.01811.01371.0374.02774.05681.03895.02397.01384.04815.02309.07059.02123l.08731-.12274.08718-.06968.1333.02382.01756-.05638.01769-.10329.01175-.05973z" fill="#269dd6"/></g><g><path d="m30.67311 19.69081c.1567.09047.32127.25923.47482.40138.20359.19056.36455.40134.56091.51471.05465.03155.11203.05564.17385.06928.24342.04727.33645-.04542.62015.105.1016.05251.20288.1081.30405.16651.65991.381 1.31086.88045 1.95296 1.38963.83313.65452 1.71307 1.15569 2.51111 1.91647.57832.54717 1.04731.78432 1.63189 1.16846.37621.24395 1.16859.95484.73848 1.31273-.16274.1392-.56768-.20123-.68396-.08834-.10279.1073.61189 2.37997-.16563 1.15042-.40411-.63311-.45499-1.08905-.50555-1.66445-.04937-.00645-.0987-.02807-.14799-.05652-.0549-.0317-.10979-.07206-.16465-.11096-.05556-.04401-.10902-.08427-.16043-.11395-.03428-.01979-.06762-.03506-.10006-.04295-.13328-.03032-.21486.10911-.37136.08527-.26662-.04043-.81606-.53766-.59769.15486.14939.48606.64173.67018.86651 1.15313.25936.55605.12968 1.30104-.33954 1.13677-.28388-.09088.05585.75161-.14173.90395-.24853-.28338-.38054-.75941-.64652-1.02612-.29366-.28908-.41809-.05622-.25021.30885.07494.15641.31796.33648.39845.58286.12076.35638.0501.73527.00875 1.00457-.15361 1.07947-1.00723.3063-1.10886.46596-.11418.21676.39726 1.09315.10478 1.90625-.18521-.1203-.34139-.25711-.50327-.43045-.00049.17287.00481.34908-.0188.50209-.56922-.32864-.33584-.59081-.47805-1.14213-.08031-.30628-.16734-.28314-.28838-.54642-.08064-.18645.00094-.33275-.16676-.48922.01285.21636-.02255.27689-.07172.2485-.26012-.15018-.13738-1.26825-.73518-1.61339-.43644-.25198-.451.3916-.5939.50263-.0988.08285-.27248-.01742-.34823.11886-.09906.1691-.06579.70813-.1071.95756-.38775-.26399-.69207-1.31919-.78365-1.74512-.18835-.83165-.27426-.80467-.559-1.21561-.24253-.35981-.21316-.48962-.53135-.74634-.17357-.14034-.55559-.38078-.71161-.56412-.27241-.32438-.47852-.97638-.86119-.98377.01684.18974.2301.6458.34556.82597.19626.31321.49193.33715.67089.61399.1097.16962.17189.73221.10199.84476-.18059.28904-.62583-.14804-.90409-.17531-.59671-.02685-.29139.07867-1.07021-.8843-.30625-.38358-.4041-.63312-.51877-1.09262-.06306-.25619-.13658-.91172-.30421-1.10177-.09024.36987.4237 2.5363 1.14494 3.1665.4396.38033 1.14637.60836.68715 1.00945-.26741.23891-.40188.62759-.77326.72623-.34237.08899-.69573-.03513-.65676.54044.03899.56221.36176 1.24814.11708 1.65344-.14563.23583-.493.0483-.58088.36411-.05857.20621.04482.5522.02092.79832-.02382.22627-.12262.30226-.19849.47174-.16589.38754.14042 1.19481-.43016.86539-.51655-.31269-.97947-.65298-1.37226-1.18629-.56609-.76677-.87566-2.01803-.84459-2.74656.02495-.62507.64045-.92256.27195-1.84165-.08065-.18646-.32918-.46985-.375-.67632-.03427-.17957.04148-.30934.05347-.44882.10068-1.15734-1.81415-1.44301-2.2732-1.98553-1.1077-1.28925-.64366-2.03585-.6426-2.4098.00374-1.31911.58986-.85729.73393-1.16862.05832-.1196.04714-.26595.15173-.33895.18589-.11933 1.00294.0661.46005-.69378-.11551-.15996-.30674-.21035-.38743-.37696-.0634-.13637-.04544-.33928-.01616-.43589.22018.06061 1.82935 1.04967 1.37915.31656-.06389-.10123-.15837-.16952-.26038-.22841-.08451-.04879-.19891-.10435-.27316-.14722-.1633-.09428-.29278-.20916-.28755-.43822.00686-.3756.49343-.19481.69639-.19765.87775.00332.79084-.49268.67236-.56108-.55149-.88081.08068-.6541-.21485-1.28008-.12104-.25641-.23715-.20343-.23638-.47627.0006-.21293.05266-.1695.17459-.22563.39242-.17613 1.04315.05859 1.65882.41404.33164.19148.65322.41799.91855.63408.25455.20697.49159.45046.5776.79329.08751.35562-.03022.48358.31582.68336.01667.00962.03439.0195.05326.0293.28371.15042.63715.24821.93238.41866.29438.17141.48367.13031.72416.2312.02885.01304.05918.02875.09055.04686.07573.04372.15756.10037.23939.15701.07372.0516.14853.10202.22106.1439.09263.05348.18151.09287.25953.10032.24928.0174.25619-.37191.4651-.43095.08656-.02923.18061-.00312.27768.05292z" fill="#269dd6"/></g></g><g><path d="m17.21438 17.94424.10402.12007.12132.16331.08682.05013.12758-.00623.11596.00695c.06368.03676.13888.09356.18502.18671l-.00623.14968-.09861.00994-.14491-.0038-.11031.04295-.10419-.06016-.06379.00293c-.03382-.00543-.05755-.01226-.07875-.0245-.0297-.01715-.05441-.04515-.09487-.09562l-.13856-.20652-.0344-.13988c-.00558-.0766-.01118-.14635-.00519-.21627l.03491-.03985z" fill="#269dd6"/></g><g><path d="m18.61832 19.74781.08071.15974.07505.11671c.05774.08647.11549.17332.13839.27294.02288.11334.01096.22647.01066.33294l.02852.16974.01117.14634c-.00023.07976.01684.19625-.00075.26598l-.05223.01648-.15052-.0869c-.08682-.05013-.17366-.10027-.26051-.1504l-.15046-.10024-.07504-.12321-.15595-.21656c-.04612-.0935-.06332-.16344-.06309-.2432l.00024-.08625.05229-.03669.08731-.11587c-.03116.04129-.05069.04954-.06172.04317-.0137-.00791-.0143-.03826-.00782-.05693.04445-.04049.07184-.03263.10554-.01317.01038.00599.02135.01341.0336.02048l.09842.05683.08109.02657.018-.2094c.00023-.07976-.01686-.18976.04121-.22274z" fill="#269dd6"/></g><g><path d="m20.29362 17.86327c.08682.05663.15625.1101.22557.20362l.08094.08649.10978.13676c.03218.02472.07056.05158.10942.07402.04499.02598.09063.04618.12796.04966l.05802-.01313.11008.0368.18526.10046-.00032.11296-.00033.11982c-.0176.06973-.1045.04631-.16244.02623l-.07526-.03694-.16225-.04018-.10433-.0136-.04052-.03026-.13305-.11007-.1389-.09357-.13907-.02679-.1333-.02382c-.06338-.14974-.11514-.29963-.16689-.44953-.0172-.06994-.00536-.15636.05853-.1925z" fill="#269dd6"/></g><g><path d="m22.57046 14.47376c-.55932-.1446-.34526-.13312-.48763.19166-.08763.2357-.33101.17508-.42432.36774-.05249.10308-.02411.31937-.11129.38905-.12207.10918-.28967-.08735-.42885-.08095-.09861.00958-.08727.10252-.20892.05904-.03403-.00988-.09142-.03868-.15476-.07525-.1092-.06305-.23603-.14929-.29093-.20195-.08703.01627-.19728.04588-.29584.03561-.11012-.01694-.23163-.10698-.32451-.07385-.1802.0767-.06663.44882-.35016.28512-.40372-.25406-.64626-.61387-.62189-1.02635.03907-.53837.61588-.69844-.08317-1.3472-.28916-.26708-.011-.20625-.15522-.46954-.12587-.21846-.44616-.12101-.56213-.11814-.16817.00954-.93894-.14229-.45914.37475.27566.30496.10417.06178.29967.65921.29232.84637-.06562.34204-.25002.23557.00382.22705-.01621.44828-.18228.3524-.45964-.26537-.39873-.8574-.37781-1.18222-.63005-.59977-1.06322-.03426-1.31017-.10322-.26706-.07152-.98769-.31765-1.07866.04346-.08216.3455.43264.796.66389 1.03615-.07564.08972-.18079.36881.07392.51587.22191.12812.172-.33149.29099-.3717.05806-.02649.1737.08691.22014.06709l.06438-.20937c.05821-.07954.11027-.0296.1684-.08279.10984-.08451.12699-.54808.59986-.27507.36805.2125.26644.53957.47174.66747.13953.08056.15866-.10215.26688-.05269.20486.11683.23549.58746.21831.71924-.53925-.02521.01584.54889.01671.24281.01096.22611-.0418.42231-.01348.66494.02265.1931.05698.35282.04485.53921-.25941.10838-.41565.08252-.42272-.19743-.00519-.21627.34812-.0788.19838-.43204-.32801.03648-.35023-.0258-.627-.18559-.05918-.03417-.11838-.06256-.17245-.07607-.0119.10664.06896.21984.0803.31314.02281.13282-.07018.21252.0918.3393-.02374.16714-.4123.10773-.47504-.15425-.16225-.03367-.45205-.08097-.57981-.01483l-.10474.13256c-.10452.0463-.23172-.08029-.32462-.03415l-.07.14612c-.06391.04299-.16831.04959-.23802.09574-.09293.05985-.18015.14252-.27313.20886-.19758.15234-.61491.09793-.6565.44733-.01613.14107.07108.63641-.11308.53008-.01949-.01125-.04201-.02932-.06801-.05517-.0382-.19278-.27757-.75341-.3051-.78236-.15194-.1756-1.13373-.47231-1.23374-.47263-.31253.00667-.23387 1.38684.07918 1.56758.06649.03839.12284.00224.21215-.01994l.17978-.00935.08166-.16613c.08587-.06415.24037.01085.32449.0807-.01781.14299-.0762.28893-.12868.39203-.03501.07992-.27299.1623-.24432.27863.06308.24969.56726.34775.64181.64383.06306.25619-.18677.43187.01528.74842.139.24107.61318.24747.64188.61712-.02118-.01838-.04389-.03401-.06784-.04784-.21014-.12132-.81595-.10352-1.08333-.91682-.29546-.85501-.27849-.56527-.49634-.82627-.07755-.09574-.13356-.27087-.2554-.34122-.39904-.52379-.19265-.31438-.54378-.51711-.18216-.10517-.21175-.31909-.32193-.48157-.64659-.98063-.24868-.96518-.73153-1.7219-.16163-.25309-.17287-.3796-.20694-.63243-.08977-.64516-.80516-.8729-.58056-1.80102.09395-.41208.4828-.53424.56519-.9595.04699-.2129.03039-.49577.06004-.72518.02363-.15264.03572-.33255.00726-.51527-.05297-.35954-.33371-.62067-.65725-.80746-.37142-.21442-.7992-.3309-1.00357-.38455-.13538-.03153-.28474-.09137-.4344-.17778-.04254-.02456-.08507-.05129-.12732-.08002-.23729-.16374-.27175-.2769-.25366-.5195.05379-.56865.67361-.3507 1.07364-.32651.35806.02128.68093.07792 1.05982.29667.05669.03273.11463.06907.17413.10921.28318.18952.68113.5899 1.00772.77846.09391.05422.18199.09097.25965.10002.07967.11829.18631.20444.30287.27174.23827.13756.51795.19565.69291.28329.02694.0141.05387.02893.0808.04448.22193.12813.44325.30073.66001.44974.05082.03549.09173.07248.12449.0914.03812.02201.06522.01958.0841-.03748.02343-.08661-.02837-.22315-.10938-.2833-.05114-.36932.67857-.0478.85821-.01059.34771.07387.64313.18442 1.00794.35528.53856.25093 1.11761.5321 1.62762.61979 1.00682.18207 2.34626 1.24183 2.44646 1.29968.1705.08749.18666.00583.44891.15724 1.3666.789 1.92233.79415 2.59315 1.53872z" fill="#269dd6"/></g><g><path d="m15.12967 20.08801c.12265.07081.1849.31894.2567.42546.0356.0502.06494.0787.09108.0938.07985.0461.13003-.03084.23912.01696.0085.00418.01657.00848.02425.01291.13301.07679.14353.18878.24731.3304.08663.11689.1562.1238.25453.21383.133.12993.15001.25976.21912.42618.06052.1517.11561.20845.17505.24277.02538.01465.05156.02543.07929.03746.02866.00823.05952.02027.0953.04093.0221.01276.04608.02878.07261.04915.14464.11676.27763.24705.30606.44348.01711.10314-.01211.17954.005.28268.04001.20963.20784.3199.12038.48919-.04078.06972-.1797-.01699-.07594.19618.0258.05358.05749.08525.09239.10539.04311.02489.09112.032.13915.0413.04886.0058.10186.00929.15196.03821.00933.00538.01855.01179.02763.01884.07654.06191.10792.13931.17784.17968.00936.00541.01942.01013.03036.01391.06826.02206.08702-.0188.11446-.00296.01449.00836.03137.03257.05924.08987.03457.07997-.01788.1762.09208.24656.06947.04011.06972-.04651.1277-.04629.0474-.00589.08966.00477.1284.02713.15566.08987.25422.3709.39764.54985.15601.19671.34135.2701.38122.51977.05695.36617-.18679.43872-.31488.62432-.19219.29571-.13583.86795-.29337 1.21006-.11082.22919-.23819.16216-.49885.06516-.30123-.1074-.16876.20911-.21582.44835-.02352.11981-.0706.35904-.15767.39517l-.15654-.01013c-.08126.02611-.10487.17912-.13999.29223-.04678.13964-.02382.21941-.17434.13901-.07469-.04204-.12123-.09276-.16776-.14349-.05176-.05952-.0989-.11132-.14564-.13831-.04581.17454.20275.44457.10944.63723-.08165.16614-.24376.07254-.41744-.02122.01718.0768.04012.16306.03414.23299-.06949-.04012-.14733-.12917-.22287-.17278-.0126-.00728-.02513-.01306-.03753-.01733-.04091.10941.06862.33278.07401.47579-.00047.16601.00538.14951.08037.28607.05193.08999.05743.1933.121.26976.02867.11668-.04108.17618-.08186.2459-.09327.1728-.01303.50543.13694.77854.13849.24009.34078.47004.40963.72957-.04925-.01578-.09843-.03876-.14745-.06706-.26812-.1548-.53007-.47594-.75471-.78023-.16754-.22325-.33503-.45334-.45609-.70289-.31126-.65289-.24576-1.26141-.29621-1.87688-.0504-.62881-.2398-1.31762-.25547-1.92638-.01083-.26616.01303-.50543.0543-.74151.03531-.18638.07073-.4056-.03297-.64549-.08641-.20316-.2599-.36333-.39858-.53666-.30048-.36651-.49053-.82291-.66906-1.25892-.12668-.31317-.25336-.62597-.37426-.9293-.05759-.13952-.00517-.22277.01828-.309.01623-.0463.10734-.1748.00102-.23619-.00846-.00488-.0182-.00942-.02932-.01331-.01083-.27303.04137-.26928.21543-.30905.19149-.04922.23244-.17198.23319-.43832.0003-.10647-.02816-.29605.00685-.37561.03503-.07991.13941-.08616.19751-.126.06971-.04615.11063-.15591.21497-.14917.03112.00098.05813.0097.08287.02398.08117.04686.13777.15437.23528.24646.07547-.02981.04721-.28579.13415-.27572.0175.00294.03392.0088.04937.01772z" fill="#269dd6"/></g><g><path d="m38.49507 34.26196.10982.12992.08094.07999.08099.06701.01128.11279.08678.07035.08103.04678.05796.01322.07532.01709.07535.01025.05212.03009.07518.06329.13884.11342.12711.16014.10974.15662.05781.05977c.06368.03676.10991.09021.16772.15033l.09242.12674.05776.07998.00549.10981.06347.10967.04631.02673.04623.05344.0344.13988c-.0176.06973.00549.10981.01118.14635l.0229.09998.03458.07961c.05191.09684.13868.17333.19061.26332l.05183.12319-.01762.07659c-.01245-.00574-.02466-.01207-.03666-.01899-.04367-.02522-.08451-.05964-.12531-.11465l-.10405-.11972-.04612-.0935-.0634-.13638-.06928-.10687-.06349-.10317c-.05082-.072-.07952-.09291-.09788-.1035-.00457-.00264-.0085-.00455-.01197-.00655-.02171-.01254-.05648-.03839-.08967-.05756-.04646-.02682-.0898-.04064-.08995.01386l-.01767.09643-.08688-.03679-.15635-.07038-.06362-.05661-.03446-.12003c-.08101-.06015-.16201-.11992-.23717-.19694l.04651-.04617.03484-.02001c.00603-.08327.01784-.15635-.00519-.2094l-.08083-.12691-.13279-.20319-.05208-.03658-.08675-.08334-.07506-.10336-.03482.01316-.04636-.01339c-.01735-.01002-.02893-.0167-.04052-.02339-.00736-.00425-.01474-.00851-.02195-.01267-.03237-.01869-.06119-.03967-.07053-.09422l.00024-.08625.01181-.07307c.006-.06992.01189-.09978-.01701-.13671l-.05208-.03657-.06356-.07683-.01713-.09628z" fill="#269dd6"/></g><g><path d="m39.42513 37.54408.16207.10694c.05785.04678.10987.1032.16774.14348l.04612.09314-.00043.15302c-.00021.07327-.00621.14282.00519.21627.00558.07661.01696.15619.02835.22964l.01713.09629c.08678.06348.10398.13342.12107.24305l.02269.17324.04027.11652.04044.05009.01126.11965.01134.0933.08051.23951.0925.09353.04608.10649.08071.16661c.04615.07979.09241.13324.10374.22618.0056.07011-.0004.13967-.00059.20644l-.02356.12629-.00603.08291-.02343.0801-.01171.04638c-.04657.05987-.09893.1229-.1455.18928l-.0815.11272-.0003.10646c-.00025.08661-.06423.15631-.11649.18578l-.16248.03958-.1102.00976-.05809.03984-.04078.06285c-.03493.05322-.05832.1196-.07592.19619-.0176.06973-.08709.03612-.14503.02291l-.15636-.0704-.06953-.02026-.07539.00311c-.05793-.02007-.10439.00661-.16808-.02366l-.10422-.06017-.04602-.12634-.07543.01609-.05807.03334-.05212-.02358-.06359-.06997c-.05777-.07348-.10981-.12341-.15597-.21006l-.06923-.12637-.03459-.0666.00032-.11332c.00023-.07976.00045-.15952.00066-.23278l-.00537-.14951-.07524-.05031-.13328-.03032-.1273-.09338-.05185-.1167-.01132-.0998-.05176-.1499-.11574-.07983-.28952-.14727-.16222-.05389-.13319-.05665-.16225-.04699-.05225.02297-.08699.00327-.09861.01609-.13896-.07336c-.03471-.03197-.07777-.05936-.11919-.08327-.0276-.01593-.05445-.03035-.0776-.04372l-.07532-.0236c-.11021.01662-.12768.03979-.16246.03308l-.14481-.05035-.09848-.03698-.09838-.07018-.04604-.11985.01771-.10979-.12717-.13993-.04027-.11652-.00555-.08309.0004-.13967.01775-.12965.00024-.08662.05836-.13295.05834-.11959c.04078-.06972.05264-.16264.06451-.25592.006-.07642.00047-.16637.0007-.24613l.00053-.18622c.01183-.08644.10466-.10622.16269-.11935.07541-.0096.15076.00065.23768.02408.15062.04683.30693.13708.41153.05107l.11634-.12622.06981-.08622c.06379-.00293.13334.01047.2086.05392.01685.00972.03275.01891.04796.02769.06841.0395.12311.06674.18956.05594.06962-.01294.06989-.10606.1164-.15258.05817-.06618.13932-.05259.22629-.05588.06383-.00978.11598.00045.19124.0439l.12734.08002c.06372.02341.13334.01047.17404-.03255l.15097-.07297c.04644-.01982.07551-.0428.14498-.0027.04017.0203.08326.04229.12686.06746.06321.03649.1275.0794.18568.13287.08099.06664.10401.12656.10378.20632l-.03505.09327c-.02337.05952-.0236.13964-.01803.22275l.03444.11966.08675.08334.02304.05996c.03452.09331.07486.18348.1326.26995l.14458.13661.02909-.03635.05811-.04634c.04065-.01666.07541-.00996.0756-.07637l.00056-.19958-.02265-.1931-.00534-.15635z" fill="#269dd6"/></g></g></g><g><g><path d="m7.40721 23.5563c.0885.05109.17548.11826.26094.20159.08694.08243.16203.17331.22529.26925l-.12448.13013c-.04118-.06615-.09566-.13159-.16491-.19874-.07073-.068-.13854-.1207-.20639-.15987s-.12247-.05542-.16534-.04793c-.04434.00489-.06513.04216-.06531.10488-.00018.06437.02033.12549.06448.18497.04268.05853.13403.14867.27552.26942.14002.11989.24607.23537.31814.34837.0706.11205.10719.2367.10679.37565-.00039.13729-.04643.2228-.13813.25644-.09022.03284-.20834.00875-.35585-.07641-.21536-.12434-.40539-.32063-.57159-.58634l.1466-.11744c.13826.21909.28262.37198.4316.45799.07523.04343.13428.05892.17864.04714.04436-.01004.06662-.04637.0668-.10743.00017-.06106-.02034-.12043-.06155-.17812-.0412-.05778-.11339-.13169-.21362-.21673-.1017-.08589-.17833-.1573-.22989-.20918-.05304-.05438-.09867-.11122-.13987-.1724-.08093-.11804-.12045-.24954-.12004-.3953.00042-.14741.04647-.23291.13962-.2589.09167-.02517.20684.00061.34255.07896z" fill="#fff"/></g><g><path d="m9.36892 24.72785-.00252.88647c-.00064.22713-.05572.37025-.16522.43091-.1095.05901-.2498.03916-.41943-.05877-.1711-.09879-.30958-.2399-.4184-.42495-.1088-.1867-.16288-.39284-.16224-.61997l.00251-.88646.23158.1337-.00248.8746c-.00041.1441.03172.27805.09343.39861.06319.11966.14862.21144.2563.27361s.19335.06917.25554.0219c.06367-.04817.09497-.1455.09538-.2896l.00248-.8746z" fill="#fff"/></g><g><path d="m10.52987 26.40496.35828.78235-.29501-.17033-.32743-.7204-.30534-.17629-.0015.5305-.23158-.13371.00448-1.57973.51184.29551c.20946.12093.3598.24854.44954.38187.08975.13323.1351.29021.13459.46981-.00073.25932-.10002.36667-.29787.32042zm-.2797-.36015c.13128.07579.22133.10401.26866.08548.04734-.0202.07115-.08115.07144-.18451s-.02458-.1891-.07316-.25445c-.04709-.06624-.13407-.13516-.25944-.20755l-.29501-.17032-.0016.56444z" fill="#fff"/></g><g><g><path d="m12.33238 26.44472-.00448 1.57972-.25224-.14562-.77555-1.60224-.00327 1.15258-.23158-.1337.00448-1.57973.23158.13371.79465 1.64044.00335-1.17972z" fill="#fff"/></g><g><path d="m13.3767 27.04766.60178 1.92975-.24929-.14393-.13616-.43847-.68885-.39771-.1382.28007-.24781-.14307.61073-1.22971zm-.37742.75834.50005.2887-.24745-.79479z" fill="#fff"/></g><g><path d="m15.72499 28.40345-.00447 1.57972-.23159-.1337.0035-1.23388-.48398.81896-.1298-.07494-.47481-1.37251-.00349 1.23387-.23159-.1337.00448-1.57973.36139.20865.41315 1.23173.4173-.75227z" fill="#fff"/></g><g><path d="m17.07172 29.18098-.00071.25086-.73311-.42326-.00118.41868.65787.37982-.00067.23734-.65788-.37982-.00119.42199.7567.43688-.00071.25086-.98976-.57144.00448-1.57972z" fill="#fff"/></g></g></g><g><g><path d="m8.84901 20.53523c.13928.30269.20949.64231.20843 1.01733-.00106.37517-.07297.63261-.21351.77387-.14053.14379-.3518.13426-.63382-.02857-.28424-.1641-.49487-.39816-.63414-.70349-.13926-.3028-.20727-.64102-.2062-1.0162.00106-.37503.07076-.63387.21128-.77501.14055-.14378.35181-.13176.63604.03235.28202.16284.49266.3944.63192.69972zm-.25751 1.39505c.08041-.11719.12098-.30842.12174-.57644.00076-.26788-.0386-.50525-.11808-.71475-.07949-.20688-.20583-.36163-.37904-.46164-.17542-.10128-.30224-.09269-.38486.0231-.08263.1159-.12321.30713-.12396.57251s.0386.5029.12031.71356c.08169.21078.20805.36554.38347.46682.17321.10001.30002.09141.38042-.02316" fill="#fff"/></g><g><path d="m10.07337 20.96353-.00674 2.37806-.33309-.19231.00573-2.0209-.4197-.24231.00101-.35717z" fill="#fff"/></g><g><path d="m11.23491 21.57784c.17321.1.32404.24837.45469.45165.12844.19937.19457.4088.19396.62573-.00035.12501-.02954.22325-.08538.30347-.05583.07759-.15616.16276-.30544.25295l-.48792.28571.93932.54232-.00109.38527-1.41453-.81668.00096-.33931.62827-.36317c.14037-.08258.24065-.15239.30087-.21219.06022-.0573.08936-.13505.08963-.23196.00027-.09441-.03059-.19404-.0948-.29753-.06199-.10221-.14184-.18159-.23955-.238-.16876-.09744-.31117-.07996-.42276.05501l-.28149-.34916c.09149-.10567.19175-.16537.30079-.18159.11126-.01494.25126.02748.42447.12748z" fill="#fff"/></g><g><path d="m13.5442 22.96741-.00089.31384-.50146.35457c.19096.11524.33732.2688.44354.46047.10622.1943.15907.38067.15856.56189-.00069.2424-.0723.39269-.21702.4471-.14251.05583-.32702.01822-.5513-.11127s-.44611-.33924-.66105-.62945l.1497-.23818c.1706.23647.34806.40534.53237.51175.11991.06923.21993.09633.29784.07489.0779-.01895.11815-.09028.11849-.21017.00035-.12252-.0438-.24507-.13019-.36664-.0864-.12393-.20621-.22888-.36165-.31862-.0755-.04359-.15104-.07445-.22217-.09l.00087-.30608.48147-.36362-.74835-.43206.00101-.35716z" fill="#fff"/></g><g><path d="m17.50356 25.25335-.75237.984.49298.28463.00124-.43622.33309.19231-.00123.43622.24871.14359-.00103.36243-.24871-.1436-.0017.59957-.33309-.19231.0017-.59957-.88603-.51155.001-.35218.76349-.98784z" fill="#fff"/></g><g><path d="m19.38443 26.33663-.00103.36243-.87492-.50514-.00167.58683c.08677-.0062.18677.02602.29779.09012.1932.11154.35955.27401.49907.49003.13953.21353.21007.43563.20942.6653s-.07447.37618-.22145.44219c-.14699.06586-.32707.03857-.54026-.08451-.27758-.16026-.49933-.39561-.66527-.70607l.18735-.1833c.01549.02683.03765.06014.06422.101s.08199.10613.16404.19441c.08204.09077.17303.16382.27295.22151.09771.05641.18885.07575.26899.05297.08013-.02265.1226-.09533.12298-.22795.00037-.13013-.04377-.25531-.12794-.37546-.0864-.12144-.19511-.21997-.32613-.29561s-.25547-.11172-.3756-.1044l-.14605-.26833.00324-1.14321z" fill="#fff"/></g><g><path d="m21.15347 28.42127c.12394.21465.18559.4394.18493.67418-.00067.23479-.06783.38515-.20369.4498-.13586.06467-.30705.03737-.51136-.08058-.33086-.19102-.5591-.49403-.68471-.90642-.0705-.23761-.10543-.47755-.10473-.72244.00069-.24504.02348-.43627.06836-.57399.04711-.13642.10965-.23065.18763-.2802.15597-.09644.34499-.07938.56928.05011.22427.12948.42613.32533.60776.59118l-.17626.19471c-.04429-.06898-.10635-.14573-.18175-.22766-.07539-.07932-.14417-.1369-.20191-.17023-.18433-.10642-.31997-.1132-.40698-.02032-.08703.09299-.13198.2613-.13489.50241.04903-.0356.12026-.05329.21368-.05564.09343-.00222.19566.02866.30891.09404.1843.10641.33954.2676.46573.48105zm-.23788.74443c.07572-.03547.11598-.11192.11633-.23444.00034-.11988-.03491-.24506-.10573-.37025-.07081-.12784-.16617-.22381-.2861-.29305-.11991-.06923-.21995-.08857-.3001-.06079-.08014.03041-.12041.10685-.12075.22674-.00035.12252.03934.25026.11459.38051.07747.13166.17505.23141.29053.29808.11769.06795.21327.08485.29123.0532" fill="#fff"/></g><g><path d="m23.08841 28.47776-.00101.35717-.88288 1.51448-.38416-.2218.86065-1.51968-.73503-.42437-.0009.31896-.31533-.18206.00194-.68374z" fill="#fff"/></g><g><path d="m27.82861 32.28791c.19722.2596.29657.52136.29582.78425-.00058.20404-.07212.334-.21464.39231-.14251.05569-.32924.01694-.56019-.1164-.23093-.13333-.41727-.30997-.559-.52977-.14172-.22242-.2123-.43442-.21172-.63847.00074-.26289.10125-.40926.30152-.43937-.14838-.22626-.22121-.4293-.22069-.613.00051-.18121.06755-.29587.19892-.3401.13359-.04297.29807-.00942.49792.10597.19986.11539.36623.27286.49692.4684.13289.1968.19908.38838.19857.56959-.00051.18371-.07648.30083-.22343.35659zm-.18682.77903c.09123-.01374.13591-.08252.13627-.20751.00035-.12516-.04156-.24642-.12797-.36536-.08642-.11631-.18624-.20973-.29729-.27384-.1088-.06281-.20883-.08477-.29562-.06847-.0868.01894-.13149.09019-.13185.21536-.00035.12499.046.24633.13687.36521.08862.12022.18624.20973.28838.2687.10216.05897.19996.08229.29121.06591m-.54843-1.9089c-.07346.0265-.11146.08901-.11174.18855-.00029.10201.03723.20798.1103.31923.07531.11504.1618.19824.26173.25594.10215.05898.18885.07577.26234.04664.07569-.02536.11146-.08902.11175-.19103.00028-.09954-.03501-.20437-.11031-.31675-.07309-.11126-.1596-.19435-.26175-.25333-.09994-.05769-.18662-.07459-.26232-.04925" fill="#fff"/></g><g><path d="m29.84886 32.84864c.07051.23497.10542.4749.10472.71979-.0007.24754-.02348.43629-.07057.57272-.04488.13758-.10742.23181-.18764.2827-.15375.09524-.34276.08067-.56705-.04882-.22427-.12949-.42612-.32783-.60775-.59368l.17626-.19469c.04429.07161.10412.14704.18175.22765.07539.0793.14194.13811.2019.17273.18431.10641.31997.11317.40699.01768.08701-.09286.13197-.25853.13486-.49966-.05124.03433-.12246.05187-.21367.0555-.09343.00222-.19565-.03115-.3089-.09653-.18653-.1077-.34178-.26637-.46573-.48104-.12396-.21217-.18783-.43817-.18716-.67295.00067-.23466.07005-.38373.20591-.44839.13586-.0648.30483-.03881.51134.08043.33089.19101.55914.49154.68474.90656zm-.40358.34716c.08016-.0304.12042-.10436.12077-.22673.00034-.12002-.03712-.24635-.11459-.37801-.07526-.1329-.17284-.23278-.28831-.29945s-.20883-.08215-.28457-.0467c-.07572.03559-.11376.11333-.1141.23571-.00035.12252.03266.2464.10126.36781.06861.12392.16176.22111.28167.29034.11769.06795.21773.08744.29787.05703" fill="#fff"/></g><g><path d="m31.78355 33.7765c.13928.30269.20727.64102.2062 1.01605-.00106.37517-.07074.6339-.21128.77516-.14053.14379-.35402.13298-.63605-.02985-.28201-.16282-.49266-.39689-.63191-.70221-.13926-.3028-.20949-.64231-.20843-1.01748.00106-.37503.07299-.63258.21351-.77373.14053-.14379.35181-.13176.63382.03106.28202.16283.49489.39568.63414.701zm-.25751 1.39505c.08041-.11719.12098-.30841.12174-.57644.00076-.26788-.0386-.50525-.11808-.71475-.07949-.20688-.20583-.36163-.38127-.46292-.17319-.09999-.30001-.09141-.38263.02438-.08264.1159-.12543.30584-.12618.57122s.04083.50418.12254.71485c.08169.21078.20805.36554.38124.46553.17544.1013.30224.0927.38264-.02187" fill="#fff"/></g><g><path d="m33.00569 34.20351-.00674 2.37806-.33087-.19103.00573-2.02089-.4197-.24232.00101-.35716z" fill="#fff"/></g><g><path d="m35.79051 35.75503c.17321.1.32404.24837.45469.45165.13066.20065.19457.4088.19396.62573-.00035.12501-.02955.22324-.08316.30475-.05583.07759-.15838.16148-.30766.25167l-.4857.28699.9371.54104-.00109.38527-1.41454-.81668.00096-.33931.63049-.36189c.14036-.08258.24065-.15239.29865-.21347.06022-.0573.08936-.13505.08963-.23196.00027-.09441-.03059-.19404-.09259-.29625-.06421-.10349-.14405-.18287-.23954-.238-.17099-.09872-.31117-.07996-.42498.05373l-.28149-.34916c.09149-.10567.19175-.16537.30301-.18031.10904-.01623.24905.0262.42226.1262z" fill="#fff"/></g><g><path d="m38.10201 37.14587-.00089.31384-.50146.35457c.18874.11396.33733.2688.44133.45919.10843.19558.16128.38195.16077.56317-.00069.2424-.07451.39141-.21701.44711-.14473.05455-.32924.01694-.55352-.11255s-.4439-.33796-.65882-.62816l.1497-.23818c.16837.23518.34584.40406.53015.51047.12213.07051.21992.09633.29784.07489.08012-.01766.11814-.09028.11848-.21017.00035-.12251-.04157-.24378-.12797-.36535-.08862-.12521-.20843-.23016-.36165-.31862-.07772-.04487-.15104-.07444-.22217-.09l.00087-.30608.48147-.36362-.74836-.43206.00101-.35717z" fill="#fff"/></g><g><path d="m39.62758 38.02666-.75458.98272.49519.2859.00124-.43621.33087.19103-.00124.43621.24871.1436-.00103.36242-.2487-.14359-.00171.59957-.33087-.19103.0017-.59957-.88824-.51283.00099-.35218.76572-.98656z" fill="#fff"/></g><g><path d="m41.50623 39.10866-.00103.36243-.87271-.50386-.00166.58683c.08677-.0062.18454.02474.29557.08884.1932.11154.35955.27401.49907.49003.14174.21481.21007.43563.20942.66529-.00065.22967-.07447.37619-.21923.44347-.14699.06586-.32708.03857-.54026-.08451-.27758-.16026-.49934-.39562-.66527-.70607l.18735-.1833c.0155.02684.03543.05886.06422.101.02435.03958.07978.10485.16404.19441.08204.09077.17303.16382.27073.22023.09993.0577.18885.07576.26899.05297.08236-.02136.1226-.09533.12298-.22795.00037-.13013-.04154-.25402-.12794-.37546-.0864-.12143-.19289-.21869-.32391-.29433-.13324-.07692-.25769-.113-.3756-.1044l-.14826-.2696.00324-1.14321z" fill="#fff"/></g></g></g><g><g><path d="m23.27598 24.44938.02806.2178-1.59815-.92269.00377-1.32943 1.59646.92172-.0292.18861c-.02067.14697-.0413.28627-.04172.43524-.00049.17217.01931.32703.04078.48875z" fill="#fee182"/></g><g enable-background="new"><g><path d="m26.64433 26.89023.02044-.06959 1.63688.94506-.00245.86307c-.00131.46058-.30373.63289-.70454.40148l-1.86759-1.07825.20263-.07294c.32926-.12012.57483-.46289.71463-.98883z" fill="#fee182"/></g><g><path d="m23.49496 23.36241c.19326-.93505.81337-1.30776 1.50383-.90913.72075.41613 1.33005 1.48308 1.5224 2.65442.04811.28363.0693.54204.06859.7897-.0008.28062-.02338.51564-.07284.70802-.19841.96511-.81177 1.33393-1.53252.91781-.69046-.39864-1.3064-1.49856-1.49536-2.66984-.04655-.23813-.06943-.5014-.06862-.78581.00074-.25931.02502-.49148.07452-.70517z" fill="#fee182"/></g><g><path d="m26.70579 26.63118.02921-.18673c.02064-.1412.04125-.27462.04172-.43913.00041-.14509-.01934-.31549-.0408-.48288l-.02636-.22069 1.59646.92172-.00377 1.32943z" fill="#fee182"/></g><g><path d="m26.64807 24.97359c-.13808-.67869-.37923-1.29281-.69834-1.77938l-.20155-.30828 1.86085 1.07436c.40081.23141.70126.75379.69996 1.21436l-.00237.8359-1.64025-.947z" fill="#fee182"/></g><g><path d="m27.8756 23.94943c.36507.33675.62164.86871.62032 1.33315l-.00979 3.45411c-.00053.18572-.04311.33369-.11593.43698-.01356.0213-.02543.04158-.04235.05895-.01523.01833-.03214.03181-.04906.04917-.12846.09442-.30058.11912-.50111.04993-.06067-.02147-.11962-.04973-.18363-.08668l-5.19355-2.9985c-.09431-.05445-.18353-.12152-.26764-.1991-.36339-.33966-.61826-.87065-.61695-1.335l.00979-3.45411c.0005-.17805.03802-.32306.10579-.42938.01356-.02119.02879-.03952.04572-.05888.01522-.01634.03215-.03571.05075-.04821.14371-.11861.35459-.13062.59549-.02056.03031.01551.06064.03112.09263.0496l5.19355 2.9985c.03537.02042.07074.04274.10439.06804.05726.03885.10942.08252.16158.13199zm-4.38654.90395c.18896 1.17129.8049 2.27121 1.49536 2.66984.72075.41613 1.33412.0473 1.53252-.91781.04946-.19238.07204-.4274.07284-.70802.0007-.24766-.02048-.50607-.06859-.7897-.19235-1.17134-.80164-2.23829-1.5224-2.65442-.69046-.39864-1.31057-.02592-1.50383.90913-.04951.2137-.07379.44586-.07452.70517-.0008.28441.02207.54769.06862.78581m4.81014 3.77539.00245-.86307-1.63688-.94506-.02044.06959c-.1398.52593-.38537.86871-.71463.98882l-.20263.07295 1.86759 1.07825c.40082.23141.70324.0591.70454-.40148m-5.89808-2.59702 1.86254 1.07534-.19481-.3024c-.3191-.49243-.56862-1.13273-.70501-1.81035l-.01998-.09103-1.63857-.94603-.00245.86307c-.00131.46059.29916.98098.69828 1.2114m5.90551-.02119.00237-.8359c.0013-.46057-.29914-.98295-.69996-1.21436l-1.86085-1.07436.20155.30828c.31911.48657.56026 1.10069.69834 1.77938l.01831.08997zm-6.594-4.64431-.00237.8359 1.63857.94603.02043-.06761c.13806-.50381.38699-.84842.70613-.9685l.20094-.0759-1.86085-1.07436c-.3991-.23043-.70154-.05613-.70285.40444m-.00297 1.04881-.00377 1.32943 1.59815.92269-.02806-.2178c-.02147-.16172-.04127-.31658-.04078-.48875.00042-.14897.02105-.28827.04172-.43524l.0292-.18861zm6.59259 5.13784.00377-1.32943-1.59646-.92172.02636.22069c.02146.1674.04121.3378.0408.48288-.00047.16451-.02108.29793-.04172.43913l-.02921.18673z" fill="#40545d"/></g></g><g><path d="m27.77768 29.33172c.20053.06919.37265.04448.50111-.04993-.12511.10023-.29891.12207-.50111.04993z" fill="#fee182"/></g><g><path d="m22.40112 26.03175c-.39911-.23043-.69958-.75081-.69828-1.2114l.00245-.86307 1.63857.94603.01998.09103c.13639.67762.38591 1.31791.70501 1.81035l.19481.3024z" fill="#fee182"/></g><g><path d="m23.36926 23.08057-.02043.06761-1.63857-.94603.00237-.8359c.00131-.46057.30375-.63487.70286-.40444l1.86085 1.07436-.20094.0759c-.31914.12008-.56807.46469-.70614.9685z" fill="#fee182"/></g><g><path d="m21.51592 24.71244c-.00132.46435.25356.99533.61695 1.335-.36845-.3387-.63008-.86769-.62878-1.32636l.00979-3.45411c.00052-.18383.04311-.33171.11762-.43801-.06776.10631-.10528.25132-.10579.42938z" fill="#fee182"/></g></g><g><g><path d="m30.15232 20.65914c.24618.14213.45275.3657.61799.67172l-.17157.11541c-.0767-.12691-.14833-.2273-.21491-.29926-.06829-.07284-.14689-.13402-.23921-.18732-.1607-.09278-.29593-.11182-.40569-.05509-.10976.05662-.1649.1783-.16542.3629-.00053.18662.05374.37349.16109.56134.10907.18691.23711.32382.38584.40969.09232.0533.17272.082.2395.08522.06678.00109.13704-.01536.21077-.05147l.17209.304c-.16815.11931-.37361.10691-.61467-.03226s-.44083-.34301-.59932-.61354c-.15849-.26861-.23649-.53996-.23572-.81302.00077-.27114.08176-.45262.24469-.5395.16294-.08902.36664-.06194.61454.08118z" fill="#35484f"/></g><g><path d="m31.68624 22.00721.00088.29568-.01368-.00789c-.12651-.07304-.22068-.08022-.28591-.02341-.06352.0578-.09637.16673-.09682.32586l-.00169.59717-.25473-.14707.00395-1.39481.25473.14707-.0008.28094c.04128-.06275.0979-.10286.16815-.11739.07198-.01556.14557-.00254.22592.04385z" fill="#35484f"/></g><g><path d="m33.06921 23.45111-.00057.20037-.95055-.5488c.00655.10605.04564.20933.12069.31564.07334.1033.15873.18409.25447.23937.15216.08785.26857.09997.34752.03538l.14479.2685c-.13037.08027-.30155.05809-.51012-.06233-.17096-.09871-.31609-.24741-.43369-.44511-.11931-.19881-.17865-.40814-.17803-.62823.00062-.21806.06095-.35831.18441-.41695.12175-.05952.26383-.04048.42966.05527.16412.09476.30415.23271.42008.41377.11423.18007.17191.37072.17134.57312zm-.95047-.57832.69582.40173c.00034-.11788-.0319-.22499-.09497-.32439-.06308-.0994-.14163-.17624-.23566-.23054-.09403-.05429-.17789-.07121-.25159-.04683-.07542.02137-.11328.08812-.1136.20003" fill="#35484f"/></g><g><path d="m34.26073 22.96228.25473.14707-.00552 1.94487-.25473-.14707.0006-.21018c-.09447.09897-.23317.09555-.41267-.00809-.15387-.08883-.28703-.23062-.4012-.4303-.11417-.19978-.17009-.40714-.16948-.62329.00061-.21604.05923-.35535.17756-.41695.11662-.06248.25699-.04442.41769.04836.16241.09377.29212.24733.39084.46179zm-.10535 1.52128c.07034-.04405.10655-.13331.10692-.26494.00038-.13354-.03521-.26437-.10505-.39511-.06985-.12893-.1552-.22347-.25607-.28171-.10258-.05922-.1899-.06437-.26366-.01836-.07206.04882-.10999.1372-.11036.27074-.00038.13355.03692.26536.11191.39128.07328.12686.16035.21844.26122.27668s.18475.06536.25509.02142" fill="#35484f"/></g><g><path d="m34.87922 25.26742.00395-1.39481.25645.14806-.00396 1.39481z" fill="#35484f"/></g><g><path d="m35.01373 23.72573c-.04445-.02566-.08201-.06507-.11439-.12124-.03067-.05507-.04764-.1081-.0475-.15926.00014-.05106.01736-.08435.04824-.10196.03259-.01855.07026-.01452.1147.01114.04445.02566.08201.06507.11439.12113.03067.05315.04765.10618.0475.15724-.00014.05116-.01736.08445-.04824.10399-.03259.01864-.07024.01462-.1147-.01104z" fill="#35484f"/></g><g><path d="m35.82299 23.97837-.00124.43612.3197.18458-.00067.23575-.3197-.18458-.00201.70727c-.00019.06672.01505.12868.04571.18577.03066.05699.07335.10138.12806.13297s.10609.02976.15755-.0016l.1037.26847c-.08916.04097-.18845.02891-.29787-.03426-.1077-.06218-.20161-.15964-.2783-.29049-.07497-.12987-.11397-.26853-.11355-.41582l.00198-.69938-.15216-.08785.00067-.23576.15215.08785.00124-.43612z" fill="#35484f"/></g><g><path d="m37.87637 25.11863c.2479.14312.45276.3657.618.67172l-.17157.11541c-.07499-.12592-.14663-.22632-.21492-.29927-.06658-.07185-.14689-.13402-.2375-.18633-.16071-.09278-.29764-.11281-.4074-.05608-.10975.05663-.16489.1783-.16542.3629-.00053.18662.05374.3735.1628.56232.10735.18592.23711.32382.38585.40969.09232.0533.17272.082.23949.08521.06678.00109.13704-.01536.21077-.05146l.17209.30401c-.16986.11832-.37532.10592-.61637-.03325-.23935-.13819-.43913-.34203-.59761-.61256-.15849-.26861-.2382-.54095-.23743-.81401.00077-.27114.08348-.45163.2464-.53851.16123-.08999.36664-.06193.61282.08021z" fill="#35484f"/></g><g><path d="m39.60998 26.70593c.09037.13481.13445.2921.13395.46891l-.00255.89975-.23251-.13424.00053-.18662c-.10126.07925-.23481.07101-.40406-.02671-.12651-.07304-.23068-.1745-.31252-.30235-.08354-.13097-.12426-.26464-.12387-.40213.00039-.13557.04513-.21404.13422-.22943.08738-.01851.20715.01722.3576.10408l.32996.1905.00015-.05308c.00052-.1846-.08812-.32822-.26762-.43186-.11283-.06515-.22922-.08516-.35258-.0619l-.11231-.24984c.1474-.04866.31514-.01875.50148.08883.14361.08292.25975.19128.35013.32609zm-.12187.70297.00034-.11788-.28721-.16582c-.18464-.1066-.27715-.0951-.27753.03855-.00019.06874.0236.13361.06966.19565.04435.06105.10755.11718.18961.16456.08035.04639.15224.06035.21393.04484.05998-.01854.09095-.07155.0912-.1599" fill="#35484f"/></g><g><path d="m40.74894 27.23956.00087.29568-.01368-.0079c-.12651-.07304-.22068-.08022-.2842-.02242-.06523.05682-.09637.16673-.09682.32586l-.00169.59717-.25644-.14806.00396-1.39481.25644.14806-.0008.28094c.03957-.06373.09619-.10385.16644-.11838.07197-.01556.14727-.00154.22592.04386z" fill="#35484f"/></g><g><path d="m41.91469 27.3813.25473.14707-.00552 1.94487-.25473-.14707.0006-.21018c-.09446.09897-.23145.09654-.41267-.00809-.15387-.08883-.28703-.23063-.4012-.4303-.11417-.19978-.17009-.40714-.16948-.62329.00061-.21604.05923-.35535.17756-.41695.11662-.06248.25699-.04442.41769.04836.16241.09377.29212.24733.39083.46179zm-.10535 1.52128c.07034-.04405.10655-.13331.10692-.26494.00038-.13354-.03521-.26437-.10505-.39511-.06984-.12893-.1552-.22347-.25607-.28171-.10258-.05922-.1899-.06437-.26366-.01835-.07206.04882-.10998.1372-.11036.27074-.00038.13355.03692.26536.11191.39128.07327.12686.16035.21844.26122.27668.10087.05823.18476.06535.25509.02141" fill="#35484f"/></g></g></svg>