<svg id="Layer_1" enable-background="new 0 0 50 50" height="512" viewBox="0 0 50 50" width="512" xmlns="http://www.w3.org/2000/svg"><g><g enable-background="new"><g><path d="m19.01958 22.81189.01396 4.92366 5.481 3.18521-.01396-4.92366z" fill="#d9ae6d"/></g><g><path d="m21.15522 24.05583.00303 1.06981.37828.21983.43438.25243-.00304-1.06981z" fill="#56707b"/></g><g><path d="m24.50058 25.9971.01396 4.92366 6.46588-3.73308-.01396-4.92366z" fill="#fecd82"/></g><g><path d="m19.01958 22.81189 5.481 3.18521 6.46588-3.73308-5.481-3.18521z" fill="#ffd69a"/></g><g><path d="m21.15522 24.05583.81265.47226 6.46589-3.73308-.81265-.47227z" fill="#778c95"/></g></g></g><g><g enable-background="new"><g><path d="m20.12831 1.89026-.6471-.37605.09571 31.92344.64709.37605z" fill="#485f69"/></g><g><path d="m21.01932 1.37583-.64709-.37604-.89102.51442.6471.37605z" fill="#56707b"/></g><g><path d="m20.12831 1.89026.0957 31.92344.89102-.51443-.09571-31.92344z" fill="#40545d"/></g></g><g><g><g enable-background="new"><g><path d="m38.30733 12.00994-.64709-.37605.09571 31.92344.64709.37605z" fill="#485f69"/></g><g><path d="m39.19835 11.49551-.64709-.37604-.89102.51442.64709.37605z" fill="#56707b"/></g><g><path d="m38.30733 12.00994.09571 31.92344.89102-.51443-.09571-31.92344z" fill="#40545d"/></g></g></g></g><g><g><g><path d="m29.8517 45.78864-18.25474-10.11997.00241.85239 18.25474 10.11997z" fill="#cb4844"/></g><g><path d="m37.7357 41.23915-18.25474-10.11997-7.884 4.54949 18.25474 10.11997z" fill="#ee5550"/></g></g><g><path d="m29.85653 45.78864 7.87917-4.54949-.00242.8524-7.87917 4.54948z" fill="#b4403c"/></g></g><g><g><g><path d="m29.8517 37.54171-18.25474-10.11996.00241.85239 18.25474 10.11997z" fill="#cb4844"/></g><g><path d="m37.7357 32.99223-18.25474-10.11997-7.884 4.54949 18.25474 10.11996z" fill="#ee5550"/></g><g><g enable-background="new"><g><path d="m13.38525 23.11099.01281 4.52053 5.03224 2.92442-.01282-4.52053z" fill="#d9ae6d"/></g><g><path d="m15.34603 24.25308.00278.98222.34731.20183.39881.23176-.00278-.98222z" fill="#56707b"/></g><g><path d="m18.41748 26.03541.01282 4.52053 5.93649-3.42743-.01282-4.52053z" fill="#fecd82"/></g><g><path d="m13.38525 23.11099 5.03223 2.92442 5.93649-3.42743-5.03224-2.92442z" fill="#ffd69a"/></g><g><path d="m15.34603 24.25308.74612.43359 5.93649-3.42743-.74612-.4336z" fill="#778c95"/></g></g></g></g><g><path d="m29.85653 37.54171 7.87917-4.54948-.00242.85239-7.87917 4.54949z" fill="#b4403c"/></g></g><g><g><g><path d="m29.8517 29.29479-18.25474-10.11996.00241.85239 18.25474 10.11997z" fill="#cb4844"/></g><g><path d="m37.7357 24.74531-18.25474-10.11997-7.884 4.54949 18.25474 10.11996z" fill="#ee5550"/></g><g><g enable-background="new"><g><path d="m24.46732 20.65242.01282 4.52053 5.03224 2.92441-.01282-4.52053z" fill="#d9ae6d"/></g><g><path d="m26.42811 21.7945.00278.98222.34731.20184.39881.23176-.00279-.98222z" fill="#56707b"/></g><g><path d="m29.49956 23.57683.01282 4.52053 5.93648-3.42743-.01281-4.52053z" fill="#fecd82"/></g><g><path d="m24.46732 20.65242 5.03224 2.92441 5.93649-3.42743-5.03224-2.92442z" fill="#ffd69a"/></g><g><path d="m26.42811 21.7945.74611.4336 5.93649-3.42744-.74612-.43359z" fill="#778c95"/></g></g></g></g><g><path d="m29.85653 29.29479 7.87917-4.54948-.00242.85239-7.87917 4.54949z" fill="#b4403c"/></g></g><g><g><g><path d="m29.8517 21.04787-18.25474-10.11997.00241.8524 18.25474 10.11997z" fill="#cb4844"/></g><g><path d="m37.7357 16.49838-18.25474-10.11996-7.884 4.54948 18.25474 10.11997z" fill="#ee5550"/></g></g><g><path d="m29.85653 21.04787 7.87917-4.54949-.00242.8524-7.87917 4.54949z" fill="#b4403c"/></g></g><g enable-background="new"><g><path d="m11.35303 6.95667-.64709-.37605.09571 31.92344.64709.37604z" fill="#485f69"/></g><g><path d="m12.24405 6.44224-.64709-.37605-.89102.51443.64709.37605z" fill="#56707b"/></g><g><path d="m11.35303 6.95667.09571 31.92343.89102-.51442-.09571-31.92344z" fill="#40545d"/></g></g><g><g enable-background="new"><g><path d="m13.28471 6.4474.01282 4.52053 5.03223 2.92441-.01281-4.52052z" fill="#d9ae6d"/></g><g><path d="m15.24549 7.58948.00279.98222.34731.20184.39881.23176-.00279-.98222z" fill="#56707b"/></g><g><path d="m18.31695 9.37182.01281 4.52052 5.93649-3.42743-.01281-4.52053z" fill="#fecd82"/></g><g><path d="m13.28471 6.4474 5.03224 2.92442 5.93649-3.42744-5.03224-2.92441z" fill="#ffd69a"/></g><g><path d="m15.24549 7.58948.74612.4336 5.93649-3.42743-.74612-.4336z" fill="#778c95"/></g></g></g><g><g enable-background="new"><g><path d="m18.87602 9.53199.01281 4.52053 5.03224 2.92442-.01282-4.52053z" fill="#d9ae6d"/></g><g><path d="m20.8368 10.67407.00278.98223.34732.20183.3988.23176-.00278-.98222z" fill="#56707b"/></g><g><path d="m23.90825 12.45641.01282 4.52053 5.93649-3.42744-.01282-4.52053z" fill="#fecd82"/></g><g><path d="m18.87602 9.53199 5.03223 2.92442 5.93649-3.42744-5.03224-2.92441z" fill="#ffd69a"/></g><g><path d="m20.8368 10.67407.74612.4336 5.93649-3.42743-.74612-.4336z" fill="#778c95"/></g></g></g><g><g enable-background="new"><g><path d="m24.46732 12.61658.01282 4.52053 5.03224 2.92442-.01282-4.52053z" fill="#d9ae6d"/></g><g><path d="m26.42811 13.75867.00278.98222.34731.20183.39881.23176-.00279-.98222z" fill="#56707b"/></g><g><path d="m29.49956 15.541.01282 4.52053 5.93648-3.42744-.01281-4.52052z" fill="#fecd82"/></g><g><path d="m24.46732 12.61658 5.03224 2.92442 5.93649-3.42743-5.03224-2.92442z" fill="#ffd69a"/></g><g><path d="m26.42811 13.75867.74611.43359 5.93649-3.42743-.74612-.4336z" fill="#778c95"/></g></g></g><g enable-background="new"><g><path d="m29.60617 17.07635-.64709-.37605.09571 31.92344.64709.37605z" fill="#485f69"/></g><g><path d="m30.49718 16.56192-.64708-.37605-.89102.51443.64709.37605z" fill="#56707b"/></g><g><path d="m29.60617 17.07635.09571 31.92344.89101-.51443-.09571-31.92344z" fill="#40545d"/></g></g></g></svg>