<svg id="Layer_1" enable-background="new 0 0 52 52" height="512" viewBox="0 0 52 52" width="512" xmlns="http://www.w3.org/2000/svg"><g><g><g><g><g><g enable-background="new"><g><g><g><path d="m29.52594 46.8879c.2276-.12882.53676-.11165.88458.08589.68707.39935 1.241 1.35693 1.2367 2.14275 0 .39505-.13741.66988-.36069.7987l.61706-.35762c.22328-.12881.36069-.40794.36069-.79869.0043-.79013-.54963-1.7477-1.2367-2.14275-.34352-.19754-.65698-.21901-.88458-.08589z" fill="#5b5e71"/></g></g></g><g><g><g><path d="m30.41029 46.97573c-.68541-.39572-1.24377-.08068-1.246.70691-.00224.79075.5525 1.75159 1.23791 2.14731s1.24377.07754 1.24602-.71321c.00223-.7876-.55252-1.74529-1.23793-2.14101z" fill="#474b59"/></g></g></g><g><g><g><path d="m30.40961 47.21712c-.56945-.32877-1.03333-.06703-1.03519.58731-.00186.65696.45902 1.45523 1.02847 1.784s1.03334.06442 1.0352-.59254c.00186-.65434-.45903-1.45-1.02848-1.77877z" fill="#d4d6d6"/></g></g></g><g><g><g><path d="m30.40961 47.21712c-.56945-.32877-1.03333-.06703-1.03519.58731-.00186.65696.45902 1.45523 1.02847 1.784s1.03334.06442 1.0352-.59254c.00186-.65434-.45903-1.45-1.02848-1.77877z" fill="#d4d6d6"/></g></g></g></g></g><g><g enable-background="new"><g><g><g><path d="m30.64552 49.19688.09973-.05796.19861-2.94037-.09972.05795z" fill="#c4c6c6"/></g></g></g><g><g><g><path d="m29.86865 45.69331.18645 3.16269.59042.34088.19862-2.94038z" fill="#ecf0f1"/></g></g></g></g></g><g><g enable-background="new"><g><g><g><path d="m29.08465 45.88422.00191.42583c.00061.21589.14221.4317.42379.59534.55893.32481 1.48658.32786 2.05445 0 .28842-.16652.43113-.38531.43051-.603l-.00189-.42583c.00061.21768-.1421.43648-.43052.603-.56787.32786-1.49552.32481-2.05445 0-.28159-.16364-.42319-.37945-.4238-.59534z" fill="#d4d6d6"/></g></g></g><g><g><g><path d="m29.50991 45.2865c-.56787.32786-.56568.86518-.00147 1.19306.55893.32481 1.48658.32786 2.05445 0 .57313-.33089.57089-.86823.01197-1.19305-.56421-.32788-1.49183-.33091-2.06495-.00001z" fill="#ecf0f1"/></g></g></g></g></g><g><g><g><path d="m30.33556 48.35893c-.11608-.06702-.21063-.01366-.21101.11972-.00038.13391.09357.29663.20964.36365s.21064.01313.21102-.12078c.00038-.13339-.09357-.29557-.20965-.36259z" fill="#5b5e71"/></g></g></g></g><g><g><g enable-background="new"><g><g><g><path d="m42.13772 39.55873c.2276-.12882.53676-.11165.88458.08589.68707.39935 1.241 1.35693 1.23671 2.14275 0 .39505-.13742.66988-.36069.7987l.61706-.35762c.22327-.12882.36069-.40795.36069-.7987.0043-.79013-.54963-1.7477-1.2367-2.14275-.34352-.19754-.65699-.21901-.88459-.08589z" fill="#5b5e71"/></g></g></g><g><g><g><path d="m43.02207 39.64656c-.68541-.39572-1.24377-.08068-1.246.70691-.00224.79075.5525 1.75159 1.23791 2.14731s1.24377.07754 1.24602-.71321c.00223-.78759-.55252-1.74529-1.23793-2.14101z" fill="#474b59"/></g></g></g><g><g><g><path d="m43.02139 39.88795c-.56944-.32877-1.03333-.06703-1.03519.58731-.00187.65696.45902 1.45523 1.02847 1.784.56944.32877 1.03334.06442 1.0352-.59254.00185-.65434-.45903-1.45-1.02848-1.77877z" fill="#d4d6d6"/></g></g></g><g><g><g><path d="m43.02139 39.88795c-.56944-.32877-1.03333-.06703-1.03519.58731-.00187.65696.45902 1.45523 1.02847 1.784.56944.32877 1.03334.06442 1.0352-.59254.00185-.65434-.45903-1.45-1.02848-1.77877z" fill="#d4d6d6"/></g></g></g></g></g><g><g enable-background="new"><g><g><g><path d="m43.25731 41.86771.09972-.05795.19861-2.94037-.09973.05795z" fill="#c4c6c6"/></g></g></g><g><g><g><path d="m42.48043 38.36415.18645 3.16268.59043.34088.1986-2.94037z" fill="#ecf0f1"/></g></g></g></g></g><g><g enable-background="new"><g><g><g><path d="m41.69643 38.55505.00191.42583c.00061.21589.1422.4317.42379.59534.55893.32481 1.48658.32786 2.05445 0 .28842-.16652.43113-.38531.43051-.603l-.00189-.42582c.00061.21768-.14211.43648-.43052.603-.56787.32786-1.49553.32481-2.05445 0-.2816-.16365-.42319-.37945-.4238-.59535z" fill="#d4d6d6"/></g></g></g><g><g><g><path d="m42.12169 37.95733c-.56787.32786-.56568.86518-.00147 1.19306.55893.32481 1.48658.32786 2.05445 0 .57312-.33089.57089-.86824.01197-1.19305-.56421-.32788-1.49183-.33091-2.06495-.00001z" fill="#ecf0f1"/></g></g></g></g></g><g><g><g><path d="m42.94734 41.02977c-.11608-.06702-.21064-.01366-.21101.11972-.00038.13391.09357.29663.20964.36365s.21064.01313.21101-.12078c.00038-.13339-.09356-.29558-.20964-.36259z" fill="#5b5e71"/></g></g></g></g><g><g><g enable-background="new"><g><g><g><path d="m11.52211 36.65208c.2276-.12882.53676-.11165.88458.08589.68707.39935 1.241 1.35693 1.2367 2.14275 0 .39505-.13741.66988-.36069.7987l.61706-.35762c.22328-.12881.36069-.40794.36069-.79869.0043-.79013-.54963-1.7477-1.2367-2.14275-.34352-.19754-.65698-.21901-.88458-.08589z" fill="#5b5e71"/></g></g></g><g><g><g><path d="m12.40646 36.73991c-.68541-.39572-1.24377-.08068-1.246.70691-.00224.79075.5525 1.75159 1.23791 2.14731s1.24378.07754 1.24602-.71321c.00223-.7876-.55252-1.74529-1.23793-2.14101z" fill="#474b59"/></g></g></g><g><g><g><path d="m12.40578 36.9813c-.56944-.32877-1.03333-.06703-1.03519.58731-.00186.65696.45902 1.45523 1.02847 1.784.56944.32877 1.03334.06442 1.0352-.59254.00185-.65434-.45904-1.45-1.02848-1.77877z" fill="#d4d6d6"/></g></g></g><g><g><g><path d="m12.40578 36.9813c-.56944-.32877-1.03333-.06703-1.03519.58731-.00186.65696.45902 1.45523 1.02847 1.784.56944.32877 1.03334.06442 1.0352-.59254.00185-.65434-.45904-1.45-1.02848-1.77877z" fill="#d4d6d6"/></g></g></g></g></g><g><g enable-background="new"><g><g><g><path d="m12.64169 38.96106.09972-.05796.19861-2.94037-.09972.05795z" fill="#c4c6c6"/></g></g></g><g><g><g><path d="m11.86482 35.45749.18645 3.16268.59042.34089.19861-2.94038z" fill="#ecf0f1"/></g></g></g></g></g><g><g enable-background="new"><g><g><g><path d="m11.08081 35.6484.00191.42583c.00061.21589.14221.4317.42379.59534.55893.32481 1.48658.32786 2.05445 0 .28842-.16652.43113-.38531.43051-.603l-.00189-.42583c.00061.21768-.1421.43648-.43052.603-.56787.32786-1.49552.32481-2.05445 0-.28159-.16364-.42319-.37945-.4238-.59534z" fill="#d4d6d6"/></g></g></g><g><g><g><path d="m11.50607 35.05067c-.56787.32786-.56568.86518-.00147 1.19306.55893.32481 1.48658.32786 2.05445 0 .57313-.33089.5709-.86823.01197-1.19305-.5642-.32787-1.49182-.3309-2.06495-.00001z" fill="#ecf0f1"/></g></g></g></g></g><g><g><g><path d="m12.33173 38.12311c-.11608-.06702-.21064-.01366-.21101.11972-.00038.13391.09357.29663.20964.36365.11608.06702.21064.01313.21102-.12078.00037-.13339-.09358-.29557-.20965-.36259z" fill="#5b5e71"/></g></g></g></g><g><g><g><path d="m10.6399 35.39841c0 .14563.09662.29266.28986.40468l18.98049 10.95779c.38508.22264 1.00542.22125 1.3877 0l13.35188-7.75908c.19046-.11062.28567-.25485.28567-.40049l.0014-.79818c0 .14424-.09521.28846-.28427.39909l-13.35188 7.75907c-.38228.22265-1.00401.22265-1.3877.0014l-18.98049-10.95917c-.19324-.11063-.28986-.25766-.28986-.40469z" fill="#3498db"/></g></g><g><g><path d="m44.64837 37.39855c.38444.22195.38557.58173.00363.80369l-13.35194 7.7593c-.38194.22196-1.00306.22248-1.3875.00052l-18.98004-10.95812c-.38444-.22196-.38647-.58225-.00453-.80421l13.35194-7.7593c.38194-.22196 1.00396-.22196 1.3884-.00001z" fill="#f1c40f"/></g></g></g><g><g><g><path d="m10.6399 34.68431c0 .14563.09662.29266.28986.40468l18.98049 10.95779c.38508.22264 1.00542.22125 1.3877 0l13.35188-7.75908c.19046-.11062.28567-.25485.28567-.40049l.0014-.79818c0 .14424-.09521.28846-.28427.39909l-13.35188 7.75907c-.38228.22265-1.00401.22265-1.3877.0014l-18.98049-10.95917c-.19324-.11063-.28986-.25766-.28986-.40469z" fill="#c4c6c6"/></g></g><g><g><path d="m44.64837 36.68445c.38444.22195.38557.58173.00363.80369l-13.35194 7.7593c-.38194.22196-1.00306.22248-1.3875.00052l-18.98004-10.95812c-.38444-.22196-.38647-.58225-.00453-.80421l13.35194-7.7593c.38194-.22196 1.00396-.22196 1.3884-.00001z" fill="#ecf0f1"/></g></g><g><g><path d="m10.93288 34.29006.40607.23386.0042-1.27848-.41448.24085c-.38228.22125-.38087.58113.00421.80377z" fill="#f1c40f"/></g></g></g><g><path d="m7.24587 11.57436 2.97845 5.68663c.30385.57973.46211 1.23227.4607 1.88621l-.04902 16.2533c0 .19324.15545.35007.35008.35148.19326 0 .35008-.15683.35008-.35007l.0028-.87799.0042-1.27848.04202-14.09545c.0028-.76876-.18485-1.53333-.54053-2.21388l-2.97845-5.68662c-.22403-.42709-.0728-.95361.34589-1.19586l12.44168-7.23116c.21425-.12463.46351-.15543.70155-.08542.23945.06861.43409.22685.54891.4467l2.92665 5.5886c.30385.57973.46209 1.23226.46069 1.8862l-.0448 14.92443c.15403.0252.29965.07282.42149.14283l.27726.15964.0462-15.22409c.0028-.76877-.18483-1.53333-.54052-2.21388l-2.92664-5.5886c-.20444-.39069-.55033-.67215-.9746-.79537-.4229-.12183-.8668-.06722-1.24767.15403l-12.44308 7.23116c-.74216.43129-1.01102 1.3653-.61334 2.12566z" fill="#3498db"/></g><g><path d="m11.03517 22.82488c.05969 0 .1202-.01532.17552-.04745l14.49395-8.42185c.16718-.09716.22399-.31138.12683-.47855-.09709-.16724-.31131-.22413-.47855-.12683l-14.49395 8.42185c-.16717.09716-.22399.31137-.12683.47855.06495.11185.18235.17428.30303.17428z" fill="#3498db"/></g><g><path d="m11.03517 29.48158c.05969 0 .1202-.01532.17552-.04745l14.49395-8.42185c.16718-.09716.22399-.31138.12683-.47855-.09709-.16731-.31131-.22399-.47855-.12683l-14.49395 8.42185c-.16717.09716-.22399.31137-.12683.47855.06495.11186.18235.17428.30303.17428z" fill="#3498db"/></g></g></g><g><path d="m16.55632 26.7572 7.2227-4.1974 15.28808 8.82664-.04661 8.06126-7.2227 4.19739-15.28811-8.82664.04638-8.01467z" fill="#f1c40f"/><g><path d="m23.77903 22.55983 15.28809 8.82662-.04662 8.06132-7.22272 4.19734-15.28808-8.82662.04662-8.06132z" fill="#ecf0f1"/><g><g><g><path d="m39.06712 31.38642-.04662 8.0613-7.22271 4.19738.04661-8.0613z" fill="#d6b218"/></g><path d="m31.8444 35.5838-.04661 8.0613-15.2881-8.82658.04661-8.0613z" fill="#e5bd13"/><g><g><path d="m17.49471 28.58718-.29972-.17303-.04253 5.47398.30223-.15198z" fill="#d6b218"/><path d="m17.45469 33.73615-.30223.15198v.00006l14.00709 8.08672.00252-.32506z" fill="#f1c40f"/><path d="m17.49471 28.58718-.04002 5.14897 13.70738 7.9137.03956-5.14898z" fill="#c6a51a"/><path d="m25.92243 34.04908-.02278 2.93195 4.4864 2.59008.02253-2.93195z" fill="#ecf0f1"/></g></g><g><g><path d="m38.0513 33.24784.29972-.17303.04253 5.47398-.30224-.15199z" fill="#e5bd13"/><path d="m38.09131 38.3968.30224.15199v.00006l-5.88012 3.39461-.00252-.32507z" fill="#f1c40f"/><path d="m38.0513 33.24784.04001 5.14896-5.5804 3.22159-.03956-5.14897z" fill="#c6a51a"/></g></g><path d="m39.06712 31.38642-7.22272 4.19738-15.2881-8.82658 7.22272-4.19739z" fill="#f1c40f"/><g><path d="m23.77973 23.30154v.34286l5.30193 3.06217.29602-.17202z" fill="#eaaa42"/><path d="m17.83687 26.75534.29596.17084 5.6469-3.28178v-.34286z" fill="#d6b218"/><path d="m29.08166 26.70657-5.30193-3.06217-5.6469 3.28178 5.30154 3.06217z" fill="#e5bd13"/></g><g><path d="m30.21408 27.01516v.34286l6.78733 3.91713.29603-.17202z" fill="#eaaa42"/><path d="m24.27122 30.46896.29597.17084 5.64689-3.28178v-.34286z" fill="#d6b218"/><path d="m37.00141 31.27515-6.78733-3.91713-5.64689 3.28178 6.78694 3.91713z" fill="#e5bd13"/></g></g><g><g><g><g><g><path d="m33.52069 38.42175.23782.45259-.14729.08505-.32501.18627z" fill="#3f434f"/></g></g></g><g><g><g><path d="m33.61122 38.95939.00254.89532-.17772.10262-.00254-.89532z" fill="#3f434f"/></g></g></g><g><g><g><path d="m34.49407 39.42626.00054.19165-1.227.70852-.00054-.19166z" fill="#3f434f"/></g></g></g><g><g><g><path d="m36.73639 36.6185.00181.63791c.00057.20145-.11582.4354-.27032.55404l.00163.57496c.10837-.04996.19008-.0453.19025.01485l-.47839.27624c-.00017-.06015.08124-.15901.18954-.23415l-.00163-.57497c-.07063.02818-.13161.02135-.17925-.00859-.05621-.04181-.093-.12005-.09332-.23196l-.00181-.63791z" fill="#3f434f"/></g></g></g><g><g><g><path d="m34.32211 38.5489.00254.89532-.17773.10262-.00254-.89532z" fill="#3f434f"/></g></g></g><g><g><g><path d="m34.23279 38.01056.2366.45329-.14728.08505-.3238.18557z" fill="#3f434f"/></g></g></g></g><g><g><g><g><path d="m35.43224 39.29007c-.03326-.01835-.05276-.05621-.05276-.10381l-.00516-1.91562c-.00115-.08374.05849-.1864.13189-.22941l1.66416-.96068c.04014-.02294.08086-.02581.11354-.00745.03269.01892.05161.05735.05161.10553l.00574 1.91562c0 .08374-.05792.1864-.12903.2277l-1.66416.96067c-.02294.01319-.04645.02007-.06824.02007-.0172-.00001-.03326-.00402-.04759-.01262zm1.77368-3.14872-1.66416.96067c-.05161.02982-.09749.11012-.09749.16862l.00516 1.91562c.00058.02122.00688.03671.0172.04301.01089.00459.02695.00344.04588-.00745l1.66416-.96067c.05046-.02925.09462-.10725.09462-.1669l-.00573-1.91562c0-.02179-.00631-.03843-.01663-.04473-.00344-.00172-.00745-.00287-.01204-.00287-.0086-.00001-.0195.00343-.03097.01032z" fill="#3f434f"/></g></g></g><g><g><g><path d="m32.95377 40.71989c-.03269-.01892-.05104-.05678-.05104-.10324l-.00516-1.91561c-.00115-.08431.05849-.18755.13189-.22942l1.66416-.96125c.04014-.02351.08028-.02638.11354-.00688.03326.01893.05161.05735.05161.10496l.00574 1.91619c0 .08546-.05677.18583-.1296.2277l-1.66416.96067c-.02236.01319-.04588.0195-.06767.0195-.01777 0-.0344-.00401-.04931-.01262zm1.77541-3.14872-1.66416.96125c-.05161.02982-.09749.10955-.09749.16862l.00516 1.91561c0 .02065.00631.03613.01663.04244.01089.00516.0281.00344.04645-.00688l1.66359-.96067c.05046-.02925.09519-.10725.09519-.1669l-.00573-1.91619c0-.02179-.00631-.03785-.01663-.04416-.00344-.00172-.00803-.00287-.01262-.00287-.0086 0-.01892.00345-.03039.00975z" fill="#3f434f"/></g></g></g></g></g></g><g><g enable-background="new"><g><path d="m26.27438 36.83327-.00026.09445 3.71298 2.14369.00027-.09444z" fill="#b0b3bd"/></g><g><path d="m26.27519 36.54995-.00027.09444 3.71299 2.14369.00026-.09444z" fill="#b0b3bd"/></g><g><path d="m26.27599 36.26662-.00027.09444 3.71299 2.1437.00027-.09444z" fill="#b0b3bd"/></g><g><path d="m26.27679 35.98338-.00026.09436 3.71298 2.14369.00027-.09435z" fill="#b0b3bd"/></g><g><path d="m26.2776 35.70005-.00027.09445 3.71299 2.14369.00026-.09444z" fill="#b0b3bd"/></g><g><path d="m26.2784 35.41673-.00027.09444 3.71299 2.1437.00027-.09445z" fill="#b0b3bd"/></g><g><path d="m26.2792 35.1334-.00027.09444 3.71299 2.1437.00027-.09444z" fill="#b0b3bd"/></g><g><path d="m26.28001 34.85008-.00027.09444 3.71299 2.14369.00026-.09444z" fill="#b0b3bd"/></g><g><path d="m26.28081 34.56684-.00027.09444 3.71299 2.14369.00027-.09444z" fill="#b0b3bd"/></g></g></g><path d="m17.77262 31.94457-.01245 1.60242 2.45199 1.41558.01231-1.60243z" fill="#ecf0f1"/><g><g enable-background="new"><g><path d="m17.96497 33.46623-.00014.05162 2.02929 1.17161.00014-.05161z" fill="#b0b3bd"/></g><g><path d="m17.96541 33.31139-.00014.05161 2.02929 1.17161.00014-.05161z" fill="#b0b3bd"/></g><g><path d="m17.96585 33.15654-.00015.05161 2.0293 1.17161.00014-.05161z" fill="#b0b3bd"/></g><g><path d="m17.96629 33.00174-.00015.05156 2.0293 1.17162.00014-.05157z" fill="#b0b3bd"/></g><g><path d="m17.96673 32.84689-.00015.05161 2.02929 1.17161.00015-.05161z" fill="#b0b3bd"/></g><g><path d="m17.96717 32.69204-.00015.05161 2.02929 1.17162.00015-.05162z" fill="#b0b3bd"/></g><g><path d="m17.96761 32.53719-.00015.05162 2.02929 1.17161.00015-.05162z" fill="#b0b3bd"/></g><g><path d="m17.96805 32.38234-.00015.05162 2.02929 1.17161.00015-.05162z" fill="#b0b3bd"/></g><g><path d="m17.96848 32.22754-.00014.05162 2.02929 1.17161.00015-.05162z" fill="#b0b3bd"/></g></g></g></g></g></g></svg>