<svg id="Layer_1" enable-background="new 0 0 52 52" height="512" viewBox="0 0 52 52" width="512" xmlns="http://www.w3.org/2000/svg"><g><g><g><g><path d="m15.64369 31.26628c0 .85556-.30802 1.46011-.79853 1.7453l-3.2169 1.87084c.49051-.28519.79853-.88982.79853-1.75679.01142-1.72247-1.20919-3.83288-2.71498-4.69986-.75286-.43349-1.44877-.47909-1.93928-.19391l3.2169-1.85942c.49051-.2966 1.175-.25093 1.93928.18256 1.5058.86691 2.71498 2.97732 2.71498 4.71128z" fill="#363a44"/><g><g enable-background="new"><g><path d="m24.8833 36.88592 11.83487-6.87768-.00842 2.97086-11.83488 6.87767z" fill="#b23b2e"/></g><g><path d="m3.60199 24.59915 11.83487-6.87768 21.28131 12.28677-11.83487 6.87768z" fill="#5b5e71"/></g><g><path d="m24.8833 36.88592-.00843 2.97085-21.28131-12.28677.00843-2.97085z" fill="#525566"/></g></g></g><g><g enable-background="new"><g><path d="m37.3403 17.20836-.02852 12.02876-13.24852 7.6992.02852-12.02876z" fill="#d4d6d6"/></g><path d="m13.24919 33.14847-6.9954-4.02907c.30486-1.27717 1.26888-1.86215 2.23289-1.86215.52735 0 1.07938.16475 1.63967.48601 1.74684 1.01355 3.12284 3.37831 3.12284 5.40521z" fill="#474b59"/><g><path d="m37.3403 17.20836-13.24852 7.6992-22.06326-12.73823 13.24851-7.6992z" fill="#ecf0f1"/></g><path d="m9.71299 28.42738c1.50035.86623 2.71995 2.97865 2.71506 4.70269-.00491 1.73236-1.23249 2.43194-2.73283 1.56572-1.50764-.87044-2.72723-2.98289-2.72232-4.71525.00488-1.72404 1.23245-2.4236 2.74009-1.55316z" fill="#525566"/><g><path d="m24.09178 24.90756-.02852 12.02876-22.06326-12.73824.02852-12.02875z" fill="#e0e2e2"/></g></g></g><g><g enable-background="new"><g><path d="m24.87203 28.72969 11.83488-6.87768 2.97304 1.71649-11.83488 6.87768z" fill="#e74c3c"/></g><g><path d="m27.84507 30.44618 11.83488-6.87768c.37523.21664.74611.51144 1.08374.88672 1.194 1.32532 2.34916 3.24518 3.47846 5.54877l-11.83488 6.87769c-1.12929-2.3036-2.28444-4.22346-3.47845-5.54877-.33764-.37529-.70853-.67009-1.08375-.88673z" fill="#d8463f"/><path d="m43.3215 29.72218-3.27002 1.90002-2.64001 1.52997-1.51001.88-3.19995 1.85999c-.44-.85999-.88-1.63995-1.31-2.33997-.65002-1.09003-1.30005-1.97998-1.94-2.69-.11005-.12-.22003-.22998-.33002-.34003l3.21997-1.87 5.18005-3.01001 1.50995-.88.63-.37c.20001.16003.40002.33002.58002.53003.28998.32001.59003.69.88 1.09998.71002.97004 1.44001 2.20002 2.20002 3.70002z" fill="#84dbff"/></g><g><path d="m36.91688 42.91663 11.83487-6.87768.33949 4.08769-11.83487 6.87768z" fill="#ecf0f1"/></g><g><path d="m32.40727 36.88167 11.83488-6.87768 2.49264 2.17002-11.83488 6.87768z" fill="#e74c3c"/></g><g><path d="m34.89991 39.05169 11.83487-6.87768c1.09591.9602 1.90106 2.50238 2.01697 3.86494l-11.83488 6.87768c-.1159-1.36256-.92104-2.90475-2.01696-3.86494z" fill="#e74c3c"/></g><g><path d="m46.73479 32.17401-11.83488 6.87767c.96042.84148 1.69735 2.1299 1.94295 3.35272l11.83488-6.87767c-.2456-1.22283-.98253-2.51125-1.94295-3.35272z" fill="#e74c3c"/><path d="m36.84286 42.4044c.03466.17252.05969.34376.07402.51224l11.83488-6.87769c-.01433-.16846-.03936-.33971-.07402-.51222z" fill="#ecf0f1"/></g><path d="m35.64277 42.81275c0 .85556-.30803 1.46012-.79853 1.7453l-3.21691 1.87084c.49051-.28519.79853-.88981.79853-1.75679.01142-1.72247-1.20918-3.83288-2.71497-4.69986-.75286-.43349-1.44877-.4791-1.93928-.19391l3.2169-1.85942c.49051-.2966 1.175-.25093 1.93928.18256 1.50579.86691 2.71498 2.97733 2.71498 4.71128z" fill="#363a44"/><g><path d="m37.25903 47.00725-1.47254-.85252-4.69525-2.71255-6.25176-3.60378.03229-11.10851 2.97086 1.71792c.3746.21314.7492.51024 1.08501.8848 1.19483 1.32401 2.35088 3.24861 3.4811 5.54781l2.49294 2.17002c1.09148.9623 1.89878 2.50587 2.01503 3.8686z" fill="#c44"/></g></g></g><g><g><path d="m31.84057 38.04516c-.06249-.13111-.12527-.26062-.18793-.39075l-5.84495-3.3746-.28881.11549v.00002z" fill="#e74c3c"/><path d="m25.81809 30.61246-.28801-.16628-.0112 3.94913.28881-.11549z" fill="#d8463f"/></g><path d="m31.65258 37.65367-5.84382-3.37511.00845-3.66504 1.64111.94582c.6052.34905 1.19635.88951 1.68333 1.57918.88952 1.26672 1.70867 2.84871 2.51093 4.51515z" fill="#84dbff"/></g><path d="m49.05542 37.85215-.16079-.09283-11.83798 6.87947.16079.09283c.74636.43093.94669 1.15408.94456 1.90745l-.00252.8908 11.83798-6.87952.00253-.89075c.00212-.75338-.19821-1.47652-.94457-1.90745z" fill="#525566"/><g><path d="m37.21745 44.73164c.74636.43092.94669 1.15406.94455 1.90743l-.00253.89079-.90305-.52137-.1998-2.3697z" fill="#474b59"/></g><path d="m33.24826 44.69494-6.9954-4.02907c.30486-1.27717 1.26888-1.86215 2.23289-1.86215.52735 0 1.07938.16475 1.63967.48601 1.74684 1.01355 3.12284 3.37831 3.12284 5.40521z" fill="#c14242"/><path d="m29.71206 39.97385c1.50035.86623 2.71995 2.97865 2.71506 4.70269-.00491 1.73236-1.23248 2.43194-2.73283 1.56572-1.50764-.87044-2.72724-2.98289-2.72232-4.71525.00489-1.72404 1.23245-2.4236 2.74009-1.55316z" fill="#525566"/><path d="m29.70004 40.76011c1.16696.67374 2.10577 2.29477 2.10199 3.62616-.00065 1.35008-.94238 1.88675-2.11569 1.20568-1.16066-.6701-2.09308-2.2961-2.08928-3.63342.00376-1.32639.94549-1.86306 2.10298-1.19842zm-.39132.21935c-.53322-.14361-.91156-.01896-1.17953.38842.31371.26507.60839.51915.90945.76231.01487.01193.02915.02178.04282.02967.10581.06109.17453.00361.18618-.13835.00672-.13116.00712-.26963.01067-.40261.01012-.20586.02024-.41536.03041-.63944m.82477 1.5018c.00972.19746.07363.32835.20681.40524.03152.0182.06691.03337.10638.04567.0825.02939.16501.05512.24435.07904.19042.05883.38084.11402.58396.1729-.26163-.70949-.64119-1.27537-1.16399-1.73415l-.01594.02364c.01492.33712.02668.6724.03843 1.00766m.8369 2.82641c.3087-.20865.46533-.55622.48587-1.08089-.26988-.03902-.52384-.09075-.76836-.11148-.10479-.0094-.14635.0834-.0833.2512.11665.30825.23966.61651.36579.94117m-2.23679-2.01774c.06065-.10368.01978-.25502-.11005-.39568-.21533-.23382-.43385-.46218-.67453-.71792.00806.51928.14003 1.02616.43069 1.57722.0765-.09454.14345-.17998.21039-.26543.04784-.06727.10199-.1236.1435-.19819m.96762 1.91258c.20323.11733.40505.19174.61132.22538-.16427-.31747-.3127-.62217-.48339-.91417-.03142-.05444-.10609-.121-.1649-.15494-.02991-.01727-.05572-.02612-.06965-.02063-.19717.08327-.37539.20665-.57266.32271.23325.2338.45711.41338.67928.54165m-.00339-2.54574c-.24418-.14098-.45099-.01948-.45178.26109-.0008.28423.20148.63826.44883.78107.00196.00116.00387.00228.00581.00341.24475.1413.44834.03027.45228-.2499.00711-.28215-.20466-.65108-.44975-.79258-.00179-.00104-.00359-.00208-.00539-.00309m.00462-.50832c-.06978-.03662-.12704-.004-.12726.07252-.00023.08017.05667.17872.12643.219.06977.04028.12385.00945.12725-.06889.00023-.08016-.05666-.18235-.12642-.22263m-.34443 1.60784c.00022-.07814-.05684-.17894-.1214-.21622-.00167-.00097-.00335-.00189-.00503-.00276-.06977-.04028-.12703-.00766-.12725.06887-.00023.08017.05667.17871.12643.21899.0666.03845.12385.00946.12725-.06888m1.10903-.16632c.06976.04028.12702.01128.12725-.06889.00331-.07636-.05367-.17712-.12117-.21609-.00175-.00101-.00351-.00198-.00526-.0029-.0666-.03845-.12387-.00583-.12409.07069-.00023.08018.05667.17874.12327.21719m-1.5634-.90262c.06977.04028.12385.00945.12725-.06889.00022-.07814-.05383-.1772-.12118-.21609-.00174-.00101-.00349-.00197-.00525-.00289-.06659-.03845-.12386-.00583-.12408.0707-.00023.08016.0535.17689.12326.21717m1.31059 1.56328c.00022-.07814-.05383-.1772-.12118-.21609-.00174-.00101-.00349-.00197-.00524-.00288-.0666-.03846-.12387-.00583-.12409.07069-.00023.08017.0535.17688.12327.21717.06975.04026.12384.00944.12724-.06889" fill="#ecf0f1"/><path d="m9.70097 29.21363c1.16696.67374 2.10577 2.29477 2.10199 3.62616-.00065 1.35008-.94238 1.88674-2.11569 1.20568-1.16066-.67011-2.09308-2.2961-2.08928-3.63342.00376-1.32639.94548-1.86305 2.10298-1.19842zm-.39132.21936c-.53322-.14361-.91156-.01896-1.17953.38842.31371.26507.60839.51915.90946.76231.01487.01193.02915.02178.04282.02967.10581.06109.17453.00361.18618-.13835.00672-.13116.00712-.26963.01067-.40262.01011-.20586.02023-.41536.0304-.63943m.82477 1.5018c.00972.19746.07363.32834.20681.40524.03152.0182.06691.03337.10638.04567.0825.02939.16501.05512.24436.07904.19042.05883.38084.11402.58396.1729-.26163-.70949-.64119-1.27537-1.16399-1.73415l-.01594.02365c.01491.33711.02666.67239.03842 1.00765m.8369 2.82641c.3087-.20865.46533-.55622.48587-1.08089-.26988-.03902-.52384-.09075-.76836-.11148-.10479-.0094-.14635.0834-.0833.2512.11665.30825.23965.6165.36579.94117m-2.23679-2.01774c.06064-.10368.01978-.25502-.11005-.39568-.21533-.23382-.43385-.46218-.67453-.71792.00806.51927.14003 1.02615.43069 1.57722.0765-.09454.14345-.17998.21039-.26543.04783-.06727.10199-.1236.1435-.19819m.96762 1.91258c.20323.11733.40505.19174.61132.22538-.16427-.31747-.3127-.62217-.48339-.91417-.03142-.05444-.10609-.121-.1649-.15494-.02991-.01727-.05572-.02612-.06965-.02063-.19717.08327-.37539.20666-.57266.32272.23324.23379.4571.41337.67928.54164m-.00339-2.54574c-.24418-.14098-.45099-.01948-.45178.2611-.00081.28423.20148.63826.44883.78107.00196.00116.00387.00228.00581.00341.24474.1413.44834.03027.45228-.2499.00711-.28215-.20466-.65109-.44975-.79259-.0018-.00105-.00359-.00208-.00539-.00309m.00462-.50832c-.06978-.03662-.12704-.004-.12726.07252-.00023.08017.05667.17872.12643.219.06977.04028.12385.00945.12725-.06889.00023-.08016-.05666-.18235-.12642-.22263m-.34443 1.60784c.00022-.07814-.05684-.17894-.1214-.21622-.00167-.00097-.00335-.00189-.00503-.00276-.06977-.04028-.12703-.00765-.12725.06887-.00023.08017.05667.17871.12643.21899.06659.03845.12385.00945.12725-.06888m1.10903-.16632c.06976.04028.12702.01128.12725-.06889.0033-.07636-.05367-.17711-.12117-.21609-.00175-.00101-.00351-.00198-.00526-.00289-.0666-.03845-.12387-.00583-.12409.07069-.00023.08017.05667.17873.12327.21718m-1.5634-.90262c.06977.04028.12385.00945.12725-.06889.00022-.07814-.05383-.17721-.12118-.21609-.00174-.00101-.00349-.00197-.00525-.00289-.0666-.03845-.12386-.00582-.12408.0707-.00023.08016.0535.17689.12326.21717m1.31058 1.56327c.00022-.07814-.05383-.1772-.12118-.21609-.00174-.00101-.00349-.00198-.00524-.00288-.0666-.03846-.12387-.00583-.12409.07069-.00023.08017.0535.17688.12327.21716.06976.04028.12385.00946.12724-.06888" fill="#ecf0f1"/><g><path d="m26.94452 36.3573-1.42398-.82214-.00166.5862 1.42564.82309z" fill="#5b5e71"/></g></g><g><g><path d="m39.83792 41.11124c.07577.45266.28514.74261.59848.91548l-1.55172.89588c-.08429.04866-.15384.03174-.15406-.04799l-.00278-.97982c-.00023-.07975.06899-.18248.15327-.23114z" fill="#e5bd13"/></g><g><path d="m45.59164 38.84493.00039.13672-4.9823 2.87653-.00039-.13671z" fill="#c4c6c6"/></g><g><path d="m45.71487 38.51702.00039.13672-5.23516 3.02252-.00039-.13672z" fill="#c4c6c6"/></g><g><path d="m45.96626 37.86404.00039.13672-5.73587 3.31161-.00039-.13673z" fill="#c4c6c6"/></g><g><path d="m47.30891 36.79787c.08926-.05153.15389-.02608.15412.05367l.00278.97982c.00023.07973-.06406.17393-.15332.22546l-1.55168.89587c.3113-.5335.51838-1.0639.59628-1.60528z" fill="#e5bd13"/></g><g><path d="m48.27069 36.24258c.08429-.04866.15386-.02606.15408.05369l.00278.97982c.00023.07973-.069.17678-.15329.22544l-.54038.31199c-.08429.04866-.15384.03175-.15407-.04799l-.00278-.97981c-.00023-.07976.06899-.18248.15327-.23115z" fill="#2ecc71"/></g><g><path d="m38.50071 41.8837c.08429-.04866.15386-.02607.15408.05369l.00278.97981c.00023.07974-.069.17678-.15329.22545l-.54038.31199c-.08429.04866-.15384.03174-.15406-.048l-.00278-.97981c-.00023-.07976.06899-.18248.15327-.23114z" fill="#2ecc71"/></g><g><path d="m45.83809 38.19482.00039.1367-5.47808 3.16277-.00038-.1367z" fill="#c4c6c6"/></g><g><path d="m46.08454 37.5447.00038.13672-5.98375 3.45472-.00039-.13672z" fill="#c4c6c6"/></g></g><g><path d="m46.84514 37.25873c.21305-.123.39542-.01913.39613.23291s-.18047.56581-.39352.68882c-.22559.13025-.40796.02637-.40867-.22567-.00071-.25205.18047-.56582.40606-.69606z" fill="#fff"/></g><g><path d="m39.38159 41.52661c.21305-.12301.39542-.01913.39613.23291s-.18047.56581-.39352.68882c-.22559.13025-.40796.02637-.40867-.22567s.18047-.56582.40606-.69606z" fill="#fff"/></g></g><g fill="#ecf0f1" opacity=".3"><path d="m37.52151 25.64216-1.62006 8.39001-3.19995 1.85999c-.44-.85999-.88-1.63995-1.31-2.33997l.94995-4.90002z"/><path d="m41.12148 26.02217-1.07001 5.60004-2.64001 1.52997 1.62-8.39001.63-.37c.20001.16003.40002.33002.58002.53003.28998.32.59002.68999.88 1.09997z"/></g></g><g><g><path d="m11.04848 23.61587.89145 2.77807-.56707-.3274-.89144-2.77806z" fill="#f1c40f"/></g><g><path d="m12.07355 24.20769.89144 2.77807-.56707-.32739-.89143-2.77807z" fill="#f1c40f"/></g><g><path d="m24.07997 31.1396-.00641 2.2597-10.67601-6.1638-.89143-2.77806z" fill="#f1c40f"/></g><g><path d="m10.01977 23.02194.89144 2.77807-.56706-.32739-.89144-2.77806z" fill="#f1c40f"/></g><g><path d="m24.08903 27.94427-.00642 2.26388-13.02786-7.52164-.89506-2.78434z" fill="#e67e22"/></g><g><path d="m6.64828 17.87485.89142 2.78224-.56705-.32739-.89143-2.78224z" fill="#e67e22"/></g><g><path d="m7.67335 18.46668.89142 2.78224-.56705-.32739-.89143-2.78224z" fill="#e67e22"/></g><g><path d="m8.70205 19.0606.89144 2.78225-.56707-.3274-.89142-2.78224z" fill="#e67e22"/></g><g><path d="m8.99107 22.42802.89507 2.78017-.57069-.32949-.89144-2.77807z" fill="#f1c40f"/></g><g><path d="m9.72712 19.65242.89508 2.78435-.57071-.32949-.89143-2.78225z" fill="#e67e22"/></g></g></g></svg>