<svg id="Layer_1" enable-background="new 0 0 50 50" height="512" viewBox="0 0 50 50" width="512" xmlns="http://www.w3.org/2000/svg"><g><g><g><g><g><path d="m43.39501 36.73158-.02395 2.7956-14.5366 8.44775.02395-2.79561z" fill="#40545d"/></g><path d="m28.85841 45.17932-.02395 2.79561-11.23736.09734.02395-2.79561z" fill="#485f69"/><g><path d="m17.62105 45.27666-.02395 2.79561-11.1963-6.46419.02396-2.7956z" fill="#56707b"/></g></g><g><g enable-background="new"><path d="m43.42648 34.89547.02541-8.96678c.00168-.58981.38971-1.17931 1.16564-1.63023l-.02543 8.96679c-.77592.45092-1.16395 1.04041-1.16562 1.63022z" fill="#b0b8bc"/><g><path d="m44.62972 27.57547-.02542 8.96679-15.4267 8.96501.02542-8.96678z" fill="#9aa1a5"/></g><g><path d="m29.20302 36.54049-.02542 8.96678-11.92545.1033.02542-8.96678z" fill="#b0b8bc"/><g><path d="m19.43182 39.24226c-.53003 0-.96002-.43018-.95001-.95996 0-.15039.04498-.2876.10956-.41357-.19421.1709-.32343.41357-.32343.68994-.01001.52979.41998.95996.95001.95996l8.03998-.07031c.35913-.00684.66504-.21826.8197-.52051-.164.14404-.37256.23975-.60583.24414z" fill="#dde4e7"/><path d="m27.23791 37.55866-8.03998.06982c-.23358 0-.44244.0957-.60657.24023-.06458.12598-.10956.26318-.10956.41357-.01001.52979.41998.95996.95001.95996l8.03998-.07031c.23328-.00439.44183-.1001.60583-.24414.065-.12744.11029-.26563.11029-.41943.01003-.52978-.41997-.95995-.95-.9497z" fill="#485f69"/></g></g><g><path d="m17.27757 36.64379-.02542 8.96678-11.88187-6.86.02542-8.96678z" fill="#cfd8dd"/></g><g><path d="m44.61753 24.29846c-1.56033.90676-1.55207 2.37389.01219 3.27701l-15.4267 8.96502-11.92545.1033-11.88187-6.86.12659-6.91538 15.4267-8.96502c1.57066.90682 4.10348.90679 5.6638.00002z" fill="#dde4e7"/><g><path d="m20.98633 16.67927c.81641.35352 1.78809.54492 2.79883.54492 1.00977 0 1.97949-.19141 2.79297-.54541l15.88111 9.16895c.01752-.48242.17816-.94775.47437-1.3667l-16.35547-9.44287c-.81348.354-1.7832.54541-2.79297.54541-1.01074 0-1.98242-.19141-2.79883-.54492l-14.47462 8.41113-.10547 5.7627.02972.01709.07574-4.13916z" fill="#b0b8bc"/><path d="m42.94794 27.39851-.48999.27979-13.53003 7.85986-11.39001.1001-11.09998-6.40968.07001-4.14014 14.47998-8.41016c.81.3501 1.79004.55029 2.79999.55029 1.01001 0 1.98004-.2002 2.79004-.55029l15.88001 9.16992c0 .03027-.01001.06006-.01001.09033 0 .27979.06.5498.15997.81982.08001.22023.18999.43996.34002.64016z" fill="#9aa1a5"/></g></g></g></g><g><g><g><g enable-background="new"><g><path d="m29.92453 38.56581c0 .20296.07184.34354.18426.40911l.14727.08555c-.11242-.06557-.18426-.20921-.18426-.40911-.00313-.40286.28419-.89614.63395-1.09925.17801-.10308.34038-.11238.45593-.04361l-.14727-.0857c-.11555-.06877-.27792-.05627-.45593.04376-.34976.20295-.63708.69639-.63395 1.09925z" fill="#778c95"/></g><g><path d="m30.70722 37.55196c-.35092.2026-.6371.69602-.63596 1.09925.00115.40546.28919.56735.64011.36475.35291-.20375.6371-.69602.63595-1.10148-.00114-.40323-.28719-.56627-.6401-.36252z" fill="#56707b"/></g></g></g><g><g enable-background="new"><g><path d="m30.19991 38.6227c0 .17208.06091.29128.15623.34687l.2913.1694c-.09532-.0556-.15623-.17738-.15623-.34687-.00265-.34157.24096-.75981.5375-.93202.15092-.0874.2886-.09528.38656-.03698l-.2913-.16953c-.09797-.05831-.23564-.04771-.38656.03711-.29655.17209-.54015.59045-.5375.93202z" fill="#8189c3"/></g><g><path d="m31.02996 37.85996c-.29753.17178-.54018.59013-.53921.93201.00097.34378.2452.48103.54272.30925.29922-.17275.54018-.59013.5392-.93391-.00096-.34187-.24349-.4801-.54271-.30735z" fill="#616ab1"/></g></g></g></g><g><g><g enable-background="new"><g><path d="m31.80185 37.47879c0 .20296.07184.34354.18426.40911l.14727.08555c-.11242-.06557-.18426-.20921-.18426-.40911-.00312-.40286.28419-.89614.63395-1.09925.17801-.10308.34038-.11238.45592-.04361l-.14727-.0857c-.11554-.06877-.27792-.05627-.45592.04376-.34976.20295-.63708.69639-.63395 1.09925z" fill="#778c95"/></g><g><path d="m32.58454 36.46494c-.35092.2026-.6371.69602-.63596 1.09924.00115.40546.28919.56735.64011.36475.35291-.20375.6371-.69602.63595-1.10148-.00114-.40322-.28719-.56626-.6401-.36251z" fill="#56707b"/></g></g></g><g><g enable-background="new"><g><path d="m32.07722 37.53568c0 .17208.06091.29128.15623.34687l.2913.1694c-.09531-.05559-.15622-.17738-.15622-.34687-.00265-.34157.24096-.75981.5375-.93202.15092-.0874.2886-.09528.38656-.03698l-.2913-.16953c-.09797-.05831-.23564-.04771-.38656.03711-.29655.17209-.54016.59045-.53751.93202z" fill="#f17572"/></g><g><path d="m32.90728 36.77294c-.29753.17178-.54018.59013-.53921.93201.00098.34378.2452.48104.54273.30926.29922-.17276.54018-.59013.5392-.93391-.00097-.34188-.2435-.48011-.54272-.30736z" fill="#ee5550"/></g></g></g></g><g><g><g enable-background="new"><g><path d="m33.63424 36.41497c0 .20295.07184.34354.18426.40911l.14727.08555c-.11242-.06557-.18426-.20921-.18426-.40911-.00313-.40286.28419-.89614.63395-1.09925.17801-.10308.34038-.11238.45592-.04361l-.14727-.0857c-.11555-.06877-.27792-.05627-.45593.04376-.34975.20295-.63707.69639-.63394 1.09925z" fill="#778c95"/></g><g><path d="m34.41693 35.40112c-.35092.2026-.6371.69602-.63596 1.09924.00115.40546.28919.56735.64011.36475.35291-.20375.6371-.69602.63595-1.10148-.00114-.40322-.28719-.56626-.6401-.36251z" fill="#56707b"/></g></g></g><g><g enable-background="new"><g><path d="m33.90962 36.47186c0 .17208.06091.29128.15623.34687l.2913.1694c-.09531-.05559-.15623-.17738-.15623-.34687-.00265-.34157.24096-.75981.53751-.93202.15092-.0874.2886-.09528.38656-.03698l-.2913-.16953c-.09797-.05831-.23564-.04771-.38656.03711-.29656.17208-.54016.59045-.53751.93202z" fill="#97c269"/></g><g><path d="m34.73967 35.70912c-.29753.17178-.54018.59013-.53921.93201.00098.34378.2452.48104.54272.30926.29922-.17276.54018-.59013.5392-.93391-.00095-.34188-.24349-.48011-.54271-.30736z" fill="#7eb442"/></g></g></g></g></g><g><g enable-background="new"><g><path d="m41.14733 11.33379-.08143 13.72352-3.18727 1.85224.08143-13.72352z" fill="#b0b8bc"/></g><g><path d="m37.96006 13.18603-.08143 13.72352-12.34202-7.12567.08143-13.72352z" fill="#cfd8dd"/></g><g><path d="m41.14733 11.33379-3.18727 1.85224-12.34202-7.12567 3.18727-1.85223z" fill="#dde4e7"/></g></g></g><g><g><g><g><g enable-background="new"><g><path d="m34.63917 7.95419-.00374.78012c-.0004.14321-.09457.28621-.28267.39552-.37862.22003-.99408.22003-1.37518 0-.19178-.11072-.28756-.256-.28715-.40106l.00374-.78012c-.00041.14506.09538.29034.28716.40106.3811.22003.99655.22004 1.37518 0 .18809-.10931.28225-.2523.28266-.39552z" fill="#40545d"/></g><g><path d="m34.35204 7.55314c.3811.22003.38309.57654.00446.79658-.37862.22003-.99408.22002-1.37518 0-.3811-.22003-.38313-.57652-.0045-.79655s.99412-.22006 1.37522-.00003z" fill="#dde4e7"/></g></g></g><g><g enable-background="new"><g><path d="m34.63917 7.17408-.00374.78012c-.0004.14321-.09457.28621-.28267.39552-.37862.22003-.99408.22002-1.37518 0-.19178-.11072-.28756-.256-.28715-.40106l.00374-.78012c-.00041.14506.09538.29034.28716.40106.3811.22003.99655.22004 1.37518 0 .18809-.10931.28225-.25231.28266-.39552z" fill="#ee5550"/></g><g><path d="m34.35204 6.77302c.3811.22003.38309.57654.00446.79658-.37862.22003-.99408.22002-1.37518 0-.3811-.22003-.38313-.57652-.0045-.79655s.99412-.22005 1.37522-.00003z" fill="#dde4e7"/></g></g></g></g><g><g><g enable-background="new"><g><path d="m34.63917 6.39396-.00374.78012c-.0004.14321-.09457.28621-.28267.39552-.37862.22003-.99408.22002-1.37518 0-.19178-.11072-.28756-.256-.28715-.40106l.00374-.78012c-.00041.14506.09538.29034.28716.40106.3811.22003.99655.22004 1.37518 0 .18809-.10931.28225-.25231.28266-.39552z" fill="#40545d"/></g><g><path d="m34.35204 5.99291c.3811.22003.38309.57654.00446.79658-.37862.22003-.99408.22002-1.37518 0-.3811-.22003-.38313-.57652-.0045-.79655s.99412-.22006 1.37522-.00003z" fill="#dde4e7"/></g></g></g><g><g enable-background="new"><g><path d="m34.63917 5.61384-.00374.78012c-.0004.14321-.09457.28621-.28267.39552-.37862.22003-.99408.22002-1.37518 0-.19178-.11072-.28756-.256-.28715-.40106l.00374-.78012c-.00041.14506.09538.29034.28716.40106.3811.22003.99655.22004 1.37518 0 .18809-.10931.28225-.25231.28266-.39552z" fill="#ee5550"/></g><g><path d="m34.35204 5.21279c.3811.22003.38309.57654.00446.79658-.37862.22003-.99408.22002-1.37518 0-.3811-.22003-.38313-.57652-.0045-.79655s.99412-.22006 1.37522-.00003z" fill="#dde4e7"/></g></g></g></g><g><g><g enable-background="new"><g><path d="m34.63917 4.83372-.00374.78012c-.0004.14321-.09457.28621-.28267.39552-.37862.22003-.99408.22002-1.37518 0-.19178-.11072-.28756-.256-.28715-.40106l.00374-.78012c-.00041.14506.09538.29034.28716.40106.3811.22003.99655.22004 1.37518 0 .18809-.10931.28225-.2523.28266-.39552z" fill="#40545d"/></g><g><path d="m34.35204 4.43267c.3811.22003.38309.57654.00446.79658-.37862.22003-.99408.22002-1.37518 0-.3811-.22003-.38313-.57652-.0045-.79655s.99412-.22006 1.37522-.00003z" fill="#dde4e7"/></g></g></g><g><g enable-background="new"><g><path d="m34.63917 4.05361-.00374.78012c-.0004.14321-.09457.28621-.28267.39552-.37862.22003-.99408.22002-1.37518 0-.19178-.11072-.28756-.256-.28715-.40106l.00374-.78012c-.00041.14506.09538.29034.28716.40106.3811.22003.99655.22004 1.37518 0 .18809-.10931.28225-.25231.28266-.39552z" fill="#ee5550"/></g><g><path d="m34.35204 3.65255c.3811.22003.38309.57654.00446.79658-.37862.22003-.99408.22002-1.37518 0-.3811-.22003-.38313-.57652-.0045-.79655s.99412-.22006 1.37522-.00003z" fill="#dde4e7"/></g></g></g></g><g><g><g enable-background="new"><g><path d="m34.63917 3.27349-.00374.78012c-.0004.14321-.09457.28621-.28267.39552-.37862.22003-.99408.22002-1.37518 0-.19178-.11072-.28756-.256-.28715-.40106l.00374-.78012c-.00041.14506.09538.29034.28716.40106.3811.22003.99655.22004 1.37518 0 .18809-.10931.28225-.25231.28266-.39552z" fill="#40545d"/></g><g><path d="m34.35204 2.87244c.3811.22003.38309.57654.00446.79658-.37862.22003-.99408.22002-1.37518 0-.3811-.22003-.38313-.57652-.0045-.79655.37863-.22005.99412-.22006 1.37522-.00003z" fill="#dde4e7"/></g></g></g><g><g enable-background="new"><g><path d="m34.63917 2.49337-.00374.78012c-.0004.14321-.09457.28621-.28267.39552-.37862.22003-.99408.22002-1.37518 0-.19178-.11072-.28756-.256-.28715-.40106l.00374-.78012c-.00041.14506.09538.29034.28716.40106.3811.22003.99655.22004 1.37518 0 .18809-.10931.28225-.25231.28266-.39552z" fill="#ee5550"/></g><g><path d="m34.35204 2.09232c.3811.22003.38309.57654.00446.79658-.37862.22003-.99408.22002-1.37518 0-.3811-.22003-.38313-.57652-.0045-.79655.37863-.22005.99412-.22006 1.37522-.00003z" fill="#dde4e7"/><g><path d="m34.29826 2.18602c-.16838-.09713-.39398-.1511-.63468-.1511-.24071 0-.46521.05397-.63252.1511-.14788.08528-.22883.19321-.22883.30331 0 .08744.05289.17487.15004.2504.02375-.0194.04965-.03779.07879-.05397.16731-.09713.39182-.1511.63252-.1511s.46629.05397.63468.1511c.03022.01729.05828.03563.08311.05613.09715-.07447.15004-.16191.15004-.24929 0-.11121-.08312-.2202-.23315-.30658z" fill="#b0b8bc"/><path d="m33.66359 2.53466c-.24071 0-.46521.05397-.63252.1511-.02914.01618-.05505.03457-.07879.05397.02482.01945.05289.0389.08311.05613.16838.09719.39397.15005.63468.15005.2407 0 .46521-.05286.63251-.15005.02915-.01723.05505-.03452.07879-.05397-.02482-.0205-.05289-.03884-.08311-.05613-.16838-.09713-.39397-.1511-.63467-.1511z" fill="#9aa1a5"/></g></g></g></g></g></g></g></g><g><g><g enable-background="new"><g><path d="m28.61694 17.25064-.01629 5.74727-6.39785 3.71803.0163-5.74728z" fill="#d9ae6d"/></g><g><path d="m25.69706 20.45465.00514 1.81317 2.47582-1.42941-.00514-1.81318z" fill="#fff"/></g><g><path d="m25.93804 21.8724.00033.11823 2.07046-1.19538-.00034-.11823z" fill="#dde4e7"/></g><g><path d="m26.12406 18.70265-.00354 1.24877-.44156.25661-.50704.29466.00354-1.24878z" fill="#ee5550"/></g><g><path d="m22.2191 20.96866-.0163 5.74728-7.54748-4.35755.01629-5.74727z" fill="#fecd82"/></g><g><path d="m28.61694 17.25064-6.39784 3.71802-7.54749-4.35754 6.39785-3.71802z" fill="#ffd69a"/></g><g><path d="m26.12406 18.70265-.9486.55126-7.54748-4.35754.94859-.55126z" fill="#f17572"/></g></g></g><g><g><path d="m17.10904 22.28951c.00913.04664.01465.09299.01454.13487-.00047.16405-.06359.29372-.19238.3612-.05924.03022-.09288.10008-.09314.19389l.08833.051c.01438.0083.02769.02959.02764.04848-.00005.01831-.01344.02415-.02782.01584l-.23418-.1352c-.01592-.00919-.02924-.03044-.02918-.04876.00005-.01889.01344-.02475.02936-.01556l.08833.051c.00027-.0956-.0344-.20486-.09276-.30298-.15973-.26776-.21818-.51666-.176-.6986z" fill="#56707b"/></g><g><path d="m17.57943 22.39026 1.08772.62799-.00354 1.24987-1.08772-.62799zm1.03196 1.78743.0032-1.12891-.98244-.56721-.0032 1.12891z" fill="#56707b"/></g><g><path d="m18.12597 22.8447c.01027.00593.01897.0216.01894.03341l-.00004.01415c.18331.11824.33027.35324.37943.61213-.01222-.0431-.03836-.07887-.0666-.09576-.02979-.0172-.05501-.01108-.06794.01394-.01326-.04014-.03683-.07504-.06661-.09281-.02979-.0172-.05398-.01048-.06692.01514-.01326-.04075-.03785-.07624-.06764-.09344-.01962-.01136-.03487-.01247-.0468-.00396l-.00378.42695c-.00075.08314-.06052.11754-.13404.0751-.07387-.04322-.13375-.14816-.133-.23165l.00065-.04693c.00004-.01297.00931-.01826.02061-.01174.01027.00654.01949.0219.01893.03518l-.00013.04719c-.00068.05813.04129.13143.09265.16169.05136.02965.09361.00581.09428-.05258l.00378-.42692c-.01228-.02306-.02921-.04053-.04667-.05061-.02997-.0173-.05467-.01101-.06743.01427-.01377-.04105-.03836-.0765-.06712-.09311-.02927-.0169-.05449-.01078-.06743.01661-.01223-.04253-.03733-.07771-.0666-.09518-.02979-.0172-.05501-.01108-.06795.01692.05304-.19992.20393-.26115.38626-.16357l.00004-.01476c.00056-.01147.00932-.01648.02113-.00966z" fill="#56707b"/></g><g><path d="m15.83204 22.38034-.00021.07319-.66865-.38605.00021-.07319z" fill="#56707b"/></g><g><path d="m15.83245 22.23812-.00021.07316-.66865-.38605.0002-.07315.10374.05989.08525.04922.29016.16752.08525.04922z" fill="#56707b"/></g><g><path d="m15.68748 21.47824.16204.36129-.12017-.06938-.00116.40778-.08525-.04922.00116-.40778-.11915-.06879z" fill="#56707b"/></g><g><path d="m14.95668 20.87602 1.0872.6277-.00354 1.24987-1.0872-.6277zm1.03145 1.78713.0032-1.12891-.98244-.56721-.0032 1.12891z" fill="#56707b"/></g><g><path d="m15.31207 21.26149.16204.36129-.12017-.06938-.00116.40779-.08525-.04922.00116-.40779-.11915-.06879z" fill="#56707b"/></g><g><path d="m16.2678 21.63299 1.08772.62799-.00354 1.24987-1.08772-.62799zm1.03196 1.78743.0032-1.12891-.98244-.56721-.0032 1.12891z" fill="#56707b"/></g></g><g><g><path d="m27.90297 19.41261.00335 1.18223.10217-.05898-.00335-1.18223z" fill="#485f69"/></g><g><path d="m27.67802 19.54249.00335 1.18223.10128-.05847-.00336-1.18223z" fill="#485f69"/></g><g><path d="m27.45307 19.67236.00335 1.18223.10128-.05847-.00335-1.18223z" fill="#485f69"/></g><g><path d="m27.22723 19.80275.00335 1.18223.03847-.02221-.00335-1.18223z" fill="#485f69"/></g><g><path d="m27.33713 19.74139.00335 1.18223.03847-.02221-.00335-1.18223z" fill="#485f69"/></g><g><path d="m27.06367 19.89718.00336 1.18223.03987-.02302-.00335-1.18223z" fill="#485f69"/></g><g><path d="m26.83873 20.02706.00335 1.18222.16858-.09733-.00335-1.18222z" fill="#485f69"/></g><g><path d="m26.61288 20.15745.00335 1.18222.10217-.05898-.00335-1.18223z" fill="#485f69"/></g><g><path d="m26.38793 20.28732.00336 1.18223.10216-.05899-.00335-1.18223z" fill="#485f69"/></g><g><path d="m26.16299 20.41719.00335 1.18223.13493-.0779-.00336-1.18223z" fill="#485f69"/></g><g><path d="m25.93804 20.54707.00335 1.18223.10127-.05847-.00335-1.18223z" fill="#485f69"/></g></g></g><g><g><g enable-background="new"><g><path d="m36.99799 22.57601-.01629 5.74728-6.39785 3.71802.01629-5.74727z" fill="#d9ae6d"/></g><g><path d="m34.07811 25.78002.00514 1.81317 2.47582-1.42941-.00515-1.81317z" fill="#fff"/></g><g><path d="m34.31908 27.19777.00034.11823 2.07045-1.19537-.00034-.11823z" fill="#dde4e7"/></g><g><path d="m34.5051 24.02803-.00354 1.24877-.44155.2566-.50704.29466.00354-1.24877z" fill="#ee5550"/></g><g><path d="m30.60014 26.29404-.01629 5.74727-7.54749-4.35754.0163-5.74728z" fill="#fecd82"/></g><g><path d="m36.99799 22.57601-6.39785 3.71803-7.54748-4.35755 6.39784-3.71802z" fill="#ffd69a"/></g><g><path d="m34.5051 24.02803-.94859.55126-7.54748-4.35754.94859-.55127z" fill="#f17572"/></g></g></g><g><g><path d="m25.49008 27.61489c.00913.04664.01465.09299.01453.13487-.00047.16405-.06359.29372-.19238.3612-.05924.03022-.09287.10008-.09314.19389l.08833.051c.01438.0083.02769.02959.02764.04848-.00005.01831-.01344.02415-.02782.01584l-.23418-.1352c-.01592-.00919-.02923-.03044-.02918-.04876.00005-.01889.01344-.02475.02937-.01556l.08833.051c.00027-.0956-.0344-.20486-.09276-.30298-.15973-.26776-.21819-.51666-.176-.6986z" fill="#56707b"/></g><g><path d="m25.96047 27.71564 1.08772.62799-.00354 1.24987-1.08772-.62799zm1.03196 1.78743.0032-1.12891-.98244-.56721-.0032 1.12891z" fill="#56707b"/></g><g><path d="m26.50702 28.17007c.01027.00593.01897.0216.01894.03341l-.00004.01415c.1833.11824.33027.35324.37943.61213-.01222-.0431-.03836-.07887-.0666-.09576-.02979-.0172-.05501-.01108-.06794.01394-.01326-.04014-.03682-.07504-.06661-.09281-.02979-.0172-.05398-.01048-.06691.01514-.01326-.04075-.03785-.07624-.06764-.09344-.01962-.01136-.03487-.01247-.0468-.00396l-.00378.42695c-.00075.08314-.06052.11754-.13404.0751-.07387-.04322-.13375-.14816-.133-.23165l.00065-.04693c.00004-.01297.00931-.01826.02061-.01174.01027.00654.01948.0219.01893.03518l-.00013.04719c-.00068.05813.04129.13143.09265.16169.05136.02965.09361.00581.09428-.05258l.00378-.42692c-.01228-.02306-.02921-.04053-.04667-.05061-.02997-.0173-.05467-.01101-.06743.01427-.01377-.04105-.03836-.0765-.06712-.09311-.02927-.0169-.0545-.01078-.06743.01661-.01222-.04253-.03733-.07771-.0666-.09518-.02979-.0172-.05501-.01108-.06795.01692.05304-.19992.20393-.26115.38626-.16357l.00004-.01476c.00055-.01146.00931-.01648.02112-.00966z" fill="#56707b"/></g><g><path d="m24.21309 27.70571-.00021.07319-.66865-.38605.00021-.07318z" fill="#56707b"/></g><g><path d="m24.21349 27.5635-.00021.07315-.66865-.38604.00021-.07316.10374.05989.08525.04922.29016.16753.08525.04922z" fill="#56707b"/></g><g><path d="m24.06853 26.80361.16204.36129-.12017-.06938-.00116.40779-.08525-.04922.00115-.40779-.11914-.06879z" fill="#56707b"/></g><g><path d="m23.33773 26.2014 1.0872.6277-.00354 1.24987-1.0872-.6277zm1.03145 1.78713.0032-1.12891-.98244-.56721-.0032 1.12891z" fill="#56707b"/></g><g><path d="m23.69312 26.58687.16204.36129-.12018-.06938-.00115.40778-.08525-.04922.00115-.40778-.11914-.06879z" fill="#56707b"/></g><g><path d="m24.64884 26.95837 1.08772.62799-.00354 1.24987-1.08772-.62799zm1.03196 1.78743.0032-1.12891-.98244-.56721-.0032 1.12891z" fill="#56707b"/></g></g><g><g><path d="m36.28402 24.73799.00335 1.18223.10216-.05899-.00335-1.18223z" fill="#485f69"/></g><g><path d="m36.05907 24.86786.00335 1.18223.10127-.05847-.00335-1.18223z" fill="#485f69"/></g><g><path d="m35.83412 24.99774.00335 1.18222.10127-.05847-.00335-1.18222z" fill="#485f69"/></g><g><path d="m35.60828 25.12813.00335 1.18223.03847-.02221-.00336-1.18223z" fill="#485f69"/></g><g><path d="m35.71818 25.06677.00335 1.18222.03847-.02221-.00335-1.18222z" fill="#485f69"/></g><g><path d="m35.44472 25.22256.00335 1.18222.03988-.02302-.00335-1.18223z" fill="#485f69"/></g><g><path d="m35.21977 25.35243.00336 1.18223.16857-.09733-.00334-1.18223z" fill="#485f69"/></g><g><path d="m34.99393 25.48282.00335 1.18223.10217-.05899-.00335-1.18222z" fill="#485f69"/></g><g><path d="m34.76898 25.6127.00335 1.18222.10217-.05898-.00335-1.18223z" fill="#485f69"/></g><g><path d="m34.54403 25.74257.00335 1.18223.13493-.0779-.00335-1.18223z" fill="#485f69"/></g><g><path d="m34.31908 25.87244.00336 1.18223.10127-.05847-.00335-1.18223z" fill="#485f69"/></g></g></g><g><g><g enable-background="new"><g><path d="m25.79221 25.22502-.01629 5.74728-6.39785 3.71802.01629-5.74727z" fill="#d9ae6d"/></g><g><path d="m22.87233 28.42903.00514 1.81317 2.47582-1.42941-.00514-1.81317z" fill="#fff"/></g><g><path d="m23.11331 29.84678.00033.11823 2.07045-1.19537-.00033-.11823z" fill="#dde4e7"/></g><g><path d="m23.29932 26.67704-.00354 1.24877-.44155.2566-.50704.29466.00354-1.24877z" fill="#ee5550"/></g><g><path d="m19.39436 28.94305-.01629 5.74727-7.54749-4.35754.0163-5.74728z" fill="#fecd82"/></g><g><path d="m25.79221 25.22502-6.39785 3.71803-7.54748-4.35755 6.39785-3.71802z" fill="#ffd69a"/></g><g><path d="m23.29932 26.67704-.94859.55126-7.54748-4.35754.94859-.55127z" fill="#f17572"/></g></g></g><g><g><path d="m14.2843 30.2639c.00913.04664.01465.09299.01453.13487-.00047.16405-.06359.29372-.19238.3612-.05924.03022-.09288.10008-.09314.19389l.08833.051c.01438.0083.02769.02959.02764.04848-.00005.01831-.01344.02415-.02782.01584l-.23418-.1352c-.01592-.00919-.02923-.03044-.02918-.04876.00005-.01889.01344-.02476.02936-.01556l.08833.051c.00027-.0956-.0344-.20486-.09276-.30298-.15973-.26777-.21818-.51666-.176-.6986z" fill="#56707b"/></g><g><path d="m14.75469 30.36465 1.08772.62799-.00354 1.24987-1.08772-.62799zm1.03196 1.78743.0032-1.12891-.98244-.56721-.0032 1.12891z" fill="#56707b"/></g><g><path d="m15.30124 30.81908c.01027.00593.01897.0216.01894.03341l-.00004.01415c.1833.11824.33027.35324.37943.61213-.01222-.0431-.03836-.07887-.0666-.09576-.02979-.0172-.05501-.01107-.06794.01394-.01326-.04014-.03682-.07504-.06661-.09281-.02979-.0172-.05398-.01048-.06691.01514-.01326-.04075-.03785-.07624-.06764-.09344-.01962-.01136-.03487-.01247-.0468-.00396l-.00378.42695c-.00075.08314-.06052.11754-.13404.0751-.07387-.04322-.13375-.14816-.133-.23165l.00065-.04693c.00004-.01297.00931-.01826.02061-.01174.01027.00654.01948.0219.01893.03518l-.00014.04721c-.00068.05813.04129.13143.09265.16169.05136.02965.09361.00581.09429-.05258l.00378-.42692c-.01228-.02306-.02921-.04053-.04667-.05061-.02997-.0173-.05467-.01101-.06743.01427-.01377-.04105-.03836-.0765-.06712-.09311-.02927-.0169-.0545-.01078-.06743.01661-.01223-.04253-.03733-.07771-.0666-.09518-.02979-.0172-.05501-.01108-.06795.01692.05304-.19992.20393-.26115.38626-.16358l.00004-.01476c.00055-.01147.00931-.01649.02112-.00967z" fill="#56707b"/></g><g><path d="m13.00731 30.35472-.00021.07319-.66865-.38605.00021-.07318z" fill="#56707b"/></g><g><path d="m13.00771 30.21251-.0002.07315-.66866-.38604.00021-.07316.10374.05989.08525.04922.29016.16753.08525.04922z" fill="#56707b"/></g><g><path d="m12.86275 29.45262.16204.36129-.12017-.06938-.00116.40779-.08525-.04922.00116-.40779-.11915-.06879z" fill="#56707b"/></g><g><path d="m12.13195 28.85041 1.0872.6277-.00354 1.24987-1.0872-.6277zm1.03145 1.78713.0032-1.12891-.98244-.56721-.0032 1.12891z" fill="#56707b"/></g><g><path d="m12.48734 29.23588.16204.36129-.12017-.06938-.00116.40778-.08525-.04922.00115-.40778-.11914-.06879z" fill="#56707b"/></g><g><path d="m13.44306 29.60738 1.08772.62799-.00354 1.24987-1.08772-.62799zm1.03197 1.78743.0032-1.12891-.98244-.56721-.0032 1.12891z" fill="#56707b"/></g></g><g><g><path d="m25.07824 27.387.00335 1.18223.10217-.05899-.00336-1.18223z" fill="#485f69"/></g><g><path d="m24.85329 27.51687.00335 1.18223.10127-.05847-.00335-1.18223z" fill="#485f69"/></g><g><path d="m24.62834 27.64675.00335 1.18222.10127-.05847-.00335-1.18222z" fill="#485f69"/></g><g><path d="m24.4025 27.77714.00335 1.18222.03847-.02221-.00335-1.18222z" fill="#485f69"/></g><g><path d="m24.5124 27.71578.00335 1.18222.03847-.02221-.00335-1.18222z" fill="#485f69"/></g><g><path d="m24.23894 27.87157.00335 1.18222.03988-.02302-.00335-1.18223z" fill="#485f69"/></g><g><path d="m24.01399 28.00144.00336 1.18223.16858-.09733-.00335-1.18223z" fill="#485f69"/></g><g><path d="m23.78815 28.13183.00335 1.18223.10217-.05899-.00335-1.18222z" fill="#485f69"/></g><g><path d="m23.5632 28.26171.00335 1.18222.10217-.05899-.00335-1.18222z" fill="#485f69"/></g><g><path d="m23.33825 28.39158.00336 1.18223.13492-.0779-.00335-1.18223z" fill="#485f69"/></g><g><path d="m23.11331 28.52145.00335 1.18223.10127-.05847-.00335-1.18223z" fill="#485f69"/></g></g></g></g></g></svg>