<svg id="Layer_1" enable-background="new 0 0 52 52" height="512" viewBox="0 0 52 52" width="512" xmlns="http://www.w3.org/2000/svg"><g><g><g><g><g><g enable-background="new"><g><path d="m50 33.38542-.00853 1.59753-25.87436 14.96016.00853-1.59753z" fill="#525566"/></g><g><path d="m24.12564 48.34558-.00853 1.59753-22.11711-12.76932.00853-1.59753z" fill="#5b5e71"/></g><g><path d="m50 33.38542-25.87436 14.96016-22.11711-12.76932 25.87436-14.96016z" fill="#bc874d"/></g></g></g><g><g enable-background="new"><g><path d="m50 32.09245-.00853 1.59753-25.87436 14.96016.00853-1.59753z" fill="#30b265"/></g><g><path d="m24.12564 47.05261-.00853 1.59753-22.11711-12.76933.00853-1.59752z" fill="#2ebf69"/></g><g><path d="m49.99884 32.09186-25.8722 14.96208-4.36406-2.51922-5.2363-3.02643-12.51809-7.22604 25.87499-14.95929z" fill="#2ecc71"/></g></g></g><g><g><g enable-background="new"><g><path d="m39.07817 13.72139-19.64091-11.41405 8.54713 1.85183 19.64091 11.41405z" fill="#a6a9aa"/></g><g><path d="m30.60875 41.17016-19.64091-11.41405-.04464-15.74666 19.64091 11.41405z" fill="#ecf0f1"/></g><g><path d="m30.56411 25.4235-19.64091-11.41405 8.51406-11.70211 19.64091 11.41405z" fill="#b9bcbd"/></g><g><path d="m39.07817 13.72139 8.54713 1.85183.04464 15.74666-17.06119 9.85028-.04464-15.74666z" fill="#e0e2e2"/></g></g></g><g><g enable-background="new"><g><path d="m39.09928 13.47094-19.64091-11.41405 9.71694 2.10411 19.64091 11.41405z" fill="#d8463f"/></g><g><path d="m29.53506 26.89339-19.64091-11.41405-.11261-.12134 19.64091 11.41405z" fill="#c44"/></g><g><path d="m29.42245 26.77205-19.64091-11.41405 9.67683-13.30111 19.64091 11.41405z" fill="#e74c3c"/></g><g><path d="m39.09928 13.47094 9.71694 2.10411-.11157.25077-9.60459-2.07887-9.565 13.14644-.11261-.12134z" fill="#c14242"/></g></g></g></g></g><g><g><path d="m23.17734 36.55227v-.00216l-.26296.11488v.00272l5.20565 3.04035.00076-.26857z" fill="#f1c40f"/><path d="m23.19887 29.01611-.26219-.15131-.0223 7.80019.26296-.11488z" fill="#e0e2e2"/></g><g><path d="m13.52685 30.97495.02151-7.52406-.26219-.15123-.02228 7.79073z" fill="#fff"/><path d="m13.52685 30.97495-.26296.11544 5.20844 3.02687.00076-.26781z" fill="#f1c40f"/></g><g fill="#525566"><path d="m28.1312 31.86893v.43752l-.00279.35669v.52949l-.00279.16999v.52949l-.00278.35391v.70226l-.00278.3567v.69948l-.00279.35671v.69948l-.00279.35669v.5267l-.00279.17278v.53226l-.00279.35393v.43752l-4.94369-2.88707v-.40409l.00279-.35671v-.52668l.00279-.17278v-.88341l.00279-.17557v-.52668l.00277-.35393v-.70505l.00279-.35391v-.70226l.00279-.35393v-.52947l.00279-.16999v-.52949l.00279-.35671v-.4375z"/><path d="m18.49461 26.30377v.43195l-.00279.3595v.5267l-.00277.17278v.52668l-.00279.35671v.69948l-.00279.35669v.70227l-.00279.3567v.5267l-.00279.17277v.88342l-.00279.17277v.52669l-.00277.35671v.41801l-4.94649-2.87593v-.39571l.00278-.35671v-.52948l.00279-.17277v-.88342l.00278-.17277v-.5267l.00279-.3567v-.69948l.00279-.35669v-.70227l.00279-.35392v-.52947l.00278-.17278v-.5267l.00279-.35671v-.43195z"/></g></g><g><g><path d="m28.12006 35.83168v.17278l-4.94371-2.85085v-.17556z" fill="#5b5e71"/></g><g><path d="m28.11727 36.36117v.17278l-4.94369-2.85643v-.16998z" fill="#5b5e71"/></g><g><path d="m28.11727 36.88787v.17278l-4.94648-2.85086.00279-.17557z" fill="#5b5e71"/></g><g><path d="m28.11448 37.94404-.00279.17278-4.94369-2.85084.00279-.17278z" fill="#5b5e71"/></g><g><path d="m28.11169 38.47353v.17555l-4.94369-2.85642v-.17278z" fill="#5b5e71"/></g><g><path d="m28.1089 39.00301v.16998l-4.94369-2.85363v-.16999z" fill="#5b5e71"/></g><g><path d="m28.11448 37.41734v.17278l-4.94369-2.85642v-.16999z" fill="#5b5e71"/></g><g><path d="m28.12006 35.30498v.17l-4.94371-2.85363v-.17z" fill="#5b5e71"/></g><g><path d="m28.12284 34.7783v.16998l-4.9437-2.85363v-.17277z" fill="#5b5e71"/></g><g><path d="m28.12284 34.24602v.17277l-4.9437-2.85363v-.17277z" fill="#5b5e71"/></g><g><path d="m28.12562 33.71932v.17279l-4.94369-2.85365v-.17556z" fill="#5b5e71"/></g><g><path d="m28.1312 32.13367v.17278l-4.94369-2.85365v-.16999z" fill="#5b5e71"/></g><g><path d="m28.12841 33.19263-.00279.16999-4.94369-2.85363.00279-.16999z" fill="#5b5e71"/></g><g><path d="m28.12841 32.66314v.17278l-4.94369-2.85642v-.16999z" fill="#5b5e71"/></g></g><g><g><path d="m18.48347 30.26375v.17278l-4.94649-2.85642v-.17278z" fill="#5b5e71"/></g><g><path d="m18.48068 30.79323v.17279l-4.94649-2.85642v-.17279z" fill="#5b5e71"/></g><g><path d="m18.48068 31.31993-.00279.17277-4.94648-2.85642.00278-.17277z" fill="#5b5e71"/></g><g><path d="m18.47789 32.37612-.00279.17277-4.94648-2.85642.00279-.17277z" fill="#5b5e71"/></g><g><path d="m18.4751 32.90559v.16999l-4.94648-2.85363v-.17278z" fill="#5b5e71"/></g><g><path d="m18.47233 33.43229v.17278l-4.94649-2.85642v-.16999z" fill="#5b5e71"/></g><g><path d="m18.47789 31.84942v.16999l-4.94648-2.85364v-.17277z" fill="#5b5e71"/></g><g><path d="m18.48347 29.73426v.17278l-4.94649-2.85642v-.16999z" fill="#5b5e71"/></g><g><path d="m18.48626 29.20758v.16999l-4.94649-2.85363v-.17278z" fill="#5b5e71"/></g><g><path d="m18.48626 28.67809v.17557l-4.94649-2.85921v-.17278z" fill="#5b5e71"/></g><g><path d="m18.48905 28.15139v.16999l-4.94649-2.85363v-.17278z" fill="#5b5e71"/></g><g><path d="m18.49461 26.56294v.17278l-4.94648-2.85363v-.17278z" fill="#5b5e71"/></g><g><path d="m18.49182 27.62192-.00277.17278-4.94649-2.85642.00278-.17278z" fill="#5b5e71"/></g><g><path d="m18.49182 27.09522v.17278l-4.94648-2.85642v-.17278z" fill="#5b5e71"/></g></g></g><g><g><path d="m40.75053 20.34805-.27768.1603.00982 3.46761.27854.13925z" fill="#ecf0f1"/><path d="m40.48267 23.97596v.00002l-3 1.73204.00085.29958 3.27769-1.89237v-.00002z" fill="#fff"/></g><g><path d="m46.1534 17.2287-.27768.16031.00984 3.4676.27852.13927z" fill="#ecf0f1"/><path d="m45.88556 20.85661-3 1.73205.00085.29959 3.27767-1.89237z" fill="#fff"/></g><g fill="#3498db"><path d="m35.06997 23.62772-3 1.73204.00983 3.46762 3-1.73206z"/><path d="m40.47285 20.50835-2.99999 1.73206.00981 3.46761 3-1.73204z"/><path d="m45.87572 17.38901-2.99999 1.73204.00983 3.46761 3-1.73205z"/></g></g><g><path d="m32.0798 28.82738.00085.29956 3.27769-1.89235-.27854-.13927z" fill="#fff"/><path d="m35.06997 23.62772.00983 3.4676.27854.13927-.01068-3.7672z" fill="#ecf0f1"/></g></g><g><path d="m28.12006 39.70806-8.35748 4.82666-5.2363-3.02643 8.39369-4.84615z" fill="#f1c40f"/></g><g><path d="m18.46398 34.13631-8.35749 4.82666-5.2363-3.02643 8.3937-4.84615z" fill="#f1c40f"/></g></g></svg>