<svg id="Layer_1" enable-background="new 0 0 50 50" height="512" viewBox="0 0 50 50" width="512" xmlns="http://www.w3.org/2000/svg"><g><g><g><path d="m40.17841 17.40692c.11885.06862.11368.18178-.00452.25047-.11819.06869-.30778.0687-.42663.00008l-3.42298-1.97626c-.11885-.06862-.11944-.17843-.00124-.24711.11819-.06869.31353-.07206.43238-.00344z" fill="#485f69"/></g><g><path d="m46.84143 22.56039-24.4189 14.19072-19.01061-10.97579 24.4189-14.19071z" fill="#78cfe2"/></g><g><path d="m49 21.78666-.00932 1.51705c0 .1677-.11169.32586-.32575.4563l-27.04827 15.72089c-.42818.24178-1.13557.25087-1.57301 0l-18.7179-10.80661c-.21406-.12998-.32575-.29768-.32575-.46538l.00932-1.51705c0 .1677.10237.33495.32575.46539l18.70858 10.79705c.44675.26042 1.14483.25133 1.58233.00909l27.04828-15.72044c.21405-.13043.32574-.28859.32574-.45629z" fill="#40545d"/></g><g><path d="m48.66501 21.32851c.43976.25389.44188.65885.00497.91275l-27.04644 15.71767c-.43083.25037-1.13573.25383-1.57548-.00007l-18.71347-10.80423c-.43976-.25389-.4361-.66221-.00527-.91258l27.04644-15.71767c.4369-.2539 1.13602-.254 1.57578-.0001zm-26.24249 15.4226 24.4189-14.19071-19.01063-10.97579-24.41889 14.19071zm-11.35633-4.40876c.41004.23674 1.08544.23666 1.49256.00007.41353-.24032.41111-.63133.00107-.86807-.41599-.24017-1.09104-.24029-1.50457.00003-.40712.23658-.40505.6278.01094.86797m25.68923-16.91169c-.11885-.06862-.31419-.06526-.43239.00343-.11819.06869-.11761.1785.00124.24712l3.42298 1.97626c.11885.06862.30843.0686.42663-.00009.11819-.06869.12337-.18185.00451-.25047z" fill="#56707b"/></g><g><path d="m12.55984 31.47434c.41004.23673.41244.62776-.00109.86807-.40712.2366-1.0825.23667-1.49254-.00007-.41599-.24017-.41807-.63138-.01095-.86797.41353-.24031 1.08859-.2402 1.50458-.00003z" fill="#40545d"/></g></g><g><g><path d="m24.3433 28.25477c.05285.03051.05317.07989.00312.10898l-1.78012 1.03449c-.0525.03051-.13787.03056-.19072.00005l-6.18334-3.56996c-.05285-.03051-.05304-.07997-.00054-.11047l1.78011-1.03449c.05005-.02909.1353-.02906.18814.00145zm-1.56975.54198.60757-.35308-.14848-.08573-.10255.0596c.01713-.07701-.02079-.14243-.11391-.1962-.09312-.05376-.20117-.07843-.32654-.07554-.12041.00292-.23309.03341-.32805.08859-.09753.05668-.14736.12063-.15201.19038-.00458.07263.03836.13514.134.19036.05032.02905.1081.04796.17089.05812.06787.01011.13049.00871.19574-.00296l-.09007.05234c-.07746.04501-.15511.06681-.23294.0654-.07778-.00436-.15064-.02616-.22111-.06684-.07047-.04069-.11333-.09451-.12877-.16423l-.18306.02474c.02058.08716.08367.16129.18936.22231.10571.06103.22125.09301.35172.09589.13049.0029.25572-.03197.37821-.10315m-4.14425-3.18643.14243-.08277-.71472-.41265-.14243.08277.27934.16128-.77509.45043.15603.09008.77509-.45043zm1.88749 1.98768.1812.10462.13307-.4097.54431-.00727-.19127-.11043-.57942.00727.57013-.33132-.14847-.08572-.9726.56521.14847.08572.1975-.11478.21314-.0014zm-.92105-.52015c.11073.06393.25135.09593.42196.0959l.0094-.10458c-.12036-.00003-.21074-.01748-.27616-.05525-.06544-.03778-.09829-.08283-.09855-.13516-.0004-.05225.03454-.09587.09708-.13221.06497-.03776.1376-.05664.22543-.05229.08776.00148.16068.02033.22108.0552.06292.03633.09577.0872.10368.15257l.19552-.01158c-.00041-.08431-.05601-.15696-.16171-.21798s-.22634-.09296-.36673-.09592c-.14305-.00433-.26333.02475-.37077.08719-.10757.06251-.15738.13228-.15434.21214.00547.07844.05597.14531.15411.20197m2.23222 1.27715.42756-.24847c.08994-.05226.13727-.10602.13442-.16267.00225-.05669-.04067-.10756-.11868-.1526-.04782-.02761-.1056-.04651-.17089-.05812-.06524-.00875-.13547-.00875-.20071.00292l.12751-.0741-.14848-.08573-.6975.40534.14848.08573.37751-.21938c.06497-.03776.13264-.05668.20533-.05227.07031.00288.13059.01741.18344.04792.1057.06102.09853.12933-.03142.20485l-.38253.2223zm-2.74061-1.58229.44994-.26148c.09007-.05234.12988-.10463.11705-.1584-.01039-.05519-.05827-.10609-.1388-.15258-.10822-.06248-.23892-.10022-.3919-.11045l-.02456.093c.11542.01164.20588.03778.27132.07556.10317.05957.111.11626.01848.17002l-.02754.016-.19127-.11043c-.08557-.0494-.17095-.08141-.25628-.09013-.08785-.01017-.16307.00438-.23306.04506-.06755.03926-.09732.08572-.08952.13658.00522.05236.04568.09882.11866.14095.09815.05667.21117.08138.3366.07553l-.09251.05376zm-.14973-.73515.14758-.08577c-.0453-.02616-.10314-.04211-.17333-.05088-.0678-.00725-.1381-.0043-.2032.0073l.13999-.08135-.14848-.08573-.6975.40534.14848.08573.30005-.17437c.07746-.04501.16005-.0726.24527-.0784.08027-.00583.16059.01163.23358.05377zm2.03218 1.82198.6975-.40534-.14848-.08573-.6975.40534zm.82993-.49106c.03511 0 .0677-.00727.0928-.02185.02496-.0145.0374-.03341.03729-.05374-.00262-.0218-.01273-.03925-.03789-.05378-.02769-.01599-.05784-.02178-.09548-.02323-.03512-.00001-.0677.00727-.09266.02177-.02509.01458-.03755.03348-.03742.05382.00019.02321.01286.03917.04055.05515.02514.01453.05274.02182.09281.02186" fill="#ee5550"/></g><g><path d="m22.27127 27.79126c.07801.04504.12093.09591.11869.1526.00285.05665-.04449.1104-.13442.16267l-.42757.24847-.14597-.08427.38253-.2223c.12995-.07552.13712-.14383.03142-.20485-.05285-.03051-.11312-.04504-.18343-.04792-.07269-.00441-.14036.01451-.20533.05227l-.37751.21938-.14848-.08573.6975-.40534.14848.08573-.12751.0741c.06524-.01168.13547-.01167.2007-.00293.0653.01161.12309.03051.1709.05812z" fill="#fff"/></g><g><path d="m23.23263 28.35794.14848.08573-.60757.35308c-.12249.07118-.24772.10605-.37821.10316-.13047-.00288-.24602-.03486-.35172-.09589-.10569-.06102-.16878-.13516-.18936-.22231l.18306-.02474c.01544.06973.0583.12355.12877.16423.07046.04068.14333.06248.22111.06684.07783.00141.15549-.02039.23294-.0654l.09007-.05234c-.06525.01167-.12787.01307-.19574.00296-.06279-.01016-.12057-.02906-.17089-.05812-.09564-.05522-.13858-.11773-.134-.19036.00465-.06976.05448-.13371.15201-.19038.09495-.05518.20763-.08567.32805-.08859.12537-.00289.23342.02178.32654.07554.09313.05377.13105.11919.11391.1962zm-.52782.2426c.07763-.00138.1453-.0203.20526-.05514.06009-.03492.09497-.0756.09724-.12065.00471-.04647-.02555-.0872-.08343-.12061-.0604-.03487-.12829-.05081-.20856-.04498-.08021.00288-.14788.0218-.20539.05522-.05738.03334-.08738.07118-.09208.11765-.00478.0436.02052.08429.08092.11916.06038.03487.12827.05081.20604.04935" fill="#fff"/></g><g><path d="m22.92387 28.30414c.05788.03342.08814.07414.08343.12061-.00226.04505-.03715.08573-.09724.12065-.05996.03484-.12762.05376-.20526.05514-.07777.00146-.14566-.01448-.20606-.04935s-.0857-.07556-.08092-.11916c.00471-.04647.03471-.08431.09208-.11765.05752-.03342.12518-.05234.20539-.05522.08029-.00583.14818.01011.20858.04498z" fill="#ee5550"/></g><g enable-background="new"><g><path d="m18.77175 25.52755-.14243.08277-.27935-.16129-.7751.45044-.15602-.09008.77509-.45044-.27934-.16128.14243-.08277z" fill="#fff"/></g><g><path d="m19.08522 25.95179-.14758.08577-.00754-.00436c-.07299-.04214-.15331-.0596-.23358-.05377-.08522.0058-.16782.03339-.24527.0784l-.30005.17437-.14848-.08573.6975-.40534.14848.08573-.13999.08135c.06511-.0116.1354-.01455.2032-.0073.07017.00878.12801.02473.17331.05088z" fill="#fff"/></g><g><path d="m19.65434 26.35283c.01283.05377-.02698.10605-.11705.1584l-.44994.26148-.13338-.077.09251-.05376c-.12543.00584-.23845-.01887-.3366-.07553-.07298-.04213-.11343-.08859-.11866-.14095-.0078-.05086.02197-.09732.08952-.13658.06999-.04068.14522-.05523.23306-.04506.08533.00872.17071.04073.25628.09013l.19127.11043.02754-.016c.09251-.05376.08469-.11045-.01848-.17002-.06544-.03778-.1559-.06392-.27132-.07556l.02456-.093c.15298.01023.28369.04797.3919.11045.08053.04648.1284.09738.13879.15257zm-.45542.18304.05751-.03342-.16359-.09445c-.10821-.06248-.19362-.07407-.25859-.03631-.035.02034-.0475.04219-.03975.06977.00766.02469.03794.05082.08577.07843.04529.02615.10056.0436.16074.04943.06025.00288.11287-.00728.15791-.03345" fill="#fff"/></g><g><path d="m18.83425 26.37169c.06498-.03776.15038-.02617.25859.03631l.16359.09445-.05751.03342c-.04503.02617-.09765.03633-.15791.03345-.06018-.00583-.11545-.02328-.16074-.04943-.04783-.02761-.07811-.05374-.08577-.07843-.00775-.02758.00475-.04944.03975-.06977z" fill="#ee5550"/></g></g><g><path d="m20.82132 27.77381.6975-.40534.14848.08573-.6975.40534z" fill="#fff"/></g><g><path d="m21.7069 27.34663c-.02769-.01599-.04036-.03194-.04055-.05515-.00012-.02034.01233-.03924.03742-.05382.02496-.0145.05754-.02178.09266-.02177.03764.00145.06779.00724.09548.02323.02516.01453.03527.03198.03789.05378.00011.02034-.01233.03924-.03729.05374-.0251.01458-.05769.02185-.0928.02185-.04005-.00005-.06765-.00734-.09281-.02186z" fill="#fff"/></g><g><path d="m20.66105 22.48789c.0906.05231.16628.11329.22676.18309.0581.06828.0961.13657.1066.20628l-.30836.0305c-.00534-.04646-.03067-.09879-.07862-.15256-.04802-.05664-.10601-.10458-.17396-.14381-.07046-.04068-.14326-.06543-.2161-.07558s-.13795.00145-.19546.03487c-.05752.03342-.0799.07267-.06458.11625.01532.04357.07588.11625.18936.22232.11096.10461.16913.19618.17971.27457.01296.07993-.04438.15698-.16687.22817-.12249.07118-.27028.10168-.44098.09301-.17057-.00875-.33132-.05819-.48484-.14682-.22146-.12786-.34288-.28471-.36392-.47365l.331-.01743c.02096.154.10942.27752.26294.36616.07801.04504.15347.07116.23376.07698.07772.00731.14297-.00436.1979-.03629.05507-.03201.0774-.0683.06207-.11188-.01028-.04067-.05573-.09881-.13647-.17434-.07809-.07416-.1361-.13374-.16657-.17726-.03529-.04363-.05556-.08724-.06593-.13078-.01794-.08578.03424-.16566.16677-.24268.12995-.07552.27787-.10609.44594-.09297.16564.01453.31892.06248.45985.14385z" fill="#475195"/></g><g><path d="m26.72549 25.43306 2.4386 1.40793-2.42268 1.40791-2.4386-1.40793zm.01486 2.62696 2.09766-1.21903-2.11145-1.21904-2.09766 1.21903z" fill="#40545d"/></g><g enable-background="new"><g><path d="m27.73009 18.96c.07549.04359.13851.09443.18906.15252.04788.05672.07832.11483.08865.17297l-.2581.02463c-.00526-.03777-.02553-.08137-.06599-.12783s-.0883-.08571-.14619-.11913c-.0604-.03487-.12069-.05523-.18096-.06394-.06019-.00584-.11532.00288-.1628.03047-.04761.02767-.06492.06105-.05465.0959.01266.03638.06565.09888.15647.18604.09333.08861.14392.16418.15434.23101s-.03941.13078-.14196.19037c-.10242.05952-.22774.08569-.36828.07699-.14299-.00728-.27873-.04794-.40456-.12058-.18624-.10752-.28722-.24126-.30316-.39818l.27586-.01454c.01566.13083.08906.23104.21741.30514.06543.03777.13075.06103.19604.06683.06515.00587.12034-.00579.16538-.03197.04503-.02617.06242-.05668.05458-.09295-.01014-.03493-.04802-.08288-.11616-.14533-.06556-.06393-.11349-.11188-.1413-.14821-.0278-.03632-.04555-.07266-.0508-.11041-.01797-.07119.02682-.13805.13684-.20198.11001-.06393.23533-.09011.37086-.07849.14048.01168.27113.05238.38942.12067z" fill="#4bb5e7"/></g><g><path d="m32.36457 19.64577-.76262.44319-4.60039-2.65604.76262-.44318z" fill="#97c269"/></g><g><path d="m30.34508 20.95929c.00052.09883-.06671.18746-.2067.26881-.13755.07993-.29278.12058-.46584.12202-.17305.00145-.31631-.03192-.42956-.0973s-.16637-.15404-.157-.26445l-.465.27023-.18875-.10897 1.22761-.71341.18875.10897-.15749.09152c.19052-.02326.3462-.00001.46698.06972.12333.07121.18392.15554.187.25286zm-.69845.23681c.11283.0015.2105-.0232.29555-.07262.08749-.05085.12981-.1075.13195-.1729.00215-.06539-.03323-.11771-.11125-.16276-.07549-.04359-.16595-.06391-.27632-.061-.11035.00292-.20552.02906-.29057.07849-.08749.05084-.13232.10605-.13197.16707-.00209.06244.0333.11477.10879.15836.07551.04358.16596.0639.27382.06536" fill="#4bb5e7"/></g><g><path d="m32.1881 21.72793c-.03272-.01889-.05036-.0407-.05057-.06974-.00013-.02616.01727-.05086.04982-.06977.03256-.01892.07255-.02757.12029-.02908.04755.00153.08784.01017.12056.02906s.04778.0422.05056.06974c-.00244.02766-.01726.05085-.04982.06977s-.07512.02908-.1203.02909c-.05011-.00004-.08782-.01018-.12054-.02907z" fill="#4bb5e7"/></g><g><path d="m26.00326 20.56411-2.66521 1.54886-.23405-.13513 2.66521-1.54886z" fill="#40545d"/></g><g><path d="m31.04736 22.27715.89758-.52162.19127.11043-.89758.52161z" fill="#4bb5e7"/></g><g><path d="m27.52329 21.4417-2.66521 1.54886-.23404-.13512 2.66522-1.54886z" fill="#40545d"/></g><g><path d="m37.59914 22.66796-.76261.44318-4.60291-2.65749.76262-.44318z" fill="#cfd8dd"/></g><g><path d="m29.23712 22.43118-2.66522 1.54885-.43537-.25136 2.66522-1.54885z" fill="#40545d"/></g><g><path d="m30.24628 23.01382-2.66521 1.54886-.23405-.13513 2.66522-1.54886z" fill="#40545d"/></g><g><path d="m22.95858 24.22562c.12332.0712.1839.1497.18438.23688.00306.08568-.06676.16999-.20675.25134l-.66006.38359-.2265-.13077.59007-.34291c.20008-.11628.21191-.22228.04833-.31672-.07802-.04505-.17344-.07122-.28382-.07413s-.21307.0247-.31305.0828l-.58261.33858-.22901-.13222 1.07515-.62481.22901.13222-.19506.11336c.10021-.01742.20304-.01887.30605-.00292.10035.01456.19089.04358.26387.08571z" fill="#475195"/></g><g><path d="m24.27265 24.61359-.33749.19613.28438.16418-.18001.10461-.28438-.16419-.54761.31824c-.04992.02901-.07736.05953-.07979.09301-.00474.03482.01796.06537.06577.09297.05034.02906.12073.04063.2135.03919l-.06695.14678c-.15297-.0044-.27605-.03491-.37168-.09013-.09814-.05666-.14877-.12345-.14917-.20194-.00053-.07841.05683-.14964.16928-.21499l.54015-.3139-.13842-.07992.18001-.10461.13842.07992.33749-.19613z" fill="#475195"/></g><g><path d="m28.83801 26.84099-2.09766 1.21903-2.11145-1.21905 2.09766-1.21903z" fill="#fff"/></g><g><path d="m39.27353 22.45292c.05537.03197.05563.08429.00069.11622l-15.94925 9.26869c-.05494.03193-.14527.03194-.20064-.00002l-11.14611-6.43521c-.05538-.03197-.05312-.08284.00181-.11477l15.94925-9.26869c.05494-.03193.14276-.03339.19813-.00142zm-16.70722 6.94532 1.78012-1.03449c.05005-.02909.04973-.07846-.00312-.10898l-6.18334-3.56995c-.05285-.03051-.13809-.03054-.18814-.00145l-1.78011 1.03449c-.0525.03051-.05231.07996.00054.11047l6.18334 3.56996c.05283.0305.13821.03045.19071-.00005m4.17511-1.14934 2.42268-1.40791-2.4386-1.40793-2.42268 1.40791zm10.0951-5.13776.76261-.44318-4.60291-2.65749-.76261.44318zm-9.07236-6.1214-.76261.44318 4.60039 2.65604.76261-.44318zm2.9652 9.39061 2.66521-1.54885-.94877-.54778-2.66521 1.54885zm-5.57181-3.21689.67949.3923 2.66521-1.54885-.67949-.3923zm-1.11727-3.73268-2.66521 1.54885.61155.35308 2.66521-1.54885zm-4.32173 4.07422c.17071.00867.3185-.02182.441-.09301.12249-.07118.17983-.14824.16686-.22817-.01058-.0784-.06874-.16996-.17971-.27457-.11349-.10606-.17405-.17875-.18936-.22231-.01533-.04358.00706-.08283.06457-.11625s.12262-.04502.19546-.03487c.07283.01015.14564.0349.21609.07557.06796.03923.12595.08717.17397.14381.04795.05377.07328.10611.07862.15256l.30836-.0305c-.01049-.0697-.0485-.138-.10659-.20627-.06049-.06981-.13617-.13079-.22677-.1831-.14093-.08137-.29421-.12932-.45984-.14386-.16807-.01312-.31598.01746-.44593.09298-.13253.07702-.18471.15689-.16677.24268.01036.04354.03063.08714.06592.13078.03047.04352.08849.1031.16657.17726.08074.07553.12619.13367.13647.17434.01533.04358-.00701.07988-.06208.11189-.05494.03193-.12018.0436-.19791.03629-.08029-.00581-.15575-.03194-.23376-.07698-.15351-.08863-.24198-.21215-.26294-.36615l-.331.01743c.02105.18894.14247.34579.36393.47365.15352.08862.31427.13805.48484.1468m.81945.29931c-.01782-.06544.01192-.12355.08183-.17293l.85063.49111.15505-.0901c.15504-.0901.22469-.1918.20899-.30222-.01568-.11041-.09396-.20778-.24244-.29351-.14597-.08427-.32688-.13074-.53255-.13366-.21071-.00584-.39867.04216-.56619.13952-.16998.09878-.2521.20773-.24398.32839.00573.11912.08416.22224.23515.30941.18875.10897.39969.1613.63551.15838l.01165-.15545c-.15295.00724-.29872-.02758-.43461-.10603-.08559-.04942-.13857-.10609-.15904-.17291m11.35918.16266-.43789-.25281-2.66521 1.54885.43789.25282zm-.72478-.41845-.43538-.25137-2.66521 1.54885.43538.25137zm-2.37066-1.3687-2.66522 1.54885.43536.25136 2.66521-1.54885zm2.00065-1.08395-1.22761.71341.19128.11043.465-.27023c-.00938.1104.04375.19906.15699.26444.11326.06539.25651.09875.42957.09731.17305-.00145.3283-.04209.46584-.12202.13999-.08135.2072-.16999.2067-.26881-.0056-.09878-.0662-.18311-.18699-.25285s-.27646-.09298-.46698-.06972l.15749-.09152zm-.66401.13224c.13999-.08135.20721-.16998.2067-.26881-.00309-.09733-.06367-.18165-.18699-.25285-.12078-.06973-.27646-.09298-.46698-.06972l.15749-.09152-.18875-.10897-1.22761.71341.18875.10897.465-.27023c-.00937.1104.04376.19907.157.26445.11325.06538.25651.09875.42956.0973s.32829-.0421.46583-.12203m3.09786 2.21142c.08031.01164.16317.01013.24586-.00294l-.11503.06685c-.09997.0581-.20266.08571-.29804.08282-.10032-.00292-.19582-.03197-.28642-.08428-.09059-.0523-.14626-.122-.16679-.21211l-.23317.03054c.02583.11328.10403.20778.23993.28624.13841.07991.28917.12059.45727.12493.16316.00431.32585-.04068.48591-.1337l.78255-.45477-.19126-.11042-.13253.07702c.02204-.10027-.02354-.18457-.14183-.25286-.12079-.06974-.26154-.10165-.42202-.09877-.16307.00438-.30323.04211-.4283.11479-.12249.07118-.18974.15399-.19419.24696-.00704.09447.05109.17439.17189.24413.06545.03778.1409.0639.22617.07557m-7.00429-4.14827c.01593.15692.11692.29066.30316.39818.12583.07265.26156.1133.40455.12058.14055.00871.26587-.01747.36829-.07699.10255-.0596.15238-.12354.14196-.19037-.01043-.06684-.06101-.1424-.15434-.23101-.09083-.08717-.14382-.14966-.15647-.18604-.01028-.03485.00703-.06823.05465-.0959.04748-.02759.1026-.03631.1628-.03047.06027.00871.12056.02906.18096.06393.05788.03342.10572.07267.14618.11913s.06074.09007.06599.12783l.25811-.02464c-.01033-.05814-.04077-.11626-.08866-.17297-.05054-.0581-.11356-.10894-.18905-.15252-.11828-.06829-.24893-.10899-.38942-.12063-.13554-.01162-.26085.01456-.37086.07849s-.15481.13078-.13683.20198c.00525.03776.023.07409.0508.11042s.07574.08427.1413.14821c.06813.06244.10602.1104.11616.14532.00784.03627-.00955.06677-.05458.09295-.04503.02617-.10022.03784-.16537.03197-.06529-.00579-.13062-.02905-.19604-.06682-.12835-.0741-.20176-.17431-.21742-.30515zm-3.5439 5.01578c.16358.09444.15174.20044-.04834.31671l-.59008.34291.2265.13077.66007-.38359c.13999-.08135.2098-.16566.20674-.25135-.00048-.08718-.06105-.16568-.18438-.23688-.07298-.04213-.16352-.07115-.26387-.08571-.10301-.01595-.20583-.01449-.30604.00292l.19506-.11336-.22902-.13222-1.07515.62481.22902.13222.58262-.33858c.09997-.0581.20266-.08571.31304-.0828.11039.00293.2058.0291.28383.07415m.70217.3966.13843.07992-.54016.31391c-.11245.06535-.16981.13658-.16928.21498.0004.07849.05104.14528.14918.20194.09563.05521.21871.08573.37168.09013l.06695-.14678c-.09277.00144-.16316-.01013-.2135-.03919-.04782-.02761-.07051-.05815-.06577-.09297.00243-.03349.02986-.064.07978-.09301l.54762-.31824.28438.16419.18-.10461-.28438-.16419.33749-.19613-.22649-.13076-.33749.19613-.13843-.07992zm4.44845-4.27903.19126.11042.55005-.31965c.11747-.06827.17482-.1395.17186-.21067-.00038-.07266-.05088-.13953-.15153-.19765-.06292-.03633-.14082-.06103-.2263-.07549-.08778-.01312-.17051-.0117-.25327.00432l.51751-.30074-.19126-.11042-1.25258.72792.19126.11042.48507-.2819c.08505-.04943.17262-.07115.26303-.0683.09523.00297.17067.02327.23863.0625.13589.07846.12389.16707-.04119.26301zm4.8589 1.80316c-.08527-.01167-.17051-.0117-.25579.00287l.16251-.09444-.19126-.11042-.89758.52162.19126.11042.48507-.2819c.08505-.04943.17012-.0726.26303-.0683.09272.00151.17067.02327.23611.06105.1384.07991.12639.16852-.03869.26446l-.49254.28623.18875.10897.55005-.31965c.11747-.06827.17735-.13804.17186-.21066-.00038-.07266-.04836-.13808-.15153-.19765-.06039-.03488-.13829-.05958-.22125-.0726m-6.69432-1.66366-.23405-.13513-2.66522 1.54885.23405.13513zm-.75499-.43589-.23405-.13513-2.66521 1.54885.23405.13513zm-1.32637 2.32183.23405.13513 2.66521-1.54885-.23405-.13513zm6.32438.56377-.23404-.13512-2.66521 1.54885.23404.13512zm-2.95702-1.70724-2.66521 1.54885.23404.13512 2.66522-1.54885zm3.75811.97057.19127.11043.89758-.52162-.19127-.11043zm-2.75318-1.58955.19126.11042.89758-.52162-.19126-.11042zm1.26129-.52017c.04516-.00001.08774-.01017.1203-.02909s.04737-.04211.04982-.06977c-.00279-.02754-.01785-.05085-.05057-.06974-.03524-.02034-.07301-.02754-.12057-.02907-.04774.00151-.08773.01016-.12029.02908s-.04995.04362-.04983.06978c.00021.02904.01534.0494.05057.06974.03273.0189.07044.02905.12057.02907m2.75318 1.58955c.04517-.00001.08774-.01017.1203-.02909s.04737-.0421.04982-.06977c-.00278-.02753-.01784-.05084-.05056-.06974-.03272-.01889-.07301-.02754-.12056-.02906-.04774.00151-.08773.01016-.12029.02908-.03255.01892-.04995.04362-.04982.06977.00021.02904.01785.05085.05057.06974s.07042.02905.12054.02907" fill="#fff"/></g><g><path d="m28.63825 19.43515-.5175.30074c.08276-.01602.16548-.01745.25327-.00432.08548.01446.16338.03917.2263.07549.10066.05812.15115.12498.15154.19765.00296.07117-.05439.1424-.17186.21067l-.55005.31965-.19126-.11042.49254-.28623c.16508-.09594.17709-.18455.04119-.26301-.06795-.03923-.14339-.05953-.23862-.0625-.09041-.00285-.17798.01888-.26303.0683l-.48508.2819-.19126-.11042 1.25258-.72792z" fill="#4bb5e7"/></g><g><path d="m29.68657 20.72682c.11036-.00291.20082.01741.27632.061.07802.04505.1134.09737.11125.16276-.00214.06539-.04446.12205-.13195.1729-.08505.04943-.18272.07412-.29555.07262-.10786-.00146-.19831-.02178-.27382-.06537-.07549-.04358-.11088-.09592-.10879-.15836-.00034-.06101.04448-.11622.13197-.16707.08505-.04942.18021-.07557.29057-.07848z" fill="#fff"/></g><g><path d="m25.24827 20.12822-2.66521 1.54885-.23405-.13513 2.66521-1.54885z" fill="#40545d"/></g><g><path d="m31.49015 21.6204c.00051.09883-.06671.18746-.2067.26881-.13755.07994-.29279.12058-.46584.12202-.17306.00144-.31631-.03192-.42957-.09731-.11325-.06538-.16637-.15404-.15699-.26444l-.465.27023-.19128-.11043 1.22761-.71341.19128.11043-.15749.09152c.19053-.02326.34619-.00002.46698.06972.1208.06975.1814.15408.187.25286zm-.69845.23681c.1103.00004.20797-.02466.29302-.07408.08749-.05085.12981-.1075.13447-.17144.00215-.06539-.03574-.11917-.11125-.16276-.07549-.04359-.16846-.06536-.27631-.061-.11036.00291-.20552.02906-.29057.07849-.08749.05085-.13233.10605-.13197.16707-.0046.06099.03329.11476.10627.1569.07551.04358.16847.06535.27634.06682" fill="#4bb5e7"/></g><g><path d="m30.51536 21.79038c-.07298-.04213-.11087-.09591-.10627-.1569-.00035-.06102.04448-.11622.13197-.16707.08505-.04943.18021-.07557.29057-.07849.10785-.00436.20081.01741.27631.061s.1134.09737.11125.16276c-.00466.06394-.04697.1206-.13447.17144-.08505.04943-.18272.07412-.29302.07408-.10787-.00146-.20083-.02323-.27634-.06682z" fill="#fff"/></g><g><path d="m26.82116 21.03633-2.66522 1.54885-.23404-.13513 2.66521-1.54885z" fill="#40545d"/></g><g><path d="m33.75778 22.96152c.07801.04504.11353.09728.10886.15541-.00474.06106-.04707.1119-.12466.15699-.07746.04501-.16264.06828-.26546.06973-.09779.00435-.18568-.01747-.2662-.06396-.07549-.04358-.11346-.09442-.10368-.15257.00719-.05667.04952-.1075.12195-.1496.07501-.04359.16277-.06836.26302-.07412.10035-.00588.19068.01453.26617.05812z" fill="#fff"/></g><g><path d="m28.50226 22.00691-2.66521 1.54886-.67949-.39231 2.66522-1.54885z" fill="#40545d"/></g><g><path d="m21.62551 24.03239-.15505.0901-.85063-.49111c-.06991.04938-.09965.10748-.08183.17293.02047.06682.07345.1235.15902.1729.13589.07846.28167.11328.43461.10603l-.01165.15545c-.23582.00292-.44676-.04941-.63551-.15838-.15099-.08717-.22942-.19029-.23515-.30941-.00812-.12066.07401-.22961.24398-.32839.16753-.09735.35548-.14536.56619-.13952.20567.00293.38658.04939.53255.13366.14848.08573.22677.1831.24244.29351.01571.11043-.05393.21213-.20897.30223zm-.82812-.5042.62161.35889c.08993-.05227.12973-.11037.12198-.17001-.00797-.06243-.05592-.1162-.13897-.16415-.08304-.04794-.18351-.07703-.29899-.08572-.11535-.00877-.22058.01156-.30563.06099" fill="#475195"/></g><g><path d="m31.17241 23.54852-2.66522 1.54885-.43538-.25136 2.66522-1.54886z" fill="#40545d"/></g></g><g><path d="m21.54099 23.71707c.00775.05964-.03205.11774-.12198.17001l-.62161-.35889c.08505-.04943.19028-.06976.30564-.06099.11548.00869.21595.03778.29899.08572.08304.04795.13099.10172.13896.16415z" fill="#fff"/></g><g><path d="m29.43491 20.13837c-.03523-.02034-.05036-.0407-.05057-.06974-.00013-.02616.01727-.05086.04983-.06978s.07255-.02757.12029-.02908c.04755.00153.08533.00872.12057.02907.03272.01889.04778.0422.05057.06974-.00245.02766-.01726.05085-.04982.06977-.03255.01892-.07513.02908-.1203.02909-.05014-.00003-.08785-.01018-.12057-.02907z" fill="#4bb5e7"/></g><g><path d="m28.29418 20.6876.89758-.52162.19126.11042-.89758.52162z" fill="#4bb5e7"/></g><g><path d="m34.15705 23.03269.19126.11042-.78255.45477c-.16006.09302-.32275.13801-.48591.1337-.16811-.00434-.31886-.04502-.45727-.12493-.1359-.07846-.2141-.17296-.23993-.28624l.23317-.03054c.02053.09011.0762.15981.16679.21211.0906.05231.1861.08136.28642.08428.09538.00289.19807-.02472.29804-.08282l.11503-.06685c-.08269.01307-.16555.01458-.24586.00294-.08527-.01167-.16072-.03779-.22616-.07557-.1208-.06974-.17893-.14966-.17189-.24413.00445-.09297.0717-.17578.19419-.24696.12507-.07268.26522-.11041.4283-.11479.16048-.00289.30123.02903.42202.09877.11829.06829.16387.1526.14183.25286zm-.68054.31095c.10283-.00145.18801-.02472.26546-.06973.07759-.04509.11992-.09592.12466-.15699.00467-.05812-.03085-.11037-.10886-.15541-.07549-.04359-.16582-.06399-.26618-.05814-.10025.00577-.188.03053-.26302.07412-.07243.0421-.11477.09293-.12195.1496-.00978.05815.02818.10899.10368.15257.08053.04651.16842.06833.26621.06398" fill="#4bb5e7"/></g><g><path d="m32.91885 22.30036c.10318.05957.15115.12498.15154.19765.00548.07262-.05439.1424-.17186.21067l-.55006.31966-.18875-.10898.49254-.28623c.16508-.09594.1771-.18455.03868-.26446-.06543-.03778-.14339-.05953-.23611-.06104-.09292-.0043-.17798.01888-.26303.0683l-.48508.2819-.19126-.11042.89758-.52162.19126.11043-.16251.09444c.08527-.01457.17052-.01454.25578-.00287.08298.01299.16088.0377.22128.07257z" fill="#4bb5e7"/></g><g><path d="m24.65183 19.78386-2.66521 1.54886-.61155-.35308 2.66522-1.54885z" fill="#40545d"/></g><g><path d="m31.89719 23.96697-2.66522 1.54886-.43789-.25282 2.66522-1.54885z" fill="#40545d"/></g><g><path d="m33.39458 24.83149-2.66521 1.54886-.94877-.54778 2.66521-1.54885z" fill="#40545d"/></g><g><path d="m20.33347 26.67247c.1057.06102.1613.13367.16171.21798l-.19552.01158c-.0079-.06538-.04076-.11625-.10368-.15257-.0604-.03487-.13332-.05372-.22109-.0552-.08783-.00435-.16046.01453-.22543.05229-.06253.03634-.09748.07997-.09708.13221.00027.05233.03312.09738.09855.13516.06543.03777.1558.05522.27616.05525l-.00939.10458c-.17062.00002-.31123-.03197-.42196-.0959-.09814-.05666-.14864-.12353-.15413-.20197-.00304-.07986.04677-.14963.15434-.21214.10743-.06243.22772-.09152.37077-.08719.14041.00295.26105.03489.36675.09592z" fill="#fff"/></g><g><path d="m21.17483 26.85116-.57013.33132.57942-.00726.19126.11042-.5443.00727-.13307.4097-.1812-.10462.09606-.2978-.21314.00141-.1975.11477-.14848-.08572.9726-.56521z" fill="#fff"/></g></g></g></svg>