<svg id="Layer_1" enable-background="new 0 0 52 52" height="512" viewBox="0 0 52 52" width="512" xmlns="http://www.w3.org/2000/svg"><g><g><g><g><g><g><g enable-background="new"><g><g><g><path d="m26.9429 45.3877c.33732-.19092.79551-.16547 1.311.12729 1.01828.59186 1.83923 2.01104 1.83286 3.17568 0 .58549-.20366.9928-.53456 1.18371l.91451-.53001c.33091-.19091.53456-.6046.53456-1.18371.00637-1.17101-.81458-2.59019-1.83286-3.17568-.50912-.29276-.97369-.32457-1.311-.12729z" fill="#5b5e71"/></g></g></g><g><g><g><path d="m28.25356 45.51786c-1.01582-.58648-1.84333-.11957-1.84664 1.04768-.00332 1.17194.81883 2.59595 1.83465 3.18243s1.84334.11491 1.84666-1.05702c.00331-1.16725-.81886-2.5866-1.83467-3.17309z" fill="#474b59"/></g></g></g><g><g><g><path d="m28.25255 45.87562c-.84395-.48726-1.53146-.09934-1.53421.87042-.00276.97366.68029 2.15674 1.52424 2.64399s1.53147.09547 1.53423-.87819c.00275-.96975-.68032-2.14896-1.52426-2.63622z" fill="#d4d6d6"/></g></g></g><g><g><g><path d="m28.25255 45.87562c-.84395-.48726-1.53146-.09934-1.53421.87042-.00276.97366.68029 2.15674 1.52424 2.64399s1.53147.09547 1.53423-.87819c.00275-.96975-.68032-2.14896-1.52426-2.63622z" fill="#d4d6d6"/></g></g></g></g></g><g><g enable-background="new"><g><g><g><path d="m28.60219 48.80973.14779-.08589.29435-4.35779-.14779.08589z" fill="#c4c6c6"/></g></g></g><g><g><g><path d="m27.45082 43.61726.27632 4.68726.87505.50521.29435-4.35779z" fill="#ecf0f1"/></g></g></g></g></g><g><g enable-background="new"><g><g><g><path d="m26.28888 43.90018.00283.63111c.0009.31997.21076.6398.62808.88232.82836.48139 2.20319.48591 3.04481 0 .42745-.24679.63895-.57106.63804-.89368l-.00281-.6311c.0009.32261-.2106.64688-.63805.89367-.84162.48591-2.21645.48139-3.04481 0-.41733-.24251-.62719-.56234-.62809-.88232z" fill="#d4d6d6"/></g></g></g><g><g><g><path d="m26.91914 43.01433c-.84162.48591-.83836 1.28225-.00218 1.76818.82836.48139 2.20319.48591 3.04481 0 .8494-.49041.8461-1.28677.01773-1.76816-.83618-.48593-2.21096-.49042-3.06036-.00002z" fill="#ecf0f1"/></g></g></g></g></g><g><g><g><path d="m28.1428 47.56785c-.17203-.09932-.31217-.02025-.31273.17743-.00056.19847.13867.43963.3107.53895s.31217.01946.31274-.17901c.00056-.19768-.13868-.43805-.31071-.53737z" fill="#5b5e71"/></g></g></g></g><g><g><g enable-background="new"><g><g><g><path d="m41.5414 36.88848c.33731-.19091.79551-.16547 1.311.12729 1.01828.59185 1.83923 2.01104 1.83286 3.17568 0 .58549-.20366.9928-.53456 1.18371l.91451-.53001c.33091-.19092.53456-.6046.53456-1.18372.00637-1.17101-.81458-2.59019-1.83286-3.17568-.50912-.29276-.97369-.32457-1.311-.12729z" fill="#5b5e71"/></g></g></g><g><g><g><path d="m42.85205 37.01865c-1.01582-.58648-1.84333-.11957-1.84664 1.04768-.00332 1.17194.81884 2.59595 1.83465 3.18243s1.84334.11491 1.84666-1.05702c.00332-1.16725-.81885-2.58661-1.83467-3.17309z" fill="#474b59"/></g></g></g><g><g><g><path d="m42.85104 37.37641c-.84395-.48726-1.53146-.09934-1.53421.87042-.00276.97366.68029 2.15674 1.52424 2.64399.84395.48726 1.53146.09547 1.53423-.87818.00276-.96977-.68031-2.14898-1.52426-2.63623z" fill="#d4d6d6"/></g></g></g><g><g><g><path d="m42.85104 37.37641c-.84395-.48726-1.53146-.09934-1.53421.87042-.00276.97366.68029 2.15674 1.52424 2.64399.84395.48726 1.53146.09547 1.53423-.87818.00276-.96977-.68031-2.14898-1.52426-2.63623z" fill="#d4d6d6"/></g></g></g></g></g><g><g enable-background="new"><g><g><g><path d="m43.20068 40.31051.1478-.08589.29435-4.35778-.1478.08588z" fill="#c4c6c6"/></g></g></g><g><g><g><path d="m42.04932 35.11804.27632 4.68727.87504.5052.29435-4.35779z" fill="#ecf0f1"/></g></g></g></g></g><g><g enable-background="new"><g><g><g><path d="m40.88737 35.40097.00283.63111c.0009.31997.21076.6398.62808.88232.82836.48139 2.20319.48591 3.04481 0 .42745-.24678.63895-.57106.63804-.89368l-.00281-.6311c.0009.32262-.2106.64689-.63805.89368-.84162.4859-2.21645.48139-3.04481 0-.41732-.24252-.62718-.56236-.62809-.88233z" fill="#d4d6d6"/></g></g></g><g><g><g><path d="m41.51764 34.51512c-.84162.4859-.83836 1.28224-.00217 1.76818.82836.48139 2.20319.48591 3.04481 0 .8494-.49041.8461-1.28677.01773-1.76817-.83619-.48593-2.21097-.49042-3.06037-.00001z" fill="#ecf0f1"/></g></g></g></g></g><g><g><g><path d="m42.7413 39.06863c-.17203-.09932-.31217-.02025-.31273.17743-.00056.19847.13867.43963.3107.53895s.31218.01946.31274-.17901c.00056-.19767-.13868-.43804-.31071-.53737z" fill="#5b5e71"/></g></g></g></g><g><g><g enable-background="new"><g><g><g><path d="m7.27398 34.29158c.33732-.19091.79551-.16547 1.311.12729 1.01828.59185 1.83923 2.01104 1.83286 3.17568 0 .58548-.20366.9928-.53456 1.18371l.91451-.53001c.33091-.19092.53456-.6046.53456-1.18372.00637-1.17101-.81458-2.59019-1.83286-3.17568-.50912-.29276-.97369-.32457-1.311-.12729z" fill="#5b5e71"/></g></g></g><g><g><g><path d="m8.58464 34.42174c-1.01581-.58648-1.84333-.11957-1.84664 1.04768-.00332 1.17194.81883 2.59595 1.83465 3.18243 1.01581.58648 1.84334.11491 1.84666-1.05702.00331-1.16725-.81886-2.58661-1.83467-3.17309z" fill="#474b59"/></g></g></g><g><g><g><path d="m8.58362 34.7795c-.84395-.48725-1.53146-.09934-1.53421.87042-.00276.97366.68029 2.15674 1.52424 2.64399.84395.48726 1.53147.09547 1.53423-.87818.00275-.96977-.68031-2.14898-1.52426-2.63623z" fill="#d4d6d6"/></g></g></g><g><g><g><path d="m8.58362 34.7795c-.84395-.48725-1.53146-.09934-1.53421.87042-.00276.97366.68029 2.15674 1.52424 2.64399.84395.48726 1.53147.09547 1.53423-.87818.00275-.96977-.68031-2.14898-1.52426-2.63623z" fill="#d4d6d6"/></g></g></g></g></g><g><g enable-background="new"><g><g><g><path d="m8.93326 37.7136.1478-.08588.29435-4.35779-.1478.08589z" fill="#c4c6c6"/></g></g></g><g><g><g><path d="m7.7819 32.52113.27632 4.68727.87504.5052.29435-4.35778z" fill="#ecf0f1"/></g></g></g></g></g><g><g enable-background="new"><g><g><g><path d="m6.61995 32.80406.00283.63111c.0009.31997.21076.6398.62808.88232.82836.48139 2.20319.48591 3.04481 0 .42745-.24679.63895-.57106.63804-.89368l-.00281-.6311c.0009.32262-.2106.64689-.63805.89367-.84162.48591-2.21645.48139-3.04481 0-.41732-.24251-.62718-.56235-.62809-.88232z" fill="#d4d6d6"/></g></g></g><g><g><g><path d="m7.25022 31.91821c-.84162.48591-.83836 1.28224-.00218 1.76818.82836.48139 2.20319.48591 3.04481 0 .8494-.4904.8461-1.28677.01773-1.76816-.83618-.48594-2.21096-.49043-3.06036-.00002z" fill="#ecf0f1"/></g></g></g></g></g><g><g><g><path d="m8.47388 36.47173c-.17203-.09932-.31217-.02025-.31273.17743-.00056.19847.13867.43963.3107.53895s.31217.01946.31274-.17901c.00056-.19768-.13868-.43805-.31071-.53737z" fill="#5b5e71"/></g></g></g></g></g></g></g><g><g><g><g><g enable-background="new"><g><g><path d="m14.86249 14.68513.84963.49376c.04243.02464.08724.02471.13247-.0014.05921-.03418.11914-.11325.17523-.2408l-.84962-.49375c-.05609.12755-.11602.20662-.17523.24081-.04523.02611-.09005.02604-.13248.00138z" fill="#384f63"/></g></g><g><g><path d="m14.78139 15.91747-.84962-.49375.04149 14.63688.84962.49375z" fill="#384f63"/></g></g><g><g><path d="m21.08692 3.89359-5.07472 11.04738-.83957-.49612 4.9992-11.00951c.07628-.1719.03808-.24829.0191-.28649 0 0-.0191-.0191-.0382-.03797l.896.45802c.0191.0191.0382.0382.0382.0382.01898.0382.05718.1146-.00001.28649z" fill="#384f63"/></g></g><g><g><path d="m10.79764 8.43767 10.03637-5.7945c.41563-.23996.7704-.18788.96399.11677.18586.30015.1565.81319-.07335 1.32678l-4.81903 10.60432.04149 14.63688-2.12425 1.22643-.0415-14.63688-4.86331-5.01423c-.232-.24694-.26417-.72446-.08062-1.23789.19127-.52683.5523-.99217.96021-1.22768zm-.17308 1.49081 5.04118 5.21263c.05543.05873.11675.07223.17884.03638.05921-.03418.11914-.11325.17523-.2408l5.00288-11.01157c.06892-.1639.03012-.24773.01462-.27422-.0155-.03537-.07736-.0971-.2005-.02601l-10.03638 5.79451c-.12315.0711-.17674.19949-.1997.25706-.0153.04427-.04579.16811.02383.25202" fill="#3d566e"/></g></g><g><g><path d="m9.06434 10.40525 4.86746 5.03135.84654.47782-4.85815-5.01487c-.22905-.24119-.26517-.72326-.08439-1.22962.19292-.53049.55455-1.0005.96445-1.22962l10.0296-5.79832c.30137-.16893.56662-.19292.77153-.0724l-.85585-.49414c-.19292-.12067-.45809-.09653-.75946.07225l-10.04174 5.7983c-.4099.22912-.75946.69928-.95231 1.22962-.19292.50636-.15672.98859.07232 1.22963z" fill="#354a59"/></g></g></g></g><g><g enable-background="new"><g><g><path d="m6.40351 31.77817.00557 1.01039 22.22689 12.91046-.00557-1.01039z" fill="#d6b218"/></g></g><g><g><path d="m28.6304 44.68863.00557 1.01039 16.76326-9.67827-.00557-1.0104z" fill="#c6a51a"/></g></g><g><g><path d="m6.40019 31.77323 22.22675 12.92137 16.76838-9.6801-22.22682-12.90931z" fill="#f1c40f"/></g></g></g></g></g><g><g><g><g><g enable-background="new"><g><g><path d="m20.9904 29.3766.00196.52949c.00206.72619.47979 1.45136 1.4337 2.00572 1.91747 1.11432 5.03681 1.11537 6.96864.00003.97234-.56138 1.45785-1.29821 1.45577-2.03375l-.00196-.52949c.00208.73553-.48343 1.47236-1.45577 2.03374-1.93182 1.11534-5.05116 1.11428-6.96864-.00003-.95391-.55435-1.43164-1.27952-1.4337-2.00571z" fill="#d4d6d6"/></g></g><g><g><path d="m22.44504 27.34479c-1.93182 1.11534-1.9402 2.92218-.02093 4.03753 1.91747 1.11431 5.03681 1.11537 6.96864.00003s1.94199-2.92322.02452-4.03753c-1.91927-1.11535-5.04041-1.11537-6.97223-.00003z" fill="#ecf0f1"/></g></g></g></g><g><g><path d="m21.29781 26.70769.03448 2.46715c.00192.67866.44811 1.35648 1.33968 1.87461 1.79231 1.04158 4.70698 1.04049 6.51102-.00107.90829-.5244 1.36217-1.21274 1.36022-1.89994l-.03448-2.46715c.00195.6872-.45193 1.37554-1.36022 1.89994-1.80403 1.04156-4.7187 1.04265-6.51101.00107-.89158-.51813-1.33776-1.19594-1.33969-1.87461z" fill="#354a59"/></g><g><path d="m22.63663 28.58277c1.79321 1.04131 4.70831 1.04131 6.51046-.00299 1.80514-1.04131 1.81709-2.7271.02387-3.7714.15763.09154-6.66213.08591-6.51345 0-1.80514 1.04131-1.8141 2.73009-.02088 3.77439z" fill="#5b5e71"/></g></g><g><g enable-background="new"><g><g><path d="m20.9904 26.38975.00196.52949c.00206.72619.47979 1.45136 1.4337 2.00572 1.91747 1.11432 5.03681 1.11537 6.96864.00003.97234-.56138 1.45785-1.29821 1.45577-2.03375l-.00196-.52949c.00208.73553-.48343 1.47236-1.45577 2.03375-1.93182 1.11534-5.05116 1.11428-6.96864-.00003-.95391-.55436-1.43164-1.27953-1.4337-2.00572z" fill="#d4d6d6"/></g></g><g><g><path d="m22.44504 24.35794c-1.93182 1.11534-1.9402 2.92217-.02093 4.03753 1.91747 1.11432 5.03681 1.11537 6.96864.00003s1.94199-2.92322.02452-4.03753c.03164.01839-6.99132.01099-6.97223-.00003z" fill="#ecf0f1"/></g></g></g></g></g><g><g enable-background="new"><g><g><path d="m20.9904 20.99764.00196.52949c.00206.72619.47979 1.45136 1.4337 2.00572 1.91747 1.11432 5.03681 1.11537 6.96864.00003.97234-.56138 1.45785-1.29821 1.45577-2.03375l-.00196-.52949c.00208.73553-.48343 1.47236-1.45577 2.03374-1.93182 1.11534-5.05116 1.11428-6.96864-.00003-.95391-.55435-1.43164-1.27952-1.4337-2.00571z" fill="#d4d6d6"/></g></g><g><g><path d="m22.44504 18.96582c-1.93182 1.11534-1.9402 2.92218-.02093 4.03753 1.91747 1.11432 5.03681 1.11537 6.96864.00003s1.94199-2.92322.02452-4.03753c-1.91927-1.11535-5.04041-1.11536-6.97223-.00003z" fill="#d4dae8"/></g></g></g></g><g><g><path d="m21.29781 20.59667.03448 5.49984c.00192.67866.44811 1.35648 1.33968 1.87461 1.79231 1.04158 4.70698 1.04049 6.51102-.00107.90829-.5244 1.36217-1.21274 1.36022-1.89994l-.03448-5.49984c.00195.6872-.45193 1.37554-1.36022 1.89994-1.80403 1.04156-4.7187 1.04265-6.51101.00107-.89158-.51813-1.33776-1.19595-1.33969-1.87461z" fill="#354a59"/></g><g><path d="m22.63663 22.47174c1.79321 1.04131 4.70831 1.04131 6.51046-.00299 1.80514-1.04131 1.81709-2.7271.02387-3.7714-1.79321-1.04133-4.71129-1.04133-6.51345 0-1.80514 1.04132-1.8141 2.73009-.02088 3.77439z" fill="#5b5e71"/></g></g><g><g enable-background="new"><g><g><path d="m20.9904 20.92437.00196.52949c.00206.72619.47979 1.45136 1.4337 2.00572 1.91747 1.11432 5.03681 1.11537 6.96864.00003.97234-.56138 1.45785-1.29821 1.45577-2.03375l-.00196-.52949c.00208.73553-.48343 1.47236-1.45577 2.03374-1.93182 1.11534-5.05116 1.11428-6.96864-.00003-.95391-.55435-1.43164-1.27952-1.4337-2.00571z" fill="#d4d6d6"/></g></g><g><g><path d="m22.44504 18.89256c-1.93182 1.11534-1.9402 2.92218-.02093 4.03753 1.91747 1.11432 5.03681 1.11537 6.96864.00003s1.94199-2.92322.02452-4.03753c-1.91927-1.11536-5.04041-1.11537-6.97223-.00003z" fill="#ecf0f1"/></g></g></g></g><g><path d="m21.29781 19.80928.03448.91333c.00192.67866.44811 1.35648 1.33968 1.87461 1.79231 1.04158 4.70698 1.04049 6.51102-.00107.90829-.5244 1.36217-1.21274 1.36022-1.89994l-.03448-.91332c.00195.6872-.45193 1.37554-1.36022 1.89994-1.80403 1.04156-4.7187 1.04265-6.51101.00107-.89158-.51813-1.33776-1.19595-1.33969-1.87462z" fill="#354a59"/></g><g><path d="m22.63663 21.68436c1.79321 1.04131 4.70831 1.04131 6.51046-.00299 1.80514-1.04131 1.81709-2.7271.02387-3.7714-1.79321-1.04133-4.71129-1.04133-6.51345 0-1.80514 1.04131-1.8141 2.73009-.02088 3.77439z" fill="#3d566e"/></g><g><path d="m22.99472 18.10617c1.61314-.93512 4.22922-.93512 5.83673 0 .87861.50852 1.27414 1.18939 1.18656 1.85612-.06497-.54808-.4605-1.08767-1.18656-1.50861-1.6075-.93512-4.22359-.93512-5.83673 0-.73736.42377-1.13854.96619-1.20634 1.52274-.08475-.66957.31642-1.3589 1.20634-1.87025z" fill="#354a59"/></g><g><path d="m22.99458 18.42863c1.61314-.93512 4.22922-.93512 5.83673 0 .72606.42094 1.12159.96054 1.18656 1.50861-.0678.55656-.46897 1.09898-1.20634 1.52275-1.61597.93795-4.22922.93795-5.83673.00283-.72323-.42094-1.12159-.96055-1.18656-1.51146.0678-.55654.46898-1.09896 1.20634-1.52273z" fill="#384f63"/></g><g><path d="m24.872 25.313h2.098v2.098h-2.098z" fill="#fed57a" transform="matrix(-.707 -.707 .707 -.707 25.608 63.331)"/></g><g><path d="m25.43397 26.59117c0 .26849.21676.48524.4877.48524.26849 0 .48524-.21676.48524-.48524 0-.27094-.48524-.94407-.48524-.94407s-.4877.67313-.4877.94407z" fill="#525566"/></g><g><path d="m22.98251 19.24189.005.31848c.00028.09845.065.19678.19434.27193.26.15109.68281.15094.9445-.00015.13176-.07607.1976-.17592.19732-.27561l-.005-.31848c.00028.09969-.06556.19954-.19732.27561-.2617.15109-.68451.15125-.9445.00015-.12934-.07515-.19406-.17348-.19434-.27193z" fill="#525566"/></g><g><path d="m23.17672 19.5139c.26013.15105.683.15105.94442-.00043.26186-.15105.26359-.3956.00346-.54709-.26013-.15106-.68343-.15106-.94485 0-.26186.15105-.26316.39603-.00303.54752z" fill="#d4d6d6"/></g><g><g><path d="m23.26875 19.0187c.21189-.1215.55373-.1215.76562 0 .15821.09322.19776.22884.11301.34466-.02261-.03673-.06216-.07063-.11301-.1017-.21189-.12148-.55373-.12148-.76562 0-.05085.03107-.09041.06497-.11582.1017-.08475-.11582-.04521-.25144.11582-.34466z" fill="#525566"/></g><g><path d="m23.26875 19.26166c.21189-.12148.55373-.12148.76562 0 .05085.03107.09041.06497.11301.1017-.02543.03673-.06499.07063-.11584.09887-.21189.1215-.55373.1215-.76562 0-.05085-.02824-.08758-.06214-.113-.09887.02542-.03673.06498-.07063.11583-.1017z" fill="#3f434f"/></g></g></g><g><g><g><g><path d="m13.08054 31.42161.03448 2.46715c.00192.67867.44811 1.35648 1.33968 1.87461 1.79231 1.04158 4.70698 1.04049 6.51102-.00107.90829-.5244 1.36217-1.21274 1.36022-1.89994l-.03448-2.46715c.00195.6872-.45193 1.37554-1.36022 1.89994-1.80403 1.04156-4.71871 1.04264-6.51102.00107-.89157-.51813-1.33775-1.19595-1.33968-1.87461z" fill="#2ebf69"/></g><g><path d="m14.41936 33.29668c1.79321 1.04131 4.70831 1.04131 6.51046-.00298 1.80514-1.04131 1.81709-2.7271.02387-3.7714.15763.09154-6.66213.08591-6.51345 0-1.80514 1.04131-1.8141 2.73008-.02088 3.77438z" fill="#5b5e71"/></g></g><g><g enable-background="new"><g><g><path d="m12.77313 31.10367.00196.52949c.00206.72619.47979 1.45136 1.43371 2.00572 1.91747 1.11431 5.03681 1.11537 6.96863.00003.97234-.56138 1.45785-1.29821 1.45577-2.03374l-.00196-.52949c.00208.73553-.48343 1.47236-1.45577 2.03375-1.93182 1.11534-5.05116 1.11428-6.96863-.00003-.95392-.55437-1.43165-1.27954-1.43371-2.00573z" fill="#d4d6d6"/></g></g><g><g><path d="m14.22777 29.07186c-1.93182 1.11534-1.9402 2.92217-.02093 4.03753 1.91747 1.11432 5.03681 1.11537 6.96863.00003s1.942-2.92322.02453-4.03753c.03164.01839-6.99133.01099-6.97223-.00003z" fill="#ecf0f1"/></g></g></g></g></g><g><g enable-background="new"><g><g><path d="m12.77313 25.71155.00196.52949c.00206.72619.47979 1.45136 1.43371 2.00572 1.91747 1.11432 5.03681 1.11537 6.96863.00003.97234-.56138 1.45785-1.29821 1.45577-2.03375l-.00196-.52949c.00208.73553-.48343 1.47236-1.45577 2.03374-1.93182 1.11534-5.05116 1.11428-6.96863-.00003-.95392-.55434-1.43165-1.27952-1.43371-2.00571z" fill="#d4d6d6"/></g></g><g><g><path d="m14.22777 23.67974c-1.93182 1.11534-1.9402 2.92218-.02093 4.03753 1.91747 1.11432 5.03681 1.11537 6.96863.00003s1.94199-2.92322.02452-4.03753c-1.91926-1.11535-5.0404-1.11537-6.97222-.00003z" fill="#d4dae8"/></g></g></g></g><g><g><path d="m13.08054 25.31059.03448 5.49984c.00192.67866.44811 1.35648 1.33968 1.87461 1.79231 1.04158 4.70698 1.04049 6.51102-.00107.90829-.5244 1.36217-1.21274 1.36022-1.89994l-.03448-5.49984c.00195.6872-.45193 1.37554-1.36022 1.89994-1.80403 1.04156-4.71871 1.04265-6.51102.00107-.89157-.51813-1.33775-1.19595-1.33968-1.87461z" fill="#2ebf69"/></g><g><path d="m14.41936 27.18566c1.79321 1.04131 4.70831 1.04131 6.51046-.00299 1.80514-1.04131 1.81709-2.7271.02387-3.7714-1.79321-1.04133-4.71129-1.04133-6.51345 0-1.80514 1.04132-1.8141 2.73009-.02088 3.77439z" fill="#5b5e71"/></g></g><g><g enable-background="new"><g><g><path d="m12.77313 25.63828.00196.52949c.00206.72619.47979 1.45136 1.43371 2.00572 1.91747 1.11432 5.03681 1.11537 6.96863.00003.97234-.56138 1.45785-1.29821 1.45577-2.03375l-.00196-.52949c.00208.73553-.48343 1.47236-1.45577 2.03374-1.93182 1.11534-5.05116 1.11428-6.96863-.00003-.95392-.55434-1.43165-1.27952-1.43371-2.00571z" fill="#d4d6d6"/></g></g><g><g><path d="m14.22777 23.60647c-1.93182 1.11534-1.9402 2.92218-.02093 4.03753 1.91747 1.11432 5.03681 1.11537 6.96863.00003s1.942-2.92321.02453-4.03753c-1.91927-1.11535-5.04041-1.11537-6.97223-.00003z" fill="#ecf0f1"/></g></g></g></g><g><path d="m13.08054 24.5232.03448.91333c.00192.67866.44811 1.35648 1.33968 1.87461 1.79231 1.04158 4.70698 1.04049 6.51102-.00107.90829-.5244 1.36217-1.21274 1.36022-1.89994l-.03448-.91332c.00195.6872-.45193 1.37554-1.36022 1.89994-1.80403 1.04156-4.71871 1.04265-6.51102.00107-.89157-.51814-1.33775-1.19596-1.33968-1.87462z" fill="#2ebf69"/></g><g><path d="m14.41936 26.39827c1.79321 1.04131 4.70831 1.04131 6.51046-.00299 1.80514-1.04131 1.81709-2.7271.02387-3.7714-1.79321-1.04133-4.71129-1.04133-6.51345 0-1.80514 1.04132-1.8141 2.73009-.02088 3.77439z" fill="#2ecc71"/></g><g><path d="m14.77745 22.82009c1.61314-.93512 4.22922-.93512 5.83673 0 .87861.50852 1.27414 1.18939 1.18656 1.85612-.06497-.54808-.4605-1.08767-1.18656-1.50861-1.6075-.93512-4.22359-.93512-5.83673 0-.73736.42377-1.13854.96619-1.20634 1.52274-.08475-.66957.31641-1.35891 1.20634-1.87025z" fill="#2ebf69"/></g><g><path d="m14.77745 23.16759c1.61314-.93512 4.22922-.93512 5.83673 0 .72606.42094 1.12159.96054 1.18656 1.50861-.0678.55656-.46897 1.09898-1.20634 1.52275-1.61597.93795-4.22923.93795-5.83673.00283-.72323-.42094-1.12159-.96055-1.18656-1.51146.0678-.55654.46898-1.09896 1.20634-1.52273z" fill="#32a560"/></g><g><path d="m16.654 30.027h2.098v2.098h-2.098z" fill="#fed57a" transform="matrix(-.707 -.707 .707 -.707 8.247 65.568)"/></g><g><path d="m17.2167 31.30509c0 .26849.21676.48524.48769.48524.26849 0 .48524-.21676.48524-.48524 0-.27094-.48524-.94407-.48524-.94407s-.48769.67313-.48769.94407z" fill="#525566"/></g><g><path d="m14.76524 23.95581.005.31848c.00028.09845.065.19678.19434.27193.26.15109.68281.15094.9445-.00015.13176-.07607.1976-.17592.19732-.27561l-.005-.31848c.00028.09969-.06556.19954-.19732.27561-.2617.15109-.68451.15125-.9445.00015-.12934-.07516-.19407-.17348-.19434-.27193z" fill="#525566"/></g><g><path d="m14.95945 24.22781c.26013.15106.683.15106.94442-.00043.26186-.15105.26359-.3956.00346-.54709-.26013-.15106-.68343-.15106-.94485 0-.26186.15105-.26316.39603-.00303.54752z" fill="#d4d6d6"/></g><g><g><path d="m15.05148 23.73262c.21189-.1215.55373-.1215.76562 0 .15821.09322.19776.22884.11301.34466-.02261-.03673-.06216-.07063-.11301-.1017-.21189-.12148-.55373-.12148-.76562 0-.05085.03107-.09041.06497-.11582.1017-.08475-.11583-.04522-.25145.11582-.34466z" fill="#525566"/></g><g><path d="m15.05148 23.97557c.21189-.12148.55373-.12148.76562 0 .05085.03107.09041.06497.11301.1017-.02543.03673-.06499.07063-.11584.09887-.21188.1215-.55373.1215-.76562 0-.05085-.02824-.08758-.06214-.113-.09887.02542-.03672.06498-.07062.11583-.1017z" fill="#3f434f"/></g></g></g><g><g><g><g><path d="m30.48802 31.7194.03448 2.46715c.00192.67866.4481 1.35648 1.33968 1.8746 1.79231 1.04158 4.70698 1.04049 6.51101-.00107.90829-.5244 1.36217-1.21274 1.36022-1.89994l-.03447-2.46714c.00195.6872-.45193 1.37554-1.36022 1.89994-1.80404 1.04156-4.71871 1.04265-6.51102.00107-.89157-.51812-1.33775-1.19594-1.33968-1.87461z" fill="#c44"/></g><g><path d="m31.82684 33.59448c1.79322 1.04131 4.70831 1.04131 6.51046-.00299 1.80514-1.04131 1.81709-2.7271.02388-3.7714.15762.09153-6.66214.08591-6.51345 0-1.80515 1.04131-1.81411 2.73009-.02089 3.77439z" fill="#5b5e71"/></g></g><g><g enable-background="new"><g><g><path d="m30.18061 31.40146.00196.52949c.00206.72619.47979 1.45136 1.43371 2.00572 1.91747 1.11432 5.03681 1.11537 6.96864.00003.97234-.56138 1.45785-1.29821 1.45577-2.03375l-.00196-.52949c.00208.73553-.48343 1.47236-1.45577 2.03374-1.93182 1.11534-5.05116 1.11428-6.96863-.00003-.95393-.55434-1.43166-1.27952-1.43372-2.00571z" fill="#d4d6d6"/></g></g><g><g><path d="m31.63525 29.36965c-1.93182 1.11534-1.9402 2.92217-.02093 4.03753 1.91747 1.11432 5.03681 1.11537 6.96863.00003s1.94199-2.92322.02452-4.03753c.03166.01839-6.99131.011-6.97222-.00003z" fill="#ecf0f1"/></g></g></g></g></g><g><g enable-background="new"><g><g><path d="m30.18061 26.00935.00196.52949c.00206.72619.47979 1.45136 1.43371 2.00572 1.91747 1.11432 5.03681 1.11537 6.96864.00003.97234-.56138 1.45785-1.29821 1.45577-2.03375l-.00196-.52949c.00208.73553-.48343 1.47236-1.45577 2.03374-1.93182 1.11534-5.05116 1.11428-6.96863-.00003-.95393-.55435-1.43166-1.27952-1.43372-2.00571z" fill="#d4d6d6"/></g></g><g><g><path d="m31.63525 23.97754c-1.93182 1.11534-1.9402 2.92217-.02093 4.03753 1.91747 1.11432 5.03681 1.11537 6.96863.00003s1.94199-2.92322.02452-4.03753c-1.91926-1.11536-5.0404-1.11537-6.97222-.00003z" fill="#d4dae8"/></g></g></g></g><g><g><path d="m30.48802 25.60838.03448 5.49985c.00192.67866.4481 1.35648 1.33968 1.87461 1.79231 1.04158 4.70698 1.04049 6.51101-.00107.90829-.5244 1.36217-1.21274 1.36022-1.89994l-.03447-5.49984c.00195.6872-.45193 1.37554-1.36022 1.89994-1.80404 1.04156-4.71871 1.04265-6.51102.00107-.89157-.51814-1.33775-1.19595-1.33968-1.87462z" fill="#c44"/></g><g><path d="m31.82684 27.48346c1.79322 1.04131 4.70831 1.04131 6.51046-.00299 1.80514-1.04131 1.81709-2.7271.02388-3.7714-1.79322-1.04133-4.7113-1.04133-6.51345 0-1.80515 1.04131-1.81411 2.73009-.02089 3.77439z" fill="#5b5e71"/></g></g><g><g enable-background="new"><g><g><path d="m30.18061 25.93608.00196.52949c.00206.72619.47979 1.45136 1.43371 2.00572 1.91747 1.11432 5.03681 1.11537 6.96864.00003.97234-.56138 1.45785-1.29821 1.45577-2.03375l-.00196-.52949c.00208.73553-.48343 1.47236-1.45577 2.03374-1.93182 1.11534-5.05116 1.11428-6.96863-.00003-.95393-.55435-1.43166-1.27952-1.43372-2.00571z" fill="#d4d6d6"/></g></g><g><g><path d="m31.63525 23.90427c-1.93182 1.11534-1.9402 2.92217-.02093 4.03753 1.91747 1.11432 5.03681 1.11537 6.96863.00003s1.94199-2.92322.02452-4.03753c-1.91926-1.11536-5.0404-1.11537-6.97222-.00003z" fill="#ecf0f1"/></g></g></g></g><g><path d="m30.48802 24.821.03448.91333c.00192.67866.4481 1.35648 1.33968 1.87461 1.79231 1.04158 4.70698 1.04049 6.51101-.00107.90829-.5244 1.36217-1.21274 1.36022-1.89994l-.03447-.91332c.00195.6872-.45193 1.37554-1.36022 1.89994-1.80404 1.04156-4.71871 1.04265-6.51102.00107-.89157-.51814-1.33775-1.19596-1.33968-1.87462z" fill="#c44"/></g><g><path d="m31.82684 26.69607c1.79322 1.04131 4.70831 1.04131 6.51046-.00299 1.80514-1.04131 1.81709-2.7271.02388-3.7714-1.79322-1.04133-4.7113-1.04133-6.51345 0-1.80515 1.04132-1.81411 2.73009-.02089 3.77439z" fill="#e74c3c"/></g><g><path d="m32.18493 23.11788c1.61314-.93512 4.22923-.93512 5.83673 0 .87861.50852 1.27414 1.18939 1.18656 1.85612-.06498-.54808-.4605-1.08767-1.18656-1.50861-1.60751-.93512-4.22359-.93512-5.83673 0-.73736.42377-1.13854.96619-1.20634 1.52274-.08475-.66956.31641-1.3589 1.20634-1.87025z" fill="#c44"/></g><g><path d="m32.18493 23.46539c1.61314-.93512 4.22923-.93512 5.83673 0 .72606.42094 1.12159.96054 1.18656 1.50861-.0678.55656-.46897 1.09898-1.20634 1.52275-1.61597.93795-4.22923.93795-5.83673.00283-.72324-.42094-1.12159-.96055-1.18656-1.51146.0678-.55654.46898-1.09897 1.20634-1.52273z" fill="#e63044"/></g><g><path d="m34.062 30.325h2.098v2.098h-2.098z" fill="#fed57a" transform="matrix(-.707 -.707 .707 -.707 37.753 78.385)"/></g><g><path d="m34.62418 31.60288c0 .26849.21675.48524.48769.48524.26849 0 .48524-.21675.48524-.48524 0-.27094-.48524-.94407-.48524-.94407s-.48769.67314-.48769.94407z" fill="#525566"/></g><g><path d="m32.17272 24.2536.005.31848c.00028.09845.065.19677.19434.27193.25999.15109.6828.15094.9445-.00015.13176-.07607.1976-.17592.19732-.27561l-.005-.31848c.00028.09969-.06556.19954-.19732.27561-.2617.15109-.68451.15125-.9445.00016-.12934-.07516-.19406-.17349-.19434-.27194z" fill="#525566"/></g><g><path d="m32.36693 24.52561c.26013.15106.68299.15106.94442-.00043.26186-.15105.26359-.3956.00346-.54709-.26013-.15106-.68343-.15106-.94485 0-.26186.15105-.26316.39603-.00303.54752z" fill="#d4d6d6"/></g><g><g><path d="m32.45896 24.03041c.21188-.1215.55373-.1215.76562 0 .15821.09322.19776.22883.11301.34466-.02261-.03673-.06216-.07063-.11301-.1017-.21188-.12148-.55373-.12148-.76562 0-.05085.03107-.09041.06497-.11583.1017-.08475-.11582-.04521-.25144.11583-.34466z" fill="#525566"/></g><g><path d="m32.45896 24.27337c.21188-.12148.55373-.12148.76562 0 .05085.03107.09041.06497.11301.1017-.02544.03673-.06499.07063-.11584.09887-.21189.1215-.55373.1215-.76562 0-.05085-.02824-.08758-.06215-.113-.09887.02542-.03673.06498-.07063.11583-.1017z" fill="#3f434f"/></g></g></g><g><g><g><g><path d="m22.28535 36.40298.03448 2.46715c.00192.67866.4481 1.35648 1.33968 1.87461 1.79231 1.04158 4.70698 1.04049 6.51102-.00107.90829-.5244 1.36217-1.21274 1.36022-1.89994l-.03448-2.46715c.00195.6872-.45193 1.37554-1.36022 1.89994-1.80403 1.04156-4.71871 1.04265-6.51102.00107-.89157-.51812-1.33776-1.19594-1.33968-1.87461z" fill="#3293c9"/></g><g><path d="m23.62416 38.27806c1.79321 1.04131 4.70831 1.04131 6.51046-.00299 1.80514-1.04131 1.81709-2.7271.02387-3.7714.15763.09153-6.66213.08591-6.51345 0-1.80514 1.04132-1.81409 2.73009-.02088 3.77439z" fill="#5b5e71"/></g></g><g><g enable-background="new"><g><g><path d="m21.97794 36.08504.00196.52949c.00206.72619.47979 1.45136 1.4337 2.00572 1.91747 1.11432 5.03682 1.11537 6.96864.00003.97234-.56138 1.45785-1.29821 1.45577-2.03374l-.00196-.5295c.00208.73553-.48343 1.47237-1.45577 2.03375-1.93182 1.11534-5.05116 1.11428-6.96864-.00003-.95391-.55435-1.43165-1.27953-1.4337-2.00572z" fill="#d4d6d6"/></g></g><g><g><path d="m23.43257 34.05323c-1.93182 1.11534-1.9402 2.92218-.02093 4.03753 1.91747 1.11432 5.03682 1.11537 6.96864.00003s1.942-2.92322.02452-4.03754c.03165.01841-6.99132.011-6.97223-.00002z" fill="#d4dae8"/></g></g></g></g></g><g><g enable-background="new"><g><g><path d="m21.97794 30.69293.00196.52949c.00206.72619.47979 1.45136 1.4337 2.00572 1.91747 1.11432 5.03682 1.11537 6.96864.00003.97234-.56138 1.45785-1.29821 1.45577-2.03375l-.00196-.52949c.00208.73553-.48343 1.47236-1.45577 2.03374-1.93182 1.11534-5.05116 1.11428-6.96864-.00003-.95391-.55435-1.43165-1.27952-1.4337-2.00571z" fill="#d4d6d6"/></g></g><g><g><path d="m23.43257 28.66112c-1.93182 1.11534-1.9402 2.92217-.02093 4.03753 1.91747 1.11432 5.03682 1.11537 6.96864.00003s1.942-2.92322.02452-4.03753c-1.91927-1.11536-5.04041-1.11537-6.97223-.00003z" fill="#d4dae8"/></g></g></g></g><g><g><path d="m22.28535 30.29196.03448 5.49984c.00192.67867.4481 1.35648 1.33968 1.87461 1.79231 1.04158 4.70698 1.04049 6.51102-.00107.90829-.5244 1.36217-1.21274 1.36022-1.89994l-.03448-5.49984c.00195.6872-.45193 1.37554-1.36022 1.89994-1.80403 1.04156-4.71871 1.04264-6.51102.00107-.89157-.51812-1.33776-1.19594-1.33968-1.87461z" fill="#3293c9"/></g><g><path d="m23.62416 32.16703c1.79321 1.04131 4.70831 1.04131 6.51046-.00298 1.80514-1.04132 1.81709-2.7271.02387-3.7714-1.79321-1.04133-4.71129-1.04133-6.51345 0-1.80514 1.04131-1.81409 2.73009-.02088 3.77438z" fill="#5b5e71"/></g></g><g><g enable-background="new"><g><g><path d="m21.97794 30.61966.00196.5295c.00206.72619.47979 1.45136 1.4337 2.00572 1.91747 1.11432 5.03682 1.11537 6.96864.00003.97234-.56138 1.45785-1.29821 1.45577-2.03375l-.00196-.52949c.00208.73553-.48343 1.47236-1.45577 2.03374-1.93182 1.11534-5.05116 1.11428-6.96864-.00003-.95391-.55436-1.43165-1.27953-1.4337-2.00572z" fill="#d4d6d6"/></g></g><g><g><path d="m23.43257 28.58785c-1.93182 1.11534-1.9402 2.92217-.02093 4.03753 1.91747 1.11432 5.03682 1.11537 6.96864.00003s1.942-2.92322.02452-4.03753c-1.91927-1.11536-5.04041-1.11537-6.97223-.00003z" fill="#ecf0f1"/></g></g></g></g><g><path d="m22.28535 29.50458.03448.91333c.00192.67866.4481 1.35648 1.33968 1.87461 1.79231 1.04158 4.70698 1.04049 6.51102-.00107.90829-.5244 1.36217-1.21274 1.36022-1.89994l-.03448-.91332c.00195.6872-.45193 1.37554-1.36022 1.89994-1.80403 1.04156-4.71871 1.04265-6.51102.00107-.89157-.51814-1.33776-1.19596-1.33968-1.87462z" fill="#3293c9"/></g><g><path d="m23.62416 31.37965c1.79321 1.04131 4.70831 1.04131 6.51046-.00299 1.80514-1.04131 1.81709-2.7271.02387-3.7714-1.79321-1.04133-4.71129-1.04133-6.51345 0-1.80514 1.04132-1.81409 2.73009-.02088 3.77439z" fill="#3498db"/></g><g><path d="m23.98225 27.80146c1.61314-.93512 4.22923-.93512 5.83673 0 .87861.50852 1.27414 1.18939 1.18656 1.85612-.06497-.54808-.4605-1.08767-1.18656-1.50862-1.6075-.93512-4.22359-.93512-5.83673 0-.73736.42377-1.13854.96619-1.20634 1.52274-.08475-.66956.31642-1.35889 1.20634-1.87024z" fill="#3293c9"/></g><g><path d="m23.98225 28.14896c1.61314-.93512 4.22923-.93512 5.83673 0 .72606.42094 1.12159.96054 1.18656 1.50862-.0678.55656-.46897 1.09898-1.20634 1.52275-1.61597.93795-4.22923.93795-5.83673.00283-.72323-.42094-1.12159-.96055-1.18656-1.51146.0678-.55654.46899-1.09897 1.20634-1.52274z" fill="#3087a5"/></g><g><path d="m25.859 35.008h2.098v2.098h-2.098z" fill="#fed57a" transform="matrix(-.707 -.707 .707 -.707 20.439 80.58)"/></g><g><path d="m26.4215 36.28646c0 .26849.21676.48524.48769.48524.26849 0 .48524-.21676.48524-.48524 0-.27094-.48524-.94407-.48524-.94407s-.48769.67314-.48769.94407z" fill="#525566"/></g><g><path d="m23.97004 28.93718.005.31849c.00028.09845.065.19677.19434.27193.26.15109.6828.15094.9445-.00015.13176-.07607.1976-.17592.19732-.27561l-.005-.31848c.00028.09969-.06556.19954-.19732.27561-.2617.15109-.68451.15125-.9445.00016-.12934-.07517-.19406-.1735-.19434-.27195z" fill="#525566"/></g><g><path d="m24.16425 29.20919c.26013.15105.683.15105.94442-.00043.26186-.15105.26359-.3956.00346-.54709-.26013-.15106-.68343-.15106-.94485 0-.26186.15105-.26316.39603-.00303.54752z" fill="#d4d6d6"/></g><g><g><path d="m24.25628 28.71399c.21189-.1215.55373-.1215.76562 0 .15821.09322.19776.22883.11301.34466-.02261-.03673-.06216-.07063-.11301-.1017-.21189-.12148-.55373-.12148-.76562 0-.05085.03107-.09041.06497-.11582.1017-.08475-.11582-.04521-.25144.11582-.34466z" fill="#525566"/></g><g><path d="m24.25628 28.95695c.21189-.12148.55373-.12148.76562 0 .05085.03107.09041.06497.11301.1017-.02543.03673-.06499.07063-.11584.09887-.21189.1215-.55373.1215-.76562 0-.05085-.02824-.08758-.06215-.113-.09887.02543-.03673.06498-.07063.11583-.1017z" fill="#3f434f"/></g></g></g></g></g></g></g></svg>