<svg id="Layer_1" enable-background="new 0 0 50 50" height="512" viewBox="0 0 50 50" width="512" xmlns="http://www.w3.org/2000/svg"><g><g><g><g><g><path d="m9.71136 25.46764-8.46163-4.69202.00402 15.2248 8.46163 4.91302z" fill="#778c95"/><path d="m1.51489 35.8502-.00407-14.63144 7.93933 4.40255.00407 14.83885z" fill="#56707b"/></g><g><path d="m19.45029 11.26065-1.03006-.57104-17.1705 9.90828 1.03006.57105z" fill="#ee5550"/></g></g><g><path d="m9.71136 25.46764 17.1705-9.86501-.00401 15.40252-17.16247 9.90829z" fill="#40545d"/></g></g><g><g><g><g enable-background="new"><g><path d="m46.88809 27.4169.0364 12.14869.76798.44597-.03738-12.45513z" fill="#485f69"/></g><g><path d="m47.65509 27.55643.03738 12.45513.72662-.41935-.03607-12.03578z" fill="#40545d"/></g></g></g></g><g enable-background="new"><g><path d="m30.82451 36.55465.03597 11.99916.76792.44598-.03689-12.30562z" fill="#485f69"/></g><g><path d="m31.59151 36.69417.03689 12.30562.72668-.41936-.03563-11.88626z" fill="#40545d"/></g></g></g><g><g><g><path d="m31.58578 36.72565-30.34206-16.82088.00402.87085 30.34206 16.82088z" fill="#fecd82"/></g><g><path d="m48.75628 26.81736-30.34206-16.82087-17.1705 9.90828 30.34206 16.82088z" fill="#ffd69a"/><path d="m16.08048 25.76738 6.27069-3.61856c.14662-.08461.32687-.08616.47492-.00408l11.71122 6.49239c.16773.09299.16979.33344.00368.42929l-6.27109 3.61857c-.14662.0846-.32686.08615-.47492.00407l-11.71083-6.4924c-.16771-.09298-.16978-.33343-.00367-.42928z" fill="#56707b"/></g></g><g><path d="m31.58578 36.72565 17.1705-9.90829-.00402.87085-17.16246 9.90829z" fill="#d9ae6d"/></g></g><g><path d="m9.45284 30.15642-.00174.26791-7.94081-4.58463.00174-.26791z" fill="#485f69"/></g><g><path d="m9.45284 35.41279-.00174.26791-7.93934-4.58378.00174-.26791z" fill="#485f69"/></g><g><g enable-background="new"><g><path d="m3.75638 34.40821v.30939l-.4592.2711c-.02089.02089-.03134.03159-.03134.05249v-.30939c0-.02089.01045-.04179.03134-.05249z" fill="#b0b8bc"/></g><g><path d="m6.90803 36.22924v.31409l-.45939.2686c-.1611.08944-.43557.09526-.59664 0l-2.89373-1.67077c-.0835-.04777-.12527-.11332-.12527-.17304l.00597-.30215c0 .05972.04173.11945.1193.1614l2.89373 1.67048c.16704.09555.43554.09555.59664 0z" fill="#b0b8bc"/></g><g><path d="m6.91048 36.22856-.46158.26824c-.16282.09462-.43227.09677-.59608.00219l-2.8951-1.67149c-.1638-.09457-.161-.25066.00183-.34528l.46158-.26824.33947.196-.46158.26824c-.04928.02864-.04516.07478.00056.10118l2.5594 1.47767c.04571.02639.1254.02863.17467-.00001l.46158-.26824z" fill="#dde4e7"/></g></g></g><g><g enable-background="new"><g><path d="m3.75638 29.28494v.30939l-.4592.2711c-.02089.02089-.03134.0316-.03134.05249v-.30939c0-.02089.01045-.04179.03134-.05249z" fill="#b0b8bc"/></g><g><path d="m6.90803 31.10597v.31409l-.45939.2686c-.1611.08944-.43557.09526-.59664 0l-2.89373-1.67076c-.0835-.04778-.12527-.11332-.12527-.17305l.00597-.30215c0 .05972.04173.11944.1193.1614l2.89373 1.67048c.16704.09556.43554.09556.59664 0z" fill="#b0b8bc"/></g><g><path d="m6.91048 31.10529-.46158.26824c-.16282.09462-.43227.09677-.59608.00219l-2.8951-1.67149c-.1638-.09457-.161-.25066.00183-.34528l.46158-.26824.33947.196-.46158.26824c-.04928.02864-.04516.07479.00056.10118l2.5594 1.47767c.04571.02639.1254.02863.17467-.00001l.46158-.26824z" fill="#dde4e7"/></g></g></g><g><g enable-background="new"><g><path d="m3.75638 24.16167v.30939l-.4592.2711c-.02089.02089-.03134.0316-.03134.05249v-.30939c0-.02089.01045-.04179.03134-.05249z" fill="#b0b8bc"/></g><g><path d="m6.90803 25.98271v.31409l-.45939.2686c-.1611.08944-.43557.09526-.59664 0l-2.89373-1.67077c-.0835-.04777-.12527-.11332-.12527-.17305l.00597-.30215c0 .05972.04173.11945.1193.1614l2.89373 1.67048c.16704.09556.43554.09556.59664 0z" fill="#b0b8bc"/></g><g><path d="m6.91048 25.98203-.46158.26823c-.16282.09462-.43227.09677-.59608.00219l-2.8951-1.67149c-.1638-.09457-.161-.25066.00183-.34528l.46158-.26824.33947.196-.46158.26824c-.04928.02864-.04516.07479.00056.10118l2.5594 1.47767c.04571.02639.1254.02863.17467-.00001l.46158-.26824z" fill="#dde4e7"/></g></g></g></g><g><g><g enable-background="new"><g><path d="m22.83099 22.76075 9.35901 5.44934c-.05286-.03072-.12563-.02593-.20318.01885l-9.35901-5.44934c.07755-.04477.15032-.04957.20318-.01885z" fill="#dde4e7"/></g><g><path d="m31.94796 28.25449-9.35901-5.44934c.01303-.00957.02602-.01814.03886-.02555l9.35901 5.44934c-.01284.00742-.02583.01598-.03886.02555z" fill="#dde4e7"/></g><g><path d="m31.78244 28.91165-9.35914-5.44705c-.04393-.02681-.07321-.07567-.08054-.14407-.00487-.02681-.00487-.05851 0-.09271l9.35914 5.44716c-.00488.03658-.00488.06828 0 .09509.00732.06841.0366.11727.08054.14158z" fill="#9aa1a5"/></g><g><path d="m27.64157 31.40075-9.35901-5.44935 4.30639-3.14625 9.35901 5.44934z" fill="#dde4e7"/></g><g><path d="m27.58098 31.64041-9.35901-5.44934c-.0154-.00895-.02615-.02622-.0294-.05139-.00798-.06175.03236-.14595.08999-.18827l9.35901 5.44934c-.05763.04232-.09797.12652-.08999.18827.00325.02517.014.04244.0294.05139z" fill="#cfd8dd"/></g><g><path d="m31.98682 28.22894c.14059-.08117.26546-.03096.28449.12404.02233.17002-.08939.40129-.24513.51631-.01234.00898-.02463.01695-.03679.02397-.14278.08243-.26898.0326-.28811-.12331-.00476-.02771-.00484-.05811.00129-.09395l-4.03384 2.94939c-.00394.00276-.00787.00532-.01178.00758-.05155.02976-.09795.01345-.10537-.04395-.00798-.06175.03236-.14595.08999-.18827l4.30639-3.14626c.01303-.00957.02602-.01813.03886-.02555z" fill="#b0b8bc"/></g></g></g><g><g><path d="m24.82061 24.43852c.03515.02029.03561.06075-.00421.09035l-.28412.2112c-.03669.02727-.10114.03438-.13629.01409l-.37601-.21709c-.03621-.02091-.03035-.06185.00634-.08912l.28412-.2112c.03982-.0296.09794-.03623.13416-.01532z" fill="#b2babe"/></g><g><path d="m24.24541 24.10643c.03621.02091.03348.05952-.00634.08912l-.28412.2112c-.03669.02727-.09794.03623-.13416.01532l-.37495-.21647c-.03621-.02091-.03035-.06184.00634-.08912l.28412-.2112c.03982-.0296.09794-.03623.13416-.01532z" fill="#b2babe"/></g><g><path d="m22.77342 24.84753c.03302.01906.03348.05952-.00634.08912l-.38583.2868c-.03987.02964-.10114.03439-.13416.01532l-.37601-.21709c-.03515-.02029-.03567-.06071.0042-.09035l.38583-.2868c.03982-.0296.10114-.03438.13629-.01409z" fill="#b2babe"/></g><g><path d="m22.18224 24.50621c.03622.02091.03348.05952-.00633.08912l-.38583.2868c-.03987.02964-.09794.03623-.13416.01532l-.66786-.38559c-.03622-.02091-.03354-.05948.00633-.08912l.38583-.2868c.03982-.0296.09794-.03623.13416-.01532z" fill="#b2babe"/></g><g><path d="m23.09502 23.44225c.03516.0203.03241.0589-.0074.0885l-.28412.2112c-.03669.02727-.09794.03623-.13309.01593l-.376-.21708c-.03622-.02091-.03036-.06185.00633-.08912l.28412-.2112c.03982-.0296.09794-.03623.13416-.01532z" fill="#b2babe"/></g><g><path d="m22.51943 23.8701c.03516.0203.03139.05967-.00848.08931l-.38475.286c-.0409.0304-.10215.03936-.1373.01906l-.376-.21708c-.03622-.02091-.03035-.06185.01054-.09225l.38474-.286c.03988-.02964.09903-.03703.13525-.01612z" fill="#b2babe"/></g><g><path d="m23.09357 24.20158c.03515.02029.03459.06151-.00528.09115l-.38475.286c-.0409.0304-.10535.03751-.1405.01722l-.37601-.21709c-.03302-.01906-.02929-.06123.01161-.09163l.38475-.286c.03987-.02964.10116-.0358.13417-.01674z" fill="#b2babe"/></g><g><path d="m23.66983 24.53429c.03621.02091.03245.06028-.00742.08992l-.38475.286c-.0409.0304-.10215.03936-.13836.01845l-.37495-.21647c-.03621-.02091-.03035-.06184.01055-.09225l.38475-.286c.03987-.02964.09902-.03703.13524-.01612z" fill="#b2babe"/></g><g><path d="m22.858 25.72579c.03515.02029.03138.05966-.00849.0893l-.38474.286c-.0409.0304-.09896.03699-.13411.0167l-.37601-.21709c-.03515-.02029-.03567-.06071.00523-.09111l.38475-.286c.03987-.02964.10222-.03518.13737-.01489z" fill="#b2babe"/></g><g><path d="m29.9995 27.42855c.03622.02091.03561.06075-.0042.09035l-.28412.2112c-.03669.02727-.10008.035-.1363.01409l-.37494-.21647c-.03622-.02091-.03036-.06185.00633-.08912l.28412-.2112c.03982-.0296.09794-.03623.13416-.01532z" fill="#b2babe"/></g><g><path d="m29.42392 27.85641c.03622.02091.03459.06151-.00528.09115l-.38475.286c-.0409.0304-.10428.03813-.1405.01722l-.37494-.21647c-.03622-.02091-.03036-.06185.01054-.09225l.38475-.286c.03987-.02964.09902-.03703.13524-.01612z" fill="#b2babe"/></g><g><path d="m27.69833 26.86014c.03621.02091.03245.06028-.00742.08992l-.38475.286c-.0409.0304-.10215.03936-.13837.01845l-.37494-.21647c-.03621-.02091-.03035-.06184.01055-.09225l.38474-.286c.03988-.02964.09903-.03703.13524-.01612z" fill="#b2babe"/></g><g><path d="m25.34925 28.82155c.03622.02091.03249.06308-.00739.09272l-.38577.28676c-.03988.02964-.10007.035-.1363.01409l-.37494-.21647c-.03622-.02091-.03354-.05948.00633-.08912l.38577-.28676c.03988-.02964.10113-.0386.13735-.01768z" fill="#b2babe"/></g><g enable-background="new"><g><path d="m24.24502 24.86637c.03515.02029.03458.06151-.00529.09115l-.38475.286c-.0409.0304-.10535.03751-.1405.01722l-.37601-.21709c-.03621-.02091-.03035-.06184.01055-.09225l.38474-.286c.03988-.02964.09903-.03703.13524-.01612z" fill="#b2babe"/></g><g><path d="m23.35075 25.18085c.03302.01906.03242.0589-.0074.0885l-.38583.2868c-.03987.02964-.10007.035-.13309.01593l-.37601-.21708c-.03622-.02091-.03567-.06071.0042-.09035l.38583-.2868c.03982-.0296.10008-.035.1363-.01409z" fill="#b2babe"/></g><g><path d="m24.82129 25.19908c.03621.02091.03245.06028-.00742.08992l-.38474.286c-.0409.0304-.10215.03936-.13837.01845l-.37495-.21648c-.03621-.02091-.03248-.06307.00842-.09348l.38475-.286c.03987-.02964.10116-.0358.13737-.01489z" fill="#b2babe"/></g><g><path d="m23.927 25.51355c.03409.01968.03348.05952-.00633.08912l-.38583.2868c-.03988.02964-.10007.035-.13416.01532l-.37494-.21647c-.03622-.02091-.03566-.06071.00421-.09035l.38583-.2868c.03982-.0296.10007-.035.13629-.01409z" fill="#b2babe"/></g><g><path d="m26.54833 25.43602c.03302.01906.03348.05952-.00634.08912l-.28412.2112c-.03669.02727-.10114.03439-.13416.01532l-.37495-.21648c-.03621-.02091-.03354-.06369.00315-.09096l.28412-.2112c.03982-.0296.10114-.03438.13735-.01348z" fill="#b2babe"/></g><g><path d="m25.39542 25.53056c.03621.02091.03564.06212-.00423.09176l-.38475.286c-.0409.0304-.10535.03752-.14156.01661l-.37495-.21647c-.03621-.02091-.03035-.06184.01055-.09225l.38475-.286c.03987-.02964.09902-.03703.13524-.01612z" fill="#b2babe"/></g><g><path d="m24.5022 25.84564c.03515.02029.03561.06075-.00421.09035l-.38583.2868c-.03987.02964-.10114.03439-.13629.01409l-.37281-.21525c-.03622-.02091-.03673-.06132.00314-.09096l.38583-.2868c.03982-.0296.10114-.03439.13736-.01348z" fill="#b2babe"/></g><g><path d="m23.43212 26.05726c.03622.02091.03139.05967-.00848.08931l-.38475.286c-.0409.0304-.0979.03761-.13412.0167l-.37601-.21709c-.03515-.02029-.03566-.06071.00523-.09111l.38475-.286c.03987-.02964.10222-.03519.13737-.01489z" fill="#b2babe"/></g><g><path d="m27.12246 25.76749c.03621.02091.03348.05952-.00634.08912l-.28412.2112c-.03669.02727-.09794.03623-.13416.01532l-.37494-.21647c-.03621-.02091-.03035-.06184.00634-.08912l.28412-.2112c.03982-.0296.09794-.03623.13416-.01532z" fill="#b2babe"/></g><g><path d="m25.97274 25.86387c.03302.01906.03245.06028-.00742.08992l-.38475.286c-.0409.0304-.10535.03751-.13837.01845l-.37494-.21647c-.03621-.02091-.03354-.06369.00736-.09409l.38474-.286c.03988-.02964.10222-.03519.13843-.01428z" fill="#b2babe"/></g><g><path d="m25.07846 26.17834c.03622.02091.03668.06137-.00314.09096l-.38583.2868c-.03987.02964-.10114.03439-.13736.01347l-.37494-.21647c-.03302-.01906-.03354-.05948.00633-.08912l.38583-.2868c.03982-.0296.10114-.03438.13416-.01532z" fill="#b2babe"/></g><g><path d="m27.69765 26.09958c.03515.02029.03561.06075-.00421.09035l-.28412.2112c-.03669.02727-.10114.03439-.13629.01409l-.37601-.21709c-.03302-.01906-.03035-.06184.00634-.08912l.28412-.2112c.03982-.0296.10114-.03439.13416-.01532z" fill="#b2babe"/></g><g><path d="m26.54688 26.19535c.03621.02091.03245.06028-.00742.08992l-.38475.286c-.0409.0304-.10215.03936-.13836.01845l-.37495-.21648c-.03621-.02091-.03035-.06184.01055-.09224l.38475-.286c.03987-.02964.09903-.03703.13524-.01612z" fill="#b2babe"/></g><g><path d="m23.08528 26.68366c.03302.01906.02929.06123-.01161.09163l-.38475.286c-.03987.02964-.10116.0358-.13417.01674l-.37601-.21709c-.03622-.02091-.03458-.06151.00529-.09115l.38475-.286c.0409-.0304.10428-.03813.1405-.01722z" fill="#b2babe"/></g><g><path d="m25.65579 26.51166c.03622.02091.03561.06075-.0042.09035l-.38583.2868c-.03987.02964-.10007.035-.1363.01409l-.37494-.21647c-.03409-.01968-.03353-.05948.00634-.08912l.38583-.2868c.03982-.0296.10007-.035.13416-.01532z" fill="#b2babe"/></g><g><path d="m24.58039 26.72021c.03621.02091.03245.06028-.00742.08992l-.38475.286c-.0409.0304-.09897.03699-.13518.01608l-.37495-.21648c-.03621-.02091-.03673-.06132.00417-.09172l.38475-.286c.03987-.02964.10222-.03519.13843-.01428z" fill="#b2babe"/></g><g><path d="m28.27392 26.43229c.03621.02091.03348.05952-.00634.08912l-.28412.2112c-.03669.02727-.09794.03623-.13416.01532l-.37495-.21647c-.03621-.02091-.03035-.06185.00634-.08912l.28412-.2112c.03982-.0296.09794-.03623.13416-.01532z" fill="#b2babe"/></g><g><path d="m27.12207 26.52744c.03515.02029.03458.06151-.00529.09115l-.38475.286c-.0409.0304-.10535.03751-.1405.01722l-.37601-.21709c-.03302-.01906-.03035-.06184.01055-.09225l.38475-.286c.03987-.02964.10222-.03519.13524-.01612z" fill="#b2babe"/></g><g><path d="m23.66154 27.01637c.03621.02091.03354.06369-.00736.09409l-.38475.286c-.03987.02964-.10222.03519-.13843.01428l-.37495-.21648c-.03621-.02091-.03245-.06028.00742-.08992l.38475-.286c.0409-.0304.10215-.03936.13836-.01845z" fill="#b2babe"/></g><g><path d="m26.23312 26.84498c.03621.02091.03561.06075-.00421.09035l-.38583.2868c-.03988.02964-.10008.035-.13629.01409l-.37601-.21709c-.03303-.01907-.03247-.05886.0074-.0885l.38583-.2868c.03982-.0296.10007-.035.13309-.01593z" fill="#b2babe"/></g><g><path d="m25.15452 27.05169c.03621.02091.03245.06028-.00742.08992l-.38475.286c-.0409.0304-.09897.03699-.13518.01608l-.37494-.21647c-.03621-.02091-.03567-.06071.00523-.09111l.38474-.286c.03988-.02964.10116-.0358.13737-.01489z" fill="#b2babe"/></g><g><path d="m28.84804 26.76376c.03622.02091.03668.06137-.00314.09096l-.28412.2112c-.03669.02727-.10114.03439-.13736.01347l-.37494-.21647c-.03622-.02091-.03036-.06185.00633-.08912l.28412-.2112c.03982-.0296.09794-.03623.13416-.01532z" fill="#b2babe"/></g><g><path d="m24.24206 27.35153c.03515.02029.02929.06123-.01161.09163l-.38475.286c-.03988.02964-.09903.03703-.13418.01674l-.37601-.21709c-.03515-.02029-.03139-.05967.00848-.08931l.38475-.286c.0409-.0304.10215-.03936.1373-.01906z" fill="#b2babe"/></g><g><path d="m26.81044 27.1783c.03515.02029.03561.06075-.00421.09035l-.38583.2868c-.03987.02964-.10114.03438-.13629.01409l-.37601-.21709c-.03622-.02091-.03354-.05948.00633-.08912l.38583-.2868c.03982-.0296.09794-.03623.13416-.01532z" fill="#b2babe"/></g><g><path d="m25.72864 27.38316c.03622.02091.03246.06028-.00741.08992l-.38474.286c-.0409.0304-.09897.03699-.13519.01608l-.37494-.21647c-.03622-.02091-.03566-.06071.00523-.09111l.38475-.286c.03987-.02964.10115-.0358.13737-.01489z" fill="#b2babe"/></g><g><path d="m29.42537 27.09708c.03622.02091.03348.05952-.00633.08912l-.28412.2112c-.03669.02727-.09794.03623-.13416.01532l-.37494-.21647c-.03622-.02091-.03355-.06369.00314-.09096l.28412-.2112c.03982-.0296.10114-.03439.13736-.01347z" fill="#b2babe"/></g><g><path d="m28.27246 27.19162c.03622.02091.03565.06213-.00422.09177l-.38475.286c-.0409.0304-.10534.03751-.14157.0166l-.37494-.21647c-.03622-.02091-.03036-.06185.01054-.09225l.38474-.286c.03988-.02964.09903-.03703.13524-.01612z" fill="#b2babe"/></g><g><path d="m24.82152 27.68608c.03622.02091.03035.06184-.01055.09225l-.38474.286c-.03988.02964-.09902.03704-.13524.01612l-.37494-.21647c-.03622-.02091-.03565-.06213.00422-.09177l.38475-.286c.0409-.0304.10535-.03752.14157-.0166z" fill="#b2babe"/></g><g><path d="m27.3867 27.51101c.03622.02091.03668.06137-.00314.09096l-.38583.2868c-.03987.02964-.10114.03439-.13736.01347l-.37494-.21647c-.03622-.02091-.03354-.05948.00634-.08912l.38583-.2868c.03982-.0296.09794-.03623.13416-.01532z" fill="#b2babe"/></g><g><path d="m26.30385 27.71525c.03515.02029.03139.05967-.00848.08931l-.38475.286c-.0409.0304-.09897.03699-.13412.0167l-.37601-.21709c-.03622-.02091-.03567-.06071.00523-.09111l.38475-.286c.03987-.02964.10116-.0358.13737-.01489z" fill="#b2babe"/></g><g><path d="m28.84978 27.52493c.03622.02091.03246.06028-.00741.08992l-.38475.286c-.0409.0304-.10215.03936-.13837.01845l-.37494-.21647c-.03622-.02091-.03355-.06369.00735-.09409l.38475-.286c.03987-.02964.10222-.03519.13844-.01428z" fill="#b2babe"/></g><g><path d="m25.39884 28.0194c.03622.02091.03249.06308-.00841.09348l-.38475.286c-.03987.02964-.10116.0358-.13737.01489l-.37601-.21709c-.03302-.01906-.03139-.05967.00848-.08931l.38475-.286c.0409-.0304.10428-.03813.1373-.01906z" fill="#b2babe"/></g><g><path d="m27.96403 27.84433c.03621.02091.03561.06075-.00421.09035l-.38583.2868c-.03988.02964-.10007.035-.13629.01409l-.37601-.21709c-.03515-.02029-.03247-.05886.0074-.0885l.38583-.2868c.03982-.0296.09794-.03623.13309-.01594z" fill="#b2babe"/></g><g><path d="m24.76979 28.487c.03622.02091.03249.06308-.00739.09272l-.38577.28676c-.03988.02964-.10007.035-.1363.01409l-2.65868-1.53499c-.03621-.02091-.03673-.06133.00314-.09096l.38577-.28676c.03988-.02964.10433-.03675.14054-.01584z" fill="#b2babe"/></g><g><path d="m25.9783 28.35395c.03622.02091.03249.06308-.00841.09348l-.38475.286c-.03987.02964-.10116.0358-.13737.01489l-.37494-.21647c-.03622-.02091-.03246-.06028.00741-.08992l.38475-.286c.0409-.0304.10215-.03936.13837-.01845z" fill="#b2babe"/></g><g><path d="m28.54136 28.17765c.03515.02029.03561.06075-.00421.09035l-.38583.2868c-.03987.02964-.10114.03439-.13629.01409l-.37601-.21709c-.03515-.02029-.03247-.05886.0074-.0885l.38583-.2868c.03982-.0296.09794-.03623.13309-.01593z" fill="#b2babe"/></g><g><path d="m27.4521 28.3782c.03302.01906.03246.06028-.00741.08992l-.38475.286c-.0409.0304-.10217.03514-.13519.01608l-.37601-.21709c-.03515-.02029-.03567-.06071.00523-.09111l.38475-.286c.03987-.02964.10222-.03519.13737-.01489z" fill="#b2babe"/></g><g><path d="m26.55775 28.6885c.03622.02091.03036.06185-.01054.09225l-.38474.286c-.03988.02964-.09903.03703-.13524.01612l-.37494-.21647c-.03622-.02091-.03245-.06028.00742-.08992l.38474-.286c.0409-.0304.10215-.03936.13837-.01845z" fill="#b2babe"/></g><g><path d="m28.02624 28.70967c.03302.01906.03245.06028-.00742.08992l-.38475.286c-.0409.0304-.10216.03515-.13518.01608l-.37601-.21709c-.03515-.02029-.03566-.06071.00523-.09111l.38475-.286c.03987-.02964.10222-.03519.13737-.01489z" fill="#b2babe"/></g><g><path d="m27.13828 29.02366c.03515.02029.02929.06123-.01161.09163l-.38474.286c-.03988.02964-.09903.03703-.13418.01674l-.37601-.21709c-.03515-.02029-.03458-.06151.00529-.09115l.38475-.286c.0409-.0304.10535-.03752.1405-.01722z" fill="#b2babe"/></g></g><g><path d="m23.66915 23.77372c.03515.02029.03562.06075-.0042.09035l-.28412.2112c-.03669.02727-.10114.03438-.1363.01409l-.37601-.21709c-.03302-.01906-.02929-.06123.0074-.0885l.28412-.2112c.03982-.0296.10007-.035.13309-.01593z" fill="#b2babe"/></g><g><path d="m22.28386 25.39431c.03515.02029.03139.05967-.00848.08931l-.38474.286c-.0409.0304-.09897.03699-.13412.0167l-.37601-.21709c-.03622-.02091-.03354-.05948.00736-.08988l.38474-.286c.03988-.02964.09903-.03703.13525-.01612z" fill="#b2babe"/></g><g><path d="m21.70334 25.05915c.03622.02091.03459.06151-.00528.09115l-.38475.286c-.0409.0304-.1011.03576-.13732.01485l-.81698-.47169c-.03622-.02091-.03354-.05948.00736-.08988l.38475-.286c.03987-.02964.09902-.03703.13524-.01612z" fill="#b2babe"/></g><g><path d="m21.90127 26.83086c.03515.02029.02929.06123-.01059.09087l-.38577.28676c-.03988.02964-.09794.03623-.13309.01593l-.37601-.21709c-.03621-.02091-.03566-.06071.00421-.09035l.38577-.28676c.03987-.02964.10326-.03736.13947-.01646z" fill="#b2babe"/></g><g><path d="m21.31542 26.49262c.03622.02091.03036.06185-.00952.09149l-.38577.28676c-.03988.02964-.09794.03623-.13416.01532l-.37494-.21647c-.03622-.02091-.03673-.06133.00314-.09096l.38577-.28676c.03988-.02964.10432-.03675.14054-.01584z" fill="#b2babe"/></g><g><path d="m22.50476 26.3485c.03622.02091.03035.06185-.01054.09225l-.38475.286c-.03987.02964-.09902.03703-.13524.01612l-.37494-.21647c-.03622-.02091-.03458-.06151.00529-.09115l.38475-.286c.0409-.0304.10428-.03813.1405-.01722z" fill="#b2babe"/></g><g><path d="m21.9253 26.01395c.03622.02091.03035.06185-.01054.09225l-.38474.286c-.03988.02964-.09903.03703-.13525.01612l-.37494-.21647c-.03622-.02091-.03246-.06028.00741-.08992l.38474-.286c.0409-.0304.10215-.03936.13837-.01845z" fill="#b2babe"/></g><g><path d="m20.18101 25.83767c.03515.02029.02929.06123-.01059.09087l-.38577.28676c-.03987.02964-.09794.03623-.13309.01594l-.54963-.31733c-.03622-.02091-.03354-.05948.00633-.08912l.38577-.28676c.03987-.02964.10113-.0386.13735-.01768z" fill="#b2babe"/></g><g><path d="m20.73064 26.15499c.03515.02029.02929.06123-.01059.09087l-.38577.28676c-.03987.02964-.09794.03623-.13309.01593l-.37601-.21709c-.03621-.02091-.03567-.06071.00421-.09035l.38577-.28676c.03988-.02964.10326-.03737.13947-.01646z" fill="#b2babe"/></g><g><path d="m21.35969 25.6874c.03515.02029.02929.06123-.01161.09163l-.38475.286c-.03987.02964-.09902.03703-.13417.01674l-1.09926-.63466c-.03622-.02091-.03246-.06028.00742-.08992l.38474-.286c.0409-.0304.10215-.03936.13837-.01845z" fill="#b2babe"/></g><g><path d="m25.971 25.1027c.03621.02091.03667.06136-.00315.09096l-.28412.2112c-.03669.02727-.10114.03439-.13735.01348l-.37495-.21648c-.03621-.02091-.03035-.06184.00634-.08912l.28412-.2112c.03982-.0296.09794-.03623.13416-.01532z" fill="#b2babe"/></g><g><path d="m25.39687 24.77122c.03621.02091.03348.05952-.00634.08912l-.28412.2112c-.03669.02727-.09794.03623-.13416.01532l-.37494-.21647c-.03621-.02091-.03248-.06308.00421-.09035l.28412-.2112c.03982-.0296.10007-.035.13629-.01409z" fill="#b2babe"/></g><g><path d="m24.00625 26.38874c.03622.02091.03245.06028-.00742.08992l-.38474.286c-.0409.0304-.09896.03699-.13518.01608l-.37494-.21647c-.03622-.02091-.03673-.06132.00416-.09172l.38475-.286c.03988-.02964.10222-.03519.13844-.01428z" fill="#b2babe"/></g><g><path d="m26.87798 28.04673c.03302.01906.03138.05966-.00849.0893l-.38475.286c-.0409.0304-.10109.03576-.13411.0167l-.37601-.21709c-.03516-.0203-.03567-.06071.00523-.09111l.38474-.286c.03988-.02964.10222-.03519.13738-.01489z" fill="#b2babe"/></g><g><path d="m26.53692 29.50726c.03515.02029.03248.06307-.00739.09271l-.38577.28676c-.03988.02964-.10114.03438-.13629.01409l-.37601-.21709c-.03622-.02091-.03247-.05886.0074-.0885l.38577-.28676c.03987-.02964.10006-.03921.13628-.0183z" fill="#b2babe"/></g><g><path d="m25.94255 29.16409c.03622.02091.03355.06369-.00633.09333l-.38577.28676c-.03988.02964-.10114.03438-.13736.01347l-.37494-.21647c-.03622-.02091-.03354-.05948.00633-.08912l.38577-.28676c.03988-.02964.10113-.0386.13735-.01768z" fill="#b2babe"/></g><g><path d="m27.92843 30.697c.03621.02091.03247.05886-.0074.0885l-.07759.05767c-.03982.0296-.10001.03917-.13622.01826l-.37601-.21709c-.03515-.02029-.03249-.06308.00733-.09268l.07759-.05767c.03987-.02964.10114-.03438.13629-.01409z" fill="#b2babe"/></g><g><path d="m30.11462 29.08597c.03622.02091.03348.05952-.00633.08912l-.38583.2868c-.03987.02964-.09794.03623-.13416.01532l-.81699-.47169c-.03621-.02091-.03353-.05948.00634-.08912l.38583-.2868c.03982-.0296.09794-.03623.13416-.01532z" fill="#b2babe"/></g><g><path d="m31.31926 28.19052c.03622.02091.03348.05952-.00633.08912l-.28412.2112c-.03669.02727-.09794.03623-.13416.01532l-.54324-.31364c-.03622-.02091-.03036-.06185.00633-.08912l.28412-.2112c.03982-.0296.09794-.03623.13416-.01532z" fill="#b2babe"/></g><g><path d="m30.57683 27.76187c.03303.01907.03348.05952-.00633.08912l-.28412.2112c-.03669.02727-.10114.03439-.13416.01532l-.37601-.21709c-.03515-.02029-.03248-.06307.00421-.09035l.28412-.2112c.03982-.0296.10114-.03439.13629-.01409z" fill="#b2babe"/></g><g><path d="m29.11761 28.51035c.03622.02091.03668.06137-.00314.09096l-.38583.2868c-.03987.02964-.10114.03438-.13736.01347l-.37494-.21647c-.03622-.02091-.03353-.05948.00634-.08912l.38583-.2868c.03982-.0296.09794-.03623.13416-.01532z" fill="#b2babe"/></g><g><path d="m30.74367 28.61837c.03622.02091.03246.06028-.00741.08992l-.38474.286c-.0409.0304-.10215.03936-.13837.01845l-1.06837-.61683c-.03622-.02091-.02929-.06123.01161-.09163l.38475-.286c.03987-.02964.09796-.03765.13418-.01674z" fill="#b2babe"/></g><g enable-background="new"><g><path d="m29.48659 29.55281c.03622.02091.03246.06028-.00742.08992l-.38474.286c-.0409.0304-.09897.03699-.13519.01608l-1.26436-.72998c-.03302-.01906-.03354-.05947.00736-.08988l.38474-.286c.03988-.02964.10222-.03519.13524-.01612z" fill="#b2babe"/></g><g><path d="m27.66999 30.1407c.03622.02091.03673.06132-.00314.09096l-.08072.06c-.03982.0296-.10216.03514-.13838.01423l-.37494-.21647c-.03622-.02091-.03246-.06028.00736-.08988l.08072-.06c.03987-.02964.09794-.03623.13416-.01532z" fill="#b2babe"/></g><g><path d="m27.36175 30.36983c.03622.02091.03673.06132-.00314.09096l-.07759.05767c-.03982.0296-.10427.03671-.14049.0158l-.37494-.21647c-.03622-.02091-.03036-.06185.00946-.09145l.07759-.05767c.03988-.02964.09794-.03623.13416-.01532z" fill="#b2babe"/></g><g><path d="m28.86067 30.01809c.03622.02091.03036.06185-.01054.09225l-.38475.286c-.03987.02964-.09902.03703-.13524.01612l-1.50722-.8702c-.03622-.02091-.03458-.06151.00529-.09115l.38475-.286c.0409-.0304.10428-.03813.1405-.01722z" fill="#b2babe"/></g></g><g><path d="m26.79934 30.04512c.03515.02029.03247.05886-.0074.0885l-.07759.05767c-.03982.0296-.10107.03855-.13622.01826l-.37601-.21709c-.03515-.02029-.02929-.06123.01053-.09083l.07759-.05767c.03987-.02964.09794-.03623.13309-.01594z" fill="#b2babe"/></g></g></g><g><path d="m17.39484 6.26432.02115 7.46231 1.78399 1.03674-.02116-7.46231z" fill="#485f69"/><path d="m12.25468 13.30061.02115 3.3937 5.14016-2.96768-.02115-7.46231z" fill="#40545d"/><g><path d="m12.43846 7.59146-.09484-.05511.02364 8.33922.09484.05511z" fill="#dde4e7"/><g><path d="m17.39825 4.72793-.09484-.05512-4.95979 2.86354.09484.05511z" fill="#dde4e7"/></g><g><path d="m12.43846 7.59146.02364 8.33922 4.95979-2.86354-.02364-8.33921z" fill="#cfd8dd"/></g><g><path d="m12.68566 7.80357-.09485-.05512.02365 8.33922.09484.05511z" fill="#dde4e7"/></g><g><path d="m17.64545 4.94003-.09484-.05512-4.9598 2.86354.09485.05512z" fill="#dde4e7"/></g><g><path d="m12.68566 7.80357.02364 8.33921 4.95979-2.86353-.02364-8.33922z" fill="#cfd8dd"/></g><g><path d="m12.93285 8.01567-.09484-.05512.02364 8.33922.09485.05511z" fill="#dde4e7"/></g><g><path d="m17.89264 5.15213-.09484-.05512-4.95979 2.86354.09484.05512z" fill="#dde4e7"/></g><g><path d="m12.93285 8.01567.02365 8.33921 4.95979-2.86353-.02365-8.33922z" fill="#cfd8dd"/></g><g><path d="m13.18005 8.22777-.09484-.05512.02364 8.33922.09484.05512z" fill="#dde4e7"/></g><g><path d="m18.13984 5.36423-.09484-.05512-4.95979 2.86354.09484.05512z" fill="#dde4e7"/></g><g><path d="m13.18005 8.22777.02364 8.33922 4.95979-2.86354-.02364-8.33922z" fill="#cfd8dd"/></g><g><path d="m13.42725 8.43987-.09485-.05512.02365 8.33922.09484.05512z" fill="#dde4e7"/></g><g><path d="m18.38704 5.57633-.09484-.05511-4.9598 2.86353.09485.05512z" fill="#dde4e7"/></g><g><path d="m13.42725 8.43987.02364 8.33922 4.95979-2.86354-.02364-8.33922z" fill="#cfd8dd"/></g><g><path d="m13.67444 8.65197-.09484-.05511.02364 8.33921.09484.05512z" fill="#dde4e7"/></g><g><path d="m18.63424 5.78843-.09485-.05511-4.95979 2.86354.09484.05511z" fill="#dde4e7"/></g><path d="m13.67444 8.65197.02364 8.33922 4.9598-2.86354-.02364-8.33922z" fill="#cfd8dd"/></g><path d="m14.03808 14.44232.02116 3.39369 5.32197-3.07264-.02116-7.46231z" fill="#40545d"/><path d="m12.07662 13.30244.02115 3.39369 1.96147 1.13988-.02116-3.39369z" fill="#485f69"/><g><path d="m14.03865 14.33746 5.14016-7.03651-1.784-1.03641-5.03526 6.89267.00061.20472z" fill="none"/><path d="m12.36016 13.36193-.00061-.20472-.1049.14339z" fill="none"/><g><path d="m18.63766 6.98637.00298 1.05141.53817-.73683z" fill="none"/><g fill="#56707b"><path d="m14.03865 14.33746-1.67849-.97553.00027.10545 1.67767.97509 4.60314-6.17702-.0006-.22767z"/><path d="m18.63733 6.88092.00033.10545.54115.31458-.53817.73683.0006.22767.7188-.9645z"/></g></g><path d="m12.25465 13.3006.1049-.14339-.00066-.23341-.28227.37857.28381.16501-.00027-.10545z" fill="#56707b"/></g></g><g><g><g><g enable-background="new"><g><path d="m32.33998 20.87188v.02089c-.01045.25021-.18785.53252-.39659.65736l-2.4734 1.4299-3.73621-2.17083 2.4734-1.4299c.20874-.12485.38614-.40665.38614-.64666.01045-.0107.01045-.02089.01045-.03159l-.01045-2.08726 3.73621 2.14994z" fill="#485f69"/></g><g><path d="m32.33998 20.87188v.02089l-3.74666-2.16013c.01045-.0107.01045-.02089.01045-.03159l-.01045-2.08726 3.73621 2.14994z" fill="#40545d"/></g><g><path d="m32.33276 18.50966-3.7372-2.17183.19778-.11419 3.7372 2.17183z" fill="#686969"/></g><g><path d="m29.47263 23.20647-3.7372-2.17182-.00065-.22728 3.7372 2.17183z" fill="#56707b"/></g><g><path d="m32.53054 18.39547.00669 2.35872c.00107.37668-.26356.8351-.59142 1.02439l-2.47318 1.42789-.00064-.22727 2.47318-1.42789c.21739-.12551.395-.43111.39428-.68293l-.00669-2.35872z" fill="#40545d"/></g></g></g><g><g><g><g><g enable-background="new"><g><path d="m22.90057 12.3335 1.40535-.8167 14.80302 9.24133-.76901.48929z" fill="#e8e8e8"/></g><g><path d="m23.6394 2.48125 1.40535-.8167-.02679 9.45011-1.40535.8167z" fill="#3e3e3e"/></g><g><path d="m38.33993 21.24742-.00434 1.52858c-.00093.32917-.23404.4621-.52048.29672l-14.39861-8.31304c-.28963-.16722-.5212-.56842-.52027-.89759l.00433-1.52859z" fill="#dde4e7"/></g><g><path d="m39.10764 20.75939-.00499 1.52518c0 .16454-.05483.27919-.14954.3342l-.76942.48994c.09472-.05477.14954-.16941.14954-.33395l.00499-1.52542z" fill="#b0b8bc"/></g><g><path d="m37.66245 10.57745.76902-.48928-.0268 9.45011-.76901.48929z" fill="#6ac4ef"/></g><g><path d="m23.61261 11.93136 1.40535-.8167 13.38671 8.42363-.76902.48928z" fill="#3e3e3e"/></g><g><path d="m37.66727 10.57554-.03134 9.45534-11.35469-6.55428-2.2751-1.31473-.39659-.22982v-1.53436l.03134-7.92098 5.22853 3.01623.92885.54271.49054.2818 2.26465 1.30453z" fill="#4bb5e7"/></g><g><path d="m23.6394 2.48124 1.40535-.81669 13.38672 8.42362-.76902.48928z" fill="#6ac4ef"/></g><g><path d="m38.61909 9.38359-14.39652-8.30986c-.14455-.08471-.27916-.09468-.37387-.03992l-.76943.49018c.09472-.05477.22932-.0499.37387.03481l14.40151 8.31497c.14139.08178.26896.2232.3617.38482l.76909-.4897c-.09337-.16185-.22234-.30327-.36635-.3853z" fill="#56707b"/><path d="m38.21636 10.2586c.09365.16308.15176.3471.15176.51237l-.02991 10.47836.76943-.48994.02991-10.47836c0-.16527-.05799-.34904-.1521-.51213z" fill="#40545d"/></g></g></g><g><path d="m37.85253 9.87396c.28645.16538.51804.5664.5171.89557l-.02971 10.47789-15.43936-8.91392.0297-10.47789c.00093-.32917.23403-.4619.52366-.29469zm-.21688 10.15361.02679-9.45011-14.02304-8.09621-.02679 9.45011z" fill="#485f69"/></g></g></g><g><path d="m30.84279 17.98117c-.00374.26538-.19064.37745-.42239.24293-.24672-.142-.43362-.46725-.43362-.73646 0-.26538.19064-.36997.43362-.22797.2355.13452.42239.45612.42239.7215z" fill="#cfd8dd"/></g></g></g><g fill="#61c4f0"><path d="m29.79827 6.03565-6.18872 5.77104v-1.409l5.25987-4.90475z"/><path d="m32.55346 7.62198-6.27222 5.85462-2.2751-1.31473 6.28267-5.84442z"/></g></g></g></svg>