<svg id="Layer_1" enable-background="new 0 0 52 52" height="512" viewBox="0 0 52 52" width="512" xmlns="http://www.w3.org/2000/svg"><g><g><g><g enable-background="new"><g><path d="m45.20662 37.3279-.00439 1.54809-19.14181 11.12401.00439-1.5481z" fill="#9e6e46"/></g><g><path d="m26.06481 48.4519-.00439 1.5481-19.26704-11.12383.00439-1.5481z" fill="#a87648"/></g><g><path d="m45.20662 37.3279-19.14181 11.124-19.26704-11.12383 19.14181-11.124z" fill="#bc874d"/></g></g></g><g><g><g><g><path d="m28.54644 22.32759-.97065-.56448-.03441-14.10498c-.00689-2.24414.45102-3.18408-.82937-3.92755l.9706.56448c1.28038.74347.82252 1.68341.82941 3.92755z" fill="#37617b"/></g><path d="m28.10208 3.04968c-1.44559-.71595-3.35199-.60638-5.47223.61897-4.46071 2.57455-8.07473 8.83194-8.06095 13.96041l.03441 22.27017-.9706-.55759-.03445-22.27706c-.01374-5.12847 3.60028-11.38586 8.06099-13.96041 2.23725-1.29417 4.27489-1.41118 5.74115-.55759z" fill="#474b59"/><g><path d="m22.62654 3.66696c4.45663-2.57304 6.84487-1.13643 6.85941 3.98964l.03511 14.1043-.97571.56333-.03511-14.1043c-.01277-4.50488-1.96009-5.69526-5.88052-3.4318s-7.09648 7.76967-7.0837 12.27455l.03511 22.27638-.97571.56333-.03512-22.2764c-.01453-5.12606 3.59961-11.386 8.05624-13.95903z" fill="#5b5e71"/></g></g><g><g><path d="m35.59135 8.09041c-1.03346.04447-2.18369.39997-3.3923 1.09905-4.4608 2.57447-8.0747 8.83191-8.06103 13.96049l.03105 20.03036-9.0699-5.33253-.03453-20.54933c-.01366-4.82549 3.37988-10.69737 7.57213-13.12055 2.10643-1.2183 4.02033-1.3286 5.40384-.53015z" fill="#2ecc71"/><g><path d="m30.50352 9.24039c-1.51964 1.13482-2.9091 2.65794-4.05635 4.37559-.8228 1.23171-1.52113 2.56354-2.05351 3.92419l-7.63299-4.49111c.33588-.93633.7669-1.86322 1.28736-2.76452.66107-1.14526 1.4307-2.18841 2.28703-3.10065.87522-.93235 1.80012-1.68311 2.74937-2.23164.02211-.01292.04422-.02534.06633-.03801z" fill="#2ebf69"/><path d="m30.50352 9.24039c-1.51964 1.13482-2.9091 2.65794-4.05635 4.37559l-4.51822-2.61621 1.15548-6.04751c.02211-.01292.04422-.02534.06633-.03801z" fill="#32a560"/><path d="m23.15076 4.91424-1.22181 6.08552-5.16829 2.0493c.33588-.93633.7669-1.86322 1.28736-2.76452.66107-1.14526 1.4307-2.18841 2.28703-3.10065.87522-.93235 1.80012-1.68311 2.74937-2.23164.02212-.01292.04423-.02534.06634-.03801z" fill="#30b265"/></g></g><g><path d="m32.34665 9.88898c4.19732-2.42332 7.60581-.47588 7.61948 4.34717l.03511 20.55542-15.18945 8.76964-.03511-20.55542c-.01367-4.82306 3.37705-10.69603 7.56997-13.11681z" fill="#ecf0f1"/></g></g><g><g><path d="m40.33569 37.22138-.97065-.56448-.03441-22.27707c-.00689-2.24414-.79851-3.82052-2.07889-4.56399l.9706.56448c1.28038.74347 2.07204 2.31985 2.07893 4.56399z" fill="#3f434f"/></g><path d="m38.67667 9.06553c-1.44559-.71595-3.38684-.53696-5.50707.68838-4.46072 2.57455-8.07473 8.83194-8.06095 13.96041l.03441 22.27017-.9706-.55759-.03446-22.27705c-.01374-5.12847 3.60028-11.38586 8.06099-13.96041 2.23725-1.29417 4.27488-1.41118 5.74114-.55759z" fill="#474b59"/><g><path d="m33.16627 9.75223c4.45663-2.57304 8.09439-.49999 8.10893 4.62607l.03511 22.27638-.97571.56333-.03511-22.27638c-.01277-4.50488-3.20961-6.3317-7.13004-4.06824s-7.09648 7.76967-7.0837 12.27455l.03511 22.27638-.97571.56333-.03511-22.27638c-.01454-5.12607 3.5996-11.38601 8.05623-13.95904z" fill="#5b5e71"/></g></g><g><path d="m28.78819 21.42141.02893 10.13904 8.8147-5.09483-.02898-10.13179z" fill="#e74c3c"/><path d="m36.94257 26.06903-.02488-8.54497-7.44012 4.29433.02454 8.55103z" fill="#c44"/></g><g><g><path d="m36.35793 20.16442.01112 3.92411-6.30696 3.64132-.01113-3.9241z" fill="#f1c40f"/></g><g><path d="m36.35985 20.16442-3.14401 4.38496-3.16295-.74363z" fill="#e5bd13"/></g></g></g><g><g><path d="m31.87877 33.07752.00855 3.01421-.4435.25605-.00668-2.35448-.90855 2.62173-.24754.14292-.91699-1.56775.00667 2.35448-.4435.25606-.00855-3.01421.69104-.39898.7961 1.43575.78536-2.34881z" fill="#474b59"/></g><g><path d="m33.87277 31.92627 1.16372 2.34727-.47444.27392-.26324-.53257-1.31329.75823-.26278.83627-.47101.27193 1.14662-3.68114zm-.7098 2.27352.9523-.54981-.47797-.97048z" fill="#474b59"/></g><g><path d="m35.83241 30.79488.00854 3.01421-.44005.25407-.00854-3.01421z" fill="#474b59"/></g><g><path d="m37.00476 30.11802.00718 2.53226 1.19641-.69075.00137.48196-1.63991.9468-.00855-3.01421z" fill="#474b59"/></g></g></g></g><path d="m23.37135 21.84417-.02146 1.67445-6.86956-3.97147.02149-1.66907 1.57785.90699z" fill="#3f434f"/><path d="m15.58649 19.45064 6.86821 3.99067.91665-1.59714-6.87087-3.97325z" fill="#d4d6d6"/><g><g enable-background="new"><g><path d="m27.09066 11.19048-3.7045-2.15282c-.0765-.04446-.12395-.13893-.12433-.27322-.00077-.2707.18967-.60004.42503-.73592l3.7045 2.15282c-.23536.13588-.4258.46522-.42503.73592.00037.13429.04783.22876.12433.27322z" fill="#ecf0f1"/></g><g><path d="m27.39136 10.18134.00278.97946c-.23536.13588-.42704.02691-.42781-.24354-.00077-.2707.18967-.60004.42503-.73592z" fill="#d4d6d6"/></g></g></g></g></svg>