<svg id="Layer_1" enable-background="new 0 0 50 50" height="512" viewBox="0 0 50 50" width="512" xmlns="http://www.w3.org/2000/svg"><g><g><g><g enable-background="new"><g><path d="m46.76599 14.32303-.02412 8.5053-8.1135 4.71506.02411-8.50531z" fill="#d9ae6d"/></g><g><path d="m38.65248 19.03808-.02411 8.50531-16.73179-9.66011.02411-8.5053z" fill="#fecd82"/></g><g><path d="m46.76599 14.32303-8.11351 4.71505-16.73179-9.6601 8.11351-4.71505z" fill="#ffd69a"/><g><path d="m45.99982 14.45973.23317-.13554-16.19886-9.35272-7.58071 4.40579.23324.1345 7.34747-4.27024z" fill="#d9ae6d"/><path d="m45.99982 14.45973-15.96569-9.21821-7.34747 4.27024 15.96615 9.21769z" fill="#fecd82"/></g></g></g></g><g><g><path d="m22.52015 10.21501.02412 7.43762.3379.19636-.02411-7.43761z" fill="#d9ae6d"/></g><g><path d="m23.76008 10.93118.02411 7.43761.3379.19637-.02411-7.43761z" fill="#d9ae6d"/></g><g><path d="m25 11.64735.02411 7.43761.3379.19637-.02411-7.43762z" fill="#d9ae6d"/></g><g><path d="m26.23992 12.36352.02411 7.43761.33791.19637-.02411-7.43762z" fill="#d9ae6d"/></g><g><path d="m27.47985 13.07968.02411 7.43762.3379.19637-.02411-7.43762z" fill="#d9ae6d"/></g><g><path d="m28.71977 13.79585.02411 7.43762.3379.19636-.02411-7.43761z" fill="#d9ae6d"/></g><g><path d="m29.95969 14.51202.02411 7.43762.3379.19636-.02411-7.43761z" fill="#d9ae6d"/></g><g><path d="m31.19961 15.22819.02411 7.43761.33791.19637-.02411-7.43761z" fill="#d9ae6d"/></g><g><path d="m32.43953 15.94436.02412 7.43761.3379.19637-.02411-7.43762z" fill="#d9ae6d"/></g><g><path d="m33.67946 16.66053.02411 7.43761.3379.19637-.02411-7.43762z" fill="#d9ae6d"/></g><g><path d="m34.91938 17.37669.02411 7.43762.3379.19637-.02411-7.43762z" fill="#d9ae6d"/></g><g><path d="m36.1593 18.09286.02411 7.43762.33791.19636-.02412-7.43761z" fill="#d9ae6d"/></g><g><path d="m37.39922 18.80903.02412 7.43761.3379.19637-.02411-7.43761z" fill="#d9ae6d"/></g></g><g><g><path d="m45.97799 15.3258-.02411 7.43761-.3379.19637.02411-7.43762z" fill="#bf9960"/></g><g><path d="m44.73807 16.04197-.02411 7.43761-.3379.19637.02411-7.43762z" fill="#bf9960"/></g><g><path d="m43.49815 16.75813-.02411 7.43762-.3379.19637.02411-7.43762z" fill="#bf9960"/></g><g><path d="m42.25823 17.4743-.02411 7.43762-.33791.19636.02411-7.43761z" fill="#bf9960"/></g><g><path d="m41.0183 18.19047-.02411 7.43761-.3379.19637.02411-7.43761z" fill="#bf9960"/></g><g><path d="m39.77838 18.90664-.02411 7.43761-.3379.19637.02411-7.43761z" fill="#bf9960"/></g></g></g><g><g><g enable-background="new"><g><path d="m37.4347 19.41356-.02411 8.5053-8.1135 4.71505.02411-8.5053z" fill="#525ba8"/></g><g><path d="m29.3212 24.12861-.02411 8.5053-16.73179-9.6601.02411-8.5053z" fill="#616ab1"/></g><g><path d="m37.4347 19.41356-8.1135 4.71505-16.73179-9.6601 8.1135-4.71506z" fill="#8189c3"/><g><path d="m36.66854 19.55026.23317-.13554-16.19887-9.35272-7.5807 4.40579.23323.1345 7.34747-4.27024z" fill="#525ba8"/><path d="m36.66854 19.55026-15.9657-9.21821-7.34747 4.27024 15.96615 9.21769z" fill="#616ab1"/></g></g></g></g><g><g><path d="m13.18887 15.30554.02411 7.43761.33791.19637-.02412-7.43761z" fill="#525ba8"/></g><g><path d="m14.42879 16.02171.02412 7.43761.3379.19637-.02411-7.43762z" fill="#525ba8"/></g><g><path d="m15.66872 16.73788.02411 7.43761.3379.19637-.02411-7.43762z" fill="#525ba8"/></g><g><path d="m16.90864 17.45404.02411 7.43762.3379.19637-.02411-7.43762z" fill="#525ba8"/></g><g><path d="m18.14856 18.17021.02411 7.43762.33791.19637-.02412-7.43762z" fill="#525ba8"/></g><g><path d="m19.38848 18.88638.02412 7.43762.3379.19636-.02411-7.43761z" fill="#525ba8"/></g><g><path d="m20.6284 19.60255.02412 7.43761.3379.19637-.02411-7.43761z" fill="#525ba8"/></g><g><path d="m21.86833 20.31872.02411 7.43761.3379.19637-.02411-7.43761z" fill="#525ba8"/></g><g><path d="m23.10825 21.03489.02411 7.43761.33791.19637-.02412-7.43762z" fill="#525ba8"/></g><g><path d="m24.34817 21.75105.02412 7.43762.3379.19637-.02411-7.43762z" fill="#525ba8"/></g><g><path d="m25.58809 22.46722.02412 7.43762.3379.19637-.02411-7.43762z" fill="#525ba8"/></g><g><path d="m26.82802 23.18339.02411 7.43762.3379.19636-.02411-7.43761z" fill="#525ba8"/></g><g><path d="m28.06794 23.89956.02411 7.43761.33791.19637-.02412-7.43761z" fill="#525ba8"/></g></g><g><g><path d="m36.64671 20.41632-.02411 7.43762-.33791.19637.02412-7.43762z" fill="#475195"/></g><g><path d="m35.40679 21.13249-.02411 7.43762-.33791.19637.02412-7.43762z" fill="#475195"/></g><g><path d="m34.16686 21.84866-.02411 7.43762-.3379.19637.02411-7.43762z" fill="#475195"/></g><g><path d="m32.92694 22.56483-.02411 7.43762-.3379.19636.02411-7.43761z" fill="#475195"/></g><g><path d="m31.68702 23.281-.02411 7.43761-.33791.19637.02412-7.43761z" fill="#475195"/></g><g><path d="m30.4471 23.99717-.02411 7.43761-.33791.19637.02411-7.43762z" fill="#475195"/></g></g></g><g><g><g enable-background="new"><g><path d="m28.10342 24.50409-.02411 8.5053-8.11351 4.71506.02412-8.50531z" fill="#cb4844"/></g><g><path d="m19.98992 29.21914-.02412 8.50531-16.73179-9.66011.02411-8.5053z" fill="#ee5550"/></g><g><path d="m28.10342 24.50409-8.1135 4.71505-16.7318-9.6601 8.11351-4.71506z" fill="#f17572"/><g><path d="m27.33726 24.64079.23316-.13554-16.19886-9.35272-7.58071 4.40579.23324.1345 7.34747-4.27024z" fill="#cb4844"/><path d="m27.33726 24.64079-15.9657-9.21821-7.34747 4.27024 15.96615 9.21769z" fill="#ee5550"/></g></g></g></g><g><g><path d="m3.85759 20.39607.02411 7.43761.3379.19637-.02411-7.43761z" fill="#cb4844"/></g><g><path d="m5.09751 21.11224.02411 7.43761.3379.19637-.02411-7.43762z" fill="#cb4844"/></g><g><path d="m6.33743 21.82841.02411 7.43761.33791.19637-.02412-7.43762z" fill="#cb4844"/></g><g><path d="m7.57735 22.54457.02412 7.43762.3379.19637-.02411-7.43762z" fill="#cb4844"/></g><g><path d="m8.81728 23.26074.02411 7.43762.3379.19636-.02411-7.43761z" fill="#cb4844"/></g><g><path d="m10.0572 23.97691.02411 7.43761.3379.19637-.02411-7.43761z" fill="#cb4844"/></g><g><path d="m11.29712 24.69308.02411 7.43761.33791.19637-.02412-7.43761z" fill="#cb4844"/></g><g><path d="m12.53704 25.40925.02412 7.43761.3379.19637-.02411-7.43762z" fill="#cb4844"/></g><g><path d="m13.77697 26.12542.02411 7.43761.3379.19637-.02411-7.43762z" fill="#cb4844"/></g><g><path d="m15.01689 26.84158.02411 7.43762.3379.19637-.02411-7.43762z" fill="#cb4844"/></g><g><path d="m16.25681 27.55775.02411 7.43762.33791.19636-.02412-7.43761z" fill="#cb4844"/></g><g><path d="m17.49673 28.27392.02412 7.43762.3379.19636-.02411-7.43761z" fill="#cb4844"/></g><g><path d="m18.73666 28.99009.02411 7.43761.3379.19637-.02411-7.43762z" fill="#cb4844"/></g></g><g><g><path d="m27.31542 25.50686-.02411 7.43761-.3379.19636.02411-7.43761z" fill="#b4403c"/></g><g><path d="m26.0755 26.22302-.02411 7.43762-.3379.19637.02411-7.43762z" fill="#b4403c"/></g><g><path d="m24.83558 26.93919-.02411 7.43761-.33791.19637.02412-7.43761z" fill="#b4403c"/></g><g><path d="m23.59566 27.65536-.02412 7.43762-.3379.19636.02412-7.43761z" fill="#b4403c"/></g><g><path d="m22.35573 28.37153-.02411 7.43761-.3379.19637.02411-7.43762z" fill="#b4403c"/></g><g><path d="m21.11581 29.0877-.02411 7.43761-.3379.19637.02411-7.43762z" fill="#b4403c"/></g></g></g><g><g><g enable-background="new"><g><path d="m37.46458 10.65989-.02411 8.50531-8.11351 4.71505.02412-8.50531z" fill="#cb4844"/></g><g><path d="m29.35108 15.37494-.02412 8.50531-16.73179-9.66011.02411-8.5053z" fill="#ee5550"/></g><g><path d="m37.46458 10.65989-8.1135 4.71505-16.7318-9.6601 8.11351-4.71505z" fill="#f17572"/><g><path d="m36.69841 10.79659.23317-.13554-16.19886-9.35272-7.58071 4.40579.23324.1345 7.34747-4.27024z" fill="#cb4844"/><path d="m36.69841 10.79659-15.96569-9.21821-7.34747 4.27024 15.96615 9.21769z" fill="#ee5550"/></g></g></g></g><g><g><path d="m13.21875 6.55187.02411 7.43762.3379.19636-.02411-7.43761z" fill="#cb4844"/></g><g><path d="m14.45867 7.26804.02411 7.43761.3379.19637-.02411-7.43761z" fill="#cb4844"/></g><g><path d="m15.69859 7.98421.02411 7.43761.33791.19637-.02412-7.43761z" fill="#cb4844"/></g><g><path d="m16.93851 8.70038.02412 7.43761.3379.19637-.02412-7.43762z" fill="#cb4844"/></g><g><path d="m18.17844 9.41654.02411 7.43762.3379.19637-.02411-7.43762z" fill="#cb4844"/></g><g><path d="m19.41836 10.13271.02411 7.43762.3379.19637-.02411-7.43762z" fill="#cb4844"/></g><g><path d="m20.65828 10.84888.02411 7.43762.33791.19636-.02412-7.43761z" fill="#cb4844"/></g><g><path d="m21.8982 11.56505.02412 7.43761.3379.19637-.02412-7.43761z" fill="#cb4844"/></g><g><path d="m23.13813 12.28122.02411 7.43761.3379.19637-.02411-7.43762z" fill="#cb4844"/></g><g><path d="m24.37805 12.99739.02411 7.43761.3379.19637-.02411-7.43762z" fill="#cb4844"/></g><g><path d="m25.61797 13.71355.02411 7.43762.33791.19637-.02412-7.43762z" fill="#cb4844"/></g><g><path d="m26.85789 14.42972.02412 7.43762.3379.19637-.02411-7.43762z" fill="#cb4844"/></g><g><path d="m28.09782 15.14589.02411 7.43762.3379.19636-.02411-7.43761z" fill="#cb4844"/></g></g><g><g><path d="m36.67659 11.66266-.02412 7.43761-.3379.19637.02411-7.43762z" fill="#b4403c"/></g><g><path d="m35.43666 12.37883-.02411 7.43761-.3379.19637.02411-7.43762z" fill="#b4403c"/></g><g><path d="m34.19674 13.09499-.02411 7.43762-.33791.19637.02412-7.43762z" fill="#b4403c"/></g><g><path d="m32.95682 13.81116-.02412 7.43762-.3379.19636.02412-7.43761z" fill="#b4403c"/></g><g><path d="m31.71689 14.52733-.02411 7.43761-.3379.19637.02411-7.43761z" fill="#b4403c"/></g><g><path d="m30.47697 15.2435-.02411 7.43761-.3379.19637.02411-7.43761z" fill="#b4403c"/></g></g></g><g><g><g enable-background="new"><g><path d="m16.64708 35.77943.02411 8.5053 8.1135 4.71506-.02411-8.50531z" fill="#cfd8dd"/></g><g><path d="m24.76058 40.49448.02411 8.50531 16.7318-9.66011-.02412-8.5053z" fill="#b0b8bc"/></g><g><path d="m16.64708 35.77943 8.1135 4.71505 16.73179-9.6601-8.1135-4.71506z" fill="#dde4e7"/><g><path d="m17.41324 35.91613-.23316-.13554 16.19886-9.35272 7.5807 4.40579-.23323.1345-7.34747-4.27024z" fill="#9aa1a5"/><path d="m17.41324 35.91613 15.9657-9.21821 7.34747 4.27024-15.96615 9.21769z" fill="#cfd8dd"/></g></g></g></g><g><g><path d="m40.89291 31.67141-.02411 7.43761-.3379.19637.02411-7.43762z" fill="#9aa1a5"/></g><g><path d="m39.65299 32.38758-.02411 7.43761-.33791.19637.02412-7.43762z" fill="#9aa1a5"/></g><g><path d="m38.41307 33.10374-.02412 7.43762-.3379.19637.02411-7.43762z" fill="#9aa1a5"/></g><g><path d="m37.17315 33.81991-.02412 7.43762-.3379.19637.02411-7.43762z" fill="#9aa1a5"/></g><g><path d="m35.93322 34.53608-.02411 7.43762-.3379.19636.02411-7.43761z" fill="#9aa1a5"/></g><g><path d="m34.6933 35.25225-.02411 7.43762-.33791.19636.02412-7.43761z" fill="#9aa1a5"/></g><g><path d="m33.45338 35.96842-.02412 7.43761-.3379.19637.02411-7.43761z" fill="#9aa1a5"/></g><g><path d="m32.21346 36.68459-.02412 7.43761-.3379.19637.02411-7.43762z" fill="#9aa1a5"/></g><g><path d="m30.97353 37.40076-.02411 7.43761-.3379.19637.02411-7.43762z" fill="#9aa1a5"/></g><g><path d="m29.73361 38.11692-.02411 7.43762-.3379.19636.02411-7.43761z" fill="#9aa1a5"/></g><g><path d="m28.49369 38.83309-.02412 7.43762-.3379.19637.02411-7.43762z" fill="#9aa1a5"/></g><g><path d="m27.25377 39.54926-.02412 7.43761-.3379.19637.02411-7.43761z" fill="#9aa1a5"/></g><g><path d="m26.01384 40.26543-.02411 7.43761-.3379.19637.02411-7.43761z" fill="#9aa1a5"/></g></g><g><g><path d="m17.43507 36.7822.02412 7.43761.3379.19637-.02411-7.43762z" fill="#b0b8bc"/></g><g><path d="m18.675 37.49836.02411 7.43762.3379.19636-.02411-7.43761z" fill="#b0b8bc"/></g><g><path d="m19.91492 38.21453.02411 7.43762.3379.19636-.02411-7.43761z" fill="#b0b8bc"/></g><g><path d="m21.15484 38.9307.02411 7.43761.33791.19637-.02412-7.43761z" fill="#b0b8bc"/></g><g><path d="m22.39476 39.64687.02412 7.43761.3379.19637-.02411-7.43761z" fill="#b0b8bc"/></g><g><path d="m23.63469 40.36304.02411 7.43761.3379.19637-.02411-7.43762z" fill="#b0b8bc"/></g></g></g></g></svg>