<svg id="Layer_1" enable-background="new 0 0 52 52" height="512" viewBox="0 0 52 52" width="512" xmlns="http://www.w3.org/2000/svg"><g><g><g><g><g><g><g enable-background="new"><g><g><g><path d="m19.81774 47.15998c.2077-.11755.48983-.10189.80725.07838.627.36443 1.13251 1.23829 1.12858 1.95542 0 .36052-.1254.61132-.32916.72887l.56311-.32635c.20375-.11755.32915-.37228.32915-.72887.00392-.72105-.50158-1.59491-1.12858-1.95542-.31349-.18027-.59955-.19986-.80725-.07838z" fill="#5b5e71"/></g></g></g><g><g><g><path d="m20.62477 47.24014c-.62549-.36113-1.13503-.07363-1.13707.6451-.00204.72162.5042 1.59845 1.12968 1.95958.62549.36113 1.13504.07076 1.13708-.65086.00205-.71874-.5042-1.5927-1.12969-1.95382z" fill="#474b59"/></g></g></g><g><g><g><path d="m20.62415 47.46042c-.51966-.30003-.94299-.06117-.94468.53596-.0017.59953.41889 1.32801.93855 1.62803.51966.30003.943.05878.9447-.54074.00169-.59712-.41891-1.32322-.93857-1.62325z" fill="#d4d6d6"/></g></g></g><g><g><g><path d="m20.62415 47.46042c-.51966-.30003-.94299-.06117-.94468.53596-.0017.59953.41889 1.32801.93855 1.62803.51966.30003.943.05878.9447-.54074.00169-.59712-.41891-1.32322-.93857-1.62325z" fill="#d4d6d6"/></g></g></g></g></g><g><g enable-background="new"><g><g><g><path d="m20.83944 49.26709.091-.05288.18125-2.6833-.091.05288z" fill="#c4c6c6"/></g></g></g><g><g><g><path d="m20.13049 46.06984.17015 2.88617.5388.31108.18125-2.6833z" fill="#ecf0f1"/></g></g></g></g></g><g><g enable-background="new"><g><g><g><path d="m19.41503 46.24405.00174.38861c.00056.19702.12977.39396.38674.54329.51006.29642 1.35661.2992 1.87484 0 .2632-.15196.39343-.35163.39287-.55028l-.00173-.3886c.00055.19865-.12968.39832-.39288.55028-.51822.2992-1.36477.29642-1.87484 0-.25697-.14934-.38619-.34628-.38674-.5433z" fill="#d4d6d6"/></g></g></g><g><g><g><path d="m19.80311 45.69859c-.51822.2992-.51622.78954-.00134 1.08876.51006.29642 1.35661.2992 1.87484 0 .52302-.30196.52098-.79233.01092-1.08874-.51489-.29923-1.3614-.30199-1.88442-.00002z" fill="#ecf0f1"/></g></g></g></g></g><g><g><g><path d="m20.55658 48.50241c-.10593-.06116-.19222-.01247-.19257.10925-.00035.12221.08539.2707.19131.33186.10593.06116.19222.01198.19257-.11023.00035-.12172-.08539-.26972-.19131-.33088z" fill="#5b5e71"/></g></g></g></g><g><g><g enable-background="new"><g><g><g><path d="m45.82198 32.07821c.2077-.11756.48983-.10189.80725.07838.627.36444 1.13251 1.2383 1.12858 1.95542 0 .36051-.1254.61131-.32915.72887l.56311-.32635c.20375-.11756.32915-.37228.32915-.72887.00392-.72105-.50158-1.59491-1.12858-1.95542-.31349-.18027-.59955-.19986-.80725-.07838z" fill="#5b5e71"/></g></g></g><g><g><g><path d="m46.62902 32.15835c-.62548-.36112-1.13503-.07362-1.13707.64511-.00204.72162.5042 1.59845 1.12968 1.95958s1.13503.07076 1.13708-.65086c.00204-.71874-.5042-1.5927-1.12969-1.95383z" fill="#474b59"/></g></g></g><g><g><g><path d="m46.6284 32.37864c-.51966-.30003-.94299-.06117-.94469.53596-.0017.59953.41889 1.32801.93855 1.62804s.943.05878.9447-.54074c.00169-.59713-.4189-1.32323-.93856-1.62326z" fill="#d4d6d6"/></g></g></g><g><g><g><path d="m46.6284 32.37864c-.51966-.30003-.94299-.06117-.94469.53596-.0017.59953.41889 1.32801.93855 1.62804s.943.05878.9447-.54074c.00169-.59713-.4189-1.32323-.93856-1.62326z" fill="#d4d6d6"/></g></g></g></g></g><g><g enable-background="new"><g><g><g><path d="m46.84369 34.18531.091-.05288.18124-2.6833-.091.05288z" fill="#c4c6c6"/></g></g></g><g><g><g><path d="m46.13474 30.98805.17014 2.88618.53881.31108.18124-2.6833z" fill="#ecf0f1"/></g></g></g></g></g><g><g enable-background="new"><g><g><g><path d="m45.41927 31.16227.00174.38861c.00056.19702.12977.39396.38674.54329.51006.29642 1.35661.2992 1.87484 0 .2632-.15196.39344-.35163.39287-.55028l-.00173-.3886c.00056.19865-.12968.39832-.39288.55028-.51822.2992-1.36477.29641-1.87484 0-.25696-.14934-.38618-.34628-.38674-.5433z" fill="#d4d6d6"/></g></g></g><g><g><g><path d="m45.80735 30.61681c-.51822.2992-.51622.78954-.00134 1.08875.51006.29642 1.35661.2992 1.87484 0 .52302-.30197.52098-.79233.01092-1.08874-.51488-.29922-1.3614-.30198-1.88442-.00001z" fill="#ecf0f1"/></g></g></g></g></g><g><g><g><path d="m46.56082 33.42063c-.10593-.06116-.19222-.01247-.19257.10925-.00035.12221.08539.2707.19131.33186s.19222.01199.19257-.11022c.00035-.12172-.08538-.26974-.19131-.33089z" fill="#5b5e71"/></g></g></g></g><g><g><g enable-background="new"><g><g><g><path d="m4.08177 38.23475c.2077-.11756.48984-.10189.80725.07838.627.36444 1.13251 1.23829 1.12858 1.95542 0 .36051-.1254.61131-.32916.72887l.56311-.32635c.20376-.11755.32916-.37228.32916-.72887.00392-.72105-.50158-1.59491-1.12858-1.95542-.31349-.18027-.59955-.19986-.80725-.07838z" fill="#5b5e71"/></g></g></g><g><g><g><path d="m4.88881 38.3149c-.62549-.36113-1.13503-.07363-1.13707.6451-.00205.72161.5042 1.59845 1.12968 1.95958.62549.36112 1.13504.07076 1.13708-.65086.00204-.71873-.50421-1.5927-1.12969-1.95382z" fill="#474b59"/></g></g></g><g><g><g><path d="m4.88818 38.53518c-.51966-.30003-.94299-.06117-.94469.53596-.0017.59953.41889 1.32801.93855 1.62803s.943.05879.9447-.54074c.0017-.59712-.4189-1.32322-.93856-1.62325z" fill="#d4d6d6"/></g></g></g><g><g><g><path d="m4.88818 38.53518c-.51966-.30003-.94299-.06117-.94469.53596-.0017.59953.41889 1.32801.93855 1.62803s.943.05879.9447-.54074c.0017-.59712-.4189-1.32322-.93856-1.62325z" fill="#d4d6d6"/></g></g></g></g></g><g><g enable-background="new"><g><g><g><path d="m5.10347 40.34185.09101-.05288.18124-2.6833-.091.05288z" fill="#c4c6c6"/></g></g></g><g><g><g><path d="m4.39452 37.1446.17015 2.88618.5388.31107.18125-2.6833z" fill="#ecf0f1"/></g></g></g></g></g><g><g enable-background="new"><g><g><g><path d="m3.67906 37.31881.00174.38861c.00056.19702.12977.39396.38674.54329.51006.29641 1.35661.2992 1.87484 0 .2632-.15196.39344-.35163.39287-.55028l-.00173-.3886c.00055.19865-.12968.39832-.39288.55028-.51822.29919-1.36477.29641-1.87484 0-.25697-.14934-.38619-.34628-.38674-.5433z" fill="#d4d6d6"/></g></g></g><g><g><g><path d="m4.06714 36.77335c-.51822.29919-.51622.78954-.00134 1.08875.51006.29642 1.35661.2992 1.87484 0 .52302-.30197.52098-.79233.01092-1.08875-.51489-.29921-1.3614-.30197-1.88442 0z" fill="#ecf0f1"/></g></g></g></g></g><g><g><g><path d="m4.82061 39.57717c-.10593-.06116-.19222-.01247-.19256.10925-.00035.12221.08539.2707.19131.33186.10593.06116.19222.01198.19257-.11023.00034-.12172-.08539-.26972-.19132-.33088z" fill="#5b5e71"/></g></g></g></g></g></g></g><g><g><g fill="#84dbff"><path d="m40.83895 13.0422-.00098.34766-1.83847-1.06144.00098-.34766z"/><path d="m30.36934 21.65217 16.87601 9.74337.05497-19.39183-16.87601-9.74336zm.16589-5.02136.15141.08742.00576-2.03301 1.55986.90058v.00001l-.00577 2.03306-1.55988-.9006-.15138-.0874zm.00675-2.38067.15141.08742.00576-2.03243 1.55986.90059-.00577 2.03243-1.55988-.9006-.15138-.0874zm.00675-2.38041.15141.08742.00576-2.03274 1.55986.90059-.00577 2.03275-1.55988-.9006-.15138-.0874zm.00675-2.3804.15141.08741.00576-2.03274 1.55986.90059-.00577 2.03274-1.55988-.90059-.15138-.0874zm.00675-2.38042.15141.08742.00576-2.03304 1.55986.90058-.00577 2.03306-1.55988-.9006-.15138-.0874zm.16391-4.32604 1.55986.90059-.00577 2.03275-1.55988-.90059-.15138-.08741v-.00004l.15141.08742zm1.86322.90146-.0005.17398 1.83871 1.06159-.00576 2.03275-1.83875-1.0616-.00098.34766 1.83874 1.0616-.00576 2.03306-1.83875-1.0616.00576-2.03306.00099-.34766.00577-2.03275.00049-.17399-.30278-.17481v-.00001zm1.79196 17.55169-1.83874-1.0616.00576-2.03305.00099-.34766.00576-2.03307.00099-.34765.00576-2.03244 1.83875 1.0616.00098-.34797-1.83874-1.0616.00576-2.03275.00099-.34764.00576-2.03276 1.83875 1.0616-.00577 2.03275-1.83874-1.0616-.00099.34765 1.83875 1.0616-.00577 2.03275-.00098.34797-.00577 2.03244-1.83874-1.0616-.00099.34766 1.83875 1.06159-.00577 2.03306-1.83874-1.06159-.00099.34766 1.83875 1.06159zm.34932-16.31542-.0005.17399 1.83873 1.06159v.00001l-.00576 2.03275-1.83875-1.0616.00577-2.03275.00049-.17399-.30251-.17465v-.00002zm1.81222 10.40986-1.83874-1.0616.00576-2.03275 1.83875 1.0616-.00577 2.03275-.00098.34797-.00577 2.03243-1.83874-1.0616.00576-2.03243 1.83875 1.0616zm-1.85224 3.69953.00576-2.03306 1.83875 1.0616-.00577 2.03306zm.02025-7.14153.00576-2.03275 1.83875 1.0616-.00577 2.03275zm.00675-2.38041.00576-2.03306 1.83875 1.0616-.00576 2.03306zm1.805 12.96425-1.83874-1.0616.00576-2.03305 1.83875 1.0616zm.3493-16.31543-.00049.17398 1.83874 1.0616v.00001l-.00577 2.03275-.00098.34766-.00577 2.03305-.00099.34766-.00576 2.03275-1.83875-1.0616.00577-2.03275 1.83874 1.0616.00099-.34766-1.83875-1.0616.00577-2.03305 1.83875 1.06159.00098-.34765-1.83875-1.0616.00577-2.03275.00049-.17399-.30252-.17465v-.00001zm1.80549 12.79027-1.83875-1.0616.00577-2.03243 1.83874 1.0616-.00576 2.03243-.00099.34766-.00576 2.03306-1.83875-1.0616.00577-2.03306 1.83874 1.0616zm-1.832-3.442.00577-2.03275 1.83874 1.0616-.00576 2.03275zm1.81851 8.20344-1.83875-1.0616.00577-2.03306 1.83874 1.0616zm.34958-16.31527-.00049.17398 1.83846 1.06143v.00001l-.00577 2.03277-1.83847-1.06144-.00099.34764 1.83848 1.06144-.00577 2.03306-.00099.34765-.00576 2.03275-1.83847-1.06143-.00099.34765 1.83847 1.06145-.00576 2.03275-1.83848-1.06144.00577-2.03275.00098-.34765.00577-2.03275.00098-.34766.00577-2.03306.00099-.34765.00576-2.03276.0005-.17398-.30281-.17483zm1.80422 13.13776-.00576 2.03307-1.83848-1.06145.00577-2.03306zm-1.83749-1.40909.00577-2.03243 1.83847 1.06144-.00576 2.03243zm1.82498 5.82288-1.83848-1.06144.00577-2.03305 1.83847 1.06144zm.34934-16.31541-.0005.17398 1.83871 1.06157v.00002l-.00577 2.03274-1.83874-1.06159-.00098.34766 1.83874 1.06159-.00577 2.03306-1.83874-1.0616-.00098.34766 1.83873 1.06159-.00576 2.03275-1.83874-1.06159-.00098.34765 1.83873 1.0616-.00576 2.03275-1.83874-1.0616.00577-2.03275.00098-.34765.00577-2.03275.00098-.34766.00577-2.03305.00098-.34766.00577-2.03275.00049-.17399-.30255-.17467v-.00001zm-.02752 9.69622 1.83873 1.0616-.00576 2.03243-1.83874-1.0616zm1.81948 7.85546-1.83874-1.0616.00576-2.03305.00099-.34766.00577-2.03306 1.83873 1.06159-.00576 2.03306-1.83874-1.06159-.00098.34766 1.83873 1.0616zm.34932-16.31541-.00049.17398 1.83872 1.06159v.00001l-.00577 2.03275-1.83874-1.0616-.00099.34766 1.83875 1.0616-.00577 2.03305-1.83874-1.0616-.00099.34668.00099-.34668.00576-2.03305.00099-.34766.00576-2.03275.00049-.17399-.3025-.17464v-.00002zm1.81222 10.40985-1.83874-1.0616.00576-2.03275 1.83874 1.0616.00099-.34765-1.83874-1.0616.00576-2.03275 1.83874 1.0616-.00576 2.03275-.00099.34765zm2.01993-.86991-.00005-.00003.00099-.34761-.15141-.08741-1.56015-.90075.00576-2.03275.00099-.34766.00576-2.03306.00099-.34765.00576-2.03276.00049-.17398-.30251-.17465v-.00001l.30253.17466-.0005.17398 1.56019.90078-.00577 2.03272.15141.08741-.00098.34769-.00004-.00002.00098-.34765-.15142-.08743-1.56015-.90076-.00099.34765 1.56016.90076.00004.00003-.00577 2.03304.15141.08742-.00098.34762-.00005-.00002.00099-.34762-.15141-.08741-1.56015-.90075-.00099.34766 1.56016.90076.00004.00002-.00577 2.03273.15141.08742zm-.00675 2.38074-.00005-.00003.00099-.34794-.15141-.08742-1.56015-.90075.00576-2.03275 1.56015.90075.00005.00002-.00577 2.03274.15141.08741zm-.00675 2.38007-.00005-.00003.00099-.34762-.15141-.08741-1.56015-.90076.00576-2.03243 1.56015.90075.00005.00002-.00577 2.03243.15141.08741zm-.00675 2.38074-.00005-.00003.00099-.34764-.15141-.08741-1.56016-.90076.00577-2.03306 1.56015.90075.00005.00002-.00577 2.03301.15141.08742zm-.00675 2.38068-.00004-.00002.00099-.3476-.15141-.08742-1.56016-.90075.00577-2.03305 1.56015.90076.00005.00002-.00577 2.03303.15141.08742zm-1.71785 1.21824-.00001-.00001.00049-.17362.00576-2.03274 1.56016.90075.00004.00003-.00576 2.03271-1.56019-.90078zm-2.14129-1.23628-.00002-.00002.00049-.17361.00576-2.03275 1.83875 1.0616.00099-.34766-1.83875-1.06159.00577-2.03306 1.83874 1.0616.00099-.34766-1.83876-1.0616.00577-2.03307 1.83874 1.0616.00099-.34766-1.83874-1.0616.00576-2.03243 1.83874 1.0616-.00576 2.03243-.00099.34766-.00576 2.03307-.00099.34765-.00576 2.03306-.00099.34765-.00577 2.03272-1.83871-1.06158zm-2.14128-1.23627-.00004-.00002.0005-.17361.00576-2.03275 1.83874 1.0616-.00576 2.03272-1.83871-1.06158zm-2.14105-1.23613-.00001-.00001.00049-.17362.00577-2.03274 1.83847 1.06144-.00577 2.03271-1.83845-1.06142zm-2.14157-1.23644h-.00002l.0005-.17363.00576-2.03274 1.83875 1.0616-.00576 2.03272-1.83874-1.06159zm-2.14129-1.23628-.00002-.00001.00049-.17362.00577-2.03274 1.83875 1.0616-.00577 2.03272-1.83873-1.06159zm-2.14128-1.23626-.00004-.00002.00049-.17362.00577-2.03274v-.00001l1.83875 1.0616-.00577 2.03273-1.83871-1.06158zm-1.86223-1.24909.00577-2.03271 1.55985.90058.00099-.34766-1.55988-.9006-.15139-.0874v-.00003l.15141.08742.00577-2.03303 1.55986.90059-.00577 2.03305-.00099.34766-.00576 2.03271z"/></g><g><g enable-background="new"><g><path d="m46.59459 30.98689.45269-.26307-16.12162-9.30782-.45268.26307z" fill="#3498db"/></g><g><path d="m30.47298 21.67907.45268-.26307.05252-18.5249-.45268.26307z" fill="#3087a5"/></g><g><path d="m47.10931 31.87848.45268-.26307.05588-19.71145-.45268.26307z" fill="#3087a5"/></g><g><path d="m47.16519 12.16703.45268-.26307-17.15416-9.90396-.45269.26307z" fill="#3498db"/></g><g><path d="m47.10931 31.87848-17.15417-9.90396.05588-19.71145 17.15417 9.90396zm-16.63633-10.19941 16.12162 9.30782.05252-18.5249-16.12162-9.30782z" fill="#3293c9"/></g></g></g></g><g><path d="m4.25694 37.24129 16.73316 9.72425 26.37349-15.17555-16.73316-9.72425z" fill="#2d83bd"/></g><g fill="#84dbff"><path d="m19.61085 13.84684.00099.34766 1.83847-1.06143-.00099-.34766z"/><path d="m30.02549 3.06499-16.87601 9.74337.05497 19.39183 16.87601-9.74337zm-.11092 14.37053-.15138.0874-1.55988.9006-.00577-2.03306v-.00001l1.55986-.90058.00576 2.03301.15141-.08742zm-.00675-2.38073-.15138.0874-1.55988.9006-.00577-2.03243 1.55986-.90059.00576 2.03243.15141-.08742zm-.00675-2.3804-.15138.0874-1.55988.9006-.00577-2.03275 1.55986-.90059.00576 2.03274.15141-.08742zm-.00674-2.3804-.15138.0874-1.55988.90059-.00577-2.03274 1.55986-.90059.00576 2.03273.15141-.08741zm-.00675-2.38041-.15138.0874-1.55988.9006-.00577-2.03306 1.55986-.90058.00576 2.03304.15141-.08742zm-.15816-2.29335.15141-.08742v.00004l-.15138.08741-1.55988.90059-.00577-2.03275 1.55986-.90059zm-1.56616-1.30609v.00001l-.30278.17481.00049.17399.00577 2.03275.00099.34766.00576 2.03306-1.83875 1.0616-.00576-2.03306 1.83874-1.0616-.00098-.34766-1.83875 1.0616-.00576-2.03275 1.83871-1.06159-.0005-.17398zm-2.10054 15.69347 1.83875-1.06159-.00099-.34766-1.83874 1.06159-.00577-2.03306 1.83875-1.06159-.00099-.34766-1.83874 1.0616-.00577-2.03244-.00098-.34797-.00577-2.03275 1.83875-1.0616-.00099-.34765-1.83874 1.0616-.00577-2.03275 1.83875-1.0616.00576 2.03276.00099.34764.00576 2.03275-1.83874 1.0616.00098.34797 1.83875-1.0616.00576 2.03244.00099.34765.00576 2.03307.00099.34766.00576 2.03305-1.83874 1.0616zm-.04103-14.45703v.00001l-.30251.17465.00049.17399.00577 2.03275-1.83875 1.0616-.00576-2.03275v-.00001l1.83873-1.06159-.0005-.17399zm-2.11377 10.9325 1.83875-1.0616.00576 2.03243-1.83874 1.0616-.00577-2.03243-.00098-.34797-.00577-2.03275 1.83875-1.0616.00576 2.03275-1.83874 1.0616zm.01252 4.41315-.00577-2.03306 1.83875-1.0616.00576 2.03306zm-.02024-7.14152-.00577-2.03275 1.83875-1.0616.00576 2.03275zm-.00676-2.38042-.00576-2.03306 1.83875-1.0616.00576 2.03306zm.02798 9.8696 1.83875-1.0616.00576 2.03305-1.83874 1.0616zm-.04101-14.45704v.00001l-.30252.17465.00049.17399.00577 2.03275-1.83875 1.0616.00098.34765 1.83875-1.06159.00577 2.03305-1.83875 1.0616.00099.34766 1.83874-1.0616.00577 2.03275-1.83875 1.0616-.00576-2.03275-.00099-.34766-.00577-2.03305-.00098-.34766-.00577-2.03275v-.00001l1.83874-1.0616-.00049-.17398zm-2.10703 13.31259 1.83874-1.0616.00577 2.03306-1.83875 1.0616-.00576-2.03306-.00099-.34766-.00576-2.03243 1.83874-1.0616.00577 2.03243-1.83875 1.0616zm-.00774-2.72806-.00576-2.03275 1.83874-1.0616.00577 2.03275zm.01449 5.10879 1.83874-1.0616.00577 2.03306-1.83875 1.0616zm-.04101-14.45704-.30281.17483.0005.17398.00576 2.03276.00099.34765.00577 2.03306.00098.34766.00577 2.03275.00098.34765.00577 2.03275-1.83848 1.06145-.00576-2.03275 1.83847-1.06145-.00099-.34765-1.83847 1.06143-.00576-2.03275-.00099-.34765-.00577-2.03306 1.83848-1.06145-.00099-.34765-1.83847 1.06144-.00577-2.03276 1.83846-1.06143-.00049-.17398zm-.26857 12.25115.00577 2.03306-1.83848 1.06144-.00576-2.03307zm-1.83946.71379-.00576-2.03243 1.83847-1.06145.00577 2.03243zm.00774 2.72837 1.83847-1.06143.00577 2.03305-1.83848 1.06145zm-.04099-14.45705v.00001l-.30255.17467.00049.17399.00577 2.03275.00098.34766.00577 2.03305.00098.34766.00577 2.03275.00098.34765.00577 2.03275-1.83874 1.0616-.00576-2.03275 1.83873-1.0616-.00098-.34765-1.83874 1.06159-.00576-2.03275 1.83873-1.06159-.00098-.34766-1.83874 1.0616-.00577-2.03306 1.83874-1.06159-.00098-.34766-1.83874 1.06159-.00577-2.03274v-.00002l1.83871-1.06157-.0005-.17398zm-.27507 9.87092.00577 2.03243-1.83874 1.0616-.00576-2.03243zm-1.82523 5.82241 1.83873-1.0616-.00098-.34766-1.83874 1.06159-.00576-2.03306 1.83873-1.06159.00577 2.03306.00099.34766.00576 2.03305-1.83874 1.0616zm-.04104-14.45702v.00001l-.3025.17464.00049.17399.00576 2.03275.00099.34766.00576 2.03305.00099.34668-.00099-.34668-1.83874 1.0616-.00577-2.03305 1.83875-1.0616-.00099-.34766-1.83874 1.0616-.00577-2.03275v-.00001l1.83872-1.06159-.00049-.17398zm-2.1205 8.55176-.00099-.34765-.00576-2.03275 1.83874-1.0616.00576 2.03275-1.83874 1.0616.00099.34765 1.83874-1.0616.00576 2.03275-1.83874 1.0616zm-2.01516.81521.15141-.08742-.00577-2.03273.00004-.00002 1.56016-.90075-.00099-.34766-1.56015.90076-.15141.08741.00099.34762-.00005.00002-.00098-.34762.15141-.08742-.00577-2.03304.00004-.00003 1.56016-.90076-.00099-.34765-1.56015.90076-.15141.08741.00098.34765-.00004.00002-.00098-.34769.15141-.08741-.00577-2.03272 1.56019-.90078-.0005-.17398.30253-.17466v.00001l-.30251.17465.00049.17398.00576 2.03276.00099.34765.00576 2.03306.00099.34766.00576 2.03275-1.56015.90075-.15141.08741.00099.34761-.00005.00003zm.00675 2.3804.15141-.08741-.00577-2.03274.00005-.00002 1.56015-.90076.00576 2.03275-1.56015.90076-.15141.08742.00099.34794-.00005.00003zm.00675 2.38042.15141-.08741-.00577-2.03243.00005-.00002 1.56015-.90076.00576 2.03243-1.56015.90075-.15141.08741.00099.34762-.00005.00003zm.00675 2.38068.15141-.08742-.00577-2.03301.00005-.00002 1.56015-.90076.00577 2.03306-1.56016.90075-.15141.08741.00099.34764-.00005.00003zm.00675 2.38074.15141-.08742-.00577-2.03303.00005-.00002 1.56015-.90075.00577 2.03305-1.56016.90076-.15141.08742.00099.3476-.00004.00002zm1.71835 1.39221-1.56019.90078-.00576-2.03271.00004-.00003 1.56016-.90076.00576 2.03274.00049.17362-.00001.00001zm2.14128-1.23627-1.83871 1.06158-.00577-2.03272-.00099-.34765-.00576-2.03306-.00099-.34765-.00576-2.03307-.00099-.34766-.00576-2.03243 1.83874-1.0616.00576 2.03243-1.83874 1.0616.00099.34766 1.83874-1.0616.00577 2.03307-1.83875 1.06159.00099.34766 1.83874-1.0616.00577 2.03306-1.83875 1.06159.00099.34766 1.83875-1.0616.00576 2.03275.00049.17361-.00002.00002zm2.14128-1.23627-1.83871 1.06158-.00576-2.03272 1.83874-1.0616.00576 2.03275.0005.17361-.00004.00002zm2.14104-1.23613-1.83845 1.06142-.00577-2.03271 1.83847-1.06145.00577 2.03274.00049.17362-.00001.00001zm2.14159-1.23644-1.83874 1.06159-.00576-2.03272 1.83875-1.0616.00576 2.03274.0005.17363h-.00002zm2.14129-1.23628-1.83873 1.06159-.00577-2.03272 1.83875-1.0616.00577 2.03274.00049.17362-.00002.00001zm2.14127-1.23626-1.83871 1.06158-.00577-2.03273 1.83875-1.0616v.00001l.00577 2.03274.00049.17362-.00004.00002zm.30287-.17486-.00576-2.03272-.00099-.34766-.00577-2.03305 1.55986-.90059.00577 2.03303.15141-.08742v.00003l-.15139.0874-1.55988.9006.00099.34766 1.55985-.90058.00577 2.03271z"/></g><g fill="#84dbff"><path d="m4.44946 22.68175.39836-.22999.00098.34766-.39934.23056z"/><path d="m4.44946 37.19353 9.0295-5.21318-.05498-19.249-8.97453 5.18145v.34825l.38583-.22276-.00048-.17398.30282-.17483-.30281.17483.0005.17397.00575 2.03276-.3916.2261v.34822l.3926-.22667.00577 2.03306.00097.34766.00577 2.03275.00098.34765.00577 2.03275-.41186.23779v.34854l.41285-.23836.00577 2.03243-.41862.24169v.34822l.41959-.24225.00577 2.03306-.42536.24558v.34822l.42633-.24614.00577 2.03305-.4321.24948v.34823l.43309-.25004.00577 2.03274.00049.17362-.00001.00002-.0005-.17364-.43883.25336v.20537zm7.16008-6.37529 1.55985-.90058.00577 2.03271-1.55986.90059zm-.00675-2.38071 1.55986-.90059.00576 2.03303.15141-.08742v.00003l-.15139.0874-1.55987.9006zm-.00675-2.38074 1.55986-.90058.00576 2.03301.15141-.08742v.00006l-.15138.0874-1.55988.9006zm-.00675-2.38007 1.55986-.90059.00575 2.03243.15141-.08742v.00001l-.15137.0874-1.55988.9006zm-.00674-2.38073 1.55985-.90059.00576 2.03274.15141-.08742v.00002l-.15138.0874-1.55988.9006zm-.00675-2.3804 1.55986-.90059.00576 2.03273.1514-.08741v.00002l-.15138.0874-1.55987.90059zm-.00676-2.38072 1.55986-.90058.00576 2.03304.15141-.08742v.00002l-.15138.0874-1.55988.9006zm-.00674-2.38041 1.55986-.90059.00576 2.03272.1514-.08742v.00004l-.15137.08741-1.55988.90059zm-2.09433 17.90021 1.83874-1.0616v.00001l.00577 2.03274.00049.17362-.00004.00002-.00049-.17364-1.83871 1.06158zm-.00675-2.38071 1.83875-1.06159.00576 2.03305-1.83874 1.0616zm-.0135-4.76081 1.83875-1.0616.00576 2.03244.00098.34765.00576 2.03307-1.83873 1.06159-.00577-2.03306 1.83875-1.06159-.00098-.34766-1.83874 1.0616zm-.00674-2.38073 1.83874-1.0616.00576 2.03275-1.83874 1.0616zm-.00675-2.3804 1.83875-1.0616.00576 2.03275-1.83874 1.0616zm-.0135-4.76112 1.83871-1.06159-.0005-.17398.30282-.17484v.00001l-.30278.17481.00049.17399.00577 2.03275.00098.34766.00576 2.03306-1.83875 1.0616-.00576-2.03306 1.83874-1.0616-.00097-.34766-1.83875 1.0616zm-2.09407 17.90005 1.83875-1.0616.00577 2.03274.00049.17362-.00002.00001-.00049-.17365-1.83873 1.06159zm-.00674-2.38071 1.83875-1.0616.00576 2.03305-1.83874 1.0616zm-.00675-2.38072 1.83875-1.0616.00576 2.03306-1.83874 1.0616zm-.00675-2.38009 1.83875-1.0616.00575 2.03243-1.83873 1.0616zm-.00675-2.38072 1.83875-1.0616.00576 2.03275-1.83874 1.0616zm-.00674-2.38041 1.83875-1.0616.00576 2.03275-1.83874 1.0616zm-.00675-2.38072 1.83875-1.0616.00576 2.03306-1.83875 1.0616zm-.00675-2.38041 1.83873-1.06159-.0005-.17399.30253-.17466v.00001l-.30251.17465.00049.17399.00576 2.03275-1.83874 1.0616-.00576-2.03275zm-2.09405 17.90006 1.83875-1.0616.00576 2.03274.0005.17363h-.00002l-.00049-.17364-1.83874 1.06159zm-.00675-2.38071 1.83873-1.0616.00577 2.03306-1.83874 1.0616zm-.00675-2.38073 1.83874-1.0616.00577 2.03306-1.83875 1.0616zm-.00674-2.38008 1.83874-1.0616.00577 2.03243-1.83876 1.0616zm-.00676-2.38073 1.83874-1.0616.00577 2.03275-1.83875 1.0616zm-.00674-2.3804 1.83873-1.0616.00577 2.03275-1.83874 1.0616zm-.01351-4.76113 1.83873-1.0616-.00048-.17397.30253-.17466v.00001l-.30252.17465.00049.17398.00577 2.03275-1.83876 1.0616.00098.34765 1.83875-1.06159.00577 2.03305-1.83875 1.0616-.00577-2.03305-.00098-.34766z"/><path d="m4.44946 25.06606.40511-.23389.00098.34765-.40609.23446z"/></g><g><g enable-background="new"><g><path d="m29.94951 3.4175-.45268-.26307.05252 18.52492.45268.26307z" fill="#3293c9"/></g><g><path d="m30.00203 21.94242-.45268-.26307-25.1745 14.53416.45269.26307z" fill="#2d83bd"/></g><g><path d="m4.25694 17.65642-.45268-.26307.05588 19.71179.45268.26307z" fill="#328eb7"/></g><g><path d="m30.46394 2.52614-.45268-.26307-26.207 15.13028.45268.26307z" fill="#3498db"/></g><g><path d="m30.51982 22.23793-26.207 15.13028-.05588-19.71179 26.207-15.13028zm-25.69228 14.23865 25.17449-14.53415-.05252-18.52493-25.17449 14.53415z" fill="#3087a5"/></g></g></g><g><g><path d="m23.55256 20.88661.03352 10.59108 9.58924 5.57266-.03352-10.59109z" fill="#d6b218"/></g><g><path d="m24.66633 22.90962v1.67431l.00952.17123v1.63628l7.39168 4.29987v-.61832l-.00952-.43762v-1.40791l-.00953-.44715v-.57076z" fill="#ecf0f1"/></g><g><path d="m33.1418 26.45926.03352 10.59109 9.65196-5.57257-.03352-10.59108z" fill="#e5bd13"/></g><g><path d="m23.55029 20.89324 9.59154 5.57252 4.21633-2.4411 1.22058-.6904.02461-.01226 4.19172-2.42876-9.59162-5.57251-4.21632 2.42876-.01235.01234-1.20817.69039z" fill="#f1c40f"/></g><g><path d="m27.76661 18.45222 9.59155 5.57244 1.22058-.6904.02461-.01226-9.61622-5.57251-.01235.01234z" fill="#e5bd13"/></g><g><path d="m37.35816 24.02466.01135 4.00683 1.23384-.70462-.01136-4.00683z" fill="#d6b218"/></g><g><g><g><path d="m31.00646 32.37938-.3322.63213.20574.11878.45401.26017z" fill="#3f434f"/></g></g><g><g><path d="m30.88 33.13029-.00354 1.25047.24825.14333.00355-1.25047z" fill="#3f434f"/></g></g><g><g><path d="m29.64677 33.78236-.00075.26768 1.71397.98956.00076-.26768z" fill="#3f434f"/></g></g><g><g><path d="m27.82506 30.5426-.00253.89096c-.0008.28136.16178.60811.37761.77382l-.00228.80304c-.15138-.06979-.26552-.06327-.26576.02074l.66825.38581c.00024-.08401-.11348-.22208-.26476-.32704l.00228-.80304c.09867.03935.18385.02982.2504-.012.07851-.0584.12991-.16767.13036-.32398l.00253-.89096z" fill="#3f434f"/></g></g><g><g><path d="m29.88698 32.55697-.00354 1.25047.24826.14334.00354-1.25048z" fill="#3f434f"/></g></g><g><g><path d="m30.01174 31.80508-.3305.6331.20574.11879.45231.25918z" fill="#3f434f"/></g></g></g><g><g><g><path d="m24.66633 24.58393.00952.17123 7.38216 4.26184v-.16171z" fill="#a4a9b3"/></g></g><g><g><path d="m24.67585 25.19279v.18075l7.38216 4.26183v-.17123z" fill="#a4a9b3"/></g></g><g><g><path d="m24.67585 25.8111v.18075l7.39168 4.2619v-.18076z" fill="#a4a9b3"/></g></g><g><g><path d="m24.66633 23.96556v.17129l7.39168 4.27136v-.18075z" fill="#a4a9b3"/></g></g><g><g><path d="m24.66633 23.34725v.17122l7.38215 4.26184v-.17123z" fill="#a4a9b3"/></g></g></g></g><g><g><path d="m9.65805 26.97224.03352 10.59108 9.58924 5.57266-.03352-10.59108z" fill="#d6b218"/></g><g><path d="m10.77182 28.99526v1.67431l.00952.17122v1.63628l7.39168 4.29987v-.61831l-.00952-.43763v-1.40791l-.00953-.44715v-.57076z" fill="#ecf0f1"/></g><g><path d="m19.24729 32.5449.03352 10.59108 9.65196-5.57256-.03352-10.59109z" fill="#e5bd13"/></g><g><path d="m9.65578 26.97888 9.59154 5.57251 4.21633-2.4411 1.22058-.69039.02461-.01227 4.19172-2.42875-9.59162-5.57251-4.21632 2.42875-.01235.01234-1.20817.6904z" fill="#f1c40f"/></g><g><path d="m13.8721 24.53786 9.59155 5.57243 1.22058-.69039.02461-.01227-9.61622-5.57251-.01235.01234z" fill="#e5bd13"/></g><g><path d="m23.46365 30.11029.01136 4.00683 1.23383-.70462-.01136-4.00683z" fill="#d6b218"/></g><g><g><g><path d="m17.11196 38.46502-.33221.63212.20574.11878.45401.26017z" fill="#3f434f"/></g></g><g><g><path d="m16.98549 39.21592-.00354 1.25048.24825.14332.00355-1.25047z" fill="#3f434f"/></g></g><g><g><path d="m15.75226 39.86799-.00076.26768 1.71398.98956.00076-.26768z" fill="#3f434f"/></g></g><g><g><path d="m13.93055 36.62823-.00253.89096c-.0008.28136.16178.60811.37761.77382l-.00228.80304c-.15138-.06979-.26552-.06327-.26576.02074l.66825.38581c.00024-.08401-.11348-.22208-.26476-.32704l.00228-.80304c.09867.03935.18385.02982.2504-.012.07851-.0584.12991-.16767.13036-.32398l.00253-.89096z" fill="#3f434f"/></g></g><g><g><path d="m15.99247 38.6426-.00354 1.25047.24826.14334.00354-1.25048z" fill="#3f434f"/></g></g><g><g><path d="m16.11723 37.89071-.3305.63311.20574.11878.45231.25919z" fill="#3f434f"/></g></g></g><g><g><g><path d="m10.77182 30.66957.00952.17122 7.38216 4.26184v-.1617z" fill="#a4a9b3"/></g></g><g><g><path d="m10.78134 31.27842v.18075l7.38216 4.26183v-.17122z" fill="#a4a9b3"/></g></g><g><g><path d="m10.78134 31.89673v.18075l7.39168 4.2619v-.18075z" fill="#a4a9b3"/></g></g><g><g><path d="m10.77182 30.05119v.17129l7.39168 4.27136v-.18075z" fill="#a4a9b3"/></g></g><g><g><path d="m10.77182 29.43288v.17123l7.38215 4.26183v-.17122z" fill="#a4a9b3"/></g></g></g></g><g><g><path d="m16.89305 12.92649.0306 9.6694 8.75474 5.0877-.0306-9.6694z" fill="#d6b218"/></g><g><path d="m17.90989 14.77345v1.52861l.0087.15633v1.49388l6.74841 3.92567v-.56451l-.00869-.39953v-1.2854l-.00869-.40823v-.52109z" fill="#ecf0f1"/></g><g><path d="m25.64779 18.01419.0306 9.6694 8.812-5.08762-.0306-9.6694z" fill="#e5bd13"/></g><g><path d="m16.89097 12.93255 8.75684 5.08756 3.84941-2.22866 1.11436-.63031.02247-.0112 3.82694-2.21739-8.75691-5.08757-3.84941 2.2174-.01127.01126-1.10302.63032z" fill="#f1c40f"/></g><g><path d="m20.74038 10.70396 8.75684 5.08749 1.11436-.63031.02247-.0112-8.77938-5.08756-.01127.01126z" fill="#e5bd13"/></g><g><path d="m29.49722 15.79145.01037 3.65814 1.12646-.6433-.01038-3.65814z" fill="#d6b218"/></g><g><g><g><path d="m23.69828 23.41911-.3033.57711.18784.10845.4145.23753z" fill="#3f434f"/></g></g><g><g><path d="m23.58282 24.10467-.00323 1.14165.22664.13086.00324-1.14165z" fill="#3f434f"/></g></g><g><g><path d="m22.45691 24.69999-.00069.24439 1.56482.90344.00069-.24438z" fill="#3f434f"/></g></g><g><g><path d="m20.79373 21.74217-.00231.81342c-.00073.25687.1477.55519.34475.70648l-.00208.73315c-.13821-.06371-.24241-.05777-.24263.01894l.6101.35224c.00022-.0767-.10361-.20276-.24172-.29858l.00208-.73315c.09008.03593.16785.02723.22861-.01095.07168-.05331.11861-.15308.11901-.29578l.00231-.81342z" fill="#3f434f"/></g></g><g><g><path d="m22.67622 23.58124-.00324 1.14165.22666.13086.00323-1.14165z" fill="#3f434f"/></g></g><g><g><path d="m22.79012 22.89479-.30174.578.18784.10845.41294.23663z" fill="#3f434f"/></g></g></g><g><g><g><path d="m17.90989 16.30206.0087.15633 6.73972 3.89095v-.14764z" fill="#a4a9b3"/></g></g><g><g><path d="m17.91859 16.85792v.16503l6.73972 3.89095v-.15633z" fill="#a4a9b3"/></g></g><g><g><path d="m17.91859 17.42243v.16502l6.74841 3.89101v-.16503z" fill="#a4a9b3"/></g></g><g><g><path d="m17.90989 15.7375v.15638l6.74842 3.89965v-.16503z" fill="#a4a9b3"/></g></g><g><g><path d="m17.90989 15.17299v.15633l6.73973 3.89095v-.15632z" fill="#a4a9b3"/></g></g></g></g><g fill="#84dbff"><g><path d="m36.54345 31.52408.00099.34766 1.83847-1.06143-.00099-.34766z"/><path d="m46.99013 32.0443-.03204-11.30207-16.876 9.74337.03297 11.63328c.10084-.06289.20166-.12582.30248-.18871l-.00497-1.74929.00005-.00002 1.56015-.90075.00475 1.67545c.10108-.06378.20184-.12805.30252-.19246l-.0047-1.65768 1.83874-1.0616.00418 1.47578c.09958-.06691.20042-.13197.30249-.19524l-.00412-1.45522 1.83873-1.0616.00453 1.59272c.10092-.04543.20183-.09088.30265-.13652l-.00461-1.63087 1.83847-1.06145.00496 1.75052c.10107-.05878.20197-.11788.30282-.1771l-.00494-1.74826 1.83874-1.0616.00489 1.72854c.07921-.05166.15798-.104.23576-.15789.02249-.01955.04445-.03973.06668-.05957l-.00479-1.68576 1.83875-1.0616.00374 1.32239c.09985-.05793.20081-.11406.30258-.16872l-.00377-1.32835 1.83875-1.0616.00377 1.33203c.10067-.03946.20193-.07678.30302-.11256l-.00396-1.3943 1.55986-.90059.00369 1.30276c.09921-.02196.20027-.03707.30318-.04546zm-4.01505-1.50099 1.83874-1.0616.00576 2.03275-1.83874 1.0616zm-.00675-2.3804 1.83875-1.0616.00576 2.03275-1.83874 1.0616zm-2.13456 3.61668 1.83875-1.0616.00576 2.03275-1.83874 1.0616zm-.00674-2.3804 1.83875-1.0616.00576 2.03275-1.83874 1.0616zm-.00675-2.38072 1.83875-1.0616.00576 2.03306-1.83875 1.0616zm-2.12779 5.9974 1.83874-1.0616.00577 2.03275-1.83875 1.0616zm-.00675-2.3804 1.83873-1.0616.00577 2.03275-1.83874 1.0616zm-2.14806-1.14444 1.83848-1.06145.00577 2.03306.00097.34766.00577 2.03275.00098.34765.00577 2.03275-1.83848 1.06144-.00576-2.03275 1.83847-1.06144-.00099-.34765-1.83846 1.06144-.00577-2.03275-.00098-.34765zm-2.12778 5.9974 1.83873-1.0616.00577 2.03275-1.83874 1.0616zm-.00674-2.38041 1.83872-1.06159.00577 2.03275-1.83874 1.06159zm-.00677-2.38071 1.83874-1.06159.00577 2.03305-1.83874 1.0616zm-2.12779 5.99739 1.83874-1.0616.00576 2.03275-1.83874 1.0616zm-.00675-2.3804 1.83874-1.0616.00576 2.03275-1.83874 1.0616zm-.00676-2.38071 1.83875-1.0616.00575 2.03305-1.83873 1.0616zm-1.9949 7.95672.15141-.08741-.00577-2.03274.00005-.00002 1.56014-.90076.00577 2.03275-1.56015.90075-.15141.08742.00099.34794-.00005.00003zm-.00674-2.3804.1514-.08742-.00576-2.03273.00003-.00002 1.56017-.90076.00576 2.03275-1.56015.90077-.15141.08741.00098.34761-.00005.00003zm-.00675-2.38039.15141-.08742-.00577-2.03304.00004-.00003 1.56017-.90076.00575 2.03306-1.56014.90076-.15141.08741.00099.34762-.00005.00002zm2.00111-5.7503-.3025.17465.00049.17397.00576 2.03276-1.56015.90075-.15141.08743.00097.34765-.00004.00002-.00097-.34769.1514-.08741-.00577-2.03272 1.5602-.90078-.0005-.17397zm2.1413-1.23627-.30251.17464.00049.17399.00576 2.03275-1.83874 1.0616-.00577-2.03275v-.00001l1.83872-1.06159-.00049-.17398zm2.14134-1.23631-.30256.17467.00049.17399.00577 2.03275-1.83874 1.06159-.00576-2.03274v-.00002l1.8387-1.06157-.0005-.17398zm2.14127-1.23627-.30281.17483.0005.17398.00575 2.03276-1.83847 1.06145-.00577-2.03276v-.00001l1.83847-1.06144-.00049-.17398zm2.14129-1.23626-.30252.17465.00049.17399.00577 2.03275-1.83876 1.0616.00098.34765 1.83875-1.06159.00577 2.03305-1.83875 1.0616-.00577-2.03305-.00097-.34767-.00576-2.03275v-.00001l1.83873-1.0616-.00048-.17398.30252-.17466zm2.14128-1.23628-.30251.17465.00049.17399.00576 2.03275-1.83874 1.0616-.00576-2.03275v-.00001l1.83873-1.06159-.0005-.17399zm2.14157-1.23644-.30278.17481.00049.17399.00577 2.03275.00098.34766.00576 2.03306-1.83875 1.0616-.00576-2.03306 1.83874-1.0616-.00097-.34766-1.83875 1.0616-.00576-2.03275 1.83871-1.06159-.0005-.17398zm1.71757 1.21871-.15137.08741-1.55988.90059-.00577-2.03275 1.55986-.90059.00575 2.03272.15142-.08742v.00004zm.00675 2.38072-.15138.0874-1.55988.9006-.00577-2.03306 1.55986-.90058.00576 2.03304.15142-.08742v.00002zm.00674 2.38041-.15138.0874-1.55987.90059-.00577-2.03274 1.55986-.90059.00576 2.03273.1514-.08741zm.00676 2.3804-.15138.0874-1.55988.9006-.00576-2.03275 1.55985-.90059.00576 2.03274.15142-.08742v.00002z"/></g><g><path d="m21.38206 40.35899.39836-.22999.00098.34766-.39934.23056z"/><path d="m30.3893 41.9478-.03271-11.53921-8.97453 5.18145v.34826l.38583-.22276-.00049-.17397.30282-.17483-.30281.17483.0005.17397.00575 2.03276-.3916.22609v.34822l.3926-.22667.00577 2.03306.00097.34766.00577 2.03275.00098.34764.00577 2.03275-.41186.23779v.34854l.41285-.23836.00338 1.18811c.09591-.08555.19711-.1647.30263-.23719l-.00318-1.12576 1.83874-1.0616.00359 1.26333c.0232-.00869.0464-.01736.06944-.02604.07744-.02914.15527-.05689.23329-.08393l-.00377-1.32804 1.83875-1.0616.0049 1.73371c.10145-.04976.20214-.10097.30263-.15259l-.00499-1.7558 1.83875-1.0616.00502 1.76846c.10027-.06171.20042-.12365.30029-.186.00084-.00052.00166-.00104.0025-.00156l-.00499-1.75573 1.55986-.90059.00477 1.68332c.10093-.06293.20185-.12592.30278-.18887zm-4.01572-1.73814 1.83874-1.0616.00576 2.03275-1.83874 1.0616zm-.00675-2.3804 1.83875-1.0616.00576 2.03275-1.83874 1.0616zm-2.13456 3.61669 1.83875-1.0616.00576 2.03275-1.83874 1.06161zm-.00674-2.38041 1.83875-1.0616.00576 2.03275-1.83874 1.0616zm-.00676-2.38072 1.83875-1.0616.00576 2.03306-1.83875 1.0616zm-2.12779 5.9974 1.83874-1.0616.00577 2.03275-1.83875 1.0616zm-.00674-2.3804 1.83873-1.0616.00577 2.03275-1.83874 1.0616zm2.12727-6.17136-.30252.17466.00049.17398.00577 2.03275-1.83876 1.0616.00098.34765 1.83875-1.06159.00577 2.03305-1.83875 1.0616-.00577-2.03305-.00098-.34766-.00576-2.03275v-.00001l1.83873-1.0616-.00048-.17397.30253-.17467zm2.14128-1.23628-.30251.17465.00049.17399.00576 2.03275-1.83874 1.0616-.00576-2.03275v-.00001l1.83873-1.06159-.0005-.17399.30253-.17466zm2.14157-1.23644-.30278.17481.00049.17399.00577 2.03275.00098.34766.00576 2.03306-1.83875 1.0616-.00576-2.03306 1.83874-1.0616-.00097-.34766-1.83875 1.0616-.00576-2.03275 1.83871-1.06159-.0005-.17397zm1.71757 1.21871-.15137.08741-1.55988.90059-.00578-2.03275 1.55986-.90059.00576 2.03272.15141-.08742zm.00675 2.38072-.15138.0874-1.55988.9006-.00577-2.03307 1.55986-.90058.00576 2.03304.15141-.08742zm.00674 2.38041-.15138.08739-1.55987.90059-.00577-2.03274 1.55986-.90059.00576 2.03273.1514-.08741zm.00676 2.3804-.15138.0874-1.55988.9006-.00576-2.03275 1.55985-.90059.00576 2.03274.15141-.08742z"/><path d="m21.38206 42.7433.40511-.23389.00098.34765-.40609.23446z"/></g></g><g fill="#84dbff"><path d="m14.63013 28.17411-.00099.34766-1.83847-1.06144.00099-.34766z"/><path d="m4.16051 36.78408 16.87601 9.74337.05497-19.39183-16.876-9.74336zm.1659-5.02136.15141.08742.00576-2.03301 1.55986.90058v.00001l-.00577 2.03306-1.55988-.9006-.15138-.0874zm.00675-2.38067.15141.08742.00576-2.03243 1.55986.90059-.00577 2.03243-1.55988-.9006zm.00675-2.38042.15141.08742.00576-2.03274 1.55986.90059-.00577 2.03275-1.55988-.9006-.15138-.0874zm.00674-2.3804.15141.08741.00576-2.03273 1.55986.90059-.00577 2.03274-1.55988-.90059-.15138-.0874zm.00675-2.38041.15141.08742.00576-2.03304 1.55986.90058-.00577 2.03306-1.55988-.9006-.15138-.0874zm.16392-4.32604 1.55986.90059-.00577 2.03275-1.55988-.90059-.15138-.08741v-.00004l.15141.08742zm1.86322.90146-.0005.17398 1.83871 1.06159-.00576 2.03275-1.83875-1.0616-.00098.34766 1.83874 1.0616-.00576 2.03306-1.83875-1.0616.00576-2.03306.00099-.34766.00577-2.03275.00049-.17399-.30278-.17481v-.00001zm1.79195 17.5517-1.83874-1.0616.00576-2.03305.00099-.34766.00576-2.03308.00099-.34765.00576-2.03244 1.83875 1.0616.00098-.34797-1.83874-1.0616.00576-2.03275.00099-.34764.00576-2.03276 1.83875 1.0616-.00577 2.03275-1.83874-1.0616-.00099.34765 1.83875 1.0616-.00577 2.03275-.00098.34797-.00577 2.03244-1.83874-1.0616-.00099.34766 1.83875 1.06159-.00577 2.03306-1.83874-1.06159-.00099.34766 1.83875 1.06159zm.34933-16.31543-.0005.17399 1.83873 1.06159v.00001l-.00576 2.03275-1.83875-1.0616.00577-2.03275.00049-.17399-.30251-.17465v-.00001zm1.81221 10.40986-1.83874-1.0616.00576-2.03275 1.83875 1.0616-.00577 2.03275-.00098.34797-.00577 2.03243-1.83874-1.0616.00576-2.03243 1.83875 1.0616zm-1.85223 3.69953.00576-2.03307 1.83875 1.0616-.00577 2.03306zm.02024-7.14153.00576-2.03275 1.83875 1.0616-.00577 2.03275zm.00675-2.38041.00576-2.03306 1.83875 1.0616-.00576 2.03306zm1.805 12.96425-1.83874-1.0616.00576-2.03305 1.83875 1.0616zm.34931-16.31543-.00049.17397 1.83874 1.0616v.00001l-.00577 2.03275-.00098.34766-.00577 2.03305-.00099.34766-.00576 2.03275-1.83875-1.0616.00577-2.03275 1.83874 1.0616.00099-.34766-1.83875-1.0616.00577-2.03305 1.83875 1.06159.00098-.34765-1.83875-1.0616.00577-2.03275.00049-.17399-.30252-.17465v-.00001zm1.80549 12.79026-1.83875-1.0616.00577-2.03243 1.83874 1.0616-.00576 2.03243-.00099.34766-.00576 2.03306-1.83875-1.0616.00577-2.03307 1.83874 1.0616zm-1.83201-3.442.00577-2.03275 1.83874 1.0616-.00576 2.03275zm1.81851 8.20345-1.83875-1.0616.00577-2.03306 1.83874 1.0616zm.34959-16.31527-.00049.17397 1.83846 1.06143v.00001l-.00577 2.03276-1.83847-1.06144-.00099.34765 1.83848 1.06145-.00577 2.03306-.00099.34765-.00576 2.03275-1.83847-1.06143-.00099.34765 1.83847 1.06145-.00576 2.03275-1.83848-1.06144.00577-2.03275.00098-.34765.00577-2.03275.00098-.34766.00577-2.03306.00099-.34765.00576-2.03276.0005-.17397-.30281-.17483zm1.80422 13.13776-.00576 2.03308-1.83848-1.06145.00577-2.03306zm-1.83749-1.40909.00577-2.03243 1.83847 1.06144-.00576 2.03243zm1.82498 5.82288-1.83848-1.06144.00577-2.03305 1.83847 1.06144zm.34934-16.31541-.0005.17397 1.83871 1.06157v.00002l-.00577 2.03274-1.83874-1.06159-.00098.34766 1.83874 1.06159-.00577 2.03306-1.83874-1.0616-.00098.34766 1.83873 1.06159-.00576 2.03275-1.83874-1.06159-.00098.34765 1.83873 1.0616-.00576 2.03275-1.83874-1.0616.00577-2.03275.00098-.34765.00577-2.03275.00098-.34766.00577-2.03305.00098-.34766.00577-2.03275.00049-.17399-.30255-.17467v-.00001zm-.02752 9.69622 1.83873 1.0616-.00576 2.03243-1.83874-1.0616zm1.81947 7.85546-1.83874-1.0616.00576-2.03305.00099-.34766.00577-2.03306 1.83873 1.06159-.00576 2.03307-1.83874-1.06159-.00098.34766 1.83873 1.0616zm.34933-16.31541-.00049.17398 1.83872 1.06159v.00001l-.00577 2.03275-1.83874-1.0616-.00099.34766 1.83875 1.0616-.00577 2.03305-1.83874-1.0616-.00099.34668.00099-.34668.00576-2.03305.00099-.34766.00576-2.03275.00049-.17399-.3025-.17464v-.00001zm1.81221 10.40985-1.83874-1.0616.00576-2.03275 1.83874 1.0616.00099-.34765-1.83874-1.0616.00576-2.03275 1.83874 1.0616-.00576 2.03275-.00099.34765zm2.01994-.86991-.00005-.00003.00099-.34761-.15141-.08741-1.56015-.90075.00576-2.03275.00099-.34766.00576-2.03306.00099-.34765.00576-2.03276.00049-.17397-.30251-.17465v-.00001l.30253.17466-.0005.17397 1.56019.90078-.00577 2.03272.15141.08741-.00098.34769-.00004-.00002.00098-.34765-.15141-.08741-1.56015-.90075-.00099.34765 1.56016.90075.00004.00003-.00577 2.03304.15141.08742-.00098.34762-.00005-.00002.00099-.34762-.15141-.08741-1.56015-.90076-.00099.34766 1.56016.90076.00004.00002-.00577 2.03273.15141.08742zm-.00675 2.38074-.00005-.00003.00099-.34794-.15141-.08742-1.56015-.90076.00576-2.03275 1.56015.90076.00005.00002-.00577 2.03274.15141.08741zm-.00675 2.38007-.00005-.00003.00099-.34762-.15141-.08741-1.56015-.90076.00576-2.03242 1.56015.90075.00005.00002-.00577 2.03243.15141.08741zm-.00675 2.38074-.00005-.00003.00099-.34764-.15141-.08741-1.56016-.90076.00577-2.03307 1.56015.90076.00005.00002-.00577 2.03301.15141.08742zm-.00676 2.38068-.00004-.00002.00099-.3476-.15141-.08742-1.56016-.90076.00577-2.03305 1.56015.90076.00005.00002-.00577 2.03303.15141.08742zm-1.71785 1.21823-.00001-.00001.00049-.17362.00576-2.03274 1.56016.90075.00004.00003-.00576 2.03271-1.56019-.90078zm-2.14129-1.23627-.00002-.00002.00049-.17361.00576-2.03275 1.83875 1.0616.00099-.34766-1.83875-1.06159.00577-2.03307 1.83874 1.0616.00099-.34766-1.83875-1.06159.00577-2.03307 1.83874 1.0616.00099-.34766-1.83874-1.0616.00576-2.03243 1.83874 1.0616-.00576 2.03243-.00099.34766-.00576 2.03307-.00099.34765-.00576 2.03307-.00099.34765-.00577 2.03272-1.83871-1.06158zm-2.14128-1.23628-.00004-.00002.0005-.17361.00576-2.03275 1.83874 1.0616-.00576 2.03272-1.83871-1.06158zm-2.14105-1.23612-.00001-.00001.00049-.17362.00577-2.03274 1.83847 1.06144-.00577 2.03271-1.83845-1.06142zm-2.14157-1.23644h-.00002l.0005-.17363.00576-2.03274 1.83875 1.0616-.00576 2.03272-1.83874-1.06159zm-2.14129-1.23628-.00002-.00001.00049-.17362.00577-2.03274 1.83875 1.0616-.00577 2.03272-1.83873-1.06159zm-2.14127-1.23626-.00005-.00002.00049-.17362.00577-2.03274v-.00001l1.83875 1.0616-.00577 2.03273-1.83871-1.06158zm-1.86224-1.2491.00577-2.03271 1.55985.90058.00099-.34766-1.55988-.9006-.15139-.0874v-.00003l.15141.08742.00577-2.03303 1.55986.90059-.00577 2.03305-.00099.34766-.00576 2.03272z"/></g><g><g enable-background="new"><g><path d="m20.38577 46.1188.45268-.26307-16.12162-9.30782-.45268.26307z" fill="#3498db"/></g><g><path d="m4.26415 36.81098.45268-.26307.05252-18.5249-.45268.26307z" fill="#3087a5"/></g><g><path d="m20.90048 47.01039.45268-.26307.05589-19.71145-.45269.26307z" fill="#3087a5"/></g><g><path d="m20.95636 27.29894.45269-.26307-17.15417-9.90396-.45268.26307z" fill="#3498db"/></g><g><path d="m20.90048 47.01039-17.15416-9.90396.05588-19.71145 17.15417 9.90396zm-16.63633-10.19941 16.12162 9.30782.05252-18.5249-16.12162-9.30782z" fill="#3293c9"/></g></g></g><g><g enable-background="new"><g><path d="m47.54539 20.83234-.45116-.26219.03038 10.71664.45117.26219z" fill="#328eb7"/></g><g><path d="m47.57578 31.54898-.45117-.26219-25.70888 14.83201.45116.26219z" fill="#3498db"/></g><g><path d="m21.38479 35.33978-.45116-.26218-.03094 11.92976.45116.26218z" fill="#3293c9"/></g><g><path d="m48.05843 19.94371-.45116-.26218-26.67364 15.39607.45116.26218z" fill="#3498db"/></g><g><path d="m48.09217 31.84319-26.73832 15.42635.03094-11.92976 26.67364-15.39607zm-26.22528 14.5378 25.70888-14.83201-.03038-10.71664-25.6442 14.80172z" fill="#328eb7"/></g></g></g></g></g></svg>