<svg id="Layer_1" enable-background="new 0 0 50 50" height="512" viewBox="0 0 50 50" width="512" xmlns="http://www.w3.org/2000/svg"><g><g><g><g><g enable-background="new"><g><path d="m1.00005 19.05807.00674 1.1042c0 .20223.1347.39755.39061.54552l15.5766 9.05098c.5253.30318 1.38058.30318 1.90584 0l11.40805-6.58609c.26265-.1483.39735-.3502.39735-.5521v-1.09795c0 .20223-.1347.40413-.39735.55243l-11.40805 6.58609c-.52526.30318-1.38054.30318-1.91254 0l-15.57664-9.05098c-.24917-.1483-.39061-.34362-.39061-.5521z" fill="#d9ae6d"/></g><g><path d="m1.00679 18.98376c-.0404.22919.10099.45806.38386.62642l15.57664 9.05098c.532.30318 1.38728.30318 1.91254 0l11.40805-6.58609c.5253-.30318.5253-.80135 0-1.10453l-15.57664-9.05098c-.28283-.16836-.68018-.24925-1.07749-.22229l-8.45839.45806c-.31654.02006-.60611.10095-.82162.22886l-2.12805 1.22554c-.22225.12791-.36364.29627-.39061.47154zm2.94967-4.20209c.07407-.07399.16162-.1483.26935-.20881.65326-.37716 1.71056-.37716 2.36378 0 .10777.0605.19532.12791.26265.2019-.07407.07432-.16162.1414-.26939.20223-.65322.37716-1.71726.37716-2.36374 0-.10104-.06083-.19533-.12791-.26265-.19532z" fill="#fecd82"/></g></g></g><g><path d="m4.22581 13.60315c.65326-.37716 1.71056-.37716 2.36378 0 .54548.32324.63303.80135.26265 1.17161-.06733-.07399-.15488-.1414-.26265-.2019-.65322-.37716-1.71052-.37716-2.36378 0-.10773.0605-.19528.13482-.26935.20881-.37039-.37059-.28288-.85528.26935-1.17852z" fill="#d9ae6d"/></g></g><g><g><path d="m19.19281 18.22719 1.51087.8723-1.76274 1.02439-1.51087-.8723zm-.192 1.45858.94669-.55016-.81234-.46901-.9467.55016z" fill="#40545d"/></g><g><path d="m20.69151 26.03029-2.29034 1.33101-1.98623-1.14675.81365-.47284 1.2877.74345 1.4767-.85816z" fill="#40545d"/></g><g><path d="m18.56247 23.23432 1.51087.8723-1.76263 1.02433-1.51087-.8723zm-.192 1.45857.94681-.55023-.81457-.47029-.94681.55023z" fill="#40545d"/></g><g><path d="m20.46722 20.96914-.59857.34785.47312.27316-1.18619.68934-.47312-.27316.63406-.36847-.44635-.2577.60085-.34918-.4441-.25641.54985-.31953.4441.2564z" fill="#40545d"/></g><g enable-background="new"><g><path d="m19.67973 22.53333-.55213.32087-.44634-.2577.55213-.32087z" fill="#40545d"/></g><g><path d="m22.38602 22.77039-1.73833 1.01021-.47312-.27316.59424-.34533-.56016-.32341-.59424.34533-.47535-.27444.59424-.34534.54985-.31954.59423-.34533.47536.27445-.59424.34533.56016.32341.59424-.34534z" fill="#40545d"/></g></g><g><path d="m18.60345 22.60035-1.09971.63908-.47312-.27316 1.09971-.63907z" fill="#40545d"/></g><g><path d="m16.89511 22.9959-1.09754.63781-.47312-.27315-.4441-.25641.54985-.31954.4441.25641.54769-.31828z" fill="#40545d"/></g><g><path d="m18.84429 20.72558-.55213.32086-1.01766-.58755-.63406.36848 1.04444.60301.59196-.34401.47312.27316-.59196.344.52446.3028-.55213.32087-.52446-.3028-1.09971.63908-.47312-.27316 1.09971-.63908-1.04445-.60301-.47312-.27315-.47981-.27703.55213-.32086.47982.27702.63406-.36847.55213-.32087.47312.27316z" fill="#40545d"/></g><g><path d="m11.93874 20.97688-1.4767.85816 1.2877.74345-.81365.47284-1.98622-1.14674 2.29034-1.331z" fill="#40545d"/></g><g><path d="m14.55654 20.9215 1.51087.8723-1.76263 1.02433-1.51087-.8723zm-.192 1.45857.94681-.55023-.81234-.46901-.94681.55023z" fill="#40545d"/></g><g><path d="m28.56926 21.45225-2.29263 1.33233-.69852-.4033 1.47669-.85816-1.2877-.74345.81594-.47417z" fill="#40545d"/></g><g><path d="m23.19873 20.54002 1.51088.8723-1.76274 1.02439-1.51087-.8723zm-.192 1.45857.94669-.55016-.81457-.47029-.9467.55016z" fill="#40545d"/></g><g><path d="m22.67867 20.23209-1.73833 1.01021-.47312-.27316.59424-.34533-.44635-.2577.55214-.32087.44635.2577.59195-.34401z" fill="#40545d"/></g><g><path d="m21.62777 19.67162-.55202.32079-.44634-.25769.55202-.3208z" fill="#40545d"/></g><g><path d="m21.10418 17.14228-.81593.47417-1.2877-.74345-1.47669.85816-.69853-.40329 2.29263-1.33233z" fill="#40545d"/></g></g></g><g><g><g enable-background="new"><path d="m31.03512 18.84611-.01354 4.77117c.00521-1.8329-1.20159-3.66892-3.62034-5.06539-4.80821-2.77602-12.59949-2.77225-17.37023.0002-2.3746 1.37997-3.56407 3.1892-3.56921 5.00092l.01352-4.77115c.00514-1.81172 1.19461-3.62095 3.56922-5.00092 4.77074-2.77245 12.56203-2.77622 17.37023-.0002 2.41874 1.39647 3.62554 3.23248 3.62035 5.06537z" fill="#485f69"/><path d="m32.01043 18.84958-.01354 4.77116c-.00552 1.95335-1.28728 3.90372-3.8479 5.39179-5.15446 2.99545-13.56633 2.9991-18.75446.00373-2.61076-1.50732-3.91468-3.49089-3.90906-5.47141l.01351-4.77116c-.0056 1.98051 1.29832 3.96408 3.90908 5.47141 5.18813 2.99537 13.6 2.99172 18.75446-.00373 2.56061-1.48807 3.84237-3.43844 3.84791-5.39179z" fill="#485f69"/><g><path d="m28.10128 13.38178c5.18813 2.99537 5.2157 7.86414.06123 10.85959s-13.56633 2.9991-18.75446.00373-5.21554-7.87144-.06108-10.86689 13.56618-2.9918 18.75431.00357zm-18.00637 10.46416c4.80821 2.77602 12.59949 2.77225 17.37627-.00371 4.77074-2.77245 4.75179-7.28547-.05642-10.06149s-12.59949-2.77225-17.37023.0002c-4.77678 2.77597-4.75783 7.28898.05038 10.065z" fill="#56707b"/></g></g></g><g opacity=".5"><path d="m30.82494 20.14094c-.4299 1.35524-1.55134 2.65435-3.35495 3.70067-4.77539 2.77573-12.56932 2.78485-17.37277 0-1.83162-1.0559-2.97177-2.36414-3.41097-3.73808.42055-1.36436 1.54193-2.66348 3.3549-3.71938 4.78474-2.77527 12.55996-2.78485 17.37277 0 1.84098 1.06548 2.98112 2.38285 3.41102 3.75679z" fill="#61c4f0"/></g><g><g><g enable-background="new"><g><path d="m27.89002 26.39427c.00078.41931.14936.71494.38818.85419l.84273.48987c-.23882-.14001-.38741-.43484-.38818-.85411-.00234-.84484.59122-1.87403 1.32635-2.29797.37029-.21393.70557-.23338.9475-.09261l-.84273-.48991c-.24193-.14081-.57721-.12136-.9475.09257-.73435.42399-1.32868 1.45241-1.32635 2.29797z" fill="#56707b"/></g><g><path d="m28.73276 26.88422c.00233.84401.59977 1.18472 1.3349.76078.73513-.42474 1.32946-1.45316 1.32712-2.29797-.00233-.84481-.60055-1.18552-1.33568-.76078-.73512.42395-1.32868 1.45313-1.32634 2.29797z" fill="#40545d"/></g></g></g><g><g enable-background="new"><g><path d="m29.39724 26.83894c.00056.29845.10631.50888.2763.60799l2.46785 1.43463c-.16998-.09966-.27575-.30951-.27629-.60794-.00166-.60134.42081-1.33389.94406-1.63564.26357-.15227.50221-.16611.67441-.06591l-2.46785-1.43465c-.1722-.10022-.41085-.08638-.67441.06589-.5227.30177-.94573 1.03377-.94407 1.63563z" fill="#dde4e7"/></g><g><path d="m31.86509 28.27362c.00166.60075.4269.84326.95015.54151.52325-.30232.94628-1.03433.94461-1.63564-.00166-.60131-.42746-.84383-.95071-.54151-.52324.30175-.94571 1.0343-.94405 1.63564z" fill="#b0b8bc"/></g></g></g></g><g><g enable-background="new"><g><path d="m30.26342 28.87962c.00128.68892.2454 1.17463.63778 1.40342l.72442.42138c-.39238-.23003-.6365-.71444-.63777-1.4033-.00384-1.38807.97136-3.079 2.17917-3.77553.60838-.35148 1.15924-.38343 1.55673-.15215l-.72441-.42144c-.39749-.23134-.94836-.19939-1.55674.15209-1.20653.69659-2.18301 2.38628-2.17918 3.77553z" fill="#cb4844"/></g><g><path d="m30.98785 29.30112c.00383 1.3867.98541 1.94649 2.19323 1.24996 1.20781-.69784 2.18429-2.38753 2.18045-3.77553-.00383-1.38801-.98669-1.9478-2.19451-1.24996-1.20781.69653-2.18301 2.38747-2.17917 3.77553z" fill="#b4403c"/></g></g></g><g><g enable-background="new"><g><path d="m31.56931 29.42554c.00112.60233.21456 1.02699.55762 1.22703l13.32122 7.74972c-.34306-.20112-.5565-.62464-.55761-1.22692-.00335-1.2136.84927-2.69201 1.90527-3.30099.53191-.3073 1.01354-.33524 1.36107-.13303l-13.32122-7.74978c-.34753-.20227-.82915-.17433-1.36107.13297-1.05489.60905-1.90863 2.08635-1.90528 3.301z" fill="#ee5550"/></g><g><path d="m44.89054 37.17537c.00335 1.2124.86156 1.70184 1.91756 1.09285 1.056-.61013 1.90975-2.08744 1.90639-3.30099-.00335-1.21355-.86268-1.70298-1.91868-1.09285-1.056.60898-1.90863 2.08738-1.90527 3.30099z" fill="#cb4844"/></g></g></g><g><g enable-background="new"><g><path d="m43.90187 36.89517c.00128.68892.2454 1.17464.63778 1.40342l.72443.42138c-.39238-.23003-.63651-.71444-.63778-1.4033-.00384-1.38807.97136-3.079 2.17917-3.77554.60838-.35148 1.15924-.38343 1.55673-.15215l-.72442-.42144c-.39749-.23134-.94836-.19939-1.55674.15209-1.20652.6966-2.183 2.38629-2.17917 3.77554z" fill="#cb4844"/></g><g><path d="m44.62631 37.31668c.00383 1.3867.98542 1.94649 2.19323 1.24996 1.20781-.69784 2.18429-2.38753 2.18045-3.77554-.00383-1.38801-.98669-1.9478-2.19451-1.24996-1.20781.69653-2.18301 2.38747-2.17917 3.77554z" fill="#b4403c"/></g></g></g></g></g></svg>