<svg id="Layer_1" enable-background="new 0 0 52 52" height="512" viewBox="0 0 52 52" width="512" xmlns="http://www.w3.org/2000/svg"><g><g><g><g><g><path d="m15.39192 14.10143.09519 33.26711c0 .56428.20396.96544.52353 1.15578l2.36582 1.35234c-.32633-.18354-.52349-.58469-.52349-1.15578l-.0952-33.26035c-.00681-1.13541.79546-2.52237 1.78131-3.0935l15.17519-8.76382c.50311-.28554.95187-.31272 1.2782-.12238l-2.36586-1.35914c-.32633-.19035-.77509-.16317-1.2782.12242l-15.17519 8.76378c-.98584.57112-1.78811 1.95809-1.7813 3.09354z" fill="#e0e2e2"/></g><g><path d="m15.39192 14.10143.09519 33.26711c0 .56428.20396.96544.52353 1.15578l.44368.24811c-.32634-.18354-.52349-.5847-.52349-1.15578l-.09519-33.26035c-.00681-1.13541.79546-2.52237 1.78131-3.0935l15.17519-8.76382c.50311-.28554.95186-.31272 1.2782-.12238l-.44373-.25491c-.32633-.19035-.77509-.16317-1.2782.12242l-15.17519 8.76378c-.98584.57112-1.78811 1.95809-1.7813 3.09354z" fill="#5b5e71"/></g><g><path d="m19.53948 12.36595c-.98538.56891-1.7858 1.96033-1.78259 3.0926l.09431 33.26498c.00324 1.14225.80891 1.60139 1.79428 1.03248l15.17572-8.7617c.99405-.57391 1.79016-1.95784 1.78692-3.10009l-.0943-33.26497c-.00321-1.13228-.80457-1.59891-1.79861-1.02499z" fill="#5b5e71"/></g><g><g><path d="m21.34094 12.85748c-.21705.12531-.39875.44506-.39805.69446.00069.24441.18361.35364.40066.22833.22572-.13032.39875-.44506.39806-.68947-.0007-.2494-.17495-.36363-.40067-.23332z" fill="#e0e2e2"/></g><g><path d="m26.4332 43.27367c-.1209.0698-.22316.2427-.22277.38162l.00311 1.09874c.0004.14313.10331.19757.22421.12777l2.64881-1.51905c.1209-.0698.22316-.24269.22276-.38582l-.00311-1.09875c-.00039-.13892-.1033-.19336-.2242-.12356z" fill="#e0e2e2"/></g><g><path d="m34.67242 37.65217-14.90002 8.60004-.08002-30.55005 14.90003-8.59997z" fill="#fff"/></g><g><path d="m26.03827 10.32035c-.13892.0802-.25141.27505-.25095.43467.00044.15463.11366.21916.25258.13896l4.15421-2.39843c.13892-.0802.25141-.27505.25097-.42968-.00045-.15961-.11367-.22415-.25259-.14394z" fill="#e0e2e2"/></g><g><path d="m25.07892 10.87422c-.13456.07769-.24706.27255-.24661.43216.00044.15463.11367.21915.24824.14146.14325-.0827.2514-.27505.25097-.42968-.00046-.1596-.10935-.22664-.2526-.14394z" fill="#e0e2e2"/></g><g><path d="m24.07185 11.45566c-.13458.0777-.24706.27255-.24661.43216.00044.15463.11366.21916.24824.14146.14325-.0827.25139-.27504.25095-.42967-.00046-.15961-.10933-.22665-.25258-.14395z" fill="#e0e2e2"/></g></g></g><g><g><g enable-background="new"><g><path d="m16.34003 18.03757c.08428-.05069.1474.09221.27374.16826.26117.15206.47179.51531.47179.81097l-.01682 3.47276c0 .14365.00429.11059-.07156.16127l.19781-.11622c.08423-.05069.13477-.15206.13477-.29566l.00843-3.47276c0-.29571-.21062-.65897-.46335-.81103-.13482-.076-.25273-.08446-.33701-.03377z" fill="#474b59"/></g><g><path d="m16.66994 18.07016c-.25819-.14948-.46865-.02921-.46949.26829l-.00897 3.47512c-.00084.29749.20827.65446.46646.80394s.46864.03541.46947-.26208l.00897-3.47512c.00084-.29751-.20825-.66067-.46644-.81015z" fill="#5b5e71"/></g></g></g><g><g enable-background="new"><g><path d="m16.34044 23.93255c.08451-.05069.14781.09221.2745.16826.26188.15206.47309.51531.47309.81097l-.01686 3.47276c0 .14365.0043.11059-.07175.16127l.19875-.11622c.08446-.05069.13515-.15206.13515-.29566l.00846-3.47276c0-.29571-.2112-.65897-.46463-.81102-.1352-.076-.25343-.08446-.33794-.03377z" fill="#474b59"/></g><g><path d="m16.67126 23.96514c-.2589-.14948-.46994-.02921-.47079.26829l-.009 3.47511c-.00084.2975.20885.65446.46775.80394s.46992.03541.47077-.26209l.009-3.47511c.00084-.2975-.20884-.66066-.46773-.81014z" fill="#5b5e71"/></g></g></g></g></g></g><g><g><g><path d="m28.98631 23.60318-4.19561 2.42459c-.0018-.63638-.44941-.89372-1.00324-.57397-.55184.3186-.99852 1.09227-.99672 1.72639l-1.19564.69256c-.15851.09152-.28614.0188-.28665-.16109l-.00315-1.11083 7.67695-4.43229zm-.4418-.28098-.00103-.36203-2.03128 1.17276.00103.36203zm-2.40115 1.38631-.00103-.36203-.51075.29488.00103.36203z" fill="#e0e2e2"/></g><g><path d="m31.03586 21.26894c.55184-.3186 1.00144-.06241 1.00324.57172.0018.63412-.44489 1.40779-.99672 1.72639-.55184.31861-1.00144.0624-1.00324-.57172s.44487-1.40778.99672-1.72639zm.00543 1.91584c.3679-.21241.66632-.72931.66512-1.15205s-.30157-.59393-.66947-.38152-.66632.72931-.66513 1.15205c.0012.42274.30158.59393.66948.38152" fill="#474b59"/></g><g><path d="m31.03694 21.65121c.3679-.21241.66828-.04123.66947.38152.0012.42274-.29722.93964-.66512 1.15205s-.66827.04122-.66947-.38152.29722-.93964.66512-1.15205z" fill="#e0e2e2"/></g><g><path d="m32.99815 18.57742c.04316.01336.06875.05715.06893.12011l.00665 2.34532c.00031.11019-.0777.24533-.1736.30069l-.86103.49712c-.0018-.63412-.4514-.89032-1.00324-.57172-.55184.31861-.99852 1.09227-.99672 1.72639l-1.0489.60558-.008-1.43236-.0132-4.65468 2.13108-1.23038c.64577-.37284 1.16999-.07413 1.17209.66568l.00403 1.42113zm-1.07426-.03972-.00393-1.38515c-.00147-.51719-.3686-.72641-.8187-.46655l-1.78078 1.02813.00659 2.32284z" fill="#e74c3c"/></g><g><path d="m23.78854 25.83608c.3679-.21241.6683-.04124.6695.38151.0012.42274-.29725.93966-.66515 1.15207-.36788.21239-.66828.04122-.66947-.38152-.0012-.42276.29724-.93967.66512-1.15206z" fill="#e0e2e2"/></g><g><path d="m23.78745 25.45381c.55383-.31976 1.00144-.06241 1.00324.57171.00077.63595-.44355 1.40702-.99672 1.72639-.5512.31824-1.00037.06302-1.0032-.56948-.00184-.63635.44484-1.41002.99668-1.72862zm.00543 1.91584c.3679-.21241.66635-.72932.66515-1.15207-.0012-.42274-.3016-.59391-.6695-.3815-.36788.21239-.66632.72931-.66513 1.15205.00121.42274.30161.59391.66948.38152" fill="#474b59"/></g><g><path d="m26.14234 24.34648.00102.36203-.51075.29489-.00103-.36204z" fill="#464957"/></g><g><path d="m28.54348 22.96018.00103.36203-2.03128 1.17276-.00103-.36203z" fill="#464957"/></g><g><path d="m28.68336 16.98961c.15851-.09152.28809-.01768.2886.16446l.00101.35753.00927 4.65695-7.67695 4.43229-.01421-5.01221c-.00052-.18214.12822-.40512.28673-.49663z" fill="#f1c40f"/></g><g><path d="m31.10127 16.686c.4501-.25987.81723-.05064.8187.46655l.00393 1.38515-2.59682 1.49927-.00658-2.32284z" fill="#84dbff"/></g></g><g><path d="m32.84559 25.66238c-.07725-.0463-.18521-.03858-.30872.03085l-10.07122 5.81899c-.23929.13891-.43995.47848-.43995.75629l.01545 4.65365c0 .13891.04635.23151.13114.27782l-.54791-.31644c-.07716-.0463-.12341-.13891-.13114-.27782l-.00772-4.6536c0-.27786.19294-.61743.43213-.75634l10.07122-5.81894c.1236-.06948.23156-.07716.31654-.03085z" fill="#1abc9c"/><path d="m32.53616 25.69501c.24146-.13941.43919-.02673.43998.25071l.0132 4.65407c.00079.27744-.19566.61769-.43712.7571l-10.07146 5.81476c-.24146.13941-.43919.02673-.43997-.25071l-.0132-4.65407c-.00079-.27744.19566-.61769.43712-.7571z" fill="#1d9981"/><g><g><path d="m23.71746 33.03923c.1334.06474.2029.21177.2036.46091.00069.24344-.06279.47292-.19049.6941-.12772.2155-.32461.39723-.59067.55084l-.45825.26457-.00446-1.574.47302-.2731c.24636-.14223.43876-.18524.56725-.12332zm-.16474 1.08189c.08842-.14177.13241-.3033.13191-.4788-.00103-.36237-.17898-.44111-.53866-.23345l-.23157.1337.00307 1.08142.25623-.14794c.1626-.09388.29058-.21314.37902-.35493" fill="#fff"/></g><g><path d="m25.18029 31.99051.00071.24911-.73421.4239.00119.41897.66029-.38122.00068.23781-.6603.38122.00119.41897.7588-.43809.00071.24912-.99037.57179-.00446-1.57399z" fill="#fff"/></g><g><path d="m25.73212 31.67191.00375 1.32487.62581-.36131.00071.24912-.85738.49501-.00446-1.57399z" fill="#fff"/></g><g><path d="m26.84573 31.02897.00446 1.57399-.23157.1337-.00446-1.574z" fill="#fff"/></g><g><path d="m28.40276 30.13001-.54743 1.89263-.25616.1479-.55636-1.25536.25623-.14794.42712.933.42037-1.42229z" fill="#fff"/></g><g><path d="m29.56562 29.45864.00071.24911-.73421.4239.00119.41897.66029-.38122.00068.23781-.6603.38122.00119.41897.7588-.43809.00071.24912-.99037.57179-.00446-1.57399z" fill="#fff"/></g><g><path d="m30.68694 29.81502.3613.36419-.29565.1707-.3267-.3388-.30548.17637.00149.52656-.23157.1337-.00446-1.574.51246-.29587c.20691-.11946.35979-.16803.44871-.13997.08892.03374.13367.13834.13417.31384.00074.26044-.09738.48155-.29427.66328zm-.2765-.03885c.12811-.07397.21674-.1478.26592-.22159.04418-.07087.06861-.16438.06833-.26629-.00029-.10191-.02516-.16126-.0745-.16682-.04449-.01402-.13324.01454-.25641.08566l-.29565.17069.00161.56619z" fill="#fff"/></g><g><path d="m32.33972 27.85701-.50482 1.24421.00176.6228-.23651.13655-.00177-.6228-.51515-.65532.25623-.14794.37649.50287.37248-.93529z" fill="#fff"/></g></g></g></g></g></svg>