<svg id="Layer_1" enable-background="new 0 0 50 50" height="512" viewBox="0 0 50 50" width="512" xmlns="http://www.w3.org/2000/svg"><g><g><g><g><g enable-background="new"><g><path d="m45.87049 33.1879-.0112 3.95253-14.94174 8.68319.0112-3.95253z" fill="#5f873b"/></g><g><path d="m30.92875 41.87109-.0112 3.95253-29.91755-17.2729.01121-3.95253z" fill="#6b993f"/></g><g><path d="m18.08488 34.45384-.01121 3.95254-5.31378-3.06792.01121-3.95253z" fill="#fecd82"/></g><g><path d="m17.36689 34.03931-.0112 3.95254-3.92492-2.26606.0112-3.95253z" fill="#bf9960"/></g><g><path d="m45.87049 33.1879-14.94174 8.68319-29.91754-17.2729 14.94174-8.68319z" fill="#5c843a"/></g></g></g><g><g><path d="m42.73831 32.62433c.50769.29311.51018.76507.00591 1.05812-.50426.29305-1.32506.29664-1.83275.00352s-.51039-.77215-.00612-1.0652c.50427-.29304 1.32527-.28955 1.83296.00356z" fill="#97c269"/></g><g><path d="m23.31125 29.4537c.27943.29665.4227.529.43581.69354.00721.16074-.097.30741-.33062.44317-.2276.13227-.51104.18939-.85065.17155-.33957-.01782-.68553-.11086-1.03234-.27512z" fill="#7eb442"/></g><g><path d="m23.99607 27.21233c.22159-.12877.48659-.18958.80747-.1752.31471.01081.63608.0966.96398.25034l-1.71003.99376c-.25438-.28256-.38538-.50048-.38628-.65061-.00085-.15012.10325-.28951.32486-.41829z" fill="#7eb442"/></g><g enable-background="new"><g><path d="m15.94277 21.77869c1.25688.72566 1.26344 1.8982.01462 2.62394-1.24248.72205-3.26676.72208-4.52364-.00358-1.25069-.72208-1.26344-1.8982-.02096-2.62025 1.24882-.72574 3.2793-.7222 4.52998-.00011z" fill="#7eb442"/></g><g><path d="m5.92041 24.00229c.50771.29313.51039.77215.00612 1.0652-.5046.29324-1.32525.28957-1.83296-.00356-.50769-.29312-.51053-.76489-.00593-1.05813.50426-.29305 1.32508-.29662 1.83277-.00351z" fill="#97c269"/></g><g><path d="m13.93855 27.5699-.62741.36462-5.00897-2.89193.62742-.36461z" fill="#6b993f"/></g><g><path d="m25.50603 30.15794c.05774.38246-.2056.74348-.78395 1.07958-.572.33241-1.25606.4861-2.02746.46098-.76573-.02841-1.51354-.22508-2.21908-.59686l-.71351.41465-.63773-.36819.72586-.42183c-.81806-.57901-1.27856-1.25818-1.36904-2.03766l1.57941-.07864c.07734.60061.37012 1.09751.86625 1.49064l1.91293-1.11167c-.57096-.5361-.88808-.99021-.9458-1.35836-.05136-.3718.19977-.7186.77179-1.05102s1.23137-.48604 1.99689-.46471c.76523.02155 1.48221.20739 2.16319.55764l.49192-.28587.63773.36819-.50426.29304c.66898.45042 1.11648.99372 1.32975 1.62295l-1.56055.15372c-.12571-.42904-.41188-.81503-.84582-1.15101l-1.85755 1.07948.02478.01431c.58917.54701.90647 1.00817.96425 1.39064zm-2.94024.60402c.33961.01784.62305-.03928.85065-.17155.23362-.13576.33783-.28243.33062-.44317-.01311-.16455-.15638-.39689-.43581-.69354l-1.77779 1.03314c.3468.16427.69276.2573 1.03233.27512m1.49169-2.48073 1.71003-.99376c-.32789-.15374-.64927-.23953-.96398-.25034-.32088-.01438-.58588.04643-.80747.1752-.22161.12878-.32571.26817-.32486.41829.0009.15013.1319.36805.38628.65061" fill="#97c269"/></g><g><path d="m29.26913 25.50361c3.24437 1.87314 3.25547 4.90795.0383 6.77757-3.21715 1.8696-8.45045 1.86959-11.69481-.00354-3.23819-1.86957-3.25531-4.90089-.03816-6.7705 3.21716-1.86961 8.45648-1.8731 11.69467-.00353zm-6.57452 6.19489c.7714.02512 1.45546-.12857 2.02746-.46098.57835-.3361.84169-.69712.78395-1.07958-.05777-.38247-.37507-.84363-.96424-1.39064l-.02478-.01431 1.85754-1.07948c.43394.33598.72012.72197.84582 1.15101l1.56055-.15372c-.21327-.62923-.66077-1.17252-1.32975-1.62295l.50426-.29304-.63773-.36819-.49192.28587c-.68098-.35025-1.39796-.53609-2.16319-.55764-.76552-.02132-1.42488.13229-1.99689.46471s-.82314.67921-.77179 1.05102c.05773.36816.37485.82227.9458 1.35836l-1.91293 1.11167c-.49612-.39314-.7889-.89004-.86625-1.49064l-1.57941.07864c.09048.77948.55099 1.45865 1.36904 2.03766l-.72586.42183.63773.36819.71351-.41465c.70555.37178 1.45335.56845 2.21908.59686" fill="#7eb442"/></g><g><path d="m35.74334 33.21055c1.25686.72565 1.26342 1.89819.0146 2.62392-1.24247.72205-3.26676.72208-4.52362-.00357-1.2569-.72567-1.26346-1.89821-.02098-2.62026 1.24881-.72573 3.2731-.72576 4.53-.00009z" fill="#7eb442"/></g><g><path d="m30.76715 37.2859-.62741.36461-5.00897-2.89192.62742-.36462z" fill="#6b993f"/></g><g><path d="m40.67217 31.77363c-1.34092.77925-1.32745 2.04819.02229 2.82746l-7.33871 4.26479c-1.34974-.77927-3.54681-.77923-4.88773.00002l-22.2648-12.85459c1.34092-.77925 1.33998-2.04832-.01595-2.83116l7.33871-4.26479c1.35593.78285 3.54047.78294 4.88139.00368zm-23.05955.504c3.24437 1.87313 8.47767 1.87314 11.69481.00354 3.21716-1.86961 3.20606-4.90443-.0383-6.77757-3.23819-1.86957-8.47751-1.86608-11.69467.00353-3.21715 1.86961-3.20004 4.90093.03816 6.7705m-6.19985-10.49884c-1.24247.72205-1.22972 1.89816.02097 2.62024 1.25689.72567 3.28117.72564 4.52364.00359 1.24883-.72574 1.24226-1.89828-.01463-2.62395-1.25069-.72207-3.28116-.72562-4.52998.00012m19.82154 14.05211c1.25686.72565 3.28114.72562 4.52361.00357 1.24883-.72574 1.24226-1.89828-.0146-2.62392-1.2569-.72567-3.28117-.72564-4.53.0001-1.24247.72205-1.2359 1.89459.02099 2.62025m-1.09459 1.81962.62742-.36462-5.00896-2.89192-.62742.36462zm-16.8286-9.716.62742-.36462-5.00896-2.89192-.62742.36462zm13.35072 9.11186.62742-.36462-2.74285-1.58358-.62742.36462zm-14.56249-8.40766.62742-.36462-2.74285-1.58358-.62742.36462z" fill="#97c269"/></g><g><path d="m12.72678 28.27411-.62741.36461-2.74286-1.58359.62741-.36461z" fill="#6b993f"/></g><g><path d="m27.28927 36.68177-.62741.36461-2.74286-1.58359.62741-.36461z" fill="#6b993f"/></g><g><path d="m31.83203 38.96237c.50769.29311.50417.76856-.00009 1.06161-.5046.29324-1.31905.29315-1.82674.00003-.50769-.29311-.51673-.76846-.01213-1.0617.50426-.29305 1.33127-.29306 1.83896.00006z" fill="#97c269"/></g><g><path d="m15.95296 15.91257 29.91752 17.27289-14.94174 8.68319-29.91752-17.27289zm12.51507 22.95333c1.34092-.77925 3.53799-.7793 4.88773-.00002l7.33871-4.26479c-1.34974-.77927-1.36321-2.04821-.02229-2.82746l-22.2648-12.85459c-1.34091.77925-3.52546.77917-4.88139-.00368l-7.33871 4.26479c1.35593.78285 1.35687 2.05191.01595 2.83116zm-24.37448-13.80197c.50771.29313 1.32836.2968 1.83296.00356.50427-.29305.5016-.77207-.00612-1.0652-.50769-.29312-1.32851-.28954-1.83278.00351-.5046.29324-.50175.76501.00594 1.05813m12.73312-7.39968c-.50769-.29312-1.32251-.29302-1.82677.00002-.50427.29305-.50777.76851-.00007 1.06162.50771.29313 1.3347.29311 1.83897.00006.50426-.29304.49558-.76858-.01213-1.0617m24.08479 16.02172c.50769.29312 1.32849.28953 1.83276-.00352.50426-.29304.50177-.765-.00592-1.05812-.50769-.29311-1.3287-.2966-1.83296-.00356-.50427.29306-.50158.77209.00612 1.0652m-10.90629 6.33804c.50769.29312 1.32215.29321 1.82675-.00003.50427-.29305.50778-.7685.00009-1.06161s-1.3347-.29311-1.83897-.00006c-.5046.29324-.49556.76859.01213 1.0617" fill="#7eb442"/></g></g><g><path d="m16.82669 17.66425c.50771.29313.51639.76866.01213 1.0617-.50427.29305-1.33125.29306-1.83896-.00006-.50769-.29311-.50419-.76857.00007-1.06162.50426-.29304 1.31907-.29313 1.82676-.00002z" fill="#97c269"/></g></g></g><g><path d="m33.02714 25.77035-14.94226 8.68349-5.31378-3.06791 14.94226-8.6835z" fill="#ffd69a"/></g><g><path d="m32.30916 25.35582-14.94227 8.68349-3.92492-2.26605 14.94226-8.68349z" fill="#d9ae6d"/></g></g><g><g><g><g enable-background="new"><g><path d="m48.80423 27.03377-.0112 3.95253-14.94174 8.68319.01121-3.95253z" fill="#5f873b"/></g><g><path d="m33.8625 35.71696-.01121 3.95253-29.91755-17.2729.01121-3.95253z" fill="#6b993f"/></g><g><path d="m21.01862 28.29971-.01121 3.95253-5.31378-3.06791.01121-3.95253z" fill="#fecd82"/></g><g><path d="m20.30064 27.88519-.01121 3.95253-3.92492-2.26606.0112-3.95253z" fill="#bf9960"/></g><g><path d="m48.80423 27.03377-14.94173 8.68319-29.91755-17.2729 14.94174-8.68319z" fill="#5c843a"/></g></g></g><g><g><path d="m45.67205 26.4702c.50769.29312.51018.76507.00591 1.05812s-1.32506.29664-1.83275.00352-.51039-.77215-.00612-1.0652 1.32527-.28955 1.83296.00356z" fill="#97c269"/></g><g><path d="m26.24499 23.29957c.27943.29665.4227.529.43581.69354.00721.16074-.097.30741-.33062.44317-.2276.13227-.51105.18939-.85065.17155-.33957-.01782-.68553-.11086-1.03234-.27512z" fill="#7eb442"/></g><g><path d="m26.92981 21.0582c.22159-.12877.48658-.18958.80747-.1752.31471.01081.63608.0966.96398.25034l-1.71003.99376c-.25438-.28256-.38538-.50048-.38628-.65061-.00085-.15012.10325-.28951.32486-.41829z" fill="#7eb442"/></g><g enable-background="new"><g><path d="m18.87652 15.62456c1.25688.72566 1.26344 1.8982.01462 2.62394-1.24247.72205-3.26676.72208-4.52364-.00358-1.25069-.72208-1.26344-1.8982-.02096-2.62025 1.24881-.72574 3.27929-.7222 4.52998-.00011z" fill="#7eb442"/></g><g><path d="m8.85415 17.84816c.50771.29313.51039.77215.00612 1.0652-.5046.29324-1.32525.28957-1.83296-.00356-.50769-.29312-.51053-.76489-.00594-1.05813.50427-.29305 1.32509-.29663 1.83278-.00351z" fill="#97c269"/></g><g><path d="m16.87229 21.41578-.62741.36461-5.00896-2.89193.62741-.36461z" fill="#6b993f"/></g><g><path d="m28.43977 24.00381c.05774.38246-.2056.74348-.78395 1.07958-.572.33241-1.25606.4861-2.02746.46098-.76573-.02841-1.51354-.22508-2.21908-.59686l-.71351.41465-.63773-.36819.72586-.42183c-.81806-.57901-1.27856-1.25818-1.36904-2.03766l1.57941-.07864c.07734.60061.37012 1.09751.86625 1.49064l1.91293-1.11167c-.57096-.5361-.88808-.99021-.94581-1.35836-.05135-.3718.19978-.7186.77179-1.05101.57201-.33242 1.23137-.48604 1.99689-.46471.76523.02155 1.4822.20739 2.16319.55764l.49192-.28587.63773.3682-.50426.29304c.66898.45042 1.11648.99372 1.32975 1.62295l-1.56054.15372c-.12571-.42904-.41188-.81503-.84582-1.15101l-1.85754 1.07948.02478.01431c.58917.54699.90646 1.00815.96424 1.39062zm-2.94024.60402c.33961.01784.62305-.03928.85065-.17155.23362-.13576.33783-.28243.33062-.44317-.01311-.16455-.15638-.39689-.43581-.69354l-1.77779 1.03314c.3468.16427.69276.25731 1.03233.27512m1.49169-2.48073 1.71003-.99376c-.32789-.15374-.64927-.23953-.96398-.25034-.32089-.01438-.58588.04643-.80747.1752-.22161.12878-.32571.26817-.32486.41829.0009.15013.1319.36805.38628.65061" fill="#97c269"/></g><g><path d="m32.20287 19.34948c3.24437 1.87314 3.25547 4.90795.0383 6.77756-3.21715 1.8696-8.45045 1.8696-11.69481-.00354-3.2382-1.86957-3.25531-4.90089-.03816-6.77049 3.21717-1.86961 8.45648-1.8731 11.69467-.00353zm-6.57451 6.19489c.7714.02512 1.45546-.12857 2.02746-.46098.57835-.3361.84169-.69712.78395-1.07958-.05777-.38247-.37507-.84363-.96424-1.39064l-.02478-.01431 1.85754-1.07948c.43394.33598.72011.72197.84582 1.15101l1.56054-.15372c-.21327-.62923-.66077-1.17252-1.32975-1.62295l.50426-.29304-.63773-.3682-.49192.28587c-.68098-.35025-1.39796-.53609-2.16319-.55764-.76552-.02132-1.42488.13229-1.99689.46471-.57202.33242-.82314.67921-.77179 1.05101.05773.36816.37485.82227.94581 1.35836l-1.91293 1.11167c-.49612-.39314-.7889-.89004-.86625-1.49064l-1.57941.07864c.09048.77948.55099 1.45865 1.36904 2.03766l-.72586.42183.63773.36819.71351-.41465c.70554.3718 1.45335.56847 2.21908.59688" fill="#7eb442"/></g><g><path d="m38.67709 27.05642c1.25686.72565 1.26342 1.89819.0146 2.62392-1.24247.72205-3.26676.72208-4.52362-.00357-1.2569-.72567-1.26346-1.89821-.02098-2.62026 1.24881-.72573 3.27309-.72576 4.53-.00009z" fill="#7eb442"/></g><g><path d="m33.70089 31.13177-.62741.36461-5.00896-2.89192.62741-.36461z" fill="#6b993f"/></g><g><path d="m43.60592 25.6195c-1.34092.77925-1.32745 2.04819.02229 2.82746l-7.33871 4.2648c-1.34974-.77927-3.54681-.77923-4.88773.00002l-22.26481-12.8546c1.34092-.77925 1.33998-2.04832-.01595-2.83116l7.33871-4.26479c1.35593.78285 3.54047.78294 4.88139.00368zm-23.05956.504c3.24437 1.87314 8.47766 1.87314 11.69481.00354 3.21716-1.86961 3.20606-4.90443-.0383-6.77756-3.2382-1.86957-8.47751-1.86608-11.69467.00353-3.21715 1.8696-3.20003 4.90092.03816 6.77049m-6.19985-10.49884c-1.24247.72205-1.22972 1.89816.02097 2.62024 1.2569.72567 3.28117.72564 4.52364.00359 1.24883-.72574 1.24226-1.89828-.01463-2.62395-1.25069-.72207-3.28115-.72562-4.52998.00012m19.82154 14.05211c1.25686.72565 3.28114.72562 4.52361.00357 1.24883-.72574 1.24226-1.89828-.0146-2.62393-1.2569-.72567-3.28117-.72564-4.53.0001-1.24247.72206-1.2359 1.8946.02099 2.62026m-1.09459 1.81962.62742-.36462-5.00895-2.89192-.62742.36462zm-16.8286-9.716.62742-.36462-5.00896-2.89192-.62742.36462zm13.35072 9.11186.62742-.36462-2.74285-1.58358-.62742.36462zm-14.56249-8.40766.62742-.36462-2.74285-1.58358-.62742.36462z" fill="#97c269"/></g><g><path d="m15.66052 22.11998-.62741.36461-2.74286-1.58359.62741-.36461z" fill="#6b993f"/></g><g><path d="m30.22301 30.52764-.62741.36461-2.74285-1.58359.62741-.36461z" fill="#6b993f"/></g><g><path d="m34.76577 32.80824c.50769.29312.50417.76856-.00009 1.06161-.5046.29324-1.31905.29315-1.82674.00003-.50769-.29311-.51673-.76846-.01213-1.0617.50426-.29305 1.33127-.29305 1.83896.00006z" fill="#97c269"/></g><g><path d="m18.8867 9.75844 29.91752 17.27289-14.94174 8.68319-29.91752-17.27289zm12.51507 22.95333c1.34092-.77926 3.53799-.7793 4.88773-.00002l7.33871-4.2648c-1.34974-.77927-1.3632-2.0482-.02229-2.82746l-22.26481-12.85459c-1.34092.77925-3.52546.77917-4.88139-.00368l-7.33871 4.26479c1.35593.78285 1.35687 2.05191.01595 2.83116zm-24.37448-13.80197c.50771.29313 1.32836.2968 1.83296.00356.50427-.29305.50159-.77207-.00612-1.0652-.50769-.29312-1.32851-.28954-1.83278.00351-.5046.29324-.50175.76502.00594 1.05813m12.73313-7.39968c-.50769-.29312-1.32251-.29302-1.82677.00002-.50427.29305-.50777.76851-.00007 1.06162.50771.29313 1.3347.29311 1.83897.00006.50425-.29304.49558-.76858-.01213-1.0617m24.08478 16.02172c.50769.29312 1.32849.28953 1.83276-.00352.50426-.29304.50177-.765-.00592-1.05812s-1.3287-.2966-1.83296-.00356c-.50427.29306-.50157.77209.00612 1.0652m-10.90629 6.33804c.50769.29312 1.32215.29321 1.82675-.00003.50428-.29305.50779-.7685.00009-1.06161-.50769-.29312-1.33469-.29311-1.83897-.00006-.5046.29324-.49556.76859.01213 1.0617" fill="#7eb442"/></g></g><g><path d="m19.76043 11.51012c.50771.29313.51639.76866.01213 1.0617s-1.33125.29306-1.83896-.00006c-.50769-.29311-.50419-.76857.00007-1.06162s1.31907-.29313 1.82676-.00002z" fill="#97c269"/></g></g></g><g><path d="m35.96088 19.61622-14.94226 8.68349-5.31378-3.06791 14.94226-8.68349z" fill="#ffd69a"/></g><g><path d="m35.2429 19.20169-14.94226 8.6835-3.92493-2.26606 14.94227-8.6835z" fill="#d9ae6d"/></g></g><g><g><g><g enable-background="new"><g><path d="m49 21.45128-.0112 3.95253-14.94175 8.6832.01121-3.95254z" fill="#5f873b"/></g><g><path d="m34.05826 30.13447-.01121 3.95254-29.91754-17.27291.0112-3.95253z" fill="#6b993f"/></g><g><path d="m21.21438 22.71722-.0112 3.95254-5.31378-3.06792.0112-3.95253z" fill="#fecd82"/></g><g><path d="m20.4964 22.3027-.0112 3.95253-3.92493-2.26606.01121-3.95253z" fill="#bf9960"/></g><g><path d="m49 21.45128-14.94174 8.68319-29.91755-17.2729 14.94174-8.68319z" fill="#5c843a"/></g></g></g><g><g><path d="m45.86782 20.88771c.50769.29312.51018.76507.00591 1.05812s-1.32506.29664-1.83275.00352-.51039-.77215-.00612-1.0652c.50426-.29304 1.32527-.28955 1.83296.00356z" fill="#97c269"/></g><g><path d="m26.44075 17.71708c.27943.29665.4227.529.43581.69354.00721.16074-.097.30741-.33062.44317-.5346.31067-1.31512.1654-1.88299-.10357z" fill="#7eb442"/></g><g><path d="m27.12557 15.47571c.51804-.30105 1.22046-.1832 1.77145.07514l-1.71003.99376c-.41334-.45914-.57823-.76856-.06142-1.0689z" fill="#7eb442"/></g><g enable-background="new"><g><path d="m19.07228 10.04207c1.25688.72566 1.26344 1.8982.01462 2.62393-1.24248.72205-3.26676.72208-4.52364-.00358-1.25069-.72208-1.26344-1.8982-.02096-2.62025 1.24881-.72573 3.27929-.72219 4.52998-.0001z" fill="#7eb442"/></g><g><path d="m9.04991 12.26567c.50771.29313.51039.77215.00612 1.0652-.5046.29324-1.32525.28957-1.83296-.00356-.50769-.29311-.51053-.76489-.00593-1.05813.50427-.29304 1.32508-.29662 1.83277-.00351z" fill="#97c269"/></g><g><path d="m17.06806 15.83329-.62741.36461-5.00897-2.89193.62741-.36461z" fill="#6b993f"/></g><g><path d="m28.63553 18.42132c.05774.38246-.2056.74348-.78395 1.07958-1.24911.7259-2.96476.53954-4.24654-.13588l-.71351.41465-.63773-.36819.72586-.42183c-.81806-.57901-1.27856-1.25818-1.36904-2.03766l1.57941-.07864c.07734.60061.37012 1.09751.86625 1.49064l1.91293-1.11167c-1.34203-1.2601-1.12801-1.85498-.17402-2.40938 1.22806-.71367 2.90049-.55492 4.16008.09293l.49192-.28587.63773.3682-.50426.29304c.66898.45042 1.11648.99372 1.32975 1.62295l-1.56054.15372c-.12571-.42904-.41188-.81503-.84582-1.15101l-1.85754 1.07948.02478.01431c.58917.547.90647 1.00816.96424 1.39063zm-2.94023.60403c.33961.01784.62305-.03928.85065-.17155.23362-.13576.33783-.28243.33062-.44317-.01311-.16455-.15638-.39689-.43581-.69354l-1.77779 1.03314c.3468.16426.69276.2573 1.03233.27512m1.49169-2.48074 1.71003-.99376c-.54948-.25764-1.25258-.37667-1.77145-.07514-.51907.30165-.35029.61158.06142 1.0689" fill="#97c269"/></g><g><path d="m32.39864 13.76699c3.24437 1.87314 3.25547 4.90795.0383 6.77757-3.21715 1.8696-8.45045 1.86959-11.69481-.00354-3.23819-1.86957-3.25531-4.90089-.03816-6.77049 3.21716-1.86962 8.45647-1.87311 11.69467-.00354zm-6.57452 6.19489c.7714.02512 1.45546-.12857 2.02746-.46098.57835-.3361.84169-.69712.78395-1.07958-.05778-.38247-.37507-.84363-.96424-1.39064l-.02478-.01431 1.85754-1.07948c.43394.33598.72012.72197.84582 1.15101l1.56054-.15372c-.21327-.62923-.66077-1.17252-1.32975-1.62295l.50426-.29304-.63773-.3682-.49192.28587c-1.25884-.64747-2.93149-.80691-4.16008-.09293-.95381.55429-1.16821 1.1491.17402 2.40938l-1.91293 1.11167c-.49612-.39314-.7889-.89004-.86625-1.49064l-1.57941.07864c.09048.77948.55099 1.45865 1.36904 2.03766l-.72586.42183.63773.36819.71351-.41465c.70555.37179 1.45335.56846 2.21908.59687" fill="#7eb442"/></g><g><path d="m38.87285 21.47393c1.25686.72565 1.26342 1.89819.0146 2.62392-1.24247.72205-3.26676.72208-4.52362-.00357-1.2569-.72567-1.26346-1.89821-.02098-2.62026 1.24881-.72573 3.2731-.72576 4.53-.00009z" fill="#7eb442"/></g><g><path d="m33.89666 25.54928-.62741.36461-5.00897-2.89192.62741-.36461z" fill="#6b993f"/></g><g><path d="m43.80168 20.03701c-1.34091.77925-1.32745 2.04819.02229 2.82746l-7.33871 4.26479c-1.34974-.77927-3.54681-.77923-4.88773.00002l-22.2648-12.85459c1.34092-.77925 1.33998-2.04832-.01595-2.83116l7.33871-4.26479c1.35593.78285 3.54047.78294 4.88139.00368zm-23.05955.504c3.24437 1.87314 8.47767 1.87314 11.69481.00354 3.21717-1.86961 3.20607-4.90443-.0383-6.77757-3.2382-1.86957-8.47751-1.86608-11.69467.00353-3.21715 1.86961-3.20004 4.90093.03816 6.7705m-6.19986-10.49883c-1.24247.72205-1.22972 1.89816.02097 2.62024 1.2569.72567 3.28117.72564 4.52364.00359 1.24883-.72574 1.24226-1.89828-.01463-2.62395-1.25068-.72208-3.28115-.72562-4.52998.00012m19.82155 14.0521c1.25686.72565 3.28114.72562 4.52361.00357 1.24883-.72574 1.24226-1.89828-.0146-2.62393-1.25689-.72567-3.28117-.72564-4.53.0001-1.24247.72206-1.23591 1.8946.02099 2.62026m-1.09459 1.81962.62742-.36462-5.00896-2.89192-.62742.36462zm-16.82861-9.716.62742-.36462-5.00896-2.89192-.62742.36462zm13.35073 9.11186.62742-.36462-2.74285-1.58358-.62742.36462zm-14.5625-8.40766.62742-.36462-2.74285-1.58358-.62742.36462z" fill="#97c269"/></g><g><path d="m15.85628 16.53749-.62741.36461-2.74285-1.58359.62741-.36461z" fill="#6b993f"/></g><g><path d="m30.41878 24.94515-.62742.36461-2.74285-1.58359.62741-.36461z" fill="#6b993f"/></g><g><path d="m34.96153 27.22575c.50769.29312.50417.76856-.00009 1.06161-.5046.29324-1.31905.29315-1.82674.00003s-.51673-.76847-.01213-1.06171c.50426-.29304 1.33127-.29304 1.83896.00007z" fill="#97c269"/></g><g><path d="m19.08247 4.17595 29.91752 17.27289-14.94174 8.68319-29.91753-17.27289zm12.51506 22.95333c1.34091-.77925 3.53799-.77929 4.88773-.00002l7.33871-4.26479c-1.34974-.77927-1.3632-2.0482-.02229-2.82746l-22.2648-12.85459c-1.34092.77925-3.52546.77917-4.88139-.00368l-7.33871 4.26479c1.35593.78285 1.35687 2.05191.01595 2.83116zm-24.37447-13.80197c.50771.29313 1.32836.2968 1.83296.00356.50427-.29305.5016-.77207-.00611-1.0652-.50769-.29312-1.32851-.28954-1.83278.00351-.50461.29324-.50177.76502.00593 1.05813m12.73312-7.39968c-.50769-.29312-1.32251-.29302-1.82677.00002-.50427.29305-.50777.76851-.00007 1.06163.50771.29313 1.3347.29311 1.83897.00006.50426-.29305.49558-.76858-.01213-1.06171m24.08478 16.02172c.50769.29312 1.32849.28953 1.83276-.00352.50425-.29304.50177-.765-.00592-1.05812s-1.3287-.2966-1.83295-.00356c-.50428.29306-.50158.77209.00611 1.0652m-10.90628 6.33805c.50769.29312 1.32215.29321 1.82675-.00003.50427-.29305.50779-.7685.00009-1.06161s-1.33469-.29311-1.83897-.00006c-.5046.29323-.49557.76858.01213 1.0617" fill="#7eb442"/></g></g><g><path d="m19.9562 5.92763c.50771.29313.51639.76866.01213 1.06171-.50427.29305-1.33125.29306-1.83896-.00006-.50769-.29311-.50419-.76857.00007-1.06162s1.31907-.29314 1.82676-.00003z" fill="#97c269"/></g></g></g><g><path d="m36.15665 14.03373-14.94227 8.68349-5.31378-3.06791 14.94226-8.68349z" fill="#ffd69a"/></g><g><path d="m35.43866 13.6192-14.94226 8.6835-3.92492-2.26606 14.94226-8.68349z" fill="#d9ae6d"/></g></g></g></svg>