<svg id="Layer_1" enable-background="new 0 0 52 52" height="512" viewBox="0 0 52 52" width="512" xmlns="http://www.w3.org/2000/svg"><g><g><g><path d="m39.24658 23.73433-.05447 17.21024-15.58227 9.05543.05447-17.21025z" fill="#a87648"/></g><g><path d="m37.43673 27.02168v2.72071l-.01547.27824v2.65891l-12.01129 6.98718v-1.00474l.01548-.71113v-2.28783l.01547-.7266v-.92747z" fill="#ecf0f1"/></g><g><path d="m23.66431 32.78975-.05447 17.21025-15.6842-9.05528.05447-17.21025z" fill="#b27e4b"/></g><g><path d="m39.25028 23.74511-15.58602 9.05519-6.85143-3.96672-1.98342-1.12187-.03998-.01993-6.81145-3.94667 15.58614-9.05519 6.85143 3.94667.02005.02005 1.96325 1.12187z" fill="#bc874d"/></g><g><path d="m28.66489 22.06188-11.85206 6.7717-1.98342-1.12187-.03998-.01993 11.89216-6.77183.02005.02005z" fill="#f1c40f"/></g><g><path d="m16.81283 28.83358-.01846 2.68301-2.00494-1.14499.01846-2.68301z" fill="#d6b218"/></g><g><g><g><path d="m27.13417 42.4098.53983 1.02718-.33433.19302-.73775.42277z" fill="#3f434f"/></g></g><g><g><path d="m27.33967 43.63.00576 2.03199-.40341.23291-.00576-2.03199z" fill="#3f434f"/></g></g><g><g><path d="m29.34364 44.68959.00123.43498-2.78517 1.60802-.00123-.43497z" fill="#3f434f"/></g></g><g><g><path d="m32.30387 39.42507.0041 1.44778c.0013.4572-.26289.98817-.61361 1.25744l.0037 1.30492c.24599-.11341.43146-.10282.43185.03371l-1.08589.62694c-.00039-.13652.1844-.36088.43023-.53143l-.0037-1.30492c-.16033.06395-.29876.04846-.40689-.0195-.12758-.09489-.21111-.27246-.21183-.52645l-.0041-1.44778z" fill="#3f434f"/></g></g><g><g><path d="m28.9533 42.69837.00577 2.03199-.40342.23291-.00576-2.03199z" fill="#3f434f"/></g></g><g><g><path d="m28.75057 41.47657.53706 1.02878-.33433.19302-.73498.42117z" fill="#3f434f"/></g></g></g><g><g><g><path d="m37.43673 29.74239-.01547.27824-11.99581 6.92538v-.26277z" fill="#a4a9b3"/></g></g><g><g><path d="m37.42126 30.73175v.29372l-11.99581 6.92538v-.27824z" fill="#a4a9b3"/></g></g><g><g><path d="m37.42126 31.7365v.29372l-12.01129 6.92547v-.29371z" fill="#a4a9b3"/></g></g><g><g><path d="m37.43673 28.73755v.27833l-12.01128 6.94086v-.29372z" fill="#a4a9b3"/></g></g><g><g><path d="m37.43673 27.7328v.27824l-11.99581 6.92538v-.27824z" fill="#a4a9b3"/></g></g></g></g><g><g><g enable-background="new"><g><path d="m32.68999 18.02741-4.54005-2.63838c-.17535-.09994-.2824-.31426-.28326-.6175l4.54004 2.63838c.00087.30325.10791.51757.28327.6175z" fill="#ecf0f1"/></g><path d="m40.73577 2.05118c-.138-.08017-.32928-.06854-.53779.05187-.01605.00927-.03217.01917-.04842.02968l-9.97868 7.23143 3.10902 1.8068 9.97874-7.23147c.01619-.01052.03231-.02041.04836-.02968.20851-.12041.39985-.13204.53785-.05183z" fill="#e0e2e2"/><g><path d="m34.33185 14.72451-4.54004-2.63838-.00842-2.96944 4.54004 2.63839z" fill="#e0e2e2"/></g><g><path d="m43.307 3.90983c.41075-.23717.75467-.05238.75602.42521l.01134 4.00126c.00135.47755-.34039 1.05822-.75114 1.29537-.01604.00926-.03217.018-.0484.02618l-9.98647 4.48255-.00842-2.96944 9.97868-7.23144c.01622-.01054.03235-.02043.04839-.02969z" fill="#c4c6c6"/><path d="m33.91459 11.31509 8.9042-6.45279c.33604-.24352.80662-.00426.80784.41074l.00862 2.93551c.00052.28229-.2338.68516-.48281.8288l-9.23208 4.14529z" fill="#e0e2e2"/></g><g><path d="m32.40673 17.40992-4.54005-2.63839-.00844-2.97731 4.54004 2.63838z" fill="#ecf0f1"/></g><g><path d="m33.3532 9.79066c.26734-.15435.5076-.17078.68296-.06691.17536.09994.28241.31427.28326.61751l.00401 1.41382.00842 2.96944.00446 1.57136c.00172.60648-.42872 1.35597-.95996 1.66268-.2673.15432-.51102.16486-.68636.06886-.17536-.09993-.28241-.31426-.28326-.6175l-.00844-2.97731-.00844-2.9773c-.00174-.61043.42871-1.35598.96335-1.66465z" fill="#d4d6d6"/><path d="m32.94325 17.82096c-.04771 0-.08964-.0097-.12424-.02883-.08964-.05111-.14311-.19134-.14364-.38268l-.0173-5.9549c-.00157-.51557.37849-1.17111.82932-1.43139.10957-.06343.21231-.09698.29671-.09698.04508 0 .08283.00944.11533.02857.0975.05557.15097.1958.1515.38714l.01677 5.9549c.00158.51557-.37639 1.17006-.82565 1.42929-.10746.06211-.21073.09488-.2988.09488z" fill="#3498db"/></g><g><path d="m34.03704 9.72467c-.17712-.10734-.41872-.08587-.68175.06441-.5368.31135-.96621 1.05752-.96621 1.66411l.01075 2.97925-4.5414-2.63569-.01075-2.97929c0-.61193.42947-1.3581.96627-1.66408.2684-.15566.50463-.17178.68175-.06979z" fill="#ecf0f1"/></g></g><g enable-background="new"><path d="m26.98881 16.47384c-.08499-.04938-.20058-.04636-.32902.02012l-4.79231 2.47095c-.00826.00432-.01651.00888-.02477.01366-.27666.15976-.50227.5448-.50135.86605l.00793 2.7922c.00039.15818.0557.26847.14469.3202l4.54003 2.63838c-.08899-.05173-.14429-.16202-.14469-.3202l-.00793-2.7922c-.00092-.32125.2247-.70629.50135-.86605.00826-.00478.01651-.0093.02484-.01366l4.79224-2.47092c.12843-.06651.24402-.06952.32908-.02015z" fill="#e0e2e2"/><g><path d="m26.38274 21.61696c.00827-.00478.0165-.00931.02482-.01365l4.79223-2.47095c.26394-.1366.47375-.00528.47461.29796l.00625 2.20542c.00087.30718-.20751.67994-.47136.84806l-4.79056 3.05774c-.01023.0066-.02045.01285-.03058.0187-.27413.15827-.49793.03399-.49883-.28503l-.00792-2.7922c-.00092-.32124.22465-.70628.50134-.86605z" fill="#fff"/><path d="m26.16663 25.36032c.00157-.00603-.00891-.0325-.00891-.08597l-.00786-2.79201c-.00052-.22384.1709-.51977.36696-.633l4.80607-2.47852c.03879-.02018.06291-.02359.07182-.02385.00052.0055.01153.03093.01153.0844l.00577 2.20514c.00052.21257-.16146.50273-.34704.62094l-4.79034 3.05779c-.05925.03512-.09123.0443-.108.04508z" fill="#3498db"/></g><path d="m27.86668 10.22953c-.60561-.35192-1.44371-.30369-2.36909.23053-1.83701 1.0606-3.32639 3.64433-3.32042 5.75131.00301 1.05012.37416 1.78848.97197 2.13594l3.55849 2.06793c-.59788-.34743-.96902-1.08583-.97204-2.13594-.00596-2.10695 1.48342-4.69067 3.32049-5.75131.92532-.53422 1.76348-.58241 2.36903-.23053z" fill="#f1c40f"/><g><path d="m29.05607 12.528c1.84047-1.06259 3.33624-.20236 3.34221 1.9046.006 2.11484-1.48004 4.68874-3.32051 5.75134-1.83703 1.06061-3.33617.2102-3.34217-1.90464-.00596-2.10696 1.48344-4.69069 3.32047-5.7513z" fill="#e5bd13"/></g><g><path d="m31.68053 14.85117c.00537 1.65871-1.15951 3.67172-2.60355 4.50376-1.03599.60122-1.93779.4241-2.36188-.34353-.16644-.29527-.25765-.68175-.25765-1.14877 0-.56364.1342-1.17023.37574-1.76073.23616-.61196.59584-1.20781 1.01987-1.70703.35975-.42944.77303-.78909 1.20781-1.0414.4832-.27915.93403-.38648 1.32058-.35428.77302.08051 1.29371.74614 1.29908 1.85198z" fill="#d4d6d6"/></g><g><path d="m30.64447 14.1533c.00537 1.65874-1.15952 3.67175-2.60349 4.50379-.48314.27915-.93941.39186-1.32589.35431-.16644-.29527-.25765-.68175-.25765-1.14877 0-.56364.1342-1.17023.37574-1.76073.23616-.61196.59584-1.20781 1.01987-1.70703.35975-.42944.77303-.78909 1.20781-1.0414.4832-.27915.93403-.38648 1.32058-.35428.16638.30061.26303.6871.26303 1.15411z" fill="#e0e2e2"/></g></g></g><g><g enable-background="new"><g><path d="m22.29933 25.85136-3.48061-2.02271 3.25167-1.37231 3.48062 2.02271z" fill="#ecf0f1"/></g><g><path d="m22.28391 25.98729-3.48062-2.02271.01543-.13593 3.48061 2.02271z" fill="#e0e2e2"/></g><g><path d="m22.29933 25.85136 3.25168-1.37231-.0154.13288-3.2517 1.37536z" fill="#d4d6d6"/></g></g></g><g><g enable-background="new"><g><path d="m29.23805 15.20008c-.02687-.01609-.05904-.02683-.08584-.03221-.07523-.02146-.16107-.01609-.25235.01075-.04829.01609-.1074.03758-.161.07516-.09665.05904-.19331.1342-.27378.22007-.25765.2684-.42947.65488-.42947.98773 0 .04292.00537.0805.01075.11808 0 .03221.00537.06441.02149.09125.00537.03221.01605.05907.03217.08591.02143.05367.05904.10199.10203.12883.01075.01609.02143.02146.03755.03221l-1.40642-.81595c.23616-.61196.59584-1.20781 1.01987-1.70703l1.35275.78374c.01075.00537.0215.01071.03225.02146z" fill="#3498db"/></g><g><path d="m28.73793 15.25035c.39071-.22558.70705-.04531.70832.39971.00127.44896-.31302.98939-.70374 1.21496-.39071.22558-.7036.04726-.70488-.4017-.00126-.44501.30958-.98739.7003-1.21297z" fill="#328eb7"/></g><g><path d="m28.74062 15.79271c.12829-.07407.23215-.01488.23257.13124.00042.14741-.10278.32486-.23107.39892-.12829.07407-.23102.01552-.23144-.1319-.00041-.14611.10165-.32419.22994-.39826z" fill="#e5bd13"/></g></g></g></g></g></svg>