<svg id="Layer_1" enable-background="new 0 0 50 50" height="512" viewBox="0 0 50 50" width="512" xmlns="http://www.w3.org/2000/svg"><g><g><g enable-background="new"><g><path d="m47.65482 23.58557c-.26439-.15342-.6284-.13022-1.03072.10346-.80082.45969-1.44454 1.5785-1.44454 2.49825.00383.45595.16476.77774.42149.92723l-10.52941-6.11924c-.26055-.15323-.42147-.47129-.42147-.93097-.00384-.91956.63988-2.03463 1.4407-2.49825.40232-.22994.76633-.25295 1.03072-.09972z" fill="#364950"/></g><g><path d="m46.62238 23.68736c-.79996.46186-1.4437 1.57976-1.44109 2.49894s.65055 1.28842 1.45052.82656 1.44616-1.57827 1.44355-2.49745c-.00261-.91919-.65302-1.28991-1.45298-.82805z" fill="#364950"/></g></g></g><g><g enable-background="new"><g><path d="m43.87732 25.81656c-.26439-.15342-.6284-.13022-1.03072.10346-.80083.45969-1.44454 1.5785-1.44454 2.49825.00383.45594.16476.77774.42149.92723l-10.52941-6.11924c-.26055-.15323-.42147-.47128-.42147-.93097-.00384-.91956.63988-2.03463 1.44071-2.49825.40232-.22994.76633-.25295 1.03072-.09972z" fill="#364950"/></g><g><path d="m42.84487 25.91835c-.79996.46186-1.4437 1.57975-1.44109 2.49894.00261.91918.65056 1.28842 1.45052.82656s1.44615-1.57827 1.44355-2.49745c-.00261-.91918-.65301-1.28991-1.45298-.82805z" fill="#364950"/></g></g></g><g><g enable-background="new"><g><path d="m40.09981 28.04756c-.26439-.15342-.6284-.13021-1.03072.10346-.80083.45969-1.44454 1.5785-1.44454 2.49825.00383.45595.16476.77774.4215.92723l-10.52941-6.11924c-.26055-.15323-.42147-.47129-.42147-.93097-.00384-.91956.63988-2.03463 1.44071-2.49825.40232-.22994.76633-.25295 1.03072-.09972z" fill="#364950"/></g><g><path d="m39.06737 28.14935c-.79996.46186-1.4437 1.57976-1.44109 2.49894s.65056 1.28842 1.45052.82656 1.44615-1.57827 1.44355-2.49745c-.00261-.91919-.65301-1.28991-1.45298-.82805z" fill="#364950"/></g></g></g><g><g><path d="m29.89392 35.19415-9.63219-5.59762.20179-.1165 9.63218 5.59761z" fill="#56707b"/><path d="m20.97772 27.5325 9.63218 5.59761c-.04257-.02474-.10172-.02088-.16644.01648l-9.63218-5.59761c.06471-.03736.12387-.04122.16644-.01648z" fill="#56707b"/><path d="m19.92515 28.29902 9.63218 5.59762c.33111.19242.53673.60094.53837 1.181l-9.63218-5.59761c-.00165-.58006-.20726-.98859-.53837-1.18101z" fill="#56707b"/><path d="m19.78251 28.54469 9.63218 5.59761c.29478.1713.47777.53513.47923 1.05184l-9.63218-5.59761c-.00147-.51671-.18446-.88054-.47923-1.05184z" fill="#485f69"/><g fill="#56707b"><path d="m19.782 28.5444.00047.00027 9.63218 5.59762-.00043-.00026c-3.21081-1.86588-6.42141-3.73172-9.63222-5.59763z"/><path d="m19.782 28.5444c3.2115 1.86472 6.42141 3.73174 9.63222 5.59764-.00139-.00081-.00279-.00162-.00419-.00242-3.2108-1.86588-6.42139-3.73172-9.63218-5.59761.00139.0008.00277.00159.00415.00239z"/><path d="m20.03057 29.76564c-.00113-.46756-.161-.79133-.41854-.94101l9.63218 5.59762c.25754.14968.41741.47345.41854.94101-2.88965-1.67929-6.74253-3.91833-9.63218-5.59762z"/><path d="m29.31279 33.79939-9.63219-5.59762 1.13068-.65279 9.63218 5.59761z"/><path d="m19.2742 28.43641c.18894-.01357.35951.02315.50365.1056 3.21079 1.86589 6.42139 3.73173 9.63218 5.59762-.14414-.08245-.3147-.11918-.50364-.1056-2.88966-1.67928-6.74254-3.91833-9.63219-5.59762z"/><path d="m27.58862 34.79484-9.63219-5.59761 1.31777-.76082 9.63218 5.59762z"/></g><path d="m19.61966 28.82454 9.63218 5.59761c-.25639-.149-.6116-.12777-1.00403.0988l-9.63218-5.59761c.39243-.22657.74763-.24781 1.00403-.0988z" fill="#485f69"/><path d="m26.4091 37.20611-9.63219-5.59762.20179-.1165 9.63218 5.59762z" fill="#56707b"/><path d="m19.92515 28.29902 9.63218 5.59761c-.07533-.04377-.15715-.07637-.24454-.09725-.30173-.072-.66988-.00452-1.06639.2244l-9.63218-5.59761c.39651-.22893.76466-.29641 1.06639-.2244.08739.02088.16921.05347.24454.09725z" fill="#485f69"/><path d="m27.25122 37.86171-9.63218-5.59761c-.24631-.14314-.40152-.44307-.4108-.86899-.00025-.01166-.00045-.02346-.00049-.03536-.00254-.89608.62802-1.98616 1.40787-2.43641l9.63218 5.59761c-.77986.45025-1.41041 1.54033-1.40787 2.43641.00003.0119.00023.0237.00049.03536.00927.42592.16449.72585.4108.86899z" fill="#364950"/><path d="m26.11279 37.37718-9.63218-5.59762.20178-.11649 9.63218 5.59761z" fill="#56707b"/><path d="m16.9787 31.49199c-.00071-.25147.04164-.51643.11906-.78103 3.21079 1.86589 6.42138 3.73173 9.63218 5.59762-.07742.2646-.11977.52955-.11906.78103-2.88966-1.67928-6.74253-3.91833-9.63218-5.59762z" fill="#56707b"/><path d="m17.10591 30.68352c3.21079 1.86589 6.42138 3.73173 9.63218 5.59762-.00276.00914-.00548.01829-.00815.02744-3.2108-1.86589-6.42139-3.73172-9.63219-5.59761.00269-.00916.0054-.0183.00816-.02745z" fill="#56707b"/><path d="m28.24781 34.52095c.77986-.45025 1.41271-.0896 1.41525.80648.00003.0119-.00011.0239-.0003.03582-.01391.88912-.63623 1.95537-1.40576 2.39966s-1.39763.09996-1.41658-.77018c-.00025-.01166-.00045-.02346-.00049-.03536-.00254-.89609.62802-1.98617 1.40788-2.43642z" fill="#40545d"/><path d="m17.10591 30.68352c.07919-.2624.19261-.52399.33247-.77128 3.21079 1.86589 6.42138 3.73172 9.63218 5.59761-.13985.24728-.25327.50888-.33246.77128-3.2108-1.86588-6.42139-3.73171-9.63219-5.59761z" fill="#56707b"/><path d="m17.45177 29.88876c3.21079 1.86589 6.42138 3.73173 9.63218 5.59762-.00449.00781-.00895.01564-.01338.02348-3.2108-1.86589-6.42139-3.73172-9.63219-5.59761.00444-.00785.0089-.01567.01339-.02349z" fill="#56707b"/><path d="m17.45177 29.88876c.14388-.25046.31483-.4857.50467-.69154l9.63218 5.59762c-.18983.20583-.36078.44107-.50467.69153-3.2108-1.86588-6.42139-3.73171-9.63218-5.59761z" fill="#56707b"/><path d="m16.14403 30.48206 9.63218 5.59761c.33111.19242.53672.60094.53836 1.18101l-9.63219-5.59761c-.00164-.58007-.20724-.98859-.53835-1.18101z" fill="#56707b"/><path d="m25.53166 35.98243-9.63218-5.59762 1.65053-.95294 9.63219 5.59761z" fill="#485f69"/><path d="m18.61421 28.42618c-.39651.22893-.76386.58609-1.0642 1.00569-.31873.44541-.56187.96125-.68456 1.46944l8.91075 5.17837c.30951.17987.50932.54862.53541 1.06977l.09748.05666c-.00202-.71204.30373-1.52071.7731-2.17662.30034-.41961.66768-.77677 1.0642-1.0057z" fill="#485f69"/><path d="m16.00138 30.72772 9.63218 5.59762c.29478.1713.47777.53513.47923 1.05183l-9.63219-5.59761c-.00145-.5167-.18445-.88054-.47922-1.05184z" fill="#485f69"/><path d="m16.24944 31.94868c-.00112-.46757-.161-.79133-.41854-.94102l9.63218 5.59762c.25754.14968.41741.47344.41854.94101-2.88965-1.67929-6.74252-3.91833-9.63218-5.59761z" fill="#56707b"/><path d="m23.80749 36.97787-9.63219-5.59761 1.31778-.76081 9.63218 5.59761z" fill="#56707b"/><path d="m15.83853 31.00757 9.63218 5.59762c-.2564-.14901-.6116-.12777-1.00403.0988l-9.63218-5.59761c.39243-.22658.74764-.24781 1.00403-.09881z" fill="#485f69"/><path d="m22.62798 39.38914-9.63219-5.59761.20178-.1165 9.63219 5.59761z" fill="#56707b"/><path d="m23.47009 40.04474-9.63218-5.59761c-.24631-.14314-.40152-.44308-.4108-.86899-.00025-.01166-.00045-.02346-.00049-.03536-.00254-.89608.62802-1.98616 1.40787-2.43641l9.63218 5.59761c-.77986.45025-1.41041 1.54033-1.40787 2.43641.00003.0119.00023.0237.00049.03536.00928.42592.16449.72585.4108.86899z" fill="#364950"/><path d="m13.32479 32.86656c3.2108 1.86589 6.42139 3.73172 9.63218 5.59761-.0826.2737-.12795.5483-.12721.80847l-9.63219-5.59761c-.00073-.26017.04462-.53477.12722-.80847z" fill="#56707b"/><path d="m13.32479 32.86656c.00237-.00784.00476-.01567.00718-.02351 3.2108 1.86589 6.42139 3.73173 9.63218 5.59762-.00243.00783-.00482.01566-.00718.0235-3.2108-1.86589-6.42139-3.73172-9.63218-5.59761z" fill="#56707b"/><path d="m13.67064 32.0718c3.2108 1.86589 6.42138 3.73172 9.63218 5.59761-.14179.24682-.25729.50842-.33866.77125-3.2108-1.86589-6.42139-3.73172-9.63218-5.59761.08137-.26283.19687-.52443.33866-.77125z" fill="#56707b"/><path d="m13.67064 32.0718c.0015-.00262.00301-.00524.00452-.00785 3.2108 1.86589 6.42138 3.73172 9.63218 5.59761-.00151.00262-.00302.00523-.00452.00785-3.2108-1.86589-6.42139-3.73172-9.63218-5.59761z" fill="#56707b"/><path d="m13.67516 32.06395c.14294-.24753.3123-.48.50014-.68368l9.63218 5.59762c-.18784.20368-.3572.43615-.50014.68368-3.2108-1.8659-6.42138-3.73173-9.63218-5.59762z" fill="#56707b"/><path d="m22.62798 39.38913-9.63219-5.59761c-.00202-.71204.30373-1.52071.7731-2.17662.30034-.41961.66769-.77677 1.0642-1.00569l9.63218 5.59761c-.39651.22892-.76386.58608-1.0642 1.00569-.46936.65591-.77511 1.46459-.77309 2.17662z" fill="#485f69"/><path d="m17.08172 42.59127-9.63219-5.59761.20178-.1165 9.63218 5.59762z" fill="#56707b"/><path d="m17.91848 40.37789-9.63218-5.59761 5.48258-3.16537 9.63219 5.59761z" fill="#56707b"/><g><g><g enable-background="new"><g><path d="m8.13603 20.75266.03384 11.93647 11.38661 6.61717-.03384-11.93647z" fill="#cfd8dd"/></g><g><path d="m19.52264 27.36983.03384 11.93647 29.44352-16.99922-.03384-11.93647z" fill="#b0b8bc"/></g><g><path d="m8.13603 20.75266 11.38661 6.61717 29.44352-16.99922-11.38661-6.61718z" fill="#dde4e7"/><g><path d="m9.21128 20.94451-.32723-.19023 28.6956-16.56783 10.63887 6.18315-.32732.18876-10.31155-5.99291z" fill="#9aa1a5"/><path d="m9.21128 20.94451 28.36837-16.37906 10.31155 5.99291-28.36901 16.37834z" fill="#cfd8dd"/></g></g></g></g><g><g><path d="m42.67082 14.75578-.03384 10.43805-.47421.27559.03384-10.43806z" fill="#9aa1a5"/></g><g><path d="m40.9307 15.76086-.03384 10.43806-.47422.27558.03384-10.43806z" fill="#9aa1a5"/></g><g><path d="m42.67082 14.75578-.03384 10.43805-.47421.27559.03384-10.43806z" fill="#9aa1a5"/></g><g><path d="m44.41095 13.75069-.03384 10.43806-.47422.27559.03384-10.43806z" fill="#9aa1a5"/></g><g><path d="m46.15107 12.74561-.03384 10.43806-.47421.27559.03384-10.43806z" fill="#9aa1a5"/></g><g><path d="m47.8912 11.74053-.03384 10.43806-.47422.27559.03384-10.43806z" fill="#9aa1a5"/></g><g><path d="m39.19057 16.76594-.03384 10.43806-.47422.27558.03384-10.43806z" fill="#9aa1a5"/></g><g><path d="m37.45045 17.77102-.03384 10.43806-.47422.27558.03384-10.43806z" fill="#9aa1a5"/></g><g><path d="m35.71032 18.7761-.03384 10.43806-.47422.27558.03384-10.43805z" fill="#9aa1a5"/></g><g><path d="m33.9702 19.78118-.03384 10.43806-.47422.27558.03384-10.43805z" fill="#9aa1a5"/></g><g><path d="m32.23007 20.78626-.03384 10.43806-.47422.27558.03384-10.43805z" fill="#9aa1a5"/></g><g><path d="m30.48994 21.79134-.03384 10.43806-.47421.27559.03384-10.43806z" fill="#9aa1a5"/></g><g><path d="m28.74982 22.79642-.03384 10.43806-.47422.27559.03384-10.43806z" fill="#9aa1a5"/></g><g><path d="m27.00969 23.80151-.03384 10.43805-.47421.27559.03384-10.43806z" fill="#9aa1a5"/></g><g><path d="m25.26957 24.80659-.03384 10.43805-.47422.27559.03384-10.43806z" fill="#9aa1a5"/></g><g><path d="m23.52944 25.81167-.03384 10.43806-.47421.27558.03384-10.43806z" fill="#9aa1a5"/></g><g><path d="m21.78932 26.81675-.03384 10.43806-.47422.27558.03384-10.43806z" fill="#9aa1a5"/></g></g><g><g><path d="m9.24191 22.15996.03384 10.43805.47422.27559-.03384-10.43806z" fill="#b0b8bc"/></g><g><path d="m10.98204 23.16504.03384 10.43806.47422.27558-.03384-10.43806z" fill="#b0b8bc"/></g><g><path d="m12.72217 24.17012.03384 10.43806.47421.27558-.03384-10.43806z" fill="#b0b8bc"/></g><g><path d="m14.46229 25.1752.03384 10.43806.47422.27558-.03384-10.43806z" fill="#b0b8bc"/></g><g><path d="m16.20242 26.18028.03384 10.43806.47421.27558-.03384-10.43805z" fill="#b0b8bc"/></g><g><path d="m17.94254 27.18536.03384 10.43806.47422.27559-.03384-10.43806z" fill="#b0b8bc"/></g></g></g><path d="m7.11293 35.69608 9.63218 5.59761c.33111.19242.53674.60103.53838 1.18108l-9.63219-5.59761c-.00163-.58005-.20725-.98866-.53837-1.18108z" fill="#56707b"/><path d="m6.97023 35.94163 9.63218 5.59761c.29482.17133.47785.53526.47931 1.05202l-9.63218-5.59761c-.00147-.51676-.18449-.88069-.47931-1.05202z" fill="#485f69"/><path d="m7.21838 37.16276c-.00113-.46756-.16101-.79132-.41855-.94101l9.63218 5.59761c.25754.14968.41742.47344.41855.94101-2.88965-1.67928-6.74252-3.91833-9.63218-5.59761z" fill="#56707b"/><path d="m6.80746 36.22166 9.63218 5.59761c-.2564-.149-.6116-.12777-1.00403.0988l-9.63218-5.59761c.39242-.22657.74763-.2478 1.00403-.0988z" fill="#485f69"/><path d="m13.5969 44.60323-9.63218-5.59761.20178-.1165 9.63219 5.59761z" fill="#56707b"/><path d="m13.39537 42.88057-9.63218-5.59762 1.09434-1.27623 9.63218 5.59762z" fill="#56707b"/><path d="m14.43903 45.25883-9.63219-5.59761c-.24631-.14314-.40152-.44308-.41079-.86899-.00025-.01166-.00046-.02346-.0005-.03536-.00254-.89608.62802-1.98616 1.40787-2.43641l9.63218 5.59761c-.77986.45025-1.41041 1.54033-1.40787 2.43641.00003.0119.00024.0237.0005.03535.00927.42593.16449.72587.4108.869z" fill="#364950"/><path d="m6.97022 35.94164c-.29863-.17355-.71199-.14948-1.16755.11353-.13316.07688-.26257.17006-.38651.27621l9.07355 5.27297-1.09434 1.27622-8.95309-5.20297c-.17511.40202-.27688.82287-.27578 1.21152l9.63218 5.59762c-.00295-1.04024.73088-2.31129 1.63617-2.83395.45556-.26302.86891-.28709 1.16755-.11354z" fill="#56707b"/><path d="m14.87298 41.2784-9.63218-5.59761 3.04125-1.75587 9.63219 5.59761z" fill="#56707b"/><path d="m7.11294 35.69608 9.63218 5.59761c-.3354-.19492-.79957-.16801-1.31092.12722l-9.63219-5.59761c.51136-.29523.97552-.32214 1.31093-.12722z" fill="#485f69"/><path d="m13.5969 44.60323-9.63219-5.59761c-.00331-1.16761.82112-2.59562 1.8373-3.18232l9.63218 5.59761c-1.01617.58669-1.8406 2.01471-1.83729 3.18232z" fill="#485f69"/><path d="m30.44346 33.14659c.12725-.07347.23302-.01739.23344.13096l.00349 1.23028c.00041.1463-.10468.32832-.23193.40179l-.78571.45363c-.00225-.9319-.63509-1.29255-1.41495-.8423s-1.41042 1.54033-1.40788 2.43641l-.95831.58892c-.00224-.9319-.63509-1.29255-1.41495-.8423s-1.41041 1.54033-1.40787 2.43641l-6.20824 3.61997c-.00225-.93189-.6351-1.29254-1.41496-.84229s-1.41041 1.54033-1.40787 2.43641l-3.16114 1.86073c-.12725.07347-.22939.01109-.22981-.13521l-.00349-1.23029c-.00042-.14835.10105-.32407.2283-.39754l.26904-.15533 1.88329-1.08732c.1327-.07661.26531-.18871.38144-.32897l1.09434-1.27623c.11796-.13928.24875-.24827.38328-.32594l3.04125-1.75587-.00082-.29035.00507 1.14571 5.48258-3.16537c-.46936.65591-.77511 1.46459-.77309 2.17662l.20178-.1165c-.00219-.77108.40048-1.6689.97773-2.29478.39208-.48825.82836-.75671 1.31777-.76074.5789-.04171.98535.38898.98754 1.16006l.20178-.1165c-.00202-.71203-.31136-1.16559-.78291-1.27826l1.65054-.95294c-.46937.65591-.77512 1.46459-.7731 2.17662l.20178-.1165c-.00219-.77108.40049-1.66882.97773-2.29471.42767-.45169.86446-.74739 1.31777-.76088.5789-.04157.98535.38905.98753 1.16012l.20178-.1165c-.00202-.71203-.31137-1.16558-.78291-1.27826zm-13.36174 9.44468.20178-.1165c-.00331-1.16761-.83312-1.64055-1.8493-1.05386-1.01617.58669-1.8406 2.0147-1.83729 3.18231l.20178-.1165c-.00295-1.04023.73088-2.31128 1.63617-2.83395.90528-.52265 1.64391-.10173 1.64686.9385" fill="#485f69"/><path d="m28.2464 34.02378c.39651-.22892.76466-.29641 1.06639-.2244.47155.11267.78089.56623.78291 1.27826l-.20178.1165c-.00219-.77108-.40863-1.20172-.98753-1.16012-.20206.0145-.42511.0864-.65933.22163s-.45696.3207-.65844.53918c-.57725.62591-.97992 1.52369-.97773 2.29477l-.20178.1165c-.00202-.71204.30373-1.52071.7731-2.17662.30033-.41961.66768-.77677 1.06419-1.0057z" fill="#364950"/><path d="m24.46668 36.70399c.77986-.45025 1.41271-.0896 1.41525.80648.00003.0119-.00011.0239-.0003.03581-.01391.88912-.63623 1.95537-1.40576 2.39966s-1.39763.09997-1.41658-.77018c-.00025-.01166-.00045-.02346-.00049-.03536-.00253-.89608.62802-1.98616 1.40788-2.43641z" fill="#40545d"/><path d="m17.91424 39.52253-9.63219-5.59761-.00082-.29035 9.63219 5.59761z" fill="#56707b"/><path d="m15.43561 41.91808c.77986-.45025 1.41271-.0896 1.41525.80648.00003.0119-.0001.0239-.00028.03581-.01391.88911-.63624 1.95538-1.40577 2.39967s-1.39762.09996-1.41657-.77019c-.00025-.01166-.00046-.02345-.0005-.03535-.00255-.89609.62801-1.98617 1.40787-2.43642z" fill="#40545d"/><path d="m14.48971 41.60434-9.63218-5.59761c.11796-.13927.24875-.24827.38327-.32594l9.63218 5.59761c-.13452.07766-.26531.18666-.38327.32594z" fill="#56707b"/><path d="m13.01393 43.20954-9.63218-5.59761c.1327-.07661.26531-.18871.38144-.32897l9.63218 5.59761c-.11613.14026-.24873.25235-.38144.32897z" fill="#56707b"/><path d="m11.13064 44.29686-9.63218-5.59762 1.88329-1.08732 9.63218 5.59762z" fill="#56707b"/><path d="m15.04254 37.50439-9.63218-5.59761c.39784-.32595.68028-.89278.67895-1.36071l9.63218 5.59761c.00133.46793-.28111 1.03476-.67895 1.36071z" fill="#dde4e7"/><path d="m11.13038 44.29803-.26764.15376c-.12813.0741-.23062.25052-.23062.39858l.0057 1.23008c0 .07396.02562.12526.06833.15084l-9.63213-5.59767c-.0427-.02558-.06833-.07674-.06833-.15084l-.00569-1.22993c0-.14806.1025-.32462.23062-.39872l.26764-.15376z" fill="#56707b"/><path d="m11.27854 40.59188-9.63218-5.59762 3.764-3.08749 9.63218 5.59762z" fill="#dde4e7"/><path d="m11.28279 36.95304-9.63218-5.59761 4.13197-2.38559 9.63219 5.59761z" fill="#4bb5e7"/><path d="m15.72149 36.14368-9.63218-5.59762-.00398-1.40367 9.63218 5.59762z" fill="#dde4e7"/><path d="m5.99751 28.94843 9.63218 5.59762c.0541.03144.08755.09847.08782.19396l-9.63218-5.59761c-.00027-.0955-.03372-.16253-.08782-.19397z" fill="#dde4e7"/><path d="m5.99751 28.94843 9.63218 5.59762c-.05479-.03185-.13077-.02718-.21492.0214l-9.63218-5.59761c.08414-.04859.16012-.05326.21492-.02141z" fill="#4bb5e7"/><path d="m11.24427 40.61946c-.07403.05978-.12245.16516-.12245.24774l.0057 2.28347.00285 1.14737-9.63212-5.59767-.00284-1.14737-.0057-2.28347c0-.08258.0484-.18796.12243-.24774l.03417-.02836 9.63213 5.59753z" fill="#ee5550"/><path d="m17.43411 30.2755c-.09966.04282-.19646.09398-.29327.14806-1.56597.90546-2.5084 3.18893-2.55964 3.30849l-9.63212-5.59767c.05125-.11956.99083-2.40303 2.55964-3.30836.0968-.05422.19361-.10538.29325-.1482z" fill="#f17572"/><path d="m11.26989 37.1629.00855 3.42806-9.63213-5.59753-.00853-3.42806c0-.0684.00285-.13958.01423-.21076l9.63211 5.59767c-.01138.07118-.01423.14236-.01423.21062z" fill="#485f69"/><path d="m11.13608 40.34335-4.06298-2.36327-3.84942-2.23509-.74882-.43556-.56091-.32462-.12528-.07396-.00853-3.31712 2.44575 1.42083.56091.3274.74882.43278 3.84942 2.23801 1.74819 1.01641c-.0057.04546-.0057.09106-.0057.13374z" fill="#4bb5e7"/><path d="m15.41477 34.56745c.16724-.09656.3022-.01965.30275.17256l.00398 1.40367c.00133.46793-.28112 1.03476-.67895 1.36071l-3.764 3.08749-.00972-3.42996c-.00019-.06675.00325-.13787.01397-.20887z" fill="#40545d"/><path d="m15.57773 36.14371c.00285.42708-.26194.95092-.62639 1.24982l-.89686.73738-.10535.0855-.13668.11108-.70325.57792-1.6884 1.38663-.00855-2.83011v-.30182c0-.03698 0-.07688.00285-.11956l.52673-.30474.16229-.09106.1196-.07118 3.2629-1.88197c.03417-.02002.05695-.0228.0655-.0228.02277 0 .02277.07118.02277.07118z" fill="#269dd6"/><g fill="#4bb5e7"><path d="m14.05447 38.13092-.10534.0855-1.84501-1.57166.1196-.07119z"/><path d="m13.81245 38.3275-.70325.57792-1.69695-1.44349v-.30182c0-.03698 0-.07688.00285-.11956l.52673-.30474z"/></g><path d="m14.5812 33.73206-2.53118 1.77103c-.23347.16502-.45555.41276-.62637.70041-.10536.18504-.18793.3787-.24202.56944-.02278.07966-.0057.13944.03701.16224l-9.63211-5.59767c-.04272-.02266-.0598-.08258-.03702-.16224.0541-.19074.13666-.3844.24201-.56944.17083-.2875.39292-.53524.62639-.70041l2.53118-1.77103z" fill="#ee5550"/><path d="m17.14171 30.42337c.09556-.05517.19318-.10472.29292-.14789.02734.07251.54672 1.45016.45902 1.98833l.01976 6.96838.00082.29034-3.04126 1.75587c-.13452.07766-.26531.18666-.38327.32594l-1.09434 1.27623c-.11614.14027-.24874.25235-.38144.32897l-1.88329 1.08732-.00325-1.14676-.00647-2.2831c-.00024-.08352.05045-.18816.12312-.2468l.03451-.02833 3.764-3.08749c.39784-.32595.68028-.89278.67895-1.36071l-.00398-1.40367c-.00055-.1922-.1355-.26912-.30275-.17256l-4.08471 2.35831c-.10544.06087-.18759-.0152-.14792-.15309.05227-.18921.13547-.38368.24238-.5689.17034-.28871.39178-.53586.6262-.70049l2.53139-1.77116c.04957-.12016.99138-2.40332 2.55961-3.30874z" fill="#cb4844"/><path d="m13.74467 35.65932.08555 2.70588.34508-.28306-.10808-2.60905z" fill="#40545d"/><g><path d="m15.4342 41.42091c1.01618-.58669 1.84599-.11375 1.8493 1.05386l-.20178.1165c-.00295-1.04023-.74158-1.46116-1.64686-.93849-.90529.52267-1.63912 1.79372-1.63617 2.83395l-.20178.1165c-.00332-1.16761.82111-2.59563 1.83729-3.18232z" fill="#364950"/></g><g><path d="m24.46527 36.20682c.39651-.22893.76466-.29641 1.06639-.22441.47155.11267.78089.56623.78291 1.27826l-.20178.1165c-.00219-.77108-.40863-1.20171-.98753-1.16012-.20206.0145-.42511.08641-.65933.22163-.23422.13523-.45696.3207-.65844.53918-.57725.62591-.97992 1.52369-.97773 2.29477l-.20178.1165c-.00202-.71203.30373-1.52071.7731-2.17662.30033-.41961.66768-.77676 1.06419-1.00569z" fill="#485f69"/></g><g><path d="m24.46527 36.20682c.39651-.22893.76466-.29641 1.06639-.22441.47155.11267.78089.56623.78291 1.27826l-.20178.1165c-.00219-.77108-.40863-1.20171-.98753-1.16012-.20206.0145-.42511.08641-.65933.22163-.23422.13523-.45696.3207-.65844.53918-.57725.62591-.97992 1.52369-.97773 2.29477l-.20178.1165c-.00202-.71203.30373-1.52071.7731-2.17662.30033-.41961.66768-.77676 1.06419-1.00569z" fill="#364950"/></g><g><g><path d="m7.42886 43.28266-.00117.41207-3.09837-1.78885.00117-.41206z" fill="#485f69"/></g><g><path d="m1.63962 39.90065c.15492.08944.28074.30737.28023.48532-.00051.18135-.12716.25352-.28207.16408-.15779-.0911-.28361-.30902-.28309-.49038.0005-.17795.12714-.25012.28493-.15902z" fill="#dde4e7"/></g><g><path d="m2.29945 40.2816c.15492.08944.28074.30737.28023.48532-.00051.18135-.12716.25352-.28207.16408-.15779-.0911-.28361-.30902-.28309-.49038.0005-.17795.12715-.25011.28493-.15902z" fill="#dde4e7"/></g><g><path d="m9.46299 44.41748c.15492.08944.28074.30737.28023.48532-.00051.18135-.12716.25352-.28207.16408-.15779-.0911-.2836-.30902-.28309-.49038.00051-.17795.12715-.25012.28493-.15902z" fill="#dde4e7"/></g><g><path d="m10.12283 44.79844c.15492.08944.28074.30737.28023.48532-.00051.18135-.12716.25352-.28207.16408-.15779-.0911-.28361-.30902-.28309-.49038.0005-.17796.12714-.25012.28493-.15902z" fill="#dde4e7"/></g></g><g><g><path d="m10.6658 42.81448c.07823.04517.14322.15776.14296.24766l-.00159.56039c-.00026.09283-.06566.12705-.1439.08188l-1.32737-.76635c-.07823-.04517-.14322-.15467-.14296-.2475l.00159-.56039c.00025-.0899.06566-.12721.1439-.08204z" fill="#fed44c"/></g><g><path d="m3.19187 38.4994c.07823.04517.14322.15776.14296.24766l-.00159.56039c-.00026.09283-.06566.12704-.1439.08187l-1.32737-.76635c-.07823-.04517-.14322-.15467-.14296-.24749l.00159-.56039c.00025-.0899.06566-.12721.1439-.08204z" fill="#fed44c"/></g></g><g><path d="m9.68643 42.39111c.15492.08944.28074.30737.28023.48532-.00051.18135-.12716.25352-.28207.16408-.15779-.0911-.28361-.30902-.28309-.49038.00051-.17796.12715-.25012.28493-.15902z" fill="#fff"/></g><g><path d="m10.34627 42.77206c.15492.08944.28074.30737.28023.48532-.00051.18135-.12716.25352-.28207.16408-.15779-.0911-.28361-.30902-.28309-.49038.0005-.17795.12714-.25011.28493-.15902z" fill="#fff"/></g><g><g><path d="m2.18241 38.09546c.15492.08944.28074.30737.28023.48532-.00051.18135-.12716.25352-.28207.16408-.15779-.0911-.28361-.30902-.28309-.49038.0005-.17796.12714-.25012.28493-.15902z" fill="#fff"/></g><g><path d="m2.84225 38.47641c.15492.08944.28074.30737.28023.48532-.00051.18135-.12716.25352-.28207.16408-.15779-.09109-.28361-.30902-.28309-.49038.0005-.17795.12714-.25012.28493-.15902z" fill="#fff"/></g></g><g><g><path d="m8.82653 40.64034c.09982.05763.18216.20017.18182.3169-.00033.11469-.0832.16195-.18302.10432l-4.77058-2.75429c-.09982-.05763-.18216-.20028-.18183-.31497.00033-.11673.08321-.16388.18302-.10625z" fill="#485f69"/></g><g><path d="m8.82239 42.10172c.09982.05763.18216.20028.18182.3169-.00033.11673-.08321.16388-.18302.10625l-4.77058-2.7543c-.09982-.05763-.18216-.20017-.18183-.3169.00033-.11662.08321-.16388.18303-.10625z" fill="#485f69"/></g><g><path d="m8.82446 41.37194c.09982.05763.18216.19835.18183.31497-.00033.11673-.08321.16388-.18302.10625l-4.77058-2.75429c-.09982-.05763-.18216-.20017-.18183-.3169.00033-.11662.0832-.16195.18302-.10432z" fill="#485f69"/></g></g></g><g fill="#61c4f0"><path d="m4.78679 33.34196-2.31193 1.96747-.56092-.32462 2.31194-1.97025z"/><path d="m9.38503 36.01275-2.31193 1.96733-3.84943-2.23509 2.31194-1.97025z"/></g></g><g><g><path d="m15.32113 43.74944c-.02883.01665-.05242.05662-.05232.09059.00009.03314.02383.04667.05266.03003.02883-.01665.05241-.0575.05232-.09064-.0001-.03397-.02383-.04663-.05266-.02998z" fill="#cfd8dd"/></g><g><path d="m16.33407 43.45989c-.14003-.02639-.56877-.02136-.56533-.11185-.03133-.07973.55073-.72783.58136-.76193.16549.38521-.00696.84935-.01603.87378zm-.23722-.09109c.004-.01095.0801-.21899.01731-.42524-.01137.01244-.22737.24871-.28776.36525.00152.00311.03053.06236.27045.05999" fill="#cfd8dd"/></g><g><path d="m15.63771 43.72242c.12339-.07124.56929.01967.59275.02446-.27312.56698-.63408.79073-.65308.80251.00833-.19796-.03241-.72158.03549-.80247.00484-.00977.01335-.01787.02484-.0245zm-.01252.44879c.0085-.00537.17001-.10753.31882-.37893-.01026-.00233-.20525-.04659-.29698-.01149-.00219.00485-.04414.097-.02184.39042" fill="#cfd8dd"/></g><g><g><path d="m15.58821 43.60389c-.02883.01665-.05242.05662-.05232.09059.00009.03314.02383.04667.05266.03003.02957-.01707.05315-.05792.05306-.09106-.0001-.03398-.02383-.04664-.0534-.02956z" fill="#cfd8dd"/></g><g><path d="m15.4602 43.37823c-.07393.04269-.13288.14564-.13264.22976s.05958.11878.13351.07609c.07319-.04226.13288-.14564.13264-.22975-.00024-.08412-.06032-.11836-.13351-.0761z" fill="#cfd8dd"/></g></g><g><path d="m15.44995 43.21896c-.02957.01707-.05315.05793-.05306.09189.00009.03314.02383.04667.0534.0296.02883-.01664.05241-.0575.05232-.09063-.00009-.03398-.02382-.04751-.05266-.03086z" fill="#cfd8dd"/></g><g><path d="m15.23974 43.51224c-.02957.01707-.05241.05745-.05232.09146.00009.03309.02309.04705.05266.02998.02883-.01665.05241-.0575.05232-.09059-.00009-.03401-.02383-.0475-.05266-.03085z" fill="#cfd8dd"/></g><g><path d="m15.6665 43.27274c-.02883.01664-.05241.0575-.05232.09146.00009.03314.02383.04667.05266.03003.02957-.01707.05315-.05793.05306-.09106-.00009-.03397-.02383-.04751-.0534-.03043z" fill="#cfd8dd"/></g><g><path d="m15.12624 43.70366c.03502.07594-.53784.74135-.56799.77637-.17951-.37115-.01692-.83606-.00836-.86052.14223.01999.57758-.00501.57635.08415zm-.33872.41341c.01118-.01275.22365-.25506.28182-.37202-.00164-.00301-.03275-.06022-.27634-.04722-.00378.01099-.07565.21979-.00548.41924" fill="#cfd8dd"/></g><g><path d="m15.29986 43.29883c-.00483.00999-.01357.01831-.02549.02519-.12441.07183-.5722-.01023-.59577-.01455.26941-.56909.62966-.79646.64862-.80843-.00611.19669.03979.71645-.02736.79779zm-.03416-.03304c.00217-.00487.04342-.0974.01741-.38869-.0085.0055-.17001.11006-.3166.38272.01034.00211.20673.04231.29919.00597" fill="#cfd8dd"/></g><g><path d="m15.28541 43.94876c.0895-.03551.04102.7297.03847.76997-.44526.18557-.63589-.05759-.64592-.07039.13923-.16103.48796-.63557.58891-.69386.00768-.00443.01393-.00642.01854-.00572zm-.01352.4545c.00111-.01493.02211-.29866-.00997-.38055 0 0-.00071.00032-.00221.00118-.01384.008-.09469.06228-.29379.33397.00458.00561.09141.11226.30597.0454" fill="#cfd8dd"/></g><g><path d="m16.21634 42.42166c-.13818.16223-.4862.64194-.58594.69953-.00734.00424-.01333.00622-.0178.00557-.09023.03765-.04808-.72554-.04586-.76571.44525-.19067.63939.04805.6496.06061zm-.58099.63154c.00003-.00001.00059-.00025.0018-.00095.0126-.00727.09292-.06071.2927-.33671-.00468-.00555-.09362-.11098-.30817-.04076-.00095.01484-.01914.29695.01367.37842" fill="#cfd8dd"/></g><g><path d="m16.85847 42.71806c.00254.89454-.6253 1.98199-1.4023 2.43059s-1.40968.08892-1.41222-.80563c-.00253-.89283.62604-1.98071 1.40305-2.42931s1.40894-.08849 1.41147.80435zm-1.40344 2.02874c.58405-.3372 1.0564-1.15446 1.05449-1.82727-.0019-.6711-.47734-.94204-1.06139-.60484s-1.0564 1.15535-1.05449 1.82645c.0019.67279.47734.94286 1.06139.60566" fill="#40545d"/></g></g><g><g><path d="m24.32624 38.53919c-.02883.01665-.05242.05663-.05232.09059.00009.03314.02383.04667.05266.03003.02883-.01665.05241-.0575.05232-.09064-.0001-.03396-.02383-.04662-.05266-.02998z" fill="#cfd8dd"/></g><g><path d="m25.33918 38.24965c-.14003-.02639-.56877-.02136-.56533-.11185-.03133-.07973.55073-.72782.58136-.76193.16549.3852-.00696.84935-.01603.87378zm-.23722-.0911c.004-.01095.0801-.21899.01731-.42524-.01137.01244-.22737.24872-.28776.36525.00152.00312.03053.06237.27045.05999" fill="#cfd8dd"/></g><g><path d="m24.64282 38.51217c.12339-.07124.56929.01967.59275.02446-.27312.56699-.63408.79073-.65308.80251.00833-.19796-.03241-.72158.03549-.80247.00484-.00976.01335-.01786.02484-.0245zm-.01252.44879c.0085-.00537.17001-.10753.31882-.37893-.01026-.00233-.20525-.04659-.29698-.01149-.0022.00485-.04414.09701-.02184.39042" fill="#cfd8dd"/></g><g><g><path d="m24.59332 38.39364c-.02883.01665-.05242.05662-.05232.09059.00009.03314.02383.04667.05266.03003.02957-.01707.05315-.05793.05306-.09106-.0001-.03397-.02383-.04664-.0534-.02956z" fill="#cfd8dd"/></g><g><path d="m24.46531 38.16798c-.07393.04268-.13288.14564-.13264.22975s.05958.11878.13351.0761c.07319-.04226.13288-.14564.13264-.22976s-.06032-.11835-.13351-.07609z" fill="#cfd8dd"/></g></g><g><path d="m24.45506 38.00871c-.02957.01707-.05315.05792-.05306.09189.00009.03314.02383.04667.0534.0296.02883-.01665.05241-.0575.05232-.09064-.00009-.03396-.02382-.04749-.05266-.03085z" fill="#cfd8dd"/></g><g><path d="m24.24485 38.30199c-.02957.01707-.05241.05745-.05232.09146.00009.03309.02309.04705.05266.02998.02883-.01665.05241-.0575.05232-.09059-.00009-.034-.02383-.04749-.05266-.03085z" fill="#cfd8dd"/></g><g><path d="m24.67161 38.06249c-.02883.01665-.05241.0575-.05232.09146.00009.03314.02383.04667.05266.03003.02957-.01707.05315-.05793.05306-.09106-.00009-.03397-.02383-.0475-.0534-.03043z" fill="#cfd8dd"/></g><g><path d="m24.13136 38.49341c.03502.07594-.53785.74135-.568.77637-.17951-.37116-.01692-.83606-.00836-.86052.14223.02.57758-.00501.57636.08415zm-.33873.41342c.01118-.01276.22365-.25506.28182-.37202-.00164-.00301-.03275-.06021-.27634-.04722-.00379.01098-.07565.21979-.00548.41924" fill="#cfd8dd"/></g><g><path d="m24.30497 38.08858c-.00483.00999-.01357.01831-.02549.0252-.12441.07183-.5722-.01023-.59577-.01455.26941-.56908.62966-.79646.64862-.80842-.00611.19668.03979.71644-.02736.79777zm-.03416-.03304c.00217-.00487.04342-.0974.01741-.38869-.0085.0055-.17001.11006-.31659.38272.01033.00212.20672.04232.29918.00597" fill="#cfd8dd"/></g><g><path d="m24.29052 38.73852c.0895-.03552.04102.7297.03847.76997-.44526.18556-.63589-.05759-.64593-.07039.13923-.16104.48796-.63557.58891-.69386.00769-.00444.01394-.00643.01855-.00572zm-.01352.4545c.00111-.01493.02211-.29866-.00997-.38055 0 0-.00071.00032-.00221.00119-.01384.00799-.09468.06228-.29379.33396.00458.0056.09141.11226.30597.0454" fill="#cfd8dd"/></g><g><path d="m25.22145 37.21141c-.13818.16223-.4862.64194-.58594.69953-.00734.00424-.01333.00622-.0178.00557-.09023.03765-.04808-.72554-.04586-.7657.44525-.19068.63939.04804.6496.0606zm-.58099.63154s.00058-.00025.0018-.00095c.0126-.00727.09292-.06071.2927-.33671-.00468-.00555-.09362-.11098-.30817-.04076-.00095.01485-.01914.29696.01367.37842" fill="#cfd8dd"/></g><g><path d="m25.86358 37.50781c.00254.89454-.6253 1.98199-1.4023 2.43059s-1.40968.08892-1.41222-.80563c-.00253-.89284.62604-1.98071 1.40305-2.42932.777-.4486 1.40894-.08848 1.41147.80436zm-1.40344 2.02874c.58405-.3372 1.0564-1.15447 1.05449-1.82728-.0019-.6711-.47734-.94204-1.06139-.60484s-1.0564 1.15535-1.05449 1.82645c.0019.67281.47734.94287 1.06139.60567" fill="#40545d"/></g></g><g><g><path d="m28.16213 36.34433c-.02883.01665-.05242.05662-.05232.09059.00009.03314.02383.04667.05266.03003.02883-.01665.05241-.0575.05232-.09064-.0001-.03397-.02383-.04663-.05266-.02998z" fill="#cfd8dd"/></g><g><path d="m29.17507 36.05478c-.14003-.02639-.56877-.02136-.56533-.11185-.03133-.07973.55073-.72783.58136-.76193.16549.38521-.00696.84935-.01603.87378zm-.23722-.0911c.004-.01095.0801-.21899.01731-.42524-.01137.01244-.22737.24871-.28776.36525.00151.00312.03053.06237.27045.05999" fill="#cfd8dd"/></g><g><path d="m28.47871 36.31731c.12339-.07124.56929.01967.59275.02446-.27312.56698-.63408.79073-.65308.80251.00833-.19796-.03241-.72158.03549-.80247.00484-.00977.01335-.01787.02484-.0245zm-.01252.44879c.0085-.00537.17001-.10753.31882-.37893-.01026-.00233-.20525-.04659-.29697-.01149-.00221.00484-.04415.097-.02185.39042" fill="#cfd8dd"/></g><g><g><path d="m28.4292 36.19877c-.02883.01665-.05242.05662-.05232.09059.00009.03314.02383.04667.05266.03003.02957-.01707.05315-.05792.05306-.09106-.00009-.03397-.02382-.04663-.0534-.02956z" fill="#cfd8dd"/></g><g><path d="m28.3012 35.97311c-.07393.04269-.13288.14564-.13264.22976s.05958.11878.13351.07609c.07319-.04226.13288-.14564.13264-.22975s-.06032-.11835-.13351-.0761z" fill="#cfd8dd"/></g></g><g><path d="m28.29095 35.81384c-.02957.01707-.05315.05793-.05306.09189.00009.03314.02383.04667.0534.0296.02883-.01664.05241-.0575.05232-.09063-.00009-.03397-.02382-.0475-.05266-.03086z" fill="#cfd8dd"/></g><g><path d="m28.08074 36.10713c-.02957.01707-.05241.05745-.05232.09146.00009.03309.02309.04705.05266.02998.02883-.01665.05241-.0575.05232-.09059-.0001-.03401-.02383-.0475-.05266-.03085z" fill="#cfd8dd"/></g><g><path d="m28.5075 35.86763c-.02883.01664-.05241.0575-.05232.09146.00009.03314.02383.04667.05266.03003.02957-.01707.05315-.05793.05306-.09106-.00009-.03397-.02383-.04751-.0534-.03043z" fill="#cfd8dd"/></g><g><path d="m27.96725 36.29855c.03502.07594-.53785.74135-.568.77637-.17952-.37115-.01692-.83606-.00836-.86052.14223.01999.57758-.00502.57636.08415zm-.33873.41341c.01118-.01275.22365-.25506.28182-.37202-.00164-.00301-.03275-.06022-.27634-.04722-.00379.01098-.07565.21979-.00548.41924" fill="#cfd8dd"/></g><g><path d="m28.14086 35.89372c-.00483.00999-.01357.01831-.02549.02519-.12441.07183-.5722-.01023-.59577-.01455.26941-.56908.62966-.79646.64862-.80843-.00611.19669.03979.71645-.02736.79779zm-.03416-.03305c.00217-.00487.04342-.0974.01741-.38869-.0085.0055-.17001.11006-.3166.38272.01034.00212.20673.04232.29919.00597" fill="#cfd8dd"/></g><g><path d="m28.12641 36.54365c.0895-.03551.04102.7297.03847.76998-.44526.18556-.63589-.0576-.64593-.0704.13923-.16103.48796-.63557.58891-.69386.00769-.00443.01394-.00642.01855-.00572zm-.01352.4545c.0011-.01493.02211-.29866-.00997-.38055 0 0-.00071.00032-.00221.00118-.01385.008-.09468.06228-.29379.33397.00457.0056.09141.11226.30597.0454" fill="#cfd8dd"/></g><g><path d="m29.05734 35.01655c-.13818.16223-.4862.64194-.58594.69953-.00734.00424-.01333.00622-.0178.00557-.09023.03765-.04808-.72554-.04586-.76571.44525-.19068.63939.04804.6496.06061zm-.58099.63153s.00058-.00024.0018-.00095c.0126-.00727.09292-.06071.2927-.33671-.00468-.00555-.09362-.11098-.30817-.04076-.00095.01485-.01914.29696.01367.37842" fill="#cfd8dd"/></g><g><path d="m29.69947 35.31294c.00254.89454-.6253 1.98199-1.4023 2.43059s-1.40968.08892-1.41222-.80563c-.00253-.89283.62604-1.98071 1.40305-2.42931.777-.4486 1.40894-.08849 1.41147.80435zm-1.40344 2.02874c.58405-.3372 1.0564-1.15446 1.05449-1.82727-.0019-.6711-.47734-.94204-1.06139-.60484s-1.0564 1.15535-1.05449 1.82645c.0019.6728.47734.94286 1.06139.60566" fill="#40545d"/></g></g><g><g><path d="m38.93965 30.0365c-.02963.01711-.05386.05818-.05376.09309.0001.03405.02448.04796.05411.03085.02962-.01711.05386-.05908.05376-.09313-.0001-.03491-.02449-.04791-.05411-.03081z" fill="#cfd8dd"/></g><g><path d="m39.98048 29.73898c-.14389-.02712-.58444-.02195-.58089-.11493-.03219-.08193.5659-.74787.59737-.78292.17005.39582-.00715.87274-.01648.89785zm-.24375-.09361c.00412-.01125.0823-.22502.01778-.43696-.01168.01278-.23363.25557-.29569.37531.00158.00321.03138.0641.27791.06165" fill="#cfd8dd"/></g><g><path d="m39.26495 30.00874c.12679-.0732.58496.02021.60908.02513-.28064.5826-.65155.81251-.67107.82461.00856-.20341-.0333-.74146.03647-.82457.00497-.01003.01372-.01836.02552-.02517zm-.01286.46115c.00874-.00553.1747-.11049.32761-.38937-.01054-.00239-.2109-.04787-.30515-.01181-.00228.00498-.04538.09968-.02246.40118" fill="#cfd8dd"/></g><g><g><path d="m39.21408 29.88694c-.02962.01711-.05386.05818-.05376.09308.0001.03405.02449.04796.05411.03085.03039-.01754.05462-.05952.05452-.09357-.0001-.0349-.02448-.04791-.05487-.03036z" fill="#cfd8dd"/></g><g><path d="m39.08255 29.65507c-.07597.04386-.13654.14965-.1363.23608s.06122.12205.13718.07819c.07521-.04342.13654-.14965.1363-.23608s-.06198-.12162-.13718-.07819z" fill="#cfd8dd"/></g></g><g><path d="m39.07202 29.49141c-.03039.01754-.05462.05952-.05452.09442.0001.03405.02449.04796.05487.03041.02962-.01711.05386-.05908.05376-.09313-.00009-.0349-.02448-.04881-.05411-.0317z" fill="#cfd8dd"/></g><g><path d="m38.85602 29.79277c-.03039.01754-.05386.05903-.05376.09399.0001.034.02373.04835.05411.0308.02963-.01711.05386-.05908.05376-.09308-.0001-.03496-.02449-.04882-.05411-.03171z" fill="#cfd8dd"/></g><g><path d="m39.29453 29.54667c-.02962.01711-.05386.05908-.05376.09398.0001.03405.02449.04796.05411.03085.03039-.01754.05462-.05952.05452-.09357-.00009-.0349-.02448-.0488-.05487-.03126z" fill="#cfd8dd"/></g><g><path d="m38.7394 29.98946c.03598.07803-.55265.76177-.58364.79776-.18446-.38138-.01738-.85908-.00859-.88423.14615.02055.59349-.00515.59223.08647zm-.34805.4248c.01149-.0131.22981-.26209.28958-.38226-.00168-.00309-.03365-.06188-.28395-.04852-.00389.01128-.07774.22584-.00563.43078" fill="#cfd8dd"/></g><g><path d="m38.91779 29.57348c-.00496.01027-.01394.01882-.02619.02589-.12783.0738-.58796-.01051-.61217-.01495.27683-.58476.647-.81839.66648-.83069-.00628.2021.04089.73617-.02812.81975zm-.0351-.03395c.00223-.005.04461-.10009.01789-.3994-.00873.00566-.17469.11309-.32531.39327.01062.00217.21242.04347.30742.00613" fill="#cfd8dd"/></g><g><path d="m38.90294 30.24132c.09197-.03649.04215.7498.03953.79118-.45752.19067-.6534-.05918-.66372-.07233.14307-.16547.5014-.65308.60513-.71297.00791-.00456.01432-.00661.01906-.00588zm-.01389.46701c.00114-.01534.02272-.30689-.01024-.39103 0 0-.00073.00033-.00227.00121-.01423.00821-.09729.064-.30188.34316.0047.00577.09392.11536.31439.04666" fill="#cfd8dd"/></g><g><path d="m39.85952 28.67215c-.14199.1667-.49959.65963-.60208.7188-.00755.00435-.0137.00639-.01829.00572-.09272.03869-.0494-.74552-.04712-.78679.45751-.19593.65699.04936.66749.06227zm-.59699.64893s.0006-.00025.00185-.00098c.01294-.00747.09548-.06239.30076-.34598-.00481-.0057-.0962-.11404-.31665-.04188-.00098.01526-.01968.30514.01404.38884" fill="#cfd8dd"/></g><g><path d="m40.51933 28.97671c.00261.91918-.64252 2.03658-1.44093 2.49754-.7984.46096-1.44851.09136-1.45111-.82782-.0026-.91743.64328-2.03526 1.44169-2.49622s1.44775-.09093 1.45035.8265zm-1.4421 2.08462c.60014-.34649 1.08549-1.18627 1.08354-1.8776-.00196-.68959-.49049-.96799-1.09062-.6215s-1.08549 1.18717-1.08354 1.87675c.00196.69133.49049.96884 1.09062.62235" fill="#40545d"/></g></g><g><g><path d="m42.71715 27.80551c-.02963.01711-.05386.05818-.05376.09308.0001.03405.02448.04796.05411.03085.02962-.01711.05386-.05908.05376-.09313-.0001-.0349-.02448-.04791-.05411-.0308z" fill="#cfd8dd"/></g><g><path d="m43.75799 27.50798c-.14389-.02712-.58444-.02195-.58089-.11493-.03219-.08193.5659-.74787.59737-.78292.17004.39583-.00716.87275-.01648.89785zm-.24376-.0936c.00412-.01125.0823-.22502.01778-.43695-.01168.01278-.23363.25557-.29569.37531.00158.0032.03139.06408.27791.06164" fill="#cfd8dd"/></g><g><path d="m43.04246 27.77774c.12679-.0732.58496.02021.60908.02513-.28065.5826-.65155.81251-.67107.82461.00856-.20341-.0333-.74146.03647-.82457.00496-.01003.01371-.01835.02552-.02517zm-.01287.46116c.00874-.00552.1747-.11049.32761-.38937-.01054-.00239-.2109-.04787-.30515-.01181-.00228.00498-.04538.09967-.02246.40118" fill="#cfd8dd"/></g><g><g><path d="m42.99158 27.65594c-.02962.01711-.05386.05818-.05376.09308.0001.03405.02449.04796.05411.03085.03039-.01754.05462-.05952.05452-.09357-.00009-.03489-.02448-.0479-.05487-.03036z" fill="#cfd8dd"/></g><g><path d="m42.86005 27.42407c-.07597.04386-.13654.14965-.13629.23608.00024.08643.06122.12205.13718.07819.07521-.04342.13654-.14965.1363-.23608-.00025-.08643-.06198-.12161-.13719-.07819z" fill="#cfd8dd"/></g></g><g><path d="m42.84953 27.26041c-.03039.01754-.05462.05952-.05452.09442.0001.03405.02449.04796.05487.03041.02962-.01711.05386-.05908.05376-.09313-.0001-.03489-.02449-.0488-.05411-.0317z" fill="#cfd8dd"/></g><g><path d="m42.63352 27.56178c-.03039.01754-.05386.05903-.05376.09398.0001.034.02373.04835.05411.03081.02963-.01711.05386-.05908.05376-.09309-.0001-.03495-.02448-.04881-.05411-.0317z" fill="#cfd8dd"/></g><g><path d="m43.07204 27.31568c-.02962.01711-.05386.05908-.05376.09398.0001.03405.02448.04796.05411.03085.03039-.01754.05462-.05952.05452-.09357-.0001-.0349-.02449-.04881-.05487-.03126z" fill="#cfd8dd"/></g><g><path d="m42.5169 27.75846c.03598.07803-.55266.76177-.58364.79776-.18446-.38138-.01739-.85908-.00859-.88422.14615.02054.59349-.00515.59223.08646zm-.34805.4248c.01149-.0131.22981-.26209.28959-.38226-.00168-.00309-.03365-.06188-.28395-.04852-.0039.01129-.07775.22584-.00564.43078" fill="#cfd8dd"/></g><g><path d="m42.69529 27.34249c-.00496.01026-.01394.01881-.02619.02589-.12783.0738-.58796-.01051-.61217-.01495.27683-.58476.647-.81839.66648-.83069-.00628.20209.04089.73617-.02812.81975zm-.0351-.03396c.00223-.005.04461-.10009.01789-.3994-.00873.00565-.17469.11309-.32531.39326.01062.00218.21242.04349.30742.00614" fill="#cfd8dd"/></g><g><path d="m42.68045 28.01032c.09196-.03649.04215.7498.03953.79118-.45753.19068-.6534-.05918-.66372-.07233.14307-.16547.5014-.65308.60513-.71297.0079-.00456.01432-.0066.01906-.00588zm-.0139.46701c.00114-.01534.02272-.30689-.01024-.39103 0 0-.00073.00033-.00227.00122-.01423.00821-.09729.064-.30188.34316.0047.00577.09392.11536.31439.04665" fill="#cfd8dd"/></g><g><path d="m43.63702 26.44116c-.14199.1667-.49959.65963-.60208.7188-.00754.00435-.01369.00639-.01829.00572-.09272.03869-.0494-.74552-.04712-.78679.45751-.19594.657.04936.66749.06227zm-.59699.64893s.0006-.00025.00185-.00098c.01295-.00747.09549-.06238.30077-.34598-.00481-.0057-.0962-.11404-.31665-.04188-.00099.01525-.01969.30513.01403.38884" fill="#cfd8dd"/></g><g><path d="m44.29683 26.74572c.00261.91918-.64252 2.03658-1.44093 2.49754s-1.44851.09136-1.45111-.82782c-.0026-.91743.64328-2.03526 1.44169-2.49622.79841-.46097 1.44775-.09093 1.45035.8265zm-1.44209 2.08461c.60013-.34649 1.08549-1.18626 1.08353-1.8776-.00195-.68959-.49049-.96799-1.09062-.6215s-1.08549 1.18717-1.08354 1.87675c.00197.69134.49049.96884 1.09063.62235" fill="#40545d"/></g></g><g><g><path d="m46.49465 25.57451c-.02962.01711-.05386.05818-.05376.09308.0001.03405.02448.04796.05411.03085.02962-.01711.05386-.05908.05376-.09313-.00009-.0349-.02448-.0479-.05411-.0308z" fill="#cfd8dd"/></g><g><path d="m47.53549 25.27699c-.14389-.02712-.58444-.02195-.5809-.11493-.03219-.08193.5659-.74787.59737-.78292.17006.39582-.00714.87275-.01647.89785zm-.24375-.0936c.00412-.01125.0823-.22502.01778-.43696-.01168.01278-.23363.25557-.29569.37531.00157.0032.03138.06409.27791.06165" fill="#cfd8dd"/></g><g><path d="m46.81996 25.54675c.12679-.0732.58496.02021.60908.02513-.28064.5826-.65154.81251-.67106.82461.00855-.20341-.0333-.74146.03647-.82457.00496-.01003.0137-.01836.02551-.02517zm-.01287.46115c.00874-.00553.1747-.11049.32761-.38937-.01054-.00239-.2109-.04787-.30515-.01181-.00227.00498-.04538.09968-.02246.40118" fill="#cfd8dd"/></g><g><g><path d="m46.76909 25.42495c-.02963.01711-.05386.05818-.05376.09309.0001.03405.02448.04796.05411.03085.03039-.01754.05462-.05952.05452-.09357-.0001-.03491-.02448-.04791-.05487-.03037z" fill="#cfd8dd"/></g><g><path d="m46.63755 25.19308c-.07597.04386-.13654.14965-.13629.23608.00024.08643.06122.12205.13718.07819.07521-.04342.13654-.14965.13629-.23608-.00024-.08643-.06197-.12161-.13718-.07819z" fill="#cfd8dd"/></g></g><g><path d="m46.62703 25.02942c-.03039.01754-.05462.05952-.05452.09442.0001.03405.02449.04796.05487.03041.02963-.01711.05386-.05908.05376-.09313-.0001-.0349-.02449-.04881-.05411-.0317z" fill="#cfd8dd"/></g><g><path d="m46.41102 25.33078c-.03038.01754-.05386.05903-.05376.09398.0001.034.02373.04835.05411.03081.02963-.01711.05386-.05908.05376-.09308-.00009-.03496-.02448-.04882-.05411-.03171z" fill="#cfd8dd"/></g><g><path d="m46.84954 25.08468c-.02962.01711-.05386.05908-.05376.09398.0001.03405.02448.04796.05411.03085.03038-.01754.05462-.05952.05452-.09357-.00009-.0349-.02448-.0488-.05487-.03126z" fill="#cfd8dd"/></g><g><path d="m46.2944 25.52747c.03598.07803-.55266.76177-.58364.79775-.18446-.38138-.01739-.85908-.00859-.88422.14615.02055.5935-.00515.59223.08647zm-.34805.4248c.01149-.01311.22981-.26209.28959-.38226-.00168-.0031-.03366-.06188-.28395-.04853-.0039.01129-.07775.22585-.00564.43079" fill="#cfd8dd"/></g><g><path d="m46.4728 25.11149c-.00496.01027-.01394.01882-.02619.02589-.12783.07381-.58796-.01051-.61218-.01495.27684-.58476.647-.8184.66648-.83069-.00627.2021.0409.73617-.02811.81975zm-.0351-.03395c.00223-.005.04461-.10009.01789-.3994-.00874.00566-.17469.11309-.32531.39326.01062.00218.21241.04349.30742.00614" fill="#cfd8dd"/></g><g><path d="m46.45795 25.77933c.09196-.03649.04215.7498.03953.79118-.45753.19067-.65341-.05918-.66372-.07233.14307-.16547.5014-.65308.60513-.71297.00791-.00456.01432-.00661.01906-.00588zm-.01389.46701c.00114-.01534.02272-.30689-.01024-.39103 0 0-.00073.00033-.00227.00121-.01423.00821-.09729.064-.30188.34316.0047.00577.09392.11537.31439.04666" fill="#cfd8dd"/></g><g><path d="m47.41453 24.21016c-.14199.1667-.49959.65963-.60208.7188-.00754.00435-.01369.00639-.01829.00572-.09272.03869-.0494-.74552-.04712-.78679.45751-.19593.65699.04936.66749.06227zm-.59699.64893s.0006-.00025.00185-.00098c.01295-.00747.09548-.06238.30077-.34598-.00481-.0057-.0962-.11404-.31665-.04188-.001.01526-.01969.30513.01403.38884" fill="#cfd8dd"/></g><g><path d="m48.07434 24.51472c.00261.91918-.64252 2.03658-1.44093 2.49754s-1.44851.09136-1.45111-.82782c-.0026-.91743.64328-2.03526 1.44169-2.49622.7984-.46096 1.44775-.09093 1.45035.8265zm-1.4421 2.08462c.60013-.34649 1.08549-1.18626 1.08353-1.8776-.00195-.68959-.49049-.96799-1.09062-.6215-.60014.34649-1.08549 1.18717-1.08354 1.87675.00197.69134.4905.96884 1.09063.62235" fill="#40545d"/></g></g></g></svg>