<svg id="Layer_1" enable-background="new 0 0 50 50" height="512" viewBox="0 0 50 50" width="512" xmlns="http://www.w3.org/2000/svg"><g><g><g><g enable-background="new"><g><path d="m48.89135 20.91603c-.05782-.0331-.12396-.0331-.21488.00848-.26453.12391-.52905.26437-.79358.41331-3.66193 2.1162-7.00973 6.48865-7.93554 7.76168l-20.97142-12.19266c.92586-1.27303 4.26539-5.63741 7.92732-7.75361.2728-.15701.53732-.29747.8018-.42138.08269-.04157.15706-.04157.21493-.00848z" fill="#56707b"/><g><path d="m40.04666 19.54787c.33426-.44193.80128-.82009 1.44789-1.19384.08799-.05065.17598-.09969.26316-.14672l4.56467 2.64979c-.68455.46699-.95913.67857-1.71067 1.34536z" fill="#40545d"/></g></g><g><path d="m22.10075 41.27146-20.97356-12.1885c-.07659-.04452-.12384-.13956-.12423-.27509l20.97357 12.18851c.00038.13553.04764.23058.12422.27508z" fill="#485f69"/></g><g><path d="m21.97653 40.99638-20.97357-12.1885-.00296-1.04332 20.97357 12.1885z" fill="#485f69"/></g><g><path d="m22.39966 39.21503-20.97356-12.18851 17.54836-10.11936 20.97357 12.18851z" fill="#485f69"/></g><g><path d="m21.97357 39.95306-20.97357-12.1885c-.00077-.27276.1886-.60092.42609-.73804l20.97357 12.18851c-.23749.13712-.42686.46528-.42609.73803z" fill="#485f69"/></g><g><path d="m47.88093 21.34164c.26484-.1529.5307-.29388.79809-.42123.20061-.09737.34373.0385.31799.28438l-.12858 1.2646c-.02436.22103-.181.45844-.35863.561-.23007.11273-.42985.21917-.62842.33382-3.63337 2.09773-7.08047 7.03284-7.11541 7.08168l-.23693.34342-18.12363 10.45149c-.2375.13712-.42811.02834-.42888-.24442l-.00296-1.04332c-.00077-.27276.1886-.60092.42609-.73803l17.54836-10.11936c.92813-1.27208 4.27092-5.63978 7.93291-7.75403z" fill="#40545d"/></g></g></g><g><path d="m43.63405 23.60255c-1.71939 1.64517-3.11638 3.3646-3.9099 4.41443l-7.65452-4.4556-6.19966-3.59588-.86794-.50413-1.03328-.60342-3.16597-1.84335c.96713-1.20683 2.41372-2.87662 4.07524-4.31514l5.33999 3.09983 1.03328.60342.86794.50413 6.19966 3.60436z" fill="#4bb5e7"/><g><path d="m24.75405 11.73238c-1.95909 1.69441-3.6206 3.71172-4.56296 4.92663l.61169.35559c.96713-1.20683 2.41372-2.87662 4.07524-4.31514z" fill="#485f69"/><path d="m43.63405 23.60255c.19011-.18163.38854-.37174.59519-.55377l-19.47519-11.3164.12396.96708z" fill="#778c95"/></g><g fill="#61c4f0"><path d="m31.25128 16.40271-6.24925 3.05866-1.03328-.60342 6.24925-3.05866z"/><path d="m38.31888 20.5112-6.24925 3.05018-6.19966-3.59588 6.24925-3.05866z"/></g></g></g><g><g enable-background="new"><g><path d="m20.66298 20.16416-.00225.79421-1.35023.78466.00226-.7942z" fill="#6b993f"/></g><g><path d="m19.31276 20.94883-.00226.7942-2.9392-1.69695.00225-.79421z" fill="#7eb442"/></g><g><path d="m20.66298 20.16416-1.35022.78467-2.93921-1.69696 1.35022-.78466z" fill="#97c269"/></g></g><g enable-background="new"><g><path d="m24.64101 22.46088-.00225.79421-1.35023.78466.00226-.79421z" fill="#d8b441"/></g><g><path d="m23.29079 23.24554-.00226.79421-2.9392-1.69695.00225-.79421z" fill="#fed44c"/></g><g><path d="m24.64101 22.46088-1.35022.78466-2.93921-1.69695 1.35022-.78466z" fill="#fee182"/></g></g><g enable-background="new"><g><path d="m28.61905 24.7576-.00225.79421-1.35023.78466.00226-.79421z" fill="#b0b8bc"/></g><g><path d="m27.26883 25.54226-.00226.79421-2.9392-1.69695.00225-.79421z" fill="#cfd8dd"/></g><g><path d="m28.61905 24.7576-1.35022.78466-2.93921-1.69695 1.35022-.78466z" fill="#dde4e7"/></g></g><g enable-background="new"><g><path d="m32.59708 27.05432-.00225.79421-1.35022.78466.00225-.79421z" fill="#b0b8bc"/></g><g><path d="m31.24686 27.83898-.00225.79421-2.93921-1.69695.00225-.79421z" fill="#cfd8dd"/></g><g><path d="m32.59708 27.05432-1.35022.78466-2.93921-1.69695 1.35022-.78466z" fill="#dde4e7"/></g></g><g enable-background="new"><g><path d="m36.57511 29.35103-.00225.79421-1.35023.78467.00226-.79421z" fill="#b0b8bc"/></g><g><path d="m35.22489 30.1357-.00226.79421-2.93919-1.69695.00225-.79421z" fill="#cfd8dd"/></g><g><path d="m36.57511 29.35103-1.35022.78467-2.9392-1.69695 1.35022-.78466z" fill="#dde4e7"/></g></g><g enable-background="new"><g><path d="m18.26212 21.55939-.00225.79421-1.68099.97688.00225-.79421z" fill="#40545d"/></g><g><path d="m16.58113 22.53627-.00225.79421-2.93921-1.69695.00225-.79421z" fill="#56707b"/></g><g><path d="m18.26212 21.55939-1.68099.97688-2.93921-1.69695 1.68099-.97688z" fill="#778c95"/></g></g><g enable-background="new"><g><path d="m22.24015 23.85611-.00225.7942-1.68099.97689.00225-.79421z" fill="#40545d"/></g><g><path d="m20.55916 24.83299-.00225.79421-2.93921-1.69695.00225-.79421z" fill="#56707b"/></g><g><path d="m22.24015 23.85611-1.68099.97688-2.93921-1.69695 1.68099-.97689z" fill="#778c95"/></g></g><g enable-background="new"><g><path d="m26.21819 26.15283-.00225.79421-1.68099.97688.00225-.79421z" fill="#40545d"/></g><g><path d="m24.5372 27.12971-.00225.79421-2.93921-1.69695.00225-.79421z" fill="#56707b"/></g><g><path d="m26.21819 26.15283-1.68099.97688-2.93921-1.69695 1.68099-.97688z" fill="#778c95"/></g></g><g enable-background="new"><g><path d="m30.19622 28.44954-.00225.79421-1.68099.97689.00225-.79421z" fill="#b0b8bc"/></g><g><path d="m28.51523 29.42643-.00225.79421-2.93921-1.69695.00225-.79421z" fill="#cfd8dd"/></g><g><path d="m30.19622 28.44954-1.68099.97689-2.93921-1.69695 1.68099-.97689z" fill="#dde4e7"/></g></g><g enable-background="new"><g><path d="m34.17425 30.74626-.00225.79421-1.68099.97688.00225-.7942z" fill="#b0b8bc"/></g><g><path d="m32.49326 31.72315-.00225.7942-2.9392-1.69694.00225-.79421z" fill="#cfd8dd"/></g><g><path d="m34.17425 30.74626-1.68099.97689-2.9392-1.69695 1.68099-.97688z" fill="#dde4e7"/></g></g><g enable-background="new"><g><path d="m15.31725 23.27076-.00226.79421-1.684.97864.00225-.79421z" fill="#40545d"/></g><g><path d="m13.63324 24.2494-.00225.79421-2.93921-1.69695.00225-.79421z" fill="#56707b"/></g><g><path d="m15.31725 23.27076-1.68401.97864-2.93921-1.69695 1.68401-.97864z" fill="#778c95"/></g></g><g enable-background="new"><g><path d="m19.29527 25.56748-.00225.79421-1.684.97863.00225-.7942z" fill="#40545d"/></g><g><path d="m17.61127 26.54612-.00225.7942-2.93921-1.69695.00225-.79421z" fill="#56707b"/></g><g><path d="m19.29527 25.56748-1.684.97864-2.93921-1.69696 1.68401-.97863z" fill="#778c95"/></g></g><g enable-background="new"><g><path d="m23.27332 27.8642-.00226.79421-1.684.97864.00225-.79421z" fill="#40545d"/></g><g><path d="m21.58931 28.84284-.00225.79421-2.93921-1.69695.00225-.79421z" fill="#56707b"/></g><g><path d="m23.27332 27.8642-1.68401.97864-2.93921-1.69695 1.68401-.97864z" fill="#778c95"/></g></g><g enable-background="new"><g><path d="m27.25134 30.16092-.00225.79421-1.684.97864.00225-.79421z" fill="#b0b8bc"/></g><g><path d="m25.56734 31.13956-.00225.79421-2.93921-1.69696.00225-.79421z" fill="#cfd8dd"/></g><g><path d="m27.25134 30.16092-1.684.97864-2.93921-1.69696 1.68401-.97863z" fill="#dde4e7"/></g></g><g enable-background="new"><g><path d="m31.22937 32.45763-.00225.79421-1.684.97864.00225-.79421z" fill="#b0b8bc"/></g><g><path d="m29.54537 33.43627-.00225.79421-2.9392-1.69694.00225-.79421z" fill="#cfd8dd"/></g><g><path d="m31.22937 32.45763-1.684.97864-2.9392-1.69694 1.68401-.97864z" fill="#dde4e7"/></g></g><g enable-background="new"><g><path d="m12.36935 24.98389-.00225.79421-1.68099.97688.00226-.79421z" fill="#40545d"/></g><g><path d="m10.68837 25.96077-.00226.79421-2.9392-1.69695.00225-.79421z" fill="#56707b"/></g><g><path d="m12.36935 24.98389-1.68098.97688-2.93921-1.69695 1.68099-.97688z" fill="#778c95"/></g></g><g enable-background="new"><g><path d="m16.34738 27.28061-.00225.7942-1.68099.97689.00226-.79421z" fill="#40545d"/></g><g><path d="m14.6664 28.25749-.00226.79421-2.9392-1.69695.00225-.79421z" fill="#56707b"/></g><g><path d="m16.34738 27.28061-1.68098.97688-2.93921-1.69695 1.68099-.97689z" fill="#778c95"/></g></g><g enable-background="new"><g><path d="m20.32542 29.57733-.00225.79421-1.68098.97688.00225-.79421z" fill="#40545d"/></g><g><path d="m18.64444 30.55421-.00225.79421-2.93921-1.69695.00225-.79421z" fill="#56707b"/></g><g><path d="m20.32542 29.57733-1.68098.97688-2.93921-1.69695 1.68099-.97688z" fill="#778c95"/></g></g><g enable-background="new"><g><path d="m9.42146 26.69702-.00225.7942-1.68099.97689.00226-.79421z" fill="#40545d"/></g><g><path d="m7.74048 27.6739-.00226.79421-2.9392-1.69695.00225-.79421z" fill="#56707b"/></g><g><path d="m9.42146 26.69702-1.68098.97688-2.93921-1.69695 1.68099-.97689z" fill="#778c95"/></g></g><g enable-background="new"><g><path d="m13.39949 28.99373-.00225.79421-1.68099.97689.00225-.79421z" fill="#40545d"/></g><g><path d="m11.7185 29.97062-.00225.79421-2.9392-1.69696.00225-.79421z" fill="#56707b"/></g><g><path d="m13.39949 28.99373-1.68099.97689-2.9392-1.69696 1.68099-.97688z" fill="#778c95"/></g></g><g enable-background="new"><g><path d="m17.37753 31.29046-.00225.7942-1.68099.97689.00226-.79421z" fill="#40545d"/></g><g><path d="m15.69655 32.26734-.00226.79421-2.9392-1.69695.00225-.79421z" fill="#56707b"/></g><g><path d="m17.37753 31.29046-1.68098.97688-2.93921-1.69695 1.68099-.97689z" fill="#778c95"/></g></g><g enable-background="new"><g><path d="m24.30346 31.87405-.00226.7942-4.62888 2.69001.00226-.7942z" fill="#b4403c"/></g><g><path d="m19.67458 34.56406-.00226.7942-2.9392-1.69695.00225-.79421z" fill="#ee5550"/></g><g><path d="m24.30346 31.87405-4.62888 2.69001-2.93921-1.69696 2.94789-1.71312 1.68099-.97689z" fill="#f17572"/></g></g><g enable-background="new"><g><path d="m28.28148 34.17076-.00225.79421-1.68099.97688.00226-.7942z" fill="#b0b8bc"/></g><g><path d="m26.6005 35.14765-.00226.7942-2.93919-1.69694.00225-.79421z" fill="#cfd8dd"/></g><g><path d="m28.28148 34.17076-1.68098.97689-2.9392-1.69695 1.68099-.97688z" fill="#dde4e7"/></g></g><g enable-background="new"><g><path d="m25.33359 35.88389-.00225.79421-1.68099.97688.00226-.79421z" fill="#b0b8bc"/></g><g><path d="m23.65261 36.86077-.00226.79421-2.93919-1.69695.00225-.7942z" fill="#cfd8dd"/></g><g><path d="m25.33359 35.88389-1.68098.97688-2.9392-1.69694 1.68099-.97689z" fill="#dde4e7"/></g></g></g></g></svg>