<svg id="Layer_1" enable-background="new 0 0 52 52" height="512" viewBox="0 0 52 52" width="512" xmlns="http://www.w3.org/2000/svg"><g><g><g><g><g><g><path d="m33.28064 49.35352-.98666-.57525-.75654-.4358-1.44688-.8472-.76003-.43929-1.44685-.84024-.76004-.44276-1.45036-.84024-.76004-.43929-1.44338-.84022-.76003-.44278-1.45034-.84371-.75657-.43929-1.44685-.84371-.76004-.43929-1.45036-.84371-.75655-.43929-1.44687-.8437-.76004-.44279-1.45034-.84021-.75654-.43581-1.45036-.84372-.76004-.44277-1.44687-.84372-.75655-.4358-1.45034-.8472-.76004-.43929-1.44338-.84022-.76003-.44278-.71125-.4114-.00349-1.20977-.04879-16.4559v-.7705l-.00349-.64847h.00349v.00349l.81581.47066.76004.44278 1.45036.8437.75305.43581 1.45037.8437.76003.44279 1.45034.84023.75657.43927 1.44685.84024.76004.44276 1.44687.84024.76004.44278 1.44687.84371.75654.4358 1.45034.84371.76004.44278 1.45036.84371.75306.43929 1.45036.84371.76004.43929 1.45034.84024.75656.44276 1.44685.84024.76004.44276 1.45036.84373.75655.4358 1.44687.84371.76004.44278.87509.509.00347 1.29347.04881 16.45936z" fill="#d8463f"/><path d="m2.08225 12.16869 31.141 18.10136 16.61307-9.5946-31.141-18.09384z" fill="#e74c3c"/><g><path d="m33.22677 30.26637.05411 19.08501 16.609-9.58921-.05411-19.08501z" fill="#c44"/></g><g fill="#c14242"><path d="m18.344 22.641.169.098"/><path d="m16.139 21.359.169.098"/><path d="m13.929 20.073.169.099"/><path d="m11.724 18.792.169.098"/><path d="m9.519 17.51.169.099"/><path d="m7.31 16.229.169.098"/><path d="m5.105 14.947.169.098"/><path d="m18.513 22.739.591.344"/><path d="m16.30753 21.45676.1448.08363.44189.25631"/><path d="m14.098 20.172.591.343"/><path d="m11.893 18.89.591.344"/><path d="m9.68801 17.60888.14928.08708.43746.25631"/><path d="m7.479 16.327.591.344"/><path d="m5.27353 15.04494.14488.08366.44189.2563"/></g><g><path d="m3.19004 30.64907.42152.24538-.00048.19073-.59112-.34409z" fill="#e74c3c"/><path d="m3.01897 30.7405-.04861-17.03477.16995.09869.04806 16.84368.00167.00097-.17008.09202z" fill="#c44"/><path d="m3.14031 13.80442.51497.299-.04372 16.79103-.42319-.24635z" fill="#c14242"/></g><g><path d="m5.31355 31.89077.42152.24538-.00048.19074-.59112-.3441z" fill="#e74c3c"/><path d="m5.14247 31.9822-.0486-17.03476.16995.09868.04806 16.84368.00167.00097-.17008.09202z" fill="#c44"/><path d="m5.26382 15.04612.51497.299-.04372 16.79103-.42319-.24635z" fill="#c14242"/></g><g><path d="m7.43706 33.13247.42152.24538-.00048.19074-.59112-.34409z" fill="#e74c3c"/><path d="m7.26598 33.2239-.0486-17.03476.16995.09869.04806 16.84367.00167.00097-.17008.09203z" fill="#c44"/><path d="m7.38733 16.28783.51497.29899-.04372 16.79103-.42319-.24635z" fill="#c14242"/></g><g><path d="m9.56057 34.37418.42152.24538-.00048.19073-.59112-.34409z" fill="#e74c3c"/><path d="m9.38949 34.46561-.0486-17.03477.16994.09869.04807 16.84368.00167.00097-.17008.09202z" fill="#c44"/><path d="m9.51083 17.52953.51498.299-.04372 16.79103-.42319-.24635z" fill="#c14242"/></g><g><path d="m11.68408 35.61588.42152.24538-.00048.19073-.59112-.34409z" fill="#e74c3c"/><path d="m11.513 35.70731-.0486-17.03476.16995.09868.04806 16.84368.00167.00097-.17008.09202z" fill="#c44"/><path d="m11.63435 18.77123.51497.299-.04372 16.79103-.42319-.24635z" fill="#c14242"/></g><g><path d="m13.80759 36.85758.42152.24538-.00048.19074-.59112-.34409z" fill="#e74c3c"/><path d="m13.63651 36.94901-.0486-17.03476.16994.09869.04807 16.84367.00167.00097-.17008.09203z" fill="#c44"/><path d="m13.75785 20.01294.51498.29899-.04372 16.79103-.42319-.24635z" fill="#c14242"/></g><g><path d="m15.9311 38.09929.42152.24538-.00048.19073-.59112-.34409z" fill="#e74c3c"/><path d="m15.76002 38.19072-.0486-17.03477.16994.09869.04807 16.84368.00167.00097-.17008.09202z" fill="#c44"/><path d="m15.88136 21.25464.51498.299-.04372 16.79103-.42319-.24635z" fill="#c14242"/></g><g><path d="m18.05461 39.34099.42152.24538-.00048.19073-.59112-.34409z" fill="#e74c3c"/><path d="m17.88353 39.43242-.0486-17.03476.16994.09868.04806 16.84368.00168.00097-.17008.09202z" fill="#c44"/><path d="m18.00487 22.49634.51498.299-.04372 16.79103-.4232-.24635z" fill="#c14242"/></g><g><path d="m20.17812 40.58269.42152.24538-.00048.19074-.59112-.34409z" fill="#e74c3c"/><path d="m20.00704 40.67412-.0486-17.03476.16994.09868.04807 16.84368.00167.00097-.17008.09203z" fill="#c44"/><path d="m20.12838 23.73804.51498.299-.04372 16.79103-.42319-.24635z" fill="#c14242"/></g><g><path d="m22.30163 41.82439.42152.24538-.00048.19074-.59112-.34409z" fill="#e74c3c"/><path d="m22.13055 41.91582-.0486-17.03476.16994.09869.04807 16.84368.00167.00096-.17008.09203z" fill="#c44"/><path d="m22.25189 24.97975.51498.299-.04372 16.79102-.42319-.24634z" fill="#c14242"/></g><g><path d="m24.42514 43.0661.42152.24538-.00048.19074-.59112-.3441z" fill="#e74c3c"/><path d="m24.25406 43.15753-.0486-17.03476.16994.09868.04806 16.84368.00168.00097-.17008.09202z" fill="#c44"/><path d="m24.3754 26.22145.51498.299-.04372 16.79103-.4232-.24635z" fill="#c14242"/></g><g><path d="m26.54865 44.3078.42152.24538-.00049.19074-.59111-.34409z" fill="#e74c3c"/><path d="m26.37757 44.39923-.0486-17.03476.16994.09869.04806 16.84367.00168.00097-.17008.09203z" fill="#c44"/><path d="m26.49891 27.46316.51498.29899-.04372 16.79103-.4232-.24635z" fill="#c14242"/></g><g><path d="m28.67216 45.54951.42152.24537-.00049.19074-.59111-.34409z" fill="#e74c3c"/><path d="m28.50108 45.64093-.0486-17.03476.16994.09869.04806 16.84367.00168.00098-.17008.09202z" fill="#c44"/><path d="m28.62242 28.70486.51498.29899-.04372 16.79103-.4232-.24635z" fill="#c14242"/></g><g><path d="m30.79567 46.79121.42152.24538-.00048.19074-.59112-.3441z" fill="#e74c3c"/><path d="m30.62459 46.88264-.0486-17.03476.16994.09868.04806 16.84368.00168.00097-.17008.09202z" fill="#c44"/><path d="m30.74593 29.94656.51498.299-.04372 16.79103-.4232-.24635z" fill="#c14242"/></g><path d="m42.71719 28.29725 5.4548-3.13351.52563.21229-5.97935 3.43482z" fill="#e74c3c"/><path d="m48.17199 25.16374-.00411-1.98078.52453-.30131.00521 2.49438z" fill="#d8463f"/><path d="m48.16788 23.18296.00411 1.98078-5.4548 3.13351-.00412-1.98075z" fill="#c14242"/><g><path d="m42.71719 32.82957 5.4548-3.13351.52563.21228-5.97935 3.43483z" fill="#e74c3c"/><path d="m48.17199 29.69606-.00411-1.98078.52453-.30132.00521 2.49438z" fill="#d8463f"/><path d="m48.16788 27.71528.00411 1.98078-5.4548 3.13351-.00412-1.98076z" fill="#c14242"/></g><g><path d="m42.71719 37.36188 5.4548-3.13351.52563.21229-5.97935 3.43482z" fill="#e74c3c"/><path d="m48.17199 34.22837-.00411-1.98078.52453-.30131.00521 2.49438z" fill="#d8463f"/><path d="m48.16788 32.24759.00411 1.98078-5.4548 3.13351-.00412-1.98075z" fill="#c14242"/></g><g><path d="m42.71719 41.8942 5.4548-3.13351.52563.21228-5.97935 3.43483z" fill="#e74c3c"/><path d="m48.17199 38.76069-.00411-1.98078.52453-.30132.00521 2.49438z" fill="#d8463f"/><path d="m48.16788 36.77991.00411 1.98078-5.4548 3.13351-.00412-1.98076z" fill="#c14242"/></g><g><path d="m34.79205 32.75549 5.45479-3.13351.52563.21229-5.97934 3.43482z" fill="#e74c3c"/><path d="m40.24684 29.62198-.0041-1.98078.52453-.30131.0052 2.49438z" fill="#d8463f"/><path d="m40.24274 27.6412.0041 1.98078-5.45479 3.13351-.00413-1.98075z" fill="#c14242"/></g><g><path d="m34.79205 37.28781 5.45479-3.13351.52563.21228-5.97934 3.43483z" fill="#e74c3c"/><path d="m40.24684 34.1543-.0041-1.98078.52453-.30132.0052 2.49438z" fill="#d8463f"/><path d="m40.24274 32.17352.0041 1.98078-5.45479 3.13351-.00413-1.98076z" fill="#c14242"/></g><g><path d="m34.79205 41.82012 5.45479-3.13351.52563.21229-5.97934 3.43482z" fill="#e74c3c"/><path d="m40.24684 38.68661-.0041-1.98078.52453-.30132.0052 2.49439z" fill="#d8463f"/><path d="m40.24274 36.70583.0041 1.98078-5.45479 3.13351-.00413-1.98075z" fill="#c14242"/></g><g><path d="m34.79205 46.35244 5.45479-3.13351.52563.21228-5.97934 3.43483z" fill="#e74c3c"/><path d="m40.24684 43.21893-.0041-1.98078.52453-.30132.0052 2.49438z" fill="#d8463f"/><path d="m40.24274 41.23815.0041 1.98078-5.45479 3.13351-.00413-1.98076z" fill="#c14242"/></g><g><g><path d="m38.88028 40.6479.00237.83728 1.35271-.78099-.00237-.83728z" fill="#d4d6d6"/></g><g><g><path d="m38.88028 31.53452.00237.83728 1.35271-.78099-.00237-.83728z" fill="#d4d6d6"/></g><g><path d="m35.40871 33.36082.00238.83728 1.35272-.78099-.00238-.83728z" fill="#d4d6d6"/></g><g><path d="m35.40871 42.47419.00238.83729 1.35272-.78099-.00238-.83729z" fill="#d4d6d6"/></g><g><g><g><path d="m35.66872 30.39837.06451 15.28475c.00017.06071.03987.12123.11978.16768.1646.09565.42732.09421.59048 0 .08336-.04813.12499-.1102.12482-.17218l-.06451-15.28473c.00017.06198-.04146.12405-.12482.17217-.16316.0942-.42588.09565-.59048-.00001-.07991-.04643-.11961-.10695-.11978-.16768z" fill="#ecf0f1"/></g><g><path d="m35.79292 30.22548c-.16317.0942-.16652.24637-.00443.34058.1646.09566.42732.09421.59048.00001.16567-.09565.16653-.24637.00192-.34203-.16209-.09421-.42229-.09421-.58797.00144z" fill="#d4d6d6"/></g></g><g><g><path d="m39.14028 28.50075.06451 15.28475c.00017.06072.03987.12124.11978.16768.1646.09566.42732.09421.59048.00001.08336-.04813.12499-.1102.12482-.17218l-.06451-15.28474c.00017.06198-.04146.12405-.12482.17217-.16317.0942-.42588.09565-.59048-.00001-.07991-.04644-.11961-.10696-.11978-.16768z" fill="#ecf0f1"/></g><g><path d="m39.26448 28.32785c-.16317.0942-.16652.24637-.00443.34057.1646.09566.42732.09421.59048.00001.16567-.09565.16652-.24637.00192-.34203-.16209-.0942-.42229-.0942-.58797.00145z" fill="#d4d6d6"/></g></g></g></g></g><g><g><path d="m46.76564 36.31442.00237.83729 1.35272-.78099-.00238-.83729z" fill="#d4d6d6"/></g><g><g><path d="m46.76564 27.20104.00237.83729 1.35272-.78099-.00238-.83729z" fill="#d4d6d6"/></g><g><path d="m43.29408 29.02734.00237.83729 1.35272-.78099-.00238-.83729z" fill="#d4d6d6"/></g><g><path d="m43.29408 38.14072.00237.83728 1.35272-.78099-.00238-.83728z" fill="#d4d6d6"/></g><g><g><g><path d="m43.55408 26.0649.06451 15.28475c.00017.06072.03987.12124.11978.16768.1646.09566.42732.09421.59048.00001.08336-.04813.12499-.1102.12482-.17218l-.06451-15.28474c.00017.06198-.04146.12405-.12482.17217-.16316.0942-.42588.09565-.59048-.00001-.0799-.04643-.1196-.10696-.11978-.16768z" fill="#ecf0f1"/></g><g><path d="m43.67829 25.89201c-.16317.0942-.16652.24637-.00443.34058.1646.09566.42732.09421.59048.00001.16567-.09565.16653-.24637.00192-.34203-.16209-.09422-.4223-.09421-.58797.00144z" fill="#d4d6d6"/></g></g><g><g><path d="m47.02565 24.16727.06451 15.28475c.00017.06071.03987.12124.11978.16768.1646.09566.42732.09421.59048 0 .08336-.04813.12499-.1102.12482-.17218l-.06451-15.28474c.00017.06198-.04146.12405-.12482.17217-.16317.0942-.42588.09565-.59048-.00001-.07991-.04642-.11961-.10695-.11978-.16767z" fill="#ecf0f1"/></g><g><path d="m47.14985 23.99438c-.16317.0942-.16652.24637-.00443.34058.1646.09566.42732.09421.59048.00001.16567-.09565.16652-.24637.00192-.34203-.16209-.09422-.4223-.09421-.58797.00144z" fill="#d4d6d6"/></g></g></g></g></g></g></g></g></g><g><g enable-background="new"><g><path d="m33.22834 31.56234-31.14415-17.97597-.00349-.00349c.00025-.10069.00374-1.51269.00349-1.41199.15222.08847 31.24894 18.16092 31.14068 18.09798z" fill="#c44"/></g></g></g><g><g enable-background="new"><g><path d="m33.28064 49.35352c-2.25364-1.31026 9.67572 5.62365-31.14417-18.10147l-.00349-1.20978 31.14417 17.97943z" fill="#c44"/></g></g></g><g><g enable-background="new"><g><path d="m3.6815 14.69878-1.59624-.92764-.00456-1.60717 1.59624.92763z" fill="#c44"/></g><g><path d="m3.67694 13.0916-1.59624-.92763 1.80573-1.04254 1.59625.92763z" fill="#d8463f"/></g><g><path d="m5.48268 12.04906.00035.12414-1.69866.98072.0042 1.48304-.10707.06182-.00456-1.60718z" fill="#c14242"/></g></g></g><g><g enable-background="new"><g><path d="m33.12641 31.83094-1.59625-.92763-.00455-1.60718 1.59624.92764z" fill="#c44"/></g><g><path d="m33.12185 30.22377-1.59624-.92764 1.80573-1.04254 1.59625.92764z" fill="#d8463f"/></g><g><path d="m34.92759 29.18123.00035.12414-1.69866.98072.0042 1.48303-.10707.06182-.00456-1.60717z" fill="#c14242"/></g></g></g><g><g enable-background="new"><g><path d="m19.89182 3.2162-.00051.06266-1.75264 1.00804.00051-.06266z" fill="#c14242"/></g><g><path d="m18.13918 4.22424-.00051.06266-1.19757-.69142.00051-.06266z" fill="#c44"/></g><g><path d="m19.89182 3.2162-1.75264 1.00804-1.19757-.69142 1.75263-1.00805z" fill="#d8463f"/></g></g></g><g><path d="m3.37417 13.71537c0 .31377-.22314.43929-.49509.2824-.27193-.15689-.49158-.54039-.49158-.85069 0-.31379.22314-.43929.49507-.2824.27195.15689.4916.5369.4916.85069z" fill="#3f434f"/></g><g><path d="m32.81934 30.84768c0 .31377-.22314.43929-.49509.2824-.27193-.15689-.49158-.54039-.49158-.85069 0-.31379.22313-.43929.49507-.2824.27195.1569.4916.53691.4916.85069z" fill="#3f434f"/></g><g><path d="m4.41072 32.71795.12286-.0714.00427-1.50655-.12286.0714z" fill="#c14242"/></g><g><path d="m4.41499 31.2114.12286-.0714-2.41072-1.39183-.12286.0714z" fill="#e74c3c"/></g><g><path d="m2.00427 29.81957-.00427 1.50655 2.41072 1.39183.00427-1.50655z" fill="#d8463f"/></g><g><path d="m3.70082 31.55291c0 .31376-.22314.43929-.49509.2824-.27193-.15689-.49158-.54039-.49158-.85069 0-.31379.22314-.43929.49507-.2824.27196.15689.4916.5369.4916.85069z" fill="#3f434f"/></g><g><g><g enable-background="new"><g><path d="m33.20638 49.40409.12286-.0714.00427-1.50655-.12286.0714z" fill="#c14242"/></g><g><path d="m33.21065 47.89754.12286-.0714-2.41071-1.39183-.12286.0714z" fill="#e74c3c"/></g><g><path d="m30.79994 46.50571-.00427 1.50655 2.41071 1.39183.00427-1.50655z" fill="#d8463f"/></g></g></g><g><path d="m32.49649 48.23904c0 .31376-.22314.43929-.49509.2824-.27193-.15689-.49158-.54039-.49158-.85069 0-.31379.22314-.43929.49507-.2824.27195.1569.4916.53691.4916.85069z" fill="#3f434f"/></g></g><g><g><g enable-background="new"><g><path d="m33.33778 49.47522-.12286-.0714-.00427-1.50655.12286.0714z" fill="#d8463f"/></g><g><path d="m33.33351 47.96867-.12286-.0714 2.41071-1.39182.12287.0714z" fill="#e74c3c"/></g><g><path d="m35.74423 46.57685.00427 1.50655-2.41072 1.39182-.00427-1.50655z" fill="#c14242"/></g></g></g><g><path d="m34.04767 48.31018c0 .31376.22314.43929.49509.2824.27193-.15689.49158-.54039.49158-.85069 0-.31379-.22314-.43929-.49506-.2824-.27196.1569-.49161.53691-.49161.85069z" fill="#3f434f"/></g></g><g><g><g enable-background="new"><g><path d="m47.70599 41.23815-.11691-.06795-.00407-1.43361.11692.06794z" fill="#d8463f"/></g><g><path d="m47.70193 39.80453-.11692-.06794 2.29401-1.32445.11692.06795z" fill="#e74c3c"/></g><g><path d="m49.99594 38.48009.00406 1.43361-2.29401 1.32445-.00406-1.43362z" fill="#c14242"/></g></g></g><g><path d="m48.38152 40.12951c0 .29858.21233.41803.47112.26873.25877-.1493.46778-.51423.46778-.80951 0-.2986-.21233-.41803-.4711-.26873-.25879.1493-.4678.51091-.4678.80951z" fill="#3f434f"/></g></g><g><g><g enable-background="new"><g><path d="m33.21679 31.8576-.09175-.05332-.00319-1.57803.09175.05331z" fill="#c44"/></g><g><path d="m33.2136 30.27956-.09175-.05331 1.80026-1.03938.09174.05332z" fill="#d8463f"/></g><g><path d="m35.01385 29.24019.00319 1.57803-1.80025 1.03938-.00319-1.57804z" fill="#c14242"/></g><g><path d="m33.62199 30.83304c0 .31376.22314.43929.49509.2824.27193-.15689.49158-.54039.49158-.85069 0-.31379-.22314-.43929-.49506-.2824-.27196.1569-.49161.5369-.49161.85069z" fill="#3f434f"/></g></g></g></g><g><g><g enable-background="new"><g><path d="m48.12317 23.31739-.09175-.05332-.00319-1.57804.09175.05332z" fill="#d8463f"/></g><g><path d="m48.11998 21.73935-.09175-.05332 1.80026-1.03937.09174.05331z" fill="#e74c3c"/></g><g><path d="m49.92023 20.69997.00319 1.57804-1.80025 1.03938-.00319-1.57804z" fill="#c14242"/></g><g><path d="m48.52837 22.29283c0 .31376.22313.43929.49509.2824.27193-.15689.49157-.54039.49157-.85069 0-.31379-.22313-.43929-.49506-.2824-.27195.15689-.4916.5369-.4916.85069z" fill="#3f434f"/></g></g></g></g><g><g enable-background="new"><g><path d="m49.87313 20.66864-.00051.06266-1.75264 1.00805.00051-.06266z" fill="#c14242"/></g><g><path d="m48.12049 21.67669-.00051.06266-1.23684-.71505.00052-.06266z" fill="#c44"/></g><g><path d="m49.87313 20.66864-1.75264 1.00805-1.23683-.71505 1.75264-1.00805z" fill="#d8463f"/></g></g></g></g><g><g><path d="m11.65128 35.98268-.00124.43738 1.53814.88805.00124-.43739z" fill="#3f434f"/></g><g><path d="m11.65128 35.98268-.00124.43738 1.53814.88805.00124-.43739z" fill="#3f434f"/></g><g><path d="m9.17157 34.55101-.00124.43739 1.53813.88804.00124-.43738z" fill="#3f434f"/></g><g><path d="m6.69185 33.11935-.00124.43738 1.53813.88804.00124-.43738z" fill="#3f434f"/></g></g><g><g><path d="m27.31957 45.02877-.00124.43738 1.53813.88804.00124-.43738z" fill="#3f434f"/></g><g><path d="m27.31957 45.02877-.00124.43738 1.53813.88804.00124-.43738z" fill="#3f434f"/></g><g><path d="m24.83985 43.5971-.00124.43738 1.53814.88805.00124-.43738z" fill="#3f434f"/></g><g><path d="m22.36013 42.16544-.00124.43738 1.53814.88804.00124-.43738z" fill="#3f434f"/></g></g></g></svg>