<svg id="Layer_1" enable-background="new 0 0 50 50" height="512" viewBox="0 0 50 50" width="512" xmlns="http://www.w3.org/2000/svg"><g><g><g><g><g><g enable-background="new"><g><path d="m3.22939 36.47435-.00428.42848c-.00046.16365-.10806.32705-.32301.45197-.43266.25143-1.13594.25142-1.57142 0-.21915-.12652-.3286-.29253-.32813-.45829l.00427-.42848c-.00047.16576.10898.33177.32813.45829.43548.25143 1.13876.25144 1.57142 0 .21496-.12492.32256-.28832.32302-.45197z" fill="#b0b8bc"/></g><g><path d="m2.90129 36.01606c.43548.25143.43776.65882.0051.91025s-1.13594.25142-1.57142 0c-.43548-.25143-.4378-.65879-.00514-.91022.43265-.25144 1.13597-.25145 1.57146-.00003z" fill="#dde4e7"/></g></g></g><g><g enable-background="new"><g><path d="m2.49023 30.25792-.00144 6.16572c-.00016.05501-.03632.10993-.10857.15192-.14543.08451-.38182.08451-.5282 0-.07366-.04253-.11045-.09833-.11029-.15405l.00144-6.16572c-.00016.05572.03663.11152.11029.15405.14638.08451.38277.08451.5282 0 .07225-.04198.10841-.09691.10857-.15192z" fill="#b0b8bc"/></g><g><path d="m2.37994 30.10388c.14638.08451.14714.22145.00171.30596s-.38182.08451-.5282 0-.14716-.22144-.00173-.30595c.14544-.08452.38184-.08452.52822-.00001z" fill="#dde4e7"/></g></g></g></g><g><g><g enable-background="new"><g><path d="m12.72242 41.99172-.00428.42848c-.00046.16365-.10806.32705-.32301.45197-.43266.25143-1.13594.25142-1.57142 0-.21915-.12652-.3286-.29254-.32813-.45829l.00427-.42848c-.00047.16576.10898.33177.32813.45829.43548.25143 1.13876.25143 1.57142 0 .21496-.12491.32256-.28832.32302-.45197z" fill="#b0b8bc"/></g><g><path d="m12.39431 41.53344c.43548.25142.43776.65881.0051.91025-.43266.25143-1.13594.25142-1.57142 0-.43548-.25143-.4378-.65879-.00514-.91022.43266-.25144 1.13598-.25146 1.57146-.00003z" fill="#dde4e7"/></g></g></g><g><g enable-background="new"><g><path d="m11.98326 35.7753-.00144 6.16572c-.00016.05501-.03632.10993-.10857.15192-.14543.08451-.38182.08451-.5282 0-.07366-.04253-.11045-.09833-.11029-.15405l.00144-6.16572c-.00016.05571.03663.11152.11029.15405.14638.08451.38277.08451.5282 0 .07224-.04199.10841-.09691.10857-.15192z" fill="#b0b8bc"/></g><g><path d="m11.87297 35.62126c.14638.08451.14714.22145.00171.30596s-.38182.08451-.5282 0-.14716-.22144-.00173-.30595c.14543-.08452.38184-.08453.52822-.00001z" fill="#dde4e7"/></g></g></g></g><g><g><g enable-background="new"><g><path d="m14.96311 29.73357-.00428.42848c-.00046.16365-.10806.32705-.32301.45197-.43266.25143-1.13594.25142-1.57142 0-.21915-.12652-.3286-.29254-.32813-.45829l.00427-.42848c-.00047.16576.10898.33177.32813.45829.43548.25143 1.13876.25144 1.57142 0 .21496-.12492.32256-.28832.32302-.45197z" fill="#b0b8bc"/></g><g><path d="m14.635 29.27529c.43548.25142.43776.65882.0051.91025s-1.13594.25142-1.57142 0c-.43548-.25143-.4378-.65879-.00514-.91022.43266-.25145 1.13598-.25146 1.57146-.00003z" fill="#dde4e7"/></g></g></g><g><g enable-background="new"><g><path d="m14.22395 23.51715-.00144 6.16572c-.00016.05501-.03632.10993-.10857.15192-.14543.08451-.38182.08451-.5282 0-.07366-.04253-.11045-.09833-.11029-.15405l.00144-6.16572c-.00016.05572.03663.11152.11029.15405.14638.08451.38277.08452.5282 0 .07224-.04199.10841-.09692.10857-.15192z" fill="#b0b8bc"/></g><g><path d="m14.11366 23.36311c.14638.08451.14714.22145.00171.30596s-.38182.08451-.5282 0-.14716-.22144-.00173-.30595c.14544-.08452.38184-.08453.52822-.00001z" fill="#dde4e7"/></g></g></g></g><g><g><g enable-background="new"><g><path d="m24.45614 35.25095-.00428.42848c-.00046.16365-.10806.32705-.32301.45197-.43266.25143-1.13593.25142-1.57142 0-.21915-.12653-.3286-.29254-.32813-.45829l.00427-.42848c-.00047.16576.10898.33177.32813.45829.43548.25142 1.13876.25143 1.57142 0 .21495-.12492.32255-.28833.32302-.45197z" fill="#b0b8bc"/></g><g><path d="m24.12803 34.79266c.43548.25143.43776.65882.0051.91025s-1.13594.25142-1.57142 0c-.43548-.25143-.4378-.65879-.00514-.91022s1.13598-.25146 1.57146-.00003z" fill="#dde4e7"/></g></g></g><g><g enable-background="new"><g><path d="m23.71697 29.03452-.00144 6.16572c-.00016.055-.03632.10993-.10857.15192-.14543.08451-.38182.08451-.5282 0-.07366-.04253-.11045-.09833-.11029-.15405l.00144-6.16572c-.00016.05572.03663.11152.11029.15405.14638.08451.38277.08451.5282 0 .07225-.04199.10842-.09691.10857-.15192z" fill="#b0b8bc"/></g><g><path d="m23.60669 28.88048c.14638.08451.14714.22145.00171.30596s-.38182.08451-.5282 0-.14716-.22144-.00173-.30595c.14543-.08452.38184-.08452.52822-.00001z" fill="#dde4e7"/></g></g></g></g><g><g><g enable-background="new"><g><path d="m26.69683 22.99279-.00428.42848c-.00046.16365-.10806.32705-.32301.45197-.43266.25143-1.13593.25142-1.57142 0-.21915-.12652-.3286-.29254-.32813-.45829l.00427-.42848c-.00047.16576.10898.33177.32813.4583.43548.25142 1.13876.25144 1.57142 0 .21495-.12492.32255-.28833.32302-.45198z" fill="#b0b8bc"/></g><g><path d="m26.36872 22.53451c.43548.25143.43776.65882.0051.91025s-1.13593.25142-1.57142 0c-.43548-.25143-.4378-.65879-.00514-.91022.43266-.25144 1.13598-.25146 1.57146-.00003z" fill="#dde4e7"/></g></g></g><g><g enable-background="new"><g><path d="m25.95766 16.77637-.00144 6.16572c-.00015.05501-.03632.10993-.10857.15192-.14543.08451-.38182.08451-.5282 0-.07366-.04253-.11045-.09833-.11029-.15405l.00144-6.16572c-.00016.05572.03663.11152.11029.15405.14638.08451.38277.08451.5282 0 .07225-.04199.10842-.09691.10857-.15192z" fill="#b0b8bc"/></g><g><path d="m25.84738 16.62233c.14638.08451.14714.22145.00171.30596s-.38182.08451-.5282 0-.14716-.22144-.00173-.30595c.14543-.08452.38184-.08452.52822-.00001z" fill="#dde4e7"/></g></g></g></g><g><g><g enable-background="new"><g><path d="m36.18985 28.51017-.00428.42848c-.00047.16365-.10806.32705-.32301.45197-.43266.25143-1.13594.25142-1.57142 0-.21915-.12652-.3286-.29254-.32813-.45829l.00427-.42848c-.00047.16576.10899.33177.32813.45829.43548.25142 1.13876.25144 1.57141 0 .21497-.12492.32257-.28832.32303-.45197z" fill="#b0b8bc"/></g><g><path d="m35.86175 28.05188c.43548.25143.43776.65882.0051.91025s-1.13593.25142-1.57141 0c-.43549-.25143-.4378-.65879-.00514-.91022.43264-.25144 1.13596-.25145 1.57145-.00003z" fill="#dde4e7"/></g></g></g><g><g enable-background="new"><g><path d="m35.45069 22.29375-.00144 6.16572c-.00015.05501-.03632.10993-.10857.15192-.14543.08451-.38182.08451-.5282 0-.07366-.04253-.11045-.09833-.11029-.15405l.00144-6.16572c-.00016.05572.03663.11152.11029.15405.14638.08451.38277.08451.5282 0 .07224-.04199.10841-.09692.10857-.15192z" fill="#b0b8bc"/></g><g><path d="m35.3404 22.1397c.14638.08451.14714.22145.00172.30596-.14543.08451-.38182.08451-.5282 0s-.14716-.22144-.00173-.30595.38183-.08452.52821-.00001z" fill="#dde4e7"/></g></g></g></g><g><g><g enable-background="new"><g><path d="m38.43054 16.25202-.00428.42848c-.00046.16365-.10806.32705-.32301.45197-.43266.25143-1.13594.25142-1.57142 0-.21914-.12652-.3286-.29254-.32813-.45829l.00428-.42848c-.00047.16576.10898.33177.32813.45829.43548.25143 1.13876.25144 1.57142 0 .21495-.12492.32255-.28832.32301-.45197z" fill="#b0b8bc"/></g><g><path d="m38.10244 15.79373c.43548.25142.43776.65882.0051.91025s-1.13594.25142-1.57142 0-.4378-.65879-.00514-.91022c.43265-.25144 1.13597-.25145 1.57146-.00003z" fill="#dde4e7"/></g></g></g><g><g enable-background="new"><g><path d="m37.69138 10.03559-.00144 6.16572c-.00016.05501-.03632.10993-.10857.15192-.14543.08451-.38182.08451-.5282 0-.07366-.04253-.11045-.09833-.11029-.15405l.00143-6.16572c-.00016.05572.03664.11152.11029.15405.14638.08451.38277.08451.5282 0 .07226-.04199.10842-.09691.10858-.15192z" fill="#b0b8bc"/></g><g><path d="m37.58109 9.88155c.14638.08451.14714.22145.00171.30596s-.38182.08451-.5282 0-.14716-.22144-.00173-.30595.38185-.08452.52822-.00001z" fill="#dde4e7"/></g></g></g></g><g><g><g enable-background="new"><g><path d="m47.92357 21.76939-.00428.42848c-.00046.16365-.10806.32705-.32301.45197-.43266.25143-1.13594.25142-1.57142 0-.21914-.12652-.3286-.29254-.32813-.4583l.00428-.42848c-.00047.16576.10898.33177.32813.4583.43548.25142 1.13876.25144 1.57142 0 .21495-.12492.32255-.28832.32301-.45197z" fill="#b0b8bc"/></g><g><path d="m47.59546 21.31111c.43548.25143.43776.65882.0051.91025s-1.13594.25142-1.57142 0c-.43548-.25143-.4378-.65879-.00514-.91022.43266-.25144 1.13598-.25146 1.57146-.00003z" fill="#dde4e7"/></g></g></g><g><g enable-background="new"><g><path d="m47.18441 15.55297-.00144 6.16572c-.00016.05501-.03632.10993-.10857.15192-.14543.08451-.38182.08451-.5282 0-.07366-.04253-.11045-.09833-.11029-.15405l.00143-6.16572c-.00016.05572.03663.11152.11029.15405.14638.08451.38277.08452.5282 0 .07225-.04199.10842-.09691.10858-.15192z" fill="#b0b8bc"/></g><g><path d="m47.07412 15.39893c.14638.08451.14714.22145.00171.30596s-.38182.08451-.5282 0-.14716-.22144-.00173-.30595c.14543-.08452.38184-.08453.52822-.00001z" fill="#dde4e7"/></g></g></g></g></g><g><g enable-background="new"><g><path d="m1.0975 30.41534.00574.84612 9.88447 5.74423-.00573-.84612z" fill="#b0b8bc"/></g><g><path d="m1.0975 30.41534 9.88448 5.74423 38.01484-21.94788-9.88447-5.74423z" fill="#40545d"/></g></g></g><g><g enable-background="new"><g><path d="m1.0914 28.88671.00574 1.53194.25235.14665-.00574-1.53193z" fill="#b0b8bc"/></g><g><path d="m1.34375 29.03337.00574 1.53193 38.01485-21.94788-.00574-1.53194z" fill="#9aa1a5"/></g><g><path d="m1.0914 28.88671.25235.14666 38.01485-21.94789-.25235-.14665z" fill="#dde4e7"/></g></g></g><g><g><g enable-background="new"><g><path d="m48.09333 13.13632c-.09163-.05317-.21778-.04513-.35721.03586-.27754.15931-.50063.54706-.50063.86581.00133.15802.0571.26954.14608.32135l-9.22033-5.37186c-.0903-.0531-.14607-.16333-.14607-.32264-.00133-.31869.22176-.70514.4993-.86581.13943-.07969.26558-.08766.35721-.03456z" fill="#56707b"/></g><g><path d="m47.73552 13.17159c-.27724.16007-.50034.54749-.49944.86605s.22546.44652.5027.28646.50119-.54698.50029-.86553c-.0009-.31856-.22631-.44704-.50355-.28698z" fill="#b0b8bc"/></g></g></g><g><g enable-background="new"><g><path d="m46.27522 14.19412c-.09163-.05317-.21778-.04513-.35721.03586-.27754.15931-.50063.54706-.50063.86581.00133.15802.0571.26954.14608.32135l-9.22033-5.37186c-.0903-.0531-.14607-.16333-.14607-.32264-.00133-.31869.22176-.70514.4993-.86581.13943-.07969.26559-.08766.35721-.03456z" fill="#56707b"/></g><g><path d="m45.91741 14.2294c-.27724.16006-.50034.54749-.49944.86605s.22546.44652.5027.28646c.27724-.16007.50119-.54698.50029-.86553-.0009-.31857-.22631-.44705-.50355-.28698z" fill="#b0b8bc"/></g></g></g><g><g enable-background="new"><g><path d="m44.4571 15.25192c-.09163-.05317-.21778-.04513-.35721.03586-.27754.15931-.50063.54706-.50063.86581.00133.15802.0571.26954.14608.32135l-9.22033-5.37186c-.0903-.0531-.14607-.16333-.14607-.32264-.00133-.31869.22176-.70514.4993-.86581.13943-.07969.26559-.08766.35721-.03456z" fill="#56707b"/></g><g><path d="m44.0993 15.2872c-.27724.16006-.50034.54749-.49944.86605s.22546.44652.5027.28646c.27724-.16007.50119-.54698.50029-.86553-.00091-.31856-.22631-.44704-.50355-.28698z" fill="#b0b8bc"/></g></g></g><g><g enable-background="new"><g><path d="m42.63899 16.30973c-.09163-.05317-.21778-.04513-.35721.03586-.27754.15931-.50063.54706-.50063.86581.00133.15801.0571.26954.14608.32135l-9.22033-5.37186c-.0903-.0531-.14607-.16333-.14607-.32264-.00133-.31869.22176-.70514.4993-.86581.13943-.07969.26558-.08766.35721-.03456z" fill="#56707b"/></g><g><path d="m42.28118 16.345c-.27724.16007-.50034.54749-.49944.86605s.22546.44652.5027.28646c.27724-.16007.50119-.54698.50029-.86553s-.2263-.44704-.50355-.28698z" fill="#b0b8bc"/></g></g></g><g><g enable-background="new"><g><path d="m40.82088 17.36753c-.09163-.05317-.21778-.04513-.35721.03586-.27754.15931-.50063.54705-.50063.86581.00133.15802.0571.26954.14608.32135l-9.22033-5.37186c-.0903-.0531-.14607-.16333-.14607-.32264-.00133-.31869.22176-.70514.4993-.86581.13943-.07969.26558-.08766.35721-.03456z" fill="#56707b"/></g><g><path d="m40.46307 17.40281c-.27724.16006-.50034.54749-.49944.86605s.22546.44652.5027.28646.50119-.54698.50029-.86553c-.0009-.31857-.22631-.44705-.50355-.28698z" fill="#b0b8bc"/></g></g></g><g><g enable-background="new"><g><path d="m39.00277 18.42533c-.09163-.05317-.21778-.04513-.35721.03586-.27754.15931-.50063.54706-.50063.86581.00133.15801.0571.26954.14608.32135l-9.22033-5.37186c-.0903-.0531-.14607-.16333-.14607-.32264-.00133-.31869.22176-.70514.4993-.86581.13943-.07969.26558-.08766.35721-.03456z" fill="#56707b"/></g><g><path d="m38.64496 18.46061c-.27724.16006-.50034.54749-.49944.86605s.22546.44652.5027.28646c.27724-.16007.50119-.54698.50029-.86553-.0009-.31857-.22631-.44705-.50355-.28698z" fill="#b0b8bc"/></g></g></g><g><g enable-background="new"><g><path d="m37.18465 19.48314c-.09163-.05317-.21778-.04513-.35721.03586-.27754.15931-.50063.54705-.50063.86581.00133.15802.0571.26954.14608.32135l-9.22033-5.37186c-.0903-.0531-.14607-.16333-.14607-.32264-.00133-.31869.22176-.70514.4993-.86581.13943-.07969.26558-.08766.35721-.03456z" fill="#56707b"/></g><g><path d="m36.82684 19.51841c-.27724.16007-.50034.54749-.49944.86605s.22546.44652.5027.28646.50119-.54698.50029-.86553c-.0009-.31856-.22631-.44704-.50355-.28698z" fill="#b0b8bc"/></g></g></g><g><g enable-background="new"><g><path d="m35.36654 20.54094c-.09163-.05317-.21778-.04513-.35721.03586-.27754.15931-.50063.54706-.50063.86581.00133.15802.0571.26954.14608.32135l-9.22033-5.37186c-.0903-.0531-.14607-.16333-.14607-.32264-.00133-.31869.22176-.70514.4993-.86581.13943-.07969.26558-.08766.35721-.03456z" fill="#56707b"/></g><g><path d="m35.00873 20.57622c-.27724.16006-.50034.54749-.49944.86605s.22546.44652.5027.28646c.27724-.16007.50119-.54698.50029-.86554s-.22631-.44704-.50355-.28697z" fill="#b0b8bc"/></g></g></g><g><g enable-background="new"><g><path d="m33.54843 21.59874c-.09163-.05317-.21778-.04513-.35721.03586-.27754.15931-.50063.54706-.50063.86581.00133.15801.0571.26954.14608.32135l-9.22033-5.37186c-.0903-.0531-.14607-.16333-.14607-.32265-.00133-.31869.22176-.70514.4993-.86581.13943-.07969.26558-.08766.35721-.03456z" fill="#56707b"/></g><g><path d="m33.19062 21.63402c-.27724.16007-.50034.54749-.49944.86605s.22546.44652.5027.28646.50119-.54698.50029-.86553-.22631-.44705-.50355-.28698z" fill="#b0b8bc"/></g></g></g><g><g enable-background="new"><g><path d="m31.73032 22.65655c-.09163-.05317-.21778-.04513-.35721.03586-.27754.15931-.50063.54706-.50063.86581.00133.15802.0571.26954.14608.32135l-9.22033-5.37186c-.0903-.0531-.14607-.16333-.14607-.32264-.00133-.31869.22176-.70514.4993-.86581.13943-.07969.26558-.08766.35721-.03456z" fill="#56707b"/></g><g><path d="m31.37251 22.69182c-.27724.16006-.50034.54749-.49944.86605s.22546.44652.5027.28646c.27724-.16007.50119-.54698.50029-.86554-.0009-.31855-.22631-.44703-.50355-.28697z" fill="#b0b8bc"/></g></g></g><g><g enable-background="new"><g><path d="m29.9122 23.71435c-.09163-.05317-.21778-.04513-.35721.03586-.27754.15931-.50063.54706-.50063.86581.00133.15801.0571.26954.14608.32135l-9.22033-5.37186c-.0903-.0531-.14607-.16333-.14607-.32265-.00133-.31869.22176-.70514.4993-.86581.13943-.07969.26558-.08766.35721-.03456z" fill="#56707b"/></g><g><path d="m29.55439 23.74962c-.27724.16006-.50034.54749-.49944.86605s.22546.44652.5027.28646c.27724-.16007.50119-.54698.50029-.86553-.0009-.31856-.22631-.44704-.50355-.28698z" fill="#b0b8bc"/></g></g></g><g><g enable-background="new"><g><path d="m28.09409 24.77215c-.09163-.05317-.21778-.04513-.35721.03586-.27754.15931-.50063.54705-.50063.86581.00133.15802.0571.26954.14608.32135l-9.22033-5.37186c-.0903-.0531-.14607-.16333-.14607-.32264-.00133-.31869.22176-.70514.4993-.86581.13943-.07969.26558-.08766.35721-.03456z" fill="#56707b"/></g><g><path d="m27.73628 24.80743c-.27724.16006-.50034.54749-.49944.86605s.22546.44652.5027.28646.50119-.54698.50029-.86553c-.0009-.31857-.22631-.44705-.50355-.28698z" fill="#b0b8bc"/></g></g></g><g><g enable-background="new"><g><path d="m26.27598 25.82995c-.09163-.05317-.21778-.04513-.35721.03586-.27754.15931-.50063.54706-.50063.86581.00133.15801.0571.26954.14608.32135l-9.22033-5.37186c-.0903-.0531-.14607-.16333-.14607-.32265-.00133-.31869.22176-.70514.4993-.86581.13943-.07969.26558-.08766.35721-.03456z" fill="#56707b"/></g><g><path d="m25.91817 25.86523c-.27724.16006-.50034.54749-.49944.86605s.22546.44652.5027.28646c.27724-.16007.50119-.54698.50029-.86553-.0009-.31857-.22631-.44705-.50355-.28698z" fill="#b0b8bc"/></g></g></g><g><g enable-background="new"><g><path d="m24.45786 26.88776c-.09163-.05317-.21778-.04513-.35721.03586-.27754.15931-.50063.54706-.50063.86581.00133.15802.0571.26954.14608.32135l-9.22033-5.37186c-.0903-.0531-.14607-.16333-.14607-.32265-.00133-.31869.22176-.70514.4993-.86581.13943-.07969.26558-.08766.35721-.03456z" fill="#56707b"/></g><g><path d="m24.10005 26.92303c-.27724.16007-.50034.54749-.49944.86605s.22546.44653.5027.28646c.27724-.16006.50119-.54698.50029-.86553-.00089-.31856-.2263-.44704-.50355-.28698z" fill="#b0b8bc"/></g></g></g><g><g enable-background="new"><g><path d="m22.63975 27.94556c-.09163-.05317-.21778-.04513-.35721.03586-.27754.15931-.50063.54706-.50063.86581.00133.15802.0571.26954.14608.32135l-9.22033-5.37186c-.0903-.0531-.14607-.16333-.14607-.32264-.00133-.31869.22176-.70514.4993-.86581.13943-.07969.26558-.08766.35721-.03456z" fill="#56707b"/></g><g><path d="m22.28194 27.98084c-.27724.16006-.50034.54749-.49944.86605s.22546.44652.5027.28646c.27724-.16007.50119-.54698.50029-.86554s-.22631-.44704-.50355-.28697z" fill="#b0b8bc"/></g></g></g><g><g enable-background="new"><g><path d="m20.82164 29.00336c-.09163-.05317-.21778-.04513-.35721.03586-.27754.15931-.50063.54706-.50063.86581.00133.15801.0571.26954.14608.32135l-9.22033-5.37186c-.0903-.0531-.14607-.16333-.14607-.32265-.00133-.31869.22176-.70514.4993-.86581.13943-.07969.26558-.08766.35721-.03456z" fill="#56707b"/></g><g><path d="m20.46383 29.03864c-.27724.16007-.50034.54749-.49943.86605.0009.31856.22546.44652.5027.28646s.50119-.54698.50029-.86553c-.00091-.31856-.22632-.44705-.50356-.28698z" fill="#b0b8bc"/></g></g></g><g><g enable-background="new"><g><path d="m19.00352 30.06117c-.09163-.05317-.21778-.04513-.35721.03586-.27754.15931-.50063.54705-.50063.86581.00133.15802.0571.26954.14608.32135l-9.22033-5.37186c-.0903-.0531-.14607-.16333-.14607-.32264-.00133-.31869.22176-.70514.4993-.86581.13943-.07969.26558-.08766.35721-.03456z" fill="#56707b"/></g><g><path d="m18.64572 30.09644c-.27724.16006-.50034.54749-.49944.86605s.22546.44652.5027.28646.50119-.54698.50029-.86553c-.0009-.31856-.22631-.44704-.50355-.28698z" fill="#b0b8bc"/></g></g></g><g><g enable-background="new"><g><path d="m17.18541 31.11897c-.09163-.05317-.21778-.04513-.35721.03586-.27754.15931-.50063.54706-.50063.86581.00133.15802.0571.26954.14608.32135l-9.22033-5.37186c-.0903-.0531-.14607-.16333-.14607-.32265-.00133-.31869.22176-.70514.4993-.86581.13943-.07969.26558-.08766.35721-.03456z" fill="#56707b"/></g><g><path d="m16.8276 31.15425c-.27724.16006-.50034.54749-.49944.86605s.22546.44653.5027.28646c.27724-.16006.50119-.54697.50029-.86553-.0009-.31857-.2263-.44705-.50355-.28698z" fill="#b0b8bc"/></g></g></g><g><g enable-background="new"><g><path d="m15.3673 32.17677c-.09163-.05317-.21778-.04513-.35721.03585-.27754.15931-.50063.54706-.50063.86581.00133.15802.0571.26954.14608.32135l-9.22034-5.37186c-.0903-.0531-.14607-.16333-.14607-.32264-.00133-.31869.22176-.70514.4993-.86581.13943-.07969.26558-.08766.35721-.03456z" fill="#56707b"/></g><g><path d="m15.00949 32.21205c-.27724.16006-.50034.54749-.49943.86605s.22546.44652.5027.28646.50119-.54697.50029-.86553c-.00091-.31857-.22632-.44705-.50356-.28698z" fill="#b0b8bc"/></g></g></g><g><g enable-background="new"><g><path d="m13.54919 33.23457c-.09163-.05317-.21778-.04513-.35721.03586-.27754.15931-.50063.54705-.50063.86581.00133.15802.0571.26954.14608.32135l-9.22033-5.37186c-.0903-.0531-.14607-.16333-.14607-.32264-.00133-.31869.22176-.70514.4993-.86581.13943-.07969.26559-.08766.35721-.03456z" fill="#56707b"/></g><g><path d="m13.19138 33.26985c-.27724.16006-.50034.54749-.49944.86605s.22546.44653.5027.28646.50119-.54698.50029-.86554-.22631-.44703-.50355-.28697z" fill="#b0b8bc"/></g></g></g><g><g enable-background="new"><g><path d="m11.73107 34.29238c-.09163-.05317-.21778-.04513-.35721.03586-.27754.15931-.50063.54705-.50063.86581.00133.15802.0571.26954.14608.32135l-9.22033-5.37186c-.0903-.0531-.14607-.16333-.14607-.32265-.00133-.31869.22176-.70514.4993-.86581.13943-.07969.26558-.08766.35721-.03456z" fill="#56707b"/></g><g><path d="m11.37326 34.32766c-.27724.16006-.50034.54749-.49943.86605s.22546.44653.5027.28646.50119-.54698.50029-.86554-.22631-.44704-.50356-.28697z" fill="#b0b8bc"/></g></g></g></g><g><g enable-background="new"><g><path d="m10.7245 34.48098.00574 1.53194.25235.14665-.00574-1.53194z" fill="#b0b8bc"/></g><g><path d="m10.7245 34.48098.25235.14665 38.01485-21.94788-.25235-.14665z" fill="#dde4e7"/></g></g></g></g><g><path d="m10.97685 34.62763.00574 2.37806 38.01485-21.94788-.00574-2.37806z" fill="#9aa1a5"/></g><g><g><g enable-background="new"><g><path d="m25.10015 11.67191.01661 5.86047 6.52385 3.79125-.01662-5.86047z" fill="#d9ae6d"/></g><g><path d="m28.07753 14.93902-.00524 1.84889-2.52458-1.45757.00525-1.84888z" fill="#fff"/></g><g><path d="m27.83181 16.3847-.00034.12055-2.11123-1.21891.00034-.12056z" fill="#dde4e7"/></g><g><path d="m27.64213 13.15252.00361 1.27337.45025.26166.51702.30046-.00361-1.27337z" fill="#ee5550"/></g><g><path d="m31.62399 15.46316.01662 5.86047 7.69613-4.44337-.01661-5.86046z" fill="#fecd82"/></g><g><path d="m25.10015 11.67191 6.52384 3.79125 7.69614-4.44336-6.52386-3.79125z" fill="#ffd69a"/></g><g><path d="m27.64213 13.15252.96727.56212 7.69613-4.44336-.96727-.56212z" fill="#f17572"/></g></g></g><g><g><path d="m36.83469 16.81002c-.00931.04756-.01494.09482-.01482.13753.00047.16728.06484.2995.19617.36831.06041.03082.0947.10205.09497.19771l-.09007.052c-.01466.00847-.02824.03017-.02819.04943.00005.01867.01371.02462.02837.01616l.2388-.13787c.01624-.00937.02981-.03104.02976-.04972-.00006-.01926-.01371-.02524-.02995-.01587l-.09007.052c-.00028-.09748.03507-.2089.09459-.30895.16288-.27304.22248-.52683.17947-.71236z" fill="#56707b"/></g><g><path d="m36.35865 18.18724-1.10914.64036-.00361-1.27448 1.10914-.64036zm-1.05589.54815 1.00179-.57838-.00326-1.15115-1.00179.57838z" fill="#56707b"/></g><g><path d="m35.79773 17.37614c-.01047.00605-.01934.02203-.01931.03407l.00004.01443c-.18692.12057-.33678.36019-.38691.62418.01247-.04395.03911-.08043.06791-.09764.03037-.01754.05609-.0113.06928.01422.01352-.04093.03755-.07652.06792-.09464.03037-.01754.05505-.01069.06823.01544.01352-.04155.03859-.07774.06897-.09528.02001-.01158.03556-.01271.04772-.00404l.00386.43536c.00076.08478.06171.11986.13668.07657.07532-.04408.13639-.15108.13562-.23621l-.00066-.04785c-.00003-.01322-.00949-.01862-.02102-.01197-.01047.00667-.01987.02233-.01931.03587l.00014.04812c.00069.05928-.04211.13402-.09447.16487-.05237.03024-.09545.00593-.09614-.05361l-.00386-.43533c.01252-.02351.02978-.04133.04758-.05161.03056-.01764.05575-.01123.06876.01455.01404-.04185.03912-.07801.06844-.09494.02985-.01723.05557-.01099.06876.01694.01246-.04336.03806-.07924.06791-.09706.03037-.01754.05609-.01129.06929.01725-.05408-.20386-.20794-.26629-.39387-.1668l-.00004-.01505c-.00054-.01168-.00947-.01679-.02152-.00984z" fill="#56707b"/></g><g><path d="m38.13684 16.90264.00021.07463.68182-.39365-.00021-.07463z" fill="#56707b"/></g><g><path d="m38.13643 16.75762.00021.0746.68182-.39365-.00021-.0746-.10578.06108-.08693.05018-.29588.17083-.08693.05019z" fill="#56707b"/></g><g><path d="m38.28424 15.98277-.16523.36841.12254-.07075.00118.41582.08693-.05019-.00118-.41582.12149-.07014z" fill="#56707b"/></g><g><path d="m39.03305 16.64318-1.10862.64006-.00361-1.27448 1.10862-.64006zm-1.05537.54784 1.00179-.57838-.00327-1.15114-1.00179.57838z" fill="#56707b"/></g><g><path d="m38.66705 15.76176-.16523.36841.12254-.07075.00118.41581.08693-.05018-.00118-.41582.12149-.07014z" fill="#56707b"/></g><g><path d="m37.69611 17.41506-1.10914.64036-.00361-1.27448 1.10914-.64036zm-1.05589.54815 1.00179-.57838-.00327-1.15115-1.00179.57838z" fill="#56707b"/></g></g><g><g><path d="m25.82818 13.87647-.00342 1.20551-.10418-.06015.00342-1.20551z" fill="#485f69"/></g><g><path d="m26.05756 14.0089-.00342 1.20551-.10326-.05962.00341-1.20551z" fill="#485f69"/></g><g><path d="m26.28694 14.14133-.00342 1.20551-.10327-.05962.00342-1.20551z" fill="#485f69"/></g><g><path d="m26.51723 14.27429-.00342 1.20551-.03923-.02265.00342-1.20551z" fill="#485f69"/></g><g><path d="m26.40516 14.21172-.00341 1.20551-.03923-.02265.00342-1.20551z" fill="#485f69"/></g><g><path d="m26.68401 14.37058-.00342 1.20551-.04066-.02348.00341-1.20551z" fill="#485f69"/></g><g><path d="m26.91338 14.50301-.00341 1.20551-.17191-.09925.00342-1.20551z" fill="#485f69"/></g><g><path d="m27.14367 14.63597-.00341 1.20551-.10418-.06015.00342-1.20551z" fill="#485f69"/></g><g><path d="m27.37305 14.7684-.00341 1.20551-.10418-.06015.00342-1.20551z" fill="#485f69"/></g><g><path d="m27.60243 14.90083-.00342 1.20551-.13758-.07943.00342-1.20551z" fill="#485f69"/></g><g><path d="m27.83181 15.03327-.00342 1.20551-.10326-.05962.00341-1.20552z" fill="#485f69"/></g></g></g><g><g><g enable-background="new"><g><path d="m7.60378 21.78267.01661 5.86047 6.52385 3.79124-.01661-5.86046z" fill="#d9ae6d"/></g><g><path d="m10.58116 25.04978-.00524 1.84888-2.52457-1.45756.00524-1.84888z" fill="#fff"/></g><g><path d="m10.33544 26.49545-.00034.12056-2.11123-1.21892.00035-.12055z" fill="#dde4e7"/></g><g><path d="m10.14576 23.26328.00361 1.27337.45026.26166.51701.30045-.0036-1.27336z" fill="#ee5550"/></g><g><path d="m14.12763 25.57392.01661 5.86046 7.69613-4.44336-.01661-5.86046z" fill="#fecd82"/></g><g><path d="m7.60378 21.78267 6.52385 3.79125 7.69613-4.44336-6.52385-3.79125z" fill="#ffd69a"/></g><g><path d="m10.14576 23.26328.96728.56212 7.69612-4.44336-.96727-.56212z" fill="#f17572"/></g></g></g><g><g><path d="m19.33833 26.92078c-.00931.04756-.01494.09482-.01482.13753.00047.16728.06484.2995.19617.36831.06041.03082.0947.10205.09498.19771l-.09007.052c-.01466.00847-.02824.03017-.02818.04943.00005.01867.01371.02462.02837.01616l.2388-.13787c.01623-.00937.02981-.03104.02976-.04972-.00006-.01926-.01371-.02524-.02994-.01587l-.09007.052c-.00028-.09748.03507-.2089.09459-.30895.16288-.27304.22248-.52683.17947-.71236z" fill="#56707b"/></g><g><path d="m18.86229 28.298-1.10914.64036-.00361-1.27448 1.10914-.64036zm-1.0559.54815 1.00179-.57838-.00326-1.15115-1.00179.57838z" fill="#56707b"/></g><g><path d="m18.30136 27.4869c-.01047.00605-.01934.02203-.01931.03407l.00004.01443c-.18692.12057-.33678.36019-.38691.62418.01246-.04395.03911-.08043.06791-.09764.03037-.01754.05609-.0113.06928.01422.01352-.04093.03755-.07652.06792-.09464.03037-.01753.05505-.01069.06823.01544.01352-.04155.0386-.07774.06897-.09528.02001-.01158.03556-.01271.04772-.00404l.00386.43536c.00076.08478.06172.11986.13668.07657.07532-.04408.13639-.15108.13562-.23621l-.00066-.04785c-.00004-.01322-.00949-.01862-.02102-.01197-.01047.00667-.01987.02233-.0193.03587l.00014.04812c.00069.05928-.04211.13402-.09447.16487-.05237.03024-.09545.00593-.09614-.05361l-.00386-.43533c.01252-.02351.02978-.04133.04758-.05161.03056-.01764.05575-.01123.06876.01455.01404-.04185.03912-.07801.06844-.09494.02985-.01723.05557-.01099.06876.01694.01247-.04336.03806-.07924.06791-.09706.03037-.01754.05609-.01129.06929.01725-.05408-.20386-.20794-.26629-.39387-.1668l-.00004-.01505c-.00055-.01168-.00948-.01679-.02153-.00984z" fill="#56707b"/></g><g><path d="m20.64047 27.0134.00021.07463.68182-.39365-.00021-.07463z" fill="#56707b"/></g><g><path d="m20.64006 26.86838.00021.0746.68182-.39365-.00021-.0746-.10578.06107-.08693.05019-.29587.17083-.08693.05018z" fill="#56707b"/></g><g><path d="m20.78788 26.09353-.16523.36841.12254-.07075.00118.41581.08693-.05018-.00118-.41582.12149-.07015z" fill="#56707b"/></g><g><path d="m21.53668 26.75394-1.10861.64006-.00361-1.27448 1.10862-.64006zm-1.05537.54784 1.00179-.57838-.00326-1.15115-1.00179.57838z" fill="#56707b"/></g><g><path d="m21.17068 25.87251-.16523.36841.12254-.07074.00118.41581.08693-.05019-.00118-.41581.12149-.07015z" fill="#56707b"/></g><g><path d="m20.19975 27.52582-1.10914.64036-.00361-1.27448 1.10914-.64036zm-1.0559.54815 1.00179-.57838-.00326-1.15115-1.00179.57838z" fill="#56707b"/></g></g><g><g><path d="m8.33181 23.98723-.00341 1.20551-.10418-.06015.00341-1.20551z" fill="#485f69"/></g><g><path d="m8.56119 24.11966-.00342 1.20551-.10326-.05962.00342-1.20551z" fill="#485f69"/></g><g><path d="m8.79057 24.25209-.00342 1.20551-.10326-.05962.00341-1.20551z" fill="#485f69"/></g><g><path d="m9.02086 24.38505-.00342 1.20551-.03922-.02265.00342-1.20551z" fill="#485f69"/></g><g><path d="m8.9088 24.32248-.00342 1.20551-.03923-.02265.00342-1.20551z" fill="#485f69"/></g><g><path d="m9.18764 24.48134-.00342 1.20551-.04066-.02348.00342-1.20551z" fill="#485f69"/></g><g><path d="m9.41702 24.61377-.00342 1.20551-.1719-.09925.00341-1.20551z" fill="#485f69"/></g><g><path d="m9.64731 24.74673-.00342 1.20551-.10418-.06015.00342-1.20551z" fill="#485f69"/></g><g><path d="m9.87669 24.87916-.00342 1.20551-.10418-.06015.00342-1.20551z" fill="#485f69"/></g><g><path d="m10.10606 25.01159-.00341 1.20551-.13759-.07943.00342-1.20551z" fill="#485f69"/></g><g><path d="m10.33544 25.14402-.00341 1.20551-.10327-.05962.00342-1.20551z" fill="#485f69"/></g></g></g></g></svg>