<svg id="Layer_1" enable-background="new 0 0 52 52" height="512" viewBox="0 0 52 52" width="512" xmlns="http://www.w3.org/2000/svg"><g><g><g><g><path d="m25.2385 45.65877-3.08355-1.79197.01231 4.34123 3.08355 1.79197z" fill="#e5bd13"/></g><path d="m49.13212 31.95052-3.08355-1.79197-23.89362 13.70825 3.08355 1.79197z" fill="#f1c40f"/><g><path d="m25.2385 45.65877.01231 4.34123 23.89361-13.70825-.0123-4.34123z" fill="#d6b218"/></g><g><path d="m32.27511 42.52165.00754 2.66654-.04118.02377-2.30558-1.33978z" fill="#e5bd13"/><path d="m28.24802 44.75991 1.68787-.88773 2.30558 1.33978-3.98591 2.2145z" fill="#f1c40f"/><path d="m30.40139 44.14268-2.15337 1.03991v-.42268l1.68787-.88773z" fill="#fff"/></g><g><path d="m46.12737 34.52405.00754 2.66654-.04119.02377-2.30558-1.33978z" fill="#e5bd13"/><path d="m35.24611 40.80631 8.54203-4.93173 2.30558 1.33978-10.84007 6.25849z" fill="#f1c40f"/><path d="m44.25364 36.14508-9.00753 5.0839v-.42267l8.54203-4.93173z" fill="#fff"/></g><g><g><path d="m15.58949 40.05138-3.08354-1.79197.0123 4.34124 3.08355 1.79196z" fill="#e5bd13"/></g><path d="m39.48311 26.34313-3.08354-1.79197-23.89362 13.70825 3.08354 1.79197z" fill="#f1c40f"/><g><path d="m15.58949 40.05138.01231 4.34123 23.89362-13.70825-.01231-4.34123z" fill="#d6b218"/></g><g><path d="m22.62611 36.91426.00754 2.66654-.04119.02377-2.30558-1.33978z" fill="#d4dae8"/><path d="m18.59901 39.15253 1.68787-.88774 2.30558 1.33978-3.9859 2.2145z" fill="#f1c40f"/><path d="m20.75239 38.53529-2.15338 1.03991v-.42267l1.68787-.88774z" fill="#fff"/></g><g><path d="m36.47836 28.91666.00754 2.66654-.04119.02377-2.30557-1.33978z" fill="#d4dae8"/><path d="m25.5971 35.19892 8.54204-4.93173 2.30557 1.33978-10.84006 6.25849z" fill="#f1c40f"/><path d="m34.60464 30.5377-9.00754 5.08389v-.42267l8.54204-4.93173z" fill="#fff"/></g></g><g><g><path d="m5.94049 34.44399-3.08355-1.79196.01231 4.34123 3.08355 1.79196z" fill="#e5bd13"/></g><path d="m29.83411 20.73574-3.08355-1.79196-23.89362 13.70825 3.08355 1.79196z" fill="#f1c40f"/><g><path d="m5.94049 34.44399.01231 4.34123 23.89362-13.70825-.01231-4.34123z" fill="#d6b218"/></g><g><path d="m12.9771 31.30688.00755 2.66654-.04119.02376-2.30558-1.33978z" fill="#d4dae8"/><path d="m8.95001 33.54514 1.68787-.88774 2.30558 1.33978-3.98591 2.2145z" fill="#f1c40f"/><path d="m11.10338 32.92791-2.15337 1.0399v-.42267l1.68787-.88774z" fill="#fff"/></g><g><path d="m26.82936 23.30928.00754 2.66654-.04119.02376-2.30557-1.33978z" fill="#d4dae8"/><path d="m15.9481 29.59153 8.54204-4.93173 2.30557 1.33978-10.84007 6.25849z" fill="#f1c40f"/><path d="m24.95564 24.93031-9.00754 5.08389v-.42267l8.54204-4.93173z" fill="#fff"/></g></g><g><g><path d="m2.85558 32.26274.00273.38929 22.38155 12.99729-.00273-.38929z" fill="#e5bd13"/></g><g><path d="m25.23713 45.26003.00273.38929 23.89362-13.6988-.00273-.38929z" fill="#c6a51a"/></g><g><path d="m2.85558 32.26274 22.38155 12.99729 23.89362-13.6988-22.49549-13.04049z" fill="#f1c40f"/></g></g></g></g><g><g><g><g><path d="m40.26404 11.87376-.08428 22.06908-13.0579 7.58842.08427-22.06907z" fill="#d4d6d6"/></g><path d="m27.20613 19.46219-.08427 22.06907-17.10186-9.87376.08427-22.06908z" fill="#e0e2e2"/><g><g><path d="m11.8008 12.8968-.54186-.31281-.07689 9.89638.54641-.27477z" fill="#d4d6d6"/><path d="m11.72846 22.2056-.54641.27477v.0001l14.78595 8.53617.00455-.58768z" fill="#ecf0f1"/><path d="m11.8008 12.8968-.07234 9.3088 14.24409 8.22336.07153-9.3088z" fill="#c4c6c6"/></g><g><path d="m11.8008 24.75733-.54186-.31281-.07689 5.5549.54641-.27477z" fill="#d4d6d6"/><path d="m11.72846 29.72465-.54641.27477v.00011l14.78595 8.53617.00455-.58769z" fill="#ecf0f1"/><path d="m11.8008 24.75733-.07234 4.96732 14.24409 8.22336.07153-4.96732z" fill="#c4c6c6"/></g></g><g><g><path d="m38.42756 15.23901.54185-.31282.07689 9.89638-.54641-.27477z" fill="#e0e2e2"/><path d="m38.49989 24.5478.54641.27477v.00011l-10.63063 6.1371-.00455-.58769z" fill="#ecf0f1"/><path d="m38.42756 15.23901.07233 9.30879-10.08877 5.82429-.07152-9.30879z" fill="#c4c6c6"/></g><g><path d="m38.42756 27.09953.54185-.31281.07689 5.55491-.54641-.27477z" fill="#e0e2e2"/><path d="m38.49989 32.06686.54641.27477v.0001l-10.63063 6.1371-.00455-.58768z" fill="#ecf0f1"/><path d="m38.42756 27.09953.07233 4.96733-10.08877 5.82429-.07152-4.96733z" fill="#c4c6c6"/></g></g><path d="m40.26404 11.87376-13.05791 7.58843-17.10186-9.87377 13.0579-7.58842z" fill="#ecf0f1"/><g><path d="m23.16346 3.34092v.61986l5.65935 3.26703.53518-.31099z" fill="#c4c6c6"/><path d="m12.41939 9.58503.53508.30887 10.20899-5.93312v-.61986z" fill="#d4d6d6"/><path d="m28.82281 7.22781-5.65935-3.26703-10.20899 5.93312 5.65864 3.26702z" fill="#e0e2e2"/></g><g><path d="m30.87012 7.78572v.61986l5.65935 3.26702.53518-.31099z" fill="#c4c6c6"/><path d="m20.12605 14.02983.53507.30886 10.209-5.93311v-.61986z" fill="#d4d6d6"/><path d="m36.52947 11.6726-5.65935-3.26702-10.209 5.93311 5.65865 3.26703z" fill="#e0e2e2"/></g></g><g><g><g><g><g><path d="m30.23669 24.5929.42995.81823-.26628.15376-.58759.33677z" fill="#3f434f"/></g></g></g><g><g><g><path d="m30.40036 25.56489.00459 1.61865-.3213.18553-.00459-1.61865z" fill="#3f434f"/></g></g></g><g><g><g><path d="m31.99645 26.40894.00098.34649-2.21829 1.28092-.00098-.34649z" fill="#3f434f"/></g></g></g><g><g><g><path d="m36.05033 21.33281.00327 1.15328c.00103.3642-.20938.78716-.48872 1.00165l.00294 1.03947c.19593-.09034.34364-.0819.34395.02685l-.86488.49941c-.00031-.10875.14687-.28747.34267-.42333l-.00295-1.03947c-.1277.05094-.23795.0386-.32407-.01553-.10161-.07559-.16814-.21704-.16871-.41937l-.00327-1.15328z" fill="#3f434f"/></g></g></g><g><g><g><path d="m31.68557 24.82277.00458 1.61864-.3213.18554-.00459-1.61865z" fill="#3f434f"/></g></g></g><g><g><g><path d="m31.5241 23.8495.42775.81951-.26628.15376-.5854.3355z" fill="#3f434f"/></g></g></g></g><g><g><g><g><path d="m33.69256 26.16273c-.06013-.03318-.09538-.10162-.09538-.18768l-.00933-3.46323c-.00208-.15139.10575-.33699.23845-.41476l3.00863-1.7368c.07257-.04148.14618-.04666.20528-.01348.05909.03422.0933.10369.0933.19079l.01037 3.46323c0 .15139-.10471.33699-.23326.41165l-3.00863 1.7368c-.04147.02385-.08398.03629-.12337.03629-.03111 0-.06014-.00726-.08606-.02281zm3.20664-5.69256-3.00863 1.7368c-.09331.05392-.17625.19908-.17625.30485l.00933 3.46323c.00104.03836.01244.06636.0311.07777.0197.0083.04873.00622.08294-.01348l3.00862-1.7368c.09124-.05288.17106-.1939.17106-.30174l-.01036-3.46323c0-.0394-.01141-.06947-.03007-.08088-.00622-.00311-.01348-.00519-.02177-.00519-.01554.00001-.03523.00623-.05597.01867z" fill="#3f434f"/></g></g></g><g><g><g><path d="m29.21176 28.74771c-.05909-.03422-.09227-.10265-.09227-.18664l-.00933-3.46323c-.00207-.15242.10575-.33906.23845-.41476l3.00863-1.73784c.07257-.04251.14514-.0477.20527-.01244.06013.03422.09331.10369.09331.18975l.01037 3.46427c0 .1545-.10264.33595-.2343.41165l-3.00863 1.7368c-.04043.02385-.08294.03525-.12234.03525-.03214 0-.06221-.00726-.08916-.02281zm3.20975-5.69256-3.00863 1.73784c-.09331.05392-.17625.19805-.17625.30485l.00933 3.46323c0 .03733.0114.06532.03007.07673.0197.00933.0508.00622.08398-.01244l3.00759-1.7368c.09123-.05288.1721-.1939.1721-.30174l-.01036-3.46427c0-.0394-.01141-.06843-.03007-.07984-.00622-.00311-.01451-.00518-.02281-.00518-.01555 0-.03421.00622-.05495.01762z" fill="#3f434f"/></g></g></g></g></g></g></g></g></svg>