<svg id="Layer_1" enable-background="new 0 0 50 50" height="512" viewBox="0 0 50 50" width="512" xmlns="http://www.w3.org/2000/svg"><g><g><g><g><g enable-background="new"><g><path d="m49.19285 30.3878-.00463 1.32845-30.19254 17.54599.00462-1.32845z" fill="#a53636"/></g><g><path d="m19.0003 47.93379-.00462 1.32845-18.21543-10.51669.00462-1.32844z" fill="#b4403c"/></g><g><path d="m49.19285 30.3878-30.19255 17.54599-18.21543-10.51668 30.19255-17.54599z" fill="#f17572"/></g></g></g><g><g><g><g enable-background="new"><g><path d="m19.85 47.52267.00353 1.08817.15059.08752-.00353-1.08818z" fill="#cb4844"/></g><g><path d="m20.00059 47.61018.00353 1.08818 1.07389-.62001-.00353-1.08817z" fill="#b4403c"/></g><g><path d="m20.5384 47.54807c-.15245.08802-.27536.3008-.27487.47607.0005.17513.12421.24567.27666.15765.15246-.08802.27536-.30094.27487-.47607-.00049-.17528-.1242-.24567-.27666-.15765z" fill="#40545d"/></g><g><path d="m19.85 47.52267.15059.08751 1.07389-.62-.15059-.08752z" fill="#f17572"/></g></g></g></g><g><g><g enable-background="new"><g><path d="m47.99175 31.18869.00353 1.08817.15059.08751-.00353-1.08817z" fill="#cb4844"/></g><g><path d="m48.14234 31.2762.00353 1.08817 1.07388-.62001-.00353-1.08817z" fill="#b4403c"/></g><g><path d="m48.68015 31.21408c-.15246.08802-.27536.3008-.27487.47607.0005.17513.12421.24566.27666.15764s.27536-.30094.27486-.47607c-.00049-.17526-.1242-.24566-.27665-.15764z" fill="#40545d"/></g><g><path d="m47.99175 31.18869.15059.08751 1.07388-.62001-.15058-.08751z" fill="#f17572"/></g></g></g></g></g></g><g><g enable-background="new"><g><path d="m46.59845 13.01707.05239 18.48266 1.68992-.97567-.0524-18.48266z" fill="#cb4844"/></g><g><path d="m45.98277 13.09601.0524 18.48266.61567-.07894-.05239-18.48266z" fill="#b4403c"/></g><g><path d="m45.84447 13.45237.0524 18.48267.1383-.35637-.0524-18.48266z" fill="#a53636"/></g><g><path d="m44.14451 14.43385.0524 18.48266 1.69996-.98147-.0524-18.48267z" fill="#cb4844"/></g><g><path d="m43.52883 14.51279.0524 18.48266.61568-.07894-.0524-18.48266z" fill="#b4403c"/></g><g><path d="m43.39053 14.86916.0524 18.48266.1383-.35637-.0524-18.48266z" fill="#a53636"/></g><g><path d="m41.69057 15.85063.0524 18.48266 1.69996-.98147-.0524-18.48266z" fill="#cb4844"/></g><g><path d="m41.07389 15.93015.0524 18.48267.61668-.07953-.0524-18.48266z" fill="#b4403c"/></g><g><path d="m40.9366 16.28594.05239 18.48266.1373-.35578-.0524-18.48267z" fill="#a53636"/></g><g><path d="m39.23664 17.26741.0524 18.48266 1.69995-.98147-.05239-18.48266z" fill="#cb4844"/></g><g><path d="m38.62193 17.34692.0524 18.48266.61471-.07951-.0524-18.48266z" fill="#b4403c"/></g><g><path d="m38.48367 17.70214.05239 18.48266.13827-.35522-.0524-18.48266z" fill="#a53636"/></g><g><path d="m36.7827 18.68419.0524 18.48266 1.70096-.98205-.05239-18.48266z" fill="#cb4844"/></g><g><path d="m36.168 18.7637.05239 18.48266.61471-.07951-.0524-18.48266z" fill="#b4403c"/></g><g><path d="m36.02973 19.11892.0524 18.48266.13826-.35522-.05239-18.48266z" fill="#a53636"/></g><g><path d="m34.32977 20.10039.0524 18.48266 1.69996-.98147-.0524-18.48266z" fill="#cb4844"/></g><g><path d="m33.71309 20.17991.05239 18.48267.61669-.07953-.0524-18.48266z" fill="#b4403c"/></g><g><path d="m33.57579 20.5357.0524 18.48266.13729-.35578-.05239-18.48267z" fill="#a53636"/></g><g><path d="m31.87583 21.51718.0524 18.48266 1.69996-.98148-.0524-18.48266z" fill="#cb4844"/></g><g><path d="m31.25914 21.5967.0524 18.48266.61669-.07952-.0524-18.48266z" fill="#b4403c"/></g><g><path d="m31.12085 21.95306.0524 18.48267.13829-.35637-.0524-18.48266z" fill="#a53636"/></g><g><path d="m29.42189 22.93396.0524 18.48266 1.69896-.98089-.0524-18.48267z" fill="#cb4844"/></g><g><path d="m28.80521 23.01348.0524 18.48266.61668-.07952-.0524-18.48266z" fill="#b4403c"/></g><g><path d="m28.66692 23.36984.05239 18.48266.1383-.35636-.0524-18.48266z" fill="#a53636"/></g><g><path d="m26.96796 24.35074.0524 18.48266 1.69895-.9809-.05239-18.48266z" fill="#cb4844"/></g><g><path d="m26.35325 24.43024.0524 18.48267.61471-.07951-.0524-18.48266z" fill="#b4403c"/></g><g><path d="m26.21398 24.78605.0524 18.48266.13927-.3558-.0524-18.48267z" fill="#a53636"/></g><g><path d="m24.51402 25.76752.0524 18.48266 1.69996-.98147-.0524-18.48266z" fill="#cb4844"/></g><g><path d="m23.89932 25.84703.0524 18.48266.6147-.07951-.0524-18.48266z" fill="#b4403c"/></g><g><path d="m23.76005 26.20283.05239 18.48266.13928-.3558-.0524-18.48266z" fill="#a53636"/></g><g><path d="m22.06109 27.18372.0524 18.48266 1.69895-.98089-.05239-18.48266z" fill="#cb4844"/></g><g><path d="m21.4444 27.26324.0524 18.48266.61669-.07952-.0524-18.48266z" fill="#b4403c"/></g><g><path d="m21.30611 27.61961.0524 18.48266.13829-.35637-.0524-18.48266z" fill="#a53636"/></g><g><path d="m19.54928 28.55639.0524 18.48266.06692.03889-.0524-18.48266z" fill="#b4403c"/></g><g><path d="m21.36546 27.21736-.14537.37439-1.67081.96464.06692.03889 1.68991-.97567.13829-.35637.61669-.07952 1.69896-.98089.13927-.3558.6147-.07951 1.69996-.98147.13927-.35581.61471-.0795 1.69896-.9809.13829-.35636.61668-.07952 1.69896-.9809.13829-.35636.61669-.07952 1.69996-.98148.1373-.35579.61668-.07952 1.69996-.98147.13827-.35522.6147-.07951 1.70097-.98205.13826-.35522.61471-.07951 1.69996-.98147.13729-.35579.61668-.07952 1.69996-.98147.1383-.35637.61568-.07894 1.69996-.98148.1383-.35636.61568-.07894 1.68991-.97567-.06692-.03889-1.66981.96406-.64781.08356-.14638.37496-1.65974.95826-.64782.08356-.14637.37497-1.65975.95825-.64882.08414-.14537.37439-1.65975.95825-.64678.08416-.1464.37379-1.66075.95884-.64679.08415-.1464.37379-1.65974.95825-.64882.08414-.14537.37439-1.66076.95884-.64782.08356-.14536.37438-1.66076.95884-.64781.08356-.14537.37438-1.66075.95884-.64578.08358-.1464.37378-1.66176.95942-.64578.08358-.1464.37378-1.66075.95884z" fill="#cb4844"/></g><g><path d="m19.6162 28.59528.0524 18.48266 1.68991-.97567-.0524-18.48266z" fill="#cb4844"/></g></g></g><g><g enable-background="new"><g><path d="m29.37854 3.10598.0524 18.48266 1.68991-.97566-.0524-18.48267z" fill="#cb4844"/></g><g><path d="m28.76286 3.18492.0524 18.48267.61568-.07895-.0524-18.48266z" fill="#b4403c"/></g><g><path d="m28.62457 3.54129.0524 18.48266.13829-.35636-.0524-18.48267z" fill="#a53636"/></g><g><path d="m26.9246 4.52277.0524 18.48266 1.69997-.98148-.0524-18.48266z" fill="#cb4844"/></g><g><path d="m26.30892 4.60171.0524 18.48266.61568-.07894-.0524-18.48266z" fill="#b4403c"/></g><g><path d="m26.17063 4.95807.0524 18.48266.13829-.35636-.0524-18.48266z" fill="#a53636"/></g><g><path d="m24.47066 5.93955.0524 18.48266 1.69997-.98148-.0524-18.48266z" fill="#cb4844"/></g><g><path d="m23.85398 6.01907.0524 18.48266.61668-.07952-.0524-18.48266z" fill="#b4403c"/></g><g><path d="m23.71669 6.37485.0524 18.48267.13729-.35579-.0524-18.48266z" fill="#a53636"/></g><g><path d="m22.01673 7.35633.0524 18.48266 1.69996-.98147-.0524-18.48267z" fill="#cb4844"/></g><g><path d="m21.40203 7.43583.05239 18.48267.61471-.07951-.0524-18.48266z" fill="#b4403c"/></g><g><path d="m21.26376 7.79105.0524 18.48267.13826-.35522-.05239-18.48267z" fill="#a53636"/></g><g><path d="m19.56279 8.77311.0524 18.48266 1.70097-.98205-.0524-18.48267z" fill="#cb4844"/></g><g><path d="m18.94809 8.85262.0524 18.48266.6147-.07951-.0524-18.48266z" fill="#b4403c"/></g><g><path d="m18.80982 9.20783.0524 18.48267.13827-.35522-.0524-18.48266z" fill="#a53636"/></g><g><path d="m17.10986 10.18931.0524 18.48266 1.69996-.98147-.0524-18.48267z" fill="#cb4844"/></g><g><path d="m16.49318 10.26883.0524 18.48266.61668-.07952-.0524-18.48266z" fill="#b4403c"/></g><g><path d="m16.35589 10.62462.0524 18.48266.13729-.35579-.0524-18.48266z" fill="#a53636"/></g><g><path d="m14.65592 11.60609.0524 18.48266 1.69997-.98147-.0524-18.48266z" fill="#cb4844"/></g><g><path d="m14.03924 11.68561.0524 18.48266.61668-.07952-.0524-18.48266z" fill="#b4403c"/></g><g><path d="m13.90094 12.04198.0524 18.48266.1383-.35637-.0524-18.48266z" fill="#a53636"/></g><g><path d="m12.20199 13.02287.05239 18.48266 1.69896-.98089-.0524-18.48266z" fill="#cb4844"/></g><g><path d="m11.58531 13.10239.05239 18.48266.61668-.07952-.05239-18.48266z" fill="#b4403c"/></g><g><path d="m11.44701 13.45876.0524 18.48266.13829-.35637-.05239-18.48266z" fill="#a53636"/></g><g><path d="m9.74805 14.43965.0524 18.48266 1.69896-.98089-.0524-18.48266z" fill="#cb4844"/></g><g><path d="m9.13335 14.51916.0524 18.48266.6147-.07951-.0524-18.48266z" fill="#b4403c"/></g><g><path d="m8.99408 14.87496.05239 18.48266.13928-.3558-.0524-18.48266z" fill="#a53636"/></g><g><path d="m7.29411 15.85643.0524 18.48267 1.69996-.98148-.05239-18.48266z" fill="#cb4844"/></g><g><path d="m6.67941 15.93594.0524 18.48266.6147-.0795-.0524-18.48267z" fill="#b4403c"/></g><g><path d="m6.54014 16.29174.0524 18.48266.13927-.3558-.0524-18.48266z" fill="#a53636"/></g><g><path d="m4.84118 17.27263.0524 18.48267 1.69896-.9809-.0524-18.48266z" fill="#cb4844"/></g><g><path d="m4.2245 17.35216.0524 18.48266.61668-.07952-.0524-18.48267z" fill="#b4403c"/></g><g><path d="m4.0862 17.70852.0524 18.48266.1383-.35636-.0524-18.48266z" fill="#a53636"/></g><g><path d="m2.32937 18.6453.0524 18.48266.06692.03889-.0524-18.48266z" fill="#b4403c"/></g><g><path d="m4.14555 17.30627-.14537.37439-1.67081.96464.06692.03889 1.68991-.97567.1383-.35636.61668-.07953 1.69896-.98089.13927-.3558.6147-.07951 1.69997-.98147.13927-.3558.6147-.07951 1.69896-.98089.1383-.35637.61668-.07952 1.69895-.98089.1383-.35637.61668-.07952 1.69997-.98147.13729-.35579.61668-.07952 1.69996-.98148.13827-.35521.6147-.07951 1.70097-.98206.13827-.35522.6147-.0795 1.69996-.98148.13729-.35578.61668-.07952 1.69997-.98148.13829-.35636.61568-.07894 1.69997-.98148.13829-.35637.61568-.07894 1.68991-.97567-.06692-.03889-1.6698.96406-.64782.08356-.14637.37497-1.65975.95826-.64782.08356-.14637.37496-1.65975.95826-.64882.08414-.14536.37438-1.65976.95826-.64678.08416-.1464.37378-1.66075.95884-.64679.08416-.14639.37378-1.65975.95826-.64882.08414-.14537.37438-1.66075.95884-.64782.08356-.14537.37439-1.66075.95883-.64781.08356-.14537.37439-1.66076.95883-.64578.08358-.1464.37379-1.66175.95941-.64579.08358-.14639.37379-1.66076.95884z" fill="#cb4844"/></g><g><path d="m2.39629 18.68419.0524 18.48266 1.68991-.97567-.0524-18.48266z" fill="#cb4844"/></g></g></g></g><g><path d="m19.54928 29.86516.0524 17.2111-17.23421-9.95018-.03889-17.20374z" fill="#ee5550"/></g><g><path d="m10.96513 24.90887.0524 17.1739-.28842-.16608-.03888-17.16653z" fill="#b4403c"/></g><g><g><path d="m19.54928 31.01621-.00809 2.85297-.82701-.91357.00562-1.65011z" fill="#dde4e7"/></g><g><path d="m19.54928 42.8237-.00809 2.85296-.82701-.91357.00562-1.6501z" fill="#dde4e7"/></g></g><g><g><path d="m2.32858 21.54622.00916 2.82434.77873.30184-.00618-1.63491z" fill="#dde4e7"/></g><g><path d="m2.33495 33.18652.00916 2.82433.77873.30185-.00619-1.63491z" fill="#dde4e7"/></g></g><g><g><g enable-background="new"><g><path d="m17.89731 31.29715.25419-.14773-.0026.92078-.2542.14773z" fill="#b4403c"/></g><g><path d="m11.6761 27.70533.2542-.14772 6.2212 3.59181-.25419.14773z" fill="#f17572"/></g><g><path d="m17.89731 31.29715-.00261.92078-6.22121-3.59182.00261-.92078z" fill="#cb4844"/></g></g></g><g><g enable-background="new"><g><path d="m17.89731 35.32837.25419-.14772-.0026.92078-.2542.14772z" fill="#b4403c"/></g><g><path d="m11.6761 31.73656.2542-.14773 6.2212 3.59182-.25419.14772z" fill="#f17572"/></g><g><path d="m17.89731 35.32837-.00261.92078-6.22121-3.59181.00261-.92078z" fill="#cb4844"/></g></g></g><g><g enable-background="new"><g><path d="m17.89731 39.3596.25419-.14773-.0026.92078-.2542.14773z" fill="#b4403c"/></g><g><path d="m11.6761 35.76778.2542-.14772 6.2212 3.59181-.25419.14773z" fill="#f17572"/></g><g><path d="m17.89731 39.3596-.00261.92078-6.22121-3.59182.00261-.92078z" fill="#cb4844"/></g></g></g><g><g enable-background="new"><g><path d="m17.89731 43.39082.25419-.14772-.0026.92078-.2542.14772z" fill="#b4403c"/></g><g><path d="m11.6761 39.79901.2542-.14773 6.2212 3.59182-.25419.14772z" fill="#f17572"/></g><g><path d="m17.89731 43.39082-.00261.92078-6.22121-3.59182.00261-.92077z" fill="#cb4844"/></g></g></g></g><g><g><g enable-background="new"><g><path d="m9.71662 26.86808.2542-.14773-.00261.92078-.2542.14773z" fill="#b4403c"/></g><g><path d="m3.49541 23.27626.2542-.14772 6.22121 3.59181-.2542.14773z" fill="#f17572"/></g><g><path d="m9.71662 26.86808-.00261.92078-6.22121-3.59182.00261-.92078z" fill="#cb4844"/></g></g></g><g><g enable-background="new"><g><path d="m9.71662 30.8993.2542-.14772-.00261.92078-.2542.14772z" fill="#b4403c"/></g><g><path d="m3.49541 27.30749.2542-.14773 6.22121 3.59182-.2542.14772z" fill="#f17572"/></g><g><path d="m9.71662 30.8993-.00261.92078-6.22121-3.59181.00261-.92078z" fill="#cb4844"/></g></g></g><g><g enable-background="new"><g><path d="m9.71662 34.93053.2542-.14773-.00261.92078-.2542.14772z" fill="#b4403c"/></g><g><path d="m3.49541 31.33871.2542-.14772 6.22121 3.59181-.2542.14773z" fill="#f17572"/></g><g><path d="m9.71662 34.93053-.00261.92077-6.22121-3.59181.00261-.92078z" fill="#cb4844"/></g></g></g><g><g enable-background="new"><g><path d="m9.71662 38.96175.2542-.14772-.00261.92077-.2542.14773z" fill="#b4403c"/></g><g><path d="m3.49541 35.36993.2542-.14772 6.22121 3.59182-.2542.14772z" fill="#f17572"/></g><g><path d="m9.71662 38.96175-.00261.92078-6.22121-3.59182.00261-.92078z" fill="#cb4844"/></g></g></g></g><g><g><g><g enable-background="new"><g><path d="m49.19285 11.45638-.00463 1.32844-30.19254 17.54599.00462-1.32844z" fill="#a53636"/></g><g><path d="m19.0003 29.00237-.00462 1.32844-18.21543-10.51668.00462-1.32845z" fill="#b4403c"/></g><g><path d="m49.19285 11.45638-30.19255 17.54599-18.21543-10.51669 30.19255-17.54599z" fill="#f17572"/></g></g></g><g><g><g enable-background="new"><g><path d="m2.01287 19.24936-.00353 1.08817-.15058.08751.00352-1.08817z" fill="#a53636"/></g><g><path d="m1.86228 19.33687-.00352 1.08817-1.07389-.62001.00353-1.08817z" fill="#cb4844"/></g><g><path d="m1.32447 19.27475c.15246.08802.27536.3008.27487.47607-.0005.17513-.12421.24566-.27666.15764s-.27536-.30094-.27487-.47607c.0005-.17526.12421-.24566.27666-.15764z" fill="#40545d"/></g><g><path d="m2.01287 19.24936-.15059.08751-1.07388-.62001.15058-.08751z" fill="#f17572"/></g></g></g></g><g><g><g><g enable-background="new"><g><path d="m19.17216 28.99578.00352 1.08818.15059.08751-.00353-1.08817z" fill="#cb4844"/></g><g><path d="m19.32274 29.0833.00353 1.08817 1.07389-.62001-.00353-1.08817z" fill="#b4403c"/></g><g><path d="m19.86055 29.02118c-.15246.08802-.27536.3008-.27487.47607.0005.17513.12421.24566.27666.15764s.27536-.30094.27487-.47607c-.00049-.17527-.1242-.24566-.27666-.15764z" fill="#40545d"/></g><g><path d="m19.17216 28.99578.15058.08752 1.07389-.62001-.15059-.08751z" fill="#f17572"/></g></g></g></g><g><g><g enable-background="new"><g><path d="m47.99175 12.26788.00353 1.08817.15059.08752-.00353-1.08818z" fill="#cb4844"/></g><g><path d="m48.14234 12.35539.00353 1.08818 1.07388-.62001-.00353-1.08818z" fill="#b4403c"/></g><g><path d="m48.68015 12.29327c-.15246.08802-.27536.3008-.27487.47607.0005.17513.12421.24567.27666.15765s.27536-.30094.27486-.47607c-.00049-.17527-.1242-.24567-.27665-.15765z" fill="#40545d"/></g><g><path d="m47.99175 12.26788.15059.08751 1.07388-.62001-.15058-.08751z" fill="#f17572"/></g></g></g></g></g></g><g><g enable-background="new"><g><path d="m20.25321 28.08961-.00412.20192-1.24472.72336.00411-.20193z" fill="#a53636"/></g><g><path d="m19.00848 28.81296-.00411.20193-1.25286-.72334.00411-.20193z" fill="#b4403c"/></g><g><path d="m20.25321 28.08961-1.24473.72335-1.25286-.72334 1.24473-.72335z" fill="#cb4844"/></g></g></g><g><g enable-background="new"><g><path d="m3.28656 18.28866-.00411.20193-1.24472.72335.00411-.20193z" fill="#a53636"/></g><g><path d="m2.04184 19.01201-.00411.20193-1.25286-.72334.00411-.20192z" fill="#b4403c"/></g><g><path d="m3.28656 18.28866-1.24472.72335-1.25286-.72333 1.24473-.72336z" fill="#cb4844"/></g></g></g><g><g enable-background="new"><g><path d="m32.23314 1.4611-.00411.20193-1.24473.72335.00412-.20192z" fill="#a53636"/></g><g><path d="m30.98842 2.18446-.00412.20192-1.25286-.72333.00412-.20193z" fill="#b4403c"/></g><g><path d="m32.23314 1.4611-1.24472.72336-1.25286-.72334 1.24472-.72336z" fill="#cb4844"/></g></g></g><g><g enable-background="new"><g><path d="m49.19486 11.26026-.00412.20193-1.24472.72335.00411-.20193z" fill="#a53636"/></g><g><path d="m47.95013 11.98361-.00411.20193-1.25286-.72334.00412-.20193z" fill="#b4403c"/></g><g><path d="m49.19486 11.26026-1.24473.72335-1.25285-.72334 1.24472-.72335z" fill="#cb4844"/></g></g></g></g><g><g><g enable-background="new"><g><path d="m18.67817 29.1024-.00353 1.08817-1.07388-.62001.00352-1.08817z" fill="#cb4844"/></g></g></g><g><path d="m18.82876 29.01489-.00353 1.08817-.15059.08751.00353-1.08817z" fill="#a53636"/></g><g><path d="m18.82876 29.01489-.15059.08751-1.07389-.62001.15059-.08751z" fill="#f17572"/></g><g><path d="m18.14036 29.04028c.15246.08802.27536.3008.27487.47607-.0005.17513-.12421.24566-.27666.15764-.15246-.08802-.27536-.30094-.27487-.47607.0005-.17526.12421-.24566.27666-.15764z" fill="#40545d"/></g></g><g><g><g enable-background="new"><g><path d="m18.82876 47.94631-.00353 1.08817-.15059.08752.00353-1.08818z" fill="#a53636"/></g><g><path d="m18.67817 48.03382-.00353 1.08818-1.07388-.62001.00352-1.08818z" fill="#cb4844"/></g><g><path d="m18.14036 47.97171c.15246.08802.27536.3008.27487.47607-.0005.17513-.12421.24567-.27666.15765-.15246-.08802-.27536-.30094-.27487-.47607.0005-.17528.12421-.24567.27666-.15765z" fill="#40545d"/></g><g><path d="m18.82876 47.94631-.15059.08751-1.07389-.62001.15059-.08751z" fill="#f17572"/></g></g></g><g><g enable-background="new"><g><path d="m2.01287 38.18078-.00353 1.08818-.15058.08751.00352-1.08817z" fill="#a53636"/></g><g><path d="m1.86228 38.2683-.00352 1.08817-1.07389-.62001.00353-1.08818z" fill="#cb4844"/></g><g><path d="m1.32447 38.20618c.15246.08802.27536.3008.27487.47607-.0005.17513-.12421.24567-.27666.15765s-.27536-.30094-.27487-.47607c.0005-.17528.12421-.24567.27666-.15765z" fill="#40545d"/></g><g><path d="m2.01287 38.18078-.15059.08752-1.07388-.62002.15058-.0875z" fill="#f17572"/></g></g></g></g><g><g><g><g enable-background="new"><g><path d="m5.64988 39.19638-.00178.11427c-.00019.06807-.04495.13603-.13435.18799-.17996.10458-.47247.10458-.65361 0-.09115-.05262-.13668-.12167-.13648-.19062l.00178-.11427c-.00019.06894.04533.13799.13648.19062.18113.10458.47365.10458.65361 0 .0894-.05196.13416-.11992.13435-.18799z" fill="#b0b8bc"/></g><g><path d="m5.51341 39.00576c.18113.10458.18208.27402.00212.3786s-.47248.10458-.65361 0-.1821-.27401-.00214-.37859.4725-.10459.65363-.00001z" fill="#dde4e7"/></g></g></g><g><g enable-background="new"><g><path d="m5.38715 22.01649-.00077 17.11984c-.00008.02945-.01945.05886-.05813.08134-.07786.04525-.20443.04525-.28281 0-.03944-.02277-.05914-.05265-.05905-.08248l.00077-17.11984c-.00008.02983.01961.05971.05905.08248.07837.04525.20494.04525.28281 0 .03868-.02248.05805-.05189.05813-.08134z" fill="#cfd8dd"/></g><g><path d="m5.3281 21.93401c.07837.04525.07878.11857.00092.16382-.07787.04525-.20443.04525-.28281 0-.07837-.04525-.07879-.11856-.00093-.16381s.20445-.04526.28282-.00001z" fill="#dde4e7"/></g></g></g><g><g enable-background="new"><g><path d="m5.64988 21.96009-.00178.11428c-.00019.06807-.04495.13603-.13435.18799-.17996.10458-.47247.10458-.65361 0-.09115-.05262-.13668-.12168-.13648-.19062l.00178-.11427c-.00019.06894.04533.13799.13648.19062.18113.10458.47365.10458.65361 0 .0894-.05196.13416-.11993.13435-.188z" fill="#b0b8bc"/></g><g><path d="m5.51341 21.76948c.18113.10458.18208.27402.00212.3786s-.47248.10457-.65361 0c-.18113-.10458-.1821-.27401-.00214-.37859s.4725-.10459.65363-.00001z" fill="#dde4e7"/></g></g></g></g><g><g><g enable-background="new"><g><path d="m8.35661 40.75909-.00178.11427c-.00019.06807-.04495.13603-.13435.18799-.17996.10458-.47247.10458-.65361 0-.09115-.05262-.13668-.12167-.13648-.19062l.00178-.11427c-.00019.06894.04533.13799.13648.19062.18113.10458.47365.10458.65361 0 .08941-.05196.13416-.11992.13435-.18799z" fill="#b0b8bc"/></g><g><path d="m8.22014 40.56847c.18113.10458.18208.27402.00212.3786s-.47248.10458-.65361 0-.1821-.27401-.00214-.37859c.17997-.10458.4725-.10459.65363-.00001z" fill="#dde4e7"/></g></g></g><g><g enable-background="new"><g><path d="m8.09389 23.5792-.00077 17.11984c-.00008.02945-.01945.05886-.05813.08134-.07786.04525-.20443.04525-.28281 0-.03944-.02277-.05914-.05265-.05905-.08248l.00077-17.11984c-.00008.02983.01961.05971.05905.08248.07837.04525.20494.04525.28281 0 .03868-.02248.05804-.05189.05813-.08134z" fill="#cfd8dd"/></g><g><path d="m8.03484 23.49672c.07837.04525.07878.11857.00092.16382-.07787.04525-.20443.04525-.28281 0-.07837-.04525-.07879-.11856-.00093-.16381s.20444-.04526.28282-.00001z" fill="#dde4e7"/></g></g></g><g><g enable-background="new"><g><path d="m8.35661 23.5228-.00178.11427c-.00019.06807-.04495.13603-.13435.18799-.17996.10458-.47247.10458-.65361 0-.09115-.05263-.13668-.12168-.13648-.19062l.00178-.11427c-.00019.06894.04533.13799.13648.19062.18113.10458.47365.10458.65361 0 .08941-.05195.13416-.11992.13435-.18799z" fill="#b0b8bc"/></g><g><path d="m8.22014 23.33219c.18113.10458.18208.27402.00212.3786s-.47248.10458-.65361 0-.1821-.27401-.00214-.37859c.17997-.10458.4725-.10459.65363-.00001z" fill="#dde4e7"/></g></g></g></g></g><g><g><g><g enable-background="new"><g><path d="m13.37844 43.74634-.00178.11427c-.00019.06807-.04495.13603-.13435.18799-.17996.10458-.47248.10457-.65361 0-.09115-.05262-.13668-.12167-.13648-.19062l.00178-.11427c-.00019.06895.04533.138.13648.19062.18113.10458.47365.10458.65361 0 .0894-.05196.13416-.11992.13435-.18799z" fill="#b0b8bc"/></g><g><path d="m13.24197 43.55573c.18113.10458.18208.27402.00212.3786s-.47248.10458-.65361 0-.1821-.27402-.00214-.3786c.17996-.10457.4725-.10458.65363 0z" fill="#dde4e7"/></g></g></g><g><g enable-background="new"><g><path d="m13.11571 26.56645-.00077 17.11984c-.00008.02945-.01945.05886-.05813.08134-.07786.04525-.20443.04525-.28281 0-.03944-.02277-.05914-.05265-.05905-.08248l.00077-17.11984c-.00008.02983.01961.05971.05905.08248.07837.04525.20494.04525.28281 0 .03868-.02248.05805-.05189.05813-.08134z" fill="#cfd8dd"/></g><g><path d="m13.05666 26.48397c.07837.04525.07878.11857.00092.16382s-.20443.04525-.28281 0c-.07837-.04525-.07879-.11856-.00093-.16381.07788-.04525.20445-.04526.28282-.00001z" fill="#dde4e7"/></g></g></g><g><g enable-background="new"><g><path d="m13.37844 26.51006-.00178.11427c-.00019.06807-.04495.13603-.13435.18799-.17996.10458-.47248.10457-.65361 0-.09115-.05263-.13668-.12168-.13648-.19062l.00178-.11427c-.00019.06894.04533.13799.13648.19062.18113.10458.47365.10458.65361 0 .0894-.05196.13416-.11992.13435-.18799z" fill="#b0b8bc"/></g><g><path d="m13.24197 26.31944c.18113.10458.18208.27402.00212.3786s-.47248.10458-.65361 0-.1821-.27402-.00214-.37859c.17996-.10458.4725-.10459.65363-.00001z" fill="#dde4e7"/></g></g></g></g><g><g><g enable-background="new"><g><path d="m16.08517 45.25317-.00178.11427c-.00019.06807-.04495.13603-.13435.18799-.17996.10458-.47248.10457-.65361 0-.09115-.05262-.13667-.12167-.13648-.19062l.00178-.11427c-.00019.06894.04533.13799.13648.19062.18113.10458.47365.10458.65361 0 .08941-.05196.13416-.11992.13435-.18799z" fill="#b0b8bc"/></g><g><path d="m15.9487 45.06255c.18113.10458.18208.27402.00212.3786s-.47248.10458-.65361 0-.1821-.27401-.00214-.37859c.17997-.10458.4725-.10459.65363-.00001z" fill="#dde4e7"/></g></g></g><g><g enable-background="new"><g><path d="m15.82245 28.07327-.00077 17.11984c-.00008.02945-.01945.05886-.05813.08134-.07786.04525-.20443.04525-.28281 0-.03944-.02277-.05914-.05265-.05905-.08248l.00077-17.11984c-.00008.02983.01961.05971.05905.08248.07837.04525.20494.04525.28281 0 .03868-.02248.05804-.05188.05813-.08134z" fill="#cfd8dd"/></g><g><path d="m15.7634 27.9908c.07837.04525.07878.11856.00092.16382-.07786.04525-.20443.04525-.28281 0-.07837-.04525-.07879-.11856-.00093-.16381s.20444-.04526.28282-.00001z" fill="#dde4e7"/></g></g></g><g><g enable-background="new"><g><path d="m16.08517 28.01688-.00178.11427c-.00019.06807-.04495.13603-.13435.18799-.17996.10458-.47248.10457-.65361 0-.09115-.05263-.13667-.12168-.13648-.19062l.00178-.11427c-.00019.06894.04533.13799.13648.19062.18113.10458.47365.10458.65361 0 .08941-.05195.13416-.11992.13435-.18799z" fill="#b0b8bc"/></g><g><path d="m15.9487 27.82627c.18113.10458.18208.27402.00212.3786s-.47248.10457-.65361 0c-.18113-.10458-.1821-.27401-.00214-.37859.17997-.10458.4725-.10459.65363-.00001z" fill="#dde4e7"/></g></g></g></g></g></g></svg>