<svg id="Layer_1" enable-background="new 0 0 52 52" height="512" viewBox="0 0 52 52" width="512" xmlns="http://www.w3.org/2000/svg"><g><g><g><g><g enable-background="new"><g><path d="m1.89703 23.10421.00336 1.18589 27.88905 16.33371-.00336-1.18589z" fill="#525566"/></g><g><path d="m29.78608 39.43792.00336 1.18589 20.31353-11.72803-.00336-1.18588z" fill="#474b59"/></g><g><path d="m1.89703 23.10421 27.88905 16.33371 20.31353-11.72802-27.88905-16.33371z" fill="#474b59"/></g></g></g><g><g><path d="m20.88242 12.14299 27.88905 16.33371.7756-.44779-27.88905-16.33371z" fill="#e0e2e2"/></g><g><path d="m2.83657 22.56177 27.88905 16.33371.7756-.44779-27.88905-16.33371z" fill="#e0e2e2"/></g></g></g><g><g><g><g enable-background="new"><g><g><g><path d="m35.95578 32.30409c.03302-.01869.07787-.0162.12832.01246.09967.05793.18003.19684.1794.31084 0 .0573-.01993.09718-.05232.11586l.08951-.05188c.03239-.01869.05232-.05918.05232-.11586.00063-.11462-.07973-.25353-.1794-.31084-.04983-.02866-.0953-.03177-.12832-.01246z" fill="#5b5e71"/></g></g></g><g><g><g><path d="m36.08406 32.31683c-.09943-.0574-.18042-.0117-.18075.10255-.00032.11471.08015.25409.17958.3115.09943.0574.18042.01125.18075-.10346.00033-.11426-.08015-.25318-.17958-.31059z" fill="#474b59"/></g></g></g><g><g><g><path d="m36.08397 32.35185c-.0826-.04769-.1499-.00972-.15017.0852-.00027.0953.06659.2111.14919.25879.0826.0477.1499.00935.15017-.08596.00027-.09492-.06659-.21034-.14919-.25803z" fill="#3498db"/></g></g></g><g><g><g><path d="m36.08397 32.35185c-.0826-.04769-.1499-.00972-.15017.0852-.00027.0953.06659.2111.14919.25879.0826.0477.1499.00935.15017-.08596.00027-.09492-.06659-.21034-.14919-.25803z" fill="#fff"/></g></g></g></g></g><g><g enable-background="new"><g><g><g><path d="m36.02687 30.56547c-.0419.02419-.04174.06384-.00011.08804.04124.02397.1097.02419.1516 0 .04229-.02442.04213-.06407.00089-.08803-.04164-.0242-.11009-.02442-.15238-.00001z" fill="#ecf0f1"/></g></g></g></g></g><g><g><g><path d="m36.07322 32.51748c-.01684-.00972-.03055-.00198-.03061.01737-.00005.01942.01357.04303.03041.05275s.03056.0019.03061-.01752c.00006-.01934-.01356-.04287-.03041-.0526z" fill="#5b5e71"/></g></g></g></g><g><g enable-background="new"><g><g><g><path d="m35.89668 30.81754.00946 1.75604c.00004.01466.00965.02931.02877.04042.03795.02205.10093.02226.13949 0 .01958-.01131.02927-.02616.02923-.04094l-.00947-1.75604c.00004.01478-.00965.02963-.02923.04094-.03856.02226-.10154.02205-.13949 0-.0191-.01111-.02872-.02576-.02876-.04042z" fill="#e0e2e2"/></g></g></g><g><g><g><path d="m35.92556 30.77696c-.03856.02226-.03841.05874-.0001.081.03795.02205.10093.02226.13949 0 .03891-.02247.03876-.05895.00081-.081-.03831-.02226-.10129-.02247-.1402 0z" fill="#ecf0f1"/></g></g></g></g></g><g><g><g><g><path d="m23.50426 28.54309c0 .11542.03995.19679.10654.23527l2.43666 1.41414c-.06659-.03699-.10654-.11837-.10802-.23378 0-.23378.16425-.51639.36547-.63329.1021-.05918.19531-.06362.26189-.02515l-2.43665-1.41562c-.06659-.03847-.1598-.03256-.26042.02663-.2027.11689-.36694.39951-.36547.6318z" fill="#fff"/></g><g><path d="m26.30531 29.32572c-.20216.11672-.36601.39942-.36535.63281.00066.23122.16557.32628.36774.20956s.366-.40159.36535-.63281c-.00066-.23338-.16557-.32628-.36774-.20956z" fill="#416e84"/></g></g><path d="m25.28096 29.71502c0 .15159.05288.25735.13924.30846l1.00822.58696c-.08637-.04935-.13925-.15511-.14101-.30669 0-.30669.21503-.67685.47766-.8302.13396-.07755.25558-.08284.34371-.03172l-1.00821-.58871c-.08638-.05112-.208-.04231-.3402.03524-.26613.15158-.48118.52173-.47941.82666z" fill="#f1c40f"/><path d="m26.28741 30.30374c.00175.30317.2168.42655.48119.2732.26616-.15158.47943-.52526.47943-.82843-.00175-.30493-.2168-.42655-.48119-.2732-.26616.15158-.47943.52174-.47943.82843z" fill="#c6a51a"/><path d="m26.95788 29.64524c0-.04936-.00706-.09342-.02291-.13043.13572-.00882.2309.09518.23267.28025 0 .25205-.17803.56404-.39835.68919-.17626.10222-.32609.05639-.37897-.09519.05112 0 .10752-.01762.16745-.05288.22208-.1269.40011-.43713.40011-.69094z" fill="#f1c40f"/><path d="m26.76751 29.56768c.05993-.03349.11633-.05112.16745-.05288.01586.03701.02291.08107.02291.13043 0 .25382-.17803.56404-.40012.69094-.05993.03526-.11633.05288-.16745.05288-.01409-.03701-.02291-.08107-.02291-.1322.00001-.25557.17803-.56227.40012-.68917z" fill="#474b59"/></g><g><g><g><path d="m19.8201 28.97677c0 .11542.03995.19679.10654.23527l2.43666 1.41414c-.06659-.03699-.10654-.11837-.10802-.23378 0-.23378.16425-.51639.36547-.63329.1021-.05918.19531-.06362.26189-.02515l-2.43665-1.41562c-.06659-.03847-.1598-.03256-.26042.02663-.2027.11689-.36694.39951-.36547.6318z" fill="#fff"/></g><g><path d="m22.62115 29.7594c-.20216.11672-.36601.39942-.36535.63281.00066.23122.16557.32628.36774.20956s.366-.40159.36535-.63281c-.00066-.23338-.16557-.32628-.36774-.20956z" fill="#416e84"/></g></g><path d="m21.5968 30.1487c0 .15159.05288.25735.13924.30846l1.00822.58696c-.08637-.04935-.13926-.15511-.14101-.30669 0-.30669.21503-.67685.47766-.8302.13396-.07756.25558-.08284.34371-.03173l-1.00821-.58871c-.08638-.05112-.208-.04231-.3402.03524-.26613.1516-.48118.52174-.47941.82667z" fill="#f1c40f"/><path d="m22.60325 30.73742c.00175.30317.2168.42655.48119.2732.26616-.15158.47943-.52526.47943-.82843-.00175-.30493-.2168-.42655-.48119-.2732-.26616.15158-.47943.52174-.47943.82843z" fill="#c6a51a"/><path d="m23.27372 30.07891c0-.04936-.00706-.09342-.02291-.13043.13572-.00882.2309.09518.23267.28025 0 .25205-.17803.56404-.39835.68919-.17626.10222-.32609.05639-.37897-.09519.05112 0 .10752-.01762.16745-.05288.22208-.12689.40011-.43712.40011-.69094z" fill="#f1c40f"/><path d="m23.08335 30.00136c.05993-.03349.11633-.05112.16745-.05288.01586.03701.02291.08107.02291.13043 0 .25382-.17803.56404-.40012.69094-.05993.03525-.11633.05288-.16745.05288-.01409-.03701-.02291-.08107-.02291-.1322.00001-.25557.17803-.56227.40012-.68917z" fill="#474b59"/></g><g><g><g><path d="m30.88426 23.36822c0 .11542.03995.19679.10654.23527l2.43666 1.41414c-.06659-.03699-.10654-.11837-.10802-.23378 0-.23378.16425-.51639.36547-.63329.1021-.05918.19531-.06362.26189-.02515l-2.43665-1.41562c-.06659-.03847-.1598-.03256-.26042.02663-.20271.11689-.36695.39951-.36547.6318z" fill="#d4dae8"/></g><g><path d="m33.68531 24.15085c-.20216.11672-.36601.39942-.36535.63281.00066.23122.16557.32628.36774.20956.20216-.11672.366-.40159.36535-.63281-.00067-.23339-.16558-.32628-.36774-.20956z" fill="#416e84"/></g></g><path d="m32.66095 24.54015c0 .15159.05288.25735.13924.30846l1.00822.58696c-.08637-.04935-.13926-.15511-.14101-.30669 0-.30669.21503-.67685.47766-.8302.13396-.07756.25558-.08284.34371-.03173l-1.00821-.58871c-.08638-.05112-.208-.04231-.3402.03524-.26613.15159-.48117.52174-.47941.82667z" fill="#f1c40f"/><path d="m33.66741 25.12887c.00175.30317.2168.42655.48119.2732.26616-.15158.47943-.52526.47943-.82843-.00175-.30493-.2168-.42655-.48119-.2732-.26616.15157-.47943.52173-.47943.82843z" fill="#c6a51a"/><path d="m34.33788 24.47036c0-.04936-.00706-.09342-.02291-.13043.13572-.00882.2309.09518.23267.28025 0 .25205-.17802.56404-.39835.68919-.17626.10222-.32609.05639-.37897-.09519.05112 0 .10752-.01762.16745-.05288.22208-.1269.40011-.43712.40011-.69094z" fill="#f1c40f"/><path d="m34.14751 24.39281c.05993-.03349.11633-.05112.16745-.05288.01586.03701.02291.08107.02291.13043 0 .25382-.17803.56404-.40012.69094-.05993.03525-.11633.05288-.16745.05288-.01409-.03701-.02291-.08107-.02291-.1322 0-.25558.17803-.56227.40012-.68917z" fill="#474b59"/></g><g><path d="m33.32639 21.66999c0 .15159.05288.25735.13924.30846l1.00822.58696c-.08637-.04935-.13926-.15511-.14101-.30669 0-.30669.21503-.67685.47766-.8302.13396-.07755.25558-.08284.34371-.03172l-1.00821-.58871c-.08638-.05112-.208-.04231-.34019.03524-.26614.15158-.48119.52173-.47942.82666z" fill="#f1c40f"/><path d="m34.33285 22.25871c.00175.30317.2168.42655.48119.2732.26616-.15158.47943-.52526.47943-.82843-.00175-.30493-.2168-.42655-.48119-.2732-.26616.15158-.47943.52173-.47943.82843z" fill="#c6a51a"/><path d="m35.00331 21.6002c0-.04936-.00706-.09342-.02291-.13043.13571-.00882.2309.09518.23267.28025 0 .25205-.17803.56404-.39835.68919-.17626.10222-.32609.05639-.37897-.09519.05112 0 .10752-.01762.16745-.05288.22208-.12689.40011-.43712.40011-.69094z" fill="#f1c40f"/><path d="m34.81294 21.52265c.05994-.03349.11633-.05112.16745-.05288.01586.03701.02291.08107.02291.13043 0 .25382-.17803.56404-.40012.69094-.05993.03525-.11633.05288-.16745.05288-.0141-.03701-.02291-.08107-.02291-.1322.00001-.25557.17803-.56227.40012-.68917z" fill="#474b59"/></g></g><path d="m25.08732 25.76597-.07736.09862-.19014-.11457v-.14644z" fill="#c14242"/><path d="m28.68402 24.01752 1.06305-.79313c.47952-.35776.90339-.78458 1.25783-1.26656l3.33411-4.53386.83378.53799c.14674.1024.18366.27029.15687.47619-.01271.09768-.04194.19249-.07994.28337l-3.0711 7.3455z" fill="#c14242"/><path d="m28.60591 23.93946 1.06305-.79313c.47952-.35776.90339-.78458 1.25783-1.26656l3.33411-4.53386.83378.53799c.14674.1024.18366.27029.15687.47619-.01271.09768-.04194.19249-.07994.28337l-3.0711 7.3455z" fill="#e74c3c"/><g><path d="m38.58371 31.57749c-.01444-.05437-.03513-.11421-.06049-.1778-.06574.38937-.70098.31939-.70098.31939-2.23327-.04606-3.85303-1.13967-3.85303-1.13967l-4.7506-2.78894-4.47543-2.58641s-.37438-.19191-2.238-1.42901c-1.86363-1.23652-3.74616-3.35996-3.74616-3.35996l-2.72635-2.71041c-.20453-.15136-.33103-.28055-.40828-.38776-.00297.0041-.00618.00788-.00889.01232 0 0-.20137.26041.49365.77474l2.72635 2.71041s1.88253 2.12345 3.74616 3.35996c1.86362 1.23711 2.238 1.42902 2.238 1.42902l4.47542 2.5864 4.75059 2.78895s1.61976 1.0936 3.85303 1.13967c.00003-.00001.85331.09448.68501-.5409z" fill="#e74c3c"/><path d="m16.03268 17.70467 2.72635 2.71041s1.88253 2.12345 3.74616 3.35996c1.86362 1.2371 2.238 1.42901 2.238 1.42901l4.47543 2.58641 4.7506 2.78894s1.61976 1.09361 3.85303 1.13967c0 0 .63524.06998.70098-.31939-.0223-.05588-.04812-.11459-.07769-.17591-.32831-.68203-1.07471-1.66758-1.52291-2.0768-.53441-.48835-1.8713-1.54889-4.82204-3.15801l-3.49459-2.04964-4.21914-2.43995-4.14002-2.2752-3.768-1.77565s-.67199-.38316-.85441-.1316c.07722.10721.20373.23639.40825.38775z" fill="#ecf0f1"/></g><path d="m37.89871 32.1184c-.15765-.78833.54683-.89462.54683-.89462.06319.13109.10991.25186.13817.35372.18182.6554-.6778.55158-.685.5409z" fill="#3f434f"/><path d="m17.71549 19.65905s-4.64491.37025-5.1055.38914c-.4606.01948-1.2371-.57574-1.2371-.57574l4.73642-1.26722s1.53 1.11014 1.69592 1.25777c.16594.14762-.08974.19605-.08974.19605z" fill="#c14242"/><path d="m17.86075 19.45939v.09802s-1.05878.12106-1.07355.12106c-.01535 0-1.4302.13227-1.4302.13227s-1.18396.0992-1.19104.0992c-.00709 0-1.46622.09389-1.46622.09389l-.30824-.06613-.27931-.07027-.73931-.39504v-.10098z" fill="#c14242"/><path d="m17.71549 19.55801s-4.64491.37025-5.1055.38914c-.4606.01948-1.2371-.57574-1.2371-.57574l4.73642-1.26722s1.53 1.11014 1.69592 1.25777c.16594.14763-.08974.19605-.08974.19605z" fill="#e74c3c"/><path d="m17.89183 16.26927.98269-1.24535s.98912.4236.94346.7573-.6582 2.4557-.6582 2.4557z" fill="#c14242"/><path d="m19.81944 15.75871-.21495-.01653s-.25982-.22085-.25982-.22675c0-.00532.24387-.1683.36966-.02304.12636.14527.10511.26632.10511.26632z" fill="#c14242"/><path d="m17.82761 16.1295.98269-1.24535s.98912.4236.94346.7573-.6582 2.4557-.6582 2.4557z" fill="#e74c3c"/><g><path d="m34.91076 30.90093c-.00098 0-.00195-.00049-.00293-.00049-.03711-.00293-.25293-.10449-.25-.17822.00293-.03809.0127-.14063.02148-.22168.00977-.09521.03613-.18506.07715-.2666.03711-.07129.07422-.10742.10938-.10742.00293 0 .00488 0 .00781.00049.06934.00977.2041.06934.24902.13818.01465.02148.01855.04199.01367.06152l-.00488-.00146.00488.00146c-.00879.03125-.02734.07715-.0498.13037-.03711.09131-.08398.20508-.09766.29443-.01074.06836-.03222.14942-.07812.14942zm-.04492-.76465c-.03125 0-.06543.03516-.09961.10254-.04102.08008-.06738.16846-.07715.2627-.00879.08105-.01855.18359-.02148.22119-.00293.06201.19922.16406.24023.16797h.00293c.0293 0 .05469-.05078.06836-.14111s.06055-.20459.09863-.2959c.02148-.05322.04004-.09863.04883-.12988.00488-.01611.00098-.03418-.01172-.05322-.04395-.06641-.1748-.12451-.24316-.13379-.00196-.00001-.00391-.0005-.00586-.0005z" fill="#d4d6d6"/></g><g><path d="m20.98498 22.38091c-.00098 0-.00195 0-.00293 0-.03809-.00293-.25391-.10449-.25-.17871.00098-.0293.00781-.0957.01465-.16016l.00586-.06104c.01172-.09863.03809-.18848.07813-.2666.04004-.07715.0791-.11572.11719-.10693.06934.00977.2041.06934.24902.13818.01465.02148.01855.04199.01367.06152-.00879.03125-.02734.07666-.0498.12939-.03711.0918-.08496.20557-.09766.29492-.01075.06886-.03223.14943-.07813.14943zm-.04492-.76416c-.03125 0-.06543.03516-.09961.10254-.04102.07715-.06641.16553-.07813.2627l-.00586.06104c-.00684.06445-.0127.13086-.01465.16016-.00391.06201.19824.16406.24023.16797h.00293c.0293 0 .05469-.05127.06836-.14111.0127-.09033.06055-.20508.09863-.29688.02148-.05273.04004-.09814.04883-.12891.00488-.01611.00098-.03418-.01172-.05322-.04395-.06641-.1748-.12451-.24316-.13379-.00195-.00001-.0039-.0005-.00585-.0005z" fill="#d4d6d6"/></g><path d="m24.81991 25.75015s.43874.43568.29147.52772l-1.852.82589c-.41558.18533-.84943.32663-1.29445.42158l-7.01905 1.49767s.64846.83869 2.07965.6939c1.31751-.13329 10.78351-1.24496 12.27899-1.42072.10968-.01289.17228-.13261.11894-.22931-.0009-.00163-.00181-.00327-.00273-.00493-.12463-.22422-4.56749-2.42769-4.60082-2.3118z" fill="#c14242"/><path d="m29.44287 28.00398v.1488l-2.04313.29939-4.57582.49897-4.02132.50665-2.30237.2055-1.03044-.31769-.52377-.32241v-.14704z" fill="#c14242"/><path d="m24.81991 25.60349s.43874.43568.29147.52772l-1.852.82589c-.41558.18533-.84943.32663-1.29445.42158l-7.01905 1.49767s.64846.83869 2.07965.6939c1.31751-.13329 10.78351-1.24496 12.27899-1.42072.10968-.01289.17228-.13261.11894-.22931-.0009-.00163-.00181-.00327-.00273-.00493-.12463-.22423-4.56749-2.4277-4.60082-2.3118z" fill="#e74c3c"/><path d="m20.03143 19.16238c-.04605-.01181-.09388-.02422-.14231-.03898-.91232-.26513-2.19194-.9637-3.47628-1.6664l-1.1692-4.47719-.16416-.3295.06614-.04488.00118.00059c.04133.02302 1.37292.75997 1.64631 1.30618.06082.12165.14763.29349.24623.48776l.00059.00177c.35253.69561.85387 1.67762.85387 1.67762l1.29144 1.97465z" fill="#c14242"/><path d="m20.03143 19.16238-.06613.04488-.07618-.08386c.04842.01476.09626.02716.14231.03898z" fill="#c14242"/><path d="m19.96539 19.20698c-.91873-.22971-2.26649-.96498-3.6186-1.70537l-1.26722-4.85157s1.36996.75171 1.64751 1.30678c.27753.55507 1.10069 2.16714 1.10069 2.16714l1.29142 1.97464z" fill="#e74c3c"/><g><g fill="#3498db"><path d="m29.31237 27.00425.23325.14173-.06024.29466-.23324-.14173z"/><path d="m23.18472 23.27641.23325.14172-.06024.29466-.23324-.14172z"/><path d="m29.92472 27.37686.23383.14231-.06022.29467-.23385-.14232z"/><path d="m26.24883 25.14004.23326.1423-.06082.29466-.23325-.1423z"/><path d="m27.47413 25.88584.23326.14173-.06023.29466-.23384-.14173z"/><path d="m26.86119 25.51264.23325.14231-.06023.29467-.23325-.14232z"/><path d="m30.53766 27.74947.23384.14231-.06082.29466-.23325-.14231z"/><path d="m31.1506 28.12208.23325.1423-.06022.29466-.23385-.1423z"/><path d="m28.08649 26.25845.23383.14231-.06082.29466-.23325-.14231z"/><path d="m22.57177 22.9032.23385.14232-.06082.29467-.23384-.14233z"/><path d="m32.37589 28.86788.23325.14173-.06022.29466-.23324-.14173z"/><path d="m21.34648 22.158.23326.14171-.06083.29466-.23324-.14171z"/><path d="m25.02296 24.39482.23325.14172-.06023.29467-.23385-.14233z"/><path d="m34.44798 30.12802-.06083.29466-.23325-.14173.06083-.29466z"/><path d="m21.95884 22.5306.23383.14231-.06023.29467-.23384-.14232z"/><path d="m33.60119 29.6131.23385.1423-.06023.29466-.23384-.1423z"/><path d="m23.79767 23.64902.23325.14171-.06083.29466-.23326-.14171z"/><path d="m24.41001 24.02162.23384.14231-.06082.29467-.23325-.14232z"/><path d="m25.63531 24.76743.23383.14172-.06023.29466-.23383-.14172z"/><path d="m28.69942 26.63106.23326.1423-.06023.29466-.23326-.1423z"/><path d="m31.76355 28.49527.23325.14173-.06083.29466-.23324-.14173z"/><path d="m32.98884 29.24049.23384.14231-.06082.29466-.23325-.14231z"/></g></g><path d="m37.03271 31.04273c.0256.01493.05545.02559.08531.02559.18767.00853.88291.02772.94901-.11515.03916-.10923.04824-.22942.05076-.3048.00428.00706.00832.01307.0126.02019-.00214.07463-.01067.20046-.05119.31349-.0661.14288-.76134.12369-.94901.11515-.02986 0-.05972-.01065-.08531-.02559-.05757-.0384-.15781-.10877-.17488-.15355-.00265-.00532-.00308-.01146-.00398-.01729.02691.04466.11358.10652.16669.14196z" fill="#363a44"/><path d="m37.03848 30.7176c.24313.0064.71443.01491.79974-.00428.07463-.01493.10875-.17488.12368-.30496.01919.0256.03838.05119.05543.07891.03223.04926.06635.10469.10046.16108-.00251.07538-.0116.19557-.05076.3048-.0661.14287-.76134.12368-.94901.11515-.02986 0-.0597-.01065-.08531-.02559-.05311-.03543-.13977-.0973-.16669-.14195-.00053-.00353-.00161-.00641-.00241-.01044-.00427-.09594.0789-.17486.17487-.17272z" fill="#3f434f"/><g><path d="m16.47046 16.14919c0 .3722.26324.83516.59461 1.02579.3268.19066.59461.03632.59461-.34043.00454-.37672-.26327-.83971-.59007-1.03034-.33137-.18611-.59915-.03632-.59915.34498z" fill="#ecf0f1"/></g><g><g enable-background="new"><g><g><g><path d="m35.69314 32.45015c.03302-.01868.07787-.0162.12832.01246.09967.05793.18002.19684.1794.31084 0 .05731-.01994.09718-.05232.11586l.08951-.05188c.03239-.01869.05232-.05918.05232-.11586.00062-.11462-.07973-.25353-.1794-.31084-.04983-.02866-.09531-.03177-.12832-.01246z" fill="#5b5e71"/></g></g></g><g><g><g><path d="m35.82143 32.46289c-.09943-.0574-.18043-.0117-.18075.10255-.00032.11471.08015.25409.17958.3115s.18043.01125.18075-.10346c.00032-.11425-.08015-.25318-.17958-.31059z" fill="#474b59"/></g></g></g><g><g><g><path d="m35.82133 32.49791c-.08261-.0477-.1499-.00972-.15017.0852-.00027.0953.06659.2111.14919.25879.08261.04769.1499.00935.15017-.08596.00027-.09491-.06658-.21034-.14919-.25803z" fill="#3498db"/></g></g></g><g><g><g><path d="m35.82133 32.49791c-.08261-.0477-.1499-.00972-.15017.0852-.00027.0953.06659.2111.14919.25879.08261.04769.1499.00935.15017-.08596.00027-.09491-.06658-.21034-.14919-.25803z" fill="#fff"/></g></g></g></g></g><g><g><g><path d="m35.82094 32.63482c-.01684-.00972-.03056-.00198-.03061.01736-.00005.01943.01357.04303.03041.05275s.03056.0019.03061-.01752c.00006-.01935-.01357-.04287-.03041-.05259z" fill="#5b5e71"/></g></g></g></g></g><g><path d="m6.66523 20.86918 1.90728-1.10839 4.03707 2.33082-.0123 2.12872-1.90728 1.10839-4.03708-2.33083.01224-2.11641z" fill="#f1c40f"/><g><path d="m8.57251 19.7608 4.03708 2.33082-.01231 2.12872-1.90728 1.10838-4.03708-2.33082.01231-2.12872z" fill="#ecf0f1"/><g><g><g><path d="m12.60959 22.09161-.01231 2.12872-1.90728 1.10839.01231-2.12872z" fill="#d6b218"/></g><path d="m10.70231 23.2-.01231 2.12872-4.03708-2.33081.01231-2.12872z" fill="#e5bd13"/><g><g><path d="m6.91303 21.35242-.07915-.04569-.01123 1.4455.07981-.04014z" fill="#d6b218"/><path d="m6.90246 22.71209-.07981.04014v.00001l3.69881 2.13544.00067-.08584z" fill="#f1c40f"/><path d="m6.91303 21.35242-.01057 1.35967 3.61967 2.08975.01044-1.35967z" fill="#c6a51a"/><path d="m9.13851 22.79473-.00601.77423 1.1847.68395.00595-.77423z" fill="#ecf0f1"/></g></g><g><g><path d="m12.34135 22.58315.07914-.04569.01123 1.44549-.07981-.04013z" fill="#e5bd13"/><path d="m12.35191 23.94282.07981.04013v.00002l-1.55274.8964-.00067-.08584z" fill="#f1c40f"/><path d="m12.34135 22.58315.01056 1.35967-1.4736.85071-.01044-1.35967z" fill="#c6a51a"/></g></g><path d="m12.60959 22.09161-1.90728 1.10839-4.03708-2.33081 1.90728-1.10839z" fill="#f1c40f"/><g><path d="m8.5727 19.95666v.09054l1.40006.80861.07817-.04542z" fill="#eaaa42"/><path d="m7.00338 20.86869.07816.04512 1.49116-.86661v-.09054z" fill="#d6b218"/><path d="m9.97276 20.85581-1.40006-.80861-1.49116.86661 1.39996.80861z" fill="#e5bd13"/></g><g><path d="m10.2718 20.9373v.09054l1.7923 1.03439.07817-.04543z" fill="#eaaa42"/><path d="m8.70248 21.84934.07816.04511 1.49116-.86661v-.09054z" fill="#d6b218"/><path d="m12.0641 22.06223-1.7923-1.03439-1.49116.86661 1.7922 1.03439z" fill="#e5bd13"/></g></g><g><g><g><g><g><path d="m11.14496 23.94941.0628.11951-.03889.02246-.08583.04919z" fill="#3f434f"/></g></g></g><g><g><g><path d="m11.16887 24.09138.00067.23642-.04693.0271-.00067-.23642z" fill="#3f434f"/></g></g></g><g><g><g><path d="m11.402 24.21466.00014.05061-.32401.1871-.00014-.05061z" fill="#3f434f"/></g></g></g><g><g><g><path d="m11.99412 23.47323.00048.16845c.00015.0532-.03058.11497-.07138.14631l.00043.15183c.02862-.0132.05019-.01196.05024.00392l-.12633.07294c-.00004-.01588.02145-.04199.05005-.06183l-.00043-.15183c-.01865.00744-.03476.00564-.04734-.00227-.01484-.01104-.02456-.0317-.02464-.06125l-.00048-.16845z" fill="#3f434f"/></g></g></g><g><g><g><path d="m11.35659 23.98298.00067.23643-.04693.0271-.00067-.23643z" fill="#3f434f"/></g></g></g><g><g><g><path d="m11.333 23.84082.06248.1197-.03889.02246-.08551.049z" fill="#3f434f"/></g></g></g></g><g><g><g><g><path d="m11.64974 24.1787c-.00878-.00485-.01393-.01484-.01393-.02741l-.00136-.50585c-.0003-.02211.01545-.04922.03483-.06058l.43945-.25368c.0106-.00606.02135-.00681.02998-.00197.00863.005.01363.01514.01363.02787l.00151.50585c0 .02211-.01529.04922-.03407.06013l-.43945.25368c-.00606.00348-.01227.0053-.01802.0053-.00455-.00001-.00879-.00107-.01257-.00334zm.46837-.83147-.43945.25368c-.01363.00788-.02574.02908-.02574.04453l.00136.50585c.00015.0056.00182.00969.00454.01136.00288.00121.00712.00091.01211-.00197l.43945-.25368c.01333-.00772.02499-.02832.02499-.04407l-.00151-.50585c0-.00575-.00167-.01015-.00439-.01181-.00091-.00045-.00197-.00076-.00318-.00076-.00228-.00001-.00515.0009-.00818.00272z" fill="#3f434f"/></g></g></g><g><g><g><path d="m10.99526 24.55627c-.00863-.005-.01348-.01499-.01348-.02726l-.00136-.50585c-.0003-.02226.01545-.04953.03483-.06058l.43945-.25383c.0106-.00621.0212-.00697.02998-.00182.00878.005.01363.01514.01363.02772l.00151.506c0 .02257-.01499.04907-.03422.06013l-.43945.25368c-.00591.00348-.01211.00515-.01787.00515-.0047-.00001-.00909-.00107-.01302-.00334zm.46882-.83147-.43945.25383c-.01363.00788-.02574.02893-.02574.04453l.00136.50585c0 .00545.00167.00954.00439.01121.00288.00136.00742.00091.01227-.00182l.4393-.25368c.01333-.00772.02514-.02832.02514-.04407l-.00151-.506c0-.00575-.00167-.01-.00439-.01166-.00091-.00045-.00212-.00076-.00333-.00076-.00228-.00001-.00501.0009-.00804.00257z" fill="#3f434f"/></g></g></g></g></g></g><g><g enable-background="new"><g><path d="m9.23145 23.52994-.00007.02494.98048.56608.00007-.02494z" fill="#b0b3bd"/></g><g><path d="m9.23166 23.45512-.00007.02494.98048.56608.00007-.02494z" fill="#b0b3bd"/></g><g><path d="m9.23188 23.38031-.00008.02494.98048.56607.00007-.02493z" fill="#b0b3bd"/></g><g><path d="m9.23209 23.30551-.00007.02492.98047.56608.00007-.02492z" fill="#b0b3bd"/></g><g><path d="m9.2323 23.2307-.00007.02494.98048.56607.00007-.02493z" fill="#b0b3bd"/></g><g><path d="m9.23251 23.15588-.00007.02494.98048.56608.00007-.02494z" fill="#b0b3bd"/></g><g><path d="m9.23272 23.08106-.00007.02494.98048.56608.00007-.02494z" fill="#b0b3bd"/></g><g><path d="m9.23294 23.00624-.00007.02495.98047.56607.00007-.02494z" fill="#b0b3bd"/></g><g><path d="m9.23315 22.93145-.00007.02494.98047.56608.00007-.02494z" fill="#b0b3bd"/></g></g></g><path d="m6.98642 22.239-.00329.42314.64749.37381.00325-.42315z" fill="#ecf0f1"/><g><g enable-background="new"><g><path d="m7.03721 22.64082-.00004.01363.53587.30938.00004-.01363z" fill="#b0b3bd"/></g><g><path d="m7.03733 22.59993-.00004.01363.53587.30938.00004-.01363z" fill="#b0b3bd"/></g><g><path d="m7.03744 22.55904-.00004.01363.53587.30938.00004-.01363z" fill="#b0b3bd"/></g><g><path d="m7.03756 22.51816-.00004.01362.53587.30938.00004-.01362z" fill="#b0b3bd"/></g><g><path d="m7.03767 22.47727-.00003.01363.53586.30938.00004-.01363z" fill="#b0b3bd"/></g><g><path d="m7.03779 22.43638-.00004.01363.53587.30938.00004-.01363z" fill="#b0b3bd"/></g><g><path d="m7.03791 22.39549-.00004.01363.53587.30938.00004-.01363z" fill="#b0b3bd"/></g><g><path d="m7.03802 22.3546-.00004.01363.53587.30938.00004-.01363z" fill="#b0b3bd"/></g><g><path d="m7.03814 22.31372-.00004.01363.53587.30938.00004-.01363z" fill="#b0b3bd"/></g></g></g></g></g></g></svg>