<svg id="Layer_1" enable-background="new 0 0 50 50" height="512" viewBox="0 0 50 50" width="512" xmlns="http://www.w3.org/2000/svg"><g><g><g><g enable-background="new"><g><path d="m15.96096 10.51072 31.89983 18.57389c-.18016-.10472-.4282-.08837-.69254.06425l-31.89984-18.57387c.26435-.15262.51238-.16897.69255-.06427z" fill="#dde4e7"/></g><g><path d="m47.03581 29.23594-31.89984-18.57387c.04443-.03261.08868-.06181.13244-.08708l31.89984 18.57388c-.04376.02526-.08802.05446-.13244.08707z" fill="#dde4e7"/></g><g><path d="m46.47164 31.47584-31.90027-18.56605c-.14972-.09139-.24953-.25791-.27451-.49105-.0166-.09139-.0166-.19942 0-.31599l31.90027 18.56645c-.01665.12469-.01665.23273 0 .32412.02493.23313.12474.39966.27451.48252z" fill="#9aa1a5"/></g><g><path d="m34.06238 38.71435-31.89984-18.57388 12.97343-9.4784 31.89984 18.57387z" fill="#dde4e7"/></g><g><path d="m33.85587 39.53122-31.89985-18.57387c-.05247-.03051-.08912-.08937-.10022-.17517-.02718-.21048.11032-.49746.30674-.64171l31.89984 18.57388c-.19642.14425-.33392.43123-.30674.6417.0111.08581.04775.14467.10023.17517z" fill="#cfd8dd"/></g><g><path d="m47.16825 29.14887c.4792-.27667.9048-.10553.96968.42277.0761.57952-.30468 1.36778-.8355 1.75981-.04208.0306-.08397.05776-.12542.0817-.48666.28097-.9168.11113-.98201-.42029-.01622-.09444-.01651-.19807.00439-.32024l-12.04444 8.80741c-.01343.00941-.02682.01814-.04015.02583-.17569.10144-.33386.04584-.35916-.1498-.02718-.21048.11031-.49746.30674-.6417l12.97343-9.4784c.04442-.03263.08868-.06183.13244-.08709z" fill="#b0b8bc"/></g></g></g></g><g><g enable-background="new"><g><path d="m14.18478 12.95054-.03124-.24455c.00569.04448.03431.08647.08848.11774l.03123.24456c-.05416-.03128-.08278-.07327-.08847-.11775z" fill="#b0b8bc"/></g><g><path d="m16.92503 12.73106.03122.24457c.00717.0561-.02283.11634-.09017.1664l-.03123-.24456c.06734-.05006.09734-.11031.09018-.16641z" fill="#b0b8bc"/></g><g><path d="m15.53659 13.57115.03123.24456-1.29456-.74742-.03123-.24456z" fill="#b0b8bc"/></g><g><path d="m16.83485 12.89746.03123.24456-.86047.63963-.03123-.24457z" fill="#b0b8bc"/></g><g><path d="m15.97438 13.53708.03123.24456c-.1147.08526-.31291.10616-.43779.03406l-.03123-.24456c.12488.0721.32309.05121.43779-.03406z" fill="#b0b8bc"/></g><g><path d="m16.83141 12.60866c.12487.07209.12636.19743.00344.2888l-.86047.63962c-.1147.08526-.31291.10616-.43779.03406l-1.29457-.74742c-.12487-.07209-.11397-.20114.00072-.2864l.86047-.63962c.12292-.09137.30875-.10856.43362-.03647z" fill="#cfd8dd"/></g></g><g enable-background="new"><g><path d="m16.16736 14.09124-.03123-.24455c.006.04697.03514.09089.08729.12099l.03123.24456c-.05215-.0301-.08129-.07402-.08729-.121z" fill="#b0b8bc"/></g><g><path d="m18.90652 13.87949.03122.24457c.00716.05602-.02066.11567-.08611.16433l-.03123-.24456c.06546-.04867.09328-.10832.08612-.16434z" fill="#b0b8bc"/></g><g><path d="m17.51382 14.7127.03123.24456-1.29041-.74502-.03123-.24456z" fill="#b0b8bc"/></g><g><path d="m18.8204 14.04382.03123.24456-.86047.63963-.03123-.24457z" fill="#b0b8bc"/></g><g><path d="m17.95993 14.68344.03123.24456c-.1147.08526-.32124.10135-.44611.02925l-.03123-.24456c.12487.0721.33141.05601.44611-.02925z" fill="#b0b8bc"/></g><g><path d="m18.80863 13.75021c.12487.07209.13469.20224.01177.29361l-.86047.63962c-.1147.08526-.32124.10135-.44611.02925l-1.29041-.74502c-.11654-.06729-.11814-.20354-.00344-.28881l.86047-.63962c.12292-.09138.32124-.10135.43779-.03406z" fill="#cfd8dd"/></g></g><g enable-background="new"><g><path d="m18.15335 15.24101-.03123-.24456c.00575.04498.03415.08717.08685.11759l.03123.24456c-.0527-.03042-.0811-.07261-.08685-.11759z" fill="#b0b8bc"/></g><g><path d="m20.89197 15.02137.03123.24456c.00717.0561-.02283.11635-.09017.16641l-.03123-.24456c.06733-.05006.09733-.11031.09017-.16641z" fill="#b0b8bc"/></g><g><path d="m19.50353 15.86146.03123.24456-1.29457-.74742-.03122-.24456z" fill="#b0b8bc"/></g><g><path d="m20.80179 15.18778.03123.24456-.86047.63962-.03123-.24456z" fill="#b0b8bc"/></g><g><path d="m19.94132 15.8274.03123.24456c-.1147.08526-.31291.10616-.43779.03406l-.03123-.24456c.12488.0721.32309.0512.43779-.03406z" fill="#b0b8bc"/></g><g><path d="m20.79835 14.89897c.12487.07209.12636.19743.00344.28881l-.86047.63962c-.1147.08526-.31291.10616-.43779.03406l-1.29457-.74742c-.12071-.06969-.11397-.20114.00072-.2864l.86047-.63962c.12292-.09137.31291-.10616.43362-.03647z" fill="#cfd8dd"/></g></g><g enable-background="new"><g><path d="m20.13111 16.38144-.03124-.24455c.00587.04588.03535.08928.09048.12111l.03123.24456c-.05513-.03183-.08461-.07523-.09047-.12112z" fill="#b0b8bc"/></g><g><path d="m22.87393 16.16878.03123.24457c.00716.05605-.02057.11629-.08657.16536l-.03123-.24456c.066-.04907.09372-.10931.08657-.16537z" fill="#b0b8bc"/></g><g><path d="m21.48492 17.00542.03123.24456-1.29457-.74742-.03123-.24456z" fill="#b0b8bc"/></g><g><path d="m22.78735 16.33414.03123.24456-.86047.63963-.03122-.24456z" fill="#b0b8bc"/></g><g><path d="m21.92689 16.97377.03123.24456c-.1147.08526-.32125.10134-.44196.03165l-.03123-.24456c.1207.06969.32726.05361.44196-.03165z" fill="#b0b8bc"/></g><g><path d="m22.77974 16.04293c.12071.06969.13054.19984.00762.29122l-.86047.63962c-.1147.08526-.32125.10134-.44196.03165l-1.29458-.74742c-.12487-.0721-.11814-.20354-.00344-.2888l.86047-.63962c.12292-.09137.31291-.10616.43779-.03406z" fill="#cfd8dd"/></g></g><g enable-background="new"><g><path d="m22.11618 17.52435-.03124-.24455c.00612.04788.03636.09303.09098.12457l.03123.24456c-.05462-.03154-.08485-.07669-.09097-.12458z" fill="#b0b8bc"/></g><g><path d="m24.85891 17.3117.03122.24456c.00717.0561-.02283.11635-.09016.1664l-.03123-.24456c.06734-.05005.09734-.1103.09017-.1664z" fill="#b0b8bc"/></g><g><path d="m23.47046 18.15177.03123.24456-1.29454-.7474-.03123-.24456z" fill="#b0b8bc"/></g><g><path d="m24.76874 17.4781.03123.24456-.86047.63962-.03123-.24456z" fill="#b0b8bc"/></g><g><path d="m23.90827 18.11772.03123.24456c-.1147.08526-.31293.10615-.43781.03405l-.03123-.24456c.12489.0721.32312.05121.43781-.03405z" fill="#b0b8bc"/></g><g><path d="m24.76527 17.18928c.12489.0721.12639.19745.00347.28882l-.86047.63962c-.1147.08526-.31293.10615-.43781.03405l-1.29454-.7474c-.12074-.06971-.12232-.20596-.00762-.29122l.86047-.63962c.12292-.09138.32123-.10136.44196-.03165z" fill="#cfd8dd"/></g></g><g enable-background="new"><g><path d="m12.11667 14.4901-.03124-.24455c.00565.04419.03422.08538.08756.11618l.03123.24456c-.05334-.03079-.08191-.07198-.08755-.11619z" fill="#b0b8bc"/></g><g><path d="m15.17141 14.03459.03122.24457c.00717.0561-.02283.11634-.09017.1664l-.03122-.24456c.06733-.05006.09734-.11031.09017-.16641z" fill="#b0b8bc"/></g><g><path d="m13.46756 15.10915.03123.24456-1.29457-.74742-.03123-.24456z" fill="#b0b8bc"/></g><g><path d="m15.08124 14.201.03122.24456-1.16766.86797-.03123-.24456z" fill="#b0b8bc"/></g><g><path d="m13.91357 15.06897.03123.24456c-.12292.09138-.32114.11227-.44601.04018l-.03123-.24456c.12487.07209.32308.0512.44601-.04018z" fill="#b0b8bc"/></g><g><path d="m15.0778 13.91219c.12487.07209.12636.19743.00344.2888l-1.16767.86798c-.12292.09138-.32114.11227-.44601.04018l-1.29457-.74742c-.12487-.07209-.11397-.20114.00895-.29251l1.16767-.86798c.12292-.09137.30875-.10856.43362-.03647z" fill="#cfd8dd"/></g></g><g enable-background="new"><g><path d="m14.09935 15.63106-.03124-.24455c.00596.04661.03498.08957.08627.11918l.03123.24456c-.05129-.02961-.08031-.07257-.08626-.11919z" fill="#b0b8bc"/></g><g><path d="m17.15291 15.18302.03122.24457c.00716.05602-.02066.11567-.08611.16433l-.03123-.24456c.06546-.04866.09327-.10831.08612-.16434z" fill="#b0b8bc"/></g><g><path d="m15.44478 16.2507.03123.24456-1.2904-.74501-.03123-.24456z" fill="#b0b8bc"/></g><g><path d="m17.06679 15.34736.03123.24456-1.16767.86797-.03123-.24456z" fill="#b0b8bc"/></g><g><path d="m15.89912 16.21533.03123.24456c-.12292.09138-.32946.10747-.45434.03537l-.03123-.24456c.12488.0721.33142.05601.45434-.03537z" fill="#b0b8bc"/></g><g><path d="m17.05502 15.05374c.12487.07209.13469.20224.01177.29361l-1.16767.86798c-.12292.09138-.32946.10746-.45434.03537l-1.2904-.74502c-.11654-.06729-.11814-.20354.00479-.29492l1.16767-.86798c.12292-.09137.32124-.10135.43779-.03406z" fill="#cfd8dd"/></g></g><g enable-background="new"><g><path d="m16.08526 16.78065-.03123-.24455c.00571.04466.03404.086.08591.11594l.03123.24456c-.05187-.02994-.08021-.07128-.08591-.11595z" fill="#b0b8bc"/></g><g><path d="m19.13835 16.3249.03123.24456c.00717.0561-.02283.11635-.09017.1664l-.03123-.24456c.06733-.05005.09734-.11029.09017-.1664z" fill="#b0b8bc"/></g><g><path d="m17.4345 17.39946.03123.24457-1.29457-.74742-.03123-.24457z" fill="#b0b8bc"/></g><g><path d="m19.04818 16.49131.03122.24456-1.16766.86798-.03123-.24456z" fill="#b0b8bc"/></g><g><path d="m17.88051 17.35929.03123.24456c-.12292.09138-.32114.11227-.44601.04018l-.03123-.24456c.12487.07209.32309.05119.44601-.04018z" fill="#b0b8bc"/></g><g><path d="m19.04474 16.20251c.12487.07209.12636.19743.00344.2888l-1.16767.86798c-.12292.09138-.32114.11227-.44601.04018l-1.29457-.74742c-.12071-.06969-.11398-.20114.00895-.29251l1.16767-.86798c.12292-.09138.31291-.10616.43362-.03647z" fill="#cfd8dd"/></g></g><g enable-background="new"><g><path d="m18.06305 17.9211-.03124-.24455c.00583.04558.03524.08812.08951.11946l.03123.24456c-.05427-.03134-.08368-.07388-.0895-.11947z" fill="#b0b8bc"/></g><g><path d="m21.12032 17.47231.03123.24457c.00716.05605-.02057.11629-.08657.16535l-.03123-.24456c.06599-.04905.09372-.1093.08657-.16536z" fill="#b0b8bc"/></g><g><path d="m19.41589 18.54342.03123.24456-1.29457-.74742-.03123-.24456z" fill="#b0b8bc"/></g><g><path d="m21.03374 17.63768.03123.24456-1.16767.86798-.03122-.24457z" fill="#b0b8bc"/></g><g><path d="m19.86608 18.50565.03123.24456c-.12292.09138-.32948.10746-.45019.03777l-.03123-.24456c.12071.06969.32726.05361.45019-.03777z" fill="#b0b8bc"/></g><g><path d="m21.02612 17.34646c.12071.06969.13054.19984.00762.29122l-1.16767.86798c-.12292.09138-.32948.10746-.45019.03777l-1.29456-.74743c-.12487-.0721-.11814-.20354.00479-.29492l1.16767-.86798c.12292-.09137.31291-.10616.43778-.03406z" fill="#cfd8dd"/></g></g><g enable-background="new"><g><path d="m20.04819 19.06418-.03124-.24456c.00608.04754.03621.09173.08993.12274l.03123.24456c-.05372-.03101-.08385-.07519-.08992-.12274z" fill="#b0b8bc"/></g><g><path d="m23.1053 18.61523.03122.24456c.00717.0561-.02283.11634-.09016.1664l-.03123-.24456c.06733-.05005.09733-.11029.09017-.1664z" fill="#b0b8bc"/></g><g><path d="m21.40143 19.68977.03123.24456-1.29455-.7474-.03122-.24456z" fill="#b0b8bc"/></g><g><path d="m23.01513 18.78163.03123.24456-1.16767.86798-.03123-.24456z" fill="#b0b8bc"/></g><g><path d="m21.84746 19.64961.03123.24456c-.12292.09137-.32115.11226-.44604.04016l-.03123-.24456c.12489.0721.32312.05121.44604-.04016z" fill="#b0b8bc"/></g><g><path d="m23.01166 18.49281c.12489.0721.12639.19745.00347.28882l-1.16767.86798c-.12292.09138-.32115.11226-.44604.04016l-1.29454-.7474c-.12074-.06971-.12232-.20596.00061-.29733l1.16767-.86798c.12292-.09137.32123-.10136.44196-.03165z" fill="#cfd8dd"/></g></g><g enable-background="new"><g><path d="m10.21115 15.89947-.03124-.24456c.00576.04504.03611.08758.09208.1199l.03123.24456c-.05597-.03231-.08631-.07485-.09207-.1199z" fill="#b0b8bc"/></g><g><path d="m14.26955 16.03539.03122.24457c.00717.0561-.02283.11634-.09017.1664l-.03123-.24456c.06734-.05007.09734-.11031.09018-.16641z" fill="#b0b8bc"/></g><g><path d="m12.57391 17.10382.03123.24456-2.30191-1.329-.03123-.24456z" fill="#b0b8bc"/></g><g><path d="m14.17937 16.20179.03123.24456-1.17189.87111-.03123-.24456z" fill="#b0b8bc"/></g><g><path d="m13.00748 17.0729.03123.24456c-.1187.08824-.30869.10302-.43358.03092l-.03123-.24456c.12489.0721.31488.05732.43358-.03092z" fill="#b0b8bc"/></g><g><path d="m14.17592 15.91298c.12489.0721.12638.19744.00345.28881l-1.17189.87112c-.1187.08824-.30869.10302-.43358.03092l-2.3019-1.32901c-.12487-.07209-.1222-.19503-.0035-.28326l1.17189-.87112c.12292-.09137.30875-.10856.43362-.03647z" fill="#cfd8dd"/></g></g><g enable-background="new"><g><path d="m13.25175 17.64832-.03123-.24456c.0063.04934.03961.09625.09851.13026l.03123.24456c-.05891-.03401-.09221-.08093-.09851-.13026z" fill="#b0b8bc"/></g><g><path d="m16.30192 17.21056.03123.24456c.00716.05608-.02048.11694-.08704.16642l-.03123-.24456c.06657-.04948.09421-.11033.08704-.16642z" fill="#b0b8bc"/></g><g><path d="m14.60941 18.27902.03123.24456-1.29039-.74501-.03123-.24456z" fill="#b0b8bc"/></g><g><path d="m16.21488 17.37699.03123.24456-1.17189.87111-.03123-.24456z" fill="#b0b8bc"/></g><g><path d="m15.04299 18.2481.03123.24456c-.1187.08824-.31702.09821-.43358.03092l-.03123-.24456c.11656.06729.31488.05732.43358-.03092z" fill="#b0b8bc"/></g><g><path d="m16.21142 17.08817c.11656.0673.12638.19744.00345.28881l-1.17189.87111c-.1187.08824-.31702.09821-.43358.03092l-1.29039-.74501c-.12489-.0721-.1347-.20225-.016-.29048l1.17189-.87112c.12292-.09137.32124-.10135.44613-.02925z" fill="#cfd8dd"/></g></g><g enable-background="new"><g><path d="m15.24102 18.79811-.03123-.24455c.00619.0485.03839.09425.09478.12681l.03123.24456c-.0564-.03256-.08859-.07831-.09478-.12682z" fill="#b0b8bc"/></g><g><path d="m18.29164 18.35933.03122.24457c.00717.05608-.02047.11693-.08704.16641l-.03123-.24456c.06657-.04949.09421-.11034.08705-.16642z" fill="#b0b8bc"/></g><g><path d="m16.59913 19.42778.03123.24456-1.29456-.74741-.03123-.24456z" fill="#b0b8bc"/></g><g><path d="m18.20459 18.52575.03123.24456-1.17189.87112-.03123-.24456z" fill="#b0b8bc"/></g><g><path d="m17.0327 19.39687.03123.24456c-.1187.08823-.31702.09821-.43358.03091l-.03123-.24456c.11656.0673.31488.05732.43358-.03091z" fill="#b0b8bc"/></g><g><path d="m18.20114 18.23694c.11656.0673.12638.19744.00345.28881l-1.17189.87111c-.1187.08824-.31702.09821-.43358.03092l-1.29455-.74741c-.12072-.0697-.13054-.19984-.01184-.28808l1.17189-.87112c.12292-.09138.32124-.10135.44196-.03165z" fill="#cfd8dd"/></g></g><g enable-background="new"><g><path d="m17.22702 19.94345-.03123-.24456c.0063.04933.0396.09624.0985.13025l.03123.24456c-.0589-.03401-.0922-.08092-.0985-.13025z" fill="#b0b8bc"/></g><g><path d="m20.27767 19.50458.03123.24457c.00716.0561-.02038.11759-.08754.16751l-.03123-.24456c.06716-.04992.0947-.11142.08754-.16752z" fill="#b0b8bc"/></g><g><path d="m18.58886 20.57655.03123.24456-1.29457-.74742-.03123-.24456z" fill="#b0b8bc"/></g><g><path d="m20.19013 19.6721.03123.24456-1.17189.87112-.03123-.24456z" fill="#b0b8bc"/></g><g><path d="m19.01824 20.54322.03123.24456c-.1187.08823-.317.09822-.42938.03333l-.03123-.24456c.11238.06489.31068.0549.42938-.03333z" fill="#b0b8bc"/></g><g><path d="m20.19087 19.38571c.11238.06488.12218.19502-.00074.28639l-1.17189.87111c-.1187.08824-.317.09822-.42938.03334l-1.29457-.74742c-.12489-.0721-.13469-.20224-.01599-.29047l1.17189-.87111c.12292-.09138.32123-.10136.44611-.02926z" fill="#cfd8dd"/></g></g><g enable-background="new"><g><path d="m8.30032 17.3181-.03124-.24456c.00578.04523.03705.08776.09371.12047l.03123.24456c-.05665-.03271-.08792-.07523-.0937-.12047z" fill="#b0b8bc"/></g><g><path d="m12.87727 17.76421.03122.24457c.00695.05435-.01882.11216-.08262.15959l-.03123-.24456c.06381-.04744.08958-.10524.08263-.1596z" fill="#b0b8bc"/></g><g><path d="m11.18085 18.82102.03123.24456-2.81806-1.627-.03123-.24457z" fill="#b0b8bc"/></g><g><path d="m12.79465 17.9238.03123.24456-1.17189.87112-.03123-.24456z" fill="#b0b8bc"/></g><g><path d="m11.62276 18.79492.03123.24456c-.12292.09138-.32118.09581-.4419.02611l-.03123-.24456c.12072.06969.31897.06526.4419-.02611z" fill="#b0b8bc"/></g><g><path d="m12.77864 17.63332c.12072.0697.13871.19927.016.29048l-1.17189.87112c-.12292.09137-.32118.09581-.4419.02611l-2.81806-1.62701c-.12487-.0721-.12642-.19189-.0035-.28326l1.17189-.87112c.1227-.09121.30453-.10542.4294-.03333z" fill="#cfd8dd"/></g></g><g enable-background="new"><g><path d="m11.81975 19.34791-.03123-.24456c.00596.04664.03821.09057.09583.12383l.03123.24456c-.05762-.03326-.08988-.07719-.09583-.12383z" fill="#b0b8bc"/></g><g><path d="m14.87032 18.90735.03123.24457c.00696.05451-.02305.11295-.09011.16281l-.03123-.24456c.06705-.04986.09707-.1083.09011-.16282z" fill="#b0b8bc"/></g><g><path d="m13.1789 19.97459.03123.24457-1.29456-.74742-.03123-.24456z" fill="#b0b8bc"/></g><g><path d="m14.7802 19.07016.03123.24456-1.17189.87111-.03123-.24456z" fill="#b0b8bc"/></g><g><path d="m13.60831 19.94127.03123.24456c-.12292.09138-.30453.10542-.42941.03332l-.03123-.24456c.12488.07211.30649.05806.42941-.03332z" fill="#b0b8bc"/></g><g><path d="m14.77669 18.78689c.12489.0721.12621.19206.00351.28327l-1.17189.87112c-.12292.09138-.30453.10542-.42941.03332l-1.29455-.74741c-.12489-.0721-.1306-.1943-.00768-.28567l1.17189-.87111c.1227-.09121.30869-.10302.43358-.03092z" fill="#cfd8dd"/></g></g><g enable-background="new"><g><path d="m6.38902 18.74184-.03123-.24455c.00574.0449.03604.087.09156.11906l.03123.24456c-.05551-.03205-.08582-.07415-.09156-.11907z" fill="#b0b8bc"/></g><g><path d="m11.93554 19.7233.03122.24456c.00751.05869-.02518.12224-.09293.1726l-.03123-.24456c.06774-.05035.10043-.1139.09294-.1726z" fill="#b0b8bc"/></g><g><path d="m10.23731 20.80333.03123.24456-3.78795-2.18698-.03123-.24456z" fill="#b0b8bc"/></g><g><path d="m11.8426 19.89591.03123.24456-1.17167.87095-.03123-.24456z" fill="#b0b8bc"/></g><g><path d="m10.67093 20.76686.03123.24456c-.12292.09137-.30875.10856-.43362.03647l-.03123-.24456c.12487.07209.3107.0549.43362-.03647z" fill="#b0b8bc"/></g><g><path d="m11.84755 19.60637c.12487.0721.11397.20114-.00495.28954l-1.17167.87095c-.12292.09138-.30875.10856-.43362.03647l-3.78795-2.18698c-.12487-.0721-.1222-.19503.00072-.2864l1.17167-.87095c.11892-.0884.31297-.1117.43784-.03961z" fill="#cfd8dd"/></g></g><g enable-background="new"><g><path d="m13.79408 20.4824-.03123-.24455c.00641.05018.04074.09742.09872.13089l.03123.24456c-.05798-.03348-.09231-.08072-.09872-.1309z" fill="#b0b8bc"/></g><g><path d="m16.84965 20.05225.03123.24457c.00696.0545-.02193.1127-.08805.16186l-.03123-.24456c.06611-.04916.09501-.10737.08805-.16187z" fill="#b0b8bc"/></g><g><path d="m15.15614 21.11615.03123.24456-1.29457-.74742-.03123-.24456z" fill="#b0b8bc"/></g><g><path d="m16.76159 20.21411.03123.24457-1.17189.87111-.03123-.24456z" fill="#b0b8bc"/></g><g><path d="m15.5897 21.08523.03123.24456c-.12292.09138-.3087.10301-.43356.03092l-.03123-.24456c.12485.07209.31063.06045.43356-.03092z" fill="#b0b8bc"/></g><g><path d="m16.75393 19.92845c.12486.07209.13037.19446.00766.28567l-1.17189.87112c-.12292.09137-.3087.10301-.43356.03092l-1.29457-.74742c-.12072-.0697-.13891-.1991-.01599-.29047l1.17189-.87111c.1227-.09121.32117-.09582.44189-.02612z" fill="#cfd8dd"/></g></g><g enable-background="new"><g><path d="m10.83261 21.30521-.03123-.24456c.00592.0463.03716.08979.09362.12239l.03123.24456c-.05647-.0326-.08771-.07608-.09362-.12239z" fill="#b0b8bc"/></g><g><path d="m13.8856 20.85135.03122.24456c.0075.05871-.0239.122-.09075.17169l-.03123-.24456c.06686-.04969.09826-.11298.09076-.17169z" fill="#b0b8bc"/></g><g><path d="m12.1854 21.92806.03123.24456-1.29041-.74502-.03123-.24456z" fill="#b0b8bc"/></g><g><path d="m13.79485 21.02304.03123.24456-1.17167.87096-.03122-.24456z" fill="#b0b8bc"/></g><g><path d="m12.62319 21.894.03123.24456c-.12292.09138-.31291.10616-.43779.03406l-.03123-.24456c.12487.07209.31486.05731.43779-.03406z" fill="#b0b8bc"/></g><g><path d="m13.79564 20.7311c.12487.0721.11814.20354-.00078.29194l-1.17167.87096c-.12292.09137-.31291.10616-.43779.03406l-1.29041-.74502c-.12487-.0721-.12636-.19743-.00344-.28881l1.17167-.87095c.11892-.0884.31714-.1093.44201-.0372z" fill="#cfd8dd"/></g></g><g enable-background="new"><g><path d="m4.47959 20.16121-.03123-.24455c.00573.0449.03604.08701.09156.11906l.03123.24456c-.05552-.03206-.08582-.07416-.09156-.11907z" fill="#b0b8bc"/></g><g><path d="m8.13364 20.05171.03122.24456c.00758.05931-.02477.12379-.09428.17546l-.03123-.24456c.0695-.05167.10186-.11615.09429-.17546z" fill="#b0b8bc"/></g><g><path d="m6.4339 21.1292.03123.24456-1.89398-1.09348-.03123-.24456z" fill="#b0b8bc"/></g><g><path d="m8.03935 20.22716.03123.24456-1.16767.86798-.03123-.24456z" fill="#b0b8bc"/></g><g><path d="m6.87168 21.09514.03123.24456c-.12292.09138-.31291.10616-.43778.03406l-.03123-.24456c.12487.0721.31486.05731.43778-.03406z" fill="#b0b8bc"/></g><g><path d="m8.04414 19.93225c.12487.07209.11814.20354-.00479.29492l-1.16767.86798c-.12292.09136-.31291.10615-.43778.03405l-1.89398-1.09349c-.12487-.07209-.1222-.19503.00072-.2864l1.16767-.86798c.12292-.09137.31697-.11468.44185-.04258z" fill="#cfd8dd"/></g></g><g enable-background="new"><g><path d="m6.96665 21.59056-.03123-.24456c.00628.04918.03951.09557.09789.12928l.03123.24456c-.05838-.03371-.09161-.0801-.09789-.12928z" fill="#b0b8bc"/></g><g><path d="m10.02566 21.14192.03123.24456c.00757.05928-.02608.12398-.0965.17632l-.03123-.24456c.07042-.05234.10407-.11704.0965-.17632z" fill="#b0b8bc"/></g><g><path d="m8.32787 22.22269.03123.24456-1.29457-.74742-.03122-.24456z" fill="#b0b8bc"/></g><g><path d="m9.92916 21.31825.03123.24456-1.16767.86797-.03122-.24456z" fill="#b0b8bc"/></g><g><path d="m8.7615 22.18622.03123.24456c-.12292.09138-.30875.10856-.43362.03647l-.03123-.24456c.12487.0721.31069.05491.43362-.03647z" fill="#b0b8bc"/></g><g><path d="m9.93811 21.02573c.12487.0721.11397.20114-.00895.29251l-1.16766.86798c-.12292.09137-.30875.10856-.43362.03647l-1.29457-.74742c-.12487-.0721-.13469-.20224-.01177-.29361l1.16767-.86798c.12292-.09138.32946-.10746.45434-.03537z" fill="#cfd8dd"/></g></g><g enable-background="new"><g><path d="m8.9855 22.75614-.03124-.24456c.00629.04918.03953.09558.09791.12928l.03123.24456c-.05839-.0337-.09162-.0801-.0979-.12928z" fill="#b0b8bc"/></g><g><path d="m12.04231 22.30839.03122.24457c.00758.05931-.02478.12378-.09428.17545l-.03123-.24456c.06951-.05168.10186-.11615.09429-.17546z" fill="#b0b8bc"/></g><g><path d="m10.34256 23.38587.03123.24456-1.29039-.74501-.03123-.24456z" fill="#b0b8bc"/></g><g><path d="m11.94802 22.48384.03123.24456-1.16766.86797-.03123-.24456z" fill="#b0b8bc"/></g><g><path d="m10.78036 23.35181.03123.24456c-.12292.09138-.31291.10616-.4378.03406l-.03123-.24456c.12489.0721.31487.05732.4378-.03406z" fill="#b0b8bc"/></g><g><path d="m11.9528 22.18891c.12489.0721.11815.20355-.00477.29493l-1.16767.86798c-.12292.09138-.31291.10616-.4378.03406l-1.29039-.74501c-.12489-.0721-.1347-.20225-.01178-.29362l1.16767-.86798c.12292-.09138.32947-.10746.45435-.03536z" fill="#cfd8dd"/></g></g><g enable-background="new"><g><path d="m15.77399 21.62652-.03123-.24456c.00633.04951.04067.09636.1002.13073l.03123.24456c-.05954-.03437-.09388-.08122-.1002-.13073z" fill="#b0b8bc"/></g><g><path d="m18.82735 21.19279.03122.24457c.00697.05451-.02186.11329-.08855.16286l-.03123-.24456c.0667-.04958.09552-.10835.08856-.16287z" fill="#b0b8bc"/></g><g><path d="m17.13752 22.26011.03123.24456-1.29456-.74742-.03123-.24456z" fill="#b0b8bc"/></g><g><path d="m18.7388 21.35566.03123.24456-1.17189.87111-.03123-.24456z" fill="#b0b8bc"/></g><g><path d="m17.56691 22.22677.03123.24456c-.12292.09137-.30867.10303-.42938.03333l-.03123-.24456c.1207.0697.30645.05805.42938-.03333z" fill="#b0b8bc"/></g><g><path d="m18.73531 21.0724c.12071.06969.12619.19204.00348.28325l-1.17189.87112c-.12292.09138-.30867.10303-.42938.03334l-1.29457-.74742c-.12489-.0721-.13891-.1991-.01599-.29047l1.17189-.87111c.1227-.09121.317-.09822.44189-.02612z" fill="#cfd8dd"/></g></g><g enable-background="new"><g><path d="m12.82637 22.4519-.03124-.24456c.00629.04918.03952.09557.0979.12927l.03123.24456c-.05837-.0337-.09161-.08009-.09789-.12927z" fill="#b0b8bc"/></g><g><path d="m15.88419 22.00381.03122.24456c.0075.0587-.02386.12267-.09129.1728l-.03123-.24456c.06744-.05012.0988-.11409.0913-.1728z" fill="#b0b8bc"/></g><g><path d="m14.18759 23.08402.03123.24457-1.29455-.74742-.03123-.24456z" fill="#b0b8bc"/></g><g><path d="m15.7929 22.17661.03123.24457-1.17167.87095-.03123-.24456z" fill="#b0b8bc"/></g><g><path d="m14.62123 23.04757.03123.24456c-.12292.09137-.31293.10615-.43364.03646l-.03123-.24456c.12071.06969.31071.05491.43364-.03646z" fill="#b0b8bc"/></g><g><path d="m15.79783 21.88707c.12071.06969.11399.20115-.00493.28955l-1.17167.87095c-.12292.09138-.31293.10615-.43364.03646l-1.29455-.74741c-.12489-.0721-.13469-.20224-.01177-.29361l1.17167-.87095c.11892-.0884.32545-.1045.45034-.03239z" fill="#cfd8dd"/></g></g><g enable-background="new"><g><path d="m24.09806 18.67176-.03123-.24456c.00587.04588.03535.08928.09048.12111l.03123.24456c-.05514-.03182-.08462-.07522-.09048-.12111z" fill="#b0b8bc"/></g><g><path d="m26.84306 18.46264.03122.24457c.00716.05599-.01956.11586-.0846.16421l-.03123-.24456c.06505-.04835.09176-.10822.08461-.16422z" fill="#b0b8bc"/></g><g><path d="m25.45185 19.29572.03123.24457-1.29454-.74741-.03123-.24456z" fill="#b0b8bc"/></g><g><path d="m26.75846 18.62686.03123.24456-.86047.63963-.03123-.24457z" fill="#b0b8bc"/></g><g><path d="m25.89799 19.26648.03123.24456c-.1147.08526-.32541.09895-.44614.02924l-.03123-.24456c.12074.06971.33144.05603.44614-.02924z" fill="#b0b8bc"/></g><g><path d="m26.74666 18.33323c.12074.06971.13472.20225.0118.29363l-.86047.63962c-.1147.08526-.3254.09895-.44614.02924l-1.29454-.7474c-.12489-.0721-.11814-.20354-.00344-.28881l.86047-.63962c.12292-.09137.3129-.10617.43778-.03406z" fill="#cfd8dd"/></g></g><g enable-background="new"><g><path d="m22.02999 20.21142-.03123-.24456c.00583.04558.03524.08812.08951.11946l.03123.24456c-.05427-.03133-.08368-.07387-.08951-.11946z" fill="#b0b8bc"/></g><g><path d="m25.08945 19.76618.03122.24457c.00716.05599-.01956.11586-.0846.16421l-.03123-.24456c.06505-.04835.09176-.10823.08461-.16422z" fill="#b0b8bc"/></g><g><path d="m23.38281 20.83372.03123.24457-1.29454-.74741-.03123-.24456z" fill="#b0b8bc"/></g><g><path d="m25.00485 19.9304.03123.24456-1.16767.86797-.03123-.24456z" fill="#b0b8bc"/></g><g><path d="m23.83718 20.79837.03123.24456c-.12292.09137-.33363.10506-.45436.03535l-.03123-.24456c.12073.06971.33144.05603.45436-.03535z" fill="#b0b8bc"/></g><g><path d="m24.99305 19.63677c.12074.06971.13472.20226.0118.29363l-1.16767.86798c-.12292.09138-.33363.10506-.45436.03535l-1.29454-.7474c-.12489-.0721-.11814-.20354.00479-.29492l1.16767-.86798c.12292-.09138.3129-.10617.43779-.03406z" fill="#cfd8dd"/></g></g><g enable-background="new"><g><path d="m19.21674 21.09221-.03123-.24455c.0063.04933.0396.09624.0985.13024l.03123.24456c-.0589-.034-.0922-.08091-.0985-.13025z" fill="#b0b8bc"/></g><g><path d="m22.26597 20.65653.03123.24456c.00716.05602-.02066.11567-.08612.16434l-.03123-.24456c.06546-.04866.09328-.10832.08612-.16434z" fill="#b0b8bc"/></g><g><path d="m20.56607 21.7181.03123.24456-1.28207-.7402-.03123-.24456z" fill="#b0b8bc"/></g><g><path d="m22.17985 20.82086.03123.24457-1.17189.87111-.03123-.24456z" fill="#b0b8bc"/></g><g><path d="m21.00796 21.69198.03123.24456c-.1187.08824-.317.09822-.44189.02612l-.03123-.24456c.12488.0721.32319.06211.44189-.02612z" fill="#b0b8bc"/></g><g><path d="m22.16808 20.52725c.12489.0721.13469.20224.01177.29361l-1.17189.87112c-.1187.08823-.317.09822-.44189.02612l-1.28207-.7402c-.12489-.0721-.13469-.20224-.01599-.29047l1.17189-.87112c.12292-.09137.32123-.10136.44611-.02925z" fill="#cfd8dd"/></g></g><g enable-background="new"><g><path d="m17.75269 22.76789-.03123-.24456c.00641.05019.04075.09744.09874.13092l.03123.24456c-.05799-.03348-.09233-.08073-.09874-.13092z" fill="#b0b8bc"/></g><g><path d="m20.80825 22.33774.03122.24457c.00697.0545-.02193.11271-.08806.16186l-.03123-.24456c.06614-.04916.09503-.10736.08807-.16187z" fill="#b0b8bc"/></g><g><path d="m19.11473 23.40165.03123.24456-1.29454-.7474-.03123-.24456z" fill="#b0b8bc"/></g><g><path d="m20.72019 22.49961.03123.24456-1.17189.87112-.03123-.24456z" fill="#b0b8bc"/></g><g><path d="m19.5483 23.37073.03123.24456c-.12292.09138-.30868.10303-.43356.03093l-.03123-.24456c.12488.07209.31063.06044.43356-.03093z" fill="#b0b8bc"/></g><g><path d="m20.71252 22.21395c.12489.0721.13036.19445.00766.28566l-1.17189.87112c-.12292.09138-.30867.10303-.43356.03092l-1.29454-.7474c-.12074-.06971-.13894-.19911-.01602-.29049l1.17189-.87111c.1227-.09121.32118-.09581.44192-.0261z" fill="#cfd8dd"/></g></g><g enable-background="new"><g><path d="m14.82441 23.60546-.03124-.24455c.00629.04918.03952.09557.09789.12927l.03123.24456c-.05836-.0337-.09159-.08009-.09788-.12928z" fill="#b0b8bc"/></g><g><path d="m17.87847 23.1583.03123.24457c.0075.05869-.02135.12269-.08752.17188l-.03123-.24456c.06616-.04919.09502-.1132.08752-.17189z" fill="#b0b8bc"/></g><g><path d="m16.18149 24.2352.03123.24456-1.29042-.74502-.03123-.24456z" fill="#b0b8bc"/></g><g><path d="m17.79094 23.33019.03123.24456-1.17167.87095-.03123-.24456z" fill="#b0b8bc"/></g><g><path d="m16.61927 24.20114.03123.24456c-.12292.09138-.32125.10134-.43778.03406l-.03123-.24456c.11653.06728.31486.05731.43778-.03406z" fill="#b0b8bc"/></g><g><path d="m17.79173 23.03824c.11653.06728.11814.20354-.00079.29194l-1.17167.87095c-.12292.09137-.32125.10134-.43779.03406l-1.29042-.74502c-.12486-.07209-.13469-.20224-.01177-.29361l1.17167-.87095c.11892-.0884.32548-.10448.45033-.03239z" fill="#cfd8dd"/></g></g><g enable-background="new"><g><path d="m26.08362 19.81355-.03123-.24456c.00623.04877.03755.09513.09464.12809l.03123.24456c-.05709-.03296-.08842-.07932-.09464-.12809z" fill="#b0b8bc"/></g><g><path d="m28.82272 19.60198.03123.24456c.00716.05608-.02048.11694-.08705.16643l-.03123-.24456c.06657-.04949.09421-.11035.08705-.16643z" fill="#b0b8bc"/></g><g><path d="m27.43741 20.44209.03124.24456-1.2904-.74501-.03123-.24456z" fill="#b0b8bc"/></g><g><path d="m28.73567 19.7684.03123.24457-.86047.63962-.03123-.24456z" fill="#b0b8bc"/></g><g><path d="m27.8752 20.40803.03123.24456c-.1147.08526-.32123.10136-.43778.03406l-.03123-.24456c.11655.0673.32308.0512.43778-.03406z" fill="#b0b8bc"/></g><g><path d="m28.73223 19.4796c.11656.0673.12636.19743.00344.28881l-.86047.63962c-.1147.08526-.32123.10136-.43779.03406l-1.29039-.74501c-.12489-.0721-.12647-.20835-.01177-.29361l.86047-.63962c.12292-.09137.32123-.10136.44611-.02925z" fill="#cfd8dd"/></g></g><g enable-background="new"><g><path d="m24.01565 21.35339-.03124-.24455c.0062.04844.03742.09383.09357.12625l.03123.24456c-.05615-.03242-.08737-.07781-.09356-.12626z" fill="#b0b8bc"/></g><g><path d="m27.06911 20.90551.03123.24456c.00716.05608-.02048.11694-.08705.16643l-.03123-.24456c.06657-.04949.09421-.11034.08705-.16643z" fill="#b0b8bc"/></g><g><path d="m25.36838 21.98009.03123.24456-1.29039-.745-.03123-.24457z" fill="#b0b8bc"/></g><g><path d="m26.98206 21.07194.03122.24456-1.16766.86798-.03123-.24457z" fill="#b0b8bc"/></g><g><path d="m25.81439 21.93991.03123.24456c-.12292.09137-.32945.10747-.44601.04018l-.03123-.24456c.11656.0673.32309.0512.44601-.04018z" fill="#b0b8bc"/></g><g><path d="m26.97862 20.78313c.11656.0673.12636.19743.00344.28881l-1.16767.86798c-.12292.09138-.32945.10747-.44601.04018l-1.29039-.74501c-.12489-.0721-.12647-.20835-.00354-.29973l1.16767-.86798c.12292-.09138.32123-.10136.44611-.02926z" fill="#cfd8dd"/></g></g><g enable-background="new"><g><path d="m21.20508 22.24417-.03124-.24456c.00598.04676.03593.09013.08737.11983l.03123.24456c-.05144-.0297-.08138-.07307-.08736-.11983z" fill="#b0b8bc"/></g><g><path d="m24.25569 21.80529.03122.24457c.00716.05602-.02066.11567-.08612.16433l-.03123-.24456c.06546-.04866.09328-.10831.08613-.16434z" fill="#b0b8bc"/></g><g><path d="m22.55578 22.86686.03123.24456-1.29457-.74742-.03123-.24456z" fill="#b0b8bc"/></g><g><path d="m24.16956 21.96963.03123.24456-1.17189.87111-.03123-.24456z" fill="#b0b8bc"/></g><g><path d="m22.99767 22.84074.03123.24456c-.1187.08824-.317.09822-.44189.02612l-.03123-.24456c.12489.0721.32319.06212.44189-.02612z" fill="#b0b8bc"/></g><g><path d="m24.15779 21.67601c.12489.0721.13469.20224.01177.29361l-1.17189.87111c-.1187.08824-.317.09822-.44189.02612l-1.29457-.74742c-.11238-.06488-.12218-.19502-.00348-.28325l1.17189-.87112c.12292-.09138.32123-.10136.43361-.03648z" fill="#cfd8dd"/></g></g><g enable-background="new"><g><path d="m19.7326 23.91201-.03124-.24456c.00633.04952.04068.09638.10022.13075l.03123.24456c-.05954-.03437-.09389-.08123-.10021-.13075z" fill="#b0b8bc"/></g><g><path d="m22.78549 23.4793.03122.24457c.00697.0545-.02193.11271-.08806.16186l-.03123-.24456c.06614-.04916.09503-.10736.08807-.16187z" fill="#b0b8bc"/></g><g><path d="m21.09197 24.54321.03123.24456-1.29039-.74501-.03123-.24456z" fill="#b0b8bc"/></g><g><path d="m22.69743 23.64117.03122.24456-1.17189.87112-.03122-.24456z" fill="#b0b8bc"/></g><g><path d="m21.52554 24.51229.03123.24456c-.12292.09138-.30868.10303-.43356.03092l-.03123-.24456c.12488.0721.31063.06045.43356-.03092z" fill="#b0b8bc"/></g><g><path d="m22.68976 23.3555c.12489.0721.13037.19446.00766.28567l-1.17189.87112c-.12292.09137-.30868.10303-.43356.03092l-1.29039-.74501c-.12489-.0721-.13894-.19911-.01602-.29049l1.17189-.87111c.1227-.09121.31703-.0982.44192-.0261z" fill="#cfd8dd"/></g></g><g enable-background="new"><g><path d="m16.81789 24.76213-.03123-.24455c.00581.04544.03595.08778.08997.11897l.03123.24456c-.05402-.03119-.08416-.07353-.08997-.11898z" fill="#b0b8bc"/></g><g><path d="m19.87551 24.31414.03122.24456c.0075.05864-.02149.12128-.08652.16962l-.03123-.24456c.06503-.04834.09402-.11098.08653-.16962z" fill="#b0b8bc"/></g><g><path d="m18.1712 25.38396.03123.24456-1.29457-.74741-.03123-.24457z" fill="#b0b8bc"/></g><g><path d="m19.78898 24.48376.03123.24456-1.17167.87095-.03122-.24456z" fill="#b0b8bc"/></g><g><path d="m18.61732 25.35471.03123.24456c-.12292.09137-.32125.10134-.44611.02925l-.03123-.24456c.12485.07209.32318.06212.44611-.02925z" fill="#b0b8bc"/></g><g><path d="m19.78144 24.18701c.12486.07209.12646.20835.00754.29675l-1.17167.87095c-.12292.09138-.32125.10134-.44611.02925l-1.29457-.74742c-.12071-.06969-.12221-.19503.00071-.28641l1.17167-.87095c.11892-.0884.31715-.10929.43786-.0396z" fill="#cfd8dd"/></g></g><g enable-background="new"><g><path d="m28.065 20.96207-.03123-.24456c.00586.04588.03534.08928.09047.12111l.03123.24456c-.05513-.03182-.08461-.07522-.09047-.12111z" fill="#b0b8bc"/></g><g><path d="m30.80519 20.74263.03122.24457c.00717.05609-.02401.11657-.09228.16732l-.03123-.24456c.06828-.05074.09946-.11122.09229-.16733z" fill="#b0b8bc"/></g><g><path d="m29.4188 21.58605.03123.24456-1.29457-.74742-.03122-.24457z" fill="#b0b8bc"/></g><g><path d="m30.71291 20.90996.03123.24457-.86047.63962-.03123-.24456z" fill="#b0b8bc"/></g><g><path d="m29.85244 21.54959.03123.24456c-.1147.08526-.30875.10856-.43364.03646l-.03123-.24456c.12489.0721.31894.0488.43364-.03646z" fill="#b0b8bc"/></g><g><path d="m30.71362 20.62355c.12489.0721.12221.19503-.00071.28641l-.86047.63962c-.1147.08526-.30875.10856-.43364.03646l-1.29457-.74742c-.12486-.07209-.11814-.20354-.00344-.2888l.86047-.63962c.12292-.09137.31293-.10615.43778-.03406z" fill="#cfd8dd"/></g></g><g enable-background="new"><g><path d="m25.99693 22.50173-.03124-.24455c.00583.04559.03524.08813.0895.11946l.03123.24456c-.05425-.03134-.08367-.07388-.08949-.11947z" fill="#b0b8bc"/></g><g><path d="m29.05158 22.04617.03122.24457c.00717.0561-.02401.11658-.09228.16732l-.03122-.24456c.06826-.05075.09944-.11123.09228-.16733z" fill="#b0b8bc"/></g><g><path d="m27.34977 23.12405.03123.24456-1.29457-.74742-.03123-.24456z" fill="#b0b8bc"/></g><g><path d="m28.9593 22.2135.03122.24456-1.16766.86798-.03123-.24457z" fill="#b0b8bc"/></g><g><path d="m27.79163 23.08147.03123.24456c-.12292.09137-.31697.11468-.44186.04257l-.03123-.24456c.12489.07211.31893.04881.44186-.04257z" fill="#b0b8bc"/></g><g><path d="m28.96 21.92709c.12489.0721.12221.19503-.00071.28641l-1.16767.86798c-.12292.09138-.31697.11468-.44186.04257l-1.29457-.74742c-.12486-.07209-.11814-.20354.00479-.29492l1.16767-.86798c.12292-.09138.31293-.10615.43779-.03406z" fill="#cfd8dd"/></g></g><g enable-background="new"><g><path d="m23.1911 23.38942-.03123-.24456c.00609.04765.03716.09222.09106.12334l.03123.24456c-.0539-.03111-.08497-.07569-.09106-.12334z" fill="#b0b8bc"/></g><g><path d="m26.24389 22.95417.03123.24457c.00715.05599-.01956.11587-.08461.16422l-.03123-.24456c.06504-.04836.09176-.10824.08461-.16423z" fill="#b0b8bc"/></g><g><path d="m24.5455 24.01562.03123.24456-1.29457-.74742-.03123-.24456z" fill="#b0b8bc"/></g><g><path d="m26.15928 23.11839.03123.24456-1.17189.87112-.03123-.24456z" fill="#b0b8bc"/></g><g><path d="m24.98739 23.98951.03123.24456c-.1187.08823-.32118.09581-.44189.02612l-.03123-.24456c.12071.06968.32319.06211.44189-.02612z" fill="#b0b8bc"/></g><g><path d="m26.14751 22.82478c.12071.06969.13469.20224.01177.29361l-1.17189.87111c-.1187.08824-.32118.09581-.44189.02612l-1.29457-.74742c-.11653-.06728-.12636-.19743-.00766-.28566l1.17189-.87112c.12292-.09138.32125-.10134.43779-.03406z" fill="#cfd8dd"/></g></g><g enable-background="new"><g><path d="m21.70982 25.05358-.03123-.24455c.00633.04951.04067.09635.1002.13073l.03123.24456c-.05953-.03439-.09387-.08123-.1002-.13074z" fill="#b0b8bc"/></g><g><path d="m24.76478 24.61992.03122.24456c.00697.05452-.02304.11296-.09011.16281l-.03123-.24456c.06707-.04985.09708-.10829.09012-.16281z" fill="#b0b8bc"/></g><g><path d="m23.07336 25.68717.03123.24456-1.29457-.74742-.03123-.24456z" fill="#b0b8bc"/></g><g><path d="m24.67466 24.78273.03123.24456-1.17189.87112-.03123-.24456z" fill="#b0b8bc"/></g><g><path d="m23.50277 25.65385.03123.24456c-.12292.09138-.30453.10542-.42941.03332l-.03123-.24456c.12489.0721.30649.05805.42941-.03332z" fill="#b0b8bc"/></g><g><path d="m24.67115 24.49946c.12489.0721.12621.19206.00351.28327l-1.17189.87112c-.12292.09137-.30453.10542-.42941.03332l-1.29457-.74742c-.12489-.0721-.13891-.1991-.01599-.29047l1.17189-.87112c.1227-.09121.317-.09822.44189-.02612z" fill="#cfd8dd"/></g></g><g enable-background="new"><g><path d="m18.81593 25.9157-.03123-.24456c.00581.04544.03596.08778.08999.11897l.03123.24456c-.05404-.03119-.08419-.07352-.08999-.11897z" fill="#b0b8bc"/></g><g><path d="m21.86944 25.46084.03122.24457c.0075.0587-.02389.12199-.09073.17168l-.03123-.24456c.06684-.0497.09824-.11299.09074-.17169z" fill="#b0b8bc"/></g><g><path d="m20.16922 26.53752.03123.24456-1.29454-.7474-.03123-.24456z" fill="#b0b8bc"/></g><g><path d="m21.7787 25.63252.03123.24456-1.17167.87095-.03123-.24456z" fill="#b0b8bc"/></g><g><path d="m20.60703 26.50347.03123.24456c-.12292.09138-.31293.10615-.43781.03405l-.03123-.24456c.12488.0721.31489.05732.43781-.03405z" fill="#b0b8bc"/></g><g><path d="m21.77946 25.34056c.12489.0721.11817.20356-.00076.29196l-1.17167.87095c-.12292.09137-.31293.10615-.43781.03405l-1.29454-.7474c-.12074-.06971-.12221-.19503.00071-.28641l1.17167-.87095c.11892-.0884.31712-.10931.43786-.0396z" fill="#cfd8dd"/></g></g><g enable-background="new"><g><path d="m11.00171 23.91922-.03123-.24455c.00637.04981.03954.09656.09636.12937l.03123.24456c-.05683-.03281-.09-.07956-.09636-.12938z" fill="#b0b8bc"/></g><g><path d="m14.06115 23.47396.03122.24457c.00758.05931-.02478.12378-.09429.17545l-.03123-.24456c.06951-.05167.10188-.11615.0943-.17546z" fill="#b0b8bc"/></g><g><path d="m12.36141 24.55145.03123.24456-1.29457-.74742-.03123-.24456z" fill="#b0b8bc"/></g><g><path d="m13.96686 23.64941.03123.24456-1.16767.86798-.03123-.24456z" fill="#b0b8bc"/></g><g><path d="m12.79919 24.51739.03123.24456c-.12292.09138-.3129.10617-.43779.03406l-.03123-.24456c.12489.07211.31487.05731.43779-.03406z" fill="#b0b8bc"/></g><g><path d="m13.97164 23.35449c.12489.0721.11814.20354-.00478.29492l-1.16767.86798c-.12292.09137-.3129.10617-.43779.03406l-1.29457-.74742c-.12069-.06968-.13468-.20223-.01175-.29361l1.16767-.86798c.12292-.09138.33363-.10506.45432-.03538z" fill="#cfd8dd"/></g></g><g enable-background="new"><g><path d="m30.04907 22.10733-.03124-.24456c.00589.04605.03392.08872.08364.11742l.03123.24456c-.04971-.02871-.07775-.07138-.08363-.11742z" fill="#b0b8bc"/></g><g><path d="m32.78874 21.89439.03123.24457c.00715.05602-.02066.11567-.08612.16433l-.03123-.24456c.06546-.04866.09327-.10831.08612-.16434z" fill="#b0b8bc"/></g><g><path d="m31.39604 22.7276.03123.24457-1.29457-.74742-.03123-.24457z" fill="#b0b8bc"/></g><g><path d="m32.70262 22.05873.03123.24456-.86047.63962-.03122-.24456z" fill="#b0b8bc"/></g><g><path d="m31.84216 22.69835.03123.24456c-.1147.08526-.32125.10134-.44611.02925l-.03123-.24456c.12485.07209.33141.05601.44611-.02925z" fill="#b0b8bc"/></g><g><path d="m32.69086 21.76511c.12486.07209.13469.20224.01176.29361l-.86047.63962c-.1147.08526-.32125.10134-.44611.02925l-1.29457-.74742c-.11238-.06488-.11399-.20115.00071-.28641l.86047-.63962c.12292-.09137.32125-.10134.43364-.03646z" fill="#cfd8dd"/></g></g><g enable-background="new"><g><path d="m27.98103 23.64713-.03124-.24456c.00584.04566.03377.08739.08265.11562l.03123.24456c-.04889-.02823-.07681-.06996-.08264-.11562z" fill="#b0b8bc"/></g><g><path d="m31.03513 23.19793.03123.24457c.00716.05602-.02066.11567-.08611.16433l-.03123-.24456c.06545-.04867.09326-.10832.08611-.16434z" fill="#b0b8bc"/></g><g><path d="m29.32701 24.26561.03123.24456-1.29457-.74742-.03123-.24456z" fill="#b0b8bc"/></g><g><path d="m30.94901 23.36226.03123.24456-1.16767.86798-.03123-.24456z" fill="#b0b8bc"/></g><g><path d="m29.78134 24.23024.03123.24456c-.12292.09138-.32948.10746-.45434.03537l-.03123-.24456c.12486.07208.33142.056.45434-.03537z" fill="#b0b8bc"/></g><g><path d="m30.93724 23.06865c.12486.07209.13469.20224.01177.29361l-1.16767.86798c-.12292.09137-.32948.10746-.45434.03537l-1.29457-.74742c-.11238-.06488-.11399-.20115.00893-.29252l1.16767-.86798c.12292-.09138.32125-.10134.43364-.03646z" fill="#cfd8dd"/></g></g><g enable-background="new"><g><path d="m25.18081 24.53819-.03123-.24455c.00609.04764.03716.09221.09107.12333l.03123.24456c-.05392-.03113-.08499-.0757-.09107-.12334z" fill="#b0b8bc"/></g><g><path d="m28.23096 24.10042.03122.24456c.00716.05602-.02065.11567-.08611.16433l-.03123-.24456c.06546-.04865.09328-.1083.08612-.16433z" fill="#b0b8bc"/></g><g><path d="m26.53106 25.16199.03123.24456-1.29041-.74502-.03123-.24456z" fill="#b0b8bc"/></g><g><path d="m28.14484 24.26476.03123.24456-1.17189.87111-.03123-.24456z" fill="#b0b8bc"/></g><g><path d="m26.97295 25.13587.03123.24456c-.1187.08824-.31703.0982-.44189.02612l-.03123-.24456c.12486.07209.32319.06212.44189-.02612z" fill="#b0b8bc"/></g><g><path d="m28.13308 23.97115c.12486.07209.13469.20224.01177.29361l-1.17189.87112c-.1187.08823-.31703.0982-.44189.02612l-1.29042-.74502c-.11656-.0673-.12636-.19743-.00766-.28567l1.17189-.87111c.12292-.09138.32123-.10136.43779-.03406z" fill="#cfd8dd"/></g></g><g enable-background="new"><g><path d="m23.69079 26.19851-.03123-.24455c.00622.0487.03945.09442.09647.12734l.03123.24456c-.05703-.03292-.09025-.07864-.09647-.12735z" fill="#b0b8bc"/></g><g><path d="m26.74411 25.76482.03122.24456c.00697.0545-.02192.11271-.08805.16186l-.03123-.24456c.06613-.04915.09502-.10736.08806-.16186z" fill="#b0b8bc"/></g><g><path d="m25.0506 26.82873.03123.24456-1.29457-.74742-.03123-.24457z" fill="#b0b8bc"/></g><g><path d="m26.65605 25.92669.03123.24456-1.17189.87111-.03123-.24456z" fill="#b0b8bc"/></g><g><path d="m25.48416 26.7978.03123.24456c-.12292.09138-.3087.10301-.43356.03092l-.03123-.24456c.12486.07209.31064.06046.43356-.03092z" fill="#b0b8bc"/></g><g><path d="m26.64839 25.64102c.12486.07209.13036.19446.00766.28567l-1.17189.87111c-.12292.09138-.3087.10301-.43356.03093l-1.29457-.74742c-.12071-.06969-.13476-.1967-.01184-.28808l1.17189-.87112c.1227-.09121.31703-.0982.43774-.02851z" fill="#cfd8dd"/></g></g><g enable-background="new"><g><path d="m32.03394 23.25575-.03123-.24456c.00569.04449.03431.08648.08849.11776l.03123.24456c-.05419-.03128-.08281-.07328-.08849-.11776z" fill="#b0b8bc"/></g><g><path d="m34.77418 23.03627.03122.24457c.00717.0561-.02283.11634-.09016.1664l-.03123-.24456c.06734-.05005.09734-.1103.09017-.16641z" fill="#b0b8bc"/></g><g><path d="m33.38576 23.87637.03123.24456-1.29457-.74742-.03123-.24456z" fill="#b0b8bc"/></g><g><path d="m34.68401 23.20268.03123.24456-.86047.63962-.03123-.24456z" fill="#b0b8bc"/></g><g><path d="m33.82354 23.8423.03123.24456c-.1147.08526-.31293.10615-.43778.03407l-.03123-.24456c.12486.07208.32308.05119.43778-.03407z" fill="#b0b8bc"/></g><g><path d="m34.68057 22.91388c.12486.07209.12636.19743.00344.28881l-.86047.63962c-.1147.08526-.31293.10615-.43779.03406l-1.29457-.74742c-.12489-.0721-.11399-.20115.00071-.28641l.86047-.63962c.12292-.09138.30875-.10856.43364-.03646z" fill="#cfd8dd"/></g></g><g enable-background="new"><g><path d="m29.96582 24.79531-.03123-.24456c.00565.0442.03422.0854.08757.1162l.03123.24456c-.05336-.0308-.08193-.07199-.08757-.1162z" fill="#b0b8bc"/></g><g><path d="m33.02057 24.33981.03122.24457c.00717.0561-.02283.11634-.09016.1664l-.03123-.24456c.06734-.05006.09734-.11031.09017-.16641z" fill="#b0b8bc"/></g><g><path d="m31.31672 25.41437.03123.24456-1.29457-.74742-.03123-.24456z" fill="#b0b8bc"/></g><g><path d="m32.9304 24.50622.03123.24456-1.16767.86797-.03123-.24456z" fill="#b0b8bc"/></g><g><path d="m31.76273 25.37419.03123.24456c-.12292.09138-.32115.11226-.44601.04018l-.03123-.24456c.12486.07209.32309.0512.44601-.04018z" fill="#b0b8bc"/></g><g><path d="m32.92696 24.21741c.12486.07209.12636.19743.00344.28881l-1.16767.86798c-.12292.09137-.32115.11226-.44601.04018l-1.29457-.74742c-.12489-.0721-.11399-.20115.00893-.29252l1.16767-.86798c.12292-.09137.30875-.10856.43364-.03646z" fill="#cfd8dd"/></g></g><g enable-background="new"><g><path d="m27.16694 25.68805-.03123-.24456c.00583.0456.03603.08839.09051.11985l.03123.24456c-.05449-.03146-.08469-.07425-.09051-.11985z" fill="#b0b8bc"/></g><g><path d="m30.22068 25.24918.03123.24456c.00715.05603-.02066.11568-.08611.16434l-.03123-.24456c.06545-.04866.09326-.10831.08611-.16434z" fill="#b0b8bc"/></g><g><path d="m28.52078 26.31075.03123.24456-1.29457-.74742-.03123-.24456z" fill="#b0b8bc"/></g><g><path d="m30.13456 25.41352.03123.24456-1.17189.87112-.03123-.24456z" fill="#b0b8bc"/></g><g><path d="m28.96267 26.28464.03123.24456c-.1187.08824-.31703.0982-.44189.02612l-.03123-.24456c.12486.07208.32319.06211.44189-.02612z" fill="#b0b8bc"/></g><g><path d="m30.12279 25.11991c.12486.07209.13469.20224.01177.29361l-1.17189.87111c-.1187.08824-.31703.0982-.44189.02612l-1.29457-.74742c-.12071-.06969-.12221-.19503-.00351-.28327l1.17189-.87112c.12292-.09137.31293-.10615.43364-.03646z" fill="#cfd8dd"/></g></g><g enable-background="new"><g><path d="m25.66845 27.33909-.03124-.24456c.00633.04951.04067.09636.1002.13073l.03123.24456c-.05953-.03437-.09387-.08122-.10019-.13073z" fill="#b0b8bc"/></g><g><path d="m28.72182 26.90536.03122.24456c.00697.05452-.02185.11329-.08854.16286l-.03123-.24456c.06668-.04957.09551-.10834.08855-.16286z" fill="#b0b8bc"/></g><g><path d="m27.03199 27.97268.03123.24456-1.29457-.74742-.03123-.24456z" fill="#b0b8bc"/></g><g><path d="m28.63326 27.06823.03123.24456-1.17189.87111-.03123-.24456z" fill="#b0b8bc"/></g><g><path d="m27.46137 27.93934.03123.24456c-.12292.09138-.30868.10303-.42938.03334l-.03123-.24456c.12071.06969.30646.05804.42938-.03334z" fill="#b0b8bc"/></g><g><path d="m28.62978 26.78498c.12071.06969.12619.19204.00348.28325l-1.17189.87112c-.12292.09137-.30868.10303-.42938.03333l-1.29457-.74742c-.12489-.0721-.13891-.1991-.01599-.29047l1.17189-.87112c.1227-.09121.317-.09822.44189-.02612z" fill="#cfd8dd"/></g></g><g enable-background="new"><g><path d="m34.01333 24.39635-.03123-.24456c.00586.04588.03534.08928.09048.12111l.03123.24456c-.05514-.03183-.08462-.07523-.09048-.12111z" fill="#b0b8bc"/></g><g><path d="m36.75568 24.1847.03122.24457c.00716.05602-.02066.11567-.08612.16433l-.03123-.24456c.06546-.04867.09328-.10832.08613-.16434z" fill="#b0b8bc"/></g><g><path d="m35.36297 25.01791.03123.24456-1.29039-.74501-.03123-.24456z" fill="#b0b8bc"/></g><g><path d="m36.66955 24.34903.03123.24456-.86047.63963-.03123-.24456z" fill="#b0b8bc"/></g><g><path d="m35.80908 24.98866.03123.24456c-.1147.08526-.32122.10136-.44611.02926l-.03123-.24456c.12488.07209.33141.056.44611-.02926z" fill="#b0b8bc"/></g><g><path d="m36.65778 24.05542c.12489.0721.13469.20224.01176.29361l-.86047.63962c-.1147.08526-.32123.10136-.44611.02925l-1.29039-.74501c-.12489-.0721-.11814-.20354-.00344-.28881l.86047-.63962c.12292-.09138.3129-.10617.43778-.03406z" fill="#cfd8dd"/></g></g><g enable-background="new"><g><path d="m31.94526 25.936-.03123-.24456c.00582.04558.03523.08813.08951.11946l.03123.24456c-.05427-.03133-.08368-.07387-.08951-.11946z" fill="#b0b8bc"/></g><g><path d="m35.00206 25.48823.03122.24456c.00716.05603-.02066.11568-.08612.16434l-.03123-.24456c.06547-.04866.09329-.10831.08613-.16434z" fill="#b0b8bc"/></g><g><path d="m33.29393 26.55591.03123.24456-1.29039-.745-.03123-.24456z" fill="#b0b8bc"/></g><g><path d="m34.91594 25.65257.03123.24456-1.16767.86797-.03123-.24456z" fill="#b0b8bc"/></g><g><path d="m33.74827 26.52054.03123.24456c-.12292.09138-.32945.10747-.45434.03537l-.03123-.24456c.12489.07211.33142.05601.45434-.03537z" fill="#b0b8bc"/></g><g><path d="m34.90417 25.35896c.12489.0721.13469.20224.01176.29361l-1.16766.86798c-.12292.09137-.32945.10747-.45434.03537l-1.29039-.74501c-.12489-.0721-.11814-.20354.00479-.29492l1.16767-.86798c.12292-.09137.3129-.10617.43779-.03406z" fill="#cfd8dd"/></g></g><g enable-background="new"><g><path d="m29.15299 26.83338-.03123-.24455c.00593.04644.03722.09039.09417.12327l.03123.24456c-.05695-.03288-.08824-.07683-.09417-.12328z" fill="#b0b8bc"/></g><g><path d="m32.21039 26.39795.03123.24457c.00716.05602-.02066.11567-.08611.16433l-.03123-.24456c.06546-.04866.09327-.10832.08611-.16434z" fill="#b0b8bc"/></g><g><path d="m30.5105 27.45951.03123.24457-1.29457-.74742-.03123-.24456z" fill="#b0b8bc"/></g><g><path d="m32.12428 26.56228.03123.24456-1.17189.87112-.03123-.24456z" fill="#b0b8bc"/></g><g><path d="m30.95239 27.4334.03123.24456c-.1187.08823-.31703.0982-.44189.02612l-.03123-.24456c.12485.07208.32318.06212.44189-.02612z" fill="#b0b8bc"/></g><g><path d="m32.11251 26.26867c.12486.07209.13469.20224.01176.29361l-1.17189.87112c-.1187.08824-.31703.0982-.44189.02612l-1.29457-.74742c-.12489-.0721-.12636-.19743-.00766-.28567l1.17189-.87111c.12292-.09138.3129-.10617.43779-.03406z" fill="#cfd8dd"/></g></g><g enable-background="new"><g><path d="m27.64715 28.48046-.03123-.24456c.00641.05019.04074.09743.09871.1309l.03123.24456c-.05797-.03347-.0923-.08071-.09871-.1309z" fill="#b0b8bc"/></g><g><path d="m30.69965 28.05041.03122.24456c.00696.05447-.01967.11321-.08499.16177l-.03123-.24456c.06532-.04855.09195-.10729.085-.16177z" fill="#b0b8bc"/></g><g><path d="m29.0092 29.11422.03123.24456-1.29457-.74742-.03123-.24456z" fill="#b0b8bc"/></g><g><path d="m30.61465 28.21218.03123.24457-1.17189.87111-.03123-.24456z" fill="#b0b8bc"/></g><g><path d="m29.44276 29.0833.03123.24456c-.12292.09138-.317.09822-.43356.03092l-.03123-.24456c.11656.0673.31064.06045.43356-.03092z" fill="#b0b8bc"/></g><g><path d="m30.60699 27.92652c.11656.0673.13036.19446.00766.28567l-1.17189.87112c-.12292.09137-.317.09822-.43356.03092l-1.29457-.74742c-.12071-.06969-.13891-.1991-.01599-.29047l1.17189-.87112c.1227-.09121.32118-.09581.44189-.02612z" fill="#cfd8dd"/></g></g><g enable-background="new"><g><path d="m35.99626 25.53564-.03124-.24455c.00631.04937.03752.09608.09309.12816l.03123.24456c-.05557-.03208-.08678-.07878-.09308-.12817z" fill="#b0b8bc"/></g><g><path d="m38.74112 25.32658.03123.24456c.00717.0561-.02284.11635-.09018.1664l-.03123-.24456c.06734-.05005.09734-.1103.09018-.1664z" fill="#b0b8bc"/></g><g><path d="m37.35268 26.16667.03123.24457-1.29457-.74743-.03123-.24456z" fill="#b0b8bc"/></g><g><path d="m38.65094 25.49299.03123.24456-.86047.63962-.03123-.24456z" fill="#b0b8bc"/></g><g><path d="m37.79047 26.13261.03123.24456c-.1147.08526-.3129.10617-.43779.03407l-.03123-.24456c.12489.0721.32309.05119.43779-.03407z" fill="#b0b8bc"/></g><g><path d="m38.6475 25.20418c.12489.0721.12636.19743.00344.28881l-.86047.63962c-.1147.08526-.3129.10617-.43779.03406l-1.29457-.74742c-.12071-.06969-.12646-.20835-.01176-.29361l.86047-.63962c.12292-.09138.32541-.09895.44611-.02925z" fill="#cfd8dd"/></g></g><g enable-background="new"><g><path d="m33.92833 27.07557-.03123-.24455c.00626.04902.03735.09469.09199.12624l.03123.24456c-.05465-.03155-.08573-.07722-.09199-.12625z" fill="#b0b8bc"/></g><g><path d="m36.98751 26.63012.03123.24456c.00717.0561-.02284.11635-.09018.1664l-.03123-.24456c.06733-.05005.09734-.1103.09018-.1664z" fill="#b0b8bc"/></g><g><path d="m35.28365 27.70468.03123.24456-1.29457-.74742-.03123-.24456z" fill="#b0b8bc"/></g><g><path d="m36.89732 26.79652.03123.24456-1.16766.86798-.03123-.24456z" fill="#b0b8bc"/></g><g><path d="m35.72966 27.6645.03123.24456c-.12292.09138-.32112.11228-.44601.04018l-.03123-.24456c.12489.0721.32309.05119.44601-.04018z" fill="#b0b8bc"/></g><g><path d="m36.89389 26.50772c.12489.0721.12636.19743.00344.28881l-1.16766.86798c-.12292.09137-.32113.11228-.44601.04018l-1.29457-.74742c-.12071-.06969-.12646-.20835-.00354-.29973l1.16767-.86798c.12292-.09137.3254-.09895.44611-.02925z" fill="#cfd8dd"/></g></g><g enable-background="new"><g><path d="m20.80755 27.05883-.03124-.24455c.00637.04982.03955.09658.09641.1294l.03123.24456c-.05685-.03282-.09003-.07957-.0964-.12941z" fill="#b0b8bc"/></g><g><path d="m23.86749 26.61441.03123.24456c.0075.05871-.0239.122-.09074.17168l-.03123-.24456c.06684-.04969.09823-.11298.09074-.17168z" fill="#b0b8bc"/></g><g><path d="m22.16726 27.69109.03123.24456-1.29454-.7474-.03123-.24456z" fill="#b0b8bc"/></g><g><path d="m23.77674 26.78609.03123.24456-1.17167.87095-.03122-.24456z" fill="#b0b8bc"/></g><g><path d="m22.60508 27.65704.03123.24456c-.12292.09137-.31293.10615-.43781.03405l-.03123-.24456c.12488.0721.31488.05733.43781-.03405z" fill="#b0b8bc"/></g><g><path d="m23.7775 26.49413c.12489.0721.11817.20356-.00076.29196l-1.17167.87095c-.12292.09138-.31293.10615-.43781.03405l-1.29454-.7474c-.12074-.06971-.13472-.20225-.0118-.29363l1.17167-.87095c.11892-.0884.32963-.10209.45036-.03238z" fill="#cfd8dd"/></g></g><g enable-background="new"><g><path d="m22.80469 28.21455-.03123-.24455c.00615.04809.03706.09248.08895.12243l.03123.24456c-.05189-.02996-.08281-.07434-.08895-.12244z" fill="#b0b8bc"/></g><g><path d="m25.86129 27.77003.03122.24457c.0075.05863-.0215.12127-.08653.16961l-.03123-.24456c.06503-.04834.09403-.11098.08654-.16962z" fill="#b0b8bc"/></g><g><path d="m24.15698 28.83985.03123.24456-1.29457-.74742-.03123-.24456z" fill="#b0b8bc"/></g><g><path d="m25.77476 27.93965.03123.24456-1.17167.87095-.03123-.24456z" fill="#b0b8bc"/></g><g><path d="m24.60309 28.8106.03123.24456c-.12292.09137-.32123.10136-.44611.02925l-.03123-.24456c.12488.0721.32319.06212.44611-.02925z" fill="#b0b8bc"/></g><g><path d="m25.76722 27.64289c.12489.0721.12646.20835.00754.29675l-1.17167.87095c-.12292.09138-.32123.10136-.44611.02925l-1.29457-.74742c-.11238-.06488-.12636-.19743-.00344-.28881l1.17167-.87095c.11892-.0884.32963-.10209.44201-.0372z" fill="#cfd8dd"/></g></g><g enable-background="new"><g><path d="m24.79807 29.36817-.03123-.24455c.00592.0463.03716.08979.09362.12239l.03123.24456c-.05647-.0326-.08771-.07609-.09362-.1224z" fill="#b0b8bc"/></g><g><path d="m27.85934 28.9236.03123.24457c.00749.05863-.02151.12127-.08653.16961l-.03123-.24456c.06502-.04834.09402-.11098.08653-.16962z" fill="#b0b8bc"/></g><g><path d="m26.15502 29.99342.03123.24456-1.29457-.74742-.03123-.24456z" fill="#b0b8bc"/></g><g><path d="m27.7728 29.09322.03123.24456-1.17167.87095-.03123-.24456z" fill="#b0b8bc"/></g><g><path d="m26.60113 29.96417.03123.24456c-.12292.09138-.32123.10136-.44611.02925l-.03123-.24456c.12489.07211.32319.06212.44611-.02925z" fill="#b0b8bc"/></g><g><path d="m27.76526 28.79646c.12489.0721.12646.20835.00754.29675l-1.17167.87095c-.12292.09138-.32123.10136-.44611.02926l-1.29457-.74742c-.12486-.07209-.12636-.19743-.00344-.28881l1.17167-.87095c.11892-.0884.31715-.10929.44201-.0372z" fill="#cfd8dd"/></g></g><g enable-background="new"><g><path d="m13.01905 25.08492-.03124-.24456c.00629.04918.03952.09557.0979.12927l.03123.24456c-.05838-.0337-.09161-.08009-.09789-.12927z" fill="#b0b8bc"/></g><g><path d="m23.95135 29.18851.03122.24457c.00758.05929-.02236.12317-.09002.17346l-.03123-.24456c.06766-.05028.0976-.11417.09003-.17347z" fill="#b0b8bc"/></g><g><path d="m22.24754 30.25922.03123.24456-9.16183-5.28959-.03122-.24456z" fill="#b0b8bc"/></g><g><path d="m23.86132 29.36198.03123.24456-1.16766.86798-.03123-.24456z" fill="#b0b8bc"/></g><g><path d="m22.69366 30.22996.03123.24456c-.12292.09137-.32123.10136-.44611.02925l-.03123-.24456c.12488.07211.32318.06212.44611-.02925z" fill="#b0b8bc"/></g><g><path d="m23.85778 29.06226c.12489.0721.12647.20835.00354.29973l-1.16767.86798c-.12292.09138-.32123.10136-.44611.02926l-9.16183-5.28959c-.12489-.0721-.13469-.20224-.01177-.29361l1.16767-.86798c.12292-.09138.32945-.10747.45434-.03537z" fill="#cfd8dd"/></g></g><g enable-background="new"><g><path d="m22.88864 30.78753-.03123-.24456c.00592.04631.03716.08979.09361.12239l.03123.24456c-.05646-.03259-.0877-.07608-.09361-.12239z" fill="#b0b8bc"/></g><g><path d="m25.94939 30.34208.03123.24456c.00757.0593-.02237.12318-.09002.17347l-.03123-.24456c.06765-.05028.09759-.11417.09002-.17347z" fill="#b0b8bc"/></g><g><path d="m24.24559 31.41279.03123.24456-1.29457-.74742-.03123-.24456z" fill="#b0b8bc"/></g><g><path d="m25.85937 30.51555.03123.24457-1.16767.86797-.03123-.24456z" fill="#b0b8bc"/></g><g><path d="m24.6917 31.38353.03123.24456c-.12292.09138-.32123.10136-.44611.02926l-.03123-.24456c.12488.0721.32319.06212.44611-.02926z" fill="#b0b8bc"/></g><g><path d="m25.85582 30.21583c.12489.0721.12647.20835.00354.29973l-1.16767.86798c-.12292.09137-.32123.10136-.44611.02925l-1.29457-.74742c-.12486-.07209-.12636-.19743-.00344-.28881l1.16767-.86798c.12292-.09138.32115-.11226.44601-.04018z" fill="#cfd8dd"/></g></g><g enable-background="new"><g><path d="m31.14271 27.98214-.03123-.24456c.00594.04645.03722.09039.09417.12327l.03123.24456c-.05696-.03287-.08824-.07682-.09417-.12327z" fill="#b0b8bc"/></g><g><path d="m34.1964 27.54326.03122.24456c.00717.05606-.02057.1163-.08657.16537l-.03123-.24456c.066-.04906.09374-.10931.08658-.16537z" fill="#b0b8bc"/></g><g><path d="m32.50021 28.60828.03123.24456-1.29457-.74742-.03123-.24456z" fill="#b0b8bc"/></g><g><path d="m34.10981 27.70863.03123.24457-1.17189.87111-.03123-.24456z" fill="#b0b8bc"/></g><g><path d="m32.93792 28.57975.03123.24456c-.1187.08823-.31701.09822-.43771.02853l-.03123-.24456c.12071.06969.31901.05971.43771-.02853z" fill="#b0b8bc"/></g><g><path d="m34.10223 27.41743c.12071.06969.13051.19983.00759.2912l-1.17189.87112c-.1187.08824-.317.09822-.43771.02853l-1.29457-.74742c-.12489-.0721-.12636-.19743-.00766-.28567l1.17189-.87111c.12292-.09138.3129-.10617.43778-.03407z" fill="#cfd8dd"/></g></g><g enable-background="new"><g><path d="m29.62706 29.62459-.03123-.24456c.00632.04952.04067.09636.10019.13073l.03123.24456c-.05953-.03437-.09387-.08122-.10019-.13073z" fill="#b0b8bc"/></g><g><path d="m32.67734 29.19093.03123.24457c.00696.05449-.01957.11383-.08545.1628l-.03123-.24456c.06588-.04897.09241-.10831.08545-.16281z" fill="#b0b8bc"/></g><g><path d="m30.99059 30.25818.03123.24456-1.29457-.74742-.03123-.24456z" fill="#b0b8bc"/></g><g><path d="m32.59189 29.35374.03123.24456-1.17189.87112-.03123-.24456z" fill="#b0b8bc"/></g><g><path d="m31.42 30.22486.03123.24456c-.12292.09138-.317.09822-.42941.03332l-.03123-.24456c.1124.0649.30649.05805.42941-.03332z" fill="#b0b8bc"/></g><g><path d="m32.58838 29.07047c.11241.0649.12622.19206.00351.28327l-1.17189.87112c-.12292.09138-.317.09822-.42941.03332l-1.29457-.74742c-.12486-.07209-.13891-.1991-.01599-.29047l1.17189-.87112c.1227-.09121.31703-.0982.44189-.02612z" fill="#cfd8dd"/></g></g><g enable-background="new"><g><path d="m26.79611 30.52174-.03124-.24456c.00592.04631.03716.0898.09362.1224l.03123.24456c-.05646-.0326-.08769-.07609-.09361-.1224z" fill="#b0b8bc"/></g><g><path d="m29.85131 30.06698.03122.24457c.00751.05869-.02518.12224-.09293.1726l-.03123-.24456c.06774-.05036.10043-.11391.09294-.17261z" fill="#b0b8bc"/></g><g><path d="m28.15306 31.14699.03123.24457-1.29457-.74742-.03122-.24457z" fill="#b0b8bc"/></g><g><path d="m29.75837 30.23958.03123.24457-1.17167.87095-.03123-.24457z" fill="#b0b8bc"/></g><g><path d="m28.5867 31.11053.03123.24456c-.12292.09137-.30875.10856-.43364.03646l-.03123-.24456c.12489.07211.31072.05492.43364-.03646z" fill="#b0b8bc"/></g><g><path d="m29.7633 29.95004c.12489.0721.11399.20115-.00493.28955l-1.17167.87095c-.12292.09138-.30875.10856-.43364.03646l-1.29457-.74742c-.12486-.07209-.12636-.19743-.00344-.28881l1.17167-.87095c.11892-.0884.31715-.10929.44201-.0372z" fill="#cfd8dd"/></g></g><g enable-background="new"><g><path d="m24.93612 31.97099-.03124-.24456c.00581.04544.03595.08776.08996.11895l.03123.24456c-.05401-.03119-.08414-.07351-.08995-.11895z" fill="#b0b8bc"/></g><g><path d="m27.99322 31.52209.03123.24457c.00757.05929-.02237.12318-.09002.17347l-.03123-.24456c.06765-.0503.09759-.11418.09002-.17348z" fill="#b0b8bc"/></g><g><path d="m26.28942 32.59279.03123.24456-1.29457-.74741-.03123-.24457z" fill="#b0b8bc"/></g><g><path d="m27.9032 31.69556.03123.24456-1.16767.86798-.03123-.24456z" fill="#b0b8bc"/></g><g><path d="m26.73553 32.56354.03123.24456c-.12292.09138-.32123.10136-.44611.02925l-.03123-.24456c.12488.07211.32319.06212.44611-.02925z" fill="#b0b8bc"/></g><g><path d="m27.89966 31.39584c.12489.0721.12646.20835.00354.29973l-1.16767.86798c-.12292.09137-.32123.10136-.44611.02925l-1.29457-.74742c-.12071-.06969-.12219-.19502.00074-.28639l1.16767-.86798c.12292-.09138.32112-.11228.44183-.04259z" fill="#cfd8dd"/></g></g><g enable-background="new"><g><path d="m37.98027 26.68666-.03124-.24455c.00587.04588.03534.08928.09047.12111l.03123.24456c-.05512-.03184-.0846-.07524-.09046-.12112z" fill="#b0b8bc"/></g><g><path d="m40.72308 26.47399.03122.24457c.00716.05605-.02057.11629-.08657.16536l-.03123-.24456c.06601-.04907.09374-.10931.08658-.16537z" fill="#b0b8bc"/></g><g><path d="m39.33407 27.31063.03123.24456-1.29457-.74742-.03122-.24456z" fill="#b0b8bc"/></g><g><path d="m40.6365 26.63935.03123.24457-.86047.63962-.03122-.24456z" fill="#b0b8bc"/></g><g><path d="m39.77604 27.27898.03123.24456c-.1147.08526-.32125.10134-.44196.03165l-.03123-.24456c.1207.06969.32725.05361.44196-.03165z" fill="#b0b8bc"/></g><g><path d="m40.62889 26.34814c.12071.06969.13054.19984.00761.29122l-.86047.63962c-.1147.08526-.32125.10134-.44196.03165l-1.29457-.74742c-.12486-.07209-.11814-.20354-.00344-.28881l.86047-.63962c.12292-.09138.31293-.10615.43779-.03406z" fill="#cfd8dd"/></g></g><g enable-background="new"><g><path d="m35.9122 28.22631-.03123-.24455c.00583.04558.03524.08813.0895.11946l.03123.24456c-.05427-.03134-.08368-.07388-.0895-.11947z" fill="#b0b8bc"/></g><g><path d="m38.96946 27.77752.03122.24457c.00716.05605-.02057.11629-.08657.16535l-.03123-.24456c.06601-.04905.09374-.1093.08658-.16536z" fill="#b0b8bc"/></g><g><path d="m37.26504 28.84863.03122.24456-1.29456-.74742-.03123-.24456z" fill="#b0b8bc"/></g><g><path d="m38.88289 27.94289.03123.24456-1.16767.86798-.03122-.24456z" fill="#b0b8bc"/></g><g><path d="m37.71523 28.81087.03123.24456c-.12292.09137-.32948.10746-.45019.03776l-.03123-.24456c.12071.06969.32726.05361.45019-.03776z" fill="#b0b8bc"/></g><g><path d="m38.87527 27.65167c.12071.06969.13054.19984.00762.29122l-1.16767.86798c-.12292.09138-.32948.10746-.45019.03777l-1.29457-.74742c-.12486-.07209-.11814-.20354.00479-.29492l1.16767-.86798c.12292-.09138.31293-.10615.43778-.03406z" fill="#cfd8dd"/></g></g><g enable-background="new"><g><path d="m33.13191 29.13193-.03123-.24455c.00583.04559.03602.08838.0905.11984l.03123.24456c-.05448-.03146-.08468-.07426-.0905-.11985z" fill="#b0b8bc"/></g><g><path d="m36.18566 28.69306.03122.24457c.00716.05602-.02066.11567-.08612.16433l-.03123-.24456c.06546-.04866.09328-.10831.08613-.16434z" fill="#b0b8bc"/></g><g><path d="m34.48575 29.75463.03123.24456-1.29457-.74742-.03123-.24456z" fill="#b0b8bc"/></g><g><path d="m36.09953 28.8574.03123.24456-1.17189.87111-.03123-.24456z" fill="#b0b8bc"/></g><g><path d="m34.92764 29.72851.03123.24456c-.1187.08824-.31701.09822-.44189.02612l-.03123-.24456c.12489.0721.32319.06212.44189-.02612z" fill="#b0b8bc"/></g><g><path d="m36.08776 28.56379c.12489.0721.13469.20224.01176.29361l-1.17189.87112c-.1187.08823-.317.09822-.44189.02612l-1.29457-.74742c-.12071-.06969-.12221-.19503-.00351-.28327l1.17189-.87111c.12292-.09138.31293-.10615.43364-.03646z" fill="#cfd8dd"/></g></g><g enable-background="new"><g><path d="m31.60429 30.76615-.03123-.24456c.00632.04951.04066.09636.1002.13073l.03123.24456c-.05954-.03437-.09388-.08122-.1002-.13073z" fill="#b0b8bc"/></g><g><path d="m34.65676 30.33605.03123.24457c.00695.05444-.01859.11341-.08348.16164l-.03123-.24456c.06488-.04824.09043-.1072.08348-.16165z" fill="#b0b8bc"/></g><g><path d="m32.96783 31.39974.03122.24456-1.29457-.74742-.03122-.24456z" fill="#b0b8bc"/></g><g><path d="m34.57328 30.4977.03123.24456-1.17189.87111-.03123-.24456z" fill="#b0b8bc"/></g><g><path d="m33.40139 31.36881.03123.24456c-.12292.09137-.32118.09581-.43356.03092l-.03123-.24456c.11238.06489.31063.06046.43356-.03092z" fill="#b0b8bc"/></g><g><path d="m34.56562 30.21203c.11238.06488.13036.19446.00766.28567l-1.17189.87111c-.12292.09138-.32118.09581-.43356.03092l-1.29457-.74742c-.12489-.0721-.13891-.1991-.01599-.29047l1.17189-.87112c.1227-.09121.31701-.09822.44189-.02612z" fill="#cfd8dd"/></g></g><g enable-background="new"><g><path d="m28.78988 31.66843-.03124-.24456c.00629.04918.03952.09557.0979.12927l.03123.24456c-.05838-.0337-.09161-.08009-.09789-.12927z" fill="#b0b8bc"/></g><g><path d="m31.84935 31.22055.03123.24457c.0075.05869-.02519.12223-.09294.17259l-.03123-.24456c.06775-.05035.10044-.1139.09294-.1726z" fill="#b0b8bc"/></g><g><path d="m30.15111 32.30056.03123.24457-1.29457-.74742-.03123-.24457z" fill="#b0b8bc"/></g><g><path d="m31.75641 31.39315.03123.24457-1.17167.87095-.03123-.24456z" fill="#b0b8bc"/></g><g><path d="m30.58474 32.26411.03123.24456c-.12292.09137-.30875.10856-.43364.03646l-.03123-.24456c.1249.0721.31072.05491.43364-.03646z" fill="#b0b8bc"/></g><g><path d="m31.76134 31.10361c.12489.0721.11399.20115-.00493.28955l-1.17167.87095c-.12292.09137-.30875.10856-.43364.03646l-1.29457-.74742c-.12489-.0721-.13469-.20224-.01177-.29361l1.17167-.87095c.11892-.0884.32545-.1045.45034-.03239z" fill="#cfd8dd"/></g></g><g enable-background="new"><g><path d="m26.98045 33.14993-.03124-.24455c.00592.04631.03717.08981.09364.12241l.03123.24456c-.05647-.0326-.08771-.0761-.09363-.12242z" fill="#b0b8bc"/></g><g><path d="m30.03965 32.70451.03122.24456c.00758.05928-.02115.12346-.08843.17347l-.03123-.24456c.06728-.05001.09601-.11419.08844-.17347z" fill="#b0b8bc"/></g><g><path d="m28.3374 33.7752.03123.24456-1.29454-.74741-.03123-.24456z" fill="#b0b8bc"/></g><g><path d="m29.95121 32.87798.03123.24456-1.16767.86798-.03123-.24456z" fill="#b0b8bc"/></g><g><path d="m28.78354 33.74596.03123.24456c-.12292.09138-.32541.09895-.44614.02924l-.03123-.24456c.12074.0697.32322.06213.44614-.02924z" fill="#b0b8bc"/></g><g><path d="m29.94764 32.57824c.12074.06971.12649.20837.00357.29974l-1.16767.86798c-.12292.09137-.32541.09895-.44614.02924l-1.29454-.7474c-.12489-.07211-.12639-.19745-.00347-.28882l1.16767-.86798c.12292-.09137.32115-.11226.44604-.04016z" fill="#cfd8dd"/></g></g><g enable-background="new"><g><path d="m39.96534 27.82956-.03123-.24455c.00612.04788.03635.09304.09096.12457l.03123.24456c-.05461-.03153-.08484-.07668-.09096-.12458z" fill="#b0b8bc"/></g><g><path d="m42.70494 27.61688.03123.24457c.00716.05608-.02048.11693-.08706.16642l-.03123-.24456c.06658-.04949.09423-.11034.08706-.16643z" fill="#b0b8bc"/></g><g><path d="m41.31964 28.457.03123.24456-1.29457-.74742-.03123-.24456z" fill="#b0b8bc"/></g><g><path d="m42.61789 27.78331.03123.24456-.86047.63962-.03123-.24456z" fill="#b0b8bc"/></g><g><path d="m41.75742 28.42293.03123.24456c-.1147.08526-.32123.10136-.43779.03406l-.03122-.24455c.11656.06729.32308.05119.43778-.03407z" fill="#b0b8bc"/></g><g><path d="m42.61445 27.4945c.11656.0673.12636.19743.00344.28881l-.86047.63962c-.1147.08526-.32123.10136-.43779.03406l-1.29457-.74742c-.12071-.06969-.12232-.20596-.00762-.29122l.86047-.63962c.12292-.09138.32125-.10134.44196-.03165z" fill="#cfd8dd"/></g></g><g enable-background="new"><g><path d="m41.94721 28.97698-.03124-.24456c.00587.04588.03535.08928.09048.12111l.03123.24456c-.05513-.03183-.08461-.07523-.09047-.12111z" fill="#b0b8bc"/></g><g><path d="m45.26805 29.09491.03122.24456c.00717.0561-.02284.11635-.09018.1664l-.03123-.24456c.06735-.05005.09736-.1103.09019-.1664z" fill="#b0b8bc"/></g><g><path d="m43.87962 29.935.03122.24456-1.87315-1.08147-.03123-.24456z" fill="#b0b8bc"/></g><g><path d="m45.17787 29.26131.03123.24456-.86047.63963-.03123-.24456z" fill="#b0b8bc"/></g><g><path d="m44.3174 29.90094.03123.24456c-.1147.08526-.3129.10617-.43779.03406l-.03122-.24456c.12488.0721.32308.0512.43778-.03406z" fill="#b0b8bc"/></g><g><path d="m45.17443 28.97251c.12489.0721.12637.19743.00344.2888l-.86047.63962c-.1147.08526-.3129.10617-.43778.03406l-1.87316-1.08147c-.12489-.0721-.11814-.20354-.00344-.28881l.86047-.63962c.12292-.09138.3129-.10617.43779-.03406z" fill="#cfd8dd"/></g></g><g enable-background="new"><g><path d="m38.07258 29.47361-.03123-.24456c.00582.04559.03523.08813.08951.11946l.03123.24456c-.05428-.03133-.08369-.07387-.08951-.11946z" fill="#b0b8bc"/></g><g><path d="m43.51444 30.39844.03122.24456c.00717.0561-.02283.11635-.09018.1664l-.03123-.24456c.06735-.05005.09735-.1103.09019-.1664z" fill="#b0b8bc"/></g><g><path d="m41.81058 31.473.03123.24456-3.67972-2.12449-.03123-.24456z" fill="#b0b8bc"/></g><g><path d="m43.42426 30.56485.03123.24456-1.16767.86798-.03123-.24457z" fill="#b0b8bc"/></g><g><path d="m42.25659 31.43282.03123.24456c-.12292.09137-.32113.11228-.44601.04018l-.03123-.24456c.12489.0721.32308.0512.44601-.04018z" fill="#b0b8bc"/></g><g><path d="m43.42082 30.27604c.12489.0721.12636.19743.00344.28881l-1.16767.86798c-.12292.09138-.32112.11228-.44601.04018l-3.67972-2.12449c-.12489-.0721-.11814-.20354.00478-.29492l1.16767-.86798c.12292-.09138.3129-.10617.43779-.03407z" fill="#cfd8dd"/></g></g><g enable-background="new"><g><path d="m35.12004 30.28062-.03124-.24456c.00576.04504.03611.08758.0921.11991l.03123.24456c-.05599-.03232-.08634-.07486-.09209-.11991z" fill="#b0b8bc"/></g><g><path d="m38.17537 29.84182.03123.24457c.00716.05602-.02066.11567-.08612.16433l-.03123-.24456c.06546-.04866.09328-.10831.08612-.16434z" fill="#b0b8bc"/></g><g><path d="m36.47547 30.90339.03122.24456-1.29456-.74742-.03123-.24456z" fill="#b0b8bc"/></g><g><path d="m38.08924 30.00616.03124.24456-1.17189.87112-.03124-.24456z" fill="#b0b8bc"/></g><g><path d="m36.91735 30.87728.03123.24456c-.1187.08824-.31701.09822-.44189.02612l-.03123-.24456c.12489.0721.3232.06211.44189-.02612z" fill="#b0b8bc"/></g><g><path d="m38.07748 29.71255c.12489.0721.13469.20224.01176.29361l-1.17189.87111c-.1187.08824-.317.09822-.44189.02612l-1.29457-.74742c-.12489-.0721-.12221-.19503-.00351-.28327l1.17189-.87112c.12292-.09137.30875-.10856.43364-.03646z" fill="#cfd8dd"/></g></g><g enable-background="new"><g><path d="m37.03275 31.38276-.03123-.24456c.00594.04645.03722.09039.09417.12327l.03123.24456c-.05695-.03287-.08824-.07682-.09417-.12327z" fill="#b0b8bc"/></g><g><path d="m41.60523 31.81764.03122.24457c.00717.0561-.02283.11634-.09018.1664l-.03123-.24456c.06735-.05006.09735-.11031.09019-.16641z" fill="#b0b8bc"/></g><g><path d="m39.90959 32.88609.03123.24456-2.8139-1.62461-.03123-.24456z" fill="#b0b8bc"/></g><g><path d="m41.51505 31.98405.03122.24456-1.17189.87111-.03123-.24456z" fill="#b0b8bc"/></g><g><path d="m40.34315 32.85516.03123.24456c-.1187.08823-.30867.10303-.43356.03092l-.03123-.24456c.12489.07211.31486.05732.43356-.03092z" fill="#b0b8bc"/></g><g><path d="m41.5116 31.69524c.12489.0721.12636.19743.00344.2888l-1.17189.87112c-.1187.08823-.30868.10303-.43356.03092l-2.8139-1.62461c-.12489-.0721-.12636-.19743-.00766-.28567l1.17189-.87111c.12292-.09138.3129-.10617.43778-.03407z" fill="#cfd8dd"/></g></g><g enable-background="new"><g><path d="m33.58434 31.91314-.03123-.24455c.00601.04701.03697.09041.08905.12048l.03123.24456c-.05208-.03007-.08304-.07347-.08905-.12049z" fill="#b0b8bc"/></g><g><path d="m39.6939 33.24137.03123.24457c.00696.0545-.02194.1127-.08807.16186l-.03123-.24456c.06613-.04915.09503-.10736.08807-.16187z" fill="#b0b8bc"/></g><g><path d="m38.00038 34.30528.03123.24457-4.35821-2.51622-.03123-.24456z" fill="#b0b8bc"/></g><g><path d="m39.60583 33.40324.03123.24456-1.17189.87112-.03123-.24456z" fill="#b0b8bc"/></g><g><path d="m38.43394 34.27436.03123.24456c-.12292.09137-.30868.10303-.43356.03093l-.03123-.24456c.12489.0721.31064.06044.43356-.03093z" fill="#b0b8bc"/></g><g><path d="m39.59817 33.11758c.12489.0721.13036.19445.00766.28566l-1.17189.87112c-.12292.09137-.30867.10303-.43356.03092l-4.35822-2.51621c-.11241-.0649-.12643-.19189-.00351-.28327l1.17189-.87112c.1227-.09121.31701-.09822.42941-.03332z" fill="#cfd8dd"/></g></g><g enable-background="new"><g><path d="m30.82538 32.84363-.03124-.24456c.00629.04918.03952.09557.0979.12927l.03123.24456c-.05838-.0337-.09161-.08009-.09789-.12927z" fill="#b0b8bc"/></g><g><path d="m37.78716 34.65092.03123.24457c.0075.0587-.02391.12199-.09076.17168l-.03123-.24456c.06684-.0497.09825-.11298.09076-.17169z" fill="#b0b8bc"/></g><g><path d="m36.08694 35.72762.03124.24456-5.19491-2.99928-.03123-.24456z" fill="#b0b8bc"/></g><g><path d="m37.6964 34.82261.03123.24456-1.17167.87095-.03123-.24456z" fill="#b0b8bc"/></g><g><path d="m36.52473 35.69356.03123.24456c-.12292.09138-.3129.10617-.43778.03407l-.03123-.24456c.12488.07209.31486.0573.43778-.03407z" fill="#b0b8bc"/></g><g><path d="m37.69718 34.53066c.12489.07211.11814.20354-.00078.29195l-1.17167.87095c-.12292.09138-.3129.10617-.43779.03407l-5.1949-2.99928c-.12489-.0721-.13469-.20224-.01177-.29361l1.17167-.87095c.11892-.0884.32545-.1045.45034-.0324z" fill="#cfd8dd"/></g></g><g enable-background="new"><g><path d="m28.94539 34.2267-.03123-.24456c.00567.04441.03323.08564.08444.1152l.03123.24456c-.05121-.02956-.07877-.07078-.08444-.1152z" fill="#b0b8bc"/></g><g><path d="m31.06287 34.46476.03123.24457c.00716.05601-.02278.11615-.09006.16616l-.03123-.24456c.06727-.05002.09721-.11015.09006-.16617z" fill="#b0b8bc"/></g><g><path d="m30.29317 34.84476.03123.24456-1.29457-.74741-.03123-.24456z" fill="#b0b8bc"/></g><g><path d="m30.9728 34.63093.03123.24456-.23362.17366-.03123-.24456z" fill="#b0b8bc"/></g><g><path d="m30.73918 34.80459.03123.24456c-.11892.0884-.32115.11227-.44601.04018l-.03123-.24456c.12486.07208.32709.04822.44601-.04018z" fill="#b0b8bc"/></g><g><path d="m30.96914 34.34229c.12486.07209.12659.19726.00366.28864l-.23362.17366c-.11892.0884-.32115.11226-.44601.04018l-1.29457-.74742c-.12071-.06969-.10999-.20412.00894-.29252l.23362-.17366c.12292-.09137.3127-.10598.43341-.03629z" fill="#cfd8dd"/></g></g><g enable-background="new"><g><path d="m31.81789 34.64542-.03123-.24456c.00581.04543.03595.08776.08996.11894l.03123.24456c-.05402-.03118-.08416-.0735-.08996-.11894z" fill="#b0b8bc"/></g><g><path d="m33.94508 34.89407.03123.24457c.00715.05598-.02062.11556-.08593.16411l-.03123-.24456c.06531-.04855.09308-.10813.08593-.16412z" fill="#b0b8bc"/></g><g><path d="m33.17119 35.26723.03123.24456-1.29457-.74742-.03123-.24456z" fill="#b0b8bc"/></g><g><path d="m33.85915 35.0582.03123.24456-.24185.17977-.03123-.24456z" fill="#b0b8bc"/></g><g><path d="m33.6173 35.23797.03123.24456c-.12292.09137-.32123.10136-.44611.02925l-.03123-.24456c.12488.07211.32319.06213.44611-.02925z" fill="#b0b8bc"/></g><g><path d="m33.84716 34.76475c.12489.07211.13469.20224.01199.29345l-.24185.17977c-.12292.09138-.32122.10136-.44611.02926l-1.29457-.74742c-.12071-.06969-.12218-.19502.00074-.28639l.24185-.17978c.1227-.09121.31268-.106.43338-.03631z" fill="#cfd8dd"/></g></g><g enable-background="new"><g><path d="m30.88515 35.34664-.03123-.24456c.00567.0444.03322.08561.08443.11518l.03123.24456c-.05121-.02956-.07876-.07077-.08443-.11518z" fill="#b0b8bc"/></g><g><path d="m33.0069 35.59156.03122.24457c.00715.05593-.02061.11547-.08602.16409l-.03123-.24456c.06541-.04862.09318-.10816.08603-.1641z" fill="#b0b8bc"/></g><g><path d="m32.23292 35.96468.03123.24456-1.29457-.74742-.03123-.24456z" fill="#b0b8bc"/></g><g><path d="m32.92088 35.75565.03123.24456-.23362.17366-.03123-.24456z" fill="#b0b8bc"/></g><g><path d="m32.68726 35.92931.03123.24456c-.11892.0884-.32945.10747-.45434.03537l-.03123-.24456c.12489.07211.33541.05303.45434-.03537z" fill="#b0b8bc"/></g><g><path d="m32.90889 35.4622c.12489.0721.13491.20207.01199.29345l-.23362.17366c-.11892.0884-.32945.10748-.45434.03537l-1.29457-.74742c-.12071-.06969-.10996-.20411.00896-.29251l.23362-.17366c.12292-.09138.31268-.106.43339-.03631z" fill="#cfd8dd"/></g></g><g enable-background="new"><g><path d="m32.82982 36.46339-.03123-.24456c.00616.04821.03652.09352.09202.12556l.03123.24456c-.0555-.03203-.08586-.07735-.09202-.12556z" fill="#b0b8bc"/></g><g><path d="m34.95488 36.71181.03122.24456c.00716.05602-.02279.11615-.09007.16616l-.03123-.24456c.06729-.05001.09724-.11014.09008-.16616z" fill="#b0b8bc"/></g><g><path d="m34.18517 37.09182.03123.24456-1.29457-.74742-.03122-.24457z" fill="#b0b8bc"/></g><g><path d="m34.86481 36.87798.03122.24456-.23362.17366-.03123-.24456z" fill="#b0b8bc"/></g><g><path d="m34.63118 37.05164.03123.24456c-.11892.0884-.32113.11228-.44601.04018l-.03123-.24456c.12489.0721.32709.04822.44601-.04018z" fill="#b0b8bc"/></g><g><path d="m34.86115 36.58934c.12489.07211.12659.19727.00366.28864l-.23362.17366c-.11892.0884-.32112.11228-.44601.04018l-1.29457-.74742c-.12486-.07209-.12247-.21132-.00354-.29972l.23362-.17366c.12292-.09138.32103-.10118.44589-.02909z" fill="#cfd8dd"/></g></g></g><g><g><g><g enable-background="new"><g><path d="m26.18412 18.73346-.01036 3.65294-4.06644 2.36316.01035-3.65294z" fill="#d9ae6d"/></g><g><path d="m24.32825 20.76991.00327 1.15245 1.57362-.90853-.00327-1.15245z" fill="#fff"/></g><g><path d="m24.48142 21.67103.00021.07514 1.31597-.75977-.00021-.07515z" fill="#dde4e7"/></g><g><path d="m24.59965 19.65635-.00225.79371-.28065.1631-.32227.18728.00225-.79371z" fill="#ee5550"/></g><g><path d="m22.11767 21.09662-.01035 3.65294-4.79715-2.76963.01036-3.65295z" fill="#fecd82"/></g><g><path d="m26.18412 18.73346-4.06645 2.36316-4.79714-2.76964 4.06644-2.36316z" fill="#ffd69a"/></g><g><path d="m24.59965 19.65635-.60292.35038-4.79715-2.76963.60292-.35038z" fill="#f17572"/></g></g></g><g><g><path d="m18.86974 21.93614c.0058.02964.00931.0591.00924.08572-.0003.10427-.04042.18669-.12228.22958-.03765.01921-.05903.06361-.0592.12323l.05614.03242c.00914.00528.0176.0188.01757.03081-.00003.01164-.00854.01535-.01768.01007l-.14885-.08594c-.01012-.00584-.01858-.01935-.01855-.03099.00003-.01201.00854-.01574.01866-.00989l.05614.03242c.00017-.06076-.02186-.13021-.05896-.19258-.10153-.17019-.13868-.32838-.11187-.44403z" fill="#56707b"/></g><g><path d="m19.16872 22.00018.69135.39915-.00225.79441-.69135-.39915zm.65591 1.13608.00203-.71753-.62443-.36052-.00203.71753z" fill="#56707b"/></g><g><path d="m19.5161 22.28902c.00653.00377.01206.01373.01204.02124l-.00002.00899c.11651.07516.20992.22452.24117.38907-.00777-.0274-.02438-.05013-.04233-.06086-.01893-.01093-.03496-.00704-.04318.00886-.00843-.02551-.02341-.0477-.04234-.05899-.01893-.01093-.03431-.00666-.04253.00963-.00843-.0259-.02406-.04846-.04299-.05939-.01247-.00722-.02216-.00793-.02975-.00252l-.00241.27137c-.00047.05284-.03847.07471-.0852.04773-.04695-.02747-.08501-.09417-.08454-.14723l.00041-.02983c.00002-.00824.00592-.01161.0131-.00746.00653.00416.01238.01392.01203.02236l-.00009.02999c-.00043.03695.02625.08354.05889.10277.03264.01885.0595.00369.05993-.03342l.00241-.27135c-.00781-.01466-.01856-.02576-.02966-.03217-.01905-.011-.03475-.007-.04286.00907-.00875-.02609-.02438-.04863-.04266-.05918-.01861-.01074-.03464-.00685-.04286.01056-.00777-.02703-.02373-.04939-.04233-.0605-.01893-.01093-.03496-.00704-.04319.01075.03371-.12707.12962-.16599.24551-.10397l.00003-.00938c.00035-.00729.00591-.01048.01342-.00614z" fill="#56707b"/></g><g><path d="m18.05809 21.99387-.00013.04652-.42499-.24537.00013-.04652z" fill="#56707b"/></g><g><path d="m18.05835 21.90348-.00013.0465-.425-.24537.00013-.0465.06594.03807.05419.03128.18442.10648.05418.03128z" fill="#56707b"/></g><g><path d="m17.96621 21.4205.10299.22964-.07638-.0441-.00074.25918-.05418-.03128.00073-.25919-.07572-.04372z" fill="#56707b"/></g><g><path d="m17.50172 21.03773.69102.39896-.00225.79441-.69102-.39896zm.65558 1.1359.00203-.71753-.62443-.36052-.00204.71753z" fill="#56707b"/></g><g><path d="m17.7276 21.28274.10299.22963-.07638-.04409-.00073.25918-.05419-.03128.00074-.25919-.07573-.04372z" fill="#56707b"/></g><g><path d="m18.33505 21.51886.69135.39915-.00225.79441-.69135-.39915zm.65591 1.13609.00203-.71753-.62443-.36052-.00204.71753z" fill="#56707b"/></g></g><g><g><path d="m25.73032 20.1076.00213.75142.06494-.03749-.00213-.75142z" fill="#485f69"/></g><g><path d="m25.58734 20.19015.00213.75141.06437-.03716-.00213-.75142z" fill="#485f69"/></g><g><path d="m25.44437 20.2727.00213.75141.06436-.03716-.00213-.75142z" fill="#485f69"/></g><g><path d="m25.30082 20.35557.00213.75142.02445-.01412-.00213-.75142z" fill="#485f69"/></g><g><path d="m25.37067 20.31657.00213.75142.02445-.01412-.00213-.75142z" fill="#485f69"/></g><g><path d="m25.19687 20.41559.00213.75142.02534-.01464-.00213-.75141z" fill="#485f69"/></g><g><path d="m25.05389 20.49814.00213.75141.10715-.06186-.00213-.75142z" fill="#485f69"/></g><g><path d="m24.91035 20.58101.00213.75142.06493-.03749-.00213-.75142z" fill="#485f69"/></g><g><path d="m24.76737 20.66356.00213.75142.06494-.03749-.00213-.75142z" fill="#485f69"/></g><g><path d="m24.62439 20.74611.00213.75141.08576-.04951-.00213-.75142z" fill="#485f69"/></g><g><path d="m24.48142 20.82865.00213.75142.06436-.03716-.00213-.75142z" fill="#485f69"/></g></g></g><g><g><g enable-background="new"><g><path d="m32.10162 22.11061-.01036 3.65295-4.06644 2.36315.01035-3.65294z" fill="#d9ae6d"/></g><g><path d="m30.24575 24.14707.00327 1.15244 1.57362-.90853-.00327-1.15244z" fill="#fff"/></g><g><path d="m30.39892 25.04818.00021.07515 1.31597-.75978-.00021-.07514z" fill="#dde4e7"/></g><g><path d="m30.51715 23.03351-.00225.79371-.28065.1631-.32227.18728.00225-.79371z" fill="#ee5550"/></g><g><path d="m28.03517 24.47377-.01035 3.65294-4.79715-2.76963.01036-3.65294z" fill="#fecd82"/></g><g><path d="m32.10162 22.11061-4.06645 2.36316-4.79714-2.76963 4.06644-2.36316z" fill="#ffd69a"/></g><g><path d="m30.51715 23.03351-.60292.35038-4.79715-2.76964.60292-.35038z" fill="#f17572"/></g></g></g><g><g><path d="m24.78724 25.3133c.0058.02964.00931.0591.00924.08572-.0003.10427-.04042.18669-.12228.22958-.03765.01921-.05903.06361-.0592.12324l.05614.03241c.00914.00528.0176.0188.01757.03081-.00003.01164-.00854.01535-.01768.01007l-.14885-.08594c-.01012-.00584-.01858-.01935-.01855-.03099.00003-.012.00854-.01573.01866-.00989l.05614.03241c.00017-.06076-.02186-.13021-.05896-.19257-.10153-.17019-.13868-.32839-.11187-.44403z" fill="#56707b"/></g><g><path d="m25.08622 25.37734.69135.39915-.00225.79441-.69135-.39915zm.65591 1.13608.00203-.71753-.62443-.36052-.00203.71753z" fill="#56707b"/></g><g><path d="m25.4336 25.66617c.00653.00377.01206.01373.01204.02124l-.00002.009c.11651.07515.20992.22452.24117.38906-.00777-.0274-.02438-.05013-.04233-.06086-.01893-.01093-.03496-.00704-.04318.00886-.00843-.02551-.02341-.04769-.04234-.05899-.01893-.01093-.03431-.00666-.04253.00963-.00843-.0259-.02406-.04846-.04299-.05939-.01247-.00722-.02216-.00793-.02975-.00252l-.00241.27137c-.00047.05284-.03847.07471-.0852.04773-.04695-.02747-.08501-.09417-.08454-.14723l.00041-.02983c.00002-.00824.00592-.0116.0131-.00746.00653.00416.01239.01392.01204.02236l-.00009.02999c-.00043.03695.02625.08354.05889.10277.03264.01885.0595.00369.05993-.03342l.00241-.27135c-.00781-.01466-.01856-.02576-.02966-.03217-.01905-.011-.03475-.007-.04286.00907-.00875-.02609-.02438-.04863-.04266-.05918-.01861-.01074-.03464-.00685-.04286.01056-.00777-.02703-.02373-.04939-.04233-.0605-.01893-.01093-.03496-.00704-.04319.01076.03371-.12707.12962-.16599.24551-.10397l.00003-.00938c.00034-.0073.0059-.01048.01341-.00615z" fill="#56707b"/></g><g><path d="m23.97559 25.37103-.00013.04652-.42499-.24537.00013-.04652z" fill="#56707b"/></g><g><path d="m23.97585 25.28064-.00013.0465-.425-.24538.00013-.04649.06594.03807.05418.03128.18443.10648.05418.03128z" fill="#56707b"/></g><g><path d="m23.88371 24.79766.10299.22963-.07638-.0441-.00074.25919-.05418-.03128.00073-.25919-.07572-.04372z" fill="#56707b"/></g><g><path d="m23.41922 24.41489.69102.39896-.00225.79441-.69102-.39896zm.65558 1.1359.00203-.71753-.62443-.36052-.00204.71753z" fill="#56707b"/></g><g><path d="m23.6451 24.65989.10299.22964-.07638-.0441-.00074.25919-.05418-.03128.00074-.25919-.07573-.04372z" fill="#56707b"/></g><g><path d="m24.25255 24.89602.69135.39915-.00225.79441-.69135-.39915zm.65591 1.13608.00203-.71753-.62443-.36052-.00204.71753z" fill="#56707b"/></g></g><g><g><path d="m31.64782 23.48476.00213.75141.06494-.03749-.00213-.75141z" fill="#485f69"/></g><g><path d="m31.50484 23.5673.00213.75142.06437-.03716-.00213-.75142z" fill="#485f69"/></g><g><path d="m31.36187 23.64985.00213.75142.06436-.03716-.00213-.75142z" fill="#485f69"/></g><g><path d="m31.21832 23.73273.00213.75141.02445-.01411-.00213-.75142z" fill="#485f69"/></g><g><path d="m31.28817 23.69373.00213.75141.02445-.01411-.00213-.75142z" fill="#485f69"/></g><g><path d="m31.11437 23.79275.00213.75141.02534-.01463-.00213-.75142z" fill="#485f69"/></g><g><path d="m30.97139 23.87529.00213.75142.10715-.06186-.00213-.75142z" fill="#485f69"/></g><g><path d="m30.82784 23.95817.00214.75142.06493-.0375-.00213-.75141z" fill="#485f69"/></g><g><path d="m30.68487 24.04072.00213.75141.06494-.03749-.00213-.75142z" fill="#485f69"/></g><g><path d="m30.54189 24.12326.00213.75142.08576-.04951-.00213-.75142z" fill="#485f69"/></g><g><path d="m30.39892 24.20581.00213.75142.06436-.03717-.00213-.75141z" fill="#485f69"/></g></g></g><g><g><g enable-background="new"><g><path d="m29.41439 16.7868-.01036 3.65294-4.06644 2.36316.01035-3.65294z" fill="#d9ae6d"/></g><g><path d="m27.55852 18.82325.00327 1.15244 1.57362-.90852-.00327-1.15245z" fill="#fff"/></g><g><path d="m27.71169 19.72437.00021.07514 1.31597-.75977-.00022-.07515z" fill="#dde4e7"/></g><g><path d="m27.82992 17.70969-.00225.79371-.28065.1631-.32227.18728.00225-.79371z" fill="#ee5550"/></g><g><path d="m25.34794 19.14996-.01035 3.65294-4.79715-2.76964.01035-3.65294z" fill="#fecd82"/></g><g><path d="m29.41439 16.7868-4.06645 2.36316-4.79715-2.76964 4.06645-2.36316z" fill="#ffd69a"/></g><g><path d="m27.82992 17.70969-.60292.35038-4.79715-2.76963.60292-.35038z" fill="#f17572"/></g></g></g><g><g><path d="m22.10001 19.98948c.0058.02964.00932.05911.00924.08572-.0003.10427-.04042.18669-.12228.22958-.03765.01921-.05903.06361-.0592.12323l.05614.03242c.00914.00528.0176.0188.01757.03081-.00003.01164-.00854.01535-.01768.01007l-.14885-.08594c-.01012-.00584-.01858-.01935-.01855-.03099.00003-.01201.00854-.01573.01867-.00989l.05614.03241c.00017-.06076-.02186-.13021-.05896-.19258-.10152-.17019-.13868-.32838-.11186-.44403z" fill="#56707b"/></g><g><path d="m22.39899 20.05352.69135.39915-.00225.79441-.69135-.39915zm.65591 1.13608.00203-.71753-.62443-.36052-.00204.71753z" fill="#56707b"/></g><g><path d="m22.74637 20.34236c.00653.00377.01206.01373.01204.02124l-.00003.009c.11651.07515.20992.22451.24117.38906-.00777-.0274-.02438-.05013-.04233-.06086-.01893-.01093-.03496-.00704-.04318.00886-.00843-.02551-.02341-.0477-.04234-.05899-.01893-.01093-.03431-.00666-.04253.00962-.00843-.0259-.02406-.04846-.04299-.05939-.01247-.00722-.02216-.00793-.02975-.00252l-.0024.27137c-.00048.05284-.03847.07471-.0852.04773-.04695-.02747-.08501-.09417-.08454-.14723l.00041-.02983c.00002-.00824.00592-.01161.0131-.00746.00653.00416.01238.01392.01203.02236l-.00009.02999c-.00043.03695.02625.08354.05889.10277.03264.01885.0595.00369.05993-.03342l.0024-.27135c-.0078-.01466-.01856-.02576-.02966-.03217-.01905-.011-.03475-.007-.04286.00907-.00875-.02609-.02438-.04863-.04266-.05918-.01861-.01074-.03464-.00685-.04286.01056-.00777-.02703-.02373-.04939-.04233-.0605-.01893-.01093-.03496-.00704-.04319.01076.03371-.12707.12962-.16599.24551-.10397l.00003-.00938c.00036-.00729.00592-.01048.01343-.00614z" fill="#56707b"/></g><g><path d="m21.28836 20.04721-.00013.04652-.42499-.24537.00013-.04652z" fill="#56707b"/></g><g><path d="m21.28862 19.95682-.00014.0465-.42499-.24537.00013-.0465.06594.03807.05418.03128.18443.10648.05418.03128z" fill="#56707b"/></g><g><path d="m21.19648 19.47384.10299.22963-.07638-.04409-.00074.25918-.05418-.03128.00073-.25919-.07572-.04372z" fill="#56707b"/></g><g><path d="m20.73199 19.09107.69102.39896-.00225.79441-.69102-.39896zm.65558 1.1359.00203-.71753-.62443-.36052-.00204.71753z" fill="#56707b"/></g><g><path d="m20.95787 19.33608.10299.22963-.07638-.0441-.00074.25919-.05418-.03128.00073-.25919-.07572-.04372z" fill="#56707b"/></g><g><path d="m21.56532 19.5722.69135.39915-.00225.79441-.69135-.39915zm.65591 1.13608.00204-.71753-.62443-.36052-.00203.71753z" fill="#56707b"/></g></g><g><g><path d="m28.96059 18.16094.00213.75142.06493-.03749-.00213-.75142z" fill="#485f69"/></g><g><path d="m28.81761 18.24349.00213.75142.06437-.03717-.00213-.75142z" fill="#485f69"/></g><g><path d="m28.67463 18.32603.00214.75142.06436-.03716-.00213-.75142z" fill="#485f69"/></g><g><path d="m28.53109 18.40891.00213.75142.02445-.01412-.00213-.75142z" fill="#485f69"/></g><g><path d="m28.60094 18.36991.00213.75142.02445-.01412-.00213-.75142z" fill="#485f69"/></g><g><path d="m28.42714 18.46893.00213.75142.02534-.01464-.00213-.75142z" fill="#485f69"/></g><g><path d="m28.28416 18.55148.00213.75141.10715-.06186-.00213-.75142z" fill="#485f69"/></g><g><path d="m28.14061 18.63435.00213.75142.06494-.03749-.00213-.75142z" fill="#485f69"/></g><g><path d="m27.99764 18.7169.00213.75142.06493-.03749-.00213-.75142z" fill="#485f69"/></g><g><path d="m27.85466 18.79945.00213.75141.08576-.04951-.00213-.75142z" fill="#485f69"/></g><g><path d="m27.71169 18.88199.00213.75142.06436-.03716-.00213-.75142z" fill="#485f69"/></g></g></g></g></g></svg>