<svg id="Layer_1" enable-background="new 0 0 50 50" height="512" viewBox="0 0 50 50" width="512" xmlns="http://www.w3.org/2000/svg"><g><g><g><g><g enable-background="new"><g><path d="m27.85987 43.95355v.04516c-.02258.54082-.40603 1.15104-.85722 1.4209l-5.34628 3.09073-8.07586-4.69227 5.34627-3.09073c.45119-.26986.83464-.87898.83464-1.39777.02258-.02313.02258-.04516.02258-.06829l-.02258-4.51163 8.07586 4.64711z" fill="#485f69"/></g><g><path d="m27.85987 43.95355v.04516l-8.09844-4.66914c.02258-.02313.02258-.04516.02258-.06829l-.02258-4.51163 8.07586 4.64711z" fill="#40545d"/></g><g><path d="m27.84427 38.84757-8.07801-4.69443.42751-.24682 8.07801 4.69443z" fill="#686969"/></g><g><path d="m21.66206 48.99979-8.07801-4.69443-.00139-.49125 8.07801 4.69442z" fill="#56707b"/></g><g><path d="m28.27178 38.60075.01445 5.09839c.00231.81419-.56969 1.80509-1.27836 2.21424l-5.34581 3.08641-.00139-.49126 5.34581-3.0864c.46989-.27129.85379-.93185.85225-1.47616l-.01445-5.09839z" fill="#40545d"/></g></g></g><g><g><g><g><g enable-background="new"><g><path d="m7.45648 25.49773 3.03767-1.7653 31.9969 19.97525-1.66223 1.05759z" fill="#e8e8e8"/></g><g><path d="m9.05347 4.20199 3.03768-1.7653-.05791 20.42652-3.03767 1.7653z" fill="#3e3e3e"/></g><g><path d="m40.82882 44.76527-.00937 3.30406c-.00202.71151-.50587.99882-1.12502.64135l-31.12275-17.96873c-.62603-.36144-1.12658-1.22865-1.12457-1.94015l.00937-3.30406z" fill="#dde4e7"/></g><g><path d="m42.48825 43.7104-.01079 3.29669c0 .35566-.11851.60347-.32324.72237l-1.66312 1.05901c.20473-.11838.32324-.36618.32324-.72184l.01078-3.29722z" fill="#b0b8bc"/></g><g><path d="m39.36445 21.70203 1.66223-1.0576-.05791 20.42652-1.66223 1.05759z" fill="#6ac4ef"/></g><g><path d="m8.99557 24.62851 3.03767-1.7653 28.93552 18.20775-1.66223 1.0576z" fill="#3e3e3e"/></g><g><path d="m39.37488 21.69788-.06774 20.43783-30.31818-17.50571.06774-20.43783z" fill="#fff"/></g><g><path d="m9.05348 4.20198 3.03767-1.76531 28.93553 18.20776-1.66223 1.0576z" fill="#6ac4ef"/></g><g><path d="m41.43225 19.12148-31.11824-17.96187c-.31245-.18309-.6034-.20466-.80813-.08628l-1.66312 1.05953c.20473-.11837.49568-.10785.80813.07524l31.12903 17.97291c.30561.17678.58137.48246.78182.8318l1.6624-1.05849c-.20184-.34986-.48062-.65554-.79189-.83284z" fill="#56707b"/><path d="m40.56174 21.01282c.20243.3525.32804.75025.32804 1.10749l-.06465 22.6491 1.66312-1.05901.06464-22.6491c0-.35724-.12535-.75446-.32876-1.10696z" fill="#40545d"/></g></g></g><g><path d="m39.77531 20.18141c.61916.35747 1.11974 1.22428 1.11772 1.93578l-.06421 22.64809-33.37236-19.26755.06421-22.64809c.00202-.7115.50585-.99841 1.13189-.63697zm-.46878 21.94715.05791-20.42652-30.31097-17.50005-.0579 20.42652z" fill="#485f69"/></g></g></g><g><path d="m24.62369 37.70525c-.00809.57363-.41207.81586-.91301.5251-.53329-.30693-.93727-1.00996-.93727-1.59187 0-.57363.41207-.79969.93727-.49275.50903.29075.91301.98589.91301 1.55952z" fill="#cfd8dd"/></g></g></g></g><g><g><path d="m11.37077 7.66089-.00512 1.80564.85363.49284-.00098.34458-1.16928-.67508.0061-2.15022z" fill="#485f69"/></g><g><path d="m14.08187 9.49228c.1881.32186.28205.64069.28115.95767-.0009.31695-.09635.5272-.28565.63039-.18999.10275-.4236.07371-.70219-.08713-.27928-.16124-.51229-.40161-.70108-.72305-.1881-.32108-.28205-.64068-.28115-.95763.0009-.31699.09634-.52647.28565-.63043.18999-.10275.4236-.07372.70288.08753.27859.16084.5116.4012.70039.72265zm-.23507 1.21247c.12738-.0781.1924-.22536.19302-.44139.00061-.21607-.06337-.43782-.18989-.6625-.12789-.22625-.28413-.39229-.4694-.49926-.18596-.10736-.34263-.12198-.47138-.0439-.12738.0781-.1924.22536-.19301.44144-.00061.21603.06337.43777.18989.66246.12789.22625.28413.3923.47009.49966.18527.10696.34193.12156.47068.04349" fill="#485f69"/></g><g><path d="m15.61917 10.06155c.26968.1557.49312.37477.67171.65874l-.16959.17928c-.07322-.11413-.1465-.20619-.22053-.27657-.07403-.07042-.15977-.1341-.25858-.19115-.18939-.10934-.3481-.1307-.47682-.06443-.12941.06665-.19375.2143-.19439.443-.00065.22865.06059.44804.18577.6585.12518.21127.27526.36665.45368.46966.17704.10221.32607.14481.44571.12545l.00167-.5906.31565.18224-.00208.73489c-.17699.12209-.42982.08747-.75851-.10229-.27654-.15966-.50749-.39725-.69354-.71475-.18605-.31669-.27863-.63473-.27772-.95484.00091-.32015.09636-.53199.28773-.63553.18998-.10354.42016-.07729.68984.0784z" fill="#485f69"/></g><g><path d="m17.10807 10.97332-.0061 2.15022-.31565-.18224.0061-2.15022z" fill="#485f69"/></g><g><path d="m18.20544 11.55474c.12008.06933.23805.15955.35663.27386.11721.11266.21859.2344.30345.36553l-.1689.17732c-.05473-.08927-.12939-.17973-.22467-.27188-.09459-.09172-.18717-.16334-.27981-.21682-.09126-.05269-.16681-.07497-.22594-.0657-.05845.0097-.08814.05735-.08839.14487-.00025.08671.02907.17078.08727.25019.05888.08057.18363.20238.3763.3665.1913.16418.33519.32228.43235.47474.09716.15324.14548.3233.14495.51093-.00053.18767-.06272.30422-.18588.34996-.12385.04539-.28595.01024-.48495-.10465-.29301-.16917-.55206-.43404-.77853-.79776l.19909-.15912c.18817.2982.38484.50572.58796.62298.10224.05903.18329.08054.24244.06495.05984-.01601.08954-.06597.08977-.14879.00024-.08278-.02703-.1633-.08248-.2419-.05682-.07861-.15277-.17664-.29059-.29413-.13713-.11709-.24133-.21201-.31261-.28474-.07196-.07394-.13497-.15137-.19041-.23471-.1102-.16081-.16537-.34031-.1648-.53902.00056-.19871.06482-.31561.19001-.35152.12655-.03434.28247.00195.46774.10891z" fill="#485f69"/></g><g><path d="m20.58777 12.98233-.00094.33196-.5668-.32724-.00515 1.81826-.31565-.18225.00515-1.81825-.56817-.32804.00094-.33196z" fill="#485f69"/></g><g><path d="m21.2479 13.36345-.0061 2.15022-.31634-.18264.0061-2.15022z" fill="#485f69"/></g><g><path d="m22.652 14.12196c.28958.16719.53077.42967.72495.78821l-.20177.13623c-.15011-.2546-.28821-.43176-.53105-.57196-.36879-.21292-.66988-.09043-.67117.36278-.00129.45598.30458.94511.64216 1.14001.18989.10963.33441.13698.52775.03934l.20312.35735c-.19834.13902-.43955.1253-.72227-.03792-.56798-.32792-.98269-1.03174-.98087-1.67514.00178-.62284.40752-.88625 1.00915-.5389z" fill="#485f69"/></g><g><path d="m24.30094 15.07398c.12008.06933.23873.15994.35663.27386.11721.11266.21928.23479.30413.36592l-.16958.17692c-.05473-.08927-.12939-.17973-.22399-.27149-.09459-.09172-.18786-.16374-.27981-.21682-.09126-.05269-.16749-.07536-.22663-.0661-.05845.0097-.08814.05735-.08839.14487-.00025.08671.02907.17078.08727.25019.05888.08057.18432.20278.3763.3665.1913.16418.33519.32228.43236.47475.09716.15323.14548.3233.14495.51093-.00053.18767-.06272.30422-.1852.35036-.12385.04539-.28595.01024-.48564-.10505-.29301-.16917-.55206-.43404-.77785-.79736l.19909-.15912c.18817.2982.38416.50532.58796.62299.10156.05863.1826.08014.24175.06455.06053-.01562.09022-.06557.09046-.14839.00023-.08278-.02772-.1637-.08317-.24229-.05614-.07822-.15277-.17664-.2899-.29374-.13782-.11749-.24202-.2124-.3133-.28513-.07196-.07394-.13428-.15097-.18972-.23431-.1102-.16081-.16537-.34031-.1648-.53902.00056-.19871.06413-.316.19001-.35152.12587-.03476.28179.00153.46707.1085z" fill="#485f69"/></g></g><g><g><path d="m31.46795 31.61942c-.06621 1.36193-.4877 2.49478-1.27923 3.10949-.78546-1.52519-1.19916-3.14023-1.25485-4.57255l.42797.24709c.03568 1.15806.31004 2.43886.82892 3.60719.5264-.56776.8071-1.52518.84923-2.63832z" fill="#fed44c"/></g><g enable-background="new"><g><path d="m30.84027 31.25702c-.1369.63748-.30223 1.21968-.64621 1.59135-.33816-.76551-.46853-1.51842-.60137-2.31164z" fill="#fde9a7"/></g><g><path d="m31.03999 31.37233c-.04213 1.11314-.32283 2.07055-.84923 2.63832-.51888-1.16834-.79324-2.44913-.82892-3.60719l.23084.13328c.13284.79322.26321 1.54613.60137 2.31164.34398-.37167.50931-.95387.64621-1.59135z" fill="#fee182"/></g><g><path d="m31.36859 30.93218.36393.83998-.89225-.51514-1.24758-.72029-.92338-.53311.3675-.41769z" fill="#ee5550"/></g><g><path d="m29.59305 23.93728c.0163.02543.03314.05045.05037.07516-.01725-.02468-.03403-.04973-.05037-.07516z" fill="#dde4e7"/></g><g><path d="m31.13986 23.6325c.00369.01427.00708.0287.01032.04288-.00358-.01633-.00786-.03275-.01193-.04914.00051.00209.00112.00418.00161.00626z" fill="#dde4e7"/></g><g><path d="m30.18235 22.31845-.8936.87825c.02304.12068.05907.23996.10809.3609l1.06295-1.04917c.02959.02567.0587.05301.08742.08173.03971.03961.07858.08181.11663.12532.00192.00224.00386.0045.00578.00657l-1.13331 1.12208c.17063.29546.4063.55688.66568.70971l.93788-.92135c.00368.01427.00707.0287.01032.04288.00213.00949.00405.0187.006.02808.00092.00442.00186.00885.00274.01324.01155.05801.01952.11557.02415.17234.00028.0034.00054.00679.00079.01034.00104.01372.00188.02748.00252.04113.00028.00616.0006.01217.0008.01812.0005.01438.00075.02861.00082.04275.00002.00325.00013.00639.00012.00947-.00171.61269-.43627.86047-.96799.55348l-.01815-.01048c-.14059-.08279-.27409-.19776-.39417-.33252-.0038-.0043-.00771-.0085-.01148-.01278-.00462-.00526-.0091-.0106-.01368-.016-.09149-.10643-.17472-.22445-.24635-.34841-.05429-.09418-.10078-.18954-.13948-.28654-.04902-.12094-.08505-.24022-.10809-.3609-.0231-.1029-.03321-.20138-.03292-.29969.00171-.60199.4103-.85278.92653-.57855z" fill="#4bb5e7"/></g><g><path d="m29.25323 22.89244c.00174-.61396.4363-.86159.9706-.5531l-.0415-.02089c-.51622-.27424-.92482-.02344-.92653.57855-.00028.09831.00983.1968.03293.2997.02304.12068.05907.23995.10809.36089.0387.09701.08519.19236.13947.28655.01767.03058.03606.06076.05509.09053-.20755-.32397-.33911-.70324-.33815-1.04223z" fill="#dde4e7"/></g><g><path d="m30.22473 22.02645c.68734.39684 1.2406 1.35504 1.23837 2.14186-.00224.7899-.55911 1.10717-1.24645.71033-.68475-.39534-1.23799-1.35354-1.23575-2.14343.00222-.78682.55908-1.1041 1.24383-.70876zm-.00719 2.53639c.53432.30849.96888.0607.97061-.5502.00002-.00566-.00013-.0085-.00015-.01126-.00008-.01413-.00032-.02836-.00081-.04274-.0002-.00595-.00053-.01213-.00081-.01813-.00064-.01365-.00149-.02741-.00251-.04112-.00027-.0034-.00051-.00693-.00079-.01033-.00464-.05678-.0126-.11433-.02416-.17235-.00086-.00438-.00184-.00884-.00273-.01324-.00195-.00938-.00387-.01859-.00601-.0281-.01183-.05395-.0263-.10831-.04322-.16245-.00691-.0218-.01259-.03918-.01858-.05657-.00174-.00505-.00355-.01014-.00533-.01522-.00513-.01446-.01038-.02899-.01587-.04349-.00228-.00617-.00464-.01207-.00698-.01812-.00562-.0146-.01132-.0289-.01726-.04334-.00175-.00425-.00356-.00853-.00536-.01281-.00698-.01666-.01411-.03309-.02152-.04967-.09007-.19988-.20709-.38665-.34352-.54802-.00484-.00571-.00678-.00796-.00871-.01021-.03754-.04386-.07641-.08573-.11662-.12531-.02872-.02874-.05784-.05608-.08742-.08174-.07516-.06428-.15035-.11968-.23335-.16759-.5369-.30998-.97146-.06235-.9732.55161-.00123.43417.21432.93485.52942 1.30011.00458.0054.00907.01074.01369.016.00378.00429.00765.00846.01147.01278.12008.13477.25359.24975.39417.33254z" fill="#485f69"/></g><g><path d="m30.22566 22.34054c.08378.04821.15897.10361.23413.16789l-1.06295 1.04917c-.04902-.12094-.08505-.24022-.10809-.3609l.8936-.87825z" fill="#61c4f0"/></g><g><path d="m30.66962 22.72206c.13856.16535.25619.35198.34429.54683.00958.02124.01669.03798.02368.05449.00179.00427.0036.00856.00536.01281.00594.01444.01165.02876.01726.04333.00234.00605.00471.01195.00699.01812.00548.0145.01074.02904.01587.0435.00177.00507.00358.01017.00532.01522.00597.01737.01171.03478.01716.05218.01379.04424.02481.08413.03433.12396l-.93788.92135c-.25937-.15282-.49505-.41425-.66568-.70971z" fill="#61c4f0"/></g><g><path d="m32.38649 26.63915c.03506 1.26411-.09762 2.44012-.39707 3.46024-.07859.2677-.16838.52473-.26993.76977-.05234.12802-.1927.15436-.34054.069l-2.34214-1.35224c-.15822-.09135-.29279-.27642-.3494-.46734-.10753-.39135-.20199-.78098-.28321-1.16784-.2451-1.16737-.36943-2.30762-.3664-3.37773.00051-.17851.00464-.35525.01208-.52976.06681-1.56697.41313-2.96024 1.04262-4.02578.31306.46126.70684.85284 1.13739 1.10142.42538.24559.82009.30925 1.13993.2074.63222 1.82217.97037 3.64448 1.01667 5.31286zm-2.16985-1.76051c.68734.39684 1.24422.07957 1.24645-.71033.00223-.78681-.55103-1.74502-1.23837-2.14186-.68475-.39534-1.24161-.07806-1.24384.70875-.00223.7899.55101 1.7481 1.23576 2.14344" fill="#dde4e7"/></g><g><path d="m31.18815 24.00957-.00002.00095-.00013-.00914z" fill="#dde4e7"/></g><g><path d="m30.6638 22.71546c-.03801-.0435-.07689-.08566-.1166-.1253.04021.03961.07909.08144.1166.1253z" fill="#dde4e7"/></g><g><path d="m30.67254 22.72569c.13643.16137.25345.34814.34137.54321-.08811-.19485-.20574-.38149-.34137-.54321z" fill="#dde4e7"/></g></g><g><path d="m28.04989 24.04325c-.00744.17451-.01158.35125-.01208.52977-.00303 1.07011.12129 2.21036.3664 3.37774-1.3258-.04002-2.51655.91854-2.57922.96898l.00561-1.97901c.00122-.43109.05321-.82638.15074-1.17709.02649-.09532.05636-.1874.08951-.27597.34376-.91875 1.03977-1.4652 1.97904-1.44442z" fill="#ee5550"/></g><g><path d="m14.94971 19.77221.22354.246.2466.27162.47007.51758-.26907.51939-.93754-1.03382z" fill="#d9ae6d"/></g><g enable-background="new"><g><path d="m13.76391 23.85786.05705.06274.02583.02835.18438.20234.0465.05098.05919.06494-.01828.03124-.37295-.40935z" fill="#485f69"/></g><g><path d="m13.83546 23.35887.60604.66929-.27692.53867-.60603-.66928zm.31371 1.14836.25077-.48509-.54906-.60367-.25077.48524z" fill="#485f69"/></g><g><path d="m13.9957 23.65739.03057.2146-.06734-.07467-.09142.17412-.02072-.02249-.02583-.02835.09135-.17401-.06733-.07467z" fill="#485f69"/></g><g><path d="m14.20289 23.8844.03316.21625-.06734-.07176-.09104.17338-.0465-.05098.09093-.17619-.06735-.0716z" fill="#485f69"/></g><g><path d="m14.58383 24.22386.54906.60352-.25338.48667-.54648-.60219zm.18512.68298c.10128.0167.17411-.01592.21069-.08728l.02096-.06257-.33409-.36893c-.07034.06385-.08369.19349-.03482.36487.02061.06567.01784.12384-.00307.16539l-.0492-.05223-.02338-.00459.01031.03285.12949.14342.02338.00151-.00771-.02826-.0492-.05529c.02088-.04171.05731-.05938.10664-.04889" fill="#fecd82"/></g><g><path d="m14.56841 24.16719.60603.66637-.27692.53866-.60863-.66787zm.3111 1.14685.25338-.48667-.54906-.60352-.25079.488z" fill="#485f69"/></g><g><path d="m15.29876 24.97091.60603.66637-.27693.54158-.60603-.66928zm.3137 1.14836.25079-.48814-.54906-.60352-.25079.48816z" fill="#485f69"/></g><g><path d="m15.31419 25.02761.54906.60352-.25079.48814-.54906-.6035zm.36172.70444.02579.06559c.02375-.12963-.02517-.28615-.12616-.40421l.00522-.00589-.00774-.02246-.01558-.003-.00261.00741c-.02916-.03029-.05934-.05419-.08949-.0716-.077-.04446-.15367-.0458-.21169.00234l.04932.01649.02579.06558.04932.01649.02579.06575.04931.0194.02067.03881-.09664.1831c-.00925.01782-.03018.02015-.0517.00772-.00889-.00513-.01787-.01275-.02619-.02289-.02849-.03135-.03876-.07614-.02571-.10133l.01046-.02084-.00514-.02094-.01817-.0045-.01045.02085c-.0183.03722-.0003.10429.04114.1491.01029.01146.02134.02043.03232.02677.03049.0176.06071.01512.07414-.01l.09666-.18309.03112.01797.02839.06709.04672.01515.0258.06558z" fill="#fecd82"/></g><g><path d="m15.46534 25.29789c.03015.0174.06033.04131.08949.07159l.00262-.0074.01558.003.00773.02244-.00521.0059c.10099.11807.14991.27459.12615.40421l-.02579-.06559-.0493-.01956-.0258-.06559-.04672-.01515-.02839-.06708-.03112-.01797-.09665.18309c-.01343.02512-.04365.0276-.07414.00999-.011-.00635-.02203-.01531-.03233-.02676-.04144-.04482-.05944-.11189-.04114-.14911l.01045-.02085.01817.0045.00514.02094-.01045.02085c-.01306.02518-.00279.06997.0257.10132.00832.01015.0173.01776.02619.02289.02153.01243.04246.0101.05171-.00772l.09665-.18309-.02068-.03882-.0493-.0194-.0258-.06575-.04931-.01649-.02579-.06559-.04932-.01649c.058-.04811.13466-.04677.21166-.00231z" fill="#485f69"/></g><g><path d="m15.41985 20.28984 2.32961 2.56441-1.96709 3.81386-4.65924-5.12901 1.9671-3.81386 1.85948 2.04696-.2664.52076.93754 1.03381.26908-.51938zm-1.13096 4.4145.60863.66787.27692-.53866-.60603-.66637zm1.33897 1.47453.27693-.54158-.60603-.66637-.27692.53867zm-2.06931-2.28133.60603.66928.27692-.53867-.60604-.66929z" fill="#fecd82"/></g><g><path d="m13.71429 23.94874.37293.41227.01828-.03123-.37295-.40936z" fill="#485f69"/></g><g><path d="m19.82275 20.07186c.42343.38829.86355.8857 1.2537 1.31191 1.46758 1.57598 3.14224 2.95374 4.99439 4.1039-.03315.08857-.06301.18065-.08951.27597-1.85637-1.16215-3.54149-2.55178-5.01986-4.14176-.47173-.51533-.84959-.93971-1.22262-1.28198-.70121-.63938-1.67913-1.23546-2.6231-1.21887-.76367.0134-1.36842.44555-1.68028 1.18593l-.26223-.28874c.33868-.79227.99063-1.25126 1.81106-1.26866 1.02393-.01812 2.08197.63051 2.83845 1.3223z" fill="#485f69"/></g></g><g><path d="m32.3865 26.63914c1.26658 1.52472 2.04197 3.56836 2.03717 5.26278l-.00561 1.97901c-.05796-.11421-1.15924-2.28421-2.42863-3.78156.29945-1.02011.43214-2.19611.39707-3.46023z" fill="#ee5550"/></g><g><path d="m30.23941 18.68247c.44958.87146.82377 1.75932 1.13042 2.64381-.31984.10185-.71455.0382-1.13993-.2074-.43056-.24858-.82434-.64017-1.13739-1.10142.31327-.53257.69386-.98466 1.1469-1.33499z" fill="#485f69"/></g><g><path d="m13.85088 23.41847.54906.60367-.25077.48509-.54906-.60352zm.22678.7838.09104-.17338.06735.07176-.03317-.21625-.14814.01909.06735.07161-.09093.17618-.18438-.20233.02073.02249.09142-.17412.06734.07467-.03057-.21459-.15071.01453.06733.07466-.09135.17401-.05705-.06273-.01827.03123.37294.40936.01828-.03124zm.00957.15875.01827-.03125-.37294-.40934-.01827.02831z" fill="#fecd82"/></g><g><path d="m14.66651 24.38804.33409.36894-.02096.06256c-.03658.07136-.10941.10398-.21068.08729-.04933-.01051-.08575.00718-.10666.04888l.04921.05529.00771.02826-.02338-.00151-.12949-.14343-.0103-.03283.02337.00459.04921.05222c.0209-.04154.02367-.09971.00307-.16537-.04888-.17139-.03552-.30102.03481-.36489z" fill="#485f69"/></g></g></g></svg>