<svg id="Layer_1" enable-background="new 0 0 52 52" height="512" viewBox="0 0 52 52" width="512" xmlns="http://www.w3.org/2000/svg"><g><g><g><g><g><path d="m25.35535 46.32495-2.61036-1.51698.01042 3.67505 2.61036 1.51697z" fill="#e5bd13"/></g><path d="m45.58238 34.72029-2.61036-1.51697-20.22703 11.60465 2.61036 1.51698z" fill="#f1c40f"/><g><path d="m25.35535 46.32495.01042 3.67504 20.22703-11.60465-.01042-3.67505z" fill="#d6b218"/></g><g><path d="m31.31216 43.66924.00639 2.25734-.03487.02012-1.95177-1.13418z" fill="#e5bd13"/><path d="m27.90305 45.56403 1.42886-.75151 1.95177 1.13418-3.37425 1.87467z" fill="#f1c40f"/><path d="m29.72598 45.04151-1.82293.88033v-.35781l1.42886-.75151z" fill="#fff"/></g><g><path d="m43.03872 36.89891.00639 2.25734-.03487.02012-1.95178-1.13418z" fill="#e5bd13"/><path d="m33.82724 42.21712 7.23122-4.17493 1.95178 1.13418-9.17661 5.2981z" fill="#f1c40f"/><path d="m41.45253 38.27119-7.62529 4.30374v-.35781l7.23122-4.17493z" fill="#fff"/></g><g><g><path d="m17.18704 41.57804-2.61036-1.51698.01041 3.67505 2.61037 1.51698z" fill="#e5bd13"/></g><path d="m37.41406 29.97339-2.61036-1.51698-20.22702 11.60465 2.61036 1.51698z" fill="#f1c40f"/><g><path d="m17.18704 41.57804.01042 3.67505 20.22702-11.60466-.01042-3.67504z" fill="#d6b218"/></g><g><path d="m23.14385 38.92233.00638 2.25735-.03487.02011-1.95177-1.13418z" fill="#d4dae8"/><path d="m19.73473 40.81712 1.42886-.75151 1.95177 1.13418-3.37424 1.87468z" fill="#f1c40f"/><path d="m21.55766 40.29461-1.82293.88032v-.35781l1.42886-.75151z" fill="#fff"/></g><g><path d="m34.87041 32.152.00638 2.25735-.03487.02012-1.95177-1.13419z" fill="#d4dae8"/><path d="m25.65893 37.47021 7.23122-4.17493 1.95177 1.13419-9.1766 5.29809z" fill="#f1c40f"/><path d="m33.28422 33.52428-7.62529 4.30375v-.35782l7.23122-4.17493z" fill="#fff"/></g></g><g><g><path d="m9.01872 36.83113-2.61036-1.51697.01042 3.67504 2.61036 1.51698z" fill="#e5bd13"/></g><path d="m29.24575 25.22648-2.61037-1.51698-20.22702 11.60466 2.61036 1.51697z" fill="#f1c40f"/><g><path d="m9.01872 36.83113.01042 3.67505 20.22703-11.60465-.01042-3.67505z" fill="#d6b218"/></g><g><path d="m14.97553 34.17542.00639 2.25735-.03487.02012-1.95178-1.13419z" fill="#d4dae8"/><path d="m11.56641 36.07021 1.42886-.75151 1.95178 1.13419-3.37425 1.87467z" fill="#f1c40f"/><path d="m13.38934 35.5477-1.82293.88032v-.35781l1.42886-.75151z" fill="#fff"/></g><g><path d="m26.70209 27.40509.00639 2.25735-.03488.02012-1.95177-1.13418z" fill="#d4dae8"/><path d="m17.49061 32.72331 7.23122-4.17493 1.95177 1.13418-9.1766 5.2981z" fill="#f1c40f"/><path d="m25.1159 28.77737-7.62529 4.30375v-.35781l7.23122-4.17493z" fill="#fff"/></g></g><g><g><path d="m6.4072 34.98461.00231.32955 18.947 11.00279-.00231-.32955z" fill="#e5bd13"/></g><g><path d="m25.3542 45.9874.00231.32955 20.22702-11.59666-.00231-.32954z" fill="#c6a51a"/></g><g><path d="m6.4072 34.98461 18.947 11.00279 20.22702-11.59665-19.04344-11.03936z" fill="#f1c40f"/></g></g></g></g></g><g><g><g><g><g enable-background="new"><g><path d="m42.05661 25.9384-.02528 7.51599-8.77471 5.0993.02529-7.51599z" fill="#c4c6c6"/></g><g><path d="m37.26627 33.02021-.00804 2.38991-2.79015 1.62146.00804-2.38991z" fill="#ecf0f1"/></g><g><path d="m33.28196 31.03901-.02527 7.51561-13.87822-8.01498.02528-7.51561z" fill="#d4d6d6"/></g><g><path d="m42.05661 25.9384-8.7747 5.0993-13.87955-8.01336 8.77471-5.0993z" fill="#ecf0f1"/></g></g></g><g><g><g><g><g><path d="m23.41435 30.48248-.2063.3926.12777.07378.28194.16159z" fill="#3f434f"/></g></g></g><g><g><g><path d="m23.33582 30.94886-.0022.77666.15416.08902.0022-.77666z" fill="#3f434f"/></g></g></g><g><g><g><path d="m22.56998 31.35385-.00047.16626 1.06438.61461.00047-.16626z" fill="#3f434f"/></g></g></g><g><g><g><path d="m20.62486 28.91823-.00157.55337c-.00049.17475.10047.37769.2345.48061l-.00141.49876c-.09401-.04334-.16489-.0393-.16504.01288l.41498.23963c.00015-.05218-.07047-.13793-.16442-.20312l.00142-.49876c.06127.02444.11417.01852.1555-.00745.04875-.03627.08068-.10414.08095-.20122l.00157-.55336z" fill="#3f434f"/></g></g></g><g><g><g><path d="m22.71915 30.59278-.0022.77665.15417.08903.0022-.77666z" fill="#3f434f"/></g></g></g><g><g><g><path d="m22.79663 30.12579-.20524.39321.12776.07378.28089.16097z" fill="#3f434f"/></g></g></g></g><g><g><g><g><path d="m21.71487 31.24666c-.0189 0-.0393-.00597-.0592-.01741l-1.44359-.83335c-.06168-.03582-.11193-.12488-.11193-.19752l.00497-1.66172c0-.04179.01641-.07512.04477-.09154.02835-.01592.06367-.01343.0985.00647l1.44359.83335c.06367.03731.11541.12637.11441.19901l-.00448 1.66172c0 .0413-.01691.07413-.04576.09005-.01243.00746-.02635.01094-.04128.01094zm-1.52418-2.7513c-.00398 0-.00746.001-.01045.00249-.00895.00547-.01443.0199-.01443.03881l-.00497 1.66172c0 .05174.0383.11941.08208.14478l1.44359.83335c.01642.00945.03035.01045.0398.00647.00895-.00547.01443-.01891.01492-.03732l.00448-1.66172c0-.05075-.03979-.1204-.08457-.14627l-1.44359-.83335c-.00994-.00597-.0194-.00896-.02686-.00896z" fill="#3f434f"/></g></g></g><g><g><g><path d="m23.86335 32.48698c-.0189 0-.0393-.00547-.0587-.01692l-1.4436-.83335c-.06318-.03632-.11242-.12338-.11242-.19752l.00497-1.66222c0-.04129.01592-.07463.04477-.09105.02885-.01691.06367-.01443.0985.00597l1.44359.83385c.06367.03632.11541.12587.11441.19901l-.00448 1.66172c0 .0403-.01592.07314-.04427.08955-.01292.00748-.02735.01096-.04277.01096zm-1.52368-2.7508c-.00398 0-.00796.00099-.01094.00249-.00895.00547-.01443.0194-.01443.03831l-.00497 1.66222c0 .05174.0388.11941.08257.14478l1.4431.83335c.01592.00895.03084.01045.04029.00597.00896-.00547.01443-.01891.01443-.03682l.00448-1.66172c0-.05124-.0398-.1204-.08457-.14627l-1.44359-.83385c-.00996-.00547-.01891-.00846-.02637-.00846z" fill="#3f434f"/></g></g></g></g></g></g><g><g><g enable-background="new"><g><path d="m42.05661 17.97656-.02528 7.51599-8.77471 5.0993.02529-7.51599z" fill="#c4c6c6"/></g><g><path d="m37.26627 25.05837-.00804 2.38991-2.79015 1.62145.00804-2.3899z" fill="#ecf0f1"/></g><g><path d="m33.28196 23.07716-.02527 7.51562-13.87822-8.01498.02528-7.51561z" fill="#d4d6d6"/></g><g><path d="m42.05661 17.97656-8.7747 5.0993-13.87955-8.01336 8.77471-5.0993z" fill="#ecf0f1"/></g></g></g><g><g><g><g><g><path d="m23.41435 22.52064-.2063.3926.12777.07378.28194.16159z" fill="#3f434f"/></g></g></g><g><g><g><path d="m23.33582 22.98702-.0022.77666.15416.08902.0022-.77666z" fill="#3f434f"/></g></g></g><g><g><g><path d="m22.56998 23.39201-.00047.16625 1.06438.61461.00047-.16625z" fill="#3f434f"/></g></g></g><g><g><g><path d="m20.62486 20.95639-.00157.55337c-.00049.17475.10047.37769.2345.48061l-.00141.49876c-.09401-.04335-.16489-.0393-.16504.01288l.41498.23963c.00015-.05218-.07047-.13793-.16442-.20312l.00142-.49876c.06127.02444.11417.01852.1555-.00745.04875-.03627.08068-.10414.08095-.20122l.00157-.55337z" fill="#3f434f"/></g></g></g><g><g><g><path d="m22.71915 22.63093-.0022.77666.15417.08902.0022-.77665z" fill="#3f434f"/></g></g></g><g><g><g><path d="m22.79663 22.16394-.20524.39322.12776.07377.28089.16098z" fill="#3f434f"/></g></g></g></g><g><g><g><g><path d="m21.71487 23.28482c-.0189 0-.0393-.00597-.0592-.01741l-1.44359-.83335c-.06168-.03582-.11193-.12488-.11193-.19752l.00497-1.66172c0-.04179.01641-.07512.04477-.09154.02835-.01592.06367-.01343.0985.00647l1.44359.83335c.06367.03732.11541.12637.11441.19901l-.00448 1.66172c0 .04129-.01691.07413-.04576.09005-.01243.00745-.02635.01094-.04128.01094zm-1.52418-2.7513c-.00398 0-.00746.001-.01045.00249-.00895.00547-.01443.0199-.01443.03881l-.00497 1.66172c0 .05174.0383.11941.08208.14478l1.44359.83335c.01642.00945.03035.01045.0398.00647.00895-.00547.01443-.01891.01492-.03732l.00448-1.66172c0-.05075-.03979-.1204-.08457-.14627l-1.44359-.83335c-.00994-.00597-.0194-.00896-.02686-.00896z" fill="#3f434f"/></g></g></g><g><g><g><path d="m23.86335 24.52514c-.0189 0-.0393-.00547-.0587-.01691l-1.4436-.83335c-.06318-.03632-.11242-.12338-.11242-.19752l.00497-1.66222c0-.04129.01592-.07463.04477-.09105.02885-.01691.06367-.01443.0985.00597l1.44359.83385c.06367.03632.11541.12587.11441.19901l-.00448 1.66172c0 .0403-.01592.07314-.04427.08955-.01292.00747-.02735.01095-.04277.01095zm-1.52368-2.7508c-.00398 0-.00796.00099-.01094.00249-.00895.00547-.01443.0194-.01443.03831l-.00497 1.66222c0 .05174.0388.1194.08257.14478l1.4431.83335c.01592.00896.03084.01045.04029.00597.00896-.00547.01443-.01891.01443-.03682l.00448-1.66172c0-.05124-.0398-.1204-.08457-.14627l-1.44359-.83385c-.00996-.00547-.01891-.00846-.02637-.00846z" fill="#3f434f"/></g></g></g></g></g></g><g><g><g enable-background="new"><g><path d="m42.05661 10.01472-.02528 7.51599-8.77471 5.0993.02529-7.51599z" fill="#c4c6c6"/></g><g><path d="m37.26627 17.09653-.00804 2.38991-2.79015 1.62145.00804-2.3899z" fill="#ecf0f1"/></g><g><path d="m33.28196 15.11532-.02527 7.51561-13.87822-8.01497.02528-7.51562z" fill="#d4d6d6"/></g><g><path d="m42.05626 10.01498-2.01706 1.17265-1.55138.90053-5.20681 3.027-6.17464-3.56564-1.55978-.90052-6.14379-3.54881 5.204-3.0242 1.55138-.90334 2.01986-1.17265 6.17465 3.56565 1.557.90052z" fill="#ecf0f1"/></g></g></g><g><g><g><g><g><path d="m23.41435 14.5588-.2063.3926.12777.07378.28194.16158z" fill="#3f434f"/></g></g></g><g><g><g><path d="m23.33582 15.02518-.0022.77665.15416.08902.0022-.77665z" fill="#3f434f"/></g></g></g><g><g><g><path d="m22.56998 15.43017-.00047.16625 1.06438.61461.00047-.16625z" fill="#3f434f"/></g></g></g><g><g><g><path d="m20.62486 12.99454-.00157.55337c-.00049.17475.10047.37769.2345.48061l-.00141.49876c-.09401-.04334-.16489-.0393-.16504.01288l.41498.23963c.00015-.05218-.07047-.13793-.16442-.20312l.00142-.49876c.06127.02444.11417.01852.1555-.00745.04875-.03627.08068-.10414.08095-.20122l.00157-.55337z" fill="#3f434f"/></g></g></g><g><g><g><path d="m22.71915 14.66909-.0022.77666.15417.08902.0022-.77666z" fill="#3f434f"/></g></g></g><g><g><g><path d="m22.79663 14.2021-.20524.39322.12776.07377.28089.16098z" fill="#3f434f"/></g></g></g></g><g><g><g><g><path d="m21.71487 15.32297c-.0189 0-.0393-.00597-.0592-.01741l-1.44359-.83335c-.06168-.03582-.11193-.12488-.11193-.19752l.00497-1.66172c0-.04179.01641-.07513.04477-.09154.02835-.01592.06367-.01343.0985.00647l1.44359.83335c.06367.03731.11541.12637.11441.19901l-.00448 1.66172c0 .0413-.01691.07413-.04576.09005-.01243.00746-.02635.01094-.04128.01094zm-1.52418-2.75129c-.00398 0-.00746.00099-.01045.00249-.00895.00547-.01443.0199-.01443.03881l-.00497 1.66172c0 .05174.0383.1194.08208.14478l1.44359.83335c.01642.00945.03035.01045.0398.00647.00895-.00547.01443-.01891.01492-.03731l.00448-1.66172c0-.05075-.03979-.1204-.08457-.14627l-1.44359-.83335c-.00994-.00598-.0194-.00897-.02686-.00897z" fill="#3f434f"/></g></g></g><g><g><g><path d="m23.86335 16.5633c-.0189 0-.0393-.00547-.0587-.01691l-1.4436-.83335c-.06318-.03632-.11242-.12339-.11242-.19752l.00497-1.66222c0-.04129.01592-.07463.04477-.09105.02885-.01692.06367-.01443.0985.00597l1.44359.83385c.06367.03632.11541.12587.11441.19901l-.00448 1.66172c0 .0403-.01592.07314-.04427.08955-.01292.00746-.02735.01095-.04277.01095zm-1.52368-2.7508c-.00398 0-.00796.00099-.01094.00249-.00895.00547-.01443.0194-.01443.03831l-.00497 1.66222c0 .05174.0388.1194.08257.14478l1.4431.83335c.01592.00896.03084.01045.04029.00597.00896-.00547.01443-.01891.01443-.03682l.00448-1.66172c0-.05124-.0398-.1204-.08457-.14627l-1.44359-.83385c-.00996-.00548-.01891-.00846-.02637-.00846z" fill="#3f434f"/></g></g></g></g></g></g></g><g><g><g><g enable-background="new"><g><path d="m32.85128 31.28796-.02529 7.51599-8.77471 5.0993.02529-7.51599z" fill="#c4c6c6"/></g><g><path d="m28.06093 38.36977-.00804 2.38991-2.79014 1.62145.00804-2.3899z" fill="#ecf0f1"/></g><g><path d="m24.07657 36.38838-.02523 7.51562-6.24479-3.60492-1.56823-.90615-6.0652-3.50391.0252-7.51562 6.06246 3.50111 1.5682.90615z" fill="#d4d6d6"/></g><g><path d="m32.85128 31.28796-8.77471 5.0993-13.87954-8.01336 8.7747-5.0993z" fill="#ecf0f1"/></g></g></g><g><g><g><g><g><path d="m14.20901 35.83204-.20629.3926.12776.07378.28194.16159z" fill="#3f434f"/></g></g></g><g><g><g><path d="m14.13048 36.29842-.0022.77666.15416.08902.00221-.77666z" fill="#3f434f"/></g></g></g><g><g><g><path d="m13.36465 36.70341-.00047.16625 1.06437.61461.00047-.16625z" fill="#3f434f"/></g></g></g><g><g><g><path d="m11.41952 34.26779-.00157.55336c-.00049.17475.10047.37769.2345.48061l-.00141.49876c-.09401-.04335-.16489-.0393-.16503.01288l.41498.23962c.00015-.05218-.07047-.13793-.16442-.20312l.00141-.49876c.06127.02444.11417.01852.1555-.00745.04875-.03627.08068-.10414.08095-.20122l.00157-.55337z" fill="#3f434f"/></g></g></g><g><g><g><path d="m13.51382 35.94233-.00221.77666.15417.08902.00221-.77665z" fill="#3f434f"/></g></g></g><g><g><g><path d="m13.59129 35.47535-.20524.39321.12777.07377.28088.16098z" fill="#3f434f"/></g></g></g></g><g><g><g><g><path d="m12.50954 36.59622c-.0189 0-.0393-.00597-.0592-.01741l-1.44359-.83335c-.06168-.03582-.11193-.12488-.11193-.19751l.00497-1.66172c0-.04179.01642-.07512.04477-.09154.02835-.01592.06367-.01344.09849.00647l1.44359.83335c.06367.03732.11541.12637.11441.19901l-.00448 1.66172c0 .04129-.01691.07413-.04576.09005-.01242.00745-.02635.01093-.04127.01093zm-1.52419-2.7513c-.00398 0-.00746.001-.01045.00249-.00895.00547-.01443.0199-.01443.03881l-.00497 1.66172c0 .05174.0383.1194.08208.14478l1.44359.83335c.01642.00945.03034.01045.0398.00647.00895-.00547.01443-.01891.01492-.03732l.00448-1.66172c0-.05075-.0398-.1204-.08457-.14627l-1.44359-.83335c-.00994-.00597-.01939-.00896-.02686-.00896z" fill="#3f434f"/></g></g></g><g><g><g><path d="m14.65801 37.83654c-.0189 0-.0393-.00547-.0587-.01691l-1.44359-.83335c-.06318-.03632-.11242-.12339-.11242-.19752l.00497-1.66222c0-.04129.01592-.07463.04477-.09105.02885-.01692.06367-.01443.09849.00597l1.44359.83385c.06367.03632.11541.12587.11441.19901l-.00448 1.66172c0 .0403-.01592.07314-.04427.08955-.01292.00746-.02734.01095-.04277.01095zm-1.52368-2.7508c-.00398 0-.00796.001-.01094.00249-.00895.00547-.01443.0194-.01443.03831l-.00498 1.66222c0 .05174.0388.1194.08258.14478l1.4431.83335c.01592.00896.03084.01045.04029.00597.00895-.00547.01443-.01891.01443-.03682l.00448-1.66172c0-.05125-.0398-.1204-.08457-.14627l-1.44359-.83385c-.00995-.00547-.01891-.00846-.02637-.00846z" fill="#3f434f"/></g></g></g></g></g></g><g><g><g enable-background="new"><g><path d="m32.85128 23.32612-.02529 7.51599-8.77471 5.0993.02529-7.51599z" fill="#c4c6c6"/></g><g><path d="m28.06093 30.40793-.00804 2.38991-2.79014 1.62145.00804-2.38991z" fill="#ecf0f1"/></g><g><path d="m24.07663 28.42672-.02528 7.51561-13.87821-8.01497.02527-7.51562z" fill="#d4d6d6"/></g><g><path d="m32.85128 23.32612-8.77471 5.0993-13.87954-8.01336 8.7747-5.0993z" fill="#ecf0f1"/></g></g></g><g><g><g><g><g><path d="m14.20901 27.8702-.20629.3926.12776.07378.28194.16159z" fill="#3f434f"/></g></g></g><g><g><g><path d="m14.13048 28.33658-.0022.77665.15416.08902.00221-.77665z" fill="#3f434f"/></g></g></g><g><g><g><path d="m13.36465 28.74157-.00047.16625 1.06437.61461.00047-.16625z" fill="#3f434f"/></g></g></g><g><g><g><path d="m11.41952 26.30594-.00157.55337c-.00049.17475.10047.37769.2345.48061l-.00141.49876c-.09401-.04334-.16489-.0393-.16503.01288l.41498.23962c.00015-.05218-.07047-.13793-.16442-.20312l.00141-.49876c.06127.02444.11417.01852.1555-.00745.04875-.03627.08068-.10414.08095-.20122l.00157-.55336z" fill="#3f434f"/></g></g></g><g><g><g><path d="m13.51382 27.98049-.00221.77666.15417.08902.00221-.77665z" fill="#3f434f"/></g></g></g><g><g><g><path d="m13.59129 27.5135-.20524.39322.12777.07377.28088.16098z" fill="#3f434f"/></g></g></g></g><g><g><g><g><path d="m12.50954 28.63437c-.0189 0-.0393-.00597-.0592-.01741l-1.44359-.83335c-.06168-.03582-.11193-.12488-.11193-.19752l.00497-1.66172c0-.04179.01642-.07512.04477-.09154.02835-.01592.06367-.01343.09849.00647l1.44359.83335c.06367.03731.11541.12637.11441.19901l-.00448 1.66172c0 .04129-.01691.07413-.04576.09005-.01242.00746-.02635.01094-.04127.01094zm-1.52419-2.75129c-.00398 0-.00746.001-.01045.00249-.00895.00547-.01443.0199-.01443.03881l-.00497 1.66172c0 .05174.0383.11941.08208.14478l1.44359.83335c.01642.00945.03034.01045.0398.00647.00895-.00547.01443-.01891.01492-.03731l.00448-1.66172c0-.05075-.0398-.1204-.08457-.14627l-1.44359-.83335c-.00994-.00599-.01939-.00897-.02686-.00897z" fill="#3f434f"/></g></g></g><g><g><g><path d="m14.65801 29.8747c-.0189 0-.0393-.00547-.0587-.01692l-1.44359-.83335c-.06318-.03632-.11242-.12338-.11242-.19752l.00497-1.66222c0-.04129.01592-.07463.04477-.09105.02885-.01692.06367-.01443.09849.00597l1.44359.83385c.06367.03632.11541.12587.11441.19901l-.00448 1.66172c0 .0403-.01592.07314-.04427.08955-.01292.00747-.02734.01096-.04277.01096zm-1.52368-2.7508c-.00398 0-.00796.001-.01094.00249-.00895.00547-.01443.0194-.01443.03831l-.00498 1.66222c0 .05174.0388.11941.08258.14478l1.4431.83335c.01592.00896.03084.01045.04029.00597.00895-.00547.01443-.01891.01443-.03682l.00448-1.66172c0-.05124-.0398-.1204-.08457-.14627l-1.44359-.83385c-.00995-.00548-.01891-.00846-.02637-.00846z" fill="#3f434f"/></g></g></g></g></g></g><g><g><g enable-background="new"><g><path d="m32.85128 15.36427-.02529 7.516-8.77471 5.0993.02529-7.51599z" fill="#c4c6c6"/></g><g><path d="m28.06093 22.44609-.00804 2.3899-2.79014 1.62146.00804-2.38991z" fill="#ecf0f1"/></g><g><path d="m24.07663 20.46488-.02528 7.51561-13.87821-8.01497.02527-7.51562z" fill="#d4d6d6"/></g><g><path d="m32.85178 15.36485-8.77521 5.09737-6.2055-3.58248-1.557-.90051-6.11575-3.52918 8.77244-5.10018 6.14383 3.54881 1.55977.90052z" fill="#ecf0f1"/></g></g></g><g><g><g><g><g><path d="m14.20901 19.90835-.20629.39261.12776.07377.28194.16159z" fill="#3f434f"/></g></g></g><g><g><g><path d="m14.13048 20.37473-.0022.77666.15416.08902.00221-.77665z" fill="#3f434f"/></g></g></g><g><g><g><path d="m13.36465 20.77973-.00047.16625 1.06437.61461.00047-.16625z" fill="#3f434f"/></g></g></g><g><g><g><path d="m11.41952 18.3441-.00157.55337c-.00049.17475.10047.37769.2345.48061l-.00141.49876c-.09401-.04334-.16489-.0393-.16503.01288l.41498.23963c.00015-.05218-.07047-.13793-.16442-.20312l.00141-.49876c.06127.02444.11417.01852.1555-.00745.04875-.03627.08068-.10414.08095-.20122l.00157-.55337z" fill="#3f434f"/></g></g></g><g><g><g><path d="m13.51382 20.01865-.00221.77666.15417.08902.00221-.77666z" fill="#3f434f"/></g></g></g><g><g><g><path d="m13.59129 19.55166-.20524.39321.12777.07378.28088.16098z" fill="#3f434f"/></g></g></g></g><g><g><g><g><path d="m12.50954 20.67253c-.0189 0-.0393-.00597-.0592-.01741l-1.44359-.83335c-.06168-.03582-.11193-.12488-.11193-.19752l.00497-1.66172c0-.04179.01642-.07512.04477-.09154.02835-.01592.06367-.01343.09849.00647l1.44359.83335c.06367.03731.11541.12637.11441.19901l-.00448 1.66172c0 .0413-.01691.07413-.04576.09005-.01242.00746-.02635.01094-.04127.01094zm-1.52419-2.75129c-.00398 0-.00746.001-.01045.00249-.00895.00547-.01443.0199-.01443.03881l-.00497 1.66172c0 .05174.0383.11941.08208.14478l1.44359.83335c.01642.00945.03034.01045.0398.00647.00895-.00547.01443-.01891.01492-.03732l.00448-1.66172c0-.05075-.0398-.1204-.08457-.14627l-1.44359-.83335c-.00994-.00598-.01939-.00896-.02686-.00896z" fill="#3f434f"/></g></g></g><g><g><g><path d="m14.65801 21.91286c-.0189 0-.0393-.00547-.0587-.01692l-1.44359-.83335c-.06318-.03632-.11242-.12338-.11242-.19752l.00497-1.66222c0-.04129.01592-.07463.04477-.09105.02885-.01691.06367-.01443.09849.00597l1.44359.83385c.06367.03632.11541.12587.11441.19901l-.00448 1.66172c0 .0403-.01592.07314-.04427.08955-.01292.00747-.02734.01096-.04277.01096zm-1.52368-2.7508c-.00398 0-.00796.00099-.01094.00249-.00895.00547-.01443.0194-.01443.03831l-.00498 1.66222c0 .05174.0388.1194.08258.14478l1.4431.83335c.01592.00896.03084.01045.04029.00597.00895-.00547.01443-.01891.01443-.03682l.00448-1.66172c0-.05124-.0398-.1204-.08457-.14627l-1.44359-.83385c-.00995-.00548-.01891-.00846-.02637-.00846z" fill="#3f434f"/></g></g></g></g></g></g></g><g><path d="m35.90969 6.46617-8.80332 5.08335-.43201.24968-8.80329 5.08054-1.557-.90051 8.80052-5.08055.432-.24968 8.8061-5.08335z" fill="#5b5e71"/></g><g><path d="m40.0392 11.18763-1.55138.90053-6.68244-3.85459-.43201-.24968-6.76657-3.9079 1.55138-.90334 6.77497 3.9107.43204.24969z" fill="#5b5e71"/></g><g><path d="m27.88895 18.24977-1.55139.90053-6.6911-3.85959-.432-.24968-6.76658-3.9079 1.55138-.90334 6.77497 3.9107.43204.24968z" fill="#5b5e71"/></g><g><path d="m17.87388 16.88255-.0449 15.89811-.02243 7.51842-1.56823-.90615.02246-7.51842.04486-15.89809z" fill="#525566"/></g><g><path d="m26.33356 19.15097.04489 15.89811.02243 7.51842 1.56823-.90615-.02246-7.51842-.04486-15.8981z" fill="#525566"/></g><g><path d="m38.47097 12.09347.0449 15.89811.02243 7.51842 1.56823-.90615-.02246-7.51842-.04487-15.89809z" fill="#525566"/></g></g></g></svg>