<svg id="Layer_1" enable-background="new 0 0 50 50" height="512" viewBox="0 0 50 50" width="512" xmlns="http://www.w3.org/2000/svg"><g><g><g><g><g enable-background="new"><g><path d="m19.37137 14.44542c-.23124-.13351-.53613-.19896-.8403-.19748.00432-1.53172.00871-3.06339.01302-4.59513.30418-.00148.60907.06397.84031.19748-.00392 1.37855-.00912 3.2166-.01303 4.59513z" fill="#56707b"/></g><g><path d="m18.53107 14.24794c-.30455-.00144-.60868.0639-.83837.19738l.01302-4.59512c.22969-.13349.53382-.19883.83838-.19739-.00432 1.53174-.00871 3.06341-.01303 4.59513z" fill="#56707b"/></g><g><path d="m22.06214 11.39628-.01303 4.59514-2.67774-1.546.01303-4.59513z" fill="#56707b"/></g><g><path d="m22.85596 10.93496-.01303 4.59514-.79382.46132.01303-4.59514z" fill="#40545d"/></g><g><path d="m17.70573 9.85018-.01303 4.59514-2.64607 1.53773.01303-4.59514z" fill="#56707b"/></g><g><path d="m22.85596 10.93496-.79382.46132-2.67774-1.54599c-.23124-.13351-.53613-.19896-.8403-.19748-.30455-.00144-.60868.0639-.83837.19738l-2.64607 1.53773-.79902-.46131 3.17529-1.84528c.60759-.35309 1.59778-.35314 2.20964.00012z" fill="#485f69"/></g><g><path d="m15.05966 11.38791-.01303 4.59514-.79901-.46131.01302-4.59514z" fill="#40545d"/></g><g><path d="m5.44106 16.97763-.01302 4.59514-2.66043 1.54607.01303-4.59514z" fill="#56707b"/></g><g><path d="m2.42615 23.60147.01302-4.59513c.00051-.17546.11426-.3506.34147-.48264l-.01303 4.59513c-.22721.13205-.34097.30719-.34146.48264z" fill="#56707b"/></g><g><path d="m2.42615 23.60147.01302-4.59513c-.00049.17776.11529.35585.34714.48971l-.01303 4.59513c-.23186-.13386-.34764-.31194-.34713-.48971z" fill="#485f69"/></g><g><path d="m1 23.59208.01301-4.59512c-.00065.23318.15321.46673.46117.64453l-.01303 4.59513c-.30795-.17779-.46181-.41134-.46115-.64454z" fill="#40545d"/></g><g><path d="m5.46404 21.04204-.01303 4.59513-2.67773-1.54599.01302-4.59513z" fill="#485f69"/></g><g><path d="m5.44106 16.97763-2.66042 1.54607c-.45744.26583-.45501.70638.00567.97235l2.67774 1.54599-.77947.45298-3.2104-1.85352c-.61186-.35325-.6154-.92659-.00742-1.27991l3.17529-1.84528z" fill="#485f69"/></g><g><path d="m4.68457 21.49502-.01302 4.59513-3.21039-1.85352.01302-4.59513z" fill="#40545d"/></g><g><path d="m5.46404 21.04204-.01303 4.59513-.77946.45298.01302-4.59513z" fill="#35484f"/></g><g><path d="m47.21251 25.91686-.01302 4.59513-2.67772-1.54598.01303-4.59513z" fill="#56707b"/></g><g><path d="m47.55965 26.4066-.01304 4.59514c.00051-.17779-.11527-.35588-.34713-.48974l.01303-4.59513c.23186.13385.34765.31195.34714.48973z" fill="#56707b"/></g><g><path d="m47.55256 26.40637-.01303 4.59514c-.00048.17344-.11429.34661-.34155.47868l.01303-4.59513c.22726-.13207.34106-.30524.34155-.47869z" fill="#485f69"/></g><g><path d="m49 26.40759-.01304 4.59515c-.00064.23017-.15175.45997-.45357.63537l.01303-4.59513c.30181-.17541.45292-.40522.45358-.63539z" fill="#35484f"/></g><g><path d="m27.9367 34.01664-.01302 4.59513-22.47267-12.9746.01303-4.59513z" fill="#40545d"/></g><g><path d="m30.61441 35.56262-.01302 4.59513-2.67771-1.54598.01302-4.59513z" fill="#485f69"/></g><g><path d="m32.28591 35.55858-.01303 4.59513c-.11135.06471-.24082.11402-.37886.14759-.42845.10413-.94418.05763-1.29263-.14355l.01303-4.59513c.34845.20118.86418.24768 1.29263.14355.13804-.03357.26751-.08288.37886-.14759z" fill="#485f69"/></g><g><path d="m47.211 26.88506-.01302 4.59514-14.9251 8.67351.01303-4.59513z" fill="#40545d"/></g><g><path d="m48.53901 25.76308c.61183.35324.61499.9268.0074 1.27989l-3.17529 1.84528-.79899-.4613 2.64608-1.53773c.45744-.26583.45498-.70639-.00569-.97236l-2.67771-1.54598.79382-.46132z" fill="#485f69"/></g><g><path d="m45.37112 28.88825-.01303 4.59513-.79899-.4613.01303-4.59513z" fill="#40545d"/></g><g><path d="m48.54641 27.04297-.01303 4.59514-3.17529 1.84527.01303-4.59513z" fill="#35484f"/></g><g><path d="m47.20553 25.92092c.46067.26597.46291.69831.00547.96415l-14.92509 8.67352c-.11135.06471-.24082.11402-.37886.14759-.42845.10413-.94418.05763-1.29263-.14355l-2.67771-1.54598-22.47267-12.97461-2.67774-1.54599c-.46067-.26597-.4631-.70651-.00567-.97235l2.66043-1.54607 9.61859-5.58972 2.64607-1.53773c.22969-.13348.53382-.19881.83837-.19738.30181.00165.60388.06908.83332.20154z" fill="#56707b"/></g><g><path d="m30.36763 36.32314-.01303 4.59513-3.21039-1.85352.01303-4.59513z" fill="#35484f"/></g></g></g><g><path d="m35.75253 34.47796-.01303 4.59514-3.17529 1.84527.01303-4.59513z" fill="#35484f"/></g><g><path d="m32.57724 36.32324-.01303 4.59513c-.60798.35332-1.59778.35314-2.20961-.0001l.01303-4.59513c.61183.35324 1.60163.35342 2.20961.0001z" fill="#35484f"/></g><g><path d="m35.75253 34.47796-3.17529 1.84528c-.60798.35332-1.59778.35314-2.20961-.0001l-3.21039-1.85352.77947-.45298 2.67771 1.54598c.34845.20118.86418.24768 1.29263.14355.14647-.0332.28325-.08368.40042-.15177l2.64607-1.53773z" fill="#485f69"/></g><path d="m4.93659 19.43076 26.50556 15.31039 13.60791-7.90292-26.51684-15.31039z" fill="#4bb5e7"/><g><path d="m4.19253 19.00247.74406.42829 13.59663-7.90292v-.85713z" fill="#35484f"/><path d="m18.53322 10.67071v.85713l26.51684 15.31039.74407-.42883z" fill="#485f69"/></g></g><g><g enable-background="new"><g><path d="m21.97661 19.86122-.00663.06224.00731.05411-.02071.1121-.17903.11238-.05677.05802-.07159.04993-.15015.08726-.05749.00007-.10078-.05819-.16556-.09558-.08643-.06653-.0077-.05389-.029-.0999.07848-.08729.04268-.0248.07904-.00426.13612-.02074c-.05107.00737-.07365.00647-.08051.00251-.00852-.00492.00736-.01463.02298-.01909l.13665.029.05758.03324.05738.02504.14319-.06656.15761-.05823z" fill="#61c4f0"/></g><g><path d="m18.43743 19.32722c.0793.04578.00121.13734.01447.18904.00533.02105.01701.03454.03285.04369.04987.02879.14255.01398.21898.05182.00617.00311.01162.00626.01677.00923.08462.04886.03498.08223.05589.14869l.12947.11655c.05806.06633.00085.10792-.02055.17871-.03097.06078-.00842.09043.03134.11338.0145.00837.03133.01584.04865.02359.0254.00882.05444.01974.08199.03565.0114.00658.02227.01421.03297.02263.07224.06643.12991.13299.05138.20362l-.15714.09132c-.07169.07503.02931.14143-.14973.17874-.07883.01247-.16521-.0374-.17919.04577-.00692.02792.00771.04715.03334.06195.02802.01618.06934.027.11066.03782.05036.01244.10069.02487.13669.04566l.08649.09983.12255.06222c-.00714.02914-.1145.04986-.04989.0957l.15057.00423c.04714.00789.08115.01943.10573.03362.1031.05952.04025.16572.07546.25302.04375.09133.18744.14957.08023.2369-.14267.13293-.41548.10802-.64481.14956-.34411.04989-.60861.25362-.94526.33253-.23651.05403-.31569.00832-.51716-.07474-.23003-.09146-.27225.04149-.4584.10796-.08579.03317-.26472.10382-.37276.09987l-.13623-.02921c-.10067-.00823-.2078.03735-.30115.0666-.32688.09475-.28556-.08216-.39531-.14553-.11877.05364-.10511.41644-.63063.14966l-.09984.08304-.14422-.10798c-.10019.02486-.10676.1204-.18552.16617-.09312.05412-.07876.04577-.07843.10394l-.03528.11223c-.13771.05997-.51603.08784-.51455.34073.00783.10386.06579.21193-.00525.3116-.21766-.08279-.32983-.22816-.40458-.44035-.0362-.10405-.07277-.20787-.05185-.31176.07025-.26599.46395-.4531.76419-.66092.52906-.38286.45205-.54557 1.272-.89767.13606-.05404.29345-.12049.32878-.21606.0705-.20814-.33973-.03699.1155-1.14286.22702-.13133.4297-.13748.30009-.18273.2911-.18611.45101.07148.84587-.15799l.21456-.12469c.10068-.00154.64596-.0099.54528-.00836.03127.00592.05299.01397.06925.02335.05131.02962.0454.07385.08924.11805l.2796-.06241c.01487.00412.02715.00897.03689.01459z" fill="#61c4f0"/></g></g><g><path d="m33.05859 28.20609.02891.06659.03605.03744.04339.03314-.05.04575.043.03337.0576.03325.04335.01649.05756.0166.07172.01669.03597.02077.02885.03328.07224.06643.03611.07074.02193.07065.02165.02912.07226.08308.02188.05398.01449.04163-.05703.03314.00011.04996.03617.01235.00708.02925-.04283.04989-.07117.0497-.02867.03334-.0069.03737.03661.12047-.02124.04572-.05725.02493-.08664-.07474-.02909-.05815-.00028-.04151.01405-.04988-.00011-.04995-.00751-.04569-.04327-.05824-.15087-.04576-.07159.03329-.0576-.03326-.11513-.04984-.02883-.03327.02845-.04156-.11546-.10801.07187-.0084.05012.00421.10725-.07067-.0077-.05389-.0146-.09158-.03598-.02077-.03626-.04566-.01468-.04983-.03574.00409-.04335-.01649-.05049-.06241.04287-.03323.05024-.02089.06422-.04563-.036-.02078-.01467-.03319.03568-.03739z" fill="#61c4f0"/></g><g><path d="m27.96905 26.519c.00801.09542-.02011.19515-.12034.27842l-.09205.17025.00731.05411.04331.0749-.06388.08717-.07852.07063c.15436.12401-.34739-.00985 1.21017.89781l.02911.05816-.05723.04157-.12181-.00426-.07172-.01669c-.10041-.06336-.87091-.54956-.77049-.4862-.10359-.07633-.41363-.30477-.31004-.22845l-.02865-.04171-.1011-.09971-.03619-.02899-.04327-.05824-.00757-.07899-.01499-.09136.00689-.03737-.01444-.02497-.00007-.0333-.00031-.04153.00683-.07066.01427-.04166.0208-.07879.02858-.06666.04955-.07882.0428-.0499.02151-.02084.04285-.03324.01429-.04164-.02214-.07886-.00014-.04997.02084-.06213.02855-.0833.07146-.00819.06493.01232.05732.00837c.0817.10027.14445-.02114.17358.28272z" fill="#61c4f0"/></g><g><path d="m32.14 29.4404.09338.06245.07927.07903.00031.04153-.08575.04983-.11446.06651-.09986.08303-.03587.02919-.02092.10389-.07133.05814-.02125.04572.00725.02081-.05721.04159-.04288.03323-.04948.09549.03585.04587-.01388.04143-.0214.0708-.02097.08723-.12144.07057-.08579.03317-.05005.02909-.06443.02079c-.10003.01744-.38704.06748-.28701.05004l-.13615.02073-.05704.03314-.22235.03749c-.1-.01156-.38719-.04478-.28719-.03321l-.0717-.00004-.07885.01246-.17897.05399-.1582-.02481-.10793-.04569-.05736-.02503-.07191-.00826-.14365-.0416-.06478-.0374.01405-.04987-.07191-.00826-.07887-.00419-.03578-.01257-.02184-.03733-.03637-.09561.00687-.05402-.00026-.02487c.10016-.0582.37214-.21626.27198-.15806l-.04339-.03314-.11509-.03319-.07202-.05821.01427-.04166.04983-.0373.02843-.0582-.06463-.04586-.19451-.10376-.1291-.04173-.09375-.04559-.13669-.04566c-.10001-.01158-.35127-.04068-.25126-.0291-.10006-.05777-.36639-.21154-.26634-.15377l-.17215-.01668-.11492-.04163-.07913-.02906-.05782-.04147.02864-.04998.07881-.02911-.05068-.07062.03543-.04562c.10038-.05499.35085-.19221.25047-.13721.10214-.0254.35298-.08779.25084-.06239l.20768-.07067c.10016-.0582.33605-.19529.2359-.13709l.22942-.00823c.75758.27447.51553.0897.75425.12039l.11481-.00833.17224.05.17987.07059.20062-.02486.24406.02494.15808.04991.07918.04572.18693.02477.18631.00014.13665.029.19458.12043-.02135.08745-.07864.02067-.13601.0707-.03543.04562.04322.04159-.01431.025-.02071.1121.06487.07071.04311-.00837.07866-.00403.11481-.00833.10747-.06246.09269-.07054.07156-.04993z" fill="#61c4f0"/></g><g><path d="m29.37114 27.01341.06461.04584-.02819.06643-.09312.05411-.04988.02065-.04315-.00829-.08629-.01656-.05005.02909-.08575.04983-.10704.07889-.1001.05817-.10041.01664-.09344-.00406-.09273.05389-.10747.06246-.06483-.05406-.11541-.09136-.09335-.02917-.05046-.0624.0067-.04557.00711-.02916.02146-.03749.04982-.05395.06392-.07052.10769-.05424.07139-.04148.09323-.00416.05734.00838.06452.01253.16573.08714.14352-.02501.12897-.00824.11508.03318.0429-.01658.07881-.02912.04289-.01658z" fill="#61c4f0"/></g><g><path d="m24.6298 19.56187.10089.10814.02907.0415.03628.0623.15814.08321.05732.00837.09373.02895.11515.06648-.0572.04159-.06441.03743-.17975-.02063-.04318-.02493-.13631-.04588-.09348-.02072-.02182-.02068-.07203-.05822-.07898-.05414-.12229-.03734-.11509-.03319.09222-.17869.15783-.05001z" fill="#61c4f0"/></g><g><path d="m33.58678 22.05879c.10047.05845.16784.1423.23475.21689.12017.1267.15156.25365.38933.32411.20841.06234.34438.05005.53169.14965.07383.03813.14553.07728.21519.1175.85328.49264 2.52948 1.99097 3.37274 2.55899.23038.14964.59868.52769-.01844.56109-.22918.01646-.42391-.17058-.60336-.14968l-.23561.1786c-.23954.26647-.51244.51455-.55872.15792-.0376-.27836.16232-.43622.42662-.63152-.04287-.01261-.07875-.02928-.11114-.04798s-.06131-.03944-.09021-.06017c-.02666-.02573-.0588-.05148-.0948-.07226-.02224-.01284-.04628-.02357-.07097-.03154-.1075-.02925-.26518-.00432-.40205-.04154-.22958-.05838-.48217-.32018-.66007-.05837-.12115.18716.24562.34093.19675.5361-.05637.22456-.60019.44052-.95272.3035-.22285-.08731-.36443.25346-.63715.26186-.0796-.1372.04858-.31176-.05257-.44477-.12104-.1518-.38012-.09785-.41581.04985-.01403.06651.12299.17034.06592.2619-.12205.21454-.92707.61216-1.59778.35314-.11531-.0414-.13702-.10383-.27334-.07466-.22021.03817-.23723.41675-.95793.63176-.10082-.07484-.17988-.14565-.24516-.23278-.09273.05389-.17867.11214-.28616.15796-.36939-.21327.0014-.2527.16962-.45717.09279-.11229-.00785-.1205.02044-.22867.02836-.07487.18585-.108.11356-.19109-.26849.1802-.30401-.01472-.10098-.14145.19601-.12595.26061-.34081.08146-.44425-.0689-.03978-.17387-.06307-.32105-.05861-.19368.00414-.35099.1039-.53048.10814-.14354.00837-.25152-.05397-.402-.02489-.19359.03746-.45076.22025-.62969.29089-.2306-.15786.06158-.55281.21119-.70646.08583-.09159.17846-.17879.18501-.29097.01374-.0914-.02944-.11633-.05141-.20363-.02955-.16628.07082-.19958-.10225-.34086-.08662-.07473-.3242-.22853-.36773-.31164-.0668-.12846.03665-.32674-.14155-.42962-.03498-.02019-.08078-.03675-.14111-.04821-.0929.06233-.14199.24929-.13442.32827.02247.13703.28801.19954.31766.32409.00736.07077-.2424.26593-.37171.29106-.33672.06224-.51716-.16644-.77588-.22457l-.33764-.07897c-.15777-.09064-.13913-.28889-.19604-.4031-.07988-.17871-.04477-.2825.09778-.44876.08585-.09157.37845-.31997.32052-.4114-.32201.11209-.44954.40299-.59203.60255-.14947.20362-.27034.43229-.05362.63157.20894.20378.76254.40744.09571.45304-.38729.02496-.72412.12895-1.13315.09146-.38764-.03323-.65385-.13703-.93953.05402-.26454.18707-.34893.46962-.7934.5528-.27244.04992-.50259-.07487-.76774.01252-.17177.05815-.25693.19102-.40751.26185-.1574.06644-.30094.07482-.45821.11616-.38313.09883-.52565.41748-.90568.19807-.30692-.19383-.56656-.39318-.65399-.63423-.11665-.34917.27543-.8105.70457-1.04323.37933-.19542 1.12536-.17866 1.28124-.54444.02838-.07486-.0516-.21183.0197-.28663.12393-.14406 1.02139-.17891.00569-.76532-.25374-.1465-.44307-.15737-.62736-.26377-.28897-.16684-.28123-.5267-.09857-.74551.1428-.15803.44382-.19953.64402-.31588.80037-.46512.95014-.15261 1.34744-.24102.12175-.02905.19331-.07897.32986-.08329.25078-.00399.92658.2037.83131-.14122-.02913-.0748-.17998-.12054-.17318-.19123l.22869-.14124c.17985.05394 1.18029.67335 1.15699.35335-.03472-.16111-.62681-.25284-.34644-.41577.27169-.14732.76609.14198 1.40706.14129l.34361-.09962-.05047-.0624c.06326-.34252.48128-.18947.53552-.42796.02092-.10389-.11546-.10802.03508-.1955.52432-.3047 2.62996.73335 2.30935 1.13463-.10766.13337-.29887.15197-.08426.27588.64947.37497 1.16911.44326 1.4814.66336.46755.35041.61669.09152 1.01243.11212.09565.00804.17098.034.23317.06991z" fill="#61c4f0"/></g><g><path d="m21.6274 19.02179.02908.05815.02193.07064.0576.03326.12945.02484.10767.02081.07209.09151-.08575.04983-.10047-.01665-.14363-.02494-.12203-.01247-.07176-.03335-.06491-.0123-.09362-.07068-.01499-.09136.04281-.0499.10725-.07067.0573-.00827z" fill="#61c4f0"/></g><g><path d="m28.67963 18.88449-.31651-.09959-.25062.0706c-.21471.05807-.40894-.00417-.60954.03733-.10754.02916-.20022.0997-.3224.11231-.17191.00817-.22981-.08324-.37344-.10818-.0933-.01251-.12916.01667-.22968-.01664l-.27356-.17457-.30162-.04154-.27314-.08309c-.21394-.01205-.30766.12982-.48757.02595-.69552-.42634.49321-.5764.64882-.65336.20783-.09575.07114-.14141-.02294-.24517-.15731-.17622.55416-.14392-.36756-.32008-.16501-.0292-.81201-.22025-.64549.03321.09702.15183.08296.03054-.07723.27004-.02862.05-.04948.18718-.19289.17046l-.17304-.14126c-.17902.11351-.35654.17576-.4521-.01245-.07964-.15386.19943-.26601.37114-.35746-.29634-.32447-.95946-.19165-1.20688-.27428-.76884-.2785-1.48985-.36706-.98855.27428-.34336.03545-.42182.28069.12273.14547l.1433-.03323.17965.06237.179-.05397.20806.00416c.12938-.00846.23646-.07069.38703-.06646.14117.00308.42247.07361.43896.20354.00757.07899-.10693.12884-.02033.18693.08638.04987.20786-.00405.2942.02917.13107.07522-.10123.23372-.18506.27432-.51018-.11216-.29328.17878-.12161.07901-.12122.07879-.27905.1288-.38626.21613-.0857.06649-.13549.12044-.24977.17852-.0388.00007-.26303-.00173-.33544-.04354-.03515-.02029-.03449-.05003.04039-.09354.10726-.07067.37307.03336.42266-.10387-.45745-.06573-.3902-.1526-.61814-.23283l-.10016.11657c-.04962.04552-.17897.05399-.09956.12456-.11576.05045-.45163-.03818-.36672-.13711-.66229-.19176-.59667-.07724-.72504-.08734l-.29448-.07068-.1433.03323c-.10015-.00572-1.40375-.03187-1.54241.02912-.09071.04516-.28529.21869-.40213.15124-.0126-.00727-.02448-.01728-.03508-.03059.1001-.09723.10995-.20724.14164-.30747l-.22313-.12883c-.85121-.49145-1.11668-.13493-1.37734.01655-.45085.262.17124.29074.2745.3158l.17904-.03732.25896.08298c-.25847.12513-.57256.12311-.73106.14966-.07125.09146.36013.21601.26735.3283-.07845.0873-.41567.09982-.40057.24113.00093.12633.44931.18499.2745.3158-.09555-.10179-.75643-.18155-.57691-.52365.05671-.09132.16401-.14533.09905-.24936l-.11546-.10802c-.02083-.04394.02434-.1109-.05486-.15663-.03235-.07621-.0111-.12192-.06894-.18004l-.20874-.12051c-.05767-.06656.01372-.10804-.00122-.18274l-.03651-.14558c.07603-.26097.32635-.2664.27686-.54449-.00803-.11206.04918-.15365.15639-.24097.18573-.15796.00565-.23676.04799-.3948.02114-.09567.25699-.24941.39288-.29502.3152-.11647.75299-.07902 1.06797-.2037.1646-.06229.30755-.1537.45774-.2243.10752-.0458.21482-.09981.30052-.1663.14312-.12593.01511-.26276-.19313-.38299-.23851-.13771-.58244-.25357-.74338-.30693-.11181-.03399-.21991-.07932-.31235-.13269-.03222-.0186-.06274-.03802-.09047-.05852-.1368-.09561-.10835-.13717.04184-.20777.3648-.17863.84665.00832 1.21305.08727.32725.07522.60186.15016.84184.28871.039.02252.07707.04674.11446.07283.16844.11028.33307.31411.54401.43589.05948.03434.12255.06222.19062.07949.01234.05342.06789.10167.14358.14537.1535.08862.3885.15912.50404.22044.03235.01553.06314.03196.09277.04907.12873.07432.23536.16151.34663.24597l.17262.04977.04968-.10391c.15683-.13285.68213.10391.833.14967.29453.08734.5176.18287.76927.30345.3816.17852.78422.37815 1.22259.49865.98877.27566 1.54801.81913 1.64801.87687.10006.03576 1.73995.73866 1.96498 1.10118z" fill="#61c4f0"/></g></g></g><g><g><path d="m32.21666 29.15234c-.35473 0-.69348-.08276-.95361-.233-.31018-.17902-.4884-.44617-.48889-.73294-.00037-.28558.17566-.55179.48291-.73035.25903-.15051.59717-.23343.95227-.23343.35474 0 .69336.08273.95361.23294.31018.17914.4884.44635.48877.73306.00037.28555-.17566.55176-.48291.73032-.25904.15051-.59717.2334-.95215.2334zm-.00733-1.80472c-.33337 0-.64929.0769-.88952.21652-.2677.15555-.42102.38226-.42065.62204.00049.241.15588.46875.42639.62488.24146.13947.55798.21628.89111.21628.33325 0 .64917-.07687.8894-.21649.2677-.15555.42102-.38226.42065-.62204-.00037-.24094-.15576-.46875-.42627-.62497-.24157-.13944-.55798-.21622-.89111-.21622z" fill="#ee5550"/></g><g><path d="m32.21666 28.90105c-.2998 0-.59973-.06607-.82861-.19821-.23438-.13528-.36353-.31882-.36389-.51685-.00024-.19684.12708-.3793.35852-.51379.45483-.26428 1.19751-.26437 1.65527-.00012.23425.13528.3634.31888.36377.51691.00024.19684-.12708.3793-.35852.51379-.22742.13217-.52686.19827-.82654.19827zm-.00733-1.30398c-.2771 0-.55371.06107-.76391.18323-.19116.11115-.29639.25516-.29626.40552.00024.15155.1073.29672.30139.40875.4231.24435 1.1095.24445 1.52991.00012.19116-.11115.29639-.25516.29626-.40552-.00024-.15158-.10718-.29678-.30127-.40881-.21168-.12216-.48914-.18329-.76612-.18329z" fill="#ee5550"/></g><g><path d="m32.21666 28.58984c-.25378 0-.4989-.05746-.67236-.15762-.12988-.07498-.20752-.16718-.20764-.24667 0-.07834.07581-.16922.203-.24313.172-.09995.41602-.15729.66968-.15729.25378 0 .4989.05746.67236.15762.12976.07495.2074.16718.20752.24667.00012.07834-.07581.16925-.203.24316-.17201.09994-.41602.15726-.66956.15726z" fill="#ee5550"/></g></g><g><g><path d="m31.50178 24.3419c-.35474 0-.69348-.08276-.95361-.233-.31018-.17902-.4884-.44617-.48889-.73294-.00037-.28558.17566-.55179.48291-.73035.25903-.15051.59717-.23343.95227-.23343 1.42406 0 1.89031 1.15536.95947 1.69632-.25903.15051-.59717.2334-.95215.2334zm-.00732-1.80472c-.33337 0-.64929.0769-.88953.21652-.2677.15555-.42102.38226-.42065.62204.00049.241.15588.46875.42639.62488.24146.13947.55798.21628.89111.21628.33325 0 .64917-.07687.88941-.21649.84373-.49026.35796-1.46323-.89673-1.46323z" fill="#ee5550"/></g><g><path d="m31.50178 24.09062c-.2998 0-.59973-.06607-.82861-.19821-.23438-.13528-.36353-.31882-.36389-.51685-.00024-.19684.12708-.3793.35852-.51379.45483-.26428 1.19751-.26437 1.65528-.00012.48343.27918.48598.75135.00525 1.0307-.22743.13217-.52687.19827-.82655.19827zm-.00732-1.30399c-.2771 0-.55371.06107-.76392.18323-.19116.11115-.29639.25516-.29626.40552.00024.15155.1073.29672.30139.40875.4231.24435 1.1095.24445 1.52991.00012.66732-.38799.127-.99762-.77112-.99762z" fill="#ee5550"/></g><g><path d="m31.50178 23.7794c-.25378 0-.4989-.05746-.67236-.15762-.12988-.07498-.20752-.16718-.20764-.24667 0-.07834.07581-.16922.203-.24313.172-.09995.41602-.15729.66968-.15729.56983 0 1.20986.33775.67688.64746-.172.09994-.41602.15725-.66956.15725z" fill="#ee5550"/></g></g><g><g><path d="m17.81869 22.04441c-.35474 0-.69348-.08276-.95361-.233-.31018-.17902-.4884-.44617-.48889-.73294-.00037-.28558.17566-.55179.48291-.73035.25903-.15051.59717-.23343.95227-.23343.35474 0 .69336.08273.95362.23294.31018.17914.4884.44635.48877.73306.00037.28555-.17566.55176-.48291.73032-.25905.15052-.59718.2334-.95216.2334zm-.00733-1.80471c-.33337 0-.64929.0769-.88953.21652-.2677.15555-.42102.38226-.42065.62204.00049.241.15588.46875.42639.62488.24146.13947.55798.21628.89111.21628.33325 0 .64917-.07687.88941-.21649.2677-.15555.42102-.38226.42065-.62204-.00037-.24094-.15576-.46875-.42627-.62497-.24157-.13944-.55798-.21622-.89111-.21622z" fill="#ee5550"/></g><g><path d="m17.81869 21.79313c-.2998 0-.59973-.06607-.82861-.19821-.23438-.13528-.36353-.31882-.36389-.51685-.00024-.19684.12708-.3793.35852-.51379.45483-.26428 1.19751-.26437 1.65528-.00012.23425.13528.3634.31888.36377.51691.00024.19684-.12708.3793-.35852.51379-.22743.13217-.52687.19827-.82655.19827zm-.00733-1.30398c-.2771 0-.55371.06107-.76392.18323-.19116.11115-.29639.25516-.29626.40552.00024.15155.1073.29672.30139.40875.4231.24435 1.1095.24445 1.52991.00012.19116-.11115.29639-.25516.29626-.40552-.00024-.15158-.10718-.29678-.30127-.40881-.21166-.12217-.48913-.18329-.76611-.18329z" fill="#ee5550"/></g><g><path d="m17.81869 21.48191c-.25378 0-.4989-.05746-.67236-.15762-.12988-.07498-.20752-.16718-.20764-.24667 0-.07834.07581-.16922.203-.24313.172-.09995.41602-.15729.66968-.15729.25378 0 .4989.05746.67237.15762.12976.07495.2074.16718.20752.24667.00012.07834-.07581.16925-.203.24316-.17201.09995-.41603.15726-.66957.15726z" fill="#ee5550"/></g></g><g><g><path d="m20.13375 16.60108c-.35474 0-.69348-.08276-.95361-.233-.31018-.17902-.4884-.44617-.48889-.73294-.00037-.28558.17566-.55179.48291-.73035.25903-.15051.59717-.23343.95227-.23343.35474 0 .69336.08273.95361.23294.31018.17914.4884.44635.48877.73306.00037.28555-.17566.55176-.48291.73032-.25903.15051-.59717.2334-.95215.2334zm-.00732-1.80472c-.33337 0-.64929.0769-.88953.21652-.2677.15555-.42102.38226-.42065.62204.00049.241.15588.46875.42639.62488.24146.13947.55798.21628.89111.21628.33325 0 .64917-.07687.8894-.21649.2677-.15555.42102-.38226.42065-.62204-.00037-.24094-.15576-.46875-.42627-.62497-.24157-.13944-.55797-.21622-.8911-.21622z" fill="#ee5550"/></g><g><path d="m20.13375 16.3498c-.2998 0-.59973-.06607-.82861-.19821-.23438-.13528-.36353-.31882-.36389-.51685-.00024-.19684.12708-.3793.35852-.51379.45483-.26428 1.19751-.26437 1.65527-.00012.23425.13528.3634.31888.36377.51691.00024.19684-.12708.3793-.35852.51379-.22742.13217-.52686.19827-.82654.19827zm-.00732-1.30399c-.2771 0-.55371.06107-.76392.18323-.19116.11115-.29639.25516-.29626.40552.00024.15155.1073.29672.30139.40875.4231.24435 1.1095.24445 1.52991.00012.19116-.11115.29639-.25516.29626-.40552-.00024-.15158-.10718-.29678-.30127-.40881-.21167-.12216-.48914-.18329-.76611-.18329z" fill="#ee5550"/></g><g><path d="m20.13375 16.03858c-.25378 0-.4989-.05746-.67236-.15762-.12988-.07498-.20752-.16718-.20764-.24667 0-.07834.07581-.16922.203-.24313.172-.09995.41602-.15729.66968-.15729.25378 0 .4989.05746.67236.15762.12976.07495.2074.16718.20752.24667.00012.07834-.07581.16925-.203.24316-.172.09995-.41602.15726-.66956.15726z" fill="#ee5550"/></g></g></g></svg>