<svg id="Layer_1" enable-background="new 0 0 52 52" height="512" viewBox="0 0 52 52" width="512" xmlns="http://www.w3.org/2000/svg"><g><g><g><g enable-background="new"><g><path d="m35.44476 20.2467-.5624-.32683 1.28467-.74171.5624.32684z" fill="#5b5e71"/></g><path d="m34.68535 4.94353c-.10306-.05986-.24542-.05114-.40181.03913-.3159.18237-.56726.61776-.56623.98073l.03146 14.61093.56244.32685-.03147-14.61094c-.00107-.36297.25034-.79834.56623-.98073.15634-.09027.29875-.09899.40181-.03911z" fill="#5b5e71"/><g><path d="m4.66983 38.01462-.56241-.32683 29.64135-17.11345.56241.32684z" fill="#5b5e71"/></g><g><path d="m2.56241 39.23134-.56241-.32683.97383-.56225.56241.32684z" fill="#5b5e71"/></g><g><path d="m2.56609 40.53099-.56241-.32684-.00368-1.29964.56241.32683z" fill="#525566"/></g><g><path d="m34.84597 5.30951c.31075-.17941.56632-.03671.56735.32626l.03145 14.61094 1.28467-.7417.00368 1.29965-34.16703 19.72633-.00368-1.29965.97383-.56224-.03145-14.61094c-.00103-.36296.25289-.79983.5662-.98071.31334-.18091.56635-.03673.56738.32624l.03145 14.61094 29.64135-17.11345-.03144-14.61094c-.00103-.36296.25033-.79835.56624-.98073z" fill="#474b59"/></g><path d="m3.91077 22.71054c-.10267-.05964-.24484-.05077-.4022.04006-.31327.18089-.56721.61776-.56619.98073l.03146 14.61093.56239.32683-.03146-14.61093c-.00097-.36297.25292-.79982.56624-.98073.15731-.09083.29948-.0997.40215-.04004z" fill="#5b5e71"/></g></g><g><g enable-background="new"><path d="m48.74696 11.23835c-.33509-.1955-.79398-.16757-1.30469.12368l-.35106.20349-.81395.4708-3.06817 1.77149-.81394.46683-3.06817 1.77149-.81794.47479-3.06418 1.77147-.81794.47082-3.06822 1.77149-.8099.46681-3.07221 1.77549-.8139.4708-3.06822 1.7715-.81789.4708-3.06428 1.7675-.81789.47479-2.50958 1.44832c-.16759.09575-.33518.21944-.49074.35907-.19949.17955-.38705.38703-.55864.62242-.08777.11971-.17154.24739-.24732.38303-.34317.59848-.53068 1.23287-.53068 1.79543.00399.57853.20748.9855.53468 1.17701l-12.65185-7.35727c-.33114-.19151-.53463-.59448-.53463-1.17302-.00399-.56256.18751-1.19696.53063-1.79543.06785-.11969.14363-.23541.22341-.34711.16365-.23541.35116-.44686.54666-.6304.16754-.15162.34312-.28326.52264-.387l2.46974-1.42438.81794-.47479 3.06418-1.7675.81395-.4708 3.07216-1.77549.81395-.46681 3.06817-1.77549.81395-.46683 3.06817-1.77147.81794-.47479 3.06418-1.76752.81794-.47479 3.06817-1.77147.81394-.46683 3.06817-1.77549.81395-.4708.391-.22343c.51071-.29125.96955-.31918 1.30469-.12768z" fill="#5b5e71"/><g><path d="m47.44262 11.36344c1.01131-.58388 1.83427-.11201 1.83755 1.04715.00328 1.15915-.81431 2.57819-1.82562 3.16207l-30.859 17.81645c-1.01131.58388-1.83423.11199-1.83752-1.04716-.00159-.56202.18795-1.1992.53074-1.79585.34531-.59811.80574-1.08383 1.29485-1.36621z" fill="#474b59"/></g></g></g><g><path d="m47.44448 12.01326c.70052-.40445 1.26791-.0782 1.27018.72384.00228.80203-.56141 1.78129-1.26193 2.18574l-30.859 17.81645c-.70052.40445-1.26791.0782-1.27018-.72383-.00115-.40395.1405-.84636.36903-1.24218.2285-.3958.54138-.74063.8929-.94358z" fill="#f1c40f"/></g><g><path d="m16.72228 30.14687c.55861-.32251 1.01592-.0619 1.01774.58001.00183.64586-.45253 1.42887-1.01113 1.75138-.5621.32452-1.01596.06588-1.01779-.57998-.00182-.64191.44909-1.42688 1.01118-1.75141z" fill="#c6a51a"/></g><g><path d="m47.5173 12.3747c.50693-.29267.92193-.05618.92358.52634.00166.58611-.41066 1.29667-.91758 1.58934-.51009.2945-.92196.05979-.92362-.52632-.00165-.58252.40754-1.29486.91762-1.58936z" fill="#c6a51a"/></g><g><g enable-background="new"><g><path d="m48.71164 27.95657-.5624-.32684 1.28467-.7417.56241.32683z" fill="#5b5e71"/></g><path d="m47.95223 12.6534c-.10306-.05986-.24542-.05114-.40181.03913-.3159.18237-.56726.61776-.56623.98073l.03146 14.61093.56244.32685-.03147-14.61094c-.00107-.36297.25034-.79834.56623-.98073.15634-.09027.29875-.09899.40181-.03911z" fill="#5b5e71"/><g><path d="m17.9367 45.72449-.5624-.32684 29.64135-17.11344.56241.32683z" fill="#5b5e71"/></g><g><path d="m15.82928 46.9412-.5624-.32683.97383-.56224.56241.32683z" fill="#5b5e71"/></g><g><path d="m15.83297 48.24086-.56241-.32684-.00368-1.29965.5624.32683z" fill="#525566"/></g><g><path d="m48.11284 13.01937c.31075-.17941.56632-.03671.56735.32626l.03145 14.61094 1.28467-.7417.00369 1.29964-34.16703 19.72635-.00368-1.29965.97383-.56224-.03145-14.61094c-.00103-.36296.2529-.79983.5662-.98071.31334-.18091.56635-.03673.56738.32624l.03145 14.61094 29.64135-17.11345-.03145-14.61094c-.00103-.36297.25034-.79835.56624-.98074z" fill="#474b59"/></g><path d="m17.17764 30.4204c-.10267-.05964-.24484-.05077-.4022.04006-.31327.18089-.56721.61776-.56619.98073l.03146 14.61093.56239.32683-.03146-14.61093c-.00097-.36297.25292-.79982.56623-.98073.15731-.09083.29948-.0997.40215-.04003z" fill="#5b5e71"/></g></g><g><g enable-background="new"><g><path d="m40.01218 20.17433 5.60409-3.27887-.00886 3.12529-5.60409 3.27887z" fill="#c4c6c6"/></g><g><path d="m38.73511 17.85034 5.60409-3.27887 1.27707 2.32399-5.60409 3.27887z" fill="#d4d6d6"/></g><g><path d="m38.36013 17.63385 5.60409-3.27887.37498.21649-5.60409 3.27887z" fill="#ecf0f1"/></g><g><path d="m38.73511 17.85034 1.27707 2.32399-.00886 3.12529-1.65654-.9564.01335-4.70937z" fill="#e0e2e2"/></g></g></g><g><g enable-background="new"><path d="m40.17999 18.64202c-.09609-.3579.05455-.78309.33474-.94489.09644-.05564.19545-.07352.28794-.05869l-.26393-.04232c-.09244-.01483-.19151.00304-.28794.05869-.28019.1618-.43084.58698-.33479.94489.06371.23734.21815.38659.39606.41513l.26398.04232c-.17797-.02854-.33236-.17779-.39606-.41513z" fill="#2ecc71"/><g><path d="m40.51474 17.69715c.28276-.16326.5881-.00133.68417.35658.09695.36115-.05205.78162-.33481.94488-.28021.16178-.58719.00456-.68414-.35659-.09607-.3579.05457-.78309.33478-.94487z" fill="#30b265"/></g></g><g enable-background="new"><path d="m41.89179 17.65369c-.09609-.3579.0546-.78309.33474-.94486.09644-.05567.1955-.07354.28794-.05871l-.26388-.04232c-.09249-.01483-.19151.00304-.28794.05871-.28024.16177-.43084.58696-.33479.94486.06371.23734.21815.38661.39606.41513l.26393.04232c-.17791-.02851-.33235-.17779-.39606-.41513z" fill="#3498db"/><g><path d="m42.22657 16.70883c.28276-.16325.5881-.00133.68417.35658.09695.36115-.05205.78162-.33481.94488-.28021.16178-.58719.00456-.68414-.35659-.09607-.35791.05458-.78309.33478-.94487z" fill="#328eb7"/></g></g><g enable-background="new"><path d="m43.6036 16.66536c-.09604-.3579.0546-.78309.33484-.94489.09682-.05589.19662-.07384.28979-.05888l-.26393-.04235c-.09322-.01493-.19297.00302-.28979.05891-.28025.1618-.43089.58698-.33479.94489.06371.23734.2181.38659.39602.41513l.26393.04232c-.17792-.02854-.33237-.17779-.39607-.41513z" fill="#e74c3c"/><g><path d="m43.93844 15.72048c.28273-.16323.59062-.00278.68669.35512.09695.36115-.0546.7831-.33733.94633-.28024.1618-.58722.00458-.68417-.35657-.09607-.3579.05457-.78308.33481-.94488z" fill="#c44"/></g></g></g><g><g><path d="m16.09409 29.53979c-.19949.17955-.38705.38703-.55864.62242l-12.67576-7.31738c.16365-.23541.35116-.44686.54666-.6304z" fill="#525566"/></g><g><path d="m19.91231 27.25761-.81789.47479-12.69569-7.32935.81794-.4748z" fill="#525566"/></g><g><path d="m23.79447 25.01931-.81789.47079-12.69573-7.32935.81395-.4708z" fill="#525566"/></g><g><path d="m31.5587 20.53472-.8099.4668-12.69972-7.32935.81394-.46683z" fill="#525566"/></g><g><path d="m35.44486 18.2924-.81794.47082-12.69573-7.32935.81794-.47479z" fill="#525566"/></g><g><path d="m39.32698 16.04614-.81794.47479-12.69573-7.32938.81794-.47479z" fill="#525566"/></g><g><path d="m47.09121 11.56552-.81394.4708-12.69573-7.33335.81394-.4708z" fill="#525566"/></g><g><path d="m43.2091 13.80781-.81395.46683-12.69573-7.32935.81394-.46683z" fill="#525566"/></g><g><path d="m27.67659 22.77701-.8139.4708-12.69573-7.33335.81395-.4668z" fill="#525566"/></g></g></g><g><g><g><g><path d="m30.05374 7.57006.01701 5.37264 6.00994 3.4926-.017-5.37265z" fill="#d6b218"/></g><g><path d="m36.06369 11.06265.017 5.37265 4.89625-2.82685-.017-5.37265z" fill="#e5bd13"/></g><g><path d="m30.05259 7.57342 6.01111 3.49253 2.13886-1.23832.61918-.35023.01248-.00622 2.12638-1.23206-6.01115-3.49252-2.13886 1.23206-.00626.00626-.61288.35022z" fill="#f1c40f"/></g><g><path d="m32.19145 6.33514 6.01111 3.49249.61918-.35023.01248-.00622-6.02363-3.49252-.00626.00626z" fill="#e74c3c"/></g><g><path d="m38.20256 9.82763.00576.8873.3463-.44341.2796.08597-.00576-.8873z" fill="#d8463f"/></g><g><g><g><path d="m34.98047 14.06581-.16852.32067.10437.06025.23031.13198z" fill="#3f434f"/></g></g><g><g><path d="m34.91632 14.44673-.0018.63434.12594.07271.0018-.63434z" fill="#3f434f"/></g></g><g><g><path d="m34.29073 14.77751-.00039.13579.86947.50199.00038-.13579z" fill="#3f434f"/></g></g><g><g><path d="m33.36661 13.13405-.00128.45197c-.0004.14273.08207.30848.19156.39254l-.00116.40736c-.07679-.0354-.13469-.0321-.13481.01052l.33899.19572c.00012-.04262-.05757-.11266-.13431-.1659l.00115-.40736c.05005.01996.09327.01513.12703-.00609.03983-.02962.0659-.08506.06612-.16435l.00128-.45197z" fill="#3f434f"/></g></g><g><g><path d="m34.41258 14.1559-.0018.63434.12594.07271.0018-.63434z" fill="#3f434f"/></g></g><g><g><path d="m34.47587 13.77448-.16766.32116.10437.06026.22945.13148z" fill="#3f434f"/></g></g></g></g><g><g><path d="m36.81969 14.23551v1.32202l1.98896-1.15699v-1.32356z" fill="#ecf0f1"/></g><g><g><g><path d="m36.81969 14.86277v.06189l1.98896-1.14825v-.06298z" fill="#a4a9b3"/></g></g><g><g><path d="m36.81969 15.09418v.06595l1.98896-1.14825v-.06852z" fill="#3f434f"/></g></g><g><g><path d="m36.81969 15.32509v.06883l1.98896-1.1468v-.06882z" fill="#a4a9b3"/></g></g><g><g><path d="m36.81969 14.62443v.06811l1.98896-1.14934v-.06557z" fill="#a4a9b3"/></g></g><g><g><path d="m36.81969 14.39063v.06521l1.98896-1.14829v-.06517z" fill="#a4a9b3"/></g></g></g></g></g><g><g><g><path d="m19.13401 13.87457.01701 5.37264 6.00994 3.4926-.017-5.37265z" fill="#d6b218"/></g><g><path d="m25.14396 17.36716.017 5.37265 4.89625-2.82685-.017-5.37265z" fill="#e5bd13"/></g><g><path d="m19.13286 13.87793 6.01111 3.49252 2.13886-1.23831.61918-.35023.01248-.00622 2.12638-1.23206-6.01115-3.49252-2.13886 1.23206-.00626.00626-.61288.35022z" fill="#f1c40f"/></g><g><path d="m21.27172 12.63965 6.01111 3.49249.61918-.35023.01248-.00622-6.02363-3.49252-.00626.00626z" fill="#e74c3c"/></g><g><path d="m27.28283 16.13214.00576.8873.3463-.44341.2796.08597-.00576-.8873z" fill="#d8463f"/></g><g><g><g><path d="m24.06074 20.37032-.16852.32066.10437.06026.23031.13198z" fill="#3f434f"/></g></g><g><g><path d="m23.99659 20.75124-.0018.63434.12594.07271.0018-.63434z" fill="#3f434f"/></g></g><g><g><path d="m23.371 21.08202-.00039.13579.86947.50199.00039-.13579z" fill="#3f434f"/></g></g><g><g><path d="m22.44688 19.43856-.00128.45197c-.00041.14273.08207.30848.19156.39254l-.00116.40736c-.07679-.0354-.13469-.0321-.13481.01052l.33899.19572c.00012-.04262-.05757-.11266-.13431-.1659l.00115-.40737c.05005.01996.09327.01513.12702-.00608.03983-.02962.0659-.08506.06613-.16435l.00128-.45197z" fill="#3f434f"/></g></g><g><g><path d="m23.49285 20.46041-.0018.63434.12594.07271.0018-.63434z" fill="#3f434f"/></g></g><g><g><path d="m23.55614 20.07899-.16766.32116.10437.06026.22945.13148z" fill="#3f434f"/></g></g></g></g><g><g><path d="m8.21428 20.17908.01701 5.37264 6.00994 3.4926-.017-5.37265z" fill="#d6b218"/></g><g><path d="m14.22423 23.67167.017 5.37265 4.89625-2.82685-.017-5.37265z" fill="#e5bd13"/></g><g><path d="m8.21313 20.18244 6.01111 3.49252 2.13886-1.23832.61918-.35022.01248-.00622 2.12638-1.23206-6.01115-3.49252-2.13886 1.23206-.00626.00626-.61288.35022z" fill="#f1c40f"/></g><g><path d="m10.35199 18.94416 6.01111 3.49248.61918-.35022.01248-.00622-6.02363-3.49252-.00626.00626z" fill="#e74c3c"/></g><g><path d="m16.3631 22.43664.00576.88731.3463-.44341.2796.08597-.00576-.88731z" fill="#d8463f"/></g><g><g><g><path d="m13.14101 26.67483-.16852.32066.10437.06026.23031.13198z" fill="#3f434f"/></g></g><g><g><path d="m13.07686 27.05575-.0018.63434.12594.07271.0018-.63434z" fill="#3f434f"/></g></g><g><g><path d="m12.45127 27.38653-.00039.13579.86947.50199.00038-.13579z" fill="#3f434f"/></g></g><g><g><path d="m11.52715 25.74307-.00128.45197c-.00041.14273.08207.30848.19156.39254l-.00115.40737c-.07679-.0354-.13469-.0321-.13481.01052l.33899.19571c.00012-.04262-.05757-.11266-.13431-.1659l.00115-.40737c.05005.01996.09327.01513.12702-.00609.03983-.02962.0659-.08505.06613-.16435l.00128-.45197z" fill="#3f434f"/></g></g><g><g><path d="m12.57312 26.76492-.0018.63434.12594.07271.0018-.63434z" fill="#3f434f"/></g></g><g><g><path d="m12.63641 26.3835-.16766.32116.10437.06026.22945.13148z" fill="#3f434f"/></g></g></g></g><g><g><path d="m25.89996 20.54002v1.32202l1.98897-1.15699v-1.32356z" fill="#ecf0f1"/></g><g><g><g><path d="m25.89996 21.16728v.06189l1.98897-1.14825v-.06298z" fill="#a4a9b3"/></g></g><g><g><path d="m25.89996 21.39869v.06595l1.98897-1.14825v-.06852z" fill="#3f434f"/></g></g><g><g><path d="m25.89996 21.6296v.06883l1.98897-1.1468v-.06882z" fill="#a4a9b3"/></g></g><g><g><path d="m25.89996 20.92894v.06811l1.98897-1.14934v-.06557z" fill="#a4a9b3"/></g></g><g><g><path d="m25.89996 20.69514v.06521l1.98897-1.14829v-.06517z" fill="#a4a9b3"/></g></g></g></g><g><g><path d="m14.98023 26.84453v1.32201l1.98896-1.15698v-1.32356z" fill="#ecf0f1"/></g><g><g><g><path d="m14.98023 27.47179v.06189l1.98896-1.14825v-.06298z" fill="#a4a9b3"/></g></g><g><g><path d="m14.98023 27.7032v.06595l1.98896-1.14826v-.06851z" fill="#3f434f"/></g></g><g><g><path d="m14.98023 27.93411v.06883l1.98896-1.1468v-.06883z" fill="#a4a9b3"/></g></g><g><g><path d="m14.98023 27.23344v.06812l1.98896-1.14934v-.06557z" fill="#a4a9b3"/></g></g><g><g><path d="m14.98023 26.99965v.06521l1.98896-1.14829v-.06517z" fill="#a4a9b3"/></g></g></g></g></g></g></g></svg>