<svg id="Layer_1" enable-background="new 0 0 52 52" height="512" viewBox="0 0 52 52" width="512" xmlns="http://www.w3.org/2000/svg"><g><g><g><g enable-background="new"><g><path d="m2 32.83136.00402.40324 19.18752 11.15056-.00402-.40323z" fill="#2ebf69"/></g><g><path d="m21.18752 43.98193.00402.40323 28.80846-16.63257-.00402-.40323z" fill="#30b265"/></g><g><path d="m2 32.83136 19.18752 11.15057 28.80846-16.63257-19.18752-11.15057z" fill="#2ecc71"/></g></g></g><g><g><g><g><g enable-background="new"><g><path d="m34.91098 19.16343-14.32772-8.32636.02941 11.31718 14.32773 8.32637z" fill="#d4d6d6"/></g><g><path d="m43.6366 16.1988-14.32772-8.32637-8.72562 2.96464 14.32772 8.32636z" fill="#b4b7b8"/></g><g><path d="m34.91098 19.16343.02942 11.31719 8.71974-5.03435-.02354-9.24747z" fill="#ecf0f1"/></g><g><path d="m34.58663 19.13397-14.32773-8.32636-.02366.1477 14.35139 8.31054z" fill="#328eb7"/></g><g><path d="m43.9837 15.9412-14.32773-8.32637-9.39707 3.19278 14.32773 8.32636z" fill="#3498db"/></g><g><path d="m34.58663 19.13397v.13188l.32435-.10242 8.72562-2.96463.32343-.10989.02367-.14771z" fill="#3293c9"/></g></g></g><g><g enable-background="new"><g><path d="m26.19126 25.13992-14.32773-8.32636.02942 10.37481 14.32772 8.32636z" fill="#d4d6d6"/></g><g><path d="m34.91687 22.17529-14.32772-8.32637-8.72562 2.96464 14.32773 8.32636z" fill="#b4b7b8"/></g><g><path d="m26.19126 25.13992.02941 10.37481 8.71975-5.03435-.02355-8.30509z" fill="#ecf0f1"/></g><g><path d="m25.8669 25.11046-14.32772-8.32636-.02367.1477 14.35139 8.31054z" fill="#328eb7"/></g><g><path d="m35.26397 21.91769-14.32772-8.32637-9.39707 3.19278 14.32772 8.32636z" fill="#3498db"/></g><g><path d="m25.8669 25.11046v.13188l.32436-.10242 8.72561-2.96463.32344-.1099.02366-.1477z" fill="#3293c9"/></g></g></g><g><g enable-background="new"><g><path d="m17.6112 30.96543-14.32773-8.32636.02942 9.503 14.32772 8.32636z" fill="#d4d6d6"/></g><g><path d="m26.33682 28.0008-14.32773-8.32637-8.72562 2.96464 14.32773 8.32636z" fill="#b4b7b8"/></g><g><path d="m17.6112 30.96543.02941 9.503 8.71975-5.03435-.02354-7.43328z" fill="#ecf0f1"/></g><g><path d="m17.28684 30.93597-14.32772-8.32636-.02367.1477 14.35139 8.31054z" fill="#328eb7"/></g><g><path d="m26.68391 27.7432-14.32772-8.32637-9.39707 3.19278 14.32772 8.32636z" fill="#3498db"/></g><g><path d="m17.28684 30.93597v.13188l.32436-.10242 8.72562-2.96463.32343-.10989.02366-.14771z" fill="#3293c9"/></g></g></g></g><g><path d="m41.85245 26.29051-.01623-5.67267.19768-.11402.0168 5.87373z" fill="#e0e2e2"/><path d="m41.85245 26.29051.19825.08704-3.92684 2.28207-.00058-.20191z" fill="#fff"/></g><g><path d="m33.22511 31.26983-.01622-5.67268.19768-.11401.0168 5.87372z" fill="#e0e2e2"/><path d="m33.22511 31.26983.19826.08703-3.92685 2.28208-.00057-.20192z" fill="#fff"/></g><g><path d="m24.15535 36.50919-.01623-5.67268.19768-.11401.0168 5.87372z" fill="#e0e2e2"/><path d="m24.15535 36.50919.19825.08703-3.92684 2.28207-.00058-.20191z" fill="#fff"/></g><g><g><path d="m22.46448 23.98498-.00176.62124 2.69841 1.55792.00176-.62123z" fill="#3498db"/></g><g><path d="m17.69378 21.23062-.00177.62123 2.69842 1.55793.00176-.62124z" fill="#3498db"/></g><g><path d="m12.92307 18.47625-.00176.62123 2.69841 1.55793.00177-.62123z" fill="#3498db"/></g></g><g><g><path d="m30.31351 17.71859-.00176.62123 2.69841 1.55793.00176-.62123z" fill="#3498db"/></g><g><path d="m25.54281 14.96422-.00176.62124 2.69841 1.55793.00176-.62124z" fill="#3498db"/></g><g><path d="m20.7721 12.20986-.00176.62123 2.69841 1.55793.00177-.62123z" fill="#3498db"/></g></g></g><g><path d="m41.8364 20.61727-3.72934 2.15146v.32566l.00434 1.30325 3.74181 1.89244z" fill="#3f434f"/><path d="m38.1114 24.39764.01246 3.74556v.31514l3.72935-2.16826z" fill="#525566"/></g><g><path d="m33.22573 31.26947-3.74167-1.89237.01246 3.74541v.31515z" fill="#525566"/><path d="m33.22586 31.2694-.0168-5.67281-3.72934 2.15146v.32566l.00434 1.30339 3.74167 1.89237z" fill="#3f434f"/></g><g><path d="m24.13931 30.83595-3.72934 2.15146v.32565l.00431 1.29636 3.7418 1.89242z" fill="#3f434f"/><path d="m20.41428 34.60942.01248 3.75245v.31515l3.72934-2.16827-.00002-.00691z" fill="#525566"/></g></g><g><path d="m29.16166 39.37216-3.93932 2.28027-4.80806-2.77593 3.93932-2.28028z" fill="#f1c40f"/></g><g><path d="m38.23142 34.1328-3.93932 2.28027-4.80806-2.77593 3.93933-2.28028z" fill="#f1c40f"/></g><g><path d="m47.30119 28.89344-3.93932 2.28028-4.80806-2.77594 3.93932-2.28027z" fill="#f1c40f"/></g></g><g><g><g><path d="m9.01098 27.87985.24666.14241-.00872 2.08032-.24743.1237z" fill="#ecf0f1"/><path d="m9.24892 30.10258v.00002l2.66494 1.5386-.00075.26611-2.91162-1.68101v-.00002z" fill="#fff"/></g><path d="m9.25764 28.02226 2.66494 1.53861-.00872 2.08033-2.66494-1.5386z" fill="#3498db"/><g><g><path d="m4.21153 25.10889.24666.14241-.00873 2.08032-.24742.12372z" fill="#ecf0f1"/><path d="m4.44946 27.33162 2.66494 1.5386-.00076.26613-2.9116-1.68101z" fill="#fff"/></g><path d="m4.45819 25.2513 2.66494 1.53859-.00873 2.08033-2.66494-1.5386z" fill="#3498db"/></g><g><g><path d="m13.81044 30.65081.24666.14241-.00873 2.08032-.24741.12372z" fill="#ecf0f1"/><path d="m14.04837 32.87354 2.66494 1.5386-.00076.26614-2.91159-1.68102z" fill="#fff"/></g><path d="m14.0571 30.79322 2.66494 1.5386-.00873 2.08032-2.66494-1.5386z" fill="#3498db"/></g></g><g><g><path d="m9.01098 32.07987.24666.1424-.00872 2.08033-.24743.1237z" fill="#ecf0f1"/><path d="m9.24892 34.3026v.00001l2.66494 1.5386-.00075.26612-2.91162-1.68102v-.00001z" fill="#fff"/></g><path d="m9.25764 32.22227 2.66494 1.53862-.00872 2.08032-2.66494-1.5386z" fill="#3498db"/><g><g><path d="m4.21153 29.30891.24666.1424-.00873 2.08033-.24742.12371z" fill="#ecf0f1"/><path d="m4.44946 31.53164 2.66494 1.5386-.00076.26613-2.9116-1.68102z" fill="#fff"/></g><path d="m4.45819 29.45131 2.66494 1.5386-.00873 2.08033-2.66494-1.5386z" fill="#3498db"/></g><g><g><path d="m13.81044 34.85083.24666.1424-.00873 2.08033-.24741.12371z" fill="#ecf0f1"/><path d="m14.04837 37.07356 2.66494 1.5386-.00076.26613-2.91159-1.68102z" fill="#fff"/></g><path d="m14.0571 34.99323 2.66494 1.5386-.00873 2.08033-2.66494-1.5386z" fill="#3498db"/></g></g></g><g><g><g><path d="m20.6733 34.70455.00462 1.4597 1.63285.94891-.00462-1.4597z" fill="#d6b218"/></g><g><path d="m22.30615 35.65346.00462 1.4597 1.33027-.76803-.00462-1.4597z" fill="#e5bd13"/></g><g><path d="m20.67299 34.70547 1.63316.94888.58111-.33644.16823-.09515.00339-.00169.57771-.33474-1.63317-.94889-.58111.33474-.0017.0017-.16651.09515z" fill="#f1c40f"/></g><g><path d="m21.2541 34.36903 1.63316.94888.16823-.09515.00339-.00169-1.63657-.94889-.0017.0017z" fill="#e74c3c"/></g><g><path d="m22.88726 35.31791.00157.24108.09408-.12048.07597.02336-.00157-.24107z" fill="#d8463f"/></g><g><g><g><path d="m22.01185 36.46939-.04579.08712.02836.01637.06257.03586z" fill="#3f434f"/></g></g><g><g><path d="m21.99442 36.57288-.00049.17234.03422.01976.00049-.17234z" fill="#3f434f"/></g></g><g><g><path d="m21.82445 36.66275-.0001.03689.23622.13639.00011-.03689z" fill="#3f434f"/></g></g><g><g><path d="m21.57338 36.21624-.00035.1228c-.00011.03878.0223.08381.05204.10665l-.00031.11068c-.02086-.00962-.03659-.00872-.03663.00286l.0921.05317c.00003-.01158-.01564-.03061-.03649-.04507l.00031-.11068c.0136.00542.02534.00411.03451-.00166.01082-.00805.01791-.02311.01797-.04465l.00035-.1228z" fill="#3f434f"/></g></g><g><g><path d="m21.85756 36.49386-.00049.17235.03421.01975.0005-.17234z" fill="#3f434f"/></g></g><g><g><path d="m21.87475 36.39024-.04555.08725.02836.01637.06234.03573z" fill="#3f434f"/></g></g></g></g><g><g><path d="m24.9916 35.04405v.30648l.46111-.26822v-.30685z" fill="#ecf0f1"/></g><g><g><g><path d="m24.9916 35.18946v.01436l.46111-.26621v-.0146z" fill="#a4a9b3"/></g></g><g><g><path d="m24.9916 35.24311v.01529l.46111-.2662v-.01589z" fill="#3f434f"/></g></g><g><g><path d="m24.9916 35.29665v.01595l.46111-.26586v-.01596z" fill="#a4a9b3"/></g></g><g><g><path d="m24.9916 35.13421v.01579l.46111-.26645v-.01521z" fill="#a4a9b3"/></g></g><g><g><path d="m24.9916 35.08001v.01512l.46111-.26622v-.0151z" fill="#a4a9b3"/></g></g></g></g><g><g><path d="m22.51155 36.5155v.35917l.54038-.31434v-.3596z" fill="#ecf0f1"/></g><g><g><g><path d="m22.51155 36.68591v.01682l.54038-.31197v-.01711z" fill="#a4a9b3"/></g></g><g><g><path d="m22.51155 36.74879v.01791l.54038-.31197v-.01861z" fill="#3f434f"/></g></g><g><g><path d="m22.51155 36.81152v.0187l.54038-.31157v-.0187z" fill="#a4a9b3"/></g></g><g><g><path d="m22.51155 36.62116v.0185l.54038-.31226v-.01781z" fill="#a4a9b3"/></g></g><g><g><path d="m22.51155 36.55764v.01772l.54038-.31199v-.0177z" fill="#a4a9b3"/></g></g></g></g></g></g></svg>