<svg id="Layer_1" enable-background="new 0 0 50 50" height="512" viewBox="0 0 50 50" width="512" xmlns="http://www.w3.org/2000/svg"><g><g><path d="m40.33365 20.46879-15.31263 8.89872-15.41261-8.89847 15.31263-8.89873z" fill="#bf9960"/></g><g><g enable-background="new"><g><path d="m40.07149 20.62055-.03398 11.98787-15.14971-8.74669.03398-11.98786z" fill="#fecd82"/></g><g><path d="m24.92178 11.87387-.03398 11.98786-15.05122 8.74681.03399-11.98787z" fill="#d9ae6d"/></g><g><path d="m25.02177 29.67106-.03399 15.73841-15.6755-9.05026.03398-15.7384z" fill="#fecd82"/></g><g><g><path d="m21.44827 40.52401c.01676.08566.02691.1708.0267.24771-.00085.30131-.11679.53947-.35335.66342-.10881.05551-.17059.18382-.17107.35611l.16224.09367c.02641.01525.05087.05434.05077.08904-.0001.03363-.02469.04435-.0511.0291l-.43012-.24833c-.02924-.01688-.05369-.05592-.0536-.08955.0001-.03469.02469-.04547.05393-.02859l.16224.09367c.0005-.17559-.06318-.37627-.17038-.55649-.29338-.49181-.40074-.94895-.32326-1.28312z" fill="#56707b"/></g><g><path d="m22.31223 40.70906 1.99781 1.15344-.00651 2.29564-1.99781-1.15344zm1.89541 3.28298.00588-2.07348-1.80445-1.0418-.00588 2.07348z" fill="#56707b"/></g><g><path d="m23.31608 41.54372c.01886.01089.03485.03967.03478.06137l-.00007.02599c.33668.21717.60661.64879.69691 1.1243-.02245-.07917-.07045-.14487-.12233-.17588-.05471-.03159-.10103-.02034-.12479.02561-.02435-.07373-.06763-.13783-.12234-.17047-.05471-.03159-.09915-.01925-.1229.02782-.02435-.07484-.06952-.14003-.12423-.17162-.03604-.02086-.06405-.0229-.08596-.00727l-.00695.78419c-.00137.1527-.11116.21589-.24619.13793-.13567-.07939-.24566-.27212-.24429-.42546l.00119-.08619c.00007-.02382.0171-.03354.03785-.02155.01886.01201.03579.04022.03477.06461l-.00025.08668c-.00125.10677.07584.2414.17017.29697.09433.05446.17193.01068.17317-.09657l.00695-.78413c-.02255-.04235-.05364-.07444-.08571-.09296-.05505-.03178-.10042-.02022-.12384.02621-.0253-.07539-.07046-.14051-.12329-.17101-.05376-.03104-.10009-.0198-.12385.03051-.02245-.07811-.06857-.14272-.12233-.17482-.05471-.03159-.10104-.02034-.1248.03108.09741-.36719.37455-.47966.70945-.30044l.00008-.02711c.00101-.0211.0171-.03031.0388-.01779z" fill="#56707b"/></g><g><path d="m19.10281 40.69083-.00038.13443-1.22812-.70905.00038-.13443z" fill="#56707b"/></g><g><path d="m19.10355 40.42963-.00038.13437-1.22812-.70906.00038-.13437.19054.11001.15658.0904.53294.3077.15658.0904z" fill="#56707b"/></g><g><path d="m18.83729 39.03394.29762.66359-.22072-.12744-.00212.74899-.15658-.0904.00212-.74899-.21883-.12634z" fill="#56707b"/></g><g><path d="m17.49504 37.92785 1.99687 1.15289-.00651 2.29564-1.99687-1.15289zm1.89446 3.28243.00588-2.07347-1.80444-1.0418-.00588 2.07348z" fill="#56707b"/></g><g><path d="m18.14778 38.63585.29761.66358-.22072-.12743-.00212.74898-.15658-.0904.00212-.74898-.21883-.12635z" fill="#56707b"/></g><g><path d="m19.90316 39.31818 1.99781 1.15344-.00651 2.29564-1.99781-1.15343zm1.8954 3.28298.00588-2.07347-1.80444-1.0418-.00588 2.07348z" fill="#56707b"/></g></g><g><path d="m40.59554 20.62057-.03398 15.7384-15.57378 9.0505.03399-15.73841z" fill="#d9ae6d"/></g><g><g><path d="m33.58739 30.1005-.00469.99868-6.88666 4.08784-.67268.3993.0047-.99867z" fill="#bf9960"/></g><g><path d="m33.58739 28.29394-.00469.99867-6.88666 4.08785-.67268.39929.0047-.99868z" fill="#bf9960"/></g><g><path d="m33.58739 26.48737-.00469.99867-6.88666 4.08785-.67268.39929.0047-.99867z" fill="#bf9960"/></g><g><path d="m31.2285 33.30742-5.20044 3.08691-.00469.99856.67267-.39917 4.53246-2.69044z" fill="#bf9960"/></g></g><g><path d="m24.92004 11.57031 15.6755 9.05026-15.57378 9.05049-15.6755-9.05026zm.10024 17.79705 15.05121-8.74681-15.14971-8.74669-15.05121 8.74681z" fill="#ffd69a"/></g></g></g><g><g enable-background="new"><g><path d="m1 13.74786 8.62356 7.12653.05253-.25928-8.62356-7.12653z" fill="#d9ae6d"/></g><g><path d="m1.05253 13.48858 8.62356 7.12653 15.41261-8.89847-8.62357-7.12653z" fill="#ffd69a"/></g></g></g><g><g enable-background="new"><g><path d="m48.74023 13.74786-8.62356 7.12653-.05253-.25928 8.62357-7.12653z" fill="#d9ae6d"/></g><g><path d="m48.68771 13.48858-8.62357 7.12653-15.4126-8.89847 8.62356-7.12653z" fill="#ffd69a"/></g></g></g><g><g enable-background="new"><g><path d="m25.11496 29.64892-8.62356 7.12653-.05253-.25928 8.62357-7.12653z" fill="#d9ae6d"/></g><g><path d="m25.06244 29.38964-8.62357 7.12653-15.41261-8.89847 8.62357-7.12654z" fill="#ffd69a"/></g></g></g><g><g enable-background="new"><g><path d="m24.9113 29.65909 8.62357 7.12653.05252-.25928-8.62356-7.12653z" fill="#fecd82"/></g><g><path d="m24.96383 29.39981 8.62356 7.12653 15.41261-8.89847-8.62357-7.12654z" fill="#ffd69a"/></g></g></g><g fill="#bf9960"><path d="m33.58739 36.52634 15.41261-8.89847v.30609l-15.46513 8.85166z"/><path d="m1.02626 27.6177.07661.36905 15.38853 8.7887-.05253-.25928z"/></g></g></svg>