<svg id="Layer_1" enable-background="new 0 0 52 52" height="512" viewBox="0 0 52 52" width="512" xmlns="http://www.w3.org/2000/svg"><g><g><path d="m49.77599 22.72692c-.01729-.01296-.04319-.00864-.07341.00432l-.58713.34105-.15109-.08635.58714-.34105c.0259-.01729.05613-.01729.07338-.00864z" fill="#3f434f"/><path d="m48.36858 23.50401c-.05613.03022-.10361.10793-.10361.17699l.00862 2.46081c0 .03455.01296.05613.03022.06909l-.15109-.08635c-.02158-.01296-.03022-.03455-.03022-.06909l-.00864-2.46078c0-.06909.04751-.1468.10361-.18134l.59148-.34105.15109.09067z" fill="#3f434f"/><path d="m48.9605 23.16133-.15214-.08841-.00412-1.45379.15214.08841z" fill="#474b59"/><path d="m48.7864 21.5805.15214.08842c.01094.00635.01778.01974.01784.03862l-.15214-.08841c-.00006-.01888-.0069-.03227-.01784-.03863z" fill="#474b59"/><path d="m48.89503 21.4955c.11852-.06843.21532-.0101.2157.12292l.00412 1.45379.58711-.33897c.05788-.03342.10489-.00981.10509.05988l.00698 2.46099c.00019.06651-.04652.14742-.1044.18084l-1.33133.76864c-.05788.03342-.1049.00663-.10509-.05989l-.00698-2.46099c-.0002-.06968.04652-.14741.1044-.18083l.58987-.34056-.00412-1.45379c-.00011-.03801-.02776-.05377-.06084-.03467l-1.06121.61269-.0005-.17737z" fill="#5b5e71"/><path d="m47.83433 22.28556-.15214-.08841-.0005-.17737.15214.08841z" fill="#e63044"/><path d="m49.02048 21.4706c-.03454-.00862-.07771 0-.12521.0259l-1.06202.61306-.15112-.09067 1.06204-.61304c.05613-.03454.11225-.03454.15109-.01296z" fill="#474b59"/></g><g><g><g><g enable-background="new"><path d="m37.31314 39.37724c0 .89449-.32204 1.52655-.83487 1.82471l-3.36327 1.95596c.51283-.29816.83487-.9303.83487-1.83672.01194-1.80084-1.26421-4.00728-2.83851-4.9137-.78712-.45321-1.51469-.50089-2.02752-.20273l3.36328-1.94402c.51283-.3101 1.22846-.26235 2.02752.19086 1.5743.90635 2.8385 3.11279 2.8385 4.92564z" fill="#363a44"/></g></g><g><g enable-background="new"><path d="m13.62913 25.59888c0 .89449-.32204 1.52655-.83487 1.82471l-3.36328 1.95596c.51283-.29816.83487-.9303.83487-1.83672.01194-1.80084-1.2642-4.00728-2.83851-4.9137-.78712-.45321-1.51469-.50089-2.02752-.20273l3.36328-1.94402c.51283-.3101 1.22846-.26235 2.02752.19086 1.57431.90634 2.83851 3.11279 2.83851 4.92564z" fill="#363a44"/></g></g><g><g><g enable-background="new"><g><path d="m48.49543 33.57653-.00996 1.99229-11.71073 6.80553.00996-1.99229z" fill="#464957"/></g><g><g enable-background="new"><path d="m20.94244 29.80788c0 .89449-.32204 1.52655-.83487 1.82471l-3.36328 1.95596c.51283-.29816.83487-.9303.83487-1.83673.01194-1.80084-1.2642-4.00728-2.83851-4.91371-.78712-.45321-1.51469-.50089-2.02752-.20273l3.36328-1.94402c.51283-.3101 1.22846-.26235 2.02752.19086 1.57431.90637 2.83851 3.11281 2.83851 4.92566z" fill="#363a44"/></g></g><g><path d="m36.7847 40.38206-.00996 1.99229-34.77474-20.07721.00996-1.99228z" fill="#525566"/></g><g><path d="m48.49543 33.57653-11.71073 6.80553-34.77474-20.0772 11.71073-6.80553z" fill="#5b5e71"/></g></g></g><g><g enable-background="new"><g><path d="m48.49543 28.72593-.00996 5.06109-11.71073 6.80553.00996-5.06109z" fill="#464957"/></g><g><path d="m36.7847 35.53146-.00996 5.06109-34.77474-20.07721.00996-5.06108z" fill="#d4d6d6"/></g><g><path d="m48.49543 28.72593-11.71073 6.80553-34.77474-20.0772 11.71073-6.80553z" fill="#ecf0f1"/><g><g><path d="m2.52982 15.45349 4.187 2.41737 7.00428-4.07042v-4.85059z" fill="#e0e2e2"/><path d="m13.7211 8.94985v4.85059l30.0675 17.35944 4.187-2.43322z" fill="#d4d6d6"/></g><path d="m43.7886 31.15988-30.0675-17.35944-7.00428 4.07042 30.06742 17.35952z" fill="#c4c6c6"/></g></g></g></g><g><g><g><path d="m23.36684 15.25679v5.00182l-4.56199 2.69134.02925-5.05902z" fill="#a87648"/></g><path d="m18.8341 17.89093-.02925 5.05902-9.59433-5.53929.02925-5.05902z" fill="#b27e4b"/><g><g><path d="m9.82868 13.50007-.18809-.10859-.02669 3.4353.18967-.09538z" fill="#a87648"/><path d="m9.80357 16.7314-.18967.09538v.00004l8.79041 5.07497.00158-.204z" fill="#bc874d"/><path d="m9.82868 13.50007-.02511 3.23133 8.60232 4.96639.02483-3.23133z" fill="#9e6e46"/><path d="m17.93401 19.06074-.01834 1.8415-2.81262-1.62163.01834-1.84149z" fill="#ecf0f1"/></g></g><g><g><path d="m22.72935 16.42495.1881-.10859.02669 3.4353-.18968-.09538z" fill="#b27e4b"/><path d="m22.75446 19.65628.18968.09538v.00004l-3.69018 2.13035-.00158-.204z" fill="#bc874d"/><path d="m22.72935 16.42495.02511 3.23133-3.50208 2.02177-.02483-3.23133z" fill="#9e6e46"/></g></g><path d="m23.36684 15.25679-4.53274 2.63414-9.59433-5.53929 4.53275-2.63414z" fill="#bc874d"/><g><path d="m13.77296 10.18297v.21517l3.32733 1.92172.18577-.10796z" fill="#9e6e46"/><path d="m10.04341 12.35046.18574.10722 3.54381-2.05954v-.21517z" fill="#a87648"/><path d="m17.10029 12.31986-3.32733-1.92172-3.54381 2.05954 3.32708 1.92172z" fill="#b27e4b"/></g><g><path d="m17.81096 12.51352v.21517l4.25952 2.45827.18577-.10796z" fill="#9e6e46"/><path d="m14.08141 14.68102.18574.10721 3.54381-2.05954v-.21517z" fill="#a87648"/><path d="m22.07048 15.18696-4.25952-2.45827-3.54381 2.05954 4.25927 2.45827z" fill="#b27e4b"/></g></g><g><g><g><g><g><path d="m12.51162 16.56757-.14925.28403.09243.05337.20397.1169z" fill="#3f434f"/></g></g></g><g><g><g><path d="m12.4548 16.90497-.00159.56188.11153.0644.00159-.56188z" fill="#3f434f"/></g></g></g><g><g><g><path d="m11.90076 17.19796-.00034.12028.77002.44464.00034-.12028z" fill="#3f434f"/></g></g></g><g><g><g><path d="m10.49355 15.4359-.00113.40033c-.00036.12642.07268.27324.16965.3477l-.00102.36083c-.06801-.03136-.11929-.02843-.11939.00932l.30022.17336c.00011-.03775-.05098-.09979-.11895-.14695l.00102-.36083c.04433.01768.0826.0134.11249-.00539.03527-.02624.05837-.07534.05856-.14557l.00113-.40033z" fill="#3f434f"/></g></g></g><g><g><g><path d="m12.00867 16.64736-.00159.56188.11154.0644.00159-.56188z" fill="#3f434f"/></g></g></g><g><g><g><path d="m12.06472 16.30951-.14848.28448.09243.05337.20321.11646z" fill="#3f434f"/></g></g></g></g><g><g><g><g><path d="m11.28212 17.12041c-.01367 0-.02843-.00432-.04283-.0126l-1.04437-.60289c-.04463-.02592-.08097-.09034-.08097-.14289l.0036-1.20218c0-.03023.01188-.05435.03239-.06623.02051-.01152.04606-.00972.07126.00468l1.04437.60289c.04606.02699.08349.09142.08277.14397l-.00324 1.20218c0 .02987-.01224.05363-.03311.06515-.00899.00541-.01907.00792-.02987.00792zm-1.10267-1.99043c-.00288 0-.0054.00072-.00756.0018-.00648.00396-.01044.0144-.01044.02808l-.0036 1.20218c0 .03743.02771.08638.05938.10474l1.04437.60289c.01188.00684.02195.00756.02879.00468.00648-.00396.01044-.01368.0108-.02699l.00324-1.20218c0-.03671-.02879-.0871-.06118-.10582l-1.04437-.60289c-.00719-.00433-.01403-.00649-.01943-.00649z" fill="#3f434f"/></g></g></g><g><g><g><path d="m12.83645 18.01773c-.01367 0-.02843-.00396-.04247-.01224l-1.04437-.60289c-.0457-.02627-.08133-.08926-.08133-.14289l.0036-1.20254c0-.02987.01152-.05399.03239-.06587.02087-.01224.04607-.01044.07126.00432l1.04437.60325c.04606.02628.08349.09106.08277.14397l-.00324 1.20218c0 .02915-.01152.05291-.03203.06479-.00936.0054-.01979.00792-.03095.00792zm-1.10232-1.99008c-.00288 0-.00576.00072-.00792.0018-.00648.00396-.01044.01404-.01044.02771l-.0036 1.20254c0 .03743.02807.08638.05974.10474l1.04401.60289c.01152.00648.02231.00756.02915.00432.00648-.00396.01044-.01368.01044-.02663l.00324-1.20218c0-.03707-.02879-.0871-.06118-.10582l-1.04437-.60325c-.00719-.00396-.01367-.00612-.01907-.00612z" fill="#3f434f"/></g></g></g></g></g></g><g><g><g><path d="m18.65212 18.03822v5.00183l-4.562 2.69133.02925-5.05901z" fill="#a87648"/></g><path d="m14.11937 20.67237-.02925 5.05901-9.59433-5.53928.02925-5.05902z" fill="#b27e4b"/><g><g><path d="m5.11396 16.2815-.1881-.10858-.02669 3.4353.18968-.09538z" fill="#a87648"/><path d="m5.08885 19.51284-.18968.09538v.00003l8.79041 5.07498.00158-.20401z" fill="#bc874d"/><path d="m5.11396 16.2815-.02511 3.23134 8.60231 4.96638.02483-3.23133z" fill="#9e6e46"/><path d="m13.21929 21.84218-.01834 1.84149-2.81263-1.62162.01835-1.84149z" fill="#ecf0f1"/></g></g><g><g><path d="m18.01463 19.20639.18809-.10859.02669 3.4353-.18967-.09538z" fill="#b27e4b"/><path d="m18.03974 22.43772.18967.09538v.00003l-3.69017 2.13036-.00159-.20401z" fill="#bc874d"/><path d="m18.01463 19.20639.02511 3.23133-3.50209 2.02176-.02482-3.23133z" fill="#9e6e46"/></g></g><path d="m18.65212 18.03822-4.53275 2.63415-9.59433-5.53929 4.53275-2.63415z" fill="#bc874d"/><g><path d="m9.05824 12.96441v.21516l3.32732 1.92172.18578-.10795z" fill="#9e6e46"/><path d="m5.32868 15.1319.18574.10722 3.54382-2.05955v-.21516z" fill="#a87648"/><path d="m12.38556 15.10129-3.32732-1.92172-3.54382 2.05955 3.32708 1.92172z" fill="#b27e4b"/></g><g><path d="m13.09624 15.29496v.21517l4.25951 2.45826.18577-.10795z" fill="#9e6e46"/><path d="m9.36668 17.46245.18574.10722 3.54382-2.05954v-.21517z" fill="#a87648"/><path d="m17.35575 17.96839-4.25951-2.45826-3.54382 2.05954 4.25927 2.45827z" fill="#b27e4b"/></g></g><g><g><g><g><g><path d="m12.51162 16.56757-.14925.28403.09243.05337.20397.1169z" fill="#3f434f"/></g></g></g><g><g><g><path d="m12.4548 16.90497-.00159.56188.11153.0644.00159-.56188z" fill="#3f434f"/></g></g></g><g><g><g><path d="m11.90076 17.19796-.00034.12028.77002.44464.00034-.12028z" fill="#3f434f"/></g></g></g><g><g><g><path d="m10.49355 15.4359-.00113.40033c-.00036.12642.07268.27324.16965.3477l-.00102.36083c-.06801-.03136-.11929-.02843-.11939.00932l.30022.17336c.00011-.03775-.05098-.09979-.11895-.14695l.00102-.36083c.04433.01768.0826.0134.11249-.00539.03527-.02624.05837-.07534.05856-.14557l.00113-.40033z" fill="#3f434f"/></g></g></g><g><g><g><path d="m12.00867 16.64736-.00159.56188.11154.0644.00159-.56188z" fill="#3f434f"/></g></g></g><g><g><g><path d="m12.06472 16.30951-.14848.28448.09243.05337.20321.11646z" fill="#3f434f"/></g></g></g></g><g><g><g><g><path d="m11.28212 17.12041c-.01367 0-.02843-.00432-.04283-.0126l-1.04437-.60289c-.04463-.02592-.08097-.09034-.08097-.14289l.0036-1.20218c0-.03023.01188-.05435.03239-.06623.02051-.01152.04606-.00972.07126.00468l1.04437.60289c.04606.02699.08349.09142.08277.14397l-.00324 1.20218c0 .02987-.01224.05363-.03311.06515-.00899.00541-.01907.00792-.02987.00792zm-1.10267-1.99043c-.00288 0-.0054.00072-.00756.0018-.00648.00396-.01044.0144-.01044.02808l-.0036 1.20218c0 .03743.02771.08638.05938.10474l1.04437.60289c.01188.00684.02195.00756.02879.00468.00648-.00396.01044-.01368.0108-.02699l.00324-1.20218c0-.03671-.02879-.0871-.06118-.10582l-1.04437-.60289c-.00719-.00433-.01403-.00649-.01943-.00649z" fill="#3f434f"/></g></g></g><g><g><g><path d="m12.83645 18.01773c-.01367 0-.02843-.00396-.04247-.01224l-1.04437-.60289c-.0457-.02627-.08133-.08926-.08133-.14289l.0036-1.20254c0-.02987.01152-.05399.03239-.06587.02087-.01224.04607-.01044.07126.00432l1.04437.60325c.04606.02628.08349.09106.08277.14397l-.00324 1.20218c0 .02915-.01152.05291-.03203.06479-.00936.0054-.01979.00792-.03095.00792zm-1.10232-1.99008c-.00288 0-.00576.00072-.00792.0018-.00648.00396-.01044.01404-.01044.02771l-.0036 1.20254c0 .03743.02807.08638.05974.10474l1.04401.60289c.01152.00648.02231.00756.02915.00432.00648-.00396.01044-.01368.01044-.02663l.00324-1.20218c0-.03707-.02879-.0871-.06118-.10582l-1.04437-.60325c-.00719-.00396-.01367-.00612-.01907-.00612z" fill="#3f434f"/></g></g></g></g></g></g><g><g><g><path d="m33.11543 20.8825v5.00183l-4.56201 2.69133.02926-5.05902z" fill="#a87648"/></g><path d="m28.58268 23.51664-.02926 5.05902-9.59432-5.53929.02925-5.05902z" fill="#b27e4b"/><g><g><path d="m19.57726 19.12578-.18809-.10859-.02669 3.4353.18967-.09538z" fill="#a87648"/><path d="m19.55215 22.35711-.18967.09538v.00004l8.79041 5.07497.00158-.204z" fill="#bc874d"/><path d="m19.57726 19.12578-.02511 3.23133 8.60232 4.96639.02483-3.23133z" fill="#9e6e46"/><path d="m27.68259 24.68645-.01834 1.8415-2.81262-1.62163.01834-1.84149z" fill="#ecf0f1"/></g></g><g><g><path d="m32.47793 22.05066.1881-.10858.02668 3.43529-.18967-.09538z" fill="#b27e4b"/><path d="m32.50304 25.28199.18967.09538v.00004l-3.69017 2.13035-.00158-.204z" fill="#bc874d"/><path d="m32.47793 22.05066.02511 3.23133-3.50208 2.02177-.02483-3.23133z" fill="#9e6e46"/></g></g><path d="m33.11543 20.8825-4.53275 2.63414-9.59433-5.53929 4.53275-2.63414z" fill="#bc874d"/><g><path d="m23.52154 15.80868v.21517l3.32733 1.92172.18577-.10796z" fill="#9e6e46"/><path d="m19.79199 17.97618.18574.10721 3.54381-2.05954v-.21517z" fill="#a87648"/><path d="m26.84887 17.94557-3.32733-1.92172-3.54381 2.05954 3.32708 1.92172z" fill="#b27e4b"/></g><g><path d="m27.55954 18.13923v.21517l4.25952 2.45827.18577-.10795z" fill="#9e6e46"/><path d="m23.82999 20.30673.18574.10721 3.54381-2.05954v-.21517z" fill="#a87648"/><path d="m31.81906 20.81267-4.25952-2.45827-3.54381 2.05954 4.25927 2.45827z" fill="#b27e4b"/></g></g><g><g><g><g><g><path d="m22.2602 22.19328-.14925.28403.09243.05337.20397.1169z" fill="#3f434f"/></g></g></g><g><g><g><path d="m22.20338 22.53068-.00159.56188.11153.0644.00159-.56187z" fill="#3f434f"/></g></g></g><g><g><g><path d="m21.64934 22.82368-.00034.12027.77002.44464.00034-.12027z" fill="#3f434f"/></g></g></g><g><g><g><path d="m20.24213 21.06161-.00113.40033c-.00036.12642.07268.27324.16965.3477l-.00102.36083c-.06801-.03136-.11929-.02843-.1194.00932l.30022.17336c.00011-.03775-.05098-.09979-.11895-.14695l.00102-.36083c.04433.01768.0826.0134.1125-.00539.03527-.02624.05836-.07534.05857-.14557l.00113-.40034z" fill="#3f434f"/></g></g></g><g><g><g><path d="m21.75725 22.27307-.00159.56188.11154.0644.00159-.56187z" fill="#3f434f"/></g></g></g><g><g><g><path d="m21.8133 21.93523-.14848.28447.09243.05337.20321.11646z" fill="#3f434f"/></g></g></g></g><g><g><g><g><path d="m21.0307 22.74613c-.01368 0-.02843-.00432-.04283-.0126l-1.04437-.60289c-.04463-.02592-.08097-.09034-.08097-.14289l.0036-1.20218c0-.03024.01188-.05435.03239-.06623.02051-.01152.04607-.00972.07126.00468l1.04437.60289c.04606.02699.08349.09142.08277.14397l-.00324 1.20218c0 .02987-.01224.05363-.03311.06515-.00899.0054-.01907.00792-.02987.00792zm-1.10267-1.99044c-.00288 0-.0054.00072-.00756.0018-.00648.00396-.01044.0144-.01044.02808l-.0036 1.20218c0 .03743.02771.08638.05938.10474l1.04437.60289c.01188.00684.02195.00756.02879.00468.00648-.00396.01044-.01368.0108-.02699l.00324-1.20218c0-.03671-.02879-.0871-.06118-.10582l-1.04437-.60289c-.0072-.00433-.01403-.00649-.01943-.00649z" fill="#3f434f"/></g></g></g><g><g><g><path d="m22.58503 23.64344c-.01368 0-.02843-.00396-.04247-.01224l-1.04437-.60289c-.0457-.02627-.08133-.08926-.08133-.14289l.0036-1.20254c0-.02987.01152-.05399.03239-.06587.02087-.01224.04606-.01044.07126.00432l1.04437.60325c.04606.02628.08349.09106.08277.14397l-.00324 1.20218c0 .02915-.01151.05291-.03203.06479-.00936.0054-.0198.00792-.03095.00792zm-1.10232-1.99007c-.00288 0-.00576.00072-.00792.0018-.00648.00396-.01044.01404-.01044.02771l-.0036 1.20254c0 .03743.02807.08638.05974.10474l1.04401.60289c.01152.00648.02231.00756.02915.00432.00648-.00396.01044-.01368.01044-.02663l.00324-1.20218c0-.03707-.02879-.0871-.06118-.10582l-1.04437-.60325c-.00719-.00396-.01367-.00612-.01907-.00612z" fill="#3f434f"/></g></g></g></g></g></g><g><g><g><path d="m28.4007 23.66393v5.00183l-4.562 2.69134.02925-5.05902z" fill="#a87648"/></g><path d="m23.86795 26.29808-.02925 5.05902-9.59433-5.53929.02925-5.05902z" fill="#b27e4b"/><g><g><path d="m14.86253 21.90722-.18809-.10859-.02669 3.4353.18968-.09538z" fill="#a87648"/><path d="m14.83743 25.13855-.18968.09538v.00003l8.79041 5.07498.00158-.20401z" fill="#bc874d"/><path d="m14.86253 21.90722-.0251 3.23133 8.60231 4.96638.02483-3.23133z" fill="#9e6e46"/><path d="m22.96787 27.46789-.01835 1.84149-2.81262-1.62162.01834-1.84149z" fill="#ecf0f1"/></g></g><g><g><path d="m27.76321 24.8321.18809-.10859.02669 3.4353-.18967-.09538z" fill="#b27e4b"/><path d="m27.78832 28.06343.18967.09538v.00004l-3.69017 2.13035-.00159-.204z" fill="#bc874d"/><path d="m27.76321 24.8321.02511 3.23133-3.50209 2.02177-.02482-3.23134z" fill="#9e6e46"/></g></g><path d="m28.4007 23.66393-4.53275 2.63415-9.59433-5.53929 4.53275-2.63414z" fill="#bc874d"/><g><path d="m18.80682 18.59012v.21517l3.32732 1.92172.18578-.10796z" fill="#9e6e46"/><path d="m15.07726 20.75761.18574.10722 3.54382-2.05954v-.21517z" fill="#a87648"/><path d="m22.13414 20.72701-3.32732-1.92172-3.54382 2.05954 3.32708 1.92172z" fill="#b27e4b"/></g><g><path d="m22.84481 20.92067v.21517l4.25952 2.45826.18577-.10795z" fill="#9e6e46"/><path d="m19.11526 23.08817.18574.10721 3.54381-2.05954v-.21517z" fill="#a87648"/><path d="m27.10433 23.5941-4.25952-2.45826-3.54381 2.05954 4.25927 2.45827z" fill="#b27e4b"/></g></g><g><g><g><g><g><path d="m22.2602 22.19328-.14925.28403.09243.05337.20397.1169z" fill="#3f434f"/></g></g></g><g><g><g><path d="m22.20338 22.53068-.00159.56188.11153.0644.00159-.56187z" fill="#3f434f"/></g></g></g><g><g><g><path d="m21.64934 22.82368-.00034.12027.77002.44464.00034-.12027z" fill="#3f434f"/></g></g></g><g><g><g><path d="m20.24213 21.06161-.00113.40033c-.00036.12642.07268.27324.16965.3477l-.00102.36083c-.06801-.03136-.11929-.02843-.1194.00932l.30022.17336c.00011-.03775-.05098-.09979-.11895-.14695l.00102-.36083c.04433.01768.0826.0134.1125-.00539.03527-.02624.05836-.07534.05857-.14557l.00113-.40034z" fill="#3f434f"/></g></g></g><g><g><g><path d="m21.75725 22.27307-.00159.56188.11154.0644.00159-.56187z" fill="#3f434f"/></g></g></g><g><g><g><path d="m21.8133 21.93523-.14848.28447.09243.05337.20321.11646z" fill="#3f434f"/></g></g></g></g><g><g><g><g><path d="m21.0307 22.74613c-.01368 0-.02843-.00432-.04283-.0126l-1.04437-.60289c-.04463-.02592-.08097-.09034-.08097-.14289l.0036-1.20218c0-.03024.01188-.05435.03239-.06623.02051-.01152.04607-.00972.07126.00468l1.04437.60289c.04606.02699.08349.09142.08277.14397l-.00324 1.20218c0 .02987-.01224.05363-.03311.06515-.00899.0054-.01907.00792-.02987.00792zm-1.10267-1.99044c-.00288 0-.0054.00072-.00756.0018-.00648.00396-.01044.0144-.01044.02808l-.0036 1.20218c0 .03743.02771.08638.05938.10474l1.04437.60289c.01188.00684.02195.00756.02879.00468.00648-.00396.01044-.01368.0108-.02699l.00324-1.20218c0-.03671-.02879-.0871-.06118-.10582l-1.04437-.60289c-.0072-.00433-.01403-.00649-.01943-.00649z" fill="#3f434f"/></g></g></g><g><g><g><path d="m22.58503 23.64344c-.01368 0-.02843-.00396-.04247-.01224l-1.04437-.60289c-.0457-.02627-.08133-.08926-.08133-.14289l.0036-1.20254c0-.02987.01152-.05399.03239-.06587.02087-.01224.04606-.01044.07126.00432l1.04437.60325c.04606.02628.08349.09106.08277.14397l-.00324 1.20218c0 .02915-.01151.05291-.03203.06479-.00936.0054-.0198.00792-.03095.00792zm-1.10232-1.99007c-.00288 0-.00576.00072-.00792.0018-.00648.00396-.01044.01404-.01044.02771l-.0036 1.20254c0 .03743.02807.08638.05974.10474l1.04401.60289c.01152.00648.02231.00756.02915.00432.00648-.00396.01044-.01368.01044-.02663l.00324-1.20218c0-.03707-.02879-.0871-.06118-.10582l-1.04437-.60325c-.00719-.00396-.01367-.00612-.01907-.00612z" fill="#3f434f"/></g></g></g></g></g></g><path d="m2.52982 15.45349 34.25442 19.77689.00046.30108-34.77474-20.0772z" fill="#ecf0f1"/><path d="m2.00996 15.45426 2.25527 5.84231 20.24095 11.72439 2.59815-3.24427z" fill="#d4d6d6"/><g><g enable-background="new"><path d="m49.99912 28.52629-.00608 2.32947-.00174.3865-.00434 1.73363c-.04082.90244-.17197 1.66328-.41256 2.24955-.03213.0773-.08077.13376-.14069.16938l-12.24313 7.11432c.05993-.03473.10857-.09119.14069-.1685.24059-.58627.37174-1.348.41256-2.25042l.00521-1.67023v-.08252l.00087-.39172.00695-2.30513z" fill="#f1c40f"/><path d="m38.88643 13.72185c-.19297-.11141-.36805-.1217-.49448-.04821l-12.24307 7.11489c.12642-.07347.30151-.0632.49448.04821l6.36837 3.67677 12.24305-7.11489z" fill="#f1c40f"/><g><path d="m49.99999 28.52629-12.24313 7.11433c.00085-.52895-.08775-1.10741-.26578-1.69889-.97712-3.25621-2.30428-6.25446-4.02054-8.96435-.12767-.20063-.28923-.36566-.4586-.4638l12.24313-7.1152c.16936.09815.33092.26318.4586.46467 1.71626 2.70903 3.04255 5.70813 4.02054 8.96348.17806.59149.26665 1.16995.26578 1.69976z" fill="#d6b218"/><path d="m49.19571 28.08941-2.17486 1.26375-2.03154 1.18037-1.72843 1.00491-4.85782 2.8228c-.04343-.2128-.09816-.4282-.1633-.64447-.35522-1.18384-.75651-2.33207-1.20206-3.44121-.79822-1.98725-1.73798-3.84855-2.81065-5.56395l3.95539-2.29906 6.93452-4.0301c.01652.02519.03215.05125.04865.07731.44384.71134.86423 1.44961 1.26027 2.21394.51072.98667.98147 2.01591 1.40966 3.08424.4256 1.0605.8095 2.15921 1.14996 3.29355.10599.35177.1772.70354.21021 1.03792z" fill="#3498db"/></g><g><path d="m33.01172 24.51352c.1697.09797.33142.26282.45915.46422 1.71588 2.70948 3.04268 5.70812 4.01994 8.96386.17829.5912.26719 1.16972.26569 1.69925l-.01262 4.44965c-.04089.90249-.17191 1.6636-.41298 2.25011-.09227.22246-.32017.27469-.57636.12678l-10.15587-5.8635c-.38319-.22123-.69383-.75864-.69259-1.19896l.04018-14.17158c.00125-.44031.31392-.61785.69711-.39661z" fill="#e5bd13"/></g></g></g><g><path d="m32.93762 31.97842-.4156-1.13732c-.08321-.22805-.24483-.43496-.42228-.53996l-3.90767-2.32247c-.15304-.09092-.2752-.30505-.27469-.48092l.01103-3.8933c-.03749-.01796-.07456-.03664-.11211-.05445-.14368-.06826-.25386.00789-.25435.17357l-.01139 4.02271c-.00051.17586.12165.39.27469.48091l3.90767 2.32248c.17744.105.33907.31191.42227.53995l.4156 1.13733c.08488.23154.24982.44101.43003.54507l1.74459 1.00723c.08817.0509.15552-.00339.13749-.11336-.01612-.09886-.03463-.19854-.05308-.29821l-1.46218-.84419c-.18022-.10404-.34514-.31352-.43002-.54507z" fill="#f1c40f"/><path d="m34.82982 33.36761-1.46176-.84423c-.12161-.07036-.23624-.18847-.32399-.32832-.04254-.06775-.07903-.14069-.10683-.21627l-.41515-1.1378c-.03476-.09467-.08253-.185-.13985-.26664-.0799-.11552-.17893-.21193-.28228-.2736l-.40735-.24233-2.84886-1.69194-.65141-.38738c-.15287-.09119-.27533-.30572-.27533-.48117l.01128-3.89372c.50724.24319 1.00579.49855 1.49652.77127.13028.0721.2597.14505.38911.21975.45947.26491.91111.54458 1.35408.84076.38911.2597.7539.65923 1.03357 1.12912.0278.04603.05473.0938.08079.14157.18151.33352.35435.66358.51852.99101.24839.49334.4777.97973.68615 1.46004.64101 1.47046 1.09526 2.87666 1.34279 4.20988z" fill="#3498db"/></g></g><path d="m34.80968 41.34507-7.31369-4.21239c.31873-1.33529 1.32661-1.94688 2.33449-1.94688.55134 0 1.1285.17225 1.71428.50812 1.82632 1.05967 3.26492 3.53202 3.26492 5.65115z" fill="#c6a51a"/><path d="m31.11259 36.40917c1.56861.90564 2.84371 3.11419 2.8386 4.91667-.00513 1.81119-1.28856 2.5426-2.85718 1.63696-1.57624-.91004-2.85133-3.11861-2.84619-4.9298.00511-1.80249 1.28853-2.53387 2.86477-1.62383z" fill="#525566"/><path d="m31.10002 37.2312c1.22005.7044 2.20158 2.39919 2.19763 3.79115-.00068 1.41151-.98525 1.97259-2.21196 1.26054-1.21347-.7006-2.18831-2.40058-2.18435-3.79875.00394-1.38673.98851-1.94781 2.19868-1.25294zm-.40913.22934c-.55748-.15014-.95304-.01982-1.2332.4061.32798.27713.63607.54277.95084.79699.01555.01247.03048.02277.04477.03102.11063.06387.18247.00377.19465-.14464.00703-.13713.00744-.2819.01116-.42094.01057-.21523.02115-.43426.03178-.66853m.8623 1.57013c.01016.20645.07698.34328.21622.42368.03295.01902.06995.03489.11122.04775.08626.03073.17252.05763.25547.08264.19908.0615.39817.11921.61053.18077-.27353-.74178-.67036-1.3334-1.21695-1.81306l-.01666.02472c.01559.35245.02788.70298.04017 1.0535m.87498 2.95502c.32275-.21815.4865-.58153.50798-1.13007-.28216-.0408-.54768-.09488-.80333-.11655-.10956-.00983-.15301.0872-.08709.26263.12197.32226.25057.64455.38244.98399m-2.33857-2.10955c.06341-.1084.02068-.26662-.11506-.41368-.22513-.24446-.45359-.48321-.70522-.75058.00842.5429.1464 1.07285.45029 1.64898.07998-.09884.14997-.18817.21996-.2775.05002-.07035.10664-.12924.15003-.20722m1.01165 1.9996c.21247.12267.42348.20046.63914.23564-.17175-.33192-.32692-.65048-.50539-.95576-.03285-.05692-.11092-.1265-.1724-.16199-.03128-.01806-.05825-.0273-.07282-.02156-.20614.08706-.39247.21606-.59872.33739.24386.24442.47791.43217.71019.56628m-.00354-2.66158c-.25529-.14739-.47151-.02036-.47234.27298-.00084.29716.21065.6673.46925.8166.00204.00121.00404.00239.00608.00356.25588.14773.46874.03165.47286-.26127.00743-.29499-.21397-.68071-.47021-.82865-.00188-.00108-.00376-.00216-.00564-.00322m.00483-.53144c-.07295-.03829-.13282-.00418-.13305.07582-.00024.08381.05925.18686.13219.22897s.12949.00988.13304-.07202c.00023-.08382-.05924-.19066-.13218-.23277m-.3601 1.68099c.00023-.0817-.05942-.18708-.12693-.22606-.00175-.00101-.0035-.00198-.00526-.00289-.07294-.04211-.13281-.008-.13304.072-.00024.08382.05925.18684.13219.22896.06962.0402.12948.00989.13304-.07201m1.15949-.17388c.07293.04211.1328.01179.13304-.07202.00345-.07984-.05612-.18517-.12669-.22592-.00183-.00106-.00366-.00207-.0055-.00303-.06964-.0402-.12951-.00609-.12973.07391-.00024.08382.05924.18686.12888.22706m-1.63453-.9437c.07294.04211.12949.00988.13304-.07202.00023-.0817-.05628-.18527-.1267-.22593-.00182-.00105-.00365-.00206-.00549-.00302-.06963-.0402-.1295-.00609-.12972.07392-.00024.08381.05593.18494.12887.22705m1.37021 1.63441c.00023-.0817-.05628-.18527-.1267-.22593-.00182-.00105-.00365-.00206-.00548-.00301-.06964-.0402-.12951-.0061-.12973.07391-.00024.08381.05593.18493.12888.22705.07293.04211.12948.00988.13303-.07202" fill="#ecf0f1"/><path d="m18.43898 31.77571-7.31369-4.21239c.31873-1.33529 1.32661-1.94688 2.33449-1.94688.55134 0 1.1285.17225 1.71427.50812 1.82633 1.05967 3.26493 3.53202 3.26493 5.65115z" fill="#c4c6c6"/><path d="m14.74189 26.83981c1.56862.90564 2.84371 3.11419 2.8386 4.91667-.00513 1.81119-1.28856 2.5426-2.85718 1.63696-1.57624-.91004-2.85133-3.11861-2.84619-4.9298.00511-1.80249 1.28853-2.53387 2.86477-1.62383z" fill="#525566"/><path d="m14.72932 27.66184c1.22005.7044 2.20158 2.39919 2.19763 3.79115-.00068 1.41151-.98526 1.97259-2.21196 1.26054-1.21347-.7006-2.18831-2.40058-2.18435-3.79875.00394-1.38673.98851-1.94781 2.19868-1.25294zm-.40913.22934c-.55748-.15014-.95304-.01982-1.2332.4061.32798.27713.63607.54277.95084.79699.01554.01247.03048.02277.04477.03102.11063.06387.18247.00377.19465-.14464.00703-.13713.00744-.2819.01116-.42093.01057-.21524.02115-.43427.03178-.66854m.8623 1.57013c.01016.20645.07698.34328.21622.42367.03295.01903.06995.03489.11122.04775.08626.03073.17252.05763.25547.08264.19908.0615.39817.11921.61053.18077-.27353-.74178-.67036-1.3334-1.21695-1.81306l-.01667.02472c.0156.35246.02789.70299.04018 1.05351m.87498 2.95501c.32274-.21814.4865-.58153.50798-1.13007-.28216-.04079-.54768-.09488-.80333-.11655-.10956-.00983-.15301.08719-.08709.26263.12197.32227.25057.64456.38244.98399m-2.33857-2.10954c.0634-.1084.02068-.26662-.11506-.41368-.22513-.24446-.45359-.48321-.70522-.75059.00842.5429.1464 1.07285.45029 1.64898.07998-.09884.14997-.18817.21997-.2775.05001-.07034.10663-.12924.15002-.20721m1.01165 1.9996c.21247.12267.42348.20047.63914.23564-.17175-.33192-.32692-.65048-.50539-.95576-.03285-.05692-.11092-.1265-.1724-.16199-.03128-.01806-.05825-.0273-.07282-.02156-.20614.08706-.39247.21606-.59872.3374.24386.24441.47791.43216.71019.56627m-.00354-2.66158c-.25529-.14739-.47151-.02036-.47234.27298-.00084.29716.21064.6673.46925.8166.00204.00121.00404.00239.00608.00356.25588.14773.46874.03165.47286-.26127.00743-.29499-.21397-.68071-.47021-.82865-.00188-.00108-.00376-.00216-.00564-.00322m.00483-.53144c-.07295-.03829-.13282-.00418-.13305.07582-.00024.08381.05925.18686.13219.22897s.12949.00988.13304-.07202c.00023-.08382-.05924-.19066-.13218-.23277m-.3601 1.68099c.00023-.0817-.05942-.18708-.12693-.22606-.00175-.00101-.0035-.00198-.00526-.00289-.07294-.04211-.13281-.008-.13304.072-.00024.08381.05925.18684.13219.22896.06962.0402.12948.00989.13304-.07201m1.15949-.17388c.07293.04211.1328.01179.13304-.07202.00346-.07984-.05611-.18517-.12669-.22592-.00183-.00106-.00367-.00208-.0055-.00303-.06963-.0402-.12951-.00609-.12973.07391-.00024.08382.05924.18686.12888.22706m-1.63453-.9437c.07294.04211.12949.00988.13304-.07202.00023-.0817-.05628-.18527-.1267-.22593-.00182-.00105-.00365-.00206-.00549-.00302-.06962-.0402-.1295-.00609-.12972.07392-.00024.08381.05593.18494.12887.22705m1.37021 1.63441c.00023-.0817-.05628-.18527-.1267-.22593-.00182-.00105-.00365-.00206-.00548-.00302-.06963-.0402-.12951-.00609-.12973.07391-.00024.08381.05593.18493.12888.22705.07293.04212.12948.00989.13303-.07201" fill="#ecf0f1"/><path d="m11.12567 27.56671-7.31369-4.21239c.31873-1.33529 1.32661-1.94688 2.33449-1.94688.55134 0 1.1285.17225 1.71427.50812 1.82633 1.05967 3.26493 3.53202 3.26493 5.65115z" fill="#c4c6c6"/><path d="m7.42858 22.6308c1.56861.90564 2.84371 3.11419 2.8386 4.91667-.00513 1.81119-1.28856 2.5426-2.85718 1.63696-1.57624-.91004-2.85133-3.11861-2.84619-4.9298.00511-1.80248 1.28853-2.53387 2.86477-1.62383z" fill="#525566"/><path d="m7.41601 23.45284c1.22005.7044 2.20158 2.39919 2.19764 3.79115-.00068 1.41151-.98526 1.97259-2.21196 1.26054-1.21347-.7006-2.18831-2.40058-2.18435-3.79875.00393-1.38674.98851-1.94781 2.19867-1.25294zm-.40913.22933c-.55748-.15014-.95304-.01982-1.2332.4061.32798.27713.63607.54277.95084.79699.01554.01247.03048.02277.04477.03102.11063.06387.18247.00377.19465-.14464.00703-.13713.00744-.2819.01116-.42094.01057-.21522.02115-.43426.03178-.66853m.8623 1.57014c.01016.20645.07698.34328.21622.42367.03295.01903.06995.03489.11122.04775.08626.03073.17252.05763.25547.08264.19908.0615.39817.11921.61053.18077-.27353-.74178-.67036-1.3334-1.21695-1.81306l-.01666.02472c.01559.35245.02788.70299.04017 1.05351m.87498 2.95501c.32275-.21814.4865-.58153.50798-1.13007-.28216-.04079-.54768-.09488-.80332-.11655-.10956-.00983-.15301.08719-.08709.26263.12196.32227.25056.64455.38243.98399m-2.33857-2.10955c.0634-.1084.02068-.26662-.11506-.41368-.22513-.24446-.45359-.48321-.70522-.75059.00842.5429.1464 1.07285.45029 1.64898.07998-.09884.14997-.18817.21997-.27751.05001-.07033.10663-.12922.15002-.2072m1.01165 1.99961c.21247.12267.42348.20047.63914.23564-.17175-.33192-.32692-.65048-.50539-.95576-.03285-.05692-.11092-.1265-.1724-.16199-.03128-.01806-.05825-.0273-.07282-.02157-.20614.08706-.39247.21606-.59872.3374.24386.24441.47791.43217.71019.56628m-.00354-2.66158c-.25529-.14739-.47151-.02036-.47234.27298-.00084.29716.21065.6673.46925.8166.00204.00121.00404.00239.00608.00356.25588.14773.46874.03165.47286-.26127.00743-.29498-.21397-.68071-.47021-.82865-.00188-.00108-.00376-.00216-.00564-.00322m.00483-.53145c-.07295-.03829-.13282-.00418-.13305.07582-.00024.08381.05925.18685.13219.22897.07294.04211.12949.00988.13304-.07202.00023-.08381-.05924-.19065-.13218-.23277m-.3601 1.681c.00023-.0817-.05942-.18708-.12693-.22606-.00175-.00101-.0035-.00198-.00526-.00289-.07294-.04211-.13281-.008-.13304.072-.00024.08381.05925.18685.13219.22896.06962.0402.12948.00989.13304-.07201m1.15949-.17388c.07293.04211.1328.01179.13304-.07202.00346-.07984-.05612-.18517-.12669-.22592-.00183-.00106-.00367-.00208-.0055-.00303-.06963-.0402-.12951-.00609-.12973.07391-.00024.08381.05924.18685.12888.22706m-1.63453-.9437c.07294.04211.12949.00988.13304-.07202.00023-.0817-.05628-.18527-.1267-.22593-.00182-.00105-.00365-.00206-.00549-.00302-.06962-.0402-.1295-.00609-.12972.07392-.00024.08381.05593.18494.12887.22705m1.37021 1.63441c.00023-.0817-.05628-.18527-.1267-.22592-.00182-.00105-.00365-.00206-.00548-.00302-.06963-.0402-.12951-.00609-.12973.07391-.00024.08381.05593.18493.12888.22705.07293.0421.12948.00988.13303-.07202" fill="#ecf0f1"/></g><path d="m49.9913 31.24226-.00434 1.73363c-.04082.90244-.17197 1.66328-.41256 2.24955-.03213.0773-.08077.13376-.14069.16938l-12.24313 7.11432c.05993-.03473.10857-.09119.14069-.1685.24059-.58627.37174-1.348.41256-2.25042l.00521-1.67023.09207-.35958z" fill="#5b5e71"/><g><g><path d="m47.58377 33.49302c-.19481.11248-.34699.38213-.34629.6302.00063.22384.15384.3172.34866.20472s.35225-.38519.35162-.60903c-.0007-.24807-.15917-.33837-.35399-.22589z" fill="#fff"/></g><g><path d="m40.40174 37.53652c.04247-.01521.08269-.02693.12171-.03678.75053-.18967.87525.52858.88181.56639l-.84244.48638-1.60061.92411c-.48986.22221-.33823-1.08006-.33025-1.1486.0466-.02478.93206-.49571 1.76978-.7915zm-1.01338 1.57894c.22115-.12768.39431-.43372.39359-.6878-.00079-.27832-.17512-.3837-.39626-.25602-.22641.13071-.39957.43672-.39878.71504.00071.25408.17504.35949.40145.22878m.94231-.5986c.19482-.11248.34698-.38214.34635-.60597-.00071-.24807-.1539-.34143-.34872-.22896s-.35224.38518-.35154.63325c.00064.22383.1591.31416.35391.20168" fill="#e63044"/></g><g><path d="m47.42338 33.50573c-.78345.67624-.90717 1.56689-.90717 1.60811l-5.11295 2.95233c-.00821-.04123-.13192-.75868-.88235-.57728z" fill="#525566"/></g><g><path d="m48.5261 32.89443c-.22114.12768-.39431.4337-.39352.71201.00072.2541.17506.35949.39619.23181.22641-.13071.39957-.43673.39885-.69083-.00079-.27831-.17512-.38371-.40152-.25299z" fill="#fff"/></g><g><path d="m47.50979 33.43269c.83662-.67089 1.72186-1.22227 1.76845-1.25129.00834.05912.16685 1.18233-.32264 1.52554l-1.36895.79036-1.07411.62014c.0065-.04658.13007-.93151.90852-1.6105.02877-.0251.05815-.04991.08873-.07425zm1.019.40554c.22641-.13071.39957-.43676.39885-.69084-.00079-.27832-.17512-.3837-.40153-.25299-.22115.12768-.39431.43369-.39352.71201.00073.25408.17506.3595.3962.23182m-.94262.48967c.19479-.11246.35224-.38518.35161-.60901-.0007-.24807-.15919-.33838-.35398-.22592-.19482.11248-.34701.38216-.34631.63023.00064.22383.15386.31718.34868.2047" fill="#e63044"/></g><g><path d="m40.3283 37.68197c-.19481.11247-.35225.38517-.35155.63324.00064.22384.15911.31416.35392.20169.19482-.11248.34698-.38215.34635-.60599-.00071-.24808-.15391-.34142-.34872-.22894z" fill="#fff"/></g><g><path d="m39.38567 38.17166c-.22641.13072-.39958.43674-.39879.71505.00072.2541.17505.35949.40146.22877.22113-.12767.3943-.43369.39358-.68779-.00078-.27831-.17512-.38371-.39625-.25603z" fill="#fff"/></g><path d="m41.44751 38.54088c-.06224.03593-.12433.12193-.1241.20059l.00196.69362c.0002.0715.06257.08565.12481.04971l5.07186-2.92824c.06223-.03593.13054-.12552.13034-.19703l-.00196-.69362c-.00022-.07866-.06882-.08921-.13105-.05328z" fill="#e4e8f4"/><g fill="#fed57a"><path d="m38.96504 40.17469.00154.54346 1.27757-.7376-.00154-.54346z"/><path d="m47.73162 35.1133.00155.54346 1.27756-.7376-.00154-.54346z"/></g></g><g fill="#ecf0f1"><g opacity=".3"><path d="m45.16561 18.45977-1.90473 13.07868-4.85782 2.8228c-.04343-.2128-.09816-.4282-.1633-.64447-.35522-1.18384-.75651-2.33207-1.20206-3.44121l1.14474-7.86301 6.93452-4.0301c.01652.02518.03215.05124.04865.07731z"/><path d="m47.83554 23.75794-.81469 5.59521-2.03154 1.18037 1.43657-9.85982c.51072.98667.98147 2.01592 1.40966 3.08424z"/></g><g opacity=".3"><path d="m32.20158 26.5651-.50896 3.49332-2.84886-1.69194.58106-3.99101c.13028.0721.2597.14505.38911.21975.45947.26491.91111.54458 1.35408.84076.38911.2597.7539.65923 1.03357 1.12912z"/><path d="m33.48704 29.15774-.44297 3.03733c-.04254-.06775-.07903-.14069-.10683-.21627l-.41515-1.1378c-.03476-.09467-.08253-.185-.13985-.26664l.41865-2.87666c.2484.49333.4777.97972.68615 1.46004z"/></g></g></g><g><path d="m34.96005 31.35438c-.02158-.01296-.04748-.00864-.07771.00862l-.58713.34107-.15541-.09067.59145-.34105c.03022-.01729.05613-.01729.07771-.00864z" fill="#525566"/><path d="m33.55264 32.13147c-.0561.03452-.10361.11225-.10361.18132l.00432 2.46081c0 .03455.01297.05613.03022.06474l-.15109-.08632c-.01729-.01297-.03022-.03455-.03022-.06909l-.00432-2.46081c-.00432-.06907.04316-.14677.10361-.17699l.58714-.34105.15112.08632z" fill="#525566"/><path d="m35.41358 29.35317.0005.17737-1.06396.61428c-.03308.0191-.06055.06668-.06044.10469l.00412 1.45379.58986-.34056c.06064-.03501.10489-.00981.10509.05987l.00698 2.46099c.00019.06651-.04376.14583-.1044.18084l-1.33134.76865c-.05788.03342-.10489.00662-.10508-.05989l-.00697-2.46099c-.0002-.06968.04651-.1474.10439-.18082l.58712-.33897-.00412-1.45379c-.00038-.13302.09577-.30275.21429-.37118z" fill="#5b5e71"/><path d="m35.41335 29.35119-1.06201.61736c-.1209.06906-.21586.23744-.21586.37127l.00432 1.45057-.15112-.08632-.00432-1.45489c0-.13386.09499-.30221.21156-.3713l1.06634-.61304z" fill="#525566"/></g></g></svg>