<svg id="Layer_1" enable-background="new 0 0 50 50" height="512" viewBox="0 0 50 50" width="512" xmlns="http://www.w3.org/2000/svg"><g><g><g><g enable-background="new"><g><path d="m34.17937 40.43711-.03526 3.28188c-.00382 1.34918-.8909 2.69634-2.66298 3.72616-3.56697 2.0729-9.36504 2.07281-12.95531-.00003-1.80671-1.04311-2.70908-2.41177-2.7052-3.77834l.03523-3.28188c-.00386 1.36657.89851 2.73523 2.70522 3.77834 3.59027 2.07284 9.38833 2.07293 12.95531.00003 1.77209-1.02982 2.65916-2.37697 2.66299-3.72616z" fill="#b0b8bc"/></g><g><path d="m31.47435 36.65887c3.59027 2.07284 3.60901 5.4315.04204 7.5044s-9.36504 2.07281-12.95531-.00003c-3.59028-2.07285-3.60937-5.4313-.04239-7.5042s9.36538-2.07301 12.95566-.00017z" fill="#dde4e7"/></g></g></g><g><g enable-background="new"><g><path d="m19.38967 14.18141-2.03569 26.06713c-.00326 1.13865.74868 2.27895 2.25423 3.14824 2.99184 1.72742 7.82339 1.72742 10.79578 0 1.47668-.85812 2.2159-1.98063 2.21911-3.1048l-2.01275-26.11057z" fill="#b0b8bc"/></g><g><path d="m28.95388 11.88367c2.19856 1.26934 2.21004 3.32607.02575 4.59545s-5.73484 1.26932-7.9334-.00002c-2.19857-1.26934-2.21026-3.32595-.02596-4.59532s5.73504-1.26946 7.93361-.00011z" fill="#dde4e7"/></g></g></g><g><g enable-background="new"><g><path d="m32.66687 9.91903-.02938 6.97164c-.00319 1.12428-.7424 2.24688-2.21908 3.10504-2.97239 1.72737-7.80397 1.72729-10.79577-.00002-1.50555-.86923-2.2575-2.00975-2.25427-3.14852l.02936-6.97164c-.00321 1.13877.74874 2.27929 2.25428 3.14852 2.9918 1.72732 7.82338 1.72739 10.79577.00002 1.4767-.85816 2.2159-1.98076 2.21909-3.10504z" fill="#485f69"/><path d="m25.02798 20.86748c-1.96532 0-3.80942-.43982-5.19342-1.23878-1.31987-.76192-2.04518-1.74935-2.0427-2.78042l.02028-4.78794c.40548.49112.95204.94025 1.62811 1.33063 1.5102.87198 3.50531 1.35235 5.61711 1.35235 2.11221 0 4.10194-.48057 5.60345-1.35297.64876-.37714 1.17671-.80992 1.57309-1.28243l-.02027 4.78091c-.00248 1.01659-.71579 1.98953-2.00794 2.74049-1.37408.79834-3.2128 1.23816-5.17771 1.23816z" fill="#4bb5e7"/></g><g><path d="m30.41276 6.77059c2.9918 1.72732 3.00743 4.52612.03503 6.25348s-7.80397 1.72729-10.79577-.00002c-2.99181-1.72732-3.00772-4.52595-.03533-6.25331s7.80426-1.72747 10.79607-.00015z" fill="#56707b"/></g></g></g><path d="m25.032 14.544h.548v6.522h-.548z" fill="#485f69"/><g><g><g><path d="m31.93126 8.92934-.00684.72545c0 1.0245-.67617 2.04901-2.01482 2.82739-2.7047 1.57111-7.09641 1.57111-9.81478 0-1.366-.79206-2.04901-1.83023-2.04901-2.86174l.00684-.71845c0 1.03818.683 2.06935 2.04901 2.84807 2.71838 1.57077 7.11008 1.57077 9.81474 0 1.3387-.77872 2.00803-1.79622 2.01486-2.82072z" fill="#40545d"/><path d="m29.88144 6.06664c2.7211 1.57103 2.73124 4.11634.03219 5.68485-2.70352 1.57112-7.09353 1.57111-9.81463.00008-2.71674-1.56851-2.73545-4.11388-.03193-5.68499 2.69905-1.56851 7.09763-1.56845 9.81437.00006zm-9.04156 5.25439c2.30683 1.33185 6.04046 1.3344 8.33242.00246 2.28748-1.32934 2.27534-3.49458-.03149-4.82643-2.30247-1.32933-6.04057-1.32929-8.32804.00005-2.29197 1.33194-2.27536 3.49459.02711 4.82392" fill="#485f69"/></g><path d="m29.31704 11.28692c-2.37226 1.3783-6.23171 1.3783-8.61845 0-1.30582-.75451-1.9007-1.77043-1.77738-2.75696h-.02179c.00726-.02905.01452-.05774.02905-.08679 0-.00744 0-.01488 0-.01488.03626-.23202.11605-.45695.23215-.67445 1.59597-4.32371 4.79527-5.8398 5.62952-6.66692.1161-.11619.29746-.11619.4063 0 .84151.83421 4.05529 2.35774 5.63678 6.71049.00726.01452.01452.02905.01452.04357.10879.19589.1741.40594.21037.60927v.01452c.00726.02161.01452.04357.02178.06518h-.01452c.13058.98654-.44978 2.00246-1.74833 2.75697z" fill="#dde4e7"/></g></g></g><g><path d="m20.81106 21.98807-.01452 5.23749 2.452 1.41475.02178-5.2304z" fill="#40545d"/><g><path d="m20.79653 27.22548.01455-5.23738-.42803-.24692-.02175 5.74562.43528-.26132z" fill="#cfd8dd"/><path d="m20.79658 27.22548-.43528.26132 2.88726 1.66871v-.51544z" fill="#dde4e7"/></g></g></g></svg>