<svg id="Layer_1" enable-background="new 0 0 52 52" height="512" viewBox="0 0 52 52" width="512" xmlns="http://www.w3.org/2000/svg"><g><g><g><g><g fill="#363a44"><path d="m16.31076 41.08261c0 .82717.2978 1.41167.77204 1.68739l3.11017 1.80877c-.47424-.27573-.77204-.86029-.77204-1.6985-.01104-1.66531 1.16906-3.70571 2.62489-4.54392.72788-.41911 1.4007-.4632 1.87493-.18747l-3.11017-1.79772c-.47424-.28677-1.13601-.24261-1.87493.1765-1.45582.83814-2.62489 2.87854-2.62489 4.55495z"/><path d="m23.07405 37.17503c0 .82717.2978 1.41167.77204 1.68739l3.11017 1.80877c-.47424-.27573-.77204-.86029-.77204-1.6985-.01104-1.66531 1.16907-3.70571 2.62489-4.54392.72788-.41911 1.4007-.4632 1.87494-.18747l-3.11017-1.79773c-.47424-.28676-1.13601-.2426-1.87493.1765-1.45583.83814-2.6249 2.87854-2.6249 4.55496z"/><path d="m39.63974 27.58703c0 .82717.2978 1.41167.77204 1.68739l3.11017 1.80876c-.47424-.27572-.77204-.86029-.77204-1.6985-.01104-1.66531 1.16906-3.70571 2.62489-4.54392.72788-.41911 1.4007-.4632 1.87493-.18747l-3.11017-1.79772c-.47424-.28676-1.13601-.24261-1.87494.1765-1.45581.83814-2.62488 2.87854-2.62488 4.55496z"/></g><g><path d="m41.01081 29.94243-12.18623-7.08187-.03598-12.68959 12.18623 7.08187z" fill="#e74c3c"/></g><g><path d="m46.53593 14.00541c-.11115-.06174-.21615-.11111-.32112-.1482-.16056-.06792-.35817-.03709-.5681.08646l-4.16205 2.40215-12.1898-7.07671 4.16209-2.40833c.20993-.11737.40755-.15438.56811-.08646.11115.03709.21611.08646.32108.1482z" fill="#e74c3c"/></g><g><path d="m29.15165 9.38177c.04658-.04577.09427-.0838.14374-.11524l12.18623 7.08187c-.04947.03143-.09716.06947-.14374.11524-4.06216-2.36065-8.12407-4.72122-12.18623-7.08187z" fill="#e74c3c"/></g><g><path d="m28.82787 9.92037c4.06216 2.36065 8.12407 4.72122 12.18623 7.08187-.02241.07982-.03605.16331-.03926.2506l-12.18624-7.08186c.00322-.08729.01685-.17079.03927-.25061z" fill="#e74c3c"/></g><g><path d="m29.15165 9.38177c4.06216 2.36065 8.12407 4.72122 12.18623 7.08187-.06686.0657-.13145.14734-.19577.24829-4.06216-2.36065-8.12408-4.72119-12.18625-7.08184.06433-.10097.12892-.18262.19579-.24832z" fill="#e74c3c"/></g><g><path d="m45.64511 13.94387c.20897-.12065.40632-.15292.56843-.08772 1.17408.42483 2.30088 2.27915 3.42102 4.57295.23041.47956.35053 1.06366.35242 1.72962l.01302 4.5938-8.98919 5.18991-.03598-12.68959c.00694-.18816.06228-.35872.14965-.51274.11494-.18687.23018-.31101.35715-.3917z" fill="#d8463f"/></g><g><path d="m28.93825 9.65823c.00587-.00955.01174-.01893.01762-.02815 4.06216 2.36066 8.12408 4.7212 12.18624 7.08185-.00588.00922-.01175.01861-.01763.02817-3.65587-2.12456-8.53036-4.95731-12.18623-7.08187z" fill="#e74c3c"/></g><g><path d="m28.82787 9.92037c.02591-.09224.06354-.17957.11038-.26214l12.18623 7.08187c-.04684.08257-.08447.16989-.11037.26213-4.06218-2.36064-8.12408-4.7212-12.18624-7.08186z" fill="#e74c3c"/></g><g><path d="m41.01199 29.94146-5.93567 3.42756-.00723-2.46476 3.90896-2.25777 2.02671-1.1698z" fill="#474b59"/><path d="m43.15662 26.23469-2.15186 1.24201-2.02669 1.1698-3.90897 2.25777-4.17855 2.41181" fill="none"/></g><g><path d="m14.53228 45.25953-12.18624-7.08186-.00699-2.46453 12.18624 7.08187z" fill="#525566"/></g><g><path d="m35.07016 30.90371.00699 2.46452-20.54487 11.8913-.00699-2.46452z" fill="#474b59"/></g><g><path d="m14.26351 42.64288-12.22509-7.10445-.03842-3.57719 12.18624 7.08187z" fill="#d4d6d6"/><g><g><path d="m40.93299 23.68212.07782 3.79457-26.74675 15.36099-.07782-3.79457z" fill="#e0e2e2"/></g><path d="m14.18624 39.04311-12.18624-7.08187 26.74675-15.36099 12.18624 7.08187z" fill="#ecf0f1"/><g><g><path d="m2.96236 31.96369 3.43367 1.99545 22.34928-12.83555v-3.96746z" fill="#e0e2e2"/><path d="m28.74531 17.15613v3.96746l7.79175 4.52811 3.4337-1.97199z" fill="#d4d6d6"/></g><path d="m36.53706 25.6517-7.79175-4.52811-22.34928 12.83555 7.79154 4.52801z" fill="#c4c6c6"/></g></g></g><g><path d="m45.99245 15.31442c-.05267-.04678-.12978-.03622-.2164.00604.79785.76027 1.70692 2.0783 2.64134 3.58195.10503.1666-.03697.50645-.24688.62989l-2.15648 1.24016c-.11107.06187-.2161.0495-.25941-.03682l-.48773-.89579c-.0495-.09236-.14819-.11107-.25941-.04286l-2.93637 1.73363.00015.04557c0 .10473.0741.15423.17294.09869l2.51941-1.48795c.11122-.06821.20991-.0495.25941.04286l.48788.89549c.04316.08662.14819.09869.25926.03712l2.69235-1.55616c.21006-.12344.35207-.46299.24704-.62989-.96325-1.54983-1.9019-2.91464-2.7171-3.66193z" fill="#e74c3c"/><path d="m45.26688 19.83984.48773.89579c.04331.08632.14834.09869.25941.03682l2.15648-1.24016c.20991-.12344.35192-.46329.24688-.62989-.93442-1.50364-1.84349-2.82167-2.64134-3.58195-.00483.00241-.00724-.00241-.01207.0003l-3.53215 2.03756c-.09884.05553-.17294.18531-.17294.29638l.01222 3.87592 2.93637-1.73363c.11122-.06821.20991-.0495.25941.04286z" fill="#84dbff"/></g><path d="m41.9548 29.37787 6.76329-3.89538c-.29475-1.2348-1.22678-1.80037-2.15881-1.80037-.50985 0-1.04357.15928-1.58526.46988-1.68888.97992-3.01922 3.26622-3.01922 5.22587z" fill="#c14242"/><path d="m45.37367 24.84232c-1.45057.83748-2.6297 2.87982-2.62498 4.54666.00475 1.67488 1.19159 2.35125 2.64216 1.51377 1.45761-.84156 2.63675-2.88392 2.632-4.55881-.00473-1.66683-1.19157-2.34317-2.64918-1.50162z" fill="#525566"/><g><path d="m47.4185 26.76115c.00366 1.29295-.89782 2.86499-2.01997 3.51287-1.13438.65847-2.04486.13961-2.04549-1.16567-.00365-1.28721.90401-2.85446 2.03225-3.50585 1.11909-.64259 2.02957-.12373 2.03321 1.15865zm-1.65487-.94658c.00983.21664.01962.41919.02939.61822.00343.12857.00381.26245.01031.38926.01126.13724.07771.19282.18.13376.01322-.00763.02703-.01715.0414-.02869.29108-.23509.57598-.48074.87928-.73701-.25906-.39387-.62485-.51439-1.14038-.37554m-.79741 1.45197c.01136-.32414.02273-.64829.03715-.97422l-.01541-.02286c-.50546.44356-.87242.99066-1.12537 1.67662.19638-.05693.38049-.11029.56458-.16717.07671-.02312.15649-.048.23625-.07642.03815-.01189.07237-.02656.10284-.04416.12878-.07434.19057-.20088.19996-.39179m-.80913 2.73263c.12195-.31389.24087-.61193.35365-.90994.06096-.16223.02078-.25196-.08053-.24286-.23641.02004-.48195.07005-.74287.10778.01986.50726.17129.8433.46975 1.04502m2.16258-1.95079c.04013.07211.09249.12657.13874.19162.06472.08261.12945.16522.20341.25662.28102-.53278.40861-1.02284.4164-1.52489-.23269.24726-.44397.46804-.65215.6941-.12553.13599-.16503.28231-.1064.38255m-.93552 1.84912c.2148-.12402.43123-.29764.65674-.52367-.19073-.11221-.36303-.2315-.55366-.31201-.01348-.00531-.03842.00324-.06734.01994-.05685.03282-.12905.09717-.15943.1498-.16503.28231-.30853.57689-.46735.88383.19943-.03251.39455-.10445.59104-.21789m.00327-2.46127c-.00174.00097-.00347.00198-.00521.00298-.23695.13681-.4417.4935-.43483.76629.00381.27088.20065.37822.43727.24161.00188-.00109.00373-.00217.00562-.00329.23915-.13807.43472-.48035.43394-.75515-.00076-.27127-.20071-.38874-.43679-.25244m-.00446-.49146c-.06745.03894-.12245.13774-.12223.21525.00328.07574.05558.10555.12303.0666s.12246-.13423.12224-.21173c-.00021-.07398-.05558-.10553-.12304-.07012m.333 1.55449c.00329.07574.05864.10377.12303.06659.06745-.03894.12246-.13422.12224-.21173-.00021-.07398-.05558-.10552-.12303-.06658-.00163.00084-.00325.00174-.00486.00267-.06243.03605-.11759.13351-.11738.20905m-1.07223-.16079c.06439-.03718.1194-.13246.11918-.20997-.00021-.07398-.05558-.10552-.11997-.06835-.0017.00088-.00339.00182-.00508.0028-.06526.03768-.12035.13509-.11715.20892.00021.0775.05558.10554.12302.0666m1.51152-.87268c.06745-.03894.11939-.13246.11917-.20996-.00021-.07398-.05558-.10553-.11996-.06835-.00171.00089-.00339.00182-.00508.00279-.06512.0376-.11737.13337-.11716.20892.00329.07573.05558.10554.12303.0666m-1.26709 1.51141c.00328.07574.05558.10554.12302.0666.06746-.03895.1194-.13245.11918-.20996-.00021-.07398-.05558-.10553-.11997-.06835-.00169.00088-.00338.00182-.00507.00279-.06512.03759-.11738.13337-.11716.20892" fill="#ecf0f1"/></g><path d="m25.38911 38.96587 6.76329-3.89539c-.29474-1.2348-1.22678-1.80037-2.15881-1.80037-.50985 0-1.04357.15929-1.58526.46988-1.68888.97993-3.01922 3.26623-3.01922 5.22588z" fill="#3f434f"/><path d="m28.80798 34.43032c-1.45057.83749-2.6297 2.87983-2.62498 4.54666.00475 1.67488 1.19159 2.35125 2.64216 1.51377 1.45762-.84156 2.63675-2.88392 2.632-4.5588-.00473-1.66684-1.19156-2.34318-2.64918-1.50163z" fill="#525566"/><g><path d="m30.85281 36.34915c.00367 1.29295-.89782 2.86499-2.01996 3.51287-1.13438.65847-2.04486.13961-2.04549-1.16567-.00365-1.28722.90401-2.85446 2.03225-3.50585 1.11908-.64258 2.02956-.12373 2.0332 1.15865zm-1.65487-.94658c.00983.21664.01961.41919.02939.61822.00344.12857.00381.26245.01032.38926.01126.13725.07771.19282.18001.13376.01322-.00763.02703-.01715.0414-.02869.29107-.23509.57598-.48074.87928-.73701-.25908-.39387-.62487-.51438-1.1404-.37554m-.79741 1.45197c.01137-.32414.02273-.64829.03715-.97422l-.01541-.02286c-.50545.44356-.87242.99067-1.12537 1.67662.19638-.05693.38049-.11029.56459-.16717.07671-.02312.15648-.048.23625-.07642.03816-.01189.07237-.02656.10285-.04416.12876-.07434.19055-.20087.19994-.39179m-.80913 2.73264c.12195-.3139.24087-.61193.35365-.90994.06096-.16223.02078-.25196-.08053-.24287-.23641.02004-.48194.07005-.74287.10778.01987.50726.1713.8433.46975 1.04503m2.16258-1.9508c.04013.07211.09249.12657.13874.19162.06473.08261.12945.16522.20341.25662.28102-.53278.40861-1.02284.4164-1.52489-.23269.24726-.44397.46804-.65215.6941-.12553.13599-.16503.28231-.1064.38255m-.93552 1.84912c.21481-.12402.43123-.29764.65674-.52366-.19073-.11221-.36303-.2315-.55366-.31201-.01348-.00531-.03842.00325-.06734.01994-.05686.03281-.12905.09717-.15943.1498-.16503.28231-.30853.57689-.46735.88383.19943-.03251.39456-.10445.59104-.2179m.00328-2.46127c-.00174.00098-.00348.00198-.00521.00298-.23696.13681-.4417.4935-.43483.76629.00381.27088.20065.37822.43727.24161.00188-.00109.00373-.00217.00562-.0033.23915-.13807.43472-.48035.43394-.75515-.00077-.27126-.20071-.38873-.43679-.25243m-.00447-.49145c-.06745.03894-.12245.13774-.12223.21525.00329.07574.05558.10555.12303.0666.06745-.03894.12246-.13423.12224-.21174-.00021-.07398-.05557-.10552-.12304-.07011m.33301 1.55449c.00328.07574.05864.10377.12303.06659.06745-.03894.12246-.13422.12224-.21173-.00021-.07398-.05558-.10552-.12303-.06658-.00163.00084-.00324.00174-.00486.00267-.06244.03604-.1176.1335-.11738.20905m-1.07224-.1608c.06439-.03718.1194-.13246.11918-.20997-.00021-.07398-.05558-.10553-.11997-.06835-.00169.00088-.00339.00182-.00508.0028-.06526.03768-.12035.13509-.11716.20892.00022.0775.05559.10554.12303.0666m1.51153-.87268c.06745-.03894.11939-.13246.11917-.20996-.00021-.07399-.05558-.10553-.11996-.06836-.0017.00089-.00339.00182-.00508.0028-.06512.03759-.11738.13337-.11716.20892.00328.07573.05558.10554.12303.0666m-1.2671 1.51141c.00329.07574.05558.10554.12302.0666.06746-.03895.1194-.13245.11918-.20996-.00021-.07398-.05558-.10553-.11997-.06835-.0017.00088-.00338.00182-.00507.00279-.06512.0376-.11738.13337-.11716.20892" fill="#ecf0f1"/></g><path d="m18.62582 42.87346 6.76329-3.89539c-.29474-1.2348-1.22678-1.80037-2.15881-1.80037-.50985 0-1.04357.15929-1.58526.46988-1.68888.97993-3.01922 3.26622-3.01922 5.22588z" fill="#3f434f"/><path d="m22.04469 38.33791c-1.45057.83749-2.6297 2.87983-2.62498 4.54666.00475 1.67489 1.19159 2.35125 2.64216 1.51377 1.45762-.84155 2.63675-2.88392 2.632-4.5588-.00473-1.66684-1.19157-2.34319-2.64918-1.50163z" fill="#525566"/><g><path d="m24.08952 40.25673c.00367 1.29295-.89781 2.86499-2.01996 3.51287-1.13439.65847-2.04486.13961-2.04549-1.16567-.00365-1.28721.90401-2.85446 2.03225-3.50585 1.11908-.64258 2.02956-.12373 2.0332 1.15865zm-1.65487-.94657c.00983.21664.01962.41919.02939.61822.00344.12857.00381.26245.01032.38926.01126.13724.0777.19282.18.13375.01322-.00763.02703-.01715.0414-.02869.29108-.23509.57598-.48074.87928-.73701-.25907-.39386-.62486-.51438-1.14039-.37553m-.79741 1.45197c.01136-.32414.02273-.6483.03715-.97422l-.01541-.02286c-.50545.44356-.87242.99067-1.12536 1.67662.19638-.05693.38049-.11029.56458-.16717.07671-.02312.15648-.048.23625-.07642.03816-.01189.07237-.02656.10285-.04416.12876-.07434.19054-.20088.19994-.39179m-.80913 2.73263c.12195-.3139.24087-.61193.35365-.90994.06096-.16223.02078-.25196-.08053-.24287-.23641.02004-.48195.07005-.74287.10778.01986.50727.17129.8433.46975 1.04503m2.16258-1.95079c.04013.07211.09249.12657.13874.19162.06472.08261.12945.16522.20341.25662.28102-.53278.40861-1.02284.4164-1.52489-.23269.24726-.44396.46804-.65215.6941-.12553.13599-.16504.28231-.1064.38255m-.93552 1.84912c.2148-.12402.43123-.29764.65674-.52367-.19073-.11221-.36303-.2315-.55366-.31201-.01348-.00531-.03842.00325-.06734.01994-.05686.03282-.12905.09717-.15943.1498-.16503.28231-.30853.5769-.46735.88383.19943-.03251.39455-.10445.59104-.21789m.00327-2.46127c-.00174.00097-.00347.00198-.00521.00298-.23696.13681-.4417.4935-.43483.76629.00381.27088.20065.37822.43727.24161.00188-.00109.00373-.00217.00562-.0033.23915-.13807.43472-.48035.43394-.75515-.00076-.27127-.2007-.38874-.43679-.25243m-.00446-.49146c-.06745.03894-.12245.13774-.12223.21525.00328.07574.05558.10555.12303.0666.06745-.03894.12246-.13423.12224-.21173-.00021-.07399-.05558-.10553-.12304-.07012m.333 1.55449c.00329.07574.05864.10377.12303.06659.06745-.03894.12246-.13422.12224-.21172-.00021-.07399-.05558-.10553-.12303-.06659-.00163.00084-.00325.00174-.00486.00267-.06243.03605-.11759.1335-.11738.20905m-1.07223-.16079c.06439-.03718.1194-.13247.11918-.20997-.00021-.07398-.05558-.10553-.11997-.06835-.0017.00088-.00339.00182-.00508.0028-.06526.03768-.12035.13509-.11715.20892.00021.0775.05557.10553.12302.0666m1.51152-.87268c.06745-.03894.11939-.13246.11917-.20996-.00021-.07399-.05558-.10553-.11996-.06836-.0017.00089-.00339.00182-.00508.0028-.06512.03759-.11738.13337-.11716.20892.00329.07573.05558.10554.12303.0666m-1.26709 1.51141c.00328.07574.05558.10554.12302.0666.06746-.03895.1194-.13245.11918-.20996-.00021-.07398-.05558-.10552-.11997-.06835-.00169.00088-.00338.00182-.00507.00279-.06512.03759-.11738.13337-.11716.20892" fill="#ecf0f1"/></g><g><path d="m43.86095 22.05105.00165.57965-1.65362.95471-.00164-.57964z" fill="#525566"/></g><g><g><path d="m12.64988 42.50893-.00306 1.07871-1.3313-.76863.00305-1.07871z" fill="#e74c3c"/></g><g><path d="m13.98419 43.27355-.00306 1.07871-1.3313-.76863.00306-1.07871z" fill="#f1c40f"/></g><g><path d="m4.29778 37.68684-.00306 1.07871-1.33125-.7686.00305-1.07871z" fill="#e74c3c"/></g><g><path d="m5.6321 38.45147-.00306 1.0787-1.33126-.7686.00306-1.0787z" fill="#f1c40f"/></g></g></g></g><g><g><path d="m33.22073 20.34399-.01588 5.01761-4.54297 2.64009.01588-5.01761z" fill="#d6b218"/><path d="m28.68038 22.98544-.01499 5.01915-1.99115-1.14958-.5861-.33812-1.99862-1.1571.01504-5.01167v-.00748h.00752l1.98358 1.14958.45086.263.13524.07512z" fill="#e5bd13"/><path d="m33.22181 20.34714-4.54407 2.64002-1.99751-1.15649-.57827-.32708-.01165-.00581-1.98587-1.15064 4.54411-2.64002 1.99751 1.15064.00585.00585.57238.32708z" fill="#f1c40f"/><g fill="#d6b218"><path d="m31.22429 19.19069-4.54406 2.63998-.57827-.32708-.01165-.00581 4.55575-2.64002.00585.00585z"/><path d="m26.68176 21.82834-.00752 5.02667-.5861-.33812.00752-5.01915.45086.25548z"/></g><g><path d="m26.08814 19.19069 4.54407 2.63998.57826-.32708.01166-.00581-4.55576-2.64002-.00585.00585z" fill="#e5bd13"/><path d="m30.63068 21.82834.00752 5.02667.58609-.33812-.00752-5.01915-.45085.25548z" fill="#c6a51a"/></g><g><g><path d="m28.09404 25.34332-.19449.37009.12045.06954.26581.15232z" fill="#3f434f"/></g><g><path d="m28.02 25.78295-.00207.73211.14534.08391.00208-.7321z" fill="#3f434f"/></g><g><path d="m27.29799 26.16471-.00044.15672 1.00347.57935.00044-.15671z" fill="#3f434f"/></g><g><path d="m24.67694 23.66048-.00148.52162c-.00047.16472.09472.35603.22108.45304l-.00133.47015c-.08863-.04086-.15545-.03704-.15559.01214l.39124.22588c.00014-.04919-.06644-.13002-.15501-.19147l.00133-.47015c.05776.02304.10764.01746.1466-.00702.04597-.03419.07606-.09816.07632-.18968l.00148-.52162z" fill="#3f434f"/></g><g><path d="m27.43863 25.44729-.00208.73211.14535.08391.00207-.7321z" fill="#3f434f"/></g><g><path d="m27.51167 25.00709-.1935.37066.12046.06954.26481.15175z" fill="#3f434f"/></g></g><g><path d="m32.79937 23.97774v.98403l-1.17496.67557-.00731-.97668z" fill="#fff"/></g></g><g><path d="m27.13812 23.87882-.01588 5.0176-4.54297 2.64009.01588-5.0176z" fill="#d6b218"/><path d="m22.59778 26.52026-.015 5.01915-1.99115-1.14957-.58609-.33813-1.99863-1.15709.01504-5.01168v-.00747h.00752l1.98359 1.14957.45085.26301.13524.07511z" fill="#e5bd13"/><path d="m27.1392 23.88196-4.54407 2.64002-1.99751-1.15649-.57826-.32708-.01166-.00581-1.98586-1.15064 4.5441-2.64002 1.99752 1.15064.00584.00585.57238.32708z" fill="#f1c40f"/><g fill="#d6b218"><path d="m25.14168 22.72551-4.54406 2.63998-.57826-.32708-.01166-.00581 4.55576-2.64002.00584.00585z"/><path d="m20.59915 25.36316-.00752 5.02668-.58609-.33813.00752-5.01915.45085.25549z"/></g><g><path d="m20.00554 22.72551 4.54406 2.63998.57826-.32708.01166-.00581-4.55576-2.64002-.00584.00585z" fill="#e5bd13"/><path d="m24.54807 25.36316.00752 5.02668.58609-.33813-.00752-5.01915-.45085.25549z" fill="#c6a51a"/></g><g><g><path d="m22.01143 28.87815-.19449.37008.12046.06954.2658.15232z" fill="#3f434f"/></g><g><path d="m21.9374 29.31777-.00208.73211.14534.08391.00208-.7321z" fill="#3f434f"/></g><g><path d="m21.21538 29.69954-.00044.15671 1.00347.57936.00044-.15672z" fill="#3f434f"/></g><g><path d="m18.59434 27.1953-.00148.52162c-.00047.16472.09472.35603.22108.45304l-.00133.47015c-.08863-.04086-.15545-.03704-.15559.01214l.39124.22588c.00014-.04919-.06644-.13002-.15501-.19147l.00133-.47015c.05777.02304.10764.01746.1466-.00702.04597-.03419.07606-.09816.07632-.18968l.00148-.52162z" fill="#3f434f"/></g><g><path d="m21.35602 28.98211-.00208.73211.14535.08392.00207-.73211z" fill="#3f434f"/></g><g><path d="m21.42906 28.54191-.1935.37066.12046.06954.26481.15175z" fill="#3f434f"/></g></g><g><path d="m26.71677 27.51256v.98403l-1.17497.67558-.00731-.97668z" fill="#fff"/></g></g><g><path d="m21.05552 27.41364-.01589 5.01761-4.54297 2.64008.01588-5.0176z" fill="#d6b218"/><path d="m16.51517 30.05508-.015 5.01916-1.99115-1.14958-.58609-.33812-1.99863-1.1571.01504-5.01168v-.00747h.00753l1.98358 1.14957.45085.26301.13524.07512z" fill="#e5bd13"/><path d="m21.05659 27.41679-4.54406 2.64002-1.99752-1.15649-.57826-.32708-.01166-.00581-1.98586-1.15064 4.5441-2.64002 1.99752 1.15064.00585.00584.57237.32708z" fill="#f1c40f"/><g fill="#d6b218"><path d="m19.05907 26.26033-4.54406 2.63999-.57826-.32708-.01166-.00581 4.55576-2.64002.00585.00584z"/><path d="m14.51654 28.89799-.00752 5.02667-.58609-.33812.00752-5.01916.45085.25549z"/></g><g><path d="m13.92293 26.26033 4.54407 2.63999.57826-.32708.01165-.00581-4.55576-2.64002-.00584.00584z" fill="#e5bd13"/><path d="m18.46546 28.89799.00752 5.02667.58609-.33812-.00752-5.01916-.45085.25549z" fill="#c6a51a"/></g><g><g><path d="m15.92883 32.41297-.1945.37008.12046.06955.2658.15232z" fill="#3f434f"/></g><g><path d="m15.85479 32.8526-.00208.73211.14535.08391.00207-.73211z" fill="#3f434f"/></g><g><path d="m15.13278 33.23436-.00045.15672 1.00347.57935.00045-.15672z" fill="#3f434f"/></g><g><path d="m12.51173 30.73013-.00148.52162c-.00047.16472.09472.35603.22108.45304l-.00133.47016c-.08863-.04086-.15545-.03704-.15559.01214l.39124.22588c.00014-.04919-.06644-.13002-.15501-.19147l.00133-.47015c.05777.02304.10764.01746.1466-.00702.04597-.03419.07606-.09816.07632-.18968l.00148-.52162z" fill="#3f434f"/></g><g><path d="m15.27341 32.51694-.00208.73211.14535.08391.00208-.7321z" fill="#3f434f"/></g><g><path d="m15.34645 32.07674-.19349.37066.12045.06954.26481.15174z" fill="#3f434f"/></g></g><g><path d="m20.63416 31.04738v.98403l-1.17497.67558-.0073-.97668z" fill="#fff"/></g></g><g><path d="m14.97306 30.94758v.00482l-.00241.69322-.00481 1.66564-.00241.64507v.02408l-.00241.20459v.4453l-.00479 1.33588-.25995.15164h-.00241l-1.15055.66914-.56567.32976-.01924.01205-.55359.32012v.00241l-.01446.00722v-.01685l-1.42974-.83041-.53676-.31291h-.00241l.00961-2.70787v-.00241l1.74269-1.01336.20938-.12035.32497-.19014.10348-.06018.15646-.09146.95799-.55602.58732-.34179.4549-.26478z" fill="#d6b218"/><path d="m10.41422 38.60665.00241-.00241v.00482z" fill="#e5bd13"/><path d="m10.43347 33.59048-.00961 2.70787h-.00241l-.56808-.33217-.01442-.00723-.57046-.33216-.00964-.00481-.8304-.4814-.58491-.33939-1.99539-1.16018.00961-2.68861v-.00721h.00723l.00241.00239 1.98095 1.14815.00482.0024.44529.25996.13481.07462h.00241l1.99538 1.15536v.00241z" fill="#e5bd13"/><path d="m14.97399 30.95161-4.54407 2.64002-1.99752-1.15649-.57826-.32708-.01166-.00581-1.98586-1.15064 4.5441-2.64002 1.99752 1.15064.00585.00585.57238.32708z" fill="#f1c40f"/><g fill="#d6b218"><path d="m12.97647 29.79516-4.54407 2.63998-.57826-.32708-.01166-.00581 4.55576-2.64002.00585.00585z"/><path d="m8.43327 32.43271v.00241l-.00482 2.70546-.58491-.33939.00481-2.69584v-.0024l.45011.25514z"/></g><g><path d="m7.84032 29.79516 4.54407 2.63998.57826-.32708.01166-.00581-4.55576-2.64002-.00585.00585z" fill="#e5bd13"/><path d="m12.97765 37.11672v.00482l-.01924.01203-.55359.31532v.00241l-.01446.00722v-.01685l-.00482-2.65011v-.00962l-.00241-1.63195v-.71728l.13481-.07462.17811-.1011.11553-.06498.15646-.08906v.01444l.00241.68599v.23108l.00238 2.07724v.01925z" fill="#c6a51a"/></g><g><g><path d="m9.85337 35.96618-.01442-.00723.0072-.01203z" fill="#3f434f"/></g><g><path d="m9.26849 35.62679-.00964-.00481.00482-.00963z" fill="#3f434f"/></g></g><g><path d="m14.55155 34.58221v.98403l-1.17496.67558-.00731-.97668z" fill="#fff"/></g></g><g><path d="m38.333 23.36314v.00481l-.00483 1.25405-1.99541 1.14814-.58729.33697-1.95448 1.12167-.00482.0024.00482-1.22516v-.00482l1.95207-1.13368.5873-.34181z" fill="#d6b218"/><path d="m33.77415 31.0198.00479-.0024v.0048z" fill="#e5bd13"/><path d="m33.79337 26.00361-.00238 1.22517-.00482.0024-1.54048.88578-.45731.26236-.58732.33698-.71008.40679-.2407-.13961-.58971-.34179-.20459-.11794-.0024-.00241-.25031-.14443v-.25995l.00238-.43086v-.2407l.00241-1.09277.0024-.67155.00242-.53677.00481-1.77877v-.00722h.0072l.00241.00241 1.40571.81598.57525.33215.00482.00241.00963.00482.39475.23108.01443.00962.00964.00482.01686.00962.13478.07462h.00241l.59696.34901h.00238l.54639.31773h.00241l.84727.48861z" fill="#e5bd13"/><path d="m38.33435 23.36538-4.54407 2.64002-1.99751-1.15649-.57827-.32708-.01165-.00581-1.98586-1.15064 4.5441-2.64002 1.99752 1.15064.00584.00585.57238.32707z" fill="#f1c40f"/><g fill="#d6b218"><path d="m36.33683 22.20892-4.54406 2.63999-.57827-.32708-.01165-.00581 4.55576-2.64002.00584.00585z"/><path d="m31.79317 24.84585v.69562l-.00238.64026v.98688l-.00241 1.21071-.58732.33698.00241-1.20831v-.00241l.00238-.97724v-.23588l.00241-1.77396v-.00241l.00722.00482.00723.00239v.00241l.39475.22146v.00239l.01443.00723.00964.00482.01686.00962z"/></g><g><path d="m31.20069 22.20892 4.54406 2.63999.57826-.32708.01166-.00581-4.55576-2.64002-.00584.00585z" fill="#e5bd13"/><path d="m36.33276 25.77014-.58729.33697-.00241-1.23479v-.02647l.13481-.07462.44526-.25032.00723-.00482v.01444z" fill="#c6a51a"/></g><g><g><path d="m29.78949 26.67872-.00148.52162c-.00047.16472.09472.35603.22108.45304l-.00133.47015c-.08863-.04086-.15545-.03704-.15559.01214l.39124.22588c.00014-.04919-.06644-.13002-.15501-.19147l.00133-.47015c.05777.02304.10764.01746.1466-.00702.04597-.03419.07606-.09816.07632-.18968l.00148-.52162z" fill="#3f434f"/></g></g></g><g><path d="m32.2505 26.89661v.00481l-.00481 1.21554-.45731.26236-.58732.33698-.71008.40679-.2407.13959-.5873.33699-1.95448 1.12406h-.00482l.00482-1.18424v-.00241l1.74508-1.01574.20699-.11794.32497-.19016.10349-.06018.15884-.09147.9556-.55601.58732-.34179z" fill="#d6b218"/><path d="m27.69166 34.55568.00482-.0024v.0048z" fill="#e5bd13"/><path d="m27.71091 29.53949-.00241 1.18424h-.00482l-1.54048.88578-.45731.26237-.58491.33698-.74858.42844-.20702-.11794-.5873-.33938-.20459-.12035h-.00241l-.25271-.14684v-.26235l.00241-.42846v-.2455l.00482-1.08797.00238-.67396.0024-.53677.00482-1.77636v-.00721h.0072l1.40812.81597.57528.33217.00478.00239h.00242l.00481.00482.39716.23349.01443.00962.00964.00482.01686.00962.13481.07462h.00241l.59693.34902h.00241l.54636.31772h.00241l.84727.48861v.00241z" fill="#e5bd13"/><path d="m32.25174 26.9002-4.54406 2.64002-1.99752-1.15649-.57826-.32708-.01166-.00581-1.98586-1.15064 4.5441-2.64002 1.99752 1.15064.00584.00585.57238.32708z" fill="#f1c40f"/><g fill="#d6b218"><path d="m30.25422 25.74375-4.54406 2.63998-.57826-.32708-.01166-.00581 4.55576-2.64002.00584.00585z"/><path d="m25.71071 28.38173v.69322l-.00241.64266v.98447l-.00241 1.1698-.58491.33698v-1.1674l.00241-.97724v-.23347l.00241-1.77637v-.00241l.0072.00482.00481.00239.39716.22387v.00239l.01443.00723.00964.00482.01686.00962z"/></g><g><path d="m25.11808 25.74375 4.54406 2.63998.57827-.32708.01165-.00581-4.55576-2.64002-.00584.00585z" fill="#e5bd13"/><g fill="#c6a51a"><path d="m30.25028 28.98348v.2792l-.5873.33699-.00241-.95798v-.25996l.13481-.07462.17811-.10109h.00241l.11313-.06499.15164-.08424.0072-.00482v.01203z"/><path d="m30.25509 33.06575v.00481l-.58729.33698z"/></g></g><g><g><path d="m23.70688 30.21354-.00148.52162c-.00047.16472.09472.35603.22108.45304l-.00133.47015c-.08863-.04086-.15545-.03704-.15559.01214l.39124.22588c.00014-.04919-.06644-.13002-.15501-.19147l.00133-.47015c.05777.02304.10764.01746.1466-.00702.04597-.03419.07606-.09816.07632-.18968l.00148-.52162z" fill="#3f434f"/></g></g></g><g><path d="m26.16802 30.4349-.00482 1.17461-.45731.26237-.58491.33698-.74858.42844-.20702.12035-.58489.33457-1.95689 1.12407v.55601h-.00238v-.55601l.00479-1.14092v-.00241h.00241l1.74266-1.01333h.00241l.01925-.01205.18534-.1083.32738-.19257.10108-.05777.15646-.08906v-.0024l.95798-.55602.58732-.34179.45731-.26477z" fill="#d6b218"/><g fill="#e5bd13"><path d="m21.60917 38.08916.00241-.00241v.00481z"/><path d="m20.45862 35.09485.09388.29124-.21182.12276-.07463-.04333z"/><path d="m21.62842 33.07296-.00482 1.14333v.55601h-.00238v-.55601l-1.54051.88577-.45731.26237-.58491.33697-.78469.45013-.17088-.0987-.58733-.33938-.20697-.11796-.00241-.00239-.25033-.14443v-.26476l.00241-.42845v-.24312l.00482-1.09036.00241-.67155.0024-.53676.00479-1.77877v-.00722h.00723l.00241.00241 1.40568.81597.57528.33217.00481.00239.0072.00482.39719.23108.0409.02406.13481.07462h.00241l.59693.34902h.00241l.54639.31772h.00241l.84724.49102z"/></g><path d="m26.16913 30.43502-4.54406 2.64002-1.99752-1.15648-.57826-.32708-.01166-.00581-1.98586-1.15065 4.5441-2.64001 1.99752 1.15064.00585.00584.57238.32708z" fill="#f1c40f"/><g fill="#d6b218"><path d="m24.17162 29.27857-4.54407 2.63999-.57826-.32708-.01166-.00581 4.55576-2.64002.00585.00584z"/><path d="m19.62822 31.9152v.69562l-.00241.64026v.98688l-.00241 1.12647-.58491.33697v-1.12647l.00241-.97724v-.23347l.00241-1.77637v-.00241l.01201.00723.39719.22385v.00241l.0409.02165z"/></g><g><path d="m19.03547 29.27857 4.54407 2.63999.57826-.32708.01165-.00581-4.55575-2.64002-.00585.00584z" fill="#e5bd13"/><path d="m24.16538 32.51936v.23829l-.58489.33457-.00241-.91224v-.26478l.13481-.07462.17811-.10109.11554-.06499.15646-.08906v.01444z" fill="#c6a51a"/></g><g><g><path d="m17.62427 33.74837-.00148.52162c-.00047.16473.09472.35603.22108.45304l-.00133.47015c-.08863-.04086-.15545-.03704-.15559.01214l.39124.22588c.00014-.04919-.06644-.13002-.15501-.19147l.00133-.47015c.05777.02304.10764.01746.1466-.00702.04597-.03419.07606-.09816.07632-.18968l.00148-.52162z" fill="#3f434f"/></g><g><path d="m20.5525 35.38609-.21182.12276-.07463-.04333.19257-.37067z" fill="#3f434f"/></g></g></g><g><path d="m20.08553 33.96597v.0048l-.00482 1.13129-.45731.26237-.58491.33697-.78469.45013-.17088.09868-.58492.33698-1.95686 1.12166v.55601h-.00241v-.5536l.00482-1.10241v-.00241l1.74266-1.01334.20938-.12035.32497-.19016.10349-.06018.15646-.09146.95798-.55602.58732-.34179.4549-.26476z" fill="#d6b218"/><path d="m15.52668 41.62504.00241-.00241v.00482z" fill="#e5bd13"/><path d="m15.54593 36.60885-.00479 1.1v.55601h-.00241v-.5536l-1.35035.77504-.64747-.37549-.58488-.33938-.55121-.32013-.01446.00722v-.01685l-1.42974-.83041.00963-2.64049v-.00721h.0072l.00241.00241 1.40568.81597.57528.33215.00482.00241.00719.00482.39719.23108.01443.00962.02647.01444.13481.07462h.00241l.59693.34902h.00241l.54639.31772h.00241l.84727.48862v.00241z" fill="#e5bd13"/><path d="m20.08653 33.96985-4.54407 2.64002-1.99752-1.15649-.57826-.32708-.01166-.00581-1.98586-1.15064 4.5441-2.64002 1.99752 1.15064.00585.00585.57238.32708z" fill="#f1c40f"/><g fill="#d6b218"><path d="m18.08901 32.8134-4.54407 2.63998-.57826-.32708-.01166-.00581 4.55576-2.64002.00585.00585z"/><path d="m13.54573 35.45108v.69563l-.00241.64025-.00241 1.32385-.58488-.33938.00238-.63786v-.0048l.00241-2.00504.00482.00241.00719.00241.39719.22385v.00239l.01443.00723.02647.01444z"/></g><g><path d="m12.95286 32.8134 4.54407 2.63998.57826-.32708.01166-.00581-4.55576-2.64002-.00585.00585z" fill="#e5bd13"/><path d="m18.08292 36.05283v.19738l-.58492.33698-.00241-.87374v-.26237l.13481-.07462.17812-.10108.11553-.065.15646-.08906v.01445z" fill="#c6a51a"/></g></g></g><g fill="#ecf0f1"><path d="m12.40482 37.44889v.00241l-.01446.00722v-.01685z"/><path d="m15.538 37.71h.003v.556h-.003z"/><path d="m20.45862 35.09485.09388.29124-.21182.12276-.07463-.04333z"/><path d="m21.621 34.216h.002v.556h-.002z"/></g></g><g><path d="m36.11469 18.69773c-.20551-.11871-.37042-.40436-.36975-.63904l.00592-2.09882c.00006-.02716.00934-.04547.01367-.06879-.15619-.03986-.27283.05017-.27338.24487l-.00598 2.09875c-.00067.23468.16425.52032.36981.63904l3.66595 2.11652c.18054.10425.32416.03552.35718-.14233-.03174-.00812-.06293-.01373-.09747-.03369z" fill="#ef6159"/><path d="m30.16468 15.26242c-.20428-.11792-.37048-.4043-.36981-.63898l.00592-2.09882c.00006-.02716.0094-.04547.01373-.06873-.15564-.03937-.27289.05023-.27344.24475l-.00592 2.09882c-.00067.23468.16553.52106.36975.63898l3.66595 2.11658c.18054.10425.32422.03552.35718-.1424-.0318-.00812-.06293-.01373-.09747-.03369z" fill="#ef6159"/><g fill="#84dbff"><path d="m39.89777 18.68009c.00067-.23468-.16425-.52032-.36847-.63824l-3.66595-2.11652c-.0351-.02026-.06665-.02606-.09882-.03424-.00433.02332-.01361.04163-.01367.06879l-.00592 2.09882c-.00067.23468.16425.52032.36975.63904l3.66595 2.11652c.03455.01996.06573.02557.09747.03369.00433-.02338.01367-.04181.01373-.06903z"/><path d="m33.9477 15.24485c.00067-.23468-.16425-.52032-.36847-.63824l-3.66595-2.11658c-.03497-.02014-.06665-.026-.09875-.03412-.00433.02325-.01367.04156-.01373.06873l-.00592 2.09882c-.00067.23468.16553.52106.36981.63898l3.66589 2.11652c.03455.01996.06567.02557.09747.03369.00433-.02332.01367-.04175.01373-.06897z"/></g></g></g></svg>