<svg id="Layer_1" enable-background="new 0 0 50 50" height="512" viewBox="0 0 50 50" width="512" xmlns="http://www.w3.org/2000/svg"><g><g><g><g enable-background="new"><g><path d="m49 30.60359-.00372 1.31002-21.82314 12.68223.00371-1.31002z" fill="#b0b8bc"/></g><g><path d="m27.17685 43.28582-.00371 1.31002-26.17314-15.11107.00371-1.31002z" fill="#cfd8dd"/></g><g><path d="m49 31.90592-.00372 2.20155-21.82314 12.68223.00371-2.20155z" fill="#765f54"/></g><g><path d="m27.17685 44.58815-.00371 2.20155-26.17314-15.11107.00371-2.20155z" fill="#8b6f62"/></g><g><path d="m49 30.60359-21.82315 12.68223-26.17314-15.11107 21.82315-12.68223z" fill="#dde4e7"/></g></g></g></g><g><g><g enable-background="new"><g><path d="m42.53186 14.89456-.03628 12.7975-12.24375 7.11529.03628-12.7975z" fill="#b0b8bc"/></g><g><path d="m30.28811 22.00985-.03628 12.7975-19.86405-11.46852.03628-12.7975z" fill="#cfd8dd"/></g><g><path d="m42.53186 14.89456-12.24375 7.11529-19.86405-11.46852 12.24375-7.11529z" fill="#878d8f"/></g></g></g><g><g enable-background="new"><g><path d="m43.72203 15.59652-21.31454-12.38665-6.59079 2.39718 21.31455 12.38665z" fill="#8b6f62"/></g><g><path d="m30.54844 23.2023-21.31455-12.38665.02227.23086 21.31455 12.38665z" fill="#765f54"/></g><g><path d="m37.13125 17.9937-21.31455-12.38665-6.58281 5.2086 21.31455 12.38665z" fill="#a18b82"/></g><g><path d="m37.13125 17.9937-6.58281 5.2086.02227.23086 6.56097-5.18968 6.5662-2.38929.02415-.25767z" fill="#69534b"/></g></g></g><g><g><path d="m11.8816 17.42319-.02016 6.44961 4.92092 2.8421v-6.46125z" fill="#40545d"/><g><g enable-background="new"><g><path d="m16.78236 26.47867-4.91997-2.84062-.00067.23586 4.92064 2.84099z" fill="#40545d"/></g><g><path d="m16.78236 26.00049-4.91863-2.83969-.00067.23862 4.9193 2.84007z" fill="#40545d"/></g><g><path d="m16.78236 25.52509-4.91727-2.83896-.00067.23585 4.91794 2.83952z" fill="#40545d"/></g><g><path d="m16.78236 25.28609-4.9166-2.83859-.00067.23863 4.91727 2.83896z" fill="#485f69"/></g><g><path d="m16.78236 25.04709-4.91593-2.83822-.00067.23863 4.9166 2.83859z" fill="#40545d"/></g><g><path d="m16.78236 24.81087-4.91526-2.83785-.00067.23585 4.91593 2.83822z" fill="#485f69"/></g><g><path d="m16.78236 24.57169-4.91459-2.8373-.00067.23863 4.91526 2.83785z" fill="#40545d"/></g><g><path d="m16.78236 24.33269-4.9139-2.83693-.00069.23863 4.91459 2.8373z" fill="#485f69"/></g><g><path d="m16.78236 24.09369-4.91323-2.83674-.00067.23881 4.9139 2.83693z" fill="#40545d"/></g><g><path d="m16.78236 23.85747-4.91256-2.83637-.00067.23585 4.91323 2.83674z" fill="#485f69"/></g><g><path d="m16.78236 23.61829-4.91189-2.83582-.00067.23863 4.91256 2.83637z" fill="#40545d"/></g><g><path d="m16.78236 23.37929-4.9112-2.83545-.00069.23863 4.91189 2.83582z" fill="#485f69"/></g><g><path d="m16.78236 23.14306-4.91053-2.83507-.00067.23585 4.9112 2.83545z" fill="#40545d"/></g><g><path d="m16.78236 22.90407-4.90986-2.83471-.00067.23863 4.91053 2.83507z" fill="#485f69"/></g><g><path d="m16.78236 22.66507-4.90919-2.83434-.00067.23863 4.90986 2.83471z" fill="#40545d"/></g><g><path d="m16.78236 22.42589-4.90852-2.83378-.00067.23862 4.90919 2.83434z" fill="#485f69"/></g><g><path d="m16.78236 22.18966-4.90785-2.8336-.00067.23605 4.90852 2.83378z" fill="#40545d"/></g><g><path d="m16.78236 21.95067-4.90716-2.83323-.00069.23862 4.90785 2.8336z" fill="#485f69"/></g><g><path d="m16.78236 21.71167-4.90649-2.83286-.00067.23863 4.90716 2.83323z" fill="#40545d"/></g><g><path d="m16.78236 21.47526-4.90582-2.83231-.00067.23586 4.90649 2.83286z" fill="#485f69"/></g><g><path d="m16.78236 21.23627-4.90515-2.83194-.00067.23862 4.90582 2.83231z" fill="#40545d"/></g><g><path d="m16.78236 20.99727-4.90446-2.83157-.00069.23863 4.90515 2.83194z" fill="#485f69"/></g><g><path d="m16.78236 20.75809-4.90379-2.8312-.00067.23881 4.90446 2.83157z" fill="#40545d"/></g><g><path d="m16.78236 20.52186-4.90312-2.83083-.00067.23586 4.90379 2.8312z" fill="#485f69"/></g></g><g><path d="m16.78236 25.7615-4.91794-2.83952-.00069.23882 4.91863 2.83969z" fill="#485f69"/></g><g><path d="m16.78236 26.23949-4.9193-2.84007-.00067.23863 4.91997 2.84062z" fill="#485f69"/></g></g><g><path d="m11.8816 17.42319-.28937-.16716-.02104 6.76194.29025-.14517z" fill="#b0b8bc"/><path d="m16.78236 26.7149-4.92092-2.8421-.29025.14517 5.21029 3.00906z" fill="#dde4e7"/></g></g><path d="m11.86144 23.8728 4.92092 2.8421v-4.04983l-4.90919-2.83434z" fill="#9aa1a5"/><path d="m11.86144 23.8728 3.30894-2.13841-3.29721-1.90366z" fill="#8d9293"/></g><g><g><path d="m18.16393 21.04315-.02016 6.44961 4.92092 2.8421v-6.46124z" fill="#40545d"/><g><g enable-background="new"><g><path d="m23.06469 30.09863-4.91997-2.84062-.00067.23586 4.92064 2.84099z" fill="#40545d"/></g><g><path d="m23.06469 29.62046-4.91863-2.8397-.00067.23863 4.9193 2.84006z" fill="#40545d"/></g><g><path d="m23.06469 29.14505-4.91727-2.83896-.00067.23586 4.91794 2.83951z" fill="#40545d"/></g><g><path d="m23.06469 28.90605-4.9166-2.83859-.00067.23863 4.91727 2.83896z" fill="#485f69"/></g><g><path d="m23.06469 28.66706-4.91593-2.83822-.00067.23862 4.9166 2.83859z" fill="#40545d"/></g><g><path d="m23.06469 28.43083-4.91526-2.83785-.00067.23586 4.91593 2.83822z" fill="#485f69"/></g><g><path d="m23.06469 28.19165-4.91459-2.8373-.00067.23863 4.91526 2.83785z" fill="#40545d"/></g><g><path d="m23.06469 27.95265-4.9139-2.83692-.00069.23862 4.91459 2.8373z" fill="#485f69"/></g><g><path d="m23.06469 27.71366-4.91323-2.83675-.00067.23882 4.9139 2.83692z" fill="#40545d"/></g><g><path d="m23.06469 27.47743-4.91256-2.83637-.00067.23585 4.91323 2.83675z" fill="#485f69"/></g><g><path d="m23.06469 27.23825-4.91189-2.83582-.00067.23863 4.91256 2.83637z" fill="#40545d"/></g><g><path d="m23.06469 26.99925-4.9112-2.83544-.00069.23862 4.91189 2.83582z" fill="#485f69"/></g><g><path d="m23.06469 26.76303-4.91053-2.83508-.00067.23586 4.9112 2.83544z" fill="#40545d"/></g><g><path d="m23.06469 26.52403-4.90986-2.83471-.00067.23863 4.91053 2.83508z" fill="#485f69"/></g><g><path d="m23.06469 26.28504-4.90919-2.83434-.00067.23862 4.90986 2.83471z" fill="#40545d"/></g><g><path d="m23.06469 26.04585-4.90852-2.83378-.00067.23863 4.90919 2.83434z" fill="#485f69"/></g><g><path d="m23.06469 25.80963-4.90785-2.8336-.00067.23604 4.90852 2.83378z" fill="#40545d"/></g><g><path d="m23.06469 25.57063-4.90716-2.83323-.00069.23863 4.90785 2.8336z" fill="#485f69"/></g><g><path d="m23.06469 25.33164-4.90649-2.83287-.00067.23863 4.90716 2.83323z" fill="#40545d"/></g><g><path d="m23.06469 25.09523-4.90582-2.83231-.00067.23585 4.90649 2.83287z" fill="#485f69"/></g><g><path d="m23.06469 24.85623-4.90515-2.83194-.00067.23863 4.90582 2.83231z" fill="#40545d"/></g><g><path d="m23.06469 24.61723-4.90446-2.83157-.00069.23863 4.90515 2.83194z" fill="#485f69"/></g><g><path d="m23.06469 24.37805-4.90379-2.8312-.00067.23881 4.90446 2.83157z" fill="#40545d"/></g><g><path d="m23.06469 24.14183-4.90312-2.83083-.00067.23585 4.90379 2.8312z" fill="#485f69"/></g></g><g><path d="m23.06469 29.38146-4.91794-2.83951-.00069.23881 4.91863 2.8397z" fill="#485f69"/></g><g><path d="m23.06469 29.85945-4.9193-2.84006-.00067.23862 4.91997 2.84062z" fill="#485f69"/></g></g><g><path d="m18.16393 21.04315-.28937-.16715-.02103 6.76193.29024-.14517z" fill="#b0b8bc"/><path d="m23.06469 30.33486-4.92092-2.8421-.29024.14517 5.21028 3.00907z" fill="#dde4e7"/></g></g><path d="m18.14377 27.49276 4.92092 2.8421v-4.04982l-4.90919-2.83434z" fill="#9aa1a5"/><path d="m18.14377 27.49276 3.30894-2.13841-3.29721-1.90365z" fill="#8d9293"/></g><g><g><path d="m24.44626 24.66311-.02016 6.44961 4.92092 2.8421v-6.46124z" fill="#40545d"/><g><g enable-background="new"><g><path d="m29.34702 33.7186-4.91997-2.84062-.00067.23585 4.92064 2.84099z" fill="#40545d"/></g><g><path d="m29.34702 33.24042-4.91863-2.8397-.00067.23863 4.9193 2.84007z" fill="#40545d"/></g><g><path d="m29.34702 32.76501-4.91727-2.83896-.00067.23586 4.91794 2.83951z" fill="#40545d"/></g><g><path d="m29.34702 32.52602-4.9166-2.83859-.00067.23862 4.91727 2.83896z" fill="#485f69"/></g><g><path d="m29.34702 32.28702-4.91593-2.83822-.00067.23863 4.9166 2.83859z" fill="#40545d"/></g><g><path d="m29.34702 32.05079-4.91526-2.83785-.00067.23586 4.91593 2.83822z" fill="#485f69"/></g><g><path d="m29.34702 31.81161-4.91459-2.83729-.00067.23862 4.91526 2.83785z" fill="#40545d"/></g><g><path d="m29.34702 31.57262-4.9139-2.83693-.00069.23863 4.91459 2.83729z" fill="#485f69"/></g><g><path d="m29.34702 31.33362-4.91323-2.83674-.00067.23881 4.9139 2.83693z" fill="#40545d"/></g><g><path d="m29.34702 31.09739-4.91256-2.83637-.00067.23586 4.91323 2.83674z" fill="#485f69"/></g><g><path d="m29.34702 30.85821-4.91189-2.83581-.00067.23862 4.91256 2.83637z" fill="#40545d"/></g><g><path d="m29.34702 30.61922-4.9112-2.83545-.00069.23863 4.91189 2.83581z" fill="#485f69"/></g><g><path d="m29.34702 30.38299-4.91053-2.83508-.00067.23586 4.9112 2.83545z" fill="#40545d"/></g><g><path d="m29.34702 30.144-4.90986-2.83471-.00067.23862 4.91053 2.83508z" fill="#485f69"/></g><g><path d="m29.34702 29.905-4.90919-2.83434-.00067.23863 4.90986 2.83471z" fill="#40545d"/></g><g><path d="m29.34702 29.66582-4.90852-2.83379-.00067.23863 4.90919 2.83434z" fill="#485f69"/></g><g><path d="m29.34702 29.42959-4.90785-2.8336-.00067.23604 4.90852 2.83379z" fill="#40545d"/></g><g><path d="m29.34702 29.1906-4.90716-2.83324-.00069.23863 4.90785 2.8336z" fill="#485f69"/></g><g><path d="m29.34702 28.9516-4.90649-2.83286-.00067.23862 4.90716 2.83324z" fill="#40545d"/></g><g><path d="m29.34702 28.71519-4.90582-2.83231-.00067.23586 4.90649 2.83286z" fill="#485f69"/></g><g><path d="m29.34702 28.47619-4.90515-2.83194-.00067.23863 4.90582 2.83231z" fill="#40545d"/></g><g><path d="m29.34702 28.2372-4.90445-2.83157-.0007.23862 4.90515 2.83194z" fill="#485f69"/></g><g><path d="m29.34702 27.99802-4.90378-2.83121-.00067.23882 4.90445 2.83157z" fill="#40545d"/></g><g><path d="m29.34702 27.76179-4.90312-2.83083-.00066.23585 4.90378 2.83121z" fill="#485f69"/></g></g><g><path d="m29.34702 33.00142-4.91794-2.83951-.00069.23881 4.91863 2.8397z" fill="#485f69"/></g><g><path d="m29.34702 33.47942-4.9193-2.84007-.00067.23863 4.91997 2.84062z" fill="#485f69"/></g></g><g><path d="m24.44626 24.66311-.28937-.16715-.02104 6.76193.29025-.14517z" fill="#b0b8bc"/><path d="m29.34702 33.95482-4.92092-2.8421-.29025.14517 5.21029 3.00907z" fill="#dde4e7"/></g></g><path d="m24.4261 31.11272 4.92092 2.8421v-4.04982l-4.90919-2.83434z" fill="#9aa1a5"/><path d="m24.4261 31.11272 3.30894-2.1384-3.29721-1.90366z" fill="#8d9293"/></g></g><g><g><g><g enable-background="new"><g><path d="m13.85427 24.05592-.00701 2.47333-2.3594 1.37114.00701-2.47334z" fill="#cb4844"/></g><g><path d="m11.49487 25.42705-.00701 2.47334-4.8656-2.80915.00701-2.47334z" fill="#ee5550"/></g><g><path d="m13.85427 24.05592-2.3594 1.37113-4.8656-2.80915 2.35941-1.37114z" fill="#f17572"/><g><path d="m13.63147 24.09567.06781-.03942-4.71062-2.71976-2.20447 1.2812.06782.03911 2.13665-1.24178z" fill="#cb4844"/><path d="m13.63147 24.09567-4.64281-2.68065-2.13665 1.24178 4.64295 2.6805z" fill="#ee5550"/></g></g></g></g><g><g><path d="m6.8036 22.86131.00701 2.16285.09826.0571-.00701-2.16285z" fill="#cb4844"/></g><g><path d="m7.16417 23.06957.00701 2.16285.09826.0571-.00701-2.16285z" fill="#cb4844"/></g><g><path d="m7.52473 23.27783.00702 2.16285.09826.05711-.00701-2.16286z" fill="#cb4844"/></g><g><path d="m7.8853 23.48609.00701 2.16285.09827.05711-.00702-2.16286z" fill="#cb4844"/></g><g><path d="m8.24587 23.69435.00701 2.16286.09827.0571-.00702-2.16285z" fill="#cb4844"/></g><g><path d="m8.60644 23.90261.00701 2.16286.09826.0571-.00701-2.16286z" fill="#cb4844"/></g><g><path d="m8.96701 24.11087.00701 2.16286.09826.0571-.00701-2.16285z" fill="#cb4844"/></g><g><path d="m9.32758 24.31914.00701 2.16285.09826.0571-.00701-2.16285z" fill="#cb4844"/></g><g><path d="m9.68815 24.5274.00701 2.16285.09826.0571-.00701-2.16285z" fill="#cb4844"/></g><g><path d="m10.04872 24.73566.00701 2.16285.09826.05711-.00701-2.16286z" fill="#cb4844"/></g><g><path d="m10.40929 24.94392.00701 2.16285.09826.05711-.00701-2.16286z" fill="#cb4844"/></g><g><path d="m10.76985 25.15218.00702 2.16285.09826.05711-.00701-2.16286z" fill="#cb4844"/></g><g><path d="m11.13042 25.36044.00701 2.16286.09827.0571-.00702-2.16285z" fill="#cb4844"/></g></g><g><g><path d="m13.62512 24.34752-.00701 2.16285-.09826.05711.00701-2.16286z" fill="#b4403c"/></g><g><path d="m13.26456 24.55578-.00702 2.16286-.09826.0571.00701-2.16286z" fill="#b4403c"/></g><g><path d="m12.90399 24.76404-.00701 2.16286-.09827.0571.00702-2.16285z" fill="#b4403c"/></g><g><path d="m12.54342 24.9723-.00701 2.16286-.09827.0571.00702-2.16285z" fill="#b4403c"/></g><g><path d="m12.18285 25.18056-.00701 2.16286-.09826.0571.00701-2.16285z" fill="#b4403c"/></g><g><path d="m11.82228 25.38883-.00701 2.16285-.09826.05711.00701-2.16286z" fill="#b4403c"/></g></g></g><g><g><g enable-background="new"><g><path d="m11.24601 25.60491-.00701 2.47334-2.3594 1.37113.00701-2.47333z" fill="#cb4844"/></g><g><path d="m8.88661 26.97605-.00701 2.47333-4.8656-2.80915.00701-2.47334z" fill="#ee5550"/></g><g><path d="m11.24601 25.60491-2.3594 1.37114-4.8656-2.80916 2.35941-1.37113z" fill="#f17572"/><g><path d="m11.02321 25.64466.06781-.03941-4.71062-2.71977-2.20447 1.2812.06782.03912 2.13665-1.24179z" fill="#cb4844"/><path d="m11.02321 25.64466-4.64281-2.68065-2.13665 1.24179 4.64295 2.6805z" fill="#ee5550"/></g></g></g></g><g><g><path d="m4.19534 24.4103.00701 2.16286.09826.0571-.00701-2.16286z" fill="#cb4844"/></g><g><path d="m4.55591 24.61856.00701 2.16286.09826.0571-.00701-2.16286z" fill="#cb4844"/></g><g><path d="m4.91647 24.82682.00702 2.16286.09826.0571-.00701-2.16285z" fill="#cb4844"/></g><g><path d="m5.27704 25.03509.00702 2.16285.09826.0571-.00701-2.16285z" fill="#cb4844"/></g><g><path d="m5.63761 25.24335.00701 2.16285.09827.0571-.00702-2.16285z" fill="#cb4844"/></g><g><path d="m5.99818 25.45161.00701 2.16285.09827.05711-.00702-2.16286z" fill="#cb4844"/></g><g><path d="m6.35875 25.65987.00701 2.16285.09826.05711-.00701-2.16286z" fill="#cb4844"/></g><g><path d="m6.71932 25.86813.00701 2.16285.09826.05711-.00701-2.16286z" fill="#cb4844"/></g><g><path d="m7.07989 26.07639.00701 2.16286.09826.0571-.00701-2.16285z" fill="#cb4844"/></g><g><path d="m7.44046 26.28465.00701 2.16286.09826.0571-.00701-2.16285z" fill="#cb4844"/></g><g><path d="m7.80103 26.49291.00701 2.16286.09826.0571-.00701-2.16285z" fill="#cb4844"/></g><g><path d="m8.16159 26.70118.00702 2.16285.09826.0571-.00701-2.16285z" fill="#cb4844"/></g><g><path d="m8.52216 26.90944.00702 2.16285.09826.05711-.00701-2.16286z" fill="#cb4844"/></g></g><g><g><path d="m11.01687 25.89651-.00702 2.16286-.09826.0571.00701-2.16285z" fill="#b4403c"/></g><g><path d="m10.6563 26.10478-.00702 2.16285-.09826.0571.00701-2.16285z" fill="#b4403c"/></g><g><path d="m10.29573 26.31304-.00701 2.16285-.09827.05711.00702-2.16286z" fill="#b4403c"/></g><g><path d="m9.93516 26.5213-.00701 2.16285-.09826.05711.00701-2.16286z" fill="#b4403c"/></g><g><path d="m9.57459 26.72956-.00701 2.16286-.09826.0571.00701-2.16286z" fill="#b4403c"/></g><g><path d="m9.21402 26.93782-.00701 2.16286-.09826.0571.00701-2.16286z" fill="#b4403c"/></g></g></g><g><g><g enable-background="new"><g><path d="m8.63775 27.15391-.00701 2.47333-2.3594 1.37114.00701-2.47334z" fill="#cb4844"/></g><g><path d="m6.27835 28.52504-.00701 2.47334-4.8656-2.80915.00701-2.47334z" fill="#ee5550"/></g><g><path d="m8.63775 27.15391-2.3594 1.37113-4.8656-2.80915 2.35941-1.37114z" fill="#f17572"/><g><path d="m8.41495 27.19366.06781-.03942-4.71062-2.71976-2.20447 1.2812.06783.03911 2.13664-1.24178z" fill="#cb4844"/><path d="m8.41495 27.19366-4.64281-2.68065-2.13664 1.24178 4.64295 2.6805z" fill="#ee5550"/></g></g></g></g><g><g><path d="m1.58708 25.9593.00701 2.16285.09826.0571-.00701-2.16285z" fill="#cb4844"/></g><g><path d="m1.94765 26.16756.00701 2.16285.09826.05711-.00701-2.16286z" fill="#cb4844"/></g><g><path d="m2.30822 26.37582.00701 2.16285.09826.05711-.00701-2.16286z" fill="#cb4844"/></g><g><path d="m2.66878 26.58408.00702 2.16285.09826.05711-.00701-2.16286z" fill="#cb4844"/></g><g><path d="m3.02935 26.79234.00702 2.16286.09826.0571-.00702-2.16285z" fill="#cb4844"/></g><g><path d="m3.38992 27.0006.00701 2.16286.09827.0571-.00702-2.16285z" fill="#cb4844"/></g><g><path d="m3.75049 27.20886.00701 2.16286.09826.0571-.00701-2.16285z" fill="#cb4844"/></g><g><path d="m4.11106 27.41713.00701 2.16285.09826.0571-.00701-2.16285z" fill="#cb4844"/></g><g><path d="m4.47163 27.62539.00701 2.16285.09826.05711-.00701-2.16286z" fill="#cb4844"/></g><g><path d="m4.8322 27.83365.00701 2.16285.09826.05711-.00701-2.16286z" fill="#cb4844"/></g><g><path d="m5.19277 28.04191.00701 2.16286.09826.0571-.00701-2.16286z" fill="#cb4844"/></g><g><path d="m5.55334 28.25017.00701 2.16286.09826.0571-.00701-2.16285z" fill="#cb4844"/></g><g><path d="m5.9139 28.45843.00702 2.16286.09826.0571-.00701-2.16285z" fill="#cb4844"/></g></g><g><g><path d="m8.40861 27.44551-.00702 2.16286-.09826.0571.00701-2.16286z" fill="#b4403c"/></g><g><path d="m8.04804 27.65377-.00701 2.16286-.09827.0571.00702-2.16286z" fill="#b4403c"/></g><g><path d="m7.68747 27.86203-.00701 2.16286-.09827.0571.00702-2.16285z" fill="#b4403c"/></g><g><path d="m7.3269 28.0703-.00701 2.16285-.09826.0571.00701-2.16285z" fill="#b4403c"/></g><g><path d="m6.96633 28.27856-.00701 2.16285-.09826.0571.00701-2.16285z" fill="#b4403c"/></g><g><path d="m6.60576 28.48682-.00701 2.16285-.09826.05711.00701-2.16286z" fill="#b4403c"/></g></g></g></g><g><g><g><g enable-background="new"><g><path d="m13.85427 21.3095-.00701 2.47334-2.3594 1.37114.00701-2.47334z" fill="#cb4844"/></g><g><path d="m11.49487 22.68064-.00701 2.47334-4.8656-2.80916.00701-2.47334z" fill="#ee5550"/></g><g><path d="m13.85427 21.3095-2.3594 1.37114-4.8656-2.80916 2.35941-1.37113z" fill="#f17572"/><g><path d="m13.63147 21.34926.06781-.03942-4.71062-2.71977-2.20447 1.2812.06782.03912 2.13665-1.24178z" fill="#cb4844"/><path d="m13.63147 21.34926-4.64281-2.68065-2.13665 1.24178 4.64295 2.6805z" fill="#ee5550"/></g></g></g></g><g><g><path d="m6.8036 20.11489.00701 2.16286.09826.0571-.00701-2.16285z" fill="#cb4844"/></g><g><path d="m7.16417 20.32315.00701 2.16286.09826.0571-.00701-2.16285z" fill="#cb4844"/></g><g><path d="m7.52473 20.53142.00702 2.16285.09826.05711-.00701-2.16286z" fill="#cb4844"/></g><g><path d="m7.8853 20.73968.00701 2.16285.09827.05711-.00702-2.16286z" fill="#cb4844"/></g><g><path d="m8.24587 20.94794.00701 2.16285.09827.05711-.00702-2.16286z" fill="#cb4844"/></g><g><path d="m8.60644 21.1562.00701 2.16286.09826.0571-.00701-2.16286z" fill="#cb4844"/></g><g><path d="m8.96701 21.36446.00701 2.16286.09826.0571-.00701-2.16285z" fill="#cb4844"/></g><g><path d="m9.32758 21.57272.00701 2.16286.09826.0571-.00701-2.16285z" fill="#cb4844"/></g><g><path d="m9.68815 21.78098.00701 2.16286.09826.0571-.00701-2.16285z" fill="#cb4844"/></g><g><path d="m10.04872 21.98925.00701 2.16285.09826.05711-.00701-2.16286z" fill="#cb4844"/></g><g><path d="m10.40929 22.19751.00701 2.16285.09826.05711-.00701-2.16286z" fill="#cb4844"/></g><g><path d="m10.76985 22.40577.00702 2.16285.09826.05711-.00701-2.16286z" fill="#cb4844"/></g><g><path d="m11.13042 22.61403.00701 2.16286.09827.0571-.00702-2.16286z" fill="#cb4844"/></g></g><g><g><path d="m13.62512 21.60111-.00701 2.16285-.09826.05711.00701-2.16286z" fill="#b4403c"/></g><g><path d="m13.26456 21.80937-.00702 2.16285-.09826.05711.00701-2.16286z" fill="#b4403c"/></g><g><path d="m12.90399 22.01763-.00701 2.16285-.09827.05711.00702-2.16286z" fill="#b4403c"/></g><g><path d="m12.54342 22.22589-.00701 2.16286-.09827.0571.00702-2.16285z" fill="#b4403c"/></g><g><path d="m12.18285 22.43415-.00701 2.16286-.09826.0571.00701-2.16285z" fill="#b4403c"/></g><g><path d="m11.82228 22.64241-.00701 2.16286-.09826.0571.00701-2.16285z" fill="#b4403c"/></g></g></g><g><g><g enable-background="new"><g><path d="m11.24601 22.8585-.00701 2.47334-2.3594 1.37113.00701-2.47334z" fill="#cb4844"/></g><g><path d="m8.88661 24.22963-.00701 2.47334-4.8656-2.80915.00701-2.47334z" fill="#ee5550"/></g><g><path d="m11.24601 22.8585-2.3594 1.37113-4.8656-2.80915 2.35941-1.37113z" fill="#f17572"/><g><path d="m11.02321 22.89825.06781-.03941-4.71062-2.71977-2.20447 1.2812.06782.03911 2.13665-1.24178z" fill="#cb4844"/><path d="m11.02321 22.89825-4.64281-2.68065-2.13665 1.24178 4.64295 2.6805z" fill="#ee5550"/></g></g></g></g><g><g><path d="m4.19534 21.66389.00701 2.16285.09826.05711-.00701-2.16286z" fill="#cb4844"/></g><g><path d="m4.55591 21.87215.00701 2.16286.09826.0571-.00701-2.16286z" fill="#cb4844"/></g><g><path d="m4.91647 22.08041.00702 2.16286.09826.0571-.00701-2.16285z" fill="#cb4844"/></g><g><path d="m5.27704 22.28867.00702 2.16286.09826.0571-.00701-2.16285z" fill="#cb4844"/></g><g><path d="m5.63761 22.49693.00701 2.16286.09827.0571-.00702-2.16285z" fill="#cb4844"/></g><g><path d="m5.99818 22.7052.00701 2.16285.09827.0571-.00702-2.16285z" fill="#cb4844"/></g><g><path d="m6.35875 22.91346.00701 2.16285.09826.05711-.00701-2.16286z" fill="#cb4844"/></g><g><path d="m6.71932 23.12172.00701 2.16285.09826.05711-.00701-2.16286z" fill="#cb4844"/></g><g><path d="m7.07989 23.32998.00701 2.16286.09826.0571-.00701-2.16286z" fill="#cb4844"/></g><g><path d="m7.44046 23.53824.00701 2.16286.09826.0571-.00701-2.16286z" fill="#cb4844"/></g><g><path d="m7.80103 23.7465.00701 2.16286.09826.0571-.00701-2.16285z" fill="#cb4844"/></g><g><path d="m8.16159 23.95477.00702 2.16285.09826.0571-.00701-2.16285z" fill="#cb4844"/></g><g><path d="m8.52216 24.16303.00702 2.16285.09826.0571-.00701-2.16285z" fill="#cb4844"/></g></g><g><g><path d="m11.01687 23.1501-.00702 2.16286-.09826.0571.00701-2.16285z" fill="#b4403c"/></g><g><path d="m10.6563 23.35836-.00702 2.16286-.09826.0571.00701-2.16285z" fill="#b4403c"/></g><g><path d="m10.29573 23.56663-.00701 2.16285-.09827.0571.00702-2.16285z" fill="#b4403c"/></g><g><path d="m9.93516 23.77489-.00701 2.16285-.09826.05711.00701-2.16286z" fill="#b4403c"/></g><g><path d="m9.57459 23.98315-.00701 2.16285-.09826.05711.00701-2.16286z" fill="#b4403c"/></g><g><path d="m9.21402 24.19141-.00701 2.16286-.09826.0571.00701-2.16286z" fill="#b4403c"/></g></g></g><g><g><g enable-background="new"><g><path d="m8.63775 24.40749-.00701 2.47334-2.3594 1.37114.00701-2.47334z" fill="#cb4844"/></g><g><path d="m6.27835 25.77863-.00701 2.47334-4.8656-2.80916.00701-2.47333z" fill="#ee5550"/></g><g><path d="m8.63775 24.40749-2.3594 1.37114-4.8656-2.80915 2.35941-1.37114z" fill="#f17572"/><g><path d="m8.41495 24.44725.06781-.03942-4.71062-2.71976-2.20447 1.2812.06783.03911 2.13664-1.24178z" fill="#cb4844"/><path d="m8.41495 24.44725-4.64281-2.68065-2.13664 1.24178 4.64295 2.6805z" fill="#ee5550"/></g></g></g></g><g><g><path d="m1.58708 23.21288.00701 2.16286.09826.0571-.00701-2.16285z" fill="#cb4844"/></g><g><path d="m1.94765 23.42115.00701 2.16285.09826.0571-.00701-2.16285z" fill="#cb4844"/></g><g><path d="m2.30822 23.62941.00701 2.16285.09826.05711-.00701-2.16286z" fill="#cb4844"/></g><g><path d="m2.66878 23.83767.00702 2.16285.09826.05711-.00701-2.16286z" fill="#cb4844"/></g><g><path d="m3.02935 24.04593.00702 2.16286.09826.0571-.00702-2.16286z" fill="#cb4844"/></g><g><path d="m3.38992 24.25419.00701 2.16286.09827.0571-.00702-2.16286z" fill="#cb4844"/></g><g><path d="m3.75049 24.46245.00701 2.16286.09826.0571-.00701-2.16285z" fill="#cb4844"/></g><g><path d="m4.11106 24.67072.00701 2.16285.09826.0571-.00701-2.16285z" fill="#cb4844"/></g><g><path d="m4.47163 24.87897.00701 2.16286.09826.0571-.00701-2.16285z" fill="#cb4844"/></g><g><path d="m4.8322 25.08724.00701 2.16285.09826.05711-.00701-2.16286z" fill="#cb4844"/></g><g><path d="m5.19277 25.2955.00701 2.16285.09826.05711-.00701-2.16286z" fill="#cb4844"/></g><g><path d="m5.55334 25.50376.00701 2.16285.09826.05711-.00701-2.16286z" fill="#cb4844"/></g><g><path d="m5.9139 25.71202.00702 2.16286.09826.0571-.00701-2.16286z" fill="#cb4844"/></g></g><g><g><path d="m8.40861 24.6991-.00702 2.16285-.09826.05711.00701-2.16286z" fill="#b4403c"/></g><g><path d="m8.04804 24.90736-.00701 2.16286-.09827.0571.00702-2.16286z" fill="#b4403c"/></g><g><path d="m7.68747 25.11562-.00701 2.16286-.09827.0571.00702-2.16285z" fill="#b4403c"/></g><g><path d="m7.3269 25.32388-.00701 2.16286-.09826.0571.00701-2.16285z" fill="#b4403c"/></g><g><path d="m6.96633 25.53214-.00701 2.16286-.09826.0571.00701-2.16285z" fill="#b4403c"/></g><g><path d="m6.60576 25.74041-.00701 2.16285-.09826.0571.00701-2.16285z" fill="#b4403c"/></g></g></g></g><g><g><g><g enable-background="new"><g><path d="m19.52256 35.60336.00701 2.47334 2.3594 1.37113-.00701-2.47334z" fill="#cb4844"/></g><g><path d="m21.88196 36.97449.00701 2.47334 4.8656-2.80915-.00701-2.47334z" fill="#ee5550"/></g><g><path d="m19.52256 35.60336 2.3594 1.37113 4.8656-2.80915-2.35941-1.37114z" fill="#f17572"/><g><path d="m19.74536 35.64311-.06781-.03942 4.71062-2.71976 2.20447 1.2812-.06782.03911-2.13665-1.24178z" fill="#cb4844"/><path d="m19.74536 35.64311 4.64281-2.68065 2.13665 1.24178-4.64295 2.6805z" fill="#ee5550"/></g></g></g></g><g><g><path d="m26.57323 34.40875-.00701 2.16285-.09826.05711.00701-2.16286z" fill="#cb4844"/></g><g><path d="m26.21267 34.61701-.00702 2.16286-.09826.0571.00701-2.16286z" fill="#cb4844"/></g><g><path d="m25.8521 34.82527-.00702 2.16285-.09826.05711.00701-2.16286z" fill="#cb4844"/></g><g><path d="m25.49153 35.03353-.00702 2.16286-.09826.0571.00701-2.16285z" fill="#cb4844"/></g><g><path d="m25.13096 35.24179-.00701 2.16286-.09827.0571.00702-2.16285z" fill="#cb4844"/></g><g><path d="m24.77039 35.45005-.00701 2.16286-.09826.0571.00701-2.16285z" fill="#cb4844"/></g><g><path d="m24.40982 35.65832-.00701 2.16285-.09826.05711.00701-2.16286z" fill="#cb4844"/></g><g><path d="m24.04925 35.86658-.00701 2.16285-.09826.05711.00701-2.16286z" fill="#cb4844"/></g><g><path d="m23.68868 36.07484-.00701 2.16285-.09826.05711.00701-2.16286z" fill="#cb4844"/></g><g><path d="m23.32811 36.2831-.00701 2.16286-.09826.0571.00701-2.16285z" fill="#cb4844"/></g><g><path d="m22.96754 36.49136-.00701 2.16286-.09826.0571.00701-2.16285z" fill="#cb4844"/></g><g><path d="m22.60698 36.69962-.00702 2.16286-.09826.0571.00701-2.16285z" fill="#cb4844"/></g><g><path d="m22.24641 36.90789-.00701 2.16285-.09827.05711.00702-2.16286z" fill="#cb4844"/></g></g><g><g><path d="m19.75171 35.89496.00701 2.16286.09826.0571-.00701-2.16285z" fill="#b4403c"/></g><g><path d="m20.11227 36.10323.00702 2.16285.09826.0571-.00701-2.16285z" fill="#b4403c"/></g><g><path d="m20.47284 36.31149.00701 2.16285.09827.0571-.00702-2.16285z" fill="#b4403c"/></g><g><path d="m20.83341 36.51975.00701 2.16285.09827.0571-.00702-2.16285z" fill="#b4403c"/></g><g><path d="m21.19398 36.72801.00701 2.16286.09826.0571-.00701-2.16286z" fill="#b4403c"/></g><g><path d="m21.55455 36.93627.00701 2.16285.09826.05711-.00701-2.16286z" fill="#b4403c"/></g></g></g><g><g><g enable-background="new"><g><path d="m22.13082 37.15236.00701 2.47333 2.3594 1.37114-.00701-2.47334z" fill="#cb4844"/></g><g><path d="m24.49022 38.52349.00701 2.47334 4.8656-2.80915-.00701-2.47334z" fill="#ee5550"/></g><g><path d="m22.13082 37.15236 2.3594 1.37113 4.8656-2.80915-2.35941-1.37114z" fill="#f17572"/><g><path d="m22.35362 37.19211-.06781-.03942 4.71062-2.71976 2.20447 1.2812-.06782.03911-2.13665-1.24178z" fill="#cb4844"/><path d="m22.35362 37.19211 4.64281-2.68065 2.13665 1.24178-4.64295 2.6805z" fill="#ee5550"/></g></g></g></g><g><g><path d="m29.18149 35.95774-.00701 2.16286-.09826.0571.00701-2.16285z" fill="#cb4844"/></g><g><path d="m28.82092 36.166-.00701 2.16286-.09826.0571.00701-2.16285z" fill="#cb4844"/></g><g><path d="m28.46036 36.37427-.00702 2.16285-.09826.05711.00701-2.16286z" fill="#cb4844"/></g><g><path d="m28.09979 36.58253-.00702 2.16285-.09826.05711.00701-2.16286z" fill="#cb4844"/></g><g><path d="m27.73922 36.79079-.00701 2.16285-.09827.05711.00701-2.16286z" fill="#cb4844"/></g><g><path d="m27.37865 36.99905-.00701 2.16286-.09827.0571.00702-2.16285z" fill="#cb4844"/></g><g><path d="m27.01808 37.20731-.00701 2.16286-.09826.0571.00701-2.16285z" fill="#cb4844"/></g><g><path d="m26.65751 37.41557-.00701 2.16286-.09826.0571.00701-2.16285z" fill="#cb4844"/></g><g><path d="m26.29694 37.62384-.00701 2.16285-.09826.05711.00701-2.16286z" fill="#cb4844"/></g><g><path d="m25.93637 37.8321-.00701 2.16285-.09826.05711.00701-2.16286z" fill="#cb4844"/></g><g><path d="m25.5758 38.04036-.00701 2.16285-.09826.05711.00701-2.16286z" fill="#cb4844"/></g><g><path d="m25.21523 38.24862-.00701 2.16286-.09826.0571.00701-2.16285z" fill="#cb4844"/></g><g><path d="m24.85467 38.45688-.00702 2.16286-.09826.0571.00701-2.16286z" fill="#cb4844"/></g></g><g><g><path d="m22.35996 37.44396.00702 2.16285.09826.05711-.00701-2.16286z" fill="#b4403c"/></g><g><path d="m22.72053 37.65222.00701 2.16285.09827.05711-.00702-2.16286z" fill="#b4403c"/></g><g><path d="m23.0811 37.86048.00701 2.16285.09827.05711-.00702-2.16286z" fill="#b4403c"/></g><g><path d="m23.44167 38.06874.00701 2.16286.09827.0571-.00702-2.16285z" fill="#b4403c"/></g><g><path d="m23.80224 38.277.00701 2.16286.09826.0571-.00701-2.16285z" fill="#b4403c"/></g><g><path d="m24.16281 38.48526.00701 2.16286.09826.0571-.00701-2.16285z" fill="#b4403c"/></g></g></g><g><g><g enable-background="new"><g><path d="m24.73907 38.70135.00702 2.47334 2.3594 1.37113-.00701-2.47333z" fill="#cb4844"/></g><g><path d="m27.09848 40.07249.00701 2.47333 4.8656-2.80915-.00701-2.47334z" fill="#ee5550"/></g><g><path d="m24.73907 38.70135 2.35941 1.37114 4.8656-2.80916-2.35941-1.37113z" fill="#f17572"/><g><path d="m24.96188 38.7411-.06781-.03941 4.71062-2.71977 2.20447 1.2812-.06783.03911-2.13664-1.24178z" fill="#cb4844"/><path d="m24.96188 38.7411 4.64281-2.68065 2.13664 1.24178-4.64295 2.6805z" fill="#ee5550"/></g></g></g></g><g><g><path d="m31.78975 37.50674-.00701 2.16285-.09826.05711.00701-2.16286z" fill="#cb4844"/></g><g><path d="m31.42918 37.715-.00701 2.16286-.09826.0571.00701-2.16285z" fill="#cb4844"/></g><g><path d="m31.06861 37.92326-.00701 2.16286-.09826.0571.00701-2.16285z" fill="#cb4844"/></g><g><path d="m30.70805 38.13152-.00702 2.16286-.09826.0571.00701-2.16285z" fill="#cb4844"/></g><g><path d="m30.34748 38.33979-.00701 2.16285-.09827.05711.00701-2.16286z" fill="#cb4844"/></g><g><path d="m29.98691 38.54805-.00701 2.16285-.09827.05711.00702-2.16286z" fill="#cb4844"/></g><g><path d="m29.62634 38.75631-.00701 2.16285-.09827.0571.00702-2.16285z" fill="#cb4844"/></g><g><path d="m29.26577 38.96457-.00701 2.16286-.09826.0571.00701-2.16285z" fill="#cb4844"/></g><g><path d="m28.9052 39.17283-.00701 2.16286-.09826.0571.00701-2.16286z" fill="#cb4844"/></g><g><path d="m28.54463 39.38109-.00701 2.16286-.09826.0571.00701-2.16286z" fill="#cb4844"/></g><g><path d="m28.18406 39.58936-.00701 2.16285-.09826.0571.00701-2.16285z" fill="#cb4844"/></g><g><path d="m27.82349 39.79762-.00701 2.16285-.09826.0571.00701-2.16285z" fill="#cb4844"/></g><g><path d="m27.46292 40.00588-.00701 2.16285-.09826.0571.00701-2.16285z" fill="#cb4844"/></g></g><g><g><path d="m24.96822 38.99295.00701 2.16286.09827.0571-.00701-2.16285z" fill="#b4403c"/></g><g><path d="m25.32879 39.20121.00701 2.16286.09827.0571-.00701-2.16285z" fill="#b4403c"/></g><g><path d="m25.68936 39.40948.00701 2.16285.09827.05711-.00702-2.16286z" fill="#b4403c"/></g><g><path d="m26.04993 39.61774.00701 2.16285.09826.05711-.00701-2.16286z" fill="#b4403c"/></g><g><path d="m26.4105 39.826.00701 2.16285.09826.05711-.00701-2.16286z" fill="#b4403c"/></g><g><path d="m26.77107 40.03426.00701 2.16286.09826.0571-.00701-2.16285z" fill="#b4403c"/></g></g></g></g><g><g><g><g enable-background="new"><g><path d="m45.49502 28.99398-.00701 2.47334-2.35941 1.37113.00702-2.47334z" fill="#cb4844"/></g><g><path d="m43.13562 30.36511-.00702 2.47334-4.86559-2.80915.00701-2.47334z" fill="#ee5550"/></g><g><path d="m45.49502 28.99398-2.3594 1.37113-4.8656-2.80915 2.3594-1.37114z" fill="#f17572"/><g><path d="m45.27222 29.03373.0678-.03942-4.71062-2.71976-2.20447 1.2812.06783.03911 2.13664-1.24178z" fill="#cb4844"/><path d="m45.27222 29.03373-4.64282-2.68065-2.13664 1.24178 4.64295 2.6805z" fill="#ee5550"/></g></g></g></g><g><g><path d="m38.44434 27.79937.00701 2.16285.09826.05711-.00701-2.16286z" fill="#cb4844"/></g><g><path d="m38.80491 28.00763.00701 2.16285.09826.05711-.00701-2.16286z" fill="#cb4844"/></g><g><path d="m39.16548 28.21589.00701 2.16286.09826.0571-.00701-2.16286z" fill="#cb4844"/></g><g><path d="m39.52605 28.42415.00701 2.16286.09826.0571-.00701-2.16286z" fill="#cb4844"/></g><g><path d="m39.88662 28.63241.00701 2.16286.09826.0571-.00701-2.16285z" fill="#cb4844"/></g><g><path d="m40.24718 28.84068.00702 2.16285.09826.0571-.00701-2.16285z" fill="#cb4844"/></g><g><path d="m40.60775 29.04894.00702 2.16285.09826.0571-.00701-2.16285z" fill="#cb4844"/></g><g><path d="m40.96832 29.2572.00701 2.16285.09827.05711-.00701-2.16286z" fill="#cb4844"/></g><g><path d="m41.32889 29.46546.00701 2.16285.09827.05711-.00702-2.16286z" fill="#cb4844"/></g><g><path d="m41.68946 29.67372.00701 2.16285.09826.05711-.00701-2.16286z" fill="#cb4844"/></g><g><path d="m42.05003 29.88198.00701 2.16286.09826.0571-.00701-2.16285z" fill="#cb4844"/></g><g><path d="m42.4106 30.09024.00701 2.16286.09826.0571-.00701-2.16285z" fill="#cb4844"/></g><g><path d="m42.77117 30.2985.00701 2.16286.09826.0571-.00701-2.16285z" fill="#cb4844"/></g></g><g><g><path d="m45.26587 29.28558-.00701 2.16286-.09827.0571.00702-2.16285z" fill="#b4403c"/></g><g><path d="m44.9053 29.49384-.00701 2.16286-.09826.0571.00701-2.16285z" fill="#b4403c"/></g><g><path d="m44.54473 29.7021-.00701 2.16286-.09826.0571.00701-2.16285z" fill="#b4403c"/></g><g><path d="m44.18416 29.91037-.00701 2.16285-.09826.05711.00701-2.16286z" fill="#b4403c"/></g><g><path d="m43.82359 30.11863-.00701 2.16285-.09826.0571.00701-2.16285z" fill="#b4403c"/></g><g><path d="m43.46302 30.32689-.00701 2.16285-.09826.05711.00702-2.16286z" fill="#b4403c"/></g></g></g><g><g><g enable-background="new"><g><path d="m42.88676 30.54297-.00701 2.47334-2.35941 1.37114.00702-2.47334z" fill="#cb4844"/></g><g><path d="m40.52736 31.91411-.00702 2.47334-4.86559-2.80916.00701-2.47334z" fill="#ee5550"/></g><g><path d="m42.88676 30.54297-2.3594 1.37114-4.8656-2.80916 2.3594-1.37113z" fill="#f17572"/><g><path d="m42.66396 30.58273.06781-.03942-4.71063-2.71976-2.20446 1.2812.06782.03911 2.13664-1.24179z" fill="#cb4844"/><path d="m42.66396 30.58273-4.64282-2.68066-2.13664 1.24179 4.64295 2.6805z" fill="#ee5550"/></g></g></g></g><g><g><path d="m35.83608 29.34836.00701 2.16286.09827.0571-.00701-2.16285z" fill="#cb4844"/></g><g><path d="m36.19665 29.55663.00701 2.16285.09827.0571-.00702-2.16285z" fill="#cb4844"/></g><g><path d="m36.55722 29.76489.00701 2.16285.09826.0571-.00701-2.16285z" fill="#cb4844"/></g><g><path d="m36.91779 29.97315.00701 2.16285.09826.05711-.00701-2.16286z" fill="#cb4844"/></g><g><path d="m37.27836 30.18141.00701 2.16285.09826.05711-.00701-2.16286z" fill="#cb4844"/></g><g><path d="m37.63893 30.38967.00701 2.16285.09826.05711-.00701-2.16286z" fill="#cb4844"/></g><g><path d="m37.9995 30.59793.00701 2.16286.09826.0571-.00701-2.16285z" fill="#cb4844"/></g><g><path d="m38.36007 30.80619.00701 2.16286.09826.0571-.00701-2.16285z" fill="#cb4844"/></g><g><path d="m38.72063 31.01445.00702 2.16286.09826.0571-.00702-2.16285z" fill="#cb4844"/></g><g><path d="m39.0812 31.22272.00701 2.16285.09827.0571-.00702-2.16285z" fill="#cb4844"/></g><g><path d="m39.44177 31.43098.00701 2.16285.09827.05711-.00702-2.16286z" fill="#cb4844"/></g><g><path d="m39.80234 31.63924.00701 2.16285.09827.05711-.00702-2.16286z" fill="#cb4844"/></g><g><path d="m40.16291 31.8475.00701 2.16286.09826.0571-.00701-2.16286z" fill="#cb4844"/></g></g><g><g><path d="m42.65761 30.83458-.00701 2.16285-.09826.0571.00701-2.16285z" fill="#b4403c"/></g><g><path d="m42.29704 31.04284-.00701 2.16285-.09826.05711.00701-2.16286z" fill="#b4403c"/></g><g><path d="m41.93647 31.2511-.00701 2.16286-.09826.0571.00701-2.16286z" fill="#b4403c"/></g><g><path d="m41.5759 31.45936-.00701 2.16286-.09826.0571.00701-2.16286z" fill="#b4403c"/></g><g><path d="m41.21534 31.66762-.00702 2.16286-.09826.0571.00701-2.16285z" fill="#b4403c"/></g><g><path d="m40.85477 31.87589-.00701 2.16285-.09827.0571.00701-2.16285z" fill="#b4403c"/></g></g></g><g><g><g enable-background="new"><g><path d="m40.2785 32.09197-.00701 2.47334-2.3594 1.37113.00701-2.47334z" fill="#cb4844"/></g><g><path d="m37.9191 33.4631-.00701 2.47334-4.8656-2.80915.00701-2.47334z" fill="#ee5550"/></g><g><path d="m40.2785 32.09197-2.3594 1.37113-4.8656-2.80915 2.3594-1.37114z" fill="#f17572"/><g><path d="m40.0557 32.13172.0678-.03942-4.71062-2.71976-2.20446 1.2812.06782.03911 2.13664-1.24178z" fill="#cb4844"/><path d="m40.0557 32.13172-4.64282-2.68065-2.13664 1.24178 4.64295 2.68051z" fill="#ee5550"/></g></g></g></g><g><g><path d="m33.22782 30.89736.00702 2.16285.09826.05711-.00702-2.16286z" fill="#cb4844"/></g><g><path d="m33.58839 31.10562.00702 2.16285.09825.05711-.00701-2.16286z" fill="#cb4844"/></g><g><path d="m33.94896 31.31388.00701 2.16286.09826.0571-.00701-2.16285z" fill="#cb4844"/></g><g><path d="m34.30953 31.52214.00701 2.16286.09826.0571-.00701-2.16285z" fill="#cb4844"/></g><g><path d="m34.6701 31.7304.00701 2.16286.09826.0571-.00701-2.16285z" fill="#cb4844"/></g><g><path d="m35.03067 31.93867.00701 2.16285.09826.0571-.00701-2.16285z" fill="#cb4844"/></g><g><path d="m35.39124 32.14693.00701 2.16285.09826.05711-.00701-2.16286z" fill="#cb4844"/></g><g><path d="m35.7518 32.35519.00702 2.16285.09826.05711-.00701-2.16286z" fill="#cb4844"/></g><g><path d="m36.11237 32.56345.00701 2.16285.09827.05711-.00701-2.16286z" fill="#cb4844"/></g><g><path d="m36.47294 32.77171.00701 2.16286.09827.0571-.00701-2.16285z" fill="#cb4844"/></g><g><path d="m36.83351 32.97997.00701 2.16286.09827.0571-.00702-2.16285z" fill="#cb4844"/></g><g><path d="m37.19408 33.18823.00701 2.16286.09826.0571-.00701-2.16285z" fill="#cb4844"/></g><g><path d="m37.55465 33.3965.00701 2.16285.09826.05711-.00701-2.16286z" fill="#cb4844"/></g></g><g><g><path d="m40.04935 32.38357-.00701 2.16286-.09826.0571.00701-2.16285z" fill="#b4403c"/></g><g><path d="m39.68878 32.59184-.00701 2.16285-.09826.0571.00701-2.16285z" fill="#b4403c"/></g><g><path d="m39.32821 32.80009-.00701 2.16286-.09826.0571.00701-2.16285z" fill="#b4403c"/></g><g><path d="m38.96764 33.00836-.00701 2.16285-.09826.05711.00701-2.16286z" fill="#b4403c"/></g><g><path d="m38.60707 33.21662-.00701 2.16285-.09826.05711.00702-2.16286z" fill="#b4403c"/></g><g><path d="m38.24651 33.42488-.00702 2.16285-.09826.05711.00702-2.16286z" fill="#b4403c"/></g></g></g></g><g><g><g><g enable-background="new"><g><path d="m45.49502 26.24757-.00701 2.47334-2.35941 1.37113.00702-2.47334z" fill="#cb4844"/></g><g><path d="m43.13562 27.6187-.00702 2.47334-4.86559-2.80915.00701-2.47334z" fill="#ee5550"/></g><g><path d="m45.49502 26.24757-2.3594 1.37113-4.8656-2.80915 2.3594-1.37114z" fill="#f17572"/><g><path d="m45.27222 26.28732.0678-.03942-4.71062-2.71976-2.20447 1.2812.06783.03911 2.13664-1.24178z" fill="#cb4844"/><path d="m45.27222 26.28732-4.64282-2.68065-2.13664 1.24178 4.64295 2.6805z" fill="#ee5550"/></g></g></g></g><g><g><path d="m38.44434 25.05296.00701 2.16285.09826.0571-.00701-2.16285z" fill="#cb4844"/></g><g><path d="m38.80491 25.26122.00701 2.16285.09826.05711-.00701-2.16286z" fill="#cb4844"/></g><g><path d="m39.16548 25.46948.00701 2.16285.09826.05711-.00701-2.16286z" fill="#cb4844"/></g><g><path d="m39.52605 25.67774.00701 2.16286.09826.0571-.00701-2.16286z" fill="#cb4844"/></g><g><path d="m39.88662 25.886.00701 2.16286.09826.0571-.00701-2.16285z" fill="#cb4844"/></g><g><path d="m40.24718 26.09426.00702 2.16286.09826.0571-.00701-2.16285z" fill="#cb4844"/></g><g><path d="m40.60775 26.30252.00702 2.16286.09826.0571-.00701-2.16285z" fill="#cb4844"/></g><g><path d="m40.96832 26.51079.00701 2.16285.09827.05711-.00701-2.16286z" fill="#cb4844"/></g><g><path d="m41.32889 26.71905.00701 2.16285.09827.0571-.00702-2.16285z" fill="#cb4844"/></g><g><path d="m41.68946 26.92731.00701 2.16285.09826.05711-.00701-2.16286z" fill="#cb4844"/></g><g><path d="m42.05003 27.13557.00701 2.16286.09826.0571-.00701-2.16286z" fill="#cb4844"/></g><g><path d="m42.4106 27.34383.00701 2.16286.09826.0571-.00701-2.16286z" fill="#cb4844"/></g><g><path d="m42.77117 27.55209.00701 2.16286.09826.0571-.00701-2.16285z" fill="#cb4844"/></g></g><g><g><path d="m45.26587 26.53917-.00701 2.16285-.09827.05711.00702-2.16286z" fill="#b4403c"/></g><g><path d="m44.9053 26.74743-.00701 2.16286-.09826.0571.00701-2.16286z" fill="#b4403c"/></g><g><path d="m44.54473 26.95569-.00701 2.16286-.09826.0571.00701-2.16285z" fill="#b4403c"/></g><g><path d="m44.18416 27.16395-.00701 2.16286-.09826.0571.00701-2.16285z" fill="#b4403c"/></g><g><path d="m43.82359 27.37222-.00701 2.16285-.09826.0571.00701-2.16285z" fill="#b4403c"/></g><g><path d="m43.46302 27.58048-.00701 2.16285-.09826.05711.00702-2.16286z" fill="#b4403c"/></g></g></g><g><g><g enable-background="new"><g><path d="m42.88676 27.79656-.00701 2.47334-2.35941 1.37114.00702-2.47334z" fill="#cb4844"/></g><g><path d="m40.52736 29.1677-.00702 2.47334-4.86559-2.80916.00701-2.47334z" fill="#ee5550"/></g><g><path d="m42.88676 27.79656-2.3594 1.37114-4.8656-2.80916 2.3594-1.37113z" fill="#f17572"/><g><path d="m42.66396 27.83632.06781-.03942-4.71063-2.71977-2.20446 1.2812.06782.03912 2.13664-1.24179z" fill="#cb4844"/><path d="m42.66396 27.83632-4.64282-2.68066-2.13664 1.24179 4.64295 2.6805z" fill="#ee5550"/></g></g></g></g><g><g><path d="m35.83608 26.60195.00701 2.16286.09827.0571-.00701-2.16285z" fill="#cb4844"/></g><g><path d="m36.19665 26.81021.00701 2.16286.09827.0571-.00702-2.16285z" fill="#cb4844"/></g><g><path d="m36.55722 27.01847.00701 2.16286.09826.0571-.00701-2.16285z" fill="#cb4844"/></g><g><path d="m36.91779 27.22674.00701 2.16285.09826.0571-.00701-2.16285z" fill="#cb4844"/></g><g><path d="m37.27836 27.435.00701 2.16285.09826.0571-.00701-2.16285z" fill="#cb4844"/></g><g><path d="m37.63893 27.64326.00701 2.16285.09826.05711-.00701-2.16286z" fill="#cb4844"/></g><g><path d="m37.9995 27.85152.00701 2.16286.09826.0571-.00701-2.16286z" fill="#cb4844"/></g><g><path d="m38.36007 28.05978.00701 2.16286.09826.0571-.00701-2.16286z" fill="#cb4844"/></g><g><path d="m38.72063 28.26804.00702 2.16286.09826.0571-.00702-2.16285z" fill="#cb4844"/></g><g><path d="m39.0812 28.47631.00701 2.16285.09827.0571-.00702-2.16285z" fill="#cb4844"/></g><g><path d="m39.44177 28.68457.00701 2.16285.09827.0571-.00702-2.16285z" fill="#cb4844"/></g><g><path d="m39.80234 28.89283.00701 2.16285.09827.05711-.00702-2.16286z" fill="#cb4844"/></g><g><path d="m40.16291 29.10109.00701 2.16285.09826.05711-.00701-2.16286z" fill="#cb4844"/></g></g><g><g><path d="m42.65761 28.08817-.00701 2.16285-.09826.0571.00701-2.16285z" fill="#b4403c"/></g><g><path d="m42.29704 28.29643-.00701 2.16285-.09826.05711.00701-2.16286z" fill="#b4403c"/></g><g><path d="m41.93647 28.50469-.00701 2.16285-.09826.05711.00701-2.16286z" fill="#b4403c"/></g><g><path d="m41.5759 28.71295-.00701 2.16285-.09826.05711.00701-2.16286z" fill="#b4403c"/></g><g><path d="m41.21534 28.92121-.00702 2.16286-.09826.0571.00701-2.16285z" fill="#b4403c"/></g><g><path d="m40.85477 29.12947-.00701 2.16286-.09827.0571.00701-2.16285z" fill="#b4403c"/></g></g></g><g><g><g enable-background="new"><g><path d="m40.2785 29.34556-.00701 2.47334-2.3594 1.37113.00701-2.47334z" fill="#cb4844"/></g><g><path d="m37.9191 30.71669-.00701 2.47334-4.8656-2.80915.00701-2.47334z" fill="#ee5550"/></g><g><path d="m40.2785 29.34556-2.3594 1.37113-4.8656-2.80915 2.3594-1.37114z" fill="#f17572"/><g><path d="m40.0557 29.38531.0678-.03942-4.71062-2.71976-2.20446 1.2812.06782.03911 2.13664-1.24178z" fill="#cb4844"/><path d="m40.0557 29.38531-4.64282-2.68065-2.13664 1.24178 4.64295 2.6805z" fill="#ee5550"/></g></g></g></g><g><g><path d="m33.22782 28.15095.00702 2.16285.09826.0571-.00702-2.16285z" fill="#cb4844"/></g><g><path d="m33.58839 28.35921.00702 2.16285.09825.05711-.00701-2.16286z" fill="#cb4844"/></g><g><path d="m33.94896 28.56747.00701 2.16286.09826.0571-.00701-2.16286z" fill="#cb4844"/></g><g><path d="m34.30953 28.77573.00701 2.16286.09826.0571-.00701-2.16286z" fill="#cb4844"/></g><g><path d="m34.6701 28.98399.00701 2.16286.09826.0571-.00701-2.16285z" fill="#cb4844"/></g><g><path d="m35.03067 29.19226.00701 2.16285.09826.0571-.00701-2.16285z" fill="#cb4844"/></g><g><path d="m35.39124 29.40052.00701 2.16285.09826.0571-.00701-2.16285z" fill="#cb4844"/></g><g><path d="m35.7518 29.60878.00702 2.16285.09826.05711-.00701-2.16286z" fill="#cb4844"/></g><g><path d="m36.11237 29.81704.00701 2.16285.09827.05711-.00701-2.16286z" fill="#cb4844"/></g><g><path d="m36.47294 30.0253.00701 2.16286.09827.0571-.00701-2.16286z" fill="#cb4844"/></g><g><path d="m36.83351 30.23356.00701 2.16286.09827.0571-.00702-2.16286z" fill="#cb4844"/></g><g><path d="m37.19408 30.44182.00701 2.16286.09826.0571-.00701-2.16285z" fill="#cb4844"/></g><g><path d="m37.55465 30.65008.00701 2.16286.09826.0571-.00701-2.16285z" fill="#cb4844"/></g></g><g><g><path d="m40.04935 29.63716-.00701 2.16286-.09826.0571.00701-2.16285z" fill="#b4403c"/></g><g><path d="m39.68878 29.84542-.00701 2.16286-.09826.0571.00701-2.16285z" fill="#b4403c"/></g><g><path d="m39.32821 30.05368-.00701 2.16286-.09826.0571.00701-2.16285z" fill="#b4403c"/></g><g><path d="m38.96764 30.26195-.00701 2.16285-.09826.0571.00701-2.16285z" fill="#b4403c"/></g><g><path d="m38.60707 30.47021-.00701 2.16285-.09826.05711.00702-2.16286z" fill="#b4403c"/></g><g><path d="m38.24651 30.67847-.00702 2.16285-.09826.05711.00702-2.16286z" fill="#b4403c"/></g></g></g></g></g></svg>