<svg id="Layer_1" enable-background="new 0 0 52 52" height="512" viewBox="0 0 52 52" width="512" xmlns="http://www.w3.org/2000/svg"><g><g><g><g><path d="m2 20.47752.00954 2.71739c0 .26674.17385.53109.52397.73352l29.31722 17.03784c.7002.40724 1.84572.40724 2.55069 0l15.06745-8.6983c.35485-.20481.53347-.47393.53112-.74544l-.00715-2.71738c0 .26911-.17624.54061-.53109.74542l-15.06748 8.6983c-.70497.40726-1.85049.40726-2.55305 0l-29.31725-17.03782c-.34771-.20244-.52159-.46679-.52397-.73353z" fill="#d4d6d6"/></g><g><path d="m2.53299 19.73321c-.70554.40735-.71078 1.07016-.00832 1.47839l29.31767 17.03757c.70096.40735 1.84675.40736 2.5523.00001l15.06656-8.69908c.70554-.40734.70928-1.07103.00832-1.47839l-29.31767-17.03756c-.70246-.40823-1.84676-.40736-2.5523-.00001z" fill="#5b5e71"/></g><g><path d="m2.70143 19.74374c-.6143.35467-.61753.92881-.00721 1.28349l29.31766 17.03757c.6088.3538 1.60152.35468 2.21582.00001l15.06506-8.6982c.6143-.35467.61603-.92969.00722-1.28349l-29.31766-17.03756c-.61032-.35468-1.60153-.35468-2.21584-.00002z" fill="#5b5e71"/></g><g><g><path d="m8.67117 17.45272c-.20071.11588-.20329.30287-.00387.41876.20091.11676.52526.11676.72597.00088s.20177-.30375.00086-.42051c-.19942-.11589-.52225-.11501-.72296.00087z" fill="#d4d6d6"/></g><g><path d="m9.94413 16.94179.33537.19489 4.26517-2.46249-.33538-.1949z" fill="#d4d6d6"/></g><g><path d="m14.71868 14.18519.33538.19491.86672-.50041-.33538-.19489z" fill="#d4d6d6"/></g><g enable-background="new"><g><path d="m39.27784 32.68503c-.43945.25372-.44176.66457-.00518.91829.43507.25283 1.14438.25285 1.58383-.00087l1.8855-1.08859c.4379-.25283.44023-.66369.00516-.91653-.43659-.25372-1.1459-.25371-1.58381-.00088z" fill="#d4d6d6"/></g><g><path d="m46.92118 27.29166-16.27301 9.39014-24.82359-14.42228-.75906-.44108 16.27302-9.39014z" fill="#2ecc71"/></g></g></g></g><g><path d="m9.79264 26.05893-2.39738-1.38413c-.13623-.07865-.25874-.08647-.34755-.03487l-.28733.16698c.08879-.05159.21131-.04377.34753.03487l2.39737 1.38413c.2716.15679.48952.53528.48865.84635-.00045.15466-.05489.26358-.14292.31473l.28734-.16699c.08802-.05115.14247-.16007.1429-.31473.00091-.31107-.21704-.68954-.48861-.84634z" fill="#474b59"/><g><path d="m9.50529 26.22591c.27158.1568.48952.53528.48863.84635-.00088.31107-.22024.43708-.49183.28028l-2.39738-1.38413c-.27158-.1568-.48952-.53528-.48863-.84635.00044-.15553.05464-.26605.14429-.31516.08879-.0516.21131-.04378.34754.03487z" fill="#5b5e71"/></g><g><path d="m10.92448 27.21487.28735-.16698.00332-.0019-.28735.16699z" fill="#30b265"/></g><path d="m13.96093 28.46549-2.39824-1.38462c-.13537-.07815-.25786-.08597-.34755-.03487l-.28733.16698c.08965-.0511.21218-.04328.34753.03487l2.39823 1.38462c.27072.1563.48952.53528.48865.84636-.00045.15453-.05501.26327-.14303.31442l.28736-.16699c.08799-.05115.14257-.15989.143-.31442.00089-.31107-.21792-.69005-.48862-.84635z" fill="#474b59"/><g><path d="m13.67358 28.63247c.27071.1563.48952.53528.48863.84635-.00088.31107-.22112.43657-.49183.28028l-2.39824-1.38462c-.27071-.1563-.48953-.53529-.48865-.84635.00044-.15553.05551-.26555.1443-.31515.08966-.0511.21217-.04328.34754.03487z" fill="#5b5e71"/></g></g></g><g><g><g><g><path d="m47.19749 27.45223-16.27471 9.39621-25.85726-15.0266 16.27471-9.39621zm-16.27117 8.76855 2.89475-1.67129-13.55481-14.56146-6.69639.94149 6.79624 9.15434zm-9.58966-23.1599-4.32246 2.49557 8.38985 9.01064 14.15112-.91877zm24.77067 14.39514-5.86246-3.40689-14.45151.94147 8.59749 9.22994zm-27.21172 1.77328-6.08357-8.19391-6.44818.91125zm-12.03919-7.80825 13.02695-1.83761-3.43895-3.69802z" fill="#fff"/><path d="m6.85643 21.42106 13.02695-1.83761-3.43896-3.69802z" fill="#84dbff"/><path d="m17.0142 15.55647 8.38985 9.01063 14.15111-.91877-18.2185-10.58744z" fill="#2ecc71"/><path d="m13.56986 20.92953 6.79624 9.15433 10.56023 6.13693 2.89475-1.67128-13.55483-14.56147z" fill="#e0e2e2"/><path d="m46.10997 27.45207-11.71424 6.77004-8.60621-9.23191 14.45309-.94369z" fill="#ffc3e5"/><path d="m6.36386 21.94665 12.53175 7.28265-6.08358-8.1939z" fill="#f1c40f"/></g></g></g><g><path d="m22.60196 28.61703c-.43632.25191-.44639.66126-.00517.91768.43348.25191 1.14022.24742 1.57654-.00449.44411-.25641.45418-.66576.0207-.91768-.44122-.25641-1.14796-.25191-1.59207.00449z" fill="#525566"/></g><g><g enable-background="new"><g><path d="m24.1694 26.41903c.00235.50541-.35496 1.1213-.79455 1.37518-.22097.12693-.42077.13868-.56652.05641l-.33145-.19276c.14574.08462.34555.07287.56652-.05642.43958-.25388.7969-.86977.79455-1.37518 0-.24918-.08933-.42548-.23272-.5101l.33145.19276c.14339.08463.23272.25858.23272.51011z" fill="#c44"/></g><g><path d="m24.27048 25.33535c-.23037-.13399-.55006-.11518-.90267.08933-.69817.40432-1.26704 1.38223-1.26469 2.18617.00235.73107.9967 1.37518 1.22942 1.51622l-.28443-.16455c-.06347-.0376-1.2741-.73813-1.27644-1.54443 0-.80394.56652-1.78184 1.26468-2.18617.35261-.20451.67232-.22332.90269-.08933z" fill="#c44"/></g><g><path d="m23.36827 25.42488c.7009-.40466 1.26857-.08117 1.27085.72249.00228.80539-1.19714 2.89769-1.26027 3.00781-.06362-.03694-1.27239-.73887-1.27468-1.54426-.00228-.80366.5647-1.78225 1.2641-2.18604zm.00672 2.36959c.43975-.25389.79579-.87058.79436-1.37588-.00143-.50358-.35979-.70781-.79955-.45392-.43975.25389-.79579.87058-.79436 1.37416.00143.50531.35979.70953.79955.45564" fill="#e74c3c"/></g></g></g><g><path d="m22.88469 18.0486c-.43632.25191-.44639.66127-.00517.91768.43348.25191 1.14022.24742 1.57654-.00449.44411-.25641.45418-.66576.0207-.91768-.44122-.25642-1.14796-.25192-1.59207.00449z" fill="#525566"/></g><g><g enable-background="new"><g><path d="m24.45213 15.85059c.00235.50541-.35496 1.1213-.79455 1.37518-.22097.12693-.42077.13869-.56652.05642l-.33145-.19276c.14574.08462.34555.07287.56652-.05642.43958-.25388.7969-.86977.79455-1.37518 0-.24918-.08933-.42548-.23272-.5101l.33145.19276c.14339.08462.23272.25857.23272.5101z" fill="#c44"/></g><g><path d="m24.55321 14.76691c-.23037-.13399-.55006-.11518-.90267.08933-.69817.40432-1.26704 1.38223-1.26469 2.18617.00235.73107.9967 1.37518 1.22942 1.51622l-.28443-.16455c-.06347-.03761-1.2741-.73813-1.27644-1.54443 0-.80394.56652-1.78184 1.26468-2.18617.35261-.20451.67232-.22332.90269-.08933z" fill="#c44"/></g><g><path d="m23.651 14.85644c.7009-.40466 1.26856-.08117 1.27084.72249.00228.80539-1.19714 2.89769-1.26027 3.00781-.06362-.03694-1.27239-.73887-1.27468-1.54426-.00227-.80366.56471-1.78224 1.26411-2.18604zm.00672 2.3696c.43975-.25389.79579-.87058.79436-1.37588-.00143-.50358-.35979-.70781-.79955-.45392-.43975.25389-.79579.87058-.79436 1.37416.00143.5053.3598.70953.79955.45564" fill="#e74c3c"/></g></g></g><g><path d="m41.03227 26.26884-.00843 2.66452-2.41247 1.40197.00843-2.66451z" fill="#d6b218"/><path d="m38.62119 27.67154-.00796 2.66534-1.05737-.61047-.31123-.17955-1.06134-.61446.00799-2.66137v-.00397h.00399l1.05335.61046.23942.13967.07182.03989z" fill="#e5bd13"/><path d="m41.03284 26.27051-2.41305 1.40194-1.06075-.61413-.30708-.17369-.00619-.00309-1.05455-.61103 2.41307-1.40194 1.06075.61103.0031.00311.30396.17368z" fill="#f1c40f"/><g fill="#d6b218"><path d="m39.9721 25.65639-2.41306 1.40193-.30708-.17369-.00619-.00309 2.41927-1.40194.0031.00311z"/><path d="m37.55986 27.05708-.004 2.66933-.31123-.17955.00399-2.66534.23942.13567z"/></g><g><path d="m37.24463 25.65639 2.41305 1.40193.30708-.17369.00619-.00309-2.41926-1.40194-.00311.00311z" fill="#e5bd13"/><path d="m39.65686 27.05708.004 2.66933.31124-.17955-.004-2.66534-.23942.13567z" fill="#c6a51a"/></g><g><g><path d="m38.30983 28.92365-.10329.19653.06397.03693.14115.08089z" fill="#3f434f"/></g><g><path d="m38.27051 29.15711-.0011.38877.07718.04456.0011-.38877z" fill="#3f434f"/></g><g><path d="m37.8871 29.35984-.00024.08322.53288.30766.00024-.08322z" fill="#3f434f"/></g><g><path d="m36.49523 28.03001-.00079.277c-.00025.08747.0503.18906.1174.24058l-.00071.24967c-.04707-.0217-.08255-.01967-.08263.00645l.20776.11995c.00008-.02612-.03528-.06905-.08231-.10168l.00071-.24966c.03068.01223.05716.00927.07785-.00373.02441-.01815.04039-.05213.04053-.10073l.00079-.277z" fill="#3f434f"/></g><g><path d="m37.96178 28.97886-.00111.38878.07719.04456.0011-.38877z" fill="#3f434f"/></g><g><path d="m38.00056 28.7451-.10275.19683.06397.03693.14062.08059z" fill="#3f434f"/></g></g><g><path d="m40.80852 28.19848v.52256l-.62395.35875-.00388-.51865z" fill="#fff"/></g></g></g></g></svg>