<svg id="Layer_1" enable-background="new 0 0 50 50" height="512" viewBox="0 0 50 50" width="512" xmlns="http://www.w3.org/2000/svg"><g><g><g><g><g><g enable-background="new"><g><path d="m35.82153 34.60324-.02593 9.14592-9.03509 5.25063.02593-9.14593z" fill="#d8b441"/></g><g><path d="m35.82153 40.98467-.02593 1.75036-9.03509 5.25062.02593-1.75036z" fill="#be9e39"/></g><g><path d="m26.78644 39.85386-.02593 9.14593-14.08467-8.13179.02593-9.14593z" fill="#fed44c"/></g><g><path d="m26.78644 46.23529-.02593 1.75036-14.08467-8.13179.02593-1.75036z" fill="#d8b441"/></g><g><path d="m35.82153 34.60324-9.03509 5.25062-14.08467-8.13179 9.03509-5.25062z" fill="#fee182"/><path d="m15.37466 32.65036 11.41209 6.58764 6.35787-3.69713-11.40673-6.58764z" fill="#be9e39"/></g></g></g><g><path d="m13.76649 31.7206 1.60817.92976 6.36323-3.69713v-1.86474z" fill="#d8b441"/><path d="m21.73789 27.08849v1.86474l11.40673 6.58764 1.60818-.93498z" fill="#fed44c"/></g></g><g><g enable-background="new"><g><path d="m27.73133 35.04344-.00166.58706-1.66275.96629.00166-.58706z" fill="#485f69"/></g><g><path d="m26.06858 36.00973-.00166.58706-5.03026-2.90422.00167-.58706z" fill="#56707b"/></g><g><path d="m27.73133 35.04344-1.66275.96629-5.03025-2.90422 1.66275-.96628z" fill="#778c95"/></g></g></g><g><g enable-background="new"><g><path d="m19.82934 27.812.50757-.29497 4.26655 5.86624-.50757.29496z" fill="#40545d"/></g><g><path d="m19.08445 27.38194.50757-.29497 4.65579-1.00861-.50758.29497z" fill="#778c95"/></g><g><path d="m23.74023 26.37333.50758-.29497.3749.51563-.50757.29497z" fill="#40545d"/></g><g><path d="m19.85026 20.43108.50758-.29497 4.26656 5.86078-.50757.29497z" fill="#40545d"/></g><g><path d="m24.11514 26.88896.50757-.29497.37729-.08136-.50757.29497z" fill="#778c95"/></g><g><path d="m24.09589 33.67823.50757-.29496 4.29042-.92587-.50758.29497z" fill="#778c95"/></g><g><path d="m24.49243 26.8076.50757-.29497 4.64335 6.37748-.50757.29497z" fill="#40545d"/></g><g><path d="m24.49243 26.8076 4.64335 6.37748-5.04157 1.0848-5.00976-6.88794 4.65578-1.00861.37491.51563-4.2858.92304 4.26655 5.86623 4.29041-.92586-4.27116-5.86341z" fill="#485f69"/></g><g><path d="m19.10537 20.00102.50758-.29497 4.65912-1.00928-.50758.29497z" fill="#778c95"/></g><g><path d="m23.76449 18.99174.50758-.29497.37158.51084-.50757.29497z" fill="#40545d"/></g><g><path d="m19.8712 13.04472.50758-.29497 4.26655 5.86593-.50757.29497z" fill="#40545d"/></g><g><path d="m24.13608 19.50258.50757-.29497.37394-.08041-.50757.29497z" fill="#778c95"/></g><g><path d="m24.11683 26.29186.50757-.29497 4.2904-.92041-.50757.29497z" fill="#778c95"/></g><g><path d="m24.51002 19.42217 4.64668 6.38199-4.66427 1.00344-.37729.08136-.37491-.51563-4.63486-6.37231 4.65912-1.00928.37159.51084-4.28582.9285 4.26657 5.86078 4.2904-.92041-4.27115-5.86887z" fill="#485f69"/></g><g><path d="m24.51002 19.42217.50757-.29497 4.64669 6.38199-.50758.29497z" fill="#40545d"/></g><g><path d="m19.12631 12.61466.50758-.29497 5.03236-1.08493-.50757.29497z" fill="#778c95"/></g><g><path d="m24.13776 18.91065.50757-.29497 4.29041-.92556-.50757.29497z" fill="#778c95"/></g><g><path d="m24.15868 11.52973 5.01896 6.88806-4.66763 1.00437-.37394.08041-.37158-.51084-4.63818-6.37708zm-.02092 7.38092 4.29041-.92556-4.27117-5.86371-4.2858.92335z" fill="#485f69"/></g><g><path d="m24.15868 11.52973.50757-.29497 5.01897 6.88807-.50758.29497z" fill="#778c95"/></g></g></g></g><g><g><path d="m39.61385 11.44052-11.33152 6.57869-17.88695-10.32488 11.32566-6.58469z" fill="#9aa1a5"/></g><g><g enable-background="new"><g><path d="m21.72572 1.58835-.00947 3.33984-10.50318 6.10378.00946-3.33984z" fill="#b0b8bc"/></g><g><path d="m38.78503 11.43755-.00947 3.33984-17.05931-9.8492.00947-3.33984z" fill="#cfd8dd"/></g><g><path d="m28.28452 18.02031-.00947 3.33984-17.8889-10.32816.00947-3.33984z" fill="#cfd8dd"/></g><g><path d="m39.61193 11.43754-.00947 3.33984-11.32741 6.58277.00947-3.33984z" fill="#b0b8bc"/></g></g></g></g></g><g><path d="m21.71926 1.10896 17.8889 10.32816-11.32741 6.58277-17.88891-10.32816zm6.55881 16.43195 10.50318-6.10378-17.05931-9.8492-10.50318 6.10379z" fill="#dde4e7"/></g><g><g><g><g><g enable-background="new"><g><path d="m26.27314 4.50015-.01281 5.62888-5.03045 2.98602.01281-5.62888z" fill="#d9ae6d"/></g><g><path d="m21.24269 7.48617-.01281 5.62888-5.93438-3.49963.01281-5.62888z" fill="#fecd82"/></g><g><path d="m26.27231 4.49913-.44825.26623-1.94624 1.15637-.24014.14258-2.03315 1.2077-.35448.21022-.00687.00467-5.8616-3.45497-.07319-.04437.42539-.25231 2.16121-1.28481.24015-.14246 1.9348-1.14702.26987-.16117.02288.01403 5.8433 3.44562z" fill="#ffd69a"/></g></g></g></g><g><path d="m16.07515 8.2494c.0149.00879.02753.03201.02748.04952l-.00006.02097c.26596.17524.4792.52351.55053.90719-.01773-.06388-.05565-.11689-.09663-.14192-.04322-.02549-.07981-.01641-.09858.02067-.01924-.05949-.05343-.11121-.09665-.13755-.04322-.02549-.07832-.01553-.09709.02245-.01924-.06039-.05492-.11299-.09813-.13848-.02847-.01684-.05059-.01848-.0679-.00587l-.00549.63276c-.00109.12321-.08781.1742-.19448.11129-.10718-.06406-.19407-.21957-.19298-.34331l.00094-.06955c.00005-.01922.01351-.02706.0299-.01739.0149.00969.02827.03245.02747.05213l-.00019.06994c-.00099.08615.05991.19478.13443.23963.07452.04394.13582.00862.1368-.07792l.00548-.63271c-.01782-.03418-.04238-.06006-.06771-.075-.04349-.02564-.07933-.01632-.09783.02115-.01998-.06083-.05566-.11338-.09739-.13799-.04247-.02505-.07907-.01598-.09784.02461-.01774-.06302-.05416-.11516-.09663-.14106-.04322-.02549-.07981-.01641-.09859.02508.07695-.29629.29589-.38703.56044-.24242l.00006-.02187c.00079-.01703.0135-.02446.03064-.01435z" fill="#40545d"/></g><g><path d="m25.82406 4.76536-3.10805.42294 1.16181.73343-.24014.14258-1.22126-.76856-.81189 1.97626-.35448.21022.95139-2.32199-2.60718-1.63988-4.21268.51157-.07319-.04437.42539-.25231 3.52428-.42511-1.36307-.8597.24015-.14246 1.40879.88764.52601-2.03466.26987-.16117.02288.01403-.59691 2.31959 2.61634 1.64695 3.82387-.52092.06632.03969z" fill="#fecd82"/></g><g><g><path d="m23.41124 7.63749-.00118.25206-1.7382 1.03178-.16979.10078.00119-.25206z" fill="#bf9960"/></g><g><path d="m25.09688 7.89728v.96277l1.16768-.69337.00228-.96386z" fill="#fecd82"/></g><g><path d="m23.41124 7.18151-.00118.25206-1.7382 1.03178-.16979.10078.00119-.25206z" fill="#bf9960"/></g><g><path d="m23.41124 6.72553-.00118.25206-1.7382 1.03178-.16979.10078.00119-.25206z" fill="#bf9960"/></g><g><path d="m22.81586 8.44692-1.3126.77914-.00119.25203.16979-.10075 1.144-.67907z" fill="#bf9960"/></g></g></g><g><path d="m19.43054 8.6537.00378-1.65778 1.30815.77145-.00379 1.65778z" fill="#fff"/><g><g><g enable-background="new"><g><path d="m19.77821 7.64513.16402.09673-.00063.22577-.16401-.09673zm.12575.24817.00034-.12171-.0882-.052-.00033.12171z" fill="#40545d"/></g><g><path d="m19.78131 7.40429-.00029.10436-.13979-.08244-.00053.18967-.07583-.04472.00082-.29403z" fill="#40545d"/></g></g><g><path d="m19.63871 8.33188-.00052.18967.13979.08243-.00029.10435-.21562-.12715.00081-.29402z" fill="#40545d"/></g><g><path d="m20.09808 8.50963-.00039.14076-.05136-.03029-.04822-.02843.0002-.07052.04821.02844.0002-.07025z" fill="#40545d"/></g><g enable-background="new"><g><path d="m19.77656 8.23972.16402.09673-.00063.22578-.16401-.09673zm.12574.24817.00034-.12141-.08819-.05201-.00034.12141z" fill="#40545d"/></g><g><path d="m19.99252 8.07085-.0002.07082-.11047-.06515-.00023.08131.11339.06687.00021-.07592.05136.03029-.00021.07592.05693.03357-.00019.07081-.05694-.03357-.00039.14103-.05136-.03029.00039-.14103-.11338-.06687-.05137-.03029-.05208-.03071.00019-.07082.05209.03072.00023-.08131.00019-.07082.05137.03029z" fill="#40545d"/></g></g><g><path d="m20.37701 8.29759-.00062.22294-.05136-.03029.00021-.07621-.06105-.036-.00021.07621-.05137-.03029.00021-.07621.0002-.07052.00021-.07621.05136.03029-.00021.07621.06106.03601.00021-.07621z" fill="#40545d"/></g><g><path d="m20.59171 7.8822-.00082.29402-.07583-.04471.00053-.18967-.13979-.08244.00029-.10436z" fill="#40545d"/></g><g><path d="m20.21309 7.90158.16402.09673-.00063.22578-.16402-.09672zm.12574.24818.00034-.12171-.08843-.05215-.00034.12171z" fill="#40545d"/></g><g><path d="m20.58891 8.89223-.00082.29402-.21562-.12716.00029-.10435.13979.08244.00052-.18967z" fill="#40545d"/></g><g><path d="m20.21144 8.49618.16402.09673-.00063.22578-.16402-.09673zm.12574.24816.00034-.12141-.08843-.05215-.00034.12141z" fill="#40545d"/></g><g><path d="m20.15592 7.86702-.00062.22264-.05136-.03029.00021-.07591-.04846-.02858.0002-.07081.04846.02858.00021-.07592z" fill="#40545d"/></g><g><path d="m20.15447 8.38966-.00039.14104-.05137-.03029.0004-.14104z" fill="#40545d"/></g><g><path d="m20.04615 7.80742-.00019.07079-.04846-.02857.0002-.0708z" fill="#40545d"/></g><g><path d="m20.20701 8.34431-.0002.07081-.04845-.02857.0002-.07081z" fill="#40545d"/></g><g><path d="m20.10394 8.05937-.00021.07706.05136.03029-.00043.15213-.05136-.03029.00023-.08132-.04846-.02857.00022-.07706-.04821-.02843.00019-.07081.04821.02843z" fill="#40545d"/></g></g><g><path d="m20.50363 8.41378-.00027.0963-.8956-.52816.00027-.09629z" fill="#ee5550"/></g></g></g></g><g><g><g><g><g enable-background="new"><g><path d="m34.09637 7.68321-.01281 5.62888-5.03045 2.98602.01281-5.62888z" fill="#d9ae6d"/></g><g><path d="m29.06592 10.66923-.01281 5.62888-5.93438-3.49963.01281-5.62888z" fill="#fecd82"/></g><g><path d="m34.09554 7.6822-.44824.26622-1.94625 1.15637-.24013.14258-2.03316 1.2077-.35448.21022-.00687.00468-5.8616-3.45498-.07319-.04437.4254-.25231 2.16121-1.2848.24015-.14247 1.9348-1.14702.26986-.16117.02288.01403 5.8433 3.44562z" fill="#ffd69a"/></g></g></g></g><g><path d="m23.89838 11.43246c.0149.00879.02753.03201.02748.04952l-.00006.02097c.26596.17524.4792.52351.55054.90719-.01774-.06388-.05565-.11689-.09663-.14192-.04322-.02549-.07981-.01641-.09858.02067-.01924-.05949-.05343-.11121-.09665-.13755-.04322-.02549-.07832-.01554-.09709.02245-.01924-.06039-.05492-.11299-.09813-.13848-.02847-.01684-.05059-.01848-.0679-.00587l-.00549.63276c-.00109.12321-.08782.1742-.19448.11129-.10718-.06406-.19407-.21957-.19298-.34331l.00094-.06955c.00005-.01922.01351-.02706.0299-.01739.0149.00969.02827.03245.02747.05213l-.00019.06994c-.00098.08615.05992.19478.13443.23963.07452.04394.13582.00862.1368-.07792l.00549-.63271c-.01782-.03418-.04238-.06006-.06771-.075-.04349-.02564-.07933-.01632-.09783.02115-.01998-.06083-.05566-.11338-.09739-.13799-.04247-.02505-.07907-.01597-.09784.02462-.01774-.06302-.05416-.11516-.09664-.14106-.04322-.02549-.07981-.01641-.09859.02508.07695-.29629.29589-.38703.56044-.24242l.00006-.02187c.00079-.01704.01349-.02446.03063-.01436z" fill="#40545d"/></g><g><path d="m33.6473 7.94842-3.10805.42295 1.1618.73342-.24013.14258-1.22127-.76856-.81189 1.97626-.35448.21022.95139-2.32198-2.60718-1.63989-4.21268.51157-.07319-.04437.4254-.25231 3.52427-.42511-1.36306-.85969.24015-.14247 1.40879.88764.52601-2.03466.26986-.16117.02288.01403-.59691 2.31959 2.61634 1.64696 3.82387-.52093.06632.0397z" fill="#fecd82"/></g><g><g><path d="m31.23448 10.82055-.00119.25207-1.7382 1.03177-.16979.10079.00119-.25207z" fill="#bf9960"/></g><g><path d="m32.92011 11.08034v.96277l1.16769-.69337.00227-.96386z" fill="#fecd82"/></g><g><path d="m31.23448 10.36457-.00119.25207-1.7382 1.03177-.16979.10079.00119-.25207z" fill="#bf9960"/></g><g><path d="m31.23448 9.90859-.00119.25207-1.7382 1.03177-.16979.10078.00119-.25206z" fill="#bf9960"/></g><g><path d="m30.63909 11.62998-1.3126.77914-.00118.25204.16978-.10075 1.144-.67907z" fill="#bf9960"/></g></g></g><g><path d="m27.25377 11.83676.00379-1.65778 1.30814.77145-.00378 1.65778z" fill="#fff"/><g><g><g enable-background="new"><g><path d="m27.60145 10.82819.16402.09672-.00063.22578-.16402-.09673zm.12574.24818.00034-.12171-.08819-.05201-.00034.12171z" fill="#40545d"/></g><g><path d="m27.60454 10.58735-.00029.10436-.13979-.08243-.00053.18966-.07583-.04472.00082-.29403z" fill="#40545d"/></g></g><g><path d="m27.46195 11.51495-.00053.18966.13979.08244-.00029.10435-.21562-.12716.00082-.29401z" fill="#40545d"/></g><g><path d="m27.92131 11.6927-.00039.14076-.05136-.03029-.04821-.02844.00019-.07051.04821.02843.0002-.07024z" fill="#40545d"/></g><g enable-background="new"><g><path d="m27.5998 11.42279.16402.09673-.00063.22578-.16402-.09672zm.12574.24816.00034-.12141-.08819-.05201-.00034.12141z" fill="#40545d"/></g><g><path d="m27.81576 11.25392-.0002.07081-.11048-.06515-.00022.08132.11338.06686.00021-.07592.05136.03029-.00021.07592.05694.03357-.0002.07082-.05693-.03358-.0004.14104-.05136-.03029.00039-.14104-.11338-.06686-.05136-.03029-.05209-.03072.0002-.07081.05209.03072.00022-.08132.0002-.07081.05136.03029z" fill="#40545d"/></g></g><g><path d="m28.20024 11.48066-.00062.22294-.05136-.03029.00021-.07621-.06105-.03601-.00021.07621-.05136-.03029.00021-.07621.00019-.07051.00021-.07621.05137.03028-.00021.07621.06105.03601.00021-.07621z" fill="#40545d"/></g><g><path d="m28.41494 11.06526-.00081.29403-.07583-.04472.00052-.18966-.13979-.08244.00029-.10437z" fill="#40545d"/></g><g><path d="m28.03633 11.08465.16402.09673-.00063.22578-.16402-.09672zm.12574.24818.00034-.12171-.08843-.05215-.00034.12171z" fill="#40545d"/></g><g><path d="m28.41214 12.0753-.00082.29401-.21562-.12716.00029-.10435.13979.08244.00053-.18966z" fill="#40545d"/></g><g><path d="m28.03468 11.67924.16402.09673-.00063.22578-.16402-.09673zm.12574.24817.00034-.12141-.08843-.05215-.00034.12141z" fill="#40545d"/></g><g><path d="m27.97915 11.05008-.00062.22265-.05136-.03029.00021-.07592-.04845-.02857.0002-.07082.04845.02858.00021-.07592z" fill="#40545d"/></g><g><path d="m27.9777 11.57272-.00039.14104-.05136-.03029.00039-.14103z" fill="#40545d"/></g><g><path d="m27.86939 10.99048-.0002.0708-.04845-.02858.00019-.07079z" fill="#40545d"/></g><g><path d="m28.03024 11.52738-.00019.07081-.04846-.02858.0002-.07081z" fill="#40545d"/></g><g><path d="m27.92717 11.24244-.00021.07706.05136.03029-.00042.15212-.05136-.03029.00022-.08131-.04845-.02858.00021-.07706-.04821-.02843.0002-.07081.04821.02843z" fill="#40545d"/></g></g><g><path d="m28.32686 11.59685-.00026.09629-.89561-.52816.00027-.09629z" fill="#ee5550"/></g></g></g></g></g></svg>