<svg id="Layer_1" enable-background="new 0 0 52 52" height="512" viewBox="0 0 52 52" width="512" xmlns="http://www.w3.org/2000/svg"><g><g><g><g enable-background="new"><g><path d="m43.31617 16.13952-17.60719-10.16274 6.45689 1.98947 17.60719 10.16274z" fill="#e5bd13"/></g><g><path d="m43.23124 16.31479-17.6072-10.16274.08494-.17527 17.60719 10.16274z" fill="#987e11"/></g><g><path d="m43.31617 16.13952 6.45689 1.98947-.0789.17178-6.46292-1.98598z" fill="#d6b218"/></g></g></g><g><g enable-background="new"><g><path d="m8.244 16.13952 17.60719-10.16274-5.72444 1.75554-17.6072 10.16274z" fill="#e5bd13"/></g><g><path d="m8.32894 16.31479 17.60719-10.16274-.08494-.17527-17.60719 10.16274z" fill="#987e11"/></g><g><path d="m8.244 16.13952-5.72445 1.75554.0789.17178 5.73049-1.75205z" fill="#d6b218"/></g></g></g><g><g><g><path d="m43.31617 16.13952-.04804 19.72286-17.48443 10.16084.04805-19.72286z" fill="#d6b218"/></g><g><path d="m25.83175 26.30036-.04805 19.72286-17.60238-10.16275.04804-19.72285z" fill="#e5bd13"/></g></g><path d="m43.31617 16.13952-17.48442 10.16084-17.60239-10.16274 17.48443-10.16084z" fill="#f1c40f"/><g><path d="m25.71429 6.62726v18.95861l-4.99834-2.8894-1.56085-.89882-3.854-2.22295-5.9498-3.43746z" fill="#e5bd13"/><path d="m42.19562 16.14163-5.55957 3.23137-3.84522 2.23173-1.56085.90759-5.29646 3.0823-.10084.057-.11839-.06575v-18.95861z" fill="#d6b218"/></g></g><g><g enable-background="new"><g><path d="m25.83657 26.30033-17.5461-10.19668-6.29047 9.23194 17.5461 10.19668z" fill="#e5bd13"/></g><g><path d="m19.5461 35.53227-17.5461-10.19668.0796.07323 17.5461 10.19668z" fill="#c6a51a"/></g><g><path d="m25.83657 26.30033-6.29047 9.23194.0796.07323 6.29653-9.22839z" fill="#c6a51a"/></g></g></g><g><g enable-background="new"><g><path d="m25.77277 26.33695 17.5461-10.19668 6.68113 9.77187-17.5461 10.19668z" fill="#e5bd13"/></g><g><path d="m32.4539 36.10882 17.5461-10.19668-.0796.07324-17.5461 10.19668z" fill="#c6a51a"/></g><g><path d="m25.77277 26.33695 6.68113 9.77187-.0796.07324-6.68718-9.76833z" fill="#c6a51a"/></g></g></g></g><g><g><g><g><path d="m15.28586 13.99149 10.6342 6.17992 10.70377-6.17982-10.6342-6.17992z" fill="#fed57a"/><path d="m25.93352 25.59462-.10084.057-.11839-.06575-4.99834-2.8894-1.56085-.89882-3.854-2.22295-.00439-.91198v-.68837l-.00439-2.80168v-.00439l-.00438-1.17504 4.85367 2.81923h.00439l1.13552.66643.39905.23239h.00439l4.02933 2.34131.20606.11839.00439 1.17065.00439 2.84118v.65329z" fill="#3498db"/><path d="m25.9313 24.83744-5.25219-3.04865-1.56062-.90734-3.82118-2.21907-.01086-4.67023 4.85813 2.82053 1.53987.89698 4.23599 2.46277z" fill="#328eb7"/><path d="m36.63605 18.66272v.71028l-3.84522 2.23173-1.56085.90759-5.29646 3.0823-.00439-.75851v-.65329l-.00439-2.84118-.00439-1.17065 4.29684-2.48162.00438-.00439h.00439l.3639-.21045 1.17946-.67523 4.85362-2.80606.00433 1.16627v.00438l.00439 2.83238z" fill="#328eb7"/><path d="m36.63785 18.66238-3.85229 2.22426-1.56062.89699-5.29364 3.05381-.01086-4.66501 4.29817-2.48353 1.55024-.89176 4.85295-2.80499z" fill="#3498db"/></g><g><path d="m37.63803 14.57804-4.85814 2.80498-1.19249.68955-.22294.12446-.13481.07776-.00519.00519-5.30921 3.06419-5.19516-3.01752-1.56063-.90733-4.88924-2.84128 5.3144-3.0642 1.53471-.8918 4.87367-2.81014 4.83741 2.81014 1.52952.8918z" fill="#ecf0f1"/><path d="m14.27039 14.57876.03666 2.81529 11.60811 6.79694v-2.84502z" fill="#e0e2e2"/><path d="m25.91516 21.34597v2.84502l11.75762-6.79684-.03666-2.81528z" fill="#d4d6d6"/></g></g><g><g><path d="m32.35993 11.51384-4.84779 2.81534-1.53987.89176-5.25218 3.04866-.00519.00519-.35775-.20222-1.18212-.66363-.01557-.01038-.01554-.00519 5.28846-3.06419 1.53989-.8918 4.85814-2.81534z" fill="#d8463f"/><path d="m20.72034 18.26813v.06136l-.00439 2.81923v1.54775l-1.56085-.89882v-1.56527l.00438-2.81048v-.03067l1.19697.67959z" fill="#c44"/></g><g><path d="m32.80062 17.39337-.01554.00519-.01557.01038-1.18211.66363-.22294.12446-.13481.07776-.00519-.00519-5.25219-3.04866-1.53989-.89176-4.84776-2.81534 1.53471-.8918 4.85294 2.81534 1.53987.8918 5.26775 3.05384z" fill="#d8463f"/><path d="m32.79083 20.21921v1.38552l-1.56085.90759v-1.39426l-.00434-2.83679v-.01314l.36384-.19731.01756-.00878 1.17946-.67081v.00875z" fill="#c44"/></g></g><path d="m32.78508 20.21908v.66886l-1.56062.89695.00519-.66366z" fill="#c44"/><path d="m20.7149 21.14718v.66363l-1.56063-.90734v-.66882z" fill="#c14242"/></g><g><g enable-background="new"><g><path d="m29.85708 12.84216-3.8108 2.20353-1.46211-.85031 3.8108-2.20353c.77772-.96955 1.05772-2.25537.64294-2.93457-.07779-.13481-.18149-.23851-.30592-.30592l1.46211.85031c.12443.0674.22294.17111.30588.30073.41481.68436.13481 1.9702-.6429 2.93976z" fill="#d8463f"/></g><g><path d="m25.85444 15.15455-2.9346 1.69543c-.10367-.01038-.19184-.04149-.26959-.08294l-1.46211-.85031c.07775.04665.17111.07259.26962.08294l2.93976-1.6954z" fill="#e74c3c"/></g><g><path d="m28.80867 8.61499 1.46168.84944c-.20235-.1176-.45168-.14984-.73287-.08983-.18161.03877-.36719.11298-.55157.21945-.28325.16355-.56361.40314-.82182.70684-.74347.87222-1.88664 3.85741-2.21248 4.73004-.01887.05056-.03517.09444-.04832.12999l-1.46169-.84944c.01315-.03555.02945-.07943.04832-.12999.32584-.87263 1.46901-3.85782 2.21248-4.73004.25822-.3037.53857-.54329.82182-.70684.18438-.10647.36996-.18068.55157-.21945.2812-.06.53053-.02776.73288.08983z" fill="#c44"/></g><g><path d="m26.79725 12.91903c-.00878.01753-.01756.03506-.02633.05261l.12717-.07017c.00878-.01753.01756-.03506.02633-.057zm3.797-3.12615c-.08772-.1447-.19733-.2587-.33323-.33323-.14467-.08331-.31133-.12278-.49984-.10961-.07011 0-.14472.00878-.22362.02631-.10961.02192-.228.057-.342.114-.05695.02192-.10961.04822-.16656.08331h-.00439c-.01317.00878-.02633.01314-.0395.02192-.28056.16222-.56123.40337-.8199.7059-.40339.47353-.92951 1.57405-1.36796 2.61756-.00878.01753-.01756.03506-.02633.05261-.10961.25867-.21484.51298-.30689.74973-.21922.53492-.39456.99968-.49979 1.2759-.00439.01314-.00878.02631-.01317.03508-.01756.04822-.03511.09206-.04827.12714l-.00439.01753-.03945.10525.09211-.057.01317-.00878 1.5433-.89007 1.6398-.94265.74101-.4297v-.00436l.00878-.01317c.57873-.71029.90318-1.5828.90318-2.29747v-.03508c-.00439-.31128-.07017-.5919-.20606-.81112zm.10083.90759c0 .33323-.07895.69712-.21922 1.06543-.14028.36828-.35073.74098-.61823 1.07421v.00436l-2.4597 1.4206-1.35041.78043c.08767-.23236.26745-.71029.4954-1.27588.10961-.27184.228-.56562.35517-.86815.00878-.01753.01756-.03506.02633-.057.42529-.99526.92074-2.02564 1.28902-2.4597.24556-.28498.51301-.51298.78045-.67081.04822-.02631.09645-.05261.14472-.07456h.00439c.02189-.01314.04817-.02192.07011-.03067.09645-.04386.19728-.07456.29373-.09647.24995-.05261.47795-.02631.66206.07017.13156.07014.24556.17975.33323.32006.10961.17975.17106.39459.18417.63576 0 0 .00439 0 0 .00436.00439.05264.00878.10525.00878.15786z" fill="#c14242"/></g><g><path d="m23.00452 12.75203 1.46168.84944c.35777.20791.83679.74147 1.39063 1.55198l-1.46169-.84943c-.55384-.81052-1.03286-1.34408-1.39062-1.55199z" fill="#c44"/></g><g><path d="m25.9028 14.9622c-.06134-.0877-.12278-.17975-.18851-.26745-.19728-.26745-.40339-.53053-.60945-.75415-.01317-.00875-.02189-.02192-.03067-.03067-.12278-.12717-.24117-.23678-.35956-.32448-.06573-.05261-.13156-.09645-.19728-.13153-.03511-.02192-.07017-.03506-.10083-.04822-.03511-.01317-.06583-.02631-.10084-.03069-.03072-.00878-.06144-.01314-.09211-.01314-.04822 0-.10084.00436-.15345.01314-.10083.01317-.20167.04386-.3025.0877-.06144.02631-.12278.057-.18422.09208-.0745.04383-.15339.09645-.22795.14906-.42973.32884-.8199.85937-1.03473 1.46005-.04828.14031-.08767.27184-.10961.40337-.00878.02192-.00878.03947-.01317.057-.0395.21922-.04383.42092-.01756.59629.00439.04825.01317.09208.02633.13592.01317.07017.03506.13156.06134.18853v.00439c.02194.05261.05267.10086.08333.1447.02194.03508.05261.07014.08772.10083.03945.04386.08328.07892.1315.10522.08772.05264.19295.08331.30695.09208l.01317.00439 2.82359-1.63105.14467-.08328.03945-.10525.00439-.01753c.01317-.03508.03072-.07892.04827-.12714-.01755-.02195-.03072-.04825-.04827-.07017zm-.04384.19292h-.00434l-.14034.08331-.9339.53492-1.85902 1.07418c-.04383-.00436-.08333-.00875-.12278-.02192-.057-.01314-.10522-.03508-.15345-.06139-.31567-.18853-.44284-.64451-.33761-1.20574.00439-.02192.00878-.03945.01756-.05697.02194-.10961.05256-.22361.09206-.33762.21045-.59192.60945-1.10929 1.03913-1.39866.03945-.03069.08333-.057.12711-.08331.08772-.05261.17545-.09208.26311-.12278.114-.03944.22361-.057.32884-.057.07011 0 .14472.02194.228.06578.02194.00878.03945.01753.06134.03508.03511.01753.07461.04383.11839.07453.02194.01753.04828.03508.07456.057.03067.02631.06578.05261.0965.08331.00872.00439.01311.00878.02189.01753.04822.03947.09211.08331.14028.13592.00439 0 .01317.00878.02194.01756.00878.00875.01756.02192.03072.03069.03939.03944.07889.08331.11839.13153.00434.00439.01311.00875.0175.01753.15345.171.32006.38145.49545.61823.03945.05261.0745.10522.114.15784.03945.057.07889.114.11839.17536h.00439c.00439.01317.01317.02195.02189.03509z" fill="#d8463f"/></g><g><path d="m22.76204 12.51129c.0994.00161.20817.03999.32286.10663l1.46168.84944c-.11468-.06664-.22346-.10503-.32285-.10663-.20539-.00225-.42484.06722-.64132.1922-.51394.29674-1.01112.90641-1.26341 1.61235-.2849.80247-.16856 1.48991.25132 1.73388l-1.46169-.84943c-.41988-.24399-.53622-.93142-.25132-1.73389.25229-.70595.74947-1.31562 1.26341-1.61235.21648-.12499.43593-.19445.64132-.1922z" fill="#e74c3c"/></g></g></g></g></g></svg>