<svg id="Layer_1" enable-background="new 0 0 50 50" height="512" viewBox="0 0 50 50" width="512" xmlns="http://www.w3.org/2000/svg"><g><g><g><g><g enable-background="new"><g><path d="m49 30.98278-.00372 1.31002-21.82314 12.68223.00371-1.31003z" fill="#b0b8bc"/></g><g><path d="m27.17685 43.665-.00371 1.31003-26.17314-15.11107.00371-1.31002z" fill="#cfd8dd"/></g><g><path d="m49 32.28511-.00372 2.20155-21.82314 12.68223.00371-2.20156z" fill="#765f54"/></g><g><path d="m27.17685 44.96733-.00371 2.20156-26.17314-15.11107.00371-2.20156z" fill="#8b6f62"/></g><g><path d="m49 30.98278-21.82315 12.68222-26.17314-15.11106 21.82315-12.68223z" fill="#dde4e7"/></g></g></g></g><g><g><path d="m32.25794 8.74633-2.44196 14.9976-12.3298 7.16529.03856-13.60089z" fill="#bbb"/></g><g><path d="m32.25794 7.78727-.03856 14.55995-17.31381 10.06169.03856-14.55995z" fill="#fed44c"/></g><path d="m32.25794 7.78727-14.7332 8.56201-2.58061 1.49968-8.58432-4.84186 17.31381-10.17599z" fill="#dde4e7"/><g><path d="m14.94413 17.84896-.03856 14.55995-8.58432-4.95617.03856-14.44564z" fill="#fee182"/></g><g><path d="m32.2965 25.83681-.03856 13.60089-14.77176-8.52848.03856-13.60089z" fill="#fee182"/></g><g><g><g enable-background="new"><g><path d="m14.02926 31.53821.00128-.44985-6.67799-3.85554-.00128.44985z" fill="#778c95"/></g><g><path d="m7.35282 27.13401-.00028.09878 6.67799 3.85554.00028-.09878z" fill="#40545d"/></g><g><path d="m14.03082 30.98955.0014-.49329-6.678-3.85555-.00139.4933z" fill="#778c95"/></g><g><path d="m7.3545 26.54192-.00028.09878 6.67799 3.85554.00028-.09878z" fill="#40545d"/></g><g><path d="m14.0325 30.39748.0014-.4939-6.678-3.85555-.0014.49391z" fill="#778c95"/></g><g><path d="m7.35618 25.94924-.00028.09878 6.67799 3.85553.00028-.09878z" fill="#40545d"/></g><g><path d="m14.03418 29.8048.00139-.49333-6.67799-3.85554-.0014.49333z" fill="#778c95"/></g><g><path d="m7.35786 25.35715-.00028.09878 6.67799 3.85554.00028-.09879z" fill="#40545d"/></g><g><path d="m14.03585 29.2127.00137-.48261-6.67799-3.85553-.00137.4826z" fill="#778c95"/></g><g><path d="m7.35951 24.77577-.00028.09878 6.67799 3.85554.00028-.09878z" fill="#40545d"/></g><g><path d="m14.0375 28.63132.00143-.5046-6.67799-3.85554-.00143.5046z" fill="#778c95"/></g><g><path d="m7.36122 24.17237-.00028.09878 6.67799 3.85554.00028-.09878z" fill="#40545d"/></g><g><path d="m14.03921 28.02792.00137-.48258-6.67799-3.85554-.00137.48257z" fill="#778c95"/></g><g><path d="m7.36286 23.59159-.00027.09819 6.67799 3.85553.00027-.09818z" fill="#40545d"/></g><g><path d="m14.04086 27.44715.00143-.50463-6.67799-3.85554-.00143.50463z" fill="#778c95"/></g><g><path d="m7.36458 22.98819-.00028.09879 6.67798 3.85553.00028-.09878z" fill="#40545d"/></g><g><path d="m14.04257 26.84374.00137-.4826-6.67799-3.85554-.00137.4826z" fill="#778c95"/></g><g><path d="m7.36622 22.40681-.00028.09879 6.67799 3.85553.00028-.09878z" fill="#40545d"/></g><g><path d="m14.04422 26.26237.00137-.48261-6.67799-3.85554-.00137.4826z" fill="#778c95"/></g><g><path d="m7.3679 21.81473-.00031.10949 6.67799 3.85554.00031-.1095z" fill="#40545d"/></g><g><path d="m14.0459 25.67029.0014-.4939-6.67799-3.85554-.0014.4939z" fill="#778c95"/></g><g><path d="m7.36958 21.22204-.00028.09878 6.67799 3.85554.00028-.09878z" fill="#40545d"/></g><g><path d="m14.04758 25.07761.00137-.4826-6.678-3.85554-.00136.4826z" fill="#778c95"/></g><g><path d="m7.37126 20.62995-.00031.10949 6.67799 3.85554.00031-.10949z" fill="#40545d"/></g><g><path d="m14.04926 24.48551.00139-.4933-6.67799-3.85554-.0014.4933z" fill="#778c95"/></g><g><path d="m7.37291 20.04857-.00025.08807 6.67799 3.85554.00025-.08807z" fill="#40545d"/></g><g><path d="m14.0509 23.90413.0014-.49332-6.67799-3.85554-.0014.49332z" fill="#778c95"/></g></g></g><g><g><path d="m7.35677 27.68324-.33072.1787 7.00998 4.02994.00128-.36763z" fill="#dde4e7"/><path d="m7.38303 19.54667-.32944-.20751-.02754 8.52278.33072-.1787z" fill="#fed44c"/></g></g></g><g><path d="m47.02971 17.27481-.03856 13.60089-14.73321 8.562.03856-13.60089z" fill="#fed44c"/></g><g><path d="m47.02971 17.27481-14.73321 8.562-14.77176-8.52848 14.7332-8.562z" fill="#dde4e7"/><g fill="#56707b"><path d="m29.94123 8.52682-6.26509-3.61701-14.98766 8.8084 6.25151 3.52632z"/><path d="m44.71249 18.01456-12.45389-7.19047-12.41701 7.21608 12.45389 7.18996z"/></g></g><g><g><g><path d="m42.37874 21.24335.01596 1.68431 2.24182-1.29101.95094-.55251.28154-.15927.21783-.12762v-.07964l-.01596-1.60467-1.72121.99348-.25499.14344-.28157.16472-.95091.55251z" fill="#4bb5e7"/><g fill="#61c4f0"><path d="m44.09467 20.24986 1.77433.67501.21783-.12762v-.07964l-1.73717-.61119z"/><path d="m42.86219 20.96709 1.77433.66956.95094-.55251-1.77436-.66956z"/></g></g><g><path d="m46.08631 20.79699-.01466-1.68639.20561-.11854.01556 1.91517z" fill="#d8b441"/><path d="m46.08631 20.79699.20651.11024-3.89722 2.24921-.0009-.22878z" fill="#fee182"/></g></g><g><g><path d="m37.93047 23.88794.01595 1.68431 2.24182-1.29101.95095-.55251.28154-.15927.21782-.12762v-.07964l-.01595-1.60467-1.72121.99348-.25499.14344-.28157.16472-.95091.55251z" fill="#4bb5e7"/><g fill="#61c4f0"><path d="m39.6464 22.89445 1.77433.67501.21782-.12762v-.07964l-1.73716-.61119z"/><path d="m38.41392 23.61168 1.77432.66956.95095-.55251-1.77436-.66956z"/></g></g><g><path d="m41.63803 23.44158-.01465-1.68639.2056-.11854.01557 1.91517z" fill="#d8b441"/><path d="m41.63803 23.44158.20652.11024-3.89722 2.24921-.00091-.22878z" fill="#fee182"/></g></g><g><g><path d="m33.4822 26.53253.01595 1.68431 2.24182-1.29101.95094-.55251.28154-.15927.21783-.12762v-.07964l-.01595-1.60467-1.72122.99348-.25498.14345-.28157.16471-.95092.55251z" fill="#4bb5e7"/><g fill="#61c4f0"><path d="m35.19813 25.53905 1.77432.675.21783-.12762v-.07964l-1.73717-.61119z"/><path d="m33.96564 26.25627 1.77433.66956.95094-.55251-1.77435-.66956z"/></g></g><g><path d="m37.18976 26.08617-.01465-1.68639.2056-.11854.01556 1.91517z" fill="#d8b441"/><path d="m37.18976 26.08617.20651.11024-3.89721 2.24922-.00091-.22879z" fill="#fee182"/></g></g></g><g><g><g><path d="m42.37874 23.88794.01596 1.68431 2.24182-1.29101.95094-.55251.28154-.15927.21783-.12762v-.07964l-.01596-1.60467-1.72121.99348-.25499.14344-.28157.16472-.95091.55251z" fill="#4bb5e7"/><g fill="#61c4f0"><path d="m44.09467 22.89445 1.77433.67501.21783-.12762v-.07964l-1.73717-.61119z"/><path d="m42.86219 23.61168 1.77433.66956.95094-.55251-1.77436-.66956z"/></g></g><g><path d="m46.08631 23.44158-.01466-1.68639.20561-.11854.01556 1.91517z" fill="#d8b441"/><path d="m46.08631 23.44158.20651.11024-3.89722 2.24921-.0009-.22878z" fill="#fee182"/></g></g><g><g><path d="m37.93047 26.53253.01595 1.68431 2.24182-1.29101.95095-.55251.28154-.15927.21782-.12762v-.07964l-.01595-1.60467-1.72121.99348-.25499.14345-.28157.16471-.95091.55251z" fill="#4bb5e7"/><g fill="#61c4f0"><path d="m39.6464 25.53905 1.77433.675.21782-.12762v-.07964l-1.73716-.61119z"/><path d="m38.41392 26.25627 1.77432.66956.95095-.55251-1.77436-.66956z"/></g></g><g><path d="m41.63803 26.08617-.01465-1.68639.2056-.11854.01557 1.91517z" fill="#d8b441"/><path d="m41.63803 26.08617.20652.11024-3.89722 2.24922-.00091-.22879z" fill="#fee182"/></g></g><g><g><path d="m33.4822 29.17712.01595 1.68431 2.24182-1.29101.95094-.55251.28154-.15927.21783-.12762v-.07964l-.01595-1.60467-1.72122.99348-.25498.14345-.28157.16471-.95092.55251z" fill="#4bb5e7"/><g fill="#61c4f0"><path d="m35.19813 28.18364 1.77432.675.21783-.12762v-.07964l-1.73717-.61119z"/><path d="m33.96564 28.90086 1.77433.66956.95094-.55251-1.77435-.66956z"/></g></g><g><path d="m37.18976 28.73076-.01465-1.68639.2056-.11854.01556 1.91517z" fill="#d8b441"/><path d="m37.18976 28.73076.20651.11024-3.89721 2.24922-.00091-.22879z" fill="#fee182"/></g></g></g><g><path d="m7.41087 12.99788 1.27761.72033 14.98766-8.8084v-1.4719z" fill="#b0b8bc"/><path d="m23.67614 3.43791v1.4719l6.26509 3.61701 1.27018-.73826z" fill="#cfd8dd"/></g><g><path d="m32.2586 9.35269v1.4714l12.45389 7.19047 1.27025-.73826z" fill="#cfd8dd"/><path d="m18.57134 17.30653 1.27025.73364 12.41701-7.21608v-1.4714z" fill="#b0b8bc"/></g></g><g><g><path d="m29.18463 28.8686-.035 8.25127-4.91804-2.83218-2.08614-1.21208-.61764-.3494-.47786-.27997v-.1747l.035-8.07657 3.77595 2.17947.55937.31469.61771.36135 2.08608 1.21208z" fill="#4bb5e7"/><g fill="#61c4f0"><path d="m25.42027 26.68913-3.89246 6.03708-.47786-.27997v-.1747l3.81095-5.8971z"/><path d="m28.12406 28.26256-3.89247 6.02513-2.08614-1.21208 3.89253-6.02513z"/></g></g><g><path d="m21.05109 32.44567.03215-8.25582-.45105-.26006-.03414 8.75773z" fill="#fed44c"/><path d="m21.05109 32.44567-.45304.24185 8.54959 4.93425.00199-.5019z" fill="#dde4e7"/></g></g></g><g><g><g><g><g><path d="m19.12743 30.281.00526 1.85539.03941-.02275-.00526-1.85539z" fill="#b28c59"/></g><g><path d="m19.16684 30.25825.00526 1.85539.28416-.16406-.00526-1.8554z" fill="#bf9960"/></g><g><path d="m18.80449 30.46745.00526 1.85539.03878-.02239-.00526-1.85539z" fill="#b28c59"/></g><g><path d="m18.84327 30.44506.00526 1.85539.28416-.16406-.00526-1.85539z" fill="#bf9960"/></g><g><path d="m18.48091 30.65426.00526 1.85539.03878-.02238-.00526-1.85539z" fill="#b28c59"/></g><g><path d="m18.51969 30.63188.00526 1.85539.2848-.16443-.00526-1.85539z" fill="#bf9960"/></g><g><path d="m18.15734 30.84108.00526 1.85539.03941-.02276-.00526-1.85539z" fill="#b28c59"/></g><g><path d="m18.19675 30.81832.00526 1.85539.28416-.16406-.00526-1.85539z" fill="#bf9960"/></g><g><path d="m17.8344 31.02753.00526 1.85539.03878-.02239-.00526-1.85539z" fill="#755e3b"/></g><g><path d="m17.87318 31.00514.00526 1.85539.28416-.16406-.00526-1.85539z" fill="#bf9960"/></g></g><g><g enable-background="new"><g><path d="m19.84047 31.80527-.07017-.04079-.31404.18131.07017.04079z" fill="#dcb884"/></g><g><path d="m19.52643 31.98658-.07017-.04079-1.61405.93188.07017.04078z" fill="#ffd69a"/></g><g><path d="m17.59771 33.10013-.07018-.04078.00102.36087.07018.04079z" fill="#c6a677"/></g><g><path d="m17.91238 32.91845-.07017-.04078-.31468.18168.07018.04078z" fill="#dcb884"/></g><g><path d="m17.59771 33.10013.00102.36088 2.24277-1.29487-.00103-.36087-.31404.18131-1.61405.93187z" fill="#d9ae6d"/></g></g><g enable-background="new"><g><path d="m19.52118 30.13118-.07018-.04078.00526 1.85539.07017.04079z" fill="#fecd82"/></g><g><path d="m17.59142 30.88461-.07017-.04078.00628 2.21552.07018.04078z" fill="#d9ae6d"/></g><g><path d="m19.83419 29.58975-.07017-.04078-2.24277 1.29486.07017.04078z" fill="#ffd69a"/></g><g><path d="m17.59142 30.88461.00629 2.21552.31467-.18168-.00526-1.85539 1.61406-.93188.00525 1.8554.31404-.18131-.00628-2.21552z" fill="#d9ae6d"/></g></g></g></g><g><g><g><path d="m16.05483 30.28017-.00526 1.8554-.03941-.02276.00526-1.85539z" fill="#bf9960"/></g><g><path d="m16.01542 30.25742-.00526 1.85539-.28416-.16406.00526-1.85539z" fill="#d9ae6d"/></g><g><path d="m16.37777 30.46662-.00526 1.85539-.03878-.02238.00526-1.8554z" fill="#bf9960"/></g><g><path d="m16.33899 30.44423-.00526 1.8554-.28416-.16406.00526-1.8554z" fill="#d9ae6d"/></g><g><path d="m16.70135 30.65344-.00526 1.85539-.03878-.02239.00526-1.85539z" fill="#bf9960"/></g><g><path d="m16.66257 30.63105-.00526 1.85539-.2848-.16443.00526-1.85539z" fill="#d9ae6d"/></g><g><path d="m17.02492 30.84025-.00526 1.85539-.03941-.02275.00526-1.85539z" fill="#bf9960"/></g><g><path d="m16.98551 30.8175-.00526 1.85539-.28416-.16406.00526-1.85539z" fill="#d9ae6d"/></g><g><path d="m17.34786 31.0267-.00526 1.8554-.03878-.02239.00526-1.8554z" fill="#755e3b"/></g><g><path d="m17.30908 31.00431-.00526 1.8554-.28416-.16407.00526-1.85539z" fill="#d9ae6d"/></g></g><g><g enable-background="new"><g><path d="m15.34179 31.80444.07017-.04078.31404.18131-.07017.04078z" fill="#dcb884"/></g><g><path d="m15.65583 31.98575.07017-.04078 1.61406.93187-.07018.04079z" fill="#ffd69a"/></g><g><path d="m17.58455 33.0993-.00102.36088-2.24277-1.29486.00103-.36088.31404.18131 1.61405.93188z" fill="#fecd82"/></g></g><g enable-background="new"><g><path d="m15.66109 30.13036.07017-.04078-.00526 1.85539-.07017.04078z" fill="#bf9960"/></g><g><path d="m15.34807 29.58892.07017-.04078 2.24277 1.29486-.07017.04079z" fill="#ffd69a"/></g><g><path d="m17.59084 30.88379-.00629 2.21551-.31467-.18167.00526-1.8554-1.61405-.93187-.00526 1.85539-.31404-.18131.00628-2.21552z" fill="#fecd82"/></g></g></g></g></g><g><g enable-background="new"><g><path d="m17.8685 28.82374-.00023.08117-.28798-.16626.00023-.08117z" fill="#d9ae6d"/></g><g><path d="m17.90791 28.8465-.00023.08116-.03941-.02275.00023-.08117z" fill="#8a7453"/></g><g><path d="m18.19588 29.01276-.00022.08117-.28798-.16627.00023-.08116z" fill="#d9ae6d"/></g><g><path d="m18.2353 29.03552-.00023.08116-.03941-.02275.00022-.08117z" fill="#8a7453"/></g><g><path d="m18.52327 29.20178-.00023.08116-.28797-.16626.00023-.08116z" fill="#d9ae6d"/></g><g><path d="m18.56269 29.22453-.00023.08117-.03942-.02276.00023-.08116z" fill="#8a7453"/></g><g><path d="m18.85066 29.3908-.00023.08116-.28797-.16626.00023-.08117z" fill="#d9ae6d"/></g><g><path d="m18.89008 29.41355-.00024.08117-.03941-.02276.00023-.08116z" fill="#8a7453"/></g><g><path d="m19.17741 29.57945-.00023.08116-.28734-.16589.00024-.08117z" fill="#d9ae6d"/></g><g><path d="m17.58052 28.65748-.00023.08117-1.60422.93227.00023-.08117z" fill="#bf9960"/></g><g><path d="m15.9763 29.58975-.00023.08117-.31404-.18131.00023-.08117z" fill="#8a7453"/></g><g><path d="m19.21683 29.6022-.00023.08117-.03942-.02276.00023-.08116z" fill="#8a7453"/></g><g><path d="m17.8685 28.87074-1.60422.93227-.28734-.1659 1.60358-.93264z" fill="#fecd82"/></g><g><path d="m16.26428 29.75602-.00023.08116-.28734-.16589.00023-.08117z" fill="#8a6e46"/></g><g><path d="m17.8685 28.82374-.00023.08117-1.60422.93227.00023-.08116z" fill="#c49c63"/></g><g><path d="m17.90791 28.8465-.00023.08116-1.60422.93228.00023-.08117z" fill="#bf9960"/></g><g><path d="m17.90791 28.8465-1.60422.93227-.03941-.02275 1.60422-.93228z" fill="#ffd69a"/></g><g><path d="m16.30369 29.77877-.00023.08117-.03941-.02276.00023-.08116z" fill="#755e3b"/></g><g><path d="m16.59167 29.94503-.00024.08117-.28797-.16626.00023-.08117z" fill="#8a6e46"/></g><g><path d="m18.19588 29.01276-.00022.08117-1.60423.93227.00024-.08117z" fill="#c49c63"/></g><g><path d="m18.19588 29.05975-1.60421.93227-.28798-.16626 1.60422-.93227z" fill="#fecd82"/></g><g><path d="m18.2353 29.03552-1.60422.93227-.03941-.02276 1.60421-.93227z" fill="#ffd69a"/></g><g><path d="m16.63108 29.96779-.00023.08116-.03942-.02275.00024-.08117z" fill="#755e3b"/></g><g><path d="m18.2353 29.03552-.00023.08116-1.60422.93227.00023-.08116z" fill="#bf9960"/></g><g><path d="m18.52327 29.24877-1.60422.93227-.28797-.16626 1.60422-.93227z" fill="#fecd82"/></g><g><path d="m18.52327 29.20178-.00023.08116-1.60422.93228.00023-.08117z" fill="#c49c63"/></g><g><path d="m16.91905 30.13405-.00023.08117-.28797-.16627.00023-.08116z" fill="#8a6e46"/></g><g><path d="m18.56269 29.22453-1.60422.93228-.03942-.02276 1.60422-.93227z" fill="#ffd69a"/></g><g><path d="m18.56269 29.22453-.00023.08117-1.60422.93227.00023-.08116z" fill="#bf9960"/></g><g><path d="m16.95847 30.15681-.00023.08116-.03942-.02275.00023-.08117z" fill="#755e3b"/></g><g><path d="m17.24644 30.32307-.00023.08116-.28797-.16626.00023-.08116z" fill="#8a6e46"/></g><g><path d="m18.85066 29.3908-.00023.08116-1.60422.93227.00023-.08116z" fill="#c49c63"/></g><g><path d="m18.85066 29.43779-1.60422.93227-.28797-.16626 1.60422-.93227z" fill="#fecd82"/></g><g><path d="m17.28585 30.34583-.00023.08116-.03941-.02276.00023-.08116z" fill="#755e3b"/></g><g><path d="m18.89008 29.41355-.00024.08117-1.60422.93227.00023-.08116z" fill="#bf9960"/></g><g><path d="m18.89008 29.41355-1.60423.93228-.03941-.02276 1.60422-.93227z" fill="#ffd69a"/></g><g><path d="m19.17741 29.57945-.00023.08116-1.60422.93227.00023-.08116z" fill="#c49c63"/></g><g><path d="m19.17741 29.62644-1.60422.93227-.28734-.1659 1.60423-.93227z" fill="#fecd82"/></g><g><path d="m17.57319 30.51172-.00023.08116-.28734-.16589.00023-.08116z" fill="#8a6e46"/></g><g><path d="m17.59099 30.522-.00023.08116-.0178-.01028.00023-.08116z" fill="#755e3b"/></g><g><path d="m19.21683 29.6022-.00023.08117-1.60422.93227.00023-.08116z" fill="#a78554"/></g><g><path d="m17.61261 30.53448-.00023.08116-.02162-.01248.00023-.08116z" fill="#755e3b"/></g><g><path d="m19.21683 29.6022-1.60422.93228-.02162-.01248-.0178-.01028 1.60422-.93227z" fill="#ffd69a"/></g><g><path d="m19.82062 29.59009-1.91559 1.11322-.31404-.18131.02162.01248 1.60422-.93228-.03942-.02275-.28733-.1659-.03942-.02275-.28797-.16627-.03942-.02275-.28797-.16626-.03942-.02276-.28797-.16626-.03941-.02276-.28798-.16626-1.60422.93227-.31404-.18131 1.91559-1.11321z" fill="#ffd69a"/></g><g><path d="m17.90503 30.70331-.31198.1813-2.24277-1.29486.31198-.18131.31468.18168 1.61405.93188z" fill="#ffd69a"/></g></g></g></g><g><g><g><g><g><path d="m31.09234 38.12305.00526 1.85539.03941-.02276-.00526-1.85539z" fill="#b28c59"/></g><g><path d="m31.13175 38.10029.00526 1.85539.28416-.16406-.00526-1.85539z" fill="#bf9960"/></g><g><path d="m30.7694 38.30949.00526 1.8554.03878-.02239-.00526-1.85539z" fill="#b28c59"/></g><g><path d="m30.80818 38.28711.00526 1.85539.28416-.16406-.00526-1.85539z" fill="#bf9960"/></g><g><path d="m30.44583 38.49631.00526 1.85539.03877-.02238-.00526-1.8554z" fill="#b28c59"/></g><g><path d="m30.4846 38.47392.00526 1.8554.2848-.16443-.00526-1.8554z" fill="#bf9960"/></g><g><path d="m30.12225 38.68312.00526 1.8554.03942-.02276-.00526-1.85539z" fill="#b28c59"/></g><g><path d="m30.16167 38.66037.00526 1.85539.28416-.16406-.00526-1.85539z" fill="#bf9960"/></g><g><path d="m29.79931 38.86958.00526 1.85539.03878-.02239-.00526-1.85539z" fill="#755e3b"/></g><g><path d="m29.83809 38.84719.00526 1.85539.28416-.16406-.00526-1.8554z" fill="#bf9960"/></g></g><g><g enable-background="new"><g><path d="m31.80539 39.64731-.07018-.04078-.31404.18131.07018.04078z" fill="#dcb884"/></g><g><path d="m31.49135 39.82862-.07018-.04078-1.61405.93188.07017.04078z" fill="#ffd69a"/></g><g><path d="m29.56262 40.94217-.07018-.04078.00103.36088.07017.04078z" fill="#c6a677"/></g><g><path d="m29.87729 40.7605-.07017-.04078-.31468.18167.07018.04078z" fill="#dcb884"/></g><g><path d="m29.56262 40.94217.00102.36088 2.24277-1.29486-.00102-.36088-.31404.18131-1.61406.93188z" fill="#d9ae6d"/></g></g><g enable-background="new"><g><path d="m31.48609 37.97323-.07018-.04078.00526 1.85539.07018.04078z" fill="#fecd82"/></g><g><path d="m29.55634 38.72666-.07018-.04079.00628 2.21552.07018.04078z" fill="#d9ae6d"/></g><g><path d="m31.7991 37.4318-.07017-.04079-2.24277 1.29486.07018.04079z" fill="#ffd69a"/></g><g><path d="m29.55634 38.72666.00628 2.21551.31467-.18167-.00526-1.85539 1.61406-.93188.00526 1.85539.31404-.18131-.00629-2.21551z" fill="#d9ae6d"/></g></g></g></g><g><g><g><path d="m28.01975 38.12222-.00526 1.8554-.03942-.02276.00526-1.8554z" fill="#bf9960"/></g><g><path d="m27.98033 38.09946-.00526 1.8554-.28416-.16406.00526-1.85539z" fill="#d9ae6d"/></g><g><path d="m28.34269 38.30867-.00526 1.85539-.03878-.02239.00526-1.85539z" fill="#bf9960"/></g><g><path d="m28.30391 38.28628-.00526 1.85539-.28416-.16405.00526-1.8554z" fill="#d9ae6d"/></g><g><path d="m28.66626 38.49549-.00526 1.85539-.03878-.02239.00526-1.8554z" fill="#bf9960"/></g><g><path d="m28.62748 38.47309-.00526 1.8554-.28479-.16443.00526-1.85539z" fill="#d9ae6d"/></g><g><path d="m28.98983 38.6823-.00526 1.85539-.03941-.02275.00526-1.85539z" fill="#bf9960"/></g><g><path d="m28.95042 38.65955-.00526 1.85539-.28416-.16406.00526-1.85539z" fill="#d9ae6d"/></g><g><path d="m29.31277 38.86875-.00526 1.85539-.03878-.02239.00526-1.85539z" fill="#755e3b"/></g><g><path d="m29.27399 38.84636-.00526 1.85539-.28416-.16406.00526-1.85539z" fill="#d9ae6d"/></g></g><g><g enable-background="new"><g><path d="m27.3067 39.64649.07017-.04078.31404.1813-.07017.04079z" fill="#dcb884"/></g><g><path d="m27.62074 39.8278.07017-.04079 1.61406.93188-.07018.04078z" fill="#ffd69a"/></g><g><path d="m29.54947 40.94135-.00103.36088-2.24276-1.29487.00102-.36087.31404.18131 1.61405.93187z" fill="#fecd82"/></g></g><g enable-background="new"><g><path d="m27.626 37.9724.07017-.04077-.00526 1.85538-.07017.04079z" fill="#bf9960"/></g><g><path d="m27.31298 37.43097.07018-.04078 2.24276 1.29486-.07017.04078z" fill="#ffd69a"/></g><g><path d="m29.55575 38.72583-.00628 2.21552-.31468-.18168.00526-1.85539-1.61405-.93188-.00526 1.8554-.31404-.18131.00628-2.21552z" fill="#fecd82"/></g></g></g></g></g><g><g enable-background="new"><g><path d="m29.83341 36.66579-.00023.08117-.28798-.16627.00023-.08116z" fill="#d9ae6d"/></g><g><path d="m29.87282 36.68855-.00023.08116-.03941-.02275.00023-.08117z" fill="#8a7453"/></g><g><path d="m30.1608 36.85481-.00023.08116-.28798-.16626.00023-.08116z" fill="#d9ae6d"/></g><g><path d="m30.20021 36.87756-.00023.08117-.03941-.02276.00023-.08116z" fill="#8a7453"/></g><g><path d="m30.48819 37.04383-.00023.08116-.28798-.16626.00023-.08117z" fill="#d9ae6d"/></g><g><path d="m30.5276 37.06658-.00023.08117-.03941-.02276.00023-.08116z" fill="#8a7453"/></g><g><path d="m30.81557 37.23285-.00023.08116-.28797-.16626.00023-.08117z" fill="#d9ae6d"/></g><g><path d="m30.85499 37.2556-.00023.08117-.03942-.02276.00023-.08116z" fill="#8a7453"/></g><g><path d="m31.14233 37.42149-.00023.08117-.28734-.16589.00023-.08117z" fill="#d9ae6d"/></g><g><path d="m29.54543 36.49953-.00023.08116-1.60422.93228.00023-.08117z" fill="#bf9960"/></g><g><path d="m27.94121 37.4318-.00023.08117-.31403-.18132.00023-.08116z" fill="#8a7453"/></g><g><path d="m31.18174 37.44425-.00023.08116-.03941-.02275.00023-.08117z" fill="#8a7453"/></g><g><path d="m29.83341 36.71278-1.60422.93227-.28734-.16589 1.60358-.93264z" fill="#fecd82"/></g><g><path d="m28.22919 37.59806-.00023.08117-.28734-.1659.00023-.08116z" fill="#8a6e46"/></g><g><path d="m29.83341 36.66579-.00023.08117-1.60422.93227.00023-.08117z" fill="#c49c63"/></g><g><path d="m29.87282 36.68855-.00023.08116-1.60422.93227.00023-.08116z" fill="#bf9960"/></g><g><path d="m29.87282 36.68855-1.60422.93227-.03941-.02276 1.60422-.93227z" fill="#ffd69a"/></g><g><path d="m28.2686 37.62082-.00023.08116-.03941-.02275.00023-.08117z" fill="#755e3b"/></g><g><path d="m28.55658 37.78708-.00023.08116-.28798-.16626.00023-.08116z" fill="#8a6e46"/></g><g><path d="m30.1608 36.85481-.00023.08116-1.60422.93227.00023-.08116z" fill="#c49c63"/></g><g><path d="m30.1608 36.9018-1.60422.93227-.28798-.16626 1.60422-.93227z" fill="#fecd82"/></g><g><path d="m30.20021 36.87756-1.60422.93228-.03941-.02276 1.60422-.93227z" fill="#ffd69a"/></g><g><path d="m28.59599 37.80984-.00023.08116-.03941-.02276.00023-.08116z" fill="#755e3b"/></g><g><path d="m30.20021 36.87756-.00023.08117-1.60422.93227.00023-.08116z" fill="#bf9960"/></g><g><path d="m30.48819 37.09082-1.60423.93227-.28797-.16626 1.60422-.93228z" fill="#fecd82"/></g><g><path d="m30.48819 37.04383-.00023.08116-1.60423.93227.00023-.08116z" fill="#c49c63"/></g><g><path d="m28.88396 37.9761-.00023.08116-.28797-.16626.00023-.08116z" fill="#8a6e46"/></g><g><path d="m30.5276 37.06658-1.60422.93227-.03942-.02275 1.60423-.93227z" fill="#ffd69a"/></g><g><path d="m30.5276 37.06658-.00023.08117-1.60422.93227.00023-.08117z" fill="#bf9960"/></g><g><path d="m28.92338 37.99885-.00023.08117-.03942-.02276.00023-.08116z" fill="#755e3b"/></g><g><path d="m29.21135 38.16512-.00023.08116-.28797-.16626.00023-.08117z" fill="#8a6e46"/></g><g><path d="m30.81557 37.23285-.00023.08116-1.60422.93227.00023-.08116z" fill="#c49c63"/></g><g><path d="m30.81557 37.27983-1.60422.93227-.28797-.16625 1.60422-.93228z" fill="#fecd82"/></g><g><path d="m29.25077 38.18787-.00023.08117-.03942-.02276.00023-.08116z" fill="#755e3b"/></g><g><path d="m30.85499 37.2556-.00023.08117-1.60422.93227.00023-.08117z" fill="#bf9960"/></g><g><path d="m30.85499 37.2556-1.60422.93227-.03942-.02275 1.60422-.93227z" fill="#ffd69a"/></g><g><path d="m31.14233 37.42149-.00023.08117-1.60422.93227.00023-.08116z" fill="#c49c63"/></g><g><path d="m31.14233 37.46849-1.60422.93227-.28734-.1659 1.60422-.93227z" fill="#fecd82"/></g><g><path d="m29.53811 38.35377-.00023.08116-.28734-.16589.00023-.08117z" fill="#8a6e46"/></g><g><path d="m29.5559 38.36404-.00022.08117-.0178-.01028.00023-.08116z" fill="#755e3b"/></g><g><path d="m31.18174 37.44425-.00023.08116-1.60422.93227.00023-.08116z" fill="#a78554"/></g><g><path d="m29.57752 38.37652-.00023.08116-.02161-.01247.00022-.08117z" fill="#755e3b"/></g><g><path d="m31.18174 37.44425-1.60422.93227-.02162-.01248-.01779-.01027 1.60422-.93228z" fill="#ffd69a"/></g><g><path d="m31.78553 37.43214-1.91559 1.11321-.31404-.18131.02162.01248 1.60422-.93227-.03941-.02276-.28734-.16589-.03942-.02275-.28797-.16627-.03941-.02275-.28798-.16627-.03941-.02275-.28798-.16626-.03941-.02276-.28798-.16626-1.60422.93227-.31403-.18131 1.91558-1.11322z" fill="#ffd69a"/></g><g><path d="m29.86994 38.54535-.31198.18131-2.24277-1.29486.31199-.18131.31467.18168 1.61405.93187z" fill="#ffd69a"/></g></g></g></g><g><g><g><g><g><path d="m28.2277 39.69285.00526 1.85539.03942-.02275-.00526-1.85539z" fill="#b28c59"/></g><g><path d="m28.26712 39.6701.00526 1.85539.28416-.16406-.00526-1.8554z" fill="#bf9960"/></g><g><path d="m27.90476 39.8793.00526 1.85539.03878-.02239-.00526-1.85539z" fill="#b28c59"/></g><g><path d="m27.94354 39.85691.00526 1.85539.28416-.16406-.00526-1.85539z" fill="#bf9960"/></g><g><path d="m27.58119 40.06612.00526 1.85539.03878-.02239-.00526-1.85539z" fill="#b28c59"/></g><g><path d="m27.61997 40.04373.00526 1.85539.28479-.16443-.00526-1.85539z" fill="#bf9960"/></g><g><path d="m27.25762 40.25293.00526 1.85539.03941-.02275-.00526-1.85539z" fill="#b28c59"/></g><g><path d="m27.29703 40.23018.00526 1.85539.28416-.16406-.00526-1.85539z" fill="#bf9960"/></g><g><path d="m26.93468 40.43938.00526 1.85539.03878-.02239-.00526-1.85539z" fill="#755e3b"/></g><g><path d="m26.97346 40.41699.00526 1.85539.28416-.16406-.00526-1.85539z" fill="#bf9960"/></g></g><g><g enable-background="new"><g><path d="m28.94075 41.21712-.07018-.04079-.31403.18132.07017.04078z" fill="#dcb884"/></g><g><path d="m28.62671 41.39843-.07017-.04078-1.61406.93187.07018.04078z" fill="#ffd69a"/></g><g><path d="m26.69798 42.51198-.07017-.04078.00102.36088.07018.04078z" fill="#c6a677"/></g><g><path d="m27.01266 42.3303-.07018-.04078-.31467.18168.07017.04078z" fill="#dcb884"/></g><g><path d="m26.69798 42.51198.00103.36088 2.24276-1.29486-.00102-.36088-.31404.18131-1.61405.93187z" fill="#d9ae6d"/></g></g><g enable-background="new"><g><path d="m28.62145 39.54303-.07017-.04078.00526 1.8554.07017.04078z" fill="#fecd82"/></g><g><path d="m26.6917 40.29646-.07017-.04078.00628 2.21552.07017.04078z" fill="#d9ae6d"/></g><g><path d="m28.93447 39.0016-.07018-.04078-2.24276 1.29486.07017.04078z" fill="#ffd69a"/></g><g><path d="m26.6917 40.29646.00628 2.21552.31468-.18168-.00526-1.85539 1.61405-.93188.00526 1.8554.31404-.18131-.00628-2.21552z" fill="#d9ae6d"/></g></g></g></g><g><g><g><path d="m25.15511 39.69203-.00526 1.85539-.03941-.02276.00526-1.85539z" fill="#bf9960"/></g><g><path d="m25.1157 39.66927-.00526 1.85539-.28416-.16406.00526-1.85539z" fill="#d9ae6d"/></g><g><path d="m25.47805 39.87848-.00526 1.85539-.03878-.02239.00526-1.85539z" fill="#bf9960"/></g><g><path d="m25.43927 39.85609-.00526 1.85539-.28416-.16406.00526-1.85539z" fill="#d9ae6d"/></g><g><path d="m25.80162 40.06529-.00526 1.85539-.03877-.02239.00525-1.85539z" fill="#bf9960"/></g><g><path d="m25.76284 40.0429-.00525 1.85539-.2848-.16442.00526-1.85539z" fill="#d9ae6d"/></g><g><path d="m26.1252 40.25211-.00526 1.85539-.03942-.02276.00526-1.85539z" fill="#bf9960"/></g><g><path d="m26.08578 40.22935-.00526 1.85539-.28416-.16406.00526-1.85539z" fill="#d9ae6d"/></g><g><path d="m26.44814 40.43855-.00527 1.8554-.03877-.02239.00526-1.8554z" fill="#755e3b"/></g><g><path d="m26.40936 40.41616-.00526 1.8554-.28416-.16406.00526-1.85539z" fill="#d9ae6d"/></g></g><g><g enable-background="new"><g><path d="m24.44206 41.21629.07018-.04078.31404.18131-.07018.04078z" fill="#dcb884"/></g><g><path d="m24.7561 41.3976.07018-.04078 1.61405.93188-.07017.04078z" fill="#ffd69a"/></g><g><path d="m26.68483 42.51115-.00102.36088-2.24277-1.29486.00102-.36088.31404.18131 1.61406.93188z" fill="#fecd82"/></g></g><g enable-background="new"><g><path d="m24.76136 39.54221.07018-.04078-.00526 1.85539-.07018.04078z" fill="#bf9960"/></g><g><path d="m24.44835 39.00077.07017-.04077 2.24277 1.29486-.07018.04078z" fill="#ffd69a"/></g><g><path d="m26.69111 40.29564-.00628 2.21551-.31467-.18167.00526-1.85539-1.61406-.93188-.00526 1.85539-.31404-.18131.00629-2.21552z" fill="#fecd82"/></g></g></g></g></g><g><g enable-background="new"><g><path d="m26.96877 38.2356-.00023.08116-.28797-.16626.00023-.08116z" fill="#d9ae6d"/></g><g><path d="m27.00819 38.25835-.00023.08117-.03942-.02276.00023-.08116z" fill="#8a7453"/></g><g><path d="m27.29616 38.42461-.00023.08117-.28797-.16626.00023-.08117z" fill="#d9ae6d"/></g><g><path d="m27.33558 38.44737-.00023.08116-.03942-.02275.00023-.08117z" fill="#8a7453"/></g><g><path d="m27.62355 38.61363-.00023.08116-.28797-.16626.00023-.08116z" fill="#d9ae6d"/></g><g><path d="m27.66296 38.63639-.00023.08116-.03941-.02276.00023-.08116z" fill="#8a7453"/></g><g><path d="m27.95094 38.80265-.00023.08116-.28798-.16626.00023-.08116z" fill="#d9ae6d"/></g><g><path d="m27.99035 38.82541-.00023.08116-.03941-.02276.00023-.08116z" fill="#8a7453"/></g><g><path d="m28.27769 38.9913-.00023.08116-.28734-.16589.00023-.08116z" fill="#d9ae6d"/></g><g><path d="m26.6808 38.06934-.00023.08116-1.60422.93227.00023-.08116z" fill="#bf9960"/></g><g><path d="m25.07658 39.00161-.00023.08116-.31404-.18131.00023-.08116z" fill="#8a7453"/></g><g><path d="m28.3171 39.01406-.00023.08116-.03941-.02276.00023-.08116z" fill="#8a7453"/></g><g><path d="m26.96877 38.28259-1.60422.93227-.28733-.1659 1.60358-.93263z" fill="#fecd82"/></g><g><path d="m25.36455 39.16787-.00023.08116-.28734-.16589.00024-.08117z" fill="#8a6e46"/></g><g><path d="m26.96877 38.2356-.00023.08116-1.60422.93227.00023-.08116z" fill="#c49c63"/></g><g><path d="m27.00819 38.25835-.00023.08117-1.60422.93227.00023-.08117z" fill="#bf9960"/></g><g><path d="m27.00819 38.25835-1.60422.93227-.03942-.02275 1.60422-.93227z" fill="#ffd69a"/></g><g><path d="m25.40397 39.19062-.00023.08117-.03942-.02276.00023-.08116z" fill="#755e3b"/></g><g><path d="m25.69194 39.35688-.00023.08117-.28797-.16626.00023-.08117z" fill="#8a6e46"/></g><g><path d="m27.29616 38.42461-.00023.08117-1.60422.93227.00023-.08117z" fill="#c49c63"/></g><g><path d="m27.29616 38.4716-1.60422.93228-.28797-.16627 1.60422-.93227z" fill="#fecd82"/></g><g><path d="m27.33558 38.44737-1.60422.93227-.03942-.02276 1.60422-.93227z" fill="#ffd69a"/></g><g><path d="m25.73136 39.37964-.00024.08116-.03941-.02275.00023-.08117z" fill="#755e3b"/></g><g><path d="m27.33558 38.44737-.00023.08116-1.60423.93227.00024-.08116z" fill="#bf9960"/></g><g><path d="m27.62355 38.66062-1.60422.93227-.28797-.16626 1.60422-.93227z" fill="#fecd82"/></g><g><path d="m27.62355 38.61363-.00023.08116-1.60422.93228.00023-.08117z" fill="#c49c63"/></g><g><path d="m26.01933 39.5459-.00023.08117-.28798-.16627.00024-.08116z" fill="#8a6e46"/></g><g><path d="m27.66296 38.63639-1.60422.93227-.03941-.02276 1.60422-.93227z" fill="#ffd69a"/></g><g><path d="m27.66296 38.63639-.00023.08116-1.60422.93227.00023-.08116z" fill="#bf9960"/></g><g><path d="m26.05874 39.56866-.00023.08116-.03941-.02275.00023-.08117z" fill="#755e3b"/></g><g><path d="m26.34672 39.73492-.00023.08117-.28798-.16627.00023-.08116z" fill="#8a6e46"/></g><g><path d="m27.95094 38.80265-.00023.08116-1.60422.93228.00023-.08117z" fill="#c49c63"/></g><g><path d="m27.95094 38.84964-1.60422.93227-.28798-.16626 1.60422-.93227z" fill="#fecd82"/></g><g><path d="m26.38613 39.75768-.00023.08116-.03941-.02275.00023-.08117z" fill="#755e3b"/></g><g><path d="m27.99035 38.82541-.00023.08116-1.60422.93227.00023-.08116z" fill="#bf9960"/></g><g><path d="m27.99035 38.82541-1.60422.93227-.03941-.02276 1.60422-.93227z" fill="#ffd69a"/></g><g><path d="m28.27769 38.9913-.00023.08116-1.60422.93227.00023-.08116z" fill="#c49c63"/></g><g><path d="m28.27769 39.03829-1.60422.93227-.28734-.1659 1.60422-.93227z" fill="#fecd82"/></g><g><path d="m26.67347 39.92357-.00023.08116-.28734-.16589.00023-.08116z" fill="#8a6e46"/></g><g><path d="m26.69127 39.93385-.00023.08116-.0178-.01028.00023-.08116z" fill="#755e3b"/></g><g><path d="m28.3171 39.01406-.00023.08116-1.60422.93227.00023-.08116z" fill="#a78554"/></g><g><path d="m26.71288 39.94633-.00023.08116-.02161-.01248.00023-.08116z" fill="#755e3b"/></g><g><path d="m28.3171 39.01406-1.60422.93227-.02161-.01248-.0178-.01028 1.60422-.93227z" fill="#ffd69a"/></g><g><path d="m28.92089 39.00194-1.91558 1.11322-.31404-.18131.02161.01248 1.60422-.93227-.03941-.02276-.28734-.16589-.03941-.02276-.28798-.16626-.03941-.02276-.28797-.16626-.03942-.02276-.28797-.16626-.03942-.02275-.28797-.16626-1.60422.93227-.31404-.18131 1.91559-1.11322z" fill="#ffd69a"/></g><g><path d="m27.00531 40.11516-.31198.1813-2.24277-1.29486.31198-.1813.31468.18167 1.61405.93188z" fill="#ffd69a"/></g></g></g></g><g><g><g><g><g><path d="m29.69549 36.28045.00526 1.85539.03942-.02275-.00526-1.8554z" fill="#b28c59"/></g><g><path d="m29.73491 36.25769.00526 1.8554.28416-.16407-.00526-1.85539z" fill="#bf9960"/></g><g><path d="m29.37255 36.4669.00527 1.85539.03877-.02239-.00526-1.85539z" fill="#b28c59"/></g><g><path d="m29.41133 36.44451.00526 1.85539.28416-.16406-.00526-1.85539z" fill="#bf9960"/></g><g><path d="m29.04898 36.65371.00526 1.8554.03878-.02239-.00526-1.8554z" fill="#b28c59"/></g><g><path d="m29.08776 36.63132.00526 1.8554.2848-.16443-.00527-1.85539z" fill="#bf9960"/></g><g><path d="m28.72541 36.84053.00526 1.85539.03941-.02276-.00526-1.85539z" fill="#b28c59"/></g><g><path d="m28.76482 36.81777.00526 1.85539.28416-.16405-.00526-1.8554z" fill="#bf9960"/></g><g><path d="m28.40247 37.02698.00526 1.85539.03878-.02239-.00526-1.85539z" fill="#755e3b"/></g><g><path d="m28.44125 37.00459.00526 1.85539.28416-.16406-.00526-1.85539z" fill="#bf9960"/></g></g><g><g enable-background="new"><g><path d="m30.40854 37.80471-.07018-.04078-.31403.18131.07017.04078z" fill="#dcb884"/></g><g><path d="m30.0945 37.98602-.07017-.04078-1.61406.93188.07018.04078z" fill="#ffd69a"/></g><g><path d="m28.16577 39.09958-.07017-.04078.00102.36087.07018.04078z" fill="#c6a677"/></g><g><path d="m28.48045 38.9179-.07018-.04078-.31467.18168.07017.04078z" fill="#dcb884"/></g><g><path d="m28.16577 39.09958.00103.36087 2.24276-1.29486-.00102-.36088-.31404.18131-1.61405.93188z" fill="#d9ae6d"/></g></g><g enable-background="new"><g><path d="m30.08924 36.13063-.07017-.04078.00526 1.85539.07017.04078z" fill="#fecd82"/></g><g><path d="m28.15949 36.88406-.07017-.04078.00628 2.21552.07017.04078z" fill="#d9ae6d"/></g><g><path d="m30.40226 35.5892-.07018-.04078-2.24276 1.29486.07017.04078z" fill="#ffd69a"/></g><g><path d="m28.15949 36.88406.00628 2.21552.31468-.18168-.00526-1.85539 1.61405-.93188.00526 1.85539.31404-.18131-.00628-2.21551z" fill="#d9ae6d"/></g></g></g></g><g><g><g><path d="m26.6229 36.27962-.00526 1.8554-.03941-.02276.00526-1.85539z" fill="#bf9960"/></g><g><path d="m26.58349 36.25687-.00526 1.85539-.28416-.16406.00526-1.85539z" fill="#d9ae6d"/></g><g><path d="m26.94584 36.46607-.00526 1.85539-.03878-.02238.00526-1.8554z" fill="#bf9960"/></g><g><path d="m26.90706 36.44368-.00526 1.8554-.28416-.16406.00526-1.8554z" fill="#d9ae6d"/></g><g><path d="m27.26941 36.65289-.00526 1.85539-.03878-.02239.00526-1.85539z" fill="#bf9960"/></g><g><path d="m27.23063 36.6305-.00526 1.85539-.28479-.16443.00526-1.85539z" fill="#d9ae6d"/></g><g><path d="m27.59299 36.8397-.00526 1.8554-.03942-.02276.00526-1.85539z" fill="#bf9960"/></g><g><path d="m27.55357 36.81695-.00526 1.85539-.28416-.16406.00526-1.85539z" fill="#d9ae6d"/></g><g><path d="m27.91592 37.02615-.00525 1.85539-.03878-.02239.00526-1.85539z" fill="#755e3b"/></g><g><path d="m27.87715 37.00376-.00526 1.85539-.28416-.16405.00526-1.8554z" fill="#d9ae6d"/></g></g><g><g enable-background="new"><g><path d="m25.90985 37.80389.07018-.04078.31404.18131-.07018.04078z" fill="#dcb884"/></g><g><path d="m26.22389 37.9852.07018-.04078 1.61405.93187-.07017.04078z" fill="#ffd69a"/></g><g><path d="m28.15262 39.09875-.00102.36088-2.24277-1.29486.00102-.36088.31404.18131 1.61406.93187z" fill="#fecd82"/></g></g><g enable-background="new"><g><path d="m26.22915 36.12981.07018-.04078-.00526 1.85539-.07018.04078z" fill="#bf9960"/></g><g><path d="m25.91614 35.58837.07017-.04078 2.24277 1.29486-.07018.04079z" fill="#ffd69a"/></g><g><path d="m28.1589 36.88324-.00628 2.21551-.31467-.18168.00526-1.85539-1.61406-.93187-.00526 1.85539-.31404-.18131.00629-2.21552z" fill="#fecd82"/></g></g></g></g></g><g><g enable-background="new"><g><path d="m28.43656 34.82319-.00023.08117-.28797-.16627.00023-.08116z" fill="#d9ae6d"/></g><g><path d="m28.47598 34.84595-.00023.08116-.03942-.02275.00023-.08117z" fill="#8a7453"/></g><g><path d="m28.76395 35.01221-.00023.08117-.28797-.16627.00023-.08116z" fill="#d9ae6d"/></g><g><path d="m28.80337 35.03497-.00024.08116-.03941-.02275.00023-.08117z" fill="#8a7453"/></g><g><path d="m29.09134 35.20123-.00023.08116-.28798-.16626.00024-.08116z" fill="#d9ae6d"/></g><g><path d="m29.13075 35.22398-.00023.08117-.03941-.02276.00023-.08116z" fill="#8a7453"/></g><g><path d="m29.41873 35.39025-.00023.08116-.28798-.16626.00023-.08117z" fill="#d9ae6d"/></g><g><path d="m29.45814 35.413-.00023.08117-.03941-.02276.00023-.08116z" fill="#8a7453"/></g><g><path d="m29.74548 35.5789-.00023.08116-.28734-.16589.00023-.08117z" fill="#d9ae6d"/></g><g><path d="m28.14859 34.65693-.00023.08116-1.60422.93228.00023-.08117z" fill="#bf9960"/></g><g><path d="m26.54437 35.5892-.00023.08117-.31404-.18131.00023-.08117z" fill="#8a7453"/></g><g><path d="m29.78489 35.60165-.00023.08117-.03941-.02276.00023-.08116z" fill="#8a7453"/></g><g><path d="m28.43656 34.87018-1.60422.93228-.28734-.1659 1.60359-.93264z" fill="#fecd82"/></g><g><path d="m26.83234 35.75547-.00023.08116-.28733-.1659.00022-.08116z" fill="#8a6e46"/></g><g><path d="m28.43656 34.82319-.00023.08117-1.60422.93227.00023-.08116z" fill="#c49c63"/></g><g><path d="m28.47598 34.84595-.00023.08116-1.60422.93227.00023-.08116z" fill="#bf9960"/></g><g><path d="m28.47598 34.84595-1.60422.93227-.03942-.02275 1.60422-.93228z" fill="#ffd69a"/></g><g><path d="m26.87176 35.77822-.00023.08116-.03942-.02275.00023-.08116z" fill="#755e3b"/></g><g><path d="m27.15973 35.94448-.00023.08117-.28797-.16627.00023-.08116z" fill="#8a6e46"/></g><g><path d="m28.76395 35.01221-.00023.08117-1.60422.93227.00023-.08117z" fill="#c49c63"/></g><g><path d="m28.76395 35.0592-1.60422.93227-.28797-.16626 1.60422-.93227z" fill="#fecd82"/></g><g><path d="m28.80337 35.03497-1.60423.93227-.03941-.02276 1.60422-.93227z" fill="#ffd69a"/></g><g><path d="m27.19914 35.96724-.00022.08116-.03942-.02275.00023-.08117z" fill="#755e3b"/></g><g><path d="m28.80337 35.03497-.00024.08116-1.60421.93227.00022-.08116z" fill="#bf9960"/></g><g><path d="m29.09134 35.24822-1.60422.93227-.28798-.16626 1.60423-.93227z" fill="#fecd82"/></g><g><path d="m29.09134 35.20123-.00023.08116-1.60422.93227.00023-.08116z" fill="#c49c63"/></g><g><path d="m27.48712 36.1335-.00023.08116-.28797-.16626.00022-.08116z" fill="#8a6e46"/></g><g><path d="m29.13075 35.22398-1.60422.93227-.03941-.02275 1.60422-.93227z" fill="#ffd69a"/></g><g><path d="m29.13075 35.22398-.00023.08117-1.60422.93227.00023-.08117z" fill="#bf9960"/></g><g><path d="m27.52653 36.15625-.00023.08117-.03941-.02276.00023-.08116z" fill="#755e3b"/></g><g><path d="m27.81451 36.32252-.00023.08116-.28798-.16626.00023-.08117z" fill="#8a6e46"/></g><g><path d="m29.41873 35.39025-.00023.08116-1.60422.93227.00023-.08116z" fill="#c49c63"/></g><g><path d="m29.41873 35.43724-1.60422.93227-.28798-.16626 1.60422-.93228z" fill="#fecd82"/></g><g><path d="m27.85392 36.34527-.00023.08117-.03941-.02276.00023-.08116z" fill="#755e3b"/></g><g><path d="m29.45814 35.413-.00023.08117-1.60422.93227.00023-.08117z" fill="#bf9960"/></g><g><path d="m29.45814 35.413-1.60422.93227-.03941-.02275 1.60422-.93227z" fill="#ffd69a"/></g><g><path d="m29.74548 35.5789-.00023.08116-1.60422.93227.00023-.08116z" fill="#c49c63"/></g><g><path d="m29.74548 35.62589-1.60422.93227-.28734-.16589 1.60422-.93228z" fill="#fecd82"/></g><g><path d="m28.14126 36.51117-.00023.08116-.28734-.16589.00023-.08117z" fill="#8a6e46"/></g><g><path d="m28.15906 36.52145-.00023.08116-.0178-.01028.00023-.08116z" fill="#755e3b"/></g><g><path d="m29.78489 35.60165-.00023.08117-1.60422.93227.00023-.08117z" fill="#a78554"/></g><g><path d="m28.18067 36.53392-.00023.08117-.02161-.01248.00023-.08116z" fill="#755e3b"/></g><g><path d="m29.78489 35.60165-1.60422.93227-.02161-.01247-.0178-.01028 1.60422-.93227z" fill="#ffd69a"/></g><g><path d="m30.38869 35.58954-1.91559 1.11321-.31404-.1813.02161.01247 1.60422-.93227-.03941-.02275-.28734-.1659-.03941-.02275-.28798-.16627-.03941-.02275-.28797-.16626-.03942-.02276-.28797-.16626-.03942-.02276-.28797-.16626-1.60422.93227-.31404-.18131 1.91559-1.11322z" fill="#ffd69a"/></g><g><path d="m28.4731 36.70275-.31199.18131-2.24276-1.29486.31198-.18131.31467.18168 1.61406.93188z" fill="#ffd69a"/></g></g></g></g></g></svg>