<svg id="Layer_1" enable-background="new 0 0 52 52" height="512" viewBox="0 0 52 52" width="512" xmlns="http://www.w3.org/2000/svg"><g><g><g><g><g><g><path d="m39.50557 3.71701c-.34452-.19877-.81625-.17227-1.33835.12986l-13.59287 7.84724c-1.04418.6016-1.8843 2.05921-1.88165 3.25711l.09806 33.71166c0 .59364.21203 1.01238.54859 1.21114l-2.7619-1.59051c-.33923-.19611-.54859-.61485-.55124-1.21114l-.0954-33.70903c-.00265-1.19788.83746-2.65549 1.87898-3.25709l13.59288-7.84725c.52208-.30213.99648-.33128 1.33835-.13251z" fill="#474b59"/></g><g><path d="m38.16608 3.84756c1.03893-.59982 1.88602-.11709 1.88941 1.0806l.09676 33.71014c.0034 1.1977-.8382 2.65538-1.87712 3.25521l-13.59234 7.84754c-1.04231.60178-1.8894.11905-1.8928-1.07865l-.09676-33.71014c-.0034-1.1977.83819-2.65539 1.8805-3.25716z" fill="#5b5e71"/></g><g><g><g><path d="m31.37344 9.23611c.11044-.06376.19972-.01288.20009.11649.00036.1269-.08834.28054-.19878.3443s-.20187.01412-.20223-.11278c-.00037-.12936.09048-.28425.20092-.34801z" fill="#5b5e71"/></g></g><g><g><path d="m39.2135 38.90832c0 .59565-.42417 1.33575-.93868 1.6336l-13.60143 7.85216c-.5144.29786-.94761.05415-.94761-.54156l-.09023-33.16856c-.00904-.60469.42417-1.33575.93868-1.63361l5.5596-3.21306c.28888-.16245.55054-.11734.65884.11734l.09938.20762c.06313.20757.26166.26172.4873.13535.2166-.13535.41525-.41514.47837-.69492l.09023-.30689c.11733-.37905.379-.72203.66788-.88448l5.55068-3.21306c.52344-.29786.94761-.05415.94761.54151z" fill="#fff"/></g></g></g></g></g></g><g><g><path d="m31.31584 9.14435c.17289-.09982.31742-.01747.318.18779.00056.19866-.14303.44735-.31592.54717-.17863.10313-.32317.02079-.32373-.17787-.00058-.20527.14302-.45396.32165-.55709z" fill="#fff"/></g></g><g><g enable-background="new"><g><g><path d="m22.12988 19.81098c0 .21662-.08662.3683-.19493.45506l-.30337.17324c.10831-.08662.19506-.23831.19506-.45492 0-.45506-.32506-.99673-.69336-1.21335-.21675-.13-.38999-.13-.51999-.06507l.30324-.17337c.13-.06493.30337-.06493.51999.06507.39012.2166.69336.75828.69336 1.21334z" fill="#ecf0f1"/></g></g><g><g><path d="m21.12496 18.76593c.38737.22364.7045.7729.70324 1.21801s-.32047.62697-.70784.40332c-.40116-.23161-.71829-.78086-.71703-1.22597s.32047-.62697.72163-.39536z" fill="#d4d6d6"/></g></g></g><g enable-background="new"><g><g><path d="m22.12988 22.73598c0 .21675-.08662.36844-.21662.45506l-.30337.17337c.13-.08675.21675-.23844.21675-.45506 0-.45506-.32506-.99673-.71505-1.21335-.19506-.13-.38999-.13-.51999-.06507l.30324-.17324c.13013-.08675.32506-.06507.52012.06493.38999.21676.71492.75843.71492 1.21336z" fill="#ecf0f1"/></g></g><g><g><path d="m21.11667 21.69079c.38737.22365.70455.75705.70324 1.21801-.00126.44511-.32047.62697-.70784.40332-.40116-.23161-.7183-.78086-.71703-1.22597.00131-.46095.32047-.62696.72163-.39536z" fill="#d4d6d6"/></g></g></g></g></g><g><g><g><path d="m27.41348 6.29455c-.06862-.04114-.16472-.0274-.27457.02748l-14.27657 18.18897c0 .12358.04114.2196.10984.26083l-.9872-.58969c-.06862-.04122-.10976-.12358-.10976-.24709l-.02748-9.51316c0-.23343.16472-.52165.35693-.6315l13.93339-8.04431c.10984-.06862.20595-.06862.27457-.02748z" fill="#2ecc71"/></g></g><g><g><path d="m27.14142 6.32474c.21035-.12145.37741-.03634.3781.20537l.02695 9.50716c.00071.25179-.16529.53928-.37564.66073l-1.85805 1.07274.01142 4.02846-3.7013-1.89811-8.38772 4.84265c-.20156.11637-.36864.02118-.36936-.2306l-.02695-9.50716c-.00068-.24171.16535-.51913.3669-.6355z" fill="#30b265"/></g></g><g><g><path d="m19.5897 15.93056c-.17138 0-.33082-.04044-.47203-.12165-.33712-.19425-.52408-.59568-.5254-1.13003-.00331-1.05412.74053-2.34259 1.65775-2.87197.46673-.26983.91125-.3106 1.25201-.11403.33679.19392.52308.5917.52441 1.12008.00298 1.05809-.74319 2.35121-1.66372 2.88258-.2705.15613-.53369.23502-.77302.23502zm1.38878-4.02338c-.19109 0-.40538.06555-.62925.1948-.80334.46351-1.45454 1.59121-1.45176 2.5139.00124.42795.14162.74397.39517.88991.25417.14595.59925.10977.97124-.10544.80612-.46537 1.45979-1.59739 1.45732-2.52379-.00124-.42239-.141-.73531-.39425-.88095-.10295-.05905-.22045-.08843-.34847-.08843z" fill="#fff"/></g><g><path d="m21.05546 13.31613c.00625.48112-.33116 1.05601-.74359 1.29346-.41239.23745-.7498.04996-.7498-.43115 0-.46865.33116-1.04976.74358-1.28721.4124-.23745.74981-.05.74981.4249z" fill="#fff"/></g><g><path d="m20.242 11.046h.297v.854h-.297z" fill="#fff"/></g><g><path d="m20.255 15.608h.297v.847h-.297z" fill="#fff"/></g><g><path d="m22.146 12.331h.297v.858h-.297z" fill="#fff" transform="matrix(.501 .865 -.865 .501 22.167 -12.928)"/></g><g><path d="m18.176 14.414h.297v.858h-.297z" fill="#fff" transform="matrix(.501 .865 -.865 .501 21.988 -8.452)"/></g></g><g><g><path d="m15.48991 20.43826.0008.28193-.47784.27588.00431 1.52106-.26473.15285-.00431-1.52107-.47782.27587-.0008-.28193z" fill="#fff"/></g><g><path d="m16.69419 20.89491.40864.41806-.33577.19386-.37621-.38478-.34871.20133.00171.60101-.26472.15284-.00513-1.80301.58113-.33552c.23893-.13795.41339-.18668.51697-.15724.1036.0368.15568.15537.15625.35568.00085.29676-.10839.55308-.33416.75777zm-.3235-.0362c.14853-.08575.25177-.1751.30326-.25683.05798-.0855.08354-.18946.08321-.30816-.00034-.1187-.02639-.1854-.08462-.18899-.05176-.01468-.15515.02271-.29721.10473l-.33579.19387.00183.64552z" fill="#fff"/></g><g><path d="m18.16311 18.89487.69603 1.40409-.28411.16403-.15612-.3186-.7813.45108-.16029.50128-.28411.16403.68578-2.20187zm-.42298 1.35895.56823-.32807-.28623-.57788z" fill="#fff"/></g><g><path d="m19.81606 17.9034c.24538-.14167.44581-.16077.60784-.04626l-.16728.31214c-.07126-.04061-.14246-.05898-.21359-.05505-.06465.00759-.14218.03748-.23258.08968-.16143.0932-.2904.22713-.39985.40922-.10942.18207-.16065.36028-.16015.53835.00053.18552.05262.31149.16272.36682.10368.06649.23298.05131.3815-.03443.0904-.0522.16785-.11178.23231-.18614.07092-.07814.13534-.16735.20614-.28997l.17492.09966c-.16728.31214-.36715.53156-.60607.6695s-.43288.16076-.58833.07956c-.16194-.08487-.24006-.26269-.24081-.52983-.00076-.26709.08256-.53816.23703-.80571.16091-.27129.36082-.47587.6062-.61754z" fill="#fff"/></g><g><path d="m22.04388 16.65432-.63056 1.15927.64857.63628-.31639.18267-.52526-.48456-.2252.41247.00143.50454-.26473.15284-.00511-1.803.26473-.15284.0025.88293.71424-1.29674z" fill="#fff"/></g><g><path d="m22.56688 16.35236.00511 1.803-.26473.15284-.00511-1.803z" fill="#fff"/></g><g><path d="m24.44592 15.2675.00511 1.803-.28411.16403-.89481-.79883.00372 1.3133-.26475.15286-.00511-1.803.26475-.15286.91427.82474-.00383-1.35038z" fill="#fff"/></g><g><path d="m25.59517 14.56683c.226-.13048.41348-.16443.56885-.1055l-.1414.31202-.18758-.01059c-.06465.00759-.1357.0412-.21319.08594-.16143.0932-.29686.23086-.39985.40922-.10942.18207-.16068.36029-.16013.55321s.05266.31892.15628.37053c.10366.0591.23296.04387.38148-.04188.14851-.08574.27109-.19366.3742-.32753l-.00141-.49709.26473-.15284.00175.61584c-.14797.27866-.3608.4907-.63845.651-.23246.13421-.42642.15703-.58187.07583-.15548-.0886-.23359-.26642-.23435-.53356-.00076-.26709.0761-.53443.23702-.80571.16092-.27129.34792-.4684.57392-.59889z" fill="#fff"/></g></g></g><g><g><path d="m32.94587 19.35373.01167 4.1158-1.44016-.33961-1.63289 2.11384-.01167-4.11581z" fill="#e74c3c"/></g><g><path d="m36.87149 17.08727c.28188-.16275.50949-.03304.51041.29087l.03382 11.92873c.00092.32388-.22519.72346-.50708.88621l-10.93118 6.31112c-.28189.16275-.50952.02514-.51044-.29874l-.03382-11.92874c-.00092-.32391.22521-.71558.5071-.87833l3.93251-2.27044.01167 4.1158 1.63289-2.11384 1.44016.33961-.01167-4.1158z" fill="#f1c40f"/></g></g><g><g><path d="m25.49905 43.41527v.99939l11.90522-6.87348v-.99945z" fill="#525566"/></g><g><path d="m25.49905 38.80143v3.08637l11.90522-6.87348v-3.08636z" fill="#5b5e71"/></g></g></g></svg>