<svg id="Layer_1" enable-background="new 0 0 50 50" height="512" viewBox="0 0 50 50" width="512" xmlns="http://www.w3.org/2000/svg"><g><g><g><g enable-background="new"><g><path d="m34.6366 39.79213-10.04967-5.84023-.02874-10.13891 10.04967 5.84023z" fill="#fed44c"/></g><g><path d="m40.96911 27.67252c-.03422-.01699-.06844-.02841-.11408-.02841-1.80803.09135-3.99251.7071-6.12565 1.93917-.03993.02284-.07986.04567-.11975.06851l-10.04973-5.84061c.03989-.02284.07982-.04539.11975-.06823 2.13314-1.23206 4.31762-1.8481 6.12565-1.93944.04564 0 .07986.01142.11408.02868z" fill="#fee182"/></g><g><path d="m34.72908 29.58255c2.13219-1.23102 4.31743-1.84529 6.12856-1.93658.12766-.00253.21546.08935.22684.24628l.60077 7.33986c.01895.25328-.16249.5843-.39189.71674l-6.65676 3.84328-.02874-10.13891c.04027-.02371.08092-.0474.12122-.07067z" fill="#d8b441"/></g></g></g><g><g enable-background="new"><g><path d="m22.2868 33.72691-.00282.9961-1.69689-.97969.00282-.99611z" fill="#485f69"/></g><g><path d="m24.09684 34.77194-.00282.9961-1.81004-1.04503.00282-.9961z" fill="#2e3d42"/></g><g><path d="m31.46176 39.02408-.00282.9961-7.36492-4.25214.00282-.9961z" fill="#485f69"/></g><g><path d="m33.2718 40.06911-.00282.9961-1.81004-1.04503.00282-.9961z" fill="#2e3d42"/></g><g><path d="m36.73196 40.02411-.00282.9961-1.76327 1.0247.00283-.9961z" fill="#40545d"/></g><g><path d="m36.73196 40.02411-1.76326 1.0247-1.6969-.9797-1.81004-1.04503-7.36492-4.25214-1.81004-1.04503-1.69689-.9797 1.76327-1.0247z" fill="#56707b"/></g><g><path d="m34.9687 41.04881-.00283.9961-1.69689-.9797.00282-.9961z" fill="#485f69"/></g></g></g><g><g><g enable-background="new"><g><path d="m24.44423 10.99664-.00272 22.69727c-.0003.1042-.06881.20824-.20566.28778-.27548.16009-.72327.16008-1.00055 0-.13954-.08056-.20923-.18626-.20893-.29181l.00272-22.69727c-.0003.10554.06939.21124.20893.29181.27728.16009.72507.16009 1.00055 0 .13686-.07954.20537-.18358.20566-.28778z" fill="#9aa1a5"/></g><g><path d="m24.23532 10.70484c.27728.16009.27873.41948.00325.57957s-.72327.16009-1.00055 0-.27876-.41947-.00327-.57956c.27547-.16009.72329-.1601 1.00057-.00001z" fill="#dde4e7"/></g></g></g></g><g><g><g enable-background="new"><g><path d="m25.66366 1.41164-.00272 19.53601c-.0003.1042-.06881.20824-.20566.28778-.27548.16009-.72327.16009-1.00056 0-.13953-.08056-.20922-.18626-.20893-.29181l.00272-19.53601c-.0003.10554.06939.21125.20893.29181.27728.16009.72507.16009 1.00055 0 .13686-.07953.20537-.18358.20567-.28778z" fill="#b0b8bc"/></g><g><g enable-background="new"><g><path d="m32.39671 6.31187c-.05566-.0323-.13229-.02741-.21699.02178-.16859.09678-.30411.33231-.30411.52594.00081.09599.03469.16373.08874.1952l-6.82195-3.99258c-.05485-.03226-.08873-.09922-.08873-.19599-.00081-.19359.13471-.42834.3033-.52594.0847-.04841.16133-.05325.21699-.02099z" fill="#778c95"/></g><g><path d="m32.17936 6.3333c-.16841.09723-.30393.33258-.30339.52609.00055.19351.13696.27124.30537.17401.16842-.09723.30445-.33226.3039-.52578-.00054-.19351-.13747-.27155-.30588-.17432z" fill="#b0b8bc"/></g></g></g><g><path d="m25.45474 1.11985c.27728.16009.27873.41948.00325.57957s-.72327.16009-1.00055 0-.27876-.41947-.00327-.57956c.27547-.16009.72329-.1601 1.00057-.00001z" fill="#dde4e7"/></g></g></g></g><g><g enable-background="new"><g><path d="m32.39671 10.30459c-.05566-.0323-.13229-.02741-.21699.02178-.16859.09678-.30411.33231-.30411.52594.00081.09599.03469.16373.08874.1952l-6.82195-3.99258c-.05485-.03226-.08873-.09922-.08873-.19599-.00081-.19359.13471-.42834.3033-.52594.0847-.04841.16133-.05325.21699-.02099z" fill="#56707b"/></g><g><path d="m32.17936 10.32602c-.16841.09723-.30393.33258-.30339.52609.00055.19351.13696.27124.30537.17401.16842-.09723.30445-.33226.3039-.52578-.00054-.1935-.13747-.27155-.30588-.17432z" fill="#b0b8bc"/></g></g></g><g><g enable-background="new"><g><path d="m32.39671 11.90904c-.05566-.0323-.13229-.02741-.21699.02178-.16859.09678-.30411.33231-.30411.52594.00081.09599.03469.16373.08874.1952l-6.82195-3.99258c-.05485-.03226-.08873-.09922-.08873-.19599-.00081-.19359.13471-.42834.3033-.52594.0847-.04841.16133-.05325.21699-.02099z" fill="#56707b"/></g><g><path d="m32.17936 11.93047c-.16841.09723-.30393.33258-.30339.52609.00055.19351.13696.27124.30537.17401.16842-.09723.30445-.33226.3039-.52578-.00054-.1935-.13747-.27155-.30588-.17432z" fill="#b0b8bc"/></g></g></g><g><g enable-background="new"><g><path d="m32.39671 13.51349c-.05566-.0323-.13229-.02741-.21699.02178-.16859.09678-.30411.33231-.30411.52594.00081.09599.03469.16373.08874.1952l-6.82194-3.99259c-.05485-.03226-.08873-.09922-.08873-.19599-.00081-.19359.13471-.42834.3033-.52594.0847-.04841.16133-.05325.21699-.02099z" fill="#56707b"/></g><g><path d="m32.17936 13.53492c-.16841.09723-.30393.33258-.30339.52609.00055.19351.13696.27124.30537.17401.16842-.09723.30445-.33226.3039-.52578-.00054-.19351-.13747-.27155-.30588-.17432z" fill="#b0b8bc"/></g></g></g><g><g enable-background="new"><g><path d="m32.39671 15.11794c-.05566-.0323-.13229-.02741-.21699.02178-.16859.09678-.30411.33231-.30411.52594.00081.09599.03469.16373.08874.19521l-6.82194-3.99259c-.05485-.03226-.08873-.09922-.08873-.19599-.00081-.19359.13471-.42834.3033-.52594.0847-.04841.16133-.05325.21699-.02099z" fill="#56707b"/></g><g><path d="m32.17936 15.13937c-.16841.09723-.30393.33258-.30339.52609.00055.19351.13696.27124.30537.17401.16842-.09723.30445-.33226.3039-.52578-.00054-.19351-.13747-.27155-.30588-.17432z" fill="#b0b8bc"/></g></g></g><g><g enable-background="new"><g><path d="m32.39671 16.72239c-.05566-.0323-.13229-.02741-.21699.02178-.16859.09678-.30411.33231-.30411.52594.00081.09599.03469.16373.08874.1952l-6.82194-3.99259c-.05485-.03226-.08873-.09922-.08873-.19599-.00081-.19359.13471-.42834.3033-.52594.0847-.04841.16133-.05325.21699-.02099z" fill="#56707b"/></g><g><path d="m32.17936 16.74382c-.16841.09723-.30393.33258-.30339.52609.00055.19351.13696.27124.30537.17401.16842-.09723.30445-.33226.3039-.52578-.00054-.19351-.13747-.27155-.30588-.17432z" fill="#b0b8bc"/></g></g></g><g><g enable-background="new"><g><path d="m32.39671 18.32684c-.05566-.0323-.13229-.02741-.21699.02178-.16859.09678-.30411.33231-.30411.52594.00081.09599.03469.16373.08874.19521l-6.82194-3.99259c-.05485-.03226-.08873-.09922-.08873-.19599-.00081-.19359.13471-.42834.3033-.52594.0847-.04841.16133-.05325.21699-.02099z" fill="#56707b"/></g><g><path d="m32.17936 18.34827c-.16841.09723-.30393.33258-.30339.52609.00055.19351.13696.27124.30537.17401.16842-.09723.30445-.33227.3039-.52578-.00054-.19351-.13747-.27155-.30588-.17432z" fill="#b0b8bc"/></g></g></g><g><g><g enable-background="new"><g><path d="m32.62195 4.7046-.00272 19.53601c-.00029.1042-.06881.20824-.20567.28778-.27548.16009-.72327.16009-1.00055 0-.13953-.08056-.20922-.18626-.20893-.29181l.00272-19.53601c-.0003.10554.06939.21125.20893.29181.27728.16009.72507.16009 1.00055 0 .13687-.07954.20537-.18358.20567-.28778z" fill="#b0b8bc"/></g><g><path d="m32.41304 4.4128c.27728.16009.27873.41948.00325.57957s-.72327.16009-1.00055 0-.27876-.41947-.00327-.57956c.27547-.16009.72329-.1601 1.00057-.00001z" fill="#dde4e7"/></g></g></g></g><g><g><g enable-background="new"><g><path d="m33.53792 16.28353-.00273 22.69727c-.0003.1042-.06881.20824-.20567.28778-.27548.16009-.72327.16008-1.00055 0-.13953-.08056-.20922-.18626-.20893-.29181l.00272-22.69727c-.0003.10554.06939.21124.20893.29181.27728.16009.72507.1601 1.00055 0 .13687-.07954.20538-.18358.20568-.28778z" fill="#9aa1a5"/></g><g><path d="m33.32901 15.99173c.27728.16009.27873.41948.00325.57957s-.72327.16009-1.00055 0-.27876-.41947-.00328-.57956c.27547-.16009.72329-.1601 1.00058-.00001z" fill="#dde4e7"/></g></g></g></g><g><g><g><path d="m27.04972 4.16729v3.11341c0 .02393-.01582.04785-.04742.06329-.06324.03975-.17389.03975-.23713 0-.03951-.01544-.05528-.03936-.05528-.06329v-3.31099z" fill="#b0b8bc"/></g></g><g><g><path d="m27.62663 4.50688v3.09797c0 .02393-.01582.05557-.05533.071-.06324.03975-.17385.03975-.23709 0-.0316-.01544-.04742-.04708-.04742-.071v-3.30327z" fill="#b0b8bc"/></g></g><g><g><path d="m28.19564 4.83875v3.09797c0 .02393-.01577.04746-.04742.07139-.0711.03936-.17385.03936-.245 0-.0316-.02393-.04742-.04747-.04742-.07139v-3.30327z" fill="#b0b8bc"/></g></g><g><g><path d="m28.7726 5.17062v3.09797c0 .02393-.02373.04785-.05533.06329-.06324.03975-.17389.03975-.23709 0-.03164-.01544-.05533-.03936-.04742-.071v-3.28784z" fill="#b0b8bc"/></g></g><g><g><path d="m29.3416 5.50249v3.09026c0 .02392-.01577.05557-.04742.071-.0711.03975-.17385.03975-.245 0-.0316-.02354-.04742-.04708-.04742-.071v-3.28784z" fill="#b0b8bc"/></g></g><g><g><path d="m29.91857 5.84246-.00791 3.08215c0 .02393-.01582.04747-.04742.07139-.06324.03164-.17389.03164-.23709 0-.03164-.02393-.05533-.04747-.05533-.07139v-3.28744z" fill="#b0b8bc"/></g></g><g><g><path d="m30.48757 6.17433v3.07443c0 .03164-.01582.05557-.04742.071-.07115.03975-.17385.03975-.245 0-.0316-.01544-.04742-.03936-.04742-.071v-3.27201z" fill="#b0b8bc"/></g></g></g><g><g enable-background="new"><g><path d="m21.45391 20.96114.639-.37134 1.9362-.89746-.639.37135z" fill="#778c95"/></g><g><path d="m23.39011 20.06369.639-.37135 7.95066 4.59031-.639.37135z" fill="#778c95"/></g><g><path d="m33.26847 27.78228.639-.37134-.01602 5.65051-.639.37134z" fill="#40545d"/></g><g><path d="m31.34077 24.654.639-.37135 1.9277 3.12829-.639.37134z" fill="#485f69"/></g><g><path d="m31.34077 24.654 1.9277 3.12828-.01602 5.65051-11.81456-6.82114.01602-5.65051 1.9362-.89745z" fill="#56707b"/></g></g></g><g><g><path d="m24.09684 34.77194-.00282.9961-8.82475 5.12838.00283-.9961z" fill="#40545d"/></g><g><path d="m33.2718 40.06911-.00282.9961-8.82475 5.12838.00283-.9961z" fill="#40545d"/></g><g><g><g><path d="m24.09684 34.77194-8.82474 5.12838-5.52093 2.8062-1.11566-.64413 4.82655-3.20709 8.82474-5.12839z" fill="#56707b"/></g><g><path d="m15.2721 39.90032-.00283.9961-5.52093 2.8062.00283-.9961z" fill="#40545d"/></g><g><path d="m9.75117 42.70652-.00283.9961-1.11565-.64412.00282-.99611z" fill="#485f69"/></g></g><g><g><path d="m24.44706 45.19749-.00283.9961-5.52093 2.8062.00283-.99611z" fill="#40545d"/></g><g><path d="m18.92613 48.00368-.00283.99611-1.11176-.64188.00282-.99611z" fill="#485f69"/></g><g><path d="m33.2718 40.06911-8.82474 5.12838-5.52093 2.80619-1.11177-.64188 4.82266-3.20934 8.82474-5.12838z" fill="#56707b"/></g></g></g></g><g><g><path d="m35.34198 30.49887.00282.99611 1.7947-1.03617-.00283-.9961z" fill="#485f69"/></g><g><path d="m35.34198 32.23675.00282.9961 1.7947-1.03616-.00283-.99611z" fill="#485f69"/></g></g></g><g><g><g><g enable-background="new"><g><path d="m32.35154 33.57188-.02254 7.95007-8.84999 5.14306.02253-7.95008z" fill="#d9ae6d"/></g><g><path d="m28.90319 35.58041-.0049 1.7274-.6108.35496-.70136.40759.00489-1.7274z" fill="#ee5550"/></g><g><path d="m23.50154 38.71493-.02253 7.95008-12.43765-7.18088.02254-7.95008z" fill="#fecd82"/></g><g><path d="m32.35154 33.57188-8.85 5.14305-12.43764-7.18088 8.84999-5.14305z" fill="#ffd69a"/></g><g><path d="m28.90319 35.58041-1.31217.76255-12.43765-7.18088 1.31217-.76255z" fill="#f17572"/></g></g></g><g><g><path d="m14.43553 39.38884c.01263.06451.02027.12864.02011.18656-.00064.22693-.08796.4063-.26612.49964-.08195.04181-.12847.13844-.12884.2682l.12219.07055c.01989.01149.03831.04093.03823.06705-.00007.02533-.01859.0334-.03849.02192l-.32394-.18703c-.02202-.01271-.04044-.04211-.04037-.06744.00007-.02613.0186-.03424.04062-.02153l.12219.07055c.00037-.13224-.04758-.28338-.12831-.41911-.22095-.37039-.30181-.71468-.24346-.96635z" fill="#56707b"/></g><g><path d="m15.08621 39.52821 1.50461.86869-.0049 1.72891-1.50461-.86869zm1.42749 2.47251.00443-1.5616-1.35898-.78461-.00443 1.5616z" fill="#56707b"/></g><g><path d="m15.84224 40.15682c.01421.00821.02624.02988.0262.04622l-.00006.01957c.25356.16356.45686.48862.52486.84674-.01691-.05962-.05306-.1091-.09213-.13246-.0412-.02379-.07609-.01532-.09398.01929-.01834-.05553-.05094-.1038-.09214-.12839-.0412-.02379-.07467-.0145-.09256.02095-.01834-.05637-.05236-.10546-.09356-.12925-.02714-.01571-.04823-.01725-.06474-.00548l-.00523.5906c-.00103.115-.08372.16259-.18542.10388-.10218-.05979-.18502-.20494-.18398-.32043l.0009-.06491c.00005-.01794.01288-.02526.02851-.01624.01421.00904.02695.03029.02619.04866l-.00019.06528c-.00094.08041.05712.1818.12816.22366.07104.04102.12948.00804.13042-.07273l.00523-.59055c-.01699-.0319-.0404-.05606-.06455-.07001-.04146-.02394-.07563-.01523-.09327.01974-.01905-.05677-.05307-.10583-.09285-.12879-.04049-.02338-.07538-.01491-.09328.02298-.01691-.05883-.05164-.10749-.09213-.13166-.0412-.02379-.07609-.01532-.09399.02341.07336-.27654.28209-.36124.53431-.22627l.00006-.02042c.00076-.01589.01288-.02283.02922-.01339z" fill="#56707b"/></g><g><path d="m12.6691 39.51448-.00029.10124-.92493-.53401.00028-.10124z" fill="#56707b"/></g><g><path d="m12.66965 39.31776-.00028.10119-.92494-.53401.00029-.10119.1435.08285.11793.06808.40137.23173.11792.06809z" fill="#56707b"/></g><g><path d="m12.46913 38.26662.22414.49977-.16623-.09598-.0016.56409-.11792-.06809.0016-.56408-.16482-.09515z" fill="#56707b"/></g><g><path d="m11.45823 37.43359 1.5039.86828-.0049 1.72891-1.5039-.86828zm1.42678 2.4721.00443-1.5616-1.35898-.78461-.00443 1.5616z" fill="#56707b"/></g><g><path d="m11.94983 37.9668.22415.49977-.16624-.09597-.00159.56408-.11793-.06808.0016-.56408-.16481-.09516z" fill="#56707b"/></g><g><path d="m13.27186 38.4807 1.50461.86869-.0049 1.72892-1.50461-.86869zm1.42749 2.47251.00443-1.5616-1.35898-.78461-.00443 1.5616z" fill="#56707b"/></g></g></g><g><g><path d="m31.86406 39.69238.00464 1.63534.14132-.08159-.00463-1.63535z" fill="#485f69"/></g><g><path d="m31.55289 39.87203.00464 1.63534.14009-.08088-.00464-1.63534z" fill="#485f69"/></g><g><path d="m31.24173 40.05168.00463 1.63535.14009-.08088-.00464-1.63535z" fill="#485f69"/></g><g><path d="m30.92933 40.23204.00463 1.63535.05321-.03072-.00463-1.63535z" fill="#485f69"/></g><g><path d="m31.08135 40.14717.00463 1.63534.05322-.03072-.00464-1.63535z" fill="#485f69"/></g><g><path d="m30.70308 40.36267.00464 1.63534.05516-.03184-.00464-1.63535z" fill="#485f69"/></g><g><path d="m30.39192 40.54232.00463 1.63535.2332-.13464-.00464-1.63535z" fill="#485f69"/></g><g><path d="m30.07951 40.72269.00464 1.63534.14133-.08159-.00464-1.63535z" fill="#485f69"/></g><g><path d="m29.76835 40.90234.00463 1.63535.14133-.0816-.00464-1.63535z" fill="#485f69"/></g><g><path d="m29.45718 41.08199.00464 1.63534.18664-.10775-.00464-1.63535z" fill="#485f69"/></g><g><path d="m29.14602 41.26164.00463 1.63535.14009-.08088-.00464-1.63535z" fill="#485f69"/></g></g></g><g><g><path d="m32.95287 29.90764v.99562l-8.82781 5.12933-5.52429 2.80546.00786-.99561 5.51643-2.80585z" fill="#40545d"/></g><g><g><g><path d="m23.77754 24.60815-8.82475 5.12838-5.52093 2.80619-1.11565-.64412 4.82654-3.2071 8.82475-5.12838z" fill="#778c95"/></g><g><path d="m23.77732 24.60466v.99561l-8.8278 5.12933-5.52435 2.80546.00791-.9956 5.51644-2.80586z" fill="#40545d"/></g><g><path d="m9.43186 32.54272-.00282.99611-1.11565-.64413.00282-.9961z" fill="#485f69"/></g></g><g><g><path d="m18.60682 37.83989-.00282.9961-1.11176-.64188.00282-.9961z" fill="#485f69"/></g><g><path d="m32.9525 29.90531-8.82475 5.12839-5.52093 2.80619-1.11176-.64188 4.82265-3.20934 8.82475-5.12839z" fill="#778c95"/></g></g></g></g></g></svg>