<svg id="Layer_1" enable-background="new 0 0 52 52" height="512" viewBox="0 0 52 52" width="512" xmlns="http://www.w3.org/2000/svg"><g><g enable-background="new"><g><path d="m2.00401 31.0946 26.63141-15.47649 2.41734-1.21833-26.63142 15.47649z" fill="#e5bd13"/></g><g><path d="m4.42134 29.87627 26.63142-15.47649 16.54873 9.55442-26.63141 15.47648z" fill="#f1c40f"/><g fill="#fff"><path d="m25.66805 18.68709 5.203-3.02416 4.23646 2.4462-5.20301 3.02417z"/><path d="m14.38809 32.78213 8.58471-4.98973 6.98996 4.03613-8.58472 4.98973z"/></g></g><g><path d="m20.97008 39.43068 26.63141-15.47648 2.40252 4.00107-26.63142 15.47649z" fill="#e5bd13"/></g><g><path d="m20.97008 39.43068 2.40251 4.00108-2.41731 1.21848-16.54873-9.55441-2.40254-4.00123 2.41733-1.21833z" fill="#d6b218"/></g></g><g enable-background="new"><g><path d="m1.99599 24.04457 26.63142-15.47648 2.41734-1.21833-26.63142 15.47648z" fill="#2ebf69"/></g><g><path d="m4.42134 22.82624 26.63142-15.47648 16.54873 9.55441-26.63141 15.47649z" fill="#2ecc71"/></g><g><path d="m20.97008 32.38066 26.63141-15.47649 2.40252 4.00108-26.63142 15.47648z" fill="#2ebf69"/></g><g><path d="m20.97008 32.38066 2.40251 4.00107-2.41731 1.21849-16.54873-9.55442-2.40254-4.00123 2.41733-1.21833z" fill="#30b265"/></g></g><g><g><path d="m10.10198 21.65708.00278.50118 11.06814 6.43209-.0014-.49217z" fill="#d4d6d6"/></g><g><path d="m21.1715 28.0077.0014.58265 20.4565-11.81056-.02284-.48929z" fill="#c4c6c6"/></g><path d="m10.10198 21.65708 11.06913 6.44012.40241-.24125.66419-.38252.56357-.32208.7245-.40241.5836-.34198.66418-.38252.54343-.32208.70435-.42256h.02015l.56345-.32208.64404-.38251.58372-.32184.7245-.42256.56346-.32208.66418-.38251.56357-.34198.7245-.40242.56345-.32232.66418-.38227.58373-.34198.70435-.40266.56346-.34223.64403-.38227h.02015l.54343-.32183.7245-.42281h.02014l.5836-.32208.62389-.38227.58373-.32208.70435-.42256.56358-.32208.66405-.38227.58372-.32208.70435-.4228.50315-.28155-11.04898-6.42022-.50314.30194-.70435.40241-.58373.32208-.64403.38252-.56346.32183-.72449.42256-.58373.34223-.64404.36237-.5836.34198-.70435.40266-.58372.32208-.64404.38227-.5836.34198-.70435.40266-.58372.32208-.66418.38227-.56346.32208-.70435.4228-.58372.32184-.66418.38227-.56346.32208-.72449.4228-.56358.32184-.66418.38251-.56346.32208-.72449.42256-.56358.32184-.64404.38251-.60374.34223-.70435.40241-.56358.32208-.66418.38227z" fill="#d4d6d6"/><g><g><path d="m30.06663 10.1654 11.038 6.41513.51412-.29685-11.04898-6.42022z" fill="#e74c3c"/></g><g enable-background="new"><g><path d="m28.77855 10.88989 1.38868.80508.38239-.22136 8.27163 4.81007-.3824.22136 1.38868.80507.58372-.32208-11.04897-6.42022z" fill="#3293c9"/></g><g fill="#e74c3c"><path d="m37.21122 17.20938 1.38868.80508.56358-.32208-1.38868-.80508z"/><path d="m27.57106 11.59424 1.38868.80508.56345-.32208-1.38867-.80483z"/></g><g fill="#e74c3c"><path d="m32.1798 20.10736 1.40882.82523.56346-.34223-1.38868-.80483z"/><path d="m22.51949 14.51237 1.38868.80532.5836-.34223-1.38868-.80507z"/></g><g fill="#3293c9"><path d="m30.89172 20.85225 1.40882.82498.58373-.34198-1.40882-.82522z"/><path d="m21.23142 15.23711 1.40882.82497.56346-.34198-1.38856-.80507z"/></g><g fill="#e74c3c"><path d="m29.66409 21.55636 1.40882.82546.56345-.32232-1.4087-.82498z"/><path d="m20.00378 15.94146 1.40883.82522.56345-.32208-1.40882-.82522z"/></g><g fill="#3293c9"><path d="m28.37601 22.30124 1.40883.82498.56357-.34198-1.38867-.80508z"/><path d="m18.71571 16.6861 1.40882.82522.5836-.34223-1.4087-.80483z"/></g><g fill="#e74c3c"><path d="m27.14838 23.00559 1.40882.82522.56346-.32208-1.40871-.82522z"/><path d="m17.48807 17.39045 1.40883.82522.56345-.32208-1.40882-.82522z"/></g><g fill="#3293c9"><path d="m25.8603 23.77038 1.38868.80483.58372-.32184-1.40882-.82522z"/><path d="m16.2 18.13509 1.40882.82522.56346-.32208-1.4087-.82498z"/></g><g fill="#e74c3c"><path d="m24.63267 24.47473 1.38867.80507h.02015l.56345-.32208-1.4087-.82522z"/><path d="m14.97236 18.83968 1.40883.82498.56345-.32184-1.40882-.82522z"/></g><g fill="#3293c9"><path d="m23.36474 25.19922 1.40882.82522.54343-.32208-1.40882-.82497z"/><path d="m13.68429 19.58408 1.42897.82522.54331-.32208-1.4087-.82498z"/></g><g fill="#e74c3c"><path d="m22.11695 25.92396 1.40883.82498.5836-.34198-1.40882-.82547z"/><path d="m12.43651 20.30882 1.42896.82497.58361-.34198-1.40883-.82522z"/></g><g><path d="m11.16858 21.03331 11.06913 6.44012.56357-.32208-1.40882-.82497-8.23146-4.78992-1.42884-.82523z" fill="#3293c9"/></g><g><path d="m10.10198 21.65708 11.06913 6.44012.40241-.24125-11.06912-6.44037z" fill="#e74c3c"/></g></g><g fill="#3293c9"><path d="m35.92315 17.95403 1.38867.80507.58373-.32208-1.38868-.80508z"/><path d="m26.26284 12.35903 1.38868.80507.5836-.34198-1.38855-.80532z"/></g><g fill="#3293c9"><path d="m33.40744 19.40302 1.38867.80507h.02015l.54343-.32183-1.38868-.80532z"/><path d="m23.74713 13.78812 1.38868.80483.5836-.32184-1.38856-.80507z"/></g><g fill="#e74c3c"><path d="m34.69551 18.65837 1.38868.80508h.02014l.5836-.32208-1.40882-.82498z"/><path d="m25.0352 13.06338 1.38868.80507.5836-.34222-1.38868-.80483z"/></g></g><path d="m39.9472 16.51971-9.79147-5.69198-18.3822 10.61322 9.79147 5.69199z" fill="#ecf0f1"/><path d="m12.9195 21.67723 8.25161 4.78992.22135-.14077-8.23146-4.78992z" fill="#ecf0f1"/><path d="m13.25579 21.44893 6.15846-3.57951 2.59819 1.50025-6.15846 3.5795z" fill="#d4d6d6"/><g><g><path d="m14.07212 21.38726.14906.08663 5.50283-3.17706-.14907-.08662z" fill="#3d566e"/></g><g><path d="m14.40795 21.58243.14932.08677 5.50282-3.17705-.14931-.08678z" fill="#3d566e"/></g><g><path d="m15.75129 22.36309.13059.07589 5.50283-3.17705-.13059-.07589z" fill="#3d566e"/></g><g><path d="m15.41546 22.16793.13059.07589 5.50282-3.17706-.13059-.07589z" fill="#3d566e"/></g><g><path d="m15.07962 21.97276.13059.07589 5.50283-3.17705-.13059-.07589z" fill="#3d566e"/></g><g><path d="m14.74379 21.7776.13059.07589 5.50282-3.17706-.13059-.07589z" fill="#3d566e"/></g></g><g><g><path d="m32.56337 18.39962.12319.07158 4.54751-2.62551-.12318-.07158z" fill="#5b5e71"/></g><g><path d="m32.8409 18.5609.1234.07171 4.54751-2.62551-.12339-.07171z" fill="#5b5e71"/></g><g><path d="m33.95103 19.20604.10792.06271 4.54752-2.62551-.10792-.06271z" fill="#5b5e71"/></g><g><path d="m33.6735 19.04475.10792.06272 4.54752-2.62551-.10792-.06272z" fill="#5b5e71"/></g><g><path d="m33.39597 18.88347.10792.06271 4.54752-2.62551-.10792-.06271z" fill="#5b5e71"/></g><g><path d="m33.11843 18.72219.10792.06271 4.54752-2.62551-.10792-.06272z" fill="#5b5e71"/></g></g></g></g></svg>