<svg id="Layer_1" enable-background="new 0 0 52 52" height="512" viewBox="0 0 52 52" width="512" xmlns="http://www.w3.org/2000/svg"><g><g><g><g enable-background="new"><g><g><g><path d="m29.44865 47.22705c.2028-.11478.47827-.09948.78819.07653.6122.35583 1.10576 1.20906 1.10193 1.90925 0 .352-.12244.59688-.32138.71166l.54981-.31865c.19894-.11478.32138-.36349.32138-.71166.00383-.70402-.48973-1.55725-1.10193-1.90925-.30609-.17601-.58539-.19514-.78819-.07653z" fill="#5b5e71"/></g></g></g><g><g><g><path d="m30.23663 47.3053c-.61072-.3526-1.10823-.07189-1.11022.62988-.002.70458.49229 1.56071 1.10301 1.9133.61072.3526 1.10823.06909 1.11023-.63549.00199-.70176-.49231-1.55509-1.10302-1.90769z" fill="#474b59"/></g></g></g><g><g><g><path d="m30.23602 47.52039c-.50739-.29294-.92072-.05973-.92238.5233-.00166.58537.409 1.29665.91639 1.58959s.92073.0574.92239-.52797c.00165-.58302-.40901-1.29198-.9164-1.58492z" fill="#d4d6d6"/></g></g></g><g><g><g><path d="m30.23602 47.52039c-.50739-.29294-.92072-.05973-.92238.5233-.00166.58537.409 1.29665.91639 1.58959s.92073.0574.92239-.52797c.00165-.58302-.40901-1.29198-.9164-1.58492z" fill="#d4d6d6"/></g></g></g></g></g><g><g enable-background="new"><g><g><g><path d="m30.44622 49.2844.08886-.05163.17696-2.61995-.08885.05164z" fill="#c4c6c6"/></g></g></g><g><g><g><path d="m29.75401 46.16264.16613 2.81803.52608.30373.17697-2.61994z" fill="#ecf0f1"/></g></g></g></g></g><g><g enable-background="new"><g><g><g><path d="m29.05544 46.33274.0017.37943c.00054.19236.12671.38465.37761.53046.49802.28942 1.32458.29213 1.83057 0 .25699-.14837.38415-.34333.38359-.53729l-.00169-.37942c.00054.19396-.12662.38891-.3836.53728-.50599.29213-1.33255.28941-1.83057 0-.25089-.1458-.37706-.33809-.37761-.53046z" fill="#d4d6d6"/></g></g></g><g><g><g><path d="m29.43436 45.80016c-.50599.29213-.50403.7709-.00131 1.06305.49802.28942 1.32458.29213 1.83057 0 .51067-.29484.50868-.77362.01066-1.06304-.50272-.29215-1.32925-.29485-1.83992-.00001z" fill="#ecf0f1"/></g></g></g></g></g><g><g><g><path d="m30.17004 48.53777c-.10343-.05972-.18768-.01218-.18802.10667-.00034.11932.08337.26431.1868.32402.10343.05972.18768.0117.18802-.10762.00034-.11884-.08337-.26336-.1868-.32307z" fill="#5b5e71"/></g></g></g></g><g><g><g enable-background="new"><g><g><g><path d="m13.40679 38.10668c.2028-.11478.47827-.09948.78819.07653.6122.35583 1.10576 1.20905 1.10193 1.90924 0 .352-.12244.59688-.32138.71166l.54981-.31865c.19894-.11478.32138-.36349.32138-.71166.00383-.70402-.48974-1.55725-1.10193-1.90925-.30609-.17601-.58539-.19514-.78819-.07653z" fill="#5b5e71"/></g></g></g><g><g><g><path d="m14.19477 38.18493c-.61072-.3526-1.10823-.07188-1.11022.62988-.002.70458.49229 1.56071 1.10301 1.9133.61072.3526 1.10823.06909 1.11023-.63549.00199-.70176-.49231-1.55509-1.10302-1.90769z" fill="#474b59"/></g></g></g><g><g><g><path d="m14.19416 38.40002c-.50739-.29294-.92073-.05972-.92238.5233-.00166.58537.409 1.29665.91639 1.58959s.92073.0574.92239-.52797c.00165-.58302-.40901-1.29198-.9164-1.58492z" fill="#d4d6d6"/></g></g></g><g><g><g><path d="m14.19416 38.40002c-.50739-.29294-.92073-.05972-.92238.5233-.00166.58537.409 1.29665.91639 1.58959s.92073.0574.92239-.52797c.00165-.58302-.40901-1.29198-.9164-1.58492z" fill="#d4d6d6"/></g></g></g></g></g><g><g enable-background="new"><g><g><g><path d="m14.40437 40.16403.08885-.05163.17697-2.61995-.08886.05164z" fill="#c4c6c6"/></g></g></g><g><g><g><path d="m13.71215 37.04227.16613 2.81803.52609.30373.17696-2.61994z" fill="#ecf0f1"/></g></g></g></g></g><g><g enable-background="new"><g><g><g><path d="m13.01358 37.21237.0017.37943c.00054.19236.12671.38465.37761.53046.49802.28942 1.32458.29214 1.83057 0 .25699-.14837.38414-.34333.38359-.53729l-.00169-.37942c.00054.19396-.12662.38891-.3836.53728-.50599.29213-1.33255.28942-1.83057 0-.25089-.1458-.37706-.33809-.37761-.53046z" fill="#d4d6d6"/></g></g></g><g><g><g><path d="m13.3925 36.67979c-.50599.29213-.50403.7709-.00131 1.06305.49802.28942 1.32458.29213 1.83057 0 .51067-.29483.50868-.77362.01066-1.06303-.50272-.29216-1.32925-.29486-1.83992-.00002z" fill="#ecf0f1"/></g></g></g></g></g><g><g><g><path d="m14.12818 39.4174c-.10343-.05972-.18768-.01218-.18802.10667-.00034.11932.08337.26431.1868.32402.10343.05972.18768.0117.18802-.10762.00034-.11884-.08337-.26335-.1868-.32307z" fill="#5b5e71"/></g></g></g></g><g><g><g enable-background="new"><g><g><g><path d="m40.46168 41.20276c.2028-.11478.47827-.09948.78819.07653.6122.35583 1.10576 1.20905 1.10193 1.90925 0 .352-.12244.59688-.32138.71166l.54981-.31865c.19894-.11478.32138-.36349.32138-.71166.00383-.70403-.48973-1.55725-1.10193-1.90925-.30609-.17601-.58539-.19514-.78819-.07653z" fill="#5b5e71"/></g></g></g><g><g><g><path d="m41.24966 41.28102c-.61072-.3526-1.10823-.07189-1.11022.62988-.002.70457.49229 1.5607 1.10301 1.9133s1.10823.06909 1.11023-.63549c.00199-.70177-.49231-1.5551-1.10302-1.90769z" fill="#474b59"/></g></g></g><g><g><g><path d="m41.24905 41.49611c-.50739-.29294-.92073-.05973-.92238.5233-.00166.58537.409 1.29665.91639 1.58959s.92073.0574.92239-.52797c.00165-.58303-.40901-1.29199-.9164-1.58492z" fill="#d4d6d6"/></g></g></g><g><g><g><path d="m41.24905 41.49611c-.50739-.29294-.92073-.05973-.92238.5233-.00166.58537.409 1.29665.91639 1.58959s.92073.0574.92239-.52797c.00165-.58303-.40901-1.29199-.9164-1.58492z" fill="#d4d6d6"/></g></g></g></g></g><g><g enable-background="new"><g><g><g><path d="m41.45926 43.26012.08885-.05164.17696-2.61994-.08885.05163z" fill="#c4c6c6"/></g></g></g><g><g><g><path d="m40.76704 40.13836.16613 2.81802.52609.30374.17696-2.61995z" fill="#ecf0f1"/></g></g></g></g></g><g><g enable-background="new"><g><g><g><path d="m40.06847 40.30845.0017.37943c.00054.19236.12671.38465.37761.53046.49802.28942 1.32458.29213 1.83057 0 .25698-.14837.38414-.34332.38359-.53728l-.00169-.37942c.00054.19396-.12662.38891-.3836.53728-.50599.29213-1.33255.28941-1.83057 0-.25089-.14581-.37706-.3381-.37761-.53047z" fill="#d4d6d6"/></g></g></g><g><g><g><path d="m40.44739 39.77587c-.50599.29213-.50403.7709-.00131 1.06305.49802.28942 1.32458.29213 1.83057 0 .51067-.29484.50868-.77362.01066-1.06304-.50272-.29215-1.32925-.29484-1.83992-.00001z" fill="#ecf0f1"/></g></g></g></g></g><g><g><g><path d="m41.18307 42.51348c-.10343-.05971-.18768-.01217-.18802.10667-.00034.11932.08337.26431.1868.32402.10342.05972.18768.0117.18802-.10762.00034-.11884-.08337-.26335-.1868-.32307z" fill="#5b5e71"/></g></g></g></g><g><g><g enable-background="new"><g><g><g><path d="m24.41982 32.08239c.2028-.11478.47827-.09948.78819.07653.6122.35583 1.10576 1.20906 1.10193 1.90925 0 .352-.12244.59688-.32138.71166l.54981-.31865c.19894-.11478.32138-.36349.32138-.71166.00383-.70402-.48973-1.55725-1.10193-1.90925-.30609-.17601-.58539-.19514-.78819-.07653z" fill="#5b5e71"/></g></g></g><g><g><g><path d="m25.2078 32.16065c-.61072-.3526-1.10823-.07189-1.11022.62988-.002.70458.49229 1.56071 1.10301 1.9133.61072.3526 1.10823.06909 1.11023-.63549.00199-.70176-.4923-1.55509-1.10302-1.90769z" fill="#474b59"/></g></g></g><g><g><g><path d="m25.20719 32.37574c-.50739-.29294-.92072-.05973-.92238.5233-.00166.58537.409 1.29665.91639 1.58959s.92073.0574.92239-.52797c.00165-.58303-.40901-1.29198-.9164-1.58492z" fill="#d4d6d6"/></g></g></g><g><g><g><path d="m25.20719 32.37574c-.50739-.29294-.92072-.05973-.92238.5233-.00166.58537.409 1.29665.91639 1.58959s.92073.0574.92239-.52797c.00165-.58303-.40901-1.29198-.9164-1.58492z" fill="#d4d6d6"/></g></g></g></g></g><g><g enable-background="new"><g><g><g><path d="m25.4174 34.13975.08885-.05164.17697-2.61994-.08886.05164z" fill="#c4c6c6"/></g></g></g><g><g><g><path d="m24.72519 31.01799.16612 2.81802.52609.30374.17696-2.61994z" fill="#ecf0f1"/></g></g></g></g></g><g><g enable-background="new"><g><g><g><path d="m24.02662 31.18809.0017.37943c.00054.19237.12671.38465.37761.53046.49802.28942 1.32458.29213 1.83057 0 .25699-.14837.38415-.34333.38359-.53729l-.00169-.37942c.00054.19396-.12662.38891-.3836.53728-.50599.29213-1.33255.28941-1.83057 0-.2509-.14581-.37707-.33809-.37761-.53046z" fill="#d4d6d6"/></g></g></g><g><g><g><path d="m24.40553 30.6555c-.50599.29213-.50403.7709-.00131 1.06305.49802.28942 1.32458.29213 1.83057 0 .51067-.29484.50868-.77362.01066-1.06304-.50272-.29214-1.32925-.29484-1.83992-.00001z" fill="#ecf0f1"/></g></g></g></g></g><g><g><g><path d="m25.14121 33.39312c-.10343-.05972-.18768-.01218-.18802.10667-.00034.11932.08337.26431.1868.32402.10343.05972.18768.0117.18802-.10762.00034-.11885-.08337-.26336-.1868-.32307z" fill="#5b5e71"/></g></g></g></g><g><g><g><g enable-background="new"><g><path d="m7.12615 34.65839-.80546-.46808 3.30476-8.61531.80545.46808z" fill="#3c3e4b"/></g><g><path d="m10.4309 26.04308-.80545-.46808 7.7192-4.45279.80546.46808z" fill="#4e5161"/></g><g><path d="m18.15011 21.59029 3.03706 4.87567-14.06102 8.19243 3.30475-8.61531z" fill="#464957"/></g></g></g><g><path d="m12.71576 33.93864.00204.71957 8.13919-4.69803-.00204-.71958z" fill="#3f434f"/></g><g><path d="m20.85595 29.24406v.71502l21.44245 12.52933c.76798.45021 2.02151.45021 2.79832 0 .38841-.22947.58258-.52079.58258-.8121v-.71502c-.00883.29132-.19418.58264-.58258.80332-.78565.45015-2.03034.45015-2.79832 0z" fill="#525566"/></g><path d="m7.46646 33.75201-.34031.90199 24.2231 14.1536c.77681.45021 2.02145.45021 2.79827 0 .3884-.22952.58258-.52079.59142-.8121v-.72385c-.00884.30016-.20301.59142-.59142.8121-.77682.45021-2.02145.45021-2.79827 0z" fill="#525566"/><path d="m7.46972 33.75164 23.87926 14.33421c.7727.44904 2.01983.44906 2.7976.00002.38888-.22453.58153-.51739.58882-.8135-.00399-.2896-.19334-.58245-.5797-.80697l-21.43994-12.52676 8.13919-4.69804 21.43994 12.52676c.77269.44904 2.01982.44906 2.7976.00001.38889-.22452.58153-.51739.58318-.81024.00165-.29286-.1877-.5857-.57406-.81023l-24.22842-14.14724z" fill="#5b5e71"/><g><g><g><path d="m34.04134 27.19418-.02486 6.14506-17.90046 10.55794.02486-6.14506z" fill="#c6a51a"/></g><g><path d="m19.89296 38.00513-.00818 2.58323-2.33887 1.35921.00817-2.58323z" fill="#e4e8f4"/></g><g><path d="m16.14088 37.75212-.02486 6.14506-7.15892-4.1332.02486-6.14506z" fill="#d6b218"/></g><path d="m34.04303 27.1991-17.90217 10.55784-3.12728-1.81058-.90531-.51207-.01825-.0091-3.10903-1.80142 17.90222-10.55784 3.12728 1.80143.00915.00915.89611.51207z" fill="#e5bd13"/><path d="m30.91575 25.38858-17.90217 10.55778-.90531-.51207-.01825-.0091 17.92047-10.55783.00915.00915z" fill="#5b5e71"/><g><path d="m13.01358 35.94636-.00842 2.97189-.91514-.52262.00842-2.97189z" fill="#474b59"/></g></g><g><g><path d="m31.10258 32.2504.2464.46885-.1526.0881-.33674.19297z" fill="#3f434f"/></g><g><path d="m31.19638 32.80735.00263.92748-.18413.10631-.00263-.92748z" fill="#3f434f"/></g><g><path d="m32.11107 33.29099.00056.19854-1.27126.73397-.00056-.19854z" fill="#3f434f"/></g><g><path d="m33.46225 30.88804.00188.66083c.00059.20868-.12.45104-.28008.57395l.00169.59562c.11228-.05176.19694-.04693.19711.01538l-.49564.28616c-.00018-.06232.08417-.16472.19638-.24257l-.00169-.59562c-.07318.02919-.13636.02212-.18572-.0089-.05823-.04331-.09636-.12436-.09668-.2403l-.00188-.66083z" fill="#3f434f"/></g><g><path d="m31.93291 32.38211.00263.92749-.18414.10631-.00263-.92748z" fill="#3f434f"/></g><g><path d="m31.84037 31.82443.24514.46958-.1526.0881-.33548.19224z" fill="#3f434f"/></g></g><g><g><path d="m11.60435 38.96929-.21926.41722.13579.0784.29967.17172z" fill="#4c7891"/></g><g><path d="m11.52088 39.46491-.00234.82537.16386.0946.00234-.82536z" fill="#4c7891"/></g><g><path d="m10.7069 39.8953-.0005.17668 1.13129.65315.00051-.17668z" fill="#4c7891"/></g><g><path d="m9.5045 37.75694-.00167.58807c-.00053.18571.10678.40137.24924.51075l-.0015.53004c-.09992-.04606-.17525-.04176-.17541.01369l.44107.25465c.00016-.05545-.0749-.14658-.17475-.21586l.0015-.53004c.06512.02597.12135.01968.16527-.00792.05182-.03854.08575-.11067.08604-.21384l.00167-.58807z" fill="#4c7891"/></g><g><path d="m10.86545 39.0865-.00234.82536.16386.09461.00234-.82536z" fill="#4c7891"/></g><g><path d="m10.9478 38.59023-.21815.41786.1358.07841.29854.17107z" fill="#4c7891"/></g></g></g><g><g><g><path d="m42.15875 31.83379-.02486 6.14506-17.90046 10.55795.02486-6.14506z" fill="#c6a51a"/></g><g><path d="m28.01037 42.64474-.00817 2.58323-2.33888 1.35921.00817-2.58323z" fill="#e4e8f4"/></g><g><path d="m24.25829 42.39174-.02486 6.14506-7.15892-4.13321.02486-6.14506z" fill="#d6b218"/></g><path d="m42.16044 31.83871-17.90217 10.55784-3.12728-1.81058-.90531-.51207-.01825-.00909-3.10903-1.80143 17.90222-10.55784 3.12728 1.80143.00915.00915.89611.51207z" fill="#e5bd13"/><path d="m39.03316 30.02819-17.90217 10.55778-.90531-.51207-.01825-.00909 17.92047-10.55784.00915.00915z" fill="#5b5e71"/><g><path d="m21.13099 40.58597-.00842 2.97189-.91514-.52262.00842-2.97189z" fill="#474b59"/></g></g><g><g><path d="m39.21999 36.89001.2464.46885-.1526.0881-.33674.19297z" fill="#3f434f"/></g><g><path d="m39.31379 37.44696.00263.92748-.18413.10631-.00263-.92748z" fill="#3f434f"/></g><g><path d="m40.22849 37.9306.00056.19854-1.27127.73397-.00056-.19854z" fill="#3f434f"/></g><g><path d="m41.57966 35.52766.00187.66083c.00059.20868-.11999.45104-.28008.57395l.00169.59562c.11228-.05176.19694-.04693.19711.01539l-.49565.28616c-.00018-.06231.08417-.16472.19638-.24257l-.00169-.59562c-.07318.02919-.13636.02212-.18572-.0089-.05823-.04331-.09636-.12436-.09669-.2403l-.00187-.66083z" fill="#3f434f"/></g><g><path d="m40.05032 37.02172.00263.92749-.18414.10631-.00263-.92748z" fill="#3f434f"/></g><g><path d="m39.95778 36.46405.24514.46957-.1526.0881-.33548.19225z" fill="#3f434f"/></g></g><g><g><path d="m19.72177 43.6089-.21927.41722.1358.07841.29966.17172z" fill="#4c7891"/></g><g><path d="m19.6383 44.10453-.00234.82536.16385.0946.00234-.82536z" fill="#4c7891"/></g><g><path d="m18.82432 44.53492-.0005.17667 1.13129.65315.0005-.17668z" fill="#4c7891"/></g><g><path d="m17.62192 42.39655-.00167.58807c-.00053.18571.10678.40138.24924.51075l-.0015.53004c-.09992-.04606-.17525-.04176-.17541.01369l.44107.25465c.00016-.05545-.0749-.14658-.17476-.21586l.0015-.53004c.06512.02597.12135.01968.16527-.00792.05182-.03854.08575-.11067.08604-.21384l.00167-.58807z" fill="#4c7891"/></g><g><path d="m18.98286 43.72611-.00234.82536.16386.09461.00234-.82536z" fill="#4c7891"/></g><g><path d="m19.06521 43.22984-.21815.41787.1358.0784.29854.17107z" fill="#4c7891"/></g></g></g><g><g><g><path d="m35.13802 24.6354-.02486 6.14506-11.76731 6.94092.02486-6.14506z" fill="#c6a51a"/></g><g><path d="m27.12279 31.82933-.00818 2.58323-2.33887 1.35921.00817-2.58324z" fill="#e4e8f4"/></g><g><path d="m23.37071 31.57632-.02486 6.14506-7.15892-4.13321.02486-6.14505z" fill="#d6b218"/></g><path d="m35.13971 24.64032-11.76902 6.94081-3.12728-1.81057-.90531-.51207-.01825-.0091-3.10903-1.80142 11.76907-6.94081 3.12728 1.80142.00915.00915.89611.51207z" fill="#e5bd13"/><path d="m32.01243 22.8298-11.76902 6.94076-.90531-.51207-.01825-.0091 11.78732-6.94081.00915.00915z" fill="#5b5e71"/><g><path d="m20.24341 29.77056-.00842 2.97189-.91514-.52262.00842-2.97189z" fill="#474b59"/></g></g><g><g><path d="m32.19926 29.69162.2464.46885-.1526.08811-.33674.19296z" fill="#3f434f"/></g><g><path d="m32.29306 30.24858.00263.92748-.18413.10631-.00263-.92749z" fill="#3f434f"/></g><g><path d="m33.20775 30.73222.00057.19854-1.27127.73396-.00056-.19854z" fill="#3f434f"/></g><g><path d="m34.55893 28.32927.00187.66083c.00059.20868-.12.45104-.28008.57395l.00169.59562c.11228-.05176.19693-.04693.19711.01539l-.49565.28616c-.00018-.06231.08417-.16472.19638-.24257l-.00169-.59562c-.07318.02919-.13637.02212-.18572-.0089-.05823-.04331-.09636-.12436-.09669-.2403l-.00186-.66083z" fill="#3f434f"/></g><g><path d="m33.02959 29.82334.00263.92748-.18414.10631-.00262-.92748z" fill="#3f434f"/></g><g><path d="m32.93705 29.26566.24514.46958-.1526.0881-.33548.19224z" fill="#3f434f"/></g></g><g><g><path d="m18.83418 32.79348-.21926.41723.1358.0784.29966.17172z" fill="#4c7891"/></g><g><path d="m18.75072 33.28911-.00235.82536.16386.09461.00234-.82537z" fill="#4c7891"/></g><g><path d="m17.93674 33.7195-.0005.17668 1.13129.65315.0005-.17668z" fill="#4c7891"/></g><g><path d="m16.73433 31.58113-.00167.58807c-.00053.18571.10678.40138.24924.51075l-.0015.53003c-.09992-.04606-.17525-.04176-.17541.01369l.44107.25465c.00016-.05545-.0749-.14658-.17476-.21586l.0015-.53004c.06512.02597.12135.01968.16527-.00792.05182-.03854.08575-.11067.08604-.21384l.00167-.58807z" fill="#4c7891"/></g><g><path d="m18.09528 32.9107-.00234.82536.16386.0946.00234-.82536z" fill="#4c7891"/></g><g><path d="m18.17763 32.41442-.21815.41787.1358.07841.29854.17107z" fill="#4c7891"/></g></g></g></g><g><g enable-background="new"><g><path d="m13.57671 12.53799-.78396-.4556.03125 11.65254.78397.45559z" fill="#d8463f"/></g><g><path d="m17.15511 7.63566-.78396-.45559-2.79305 3.41081.78397.45559z" fill="#f34858"/></g><g><path d="m17.14429 3.81652-.78397-.45559.01083 3.81914.78396.45559z" fill="#d8463f"/></g><g><path d="m13.57377 11.50159-.78396-.45559-2.79612-.18391.78397.45559z" fill="#f34858"/></g><g><path d="m13.55786 5.88715-.78397-.45559.01592 5.61444.78396.45559z" fill="#d8463f"/></g><g><path d="m9.97595 7.04787-.78397-.45559.0149 5.25539.78397.45559z" fill="#d8463f"/></g><g><path d="m17.93001 2.45559-.78396-.45559-7.95407 4.59228.78397.45559z" fill="#e74c3c"/></g><g><path d="m17.94491 7.71098-3.5799 4.37189.03126 11.65253-.78829.45512-.03126-11.65253-3.58587-.23473-.0149-5.25539 7.95407-4.59228zm-3.58284 3.33549 2.79305-3.41081-.01083-3.81913-2.79813 1.6155zm-3.58441.27121 2.79611.18391-.01592-5.61444-2.79102 1.6114z" fill="#c14242"/></g></g></g></g></g></svg>