<svg id="Layer_1" enable-background="new 0 0 50 50" height="512" viewBox="0 0 50 50" width="512" xmlns="http://www.w3.org/2000/svg"><g><g><g enable-background="new"><g><path d="m40.3026 41.64333-.00296.61883-11.59388 6.73763.00297-.61884z" fill="#765f54"/></g><g><path d="m28.70873 48.38095-.00297.61884-19.00836-10.97449.00296-.61883z" fill="#8b6f62"/></g><g><path d="m40.3026 41.64333-11.59387 6.73762-19.00837-10.97448 11.59388-6.73763z" fill="#a18b82"/></g></g></g><g><g enable-background="new"><g><path d="m22.08427 2.70161-.05935 14.47308-.71065.41299.05935-14.47309z" fill="#40545d"/></g><g><path d="m21.37362 3.11459-.05935 14.47309-.7152-.41293.05935-14.47308z" fill="#485f69"/></g><g><path d="m22.08427 2.70161-.71065.41298-.7152-.41292.71065-.41298z" fill="#56707b"/></g></g></g><g><g><g><g><g enable-background="new"><g><path d="m26.07011 31.21802-.01053 3.71642-4.13711 2.40423.01053-3.71643z" fill="#d9ae6d"/></g><g><path d="m24.45811 32.15695-.00229.8075-.28553.16594-.32787.19053.00229-.8075z" fill="#ee5550"/></g><g><path d="m21.933 33.62224-.01053 3.71643-4.88051-2.81777.01053-3.71642z" fill="#fecd82"/></g><g><path d="m26.07011 31.21802-4.13711 2.40422-4.88051-2.81776 4.13711-2.40423z" fill="#ffd69a"/></g><g><path d="m24.45811 32.15695-.6134.35647-4.88051-2.81777.6134-.35647z" fill="#f17572"/></g></g></g></g><g><g><g enable-background="new"><g><path d="m31.72113 34.5392-.01054 3.71642-4.13711 2.40423.01054-3.71643z" fill="#d9ae6d"/></g><g><path d="m30.10912 35.47813-.00229.80751-.28553.16593-.32786.19054.00229-.80751z" fill="#ee5550"/></g><g><path d="m27.58402 36.94342-.01054 3.71643-4.88051-2.81777.01053-3.71642z" fill="#fecd82"/></g><g><path d="m31.72113 34.5392-4.13711 2.40422-4.88052-2.81776 4.13711-2.40422z" fill="#ffd69a"/></g><g><path d="m30.10912 35.47813-.61339.35647-4.88052-2.81777.6134-.35646z" fill="#f17572"/></g></g></g></g><g><g><g enable-background="new"><g><path d="m37.37214 37.86038-.01054 3.71643-4.13711 2.40422.01054-3.71642z" fill="#d9ae6d"/></g><g><path d="m35.76014 38.79932-.00229.8075-.28553.16593-.32787.19054.00229-.80751z" fill="#ee5550"/></g><g><path d="m33.23503 40.26461-.01054 3.71642-4.88051-2.81776.01054-3.71642z" fill="#fecd82"/></g><g><path d="m37.37214 37.86038-4.13711 2.40423-4.88051-2.81776 4.13711-2.40423z" fill="#ffd69a"/></g><g><path d="m35.76014 38.79932-.6134.35646-4.88051-2.81776.6134-.35647z" fill="#f17572"/></g></g></g></g></g><g><g><g><g enable-background="new"><g><path d="m21.56657 33.82669-.01054 3.71642-4.13711 2.40423.01054-3.71642z" fill="#d9ae6d"/></g><g><path d="m19.95457 34.76562-.00229.80751-.28553.16593-.32787.19054.00229-.80751z" fill="#ee5550"/></g><g><path d="m17.42946 36.23092-.01054 3.71642-4.88051-2.81777.01054-3.71642z" fill="#fecd82"/></g><g><path d="m21.56657 33.82669-4.13711 2.40423-4.88051-2.81777 4.13711-2.40422z" fill="#ffd69a"/></g><g><path d="m19.95457 34.76562-.6134.35647-4.88051-2.81776.6134-.35647z" fill="#f17572"/></g></g></g></g><g><g><g enable-background="new"><g><path d="m27.21758 37.14787-.01053 3.71643-4.13711 2.40422.01053-3.71642z" fill="#d9ae6d"/></g><g><path d="m25.60558 38.08681-.00229.8075-.28553.16593-.32787.19054.00229-.8075z" fill="#ee5550"/></g><g><path d="m23.08047 39.5521-.01053 3.71642-4.88051-2.81776.01053-3.71643z" fill="#fecd82"/></g><g><path d="m27.21758 37.14787-4.13711 2.40423-4.88051-2.81777 4.13711-2.40422z" fill="#ffd69a"/></g><g><path d="m25.60558 38.08681-.6134.35647-4.88051-2.81777.6134-.35647z" fill="#f17572"/></g></g></g></g><g><g><g enable-background="new"><g><path d="m32.8686 40.46906-.01054 3.71642-4.13711 2.40423.01054-3.71643z" fill="#d9ae6d"/></g><g><path d="m31.2566 41.40799-.0023.80751-.28553.16593-.32786.19053.00229-.8075z" fill="#ee5550"/></g><g><path d="m28.73149 42.87328-.01054 3.71643-4.88051-2.81777.01054-3.71642z" fill="#fecd82"/></g><g><path d="m32.8686 40.46906-4.13711 2.40422-4.88051-2.81776 4.1371-2.40423z" fill="#ffd69a"/></g><g><path d="m31.2566 41.40799-.6134.35647-4.88052-2.81777.6134-.35646z" fill="#f17572"/></g></g></g></g></g><g><g><g><g enable-background="new"><g><path d="m26.07011 27.04396-.01053 3.71642-4.13711 2.40423.01053-3.71643z" fill="#d9ae6d"/></g><g><path d="m24.45811 27.98289-.00229.80751-.28553.16593-.32787.19054.00229-.80751z" fill="#ee5550"/></g><g><path d="m21.933 29.44818-.01053 3.71643-4.88051-2.81777.01053-3.71642z" fill="#fecd82"/></g><g><path d="m26.07011 27.04396-4.13711 2.40422-4.88051-2.81776 4.13711-2.40422z" fill="#ffd69a"/></g><g><path d="m24.45811 27.98289-.6134.35647-4.88051-2.81776.6134-.35647z" fill="#f17572"/></g></g></g></g><g><g><g enable-background="new"><g><path d="m31.72113 30.36514-.01054 3.71643-4.13711 2.40422.01054-3.71642z" fill="#d9ae6d"/></g><g><path d="m30.10912 31.30408-.00229.8075-.28553.16593-.32786.19054.00229-.80751z" fill="#ee5550"/></g><g><path d="m27.58402 32.76937-.01054 3.71642-4.88051-2.81776.01053-3.71643z" fill="#fecd82"/></g><g><path d="m31.72113 30.36514-4.13711 2.40423-4.88052-2.81777 4.13711-2.40422z" fill="#ffd69a"/></g><g><path d="m30.10912 31.30408-.61339.35646-4.88052-2.81776.6134-.35647z" fill="#f17572"/></g></g></g></g><g><g><g enable-background="new"><g><path d="m37.37214 33.68633-.01054 3.71642-4.13711 2.40423.01054-3.71643z" fill="#d9ae6d"/></g><g><path d="m35.76014 34.62526-.00229.80751-.28553.16593-.32787.19053.00229-.8075z" fill="#ee5550"/></g><g><path d="m33.23503 36.09055-.01054 3.71643-4.88051-2.81777.01054-3.71642z" fill="#fecd82"/></g><g><path d="m37.37214 33.68633-4.13711 2.40422-4.88051-2.81776 4.13711-2.40423z" fill="#ffd69a"/></g><g><path d="m35.76014 34.62526-.6134.35647-4.88051-2.81777.6134-.35647z" fill="#f17572"/></g></g></g></g></g><g><g><g><g enable-background="new"><g><path d="m21.56657 29.65263-.01054 3.71643-4.13711 2.40422.01054-3.71642z" fill="#d9ae6d"/></g><g><path d="m19.95457 30.59157-.00229.8075-.28553.16593-.32787.19054.00229-.80751z" fill="#ee5550"/></g><g><path d="m17.42946 32.05686-.01054 3.71642-4.88051-2.81776.01054-3.71643z" fill="#fecd82"/></g><g><path d="m21.56657 29.65263-4.13711 2.40423-4.88051-2.81777 4.13711-2.40422z" fill="#ffd69a"/></g><g><path d="m19.95457 30.59157-.6134.35646-4.88051-2.81776.6134-.35647z" fill="#f17572"/></g></g></g></g><g><g><g enable-background="new"><g><path d="m27.21758 32.97382-.01053 3.71642-4.13711 2.40422.01053-3.71642z" fill="#d9ae6d"/></g><g><path d="m25.60558 33.91275-.00229.8075-.28553.16593-.32787.19054.00229-.8075z" fill="#ee5550"/></g><g><path d="m23.08047 35.37804-.01053 3.71642-4.88051-2.81776.01053-3.71642z" fill="#fecd82"/></g><g><path d="m27.21758 32.97382-4.13711 2.40422-4.88051-2.81776 4.13711-2.40423z" fill="#ffd69a"/></g><g><path d="m25.60558 33.91275-.6134.35647-4.88051-2.81777.6134-.35647z" fill="#f17572"/></g></g></g></g><g><g><g enable-background="new"><g><path d="m32.8686 36.295-.01054 3.71643-4.13711 2.40422.01054-3.71642z" fill="#d9ae6d"/></g><g><path d="m31.2566 37.23393-.0023.80751-.28553.16593-.32786.19054.00229-.80751z" fill="#ee5550"/></g><g><path d="m28.73149 38.69923-.01054 3.71642-4.88051-2.81776.01054-3.71643z" fill="#fecd82"/></g><g><path d="m32.8686 36.295-4.13711 2.40423-4.88051-2.81777 4.1371-2.40422z" fill="#ffd69a"/></g><g><path d="m31.2566 37.23393-.6134.35647-4.88052-2.81776.6134-.35647z" fill="#f17572"/></g></g></g></g></g></g><g><g><g enable-background="new"><g><path d="m12.09813 22.96088-.05935 14.47308-.71046.41288.05935-14.47308z" fill="#40545d"/></g><g><path d="m11.38767 23.37376-.05935 14.47308-.71521-.41292.05936-14.47309z" fill="#485f69"/></g><g><path d="m12.09813 22.96088-.71046.41288-.7152-.41293.71046-.41287z" fill="#56707b"/></g></g><g enable-background="new"><g><path d="m39.37504 27.1404-.05935 14.47308-.71066.41299.05936-14.47309z" fill="#40545d"/></g><g><path d="m38.66439 27.55338-.05936 14.47309-.7187-.41495.05935-14.47308z" fill="#485f69"/></g><g><path d="m39.37504 27.1404-.71065.41298-.71871-.41494.71065-.41299z" fill="#56707b"/></g></g></g><g enable-background="new"><g><path d="m29.3889 32.94371-.05936 14.47308-.71046.41288.05936-14.47308z" fill="#40545d"/></g><g><path d="m28.67844 33.35659-.05936 14.47308-.7187-.41495.05935-14.47308z" fill="#485f69"/></g><g><path d="m29.3889 32.94371-.71046.41288-.71871-.41495.71046-.41287z" fill="#56707b"/></g></g></g><g><g enable-background="new"><g><path d="m40.3026 27.29885-.00296.61883-11.59388 6.73762.00297-.61883z" fill="#765f54"/></g><g><path d="m28.70873 34.03647-.00297.61883-19.00836-10.97448.00296-.61883z" fill="#8b6f62"/></g><g><path d="m40.3026 27.29885-11.59387 6.73762-19.00837-10.97448 11.59388-6.73763z" fill="#a18b82"/></g><g enable-background="new"><g><path d="m12.09813 8.50492-.05935 14.47308-.71046.41288.05935-14.47309z" fill="#40545d"/></g><g><path d="m11.38767 8.91779-.05935 14.47309-.71521-.41293.05936-14.47308z" fill="#485f69"/></g><g><path d="m12.09813 8.50492-.71046.41287-.7152-.41292.71046-.41287z" fill="#56707b"/></g></g></g></g><g><g><g><g><g enable-background="new"><g><path d="m26.07011 17.15708-.01053 3.71642-4.13711 2.40423.01053-3.71643z" fill="#d9ae6d"/></g><g><path d="m24.45811 18.09601-.00229.8075-.28553.16594-.32787.19053.00229-.8075z" fill="#ee5550"/></g><g><path d="m21.933 19.5613-.01053 3.71643-4.88051-2.81777.01053-3.71642z" fill="#fecd82"/></g><g><path d="m26.07011 17.15708-4.13711 2.40422-4.88051-2.81776 4.13711-2.40423z" fill="#ffd69a"/></g><g><path d="m24.45811 18.09601-.6134.35647-4.88051-2.81777.6134-.35647z" fill="#f17572"/></g></g></g></g><g><g><g enable-background="new"><g><path d="m31.72113 20.47826-.01054 3.71642-4.13711 2.40423.01054-3.71642z" fill="#d9ae6d"/></g><g><path d="m30.10912 21.41719-.00229.80751-.28553.16593-.32786.19054.00229-.80751z" fill="#ee5550"/></g><g><path d="m27.58402 22.88249-.01054 3.71642-4.88051-2.81777.01053-3.71642z" fill="#fecd82"/></g><g><path d="m31.72113 20.47826-4.13711 2.40423-4.88052-2.81777 4.13711-2.40422z" fill="#ffd69a"/></g><g><path d="m30.10912 21.41719-.61339.35647-4.88052-2.81776.6134-.35647z" fill="#f17572"/></g></g></g></g><g><g><g enable-background="new"><g><path d="m37.37214 23.79944-.01054 3.71643-4.13711 2.40422.01054-3.71642z" fill="#d9ae6d"/></g><g><path d="m35.76014 24.73838-.00229.8075-.28553.16593-.32787.19054.00229-.80751z" fill="#ee5550"/></g><g><path d="m33.23503 26.20367-.01054 3.71642-4.88051-2.81776.01054-3.71643z" fill="#fecd82"/></g><g><path d="m37.37214 23.79944-4.13711 2.40423-4.88051-2.81777 4.13711-2.40422z" fill="#ffd69a"/></g><g><path d="m35.76014 24.73838-.6134.35646-4.88051-2.81776.6134-.35647z" fill="#f17572"/></g></g></g></g></g><g><g><g><g enable-background="new"><g><path d="m21.56657 19.76575-.01054 3.71642-4.13711 2.40423.01054-3.71642z" fill="#d9ae6d"/></g><g><path d="m19.95457 20.70468-.00229.80751-.28553.16593-.32787.19054.00229-.80751z" fill="#ee5550"/></g><g><path d="m17.42946 22.16998-.01054 3.71642-4.88051-2.81777.01054-3.71642z" fill="#fecd82"/></g><g><path d="m21.56657 19.76575-4.13711 2.40423-4.88051-2.81777 4.13711-2.40422z" fill="#ffd69a"/></g><g><path d="m19.95457 20.70468-.6134.35647-4.88051-2.81776.6134-.35647z" fill="#f17572"/></g></g></g></g><g><g><g enable-background="new"><g><path d="m27.21758 23.08694-.01053 3.71642-4.13711 2.40422.01053-3.71642z" fill="#d9ae6d"/></g><g><path d="m25.60558 24.02587-.00229.8075-.28553.16593-.32787.19054.00229-.80751z" fill="#ee5550"/></g><g><path d="m23.08047 25.49116-.01053 3.71642-4.88051-2.81776.01053-3.71642z" fill="#fecd82"/></g><g><path d="m27.21758 23.08694-4.13711 2.40422-4.88051-2.81776 4.13711-2.40423z" fill="#ffd69a"/></g><g><path d="m25.60558 24.02587-.6134.35646-4.88051-2.81776.6134-.35647z" fill="#f17572"/></g></g></g></g><g><g><g enable-background="new"><g><path d="m32.8686 26.40812-.01054 3.71642-4.13711 2.40423.01054-3.71643z" fill="#d9ae6d"/></g><g><path d="m31.2566 27.34705-.0023.8075-.28553.16594-.32786.19053.00229-.8075z" fill="#ee5550"/></g><g><path d="m28.73149 28.81234-.01054 3.71643-4.88051-2.81777.01054-3.71642z" fill="#fecd82"/></g><g><path d="m32.8686 26.40812-4.13711 2.40422-4.88051-2.81776 4.1371-2.40423z" fill="#ffd69a"/></g><g><path d="m31.2566 27.34705-.6134.35647-4.88052-2.81777.6134-.35646z" fill="#f17572"/></g></g></g></g></g><g><g><g><g enable-background="new"><g><path d="m26.07011 12.98302-.01053 3.71642-4.13711 2.40423.01053-3.71642z" fill="#d9ae6d"/></g><g><path d="m24.45811 13.92195-.00229.80751-.28553.16593-.32787.19054.00229-.80751z" fill="#ee5550"/></g><g><path d="m21.933 15.38725-.01053 3.71642-4.88051-2.81777.01053-3.71642z" fill="#fecd82"/></g><g><path d="m26.07011 12.98302-4.13711 2.40423-4.88051-2.81777 4.13711-2.40422z" fill="#ffd69a"/></g><g><path d="m24.45811 13.92195-.6134.35647-4.88051-2.81776.6134-.35647z" fill="#f17572"/></g></g></g></g><g><g><g enable-background="new"><g><path d="m31.72113 16.3042-.01054 3.71643-4.13711 2.40422.01054-3.71642z" fill="#d9ae6d"/></g><g><path d="m30.10912 17.24314-.00229.8075-.28553.16593-.32786.19054.00229-.80751z" fill="#ee5550"/></g><g><path d="m27.58402 18.70843-.01054 3.71642-4.88051-2.81776.01053-3.71642z" fill="#fecd82"/></g><g><path d="m31.72113 16.3042-4.13711 2.40423-4.88052-2.81776 4.13711-2.40423z" fill="#ffd69a"/></g><g><path d="m30.10912 17.24314-.61339.35646-4.88052-2.81776.6134-.35647z" fill="#f17572"/></g></g></g></g><g><g><g enable-background="new"><g><path d="m37.37214 19.62539-.01054 3.71642-4.13711 2.40422.01054-3.71642z" fill="#d9ae6d"/></g><g><path d="m35.76014 20.56432-.00229.8075-.28553.16594-.32787.19053.00229-.8075z" fill="#ee5550"/></g><g><path d="m33.23503 22.02961-.01054 3.71642-4.88051-2.81776.01054-3.71642z" fill="#fecd82"/></g><g><path d="m37.37214 19.62539-4.13711 2.40422-4.88051-2.81776 4.13711-2.40423z" fill="#ffd69a"/></g><g><path d="m35.76014 20.56432-.6134.35647-4.88051-2.81777.6134-.35646z" fill="#f17572"/></g></g></g></g></g><g><g><g><g enable-background="new"><g><path d="m21.56657 15.59169-.01054 3.71643-4.13711 2.40422.01054-3.71642z" fill="#d9ae6d"/></g><g><path d="m19.95457 16.53063-.00229.8075-.28553.16593-.32787.19054.00229-.80751z" fill="#ee5550"/></g><g><path d="m17.42946 17.99592-.01054 3.71642-4.88051-2.81776.01054-3.71643z" fill="#fecd82"/></g><g><path d="m21.56657 15.59169-4.13711 2.40423-4.88051-2.81777 4.13711-2.40422z" fill="#ffd69a"/></g><g><path d="m19.95457 16.53063-.6134.35646-4.88051-2.81776.6134-.35647z" fill="#f17572"/></g></g></g></g><g><g><g enable-background="new"><g><path d="m27.21758 18.91288-.01053 3.71642-4.13711 2.40423.01053-3.71643z" fill="#d9ae6d"/></g><g><path d="m25.60558 19.85181-.00229.80751-.28553.16593-.32787.19053.00229-.8075z" fill="#ee5550"/></g><g><path d="m23.08047 21.3171-.01053 3.71643-4.88051-2.81777.01053-3.71642z" fill="#fecd82"/></g><g><path d="m27.21758 18.91288-4.13711 2.40422-4.88051-2.81776 4.13711-2.40423z" fill="#ffd69a"/></g><g><path d="m25.60558 19.85181-.6134.35647-4.88051-2.81777.6134-.35647z" fill="#f17572"/></g></g></g></g><g><g><g enable-background="new"><g><path d="m32.8686 22.23406-.01054 3.71642-4.13711 2.40423.01054-3.71642z" fill="#d9ae6d"/></g><g><path d="m31.2566 23.17299-.0023.80751-.28553.16593-.32786.19054.00229-.80751z" fill="#ee5550"/></g><g><path d="m28.73149 24.63829-.01054 3.71642-4.88051-2.81776.01054-3.71643z" fill="#fecd82"/></g><g><path d="m32.8686 22.23406-4.13711 2.40423-4.88051-2.81777 4.1371-2.40422z" fill="#ffd69a"/></g><g><path d="m31.2566 23.17299-.6134.35647-4.88052-2.81776.6134-.35647z" fill="#f17572"/></g></g></g></g></g></g><g enable-background="new"><g><path d="m29.3889 18.48775-.05936 14.47308-.71046.41288.05936-14.47309z" fill="#40545d"/></g><g><path d="m28.67844 18.90062-.05936 14.47309-.7187-.41495.05935-14.47308z" fill="#485f69"/></g><g><path d="m29.3889 18.48775-.71046.41287-.71871-.41494.71046-.41288z" fill="#56707b"/></g></g><g enable-background="new"><g><path d="m39.37504 12.68444-.05935 14.47308-.71066.41298.05936-14.47308z" fill="#40545d"/></g><g><path d="m38.66439 13.09742-.05936 14.47308-.7187-.41494.05935-14.47308z" fill="#485f69"/></g><g><path d="m39.37504 12.68444-.71065.41298-.71871-.41494.71065-.41299z" fill="#56707b"/></g></g><g><g enable-background="new"><g><path d="m40.3026 11.97427-.00296.61883-11.59388 6.73763.00297-.61884z" fill="#765f54"/></g><g><path d="m28.70873 18.71189-.00297.61884-19.00836-10.97449.00296-.61883z" fill="#8b6f62"/></g><g><path d="m40.3026 11.97427-11.59387 6.73762-19.00837-10.97448 11.59388-6.73762z" fill="#a18b82"/></g></g></g></g></svg>