<svg id="Layer_1" enable-background="new 0 0 50 50" height="512" viewBox="0 0 50 50" width="512" xmlns="http://www.w3.org/2000/svg"><g><g><g><g><g><g><g><path d="m48.18122 37.62085-18.78169 10.897c-.27225.15821-.71158.15821-.98557.00003l-26.43959-15.26491c-.26803-.15474-.27541-.41266-.00316-.57087l18.78169-10.897z" fill="#dde4e7"/></g><g><path d="m29.39859 48.51362c-.14354.08427-.33378.12071-.5231.1157v.37021c.18682.00364.37643-.03325.5231-.11616l5.77023-2.60736 13.01008-7.38427v-1.26985z" fill="#b0b8bc"/><path d="m28.40973 48.51362-26.43821-15.262c-.13062-.0747-.20521-.1772-.20521-.28925v.36976c0 .1116.06531.21409.20521.2888l26.43821 15.26246c.12874.07516.29614.11251.46576.11616v-.37021c-.16751-.00457-.3344-.04101-.46576-.11572z" fill="#cfd8dd"/></g></g><g><path d="m46.8618 16.48187c.39906.2304.71965.78555.71835 1.24413l-.05749 20.27916-27.42237-15.8323.05749-20.27916c.0013-.45858.324-.64233.72306-.41193z" fill="#485f69"/></g></g><g><path d="m47.33324 16.96616c.14929.23779.24725.50879.24725.75684l-.05597 20.28125.65302-.38281.05597-20.28076c.00519-.25391-.09857-.53076-.25537-.77197z" fill="#b0b8bc"/><path d="m47.51519 16.09995-25.98108-15.00097c-.19586-.1123-.38245-.13086-.51306-.04736l-.65308.38281c.13062-.08398.30786-.06494.51318.04688l25.98102 15.00049c.18365.10693.34497.28418.47107.48438l.6449-.39746c-.12598-.19338-.28424-.36525-.46295-.46877z" fill="#dde4e7"/></g><path d="m21.10112 21.59641.05371-18.80127 25.42676 14.67944-.05371 18.8014z" fill="#fff"/><g><g enable-background="new"><g><path d="m19.02951 24.35924.00049-.17125c-.0001.03806.02419.07644.07479.10566l-.00049.17125c-.0506-.02921-.07489-.06759-.07479-.10566z" fill="#778c95"/></g><g><path d="m21.3351 24.38859-.00049.17126c-.0001.03778-.02599.07537-.07669.10484l.00049-.17125c.0507-.02947.07658-.06707.07669-.10485z" fill="#778c95"/></g><g><path d="m21.2584 24.49344-.00048.17125-.71951.41813.00048-.17125z" fill="#778c95"/></g><g><path d="m20.17515 24.91162-.00048.17126-1.07037-.61798.00048-.17125z" fill="#778c95"/></g><g><path d="m20.53889 24.91157-.00049.17125c-.09601.0558-.25912.06046-.36374.00005l.00049-.17125c.10463.06041.26773.05575.36374-.00005z" fill="#778c95"/></g><g><path d="m21.25731 24.28275c.10463.06041.10246.15179.0011.21069l-.71951.41813c-.09601.0558-.25912.06046-.36374.00006l-1.07037-.61798c-.10193-.05885-.09711-.1549-.00109-.21069l.71951-.41813c.10136-.0589.26181-.0589.36374-.00005z" fill="#485f69"/></g></g><g enable-background="new"><g><path d="m20.67296 25.3073.00048-.17125c-.0001.03852.0235.07684.07043.10393l-.00049.17125c-.04692-.02709-.07053-.06541-.07042-.10393z" fill="#778c95"/></g><g><path d="m22.97861 25.34127-.00049.17126c-.0001.03745-.02404.07464-.07307.10313l.00048-.17125c.04904-.0285.07297-.06568.07308-.10314z" fill="#778c95"/></g><g><path d="m21.81692 25.8595-.00049.17125-1.07304-.61952.00048-.17125z" fill="#778c95"/></g><g><path d="m22.90553 25.44441-.00048.17125-.71951.41813.00048-.17125z" fill="#778c95"/></g><g><path d="m22.18602 25.86254-.00048.17125c-.09601.0558-.26718.05581-.36911-.00304l.00048-.17125c.10194.05885.2731.05884.36911.00304z" fill="#778c95"/></g><g><path d="m22.89907 25.23062c.10193.05885.10782.15489.00646.21379l-.71951.41813c-.09601.0558-.26717.05581-.36911-.00304l-1.07304-.61952c-.09389-.05421-.09443-.15335.00158-.20915l.71951-.41813c.10136-.0589.26717-.05581.36107-.0016z" fill="#485f69"/></g></g><g enable-background="new"><g><path d="m22.31703 26.25885.00048-.17125c-.0001.03717.02357.07453.07347.10334l-.00049.17125c-.04989-.02881-.07356-.06617-.07346-.10334z" fill="#778c95"/></g><g><path d="m24.62299 26.28761-.00049.17126c-.00011.03772-.02532.0754-.07569.10467l.00049-.17125c.05037-.02928.07558-.06696.07569-.10468z" fill="#778c95"/></g><g><path d="m24.5473 26.39228-.00049.17126-.71951.41813.00049-.17125z" fill="#778c95"/></g><g><path d="m23.46405 26.81047-.00049.17125-1.07306-.61953.00049-.17125z" fill="#778c95"/></g><g><path d="m23.82779 26.81042-.00048.17125c-.09601.0558-.26181.0589-.36374.00005l.00049-.17125c.10192.05885.26772.05574.36373-.00005z" fill="#778c95"/></g><g><path d="m24.5462 26.18159c.10193.05885.10246.15179.00109.21069l-.71951.41813c-.09601.0558-.26181.05891-.36374.00006l-1.07306-.61953c-.10193-.05885-.09441-.15334.0016-.20914l.71951-.41813c.10136-.0589.25912-.06046.36105-.00161z" fill="#485f69"/></g></g><g enable-background="new"><g><path d="m23.95749 27.20441.00048-.17125c-.0001.03806.02419.07644.07479.10566l-.00048.17125c-.0506-.02921-.07489-.06759-.07479-.10566z" fill="#778c95"/></g><g><path d="m26.2672 27.24065-.00049.17126c-.0001.03739-.02405.07429-.07277.1026l.00048-.17125c.04873-.02832.07268-.06522.07278-.10261z" fill="#778c95"/></g><g><path d="m25.10314 27.7568-.00049.17125-1.07036-.61798.00048-.17125z" fill="#778c95"/></g><g><path d="m26.19443 27.34326-.00049.17125-.7195.41813.00048-.17125z" fill="#778c95"/></g><g><path d="m25.47492 27.76139-.00049.17125c-.09601.0558-.26717.05581-.37178-.00459l.00048-.17125c.10462.0604.27578.06038.37179.00459z" fill="#778c95"/></g><g><path d="m26.18529 27.12792c.10461.0604.1105.15643.00914.21534l-.71951.41813c-.09601.0558-.26718.05581-.37178-.00459l-1.07037-.61798c-.10195-.05886-.09711-.1549-.00109-.21069l.7195-.41813c.10136-.0589.26179-.05892.36374-.00005z" fill="#485f69"/></g></g><g enable-background="new"><g><path d="m25.60053 28.14826.00048-.17125c-.00011.04079.02621.08237.07889.11279l-.00049.17125c-.05268-.03042-.07899-.07201-.07888-.11279z" fill="#778c95"/></g><g><path d="m27.91054 28.18418-.00049.17126c-.0001.03783-.02599.07573-.07703.10539l.00048-.17125c.05105-.02967.07694-.06757.07704-.1054z" fill="#778c95"/></g><g><path d="m27.8335 28.28957-.00048.17126-.71951.41813.00048-.17125z" fill="#778c95"/></g><g><path d="m26.75294 28.70932-.00048.17125-1.07304-.61952.00048-.17126z" fill="#778c95"/></g><g><path d="m27.11399 28.70771-.00049.17125c-.09601.0558-.25912.06046-.36105.00161l.00049-.17125c.10194.05885.26504.05418.36105-.00161z" fill="#778c95"/></g><g><path d="m27.8351 28.08044c.10193.05885.09976.15023-.0016.20914l-.71951.41813c-.09601.0558-.25912.06046-.36105.00161l-1.07304-.61952c-.10195-.05886-.10517-.15955-.00916-.21535l.71951-.41813c.10136-.0589.26985-.05426.3718.0046z" fill="#485f69"/></g></g><g enable-background="new"><g><path d="m17.30048 25.3655.00048-.17125c-.0001.03795.02421.07572.07417.10456l-.00048.17125c-.04996-.02884-.07428-.06661-.07417-.10456z" fill="#778c95"/></g><g><path d="m19.87051 25.24118-.00049.17125c-.0001.0369-.02529.07351-.07527.10256l.00049-.17125c.04997-.02905.07517-.06566.07527-.10256z" fill="#778c95"/></g><g><path d="m19.79524 25.34374-.00049.17125-.98079.56997.00048-.17125z" fill="#778c95"/></g><g><path d="m18.4455 25.91679-.00049.17125-1.07037-.61798.00049-.17125z" fill="#778c95"/></g><g><path d="m18.81444 25.91371-.00049.17125c-.10122.05882-.26432.06349-.36895.00308l.00048-.17125c.10464.06041.26775.05574.36896-.00308z" fill="#778c95"/></g><g><path d="m19.79139 25.13464c.10463.06041.10506.15028.00384.2091l-.98079.56997c-.10122.05882-.26432.06348-.36895.00308l-1.07037-.61798c-.10193-.05885-.09711-.1549.00411-.21372l.98079-.56997c.10122-.05882.25906-.05731.36099.00154z" fill="#485f69"/></g></g><g enable-background="new"><g><path d="m18.94394 26.31364.00048-.17125c-.0001.03836.0235.07602.0698.10275l-.00049.17125c-.0463-.02673-.0699-.06439-.06979-.10275z" fill="#778c95"/></g><g><path d="m21.51409 26.19387-.00049.17125c-.0001.03657-.02341.07277-.07171.10084l.00048-.17125c.0483-.02807.07161-.06427.07172-.10084z" fill="#778c95"/></g><g><path d="m21.44237 26.29471-.00049.17125-.98079.56997.00048-.17125z" fill="#778c95"/></g><g><path d="m20.08726 26.86466-.00048.17126-1.07305-.61952.00049-.17126z" fill="#778c95"/></g><g><path d="m20.46157 26.86468-.00048.17125c-.10122.05882-.27238.05883-.37431-.00002l.00048-.17125c.10194.05886.2731.05884.37431.00002z" fill="#778c95"/></g><g><path d="m21.43316 26.08251c.10193.05885.11043.15337.00921.21219l-.98079.56997c-.10122.05882-.27238.05883-.37431-.00002l-1.07304-.61952c-.09389-.05421-.09443-.15335.00678-.21217l.98079-.56997c.10122-.05882.26443-.05421.35832 0z" fill="#485f69"/></g></g><g enable-background="new"><g><path d="m20.58797 27.26507.00048-.17125c-.0001.03705.0236.07383.07288.10229l-.00049.17125c-.04928-.02846-.07297-.06524-.07287-.10229z" fill="#778c95"/></g><g><path d="m23.15841 27.14021-.00049.17125c-.0001.03684-.02465.07352-.07428.10237l.00048-.17125c.04965-.02884.07419-.06553.07429-.10237z" fill="#778c95"/></g><g><path d="m23.08413 27.24258-.00048.17125-.9808.56998.00049-.17125z" fill="#778c95"/></g><g><path d="m21.73439 27.81564-.00048.17125-1.07306-.61953.00048-.17126z" fill="#778c95"/></g><g><path d="m22.10334 27.81256-.00049.17125c-.10122.05882-.26701.06193-.36895.00308l.00049-.17125c.10194.05885.26773.05574.36895-.00308z" fill="#778c95"/></g><g><path d="m23.08029 27.03349c.10193.05885.10506.15028.00384.2091l-.98079.56997c-.10122.05882-.26701.06193-.36895.00308l-1.07306-.61953c-.10193-.05885-.09442-.15334.0068-.21216l.98079-.56997c.10122-.05882.25637-.05886.3583-.00001z" fill="#485f69"/></g></g><g enable-background="new"><g><path d="m22.22846 28.21067.00048-.17125c-.0001.03794.02421.07572.07418.10456l-.00049.17125c-.04996-.02884-.07428-.06661-.07417-.10456z" fill="#778c95"/></g><g><path d="m24.8027 28.09323-.00049.17126c-.0001.0365-.02343.07243-.07143.10032l.00049-.17125c.048-.0279.07132-.06383.07143-.10033z" fill="#778c95"/></g><g><path d="m23.37348 28.76196-.00048.17126-1.07037-.61798.00049-.17125z" fill="#778c95"/></g><g><path d="m24.73127 28.19355-.00049.17126-.98079.56997.00048-.17125z" fill="#778c95"/></g><g><path d="m23.75047 28.76353-.00049.17125c-.10122.05882-.27238.05883-.37699-.00156l.00048-.17125c.10462.06039.27579.06038.377.00156z" fill="#778c95"/></g><g><path d="m24.71938 27.97981c.10461.0604.1131.15492.01188.21374l-.98079.56997c-.10122.05882-.27238.05883-.37699-.00156l-1.07037-.61798c-.10195-.05886-.09711-.1549.00411-.21372l.98079-.56997c.10122-.05882.25904-.05732.36099.00154z" fill="#485f69"/></g></g><g enable-background="new"><g><path d="m23.87158 29.15464.00048-.17125c-.00011.04067.0262.08156.07819.11157l-.00048.17125c-.052-.03001-.07831-.0709-.07819-.11157z" fill="#778c95"/></g><g><path d="m26.44595 29.03678-.00049.17126c-.0001.03695-.0253.07386-.0756.10309l.00049-.17125c.05029-.02924.07549-.06615.0756-.1031z" fill="#778c95"/></g><g><path d="m26.37034 29.13987-.00049.17125-.98079.56998.00049-.17125z" fill="#778c95"/></g><g><path d="m25.02329 29.71448-.00049.17125-1.07304-.61952.00049-.17125z" fill="#778c95"/></g><g><path d="m25.38955 29.70985-.00049.17125c-.10122.05882-.26432.06349-.36625.00463l.00049-.17125c.10192.05885.26503.05419.36625-.00463z" fill="#778c95"/></g><g><path d="m26.36919 28.93233c.10193.05885.10237.14872.00115.20754l-.98079.56997c-.10122.05882-.26432.06348-.36625.00463l-1.07304-.61952c-.10195-.05886-.10517-.15955-.00395-.21837l.98079-.56997c.10122-.05882.2671-.05267.36905.0062z" fill="#485f69"/></g></g><g enable-background="new"><g><path d="m15.70567 26.28854.00048-.17125c-.0001.03824.02621.07638.07784.10619l-.00049.17125c-.05162-.02981-.07794-.06795-.07783-.10619z" fill="#778c95"/></g><g><path d="m19.10869 26.65169-.00049.17126c-.00011.03769-.02528.07533-.07556.10455l.00048-.17125c.05029-.02922.07546-.06686.07557-.10456z" fill="#778c95"/></g><g><path d="m19.03312 26.75625-.00048.17125-.97819.56846.00049-.17125z" fill="#778c95"/></g><g><path d="m17.69134 27.32468-.00049.17125-1.90734-1.1012.00049-.17125z" fill="#778c95"/></g><g><path d="m18.05494 27.32471-.00049.17125c-.10396.06042-.26166.05882-.3636-.00003l.00048-.17125c.10194.05885.25964.06045.36361.00003z" fill="#778c95"/></g><g><path d="m19.03189 26.54564c.10193.05885.10246.15179.00124.21061l-.97819.56846c-.10396.06042-.26166.05882-.3636-.00003l-1.90734-1.1012c-.10193-.05885-.1052-.15019-.00124-.21061l.97819-.56846c.10122-.05882.26166-.05882.3636.00003z" fill="#485f69"/></g></g><g enable-background="new"><g><path d="m18.22456 27.73984.00048-.17125c-.00011.04002.02766.0802.08063.11078l-.00048.17125c-.05297-.03058-.08075-.07076-.08063-.11078z" fill="#778c95"/></g><g><path d="m20.79309 27.62658-.00049.17126c-.0001.03749-.02336.07526-.07259.10387l.00048-.17125c.04924-.02861.0725-.06639.0726-.10388z" fill="#778c95"/></g><g><path d="m20.7205 27.73046-.00049.17125-.97819.56846.00049-.17125z" fill="#778c95"/></g><g><path d="m19.37871 28.29889-.00048.17125-1.07304-.61952.00048-.17125z" fill="#778c95"/></g><g><path d="m19.74231 28.29892-.00049.17125c-.10396.06042-.2697.05418-.3636-.00003l.00048-.17125c.0939.05421.25965.06044.36361.00003z" fill="#778c95"/></g><g><path d="m20.71926 27.51985c.09389.05421.10246.15179.00124.21061l-.97819.56846c-.10396.06042-.2697.05418-.3636-.00003l-1.07304-.61952c-.10195-.05886-.11057-.15329-.00661-.21371l.97819-.56846c.10122-.05882.26701-.05573.36896.00313z" fill="#485f69"/></g></g><g enable-background="new"><g><path d="m19.87198 28.6903.00048-.17125c-.00011.04042.02835.08127.08301.11283l-.00049.17125c-.05465-.03155-.08311-.0724-.083-.11283z" fill="#778c95"/></g><g><path d="m22.4412 28.5773-.00049.17126c-.0001.03756-.02398.07531-.07357.10413l.00049-.17125c.04959-.02883.07347-.06658.07357-.10414z" fill="#778c95"/></g><g><path d="m22.36763 28.68143-.00048.17125-.97819.56846.00048-.17125z" fill="#778c95"/></g><g><path d="m21.02584 29.24986-.00048.17125-1.07037-.61798.00049-.17125z" fill="#778c95"/></g><g><path d="m21.38944 29.24989-.00048.17125c-.10396.06042-.26703.05572-.3636-.00003l.00049-.17125c.09656.05575.25963.06045.36359.00003z" fill="#778c95"/></g><g><path d="m22.36639 28.47082c.09657.05575.10246.15179.00124.21061l-.97819.56846c-.10396.06042-.26703.05572-.3636-.00003l-1.07037-.61798c-.10463-.06041-.11325-.15483-.00928-.21525l.97819-.56846c.10122-.05882.26701-.05573.37164.00467z" fill="#485f69"/></g></g><g enable-background="new"><g><path d="m21.52008 29.641.00048-.17125c-.00011.04092.02843.08215.08205.1131l-.00048.17125c-.05362-.03095-.08217-.07218-.08205-.1131z" fill="#778c95"/></g><g><path d="m24.08866 29.5277-.00049.17125c-.0001.03763-.02397.07569-.07389.1047l.00048-.17125c.04992-.02901.07379-.06707.0739-.1047z" fill="#778c95"/></g><g><path d="m24.01476 29.6324-.00048.17125-.97819.56846.00048-.17125z" fill="#778c95"/></g><g><path d="m22.67565 30.20238-.00048.17125-1.07305-.61952.00049-.17125z" fill="#778c95"/></g><g><path d="m23.03657 30.20086-.00049.17125c-.10396.06042-.26703.05572-.36092.00151l.00049-.17125c.09389.05422.25696.05891.36092-.00151z" fill="#778c95"/></g><g><path d="m24.0162 29.42334c.09389.05421.09978.15024-.00144.20906l-.97819.56846c-.10396.06042-.26703.05572-.36092.00151l-1.07304-.61952c-.10193-.05885-.11325-.15483-.00928-.21525l.97819-.56846c.10122-.05882.2697-.05418.37164.00467z" fill="#485f69"/></g></g><g enable-background="new"><g><path d="m14.10762 27.21797.00048-.17125c-.0001.03819.02551.07643.07681.10605l-.00049.17125c-.05129-.02962-.0769-.06787-.0768-.10605z" fill="#778c95"/></g><g><path d="m17.93997 27.83198-.00049.17126c-.0001.03701-.02406.07389-.07401.10292l.00048-.17125c.04995-.02904.07391-.06592.07402-.10293z" fill="#778c95"/></g><g><path d="m16.5188 28.50023-.00049.17126-2.33388-1.34747.00048-.17126z" fill="#778c95"/></g><g><path d="m17.86595 27.9349-.00048.17125-.97819.56847.00048-.17126z" fill="#778c95"/></g><g><path d="m16.88776 28.50336-.00049.17125c-.10122.05882-.26703.05572-.36896-.00313l.00049-.17125c.10193.05886.26775.06196.36896.00313z" fill="#778c95"/></g><g><path d="m17.85935 27.7212c.10193.05885.11057.15329.00661.21371l-.97819.56846c-.10122.05882-.26703.05572-.36896-.00313l-2.33389-1.34747c-.10193-.05885-.10246-.15179-.00124-.21061l.97819-.56846c.10396-.06042.26166-.05882.3636.00003z" fill="#485f69"/></g></g><g enable-background="new"><g><path d="m17.02497 28.9038.00048-.17125c-.0001.0373.02485.07455.07548.10378l-.00049.17125c-.05063-.02923-.07558-.06648-.07547-.10378z" fill="#778c95"/></g><g><path d="m19.59236 28.783-.00049.17126c-.0001.03725-.02529.0746-.0766.10441l.00049-.17125c.05131-.02982.07649-.06716.0766-.10442z" fill="#778c95"/></g><g><path d="m19.51576 28.88742-.00049.17125-.97819.56846.00049-.17125z" fill="#778c95"/></g><g><path d="m18.17397 29.45585-.00048.17125-1.07305-.61952.00049-.17125z" fill="#778c95"/></g><g><path d="m18.53757 29.45588-.00048.17125c-.10122.05882-.26166.05882-.3636-.00003l.00049-.17125c.10193.05885.26237.05885.36359.00003z" fill="#778c95"/></g><g><path d="m19.51452 28.67681c.10193.05885.1052.15019.00124.21061l-.97819.56846c-.10122.05882-.26166.05882-.3636-.00003l-1.07304-.61952c-.10195-.05886-.09978-.15024.00143-.20906l.97819-.56846c.10397-.06042.25897-.06038.36092-.00151z" fill="#485f69"/></g></g><g enable-background="new"><g><path d="m12.50982 28.14506.00048-.17125c-.0001.03828.02618.07673.07813.10673l-.00049.17125c-.05194-.02999-.07823-.06844-.07812-.10673z" fill="#778c95"/></g><g><path d="m17.14588 29.2128-.00049.17125c-.00011.03959-.02739.07948-.07967.10987l.00049-.17125c.05227-.03038.07956-.07028.07967-.10987z" fill="#778c95"/></g><g><path d="m17.0662 29.32267-.00048.17125-.9808.56998.00049-.17126z" fill="#778c95"/></g><g><path d="m15.72709 29.89264-.00048.17126-3.13867-1.81211.00049-.17125z" fill="#778c95"/></g><g><path d="m16.08541 29.89264-.00049.17125c-.10122.05882-.25637.05886-.35832 0l.00049-.17125c.10195.05887.2571.05882.35832 0z" fill="#778c95"/></g><g><path d="m17.07299 29.11049c.10195.05886.09443.15335-.00678.21217l-.98079.56997c-.10122.05882-.25637.05886-.35832 0l-3.13866-1.81211c-.10193-.05885-.10506-.15027-.00384-.2091l.98079-.56997c.10122-.05882.26701-.06193.36895-.00308z" fill="#485f69"/></g></g><g enable-background="new"><g><path d="m18.66026 29.84268.00048-.17125c-.00011.0404.02759.08139.08195.11278l-.00048.17125c-.05435-.03139-.08206-.07238-.08195-.11278z" fill="#778c95"/></g><g><path d="m21.23145 29.72933-.00049.17125c-.0001.03726-.02529.0746-.0766.10442l.00049-.17125c.05131-.02982.0765-.06716.0766-.10442z" fill="#778c95"/></g><g><path d="m21.15485 29.83375-.00048.17125-.97819.56846.00048-.17125z" fill="#778c95"/></g><g><path d="m19.81306 30.40218-.00048.17125-1.07037-.61798.00048-.17125z" fill="#778c95"/></g><g><path d="m20.17666 30.40221-.00048.17125c-.10122.05882-.26166.05882-.3636-.00003l.00049-.17125c.10193.05885.26237.05885.36359.00003z" fill="#778c95"/></g><g><path d="m21.15361 29.62314c.10193.05885.1052.15019.00124.21061l-.97819.56846c-.10122.05882-.26166.05882-.3636-.00003l-1.07037-.61798c-.10463-.06041-.11052-.15644-.0093-.21526l.97819-.56846c.10397-.06042.26703-.05572.37166.00468z" fill="#485f69"/></g></g><g enable-background="new"><g><path d="m16.19174 30.2723.00048-.17125c-.0001.0374.02549.07485.07678.10446l-.00049.17125c-.05128-.0296-.07688-.06705-.07677-.10446z" fill="#778c95"/></g><g><path d="m18.7621 30.14745-.00049.17126c-.00011.03948-.02666.07915-.07827.10914l.00048-.17125c.05162-.02999.07817-.06966.07828-.10915z" fill="#778c95"/></g><g><path d="m17.34204 30.82504-.00049.17125-1.07304-.61952.00049-.17126z" fill="#778c95"/></g><g><path d="m18.68383 30.2566-.00049.17126-.98079.56997.00048-.17125z" fill="#778c95"/></g><g><path d="m17.70303 30.82658-.00048.17125c-.10122.05882-.25906.05731-.36099-.00154l.00048-.17125c.10193.05885.25978.06036.36099.00154z" fill="#778c95"/></g><g><path d="m18.68794 30.04289c.10193.05885.09711.1549-.00411.21372l-.98079.56997c-.10122.05882-.25906.05731-.36099-.00154l-1.07305-.61953c-.10195-.05886-.10238-.14873-.00117-.20755l.98079-.56997c.10122-.05882.26432-.06349.36627-.00462z" fill="#485f69"/></g></g><g enable-background="new"><g><path d="m10.91206 29.07503.00048-.17125c-.00011.03819.02551.07643.0768.10605l-.00049.17125c-.05129-.02962-.0769-.06787-.07679-.10605z" fill="#778c95"/></g><g><path d="m13.97884 29.23375-.00049.17125c-.00011.04046-.02813.08138-.08105.11214l.00049-.17125c.05292-.03075.08093-.07167.08105-.11214z" fill="#778c95"/></g><g><path d="m13.89778 29.3459-.00049.17125-.97819.56846.00049-.17125z" fill="#778c95"/></g><g><path d="m12.55868 29.91588-.00048.17126-1.56934-.90606.00048-.17126z" fill="#778c95"/></g><g><path d="m12.91959 29.91436-.00049.17125c-.10122.05882-.25897.06038-.3609.00152l.00049-.17125c.10193.05886.25968.0573.3609-.00152z" fill="#778c95"/></g><g><path d="m13.90718 29.13222c.10193.05885.09181.15485-.00941.21367l-.97819.56846c-.10122.05882-.25897.06038-.3609.00153l-1.56934-.90606c-.10193-.05885-.10246-.15179-.00124-.21061l.97819-.56846c.10122-.05882.26962-.06344.37155-.00459z" fill="#485f69"/></g></g><g enable-background="new"><g><path d="m12.97351 30.26063.00048-.17125c-.00012.04087.02766.08225.08097.11303l-.00049.17125c-.0533-.03078-.08108-.07215-.08096-.11303z" fill="#778c95"/></g><g><path d="m15.54818 30.13982-.00049.17125c-.00011.04046-.02813.08138-.08105.11214l.00049-.17125c.05291-.03076.08093-.07168.08105-.11214z" fill="#778c95"/></g><g><path d="m15.46712 30.25196-.00049.17125-.97819.56846.00049-.17125z" fill="#778c95"/></g><g><path d="m14.12801 30.82193-.00049.17125-1.07304-.61952.00048-.17125z" fill="#778c95"/></g><g><path d="m14.48893 30.82042-.00049.17125c-.10122.05882-.25897.06038-.36092.00151l.00049-.17125c.10195.05886.2597.05731.36092-.00151z" fill="#778c95"/></g><g><path d="m15.47651 30.03827c.10195.05886.09183.15487-.00939.21369l-.97819.56846c-.10122.05882-.25897.06038-.36092.00151l-1.07304-.61952c-.10193-.05885-.1105-.15643-.00928-.21525l.97819-.56846c.10122-.05882.27766-.0588.37959.00005z" fill="#485f69"/></g></g><g enable-background="new"><g><path d="m14.64478 31.22554.00048-.17125c-.00011.04088.02766.08225.08097.11303l-.00049.17125c-.0533-.03078-.08107-.07215-.08096-.11303z" fill="#778c95"/></g><g><path d="m17.21945 31.10473-.00049.17126c-.00011.04046-.02813.08138-.08105.11214l.00049-.17125c.05292-.03077.08094-.07169.08105-.11215z" fill="#778c95"/></g><g><path d="m17.13839 31.21687-.00048.17125-.97819.56846.00048-.17125z" fill="#778c95"/></g><g><path d="m15.79928 31.78684-.00049.17125-1.07304-.61952.00049-.17125z" fill="#778c95"/></g><g><path d="m16.1602 31.78533-.00048.17125c-.10122.05882-.25897.06038-.36092.00151l.00049-.17125c.10194.05886.25969.05731.36091-.00151z" fill="#778c95"/></g><g><path d="m17.14778 31.00318c.10195.05886.09183.15487-.00939.21369l-.97819.56846c-.10122.05882-.25897.06038-.36092.00151l-1.07304-.61952c-.10193-.05885-.1105-.15643-.00928-.21525l.97819-.56846c.10122-.05882.27766-.0588.37959.00005z" fill="#485f69"/></g></g><g enable-background="new"><g><path d="m20.30031 30.78874.00048-.17125c-.00011.04088.02766.08225.08097.11303l-.00048.17125c-.05331-.03078-.08108-.07215-.08097-.11303z" fill="#778c95"/></g><g><path d="m22.87186 30.67494-.00049.17125c-.0001.03736-.02595.07491-.07793.10512l.00049-.17125c.05198-.0302.07783-.06776.07793-.10512z" fill="#778c95"/></g><g><path d="m22.79392 30.78007-.00048.17125-.97819.56846.00048-.17125z" fill="#778c95"/></g><g><path d="m21.45483 31.35005-.00049.17126-1.07306-.61954.00049-.17125z" fill="#778c95"/></g><g><path d="m21.81573 31.34853-.00048.17125c-.10122.05882-.25897.06038-.3609.00152l.00048-.17125c.10193.05886.25969.0573.3609-.00152z" fill="#778c95"/></g><g><path d="m22.79538 30.57101c.10193.05885.10251.14864-.00145.20905l-.97819.56846c-.10122.05882-.25897.06038-.3609.00153l-1.07306-.61953c-.10193-.05885-.1105-.15643-.00928-.21525l.97819-.56846c.10396-.06042.2697-.05418.37164.00467z" fill="#485f69"/></g></g><g enable-background="new"><g><path d="m17.84304 31.22051.00048-.17125c-.00011.04047.02832.08166.08332.11341l-.00049.17125c-.05499-.03175-.08342-.07294-.08331-.11341z" fill="#778c95"/></g><g><path d="m20.41728 31.10307-.00048.17125c-.00011.03948-.02667.07915-.07828.10915l.00049-.17125c.0516-.03.07816-.06967.07827-.10915z" fill="#778c95"/></g><g><path d="m18.99721 31.78065-.00048.17125-1.07037-.61797.00049-.17126z" fill="#778c95"/></g><g><path d="m20.339 31.21222-.00049.17125-.98079.56998.00049-.17126z" fill="#778c95"/></g><g><path d="m19.35821 31.78219-.00049.17125c-.10122.05882-.25904.05732-.36099-.00154l.00049-.17125c.10194.05886.25977.06036.36099.00154z" fill="#778c95"/></g><g><path d="m20.34311 30.9985c.10195.05886.09711.1549-.00411.21372l-.98079.56997c-.10122.05882-.25904.05732-.36099-.00154l-1.07037-.61798c-.10461-.0604-.1131-.15492-.01188-.21374l.98079-.56997c.10122-.05882.27238-.05883.37699.00156z" fill="#485f69"/></g></g><g enable-background="new"><g><path d="m27.24502 29.10402.00048-.17125c-.0001.03717.02357.07453.07347.10334l-.00049.17125c-.0499-.02881-.07356-.06616-.07346-.10334z" fill="#778c95"/></g><g><path d="m29.55372 29.1374-.00049.17126c-.0001.03746-.02404.07464-.07308.10314l.00049-.17125c.04903-.0285.07297-.06569.07308-.10315z" fill="#778c95"/></g><g><path d="m28.39204 29.65565-.00049.17125-1.07306-.61953.00049-.17126z" fill="#778c95"/></g><g><path d="m29.48063 29.24055-.00048.17125-.71951.41813.00049-.17125z" fill="#778c95"/></g><g><path d="m28.76113 29.65868-.00048.17125c-.09601.0558-.26716.05582-.36909-.00303l.00049-.17125c.10192.05885.27306.05883.36908.00303z" fill="#778c95"/></g><g><path d="m29.47419 29.02677c.10193.05885.10781.15488.00644.21378l-.71951.41813c-.09601.0558-.26716.05582-.36909-.00303l-1.07306-.61953c-.10193-.05885-.09442-.15334.0016-.20914l.71951-.41813c.10136-.0589.25912-.06046.36105-.00161z" fill="#485f69"/></g></g><g enable-background="new"><g><path d="m25.51596 30.11024.00048-.17125c-.0001.03705.0236.07383.07288.10229l-.00048.17125c-.04929-.02845-.07298-.06524-.07288-.10229z" fill="#778c95"/></g><g><path d="m28.0892 29.99-.00049.17126c-.0001.03657-.02342.07277-.07172.10084l.00048-.17125c.0483-.02808.07163-.06428.07173-.10085z" fill="#778c95"/></g><g><path d="m28.01747 30.09085-.00049.17125-.98079.56997.00049-.17125z" fill="#778c95"/></g><g><path d="m26.66238 30.66081-.00048.17125-1.07307-.61953.00049-.17125z" fill="#778c95"/></g><g><path d="m27.03668 30.66082-.00048.17125c-.10122.05882-.27236.05884-.3743-.00001l.00048-.17125c.10193.05885.27308.05883.3743.00001z" fill="#778c95"/></g><g><path d="m28.00828 29.87866c.10193.05885.11041.15336.00919.21218l-.98079.56997c-.10122.05882-.27236.05884-.3743-.00001l-1.07306-.61953c-.10193-.05885-.09441-.15334.0068-.21216l.98079-.56997c.10122-.05882.25637-.05886.3583-.00001z" fill="#485f69"/></g></g><g enable-background="new"><g><path d="m23.16863 30.5943.00048-.17125c-.00011.04002.02766.0802.08062.11078l-.00049.17125c-.05294-.03058-.08072-.07076-.08061-.11078z" fill="#778c95"/></g><g><path d="m25.73485 30.48035-.00049.17125c-.0001.03743-.024.07458-.07295.10302l.00049-.17125c.04894-.02844.07284-.06559.07295-.10302z" fill="#778c95"/></g><g><path d="m24.31474 31.14871-.00048.17125-1.06501-.61488.00049-.17125z" fill="#778c95"/></g><g><path d="m25.6619 30.58337-.00049.17125-.97819.56847.00048-.17126z" fill="#778c95"/></g><g><path d="m24.6837 31.15183-.00048.17125c-.10396.06042-.26703.05572-.36896-.00313l.00048-.17125c.10194.05886.265.06355.36896.00313z" fill="#778c95"/></g><g><path d="m25.65529 30.36967c.10193.05885.10782.15489.00661.21371l-.97819.56846c-.10396.06042-.26703.05572-.36896-.00313l-1.065-.61488c-.10193-.05885-.11057-.15329-.00661-.21371l.97819-.56846c.10122-.05882.26703-.05572.36897.00313z" fill="#485f69"/></g></g><g enable-background="new"><g><path d="m21.94082 31.73742.00048-.17125c-.00011.03998.02692.08029.07956.11068l-.00049.17125c-.05264-.03039-.07967-.0707-.07955-.11068z" fill="#778c95"/></g><g><path d="m24.5123 31.62352-.00049.17126c-.0001.03725-.0253.0746-.07661.10441l.00048-.17125c.05132-.02982.07651-.06716.07662-.10442z" fill="#778c95"/></g><g><path d="m24.43569 31.72794-.00049.17125-.97819.56847.00049-.17126z" fill="#778c95"/></g><g><path d="m23.0939 32.29637-.00048.17125-1.07305-.61952.00049-.17125z" fill="#778c95"/></g><g><path d="m23.4575 32.2964-.00049.17125c-.10122.05882-.26164.05883-.3636-.00003l.00048-.17125c.10196.05886.26239.05885.36361.00003z" fill="#778c95"/></g><g><path d="m24.43445 31.51733c.10195.05886.10521.15019.00124.21061l-.97819.56846c-.10122.05882-.26164.05883-.3636-.00003l-1.07304-.61952c-.10193-.05885-.10782-.15489-.00661-.21371l.97819-.56846c.10396-.06042.26703-.05572.36896.00313z" fill="#485f69"/></g></g><g enable-background="new"><g><path d="m19.49917 32.17584.00048-.17125c-.00011.04097.02842.08255.08239.11371l-.00048.17125c-.05398-.03116-.08251-.07275-.08239-.11371z" fill="#778c95"/></g><g><path d="m22.07042 32.05904-.00049.17125c-.00011.03936-.02528.07919-.07623.1088l.00049-.17125c.05095-.02961.07612-.06943.07623-.1088z" fill="#778c95"/></g><g><path d="m20.6524 32.73627-.00048.17126-1.07037-.61798.00049-.17125z" fill="#778c95"/></g><g><path d="m21.99419 32.16784-.00048.17126-.9808.56997.00049-.17125z" fill="#778c95"/></g><g><path d="m21.0134 32.73782-.00049.17125c-.10122.05882-.26443.05421-.36099-.00154l.00049-.17125c.09656.05575.25977.06036.36099.00154z" fill="#778c95"/></g><g><path d="m21.9983 31.95413c.09657.05575.09711.1549-.00411.21372l-.98079.56998c-.10122.05882-.26443.05421-.36099-.00154l-1.07037-.61798c-.10195-.05886-.11312-.15493-.0119-.21375l.98079-.56997c.10122-.05882.27505-.05729.377.00157z" fill="#485f69"/></g></g><g enable-background="new"><g><path d="m28.88845 30.04738.00048-.17125c-.00011.04031.02617.08151.07987.11251l-.00049.17125c-.05369-.031-.07997-.0722-.07986-.11251z" fill="#778c95"/></g><g><path d="m31.19612 30.08418-.00049.17126c-.0001.03759-.02402.07537-.0737.10424l.00048-.17125c.04968-.02887.0736-.06666.07371-.10425z" fill="#778c95"/></g><g><path d="m31.12242 30.18843-.00049.17125-.71951.41813.00049-.17125z" fill="#778c95"/></g><g><path d="m30.03917 30.60662-.00049.17125-1.07037-.61798.00049-.17125z" fill="#778c95"/></g><g><path d="m30.40291 30.60656-.00048.17125c-.09601.0558-.26718.05581-.36374.00006l.00048-.17125c.09656.05575.26773.05574.36374-.00006z" fill="#778c95"/></g><g><path d="m31.12132 29.97774c.09657.05575.10246.15179.00109.21069l-.71951.41813c-.09601.0558-.26717.05581-.36374.00005l-1.07037-.61798c-.10463-.06041-.10517-.15955-.00916-.21535l.71951-.41813c.10136-.0589.26717-.05581.3718.0046z" fill="#485f69"/></g></g><g enable-background="new"><g><path d="m27.15948 31.05372.00048-.17125c-.00011.0402.02618.08074.07918.11133l-.00049.17125c-.05299-.03059-.07928-.07113-.07917-.11133z" fill="#778c95"/></g><g><path d="m29.73157 30.93682-.00049.17126c-.0001.0367-.02339.07347-.07232.1019l.00048-.17125c.04894-.02843.07223-.0652.07233-.10191z" fill="#778c95"/></g><g><path d="m29.65925 31.03873-.00048.17125-.9808.56998.00049-.17126z" fill="#778c95"/></g><g><path d="m28.30951 31.61178-.00048.17126-1.07037-.61798.00049-.17126z" fill="#778c95"/></g><g><path d="m28.67846 31.6087-.00048.17125c-.10122.05882-.27238.05883-.36895.00308l.00049-.17125c.09656.05576.26772.05574.36894-.00308z" fill="#778c95"/></g><g><path d="m29.65541 30.82963c.09657.05575.10506.15027.00384.2091l-.98079.56997c-.10122.05882-.27238.05883-.36895.00308l-1.07037-.61798c-.10463-.06041-.10517-.15955-.00395-.21837l.98079-.56997c.10122-.05882.26443-.05421.36905.0062z" fill="#485f69"/></g></g><g enable-background="new"><g><path d="m24.81484 31.54689.00048-.17125c-.00011.03874.0256.07686.07351.10452l-.00048.17125c-.04791-.02766-.07362-.06578-.07351-.10452z" fill="#778c95"/></g><g><path d="m27.38339 31.43367-.00049.17126c-.0001.03728-.02341.07415-.07168.10221l.00049-.17125c.04827-.02806.07157-.06494.07168-.10222z" fill="#778c95"/></g><g><path d="m25.96187 32.09968-.00048.17125-1.07304-.61952.00048-.17125z" fill="#778c95"/></g><g><path d="m27.3117 31.53589-.00048.17125-.9782.56846.00049-.17125z" fill="#778c95"/></g><g><path d="m26.33351 32.10435-.00049.17125c-.10396.06042-.2697.05418-.37164-.00467l.00049-.17125c.10194.05885.26768.06509.37164.00467z" fill="#778c95"/></g><g><path d="m27.30242 31.32064c.10193.05885.1105.15643.00928.21525l-.97819.56846c-.10396.06042-.2697.05418-.37164-.00467l-1.07304-.61952c-.09389-.05421-.10253-.14865.00143-.20906l.97819-.56846c.10122-.05882.26703-.05572.36092-.00151z" fill="#485f69"/></g></g><g enable-background="new"><g><path d="m23.5799 32.68375.00048-.17125c-.00011.03997.02691.08027.07955.11066l-.00048.17125c-.05264-.03038-.07966-.07068-.07955-.11066z" fill="#778c95"/></g><g><path d="m26.15138 32.56985-.00049.17126c-.0001.03725-.02529.0746-.0766.10441l.00049-.17125c.05131-.02982.07649-.06716.0766-.10442z" fill="#778c95"/></g><g><path d="m26.07478 32.67427-.00049.17125-.97819.56846.00049-.17125z" fill="#778c95"/></g><g><path d="m24.73299 33.2427-.00048.17126-1.07306-.61954.00048-.17125z" fill="#778c95"/></g><g><path d="m25.09659 33.24273-.00048.17125c-.10122.05882-.26166.05882-.3636-.00003l.00049-.17125c.10193.05885.26237.05885.36359.00003z" fill="#778c95"/></g><g><path d="m26.07354 32.46366c.10193.05885.1052.15019.00124.21061l-.97819.56846c-.10122.05882-.26166.05882-.3636-.00003l-1.07306-.61953c-.10193-.05885-.10781-.15488-.00659-.2137l.97819-.56846c.10397-.06042.26701-.05573.36895.00312z" fill="#485f69"/></g></g><g enable-background="new"><g><path d="m21.15055 33.1338.00048-.17125c-.00011.03828.02618.07673.07813.10672l-.00049.17125c-.05194-.02999-.07823-.06844-.07812-.10672z" fill="#778c95"/></g><g><path d="m23.72492 33.01585-.00049.17126c-.00011.03923-.02528.07839-.07555.10761l.00048-.17125c.05028-.02923.07545-.06839.07556-.10762z" fill="#778c95"/></g><g><path d="m22.30221 33.68879-.00048.17126-1.07305-.61953.00049-.17125z" fill="#778c95"/></g><g><path d="m23.64936 33.12346-.00048.17125-.98079.56998.00048-.17126z" fill="#778c95"/></g><g><path d="m22.66857 33.69343-.00049.17125c-.10122.05882-.26443.05421-.36636-.00464l.00048-.17125c.10194.05885.26515.06346.36637.00464z" fill="#778c95"/></g><g><path d="m23.64811 32.90664c.10193.05885.10247.15799.00126.21682l-.98079.56997c-.10122.05882-.26443.05421-.36636-.00464l-1.07304-.61952c-.10195-.05886-.10506-.15028-.00384-.2091l.98079-.56998c.10122-.05882.267-.06194.36895-.00308z" fill="#485f69"/></g></g><g enable-background="new"><g><path d="m30.5326 31.00055.00048-.17125c-.0001.03806.02419.07644.07479.10566l-.00049.17125c-.05059-.02921-.07488-.06759-.07478-.10566z" fill="#778c95"/></g><g><path d="m32.83853 31.02935-.00049.17126c-.00011.03783-.02599.07573-.07704.10539l.00048-.17125c.05105-.02966.07694-.06756.07705-.1054z" fill="#778c95"/></g><g><path d="m32.76149 31.13475-.00048.17125-.71951.41813.00048-.17125z" fill="#778c95"/></g><g><path d="m31.68093 31.55449-.00048.17125-1.07306-.61953.00048-.17125z" fill="#778c95"/></g><g><path d="m32.04198 31.55288-.00048.17125c-.09601.0558-.25912.06046-.36105.00161l.00049-.17125c.10193.05885.26503.05419.36104-.00161z" fill="#778c95"/></g><g><path d="m32.76309 30.92561c.10193.05885.09976.15023-.0016.20914l-.71951.41813c-.09601.0558-.25912.06046-.36105.00161l-1.07306-.61953c-.10193-.05885-.09711-.1549-.00109-.21069l.71951-.41813c.10136-.0589.26181-.0589.36374-.00005z" fill="#485f69"/></g></g><g enable-background="new"><g><path d="m28.80357 32.00681.00048-.17125c-.0001.03794.02421.07572.07417.10456l-.00049.17125c-.04995-.02884-.07427-.06661-.07416-.10456z" fill="#778c95"/></g><g><path d="m31.37393 31.88195-.00049.17126c-.0001.03695-.0253.07385-.07561.10309l.00048-.17125c.05032-.02924.07552-.06614.07562-.1031z" fill="#778c95"/></g><g><path d="m31.29832 31.98505-.00048.17125-.98079.56998.00048-.17126z" fill="#778c95"/></g><g><path d="m29.95128 32.55966-.00049.17125-1.07306-.61953.00049-.17126z" fill="#778c95"/></g><g><path d="m30.31753 32.55502-.00048.17125c-.10122.05882-.26432.06348-.36625.00463l.00049-.17125c.10192.05886.26503.05419.36624-.00463z" fill="#778c95"/></g><g><path d="m31.29718 31.77751c.10193.05885.10237.14872.00115.20754l-.98079.56997c-.10122.05882-.26432.06348-.36625.00463l-1.07306-.61953c-.10193-.05885-.09711-.1549.00411-.21372l.98079-.56997c.10122-.05882.25906-.05731.36099.00154z" fill="#485f69"/></g></g><g enable-background="new"><g><path d="m26.46229 32.49731.00048-.17125c-.00011.03917.02629.07799.07586.10661l-.00049.17125c-.04956-.02862-.07596-.06744-.07585-.10661z" fill="#778c95"/></g><g><path d="m29.03149 32.38437-.00049.17126c-.0001.03736-.02401.07422-.07265.10249l.00049-.17125c.04863-.02827.07254-.06513.07265-.1025z" fill="#778c95"/></g><g><path d="m27.609 33.05065-.00048.17125-1.07037-.61798.00049-.17125z" fill="#778c95"/></g><g><path d="m28.95883 32.48686-.00048.17125-.97819.56846.00048-.17125z" fill="#778c95"/></g><g><path d="m27.98064 33.05532-.00048.17125c-.10396.06042-.26701.05573-.37164-.00467l.00048-.17125c.10463.06041.26768.06509.37164.00467z" fill="#778c95"/></g><g><path d="m28.94955 32.27161c.10463.06041.1105.15643.00928.21525l-.97819.56846c-.10396.06042-.26701.05574-.37164-.00467l-1.07037-.61798c-.09657-.05576-.1052-.15019-.00124-.21061l.97819-.56846c.10122-.05882.26703-.05572.3636.00003z" fill="#485f69"/></g></g><g enable-background="new"><g><path d="m25.22024 33.62926.00048-.17125c-.00011.04088.02766.08226.08099.11304l-.00048.17125c-.05332-.03078-.0811-.07216-.08099-.11304z" fill="#778c95"/></g><g><path d="m27.79179 33.51546-.00049.17126c-.0001.03735-.02595.07491-.07794.10511l.00049-.17125c.05199-.0302.07784-.06776.07794-.10512z" fill="#778c95"/></g><g><path d="m27.71385 33.62059-.00048.17125-.97819.56846.00048-.17125z" fill="#778c95"/></g><g><path d="m26.37476 34.19057-.00049.17126-1.07304-.61952.00048-.17126z" fill="#778c95"/></g><g><path d="m26.73566 34.18905-.00048.17125c-.10122.05882-.25897.06038-.3609.00153l.00049-.17125c.10192.05885.25968.05729.36089-.00153z" fill="#778c95"/></g><g><path d="m27.71531 33.41153c.10193.05885.10251.14864-.00145.20905l-.97819.56846c-.10122.05882-.25897.06038-.3609.00153l-1.07304-.61952c-.10195-.05886-.11052-.15644-.0093-.21526l.97819-.56846c.10397-.06042.2697-.05418.37166.00468z" fill="#485f69"/></g></g><g enable-background="new"><g><path d="m22.80709 34.09167.00048-.17125c-.0001.0374.02549.07486.07677.10446l-.00048.17125c-.05128-.0296-.07688-.06705-.07677-.10446z" fill="#778c95"/></g><g><path d="m25.37745 33.96682-.00049.17125c-.00011.03948-.02666.07915-.07828.10915l.00049-.17125c.05161-.02999.07817-.06966.07828-.10915z" fill="#778c95"/></g><g><path d="m23.95738 34.64441-.00048.17125-1.07304-.61952.00048-.17125z" fill="#778c95"/></g><g><path d="m25.29917 34.07597-.00048.17126-.9808.56997.00049-.17125z" fill="#778c95"/></g><g><path d="m24.31838 34.64595-.00049.17125c-.10122.05882-.25904.05732-.36099-.00154l.00049-.17125c.10195.05886.25977.06036.36099.00154z" fill="#778c95"/></g><g><path d="m25.30328 33.86226c.10195.05886.09711.1549-.00411.21372l-.98079.56998c-.10122.05882-.25904.05732-.36099-.00154l-1.07304-.61952c-.10193-.05885-.10238-.14873-.00117-.20755l.98079-.56997c.10122-.05882.26434-.06348.36627-.00462z" fill="#485f69"/></g></g><g enable-background="new"><g><path d="m16.31606 32.19045.00048-.17125c-.00011.04088.02766.08225.08097.11303l-.00048.17125c-.05332-.03077-.08109-.07215-.08097-.11303z" fill="#778c95"/></g><g><path d="m18.89073 32.06963-.00049.17125c-.00011.04046-.02813.08138-.08106.11214l.00048-.17125c.05293-.03075.08095-.07167.08107-.11214z" fill="#778c95"/></g><g><path d="m18.80967 32.18177-.00049.17126-.97819.56846.00049-.17125z" fill="#778c95"/></g><g><path d="m17.47057 32.75176-.00048.17126-1.07306-.61954.00048-.17125z" fill="#778c95"/></g><g><path d="m17.83148 32.75024-.00049.17125c-.10122.05882-.25897.06038-.3609.00153l.00049-.17125c.10193.05885.25968.05729.3609-.00153z" fill="#778c95"/></g><g><path d="m18.81907 31.9681c.10193.05885.09181.15486-.00941.21367l-.97819.56846c-.10122.05882-.25897.06038-.3609.00153l-1.07306-.61953c-.10193-.05885-.1105-.15643-.00928-.21525l.97819-.56846c.10122-.05882.27766-.0588.37959.00005z" fill="#485f69"/></g></g><g enable-background="new"><g><path d="m32.17605 31.94861.00048-.17125c-.00011.03852.0235.07684.07043.10393l-.00049.17125c-.04692-.02709-.07053-.06541-.07042-.10393z" fill="#778c95"/></g><g><path d="m34.48312 31.98495-.00049.17126c-.0001.03731-.02344.07422-.07181.10233l.00049-.17125c.04837-.02812.07171-.06504.07181-.10234z" fill="#778c95"/></g><g><path d="m33.32 32.50081-.00048.17125-1.07304-.61952.00048-.17125z" fill="#778c95"/></g><g><path d="m34.41132 32.08728-.00049.17125-.71951.41813.00049-.17125z" fill="#778c95"/></g><g><path d="m33.69181 32.50541-.00048.17125c-.09601.05579-.26985.05426-.3718-.0046l.00047-.17125c.10196.05886.27579.06039.37181.0046z" fill="#778c95"/></g><g><path d="m34.40216 31.87193c.10195.05886.11052.15644.00916.21535l-.71951.41813c-.09601.05579-.26985.05426-.3718-.0046l-1.07304-.61952c-.09389-.05421-.09443-.15335.00158-.20915l.71951-.41813c.10136-.0589.26717-.05581.36106-.0016z" fill="#485f69"/></g></g><g enable-background="new"><g><path d="m30.44703 32.95495.00048-.17125c-.00011.03836.02349.07602.06979.10275l-.00048.17125c-.0463-.02672-.0699-.06438-.06979-.10275z" fill="#778c95"/></g><g><path d="m33.01863 32.83754-.00049.17125c-.0001.03642-.02284.07235-.07047.10003l.00048-.17125c.04763-.02768.07038-.06361.07048-.10003z" fill="#778c95"/></g><g><path d="m31.59035 33.50597-.00049.17126-1.07304-.61953.00049-.17124z" fill="#778c95"/></g><g><path d="m32.94815 32.93758-.00048.17125-.9808.56997.00049-.17125z" fill="#778c95"/></g><g><path d="m31.96736 33.50755-.00049.17125c-.10122.05882-.27505.05729-.37701-.00158l.00049-.17125c.10195.05887.27579.0604.37701.00158z" fill="#778c95"/></g><g><path d="m32.93625 32.72382c.10195.05886.11312.15493.0119.21375l-.98079.56997c-.10122.05882-.27505.05729-.37701-.00158l-1.07304-.61952c-.09389-.05421-.09443-.15335.00678-.21217l.98079-.56998c.10122-.05882.26443-.05421.35832 0z" fill="#485f69"/></g></g><g enable-background="new"><g><path d="m28.11039 33.44803.00048-.17125c-.00011.03966.02636.07884.07489.10686l-.00048.17125c-.04853-.02802-.075-.0672-.07489-.10686z" fill="#778c95"/></g><g><path d="m30.67892 33.33481-.00049.17125c-.0001.03743-.02401.07458-.07295.10302l.00048-.17125c.04895-.02844.07286-.06559.07296-.10302z" fill="#778c95"/></g><g><path d="m29.25881 34.00317-.00048.17125-1.07305-.61952.00049-.17126z" fill="#778c95"/></g><g><path d="m30.60596 33.43783-.00048.17126-.97819.56846.00049-.17126z" fill="#778c95"/></g><g><path d="m29.62778 34.00629-.00049.17125c-.10396.06042-.26701.05573-.36896-.00313l.00049-.17125c.10194.05887.26499.06355.36896.00313z" fill="#778c95"/></g><g><path d="m30.59936 33.22412c.10195.05886.10782.15489.00661.21371l-.97819.56846c-.10396.06042-.26701.05573-.36896-.00313l-1.07304-.61952c-.09389-.05421-.1052-.15019-.00124-.21061l.97819-.56846c.10122-.05882.2697-.05418.3636.00003z" fill="#485f69"/></g></g><g enable-background="new"><g><path d="m26.86074 34.57794.00049-.17125c-.00011.03998.02691.08029.07956.11068l-.00048.17125c-.05265-.03039-.07968-.0707-.07957-.11068z" fill="#778c95"/></g><g><path d="m29.43088 34.4618-.00049.17125c-.0001.03736-.02595.07491-.07793.10512l.00049-.17125c.05198-.03021.07782-.06777.07793-.10512z" fill="#778c95"/></g><g><path d="m29.35294 34.56692-.00048.17125-.97819.56846.00048-.17125z" fill="#778c95"/></g><g><path d="m28.01385 35.13691-.00049.17125-1.07306-.61953.00049-.17126z" fill="#778c95"/></g><g><path d="m28.37475 35.13538-.00048.17125c-.10122.05882-.25897.06038-.3609.00152l.00048-.17125c.10193.05886.25968.0573.3609-.00152z" fill="#778c95"/></g><g><path d="m29.35439 34.35786c.10193.05885.10251.14864-.00145.20905l-.97819.56846c-.10122.05882-.25897.06038-.3609.00153l-1.07306-.61953c-.10193-.05885-.10782-.15488-.00661-.21371l.97819-.56846c.10396-.06042.26703-.05572.36896.00313z" fill="#485f69"/></g></g><g enable-background="new"><g><path d="m33.82048 32.89957.00048-.17125c-.0001.03764.02422.07571.07581.10549l-.00049.17125c-.05158-.02979-.07591-.06786-.0758-.10549z" fill="#778c95"/></g><g><path d="m36.12608 32.92892-.00049.17126c-.0001.03772-.02532.07539-.0757.10467l.00049-.17125c.05038-.02928.0756-.06696.0757-.10468z" fill="#778c95"/></g><g><path d="m36.05039 33.0336-.00049.17125-.71951.41813.00049-.17125z" fill="#778c95"/></g><g><path d="m34.96714 33.45178-.00049.17126-1.07037-.61798.00049-.17125z" fill="#778c95"/></g><g><path d="m35.33088 33.45173-.00048.17125c-.09601.05579-.26179.05891-.36374.00005l.00048-.17125c.10195.05886.26773.05574.36374-.00005z" fill="#778c95"/></g><g><path d="m36.04929 32.8229c.10195.05886.10246.15179.00109.21069l-.71951.41813c-.09601.05579-.26179.05891-.36374.00005l-1.07037-.61798c-.10463-.06041-.09711-.1549-.0011-.21069l.71951-.41813c.10136-.05891.25912-.06046.36374-.00005z" fill="#485f69"/></g></g><g enable-background="new"><g><path d="m32.09143 33.90578.00048-.17125c-.0001.03753.02425.07502.0752.10444l-.00048.17125c-.05095-.02941-.07531-.06691-.0752-.10444z" fill="#778c95"/></g><g><path d="m34.66151 33.78152-.00049.17125c-.0001.03684-.02465.07352-.07428.10237l.00048-.17125c.04964-.02884.07419-.06553.07429-.10237z" fill="#778c95"/></g><g><path d="m34.58722 33.88389-.00048.17126-.98079.56997.00048-.17125z" fill="#778c95"/></g><g><path d="m33.23748 34.45695-.00048.17125-1.07037-.61798.00048-.17125z" fill="#778c95"/></g><g><path d="m33.60643 34.45387-.00048.17125c-.10122.05882-.267.06194-.36895.00308l.00049-.17125c.10195.05886.26772.05574.36894-.00308z" fill="#778c95"/></g><g><path d="m34.58338 33.6748c.10195.05886.10506.15028.00384.2091l-.98079.56998c-.10122.05882-.26699.06194-.36895.00308l-1.07037-.61798c-.10463-.06041-.09711-.1549.00411-.21372l.98079-.56997c.10122-.05882.25637-.05886.361.00154z" fill="#485f69"/></g></g><g enable-background="new"><g><path d="m29.75592 34.40192.00048-.17125c-.0001.03735.02553.07452.0765.10394l-.00049.17125c-.05096-.02942-.07659-.06658-.07649-.10394z" fill="#778c95"/></g><g><path d="m32.32748 34.28815-.00049.17125c-.0001.03728-.02341.07415-.07168.10221l.00048-.17125c.04828-.02806.07158-.06493.07169-.10221z" fill="#778c95"/></g><g><path d="m30.90594 34.95414-.00048.17125-1.07305-.61952.00049-.17125z" fill="#778c95"/></g><g><path d="m32.25579 34.39036-.00048.17125-.9782.56846.00049-.17125z" fill="#778c95"/></g><g><path d="m31.2776 34.95882-.00048.17125c-.10397.06042-.2697.05418-.37166-.00468l.00048-.17125c.10195.05886.2677.0651.37166.00468z" fill="#778c95"/></g><g><path d="m32.24649 34.1751c.10195.05886.11052.15644.0093.21526l-.97819.56846c-.10396.06042-.2697.05418-.37166-.00468l-1.07304-.61952c-.10193-.05885-.10253-.14865.00143-.20906l.97819-.56846c.10122-.05882.25899-.06037.36092-.00151z" fill="#485f69"/></g></g><g enable-background="new"><g><path d="m28.49983 35.52427.00048-.17125c-.00011.03998.02692.08028.07957.11068l-.00049.17125c-.05265-.03039-.07967-.0707-.07956-.11068z" fill="#778c95"/></g><g><path d="m31.07131 35.41037-.00049.17126c-.0001.03725-.0253.0746-.0766.10441l.00048-.17125c.05131-.02981.0765-.06716.07661-.10442z" fill="#778c95"/></g><g><path d="m30.99471 35.51479-.00049.17125-.97819.56847.00049-.17126z" fill="#778c95"/></g><g><path d="m29.65292 36.08323-.00048.17124-1.07305-.61952.00049-.17125z" fill="#778c95"/></g><g><path d="m30.01652 36.08325-.00049.17125c-.10122.05882-.26166.05882-.3636-.00003l.00048-.17125c.10194.05885.26239.05885.36361.00003z" fill="#778c95"/></g><g><path d="m30.99347 35.30418c.10193.05885.10521.15019.00124.21061l-.97819.56846c-.10122.05882-.26166.05882-.3636-.00003l-1.07304-.61952c-.10195-.05886-.10782-.15489-.00661-.21371l.97819-.56846c.10396-.06042.26701-.05574.36896.00313z" fill="#485f69"/></g></g><g enable-background="new"><g><path d="m35.46059 33.84573.00048-.17125c-.00011.03806.02419.07644.07478.10565l-.00048.17125c-.05059-.02921-.07489-.06758-.07478-.10565z" fill="#778c95"/></g><g><path d="m37.7706 33.88143-.00049.17126c-.0001.03746-.02404.07464-.07308.10313l.00048-.17125c.04905-.0285.07298-.06568.07309-.10314z" fill="#778c95"/></g><g><path d="m36.6089 34.39965-.00048.17126-1.07305-.61952.00049-.17126z" fill="#778c95"/></g><g><path d="m37.69752 33.98457-.00049.17125-.71951.41813.00049-.17125z" fill="#778c95"/></g><g><path d="m36.97801 34.4027-.00049.17125c-.09601.0558-.26715.05582-.36911-.00304l.00048-.17125c.10196.05886.27311.05884.36912.00304z" fill="#778c95"/></g><g><path d="m37.69106 33.77077c.10196.05886.10783.15489.00646.21379l-.71951.41813c-.09601.0558-.26716.05582-.36911-.00304l-1.07304-.61952c-.10193-.05885-.09711-.1549-.00109-.21069l.71951-.41813c.10136-.05891.26181-.05891.36374-.00006z" fill="#485f69"/></g></g><g enable-background="new"><g><path d="m33.73156 34.85199.00048-.17125c-.00011.03794.02421.07572.07417.10456l-.00049.17125c-.04996-.02884-.07427-.06662-.07416-.10456z" fill="#778c95"/></g><g><path d="m36.30608 34.73402-.00049.17125c-.0001.03657-.02343.07277-.07173.10084l.00049-.17125c.04831-.02806.07163-.06426.07173-.10084z" fill="#778c95"/></g><g><path d="m36.23436 34.83487-.00049.17125-.9808.56997.00049-.17125z" fill="#778c95"/></g><g><path d="m34.87925 35.40482-.00049.17125-1.07304-.61952.00049-.17125z" fill="#778c95"/></g><g><path d="m35.25356 35.40484-.00049.17125c-.10122.05882-.27236.05885-.37431-.00002l.00048-.17125c.10196.05886.2731.05884.37432.00002z" fill="#778c95"/></g><g><path d="m36.22514 34.62267c.10195.05886.11043.15337.00921.2122l-.98079.56997c-.10122.05882-.27236.05885-.37432-.00002l-1.07304-.61952c-.10194-.05885-.09711-.1549.00411-.21372l.98079-.56998c.10122-.05882.25906-.05731.361.00154z" fill="#485f69"/></g></g><g enable-background="new"><g><path d="m31.40339 35.35236.00048-.17125c-.0001.03779.0262.07563.07884.10602l-.00048.17125c-.05265-.03039-.07895-.06822-.07884-.10602z" fill="#778c95"/></g><g><path d="m33.97461 35.23912-.00048.17126c-.0001.03728-.02341.07415-.07169.10221l.00049-.17125c.04827-.02807.07157-.06494.07168-.10222z" fill="#778c95"/></g><g><path d="m32.55307 35.90511-.00048.17125-1.07037-.61797.00049-.17126z" fill="#778c95"/></g><g><path d="m33.90292 35.34133-.00048.17125-.97819.56847.00048-.17126z" fill="#778c95"/></g><g><path d="m32.92473 35.90979-.00048.17125c-.10397.06042-.26971.05418-.37166-.00468l.00048-.17125c.10196.05886.2677.0651.37166.00468z" fill="#778c95"/></g><g><path d="m33.89362 35.12607c.10195.05886.11052.15644.0093.21526l-.97819.56846c-.10397.06042-.26971.05418-.37166-.00468l-1.07037-.61798c-.10461-.06039-.1052-.15019-.00124-.21061l.97819-.56846c.10122-.05882.25899-.06036.3636.00003z" fill="#485f69"/></g></g><g enable-background="new"><g><path d="m30.14018 36.46978.00048-.17125c-.00011.04088.02767.08226.08098.11304l-.00049.17125c-.05331-.03078-.08109-.07215-.08097-.11304z" fill="#778c95"/></g><g><path d="m32.70874 36.35658-.00049.17126c-.0001.03719-.02401.07494-.07494.10454l.00048-.17125c.05093-.0296.07484-.06736.07495-.10455z" fill="#778c95"/></g><g><path d="m32.6338 36.46112-.00049.17125-.97819.56847.00049-.17126z" fill="#778c95"/></g><g><path d="m31.29469 37.0311-.00049.17125-1.07304-.61952.00048-.17125z" fill="#778c95"/></g><g><path d="m31.65561 37.02958-.00048.17125c-.10122.05882-.26703.05572-.36092.00151l.00048-.17125c.09389.05421.2597.05732.36092-.00151z" fill="#778c95"/></g><g><path d="m32.63523 36.25206c.09389.05421.10253.14865-.00144.20906l-.97819.56846c-.10122.05882-.26703.05572-.36092.00151l-1.07304-.61952c-.10193-.05885-.11052-.15644-.0093-.21526l.97819-.56846c.10396-.06042.26972-.05417.37166.00468z" fill="#485f69"/></g></g><g enable-background="new"><g><path d="m37.10502 34.79198.00048-.17125c-.00011.03988.0255.08037.07748.11038l-.00048.17125c-.05198-.03002-.07759-.0705-.07748-.11038z" fill="#778c95"/></g><g><path d="m39.41365 34.8255-.00049.17126c-.0001.03783-.02599.07573-.07703.10539l.00048-.17125c.05104-.02967.07693-.06756.07704-.1054z" fill="#778c95"/></g><g><path d="m39.33661 34.9309-.00049.17125-.7195.41813.00048-.17125z" fill="#778c95"/></g><g><path d="m38.25603 35.35063-.00048.17125-1.07304-.61952.00048-.17125z" fill="#778c95"/></g><g><path d="m38.6171 35.34903-.00048.17125c-.09601.05579-.25911.06046-.36106.0016l.00048-.17125c.10195.05886.26505.0542.36106-.0016z" fill="#778c95"/></g><g><path d="m39.33819 34.72175c.10195.05886.09978.15024-.00158.20915l-.71951.41813c-.09601.0558-.25911.06046-.36106.0016l-1.07304-.61952c-.10193-.05885-.10247-.15799-.00646-.21379l.71951-.41813c.10136-.05891.26717-.05581.36911.00304z" fill="#485f69"/></g></g><g enable-background="new"><g><path d="m35.37604 35.79832.00048-.17125c-.00011.03976.02551.07958.07681.1092l-.00048.17125c-.0513-.02962-.07692-.06945-.07681-.1092z" fill="#778c95"/></g><g><path d="m37.94905 35.6781-.00049.17125c-.0001.03695-.0253.07386-.0756.10309l.00048-.17125c.05031-.02923.0755-.06613.07561-.10309z" fill="#778c95"/></g><g><path d="m37.87344 35.7812-.00048.17125-.98079.56997.00048-.17125z" fill="#778c95"/></g><g><path d="m36.52638 36.35579-.00049.17126-1.07304-.61953.00048-.17125z" fill="#778c95"/></g><g><path d="m36.89265 36.35117-.00048.17125c-.10122.05882-.26432.06348-.36627.00462l.00048-.17125c.10195.05886.26506.0542.36627-.00462z" fill="#778c95"/></g><g><path d="m37.87228 35.57364c.10195.05886.10239.14873.00117.20755l-.98079.56997c-.10122.05882-.26432.06348-.36627.00462l-1.07304-.61952c-.10193-.05885-.10247-.15799-.00126-.21682l.98079-.56997c.10122-.05882.26443-.05421.36636.00464z" fill="#485f69"/></g></g><g enable-background="new"><g><path d="m24.4581 35.0404.00048-.17125c-.00011.04006.02764.08058.08094.11135l-.00049.17125c-.05329-.03077-.08105-.07128-.08093-.11135z" fill="#778c95"/></g><g><path d="m27.03263 34.92245-.00049.17125c-.00011.03948-.02666.07915-.07827.10915l.00049-.17125c.05161-.02999.07816-.06967.07827-.10915z" fill="#778c95"/></g><g><path d="m25.61258 35.60003-.00049.17126-1.07306-.61954.00048-.17125z" fill="#778c95"/></g><g><path d="m26.95436 35.0316-.00048.17125-.9808.56998.00049-.17126z" fill="#778c95"/></g><g><path d="m25.97357 35.60157-.00049.17125c-.10122.05882-.25906.05731-.36099-.00154l.00049-.17125c.10193.05885.25977.06037.36099.00154z" fill="#778c95"/></g><g><path d="m26.95847 34.81788c.10193.05885.09711.1549-.00411.21372l-.98079.56997c-.10122.05882-.25906.05731-.36099-.00154l-1.07306-.61953c-.10193-.05885-.11043-.15337-.00921-.21219l.98079-.56998c.10122-.05882.27238-.05883.37432.00002z" fill="#485f69"/></g></g><g enable-background="new"><g><path d="m26.11268 35.99709.00048-.17125c-.00011.03922.02627.07837.07617.10718l-.00049.17125c-.04989-.0288-.07627-.06795-.07616-.10718z" fill="#778c95"/></g><g><path d="m28.68477 35.88018-.00049.17126c-.00011.03916-.02528.07801-.07523.10703l.00049-.17125c.04994-.02903.07512-.06788.07523-.10704z" fill="#778c95"/></g><g><path d="m27.25971 36.551-.00049.17126-1.07037-.61798.00049-.17125z" fill="#778c95"/></g><g><path d="m28.60954 35.98721-.00049.17126-.98079.56997.00048-.17125z" fill="#778c95"/></g><g><path d="m27.62874 36.55719-.00049.17125c-.10122.05882-.26441.05422-.36903-.00619l.00048-.17125c.10463.06041.26782.06501.36904.00619z" fill="#778c95"/></g><g><path d="m28.6056 35.76885c.10463.06041.10515.15954.00393.21836l-.98079.56998c-.10122.05882-.26441.05422-.36904-.00619l-1.07037-.61798c-.09659-.05576-.10506-.15027-.00384-.2091l.98079-.56997c.10122-.05882.27236-.05885.36895-.00308z" fill="#485f69"/></g></g><g enable-background="new"><g><path d="m27.7659 36.95317.00048-.17125c-.0001.03828.02618.07673.07813.10672l-.00048.17125c-.05195-.02999-.07824-.06844-.07813-.10672z" fill="#778c95"/></g><g><path d="m30.34027 36.83521-.00048.17125c-.00011.03923-.02529.0784-.07556.10762l.00048-.17125c.05028-.02922.07545-.06838.07556-.10762z" fill="#778c95"/></g><g><path d="m28.91757 37.50817-.00048.17125-1.07306-.61953.00048-.17125z" fill="#778c95"/></g><g><path d="m30.26471 36.94283-.00049.17125-.98079.56998.00048-.17126z" fill="#778c95"/></g><g><path d="m29.28391 37.5128-.00048.17125c-.10122.05882-.26441.05422-.36634-.00463l.00048-.17125c.10194.05885.26513.06345.36634.00463z" fill="#778c95"/></g><g><path d="m30.26347 36.72602c.10193.05885.10246.15798.00124.2168l-.98079.56997c-.10122.05882-.26441.05422-.36634-.00463l-1.07306-.61953c-.10193-.05885-.10506-.15028-.00384-.2091l.98079-.56998c.10122-.05882.26701-.06193.36895-.00308z" fill="#485f69"/></g></g><g enable-background="new"><g><path d="m17.98874 33.15771.00048-.17125c-.00011.03998.02692.08029.07956.11068l-.00049.17125c-.05263-.03039-.07966-.0707-.07955-.11068z" fill="#778c95"/></g><g><path d="m27.08698 36.80721-.00049.17126c-.00011.04004-.02593.07989-.07652.10929l.00048-.17125c.05059-.02941.07641-.06925.07653-.1093z" fill="#778c95"/></g><g><path d="m25.66062 37.48029-.00048.17125-7.59184-4.38315.00048-.17125z" fill="#778c95"/></g><g><path d="m27.01045 36.9165-.00048.17125-.9782.56847.00049-.17126z" fill="#778c95"/></g><g><path d="m26.03226 37.48496-.00049.17125c-.10122.05882-.26701.05573-.37164-.00467l.00048-.17125c.10464.06041.27043.0635.37165.00467z" fill="#778c95"/></g><g><path d="m27.00912 36.69663c.10463.06041.10254.16105.00133.21987l-.97819.56846c-.10122.05882-.26701.05573-.37164-.00467l-7.59184-4.38315c-.10193-.05885-.10782-.15489-.00661-.21371l.97819-.56846c.10122-.05882.27498-.06034.37691-.0015z" fill="#485f69"/></g></g><g enable-background="new"><g><path d="m26.16814 37.88313.00048-.17125c-.00011.03818.02551.07643.0768.10604l-.00048.17125c-.05129-.02961-.07691-.06785-.0768-.10604z" fill="#778c95"/></g><g><path d="m28.74249 37.76222-.00049.17126c-.00011.04012-.02594.0803-.07686.10989l.00048-.17125c.05093-.0296.07676-.06978.07687-.1099z" fill="#778c95"/></g><g><path d="m27.31849 38.43746-.00049.17125-1.07306-.61953.00049-.17125z" fill="#778c95"/></g><g><path d="m28.66562 37.87212-.00048.17125-.97819.56846.00048-.17125z" fill="#778c95"/></g><g><path d="m27.68743 38.44058-.00049.17125c-.10122.05882-.26701.05573-.36894-.00312l.00048-.17125c.10194.05885.26774.06194.36895.00312z" fill="#778c95"/></g><g><path d="m28.66699 37.6538c.10193.05885.09985.1595-.00137.21832l-.97819.56846c-.10122.05882-.26701.05573-.36895-.00312l-1.07306-.61953c-.10193-.05885-.10246-.15179-.00124-.21061l.97819-.56846c.10122-.05882.26962-.06344.37155-.00459z" fill="#485f69"/></g></g><g enable-background="new"><g><path d="m33.05151 36.30317.00048-.17125c-.0001.03823.02622.07638.07785.10619l-.00048.17125c-.05164-.02981-.07796-.06796-.07785-.10619z" fill="#778c95"/></g><g><path d="m35.623 36.18928-.00049.17125c-.0001.03743-.02401.07458-.07295.10302l.00048-.17125c.04896-.02844.07286-.06558.07296-.10302z" fill="#778c95"/></g><g><path d="m34.2029 36.85764-.00048.17125-1.07307-.61953.00049-.17125z" fill="#778c95"/></g><g><path d="m35.55005 36.2923-.00048.17125-.97819.56847.00049-.17126z" fill="#778c95"/></g><g><path d="m34.57187 36.86076-.00049.17125c-.10396.06042-.26703.05573-.36896-.00313l.00048-.17125c.10193.05886.265.06355.36897.00313z" fill="#778c95"/></g><g><path d="m35.54345 36.07859c.10194.05885.10783.15489.00661.21371l-.97819.56846c-.10397.06042-.26703.05573-.36897-.00313l-1.07306-.61953c-.10193-.05885-.1052-.15019-.00124-.21061l.97819-.56846c.10122-.05882.26167-.05882.3636.00003z" fill="#485f69"/></g></g><g enable-background="new"><g><path d="m31.78068 37.41848.00048-.17125c-.00011.03997.02691.08028.07955.11067l-.00049.17125c-.05263-.03039-.07965-.0707-.07954-.11067z" fill="#778c95"/></g><g><path d="m34.34782 37.30289-.00049.17126c-.0001.03719-.02401.07495-.07494.10455l.00048-.17125c.05093-.02961.07484-.06737.07495-.10456z" fill="#778c95"/></g><g><path d="m34.27287 37.40744-.00049.17125-.97819.56847.00049-.17126z" fill="#778c95"/></g><g><path d="m32.93378 37.97743-.00049.17125-1.07306-.61953.00049-.17126z" fill="#778c95"/></g><g><path d="m33.29468 37.9759-.00049.17125c-.10122.05882-.26701.05573-.3609.00152l.00048-.17125c.0939.05422.25969.0573.36091-.00152z" fill="#778c95"/></g><g><path d="m34.27432 37.19839c.09389.05421.10251.14864-.00145.20905l-.97819.56846c-.10122.05882-.26701.05573-.3609.00153l-1.07306-.61953c-.10193-.05885-.10781-.15488-.00659-.2137l.97819-.56846c.10397-.06042.26701-.05574.36895.00312z" fill="#485f69"/></g></g><g enable-background="new"><g><path d="m29.42107 37.90878.00048-.17125c-.0001.03828.02618.07673.07813.10673l-.00049.17125c-.05194-.02999-.07822-.06845-.07812-.10673z" fill="#778c95"/></g><g><path d="m31.99152 37.78393-.00049.17126c-.00011.03959-.02739.07949-.07967.10987l.00049-.17125c.05227-.03039.07956-.07029.07967-.10988z" fill="#778c95"/></g><g><path d="m31.91184 37.8938-.00049.17125-.98079.56998.00049-.17125z" fill="#778c95"/></g><g><path d="m30.57275 38.46379-.00049.17125-1.07306-.61953.00049-.17125z" fill="#778c95"/></g><g><path d="m30.93105 38.46378-.00049.17125c-.10122.05882-.25637.05886-.3583.00001l.00049-.17125c.10193.05885.25708.05881.3583-.00001z" fill="#778c95"/></g><g><path d="m31.91864 37.68164c.10193.05885.09442.15334-.0068.21217l-.98079.56997c-.10122.05882-.25637.05886-.3583.00001l-1.07306-.61953c-.10193-.05885-.10506-.15028-.00384-.2091l.98079-.56997c.10122-.05882.26701-.06193.36895-.00308z" fill="#485f69"/></g></g><g enable-background="new"><g><path d="m27.86355 38.86198.00048-.17125c-.00011.03819.02551.07644.0768.10605l-.00048.17125c-.05129-.02962-.0769-.06786-.0768-.10605z" fill="#778c95"/></g><g><path d="m30.43757 38.74168-.00048.17126c-.00011.04004-.02593.07989-.07652.10929l.00049-.17125c.05058-.0294.0764-.06925.07651-.1093z" fill="#778c95"/></g><g><path d="m29.01121 39.41475-.00048.17126-1.07037-.61798.00048-.17125z" fill="#778c95"/></g><g><path d="m30.36106 38.85098-.00049.17125-.97819.56846.00049-.17125z" fill="#778c95"/></g><g><path d="m29.38287 39.41944-.00048.17125c-.10122.05882-.26703.05572-.37166-.00468l.00048-.17125c.10463.0604.27044.0635.37166.00468z" fill="#778c95"/></g><g><path d="m30.35971 38.63109c.10463.06041.10256.16106.00135.21988l-.97819.56846c-.10122.05882-.26703.05572-.37166-.00468l-1.07037-.61798c-.10193-.05885-.10246-.15179-.00124-.21061l.97819-.56846c.10122-.05882.26962-.06344.37155-.00459z" fill="#485f69"/></g></g><g enable-background="new"><g><path d="m38.74811 35.74533.00048-.17125c-.0001.03717.02357.07453.07347.10334l-.00048.17125c-.0499-.0288-.07358-.06616-.07347-.10334z" fill="#778c95"/></g><g><path d="m41.05823 35.78108-.00049.17126c-.0001.03731-.02344.07422-.07181.10233l.00048-.17125c.04837-.02812.07171-.06503.07182-.10234z" fill="#778c95"/></g><g><path d="m39.89513 36.29696-.00049.17125-1.07306-.61953.00048-.17125z" fill="#778c95"/></g><g><path d="m40.98642 35.88341-.00049.17125-.71951.41814.00049-.17126z" fill="#778c95"/></g><g><path d="m40.26691 36.30154-.00048.17125c-.09601.0558-.26985.05426-.37178-.00459l.00049-.17125c.10192.05886.27575.06039.37177.00459z" fill="#778c95"/></g><g><path d="m40.97728 35.66808c.10193.05885.1105.15643.00914.21533l-.71951.41813c-.09601.0558-.26985.05426-.37178-.00459l-1.07306-.61953c-.10193-.05885-.09441-.15334.0016-.20914l.71951-.41813c.10136-.05891.25911-.06046.36105-.00161z" fill="#485f69"/></g></g><g enable-background="new"><g><path d="m37.01905 36.75155.00048-.17125c-.0001.03705.0236.07383.07288.10228l-.00049.17125c-.04928-.02844-.07298-.06522-.07287-.10228z" fill="#778c95"/></g><g><path d="m39.59373 36.63367-.00049.17126c-.0001.03642-.02284.07235-.07048.10004l.00048-.17125c.04765-.02769.07039-.06363.07049-.10005z" fill="#778c95"/></g><g><path d="m38.16547 37.30212-.00048.17125-1.07307-.61953.00049-.17125z" fill="#778c95"/></g><g><path d="m39.52325 36.73371-.00048.17125-.9808.56998.00049-.17126z" fill="#778c95"/></g><g><path d="m38.54246 37.30368-.00048.17125c-.10122.05882-.27505.05729-.37699-.00156l.00048-.17125c.10193.05885.27577.06039.37699.00156z" fill="#778c95"/></g><g><path d="m39.51137 36.51997c.10193.05885.1131.15491.01188.21374l-.98079.56997c-.10122.05882-.27505.05729-.37699-.00156l-1.07306-.61953c-.10194-.05885-.09442-.15334.0068-.21216l.98079-.56998c.10122-.05882.25637-.05886.3583-.00001z" fill="#485f69"/></g></g><g enable-background="new"><g><path d="m34.69864 37.25414.00048-.17125c-.0001.03823.02621.07638.07785.10619l-.00048.17125c-.05164-.02981-.07795-.06795-.07785-.10619z" fill="#778c95"/></g><g><path d="m37.27013 37.14025-.00048.17126c-.00011.03743-.02401.07458-.07295.10302l.00048-.17125c.04895-.02845.07285-.06559.07295-.10303z" fill="#778c95"/></g><g><path d="m35.85003 37.80861-.00049.17125-1.07305-.61953.00048-.17125z" fill="#778c95"/></g><g><path d="m37.19719 37.24327-.00049.17126-.97819.56846.00048-.17125z" fill="#778c95"/></g><g><path d="m36.21899 37.81174-.00048.17125c-.10397.06042-.26703.05572-.36897-.00313l.00049-.17125c.10194.05885.265.06354.36896.00313z" fill="#778c95"/></g><g><path d="m37.19058 37.02957c.10193.05885.10783.15489.00661.21371l-.97819.56846c-.10396.06042-.26703.05573-.36896-.00313l-1.07306-.61953c-.10193-.05885-.1052-.15019-.00124-.21061l.97819-.56846c.10122-.05882.26166-.05882.3636.00003z" fill="#485f69"/></g></g><g enable-background="new"><g><path d="m33.42007 38.36425.00048-.17125c-.00011.0404.0276.0814.08195.11278l-.00048.17125c-.05436-.03138-.08207-.07238-.08195-.11278z" fill="#778c95"/></g><g><path d="m35.98829 38.25157-.00049.17125c-.0001.03707-.02342.07455-.07365.10374l.00048-.17125c.05023-.02918.07355-.06667.07366-.10374z" fill="#778c95"/></g><g><path d="m35.91463 38.35531-.00048.17126-.97819.56846.00049-.17126z" fill="#778c95"/></g><g><path d="m34.57285 38.92374-.00049.17126-1.07035-.61797.00049-.17125z" fill="#778c95"/></g><g><path d="m34.93645 38.92377-.00049.17125c-.10122.05882-.2697.05418-.36359-.00003l.00048-.17125c.09389.05421.26238.05886.3636.00003z" fill="#778c95"/></g><g><path d="m35.91339 38.1447c.09389.05421.10521.15019.00124.21061l-.97819.56846c-.10122.05882-.26971.05418-.3636-.00003l-1.07035-.61797c-.10463-.06041-.11052-.15644-.0093-.21526l.97819-.56846c.10397-.06042.26703-.05573.37165.00468z" fill="#485f69"/></g></g><g enable-background="new"><g><path d="m31.07346 38.85978.00048-.17125c-.00011.04007.02764.08059.08093.11135l-.00049.17125c-.05328-.03077-.08103-.07128-.08092-.11135z" fill="#778c95"/></g><g><path d="m33.64799 38.74182-.00049.17126c-.00011.03948-.02666.07915-.07827.10915l.00048-.17125c.05161-.03.07816-.06968.07828-.10916z" fill="#778c95"/></g><g><path d="m32.22792 39.4194-.00049.17126-1.07304-.61953.00049-.17125z" fill="#778c95"/></g><g><path d="m33.56971 38.85097-.00049.17125-.98079.56998.00048-.17126z" fill="#778c95"/></g><g><path d="m32.58891 39.42094-.00048.17125c-.10122.05882-.25904.05732-.361-.00154l.00048-.17125c.10196.05886.25978.06037.361.00154z" fill="#778c95"/></g><g><path d="m33.57381 38.63725c.10196.05886.09711.1549-.00411.21372l-.98079.56997c-.10122.05882-.25904.05732-.361-.00154l-1.07304-.61952c-.10193-.05885-.11043-.15337-.00921-.21219l.98079-.56998c.10122-.05882.27238-.05883.37431.00002z" fill="#485f69"/></g></g><g enable-background="new"><g><path d="m29.55798 39.84101.00048-.17125c-.0001.03774.02551.07568.07782.10587l-.00049.17125c-.0523-.03019-.07792-.06813-.07781-.10587z" fill="#778c95"/></g><g><path d="m32.13299 39.72053-.00049.17126c-.00011.04004-.02593.07989-.07652.10929l.00048-.17125c.0506-.0294.07642-.06925.07653-.1093z" fill="#778c95"/></g><g><path d="m30.70662 40.3936-.00048.17125-1.07035-.61796.00049-.17126z" fill="#778c95"/></g><g><path d="m32.05647 39.82982-.00048.17126-.97819.56846.00048-.17126z" fill="#778c95"/></g><g><path d="m31.07828 40.39828-.00048.17125c-.10122.05882-.26703.05572-.37166-.00468l.00048-.17125c.10463.06041.27044.06351.37166.00468z" fill="#778c95"/></g><g><path d="m32.05513 39.60994c.10463.06041.10256.16106.00135.21988l-.97819.56846c-.10122.05882-.26703.05573-.37166-.00468l-1.07035-.61797c-.10463-.06041-.10246-.15179-.00124-.21061l.97819-.56846c.10122-.05882.26692-.06499.37155-.00459z" fill="#485f69"/></g></g><g enable-background="new"><g><path d="m40.39155 36.68871.00048-.17125c-.00011.0403.02617.0815.07986.1125l-.00049.17124c-.05369-.03099-.07996-.07219-.07985-.11249z" fill="#778c95"/></g><g><path d="m42.6992 36.72549-.00049.17126c-.0001.03759-.02402.07537-.07369.10424l.00048-.17125c.04968-.02887.0736-.06665.0737-.10425z" fill="#778c95"/></g><g><path d="m42.62551 36.82974-.00049.17126-.71951.41813.00049-.17125z" fill="#778c95"/></g><g><path d="m41.54226 37.24793-.00049.17125-1.07037-.61798.00049-.17125z" fill="#778c95"/></g><g><path d="m41.906 37.24788-.00048.17125c-.09601.05579-.26717.05581-.36374.00005l.00048-.17125c.09656.05575.26773.05574.36374-.00005z" fill="#778c95"/></g><g><path d="m42.62441 36.61905c.09657.05575.10246.15179.00109.21069l-.7195.41814c-.09601.0558-.26717.05581-.36374.00005l-1.07037-.61798c-.10463-.06041-.10515-.15954-.00914-.21534l.71951-.41813c.10136-.0589.26715-.05582.37178.00459z" fill="#485f69"/></g></g><g enable-background="new"><g><path d="m42.0357 37.64187.00048-.17125c-.00011.03807.02419.07644.07479.10566l-.00049.17125c-.05059-.02921-.07489-.06759-.07478-.10566z" fill="#778c95"/></g><g><path d="m44.82316 37.95018-.00049.17126c-.00011.03772-.02531.0754-.07569.10467l.00048-.17125c.05038-.02927.07559-.06695.0757-.10468z" fill="#778c95"/></g><g><path d="m44.74747 38.05486-.00049.17125-.71951.41813.00049-.17125z" fill="#778c95"/></g><g><path d="m43.66422 38.47305-.00049.17125-1.55324-.89677.00049-.17125z" fill="#778c95"/></g><g><path d="m44.02796 38.47299-.00049.17125c-.09601.0558-.26181.05891-.36374.00006l.00048-.17125c.10194.05884.26774.05574.36375-.00006z" fill="#778c95"/></g><g><path d="m44.74637 37.84417c.10194.05885.10246.15179.00109.21069l-.71951.41813c-.09601.05579-.26181.0589-.36374.00005l-1.55324-.89676c-.10196-.05886-.09711-.1549-.0011-.21069l.71951-.41813c.10136-.05891.26179-.05892.36374-.00005z" fill="#485f69"/></g></g><g enable-background="new"><g><path d="m38.80873 37.78402.00048-.17125c-.0001.03752.02425.07502.0752.10443l-.00049.17125c-.05094-.02941-.0753-.06691-.07519-.10443z" fill="#778c95"/></g><g><path d="m43.35859 38.80279-.00048.17126c-.0001.03683-.02465.07352-.07428.10236l.00049-.17125c.04962-.02885.07416-.06553.07427-.10237z" fill="#778c95"/></g><g><path d="m43.28431 38.90516-.00049.17125-.9808.56997.00049-.17125z" fill="#778c95"/></g><g><path d="m41.93456 39.47821-.00048.17125-3.05016-1.76101.00049-.17125z" fill="#778c95"/></g><g><path d="m42.30351 39.47513-.00048.17125c-.10122.05882-.26701.06193-.36895.00308l.00048-.17125c.10194.05885.26773.05574.36895-.00308z" fill="#778c95"/></g><g><path d="m43.28046 38.69606c.10194.05885.10506.15028.00385.2091l-.9808.56998c-.10122.05882-.26701.06193-.36895.00308l-3.05015-1.76101c-.10463-.06041-.09711-.1549.00411-.21371l.98079-.56998c.10122-.05882.25637-.05886.361.00154z" fill="#485f69"/></g></g><g enable-background="new"><g><path d="m36.34713 38.20737.00048-.17125c-.0001.03735.02552.07451.07649.10393l-.00048.17125c-.05097-.02942-.07659-.06658-.07649-.10393z" fill="#778c95"/></g><g><path d="m38.91868 38.09357-.00049.17125c-.0001.03728-.0234.07416-.07168.10221l.00048-.17125c.04828-.02804.07159-.06492.07169-.10221z" fill="#778c95"/></g><g><path d="m37.49716 38.75958-.00048.17125-1.07306-.61953.00048-.17125z" fill="#778c95"/></g><g><path d="m38.84699 38.19579-.00048.17125-.97819.56846.00048-.17125z" fill="#778c95"/></g><g><path d="m37.8688 38.76425-.00048.17125c-.10397.06042-.26971.05418-.37164-.00467l.00048-.17125c.10194.05885.26768.06509.37164.00467z" fill="#778c95"/></g><g><path d="m38.83771 37.98054c.10193.05885.1105.15643.00928.21525l-.97819.56846c-.10397.06042-.2697.05418-.37164-.00467l-1.07306-.61953c-.10193-.05885-.10251-.14864.00145-.20905l.97819-.56846c.10122-.05882.25897-.06038.3609-.00153z" fill="#485f69"/></g></g><g enable-background="new"><g><path d="m37.93121 39.12046.00048-.17125c-.00011.03823.02621.07637.07785.10619l-.00049.17125c-.05163-.02981-.07795-.06795-.07784-.10619z" fill="#778c95"/></g><g><path d="m41.76078 39.72989-.00048.17125c-.00011.0377-.02528.07534-.07556.10456l.00048-.17125c.05028-.02923.07545-.06687.07556-.10456z" fill="#778c95"/></g><g><path d="m41.68522 39.83444-.00049.17126-.97819.56846.00049-.17126z" fill="#778c95"/></g><g><path d="m40.34343 40.40287-.00048.17126-2.33389-1.34748.00048-.17125z" fill="#778c95"/></g><g><path d="m40.70703 40.4029-.00048.17125c-.10397.06042-.26166.05882-.3636-.00003l.00049-.17125c.10193.05886.25963.06045.36359.00003z" fill="#778c95"/></g><g><path d="m41.68398 39.62383c.10193.05885.10246.15179.00124.21061l-.97819.56846c-.10396.06042-.26166.05882-.36359-.00003l-2.33389-1.34747c-.10195-.05886-.10521-.15019-.00124-.21061l.97819-.56846c.10122-.05882.26165-.05883.3636.00003z" fill="#485f69"/></g></g><g enable-background="new"><g><path d="m35.05921 39.31197.00048-.17125c-.00011.0396.02561.07888.07384.10673l-.00048.17125c-.04823-.02784-.07395-.06713-.07384-.10673z" fill="#778c95"/></g><g><path d="m40.16273 40.65931-.00049.17126c-.0001.03725-.02529.0746-.0766.10441l.00049-.17125c.05131-.02982.0765-.06716.0766-.10442z" fill="#778c95"/></g><g><path d="m40.08614 40.76373-.00049.17125-.97819.56846.00048-.17125z" fill="#778c95"/></g><g><path d="m38.74435 41.33216-.00049.17125-3.61081-2.0847.00048-.17125z" fill="#778c95"/></g><g><path d="m39.10794 41.33219-.00048.17125c-.10122.05882-.26167.05882-.3636-.00003l.00048-.17125c.10194.05885.26239.05885.3636.00003z" fill="#778c95"/></g><g><path d="m40.0849 40.55312c.10193.05885.1052.15019.00124.21061l-.97819.56846c-.10122.05882-.26167.05882-.3636-.00003l-3.61082-2.08471c-.09389-.05421-.10246-.15179-.00124-.21061l.97819-.56846c.10396-.06042.2697-.05418.3636.00003z" fill="#485f69"/></g></g><g enable-background="new"><g><path d="m32.76083 39.83398.00049-.17125c-.00011.04007.02764.08058.08094.11135l-.00048.17125c-.05332-.03076-.08106-.07128-.08095-.11135z" fill="#778c95"/></g><g><path d="m38.56792 41.58235-.00048.17126c-.00011.03948-.02666.07915-.07827.10915l.00048-.17125c.05161-.03.07816-.06967.07827-.10916z" fill="#778c95"/></g><g><path d="m37.14787 42.25993-.00049.17126-4.30561-2.48585.00048-.17125z" fill="#778c95"/></g><g><path d="m38.48965 41.6915-.00048.17125-.9808.56998.00049-.17125z" fill="#778c95"/></g><g><path d="m37.50886 42.26148-.00048.17125c-.10122.05882-.25906.05731-.36099-.00154l.00048-.17125c.10193.05885.25977.06036.36099.00154z" fill="#778c95"/></g><g><path d="m38.49376 41.47779c.10193.05885.09711.1549-.00411.21371l-.98079.56998c-.10122.05882-.25906.05731-.36099-.00154l-4.30561-2.48585c-.10195-.05886-.11043-.15337-.00921-.21219l.98079-.56998c.10122-.05882.27236-.05884.37431.00002z" fill="#485f69"/></g></g><g enable-background="new"><g><path d="m31.18586 40.73573.00048-.17125c-.0001.03699.02361.07349.07259.10177l-.00049.17125c-.04897-.02828-.07268-.06478-.07258-.10177z" fill="#778c95"/></g><g><path d="m32.97384 41.0634-.00049.17125c-.0001.03772-.02531.0754-.07569.10467l.00049-.17125c.05037-.02927.07558-.06695.07569-.10467z" fill="#778c95"/></g><g><path d="m32.89815 41.16807-.00049.17125-.19448.11302.00049-.17125z" fill="#778c95"/></g><g><path d="m32.33197 41.28577-.00048.17125-1.07304-.61953.00048-.17125z" fill="#778c95"/></g><g><path d="m32.70367 41.28109-.00049.17125c-.10396.06042-.26976.06353-.37169.00467l.00048-.17125c.10194.05886.26773.05575.3717-.00467z" fill="#778c95"/></g><g><path d="m32.89706 40.95737c.10193.05885.10246.15179.00109.21069l-.19448.11302c-.10397.06042-.26976.06353-.3717.00468l-1.07304-.61952c-.10195-.05886-.09443-.15335.00953-.21377l.19448-.11302c.10136-.0589.25912-.06046.36107-.00159z" fill="#485f69"/></g></g><g enable-background="new"><g><path d="m33.57381 41.20527.00048-.17125c-.00011.03823.02617.07636.07777.10615l-.00049.17125c-.05159-.02979-.07787-.06792-.07776-.10615z" fill="#778c95"/></g><g><path d="m35.36973 41.54195-.00049.17126c-.0001.03746-.02404.07464-.07308.10314l.00048-.17125c.04904-.02851.07298-.06569.07309-.10315z" fill="#778c95"/></g><g><path d="m34.72512 41.7597-.00048.17125-1.07307-.61953.00049-.17125z" fill="#778c95"/></g><g><path d="m35.29665 41.64509-.00049.17126-.20243.11764.00048-.17126z" fill="#778c95"/></g><g><path d="m35.09421 41.76273-.00048.17125c-.10397.06042-.26716.05582-.36909-.00304l.00048-.17125c.10194.05886.26513.06346.36909.00304z" fill="#778c95"/></g><g><path d="m35.2902 41.43131c.10193.05885.1078.15487.00644.21378l-.20243.11764c-.10397.06042-.26715.05582-.36909-.00303l-1.07306-.61953c-.10194-.05885-.10506-.15028-.00109-.21069l.20243-.11764c.10136-.0589.26181-.05891.36374-.00005z" fill="#485f69"/></g></g><g enable-background="new"><g><path d="m32.79417 41.66277.00048-.17125c-.0001.03788.02422.07536.07385.10401l-.00048.17125c-.04964-.02866-.07396-.06613-.07385-.10401z" fill="#778c95"/></g><g><path d="m34.58616 41.99731-.00048.17126c-.00011.03746-.02404.07464-.07308.10314l.00048-.17125c.04904-.02851.07298-.06569.07308-.10315z" fill="#778c95"/></g><g><path d="m34.51308 42.10045-.00048.17125-.19448.11302.00048-.17125z" fill="#778c95"/></g><g><path d="m33.94156 42.21506-.00049.17125-1.07306-.61953.00049-.17126z" fill="#778c95"/></g><g><path d="m34.3186 42.21347-.00048.17125c-.10397.06042-.27511.06044-.37704.00159l.00048-.17125c.10193.05885.27307.05883.37704-.00159z" fill="#778c95"/></g><g><path d="m34.50664 41.88667c.10193.05885.1078.15488.00644.21378l-.19448.11302c-.10397.06042-.27511.06044-.37704.00159l-1.07306-.61953c-.10193-.05885-.09711-.1549.00686-.21531l.19448-.11302c.10136-.0589.26181-.0589.36374-.00005z" fill="#485f69"/></g></g><g enable-background="new"><g><path d="m34.40682 42.58999.00048-.17125c-.00011.04013.02618.08033.07882.11072l-.00048.17125c-.05265-.03039-.07894-.07058-.07882-.11072z" fill="#778c95"/></g><g><path d="m36.19835 42.92507-.00049.17126c-.0001.03772-.02531.07539-.07568.10467l.00048-.17125c.05037-.02928.07559-.06696.07569-.10468z" fill="#778c95"/></g><g><path d="m36.12266 43.02974-.00048.17126-.19448.11301.00048-.17125z" fill="#778c95"/></g><g><path d="m35.55649 43.14744-.00049.17125-1.07037-.61798.00049-.17125z" fill="#778c95"/></g><g><path d="m35.92818 43.14276-.00048.17125c-.10397.06042-.26976.06353-.37169.00468l.00048-.17125c.10193.05885.26773.05574.37169-.00468z" fill="#778c95"/></g><g><path d="m36.12157 42.81905c.10194.05885.10246.15179.00109.21069l-.19448.11302c-.10396.06042-.26976.06353-.37169.00468l-1.07037-.61798c-.10463-.06041-.10515-.15954-.00118-.21996l.19448-.11302c.10136-.05891.26716-.05582.37178.00459z" fill="#485f69"/></g></g></g><g><path d="m16.51805 33.66343 9.53027 5.50195.06073-.03516c.12714-.07373.12158-.19678-.00629-.27051l-9.58472-5.53369c-.12311-.07129-.33545-.07422-.46252 0l-5.23644 3.04298c-.13171.07666-.12616.19971-.00305.27051l.0592.03418 5.1803-3.01025c.12707-.07423.33942-.0713.46252-.00001z" fill="#b0b8bc"/><path d="m20.87261 42.17319 5.17572-3.00781-9.53027-5.50195c-.12311-.07129-.33545-.07422-.46252 0l-5.1803 3.01025 9.52551 5.49951c.12786.07374.34014.07667.47186 0z" fill="#cfd8dd"/></g></g></g><g><g><path d="m44.91787 39.86813.00174.61293 1.18168-.68225-.00174-.61293z" fill="#9aa1a5"/></g><g><path d="m46.27791 39.07105.00174.61293 1.18168-.68224-.00174-.61293z" fill="#9aa1a5"/></g></g></g><g><g><g enable-background="new"><g><path d="m41.93925 21.48339-.02244 7.91333-8.80909 5.11929.02243-7.91333z" fill="#d9ae6d"/></g><g><path d="m37.91891 25.89494.00708 2.49653 3.40891-1.96814-.00708-2.49653z" fill="#fff"/></g><g><path d="m38.2507 27.84702.00046.16279 2.85078-1.6459-.00047-.16278z" fill="#dde4e7"/></g><g><path d="m38.50683 23.48265-.00487 1.71941-.60798.35332-.69813.4057.00488-1.71941z" fill="#ee5550"/></g><g><path d="m33.13015 26.60268-.02243 7.91333-10.39201-5.99983.02243-7.91333z" fill="#fecd82"/></g><g><path d="m41.93925 21.48339-8.8091 5.11929-10.39201-5.99983 8.8091-5.11929z" fill="#ffd69a"/></g><g><path d="m38.50683 23.48265-1.3061.75902-10.39201-5.99983 1.3061-.75902z" fill="#f17572"/></g></g></g><g><g><path d="m26.09419 28.42133c.01257.06421.02018.12804.02001.1857-.00064.22588-.08755.40442-.26488.49733-.08157.04161-.12788.1378-.12825.26696l.12162.07022c.0198.01143.03813.04074.03806.06675-.00007.02522-.01851.03325-.03831.02182l-.32244-.18616c-.02192-.01266-.04025-.04192-.04018-.06713.00007-.02601.01851-.03408.04043-.02143l.12162.07022c.00037-.13163-.04736-.28207-.12772-.41717-.21993-.36868-.30042-.71138-.24233-.96189z" fill="#56707b"/></g><g><path d="m26.74186 28.56006 1.49766.86468-.00488 1.72092-1.49766-.86468zm1.4209 2.46108.00441-1.55438-1.3527-.78098-.00441 1.55438z" fill="#56707b"/></g><g><path d="m27.4944 29.18576c.01414.00817.02612.02974.02608.04601l-.00006.01948c.25239.16281.45475.48637.52244.84283-.01683-.05935-.05281-.1086-.0917-.13185-.04101-.02368-.07574-.01525-.09355.0192-.01826-.05527-.0507-.10332-.09171-.12779-.04101-.02368-.07433-.01443-.09213.02085-.01826-.05611-.05211-.10497-.09313-.12865-.02701-.01564-.04801-.01717-.06444-.00546l-.00521.58787c-.00103.11447-.08333.16184-.18456.1034-.10171-.05951-.18416-.204-.18313-.31895l.00089-.06461c.00005-.01785.01282-.02514.02838-.01616.01414.009.02683.03015.02607.04843l-.00018.06498c-.00094.08004.05686.18096.12757.22263.07071.04083.12889.008.12982-.07239l.00521-.58782c-.01691-.03175-.04021-.0558-.06425-.06968-.04127-.02382-.07528-.01516-.09284.01965-.01896-.05651-.05282-.10534-.09242-.1282-.0403-.02327-.07503-.01484-.09285.02287-.01683-.05855-.0514-.10699-.0917-.13105-.04101-.02368-.07574-.01525-.09356.0233.07302-.27526.28079-.35957.53184-.22522l.00006-.02032c.00073-.01583.01279-.02274.02906-.01335z" fill="#56707b"/></g><g><path d="m24.33592 28.54639-.00029.10077-.92065-.53154.00028-.10077z" fill="#56707b"/></g><g><path d="m24.33648 28.35058-.00029.10073-.92066-.53154.00029-.10073.14283.08246.11738.06777.39952.23066.11738.06777z" fill="#56707b"/></g><g><path d="m24.13688 27.3043.22311.49746-.16547-.09553-.00159.56147-.11738-.06777.00159-.56147-.16405-.09471z" fill="#56707b"/></g><g><path d="m23.13065 26.47512 1.49695.86427-.00488 1.72092-1.49695-.86427zm1.42019 2.46068.00441-1.55438-1.3527-.78098-.00441 1.55438z" fill="#56707b"/></g><g><path d="m23.61998 27.00587.22311.49746-.16546-.09553-.0016.56147-.11738-.06777.0016-.56147-.16405-.09472z" fill="#56707b"/></g><g><path d="m24.93591 27.51739 1.49766.86468-.00488 1.72092-1.49766-.86467zm1.42088 2.46108.00441-1.55438-1.3527-.78098-.00441 1.55438z" fill="#56707b"/></g></g><g><g><path d="m40.95618 24.46018.00462 1.62779.14067-.08122-.00461-1.62778z" fill="#485f69"/></g><g><path d="m40.64646 24.639.00461 1.62779.13944-.0805-.00461-1.62779z" fill="#485f69"/></g><g><path d="m40.33673 24.81783.00462 1.62778.13944-.0805-.00462-1.62779z" fill="#485f69"/></g><g><path d="m40.02577 24.99736.00461 1.62779.05297-.03058-.00461-1.62779z" fill="#485f69"/></g><g><path d="m40.17709 24.91287.00462 1.62779.05296-.03058-.00461-1.62779z" fill="#485f69"/></g><g><path d="m39.80058 25.12737.00461 1.62779.05491-.0317-.00462-1.62779z" fill="#485f69"/></g><g><path d="m39.49085 25.3062.00461 1.62778.23212-.13401-.00461-1.62779z" fill="#485f69"/></g><g><path d="m39.17989 25.48573.00461 1.62779.14067-.08122-.00461-1.62779z" fill="#485f69"/></g><g><path d="m38.87016 25.66455.00461 1.62779.14068-.08122-.00462-1.62779z" fill="#485f69"/></g><g><path d="m38.56043 25.84337.00461 1.62779.18578-.10726-.00461-1.62779z" fill="#485f69"/></g><g><path d="m38.2507 26.02219.00462 1.62779.13944-.0805-.00462-1.62779z" fill="#485f69"/></g></g></g></g></svg>