<svg id="Layer_1" enable-background="new 0 0 52 52" height="512" viewBox="0 0 52 52" width="512" xmlns="http://www.w3.org/2000/svg"><g><path d="m13.97169 31.87167 4.57473-2.93428-3.23839-4.62849c-.68622-.39007-1.30017-.42618-1.74087-.17339l-3.05536 1.77697c.44056-.26005 1.06184-.21668 1.7408.17332 1.35073.78014 2.44141 2.66536 2.43422 4.21838 0 .77296-.2745 1.3147-.71513 1.56749z" fill="#363a44"/><path d="m33.8984 43.37793 4.57473-2.93428-3.23839-4.62849c-.68622-.39007-1.30017-.42617-1.74087-.17339l-3.05536 1.77697c.44056-.26005 1.06184-.21668 1.7408.17332 1.35073.78014 2.44141 2.66536 2.43422 4.21839.00001.77295-.27449 1.31469-.71513 1.56748z" fill="#363a44"/><path d="m42.55859 26.05411-.1057-.06545c-.02517-.01509-.04028-.04529-.04532-.09566v-.52356l.10573.06041.00504.52357c0 .05036.01508.0856.04025.10069z" fill="#354a59"/><path d="m43.98837 24.24174c-.02517-.01512-.06545-.01512-.10574.01005l-1.22335.70986c-.08054.04529-.14599.15606-.14599.24668v.0302l-.46819.27185-.10573-.06041.46819-.27184v-.0302c0-.09565.06545-.2064.14602-.25172l1.22335-.70482c.04025-.02517.08054-.02517.1057-.01005z" fill="#354a59"/><path d="m43.88316 24.25223c.08035-.04639.14807-.01149.14833.08084l.00211.74608c.00027.09603-.06702.20887-.14738.25527l-1.22464.70704c-.08036.0464-.14485.00964-.14512-.08639l-.00149-.52447-.46929.27094-.00054-.19206.46929-.27094-.00008-.02955c-.00026-.09233.06381-.20332.14417-.24971z" fill="#4c7891"/><g fill="#5b5e71"><path d="m18.76975 26.78242 12.20707-7.09398c-.02066.11274.06252.27506.1731.33891l-12.20707 7.09398c-.11058-.06385-.19376-.22618-.1731-.33891z"/><path d="m19.17348 24.70636 12.20707-7.09398-.40373 2.07606-12.20707 7.09398z"/><path d="m31.42825 17.53568c-.02379.01382-.04085.03972-.0477.0767l-12.20708 7.09398c.00685-.03698.02391-.06288.0477-.0767 3.66212-2.12819 8.54495-4.96578 12.20708-7.09398z"/></g><path d="m19.22117 24.62966 12.20707-7.09397c.03207-.01864.07635-.01533.12429.01235l-12.20707 7.09398c-.04794-.02769-.09222-.031-.12429-.01236z" fill="#30b265"/><path d="m18.94285 27.12132 12.20707-7.09397 3.19109 1.84238-12.20707 7.09397z" fill="#5b5e71"/><path d="m34.46473 21.88207-12.20707 7.09398c-.03137.01823-.07494.01582-.12372-.01234l12.20708-7.09398c.04877.02816.09234.03057.12371.01234z" fill="#5b5e71"/><path d="m34.46472 21.88207-12.20708 7.09398c.03975-.02311.05991-.07936.04624-.15839l12.20708-7.09398c.01367.07904-.00649.13529-.04624.15839z" fill="#30b265"/><path d="m19.34546 24.64201 12.20707-7.09398 2.70338 1.64654-12.20707 7.09397z" fill="#30b265"/><path d="m22.21991 26.54574 12.20707-7.09398.08398 2.27193-12.20708 7.09397z" fill="#30b265"/><path d="m19.34546 24.64201 2.70338 1.64653c.0835.04821.15328.15343.17107.2572l.08398 2.27192c.02447.14139-.05937.20989-.16995.14604l-3.19109-1.84238c-.11058-.06384-.19376-.22617-.1731-.3389l.40373-2.07606c.01607-.08683.08848-.11256.17198-.06435z" fill="#576cfb"/><path d="m22.04884 26.28854 12.20707-7.09398c.0835.04821.15328.15342.17107.2572l-12.20707 7.09398c-.01779-.10377-.08757-.20899-.17107-.2572z" fill="#30b265"/><g><g><path d="m30.75799 18.86712-12.87944 7.4855-15.87855-8.91321 12.87951-7.4855z" fill="#525566"/><g><path d="m14.67196 10.58957-11.78212 6.84836 4.70909 2.71783 7.07303-4.11118.01566.00907.02916-5.43821z" fill="#5b5e71"/><path d="m29.45152 18.86873-14.73474-8.25329-.02916 5.43821 10.05454 5.55206z" fill="#474b59"/></g></g></g><g><g><g><path d="m25.87988 15.99783v7.172l-6.54134 3.85905.04194-7.25401z" fill="#c6a51a"/></g><path d="m19.38048 19.77487-.04194 7.25401-13.75709-7.94266.04195-7.25401z" fill="#e5bd13"/><g><g><path d="m6.46783 13.47891-.26971-.1557-.03827 4.9258.27197-.13677z" fill="#c6a51a"/><path d="m6.43182 18.11224-.27197.13677v.00005l12.60437 7.27688.00226-.29251z" fill="#f1c40f"/><path d="m6.46783 13.47891-.03601 4.63333 12.33466 7.12119.03561-4.63333z" fill="#d6b218"/><path d="m18.08987 21.45223-.0263 2.64048-4.03295-2.32521.0263-2.64047z" fill="#ecf0f1"/></g></g><g><g><path d="m24.9658 17.67283.2697-.1557.03827 4.9258-.27197-.13677z" fill="#e5bd13"/><path d="m25.0018 22.30616.27197.13677v.00005l-5.29125 3.05466-.00227-.29251z" fill="#f1c40f"/><path d="m24.9658 17.67283.036 4.63333-5.02155 2.89897-.0356-4.63333z" fill="#d6b218"/></g></g><path d="m25.87988 15.99783-6.4994 3.77704-13.75708-7.94266 6.4994-3.77704z" fill="#f1c40f"/><g><path d="m12.12344 8.7226v.30853l4.77097 2.7555.26638-.15479z" fill="#d6b218"/><path d="m6.77572 11.83052.26633.15374 5.08139-2.95313v-.30853z" fill="#c6a51a"/><path d="m16.89441 11.78663-4.77097-2.7555-5.08139 2.95313 4.77062 2.7555z" fill="#e5bd13"/></g><g><path d="m17.91343 12.06433v.30852l6.10762 3.52485.26638-.15479z" fill="#d6b218"/><path d="m12.56571 15.17225.26633.15373 5.08139-2.95313v-.30852z" fill="#c6a51a"/><path d="m24.02105 15.8977-6.10762-3.52485-5.08139 2.95313 6.10727 3.52485z" fill="#e5bd13"/></g></g><g><g><g><g><g><path d="m10.31483 17.87733-.21401.40726.13254.07653.29247.16762z" fill="#3f434f"/></g></g></g><g><g><g><path d="m10.23336 18.36112-.00228.80566.15992.09235.00228-.80566z" fill="#3f434f"/></g></g></g><g><g><g><path d="m9.43893 18.78124-.00049.17246 1.10412.63756.00049-.17246z" fill="#3f434f"/></g></g></g><g><g><g><path d="m7.42116 16.25466-.00163.57403c-.00051.18127.10422.3918.24325.49856l-.00147.51739c-.09752-.04496-.17104-.04077-.1712.01336l.43048.24858c.00015-.05413-.0731-.14309-.17056-.21071l.00147-.51738c.06356.02535.11844.01921.1613-.00773.05058-.03762.08369-.10803.08397-.20873l.00163-.57403z" fill="#3f434f"/></g></g></g><g><g><g><path d="m9.59367 17.99174-.00229.80566.15993.09235.00228-.80566z" fill="#3f434f"/></g></g></g><g><g><g><path d="m9.67404 17.50731-.21291.4079.13254.07653.29137.16699z" fill="#3f434f"/></g></g></g></g><g><g><g><g><path d="m8.55188 18.67004c-.01961 0-.04077-.0062-.06141-.01806l-1.4975-.86447c-.06399-.03716-.11611-.12954-.11611-.20489l.00516-1.72378c0-.04335.01703-.07793.04644-.09496.02941-.01651.06605-.01393.10217.00671l1.4975.86447c.06605.03871.11972.13109.11869.20644l-.00464 1.72378c0 .04284-.01754.0769-.04747.09341-.0129.00774-.02735.01135-.04283.01135zm-1.5811-2.85404c-.00413 0-.00774.00103-.01084.00258-.00929.00568-.01496.02064-.01496.04026l-.00516 1.72378c0 .05367.03973.12386.08514.15018l1.4975.86447c.01703.00981.03148.01084.04128.00671.00929-.00568.01497-.01961.01548-.03871l.00464-1.72378c0-.05264-.04128-.1249-.08772-.15173l-1.4975-.86447c-.01031-.00619-.02012-.00929-.02786-.00929z" fill="#3f434f"/></g></g></g><g><g><g><path d="m10.78059 19.95668c-.01961 0-.04077-.00568-.06089-.01755l-1.4975-.86447c-.06553-.03768-.11662-.12799-.11662-.20489l.00516-1.72429c0-.04284.01651-.07742.04644-.09445.02993-.01755.06605-.01497.10217.00619l1.4975.86498c.06605.03768.11972.13057.11869.20644l-.00464 1.72378c0 .0418-.01651.07587-.04593.0929-.01342.00775-.02838.01136-.04438.01136zm-1.58058-2.85352c-.00413 0-.00826.00103-.01135.00258-.00929.00568-.01497.02013-.01497.03974l-.00516 1.72429c0 .05367.04025.12387.08566.15018l1.49699.86447c.01651.00929.03199.01084.0418.00619.00929-.00568.01496-.01961.01496-.03819l.00464-1.72378c0-.05316-.04128-.1249-.08772-.15173l-1.4975-.86498c-.01032-.00568-.01961-.00877-.02735-.00877z" fill="#3f434f"/></g></g></g></g></g></g><path d="m38.36565 20.58985-12.21189 7.09511-7.09511-4.09917c-.12365-.0761-.24729-.09514-.3519-.0761l12.13585-7.05703c.1046-.06658.25681-.05706.41848.03802z" fill="#5b5e71"/><path d="m26.15668 27.68615 12.20707-7.09398c.34529.19935.68584.47388.99907.82096 1.09063 1.2167 2.16138 3.0635 3.2181 5.07364l-12.20707 7.09398c-1.05672-2.01014-2.12748-3.85694-3.2181-5.07364-.31322-.34707-.65378-.6216-.99907-.82096z" fill="#5b5e71"/><path d="m39.13342 21.5589c-.21817-.2363-.45442-.43622-.69072-.6089l-.06363.03633c.20901.15449.40899.32717.5998.53623 1.0906 1.2087 2.17211 3.10812 3.02641 4.72586l.15449.03633c-.85429-1.61772-1.9358-3.51709-3.02635-4.72585z" fill="#474b59"/><path d="m42.00529 26.24844v.00006l-11.633 6.74349c.0182.03633.03633.06362.05453.09996l11.73295-6.80712v-.00006z" fill="#474b59"/><path d="m42.00798 26.24515-5.05308 2.92645-1.25418.72705-1.9631 1.13604-3.36262 1.954c-.12725-.23631-.2636-.4817-.39989-.73615-.79977-1.42687-1.73589-2.96279-2.69015-4.0352-.15448-.17268-.32716-.34536-.49984-.4908l4.29874-2.49928 3.93525-2.29021 1.95395-1.13604 1.26329-.73615.14544-.08182c.20901.15449.40893.32717.5998.53623 1.09059 1.20871 2.17209 3.10819 3.02639 4.72588z" fill="#84dbff"/><path d="m35.61357 41.57745 12.20707-7.09398-.00389 1.37181-12.20707 7.09397z" fill="#5b5e71"/><path d="m48.94342 31.5595-12.19701 7.08923c-.46232-1.50817-3.0052-3.18136-4.73347-4.18314-.93567-.55041-1.60714-.86962-1.6402-.88063l12.20803-7.10025c.03299.02204.70447.34125 1.6402.8807 1.72827 1.00171 4.27114 2.68599 4.72245 4.19409z" fill="#5b5e71"/><path d="m35.61356 41.58003 12.20707-7.09397 1.11712.64237-12.20708 7.09398z" fill="#748bfd"/><path d="m50 36.42287c-.0091.19087-.07267.31812-.18178.38174l-12.20556 7.09795c.10905-.06363.17268-.19997.17268-.38175 0-.38169-.3158-.81889-.64297-1.00971l-.41125-.28991 12.20556-7.09795.46351.27264c.32717.19088.59981.65439.59981 1.02699z" fill="#363a44"/><path d="m37.19557 42.49082c.32949.19023.59717.65387.5961 1.03249-.00107.3786-.2705.52955-.59999.33932l-1.582-.91337.00388-1.36922 1.11712.64238z" fill="#2e323a"/><path d="m36.74767 38.6455-.00952 3.58555-1.12227-.64673-.00952 1.36956-.26627-.15215-.17119-.1046-.89402-.51362-3.89948-2.25407-.13311-.08556-.05712-.02856-1.12227-.64673-6.3342-3.64267-20.69453-11.72967-.0285-6.35329c3.76344 2.09486 11.07055 6.08558 15.76786 8.86694l.71331-2.56788c.08562-.24729.31387-.29489.57068-.1522l3.67117 2.1209 3.4334 1.97827c.34237.19975.68481.47554.99863.82744 1.08425 1.2079 2.15898 3.06252 3.21467 5.0693.03808.01904.70379.33286 1.64542.8845 1.72146.99862 4.26084 2.68206 4.72686 4.17527z" fill="#474b59"/><path d="m36.74081 38.64894 12.20707-7.09397-.01013 3.57346-12.20708 7.09398z" fill="#3f434f"/><path d="m30.37499 33.58561v6.34366l-.13635-.08182-7.50693-4.32603v-9.81534l3.4263 1.98124c.34536.19997.69072.47261.99969.82706 1.09061 1.20871 2.16302 3.06275 3.21729 5.07123z" fill="#474b59"/><path d="m25.74118 28.33458c.05642.03257.10827.08329.1533.14567l2.47195 3.54671c.20037.28711.09553.59023-.15498.4456l-4.51131-2.60461c-.12187-.07036-.22766-.23015-.25209-.38192l.01276-2.10957c-.03333-.20366.08903-.30705.25377-.21193z" fill="#576cfb"/><path d="m29.33672 32.79032-.10645-.06186.46929-.27094.10644.06185z" fill="#354a59"/><path d="m29.29279 32.66647c-.0252-.01509-.06041-.01005-.10573.01512l-1.22335.70479c-.08057.04532-.14599.15606-.14599.25172l.00501.74511c0 .04529.01512.08054.04028.09566l-.10573-.06041c-.02517-.01512-.04025-.05036-.04025-.09565l-.00504-.75014c0-.09062.06545-.20136.14598-.24668l1.22335-.70983c.04532-.02013.08057-.02517.10573-.01008z" fill="#354a59"/><path d="m29.1883 32.67993c.08357-.04825.14807-.01149.14833.08084l.00008.02955.46929-.27094.00055.19206-.46929.27095.00149.52447c.00027.09603-.0638.20701-.14738.25526l-1.22464.70705c-.08035.04639-.14485.00964-.14512-.08639l-.00212-.74608c-.00026-.09233.06382-.20332.14417-.24971z" fill="#4c7891"/><path d="m35.01909 22.93705-1.28148 8.09764-3.36262 1.954c-.12725-.23631-.2636-.4817-.39989-.73615l1.10874-7.02528z" fill="#fff" opacity=".3"/><path d="m38.23632 21.06487-1.28142 8.10673-1.25419.72705 1.27233-8.09763z" fill="#fff" opacity=".3"/><path d="m31.92729 35.6755v.61885l-1.21604-.69799.0072-.6188z" fill="#f9bb4a"/><path d="m35.28302 41.81262c0 .33286-.03808.62769-.11412.8845l-.89402-.51362-3.89948-2.25407-.13311-.08556-.05712-.02856-1.12227-.64673v-.18071c0-1.65488 1.01767-2.39675 2.01629-2.39675.45656 0 .94162.14268 1.42663.428 1.55979.89402 2.7772 3.00546 2.7772 4.7935z" fill="#3f434f"/><path d="m32.17686 37.59169c1.35126.78015 2.4407 2.66713 2.43629 4.21983-.0044 1.5527-1.10096 2.1776-2.45222 1.39745s-2.4407-2.66713-2.43629-4.21983c.0044-1.55271 1.10096-2.1776 2.45222-1.39745z" fill="#5b5e71"/><path d="m32.17465 38.37523c-.97433-.56255-1.76496-.112-1.76817 1.00756-.00313 1.11956.78239 2.48017 1.75665 3.04264.97433.56255 1.76496.11193 1.76817-1.00756.00314-1.11956-.78239-2.48016-1.75665-3.04264zm-.72111 2.53795c-.04132.00379-.08591-.00882-.12985-.0341-.08766-.05064-.17219-.15215-.21999-.27457-.06828-.17765-.02653-.33527.09728-.34285.04008-.00452.08438.00787.1281.03315.08744.0505.17277.15244.21824.27348.07171.1797.03002.33732-.09378.34489zm.09611-1.16918c-.04656.06901-.13357.07156-.22203.0204-.04277-.02463-.08591-.06187-.12497-.11018-.12329-.15412-.16403-.35538-.09495-.45776.04831-.06697.13313-.07061.22087-.01997.04387.02529.08846.0642.12956.11557.12337.15026.16403.35546.09152.45194zm.61611 2.1809c-.14071-.08125-.25701-.28273-.25657-.44443s.11754-.22451.25825-.14326c.14078.08125.25365.27683.25322.43853-.00051.16169-.11411.23041-.2549.14916zm.00634-2.23242c-.14071-.08125-.25708-.2788-.25657-.44049.00044-.1617.11754-.22844.25825-.14719s.25365.28076.25315.44246c-.00044.16169-.11404.22647-.25483.14522zm1.05631 2.13878c-.04598.06821-.1316.07149-.22006.0204-.04423-.02558-.08919-.06464-.13029-.11608-.11994-.14822-.1606-.35341-.09159-.45186.04831-.06689.13313-.07061.22086-.01997.04387.02536.08846.0642.12956.11564.11994.14822.16402.35546.09152.45187zm-.08978-1.0593c-.04037.00248-.08394-.01035-.12679-.03512-.08883-.0513-.17474-.15368-.22305-.27741-.06821-.17773-.02652-.33534.09386-.34489.04124-.00386.08628.00896.13051.03454.08846.05108.17379.15302.21926.27406.0717.18363.02659.33534-.09379.34882z" fill="#ecf0f1"/><path d="m32.44964 40.63811c0 .1828-.12508.25015-.27898.16354-.15397-.08656-.27905-.30788-.27905-.48104 0-.1828.12508-.25015.27905-.16354.16353.08661.28861.30787.27898.48104z" fill="#acb2bc"/><path d="m23.88028 29.78127c-.1272-.06363-.22721-.22721-.25444-.38169l.01814-2.10849c-.01048-.0578-.00521-.10473.00749-.1445-.13013-.04088-.21789.05514-.18633.22882l-.01814 2.10849c.02724.15448.12725.31807.25444.38169l4.50781 2.60833c.13025.07444.218.02835.24779-.07072-.02369-.00571-.04144.00211-.06895-.01359z" fill="#5b5e71"/><path d="m18.94535 26.70033.40471-2.05934-.00189-.00117c-.08182-.04543-.15449-.01819-.17268.06362l-.40898 2.0812c-.01814.10906.06362.27264.17268.33626l3.19909 1.84495c.0918.05359.14949-.00238.15388-.09868l-3.17413-1.83058c-.10906-.06362-.19082-.2272-.17268-.33626z" fill="#5b5e71"/><path d="m22.2246 26.54767.0761 2.27311c.00952.01904-.00952.02856-.00952.04754l-3.17659-1.83558c-.10466-.05706-.19023-.21873-.17119-.33286l.40896-2.05437 2.69153 1.63589c.08562.05706.16172.16167.18071.26627z" fill="#84dbff"/><path d="m28.45424 32.40638c-.01904-.00952-.03808 0-.06658-.01904l-4.50813-2.60596c-.12365-.06658-.22831-.22825-.25681-.38046l.01904-2.11138c-.00952-.05706 0-.1046.00946-.14269.01904.00952.03808.00952.05706.01904l2.02581 1.16982c.06658.02856.11413.08562.16173.15221l2.46328 3.538c.10461.14269.12365.28532.09514.38046z" fill="#84dbff"/><path d="m37.96935 39.28461c.27787-.16043.50286-.02662.50379.29828.00087.30809-.22263.70084-.5005.86127-.28273.16323-.50285.02661-.50372-.28148-.00093-.3249.21769-.71484.50043-.87807z" fill="#f1c40f"/><path d="m38.87067 38.57346c.09412.47869.10534.9884.00437 1.54046l-1.81348 1.04701c-.08435-.4675-.08579-.97725-.00436-1.54046zm-.89805 1.87069c.27787-.16043.50137-.55317.5005-.86127-.00092-.32489-.22591-.45871-.50378-.29827-.28272.16323-.50134.55316-.50042.87806.00086.30809.22098.44471.5037.28148" fill="#e74c3c"/><path d="m47.70459 33.66596c.27787-.16043.50286-.02662.50378.29828.00087.30809-.22263.70084-.5005.86127-.28275.16325-.50286.02662-.50374-.28147-.00091-.3249.21771-.71484.50046-.87808z" fill="#f1c40f"/><path d="m48.60588 32.95282c.09415.47868.10536.9884.00437 1.54046l-1.81346 1.047c-.08434-.46751-.08578-.97726-.00437-1.54046zm-.89801 1.87069c.27787-.16043.50137-.55318.5005-.86127-.00092-.3249-.22591-.45871-.50378-.29828-.28275.16324-.50137.55318-.50045.87807.00086.3081.22098.44472.50373.28148" fill="#e74c3c"/><path d="m46.60089 34.11532-.26627 1.39806c-.03808.21879-.19023.428-.36142.52314l-6.26767 3.62363c-.17119.10461-.32334.05706-.36142-.11419l-.26627-1.09371z" fill="#ecf0f1"/><path d="m45.63609 35.37335.00046.16244-5.59154 3.22828-.00046-.16244z" fill="#bac1ce"/><path d="m45.91278 34.79839.00045.15685-6.14728 3.54914-.00045-.15686z" fill="#bac1ce"/><path d="m45.38378 35.93422.00046.16246-5.08457 2.93557-.00046-.16246z" fill="#bac1ce"/><path d="m15.35631 30.30636c0 .33286-.03808.62769-.11413.8845l-.89402-.51362-3.89948-2.25406-.13311-.08557-.05712-.02856-1.12227-.64673v-.18071c0-1.65488 1.01767-2.39675 2.01629-2.39675.45656 0 .94162.14268 1.42663.428 1.55979.89402 2.77721 3.00546 2.77721 4.7935z" fill="#3f434f"/><path d="m12.25014 26.08543c1.35126.78015 2.44069 2.66713 2.43629 4.21982-.0044 1.55271-1.10096 2.1776-2.45222 1.39745s-2.44069-2.66713-2.43629-4.21983c.00441-1.5527 1.10096-2.17759 2.45222-1.39744z" fill="#5b5e71"/><path d="m12.24793 26.86897c-.97433-.56255-1.76496-.112-1.76817 1.00756-.00313 1.11956.78239 2.48017 1.75665 3.04264.97433.56255 1.76496.11193 1.76817-1.00756.00314-1.11956-.78239-2.48017-1.75665-3.04264zm-.72111 2.53795c-.04132.00379-.08591-.00882-.12985-.0341-.08766-.05064-.17219-.15215-.21999-.27457-.06828-.17765-.02652-.33527.09728-.34285.04008-.00452.08438.00787.1281.03316.08744.0505.17277.15244.21824.27348.07171.17969.03003.3373-.09378.34488zm.09612-1.16918c-.04656.06901-.13357.07156-.22203.0204-.04277-.02463-.08591-.06186-.12497-.11018-.12329-.15412-.16403-.35538-.09495-.45776.04831-.06697.13313-.07061.22087-.01996.04387.02528.08846.0642.12956.11557.12336.15025.16402.35545.09152.45193zm.61611 2.18089c-.14071-.08125-.25701-.28273-.25657-.44443s.11754-.22451.25825-.14326c.14078.08125.25366.27683.25322.43853-.00052.1617-.11412.23041-.2549.14916zm.00633-2.23241c-.14071-.08125-.25708-.2788-.25657-.44049.00044-.1617.11754-.22844.25825-.1472.14071.08125.25366.28077.25315.44246-.00044.1617-.11404.22648-.25483.14523zm1.05631 2.13878c-.04598.0682-.1316.07148-.22006.0204-.04423-.02558-.08919-.06463-.13029-.11608-.11994-.14821-.1606-.35341-.0916-.45186.04831-.06689.13313-.07061.22087-.01997.04387.02536.08846.0642.12956.11564.11994.14822.16403.35546.09152.45187zm-.08977-1.0593c-.04037.00248-.08395-.01035-.12679-.03512-.08883-.0513-.17474-.15368-.22305-.27741-.06821-.17773-.02652-.33534.09385-.34489.04124-.00386.08628.00896.13051.03454.08846.05108.17379.15302.21926.27406.0717.18363.0266.33534-.09378.34882z" fill="#ecf0f1"/><path d="m12.52293 29.13184c0 .1828-.12508.25015-.27899.16354-.15397-.08656-.27904-.30788-.27904-.48105 0-.1828.12508-.25015.27904-.16354.16354.08662.28862.30788.27899.48105z" fill="#acb2bc"/><path d="m19.46262 28.35544c.07952.04591.14087.15514.14061.24651-.00025.08842-.06202.12657-.14154.08065l-.77465-.44724c-.07695-.04443-.14087-.15514-.14062-.24356.00026-.09137.0646-.12803.14155-.0836z" fill="#363a44"/><path d="m24.58443 31.38474c.07951.04591.14343.15662.14318.24799-.00026.09137-.06459.12508-.1441.07918l-.79774-.46057c-.07695-.04443-.14088-.15219-.14062-.24356s.0646-.12803.14155-.0836z" fill="#363a44"/><path d="m2.88984 17.43793 4.70909 2.71783 10.27319 5.713-.09859.44114-15.76786-8.86694" fill="#525566"/><g><path d="m3.20104 21.41329c.2885.16657.51507.559.51413.89052-.00092.32649-.22897.45646-.51747.28989l-1.16929-.65853-.00529-1.18748z" fill="#e74c3c"/></g></g></svg>