<svg id="Layer_1" enable-background="new 0 0 52 52" height="512" viewBox="0 0 52 52" width="512" xmlns="http://www.w3.org/2000/svg"><g><g><g><g><g><g><g><g><path d="m32.732 46.30156.34533-.20134.26479-.15252.5064-.29652.266-.15375.5064-.29408.26601-.15496.50762-.29408.26601-.15375.50517-.29408.26601-.15497.50762-.29529.26479-.15375.50639-.2953.26601-.15375.50763-.29529.26478-.15375.5064-.29529.26601-.15498.50761-.29407.26479-.15253.50762-.2953.26601-.15497.5064-.29529.26479-.15254.50761-.29651.26601-.15375.50518-.29407.26601-.15497.24893-.14399.00122-.42342.01708-5.75949v-.26968l.00122-.22695h-.00122v.00122l-.28553.16472-.26601.15497-.50762.2953-.26357.15253-.50762.29529-.266.15497-.50762.29408-.2648.15375-.50639.29408-.26601.15496-.5064.29408-.266.15497-.5064.2953-.26479.15252-.50761.2953-.26601.15497-.50763.29529-.26356.15376-.50762.29529-.26601.15375-.50761.29408-.2648.15497-.50639.29407-.26601.15497-.50762.2953-.26479.15253-.5064.29529-.26601.15497-.30628.17815-.00121.45271-.01709 5.76071z" fill="#328eb7"/><path d="m43.65131 33.28703-10.89922 6.3354-5.81451-3.35808 10.89922-6.33276z" fill="#3498db"/><g><path d="m32.75086 39.62114-.01894 6.67967-5.81308-3.35618.01894-6.67967z" fill="#3293c9"/></g><g fill="#3087a5"><path d="m37.96 36.952-.059.035"/><path d="m38.732 36.504-.059.034"/><path d="m39.505 36.054-.059.034"/><path d="m40.277 35.605-.059.034"/><path d="m41.048 35.157-.059.034"/><path d="m41.822 34.708-.059.034"/><path d="m42.593 34.26-.059.034"/><path d="m37.901 36.987-.207.12"/><path d="m38.67252 36.53781-.05068.02927-.15466.08971"/><path d="m39.446 36.088-.207.12"/><path d="m40.218 35.639-.207.121"/><path d="m40.98933 35.19107-.05225.03048-.15311.0897"/><path d="m41.763 34.742-.207.121"/><path d="m42.53438 34.2937-.05071.02928-.15466.08971"/></g><g><path d="m43.26359 39.75508-.14754.08588.00018.06676.20688-.12043z" fill="#3498db"/><path d="m43.32346 39.78708.01701-5.96209-.05948.03453-.01682 5.89522-.00058.00034.05952.03221z" fill="#3293c9"/><path d="m43.28099 33.85952-.18024.10465.0153 5.87679.14812-.08622z" fill="#3087a5"/></g><g><path d="m42.52037 40.18967-.14753.08588.00016.06676.2069-.12043z" fill="#3498db"/><path d="m42.58024 40.22167.01701-5.9621-.05948.03455-.01682 5.89521-.00058.00034.05953.03221z" fill="#3293c9"/><path d="m42.53777 34.29412-.18024.10464.01531 5.87679.14811-.08622z" fill="#3087a5"/></g><g><path d="m41.77715 40.62426-.14753.08588.00017.06676.20688-.12043z" fill="#3498db"/><path d="m41.83702 40.65626.01701-5.96209-.05947.03454-.01683 5.89521-.00058.00034.05952.03221z" fill="#3293c9"/><path d="m41.79456 34.72871-.18024.10464.0153 5.87679.14811-.08622z" fill="#3087a5"/></g><g><path d="m41.03393 41.05885-.14753.08588.00017.06676.20689-.12043z" fill="#3498db"/><path d="m41.0938 41.09085.01701-5.96209-.05948.03454-.01681 5.89521-.00059.00034.05953.03221z" fill="#3293c9"/><path d="m41.05133 35.1633-.18024.10464.01531 5.87679.14812-.08622z" fill="#3087a5"/></g><g><path d="m40.29071 41.49344-.14753.08589.00017.06675.20688-.12043z" fill="#3498db"/><path d="m40.35059 41.52544.01701-5.96209-.05948.03454-.01683 5.89521-.00058.00034.05952.03221z" fill="#3293c9"/><path d="m40.30812 35.59789-.18024.10465.0153 5.87679.14811-.08623z" fill="#3087a5"/></g><g><path d="m39.54749 41.92804-.14753.08588.00017.06675.20689-.12043z" fill="#3498db"/><path d="m39.60736 41.96003.01701-5.96209-.05947.03454-.01682 5.89522-.00059.00034.05953.0322z" fill="#3293c9"/><path d="m39.5649 36.03248-.18025.10465.01531 5.87679.14812-.08622z" fill="#3087a5"/></g><g><path d="m38.80427 42.36263-.14753.08588.00017.06675.20689-.12043z" fill="#3498db"/><path d="m38.86415 42.39463.01701-5.9621-.05948.03454-.01682 5.89522-.00059.00034.05953.0322z" fill="#3293c9"/><path d="m38.82168 36.46707-.18024.10465.0153 5.87679.14812-.08622z" fill="#3087a5"/></g><g><path d="m38.06105 42.79722-.14753.08588.00017.06676.20689-.12043z" fill="#3498db"/><path d="m38.12093 42.82922.01701-5.9621-.05948.03454-.01682 5.89522-.00059.00034.05953.03221z" fill="#3293c9"/><path d="m38.07846 36.90166-.18024.10465.0153 5.87679.14812-.08622z" fill="#3087a5"/></g><g><path d="m37.31783 43.23181-.14753.08588.00017.06676.20689-.12043z" fill="#3498db"/><path d="m37.37771 43.26381.01701-5.9621-.05948.03454-.01682 5.89522-.00059.00034.05953.03221z" fill="#3293c9"/><path d="m37.33524 37.33625-.18024.10465.0153 5.87679.14812-.08622z" fill="#3087a5"/></g><g><path d="m36.57461 43.6664-.14753.08588.00017.06676.20689-.12044z" fill="#3498db"/><path d="m36.63449 43.6984.01701-5.9621-.05948.03454-.01682 5.89522-.00059.00034.05953.0322z" fill="#3293c9"/><path d="m36.59202 37.77084-.18024.10465.0153 5.87679.14812-.08622z" fill="#3087a5"/></g><g><path d="m35.83139 44.10099-.14753.08588.00017.06676.20689-.12043z" fill="#3498db"/><path d="m35.89127 44.13299.01701-5.9621-.05948.03454-.01682 5.89522-.00059.00034.05953.03221z" fill="#3293c9"/><path d="m35.8488 38.20543-.18024.10465.0153 5.87679.14812-.08622z" fill="#3087a5"/></g><g><path d="m35.08817 44.53558-.14753.08588.00017.06676.20689-.12043z" fill="#3498db"/><path d="m35.14805 44.56758.01701-5.9621-.05948.03455-.01682 5.89521-.00059.00034.05953.03221z" fill="#3293c9"/><path d="m35.10558 38.64003-.18024.10464.0153 5.87679.14812-.08622z" fill="#3087a5"/></g><g><path d="m34.34496 44.97017-.14754.08588.00017.06676.20689-.12043z" fill="#3498db"/><path d="m34.40483 45.00217.01701-5.96209-.05948.03454-.01682 5.89521-.00058.00034.05952.03221z" fill="#3293c9"/><path d="m34.36236 39.07462-.18024.10464.0153 5.87679.14812-.08622z" fill="#3087a5"/></g><g><path d="m33.60173 45.40476-.14753.08588.00017.06676.20689-.12043z" fill="#3498db"/><path d="m33.66161 45.43676.01701-5.96209-.05948.03453-.01682 5.89522-.00059.00034.05953.03221z" fill="#3293c9"/><path d="m33.61914 39.5092-.18024.10465.0153 5.87679.14812-.08622z" fill="#3087a5"/></g><path d="m29.42925 38.93195-1.90915-1.09671-.18397.0743 2.09274 1.20217z" fill="#3498db"/><path d="m27.5201 37.83524.00143-.69326-.18358-.10547-.00182.87303z" fill="#328eb7"/><path d="m27.52153 37.14198-.00143.69326 1.90915 1.09671.00144-.69325z" fill="#3087a5"/><g><path d="m29.42925 40.51825-1.90915-1.09672-.18397.0743 2.09274 1.20218z" fill="#3498db"/><path d="m27.5201 39.42153.00143-.69326-.18358-.10546-.00182.87302z" fill="#328eb7"/><path d="m27.52153 38.72827-.00143.69326 1.90915 1.09672.00144-.69326z" fill="#3087a5"/></g><g><path d="m29.42925 42.10454-1.90915-1.09672-.18397.0743 2.09274 1.20217z" fill="#3498db"/><path d="m27.5201 41.00782.00143-.69326-.18358-.10546-.00182.87302z" fill="#328eb7"/><path d="m27.52153 40.31456-.00143.69326 1.90915 1.09672.00144-.69326z" fill="#3087a5"/></g><g><path d="m29.42925 43.69083-1.90915-1.09672-.18397.0743 2.09274 1.20218z" fill="#3498db"/><path d="m27.5201 42.59411.00143-.69326-.18358-.10546-.00182.87302z" fill="#328eb7"/><path d="m27.52153 41.90085-.00143.69326 1.90915 1.09672.00144-.69326z" fill="#3087a5"/></g><g><path d="m32.20302 40.49232-1.90916-1.09671-.18397.0743 2.09275 1.20217z" fill="#3498db"/><path d="m30.29386 39.39561.00144-.69327-.18358-.10546-.00183.87303z" fill="#328eb7"/><path d="m30.2953 38.70234-.00144.69327 1.90916 1.09671.00144-.69326z" fill="#3087a5"/></g><g><path d="m32.20302 42.07861-1.90916-1.09671-.18397.07429 2.09275 1.20218z" fill="#3498db"/><path d="m30.29386 40.9819.00144-.69327-.18358-.10546-.00183.87302z" fill="#328eb7"/><path d="m30.2953 40.28863-.00144.69327 1.90916 1.09671.00144-.69325z" fill="#3087a5"/></g><g><path d="m32.20302 43.6649-1.90916-1.09671-.18397.0743 2.09275 1.20217z" fill="#3498db"/><path d="m30.29386 42.56819.00144-.69327-.18358-.10546-.00183.87303z" fill="#328eb7"/><path d="m30.2953 41.87492-.00144.69327 1.90916 1.09671.00144-.69325z" fill="#3087a5"/></g><g><path d="m32.20302 45.25119-1.90916-1.09671-.18397.0743 2.09275 1.20217z" fill="#3498db"/><path d="m30.29386 44.15448.00144-.69327-.18358-.10546-.00183.87303z" fill="#328eb7"/><path d="m30.2953 43.46121-.00144.69327 1.90916 1.09671.00144-.69325z" fill="#3087a5"/></g><g><g><path d="m30.77215 43.25463-.00083.29305-.47344-.27335.00083-.29304z" fill="#d4d6d6"/></g><g><g><path d="m30.77215 40.06498-.00083.29305-.47344-.27334.00083-.29305z" fill="#d4d6d6"/></g><g><path d="m31.98719 40.70418-.00084.29305-.47344-.27335.00083-.29304z" fill="#d4d6d6"/></g><g><path d="m31.98719 43.89383-.00084.29304-.47344-.27334.00083-.29305z" fill="#d4d6d6"/></g><g><g><g><path d="m31.89618 39.66734-.02258 5.3496c-.00006.02125-.01396.04243-.04192.05869-.05761.03348-.14956.03297-.20667 0-.02918-.01684-.04375-.03857-.04369-.06026l.02258-5.34959c-.00006.02169.01451.04342.04369.06026.05711.03297.14906.03348.20667 0 .02797-.01627.04187-.03745.04192-.0587z" fill="#ecf0f1"/></g><g><path d="m31.85271 39.60683c.05711.03297.05828.08623.00155.1192-.05761.03348-.14956.03297-.20667 0-.05798-.03348-.05828-.08623-.00067-.11971.05674-.03297.14781-.03297.20579.00051z" fill="#d4d6d6"/></g></g><g><g><path d="m30.68115 39.00318-.02258 5.3496c-.00006.02125-.01395.04243-.04192.05869-.05761.03348-.14956.03297-.20667 0-.02917-.01684-.04375-.03857-.04368-.06026l.02258-5.34959c-.00006.02169.01451.04342.04369.06026.05711.03297.14906.03348.20667 0 .02796-.01627.04185-.03745.04191-.0587z" fill="#ecf0f1"/></g><g><path d="m30.63768 38.94267c.05711.03297.05828.08623.00155.1192-.05761.03348-.14956.03297-.20667 0-.05799-.03348-.05828-.08623-.00067-.11971.05674-.03297.14781-.03297.20579.00051z" fill="#d4d6d6"/></g></g></g></g></g><g><g><path d="m28.01231 41.73793-.00083.29305-.47345-.27335.00084-.29304z" fill="#d4d6d6"/></g><g><g><path d="m28.01231 38.54829-.00083.29304-.47345-.27334.00084-.29305z" fill="#d4d6d6"/></g><g><path d="m29.22734 39.18748-.00083.29305-.47344-.27334.00083-.29305z" fill="#d4d6d6"/></g><g><path d="m29.22734 42.37713-.00083.29304-.47344-.27334.00083-.29305z" fill="#d4d6d6"/></g><g><g><g><path d="m29.13634 38.15064-.02258 5.3496c-.00006.02125-.01396.04243-.04192.05869-.05761.03348-.14956.03297-.20667 0-.02917-.01684-.04375-.03857-.04368-.06026l.02258-5.34959c-.00006.02169.01451.04342.04369.06026.05711.03297.14906.03348.20667 0 .02796-.01626.04185-.03745.04191-.0587z" fill="#ecf0f1"/></g><g><path d="m29.09287 38.09013c.05711.03297.05828.08623.00155.1192-.05761.03348-.14956.03297-.20667 0-.05799-.03348-.05828-.08623-.00067-.11971.05673-.03297.14781-.03297.20579.00051z" fill="#d4d6d6"/></g></g><g><g><path d="m27.92131 37.48648-.02258 5.34959c-.00006.02125-.01396.04243-.04192.05869-.05761.03348-.14956.03297-.20667 0-.02918-.01685-.04375-.03857-.04369-.06026l.02258-5.34959c-.00006.02169.01451.04342.04369.06026.05711.03297.14906.03348.20667 0 .02796-.01625.04186-.03744.04192-.05869z" fill="#ecf0f1"/></g><g><path d="m27.87784 37.42597c.05711.03297.05828.08623.00155.1192-.05761.03348-.14956.03297-.20667 0-.05798-.03348-.05828-.08623-.00067-.11971.05673-.03297.1478-.03297.20579.00051z" fill="#d4d6d6"/></g></g></g></g></g></g></g></g></g><g><g enable-background="new"><g><path d="m32.75031 40.07472 10.90032-6.29151.00122-.00122-.00122-.26846v-.22573l-.28553.16472-.26601.15497-.50762.2953-.26357.15253-.50762.29529-.266.15497-.50762.29408-.2648.15375-.50639.29408-.26601.15496-.5064.29408-.266.15497-.5064.2953-.26479.15252-.50761.2953-.26601.15497-.50763.29529-.26356.15376-.50762.29529-.26601.15375-.50761.29408-.2648.15497-.50639.29407-.26601.15497-.50762.2953-.26479.15253-.5064.29529-.26601.15497-.30628.17815z" fill="#3293c9"/></g></g></g><g><g enable-background="new"><g><path d="m32.732 46.30156.34533-.20134.26479-.15252.5064-.29652.266-.15375.5064-.29408.26601-.15496.50762-.29408.26601-.15375.50517-.29408.26601-.15497.50762-.29529.26479-.15375.50639-.2953.26601-.15375.50763-.29529.26478-.15375.5064-.29529.26601-.15498.50761-.29407.26479-.15253.50762-.2953.26601-.15497.5064-.29529.26479-.15254.50761-.29651.26601-.15375.50518-.29407.26601-.15497.24893-.14399.00122-.42342-10.90033 6.29273z" fill="#3293c9"/></g></g></g><g><g enable-background="new"><g><path d="m43.09158 34.17255.55868-.32467.00159-.56251-.55868.32467z" fill="#3293c9"/></g><g><path d="m43.09317 33.61004.55868-.32467-.632-.36488-.55868.32467z" fill="#328eb7"/></g><g><path d="m42.46117 33.24516-.00012.04344.59453.34326-.00148.51905.03748.02164.00159-.56251z" fill="#3087a5"/></g></g></g><g><g enable-background="new"><g><path d="m32.78598 40.16873.55868-.32467.0016-.5625-.55868.32467z" fill="#3293c9"/></g><g><path d="m32.78758 39.60623.55868-.32467-.632-.36488-.55868.32466z" fill="#328eb7"/></g><g><path d="m32.15558 39.24134-.00012.04345.59452.34325-.00147.51905.03747.02164.0016-.5625z" fill="#3087a5"/></g></g></g><g><g enable-background="new"><g><path d="m37.41803 30.15369.00018.02193.61342.35281-.00018-.02193z" fill="#3087a5"/></g><g><path d="m38.03145 30.5065.00018.02193.41915-.24199-.00018-.02193z" fill="#3293c9"/></g><g><path d="m37.41803 30.15369.61342.35281.41915-.24199-.61342-.35281z" fill="#328eb7"/></g></g></g><g><path d="m43.19914 33.82836c0 .10981.0781.15375.17328.09884.09517-.05491.17205-.18914.17205-.29774 0-.10983-.0781-.15375-.17327-.09884-.09518.05491-.17206.18791-.17206.29774z" fill="#3f434f"/></g><g><path d="m32.89346 39.8246c0 .10981.0781.15375.17328.09883.09518-.05491.17205-.18913.17205-.29773 0-.10983-.0781-.15375-.17327-.09884-.09519.05491-.17206.18791-.17206.29774z" fill="#3f434f"/></g><g><path d="m42.83636 40.47918-.04301-.02499-.00149-.52728.043.02498z" fill="#3087a5"/></g><g><path d="m42.83486 39.95189-.043-.02498.84374-.48714.043.02499z" fill="#3498db"/></g><g><path d="m43.6786 39.46476.0015.52729-.84374.48713-.0015-.52729z" fill="#328eb7"/></g><g><path d="m43.08482 40.07142c0 .10981.07809.15375.17328.09883.09517-.05491.17205-.18913.17205-.29773 0-.10983-.07809-.15375-.17327-.09884-.09519.05491-.17206.18792-.17206.29774z" fill="#3f434f"/></g><g><g><g enable-background="new"><g><path d="m32.758 46.31926-.04301-.02499-.00149-.52729.043.02499z" fill="#3087a5"/></g><g><path d="m32.7565 45.79197-.043-.02499.84374-.48713.043.02499z" fill="#3498db"/></g><g><path d="m33.60024 45.30484.00149.52728-.84373.48714-.0015-.52729z" fill="#328eb7"/></g></g></g><g><path d="m33.00645 45.9115c0 .10981.07809.15375.17328.09884.09517-.05491.17205-.18914.17205-.29774 0-.10983-.07809-.15375-.17327-.09884s-.17206.18791-.17206.29774z" fill="#3f434f"/></g></g><g><g><g enable-background="new"><g><path d="m32.71201 46.34415.04299-.02498.0015-.52729-.043.02499z" fill="#328eb7"/></g><g><path d="m32.7135 45.81687.043-.02499-.84374-.48713-.043.02498z" fill="#3498db"/></g><g><path d="m31.86976 45.32973-.0015.52729.84375.48713.00149-.52728z" fill="#3087a5"/></g></g></g><g><path d="m32.46355 45.9364c0 .10981-.0781.15375-.17328.09883-.09518-.05491-.17205-.18913-.17205-.29773 0-.10983.0781-.15375.17327-.09884.09518.05491.17206.18791.17206.29774z" fill="#3f434f"/></g></g><g><g><g enable-background="new"><g><path d="m27.68319 43.46121.04092-.02377.00142-.50176-.04092.02377z" fill="#328eb7"/></g><g><path d="m27.68461 42.95945.04092-.02377-.80289-.46355-.04092.02377z" fill="#3498db"/></g><g><path d="m26.88172 42.4959-.00142.50176.80289.46355.00142-.50176z" fill="#3087a5"/></g></g></g><g><path d="m27.44676 43.07319c0 .1045-.07432.14631-.16489.09406s-.16372-.17998-.16372-.28332c0-.10451.07432-.14631.16488-.09406.09058.05225.16373.17882.16373.28332z" fill="#3f434f"/></g></g><g><g><g enable-background="new"><g><path d="m32.75435 40.17806.03211-.01866.00112-.55231-.03211.01867z" fill="#3293c9"/></g><g><path d="m32.75547 39.62576.03211-.01867-.63008-.36377-.03211.01866z" fill="#328eb7"/></g><g><path d="m32.12539 39.26198-.00112.55231.63008.36377.00112-.5523z" fill="#3087a5"/></g><g><path d="m32.61253 39.81947c0 .10982-.0781.15375-.17328.09884s-.17205-.18913-.17205-.29774c0-.10983.0781-.15375.17327-.09884.09519.05491.17206.18791.17206.29774z" fill="#3f434f"/></g></g></g></g><g><g><g enable-background="new"><g><path d="m27.53718 37.18902.03211-.01866.00112-.5523-.03211.01866z" fill="#328eb7"/></g><g><path d="m27.5383 36.63672.03211-.01866-.63008-.36378-.03212.01866z" fill="#3498db"/></g><g><path d="m26.90821 36.27294-.00111.5523.63008.36378.00112-.5523z" fill="#3087a5"/></g><g><path d="m27.39536 36.83043c0 .10981-.0781.15375-.17328.09883-.09517-.05491-.17205-.18913-.17205-.29773 0-.10983.0781-.15375.17327-.09884.09519.05491.17206.18792.17206.29774z" fill="#3f434f"/></g></g></g></g><g><g enable-background="new"><g><path d="m26.9247 36.26197.00018.02194.61342.35281-.00018-.02193z" fill="#3087a5"/></g><g><path d="m27.53812 36.61479.00018.02193.43288-.25027-.00018-.02193z" fill="#3293c9"/></g><g><path d="m26.9247 36.26197.61342.35282.43288-.25027-.61341-.35281z" fill="#328eb7"/></g></g></g></g><g><g><path d="m40.30219 41.62182.00043.15309-.53834.31081-.00043-.15309z" fill="#3f434f"/></g><g><path d="m40.30219 41.62182.00043.15309-.53834.31081-.00043-.15309z" fill="#3f434f"/></g><g><path d="m41.17008 41.12075.00043.15308-.53834.31081-.00043-.15308z" fill="#3f434f"/></g><g><path d="m42.03797 40.61967.00043.15308-.53834.31081-.00043-.15308z" fill="#3f434f"/></g></g><g><g><path d="m34.81835 44.78791.00044.15309-.53834.31081-.00044-.15308z" fill="#3f434f"/></g><g><path d="m34.81835 44.78791.00044.15309-.53834.31081-.00044-.15308z" fill="#3f434f"/></g><g><path d="m35.68624 44.28684.00044.15308-.53834.31081-.00044-.15308z" fill="#3f434f"/></g><g><path d="m36.55413 43.78576.00044.15308-.53834.31081-.00044-.15308z" fill="#3f434f"/></g></g></g><g><g><g><path d="m34.48661 29.14727.10739-.06264c.01342-.00672.02462-.01342.03357-.02238l-.10739.06265c-.00896.00895-.02014.01567-.03357.02237z" fill="#748bfd"/></g><g><path d="" fill="#525566"/><g><g><path d="m34.00232 29.20237.1178-.06846c.08613-.05005.18689-.05714.23746-.08654l-.1178.06846c-.05057.0294-.15133.03649-.23746.08654z" fill="#474b59"/></g><g><path d="m34.52637 29.39008-.1178.06846c.01269-.00738.02493-.0157.03614-.02521l.1178-.06846c-.01121.00952-.02346.01784-.03614.02521z" fill="#75ca75"/></g><g><path d="m34.35645 28.89477.1178-.06846.23797.13739-.1178.06846z" fill="#75ca75"/></g><g fill="#474b59"><path d="m34.56295 29.3642-.11867.06853c.05181-.03844.09527-.09694.12202-.16881.02173-.06852.03176-.15043.02841-.23233l.117-.06852c.00334.0819-.00502.1638-.02842.23233-.02674.07187-.0702.13036-.12034.1688z"/><path d="m34.89723 30.33195-.117.06852c-.02173.0117-.04679.01838-.07521.01505-.04011 0-.08524-.01003-.13204-.03176-.01337-.00502-.02507-.0117-.03677-.02006-.08357-.0468-.16714-.12202-.23399-.21395-.07856-.10028-.14709-.24402-.1755-.34932-.0234-.10029-.01003-.16714.05014-.22397.01504-.01337.03176-.02506.05014-.03677l.11868-.06853c-.01839.0117-.03678.0234-.05014.03678-.06185.05682-.07354.12368-.05015.22396.02675.1053.09695.24904.17383.34933.06685.09193.15042.16714.23399.21393.01337.00837.02508.01505.03678.02006.04679.02173.09193.03176.13204.03176.03007.00335.05347-.00333.0752-.01503z"/></g><g><path d="m34.7871 28.93092.1178-.06846-.0006.21214-.1178.06846z" fill="#525566"/></g><g><path d="m34.7871 28.93092-.0006.21214-.19208-.1109-.23797-.13739-.2241-.12939.0006-.21213z" fill="#5b5e71"/></g><g><path d="m34.13295 28.55325.1178-.06846.65415.37767-.1178.06846z" fill="#75ca75"/></g><g><path d="m34.59442 29.03216c.00298.08155-.00581.16246-.02845.23168-.02692.07166-.06984.1304-.12126.16949-.04822.04094-.11561.05976-.1552.0762-.04388.01888-.08241.03962-.11242.06651-.06109.05684-.07304.12364-.0498.22426.02749.10553.09656.24981.17431.34874.06681.09317.15073.16729.23408.21541.01228.00709.02455.01362.03675.01956.04697.0222.09184.03091.13245.03226.04061.00257.07164-.009.0995-.03467.05465-.04828.07526-.15307.05742-.27145-.01468-.10305-.0069-.20541.05525-.26165.04215-.03526.10027-.02855.15392.00241.02816.01626.0551.03921.07783.06629-.05673.02988-.08357.07089-.07942.11504-.00011.03924.00935.09383.02096.14721.04219.19999.02135.38816-.07302.4958-.04397.05199-.11034.08614-.18304.09207s-.15068-.01207-.22968-.0454c-.03051-.01311-.06134-.02865-.09219-.04646-.12891-.07442-.2583-.18862-.36742-.33189-.06923-.08787-.12774-.18552-.1777-.28437-.04996-.09762-.09028-.20074-.11883-.31057-.02961-.11045-.03569-.2294-.01406-.31763.0227-.08883.06776-.15002.11705-.19157.09645-.08802.23647-.08824.2943-.12731.06425-.04151.10078-.11131.11071-.21734z" fill="#525566"/></g><g enable-background="new"><g><path d="m35.64576 28.80642.43505-.26284-.39446.39251-.43505.26284z" fill="#d6b218"/></g><g><path d="m35.64827 27.92109.43505-.26284-.00251.88533-.43505.26284z" fill="#c6a51a"/></g><g><path d="m35.25519 27.07512.43505-.26285.39308.84598-.43505.26284z" fill="#efac41"/></g><g><path d="m33.67476 26.16266.43505-.26285 1.58043.91246-.43505.26285z" fill="#fed57a"/></g><g><path d="m35.25519 27.07512.39308.84597-.00251.88533-.39446.39251-.4642-.26801-.65415-.37767-.46207-.26678-.39308-.8472.00251-.88533.39445-.39128z" fill="#e5bd13"/><path d="m35.4509 28.72503.00222-.76096-.34874-.7508-1.39815-.80728-.23102.22943-.00222.76095.34906.75207 1.39752.80697z" fill="#f1c40f"/></g></g><g><path d="m34.93129 29.8385.11779-.06846c.04046-.02351.09185-.01519.13968.01242.02817.01626.0551.03921.07784.06629l-.1178.06846c-.02274-.02708-.04967-.05003-.07783-.06629-.04784-.02761-.09923-.03593-.13968-.01242z" fill="#474b59"/></g><g><path d="m35.20811 30.11132c.04179.1989.02173.38777-.07354.49474-.01838.02339-.04011.04178-.06685.05682l-.117.06853c.02507-.01505.04847-.03343.06685-.05683.0936-.10697.11533-.29584.07354-.49474-.0117-.05349-.02173-.10863-.02173-.14709-.00334-.04178.02007-.0819.07021-.11031l.11866-.06852c-.05182.02841-.07521.06852-.07187.11031 0 .03845.01003.09361.02173.14709z" fill="#474b59"/></g></g><g><g><path d="m34.62997 30.27912-.05886.05154-.00737.04417c-.00737 0-.01474 0-.02948-.00737v-.00737c-.0368-.02206-.08097-.05154-.11777-.08834-.00737 0-.01474-.00737-.02211-.01474v-.00737l.00737-.00732.02211-.15462c.01469.02943.0368.05154.06623.0736.02211.03685.05891.06628.09571.08102.01474.02206.02948.02943.04417.0368z" fill="#474b59"/></g><g><path d="m34.56374 30.37483-.05154.30183c-.05891-.02943-.11045-.0736-.16932-.12514 0 0 0 0-.00737-.00737-.04417-.0368-.08834-.08097-.12519-.12514l.17673-.16936h.00733v.00737c.00737.00737.01474.01474.02211.01474.0368.0368.0736.06628.11045.09571h.00732c.01474.00736.02211.00736.02948.00736z" fill="#525566"/></g><g enable-background="new"><g><path d="m36.08104 27.6552-.43507.26799-.39018-.84668.43502-.26062z" fill="#d6b218"/></g><g><path d="m35.69081 26.81589-.43502.26062-1.5829-.91291.43507-.26062z" fill="#f1c40f"/></g></g></g><g fill="#d4dae8"><path d="m34.86557 30.22021-.15458-.02206-.02948.02943-.05154.05154-.05886.05154-.03685.02943v.00737h-.00732l-.17673.16195-.01469.01474-6.23586 5.72785c-.01469.01469-.0368.02206-.05891.02206-.02206 0-.05149-.00737-.06623-.02943-.0368-.0368-.0368-.09571.00737-.12519l6.22844-5.72044.17673-.16936h.00733l.00737-.00732.08834-.08102.13251-.12514c.00737-.01474.02948-.01474.04417-.01474.00737-.00733.02211-.00733.03685-.00733l.14721.02206c0 .02211.00737.04417.00737.06628v.00732c.00736.03685.00736.08102.00736.11046z"/><path d="m37.9283 30.6546c-.00737.05154-.05154.08834-.10308.0736l-2.44427-.41965-.15462-.02206v-.03685c0-.04417 0-.09567-.01469-.13988v-.00732l2.64302.44172c.05153.01472.08833.0589.07364.11044z"/></g><g><path d="m34.86557 30.22021c0 .02943-.00737.05154-.01474.0736l-.16932-.06624-.08834-.0368-.00737.05154-.01469.08834-.00737.04417-.05154.30183-1.45771 8.44453c-.00737.04417-.04422.08097-.08839.08097-.00732 0-.01469 0-.01469-.00737-.05154-.00737-.08834-.05154-.07365-.10308l1.46513-8.5402.00732-.02211.04417-.2724v-.00737l.00737-.00732.02211-.15462.00737-.0368c.00732-.02948.02206-.05154.04417-.06628.02943-.01469.05886-.01469.08097-.00737l.11041.04417.19143.08102v.00732c.00736.03686.00736.08103.00736.11047z" fill="#d4dae8"/><path d="m42.83154 33.43751c-.02206.05154-.0736.07365-.11778.05154l-7.50951-3.04799c.01469-.04417.02206-.09571.02206-.15458v-.03685l.15462.05891 7.39906 3.01118c.05155.02207.07366.07361.05155.11779z" fill="#e0e2e2"/></g><g><path d="m34.46053 27.39417c-.13604-.07854-.24976-.02025-.25021.13606-.00046.16283.11255.35856.24858.4371.14169.0818.24976.01372.25023-.14911.00044-.15632-.10692-.34225-.2486-.42405z" fill="#525566"/></g></g></g></g></g><g><g><g enable-background="new"><g><path d="m14.37425 41.19912 3.87402-1.96495.00093-.32596-3.87403 1.96495z" fill="#e63044"/></g><g><path d="m14.37517 40.87316 3.87403-1.96495-.28366-.16377-3.87402 1.96495z" fill="#e74c3c"/></g><g><path d="m14.09152 40.70939-.00092.32596.28365.16377.00092-.32596z" fill="#e74c3c"/></g></g></g><g><g enable-background="new"><g><path d="m14.37425 37.37429 3.87402-1.96495.00093-.32596-3.87403 1.96495z" fill="#e63044"/></g><g><path d="m14.37517 37.04833 3.87403-1.96495-.28366-.16377-3.87402 1.96495z" fill="#e74c3c"/></g><g><path d="m14.09152 36.88456-.00092.32596.28365.16377.00092-.32596z" fill="#e74c3c"/></g></g></g><g><g enable-background="new"><g><path d="m14.37425 33.54947 3.87402-1.96495.00093-.32596-3.87403 1.96495z" fill="#e63044"/></g><g><path d="m14.37517 33.22351 3.87403-1.96495-.28366-.16377-3.87402 1.96495z" fill="#e74c3c"/></g><g><path d="m14.09152 33.05974-.00092.32596.28365.16377.00092-.32596z" fill="#e74c3c"/></g></g></g><g><g enable-background="new"><g><path d="m14.37425 29.72464 3.87402-1.96495.00093-.32596-3.87403 1.96495z" fill="#e63044"/></g><g><path d="m14.37517 29.39868 3.87403-1.96495-.28366-.16377-3.87402 1.96495z" fill="#e74c3c"/></g><g><path d="m14.09152 29.23491-.00092.32596.28365.16377.00092-.32596z" fill="#e74c3c"/></g></g></g><g><g enable-background="new"><g><path d="m14.37425 25.89981 3.87402-1.96494.00093-.32596-3.87403 1.96495z" fill="#e63044"/></g><g><path d="m14.37517 25.57386 3.87403-1.96495-.28366-.16377-3.87402 1.96495z" fill="#e74c3c"/></g><g><path d="m14.09152 25.41009-.00092.32596.28365.16376.00092-.32595z" fill="#e74c3c"/></g></g></g><g><g enable-background="new"><g><path d="m14.37425 22.07499 3.87402-1.96495.00093-.32596-3.87403 1.96495z" fill="#e63044"/></g><g><path d="m14.37517 21.74903 3.87403-1.96495-.28366-.16377-3.87402 1.96495z" fill="#e74c3c"/></g><g><path d="m14.09152 21.58526-.00092.32596.28365.16377.00092-.32596z" fill="#e74c3c"/></g></g></g><g><g enable-background="new"><g><path d="m14.37425 18.25017 3.87402-1.96495.00093-.32596-3.87403 1.96495z" fill="#e63044"/></g><g><path d="m14.37517 17.92421 3.87403-1.96495-.28366-.16377-3.87402 1.96495z" fill="#e74c3c"/></g><g><path d="m14.09152 17.76044-.00092.32596.28365.16377.00092-.32596z" fill="#e74c3c"/></g></g></g><g><g enable-background="new"><g><path d="m21.74162 22.07499-3.87402-1.96495-.00092-.32596 3.87402 1.96495z" fill="#e63044"/></g><g><path d="m21.7407 21.74903-3.87402-1.96495.28365-.16377 3.87403 1.96495z" fill="#e74c3c"/></g><g><path d="m22.02436 21.58526.00092.32596-.28366.16377-.00092-.32596z" fill="#e74c3c"/></g></g></g><g><g enable-background="new"><g><path d="m21.74162 25.9817-3.87402-1.96495-.00092-.32596 3.87402 1.96495z" fill="#e63044"/></g><g><path d="m21.7407 25.65574-3.87402-1.96495.28365-.16377 3.87403 1.96495z" fill="#e74c3c"/></g><g><path d="m22.02436 25.49197.00092.32596-.28366.16377-.00092-.32596z" fill="#e74c3c"/></g></g></g><g><g enable-background="new"><g><path d="m21.74162 29.88841-3.87402-1.96495-.00092-.32596 3.87402 1.96495z" fill="#e63044"/></g><g><path d="m21.7407 29.56245-3.87402-1.96495.28365-.16377 3.87403 1.96495z" fill="#e74c3c"/></g><g><path d="m22.02436 29.39868.00092.32596-.28366.16377-.00092-.32596z" fill="#e74c3c"/></g></g></g><g><g enable-background="new"><g><path d="m21.74162 33.79512-3.87402-1.96495-.00092-.32596 3.87402 1.96495z" fill="#e63044"/></g><g><path d="m21.7407 33.46916-3.87402-1.96495.28365-.16377 3.87403 1.96495z" fill="#e74c3c"/></g><g><path d="m22.02436 33.30539.00092.32596-.28366.16377-.00092-.32596z" fill="#e74c3c"/></g></g></g><g><g enable-background="new"><g><path d="m21.74162 37.70183-3.87402-1.96495-.00092-.32596 3.87402 1.96495z" fill="#e63044"/></g><g><path d="m21.7407 37.37587-3.87402-1.96495.28365-.16377 3.87403 1.96495z" fill="#e74c3c"/></g><g><path d="m22.02436 37.2121.00092.32596-.28366.16377-.00092-.32596z" fill="#e74c3c"/></g></g></g><g><g enable-background="new"><g><path d="m21.74162 41.60854-3.87402-1.96495-.00092-.32596 3.87402 1.96495z" fill="#e63044"/></g><g><path d="m21.7407 41.28258-3.87402-1.96495.28365-.16377 3.87403 1.96495z" fill="#e74c3c"/></g><g><path d="m22.02436 41.11881.00092.32596-.28366.16377-.00092-.32596z" fill="#e74c3c"/></g></g></g><g><g><g><g enable-background="new"><g><path d="m17.72531 23.10105-3.63379-2.41119-.00092-.32596 3.63379 2.41119z" fill="#e63044"/></g><g><path d="m17.72439 22.77509-3.63379-2.41119.28365-.16377 3.63379 2.41119z" fill="#e74c3c"/></g><g><path d="m18.00804 22.61132.00093.32596-.28366.16377-.00092-.32596z" fill="#e74c3c"/></g></g></g><g><g enable-background="new"><g><path d="m18.19617 23.10105 3.87403-1.96495.00092-.32596-3.87402 1.96495z" fill="#e63044"/></g><g><path d="m18.1971 22.77509 3.87402-1.96495-.28365-.16377-3.87403 1.96495z" fill="#e74c3c"/></g><g><path d="m17.91344 22.61132-.00092.32596.28365.16377.00093-.32596z" fill="#e74c3c"/></g></g></g></g><g><g enable-background="new"><g><path d="m18.19617 23.10105 3.87403-1.96495.00092-.32596-3.87402 1.96495z" fill="#e63044"/></g><g><path d="m18.1971 22.77509 3.87402-1.96495-.28365-.16377-3.87403 1.96495z" fill="#e74c3c"/></g><g><path d="m17.91344 22.61132-.00092.32596.28365.16377.00093-.32596z" fill="#e74c3c"/></g></g></g><g><g enable-background="new"><g><path d="m24.84981 43.78199-.0054 2.32648-6.6964 3.89153.0054-2.32648z" fill="#e0e2e2"/></g><g><path d="m18.15341 47.67352-.0054 2.32648-6.75512-3.90007.0054-2.32649z" fill="#e0e2e2"/></g><g><path d="m24.84981 43.78199-6.6964 3.89153-6.75512-3.90008 6.6964-3.89152z" fill="#ecf0f1"/></g></g></g><g enable-background="new"><g><path d="m22.64116 14.32501-.05516 30.0066-.45418.26394.05516-30.00659z" fill="#c14242"/></g><g><path d="m22.18698 14.58896-.05516 30.00659-.46021-.2657.05515-30.0066z" fill="#d8463f"/></g><g><path d="m22.64116 14.32501-.45418.26395-.46022-.26571.45419-.26394z" fill="#e74c3c"/></g></g><g enable-background="new"><g><path d="m14.49041 13.7514-.05516 30.0066-.45418.26394.05516-30.00659z" fill="#c14242"/></g><g><path d="m14.03623 14.01535-.05516 30.00659-.46021-.2657.05515-30.0066z" fill="#d8463f"/></g><g><path d="m14.49041 13.7514-.45418.26395-.46022-.26571.45419-.26394z" fill="#e74c3c"/></g></g><g><g enable-background="new"><g><path d="m17.72531 19.2988-3.63379-2.41119-.00092-.32596 3.63379 2.41119z" fill="#e63044"/></g><g><path d="m17.72439 18.97284-3.63379-2.41119.28365-.16377 3.63379 2.41119z" fill="#e74c3c"/></g><g><path d="m18.00804 18.80907.00093.32596-.28366.16377-.00092-.32596z" fill="#e74c3c"/></g></g></g><path d="m18.19617 19.2988 3.87403-1.96495.00092-.32596-3.87402 1.96495z" fill="#e63044"/><path d="m18.1971 18.97284 3.87402-1.96495-.28365-.16377-3.87403 1.96495z" fill="#e74c3c"/><path d="m17.91344 18.80907-.00092.32596.28365.16377.00093-.32596z" fill="#e74c3c"/><g><g><g enable-background="new"><g><path d="m17.72531 26.72761-3.63379-2.4112-.00092-.32596 3.63379 2.4112z" fill="#e63044"/></g><g><path d="m17.72439 26.40165-3.63379-2.4112.28365-.16376 3.63379 2.41119z" fill="#e74c3c"/></g><g><path d="m18.00804 26.23788.00093.32596-.28366.16377-.00092-.32596z" fill="#e74c3c"/></g></g></g><g><g enable-background="new"><g><path d="m18.19617 26.72761 3.87403-1.96495.00092-.32596-3.87402 1.96495z" fill="#e63044"/></g><g><path d="m18.1971 26.40165 3.87402-1.96495-.28365-.16377-3.87403 1.96495z" fill="#e74c3c"/></g><g><path d="m17.91344 26.23788-.00092.32596.28365.16377.00093-.32596z" fill="#e74c3c"/></g></g></g></g><g><g><g enable-background="new"><g><path d="m17.72531 30.44201-3.63379-2.41119-.00092-.32596 3.63379 2.41119z" fill="#e63044"/></g><g><path d="m17.72439 30.11605-3.63379-2.41119.28365-.16377 3.63379 2.41119z" fill="#e74c3c"/></g><g><path d="m18.00804 29.95228.00093.32596-.28366.16377-.00092-.32596z" fill="#e74c3c"/></g></g></g><g><g enable-background="new"><g><path d="m18.19617 30.44201 3.87403-1.96495.00092-.32596-3.87402 1.96495z" fill="#e63044"/></g><g><path d="m18.1971 30.11605 3.87402-1.96495-.28365-.16377-3.87403 1.96495z" fill="#e74c3c"/></g><g><path d="m17.91344 29.95228-.00092.32596.28365.16377.00093-.32596z" fill="#e74c3c"/></g></g></g></g><g><g><g enable-background="new"><g><path d="m17.72531 34.15641-3.63379-2.41119-.00092-.32596 3.63379 2.41119z" fill="#e63044"/></g><g><path d="m17.72439 33.83045-3.63379-2.41119.28365-.16377 3.63379 2.41119z" fill="#e74c3c"/></g><g><path d="m18.00804 33.66668.00093.32596-.28366.16377-.00092-.32596z" fill="#e74c3c"/></g></g></g><g><g enable-background="new"><g><path d="m18.19617 34.15641 3.87403-1.96495.00092-.32596-3.87402 1.96495z" fill="#e63044"/></g><g><path d="m18.1971 33.83045 3.87402-1.96495-.28365-.16377-3.87403 1.96495z" fill="#e74c3c"/></g><g><path d="m17.91344 33.66668-.00092.32596.28365.16377.00093-.32596z" fill="#e74c3c"/></g></g></g></g><g><g><g enable-background="new"><g><path d="m17.72531 37.87082-3.63379-2.4112-.00092-.32596 3.63379 2.41119z" fill="#e63044"/></g><g><path d="m17.72439 37.54485-3.63379-2.41119.28365-.16377 3.63379 2.41119z" fill="#e74c3c"/></g><g><path d="m18.00804 37.38108.00093.32597-.28366.16377-.00092-.32597z" fill="#e74c3c"/></g></g></g><g><g enable-background="new"><g><path d="m18.19617 37.87082 3.87403-1.96496.00092-.32596-3.87402 1.96495z" fill="#e63044"/></g><g><path d="m18.1971 37.54485 3.87402-1.96495-.28365-.16376-3.87403 1.96494z" fill="#e74c3c"/></g><g><path d="m17.91344 37.38108-.00092.32597.28365.16377.00093-.32597z" fill="#e74c3c"/></g></g></g></g><g><g><g enable-background="new"><g><path d="m17.72531 41.58522-3.63379-2.41119-.00092-.32597 3.63379 2.4112z" fill="#e63044"/></g><g><path d="m17.72439 41.25926-3.63379-2.4112.28365-.16376 3.63379 2.41119z" fill="#e74c3c"/></g><g><path d="m18.00804 41.09549.00093.32596-.28366.16377-.00092-.32596z" fill="#e74c3c"/></g></g></g><g><g enable-background="new"><g><path d="m18.19617 41.58522 3.87403-1.96495.00092-.32596-3.87402 1.96495z" fill="#e63044"/></g><g><path d="m18.1971 41.25926 3.87402-1.96495-.28365-.16377-3.87403 1.96495z" fill="#e74c3c"/></g><g><path d="m17.91344 41.09549-.00092.32596.28365.16377.00093-.32596z" fill="#e74c3c"/></g></g></g></g><g><g><g enable-background="new"><g><path d="m17.72531 45.29962-3.63379-2.41119-.00092-.32596 3.63379 2.41119z" fill="#e63044"/></g><g><path d="m17.72439 44.97366-3.63379-2.41119.28365-.16377 3.63379 2.41119z" fill="#e74c3c"/></g><g><path d="m18.00804 44.80989.00093.32596-.28366.16377-.00092-.32596z" fill="#e74c3c"/></g></g></g><g><g enable-background="new"><g><path d="m18.19617 45.29962 3.87403-1.96495.00092-.32596-3.87402 1.96495z" fill="#e63044"/></g><g><path d="m18.1971 44.97366 3.87402-1.96495-.28365-.16377-3.87403 1.96495z" fill="#e74c3c"/></g><g><path d="m17.91344 44.80989-.00092.32596.28365.16377.00093-.32596z" fill="#e74c3c"/></g></g></g></g><g><g enable-background="new"><g><path d="m17.72531 26.72761-3.63379-2.4112-.00092-.32596 3.63379 2.4112z" fill="#e63044"/></g><g><path d="m17.72439 26.40165-3.63379-2.4112.28365-.16376 3.63379 2.41119z" fill="#e74c3c"/></g><g><path d="m18.00804 26.23788.00093.32596-.28366.16377-.00092-.32596z" fill="#e74c3c"/></g></g></g><g><g enable-background="new"><g><path d="m18.19617 26.72761 3.87403-1.96495.00092-.32596-3.87402 1.96495z" fill="#e63044"/></g><g><path d="m18.1971 26.40165 3.87402-1.96495-.28365-.16377-3.87403 1.96495z" fill="#e74c3c"/></g><g><path d="m17.91344 26.23788-.00092.32596.28365.16377.00093-.32596z" fill="#e74c3c"/></g></g></g><g><g enable-background="new"><g><path d="m18.19617 23.10105 3.87403-1.96495.00092-.32596-3.87402 1.96495z" fill="#e63044"/></g><g><path d="m18.1971 22.77509 3.87402-1.96495-.28365-.16377-3.87403 1.96495z" fill="#e74c3c"/></g><g><path d="m17.91344 22.61132-.00092.32596.28365.16377.00093-.32596z" fill="#e74c3c"/></g></g></g><path d="m18.1971 18.97284 3.87402-1.96495-.28365-.16377-3.87403 1.96495z" fill="#e74c3c"/><g><g><g enable-background="new"><g><path d="m17.72531 41.58522-3.63379-2.41119-.00092-.32597 3.63379 2.4112z" fill="#e63044"/></g><g><path d="m17.72439 41.25926-3.63379-2.4112.28365-.16376 3.63379 2.41119z" fill="#e74c3c"/></g><g><path d="m18.00804 41.09549.00093.32596-.28366.16377-.00092-.32596z" fill="#e74c3c"/></g></g></g><g><g enable-background="new"><g><path d="m18.19617 41.58522 3.87403-1.96495.00092-.32596-3.87402 1.96495z" fill="#e63044"/></g><g><path d="m18.1971 41.25926 3.87402-1.96495-.28365-.16377-3.87403 1.96495z" fill="#e74c3c"/></g><g><path d="m17.91344 41.09549-.00092.32596.28365.16377.00093-.32596z" fill="#e74c3c"/></g></g></g></g><g><g><g enable-background="new"><g><path d="m17.72531 45.29962-3.63379-2.41119-.00092-.32596 3.63379 2.41119z" fill="#e63044"/></g><g><path d="m17.72439 44.97366-3.63379-2.41119.28365-.16377 3.63379 2.41119z" fill="#e74c3c"/></g><g><path d="m18.00804 44.80989.00093.32596-.28366.16377-.00092-.32596z" fill="#e74c3c"/></g></g></g><g><g enable-background="new"><g><path d="m18.19617 45.29962 3.87403-1.96495.00092-.32596-3.87402 1.96495z" fill="#e63044"/></g><g><path d="m18.1971 44.97366 3.87402-1.96495-.28365-.16377-3.87403 1.96495z" fill="#e74c3c"/></g><g><path d="m17.91344 44.80989-.00092.32596.28365.16377.00093-.32596z" fill="#e74c3c"/></g></g></g></g><g enable-background="new"><g><path d="m18.57855 16.39788-.05516 30.00659-.45418.26395.05515-30.0066z" fill="#c14242"/></g><g><path d="m18.12436 16.66182-.05515 30.0066-.46022-.26571.05516-30.00659z" fill="#d8463f"/></g><g><path d="m18.57855 16.39788-.45419.26394-.46021-.2657.45418-.26394z" fill="#e74c3c"/></g></g><g><g enable-background="new"><g><path d="m23.54698 14.06764-.00435.60711-5.39978 3.13801.00435-.60711z" fill="#474b59"/></g><g><path d="m18.1472 17.20565-.00435.60711-5.44713-3.1449.00435-.60712z" fill="#525566"/></g><g><path d="m23.54698 14.06764-5.39978 3.13801-5.44713-3.14491 5.39978-3.138z" fill="#5b5e71"/></g></g></g><g><g enable-background="new"><g><path d="m35.1133 19.82001-.043 6.67809-.35403.20575.04299-6.6781z" fill="#c14242"/></g><g><path d="m34.75926 20.02575-.04299 6.6781-.35874-.20712.04299-6.6781z" fill="#d8463f"/></g><g><path d="m35.1133 19.82001-.35404.20574-.35874-.20712.35404-.20574z" fill="#e74c3c"/></g></g><g><g enable-background="new"><g><path d="m12.10411 7.95536-3.76478-2.20101-.01943-.32545 3.76478 2.20101z" fill="#e63044"/></g><g><path d="m12.08468 7.62991-3.76478-2.20101.2739-.17967 3.76478 2.20101z" fill="#e74c3c"/></g><g><path d="m12.35858 7.45024.01943.32544-.2739.17968-.01943-.32545z" fill="#e74c3c"/></g></g></g><g><g enable-background="new"><g><path d="m14.04753 7.13388-3.76478-2.20101-.01943-.32544 3.76478 2.20101z" fill="#e63044"/></g><g><path d="m14.0281 6.80844-3.76478-2.20101.2739-.17967 3.76478 2.20101z" fill="#e74c3c"/></g><g><path d="m14.302 6.62877.01943.32544-.2739.17967-.01943-.32544z" fill="#e74c3c"/></g></g></g><g><g enable-background="new"><g><path d="m13.71696 6.64771.38437-.22337 2.45126 1.41524-.38436.22336z" fill="#e74c3c"/></g><g><path d="m14.46939 4.50132.38437-.22337-.75243 2.14639-.38437.22337z" fill="#e63044"/></g><g><path d="m14.61704 4.08964.38437-.22337-.00702.01195-.38436.22337z" fill="#852830"/></g><g><path d="m14.63096 4.09768.38437-.22337 1.70574 3.58965-.38437.22337z" fill="#c14242"/></g><g><path d="m14.61003 4.10159.38436-.22337.02094-.00391-.38437.22337z" fill="#882831"/></g><g><path d="m16.48159 8.24386.38436-.22336 3.62121 2.0907-.38436.22337z" fill="#e74c3c"/></g><g><path d="m18.45944 6.8851.38436-.22337-1.97785 1.35877-.38436.22336z" fill="#7a242c"/></g><g><path d="m18.56554 6.3693.38436-.22337 1.71269 3.59367-.38437.22337z" fill="#c44"/></g><g><path d="m20.42313 10.51951.38437-.22336 3.62119 2.09069-.38437.22337z" fill="#e74c3c"/></g><g><path d="m22.40098 9.16075.38436-.22337-1.97784 1.35877-.38437.22336z" fill="#7a242c"/></g><g><path d="m22.50706 8.64494.38436-.22337 1.70574 3.58966-.38436.22337z" fill="#c14242"/></g><g><path d="m24.35768 12.79113.38437-.22337 3.62121 2.09071-.38437.22337z" fill="#e74c3c"/></g><g><path d="m26.33553 11.43236.38437-.22337-1.97785 1.35877-.38437.22337z" fill="#e63044"/></g><g><path d="m26.44163 10.91657.38437-.22337 1.71268 3.59367-.38436.22337z" fill="#c44"/></g><g><path d="m28.29922 15.06678.38437-.22337 3.62119 2.0907-.38436.22337z" fill="#e74c3c"/></g><g><path d="m30.27707 13.70801.38437-.22337-1.97785 1.35877-.38437.22337z" fill="#e63044"/></g><g><path d="m30.38315 13.19221.38437-.22337 1.70574 3.58966-.38437.22336z" fill="#c14242"/></g><g><path d="m32.23378 17.33839.38436-.22336 2.73679 1.58008-.38436.22337z" fill="#e74c3c"/></g><g><path d="m34.24654 15.96772.38437-.22337-2.01277 1.37068-.38436.22336z" fill="#e63044"/></g><g><path d="m14.33974 3.48872.38437-.22337 20.02798 11.56317-.38437.22336z" fill="#e74c3c"/></g><g><path d="m34.36772 15.05188.38437-.22336 1.14475 4.62835-.38436.22337z" fill="#db414f"/></g><g><path d="m34.36772 15.05188 1.14476 4.62835-22.33997-12.89798 1.16724-3.29352zm-19.73676-10.9542 1.70574 3.58966 2.0617-1.41453-3.76744-2.17513-.01392-.00804-.00702.01195zm3.93458 2.27162 1.71269 3.59367 2.05475-1.41854zm7.87609 4.54727 1.71269 3.59367 2.05475-1.41854zm-3.93457-2.27163 1.70574 3.58966 2.0617-1.41453zm7.87609 4.54727 1.70574 3.58966 2.01279-1.38665-.01376-.06405zm-6.02547-.40108 3.62121 2.09071-1.64336-3.44948zm-7.87609-4.54727 3.62121 2.09071-1.64336-3.44947zm11.81763 6.82292 3.62119 2.0907-1.64334-3.44946zm-7.87609-4.54727 3.62119 2.0907-1.64334-3.44946zm13.82341 5.44821-2.01277 1.37067 2.73679 1.58009zm-20.52958-9.32001 2.45127 1.41524-1.69883-3.56163z" fill="#d8463f"/></g></g></g><g><g enable-background="new"><g><path d="m34.0481 20.41886 1.46392-.74176-.08929-.38045-1.46392.74175z" fill="#e63044"/></g><g><path d="m33.95881 20.0384 1.46392-.74175-.19344-.10928-1.46392.74176z" fill="#e74c3c"/></g><g><path d="m33.76537 19.92913-.00092.32596.28365.16377-.08929-.38046z" fill="#e74c3c"/></g></g></g><g><g enable-background="new"><g><path d="m12.07785 7.48582.38437-.22337 2.45126 1.41524-.38436.22337z" fill="#e74c3c"/></g><g><path d="m12.83028 5.33943.38437-.22337-.75243 2.14639-.38437.22337z" fill="#e63044"/></g><g><path d="m12.97793 4.92775.38437-.22337-.00702.01195-.38436.22337z" fill="#852830"/></g><g><path d="m12.99185 4.93579.38437-.22337 1.70573 3.58966-.38436.22336z" fill="#c14242"/></g><g><path d="m12.97092 4.9397.38436-.22337.02094-.00391-.38437.22337z" fill="#882831"/></g><g><path d="m14.84248 9.08198.38436-.22337 3.62121 2.09071-.38436.22336z" fill="#e74c3c"/></g><g><path d="m16.82033 7.72321.38436-.22337-1.97785 1.35877-.38436.22337z" fill="#e63044"/></g><g><path d="m16.92643 7.20741.38436-.22336 1.71269 3.59367-.38437.22336z" fill="#c44"/></g><g><path d="m18.78402 11.35763.38436-.22337 3.6212 2.09069-.38437.22337z" fill="#e74c3c"/></g><g><path d="m20.76187 9.99886.38436-.22337-1.97785 1.35877-.38436.22337z" fill="#e63044"/></g><g><path d="m20.86795 9.48305.38436-.22336 1.70574 3.58965-.38437.22337z" fill="#c14242"/></g><g><path d="m22.71857 13.62924.38437-.22337 3.62121 2.09071-.38437.22337z" fill="#e74c3c"/></g><g><path d="m24.69642 12.27047.38437-.22337-1.97785 1.35877-.38437.22337z" fill="#e63044"/></g><g><path d="m24.80252 11.75468.38437-.22337 1.71268 3.59367-.38436.22337z" fill="#c44"/></g><g><path d="m26.66011 15.90489.38437-.22337 3.62119 2.0907-.38436.22337z" fill="#e74c3c"/></g><g><path d="m28.63796 14.54612.38437-.22337-1.97785 1.35877-.38437.22337z" fill="#e63044"/></g><g><path d="m28.74404 14.03032.38437-.22337 1.70573 3.58966-.38436.22337z" fill="#c14242"/></g><g><path d="m30.59467 18.17651.38436-.22337 2.73679 1.58008-.38436.22337z" fill="#e74c3c"/></g><g><path d="m32.60744 16.80584.38436-.22337-2.01277 1.37067-.38436.22337z" fill="#e63044"/></g><g><path d="m12.70063 4.32684.38437-.22337 20.02798 11.56316-.38437.22337z" fill="#e74c3c"/></g><g><path d="m32.72861 15.89.38437-.22337 1.14475 4.62835-.38436.22337z" fill="#db414f"/></g><g><path d="m32.72861 15.89 1.14476 4.62835-22.33997-12.89799 1.16723-3.29352zm-19.73676-10.95421 1.70574 3.58966 2.0617-1.41453-3.76744-2.17513-.01392-.00804-.00701.01195zm3.93458 2.27162 1.71269 3.59367 2.05475-1.41854zm7.87609 4.54727 1.71269 3.59367 2.05475-1.41854zm-3.93457-2.27163 1.70574 3.58966 2.0617-1.41453zm7.87609 4.54727 1.70574 3.58966 2.01279-1.38666-.01376-.06405zm-6.02547-.40108 3.62121 2.09071-1.64336-3.44948zm-7.87609-4.54726 3.62121 2.09071-1.64336-3.44948zm11.81763 6.82291 3.62119 2.0907-1.64334-3.44946zm-7.87609-4.54726 3.62119 2.0907-1.64334-3.44946zm13.82342 5.44821-2.01277 1.37067 2.73679 1.58009zm-20.52959-9.32002 2.45127 1.41524-1.69883-3.56163z" fill="#d8463f"/></g></g></g><g><g enable-background="new"><g><path d="m12.29238 2.84896-.00177 2.52947-2.1944 1.27524.00177-2.52946z" fill="#d4d6d6"/></g><g><path d="m10.09798 4.12421-.00177 2.52946-1.47045-.84896.00177-2.52947z" fill="#e0e2e2"/></g><g><path d="m12.29238 2.84896-2.1944 1.27525-1.47045-.84897 2.1944-1.27524z" fill="#ecf0f1"/></g></g></g></g><g><g><g enable-background="new"><g><path d="m18.15262 15.69338 4.85554-2.82173-.00603 2.12821-4.85554 2.82173z" fill="#2ecc71"/></g><g><path d="m13.47714 7.59693 4.85553-2.82173c2.59201 1.4965 4.68393 5.11803 4.67549 8.09645l-4.85554 2.82173c.00845-2.97842-2.08347-6.59995-4.67548-8.09645z" fill="#2ecc71"/><g><path d="m18.3297 5.17751-4.18604 2.43279c.32926.22853.64478.49682.95128.78414l4.22925-2.45788c-.32038-.28394-.65021-.5456-.99449-.75905z" fill="#2ecc71"/><g><path d="m22.65899 12.67438c-.06838-2.35356-1.46354-5.07931-3.33479-6.73782l-.09798.05696c1.7768 1.6705 3.08702 4.28374 3.15314 6.55849l-3.94123 2.28955c.01022.08741.02996.17665.03708.26336z" fill="#30b265"/><path d="m22.38478 12.5537-1.80168 1.0396-.65832.38093-.47349.27731-1.01634.58888c-.10397-.87761-.35802-1.79005-.73917-2.66781-.60058-1.42054-1.51295-2.76029-2.59858-3.77649l2.59858-1.51302 1.53607-.88932c.08085.08092.16171.15015.21944.23093.1732.16171.32334.32341.47349.49668.231.27717.45044.5659.65832.86619 1.05095 1.5129 1.7555 3.32622 1.80168 4.96612z" fill="#84dbff"/></g></g></g><g><path d="m13.47714 7.59693c2.59201 1.4965 4.68393 5.11803 4.67548 8.09645l-.00603 2.12821-4.69076-2.70821z" fill="#30b265"/><g><path d="m14.35929 8.92863c-.09883-.07909-.19315-.1696-.29444-.2415l-.01685 4.52299 3.50891 2.02563.00395-.00085c.00035-.12096-.02023-.24728-.02798-.3705l-3.18881-1.84095z" fill="#2ecc71"/><path d="m17.53407 14.86355-1.58224-.9123-.42732-.24263-.30029-.17313-.87776-.50824v-.68137l.01156-3.41854c.39271.31185.76229.68137 1.09719 1.08556.31185.36965.61214.78527.86619 1.21273.06929.12702.13859.24249.20788.36951.10398.18483.19632.36951.27717.5659.40428.87778.66989 1.8132.72762 2.70251z" fill="#84dbff"/></g></g></g></g><g fill="#fff"><path d="m19.45129 6.22473v8.02682l-1.01634.58888c-.10397-.87761-.35802-1.79005-.73917-2.66781v-5.28951l1.53607-.88932c.08085.08093.16171.15016.21944.23094z" opacity=".3"/><path d="m20.58309 7.5876v6.0057l-.65832.38093v-7.25282c.23101.27717.45045.5659.65832.86619z" opacity=".3"/><path d="m16.32141 11.22565-1.09719 2.30985-.87776-.50824v-.68137l1.10876-2.33297c.31185.36966.61214.78527.86619 1.21273z" opacity=".3"/><path d="m16.80646 12.16107-.85463 1.79019-.42732-.24263 1.00478-2.11346c.10398.18482.19632.36951.27717.5659z" opacity=".3"/></g></g></g></g></g></svg>