<svg id="Layer_1" enable-background="new 0 0 50 50" height="512" viewBox="0 0 50 50" width="512" xmlns="http://www.w3.org/2000/svg"><g><g><g><g enable-background="new"><g><path d="m13.59376 14.73747c-.02619 9.23664 6.49041 20.52368 14.52869 25.16458l-6.34318 3.68624c-8.03826-4.6409-14.55486-15.92793-14.52867-25.16457 2.1144-1.22875 4.22875-2.45749 6.34316-3.68625z" fill="#663116"/></g><g><path d="m17.85029 5.39585c-2.61812 1.52131-4.24352 4.75287-4.25653 9.34162-2.11442 1.22876-4.22876 2.4575-6.34318 3.68625.01302-4.58875 1.63842-7.82032 4.25654-9.34162 1.90295-1.10587 4.44022-2.58037 6.34317-3.68625z" fill="#663116"/></g><g><path d="m14.30248 15.14665c-.02492 8.78925 6.17984 19.52869 13.82228 23.94105l-6.34316 3.68625c-7.64244-4.41236-13.8472-15.1518-13.82228-23.94106.01237-4.36273 1.55998-7.43644 4.05143-8.88413l6.34316-3.68624c-2.49146 1.44769-4.03906 4.5214-4.05143 8.88413z" fill="#b68950"/></g><g><path d="m28.12245 39.90205c4.04489 2.33532 7.71525 2.54905 10.36713 1.00813l-6.34317 3.68625c-2.65187 1.54092-6.32223 1.32718-10.36712-1.00814 1.90293-1.10586 4.4402-2.58035 6.34316-3.68624z" fill="#663116"/></g><g><path d="m28.12476 39.0877c3.84891 2.22217 7.34081 2.42594 9.86358.96006l-6.34318 3.68624c-2.52276 1.46589-6.01466 1.26211-9.86357-.96006 1.90295-1.10586 4.44021-2.58035 6.34317-3.68624z" fill="#b68950"/></g><g><path d="m37.98866 40.04757-6.34317 3.68624c2.49048-1.4473 4.03638-4.52187 4.04876-8.88816l6.34316-3.68624c-.01238 4.36629-1.55829 7.44086-4.04875 8.88816z" fill="#b68950"/></g><g><path d="m12.01044 9.94895 6.34315-3.68624c2.52362-1.46656 6.01568-1.26477 9.86154.95564l-6.34316 3.68624c-3.84587-2.22041-7.33793-2.4222-9.86153-.95564z" fill="#b68950"/></g><g><path d="m11.50682 9.08227 6.34316-3.68624c2.6519-1.54112 6.32239-1.32746 10.36743 1.00794l-6.34316 3.68624c-4.04504-2.33539-7.71553-2.54905-10.36743-1.00794z" fill="#b68950"/></g><g><path d="m21.87196 10.90459 6.34316-3.68624c7.64881 4.41604 13.84718 15.15935 13.82229 23.94105l-6.34316 3.68624c.02489-8.7817-6.17348-19.52501-13.82229-23.94105z" fill="#b68950"/></g><g><path d="m21.87425 10.09023c8.03828 4.6409 14.55487 15.92794 14.52869 25.1646-.02618 9.23664-6.58537 12.97437-14.62365 8.33347s-14.55488-15.92794-14.52869-25.16458c.02619-9.23667 6.58537-12.9744 14.62365-8.33349zm-.09265 32.68372c7.64882 4.41605 13.88773.86097 13.91265-7.92829.0249-8.78172-6.17348-19.52502-13.8223-23.94107-7.64243-4.41236-13.88773-.85342-13.91263 7.9283-.02492 8.78926 6.17984 19.5287 13.82228 23.94106" fill="#fed44c"/></g><g><path d="m21.87196 10.90459c7.64881 4.41604 13.84718 15.15935 13.82228 23.94106-.02492 8.78926-6.26383 12.34433-13.91263 7.92829-7.64244-4.41236-13.8472-15.15179-13.82228-23.94105.02489-8.78171 6.27019-12.34067 13.91263-7.9283z" fill="#fff"/></g><g><path d="m38.48989 40.91-6.34317 3.68624c2.61794-1.52138 4.24321-4.75287 4.25622-9.34142.02619-9.23666-6.49041-20.5237-14.52869-25.1646l6.34316-3.68624c8.03828 4.6409 14.55487 15.92794 14.52869 25.1646-.01301 4.58856-1.63828 7.82005-4.25621 9.34142z" fill="#b68950"/></g><g><path d="m21.88343 6.85465c9.6089 5.5477 17.37285 18.99535 17.34157 30.02949-.0313 11.0413-7.846 15.49459-17.4549 9.94689-9.60253-5.54402-17.36643-18.99162-17.33513-30.03292.03128-11.03414 7.84594-15.48748 17.44846-9.94346zm-.10414 36.73364c8.03828 4.6409 14.59747.90317 14.62365-8.33347.02619-9.23666-6.49041-20.5237-14.52869-25.1646s-14.59746-.90317-14.62365 8.3335c-.02619 9.23664 6.49041 20.52367 14.52869 25.16457" fill="#525ba8"/></g></g></g><g><g enable-background="new"><g><path d="m13.59376 14.73747c-.02619 9.23664 6.49041 20.52368 14.52869 25.16458l-6.34318 3.68624c-8.03826-4.6409-14.55486-15.92793-14.52867-25.16457 2.1144-1.22875 4.22875-2.45749 6.34316-3.68625z" fill="#663116"/></g><g><path d="m17.85029 5.39585c-2.61812 1.52131-4.24352 4.75287-4.25653 9.34162-2.11442 1.22876-4.22876 2.4575-6.34318 3.68625.01302-4.58875 1.63842-7.82032 4.25654-9.34162 1.90295-1.10587 4.44022-2.58037 6.34317-3.68625z" fill="#663116"/></g><g><path d="m14.30248 15.14665c-.02492 8.78925 6.17984 19.52869 13.82228 23.94105l-6.34316 3.68625c-7.64244-4.41236-13.8472-15.1518-13.82228-23.94106.01237-4.36273 1.55998-7.43644 4.05143-8.88413l6.34316-3.68624c-2.49146 1.44769-4.03906 4.5214-4.05143 8.88413z" fill="#b68950"/></g><g><path d="m28.12245 39.90205c4.04489 2.33532 7.71525 2.54905 10.36713 1.00813l-6.34317 3.68625c-2.65187 1.54092-6.32223 1.32718-10.36712-1.00814 1.90293-1.10586 4.4402-2.58035 6.34316-3.68624z" fill="#663116"/></g><g><path d="m28.12476 39.0877c3.84891 2.22217 7.34081 2.42594 9.86358.96006l-6.34318 3.68624c-2.52276 1.46589-6.01466 1.26211-9.86357-.96006 1.90295-1.10586 4.44021-2.58035 6.34317-3.68624z" fill="#b68950"/></g><g><path d="m37.98866 40.04757-6.34317 3.68624c2.49048-1.4473 4.03638-4.52187 4.04876-8.88816l6.34316-3.68624c-.01238 4.36629-1.55829 7.44086-4.04875 8.88816z" fill="#b68950"/></g><g><path d="m12.01044 9.94895 6.34315-3.68624c2.52362-1.46656 6.01568-1.26477 9.86154.95564l-6.34316 3.68624c-3.84587-2.22041-7.33793-2.4222-9.86153-.95564z" fill="#b68950"/></g><g><path d="m11.50682 9.08227 6.34316-3.68624c2.6519-1.54112 6.32239-1.32746 10.36743 1.00794l-6.34316 3.68624c-4.04504-2.33539-7.71553-2.54905-10.36743-1.00794z" fill="#b68950"/></g><g><path d="m21.87196 10.90459 6.34316-3.68624c7.64881 4.41604 13.84718 15.15935 13.82229 23.94105l-6.34316 3.68624c.02489-8.7817-6.17348-19.52501-13.82229-23.94105z" fill="#b68950"/></g><g><path d="m21.87425 10.09023c8.03828 4.6409 14.55487 15.92794 14.52869 25.1646-.02618 9.23664-6.58537 12.97437-14.62365 8.33347s-14.55488-15.92794-14.52869-25.16458c.02619-9.23667 6.58537-12.9744 14.62365-8.33349zm-.09265 32.68372c7.64882 4.41605 13.88773.86097 13.91265-7.92829.0249-8.78172-6.17348-19.52502-13.8223-23.94107-7.64243-4.41236-13.88773-.85342-13.91263 7.9283-.02492 8.78926 6.17984 19.5287 13.82228 23.94106" fill="#b4403c"/></g><g><path d="m21.87196 10.90459c7.64881 4.41604 13.84718 15.15935 13.82228 23.94106-.02492 8.78926-6.26383 12.34433-13.91263 7.92829-7.64244-4.41236-13.8472-15.15179-13.82228-23.94105.02489-8.78171 6.27019-12.34067 13.91263-7.9283z" fill="#fff"/></g><g><path d="m38.48989 40.91-6.34317 3.68624c2.61794-1.52138 4.24321-4.75287 4.25622-9.34142.02619-9.23666-6.49041-20.5237-14.52869-25.1646l6.34316-3.68624c8.03828 4.6409 14.55487 15.92794 14.52869 25.1646-.01301 4.58856-1.63828 7.82005-4.25621 9.34142z" fill="#b68950"/></g><g><path d="m21.88343 6.85465c9.6089 5.5477 17.37285 18.99535 17.34157 30.02949-.0313 11.0413-7.846 15.49459-17.4549 9.94689-9.60253-5.54402-17.36643-18.99162-17.33513-30.03292.03128-11.03414 7.84594-15.48748 17.44846-9.94346zm-.10414 36.73364c8.03828 4.6409 14.59747.90317 14.62365-8.33347.02619-9.23666-6.49041-20.5237-14.52869-25.1646s-14.59746-.90317-14.62365 8.3335c-.02619 9.23664 6.49041 20.52367 14.52869 25.16457" fill="#ee5550"/></g></g></g><g><path d="m45.56504 33.19688c-.00995 5.49023-1.94995 9.3501-5.06995 11.16016l-6.35004 3.68994c3.13-1.81982 5.06-5.67969 5.08002-11.16016.02997-11.04004-7.72998-24.47949-17.34003-30.02979-4.82996-2.79004-9.20996-3.0498-12.38-1.20996l6.35004-3.68994c3.15997-1.83984 7.53998-1.58008 12.36999 1.20996 9.60999 5.54981 17.37 19.00001 17.33997 30.02979z" fill="#f17572"/></g><g><g><path d="m17.01063 9.99333.06737.22342.40743 1.35292-.32373-.03064-.40722-1.35199-.06723-.22334.09534.0078.21184.02014z" fill="#56707b"/></g><g enable-background="new"><g><path d="m9.8536 25.93395-.01889-.06055c.00621.02019.01286.04037.01913.06058z" fill="#56707b"/></g><g><path d="m9.85257 14.43468c-.5595 1.30425-.87821 2.88682-.9048 4.71677l-.17458-.10079c.02794-1.94953.38363-3.62217 1.00618-4.98127l-.08701.19809z" fill="#56707b"/></g><g><path d="m19.25484 26.88335.05624.04257-3.23124 3.19714-.22953.13074z" fill="#56707b"/></g><g><path d="m12.77253 10.72428.00612.0108.12209.2114.73547 1.2738-.24653.14799-.73594-1.28133-.12164-.21156-.00608-.01037z" fill="#56707b"/></g><g><path d="m17.0798 38.13656.06559-.14789c1.41172 1.45425 2.94558 2.70163 4.5491 3.65166l-.00057.20074c-3.49195-2.06856-6.65422-5.52238-8.97623-9.47551l.12363-.07154c1.14062 1.94177 2.48595 3.76027 3.97518 5.34973l-.06605.14639z" fill="#56707b"/></g><g><path d="m20.42608 28.23347c.02712.03868.05469.0772.0826.11512l1.33474 10.92872-.00124.52946.03555.02416-.03558-.0165-1.31055-10.71811-.00854-.06994z" fill="#56707b"/></g><g><path d="m20.50868 28.3486c.38777.52793.85439.97783 1.35728 1.27504l-.02254 9.65368z" fill="#fff"/></g><g><path d="m21.90872 25.45863c.63374.36589 1.14939 1.25918 1.14732 1.98722-.00208.73572-.5211 1.03126-1.15484.66537-.64017-.3696-1.15578-1.26249-1.15369-1.99821.00207-.72803.52104-1.02398 1.16121-.65438zm-.00661 2.33331c.48503.28003.87428.0505.87586-.50663.00156-.54986-.38512-1.22697-.87015-1.50701-.48497-.28-.88073-.05463-.88228.49524-.00159.55713.3916 1.2384.87657 1.5184" fill="#fff"/></g><g><path d="m16.75446 10.18705c-1.43804-.10504-2.74174.159-3.85374.75945l-.12207-.21142c1.1277-.60953 2.44986-.87747 3.90859-.77137z" fill="#56707b"/></g><g><path d="m23.61723 29.83685 4.05618 7.02538-4.38919-6.24492.1021-.68806c.08093-.02313.15802-.05414.23091-.0924z" fill="#56707b"/></g><g><path d="m33.21796 33.36493.00309.03894-8.66341-3.46379-.05787-.02291-.63532-.25414c.01942-.01746.03854-.0359.05704-.05469l8.83401 3.52676-8.36897-4.83183 8.82807 5.09689z" fill="#56707b"/></g><g><path d="m21.98047 13.86729-.0015.52769-.02709 9.55617c-.01289-.00785-.02583-.01572-.03881-.02321-.01079-.00623-.02153-.01203-.03232-.01826l.02709-9.55576-1.36869 9.25726c-.02773.00539-.05498.01106-.08193.01811l.08356-.5643.00905-.061 1.3595-9.17777z" fill="#56707b"/></g><g><path d="m21.90898 25.36952c.67254.38829 1.22685 1.34834 1.22466 2.12112-.00221.78006-.56012 1.09068-1.23266.70239-.67893-.39198-1.22681-1.34103-1.2246-2.12109.00218-.77278.55366-1.0944 1.2326-.70242zm-.00777 2.7417c.63374.36589 1.15276.07034 1.15484-.66537.00206-.72804-.51358-1.62133-1.14732-1.98722-.64017-.3696-1.15915-.07365-1.16121.65438-.00209.73572.51351 1.62861 1.15369 1.99821" fill="#56707b"/></g><g><path d="m21.98047 13.86729 1.30854 10.71897.00902.07385.08152.66809c-.02704-.03862-.05434-.077-.08226-.11452l-1.31832-10.8187z" fill="#56707b"/></g><g><path d="m22.12872 11.83905-.00057.20197-.00343 1.20979-.34917-.20159.00343-1.20979.00057-.20036z" fill="#56707b"/></g><g><path d="m21.95647 10.90621c-7.64337-4.41291-13.89084-.8603-13.91575 7.92267-.02491 8.7902 6.18204 19.53379 13.82541 23.94667 7.64337 4.41291 13.89084.85989 13.91575-7.93031.02491-8.78296-6.18204-19.52612-13.82541-23.93903zm-.08914 31.43838c-7.4364-4.2934-13.46931-14.74306-13.44506-23.29543.02423-8.54511 6.09657-12.00544 13.53297-7.712 7.43643 4.29343 13.47583 14.74642 13.4516 23.29156-.02426 8.55238-6.10305 12.0093-13.53951 7.71587" fill="#56707b"/></g><g><path d="m9.85384 25.93397.16059.0141c.6252 2.01407 1.50399 4.01949 2.5793 5.9171l-.12412.07049c-1.09111-1.92464-1.98181-3.95828-2.61577-6.00169z" fill="#56707b"/></g><g><path d="m13.3356 31.4423.24492.42405-.73921.42764-.12363.07156-.00651.00391-.24489-.4317.00334-.00211.12412-.07048z" fill="#56707b"/></g><g><path d="m10.84559 25.59128.13474.44242-.96589-.08563-.16082-.01411-.01889-.06058-.12232-.39324.0047.00069.16156.01575z" fill="#56707b"/></g><g><path d="m8.94663 19.55297c.01666 1.91792.34623 3.93251.93202 5.94361l-.16155-.01575c-.59454-2.04039-.92852-4.08296-.94505-6.02865z" fill="#56707b"/></g><g><path d="m15.83259 30.27145.00252-.0026.01507.02969z" fill="#56707b"/></g><g><path d="m20.14944 27.79878c.01298.02244.02592.04444.03912.0666l-4.07074 2.32523 4.40524-1.16422.00854.06994-4.6426 1.22463-.02075.00538-.01806-.02779-.01507-.0297.0152-.01505.22953-.13075z" fill="#56707b"/></g><g><path d="m15.87125 30.33092-.003-.00457.02073-.0054z" fill="#56707b"/></g><g><path d="m22.04709 40.63211-.00343 1.20979-.00057.20076-.34916-.20038.00057-.20196.00343-1.20979z" fill="#56707b"/></g><g><path d="m9.99422 19.7556-.00114.40152-1.04644-.60416-.17458-.1008-.00004-.4022.17576.10148z" fill="#56707b"/></g><g><path d="m9.82275 13.97045.16257.16977.97406 1.01503-.13686.29327-.96994-1.01385-.16021-.1672.08701-.19809z" fill="#56707b"/></g><g><path d="m20.18856 27.86538c.07484.12599.15422.24854.23752.3681l.09698.79291-4.40524 1.16422z" fill="#56707b"/></g><g><path d="m19.42297 25.43915c.01426.59332.18152 1.23178.45745 1.83808l-8.8135-6.65639z" fill="#fff"/></g><g><path d="m19.422 25.36267c.00006.02547.00038.0511.00097.07647l-8.35605-4.81831 8.8135 6.65639c.01847.04054.03746.08098.05689.12127l-.62622-.47259-.05623-.04256-8.65353-6.53132.00336-.03925.00336-.03884.4591.26506z" fill="#56707b"/></g><g><path d="m19.81758 24.03607c-.24899.30082-.3941.74559-.39571 1.31159l-8.35471-4.80866z" fill="#56707b"/></g><g><path d="m19.87253 23.97412c-.01877.01985-.03723.04028-.05495.06195l-8.75042-3.49707-.4591-.26506-.00336.03884-.00313-.04259 8.65561 3.45808.06072.02416z" fill="#56707b"/></g><g><path d="m21.91281 24.01704c1.32565.76537 2.40853 2.63383 2.40421 4.15684-.00434 1.53068-1.09426 2.14428-2.4199 1.37892-1.33204-.76905-2.40847-2.63339-2.40413-4.16408.00431-1.52301 1.08778-2.14073 2.41982-1.37168zm-.01184 4.176c.67255.38829 1.23045.07767 1.23266-.70239.00219-.77279-.55211-1.73283-1.22466-2.12112-.67894-.39198-1.23041-.07036-1.2326.70242-.00221.78006.54567 1.7291 1.2246 2.12109" fill="#fff"/></g><g><path d="m21.90783 25.7783c.48502.28003.87171.95714.87015 1.50701-.00158.55712-.39084.78665-.87586.50662-.48498-.28-.87815-.96126-.87657-1.51839.00156-.54987.39731-.77524.88228-.49524z" fill="#56707b"/></g><g><path d="m24.49977 29.91715 3.21253 6.92271-4.05578-7.02475c.07414-.0428.14355-.09358.20794-.1521z" fill="#fff"/></g><g><path d="m24.55765 29.94007 3.39961 7.32427-.03892.01468-4.29781-7.44431c.0121-.00634.02411-.01273.03599-.0196l4.05578 7.02475-3.21253-6.92271z" fill="#56707b"/></g><g><path d="m24.00134 26.45197 8.75438 6.60893-8.36779-4.83114c.00183-.58081-.1403-1.19102-.38659-1.77779z" fill="#fff"/></g><g><path d="m24.00133 26.45199c.24629.58676.38841 1.19698.38681 1.76295-.00042.03934-.00088.06411-.00161.08833-.01727.5751-.18707 1.01855-.46505 1.30506-.0185.01881-.03761.03723-.05704.0547-.06438.05852-.1338.10929-.20794.1521-.01187.00687-.02389.01326-.03599.01959-.07618.04042-.15328.07142-.23421.09455-.02702.0078-.05451.01455-.08237.02067-.3903.08439-.86049-.00215-1.36681-.2852-.01342-.00735-.02674-.01504-.04026-.02284-.01035-.00598-.02057-.01187-.03092-.01825-.50288-.2972-.96949-.74708-1.35728-1.27504-.0279-.03791-.05548-.07645-.0826-.11511-.08329-.11957-.16266-.24212-.23751-.3681-.0132-.02215-.02614-.04415-.03913-.0666-.07575-.13095-.14657-.2647-.21213-.40028-.01942-.04027-.03842-.08073-.05689-.12127-.27594-.60631-.4432-1.24474-.45745-1.83807-.00059-.02538-.0009-.051-.00097-.07647.00147-.58101.14659-1.02579.39557-1.3266.01772-.02169.03619-.0421.05496-.06195.07411-.07877.15612-.1465.24537-.20157.01192-.00724.02403-.01479.03624-.02146.0939-.05402.1953-.09439.30308-.1218.02696-.00706.0542-.01273.08193-.01813.38575-.07164.84647.01992 1.3416.29852.0108.00624.02154.01204.03232.01826.01299.0075.02593.01537.03882.02322.4982.2961.96043.74064 1.34541 1.26253.02793.03752.05521.07589.08225.11451.10461.14882.20305.30379.29416.46219.01251.02175.02487.04382.03712.06585.08596.15379.16501.3117.23652.47129.01852.04134.03659.08287.054.12442zm-2.10421 3.1008c1.32565.76537 2.41557.15176 2.4199-1.37892.00432-1.52301-1.07856-3.39147-2.40421-4.15684-1.33204-.76905-2.41551-.15133-2.41982 1.37168-.00434 1.53069 1.07209 3.39503 2.40413 4.16408" fill="#56707b"/></g><g><path d="m23.38632 29.92924-.1021.68806-.00949.06397-1.36143 9.17423-.03555-.02456-.03555-.02416.00124-.52946.02254-9.65368c.01035.00638.02057.01228.03092.01825.01351.0078.02684.0155.04026.02284l-.02234 9.66308 1.38915-9.37789c.02784-.00611.05531-.01286.08235-.02068z" fill="#56707b"/></g><g><path d="m9.82435 13.97219c.64761-1.37006 1.57164-2.41457 2.70774-3.0968l.12164.21155c-1.11959.67278-2.02987 1.70224-2.66842 3.0533z" fill="#56707b"/></g><g><path d="m16.11034 16.84147 4.00756 6.93109c-.08924.05508-.17126.1228-.24537.20156l-.55463-.22169z" fill="#fff"/></g><g><path d="m15.90432 16.39506.24592.42584 4.00391 6.93019c-.01223.00667-.02433.01422-.03626.02147l-4.00756-6.93109 3.20756 6.91095-.06072-.02416-3.39179-7.31087z" fill="#56707b"/></g><g><path d="m16.15024 16.8209 4.39056 6.24409-.08356.5643c-.10778.02741-.20919.06779-.30308.1218z" fill="#56707b"/></g><g><path d="m15.90432 16.39506 4.64552 6.60893-.00905.061-4.39055-6.24409z" fill="#56707b"/></g><g><path d="m32.75551 33.13507-8.83401-3.52676c.27798-.2865.44778-.72995.46505-1.30507z" fill="#56707b"/></g><g><path d="m21.90785 14.35392-.02709 9.55576c-.49513-.27859-.95586-.37016-1.3416-.29851z" fill="#ee5550"/></g><g><path d="m21.97898 14.39499 1.31832 10.8187c-.38498-.52188-.84722-.96642-1.34541-1.26253z" fill="#fff"/></g><g><path d="m23.94736 26.32753.55916.42216.06237.04732 8.65239 6.53268-.00331.03524-.00335.03521-8.82807-5.09689c.00073-.02421.00119-.04898.00139-.07349l8.36779 4.83114-8.75438-6.60893c-.01742-.04155-.03549-.08307-.05399-.12444z" fill="#56707b"/></g><g><path d="m27.72577 23.56824-3.21926 3.18145-.55916-.42216c-.0715-.15959-.15055-.31749-.23652-.47129z" fill="#fff"/></g><g><path d="m27.71131 23.49488-4.03758 2.29551c-.09114-.15841-.18957-.31336-.29417-.46219l-.08152-.66809z" fill="#56707b"/></g><g><path d="m27.97395 23.38203.02258.03161-3.42764 3.38336-.06238-.04731 3.21926-3.18145.26425-.15069z" fill="#56707b"/></g><g><path d="m27.95784 23.34689.01611.03514.01606.03552-.26424.15068-4.01494 2.28799c-.01224-.02201-.0246-.04409-.03711-.06584l4.03758-2.29551-4.41327 1.16524-.00902-.07385z" fill="#56707b"/></g><g><path d="m17.07798 10.21676-.06728-.22337c1.47659.16161 3.08558.69929 4.76883 1.64568l-.00057.20036c-1.65891-.93234-3.24547-1.46272-4.70098-1.62267z" fill="#56707b"/></g><g><path d="m26.74889 15.5499-.06658.14732c-1.41329-1.45639-2.94845-2.7045-4.55416-3.65619l.00057-.20036c1.62886.96506 3.18616 2.2312 4.62017 3.70923z" fill="#56707b"/></g><g><path d="m26.7489 15.5499.3233.33405-.00136.00324-.06658.14731-.40135.88838-.32292-.33502.40234-.89065z" fill="#56707b"/></g></g><g><path d="m34.87592 34.12107c-.0166-1.91748-.34617-3.93167-.93202-5.94241l.16507.01535c.59629 2.0418.93145 4.08546.94804 6.03161z" fill="#56707b"/></g><g><path d="m26.812 43.68841-.00006-.00019c.00642.00069.01282.0013.01923.00201z" fill="#56707b"/></g><g><path d="m26.66094 42.1423.40683 1.35096.06775.22485-.0638-.00494-.25971-.02476-.06767-.22481-.40713-1.35194z" fill="#56707b"/></g><g><path d="m26.83117 43.69023.24053.02295c-.07973-.00643-.15998-.01429-.24053-.02295z" fill="#56707b"/></g><g><path d="m27.06776 43.49326c1.43813.1047 2.74097-.15985 3.85304-.76105l.12436.21635c-1.12819.60885-2.45105.87639-3.90964.76956z" fill="#56707b"/></g><g><path d="m30.43296 41.31347.73706 1.27672.12496.21631-.24487.15096-.00494-.00891-.12435-.21635-.73441-1.27843z" fill="#56707b"/></g><g enable-background="new"><g><path d="m34.87478 34.52259.18113.10457c-.05721 3.98707-1.48251 6.8116-3.76093 8.17933l-.12496-.2163c1.11796-.6729 2.02749-1.70238 2.66565-3.05125l.16422.17193.13038-.29659-.16178-.17014c.56059-1.30563.87975-2.88914.90629-4.72155z" fill="#56707b"/></g><g><path d="m33.00015 38.22596.96834 1.01818.16178.17012-.13037.29662-.16424-.17194-.97238-1.02011z" fill="#56707b"/></g></g><g><path d="m33.96904 27.74013-.16148-.0145c-.62545-2.01379-1.504-4.01786-2.57975-5.91454l.12412-.07207c1.16064 2.045 2.0956 4.21245 2.73607 6.38355z" fill="#56707b"/></g><g><path d="m31.11147 21.31227.24492.42445-.00445.00228-.12411.07209-.74079.42834-.24493-.43173.74032-.42174.12443-.07111z" fill="#56707b"/></g><g><path d="m27.00426 16.03451.06656-.14733c1.51169 1.61211 2.87807 3.45812 4.03602 5.42767l-.12441.07112c-1.14117-1.9421-2.48817-3.76197-3.97817-5.35146z" fill="#56707b"/></g><g><path d="m22.04366 41.84192c1.65892.93234 3.24513 1.4625 4.70068 1.62169l.0676.22461c-1.47692-.16207-3.08593-.69947-4.76885-1.64556z" fill="#56707b"/></g><g><path d="m19.3111 26.92591.62622.47259c.06555.13556.13637.26932.21212.40028l-4.0696 2.32427z" fill="#fff"/></g><g><path d="m23.30395 29.94993-1.38915 9.37789.02234-9.66308c.50631.28302.97651.36955 1.36681.28519z" fill="#ee5550"/></g><g><path d="m23.61723 29.83685 4.30111 7.44217.03892-.01468-.03894.02194-4.64359-6.605.00949-.06397 4.38919 6.24491z" fill="#56707b"/></g><g><path d="m35.05701 34.22561.00008.40222-.1823-.10525-1.04634-.6041.00114-.40152 1.04634.60411z" fill="#56707b"/></g><g><path d="m17.21976 36.75119.32285.34266-.39721.89482-.0656.14787-.32934-.34641.06604-.1464z" fill="#56707b"/></g><g><path d="m33.96904 27.74012.11897.38243.02224.07139-.16635-.01529-.96685-.0882-.1412-.45382.97172.089z" fill="#56707b"/></g></g></g><g><g><g><path d="m21.1688 24.86719-.79624.46325-5.98043-6.52271h-.00565l-.1468-.1638h-.00565l-.00565-.0113-.00566-.00551-.00565-.0058.79628-.45745h.00565l.00562.00579z" fill="#ffd69a"/></g><g><path d="m22.7895 28.49835.79603-.4626 5.09075 8.13479-.79603.4626z" fill="#ffd69a"/></g><path d="m20.3752 25.3283.79602-.4626c.20475.02882.42321.10835.64313.23532.33071.19094.66477.48895.96081.88163.49292.64977.77248 1.40465.81037 2.0531l-.79603.46261c-.03788-.64846-.31745-1.40334-.81037-2.05311-.29605-.39269-.6301-.6907-.96081-.88163-.21992-.12697-.43838-.2065-.64312-.23532z" fill="#ffd69a"/><g><path d="m14.21707 18.62132 6.15813 6.70697c.20474.02883.4232.10835.64312.23532.33071.19094.66477.48895.96081.88163.49292.64977.77248 1.40465.81037 2.0531l5.09075 8.13478-6.23957-6.73146c-.20431-.027-.42228-.10602-.64174-.23272-.33117-.1912-.66574-.49086-.9622-.88424-.50012-.65798-.78323-1.43157-.81387-2.08822l-5.02245-8.02893.0073-.02483z" fill="#d9ae6d"/></g></g><g><g><g enable-background="new"><g><path d="m19.54913 26.59438c.21955-.1274.52184-.10814.85594.08592.66503.38173 1.19959 1.31083 1.19959 2.07461-.00319.37863-.13682.64586-.35002.77l.74435-.43427c.21637-.12724.35-.39137.35-.77311.00319-.76363-.53137-1.68961-1.1964-2.07461-.3341-.19095-.63638-.21006-.85593-.08281z" fill="#dde4e7"/></g><g><path d="m20.4065 26.67891c.66431.38354 1.19889 1.31187 1.19672 2.07519-.00216.76332-.54024 1.06994-1.20455.6864s-1.20093-1.31064-1.19876-2.07395.54227-1.07118 1.20659-.68764z" fill="#b0b8bc"/></g></g></g><g><path d="m21.04609 27.62703-.00456 1.6072-.25618-.1479-.78896-1.62977-.00333 1.17234-.23602-.13627.00456-1.6072.23602.13627.80859 1.66942.0034-1.20062z" fill="#fff"/></g></g></g></g></svg>