<svg id="Layer_1" enable-background="new 0 0 50 50" height="512" viewBox="0 0 50 50" width="512" xmlns="http://www.w3.org/2000/svg"><g><g><g><g enable-background="new"><g><path d="m23.90241 37.02214.02075 7.31813 6.98101 4.05692-.02075-7.31813z" fill="#cb4844"/></g><g><path d="m30.88342 41.07906.02075 7.31813 14.39634-8.31174-.02074-7.31812z" fill="#ee5550"/></g><g><path d="m23.90241 37.02214 6.98101 4.05692 14.39635-8.31173-6.98101-4.05692z" fill="#f17572"/><g><path d="m24.56164 37.13977-.20062-.11663 13.9378-8.04725 6.52258 3.79082-.20068.11573-6.3219-3.67419z" fill="#cb4844"/><path d="m24.56164 37.13977 13.73718-7.93152 6.3219 3.67419-13.73757 7.93107z" fill="#ee5550"/></g></g></g></g><g><g><path d="m44.76398 33.48753-.02075 6.39946-.29073.16896.02074-6.39946z" fill="#cb4844"/></g><g><path d="m43.69712 34.10373-.02074 6.39947-.29074.16895.02075-6.39946z" fill="#cb4844"/></g><g><path d="m42.63027 34.71994-.02074 6.39946-.29074.16896.02074-6.39946z" fill="#cb4844"/></g><g><path d="m41.56342 35.33614-.02074 6.39946-.29074.16896.02074-6.39946z" fill="#cb4844"/></g><g><path d="m40.49657 35.95235-.02075 6.39946-.29073.16896.02074-6.39947z" fill="#cb4844"/></g><g><path d="m39.42972 36.56855-.02075 6.39946-.29074.16896.02075-6.39946z" fill="#cb4844"/></g><g><path d="m38.36287 37.18476-.02075 6.39946-.29074.16895.02075-6.39946z" fill="#cb4844"/></g><g><path d="m37.29601 37.80096-.02075 6.39946-.29073.16896.02075-6.39946z" fill="#cb4844"/></g><g><path d="m36.22916 38.41716-.02075 6.39947-.29073.16895.02074-6.39946z" fill="#cb4844"/></g><g><path d="m35.16231 39.03337-.02075 6.39946-.29074.16896.02075-6.39946z" fill="#cb4844"/></g><g><path d="m34.09546 39.64957-.02075 6.39946-.29074.16896.02075-6.39946z" fill="#cb4844"/></g><g><path d="m33.0286 40.26578-.02075 6.39946-.29073.16896.02075-6.39946z" fill="#cb4844"/></g><g><path d="m31.96175 40.88198-.02075 6.39946-.29073.16896.02074-6.39946z" fill="#cb4844"/></g></g><g><g><path d="m24.58042 37.88494.02075 6.39946.29073.16896-.02074-6.39946z" fill="#b4403c"/></g><g><path d="m25.64727 38.50115.02075 6.39946.29074.16896-.02075-6.39947z" fill="#b4403c"/></g><g><path d="m26.71412 39.11735.02075 6.39947.29074.16895-.02075-6.39946z" fill="#b4403c"/></g><g><path d="m27.78098 39.73356.02074 6.39946.29074.16896-.02075-6.39946z" fill="#b4403c"/></g><g><path d="m28.84783 40.34976.02074 6.39946.29074.16896-.02074-6.39946z" fill="#b4403c"/></g><g><path d="m29.91468 40.96597.02075 6.39946.29074.16896-.02075-6.39946z" fill="#b4403c"/></g></g></g><g><g><g enable-background="new"><g><path d="m37.76385 33.68679-.01015 1.04736c-.0011.38856-.25658.77654-.76693 1.07312-1.02728.59699-2.6971.59696-3.73109-.00001-.52032-.30041-.7802-.69458-.77909-1.08815l.01015-1.04736c-.00111.39357.25877.78774.77909 1.08815 1.03399.59697 2.70381.597 3.73109.00001.51035-.29658.76582-.68455.76693-1.07312z" fill="#b0b8bc"/></g><g><path d="m36.98481 32.59867c1.03399.59697 1.03938 1.56425.01211 2.16124-1.02728.59699-2.69711.59696-3.73109-.00001-1.03399-.59697-1.03949-1.5642-.01221-2.16119 1.02728-.59697 2.6972-.59701 3.73119-.00004z" fill="#cfd8dd"/></g></g></g><g><g enable-background="new"><g><path d="m36.00569 33.34277-.0034.35081c-.00037.13015-.08594.2601-.25688.35944-.34408.19996-.90339.19995-1.24971 0-.17428-.10062-.26133-.23265-.26096-.36447l.0034-.35081c-.00037.13182.08667.26385.26096.36447.34633.19995.90563.19996 1.24972 0 .17093-.09934.2565-.22929.25687-.35944z" fill="#b0b8bc"/></g><g><path d="m35.74475 32.97831c.34633.19995.34814.52394.00406.7239-.34409.19996-.90339.19995-1.24972 0s-.34817-.52392-.00409-.72388.90342-.19998 1.24975-.00002z" fill="#dde4e7"/></g></g></g></g><g><g enable-background="new"><g><path d="m19.25956 43.62142-.00544 1.16298-7.25369 4.21539.00544-1.16298z" fill="#b0b8bc"/></g><g><path d="m12.00587 47.83681-.00544 1.16298-7.30094-4.21521.00544-1.16297z" fill="#cfd8dd"/></g><g><path d="m19.25956 43.62142-7.25369 4.21539-7.30094-4.2152 7.25369-4.21539z" fill="#dde4e7"/></g></g></g><g><g><g enable-background="new"><g><path d="m6.06888 36.03017.00054 7.73837.41701.24234-.00054-7.73837z" fill="#778c95"/></g><g><path d="m6.48589 36.27251.00054 7.73837.42126-.24321-.00054-7.73837z" fill="#485f69"/></g><g><path d="m6.06888 36.03017.41701.24234.42126-.24321-.41701-.24234z" fill="#ef4642"/></g></g></g><g><g enable-background="new"><g><path d="m17.09569 36.03017.00054 7.73837.417.24234-.00054-7.73837z" fill="#778c95"/></g><g><path d="m17.51269 36.27251.00054 7.73837.42126-.24321-.00054-7.73837z" fill="#485f69"/></g><g><path d="m17.09569 36.03017.417.24234.42126-.24321-.41701-.24234z" fill="#ef4642"/></g></g></g><g><path d="m11.65456 39.93977.13685.23706-5.21552 3.10178v-.31821z" fill="#485f69"/></g><g><g enable-background="new"><g><path d="m6.57589 36.92111.19429-.11291 5.33181 7.15983-.19429.11291z" fill="#485f69"/></g><g><path d="m6.57589 36.92111 5.33181 7.15983-.13774.07852-5.19322-6.92035z" fill="#778c95"/></g></g></g><g><path d="m12.35513 40.24075-.13684.23705 5.21552 3.10179v-.31821z" fill="#485f69"/></g><g><g enable-background="new"><g><path d="m17.43381 37.22208-.1943-.11291-5.33181 7.15983.19429.11291z" fill="#485f69"/></g><g><path d="m17.43381 37.22208-5.33182 7.15983.13774.07853 5.19322-6.92036z" fill="#40545d"/></g></g></g><g><g enable-background="new"><g><path d="m11.6035 39.22353.00054 7.73836.417.24235-.00054-7.73837z" fill="#778c95"/></g><g><path d="m12.0205 39.46587.00054 7.73837.42126-.24322-.00054-7.73837z" fill="#485f69"/></g><g><path d="m11.6035 39.22353.417.24234.42126-.24322-.41701-.24233z" fill="#ef4642"/></g></g></g><g><g enable-background="new"><g><path d="m12.44303 38.77321-.00127.44944-.42126.24322.00128-.44944z" fill="#b0b8bc"/></g><g><path d="m12.02178 39.01643-.00128.44944-5.95414-3.43203.00128-.44944z" fill="#cfd8dd"/></g><g><path d="m12.44303 38.77321-.42125.24322-5.95414-3.43203.42126-.24321z" fill="#dde4e7"/></g></g></g><g><g enable-background="new"><g><path d="m12.44056 38.77321.00127.44944 5.49183-3.19143-.00127-.44944z" fill="#b0b8bc"/></g><g><path d="m12.0193 38.53.42126.24321 5.49183-3.19143-.42126-.24321z" fill="#dde4e7"/></g></g></g><path d="m17.51113 35.33857-11.02223.00262-.42126.24321h11.86475z" fill="#dde4e7"/><path d="m6.91482 35.58669.42267.24364h9.32758l.43063-.24578z" fill="#cfd8dd"/></g><g><g><g enable-background="new"><g><path d="m6.06888 27.80626.00054 7.73836.41701.24234-.00054-7.73837z" fill="#778c95"/></g><g><path d="m6.48589 28.04859.00054 7.73837.42126-.24321-.00054-7.73837z" fill="#485f69"/></g><g><path d="m6.06888 27.80626.41701.24233.42126-.24321-.41701-.24234z" fill="#ef4642"/></g></g></g><g><g enable-background="new"><g><path d="m17.09569 27.80626.00054 7.73836.417.24234-.00054-7.73837z" fill="#778c95"/></g><g><path d="m17.51269 28.04859.00054 7.73837.42126-.24321-.00054-7.73837z" fill="#485f69"/></g><g><path d="m17.09569 27.80626.417.24233.42126-.24321-.41701-.24234z" fill="#ef4642"/></g></g></g><g><path d="m11.65456 31.71586.13685.23705-5.21552 3.10179v-.31822z" fill="#485f69"/></g><g><g enable-background="new"><g><path d="m6.57589 28.69719.19429-.11291 5.33181 7.15983-.19429.11291z" fill="#485f69"/></g><g><path d="m6.57589 28.69719 5.33181 7.15983-.13774.07852-5.19322-6.92035z" fill="#778c95"/></g></g></g><g><path d="m12.35513 32.01683-.13684.23705 5.21552 3.10179v-.31821z" fill="#485f69"/></g><g><g enable-background="new"><g><path d="m17.43381 28.99817-.1943-.11292-5.33181 7.15984.19429.11291z" fill="#485f69"/></g><g><path d="m17.43381 28.99817-5.33182 7.15983.13774.07852 5.19322-6.92036z" fill="#40545d"/></g></g></g><g><g enable-background="new"><g><path d="m11.6035 30.99961.00054 7.73837.417.24234-.00054-7.73837z" fill="#778c95"/></g><g><path d="m12.0205 31.24195.00054 7.73837.42126-.24322-.00054-7.73836z" fill="#485f69"/></g><g><path d="m11.6035 30.99961.417.24234.42126-.24321-.41701-.24234z" fill="#ef4642"/></g></g></g><g><g enable-background="new"><g><path d="m12.44303 30.5493-.00127.44944-.42126.24321.00128-.44944z" fill="#b0b8bc"/></g><g><path d="m12.02178 30.79251-.00128.44944-5.95414-3.43202.00128-.44945z" fill="#cfd8dd"/></g><g><path d="m12.44303 30.5493-.42125.24321-5.95414-3.43203.42126-.24321z" fill="#dde4e7"/></g></g></g><g><g enable-background="new"><g><path d="m12.44056 30.5493.00127.44944 5.49183-3.19144-.00127-.44944z" fill="#b0b8bc"/></g><g><path d="m12.0193 30.30608.42126.24322 5.49183-3.19144-.42126-.24321z" fill="#dde4e7"/></g></g></g><path d="m17.51113 27.11465-11.02223.00262-.42126.24321h11.86475z" fill="#dde4e7"/><path d="m6.91482 27.36278.42267.24363h9.32758l.43063-.24577z" fill="#cfd8dd"/></g><g><g><g enable-background="new"><g><path d="m6.06888 19.58234.00054 7.73837.41701.24233-.00054-7.73836z" fill="#778c95"/></g><g><path d="m6.48589 19.82468.00054 7.73836.42126-.24321-.00054-7.73837z" fill="#485f69"/></g><g><path d="m6.06888 19.58234.41701.24234.42126-.24322-.41701-.24234z" fill="#ef4642"/></g></g></g><g><g enable-background="new"><g><path d="m17.09569 19.58234.00054 7.73837.417.24233-.00054-7.73836z" fill="#778c95"/></g><g><path d="m17.51269 19.82468.00054 7.73836.42126-.24321-.00054-7.73837z" fill="#485f69"/></g><g><path d="m17.09569 19.58234.417.24234.42126-.24322-.41701-.24234z" fill="#ef4642"/></g></g></g><g><path d="m11.65456 23.49194.13685.23705-5.21552 3.10179v-.31821z" fill="#485f69"/></g><g><g enable-background="new"><g><path d="m6.57589 20.47327.19429-.11291 5.33181 7.15983-.19429.11291z" fill="#485f69"/></g><g><path d="m6.57589 20.47327 5.33181 7.15983-.13774.07853-5.19322-6.92036z" fill="#778c95"/></g></g></g><g><path d="m12.35513 23.79292-.13684.23705 5.21552 3.10179v-.31822z" fill="#485f69"/></g><g><g enable-background="new"><g><path d="m17.43381 20.77425-.1943-.11291-5.33181 7.15983.19429.11291z" fill="#485f69"/></g><g><path d="m17.43381 20.77425-5.33182 7.15983.13774.07852 5.19322-6.92036z" fill="#40545d"/></g></g></g><g><g enable-background="new"><g><path d="m11.6035 22.7757.00054 7.73836.417.24234-.00054-7.73837z" fill="#778c95"/></g><g><path d="m12.0205 23.01803.00054 7.73837.42126-.24321-.00054-7.73837z" fill="#485f69"/></g><g><path d="m11.6035 22.7757.417.24233.42126-.24321-.41701-.24234z" fill="#ef4642"/></g></g></g><g><g enable-background="new"><g><path d="m12.44303 22.32538-.00127.44944-.42126.24321.00128-.44944z" fill="#b0b8bc"/></g><g><path d="m12.02178 22.56859-.00128.44944-5.95414-3.43202.00128-.44944z" fill="#cfd8dd"/></g><g><path d="m12.44303 22.32538-.42125.24321-5.95414-3.43202.42126-.24322z" fill="#dde4e7"/></g></g></g><g><g enable-background="new"><g><path d="m12.44056 22.32538.00127.44944 5.49183-3.19143-.00127-.44944z" fill="#b0b8bc"/></g><g><path d="m12.0193 22.08216.42126.24322 5.49183-3.19143-.42126-.24322z" fill="#dde4e7"/></g></g></g><path d="m17.51113 18.89073-11.02223.00262-.42126.24322h11.86475z" fill="#dde4e7"/><path d="m6.91482 19.13886.42267.24363h9.32758l.43063-.24577z" fill="#cfd8dd"/></g><g><g><g enable-background="new"><g><path d="m6.06888 11.35842.00054 7.73837.41701.24233-.00054-7.73836z" fill="#778c95"/></g><g><path d="m6.48589 11.60076.00054 7.73836.42126-.24321-.00054-7.73837z" fill="#485f69"/></g><g><path d="m6.06888 11.35842.41701.24234.42126-.24322-.41701-.24233z" fill="#ef4642"/></g></g></g><g><g enable-background="new"><g><path d="m17.09569 11.35842.00054 7.73837.417.24233-.00054-7.73836z" fill="#778c95"/></g><g><path d="m17.51269 11.60076.00054 7.73836.42126-.24321-.00054-7.73837z" fill="#485f69"/></g><g><path d="m17.09569 11.35842.417.24234.42126-.24322-.41701-.24233z" fill="#ef4642"/></g></g></g><g><path d="m11.65456 15.26802.13685.23705-5.21552 3.10179v-.31821z" fill="#485f69"/></g><g><g enable-background="new"><g><path d="m6.57589 12.24936.19429-.11292 5.33181 7.15983-.19429.11292z" fill="#485f69"/></g><g><path d="m6.57589 12.24936 5.33181 7.15983-.13774.07852-5.19322-6.92036z" fill="#778c95"/></g></g></g><g><path d="m12.35513 15.569-.13684.23705 5.21552 3.10179v-.31822z" fill="#485f69"/></g><g><g enable-background="new"><g><path d="m17.43381 12.55033-.1943-.11291-5.33181 7.15983.19429.11291z" fill="#485f69"/></g><g><path d="m17.43381 12.55033-5.33182 7.15983.13774.07852 5.19322-6.92035z" fill="#40545d"/></g></g></g><g><g enable-background="new"><g><path d="m11.6035 14.55178.00054 7.73836.417.24234-.00054-7.73837z" fill="#778c95"/></g><g><path d="m12.0205 14.79411.00054 7.73837.42126-.24321-.00054-7.73837z" fill="#485f69"/></g><g><path d="m11.6035 14.55178.417.24233.42126-.24321-.41701-.24234z" fill="#ef4642"/></g></g></g><g><g enable-background="new"><g><path d="m12.44303 14.10146-.00127.44944-.42126.24321.00128-.44944z" fill="#b0b8bc"/></g><g><path d="m12.02178 14.34467-.00128.44944-5.95414-3.43202.00128-.44944z" fill="#cfd8dd"/></g><g><path d="m12.44303 14.10146-.42125.24321-5.95414-3.43202.42126-.24322z" fill="#dde4e7"/></g></g></g><g><g enable-background="new"><g><path d="m12.44056 14.10146.00127.44944 5.49183-3.19143-.00127-.44944z" fill="#b0b8bc"/></g><g><path d="m12.0193 13.85825.42126.24321 5.49183-3.19143-.42126-.24322z" fill="#dde4e7"/></g></g></g><path d="m17.51113 10.66681-11.02223.00262-.42126.24322h11.86475z" fill="#dde4e7"/><path d="m6.91482 10.91494.42267.24363h9.32758l.43063-.24577z" fill="#cfd8dd"/></g><g><g><g enable-background="new"><g><path d="m38.39889 21.52313-.00397.45215-6.55338 3.8084.00397-.45214z" fill="#9aa1a5"/></g><g><path d="m31.84551 24.38092-.00397 1.40276-25.75516-14.86975.00397-.45214z" fill="#b0b8bc"/></g><g><path d="m38.39889 21.52313-6.55338 3.80841-25.75516-14.86975 6.55338-3.80841z" fill="#dde4e7"/></g></g></g></g><g><g><g enable-background="new"><g><path d="m17.84694 9.97557-.48738-.28324-5.03324 2.90595.48738.28323z" fill="#778c95"/></g><g><path d="m15.31837 5.65241-.48738-.28324 2.52857 4.32316.48738.28324z" fill="#485f69"/></g><g><path d="m15.3148 4.39426-.48738-.28324-3.28983 9.50671.48738.28324z" fill="#778c95"/></g><g><path d="m18.63887 10.08243-6.6139 3.81854 3.28983-9.50671zm-3.3205-4.43002-2.50467 7.22911 5.03324-2.90594z" fill="#40545d"/></g></g></g><g><g enable-background="new"><g><path d="m12.39971 6.86433-.48738-.28323-5.03325 2.90594.48739.28324z" fill="#778c95"/></g><g><path d="m9.87114 2.54117-.48739-.28324 2.52858 4.32317.48738.28323z" fill="#485f69"/></g><g><path d="m9.86757 1.28302-.48738-.28323-3.28984 9.5067.48739.28324z" fill="#778c95"/></g><g><path d="m13.19163 6.9712-6.6139 3.81854 3.28983-9.50671zm-3.32049-4.43003-2.50467 7.22911 5.03324-2.90594z" fill="#40545d"/></g></g></g></g><path d="" fill="#778c95"/><path d="m9.86757 1.28302-.36189 1.04577 5.47016 3.04497.33896-.9795z" fill="#778c95"/><path d="m15.15596 4.85328 19.96426 18.57521v9.656" style="fill:none;stroke:#778c95;stroke-width:.86;stroke-linecap:round;stroke-linejoin:round;stroke-miterlimit:10"/></g></svg>