<svg id="Layer_1" enable-background="new 0 0 52 52" height="512" viewBox="0 0 52 52" width="512" xmlns="http://www.w3.org/2000/svg"><g><g><g enable-background="new"><g><path d="m50 32.98075-.0045.94784-23.91951 13.9005.0045-.94783z" fill="#c6a51a"/></g><g><path d="m26.08049 46.88126-.0045.94783-24.07599-13.90028.0045-.94783z" fill="#d6b218"/></g><g><path d="m50 32.98075-23.91951 13.90051-24.07599-13.90028 23.91951-13.90051z" fill="#f1c40f"/></g></g></g><g><path d="m35.3382 17.06286-17.77793-10.3314 9.1797-1.76076 17.77794 10.33141z" fill="#4a4c5c"/><path d="m35.33627 16.38046-17.77793-10.33141 9.81453-1.87814 17.77793 10.3314z" fill="#30b265"/><path d="m26.17352 25.89324-17.77793-10.3314 9.16468-8.83038 17.77793 10.3314z" fill="#4c4f5f"/><path d="m26.20218 43.83301-17.76942-10.32671-.03869-17.94026 17.7791 10.32671z" fill="#ecf0f1"/><path d="m44.55233 33.24496-18.35015 10.58805-.02901-17.94026 9.16536-8.82664 9.1751.8235z" fill="#d4d6d6"/><path d="m44.52326 15.30471v3.80352l-18.3404 10.57847v-3.79395l9.16536-8.82664z" fill="#c4c6c6"/><path d="m25.71603 26.33116-17.77793-10.33141-.17787-.50548 17.77793 10.33141z" fill="#30b265"/><path d="m25.53816 25.82568-17.77793-10.33141 9.79811-9.44522 17.77793 10.33141z" fill="#2ebf69"/><path d="m35.33627 16.38046 9.81453-1.87815-.17442.70888-9.63818 1.85167-9.62217 9.2683-.17787-.50548z" fill="#32a560"/><g><g><path d="m40.33164 24.06283-.61387.35406.0424 10.87004.6164.34224z" fill="#e4e8f4"/><path d="m39.76017 35.28693-7.2097 4.16264.00237.69664 7.82373-4.51704z" fill="#fff"/></g><g><path d="m32.55047 39.44957 7.18216-4.14676-7.21105-4.19068z" fill="#4c7891"/><path d="m39.71777 24.41689-7.20987 4.16298.01368 2.53226 7.21105 4.19068.02754-.01588z" fill="#37617b"/></g></g><g><g><g><path d="m11.64171 23.61618.21903-.12728.00857-1.77679-.21903.12729z" fill="#cad0dd"/><path d="m11.65028 21.8394.21903-.12729-2.63057-1.51876-.21903.12729z" fill="#fff"/><path d="m9.01971 20.32064-.00856 1.77679 2.63056 1.51875.00857-1.77678z" fill="#d4dae8"/><path d="m9.45332 21.85691.0113-1.08505-.27659-.15805-.00561 1.3842z" fill="#cad0dd"/><path d="m9.45332 21.85691-.2709.1411 2.29147 1.32633v-.30477z" fill="#fff"/><path d="m9.46462 20.77186-.0113 1.08505 2.02057 1.16266.00561-1.08504z" fill="#3498db"/><g><path d="m14.27228 25.13494.21903-.12728.00857-1.77679-.21903.12729z" fill="#e4e8f4"/></g><g><path d="m14.28085 23.35816.21903-.12729-2.63057-1.51876-.21903.12729z" fill="#fff"/></g><path d="m11.65028 21.8394-.00857 1.77678 2.63057 1.51876.00857-1.77678z" fill="#d4dae8"/><path d="m12.08389 23.37566.01129-1.08504-.27658-.15805-.00562 1.3842z" fill="#cad0dd"/><path d="m12.08389 23.37566-.27091.14111 2.29147 1.32632v-.30476z" fill="#fff"/><path d="m12.09518 22.29062-.01129 1.08504 2.02056 1.16267.00562-1.08505z" fill="#3498db"/></g></g><g><g><path d="m16.89291 26.64038.21903-.12729.00857-1.77679-.21903.12729z" fill="#cad0dd"/><path d="m16.90148 24.86359.21903-.12729-2.63057-1.51876-.21903.12729z" fill="#fff"/><path d="m14.27091 23.34483-.00857 1.77679 2.63057 1.51876.00857-1.77679z" fill="#d4dae8"/><path d="m14.70452 24.8811.01129-1.08505-.27658-.15805-.00562 1.3842z" fill="#cad0dd"/><path d="m14.70452 24.8811-.27091.1411 2.29147 1.32633v-.30477z" fill="#fff"/><path d="m14.71581 23.79605-.01129 1.08505 2.02056 1.16266.00562-1.08504z" fill="#3498db"/><g><path d="m19.52347 28.15913.21903-.12728.00857-1.77679-.21903.12729z" fill="#e4e8f4"/></g><g><path d="m19.53204 26.38235.21903-.12729-2.63056-1.51876-.21903.12729z" fill="#fff"/></g><path d="m16.90148 24.86359-.00857 1.77679 2.63056 1.51875.00857-1.77678z" fill="#d4dae8"/><path d="m17.33508 26.39985.0113-1.08504-.27658-.15805-.00562 1.3842z" fill="#cad0dd"/><path d="m17.33508 26.39985-.2709.14111 2.29147 1.32632v-.30476z" fill="#fff"/><path d="m17.34638 25.31481-.0113 1.08504 2.02057 1.16267.00561-1.08505z" fill="#3498db"/></g></g><g><g><path d="m22.1441 29.66457.21903-.12729.00857-1.77679-.21903.12729z" fill="#cad0dd"/><path d="m22.15267 27.88778.21903-.12729-2.63056-1.51875-.21903.12728z" fill="#fff"/><path d="m19.52211 26.36902-.00857 1.77679 2.63056 1.51876.00857-1.77679z" fill="#d4dae8"/><path d="m19.95571 27.90529.0113-1.08505-.27658-.15805-.00562 1.3842z" fill="#cad0dd"/><path d="m19.95571 27.90529-.2709.1411 2.29147 1.32633v-.30476z" fill="#fff"/><path d="m19.96701 26.82024-.0113 1.08505 2.02057 1.16267.00561-1.08505z" fill="#3498db"/><g><path d="m24.77467 31.18332.21903-.12728.00857-1.77679-.21903.12729z" fill="#e4e8f4"/></g><g><path d="m24.78324 29.40654.21903-.12729-2.63057-1.51876-.21903.12729z" fill="#fff"/></g><path d="m22.15267 27.88778-.00857 1.77679 2.63057 1.51875.00857-1.77678z" fill="#d4dae8"/><path d="m22.58628 29.42405.0113-1.08505-.27659-.15805-.00561 1.3842z" fill="#cad0dd"/><path d="m22.58628 29.42405-.2709.1411 2.29146 1.32633v-.30477z" fill="#fff"/><path d="m22.59758 28.339-.0113 1.08505 2.02056 1.16266.00562-1.08504z" fill="#3498db"/></g></g><g><g><path d="m11.64171 26.9958.21903-.12729.00857-1.77678-.21903.12728z" fill="#cad0dd"/><path d="m11.65028 25.21901.21903-.12728-2.63057-1.51876-.21903.12729z" fill="#fff"/><path d="m9.01971 23.70026-.00856 1.77678 2.63056 1.51876.00857-1.77679z" fill="#d4dae8"/><path d="m9.45332 25.23652.0113-1.08504-.27659-.15805-.00561 1.38419z" fill="#cad0dd"/><path d="m9.45332 25.23652-.2709.1411 2.29147 1.32633v-.30476z" fill="#fff"/><path d="m9.46462 24.15148-.0113 1.08504 2.02057 1.16267.00561-1.08505z" fill="#3498db"/><g><path d="m14.27228 28.51456.21903-.12729.00857-1.77678-.21903.12728z" fill="#e4e8f4"/></g><g><path d="m14.28085 26.73777.21903-.12728-2.63057-1.51876-.21903.12728z" fill="#fff"/></g><path d="m11.65028 25.21901-.00857 1.77679 2.63057 1.51876.00857-1.77679z" fill="#d4dae8"/><path d="m12.08389 26.75528.01129-1.08505-.27658-.15805-.00562 1.3842z" fill="#cad0dd"/><path d="m12.08389 26.75528-.27091.1411 2.29147 1.32633v-.30476z" fill="#fff"/><path d="m12.09518 25.67023-.01129 1.08505 2.02056 1.16267.00562-1.08505z" fill="#3498db"/></g></g><g><g><path d="m16.89291 30.01999.21903-.12729.00857-1.77678-.21903.12728z" fill="#cad0dd"/><path d="m16.90148 28.2432.21903-.12728-2.63057-1.51876-.21903.12729z" fill="#fff"/><path d="m14.27091 26.72445-.00857 1.77678 2.63057 1.51876.00857-1.77679z" fill="#d4dae8"/><path d="m14.70452 28.26071.01129-1.08504-.27658-.15805-.00562 1.38419z" fill="#cad0dd"/><path d="m14.70452 28.26071-.27091.1411 2.29147 1.32633v-.30476z" fill="#fff"/><path d="m14.71581 27.17567-.01129 1.08504 2.02056 1.16267.00562-1.08505z" fill="#3498db"/><g><path d="m19.52347 31.53875.21903-.12729.00857-1.77678-.21903.12728z" fill="#e4e8f4"/></g><g><path d="m19.53204 29.76196.21903-.12728-2.63056-1.51876-.21903.12728z" fill="#fff"/></g><path d="m16.90148 28.2432-.00857 1.77679 2.63056 1.51876.00857-1.77679z" fill="#d4dae8"/><path d="m17.33508 29.77947.0113-1.08505-.27658-.15804-.00562 1.38419z" fill="#cad0dd"/><path d="m17.33508 29.77947-.2709.1411 2.29147 1.32633v-.30476z" fill="#fff"/><path d="m17.34638 28.69442-.0113 1.08505 2.02057 1.16267.00561-1.08505z" fill="#3498db"/></g></g><g><g><path d="m22.1441 33.04418.21903-.12728.00857-1.77679-.21903.12729z" fill="#cad0dd"/><path d="m22.15267 31.2674.21903-.12729-2.63056-1.51876-.21903.12729z" fill="#fff"/><path d="m19.52211 29.74864-.00857 1.77678 2.63056 1.51876.00857-1.77678z" fill="#d4dae8"/><path d="m19.95571 31.2849.0113-1.08504-.27658-.15805-.00562 1.38419z" fill="#cad0dd"/><path d="m19.95571 31.2849-.2709.1411 2.29147 1.32633v-.30476z" fill="#fff"/><path d="m19.96701 30.19986-.0113 1.08504 2.02057 1.16267.00561-1.08505z" fill="#3498db"/><g><path d="m24.77467 34.56294.21903-.12729.00857-1.77678-.21903.12728z" fill="#e4e8f4"/></g><g><path d="m24.78324 32.78615.21903-.12728-2.63057-1.51876-.21903.12729z" fill="#fff"/></g><path d="m22.15267 31.2674-.00857 1.77678 2.63057 1.51876.00857-1.77679z" fill="#d4dae8"/><path d="m22.58628 32.80366.0113-1.08505-.27659-.15804-.00561 1.38419z" fill="#cad0dd"/><path d="m22.58628 32.80366-.2709.1411 2.29146 1.32633v-.30476z" fill="#fff"/><path d="m22.59758 31.71861-.0113 1.08505 2.02056 1.16267.00562-1.08505z" fill="#3498db"/></g></g><g><g><path d="m11.64171 30.37542.21903-.12729.00857-1.77679-.21903.12729z" fill="#cad0dd"/><path d="m11.65028 28.59863.21903-.12729-2.63057-1.51876-.21903.12729z" fill="#fff"/><path d="m9.01971 27.07987-.00856 1.77679 2.63056 1.51876.00857-1.77679z" fill="#d4dae8"/><path d="m9.45332 28.61614.0113-1.08505-.27659-.15805-.00561 1.3842z" fill="#cad0dd"/><path d="m9.45332 28.61614-.2709.1411 2.29147 1.32633v-.30477z" fill="#fff"/><path d="m9.46462 27.53109-.0113 1.08505 2.02057 1.16266.00561-1.08504z" fill="#3498db"/><g><path d="m14.27228 31.89417.21903-.12728.00857-1.77679-.21903.12729z" fill="#e4e8f4"/></g><g><path d="m14.28085 30.11739.21903-.12729-2.63057-1.51876-.21903.12729z" fill="#fff"/></g><path d="m11.65028 28.59863-.00857 1.77679 2.63057 1.51875.00857-1.77678z" fill="#d4dae8"/><path d="m12.08389 30.1349.01129-1.08505-.27658-.15805-.00562 1.3842z" fill="#cad0dd"/><path d="m12.08389 30.1349-.27091.1411 2.29147 1.32633v-.30477z" fill="#fff"/><path d="m12.09518 29.04985-.01129 1.08505 2.02056 1.16266.00562-1.08505z" fill="#3498db"/></g></g><g><g><path d="m16.89291 33.3996.21903-.12728.00857-1.77679-.21903.12729z" fill="#cad0dd"/><path d="m16.90148 31.62282.21903-.12729-2.63057-1.51875-.21903.12728z" fill="#fff"/><path d="m14.27091 30.10406-.00857 1.77679 2.63057 1.51875.00857-1.77678z" fill="#d4dae8"/><path d="m14.70452 31.64033.01129-1.08505-.27658-.15805-.00562 1.3842z" fill="#cad0dd"/><path d="m14.70452 31.64033-.27091.1411 2.29147 1.32633v-.30477z" fill="#fff"/><path d="m14.71581 30.55528-.01129 1.08505 2.02056 1.16266.00562-1.08504z" fill="#3498db"/><g><path d="m19.52347 34.91837.21903-.12729.00857-1.77679-.21903.12729z" fill="#e4e8f4"/></g><g><path d="m19.53204 33.14158.21903-.12729-2.63056-1.51876-.21903.12729z" fill="#fff"/></g><path d="m16.90148 31.62282-.00857 1.77678 2.63056 1.51877.00857-1.77679z" fill="#d4dae8"/><path d="m17.33508 33.15908.0113-1.08504-.27658-.15805-.00562 1.3842z" fill="#cad0dd"/><path d="m17.33508 33.15908-.2709.14111 2.29147 1.32632v-.30476z" fill="#fff"/><path d="m17.34638 32.07404-.0113 1.08504 2.02057 1.16267.00561-1.08504z" fill="#3498db"/></g></g><g><g><path d="m22.1441 36.4238.21903-.12729.00857-1.77678-.21903.12728z" fill="#cad0dd"/><path d="m22.15267 34.64701.21903-.12728-2.63056-1.51876-.21903.12728z" fill="#fff"/><path d="m19.52211 33.12825-.00857 1.77679 2.63056 1.51876.00857-1.77679z" fill="#d4dae8"/><path d="m19.95571 34.66452.0113-1.08505-.27658-.15805-.00562 1.3842z" fill="#cad0dd"/><path d="m19.95571 34.66452-.2709.1411 2.29147 1.32633v-.30476z" fill="#fff"/><path d="m19.96701 33.57947-.0113 1.08505 2.02057 1.16267.00561-1.08505z" fill="#3498db"/><g><path d="m24.77467 37.94255.21903-.12728.00857-1.77679-.21903.12729z" fill="#e4e8f4"/></g><g><path d="m24.78324 36.16577.21903-.12729-2.63057-1.51875-.21903.12728z" fill="#fff"/></g><path d="m22.15267 34.64701-.00857 1.77679 2.63057 1.51875.00857-1.77678z" fill="#d4dae8"/><path d="m22.58628 36.18328.0113-1.08505-.27659-.15805-.00561 1.3842z" fill="#cad0dd"/><path d="m22.58628 36.18328-.2709.1411 2.29146 1.32633v-.30477z" fill="#fff"/><path d="m22.59758 35.09823-.0113 1.08505 2.02056 1.16266.00562-1.08505z" fill="#3498db"/></g></g></g><g><g><path d="m39.18638 20.7506-.25704-.14937-.01006-2.08508.25704.14937z" fill="#cad0dd"/><path d="m39.17632 18.66552-.25704-.14937 3.08701-1.78229.25704.14937z" fill="#fff"/><path d="m42.26333 16.88323.01005 2.08509-3.087 1.78228-.01006-2.08508z" fill="#d4dae8"/><path d="m41.75449 18.68607-.01326-1.27332.32457-.18548.00659 1.62438z" fill="#cad0dd"/><path d="m41.75449 18.68607.3179.16558-2.68907 1.55647v-.35765z" fill="#fff"/><path d="m41.74123 17.41275.01326 1.27332-2.37117 1.3644-.00659-1.27332z" fill="#3498db"/><g><path d="m36.09937 22.53289-.25704-.14937-.01005-2.08509.25703.14937z" fill="#e4e8f4"/></g><g><path d="m36.08931 20.4478-.25703-.14937 3.087-1.78228.25704.14937z" fill="#fff"/></g><path d="m39.17632 18.66552.01006 2.08508-3.08701 1.78229-.01006-2.08509z" fill="#d4dae8"/><path d="m38.66748 20.46835-.01326-1.27332.32457-.18547.0066 1.62437z" fill="#cad0dd"/><path d="m38.66748 20.46835.31791.16558-2.68908 1.55647v-.35765z" fill="#fff"/><path d="m38.65422 19.19503.01326 1.27332-2.37117 1.3644-.00659-1.27331z" fill="#3498db"/></g></g><g><g><path d="m33.02402 24.29954-.25703-.14938-.01006-2.08508.25704.14937z" fill="#cad0dd"/><path d="m33.01397 22.21445-.25704-.14937 3.08701-1.78229.25703.14938z" fill="#fff"/><path d="m36.10097 20.43217.01006 2.08508-3.08701 1.78229-.01005-2.08509z" fill="#d4dae8"/><path d="m35.59213 22.235-.01326-1.27332.32458-.18547.00659 1.62437z" fill="#cad0dd"/><path d="m35.59213 22.235.31791.16558-2.68907 1.55647v-.35765z" fill="#fff"/><path d="m35.57887 20.96168.01326 1.27332-2.37116 1.3644-.0066-1.27331z" fill="#3498db"/><g><path d="m29.93702 26.08182-.25704-.14937-.01006-2.08509.25704.14938z" fill="#e4e8f4"/></g><g><path d="m29.92696 23.99674-.25704-.14938 3.08701-1.78228.25704.14937z" fill="#fff"/></g><path d="m33.01397 22.21445.01005 2.08509-3.087 1.78228-.01006-2.08508z" fill="#d4dae8"/><path d="m32.50512 24.01728-.01326-1.27331.32458-.18548.00659 1.62438z" fill="#cad0dd"/><path d="m32.50512 24.01728.31791.16559-2.68907 1.55646v-.35764z" fill="#fff"/><path d="m32.49186 22.74397.01326 1.27331-2.37116 1.36441-.00659-1.27332z" fill="#3498db"/></g></g><g><g enable-background="new"><g><path d="m26.02341 43.94213.17185-.10639.00692-2.43871-.17186.10639z" fill="#c44"/></g><g><path d="m26.03032 41.50342.17186-.10639-17.77157-10.26042-.17186.10639z" fill="#e74c3c"/></g><g><path d="m8.25875 31.243-.00691 2.43871 17.77157 10.26042.00691-2.43871z" fill="#d8463f"/></g></g></g><g><g enable-background="new"><g><path d="m26.19536 44.04705-.17185-.10639-.00692-2.43871.17186.10639z" fill="#d8463f"/></g><g><path d="m26.18845 41.60834-.17186-.10639 6.53388-3.77234.17185.1064z" fill="#e74c3c"/></g><g><path d="m32.72232 37.83601.00692 2.43871-6.53388 3.77233-.00691-2.43871z" fill="#c44"/></g></g></g><g><g enable-background="new"><g><path d="m40.55534 35.76108-.17186-.10639-.00691-2.43871.17186.10639z" fill="#d8463f"/></g><g><path d="m40.54843 33.32237-.17186-.10639 4.16073-2.4022.17185.10639z" fill="#e74c3c"/></g><g><path d="m44.70915 30.92017.00691 2.43872-4.16072 2.40219-.00691-2.43871z" fill="#c44"/></g></g></g></g></g></svg>