<svg id="Layer_1" enable-background="new 0 0 52 52" height="512" viewBox="0 0 52 52" width="512" xmlns="http://www.w3.org/2000/svg"><g><g><path d="m5.81759 19.65488 12.97814-7.5421 27.47046 15.86019-.08375 14.4849-12.97814 7.5421-27.47051-15.86018.08334-14.40121z" fill="#f1c40f"/><g><path d="m18.79575 12.11283 27.47046 15.86015-.08376 14.485-12.97817 7.54202-27.47046-15.86016.08377-14.485z" fill="#ecf0f1"/><g><g><g><path d="m46.26621 27.97293-.08376 14.48498-12.97816 7.54208.08376-14.48498z" fill="#d6b218"/></g><path d="m33.28805 35.51501-.08376 14.48498-27.47048-15.86009.08376-14.48498z" fill="#e5bd13"/><g><g><path d="m7.50374 22.94309-.53855-.3109-.07642 9.83595.54307-.2731z" fill="#d6b218"/><path d="m7.43184 32.19504-.54307.2731v.0001l25.1687 14.53066.00453-.5841z" fill="#f1c40f"/><path d="m7.50374 22.94309-.0719 9.25195 24.63016 14.21976.07109-9.25195z" fill="#c6a51a"/><path d="m22.64714 32.75734-.04094 5.26829 8.0614 4.65399.04048-5.26829z" fill="#ecf0f1"/></g></g><g><g><path d="m44.44095 31.31762.53855-.31091.07641 9.83595-.54307-.2731z" fill="#e5bd13"/><path d="m44.51284 40.56956.54307.2731v.0001l-10.56571 6.09962-.00452-.58409z" fill="#f1c40f"/><path d="m44.44095 31.31762.07189 9.25194-10.02716 5.78873-.07109-9.25196z" fill="#c6a51a"/></g></g><path d="m46.26621 27.97293-12.97816 7.54208-27.47048-15.86009 12.97816-7.54209z" fill="#f1c40f"/><g><path d="m18.79701 13.44557v.61607l9.52679 5.50227.53192-.30909z" fill="#eaaa42"/><path d="m8.11855 19.65155.53181.30698 10.14665-5.89689v-.61607z" fill="#d6b218"/><path d="m28.3238 19.56391-9.52679-5.50227-10.14665 5.89689 9.52609 5.50226z" fill="#e5bd13"/></g><g><path d="m30.3586 20.11841v.61607l12.19585 7.03851.53191-.30909z" fill="#c6a51a"/><path d="m19.68015 26.32438.53181.30699 10.14664-5.89689v-.61607z" fill="#d6b218"/><path d="m42.55445 27.77299-12.19585-7.03851-10.14664 5.89689 12.19514 7.03851z" fill="#e5bd13"/></g></g><g><g><g><g><g><path d="m36.3001 40.61438.42732.81324-.26465.15282-.584.33471z" fill="#3f434f"/></g></g></g><g><g><g><path d="m36.46277 41.58044.00456 1.60877-.31934.18439-.00456-1.60876z" fill="#3f434f"/></g></g></g><g><g><g><path d="m38.04911 42.41934.00098.34438-2.20475 1.27309-.00097-.34437z" fill="#3f434f"/></g></g></g><g><g><g><path d="m42.07824 37.37421.00325 1.14624c.00103.36197-.2081.78235-.48574.99554l.00293 1.03313c.19473-.08979.34155-.0814.34185.02669l-.85959.49636c-.00031-.10809.14597-.28571.34058-.42074l-.00293-1.03313c-.12692.05063-.2365.03837-.32209-.01543-.10099-.07512-.16711-.21571-.16768-.41681l-.00325-1.14624z" fill="#3f434f"/></g></g></g><g><g><g><path d="m37.74012 40.84285.00457 1.60876-.31935.1844-.00456-1.60876z" fill="#3f434f"/></g></g></g><g><g><g><path d="m37.57964 39.87553.42514.8145-.26466.15282-.58181.33345z" fill="#3f434f"/></g></g></g></g><g><g><g><g><path d="m39.73486 42.17463c-.05976-.03298-.0948-.10099-.0948-.18653l-.00927-3.44208c-.00206-.15046.1051-.33493.237-.41222l2.99025-1.72619c.07213-.04122.14529-.04638.20402-.0134.05873.03401.09274.10305.09274.18962l.0103 3.44208c0 .15046-.10407.33493-.23184.40913l-2.99026 1.72619c-.04122.0237-.08346.03607-.12262.03607-.03091 0-.05976-.00721-.08552-.02267zm3.18706-5.6578-2.99025 1.7262c-.09274.05359-.17517.19786-.17517.30298l.00927 3.44208c.00103.03813.01236.06596.03091.07729.01958.00824.04843.00618.08243-.0134l2.99025-1.72619c.09068-.05256.17002-.19272.17002-.2999l-.01031-3.44208c0-.03916-.01133-.06905-.02988-.08039-.00618-.00309-.01339-.00515-.02164-.00515-.01544.00002-.03502.0062-.05563.01856z" fill="#3f434f"/></g></g></g><g><g><g><path d="m35.28143 44.74382c-.05873-.03401-.09171-.10203-.09171-.1855l-.00927-3.44208c-.00206-.15149.1051-.33699.237-.41222l2.99025-1.72722c.07213-.04226.14426-.04741.20402-.01237.05976.03401.09274.10305.09274.18859l.0103 3.44311c0 .15355-.10201.3339-.23287.40913l-2.99025 1.72619c-.04019.0237-.08243.03504-.12159.03504-.03195 0-.06183-.00721-.08862-.02267zm3.19015-5.65779-2.99025 1.72722c-.09274.05359-.17517.19684-.17517.30299l.00927 3.44208c0 .0371.01133.06493.02988.07626.01958.00928.05049.00618.08347-.01237l2.98922-1.72619c.09068-.05256.17105-.19271.17105-.29989l-.01031-3.44311c0-.03916-.01133-.06802-.02988-.07935-.00618-.00309-.01443-.00515-.02267-.00515-.01546-.00001-.034.00617-.05461.01751z" fill="#3f434f"/></g></g></g></g></g></g><g><g enable-background="new"><g><path d="m23.27954 37.76012-.00048.1697 6.67169 3.85191.00049-.1697z" fill="#b0b3bd"/></g><g><path d="m23.28098 37.25103-.00048.1697 6.6717 3.8519.00048-.16969z" fill="#b0b3bd"/></g><g><path d="m23.28242 36.74193-.00048.1697 6.6717 3.85191.00048-.1697z" fill="#b0b3bd"/></g><g><path d="m23.28387 36.23299-.00048.16955 6.6717 3.8519.00048-.16954z" fill="#b0b3bd"/></g><g><path d="m23.28531 35.7239-.00048.1697 6.6717 3.8519.00048-.1697z" fill="#b0b3bd"/></g><g><path d="m23.28675 35.2148-.00048.1697 6.6717 3.8519.00048-.16969z" fill="#b0b3bd"/></g><g><path d="m23.2882 34.7057-.00048.1697 6.67169 3.85191.00049-.1697z" fill="#b0b3bd"/></g><g><path d="m23.28964 34.19661-.00048.1697 6.6717 3.85191.00048-.1697z" fill="#b0b3bd"/></g><g><path d="m23.29108 33.68767-.00048.1697 6.6717 3.8519.00048-.1697z" fill="#b0b3bd"/></g></g></g><path d="m8.00311 28.97583-.02238 2.87932 4.40587 2.54359.02212-2.87933z" fill="#ecf0f1"/><g><g enable-background="new"><g><path d="m8.34874 31.71004-.00027.09275 3.64635 2.10522.00026-.09275z" fill="#b0b3bd"/></g><g><path d="m8.34953 31.4318-.00027.09275 3.64635 2.10522.00026-.09275z" fill="#b0b3bd"/></g><g><path d="m8.35031 31.15356-.00026.09275 3.64635 2.10522.00026-.09275z" fill="#b0b3bd"/></g><g><path d="m8.3511 30.87541-.00026.09266 3.64634 2.10522.00027-.09266z" fill="#b0b3bd"/></g><g><path d="m8.35189 30.59717-.00026.09274 3.64634 2.10522.00026-.09275z" fill="#b0b3bd"/></g><g><path d="m8.35268 30.31893-.00026.09274 3.64634 2.10522.00026-.09275z" fill="#b0b3bd"/></g><g><path d="m8.35347 30.04069-.00026.09274 3.64634 2.10522.00026-.09275z" fill="#b0b3bd"/></g><g><path d="m8.35426 29.76245-.00026.09274 3.64634 2.10522.00026-.09275z" fill="#b0b3bd"/></g><g><path d="m8.35505 29.48429-.00027.09275 3.64635 2.10521.00026-.09274z" fill="#b0b3bd"/></g></g></g></g></g><g><g><g><g><path d="m38.84803 8.83624-.05835 15.27984-12.29317 7.14401.05834-15.27984z" fill="#d6b218"/></g><path d="m26.55485 15.98025-.05834 15.27984-11.84072-6.83624.05835-15.27984z" fill="#e5bd13"/><g><g><path d="m15.88875 11.43461-.37516-.21658-.05324 6.8519.37832-.19024z" fill="#d6b218"/><path d="m15.83867 17.87969-.37832.19024v.00007l10.23726 5.91014.00315-.40689z" fill="#f1c40f"/><path d="m15.88875 11.43461-.05008 6.44508 9.86209 5.69356.04953-6.44508z" fill="#c6a51a"/></g><g><path d="m15.88875 19.64642-.37516-.21658-.05324 3.84602.37832-.19025z" fill="#d6b218"/><path d="m15.83867 23.08561-.37832.19025v.00007l10.23726 5.91014.00315-.4069z" fill="#f1c40f"/><path d="m15.88875 19.64642-.05008 3.43919 9.86209 5.69356.04953-3.43919z" fill="#c6a51a"/></g></g><g><g><path d="m37.57652 11.16621.37516-.21658.05323 6.8519-.37831-.19024z" fill="#e5bd13"/><path d="m37.6266 17.61129.37831.19024v.00007l-10.61261 6.13917-.00316-.40689z" fill="#f1c40f"/><path d="m37.57652 11.16621.05008 6.44508-10.23746 5.92259-.04952-6.44508z" fill="#c6a51a"/></g><g><path d="m37.57652 19.37802.37516-.21658.05323 3.84602-.37831-.19025z" fill="#e5bd13"/><path d="m37.6266 22.81721.37831.19025v.00007l-10.61261 6.13917-.00316-.4069z" fill="#f1c40f"/><path d="m37.57652 19.37802.05008 3.43919-10.23746 5.92259-.04952-3.43919z" fill="#c6a51a"/></g></g><path d="m38.84803 8.83624-12.29318 7.14401-11.84071-6.83624 12.29317-7.14401z" fill="#f1c40f"/><g><path d="m27.0082 2.92841v.42916l3.91834 2.26198.37054-.21532z" fill="#c6a51a"/><path d="m16.31704 9.14166.37047.21385 10.32069-5.99794v-.42916z" fill="#d6b218"/><path d="m30.92654 5.61955-3.91834-2.26198-10.32069 5.99794 3.91784 2.26197z" fill="#e5bd13"/></g><g><path d="m32.34401 6.00582v.42917l3.91834 2.26197.37053-.21532z" fill="#c6a51a"/><path d="m21.65285 12.21908.37047.21385 10.32069-5.99794v-.42917z" fill="#d6b218"/><path d="m36.26235 8.69696-3.91834-2.26197-10.32069 5.99794 3.91785 2.26197z" fill="#e5bd13"/></g></g><g><g><g><g><g><path d="m33.30783 14.34662.24256.46161-.15022.08675-.3315.18999z" fill="#3f434f"/></g></g></g><g><g><g><path d="m33.40017 14.89498.00259.91318-.18127.10467-.00259-.91318z" fill="#3f434f"/></g></g></g><g><g><g><path d="m34.30062 15.37116.00055.19548-1.25147.72265-.00056-.19548z" fill="#3f434f"/></g></g></g><g><g><g><path d="m36.58767 12.5074.00184.65064c.00058.20547-.11813.44408-.27572.56509l.00166.58643c.11053-.05096.19387-.04621.19405.01515l-.48793.28175c-.00018-.06135.08286-.16218.19332-.23882l-.00166-.58643c-.07204.02874-.13424.02178-.18283-.00876-.05733-.04264-.09486-.12244-.09518-.23659l-.00185-.65064z" fill="#3f434f"/></g></g></g><g><g><g><path d="m34.12523 14.4763.00259.91318-.18127.10467-.00259-.91318z" fill="#3f434f"/></g></g></g><g><g><g><path d="m34.03414 13.92722.24132.46234-.15023.08674-.33025.18928z" fill="#3f434f"/></g></g></g></g><g><g><g><g><path d="m35.2575 15.23225c-.03392-.01872-.05381-.05733-.05381-.10588l-.00526-1.95382c-.00117-.08541.05966-.19012.13453-.23399l1.69735-.97984c.04094-.0234.08247-.02632.11581-.0076.03334.0193.05264.0585.05264.10764l.00585 1.95382c0 .08541-.05907.19012-.1316.23224l-1.69735.97984c-.0234.01345-.04737.02047-.0696.02047-.01756-.00001-.03393-.0041-.04856-.01288zm1.80907-3.21152-1.69735.97984c-.05264.03042-.09943.11232-.09943.17198l.00526 1.95382c.00058.02164.00702.03744.01755.04387.01111.00468.02749.00351.04679-.00761l1.69735-.97984c.05147-.02983.09651-.10939.09651-.17023l-.00585-1.95382c0-.02223-.00643-.03919-.01696-.04563-.00351-.00175-.0076-.00292-.01228-.00292-.00878.00001-.01989.00352-.03159.01054z" fill="#3f434f"/></g></g></g><g><g><g><path d="m32.7296 16.6906c-.03334-.0193-.05206-.05791-.05206-.1053l-.00526-1.95382c-.00117-.08599.05966-.19129.13453-.23399l1.69735-.98042c.04094-.02398.08189-.02691.11581-.00702.03392.0193.05264.0585.05264.10705l.00585 1.95441c0 .08716-.0579.18953-.13219.23224l-1.69735.97984c-.02281.01345-.04679.01989-.06902.01989-.01813-.00001-.03509-.0041-.0503-.01288zm1.81082-3.21152-1.69735.98042c-.05264.03042-.09943.11173-.09943.17198l.00526 1.95382c0 .02106.00644.03685.01696.04329.01112.00526.02866.00351.04738-.00702l1.69677-.97984c.05147-.02983.09709-.10939.09709-.17023l-.00585-1.95441c0-.02223-.00644-.03861-.01696-.04504-.00351-.00175-.00819-.00292-.01287-.00292-.00877 0-.0193.00351-.031.00995z" fill="#3f434f"/></g></g></g></g></g></g></g></g></svg>