<svg id="Layer_1" enable-background="new 0 0 50 50" height="512" viewBox="0 0 50 50" width="512" xmlns="http://www.w3.org/2000/svg"><g><g><g><g enable-background="new"><g><path d="m49 33.09151-.00181.63855-1.94796 1.13203.00181-.63854z" fill="#765f54"/></g><g><path d="m47.05204 34.22355-.00181.63854-25.08175-14.48095.00181-.63855z" fill="#8b6f62"/></g><g><path d="m49 33.09151-1.94796 1.13204-25.08175-14.48096 1.94797-1.13203z" fill="#a18b82"/></g></g><g enable-background="new"><g><path d="m44.80619 35.52869-.0018.63854-1.9477 1.13188.00182-.63855z" fill="#765f54"/></g><g><path d="m42.85851 36.66056-.00182.63855-25.08174-14.48095.00181-.63855z" fill="#8b6f62"/></g><g><path d="m44.80619 35.52869-1.94768 1.13187-25.08175-14.48095 1.94769-1.13187z" fill="#a18b82"/></g></g><g enable-background="new"><g><path d="m40.61266 37.9657-.00181.63855-1.94796 1.13203.00181-.63855z" fill="#765f54"/></g><g><path d="m38.6647 39.09773-.00181.63855-25.08174-14.48095.00181-.63855z" fill="#8b6f62"/></g><g><path d="m40.61266 37.9657-1.94796 1.13203-25.08174-14.48095 1.94796-1.13203z" fill="#a18b82"/></g></g><g enable-background="new"><g><path d="m36.41885 40.40287-.0018.63855-1.9477 1.13188.00181-.63855z" fill="#765f54"/></g><g><path d="m34.47116 41.53475-.00181.63855-25.08174-14.48095.00181-.63855z" fill="#8b6f62"/></g><g><path d="m36.41885 40.40287-1.94769 1.13188-25.08174-14.48095 1.94769-1.13188z" fill="#a18b82"/></g></g><g enable-background="new"><g><path d="m32.22505 42.84005-.00181.63855-1.94769 1.13187.00181-.63855z" fill="#765f54"/></g><g><path d="m30.27736 43.97192-.00181.63855-25.08175-14.48095.00182-.63855z" fill="#8b6f62"/></g><g><path d="m32.22505 42.84005-1.94769 1.13187-25.08174-14.48095 1.94769-1.13187z" fill="#a18b82"/></g></g><g enable-background="new"><g><path d="m28.03152 45.27707-.00181.63854-1.94797 1.13204.00181-.63855z" fill="#765f54"/></g><g><path d="m26.08355 46.4091-.00181.63855-25.08174-14.48096.00181-.63855z" fill="#8b6f62"/></g><g><path d="m28.03152 45.27707-1.94797 1.13203-25.08174-14.48096 1.94796-1.13203z" fill="#a18b82"/></g></g></g><g><g enable-background="new"><g><path d="m6.05316 33.28912.00181 1.50444 1.94769 1.13188-.00181-1.50444z" fill="#765f54"/></g><g><path d="m8.00085 34.421.00181 1.50444 23.53459-13.5877-.00181-1.50444z" fill="#69534b"/></g><g><path d="m6.05316 33.28912 1.94769 1.13188 23.53459-13.5877-1.94769-1.13188z" fill="#8b6f62"/></g></g><g enable-background="new"><g><path d="m18.6343 40.60049.00181 1.50444 1.9477 1.13187-.00181-1.50444z" fill="#765f54"/></g><g><path d="m20.582 41.73236.00181 1.50444 23.53458-13.5877-.00181-1.50444z" fill="#69534b"/></g><g><path d="m18.6343 40.60049 1.9477 1.13187 23.53458-13.5877-1.94769-1.13188z" fill="#8b6f62"/></g></g></g><g><g enable-background="new"><g><path d="m49 30.95673-.00181.63855-1.94796 1.13203.00181-.63855z" fill="#765f54"/></g><g><path d="m47.05204 32.08876-.00181.63855-25.08175-14.48095.00181-.63855z" fill="#8b6f62"/></g><g><path d="m49 30.95673-1.94796 1.13203-25.08175-14.48095 1.94797-1.13203z" fill="#a18b82"/></g></g><g enable-background="new"><g><path d="m44.80619 33.3939-.0018.63855-1.9477 1.13188.00182-.63855z" fill="#765f54"/></g><g><path d="m42.85851 34.52578-.00182.63855-25.08174-14.48096.00181-.63855z" fill="#8b6f62"/></g><g><path d="m44.80619 33.3939-1.94768 1.13188-25.08175-14.48096 1.94769-1.13187z" fill="#a18b82"/></g></g><g enable-background="new"><g><path d="m40.61266 35.83092-.00181.63855-1.94796 1.13203.00181-.63855z" fill="#765f54"/></g><g><path d="m38.6647 36.96295-.00181.63855-25.08174-14.48095.00181-.63855z" fill="#8b6f62"/></g><g><path d="m40.61266 35.83092-1.94796 1.13203-25.08174-14.48095 1.94796-1.13203z" fill="#a18b82"/></g></g><g enable-background="new"><g><path d="m36.41885 38.26809-.0018.63855-1.9477 1.13187.00181-.63854z" fill="#765f54"/></g><g><path d="m34.47116 39.39997-.00181.63854-25.08174-14.48095.00181-.63855z" fill="#8b6f62"/></g><g><path d="m36.41885 38.26809-1.94769 1.13188-25.08174-14.48096 1.94769-1.13187z" fill="#a18b82"/></g></g><g enable-background="new"><g><path d="m32.22505 40.70527-.00181.63854-1.94769 1.13188.00181-.63855z" fill="#765f54"/></g><g><path d="m30.27736 41.83714-.00181.63855-25.08175-14.48095.00182-.63855z" fill="#8b6f62"/></g><g><path d="m32.22505 40.70527-1.94769 1.13187-25.08174-14.48095 1.94769-1.13188z" fill="#a18b82"/></g></g><g enable-background="new"><g><path d="m28.03152 43.14228-.00181.63855-1.94797 1.13203.00181-.63855z" fill="#765f54"/></g><g><path d="m26.08355 44.27431-.00181.63855-25.08174-14.48095.00181-.63855z" fill="#8b6f62"/></g><g><path d="m28.03152 43.14228-1.94797 1.13203-25.08174-14.48095 1.94796-1.13203z" fill="#a18b82"/></g></g></g></g><g><g><g><g><g enable-background="new"><g><path d="m30.90305 7.04735-.02707 16.57697c-.00293 1.03613-.68418 2.0707-2.04508 2.86157-2.73932 1.59192-7.19205 1.59185-9.94926-.00002-1.3875-.80107-2.08048-1.85216-2.07751-2.90164l.02706-16.57697c-.00296 1.04948.69002 2.10057 2.07752 2.90164 2.75721 1.59188 7.20994 1.59194 9.94926.00002 1.36089-.79087 2.04214-1.82544 2.04508-2.86157z" fill="#ee5550"/></g><g><path d="m28.82568 4.14578c2.75721 1.59187 2.77161 4.17122.03229 5.76314s-7.19205 1.59185-9.94926-.00002c-2.75722-1.59188-2.77188-4.17106-.03255-5.76298s7.1923-1.59201 9.94952-.00014z" fill="#f17572"/><g><path d="m28.62918 4.4833c-1.27291-.7344-2.97531-1.14012-4.78705-1.14012s-3.50633.40571-4.77142 1.14012c-1.19483.69475-1.85078 1.59311-1.85078 2.52999 0 .08579.00782.1796.0234.26577.08594-.85146.72625-1.66365 1.82738-2.30387 1.26509-.73402 2.95968-1.14012 4.77142-1.14012s3.51415.40609 4.78705 1.14012c1.09331.64022 1.74926 1.43677 1.8586 2.28786.01563-.07779.0234-.14833.0234-.2265 0-.94489-.67159-1.8505-1.882-2.55325z" fill="#ee5550"/><path d="m28.62918 4.97519c-1.27291-.73402-2.97531-1.14012-4.78705-1.14012s-3.50633.40609-4.77142 1.14012c-1.10113.64022-1.74144 1.45241-1.82738 2.30387.10934.85871.76534 1.65526 1.8586 2.28786 1.28072.74203 2.97531 1.14812 4.78705 1.14812s3.50633-.40609 4.77142-1.1405c1.10113-.64022 1.74149-1.45241 1.82738-2.3115-.10935-.85108-.7653-1.64763-1.8586-2.28785z" fill="#cb4844"/></g></g></g></g><g><g><path d="m30.90305 12.23152-.02707.95853c-.00293 1.03613-.68418 2.0707-2.04508 2.86157-2.73932 1.59192-7.19205 1.59185-9.94926-.00002-1.3875-.80107-2.08048-1.85216-2.07751-2.90164l.02706-.95853c-.00296 1.04948.69003 2.10057 2.07752 2.90164 2.75721 1.59188 7.20993 1.59194 9.94925.00002 1.36091-.79087 2.04215-1.82544 2.04509-2.86157z" fill="#cb4844"/></g><g><path d="m30.90305 18.96774-.02707.95853c-.00293 1.03613-.68418 2.0707-2.04508 2.86157-2.73932 1.59192-7.19205 1.59185-9.94926-.00002-1.3875-.80107-2.08048-1.85216-2.07751-2.90164l.02706-.95853c-.00296 1.04948.69003 2.10057 2.07752 2.90164 2.75721 1.59188 7.20993 1.59194 9.94925.00002 1.36091-.79087 2.04215-1.82544 2.04509-2.86157z" fill="#cb4844"/></g></g></g><g><g enable-background="new"><g><path d="m29.22487 6.26364-.00371.46071c-.0004.14196-.09374.2837-.28019.39206-.37531.21811-.98537.2181-1.36313 0-.1901-.10975-.28504-.25376-.28464-.39755l.00371-.46071c-.00041.14379.09454.2878.28464.39755.37776.2181.98782.21811 1.36313 0 .18645-.10835.27979-.2501.28019-.39206z" fill="#b0b8bc"/></g><g><path d="m28.94025 5.8661c.37776.2181.37973.57149.00442.7896s-.98537.2181-1.36313 0-.37977-.57147-.00446-.78958.98541-.21812 1.36317-.00002z" fill="#dde4e7"/></g></g></g></g><g><g><g><g enable-background="new"><g><path d="m44.56576 13.83697-.02707 16.57697c-.00293 1.03613-.68418 2.0707-2.04508 2.86157-2.73932 1.59192-7.19205 1.59185-9.94926-.00002-1.3875-.80107-2.08048-1.85216-2.07751-2.90164l.02706-16.57696c-.00296 1.04948.69002 2.10057 2.07752 2.90164 2.75721 1.59187 7.20994 1.59194 9.94926.00002 1.36089-.79088 2.04214-1.82546 2.04508-2.86158z" fill="#56707b"/></g><g><path d="m42.48839 10.9354c2.75721 1.59188 2.77161 4.17122.03228 5.76313-2.73932 1.59192-7.19205 1.59185-9.94926-.00002-2.75721-1.59188-2.77187-4.17106-.03255-5.76298 2.73933-1.59192 7.19231-1.59201 9.94953-.00013z" fill="#778c95"/><g><path d="m42.29189 11.27291c-1.27291-.7344-2.97531-1.14012-4.78705-1.14012s-3.50633.40571-4.77142 1.14012c-1.19483.69475-1.85078 1.59311-1.85078 2.52999 0 .08579.00782.1796.0234.26577.08594-.85146.72625-1.66365 1.82738-2.30387 1.26509-.73402 2.95968-1.14011 4.77142-1.14011s3.51414.40609 4.78705 1.14011c1.09331.64022 1.74926 1.43677 1.8586 2.28786.01564-.07779.0234-.14833.0234-.2265 0-.94488-.67159-1.85049-1.882-2.55325z" fill="#56707b"/><path d="m42.29189 11.7648c-1.27291-.73402-2.97531-1.14011-4.78705-1.14011s-3.50633.40609-4.77142 1.14011c-1.10112.64022-1.74144 1.45241-1.82738 2.30387.10934.85871.76534 1.65526 1.8586 2.28786 1.28072.74203 2.97531 1.14812 4.78705 1.14812s3.50633-.40609 4.77142-1.1405c1.10113-.64022 1.74149-1.45241 1.82738-2.3115-.10935-.85107-.76529-1.64763-1.8586-2.28785z" fill="#485f69"/></g></g></g></g><g><g><path d="m44.56577 19.02113-.02708.95853c-.00293 1.03613-.68418 2.0707-2.04508 2.86157-2.73932 1.59192-7.19205 1.59185-9.94926-.00002-1.38749-.80107-2.08048-1.85216-2.07751-2.90164l.02706-.95853c-.00296 1.04948.69002 2.10057 2.07752 2.90164 2.75721 1.59187 7.20993 1.59194 9.94926.00002 1.3609-.79086 2.04215-1.82544 2.04509-2.86157z" fill="#485f69"/></g><g><path d="m44.56577 25.75736-.02708.95853c-.00293 1.03613-.68418 2.0707-2.04508 2.86157-2.73932 1.59192-7.19205 1.59185-9.94926-.00002-1.38749-.80107-2.08048-1.85216-2.07751-2.90164l.02706-.95853c-.00296 1.04948.69002 2.10057 2.07752 2.90164 2.75721 1.59187 7.20993 1.59194 9.94926.00002 1.3609-.79087 2.04215-1.82545 2.04509-2.86157z" fill="#485f69"/></g></g></g><g><g enable-background="new"><g><path d="m42.88758 13.05326-.00371.46071c-.0004.14196-.09374.2837-.28019.39206-.37531.21811-.98537.2181-1.36314 0-.1901-.10975-.28504-.25376-.28463-.39755l.0037-.46071c-.0004.14379.09454.2878.28464.39755.37776.2181.98782.21811 1.36313 0 .18646-.10836.2798-.2501.2802-.39206z" fill="#b0b8bc"/></g><g><path d="m42.60296 12.65572c.37776.2181.37973.57149.00443.7896-.37531.21811-.98537.2181-1.36313 0-.37777-.2181-.37977-.57147-.00446-.78958.3753-.21811.9854-.21812 1.36316-.00002z" fill="#dde4e7"/></g></g></g></g><g><g><g><g enable-background="new"><g><path d="m19.29454 13.98523-.02707 16.57697c-.00293 1.03613-.68418 2.0707-2.04508 2.86157-2.73932 1.59192-7.19205 1.59185-9.94926-.00002-1.38749-.80107-2.08048-1.85216-2.07751-2.90164l.02706-16.57697c-.00296 1.04948.69002 2.10057 2.07752 2.90164 2.75721 1.59188 7.20994 1.59194 9.94926.00002 1.3609-.79087 2.04214-1.82544 2.04508-2.86157z" fill="#616ab1"/></g><g><path d="m17.21717 11.08366c2.75721 1.59187 2.77161 4.17122.03229 5.76313s-7.19205 1.59185-9.94926-.00002c-2.75722-1.59188-2.77188-4.17106-.03256-5.76298s7.19232-1.592 9.94953-.00013z" fill="#8189c3"/><g><path d="m17.02067 11.42118c-1.27291-.7344-2.97531-1.14011-4.78705-1.14011s-3.50633.40571-4.77142 1.14011c-1.19483.69475-1.85078 1.59311-1.85078 2.52999 0 .08579.00782.1796.0234.26577.08594-.85146.72625-1.66365 1.82738-2.30387 1.26509-.73402 2.95968-1.14011 4.77142-1.14011s3.51415.40609 4.78705 1.14011c1.09331.64022 1.74926 1.43677 1.8586 2.28786.01563-.07779.0234-.14833.0234-.2265 0-.94489-.67158-1.8505-1.882-2.55325z" fill="#616ab1"/><path d="m17.02067 11.91307c-1.27291-.73402-2.97531-1.14011-4.78705-1.14011s-3.50633.40609-4.77142 1.14011c-1.10113.64022-1.74144 1.45241-1.82738 2.30387.10934.85871.76534 1.65526 1.8586 2.28786 1.28072.74203 2.97531 1.14812 4.78705 1.14812s3.50633-.40609 4.77142-1.1405c1.10113-.64022 1.74149-1.45241 1.82738-2.3115-.10934-.85108-.76529-1.64763-1.8586-2.28785z" fill="#525ba8"/></g></g></g></g><g><g><path d="m19.29455 19.1694-.02707.95853c-.00293 1.03613-.68418 2.0707-2.04508 2.86157-2.73932 1.59192-7.19205 1.59185-9.94926-.00002-1.38749-.80107-2.08048-1.85216-2.07751-2.90164l.02706-.95853c-.00296 1.04948.69002 2.10057 2.07752 2.90164 2.75721 1.59188 7.20994 1.59194 9.94926.00002 1.36089-.79087 2.04214-1.82544 2.04508-2.86157z" fill="#525ba8"/></g><g><path d="m19.29455 25.90562-.02707.95853c-.00293 1.03613-.68418 2.0707-2.04508 2.86157-2.73932 1.59192-7.19205 1.59185-9.94926-.00002-1.38749-.80107-2.08048-1.85216-2.07751-2.90164l.02706-.95853c-.00296 1.04948.69002 2.10057 2.07752 2.90164 2.75721 1.59188 7.20994 1.59194 9.94926.00002 1.36089-.79087 2.04214-1.82544 2.04508-2.86157z" fill="#525ba8"/></g></g></g><g><g enable-background="new"><g><path d="m17.61636 13.20152-.00371.46071c-.0004.14196-.09374.2837-.28019.39206-.37531.21811-.98537.2181-1.36313 0-.1901-.10975-.28504-.25376-.28464-.39755l.00371-.46071c-.00041.14379.09454.2878.28464.39755.37776.2181.98782.21811 1.36313 0 .18645-.10835.27979-.2501.28019-.39206z" fill="#b0b8bc"/></g><g><path d="m17.33175 12.80398c.37776.2181.37973.57149.00442.7896s-.98537.2181-1.36313 0-.37977-.57147-.00446-.78958.9854-.21812 1.36317-.00002z" fill="#dde4e7"/></g></g></g></g><g><g><g><g enable-background="new"><g><path d="m32.95725 20.77485-.02708 16.57697c-.00293 1.03613-.68418 2.0707-2.04508 2.86156-2.73932 1.59192-7.19205 1.59185-9.94925-.00002-1.3875-.80107-2.08048-1.85216-2.07751-2.90164l.02706-16.57697c-.00296 1.04948.69002 2.10057 2.07752 2.90164 2.75721 1.59188 7.20994 1.59194 9.94926.00002 1.3609-.79086 2.04215-1.82544 2.04508-2.86156z" fill="#d9ae6d"/></g><g><path d="m30.87988 17.87328c2.75721 1.59187 2.77161 4.17122.03229 5.76314s-7.19205 1.59185-9.94926-.00002c-2.75722-1.59188-2.77188-4.17106-.03255-5.76298s7.19231-1.59202 9.94952-.00014z" fill="#ffd69a"/><g><path d="m30.68338 18.21079c-1.27291-.7344-2.97531-1.14012-4.78705-1.14012s-3.50633.40572-4.77143 1.14012c-1.19483.69475-1.85078 1.59311-1.85078 2.52999 0 .0858.00782.1796.0234.26577.08594-.85146.72625-1.66365 1.82738-2.30387 1.26509-.73402 2.95968-1.14012 4.77142-1.14012s3.51415.40609 4.78705 1.14012c1.09331.64022 1.74926 1.43677 1.8586 2.28786.01563-.07779.0234-.14833.0234-.2265.00001-.94488-.67157-1.85049-1.88199-2.55325z" fill="#d9ae6d"/><path d="m30.68338 18.70268c-1.27291-.73402-2.97531-1.14012-4.78705-1.14012s-3.50633.4061-4.77143 1.14012c-1.10113.64022-1.74144 1.45241-1.82738 2.30387.10934.85871.76534 1.65526 1.8586 2.28786 1.28072.74203 2.97531 1.14812 4.78705 1.14812s3.50633-.4061 4.77142-1.1405c1.10113-.64022 1.74149-1.45241 1.82738-2.3115-.10933-.85107-.76528-1.64763-1.85859-2.28785z" fill="#bf9960"/></g></g></g></g><g><g><path d="m32.95726 25.95901-.02707.95853c-.00293 1.03613-.68418 2.0707-2.04508 2.86157-2.73932 1.59192-7.19205 1.59185-9.94926-.00002-1.3875-.80107-2.08048-1.85216-2.07751-2.90164l.02706-.95853c-.00296 1.04948.69002 2.10057 2.07752 2.90164 2.75721 1.59187 7.20994 1.59194 9.94926.00002 1.36089-.79087 2.04214-1.82544 2.04508-2.86157z" fill="#bf9960"/></g><g><path d="m32.95726 32.69524-.02707.95853c-.00293 1.03613-.68418 2.0707-2.04508 2.86157-2.73932 1.59192-7.19205 1.59185-9.94926-.00002-1.3875-.80107-2.08048-1.85216-2.07751-2.90164l.02706-.95853c-.00296 1.04948.69002 2.10057 2.07752 2.90164 2.75721 1.59187 7.20994 1.59194 9.94926.00002 1.36089-.79087 2.04214-1.82545 2.04508-2.86157z" fill="#bf9960"/></g></g></g><g><g enable-background="new"><g><path d="m31.27908 19.99114-.00371.46071c-.0004.14196-.09374.2837-.28019.39206-.37531.21811-.98537.2181-1.36313 0-.1901-.10975-.28504-.25376-.28464-.39755l.00371-.46071c-.00041.14379.09454.2878.28464.39755.37776.2181.98782.21811 1.36313 0 .18645-.10836.27978-.2501.28019-.39206z" fill="#b0b8bc"/></g><g><path d="m30.99446 19.5936c.37776.2181.37973.57149.00442.7896s-.98537.2181-1.36313 0-.37977-.57147-.00446-.78958.98541-.21812 1.36317-.00002z" fill="#dde4e7"/></g></g></g></g></g></g></svg>