<svg id="Layer_1" enable-background="new 0 0 52 52" height="512" viewBox="0 0 52 52" width="512" xmlns="http://www.w3.org/2000/svg"><g><g><g><g enable-background="new"><g><path d="m13.33451 31.27541-.91185-.5299-.05424-19.13267.91184.52991z" fill="#b27e4b"/></g><g><path d="m13.28026 12.14275-.91184-.52991 16.64993-9.61284.91184.5299z" fill="#bc874d"/></g><g><path d="m29.93019 2.5299.05425 19.13267-16.64993 9.61284-.05425-19.13266z" fill="#a87648"/></g></g></g><g><g><path d="m18.98295 22.01365c.00091.1294-.0009.26101.00221.38979.00187.08431-.0273.13812-.10262.1816-.00129.00074-.00257.00147-.00387.00221-.13381.07496-.26783.15121-.4018.22855-.08933.05157-.17862.10363-.26783.15616-.08326.04807-.1218.03337-.12152-.06421.00147-.25754.00129-.51477-.00054-.77041-.00077-.08446.02515-.14064.10196-.18499.10049-.05722.19932-.11392.29814-.17098.13714-.07918.27428-.15903.41126-.23922.06111-.0353.08486-.02098.08396.04786-.00178.14237.00025.28254.00065.42364z" fill="#fff"/></g><g enable-background="new"><g><path d="m25.309 17.84019c.00282-.00163.00571-.00325.00865-.00486.12833-.07092.25719-.14532.38549-.2194.0413-.02416.08261-.04817.12391-.07202.04129-.02384.08259-.04753.1239-.07105.12115-.06868.12502-.06521.12543.0778.00137.28886.00164.57899.00246.8688-.00082.29773-.00162.59545.00197.89064.00135.09154-.02883.14342-.10868.18951-.10176.05822-.2014.11557-.30102.17308-.26569.1534-.5315.3082-.79704.46151-.11234.06486-.12669.05667-.12761-.06957-.00237-.24899-.00086-.49958-.00489-.74761-.00187-.08427.03096-.13514.09898-.17441.04558-.02558.08932-.0501.13303-.07533.03201-.01848.064-.03734.09587-.05681.11398-.06961.13155-.10194.13118-.23039-.00125-.24583.00025-.49325-.00539-.73655-.00242-.10029.03188-.15607.11376-.20334z" fill="#474b59"/></g><g><path d="m25.05797 13.40151c.07829-.04524.10689-.03135.10607.05855-.00315.25154.00417.49831-.00173.75143-.00244.10703.03396.12491.11732.07679.07308-.0422.14412-.08322.21571-.12392.02713-.01566.05429-.03132.08144-.047.12224-.07058.2447-.1417.36679-.21686.00481-.00298.00945-.00576.01394-.00835.08011-.04625.10783-.02913.10759.07066-.00048.6062.00234 1.2105.0068 1.81385.00019.06834-.02287.10194-.07795.13374-.15254.08684-.30512.17424-.45767.26231-.0837.04832-.16735.09683-.25107.14561-.07088.04093-.09371.01733-.09283-.05922.0015-.25122-.00087-.50022-.00102-.75048.00019-.12687-.01253-.13728-.12377-.07368-.06314.03625-.12623.0726-.18928.109-.12614.07283-.25217.14587-.37846.21878-.14154.08172-.2836.16374-.42513.24481-.21843.12611-.4369.25253-.65548.37872-.10932.06311-.21864.12616-.32806.18912-.11178.06391-.12891.05542-.12981-.06703-.00181-.25311.00022-.50844-.0027-.76029-.0008-.0868.0283-.13677.1043-.18065.07058-.04051.139-.07991.2074-.1194.29726-.17162.59449-.34519.89173-.51835.12445-.07248.12884-.08136.12844-.21994-.00015-.25027.00135-.50085-.00266-.7489-.00133-.08447.02551-.12819.09693-.16942.10483-.05906.20724-.1174.30965-.17653.12119-.06994.24234-.14098.36351-.21335z" fill="#474b59"/></g><g><path d="m26.05387 9.41787c.00204.91215.00517 1.82431.00832 2.73581.00037.13225-.00622.14493-.14334.2241-.39648.23017-.79353.4594-1.19058.68864-.22169.12419-.44335.2516-.66502.37958-.18473.10666-.36947.21372-.55419.3218-.07749.04474-.10032.02297-.10055-.05667-.00156-.94221-.00423-1.88315-.00746-2.82377-.00024-.08351.02942-.12917.10267-.17146.79959-.45784 1.59974-.91981 2.40044-1.38082.14702-.08488.14924-.08109.14971.08279zm-.97729 2.43729c.07446-.04299.10632-.09876.10499-.18941-.00403-.25182-.00529-.50464-.00326-.75996.00138-.09586-.02917-.12452-.11322-.07597-.11379.06697-.2257.13236-.33755.19694-.11186.06458-.22367.12836-.33545.19098-.00121.00068-.00242.00138-.00361.00207-.07985.0461-.10861.10461-.1078.19282.00295.26324.0037.5271.00114.79351-.00032.08011.02921.09029.09329.0533.00148-.00086.00298-.00173.00448-.00263.04647-.02783.09303-.05503.13962-.08193.06987-.04034.1398-.08002.2095-.12026.07017-.03989.14009-.08121.20983-.12148.04358-.02516.08708-.0499.1305-.07374.00257-.00142.00508-.00282.00754-.00424" fill="#474b59"/></g><g><path d="m15.93134 13.75174 11.36555-6.5619.03647 12.86373-11.36555 6.5619c-.01222-4.11145-.02381-8.20174-.03541-12.29201-.00054-.19047-.00052-.38126-.00106-.57172zm3.92985 5.19362c.20321-.11542.40642-.23323.60963-.35055s.40641-.23416.6096-.34958c.07881-.04549.10619-.08956.10484-.17841-.00401-.24741-.00195-.49896-.00266-.7489-.00045-.1582.00776-.17308.14159-.25098.14282-.08246.28562-.16602.42844-.24848.07139-.04122.14281-.08217.21422-.12256.08533-.04923.11662-.10389.1147-.20186-.0062-.24233-.00689-.48912-.00264-.73813.00188-.10058-.02943-.11488-.11015-.06827-.07579.04493-.14683.08618-.21787.1272-.04736.02734-.09472.05459-.14208.08193-.05423.031-.10848.06215-.16265.09342-.05418.03128-.10828.06268-.16224.09415-.07713.04453-.10692.02917-.10608-.06045.00265-.2335-.00075-.46352-.00086-.69542.00056-.18796.0011-.18888-.16405-.09353-.08045.0467-.15745.09132-.23444.13577-.10887.06285-.21772.12539-.32676.18759-.00959.00551-.01856.01064-.02696.01549-.12054.0696-.12003.07837-.11959.23455.0022.57931.00274 1.15894.00658 1.73728.00079.08969-.01711.14567-.10208.19473-.08545.04713-.16196.09074-.23848.13492-.06583.03801-.13168.07644-.19765.11483-.05295.03102-.1059.06204-.15886.09262-.02193.01266-.04387.02526-.0658.03772-.12337.0706-.13938.0602-.14035-.08502-.00072-.25375-.00197-.50655.00005-.76187.00089-.07721-.01958-.09835-.09173-.05669-.41953.24419-.83909.48741-1.25851.72956-.25165.14529-.50325.29021-.75477.43471-.08371.04833-.10674.09649-.10648.18951.00444.59195.00558 1.18644.0034 1.78221-.00026.10068.03308.11088.11198.06532.10275-.06078.20036-.11804.29793-.17438.11984-.06919.23962-.13697.35922-.20253.09032-.05207.11329-.10445.11141-.19869-.0057-.25404-.00146-.51445-.00438-.77008-.00079-.08665.02602-.14708.10096-.19035.04873-.02632.0881-.04826.12749-.071.03936-.02272.07874-.04625.1181-.07057.0873-.05055.11573-.02181.11494.07181-.00312.26294.00312.52046-.00055.78372-.00081.08961.02548.10069.09904.05822.20857-.12236.41177-.24016.61497-.35748s.40639-.23417.60958-.35148m6.13275-3.03496c.05508-.0318.07815-.06541.07795-.13374-.00446-.60335-.00728-1.20765-.0068-1.81385.00024-.09978-.02748-.1169-.10759-.07065-.00449.00259-.00913.00536-.01394.00834-.1221.07516-.24455.14628-.3668.21686-.02715.01568-.05431.03134-.08144.047-.07159.04069-.14264.08171-.21367.12272-.0854.04932-.1218.03143-.11936-.07558.0059-.25313-.00142-.4999.00174-.75144.00081-.08989-.02778-.10379-.10146-.06125-.12579.07506-.24693.14611-.36811.21608-.10241.05912-.20482.11746-.30723.17513-.07384.04261-.10068.08634-.09934.17081.00401.24804.00251.49862.00266.7489.00039.13857-.004.14745-.12844.21992-.29725.17317-.59448.34674-.89173.51836-.0684.03949-.13682.07889-.20522.11814-.07819.04514-.10729.0951-.10649.1819.00291.25184.00088.50718.00269.76029.00091.12245.01803.13093.12981.06704.10943-.06297.21875-.12603.32806-.18914.21858-.1262.43706-.2526.65548-.37871.14152-.08108.28359-.1631.42513-.24482.12629-.07291.25233-.14596.37846-.21879.06306-.03641.12614-.07275.18928-.109.11125-.0636.12397-.05319.12377.07368.00016.25026.00252.49926.00102.75048-.00088.07656.02195.10017.09105.06027.08549-.04982.16914-.09833.25285-.14665.15255-.08806.30514-.17546.45767-.2623m-6.12881 6.9484-.00385-1.35796c-.00459-.45369-.00589-.90993-.00774-1.36583-.00043-.15251-.00098-.15219-.13974-.07207-.22782.13153-.45557.26308-.68326.39454-.56925.32865-1.13825.65684-1.70782.98343-.08976.05182-.12324.10537-.12075.20851.00581.30089.00502.60557.00589.90993.00286.61822.00351 1.23773.00637 1.85657.00038.13288.00865.1357.12374.07053.01819-.0105.03745-.02225.05618-.03306.77481-.4467 1.55018-.89437 2.32445-1.34012.1426-.08235.14645-.08647.14653-.25447m6.05371-10.48101c.13713-.07917.14372-.09185.14334-.2241-.00315-.91151-.00628-1.82367-.00832-2.73581-.00047-.16389-.00269-.16768-.14971-.08279-.8007.46101-1.60085.92298-2.40044 1.38082-.07325.04229-.10291.08795-.10267.17146.00323.94062.00589 1.88156.00746 2.82377.00023.07964.02306.10141.09849.05786.18677-.10927.37151-.21633.55624-.32299.22167-.12798.44334-.25539.66501-.38338.39707-.22544.79412-.45467 1.1906-.68484m-8.73551 2.11649c.0043.9324.00639 1.86734.0074 2.80226.00023.08029.01927.1055.0947.06195.17897-.10497.35581-.20753.53256-.30958.23573-.1361.47134-.27129.70737-.40756.16255-.09132.32523-.18535.48789-.27926.24401-.14088.48803-.28152.73188-.42118.06553-.03783.09961-.07842.09937-.16132-.00374-.93335-.00693-1.86701-.00794-2.80193-.0003-.10665-.02908-.12647-.12348-.07196-.3873.22544-.77242.44859-1.15745.67089-.42155.24338-.84306.48579-1.26472.72757-.08414.04855-.10784.09853-.10758.19012m3.55224-1.15656c-.00025.3012.00336.60017.00035.90298-.00136.09079.02773.10382.09981.0622.102-.06037.19935-.11696.29673-.17319.11684-.06746.2337-.13436.35052-.20181.14484-.08362.15257-.07922.1536.09132.00178.23855.00412.47678.00314.7163-.00033.07742.02354.0967.0925.05689.08461-.04955.16713-.09754.24966-.14519.1474-.0851.29476-.16904.44233-.25181.07376-.04255.08965-.09036.08889-.16415-.00279-.59672-.00504-1.19437-.00398-1.79329.00029-.08706-.02839-.09268-.09527-.05407-.11002.06534-.21422.12603-.31845.1862-.11935.0689-.23874.13714-.35809.20571-.1096.06265-.12617.0551-.12764-.07208-.00292-.25565-.00476-.51191-.00384-.76978.00029-.08487-.02598-.10676-.10037-.06381-.14778.08866-.28961.17301-.43152.25494-.07866.04541-.15736.09009-.2361.13374-.08609.04968-.10781.09987-.10648.18887.00418.29552.00337.59324.00421.89003m1.68991 6.17183c.07819-.04513.10508-.09137.10429-.17937-.0039-.59607-.00669-1.19279-.00564-1.7917.00025-.10076-.03365-.11182-.11274-.06615-.1192.07055-.2338.13805-.34837.2042-.09964.05753-.19927.11405-.29867.16877-.00253.0014-.00503.0028-.00747.00421-.08702.05024-.11185.10862-.10996.20493.00456.24329.00359.4904.00264.7375-.00018.13004-.01995.16365-.13229.22913-.13148.07666-.26276.15344-.39397.2292-.08915.05147-.17827.10246-.26739.15264-.07779.04488-.10674.0914-.1054.18001.0046.25848.00368.52014.00276.7818-.00033.07736.02295.0945.09178.05476.13294-.07865.26372-.15464.3945-.23015s.26157-.15054.39237-.22606c.141-.07887.2821-.16106.42322-.24253.12349-.07129.24698-.14203.37034-.21119m3.6517-1.08913c.00084-.29078.00057-.58091-.0008-.86977-.0004-.14301-.00428-.14647-.12544-.07779-.0413.02353-.08261.04722-.1239.07105-.0413.02384-.08261.04786-.12391.07202-.1283.07408-.25716.14847-.3855.21941-.00294.00161-.00583.00323-.00865.00486-.08188.04728-.11617.10304-.11375.20334.00565.24329.00415.49072.00539.73655.00036.12844-.0172.16077-.13118.23038-.03187.01948-.06386.03834-.09587.05681-.04372.02524-.08746.04976-.13102.07418-.07003.04043-.10286.0913-.101.17556.00404.24804.00253.49862.00489.74761.00092.12624.01528.13442.1276.06957.26555-.15331.53135-.30811.79704-.4615.09963-.05752.19926-.11487.29883-.17182.08205-.04736.11223-.09924.11087-.19077-.00356-.29521-.00276-.59292-.0036-.88969m-1.77695-.4946c-.00085-.29993-.005-.59861-.0009-.9014.00129-.10391-.03143-.11763-.11255-.07079-.00311.00179-.00629.00368-.00953.00565-.09373.05636-.18747.1111-.2812.16522-.11717.06765-.23435.13433-.35153.20198-.11234.06549-.12442.08513-.12461.21518.00031.30088.0017.6005.00256.90108.00138.28886.0044.5774.00246.86817-.00028.09086.02642.10968.10505.06428.00213-.00123.00433-.00251.00655-.00386.11178-.06771.22356-.1335.33535-.19805.11178-.06454.22359-.12783.33537-.19047.00179-.00101.00357-.002.0053-.003.06763-.03905.09371-.07858.09185-.16463-.00579-.29391-.00333-.59259-.00417-.88936m-.43427 2.66428c-.00456-.25089-.00474-.50495-.00215-.75997.00087-.08227-.02458-.10876-.09727-.06679-.38437.22192-.76875.44383-1.15313.66512-.05946.03433-.08416.08029-.0834.14831.0024.26671.00426.53374.00392.80268.00022.07684.02672.09109.09245.05313.00139-.0008.00279-.00161.00421-.00246.08097-.04838.162-.09563.24308-.14244.10808-.0624.21621-.124.32412-.18631.10606-.06124.21227-.12338.31849-.1847.07963-.04598.15928-.0915.23881-.13578.00217-.00121.0043-.00241.0064-.00362.07569-.0437.10581-.09482.10447-.18717m-2.23346 1.32815c-.00078-.27526-.00045-.55051-.00178-.82483-.00019-.06644-.03002-.08091-.08895-.04688-.11647.06787-.23294.13545-.34941.20269-.11646.06724-.23293.13416-.34941.20077-.05837.0337-.08583.07682-.08508.14608.00187.27083.00319.54135.00231.81376-.00031.07331.02576.08356.08308.05046.00278-.00161.00566-.00332.00862-.00516.04251-.02598.08506-.05098.12758-.07553.07085-.0409.14163-.08054.21219-.12128.06368-.03422.12719-.07146.19072-.10814.05294-.03057.10589-.06075.15896-.08994.00174-.00097.00346-.00195.00515-.00293.05367-.03097.08622-.06974.08602-.13907" fill="#fff"/></g><g><path d="m24.18678 16.95363c.08113-.04684.11385-.03312.11256.07079-.00411.3028.00004.60147.00089.9014.00084.29677-.00162.59545.00418.88936.00186.08604-.02421.12558-.09185.16463-.00173.001-.00351.00201-.0053.00301-.11179.06264-.22359.12592-.33537.19046-.1118.06455-.22358.13035-.33535.19805-.00223.00134-.00442.00262-.00656.00386-.07863.0454-.10532.02658-.10504-.06429.00193-.29077-.00109-.57931-.00246-.86817-.00085-.30057-.00226-.60019-.00255-.90108.00018-.13004.01226-.14969.1246-.21518.11717-.06765.23435-.13432.35153-.20197.09374-.05412.18747-.10887.2812-.16523.00323-.00196.00642-.00385.00952-.00564z" fill="#474b59"/></g><g><path d="m25.17831 10.9058c-.00202.25532-.00077.50813.00326.75996.00133.09065-.03053.14642-.10499.18941-.00246.00142-.00496.00282-.00754.00423-.04342.02384-.08692.04858-.1305.07374-.06974.04027-.13966.08159-.20983.1221-.0697.03962-.13963.0793-.2095.11964-.04659.0269-.09315.0541-.13962.08193-.00151.0009-.003.00178-.00448.00263-.06407.03699-.09361.02681-.09329-.0533.00255-.26641.0018-.53027-.00114-.79351-.00081-.08821.02794-.14672.1078-.19282.0012-.00069.00241-.00139.00361-.00207.11179-.06262.22359-.1264.33545-.19098s.22376-.12997.33583-.19594c.08577-.04954.11632-.02089.11494.07498z" fill="#fff"/></g></g><g><path d="m20.42476 15.5738c.00839-.00485.01737-.00999.02696-.01549.10904-.06221.21789-.12475.32676-.1876.07699-.04445.15398-.08906.23109-.13384.1685-.09729.16795-.09634.16739.0916.0001.23192.00351.46193.00086.69543-.00084.08962.02895.10498.10388.06172.05615-.03274.11026-.06414.16444-.09542.05417-.03127.10841-.06243.16265-.09343.04735-.02734.09472-.05459.14208-.08193.07105-.04102.14208-.08226.21312-.12441.08548-.04938.11679-.03508.1149.06549-.00425.24901-.00355.49579.00265.73814.00191.09797-.02937.15262-.11049.19946-.07562.04279-.14704.08374-.21843.12495-.14282.08246-.28562.16603-.42844.24849-.13381.07789-.14203.09278-.14158.25097.00071.24995-.00135.50149.00266.7489.00134.08886-.02603.13293-.10226.17694-.20578.1169-.40899.23374-.61219.35106-.20321.11732-.40641.23511-.60961.35243-.2032.11542-.4064.23226-.60961.34958s-.40641.23512-.60959.35433c-.07893.04562-.10524.03454-.10442-.05507.00367-.26325-.00257-.52077.00055-.7837.0008-.09363-.02764-.12237-.10671-.07672-.0476.02922-.08698.05275-.12634.07547-.03938.02273-.07876.04468-.11814.06583-.08428.04844-.11109.10887-.1103.19552.00292.25564-.0013.51604.00438.77009.00188.09425-.02109.14661-.10528.19522-.12573.06903-.24551.13681-.36535.206-.09758.05634-.19518.1136-.2928.17138-.08404.04856-.11738.03836-.11713-.06231.00219-.59578.00104-1.19027-.00339-1.78222-.00026-.09302.02276-.14117.10648-.1895.25152-.1445.50312-.28941.75477-.4347.41942-.24215.83897-.48537 1.25851-.72957.07215-.04166.09262-.02051.09173.05669-.00203.25533-.00077.50813-.00006.76188.00097.14522.01699.15562.14035.08503.02193-.01248.04387-.02507.0658-.03773.05296-.03057.10591-.0616.15886-.09262.06597-.03838.13181-.07682.19765-.11483.07651-.04417.15303-.08777.2297-.12999.09374-.05397.11164-.10995.11085-.19963-.00384-.57836-.00438-1.15799-.00657-1.73729-.00041-.15623-.00091-.16501.11962-.2346z" fill="#474b59"/></g><g><path d="m18.06785 15.78173c.00148-.25755.00075-.51509-.00272-.76979-.00138-.10093.03375-.16148.11946-.21097.00133-.00077.00266-.00152.00403-.0023.11606-.06503.23215-.13093.34822-.19795.10752-.06207.215-.12509.32251-.1893.00124-.00073.00246-.00145.00365-.00214.07855-.04535.10107-.01775.09968.06671-.00292.13606.0002.26799.00058.4015-.00017.13446-.00198.26988.00114.40245.00184.07169-.02449.11683-.08747.15319-.10865.06185-.21518.12302-.32169.18452-.12946.07474-.25888.14996-.38849.22549-.07367.04256-.09976.0214-.0989-.06141z" fill="#fff"/></g><g><path d="m19.85798 21.50274.00715 1.35605c-.00008.168-.00393.17212-.14654.25446-.77427.44576-1.54965.89342-2.32445 1.34012-.01873.01081-.03799.02256-.05618.03306-.11508.06517-.12336.06235-.12374-.07053-.00286-.61884-.00351-1.23835-.00637-1.85657-.00086-.30436-.00007-.60904-.00589-.90993-.00249-.10314.03099-.15669.12075-.20851.56958-.32659 1.13858-.65477 1.70782-.98343.22769-.13146.45544-.26301.68326-.39454.13877-.08012.13931-.08043.13974.07207.00186.45592.00316.91216.00445 1.36775zm-.97543 1.0823c.07532-.04349.10449-.0973.10262-.1816-.00311-.12877-.0013-.26039-.00167-.3901-.00095-.14079-.00298-.28096-.0012-.42333.0009-.06885-.02285-.08316-.08196-.04903-.13898.08136-.27612.16121-.41327.24039-.09882.05705-.19765.11376-.29638.16997-.07857.04536-.10449.10155-.10371.186.00183.25564.00201.51287.00054.77041-.00028.09758.03826.11228.11944.06541.09129-.05372.18058-.10578.26991-.15736.13397-.07735.26799-.15359.4018-.22855.0013-.00073.00259-.00146.00388-.00221" fill="#474b59"/></g><g><path d="m19.83656 12.97765c.00101.93493.0042 1.86858.00794 2.80193.00023.0829-.03384.12349-.09937.16132-.24385.13965-.48787.2803-.73188.42118-.16266.09391-.32534.18794-.48788.28178-.23603.13375-.47165.26894-.70737.40504-.17675.10205-.35359.20461-.53057.30842-.07742.04471-.09646.0195-.09669-.06079-.00101-.93493-.0031-1.86986-.0074-2.80226-.00026-.09159.02344-.14157.10542-.18891.4238-.24301.84532-.48541 1.26687-.72879.38504-.2223.77015-.44545 1.15498-.66945.09686-.05593.12564-.03612.12595.07053zm-.87387 1.49835c.00139-.08445-.02113-.11206-.09968-.06671-.0012.00069-.00242.00141-.00365.00214-.10751.06421-.215.12723-.32251.1893-.11607.06701-.23215.13291-.34822.19795-.00137.00077-.0027.00153-.00403.0023-.08572.04949-.12084.11005-.11946.21097.00347.25469.0042.51224.00272.76979-.00086.08281.02523.10397.09704.06252.13148-.07663.2609-.15184.39036-.22659.10652-.0615.21305-.12267.31969-.18338.06498-.0375.09131-.08264.08947-.15434-.00312-.13257-.00131-.26798-.00169-.40213.00016-.13383-.00296-.26577-.00004-.40182" fill="#474b59"/></g><g><path d="m21.49979 11.87352c.08008-.04631.10636-.02442.10606.06045-.00092.25786.00092.51412.00384.76977.00147.12718.01804.13473.12763.07209.11936-.06858.23875-.1368.3581-.20572.10423-.06017.20842-.12086.31262-.1828.0727-.04203.10137-.0364.10108.05065-.00105.59893.00119 1.19658.00398 1.7933.00076.07378-.01513.12158-.08544.16218-.15102.08472-.29839.16867-.44578.25377-.08253.04765-.16505.09564-.24767.14403-.07094.04097-.09482.02168-.09448-.05573.00098-.23952-.00135-.47775-.00314-.7163-.00104-.17053-.00877-.17494-.1536-.09132-.11683.06745-.2337.13436-.35053.20181-.09738.05622-.19473.11282-.29211.17049-.07669.04431-.10579.0313-.10443-.0595.00302-.3028-.0006-.60178-.00145-.90234.00026-.29741.00108-.59514-.00308-.89063-.00133-.08901.02039-.1392.10234-.18651.08288-.04601.16158-.09069.24023-.1361.14191-.08194.28374-.1663.42583-.25159z" fill="#474b59"/></g><g><path d="m22.61342 20.42846c.38438-.22128.76875-.4432 1.15313-.66512.07269-.04197.09814-.01547.09727.0668-.00258.25501-.00242.50908.00216.75997.00134.09234-.02879.14346-.10448.18716-.00209.00121-.00423.00241-.00639.00361-.07954.04429-.15919.08981-.23882.13579-.10621.06132-.21242.12346-.31848.1847-.10793.06231-.21605.12391-.32413.18631-.08107.04681-.16211.09406-.24307.14243-.00142.00084-.00282.00166-.00421.00247-.06574.03796-.09224.0237-.09245-.05314.00034-.26893-.00152-.53596-.00392-.80268-.00078-.06801.02392-.11396.08339-.1483z" fill="#474b59"/></g><g><path d="m21.7569 17.84951c.00243-.00141.00493-.00281.00747-.00421.09941-.05474.19903-.11125.29867-.16878.11458-.06615.22916-.13364.34344-.20131.08401-.04854.11792-.03749.11767.06327-.00105.59893.00173 1.19564.00563 1.79171.00079.088-.0261.13424-.10195.17802-.1257.07049-.24919.14124-.37267.21253-.14112.08148-.28223.16366-.42321.24506-.13081.07298-.26159.14802-.39238.22353-.13078.07551-.26157.15149-.39236.22891-.07097.04098-.09424.02383-.09392-.05352.00092-.26166.00184-.52332-.00275-.7818-.00134-.08861.02761-.13514.1007-.17734.0938-.05284.18292-.10384.27208-.15532.13122-.07576.26249-.15253.39398-.22919.11234-.06549.13211-.09909.13228-.22912.00096-.2471.00192-.49421-.00263-.7375-.00191-.09632.02293-.1547.10995-.20494z" fill="#474b59"/></g><g><path d="m21.54179 21.04654c.05892-.03401.08875-.01955.08894.04689.00133.27431.001.54957.00178.82483.0002.06932-.03236.10811-.08603.1391-.00169.00097-.00341.00195-.00514.00291-.05306.0292-.10602.05938-.15896.08994-.06353.03668-.12703.07391-.19072.11067-.07056.0382-.14134.07783-.21219.11874-.04251.02455-.08506.04955-.12758.07553-.00296.00183-.00583.00354-.00862.00516-.05732.03309-.0834.02285-.08308-.05045.00089-.27242-.00043-.54293-.00231-.81376-.00075-.06928.02672-.1124.08508-.14609.11648-.06662.23295-.13354.34941-.20078.11647-.06725.23295-.13482.34942-.20269z" fill="#474b59"/></g></g></g><g opacity=".5"><g enable-background="new"><g><path d="m27.12405 28.06251-8.87263-5.21208-.02262-8.06342 8.87263 5.21208z" fill="#d8463f"/></g><g><path d="m27.10143 19.99909-8.87263-5.21208 6.94248-4.05167 8.87263 5.21208z" fill="#e74c3c"/></g><g><path d="m34.04391 15.94742.02261 8.06342-6.94247 4.05167-.02262-8.06342z" fill="#c44"/></g></g></g><g><g><g enable-background="new"><path d="m27.98381 48.4219-.02892-10.20115c-.00044-.15762-.05586-.2714-.14756-.32469l-2.44998-1.45378c.09169.05328.14711.16707.14756.32468l.02892 10.20115c.00199.69997.25141 1.19373.65221 1.42665l2.44999 1.45378c-.40081-.23291-.65023-.72667-.65222-1.42664z" fill="#384f63"/><path d="m39.40581 14.65834c-.06981-.04075-.1566-.05245-.25546-.02981-2.0742.47695-4.2182 1.35463-6.36146 2.5919-2.14324 1.23728-4.28536 2.83453-6.35542 4.75025-.25998.24074-.43582.62449-.43507.94069l.04189 14.81598c.00075.19621.06942.33998.18376.40639l-2.44999-1.45383c-.11433-.06641-.18301-.21017-.18377-.40639l-.04188-14.81598c-.00076-.3162.17508-.69995.43506-.94069 2.07005-1.91572 4.21217-3.5126 6.35542-4.75025 2.14324-1.23727 4.28763-2.11495 6.36145-2.5919.09887-.02263.18565-.01094.25546.02981z" fill="#3d566e"/><g><path d="m32.78894 17.2205c2.1432-1.23738 4.2874-2.11507 6.36142-2.59199.26044-.05969.43832.11988.43921.43602l.042 14.81588c.0009.31614-.17538.70046-.43531.94065-.35933.33335-.72134.65825-1.08652.97141-.22604.194-.38462.51903-.38386.787l.02894 10.20695c.004 1.41072-.98941 3.13138-2.22169 3.84284l-5.31288 3.06739c-1.22577.7077-2.23244.1343-2.23644-1.27476l-.02892-10.20115c-.00076-.26797-.16042-.40926-.38707-.3419-.36527.10857-.72842.20234-1.08846.28432-.26044.06025-.43807-.11975-.43897-.43589l-.042-14.81588c-.0009-.31614.17513-.70004.43506-.94079 2.07008-1.91566 4.21229-3.51272 6.35549-4.7501z" fill="#354a59"/></g></g></g><g><g enable-background="new"><path d="m30.74702 45.84071c-.04501-.02616-.10735-.02247-.17606.0172l-1.84019 1.06243c-.13671.07892-.24706.27008-.24661.42717l.00132.4683c.00022.07805.02775.13295.07215.15875l.25842.15017c-.04442-.02581-.07193-.0807-.07216-.15874l-.00133-.4683c-.00045-.1571.10991-.34824.24663-.42718l1.84017-1.06243c.06871-.03967.13105-.04336.17607-.01719z" fill="#84dbff"/><g><path d="m30.82938 46.00809c.13648-.0788.2478-.01563.24825.14146l.00133.4683c.00044.15709-.11016.34838-.24663.42718l-1.84019 1.06244c-.13671.07893-.24779.01563-.24823-.14147l-.00133-.46831c-.00045-.15709.10991-.34824.24662-.42717z" fill="#77c6d8"/></g></g><g enable-background="new"><g><path d="m30.73991 43.34754.25841.15017c-.04502-.02616-.10732-.02253-.176.01712l-.25841-.15017c.06867-.03965.13098-.04328.176-.01712z" fill="#ecf0f1"/></g><g><path d="m28.81026 46.0998-.25841-.15017c-.04437-.02579-.07188-.0806-.0721-.15848l.25841.15017c.00022.07788.02772.13269.0721.15848z" fill="#ecf0f1"/></g><g><path d="m28.73816 45.94133-.25841-.15018-.00266-.93688.25842.15017z" fill="#ecf0f1"/></g><g><path d="m28.98213 44.57727-.25842-.15017 1.84019-1.06244.25841.15018z" fill="#ecf0f1"/></g><g><path d="m28.73551 45.00444-.25841-.15017c-.00044-.15682.10991-.34824.24662-.42717l.25841.15017c-.13671.07893-.24707.27035-.24662.42717z" fill="#ecf0f1"/></g><g><path d="m30.82231 43.51484c.13648-.0788.2478-.01536.24825.14146l.00266.93689c.00044.15682-.11016.34811-.24663.42691l-1.84019 1.06244c-.13671.07893-.24779.01563-.24823-.1412l-.00266-.93689c-.00044-.15682.10991-.34824.24662-.42717z" fill="#d4d6d6"/></g></g><g enable-background="new"><g><path d="m30.73333 41.00808.25841.15017c-.04502-.02616-.10735-.02247-.17606.01719l-.25841-.15017c.06871-.03967.13104-.04336.17606-.01719z" fill="#ecf0f1"/></g><g><path d="m28.80369 43.76041-.25841-.15017c-.04441-.02581-.07194-.0807-.07216-.15874l.25841.15017c.00022.07804.02775.13293.07216.15874z" fill="#ecf0f1"/></g><g><path d="m28.73153 43.60167-.25841-.15017-.00266-.93662.25841.15017z" fill="#ecf0f1"/></g><g><path d="m28.97549 42.23788-.25841-.15018 1.84019-1.06243.25841.15017z" fill="#ecf0f1"/></g><g><path d="m28.72887 42.66505-.25841-.15017c-.00044-.15709.10991-.34825.24662-.42717l.25841.15017c-.1367.07892-.24706.27008-.24662.42717z" fill="#ecf0f1"/></g><g><path d="m30.81568 41.17544c.13648-.07879.2478-.01563.24824.14146l.00266.93662c.00044.15709-.11016.34838-.24663.42718l-1.84019 1.06243c-.13671.07893-.24779.01562-.24823-.14147l-.00266-.93661c-.00045-.15709.10991-.34825.24662-.42717z" fill="#d4d6d6"/></g></g><g enable-background="new"><g><path d="m30.7267 38.66869.25841.15017c-.04502-.02617-.10735-.02248-.17606.01719l-.25841-.15017c.06871-.03967.13104-.04335.17606-.01719z" fill="#ecf0f1"/></g><g><path d="m28.79706 41.42102-.25841-.15017c-.04441-.02581-.07194-.0807-.07216-.15875l.25841.15017c.00022.07805.02775.13294.07216.15875z" fill="#ecf0f1"/></g><g><path d="m28.7249 41.26228-.25841-.15018-.00266-.93661.25841.15017z" fill="#ecf0f1"/></g><g><path d="m28.96886 39.89849-.25841-.15017 1.84019-1.06244.25841.15018z" fill="#ecf0f1"/></g><g><path d="m28.72224 40.32566-.25841-.15017c-.00044-.15709.10991-.34824.24662-.42717l.25841.15017c-.1367.07892-.24706.27008-.24662.42717z" fill="#ecf0f1"/></g><g><path d="m30.80905 38.83606c.13648-.0788.2478-.01563.24824.14146l.00266.93661c.00045.15709-.11016.34839-.24663.42718l-1.84019 1.06244c-.13671.07893-.24779.01562-.24823-.14147l-.00266-.93662c-.00045-.15709.10991-.34824.24662-.42717z" fill="#d4d6d6"/></g></g><g enable-background="new"><g><path d="m30.72012 36.3293.25841.15017c-.04502-.02617-.10738-.02249-.17612.01719l-.25841-.15017c.06874-.03968.1311-.04336.17612-.01719z" fill="#ecf0f1"/></g><g><path d="m28.79036 39.08136-.25841-.15017c-.04438-.02579-.07188-.0806-.0721-.15847l.25841.15017c.00022.07787.02773.13268.0721.15847z" fill="#ecf0f1"/></g><g><path d="m28.71826 38.92289-.25841-.15017-.00265-.93689.25841.15017z" fill="#ecf0f1"/></g><g><path d="m28.96223 37.5591-.25841-.15018 1.84019-1.06243.25841.15017z" fill="#ecf0f1"/></g><g><path d="m28.71561 37.986-.25841-.15017c-.00045-.15682.10991-.34798.24662-.4269l.25841.15017c-.13671.07892-.24707.27008-.24662.4269z" fill="#ecf0f1"/></g><g><path d="m30.80242 36.49666c.13648-.07879.2478-.01563.24825.14119l.00266.93689c.00044.15682-.11016.34811-.24663.42691l-1.84019 1.06243c-.13671.07893-.24779.01562-.24823-.1412l-.00267-.93688c-.00044-.15682.10991-.34798.24662-.4269z" fill="#d4d6d6"/></g></g><g enable-background="new"><path d="m33.80989 44.0723c-.04497-.02615-.10729-.02244-.17609.01728l-1.84018 1.06242c-.13647.0788-.24707.27009-.24663.42717l.00132.46831c.00022.07801.02779.13285.07218.15866l.25841.15017c-.0444-.02581-.07195-.08064-.07218-.15865l-.00133-.46831c-.00045-.15709.11016-.34838.24664-.42717l1.84018-1.06243c.0688-.03971.1311-.04342.17609-.01728z" fill="#2ecc71"/><g><path d="m33.89222 44.23975c.13672-.07893.2478-.01563.24825.14146l.00133.46831c.00045.15709-.10991.34824-.24663.42718l-1.84018 1.06243c-.13648.07879-.2478.01563-.24824-.14146l-.00133-.46831c-.00044-.15709.11016-.34838.24663-.42718z" fill="#30b265"/></g></g><g enable-background="new"><g><path d="m33.80277 41.57912.25841.15017c-.04498-.02614-.10726-.02249-.17603.01722l-.25841-.15017c.06877-.03971.13105-.04336.17603-.01722z" fill="#ecf0f1"/></g><g><path d="m31.87313 44.33138-.25841-.15017c-.04437-.02579-.07191-.08055-.07212-.15839l.25841.15017c.00021.07784.02775.13261.07212.15839z" fill="#ecf0f1"/></g><g><path d="m31.801 44.17299-.25841-.15017-.00266-.93689.25842.15018z" fill="#ecf0f1"/></g><g><path d="m32.04498 42.80893-.25841-.15017 1.84017-1.06243.25841.15018z" fill="#ecf0f1"/></g><g><path d="m31.79835 43.23611-.25841-.15017c-.00044-.15682.11016-.34838.24663-.42718l.25841.15017c-.13648.0788-.24708.27036-.24663.42718z" fill="#ecf0f1"/></g><g><path d="m33.88515 41.74651c.13672-.07894.2478-.01536.24825.14146l.00266.93689c.00045.15682-.10991.34797-.24663.42691l-1.84018 1.06242c-.13648.0788-.2478.01563-.24824-.14119l-.00266-.93689c-.00045-.15682.11016-.34838.24663-.42718z" fill="#d4d6d6"/></g></g><g enable-background="new"><g><path d="m33.7962 39.23966.25841.15017c-.04498-.02614-.10729-.02244-.17609.01728l-.25841-.15017c.0688-.03972.1311-.04342.17609-.01728z" fill="#ecf0f1"/></g><g><path d="m31.86655 41.99199-.25841-.15017c-.0444-.02581-.07196-.08065-.07219-.15866l.25841.15017c.00023.07801.02779.13286.07219.15866z" fill="#ecf0f1"/></g><g><path d="m31.79437 41.83334-.25841-.15018-.00266-.93661.25841.15017z" fill="#ecf0f1"/></g><g><path d="m32.03835 40.46954-.25841-.15017 1.84017-1.06243.25841.15017z" fill="#ecf0f1"/></g><g><path d="m31.79171 40.89672-.25841-.15017c-.00044-.15709.11016-.34838.24663-.42718l.25841.15017c-.13647.07879-.24707.27009-.24663.42718z" fill="#ecf0f1"/></g><g><path d="m33.87852 39.40711c.13672-.07893.2478-.01563.24825.14146l.00266.93661c.00044.15709-.10992.34824-.24664.42718l-1.84017 1.06243c-.13648.07879-.2478.01563-.24825-.14146l-.00266-.93662c-.00044-.15709.11016-.34838.24663-.42718z" fill="#d4d6d6"/></g></g><g enable-background="new"><g><path d="m33.78957 36.90027.25841.15017c-.04498-.02614-.10729-.02244-.17609.01728l-.25841-.15017c.0688-.03972.1311-.04342.17609-.01728z" fill="#ecf0f1"/></g><g><path d="m31.85992 39.6526-.25841-.15017c-.0444-.02581-.07197-.08065-.07219-.15866l.25841.15017c.00023.07801.02779.13286.07219.15866z" fill="#ecf0f1"/></g><g><path d="m31.78773 39.49394-.2584-.15017-.00266-.93662.25841.15018z" fill="#ecf0f1"/></g><g><path d="m32.03171 38.13015-.25841-.15017 1.84018-1.06243.25841.15018z" fill="#ecf0f1"/></g><g><path d="m31.78508 38.55733-.25841-.15017c-.00045-.15709.11016-.34838.24663-.42718l.25841.15017c-.13647.0788-.24707.27009-.24663.42718z" fill="#ecf0f1"/></g><g><path d="m33.87189 37.06773c.13672-.07894.2478-.01563.24825.14146l.00266.93662c.00045.15709-.10991.34825-.24663.42718l-1.84018 1.06242c-.13648.0788-.2478.01563-.24825-.14146l-.00266-.93661c-.00044-.15709.11016-.34838.24663-.42718z" fill="#d4d6d6"/></g></g><g enable-background="new"><g><path d="m33.78299 34.56088.25841.15017c-.04499-.02615-.10732-.02246-.17614.01728l-.25841-.15017c.06882-.03974.13115-.04342.17614-.01728z" fill="#ecf0f1"/></g><g><path d="m31.85323 37.31294-.25841-.15017c-.04437-.02578-.07191-.08055-.07213-.15839l.25841.15017c.00022.07784.02776.13261.07213.15839z" fill="#ecf0f1"/></g><g><path d="m31.7811 37.15456-.25841-.15018-.00265-.93688.25841.15017z" fill="#ecf0f1"/></g><g><path d="m32.02508 35.79076-.25841-.15017 1.84018-1.06243.25841.15017z" fill="#ecf0f1"/></g><g><path d="m31.77845 36.21767-.25841-.15017c-.00044-.15682.11016-.34812.24663-.42691l.25841.15017c-.13648.07879-.24708.27009-.24663.42691z" fill="#ecf0f1"/></g><g><path d="m33.86526 34.72833c.13671-.07893.2478-.01563.24824.14119l.00266.93689c.00044.15682-.10992.34797-.24664.42691l-1.84018 1.06242c-.13648.0788-.2478.01563-.24824-.14119l-.00266-.93689c-.00044-.15682.11016-.34812.24663-.42691z" fill="#d4d6d6"/></g></g><g enable-background="new"><path d="m36.87275 42.30397c-.04499-.02614-.10729-.02244-.17609.01728l-1.83996 1.0623c-.1367.07893-.24706.27008-.2466.42717l.00132.4683c.00021.07805.02775.13294.07217.15874l.2584.15017c-.04441-.02581-.07193-.0807-.07217-.15874l-.00132-.46832c-.00045-.15709.10992-.34824.24663-.42717l1.83996-1.06231c.06878-.03971.13108-.04341.17607-.01727z" fill="#e74c3c"/><g><path d="m36.95507 42.47142c.13671-.07893.24779-.01563.24823.14147l.00133.46831c.00045.15709-.10991.34824-.24662.42717l-1.83996 1.0623c-.13671.07893-.24779.01563-.24823-.14147l-.00133-.46831c-.00044-.15709.10992-.34824.24662-.42717z" fill="#c44"/></g></g><g enable-background="new"><g><path d="m36.86561 39.81079.25841.15017c-.04498-.02614-.10725-.0225-.17601.0172l-.25842-.15016c.06876-.0397.13104-.04335.17602-.01721z" fill="#ecf0f1"/></g><g><path d="m34.93618 42.563-.25841-.15017c-.04437-.02579-.07188-.0806-.0721-.15847l.25841.15017c.00022.07787.02772.13268.0721.15847z" fill="#ecf0f1"/></g><g><path d="m34.86408 42.40452-.25841-.15017-.00265-.93688.2584.15017z" fill="#ecf0f1"/></g><g><path d="m35.10804 41.04047-.2584-.15018 1.83995-1.06229.25842.15016z" fill="#ecf0f1"/></g><g><path d="m34.86142 41.46764-.25841-.15017c-.00045-.15682.10991-.34824.24662-.42717l.25841.15017c-.1367.07892-.24706.27035-.24662.42717z" fill="#ecf0f1"/></g><g><path d="m36.94801 39.97816c.1367-.07893.24779-.01535.24823.14147l.00266.93689c.00045.15682-.10991.34797-.24662.4269l-1.83996 1.0623c-.1367.07893-.24779.01563-.24823-.1412l-.00266-.93689c-.00044-.15682.10992-.34824.24662-.42717z" fill="#d4d6d6"/></g></g><g enable-background="new"><g><path d="m36.85904 37.47132.25841.15017c-.04498-.02614-.10728-.02244-.17607.01728l-.25841-.15017c.06878-.03971.13108-.04341.17607-.01728z" fill="#ecf0f1"/></g><g><path d="m34.92961 40.22361-.25841-.15017c-.04441-.02581-.07194-.0807-.07216-.15874l.25841.15017c.00022.07804.02775.13293.07216.15874z" fill="#ecf0f1"/></g><g><path d="m34.85745 40.06487-.25841-.15017-.00266-.93662.25841.15017z" fill="#ecf0f1"/></g><g><path d="m35.10141 38.70108-.25841-.15018 1.83996-1.0623.25841.15017z" fill="#ecf0f1"/></g><g><path d="m34.85479 39.12825-.25841-.15017c-.00045-.15709.10992-.34825.24662-.42717l.25841.15017c-.1367.07892-.24706.27008-.24662.42717z" fill="#ecf0f1"/></g><g><path d="m36.94137 37.63877c.1367-.07893.24779-.01562.24823.14147l.00266.93661c.00044.15709-.10992.34824-.24662.42717l-1.83996 1.0623c-.1367.07893-.24778.01562-.24823-.14147l-.00266-.93661c-.00045-.15709.10991-.34825.24662-.42717z" fill="#d4d6d6"/></g></g><g enable-background="new"><g><path d="m36.8524 35.13194.25841.15017c-.04498-.02614-.10728-.02244-.17607.01728l-.25841-.15017c.06879-.03972.13109-.04342.17607-.01728z" fill="#ecf0f1"/></g><g><path d="m34.92297 37.88422-.25841-.15017c-.04441-.02581-.07194-.08071-.07216-.15875l.25841.15017c.00023.07805.02776.13294.07216.15875z" fill="#ecf0f1"/></g><g><path d="m34.85081 37.72548-.2584-.15018-.00266-.93662.25841.15018z" fill="#ecf0f1"/></g><g><path d="m35.09478 36.36169-.25841-.15018 1.83996-1.06229.25841.15017z" fill="#ecf0f1"/></g><g><path d="m34.84816 36.78886-.25841-.15017c-.00045-.15709.10991-.34824.24662-.42717l.25841.15017c-.1367.07892-.24707.27008-.24662.42717z" fill="#ecf0f1"/></g><g><path d="m36.93474 35.29939c.13671-.07893.24779-.01562.24823.14147l.00266.93662c.00045.15709-.10991.34824-.24662.42717l-1.83996 1.0623c-.13671.07893-.24779.01562-.24823-.14147l-.00266-.93662c-.00045-.15709.10992-.34824.24662-.42717z" fill="#d4d6d6"/></g></g><g enable-background="new"><g><path d="m36.84583 32.79255.25841.15017c-.04498-.02614-.10731-.02246-.17613.01728l-.25841-.15017c.06882-.03974.13114-.04343.17613-.01728z" fill="#ecf0f1"/></g><g><path d="m34.91628 35.54456-.25841-.15017c-.04437-.02579-.07188-.0806-.0721-.15848l.25841.15017c.00023.07788.02773.13269.0721.15848z" fill="#ecf0f1"/></g><g><path d="m34.84418 35.38609-.25841-.15018-.00265-.93688.25841.15017z" fill="#ecf0f1"/></g><g><path d="m35.08815 34.0223-.25841-.15018 1.83996-1.0623.25841.15018z" fill="#ecf0f1"/></g><g><path d="m34.84153 34.4492-.25841-.15017c-.00045-.15682.10991-.34798.24662-.4269l.25841.15017c-.13671.07892-.24707.27008-.24662.4269z" fill="#ecf0f1"/></g><g><path d="m36.92811 32.96c.1367-.07893.24779-.01562.24823.1412l.00266.93689c.00045.15682-.10991.34797-.24662.4269l-1.83996 1.0623c-.1367.07893-.24779.01562-.24823-.1412l-.00266-.93689c-.00044-.15682.10992-.34798.24662-.4269z" fill="#d4d6d6"/></g></g></g><g><g><path d="m37.74583 29.24218-.03361-11.85769-.53944.31145.03185 11.24034z" fill="#384f63"/><path d="m37.20463 28.93628-9.28863 5.3628.00175.61735 9.82808-5.67425z" fill="#3d566e"/></g><path d="m37.17278 17.69594-9.28865 5.3628.03187 11.24034 9.28863-5.3628z" fill="#84dbff"/></g></g><g><g><path d="m31.12968 28.72664c.00049.06909-.00048.13937.00118.20813.001.04502-.01458.07375-.0548.09697-.00069.0004-.00138.00079-.00207.00118-.07145.04003-.14301.08074-.21455.12204-.0477.02754-.09538.05534-.14301.08339-.04446.02567-.06504.01782-.06489-.03429.00078-.13752.00069-.27488-.00029-.41138-.00041-.0451.01343-.0751.05444-.09878.05366-.03056.10643-.06083.1592-.0913.07323-.04228.14646-.08492.2196-.12774.03263-.01885.04531-.01121.04483.02556-.00094.07603.00015.15087.00036.22622z" fill="#fff"/></g><g enable-background="new"><g><path d="m34.50761 26.49813c.00151-.00087.00305-.00174.00462-.0026.06852-.03787.13733-.07759.20584-.11715.02206-.0129.04411-.02572.06617-.03846.02205-.01273.0441-.02538.06616-.03794.06469-.03667.06676-.03482.06697.04154.00073.15424.00088.30917.00132.46392-.00043.15898-.00087.31796.00105.47558.00072.04888-.0154.07658-.05803.10119-.05434.03109-.10754.06171-.16074.09242-.14187.08191-.2838.16457-.42559.24643-.05999.03463-.06765.03026-.06814-.03715-.00126-.13295-.00046-.26676-.00261-.3992-.001-.045.01653-.07216.05285-.09313.02434-.01366.0477-.02675.07103-.04023.0171-.00987.03417-.01994.05119-.03033.06086-.03717.07024-.05443.07005-.12302-.00067-.13127.00013-.26338-.00288-.39329-.0013-.05356.01702-.08334.06074-.10858z" fill="#474b59"/></g><g><path d="m34.37357 24.128c.04181-.02416.05708-.01674.05664.03126-.00168.13432.00222.26608-.00092.40125-.0013.05715.01813.0667.06264.041.03902-.02254.07696-.04444.11518-.06617.01448-.00836.02898-.01672.04349-.02509.06527-.03769.13066-.07566.19586-.1158.00257-.00159.00505-.00308.00744-.00446.04278-.0247.05758-.01555.05745.03773-.00026.3237.00125.64637.00364.96854.0001.03649-.01221.05443-.04163.07141-.08145.04637-.16292.09304-.24438.14007-.04469.0258-.08936.0517-.13406.07775-.03785.02186-.05004.00925-.04957-.03162.0008-.13415-.00046-.2671-.00055-.40074.00011-.06775-.00669-.0733-.06609-.03934-.03371.01935-.0674.03876-.10107.0582-.06736.03889-.13465.07789-.20209.11683-.07558.04363-.15144.08743-.22701.13072-.11663.06734-.23329.13484-.35001.20223-.05837.0337-.11674.06737-.17517.10099-.05969.03412-.06884.02959-.06932-.03579-.00097-.13516.00012-.27149-.00144-.40597-.00043-.04635.01511-.07303.05569-.09646.03769-.02163.07422-.04267.11075-.06376.15873-.09164.31744-.18432.47616-.27678.06645-.0387.06879-.04344.06858-.11744-.00008-.13363.00072-.26744-.00142-.39989-.00071-.0451.01362-.06845.05175-.09047.05597-.03154.11066-.06269.16534-.09426.06472-.03736.12941-.0753.19412-.11394z" fill="#474b59"/></g><g><path d="m34.90535 22.00085c.00109.48706.00276.97413.00444 1.46085.0002.07062-.00332.07739-.07654.11966-.21171.1229-.42372.24531-.63573.36771-.11837.06631-.23673.13435-.3551.20269-.09864.05695-.19729.11412-.29592.17183-.04137.02389-.05357.01227-.05369-.03026-.00084-.50311-.00226-1.00555-.00398-1.50781-.00013-.04459.01571-.06897.05482-.09155.42696-.24447.85421-.49115 1.28176-.73732.0785-.04533.07969-.04331.07994.0442zm-.52185 1.30144c.03976-.02295.05677-.05273.05606-.10114-.00216-.13446-.00282-.26946-.00174-.40579.00074-.05119-.01558-.06649-.06046-.04057-.06076.03576-.12051.07067-.18024.10516-.05973.03448-.11943.06854-.17912.10198-.00065.00037-.00129.00074-.00193.00111-.04264.02462-.05799.05586-.05756.10296.00157.14056.00197.28146.00061.42371-.00017.04278.0156.04821.04981.02846.00079-.00046.00159-.00093.00239-.00141.02481-.01486.04968-.02938.07455-.04375.03731-.02154.07465-.04273.11187-.06422.03747-.0213.0748-.04336.11204-.06487.02328-.01344.0465-.02665.06969-.03938.00138-.00074.00272-.00149.00403-.00225" fill="#474b59"/></g><g><path d="m29.50021 24.31501 6.06888-3.50387.01947 6.86886-6.06888 3.50387c-.00652-2.1954-.01271-4.37949-.01891-6.56358-.00028-.1017-.00027-.20357-.00056-.30528zm2.09843 2.77325c.10851-.06163.21702-.12454.32552-.18718s.21701-.12503.32551-.18666c.04209-.02429.0567-.04782.05598-.09527-.00214-.13211-.00104-.26643-.00142-.39989-.00024-.08447.00415-.09242.0756-.13401.07626-.04403.15251-.08865.22878-.13268.03812-.02201.07626-.04387.11438-.06544.04556-.02629.06227-.05548.06124-.10779-.00331-.1294-.00368-.26118-.00141-.39414.001-.05371-.01571-.06134-.05882-.03646-.04047.02399-.0784.04602-.11634.06792-.02529.0146-.05058.02915-.07587.04375-.02896.01655-.05792.03319-.08685.04989s-.05782.03347-.08664.05027c-.04118.02378-.05709.01558-.05664-.03228.00141-.12469-.0004-.24751-.00046-.37133.0003-.10036.00059-.10086-.0876-.04994-.04296.02494-.08407.04876-.12518.0725-.05813.03356-.11626.06695-.17448.10017-.00512.00294-.00991.00568-.0144.00827-.06437.03716-.06409.04185-.06386.12524.00117.30933.00146.61884.00351.92766.00042.04789-.00914.07778-.05451.10398-.04563.02517-.08648.04845-.12734.07204-.03515.02029-.07031.04082-.10554.06132-.02827.01656-.05655.03313-.08483.04946-.01171.00676-.02343.01348-.03514.02014-.06587.0377-.07443.03214-.07495-.0454-.00039-.1355-.00105-.27048.00003-.40682.00047-.04123-.01045-.05252-.04898-.03027-.22402.13039-.44805.26026-.67201.38956-.13437.07758-.26872.15496-.40303.23212-.0447.02581-.057.05152-.05686.10119.00237.31608.00298.63353.00182.95165-.00014.05376.01766.0592.05979.03488.05487-.03245.10699-.06303.15909-.09311.06399-.03694.12795-.07314.19181-.10815.04823-.0278.0605-.05577.05949-.1061-.00304-.13565-.00078-.2747-.00234-.4112-.00042-.04627.01389-.07854.05391-.10164.02602-.01406.04704-.02577.06808-.03791.02102-.01213.04204-.0247.06306-.03768.04662-.02699.06179-.01165.06137.03834-.00167.1404.00167.27791-.00029.41848-.00043.04785.01361.05376.05289.03109.11137-.06534.21987-.12824.32838-.19088.10854-.06266.21705-.12505.32555-.18769m3.27471-1.62058c.02941-.01698.04173-.03493.04163-.07141-.00238-.32217-.00389-.64485-.00363-.96854.00013-.05328-.01467-.06242-.05745-.03773-.0024.00138-.00488.00286-.00744.00446-.0652.04013-.13058.07811-.19586.1158-.0145.00837-.029.01674-.04349.0251-.03822.02173-.07616.04363-.11409.06553-.0456.02634-.06504.01678-.06374-.04036.00315-.13516-.00076-.26693.00093-.40125.00043-.048-.01483-.05542-.05418-.0327-.06717.04008-.13186.07802-.19656.11538-.05468.03157-.10937.06272-.16405.09352-.03943.02275-.05376.0461-.05305.09121.00214.13244.00134.26625.00142.39989.00021.07399-.00214.07873-.06858.11743-.15872.09247-.31744.18515-.47616.27679-.03652.02109-.07306.04212-.10958.06308-.04175.02411-.05729.05078-.05686.09713.00156.13447.00047.27082.00143.40597.00048.06538.00962.06992.06931.0358.05843-.03362.11681-.06729.17517-.10099.11672-.06739.23338-.13488.35001-.20222.07557-.04329.15143-.08709.22701-.13073.06743-.03893.13474-.07794.20209-.11683.03367-.01944.06736-.03885.10107-.0582.0594-.03396.0662-.0284.06609.03934.00009.13363.00135.26659.00055.40073-.00047.04088.01172.05349.04862.03218.04565-.0266.09032-.0525.13501-.07831.08145-.04704.16293-.0937.24438-.14007m-3.27261 3.71024-.00206-.72511c-.00245-.24226-.00314-.48587-.00413-.72931-.00023-.08144-.00052-.08127-.07462-.03849-.12165.07023-.24326.14048-.36484.21067-.30396.17549-.60779.35073-.91193.52512-.04793.02767-.06581.05626-.06448.11134.00311.16067.00268.32336.00314.48587.00153.33011.00187.66091.0034.99136.0002.07095.00462.07246.06607.03766.00971-.00561.02-.01188.03-.01766.41372-.23853.82775-.47757 1.24119-.71559.07616-.04395.07821-.04615.07826-.13586m3.2325-5.59656c.07322-.04227.07674-.04905.07654-.11966-.00168-.48672-.00335-.97379-.00444-1.46085-.00025-.08751-.00143-.08953-.07994-.04421-.42755.24617-.85481.49285-1.28176.73732-.03911.02258-.05495.04696-.05482.09155.00172.50226.00315 1.0047.00398 1.50781.00012.04253.01231.05415.05259.0309.09973-.05835.19838-.11551.29702-.17247.11837-.06834.23673-.13637.3551-.20471.21201-.12037.42402-.24277.63573-.36568m-4.66451 1.13015c.00229.49788.00341.9971.00395 1.49633.00012.04287.01029.05633.05057.03308.09556-.05605.18999-.11082.28437-.16531.12587-.07267.25168-.14486.37771-.21762.0868-.04876.17367-.09897.26052-.14912.13029-.07522.26059-.15033.3908-.2249.03499-.0202.05319-.04188.05306-.08614-.002-.49838-.0037-.99693-.00424-1.49615-.00016-.05695-.01553-.06753-.06594-.03843-.20681.12038-.41245.23953-.61805.35823-.2251.12996-.45017.2594-.67533.3885-.0449.02593-.05756.05262-.05742.10153m1.8968-.61757c-.00014.16083.00179.32048.00018.48217-.00072.04848.01481.05544.0533.03321.05447-.03224.10645-.06246.15844-.09248.06239-.03602.12479-.07174.18717-.10776.07734-.04465.08147-.0423.08202.04876.00095.12738.0022.25459.00168.38248-.00018.04134.01257.05164.04939.03038.04518-.02646.08924-.05208.13331-.07753.07871-.04544.15739-.09026.23619-.13446.03938-.02272.04787-.04825.04747-.08765-.00149-.31863-.00269-.63776-.00212-.95757.00016-.04649-.01516-.04949-.05087-.02887-.05875.03489-.11439.0673-.17004.09943-.06373.03679-.12748.07323-.19121.10984-.05852.03345-.06737.02942-.06815-.03849-.00156-.13651-.00254-.27335-.00205-.41104.00016-.04532-.01387-.057-.0536-.03407-.07891.04734-.15464.09238-.23042.13613-.042.02425-.08402.0481-.12607.07141-.04597.02653-.05757.05333-.05686.10085.00222.15781.00179.31678.00224.47526m.90236 3.29558c.04175-.0241.05611-.04879.05569-.09578-.00208-.31828-.00357-.63692-.00301-.95672.00013-.0538-.01797-.05971-.0602-.03532-.06365.03767-.12484.07371-.18602.10904-.0532.03072-.1064.0609-.15948.09012-.00135.00075-.00269.0015-.00399.00225-.04646.02682-.05973.058-.05872.10943.00243.12991.00191.26186.00141.3938-.0001.06944-.01065.08738-.07064.12235-.07021.04094-.1403.08193-.21037.12239-.0476.02748-.09519.05471-.14278.0815-.04153.02397-.057.04881-.05628.09612.00246.13802.00196.27774.00148.41746-.00018.04131.01225.05046.04901.02924.07098-.042.14082-.08257.21065-.12289.06984-.04032.13967-.08038.20951-.12071.07529-.04212.15063-.086.22599-.12951.06594-.03807.13188-.07584.19775-.11277m1.9499-.58157c.00045-.15527.0003-.31019-.00043-.46443-.00022-.07636-.00229-.07821-.06698-.04154-.02205.01256-.04411.02521-.06616.03794s-.04411.02555-.06616.03845c-.06851.03955-.13732.07928-.20584.11716-.00157.00086-.00311.00172-.00462.00259-.04372.02524-.06203.05502-.06074.10858.00302.12991.00222.26203.00288.3933.00019.06859-.00918.08585-.07005.12302-.01702.0104-.0341.02047-.05119.03034-.02334.01348-.0467.02657-.06996.03961-.03739.02159-.05492.04875-.05393.09375.00216.13244.00135.26625.00261.3992.00049.06741.00816.07178.06813.03715.1418-.08187.28373-.16452.4256-.24643.0532-.03071.1064-.06133.15956-.09175.04381-.02529.05993-.05299.0592-.10186-.00189-.15764-.00147-.31661-.00192-.47508m-.94884-.2641c-.00045-.16016-.00267-.31964-.00048-.48132.00069-.05548-.01678-.06281-.0601-.0378-.00166.00096-.00336.00196-.00509.00302-.05005.0301-.1001.05933-.15015.08823-.06256.03612-.12514.07173-.1877.10785-.05999.03497-.06644.04546-.06654.1149.00016.16066.00091.32065.00137.48115.00074.15424.00235.30831.00132.46358-.00015.04852.0141.05857.05609.03432.00114-.00066.00231-.00134.0035-.00206.05969-.03616.11937-.07129.17907-.10575.05968-.03446.11939-.06826.17908-.10171.00096-.00054.00191-.00107.00283-.0016.03611-.02085.05004-.04196.04905-.08791-.00311-.15695-.0018-.31643-.00225-.4749m-.23189 1.42265c-.00244-.13397-.00253-.26963-.00115-.4058.00047-.04393-.01313-.05807-.05194-.03567-.20524.1185-.41049.237-.61574.35515-.03175.01833-.04494.04287-.04454.07919.00128.14242.00227.285.00209.42861.00012.04103.01427.04864.04937.02837.00074-.00043.00149-.00086.00225-.00131.04324-.02583.08651-.05106.1298-.07606.05771-.03332.11544-.06622.17307-.09949.05663-.0327.11335-.06588.17006-.09863.04252-.02455.08505-.04886.12752-.07251.00116-.00064.0023-.00129.00342-.00193.04042-.02331.05651-.05061.05579-.09992m-1.1926.7092c-.00042-.14698-.00024-.29396-.00095-.44044-.0001-.03548-.01603-.0432-.0475-.02504-.06219.03624-.12438.07232-.18658.10823-.06218.0359-.12438.07163-.18657.10721-.03117.01799-.04583.04102-.04543.078.001.14462.0017.28907.00123.43452-.00017.03915.01375.04462.04436.02695.00148-.00086.00302-.00177.0046-.00275.0227-.01387.04542-.02722.06813-.04033.03783-.02184.07563-.04301.1133-.06476.034-.01827.06792-.03816.10184-.05774.02827-.01632.05655-.03244.08488-.04802.00093-.00052.00185-.00104.00275-.00156.02867-.01655.04605-.03726.04594-.07427" fill="#fff"/></g><path d="m37.18931 23.52955-9.28864 5.3628.00489.5247 9.28863-5.36281z" fill="#e74c3c"/><g><path d="m33.90837 26.02473c.04332-.02501.06079-.01768.0601.0378-.0022.16169.00002.32117.00048.48132.00045.15847-.00087.31796.00223.47489.001.04595-.01293.06705-.04905.08791-.00093.00053-.00187.00107-.00283.00161-.05969.03345-.11939.06724-.17908.1017-.0597.03447-.11938.0696-.17907.10575-.00119.00071-.00236.0014-.0035.00206-.04199.02424-.05624.01419-.05609-.03433.00103-.15526-.00058-.30933-.00131-.46358-.00046-.1605-.00121-.32048-.00137-.48115.0001-.06944.00655-.07993.06653-.1149.06257-.03612.12514-.07173.18771-.10785.05005-.0289.10011-.05813.15015-.08823.00175-.00103.00345-.00204.0051-.003z" fill="#474b59"/></g><g><path d="m34.43782 22.79536c-.00108.13633-.00042.27133.00174.40579.00071.0484-.0163.07818-.05606.10114-.00131.00076-.00265.00151-.00402.00226-.02319.01273-.04641.02594-.06969.03938-.03724.0215-.07457.04357-.11204.0652-.03722.02115-.07456.04234-.11187.06388-.02488.01436-.04974.02888-.07455.04375-.0008.00048-.0016.00095-.00239.00141-.03421.01975-.04998.01432-.04981-.02846.00136-.14226.00096-.28315-.00061-.42371-.00043-.0471.01492-.07834.05756-.10296.00064-.00037.00128-.00074.00193-.00111.05969-.03344.11939-.06749.17912-.10198.05973-.03448.11948-.0694.17932-.10463.0458-.02645.06211-.01115.06137.04004z" fill="#fff"/></g></g><g><path d="m31.89957 25.28794c.00448-.00259.00928-.00533.0144-.00827.05822-.03322.11635-.06661.17448-.10018.04111-.02374.08222-.04755.12339-.07147.08998-.05195.08968-.05145.08939.04891.00005.12384.00187.24666.00046.37134-.00045.04786.01546.05606.05547.03296.02998-.01748.05887-.03425.0878-.05095.02892-.0167.05789-.03333.08685-.04989.02528-.0146.05058-.02915.07586-.04375.03794-.0219.07587-.04392.1138-.06643.04564-.02637.06236-.01873.06136.03497-.00227.13296-.00189.26474.00142.39414.00102.05231-.01569.0815-.059.1065-.04038.02285-.07851.04471-.11663.06672-.07627.04403-.15251.08865-.22878.13268-.07145.04159-.07584.04954-.0756.13401.00038.13346-.00072.26778.00142.39989.00072.04745-.0139.07098-.05461.09448-.10988.06242-.21838.12481-.32689.18746s-.21701.12554-.32552.18819c-.1085.06163-.21701.12402-.32551.18666-.10851.06265-.21701.12555-.3255.1892-.04215.02436-.0562.01845-.05576-.02941.00196-.14057-.00137-.27808.00029-.41848.00043-.05-.01476-.06534-.05698-.04097-.02542.0156-.04644.02817-.06746.0403-.02103.01214-.04205.02386-.06308.03515-.04501.02587-.05932.05813-.0589.1044.00156.1365-.0007.27555.00234.41121.00101.05032-.01126.07829-.05622.10424-.06714.03686-.13109.07305-.19508.10999-.0521.03008-.10422.06066-.15635.09151-.04488.02593-.06268.02048-.06254-.03327.00117-.31813.00056-.63557-.00181-.95166-.00014-.04967.01215-.07538.05686-.10119.1343-.07716.26865-.15454.40303-.23212.22396-.1293.44799-.25917.67201-.38957.03853-.02224.04946-.01096.04898.03027-.00108.13634-.00041.27133-.00003.40682.00051.07754.00907.0831.07494.0454.01171-.00666.02343-.01339.03514-.02015.02828-.01632.05655-.03289.08483-.04946.03522-.02049.07038-.04102.10554-.06132.04086-.02359.08171-.04687.12265-.06941.05005-.02882.05961-.05871.05919-.1066-.00205-.30883-.00234-.61833-.00351-.92767-.00024-.08333-.00051-.08802.06386-.12518z" fill="#474b59"/></g><g><path d="m30.64104 25.39897c.00079-.13752.0004-.27505-.00145-.41104-.00074-.05389.01802-.08623.06379-.11265.00071-.00041.00142-.00081.00215-.00123.06198-.03473.12396-.06991.18594-.1057.05741-.03315.11481-.06679.17221-.10108.00066-.00039.00131-.00077.00195-.00114.04195-.02422.05397-.00948.05323.03562-.00156.07265.00011.1431.00031.21439-.00009.0718-.00106.14411.00061.2149.00098.03828-.01307.06239-.04671.0818-.05802.03302-.1149.06569-.17177.09853-.06913.03991-.13823.08007-.20744.12041-.03935.02271-.05328.01141-.05282-.03281z" fill="#fff"/></g><g><path d="m31.59692 28.45383.00382.72409c-.00004.08971-.0021.09191-.07825.13588-.41344.23802-.82747.47706-1.24119.71559-.01.00578-.02029.01205-.03.01766-.06145.0348-.06587.03329-.06607-.03766-.00153-.33045-.00187-.66125-.0034-.99136-.00046-.16252-.00004-.32521-.00314-.48587-.00133-.05507.01655-.08367.06448-.11134.30414-.17439.60797-.34963.91193-.52512.12158-.07019.24319-.14044.36484-.21067.0741-.04278.07439-.04295.07462.03849.00098.24342.00167.48703.00236.73031zm-.52085.57791c.04022-.02322.05579-.05195.0548-.09697-.00166-.06876-.00069-.13904-.00089-.2083-.00051-.07518-.00159-.15002-.00064-.22605.00048-.03676-.0122-.0444-.04376-.02618-.07421.04345-.14744.08608-.22067.12836-.05277.03046-.10554.06074-.15826.09076-.04195.02422-.05579.05422-.05538.09932.00098.1365.00108.27386.00029.41138-.00015.0521.02043.05995.06378.03493.04875-.02869.09643-.05649.14412-.08403.07154-.0413.1431-.08201.21455-.12204.00068-.00039.00137-.00078.00206-.00118" fill="#474b59"/></g><g><path d="m31.58548 23.90167c.00054.49922.00224.99777.00424 1.49615.00013.04427-.01807.06594-.05306.08614-.13021.07457-.26051.14967-.3908.2249-.08685.05015-.17373.10036-.26052.15047-.12604.07142-.25184.14361-.37772.21628-.09438.05449-.18881.10925-.28331.16469-.04134.02388-.05151.01041-.05163-.03246-.00054-.49923-.00166-.99845-.00395-1.49633-.00014-.04891.01252-.0756.05629-.10087.2263-.12976.45138-.2592.67647-.38915.2056-.1187.41124-.23786.61673-.35747.05173-.02988.0671-.0193.06726.03765zm-.46662.80008c.00074-.0451-.01128-.05984-.05323-.03562-.00064.00037-.00129.00075-.00195.00114-.05741.03429-.1148.06793-.17221.10108-.06198.03578-.12396.07097-.18594.1057-.00073.00041-.00144.00082-.00215.00123-.04577.02643-.06453.05876-.06379.11265.00185.136.00224.27352.00145.41104-.00046.04422.01347.05552.05182.03338.07021-.04092.13931-.08108.20844-.12099.05688-.03284.11376-.0655.17071-.09792.0347-.02003.04876-.04413.04777-.08241-.00167-.07079-.0007-.1431-.0009-.21473.00009-.07145-.00158-.14191-.00002-.21455" fill="#474b59"/></g><g><path d="m32.4736 23.3121c.04276-.02472.05679-.01304.05663.03228-.00049.13769.00049.27453.00205.41103.00079.06791.00963.07194.06815.03849.06373-.03662.12748-.07305.19122-.10984.05565-.03213.11129-.06454.16693-.09761.03882-.02244.05413-.01944.05397.02705-.00056.31981.00064.63894.00212.95757.00041.0394-.00808.06492-.04562.0866-.08064.04524-.15933.09007-.23803.13551-.04407.02544-.08813.05107-.13225.07691-.03788.02188-.05063.01158-.05045-.02976.00052-.12789-.00072-.2551-.00168-.38248-.00055-.09106-.00468-.09341-.08202-.04876-.06238.03602-.12479.07174-.18717.10776-.052.03002-.10398.06024-.15598.09104-.04095.02366-.05649.01671-.05576-.03177.00161-.16169-.00032-.32133-.00077-.48182.00014-.15881.00058-.31779-.00164-.47557-.00071-.04753.01089-.07433.05465-.09959.04426-.02457.08628-.04843.12828-.07267.07576-.04378.1515-.08883.22737-.13437z" fill="#474b59"/></g><g><path d="m33.06824 27.88019c.20525-.11816.41049-.23666.61574-.35516.03881-.02241.0524-.00826.05194.03567-.00138.13617-.00129.27183.00115.4058.00071.04931-.01537.0766-.05579.09994-.00112.00064-.00226.00129-.00341.00193-.04247.02365-.085.04796-.12753.07251-.05671.03274-.11343.06593-.17006.09863-.05763.03327-.11537.06617-.17308.09949-.04329.02499-.08656.05022-.12979.07605-.00076.00045-.00151.00089-.00225.00132-.03511.02027-.04925.01266-.04937-.02837.00019-.1436-.00081-.28619-.00209-.42861-.0004-.03633.01279-.06086.04454-.0792z" fill="#474b59"/></g><g><path d="m32.61089 26.50311c.0013-.00075.00263-.0015.00399-.00225.05308-.02923.10628-.05941.15948-.09012.06118-.03532.12237-.07136.18338-.10749.04486-.02592.06297-.02002.06283.03378-.00056.31981.00092.63844.00301.95672.00042.04699-.01394.07168-.05444.09506-.06712.03764-.13306.07542-.199.11349-.07536.0435-.1507.08739-.22598.13086-.06985.03897-.13968.07904-.20952.11936s-.13967.08089-.20951.12223c-.0379.02188-.05032.01273-.05015-.02858.00049-.13972.00098-.27944-.00147-.41746-.00072-.04732.01474-.07216.05378-.09469.05009-.02822.09768-.05545.14528-.08294.07007-.04045.14016-.08144.21037-.12238.05998-.03497.07054-.05291.07063-.12234.00051-.13195.00103-.2639-.0014-.39381-.00101-.05144.01225-.08262.05872-.10944z" fill="#474b59"/></g><g><path d="m32.49603 28.21023c.03146-.01816.04739-.01044.04749.02504.00071.14647.00054.29346.00095.44044.00011.03701-.01728.05773-.04594.07427-.0009.00052-.00182.00104-.00275.00155-.02833.01559-.05661.03171-.08488.04803-.03392.01959-.06783.03946-.10184.0591-.03768.0204-.07547.04156-.1133.0634-.0227.01311-.04542.02646-.06813.04033-.00158.00098-.00311.00189-.0046.00275-.03061.01767-.04453.0122-.04436-.02694.00048-.14546-.00023-.28991-.00123-.43452-.0004-.037.01427-.06002.04543-.07801.06219-.03557.12439-.07131.18657-.10721.0622-.03591.12439-.07199.18659-.10823z" fill="#474b59"/></g></g></g></svg>