<svg id="Layer_1" enable-background="new 0 0 50 50" height="512" viewBox="0 0 50 50" width="512" xmlns="http://www.w3.org/2000/svg"><g><g><g><g enable-background="new"><g><path d="m36.81678 14.98331-.09956 32.72342c0 .37608-.13279.64139-.34305.76351l-.77466.45389c.21026-.13292.34306-.38743.34306-.76405l.08855-32.72287c0-.7527-.52015-1.67129-1.1841-2.05818l-20.37311-11.76336c-.33198-.18858-.63079-.21074-.85206-.07781l.78566-.45389c.21026-.13239.50907-.11023.84105.07781l20.38412 11.76335c.65294.38743 1.1841 1.30602 1.1841 2.05818z" fill="#56707b"/></g><g><path d="m34.85071 13.38186c.65712.37939 1.18527 1.30242 1.18312 2.05739l-.09275 32.71859c-.00214.75497-.53377 1.05776-1.19088.67837l-20.37678-11.76454c-.66416-.38345-1.19233-1.29812-1.19019-2.05309l.09275-32.71858c.00214-.75497.53379-1.06613 1.19795-.68268z" fill="#485f69"/></g></g></g><g><g enable-background="new"><g><path d="m14.31545 3.25002.06734.03913c.13789.08013.3291.06839.54088-.05388l-.06733-.03913c-.21178.12227-.40299.13401-.54089.05388z" fill="#cfd8dd"/></g><g><path d="m15.45549 1.43817-.06733-.03913c.13661.07939.22138.24837.22206.48771l.06733.03913c-.00068-.23934-.08544-.40832-.22206-.48771z" fill="#cfd8dd"/></g><g><path d="m15.5169 1.3376-.06733-.03913c-.15322-.08904-.36518-.07691-.59845.05777l.06733.03913c.23327-.13468.44523-.14681.59845-.05777z" fill="#dde4e7"/></g><g><path d="m14.25548 3.35313.06734.03913c-.15166-.08814-.24569-.27556-.24645-.54194-.00151-.53256.37545-1.18555.84208-1.45495l-.06733-.03913c-.46663.26941-.84359.9224-.84208 1.45495.00075.26639.09478.45381.24644.54194z" fill="#dde4e7"/></g><g><path d="m14.91845 1.39537c-.46663.26941-.84359.9224-.84208 1.45495.00152.53617.38094.75246.84757.48305l-.00028-.09811c-.42088.24299-.76052.04944-.76189-.43425-.00136-.48008.33607-1.06797.75695-1.31096.41782-.24123.75747-.04425.75883.43583l.08538-.04929c-.00151-.53255-.38091-.74886-.84448-.48122z" fill="#b0b8bc"/></g></g><g enable-background="new"><g><path d="m15.12333 3.71695.06734.03913c.13789.08013.3291.06839.54088-.05388l-.06733-.03913c-.21179.12227-.403.13401-.54089.05388z" fill="#cfd8dd"/></g><g><path d="m16.26337 1.9051-.06733-.03913c.13661.07939.22138.24837.22206.48771l.06733.03913c-.00068-.23934-.08545-.40832-.22206-.48771z" fill="#cfd8dd"/></g><g><path d="m16.32478 1.80453-.06734-.03913c-.15322-.08904-.36518-.07691-.59845.05777l.06733.03913c.23328-.13468.44524-.14681.59846-.05777z" fill="#dde4e7"/></g><g><path d="m15.06336 3.82006.06734.03914c-.15166-.08814-.24569-.27556-.24645-.54194-.00151-.53256.37545-1.18555.84208-1.45496l-.06733-.03913c-.46663.26941-.84359.9224-.84208 1.45495.00075.26638.09478.45381.24644.54194z" fill="#dde4e7"/></g><g><path d="m15.72633 1.8623c-.46663.26941-.84359.9224-.84208 1.45495.00152.53617.38094.75246.84757.48305l-.00028-.0981c-.42088.24299-.76052.04944-.76189-.43425-.00136-.48008.33607-1.06797.75695-1.31096.41782-.24123.75747-.04425.75883.43583l.08538-.04929c-.00151-.53257-.38092-.74887-.84448-.48123z" fill="#b0b8bc"/></g></g><g enable-background="new"><g><path d="m15.9312 4.18387.06734.03913c.13789.08013.3291.06839.54088-.05388l-.06733-.03912c-.21178.12227-.40299.13401-.54089.05387z" fill="#cfd8dd"/></g><g><path d="m17.07125 2.37203-.06734-.03913c.13661.07939.22138.24837.22206.48771l.06733.03913c-.00068-.23934-.08544-.40832-.22205-.48771z" fill="#cfd8dd"/></g><g><path d="m17.13265 2.27145-.06733-.03913c-.15322-.08904-.36518-.07691-.59845.05777l.06733.03913c.23327-.13467.44523-.14681.59845-.05777z" fill="#dde4e7"/></g><g><path d="m15.87123 4.28699.06734.03913c-.15166-.08814-.2457-.27556-.24645-.54194-.00151-.53256.37545-1.18555.84208-1.45495l-.06733-.03913c-.46663.26941-.84359.9224-.84208 1.45495.00075.26638.09478.4538.24644.54194z" fill="#dde4e7"/></g><g><path d="m16.5342 2.32923c-.46663.26941-.84359.9224-.84208 1.45495.00152.53617.38094.75246.84757.48305l-.00028-.09811c-.42088.24299-.76052.04944-.76189-.43425-.00136-.48008.33607-1.06797.75695-1.31096.41782-.24123.75747-.04425.75883.43583l.08538-.04929c-.00151-.53256-.38091-.74886-.84448-.48122z" fill="#b0b8bc"/></g></g><g enable-background="new"><g><path d="m16.73908 4.6508.06734.03913c.13789.08013.3291.06839.54088-.05388l-.06733-.03913c-.21179.12228-.403.13402-.54089.05388z" fill="#cfd8dd"/></g><g><path d="m17.87912 2.83895-.06734-.03913c.13661.07939.22138.24837.22206.48771l.06734.03913c-.00068-.23934-.08545-.40832-.22206-.48771z" fill="#cfd8dd"/></g><g><path d="m17.94053 2.73838-.06733-.03913c-.15322-.08904-.36518-.07691-.59845.05777l.06733.03913c.23327-.13467.44523-.14681.59845-.05777z" fill="#dde4e7"/></g><g><path d="m16.67911 4.75392.06734.03913c-.15167-.08814-.2457-.27556-.24645-.54194-.00151-.53256.37545-1.18555.84208-1.45495l-.06733-.03913c-.46663.26941-.84359.9224-.84208 1.45495.00075.26638.09478.4538.24644.54194z" fill="#dde4e7"/></g><g><path d="m17.34208 2.79616c-.46663.26941-.84359.92239-.84208 1.45495.00152.53617.38094.75246.84757.48305l-.00028-.09811c-.42088.243-.76052.04944-.76189-.43425-.00136-.48008.33607-1.06797.75695-1.31096.41782-.24123.75747-.04425.75883.43583l.08538-.04929c-.00151-.53256-.38092-.74887-.84448-.48122z" fill="#b0b8bc"/></g></g><g enable-background="new"><g><path d="m17.54695 5.11773.06734.03913c.13789.08013.3291.06839.54088-.05388l-.06733-.03913c-.21178.12227-.40299.13402-.54089.05388z" fill="#cfd8dd"/></g><g><path d="m18.687 3.30588-.06733-.03913c.13661.07939.22138.24837.22206.48771l.06733.03913c-.00069-.23934-.08545-.40832-.22206-.48771z" fill="#cfd8dd"/></g><g><path d="m18.7484 3.20531-.06733-.03913c-.15322-.08904-.36518-.07691-.59845.05777l.06733.03913c.23327-.13468.44523-.14681.59845-.05777z" fill="#dde4e7"/></g><g><path d="m17.48699 5.22084.06734.03913c-.15166-.08814-.2457-.27556-.24645-.54194-.00151-.53256.37545-1.18555.84208-1.45495l-.06733-.03913c-.46663.26941-.84359.9224-.84208 1.45495.00074.26639.09478.45381.24644.54194z" fill="#dde4e7"/></g><g><path d="m18.14995 3.26308c-.46663.26941-.84359.9224-.84208 1.45495.00152.53617.38094.75246.84757.48305l-.00028-.09811c-.42088.24299-.76052.04944-.76189-.43425-.00136-.48008.33607-1.06797.75695-1.31096.41782-.24123.75747-.04425.75883.43583l.08538-.04929c-.00151-.53255-.38091-.74886-.84448-.48122z" fill="#b0b8bc"/></g></g><g enable-background="new"><g><path d="m18.35483 5.58466.06734.03913c.13789.08013.3291.06839.54088-.05388l-.06733-.03913c-.21179.12227-.403.13401-.54089.05388z" fill="#cfd8dd"/></g><g><path d="m19.49487 3.77281-.06733-.03913c.13661.07939.22138.24837.22206.48771l.06734.03913c-.00069-.23934-.08546-.40832-.22207-.48771z" fill="#cfd8dd"/></g><g><path d="m19.55628 3.67224-.06733-.03913c-.15322-.08904-.36518-.07691-.59845.05777l.06733.03913c.23327-.13468.44523-.14681.59845-.05777z" fill="#dde4e7"/></g><g><path d="m18.29486 5.68777.06734.03913c-.15166-.08814-.24569-.27556-.24645-.54194-.00151-.53256.37545-1.18555.84208-1.45495l-.06733-.03913c-.46663.26941-.84359.9224-.84208 1.45495.00075.26638.09478.45381.24644.54194z" fill="#dde4e7"/></g><g><path d="m18.95783 3.73001c-.46663.26941-.84359.9224-.84208 1.45495.00152.53617.38094.75246.84757.48305l-.00028-.09811c-.42088.24299-.76052.04944-.76189-.43425-.00136-.48008.33607-1.06797.75695-1.31096.41782-.24123.75747-.04425.75883.43583l.08538-.04929c-.00151-.53256-.38091-.74886-.84448-.48122z" fill="#b0b8bc"/></g></g><g enable-background="new"><g><path d="m19.1627 6.05158.06734.03913c.13789.08013.3291.06839.54088-.05388l-.06733-.03913c-.21178.12228-.40299.13402-.54089.05388z" fill="#cfd8dd"/></g><g><path d="m20.30275 4.23974-.06733-.03913c.13661.07939.22138.24837.22206.48771l.06733.03913c-.00069-.23934-.08545-.40832-.22206-.48771z" fill="#cfd8dd"/></g><g><path d="m20.36415 4.13917-.06733-.03913c-.15322-.08904-.36518-.07691-.59845.05777l.06734.03913c.23326-.13468.44522-.14682.59844-.05777z" fill="#dde4e7"/></g><g><path d="m19.10274 6.1547.06734.03913c-.15166-.08814-.2457-.27556-.24645-.54194-.00151-.53256.37545-1.18555.84208-1.45495l-.06734-.03913c-.46663.26941-.84359.9224-.84208 1.45495.00076.26638.09479.45381.24645.54194z" fill="#dde4e7"/></g><g><path d="m19.7657 4.19694c-.46663.26941-.84359.9224-.84208 1.45495.00152.53617.38094.75246.84757.48305l-.00028-.09811c-.42088.24299-.76052.04944-.76189-.43425-.00136-.48008.33607-1.06797.75694-1.31096.41782-.24123.75747-.04425.75883.43583l.08538-.04929c-.0015-.53256-.3809-.74886-.84447-.48122z" fill="#b0b8bc"/></g></g><g enable-background="new"><g><path d="m19.97058 6.51851.06734.03913c.13789.08013.3291.06839.54088-.05388l-.06733-.03913c-.21179.12228-.403.13402-.54089.05388z" fill="#cfd8dd"/></g><g><path d="m21.11062 4.70666-.06733-.03913c.13661.07939.22138.24837.22206.48771l.06733.03913c-.00068-.23934-.08544-.40831-.22206-.48771z" fill="#cfd8dd"/></g><g><path d="m21.17203 4.60609-.06733-.03913c-.15322-.08904-.36518-.07691-.59845.05777l.06733.03913c.23327-.13467.44523-.14681.59845-.05777z" fill="#dde4e7"/></g><g><path d="m19.91061 6.62163.06734.03913c-.15166-.08814-.2457-.27556-.24645-.54194-.00151-.53256.37545-1.18555.84208-1.45495l-.06733-.03913c-.46663.26941-.84359.9224-.84208 1.45496.00075.26637.09478.45379.24644.54193z" fill="#dde4e7"/></g><g><path d="m20.57358 4.66387c-.46663.26941-.84359.9224-.84208 1.45495.00152.53617.38094.75246.84757.48305l-.00028-.09811c-.42088.24299-.76052.04944-.76189-.43425-.00136-.48008.33607-1.06797.75695-1.31096.41782-.24123.75747-.04425.75883.43583l.08538-.04929c-.00151-.53256-.38091-.74887-.84448-.48122z" fill="#b0b8bc"/></g></g><g enable-background="new"><g><path d="m20.77845 6.98544.06734.03913c.13789.08013.3291.06839.54088-.05388l-.06733-.03913c-.21178.12227-.40299.13402-.54089.05388z" fill="#cfd8dd"/></g><g><path d="m21.9185 5.17359-.06733-.03913c.13661.07939.22138.24837.22206.48771l.06734.03913c-.00069-.23934-.08546-.40832-.22207-.48771z" fill="#cfd8dd"/></g><g><path d="m21.9799 5.07302-.06733-.03913c-.15322-.08904-.36518-.07691-.59845.05777l.06733.03913c.23328-.13468.44523-.14681.59845-.05777z" fill="#dde4e7"/></g><g><path d="m20.71849 7.08856.06734.03913c-.15166-.08814-.2457-.27556-.24645-.54194-.00151-.53256.37545-1.18555.84208-1.45496l-.06733-.03913c-.46663.26941-.84359.9224-.84208 1.45495.00075.26639.09478.45381.24644.54195z" fill="#dde4e7"/></g><g><path d="m21.38145 5.13079c-.46663.26941-.84359.9224-.84208 1.45496.00152.53617.38094.75246.84757.48305l-.00027-.0981c-.42088.24299-.76052.04944-.76189-.43425-.00136-.48008.33607-1.06797.75695-1.31096.41782-.24123.75747-.04425.75883.43583l.08538-.04929c-.00152-.53257-.38092-.74888-.84449-.48124z" fill="#b0b8bc"/></g></g><g enable-background="new"><g><path d="m21.58633 7.45237.06734.03913c.13789.08013.3291.06839.54088-.05388l-.06733-.03912c-.21179.12226-.403.134-.54089.05387z" fill="#cfd8dd"/></g><g><path d="m22.72637 5.64052-.06733-.03913c.13661.07939.22138.24837.22206.48771l.06733.03913c-.00068-.23934-.08544-.40832-.22206-.48771z" fill="#cfd8dd"/></g><g><path d="m22.78778 5.53995-.06733-.03913c-.15322-.08904-.36518-.07691-.59845.05777l.06734.03913c.23326-.13468.44522-.14681.59844-.05777z" fill="#dde4e7"/></g><g><path d="m21.52636 7.55548.06734.03913c-.15166-.08814-.2457-.27556-.24645-.54194-.00151-.53256.37545-1.18555.84208-1.45495l-.06734-.03913c-.46663.26941-.84359.9224-.84208 1.45495.00076.26638.09479.45381.24645.54194z" fill="#dde4e7"/></g><g><path d="m22.18933 5.59772c-.46663.26941-.84359.9224-.84208 1.45495.00152.53617.38094.75246.84757.48305l-.00028-.09811c-.42088.24299-.76052.04944-.76189-.43425-.00136-.48008.33607-1.06797.75694-1.31096.41782-.24123.75747-.04425.75883.43583l.08538-.04929c-.0015-.53256-.3809-.74886-.84447-.48122z" fill="#b0b8bc"/></g></g><g enable-background="new"><g><path d="m22.3942 7.9193.06734.03913c.13789.08013.3291.06839.54088-.05388l-.06733-.03913c-.21178.12227-.40299.13401-.54089.05388z" fill="#cfd8dd"/></g><g><path d="m23.53425 6.10745-.06733-.03913c.13661.07939.22138.24837.22206.48771l.06733.03913c-.00068-.23934-.08545-.40832-.22206-.48771z" fill="#cfd8dd"/></g><g><path d="m23.59566 6.00688-.06733-.03913c-.15322-.08904-.36518-.07691-.59845.05777l.06733.03913c.23327-.13468.44522-.14682.59845-.05777z" fill="#dde4e7"/></g><g><path d="m22.33424 8.02241.06734.03913c-.15166-.08814-.24569-.27556-.24645-.54194-.00151-.53256.37545-1.18555.84208-1.45495l-.06733-.03913c-.46663.26941-.84359.9224-.84208 1.45496.00075.26637.09478.4538.24644.54193z" fill="#dde4e7"/></g><g><path d="m22.9972 6.06465c-.46663.26941-.84359.9224-.84208 1.45495.00152.53617.38094.75246.84757.48305l-.00028-.09811c-.42088.24299-.76052.04944-.76189-.43425-.00136-.48008.33607-1.06797.75695-1.31096.41782-.24123.75747-.04425.75883.43583l.08538-.04929c-.00151-.53256-.38091-.74886-.84448-.48122z" fill="#b0b8bc"/></g></g><g enable-background="new"><g><path d="m23.20208 8.38622.06734.03913c.13789.08013.3291.06839.54088-.05388l-.06733-.03913c-.21179.12228-.40299.13402-.54089.05388z" fill="#cfd8dd"/></g><g><path d="m24.34212 6.57437-.06733-.03913c.13661.07939.22138.24837.22206.48771l.06734.03913c-.00069-.23934-.08545-.40831-.22207-.48771z" fill="#cfd8dd"/></g><g><path d="m24.40353 6.4738-.06733-.03912c-.15322-.08904-.36518-.07691-.59845.05777l.06733.03913c.23327-.13468.44523-.14682.59845-.05778z" fill="#dde4e7"/></g><g><path d="m23.14211 8.48934.06734.03913c-.15166-.08814-.2457-.27556-.24645-.54194-.00151-.53256.37545-1.18555.84208-1.45496l-.06733-.03913c-.46663.26941-.84359.9224-.84208 1.45496.00075.26638.09478.4538.24644.54194z" fill="#dde4e7"/></g><g><path d="m23.80508 6.53158c-.46663.26941-.84359.9224-.84208 1.45496.00152.53617.38094.75246.84757.48305l-.00027-.09811c-.42088.24299-.76052.04944-.76189-.43425-.00136-.48008.33607-1.06797.75695-1.31096.41782-.24123.75747-.04425.75883.43583l.08538-.04929c-.00152-.53257-.38092-.74887-.84449-.48123z" fill="#b0b8bc"/></g></g><g enable-background="new"><g><path d="m24.00995 8.85315.06734.03913c.13789.08013.3291.06839.54088-.05388l-.06733-.03913c-.21178.12228-.40299.13402-.54089.05388z" fill="#cfd8dd"/></g><g><path d="m25.15 7.0413-.06733-.03913c.13661.07939.22138.24837.22206.48771l.06733.03913c-.00068-.23934-.08545-.40832-.22206-.48771z" fill="#cfd8dd"/></g><g><path d="m25.2114 6.94073-.06733-.03913c-.15322-.08904-.36518-.07691-.59845.05777l.06734.03913c.23327-.13467.44523-.14681.59844-.05777z" fill="#dde4e7"/></g><g><path d="m23.94999 8.95627.06734.03913c-.15166-.08814-.2457-.27556-.24645-.54194-.00151-.53256.37545-1.18555.84208-1.45495l-.06734-.03913c-.46663.26941-.84359.9224-.84208 1.45496.00076.26637.09479.45379.24645.54193z" fill="#dde4e7"/></g><g><path d="m24.61296 6.99851c-.46663.26941-.84359.9224-.84208 1.45495.00152.53617.38094.75246.84757.48305l-.00028-.09811c-.42088.243-.76052.04944-.76189-.43425-.00136-.48008.33607-1.06797.75694-1.31096.41782-.24123.75747-.04425.75883.43583l.08538-.04929c-.00151-.53256-.38091-.74887-.84447-.48122z" fill="#b0b8bc"/></g></g><g enable-background="new"><g><path d="m24.81783 9.32008.06734.03913c.13789.08013.3291.06839.54088-.05388l-.06733-.03913c-.21179.12227-.403.13401-.54089.05388z" fill="#cfd8dd"/></g><g><path d="m25.95787 7.50823-.06733-.03913c.13661.07939.22138.24837.22206.48771l.06734.03913c-.00069-.23934-.08545-.40832-.22207-.48771z" fill="#cfd8dd"/></g><g><path d="m26.01928 7.40766-.06733-.03913c-.15322-.08904-.36518-.07691-.59845.05777l.06733.03913c.23327-.13468.44523-.14681.59845-.05777z" fill="#dde4e7"/></g><g><path d="m24.75786 9.42319.06734.03913c-.15166-.08814-.24569-.27556-.24645-.54194-.00151-.53256.37545-1.18555.84208-1.45496l-.06733-.03912c-.46663.26941-.84359.9224-.84208 1.45496.00075.26638.09478.4538.24644.54193z" fill="#dde4e7"/></g><g><path d="m25.42083 7.46543c-.46663.26941-.84359.9224-.84208 1.45496.00152.53617.38094.75246.84757.48305l-.00028-.09811c-.42088.243-.76052.04944-.76189-.43425-.00136-.48008.33607-1.06797.75695-1.31096.41782-.24123.75747-.04425.75883.43583l.08538-.04929c-.00151-.53256-.38091-.74887-.84448-.48123z" fill="#b0b8bc"/></g></g><g enable-background="new"><g><path d="m25.62571 9.78701.06734.03913c.13789.08013.3291.06839.54088-.05388l-.06733-.03913c-.21179.12227-.403.13401-.54089.05388z" fill="#cfd8dd"/></g><g><path d="m26.76575 7.97516-.06734-.03913c.13661.07939.22138.24837.22206.48771l.06734.03913c-.00068-.23934-.08545-.40832-.22206-.48771z" fill="#cfd8dd"/></g><g><path d="m26.82716 7.87459-.06733-.03913c-.15322-.08904-.36518-.07691-.59845.05777l.06733.03913c.23327-.13468.44523-.14681.59845-.05777z" fill="#dde4e7"/></g><g><path d="m25.56574 9.89012.06734.03913c-.15166-.08814-.2457-.27556-.24645-.54194-.00151-.53256.37545-1.18555.84208-1.45496l-.06733-.03913c-.46663.26941-.84359.9224-.84208 1.45496.00075.26638.09478.45381.24644.54194z" fill="#dde4e7"/></g><g><path d="m26.2287 7.93236c-.46663.26941-.84359.9224-.84208 1.45496.00152.53617.38094.75246.84757.48305l-.00028-.09811c-.42088.243-.76052.04944-.76189-.43425-.00136-.48008.33607-1.06797.75695-1.31096.41782-.24123.75747-.04425.75883.43583l.08538-.04929c-.0015-.53257-.38091-.74887-.84448-.48123z" fill="#b0b8bc"/></g></g><g enable-background="new"><g><path d="m26.43358 10.25393.06734.03913c.13789.08013.3291.06839.54088-.05388l-.06733-.03913c-.21178.12228-.40299.13402-.54089.05388z" fill="#cfd8dd"/></g><g><path d="m27.57363 8.44209-.06733-.03913c.13661.07939.22138.24837.22206.48771l.06733.03913c-.00069-.23934-.08545-.40832-.22206-.48771z" fill="#cfd8dd"/></g><g><path d="m27.63503 8.34151-.06733-.03912c-.15322-.08904-.36518-.07691-.59845.05777l.06733.03913c.23327-.13468.44523-.14682.59845-.05778z" fill="#dde4e7"/></g><g><path d="m26.37362 10.35705.06734.03913c-.15166-.08814-.2457-.27556-.24645-.54194-.00151-.53256.37545-1.18555.84208-1.45496l-.06733-.03913c-.46663.26941-.84359.9224-.84208 1.45496.00074.26638.09477.4538.24644.54194z" fill="#dde4e7"/></g><g><path d="m27.03658 8.39929c-.46663.26941-.84359.9224-.84208 1.45496.00152.53617.38094.75246.84757.48305l-.00028-.09811c-.42088.243-.76052.04944-.76189-.43425-.00136-.48008.33607-1.06797.75695-1.31096.41782-.24123.75747-.04425.75883.43583l.08538-.04929c-.00151-.53257-.38091-.74887-.84448-.48123z" fill="#b0b8bc"/></g></g><g enable-background="new"><g><path d="m27.24146 10.72086.06733.03914c.13789.08013.3291.06839.54088-.05388l-.06733-.03913c-.21178.12227-.40299.13401-.54088.05387z" fill="#cfd8dd"/></g><g><path d="m28.3815 8.90901-.06733-.03913c.13661.07939.22138.24837.22206.48771l.06734.03913c-.00069-.23934-.08546-.40832-.22207-.48771z" fill="#cfd8dd"/></g><g><path d="m28.44291 8.80844-.06733-.03913c-.15322-.08904-.36518-.07691-.59845.05777l.06733.03913c.23327-.13467.44523-.14681.59845-.05777z" fill="#dde4e7"/></g><g><path d="m27.18149 10.82398.06734.03913c-.15166-.08814-.24569-.27556-.24645-.54194-.00151-.53256.37545-1.18555.84208-1.45496l-.06733-.03913c-.46663.26941-.84359.9224-.84208 1.45496.00075.26638.09478.4538.24644.54194z" fill="#dde4e7"/></g><g><path d="m27.84446 8.86622c-.46663.26941-.84359.9224-.84208 1.45496.00152.53617.38094.75246.84757.48305l-.00028-.09811c-.42088.24299-.76052.04944-.76189-.43425-.00136-.48008.33607-1.06797.75695-1.31096.41782-.24123.75747-.04425.75883.43583l.08538-.04929c-.00151-.53257-.38091-.74888-.84448-.48123z" fill="#b0b8bc"/></g></g><g enable-background="new"><g><path d="m28.04933 11.18779.06734.03913c.13789.08013.3291.06839.54088-.05388l-.06733-.03913c-.21178.12227-.40299.13401-.54089.05388z" fill="#cfd8dd"/></g><g><path d="m29.18938 9.37594-.06733-.03913c.13661.07939.22138.24837.22206.48771l.06733.03913c-.00069-.23934-.08545-.40832-.22206-.48771z" fill="#cfd8dd"/></g><g><path d="m29.25078 9.27537-.06733-.03913c-.15322-.08904-.36518-.07691-.59845.05777l.06734.03913c.23326-.13468.44522-.14681.59844-.05777z" fill="#dde4e7"/></g><g><path d="m27.98937 11.2909.06734.03913c-.15166-.08814-.2457-.27556-.24645-.54194-.00151-.53256.37545-1.18555.84208-1.45495l-.06734-.03913c-.46663.26941-.84359.9224-.84208 1.45495.00076.26639.09479.45381.24645.54194z" fill="#dde4e7"/></g><g><path d="m28.65233 9.33314c-.46663.26941-.84359.9224-.84208 1.45495.00152.53617.38094.75246.84757.48305l-.00028-.09811c-.42088.24299-.76052.04944-.76189-.43425-.00136-.48008.33607-1.06797.75694-1.31096.41782-.24123.75747-.04425.75883.43583l.08538-.04929c-.0015-.53255-.3809-.74886-.84447-.48122z" fill="#b0b8bc"/></g></g><g enable-background="new"><g><path d="m28.85721 11.65472.06734.03913c.13789.08013.3291.06839.54088-.05388l-.06733-.03913c-.21179.12227-.403.13401-.54089.05388z" fill="#cfd8dd"/></g><g><path d="m29.99725 9.84287-.06733-.03913c.13661.07939.22138.24837.22206.48771l.06733.03913c-.00068-.23934-.08544-.40832-.22206-.48771z" fill="#cfd8dd"/></g><g><path d="m30.05866 9.7423-.06733-.03913c-.15322-.08904-.36518-.07691-.59845.05777l.06733.03913c.23327-.13468.44523-.14681.59845-.05777z" fill="#dde4e7"/></g><g><path d="m28.79724 11.75783.06734.03913c-.15166-.08814-.2457-.27556-.24645-.54194-.00151-.53256.37545-1.18554.84208-1.45495l-.06733-.03913c-.46663.26941-.84359.9224-.84208 1.45495.00075.26638.09478.45381.24644.54194z" fill="#dde4e7"/></g><g><path d="m29.46021 9.80007c-.46663.26941-.84359.9224-.84208 1.45495.00152.53617.38094.75246.84757.48305l-.00028-.09811c-.42088.243-.76052.04944-.76189-.43425-.00136-.48008.33607-1.06797.75695-1.31096.41782-.24123.75747-.04425.75883.43583l.08538-.04929c-.00151-.53256-.38091-.74886-.84448-.48122z" fill="#b0b8bc"/></g></g><g enable-background="new"><g><path d="m29.66508 12.12164.06734.03913c.13789.08013.3291.06839.54088-.05388l-.06733-.03913c-.21178.12228-.40299.13402-.54089.05388z" fill="#cfd8dd"/></g><g><path d="m30.80513 10.3098-.06733-.03913c.13661.07939.22138.24837.22206.48771l.06734.03913c-.0007-.23934-.08546-.40832-.22207-.48771z" fill="#cfd8dd"/></g><g><path d="m30.86653 10.20923-.06733-.03913c-.15322-.08904-.36518-.07691-.59845.05777l.06733.03913c.23327-.13468.44523-.14682.59845-.05777z" fill="#dde4e7"/></g><g><path d="m29.60512 12.22476.06734.03913c-.15166-.08814-.2457-.27556-.24645-.54194-.00151-.53256.37545-1.18554.84208-1.45495l-.06733-.03913c-.46663.26941-.84359.9224-.84208 1.45496.00075.26637.09478.4538.24644.54193z" fill="#dde4e7"/></g><g><path d="m30.26808 10.267c-.46663.26941-.84359.9224-.84208 1.45495.00152.53617.38094.75246.84757.48305l-.00027-.0981c-.42088.243-.76052.04944-.76189-.43425-.00136-.48008.33607-1.06797.75695-1.31096.41782-.24123.75747-.04425.75883.43583l.08538-.04929c-.00152-.53257-.38092-.74887-.84449-.48123z" fill="#b0b8bc"/></g></g><g enable-background="new"><g><path d="m30.47296 12.58857.06734.03913c.13789.08013.3291.06839.54088-.05388l-.06733-.03913c-.21179.12228-.403.13402-.54089.05388z" fill="#cfd8dd"/></g><g><path d="m31.613 10.77672-.06733-.03913c.13661.07939.22138.24837.22206.48771l.06733.03913c-.00068-.23934-.08544-.40832-.22206-.48771z" fill="#cfd8dd"/></g><g><path d="m31.67441 10.67615-.06733-.03913c-.15322-.08904-.36518-.07691-.59845.05777l.06734.03913c.23326-.13467.44522-.14681.59844-.05777z" fill="#dde4e7"/></g><g><path d="m30.41299 12.69169.06734.03913c-.15166-.08814-.2457-.27556-.24645-.54194-.00151-.53256.37545-1.18555.84208-1.45496l-.06734-.03913c-.46663.26941-.84359.9224-.84208 1.45496.00076.26638.09479.4538.24645.54194z" fill="#dde4e7"/></g><g><path d="m31.07596 10.73393c-.46663.26941-.84359.9224-.84208 1.45496.00152.53617.38094.75246.84757.48305l-.00028-.09811c-.42088.243-.76052.04944-.76189-.43425-.00136-.48008.33607-1.06797.75694-1.31096.41782-.24123.75747-.04425.75883.43583l.08538-.04929c-.0015-.53257-.3809-.74888-.84447-.48123z" fill="#b0b8bc"/></g></g><g enable-background="new"><g><path d="m31.28083 13.0555.06734.03913c.13789.08013.3291.06839.54088-.05388l-.06733-.03913c-.21178.12227-.40299.13402-.54089.05388z" fill="#cfd8dd"/></g><g><path d="m32.42088 11.24365-.06734-.03913c.13662.07939.22138.24837.22206.48771l.06733.03913c-.00068-.23934-.08544-.40832-.22205-.48771z" fill="#cfd8dd"/></g><g><path d="m32.48228 11.14308-.06733-.03913c-.15322-.08904-.36518-.07691-.59845.05777l.06733.03913c.23327-.13468.44523-.14681.59845-.05777z" fill="#dde4e7"/></g><g><path d="m31.22087 13.15862.06734.03913c-.15166-.08814-.24569-.27556-.24645-.54194-.00151-.53256.37545-1.18555.84208-1.45496l-.06733-.03913c-.46663.26941-.84359.9224-.84208 1.45496.00075.26638.09478.4538.24644.54194z" fill="#dde4e7"/></g><g><path d="m31.88383 11.20085c-.46663.26941-.84359.9224-.84208 1.45496.00152.53617.38094.75246.84757.48305l-.00028-.09811c-.42088.243-.76052.04944-.76189-.43425-.00136-.48008.33607-1.06797.75695-1.31096.41782-.24123.75747-.04425.75883.43583l.08538-.04929c-.00151-.53256-.38091-.74887-.84448-.48123z" fill="#b0b8bc"/></g></g><g enable-background="new"><g><path d="m32.08871 13.52243.06734.03913c.13789.08013.3291.06839.54088-.05388l-.06733-.03913c-.21179.12227-.403.13401-.54089.05388z" fill="#cfd8dd"/></g><g><path d="m33.22875 11.71058-.06733-.03913c.13662.07939.22138.24837.22206.48771l.06733.03913c-.00068-.23934-.08544-.40832-.22206-.48771z" fill="#cfd8dd"/></g><g><path d="m33.29016 11.61001-.06733-.03913c-.15322-.08904-.36518-.07691-.59845.05777l.06733.03913c.23327-.13468.44523-.14681.59845-.05777z" fill="#dde4e7"/></g><g><path d="m32.02874 13.62554.06734.03913c-.15166-.08814-.2457-.27556-.24645-.54194-.00151-.53256.37545-1.18555.84208-1.45496l-.06733-.03913c-.46663.26941-.84359.9224-.84208 1.45496.00075.26638.09478.45381.24644.54194z" fill="#dde4e7"/></g><g><path d="m32.69171 11.66778c-.46663.26941-.84359.9224-.84208 1.45496.00152.53617.38094.75246.84757.48305l-.00027-.09811c-.42088.24299-.76052.04944-.7619-.43425-.00136-.48008.33607-1.06797.75695-1.31096.41782-.24123.75747-.04425.75883.43583l.08538-.04929c-.00151-.53257-.38091-.74887-.84448-.48123z" fill="#b0b8bc"/></g></g><g enable-background="new"><g><path d="m32.89658 13.98936.06734.03913c.13789.08013.3291.06839.54088-.05388l-.06733-.03913c-.21178.12227-.40299.13401-.54089.05388z" fill="#cfd8dd"/></g><g><path d="m34.03663 12.17751-.06733-.03913c.13661.07939.22137.24837.22205.48771l.06734.03913c-.00068-.23934-.08545-.40832-.22206-.48771z" fill="#cfd8dd"/></g><g><path d="m34.09803 12.07694-.06733-.03913c-.15322-.08904-.36518-.07691-.59845.05777l.06733.03913c.23328-.13468.44524-.14681.59845-.05777z" fill="#dde4e7"/></g><g><path d="m32.83662 14.09247.06734.03913c-.15166-.08814-.2457-.27556-.24645-.54194-.00151-.53256.37545-1.18555.84208-1.45496l-.06733-.03913c-.46663.26941-.84359.9224-.84208 1.45495.00075.26639.09478.45382.24644.54195z" fill="#dde4e7"/></g><g><path d="m33.49958 12.13471c-.46663.26941-.84359.9224-.84208 1.45496.00152.53617.38094.75246.84757.48305l-.00028-.09811c-.42088.24299-.76052.04944-.76189-.43425-.00136-.48008.33607-1.06797.75695-1.31096.41782-.24123.75747-.04425.75883.43583l.08538-.04929c-.00151-.53257-.38091-.74887-.84448-.48123z" fill="#b0b8bc"/></g></g><g enable-background="new"><g><path d="m33.70446 14.45628.06734.03913c.13789.08013.3291.06839.54088-.05388l-.06733-.03913c-.21178.12228-.403.13402-.54089.05388z" fill="#cfd8dd"/></g><g><path d="m34.84451 12.64443-.06733-.03913c.13661.07939.22137.24837.22205.48771l.06733.03913c-.00068-.23934-.08544-.40831-.22205-.48771z" fill="#cfd8dd"/></g><g><path d="m34.90591 12.54386-.06733-.03913c-.15322-.08904-.36518-.07691-.59845.05777l.06734.03913c.23326-.13467.44522-.14681.59844-.05777z" fill="#dde4e7"/></g><g><path d="m33.64449 14.5594.06734.03913c-.15166-.08814-.24569-.27556-.24645-.54194-.00151-.53256.37545-1.18554.84208-1.45495l-.06734-.03913c-.46663.26941-.84359.9224-.84208 1.45495.00076.26638.09479.4538.24645.54194z" fill="#dde4e7"/></g><g><path d="m34.30746 12.60164c-.46663.26941-.84359.9224-.84208 1.45495.00152.53617.38094.75246.84757.48305l-.00028-.09811c-.42088.24299-.76052.04944-.76189-.43425-.00136-.48008.33607-1.06797.75695-1.31096.41782-.24123.75747-.04425.75883.43583l.08538-.04929c-.00151-.53256-.38091-.74886-.84448-.48122z" fill="#b0b8bc"/></g></g></g><g><path d="m34.99741 16.22845-.08907 31.41868-20.77739-11.99584.08907-31.41868z" fill="#dde4e7"/></g></g><g><g><path d="m30.34516 27.88351-.00419 1.47722.00392-1.38197-4.96739-2.86792-.00392 1.38196-.08591-.0496.00419-1.47722.08591.04961z" fill="#b0b8bc"/></g><g><path d="m30.32839 33.79945-.00419 1.47721.00392-1.38195-4.96739-2.86793-.00392 1.38196-.08591-.0496.00419-1.47721.08591.0496z" fill="#b0b8bc"/></g><g><path d="m33.64059 41.63738.08284.04782-.00447 1.57594-3.3259-1.92021-.08593-.04961.00447-1.57593.08593.04961zm-.00419 1.47724.00391-1.37854-3.24306-1.87238-.00391 1.37854z" fill="#b0b8bc"/></g><g enable-background="new"><g><path d="m33.72763 40.20455-.0042 1.48066-.08283-.04783.00392-1.38196-3.24307-1.87239-.00392 1.38197-.08592-.04961.0042-1.48066.08592.04961 3.24307 1.87238z" fill="#b0b8bc"/></g><g><path d="m33.73182 38.72733-.00419 1.47722-.08283-.04783.0039-1.37851-3.24307-1.87239-.0039 1.37852-.08592-.04961.00419-1.47722.08591.04961 3.24307 1.87239z" fill="#b0b8bc"/></g><g><path d="m33.73602 37.24648-.0042 1.48085-.08284-.04782.00392-1.38215-3.24307-1.8724-.00392 1.38216-.08591-.04961.0042-1.48085.08591.04961 3.24307 1.87239z" fill="#b0b8bc"/></g></g><g><path d="m33.7402 35.76926-.00418 1.47722-.08284-.04782.00392-1.38196-3.24307-1.87239-.00392 1.38196-.08591-.04961.00419-1.47721.08591.0496 3.24307 1.87239z" fill="#b0b8bc"/></g><g><path d="m17.13677 32.13016-.00016.05642-1.57706-.91051-.00403 1.42079 1.57706.91051-.00016.05643-1.62614-.93885.00418-1.47722.00016-.05643.04909.02834z" fill="#b0b8bc"/></g><g enable-background="new"><g><path d="m17.14515 29.17209-.00016.05643-1.57705-.91052-.00403 1.42079-.04909-.02834-.00016.05643.00419-1.47722.00016-.05642.04909.02834z" fill="#b0b8bc"/></g><g><path d="m17.14935 27.69143-.00016.05643-1.57706-.91052-.00403 1.42424-.04909-.02834-.00016.05642.0042-1.48066.00016-.05642.04908.02834z" fill="#b0b8bc"/></g><g><path d="m17.21855 33.63576 8.03557 4.63934-.00028.0987-8.1215-4.68895.00006-.02104.00016-.05641.00403-1.42083.00016-.05641.00005-.02125.08593.04961 8.03558 4.63935-.00028.09869-8.03558-4.63934z" fill="#b0b8bc"/></g><g><path d="m25.26251 35.31721-.0042 1.48066.00392-1.38197-8.03557-4.63933-.00392 1.38196-.08591-.04961-.00006.02124.00404-1.42443.00016-.05642.00006-.02104.08591.0496z" fill="#b0b8bc"/></g><g><path d="m25.2667 33.83999-.00419 1.47722.00391-1.37852-8.03557-4.63934-.00391 1.37852-.08591-.0496-.00006.02104.00402-1.42079.00016-.05643.00007-.02104.08591.0496z" fill="#b0b8bc"/></g><g><path d="m25.2709 32.35914-.0042 1.48085.00392-1.38215-8.03557-4.63934-.00392 1.38215-.08591-.0496-.00007.02104.00404-1.42423.00016-.05643.00006-.02123.08592.0496z" fill="#b0b8bc"/></g><g><path d="m25.34002 38.3247 4.96739 2.86792-.00028.0987-4.96739-2.86793-.0859-.04959.00447-1.57593.08589.04959 4.9674 2.86793-.00028.09869-4.96739-2.86792z" fill="#b0b8bc"/></g><g><path d="m30.31581 38.23473-.0042 1.48066.00392-1.38196-4.96738-2.86792-.00392 1.38196-.08592-.0496.0042-1.48066.08591.0496z" fill="#b0b8bc"/></g><g><path d="m25.27928 29.40127-.00419 1.48066.00391-1.38196-8.03557-4.63934-.00391 1.38196-.08592-.0496-.00006.02123.00404-1.42443.00016-.05642.00006-.02104.08591.0496z" fill="#b0b8bc"/></g><g><path d="m30.32 36.75751-.00419 1.47722.00391-1.37852-4.96739-2.86792-.00391 1.37852-.08591-.0496.00419-1.47722.08591.04961z" fill="#b0b8bc"/></g><g><path d="m25.28347 27.92405-.00419 1.47722.00392-1.38215-8.03557-4.63934-.00392 1.38215-.08591-.0496-.00006.02104.00404-1.42424.00015-.05298.00006-.02104.08591.0496z" fill="#b0b8bc"/></g><g><path d="m25.28767 26.4432-.0042 1.48085.00392-1.38215-8.03557-4.63934-.00392 1.38215-.08591-.0496-.00006.02104.00403-1.42423.00016-.05643.00007-.02123.08591.0496z" fill="#b0b8bc"/></g><g><path d="m30.33258 32.31879-.00419 1.48066.00391-1.38196-4.96738-2.86792-.00392 1.38196-.08591-.0496.00419-1.48066.08592.0496z" fill="#b0b8bc"/></g><g><path d="m30.33677 30.84158-.00419 1.47721.00392-1.38215-4.96738-2.86792-.00392 1.38215-.08592-.0496.00419-1.47722.08591.0496z" fill="#b0b8bc"/></g><g><path d="m30.34097 29.36073-.0042 1.48085.00392-1.38216-4.96739-2.86792-.00392 1.38215-.08591-.0496.0042-1.48085.08591.0496z" fill="#b0b8bc"/></g><g><path d="m33.7444 34.2886-.0042 1.48066-.08283-.04782.00392-1.38196-3.24307-1.87239-.00392 1.38196-.08591-.0496.00419-1.48066.08592.0496 3.24307 1.87239z" fill="#b0b8bc"/></g><g><path d="m33.74859 32.81139-.00419 1.47721-.08283-.04782.00392-1.38215-3.24308-1.87239-.00391 1.38215-.08592-.0496.00419-1.47721.08592.0496 3.24307 1.87239z" fill="#b0b8bc"/></g><g><path d="m33.75279 31.33054-.0042 1.48085-.08283-.04782.00391-1.38216-3.24307-1.87238-.00391 1.38215-.08592-.0496.0042-1.48085.08591.0496 3.24308 1.87238z" fill="#b0b8bc"/></g><g><path d="m33.75698 29.85332-.00419 1.47722-.08283-.04783.00391-1.38196-3.24307-1.87238-.00392 1.38196-.08591-.0496.00419-1.47722.08591.0496 3.24307 1.87239z" fill="#b0b8bc"/></g><g><path d="m33.76117 28.37267-.00419 1.48065-.08284-.04782.00392-1.38196-3.24307-1.87239-.00392 1.38196-.08591-.0496.0042-1.48066.08591.0496 3.24307 1.87239z" fill="#b0b8bc"/></g></g><g><path d="m17.15354 26.21422-.00016.05642-1.57706-.91051-.00403 1.42079-.04908-.02834-.00016.05642.00419-1.47721.00016-.05643.04908.02834z" fill="#b0b8bc"/></g><g><path d="m30.3242 35.27666-.0042 1.48085.00392-1.38215-4.96739-2.86792-.00392 1.38216-.08591-.04961.0042-1.48085.08591.0496z" fill="#b0b8bc"/></g><g><path d="m25.27509 30.88193-.00419 1.47721.00392-1.38196-8.03558-4.63934-.00391 1.38196-.08592-.0496-.00006.02123.00403-1.42079.00016-.05642.00006-.02123.08592.0496z" fill="#b0b8bc"/></g><g><path d="m17.15774 24.73337-.00016.05642-1.57706-.91051-.00404 1.42442-.04908-.02834-.00016.05643.0042-1.48085.00016-.05643.04908.02834z" fill="#b0b8bc"/></g><g><path d="m17.16193 23.25615-.00015.05298-1.57706-.91051-.00404 1.42423-.04908-.02834-.00016.05643.00419-1.48066.00015-.05298.04909.02833z" fill="#b0b8bc"/></g><g><path d="m17.16612 21.77549-.00016.05643-1.57705-.91052-.00404 1.42423-.04909-.02833-.00015.05298.00419-1.47722.00016-.05642.04909.02833z" fill="#b0b8bc"/></g><g><path d="m17.17031 20.29827-.00015.0528-1.57706-.91052-.00403 1.42442-.04909-.02833-.00016.05642.0042-1.48085.00015-.05279.04908.02834z" fill="#b0b8bc"/></g><g><path d="m25.29186 24.96598-.00419 1.47722.00392-1.38196-8.03557-4.63934-.00392 1.38196-.08591-.0496-.00007.02123.00404-1.42442.00015-.0528.00006-.02123.08592.0496z" fill="#b0b8bc"/></g><g><path d="m25.30025 22.00447-.0042 1.48085.00392-1.38196-8.03557-4.63933-.00392 1.38196-.08591-.04961-.00006.02104.00404-1.42423.00016-.05642.00006-.02124z" fill="#b0b8bc"/></g><g><path d="m25.29605 23.48532-.00419 1.48066.00391-1.38196-8.03557-4.63934-.00391 1.38196-.08592-.0496-.00006.02123.00404-1.42442.00016-.05643.00006-.02104.08591.04961z" fill="#b0b8bc"/></g><g><path d="m17.17451 18.81742-.00016.05643-1.57706-.91051-.00404 1.42442-.04908-.02834-.00015.05279.00419-1.47721.00016-.05643.04908.02834z" fill="#b0b8bc"/></g><g><path d="m17.17871 17.33677-.00016.05642-1.57706-.91051-.00404 1.42423-.04908-.02834-.00016.05643.00435-1.53709z" fill="#b0b8bc"/></g><g><path d="m33.76537 26.89182-.0042 1.48085-.08283-.04783.00392-1.38196-3.24307-1.87239-.00392 1.38196-.08591-.0496.00419-1.48085z" fill="#b0b8bc"/></g><g><path d="m30.34936 26.40285-.0042 1.48066.00392-1.38196-4.96739-2.86792-.00392 1.38196-.08591-.04961.00419-1.48066.08592.04961z" fill="#b0b8bc"/></g><g><path d="m30.35355 24.922-.00419 1.48085.00391-1.38196-4.96738-2.86792-.00392 1.38196-.08592-.04961.0042-1.48085z" fill="#b0b8bc"/></g><g><path d="m17.14097 30.64931-.00016.05642-1.57706-.91051-.00404 1.42442-.04909-.02834-.00016.05643.0042-1.48085.00016-.05643.04909.02834z" fill="#b0b8bc"/></g></g><g><g><path d="m33.80225 17.54722-.00284 1.00831-18.30254-10.64111.00284-1.00831z" fill="#b0b8bc"/></g><g><path d="m31.16294 17.88063-.00167.59442-13.03439-7.5782.00167-.59442z" fill="#b0b8bc"/></g></g></g></svg>