<svg id="Layer_1" enable-background="new 0 0 50 50" height="512" viewBox="0 0 50 50" width="512" xmlns="http://www.w3.org/2000/svg"><g><g><g><g enable-background="new"><g><path d="m49 31.51008-.00372 1.31002-21.82314 12.68223.00371-1.31003z" fill="#b0b8bc"/></g><g><path d="m27.17685 44.1923-.00371 1.31003-26.17314-15.11107.00371-1.31002z" fill="#cfd8dd"/></g><g><path d="m49 32.8124-.00372 2.20156-21.82314 12.68223.00371-2.20156z" fill="#765f54"/></g><g><path d="m27.17685 45.49463-.00371 2.20156-26.17314-15.11107.00371-2.20156z" fill="#8b6f62"/></g><g><path d="m49 31.51008-21.82315 12.68222-26.17314-15.11106 21.82315-12.68223z" fill="#dde4e7"/></g></g></g></g><g><g enable-background="new"><g><path d="m47.04932 16.16231-.04325 15.25405-14.59401 8.48111.04325-15.25405z" fill="#b0b8bc"/></g><g><path d="m32.45531 24.64342-.04325 15.25405-23.67707-13.66997.04325-15.25404z" fill="#cfd8dd"/></g><g><path d="m47.04932 16.16231-14.59401 8.48111-23.67707-13.66996 14.59401-8.48111z" fill="#878d8f"/></g></g></g><g><g enable-background="new"><g><path d="m48.63634 17.06772-25.40599-14.76434-7.85592 2.85734 25.40599 14.76434z" fill="#525ba8"/></g><g><path d="m32.934 26.13348-25.406-14.76434.02655.16069 25.40599 14.76434z" fill="#525ba8"/></g><g><path d="m40.78042 19.92506-25.40599-14.76434-7.84643 6.20842 25.406 14.76434z" fill="#616ab1"/></g><g><path d="m40.78042 19.92506-7.84642 6.20842.02654.16069 7.8204-6.18587 7.82661-2.84793.02879-.19265z" fill="#475195"/></g></g></g><g><path d="m12.07005 18.33975-.02921 9.34703 7.13158 4.11888v-9.36388z" fill="#40545d"/><g><g enable-background="new"><g><path d="m19.17242 31.46331-7.13021-4.11674-.00097.34182 7.13118 4.11727z" fill="#40545d"/></g><g><path d="m19.17242 30.77032-7.12827-4.1154-.00097.34583 7.12924 4.11593z" fill="#40545d"/></g><g><path d="m19.17242 30.08134-7.1263-4.11433-.00097.34181 7.12727 4.11513z" fill="#40545d"/></g><g><path d="m19.17242 29.73498-7.12533-4.1138-.00097.34583 7.1263 4.11433z" fill="#485f69"/></g><g><path d="m19.17242 29.38861-7.12436-4.11325-.00097.34582 7.12533 4.1138z" fill="#40545d"/></g><g><path d="m19.17242 29.04626-7.12339-4.11272-.00097.34182 7.12436 4.11325z" fill="#485f69"/></g><g><path d="m19.17242 28.69963-7.12242-4.11191-.00097.34582 7.12339 4.11272z" fill="#40545d"/></g><g><path d="m19.17242 28.35327-7.12141-4.11138-.00101.34583 7.12242 4.11191z" fill="#485f69"/></g><g><path d="m19.17242 28.00691-7.12044-4.11112-.00097.3461 7.12141 4.11138z" fill="#40545d"/></g><g><path d="m19.17242 27.66456-7.11947-4.11058-.00097.34181 7.12044 4.11112z" fill="#485f69"/></g><g><path d="m19.17242 27.31793-7.1185-4.10978-.00097.34583 7.11947 4.11058z" fill="#40545d"/></g><g><path d="m19.17242 26.97157-7.1175-4.10924-.001.34582 7.1185 4.10978z" fill="#485f69"/></g><g><path d="m19.17242 26.62922-7.11653-4.1087-.00097.34181 7.1175 4.10924z" fill="#40545d"/></g><g><path d="m19.17242 26.28286-7.11556-4.10817-.00097.34583 7.11653 4.1087z" fill="#485f69"/></g><g><path d="m19.17242 25.9365-7.11459-4.10764-.00097.34583 7.11556 4.10817z" fill="#40545d"/></g><g><path d="m19.17242 25.58987-7.11362-4.10684-.00097.34583 7.11459 4.10764z" fill="#485f69"/></g><g><path d="m19.17242 25.24752-7.11265-4.10657-.00097.34208 7.11362 4.10684z" fill="#40545d"/></g><g><path d="m19.17242 24.90116-7.11164-4.10603-.00101.34582 7.11265 4.10657z" fill="#485f69"/></g><g><path d="m19.17242 24.55479-7.11067-4.10549-.00097.34583 7.11164 4.10603z" fill="#40545d"/></g><g><path d="m19.17242 24.21218-7.1097-4.10469-.00097.34181 7.11067 4.10549z" fill="#485f69"/></g><g><path d="m19.17242 23.86582-7.10873-4.10416-.00097.34583 7.1097 4.10469z" fill="#40545d"/></g><g><path d="m19.17242 23.51945-7.10773-4.10362-.001.34583 7.10873 4.10416z" fill="#485f69"/></g><g><path d="m19.17242 23.17282-7.10676-4.10308-.00097.34609 7.10773 4.10362z" fill="#40545d"/></g><g><path d="m19.17242 22.83047-7.10579-4.10254-.00097.34181 7.10676 4.10308z" fill="#485f69"/></g></g><g><path d="m19.17242 30.42395-7.12727-4.11513-.001.3461 7.12827 4.1154z" fill="#485f69"/></g><g><path d="m19.17242 31.11668-7.12924-4.11593-.00097.34582 7.13021 4.11674z" fill="#485f69"/></g></g><g><path d="m12.07005 18.33975-.41937-.24224-.03048 9.79966.42064-.21039z" fill="#9aa1a5"/><path d="m19.17242 31.80566-7.13158-4.11888-.42064.21039 7.55095 4.36084z" fill="#dde4e7"/></g></g><g><path d="m22.46773 24.32123-.02921 9.34703 7.13159 4.11888v-9.36388z" fill="#40545d"/><g><g enable-background="new"><g><path d="m29.57011 37.44479-7.13021-4.11674-.00098.34181 7.13119 4.11728z" fill="#40545d"/></g><g><path d="m29.57011 36.7518-7.12827-4.1154-.00097.34583 7.12924 4.11593z" fill="#40545d"/></g><g><path d="m29.57011 36.06282-7.1263-4.11433-.00097.34182 7.12727 4.11512z" fill="#40545d"/></g><g><path d="m29.57011 35.71646-7.12533-4.1138-.00097.34583 7.1263 4.11433z" fill="#485f69"/></g><g><path d="m29.57011 35.37009-7.12436-4.11325-.00097.34582 7.12533 4.1138z" fill="#40545d"/></g><g><path d="m29.57011 35.02775-7.12339-4.11272-.00097.34181 7.12436 4.11325z" fill="#485f69"/></g><g><path d="m29.57011 34.68112-7.12242-4.11192-.00097.34583 7.12339 4.11272z" fill="#40545d"/></g><g><path d="m29.57011 34.33475-7.12141-4.11138-.00101.34583 7.12242 4.11192z" fill="#485f69"/></g><g><path d="m29.57011 33.98839-7.12044-4.11111-.00097.34609 7.12141 4.11138z" fill="#40545d"/></g><g><path d="m29.57011 33.64605-7.11947-4.11059-.00097.34182 7.12044 4.11111z" fill="#485f69"/></g><g><path d="m29.57011 33.29942-7.1185-4.10978-.00097.34582 7.11947 4.11059z" fill="#40545d"/></g><g><path d="m29.57011 32.95305-7.1175-4.10924-.001.34583 7.1185 4.10978z" fill="#485f69"/></g><g><path d="m29.57011 32.6107-7.11653-4.1087-.00097.34181 7.1175 4.10924z" fill="#40545d"/></g><g><path d="m29.57011 32.26434-7.11556-4.10817-.00097.34583 7.11653 4.1087z" fill="#485f69"/></g><g><path d="m29.57011 31.91798-7.11459-4.10764-.00097.34583 7.11556 4.10817z" fill="#40545d"/></g><g><path d="m29.57011 31.57135-7.11362-4.10683-.00097.34582 7.11459 4.10764z" fill="#485f69"/></g><g><path d="m29.57011 31.229-7.11265-4.10656-.00097.34208 7.11362 4.10683z" fill="#40545d"/></g><g><path d="m29.57011 30.88264-7.11164-4.10603-.00101.34583 7.11265 4.10656z" fill="#485f69"/></g><g><path d="m29.57011 30.53628-7.11067-4.1055-.00097.34583 7.11164 4.10603z" fill="#40545d"/></g><g><path d="m29.57011 30.19366-7.1097-4.10469-.00097.34181 7.11067 4.1055z" fill="#485f69"/></g><g><path d="m29.57011 29.8473-7.10873-4.10416-.00097.34583 7.1097 4.10469z" fill="#40545d"/></g><g><path d="m29.57011 29.50093-7.10773-4.10362-.001.34583 7.10873 4.10416z" fill="#485f69"/></g><g><path d="m29.57011 29.1543-7.10676-4.10308-.00097.34609 7.10773 4.10362z" fill="#40545d"/></g><g><path d="m29.57011 28.81196-7.10579-4.10255-.00097.34181 7.10676 4.10308z" fill="#485f69"/></g></g><g><path d="m29.57011 36.40543-7.12727-4.11512-.001.34609 7.12827 4.1154z" fill="#485f69"/></g><g><path d="m29.57011 37.09816-7.12924-4.11593-.00097.34582 7.13021 4.11674z" fill="#485f69"/></g></g><g><path d="m22.46773 24.32123-.41937-.24224-.03048 9.79966.42064-.21039z" fill="#9aa1a5"/><path d="m29.57011 37.78714-7.13159-4.11888-.42064.21039 7.55096 4.36085z" fill="#dde4e7"/></g></g><g><g><g><g><path d="m42.8695 22.05364.00709 2.63255 1.94922-1.12565 1.13409-.65488v-.08369l-.00142-.30899v-.37849l-.00567-1.86132-1.03911.60104-.21123.12051-.17294.10064-1.18088.68188z" fill="#4bb5e7"/></g></g><g><path d="m42.87659 24.68557 3.08373-1.78039.24236.13207-3.32532 1.91987z" fill="#dde4e7"/><path d="m45.96032 22.90518-.00746-2.63214.2416-.13955.00823 2.90376h-.00001z" fill="#cfd8dd"/></g><g fill="#61c4f0"><path d="m44.70247 20.99472 1.25601 1.51826v-.37849l-1.04478-1.26028z"/><path d="m43.34865 21.77724 1.47716 1.7833 1.13409-.65488v-.08369l-1.43037-1.72661z"/></g></g><g><g><g><path d="m38.19896 24.75585.0071 2.63256 1.94922-1.12565 1.13409-.65488v-.08369l-.00142-.309v-.37849l-.00567-1.86131-1.03911.60103-.21123.12051-.17295.10065-1.18087.68188z" fill="#4bb5e7"/></g></g><g><path d="m38.20606 27.38778 3.08373-1.78039.24236.13207-3.32532 1.91987z" fill="#dde4e7"/><path d="m41.28979 25.60739-.00746-2.63214.2416-.13955.00823 2.90376h-.00001z" fill="#cfd8dd"/></g><g fill="#61c4f0"><path d="m40.03194 23.69693 1.25601 1.51826v-.37849l-1.04478-1.26028z"/><path d="m38.67812 24.47946 1.47716 1.7833 1.13409-.65488v-.08369l-1.43038-1.72661z"/></g></g><g><g><g><path d="m33.52843 27.45807.0071 2.63255 1.94922-1.12564 1.13409-.65489v-.08369l-.00142-.30899v-.37849l-.00568-1.86132-1.0391.60104-.21124.12051-.17294.10064-1.18088.68188z" fill="#4bb5e7"/></g></g><g><path d="m33.53553 30.09 3.08372-1.7804.24236.13208-3.32531 1.91987z" fill="#dde4e7"/><path d="m36.61925 28.3096-.00746-2.63213.24161-.13955.00823 2.90376h-.00002z" fill="#cfd8dd"/></g><g fill="#61c4f0"><path d="m35.3614 26.39915 1.25602 1.51826v-.37849l-1.04478-1.26028z"/><path d="m34.00758 27.18167 1.47717 1.78331 1.13409-.65489v-.08369l-1.43038-1.72661z"/></g></g></g></g></svg>