<svg id="Layer_1" enable-background="new 0 0 52 52" height="512" viewBox="0 0 52 52" width="512" xmlns="http://www.w3.org/2000/svg"><g><g><g enable-background="new"><g><path d="m3.17258 32.50029-.02138 7.54126-1.1512-6.5544.02138-7.54126z" fill="#2ebf69"/></g><g><path d="m3.17258 34.87081-.02138 2.87838-1.1512-6.5544.02138-2.87838z" fill="#525566"/></g><g><path d="m17.97665 41.04742-.02138 7.54126-14.80407-8.54713.02138-7.54126z" fill="#30b265"/></g><g><path d="m17.97665 43.34822-.02138 2.93966-14.80407-8.54713.02138-2.93967z" fill="#5b5e71"/><path d="m3.99584 37.25721.00723-1.00554 13.12896 7.58004-.00723 1.00561z" fill="#e5bd13"/></g><g><path d="m29.29697 41.69346-.02138 7.54126-11.32032-.64604.02138-7.54126z" fill="#2ebf69"/></g><g><path d="m29.29697 43.9609-.02138 2.83134-11.32032-.64603.02138-2.83134z" fill="#525566"/><path d="m18.80241 45.3522.00854-1.14737 9.63889.55011-.00854 1.14737z" fill="#e5bd13"/></g><g><path d="m50 29.66217-.02138 7.54126-20.70303 12.03129.02138-7.54126z" fill="#30b265"/></g><g><path d="m48.84875 23.10652 1.15125 6.55565-20.70303 12.03129-11.32032-.64604-14.80407-8.54713-1.1512-6.5544 20.70303-12.03129 11.32028.64478z" fill="#2ecc71"/></g></g></g><g><g><path d="m32.39262 42.01415c.77672-.44844 1.4075-.08898 1.41003.80356.00253.89086-.62415 1.978-1.40088 2.42644-.77533.44764-1.40753.08731-1.41006-.80355-.00252-.89254.62558-1.97882 1.40091-2.42645zm.00756 2.66751c.50563-.29192.91465-1.00038.913-1.58136-.00165-.581-.41335-.8173-.91898-.52538-.50565.29193-.91611 1.00291-.91446 1.58392.00165.58098.41479.81476.92044.52282" fill="#5b5e71"/></g><g><path d="m32.39422 42.57493c.50562-.29192.91732-.05563.91897.52538.00164.58099-.40738 1.28945-.91299 1.58137-.50566.29194-.91879.05815-.92043-.52284-.00165-.581.4088-1.29197.91445-1.58391z" fill="#e74c3c"/></g><g><path d="m37.21871 39.2278c.77675-.44846 1.40751-.08898 1.41003.80356.00253.89085-.62413 1.97799-1.40088 2.42644-.77528.44761-1.40607.08646-1.40859-.8044-.00252-.89253.62416-1.97799 1.39944-2.4256zm.00756 2.66751c.50563-.29192.91612-1.00123.91447-1.5822-.00165-.581-.41482-.81645-.92044-.52453-.5056.29191-.91462 1.00206-.91298 1.58306.00166.58097.41335.81559.91895.52367" fill="#5b5e71"/></g><g><path d="m37.22032 39.78858c.50562-.29192.91879-.05647.92044.52453.00165.58099-.40885 1.2903-.91446 1.58222-.50562.29192-.91732.0573-.91896-.52369-.00166-.581.40736-1.29114.91298-1.58306z" fill="#e74c3c"/></g><g><path d="m42.04628 36.44061c.77677-.44847 1.4075-.08898 1.41003.80356.00253.89086-.62411 1.97797-1.40088 2.42644-.77528.44761-1.40753.08731-1.41005-.80355-.00253-.89254.62562-1.97885 1.4009-2.42645zm.00756 2.66751c.50563-.29192.91612-1.00123.91447-1.5822-.00165-.581-.41482-.81646-.92044-.52453-.5056.29191-.91609 1.0029-.91444 1.5839.00164.58097.41481.81474.92041.52283" fill="#5b5e71"/></g><g><path d="m42.04789 37.00138c.50562-.29192.91879-.05647.92044.52453.00165.58099-.40885 1.2903-.91446 1.58222-.50562.29192-.91879.05816-.92043-.52284-.00166-.581.40883-1.29199.91445-1.58391z" fill="#e74c3c"/></g><g><path d="m46.87386 33.6534c.77674-.44846 1.40748-.08897 1.41001.80358.00253.89085-.62411 1.97797-1.40086 2.42643-.77528.44761-1.40755.08732-1.41008-.80354-.00252-.89255.62565-1.97886 1.40093-2.42647zm.00756 2.66751c.5056-.29191.91463-1.00037.91298-1.58134-.00165-.581-.41335-.8173-.91895-.52539-.50562.29192-.91611 1.00291-.91446 1.58392.00165.58097.41481.81473.92043.52281" fill="#5b5e71"/></g><g><path d="m46.87545 34.21419c.50562-.29192.91732-.05563.91896.52538.00165.58099-.40738 1.28945-.91299 1.58137-.50562.29192-.91879.05815-.92043-.52284-.00164-.58101.40884-1.29199.91446-1.58391z" fill="#e74c3c"/></g></g><g><g enable-background="new"><g><path d="m7.74287 26.5499-.00354 1.25116-.01601-3.09643.00354-1.25115z" fill="#767879"/></g><g><path d="m43.45632 26.54975-.00355 1.25115-15.13366 8.79472.00355-1.25115z" fill="#e0e2e2"/></g><g><path d="m22.97693 35.34529-.00354 1.25116-15.23406-8.79539.00354-1.25116z" fill="#e0e2e2"/></g><g><path d="m28.32266 35.34447-.00355 1.25115-5.34572.00083.00354-1.25116z" fill="#d4d6d6"/></g><g><path d="m43.43888 23.45411.01744 3.09564-15.13366 8.79472-5.34573.00082-15.23406-8.79539-.01601-3.09642 15.13366-8.79472 5.3443-.00004z" fill="#ecf0f1"/><path d="m8.33446 26.20627-.01255-2.41238 14.69852-8.54174h5.02545l14.80148 8.5457.01372 2.41151-14.69834 8.54173-5.0268.00078z" fill="#5b5e71"/></g></g></g><g><g><g><g><path d="m10.58693 10.60802.04723 14.92364 15.00474 8.7198-.04724-14.92364z" fill="#d6b218"/></g><g><path d="m25.59166 19.32782.04724 14.92364 13.60035-7.85217-.04723-14.92364z" fill="#e5bd13"/></g><g><path d="m10.58372 10.61737 15.00798 8.71959 5.94113-3.43969 1.7199-.97281.03467-.01729 5.90646-3.4223-15.00808-8.71959-5.94113 3.4223-.01739.01739-1.70241.97282z" fill="#f1c40f"/></g><g><path d="m16.52485 7.17779 15.00798 8.71948 1.7199-.97281.03467-.01729-15.04275-8.71959-.01739.01739z" fill="#e74c3c"/></g><g><path d="m31.53283 15.89727.01601 2.46468.96192-1.23166.77664.2388-.016-2.46468z" fill="#d8463f"/></g><g><g><g><path d="m22.58282 27.66972-.46811.8907.28991.16738.63973.3666z" fill="#3f434f"/></g></g><g><g><path d="m22.40462 28.7278-.00499 1.76201.3498.20196.005-1.76201z" fill="#3f434f"/></g></g><g><g><path d="m20.66691 29.64661-.00107.37718 2.41512 1.39438.00107-.37718z" fill="#3f434f"/></g></g><g><g><path d="m18.09997 25.08155-.00356 1.25543c-.00113.39645.22796.85688.53209 1.09037l-.00321 1.13154c-.21331-.09834-.37413-.08916-.37447.02923l.94162.54364c.00033-.11838-.1599-.31293-.37307-.46082l.00321-1.13154c.13903.05545.25906.04202.35283-.01691.11063-.08228.18306-.23626.18368-.45651l.00356-1.25543z" fill="#3f434f"/></g></g><g><g><path d="m21.00538 27.91995-.005 1.76201.34982.20197.00499-1.76201z" fill="#3f434f"/></g></g><g><g><path d="m21.18118 26.86048-.46571.89209.28991.16738.63733.36521z" fill="#3f434f"/></g></g></g></g><g><g><path d="m27.69163 28.1411v3.67216l5.52475-3.21377v-3.67646z" fill="#ecf0f1"/></g><g><g><g><path d="m27.69163 29.88343v.17193l5.52475-3.18952v-.17493z" fill="#a4a9b3"/></g></g><g><g><path d="m27.69163 30.52622v.18319l5.52475-3.18952v-.19032z" fill="#3f434f"/></g></g><g><g><path d="m27.69163 31.16763v.19119l5.52475-3.18547v-.19119z" fill="#a4a9b3"/></g></g><g><g><path d="m27.69163 29.22138v.18921l5.52475-3.19253v-.18215z" fill="#a4a9b3"/></g></g><g><g><path d="m27.69163 28.57197v.18112l5.52475-3.1896v-.18103z" fill="#a4a9b3"/></g></g></g></g></g></g><g><g><g enable-background="new"><g><path d="m39.32767 18.5091-.04571 16.12359-1.67495.97338.04571-16.12359z" fill="#9e6e46"/></g><g><path d="m37.65272 19.48248-.04571 16.12359-1.68721-.97411.04572-16.12359z" fill="#a87648"/></g><g><path d="m39.32767 18.5091-1.67495.97338-1.6872-.97411 1.67495-.97338z" fill="#bc874d"/></g></g></g><g><g enable-background="new"><g><path d="m15.18124 19.53157-.04571 16.12359-1.67495.97338.04571-16.12359z" fill="#9e6e46"/></g><g><path d="m13.50629 20.50495-.04571 16.12359-1.68721-.97411.04571-16.12359z" fill="#a87648"/></g><g><path d="m15.18124 19.53157-1.67495.97338-1.68721-.97411 1.67496-.97338z" fill="#bc874d"/></g></g></g></g></g></svg>