<svg id="Layer_1" enable-background="new 0 0 52 52" height="512" viewBox="0 0 52 52" width="512" xmlns="http://www.w3.org/2000/svg"><g><g><g><path d="m47.95853 31.56507.00703 1.93921 1.32478.76988-.00703-1.93921z" fill="#464957"/></g><g><path d="m14.0678 26.9132c0 .87995-.3168 1.50174-.8213 1.79505l-3.30861 1.92417c.50449-.29332.8213-.91518.8213-1.80687.01174-1.77157-1.24366-3.94214-2.79237-4.83383-.77432-.44585-1.49007-.49275-1.99456-.19943l3.30861-1.91242c.50449-.30506 1.20849-.25808 1.99456.18776 1.54872.89161 2.79237 3.06219 2.79237 4.84557z" fill="#363a44"/></g><g><path d="m35.23123 39.21582c0 .87994-.31681 1.50174-.8213 1.79505l-3.30861 1.92417c.5045-.29332.8213-.91518.8213-1.80687.01174-1.77156-1.24365-3.94214-2.79237-4.83384-.77432-.44584-1.49006-.49275-1.99456-.19943l3.30861-1.91242c.50449-.30506 1.20849-.25808 1.99456.18776 1.54872.89162 2.79237 3.06219 2.79237 4.84558z" fill="#363a44"/></g><g><g><path d="m23.98149 29.47924-21.98149-12.77425.07347 7.21733 21.98149 12.77425z" fill="#d4d6d6"/></g></g><g><g><path d="m37.55783 21.64094-21.99545-12.76619-13.56238 7.83024 21.98149 12.77425z" fill="#ecf0f1"/></g><g><g><g><path d="m2.9971 16.70642 3.85108 2.23797 8.71338-5.03058v-4.4613z" fill="#e0e2e2"/></g><g><path d="m15.56156 9.45251v4.4613l17.14477 9.95099 3.85327-2.22479z" fill="#d4d6d6"/></g></g><g><path d="m32.70633 23.8648-17.14477-9.95099-8.71338 5.03058 17.13428 9.95734z" fill="#c4c6c6"/></g></g></g><g><g><path d="m23.98149 29.47924.07347 7.21733 13.57633-7.8383-.07346-7.21733z" fill="#e0e2e2"/></g></g><g><g><path d="m31.01656 21.13688c-.3575-.21029-.85798-.18087-1.40472.13456-1.09348.63086-1.97249 2.16175-1.96828 3.41087 0 .62665.22292 1.06404.57618 1.27011l-15.59198-8.9792c-.35748-.2061-.57618-.64349-.57618-1.27014-.00421-1.24911.8748-2.77998 1.96828-3.41084.54674-.31543 1.04304-.34487 1.40473-.13459z" fill="#5b5e71"/></g><g><path d="m26.93538 23.78654c-.37-.20996-.85999-.17999-1.41003.13-1.08997.63-1.96997 2.16003-1.96997 3.42004 0 .62.21997 1.06.58002 1.25995l-6.53003-3.75995-.38-.22003-3.57001-2.04999-.37-.22003-4.75-2.72998c-.34998-.20001-.57001-.64001-.57001-1.27002-.00995-1.23999.88001-2.77997 1.97003-3.40997.54999-.31 1.03998-.34003 1.39996-.13l2.34003 1.34997.39001.22003 3.54999 2.04999.39001.22003z" fill="#2ecc71"/></g><g><g><path d="m29.61246 21.26982c1.09094-.62985 1.97978-.12054 1.98333 1.13025.00355 1.25359-.87952 2.7803-1.97046 3.41016-1.08852.62846-1.97978.12616-1.98334-1.12743-.00354-1.25079.88195-2.78452 1.97047-3.41298z" fill="#d4d6d6"/></g><g><path d="m31.24402 22.60182c0 .32346-.0696.67151-.19653 1.00725v.0041c-.27843.73701-.81074 1.43719-1.42492 1.79342-.89261.51592-1.62553.10236-1.62963-.92538 0-.72065.35213-1.55183.87624-2.16192.2211-.26616.47496-.48725.74521-.64695.89672-.51591 1.62554-.09826 1.62963.92948z" fill="#e67e22"/></g><g><path d="m31.04749 23.60907v.0041c-.27843.73701-.81074 1.43719-1.42492 1.79342-.89261.51592-1.62553.10236-1.62963-.92538 0-.72065.35213-1.55183.87624-2.16192z" fill="#c4c6c6"/></g></g><g><g><path d="m25.42357 23.92163c1.09094-.62985 1.97978-.12054 1.98333 1.13025.00356 1.25359-.87952 2.7803-1.97046 3.41016-1.08852.62846-1.97978.12616-1.98334-1.12743-.00354-1.2508.88195-2.78452 1.97047-3.41298z" fill="#cc6723"/></g><g><path d="m27.05513 25.25362c0 .32346-.0696.67151-.19653 1.00725v.0041c-.27843.73702-.81074 1.43719-1.42492 1.79342-.89261.51592-1.62553.10236-1.62963-.92538 0-.72065.35213-1.55183.87624-2.16191.2211-.26616.47496-.48726.74521-.64695.89671-.51592 1.62553-.09827 1.62963.92947z" fill="#db7121"/></g><g><path d="m26.8586 26.26087v.0041c-.27843.73702-.81074 1.43719-1.42492 1.79342-.89261.51592-1.62553.10236-1.62963-.92538 0-.72065.35213-1.55183.87624-2.16191z" fill="#c16527"/></g></g><g><path d="m28.94539 19.00657c-.36005-.21002-.86005-.17999-1.41003.13-1.08997.63-1.96997 2.16998-1.96997 3.41998 0 .62.21997 1.06.58002 1.26001l-8.17004-4.77002-.38-.22998-3.56-2.07001-.38-.22998-3.64996-2.13c-.35004-.21002-.57001-.65002-.57001-1.27002-.01001-1.25.88-2.77997 1.96997-3.40997.54004-.32001 1.04004-.35004 1.40002-.14001l3.72998 2.19.85004.48999 3.08997 1.81.85004.5h.00995z" fill="#f1c40f"/></g><g><path d="m17.38539 12.24656c-.03003 0-.06 0-.09003-.02002-.33002-.19-.77002-.13995-1.25.14001-1.06.60999-1.94 2.14001-1.94 3.34998l-.03998.66003-.03003.37-.35999 5.75c0 .02002-.01001.04999-.02002.07001l-.37-.22003.37-5.82996.02002-.36005.03003-.44995c0-1.35004.95996-3.01001 2.13995-3.69.23004-.13.46002-.22003.69-.26001z" fill="#3d566e"/></g><g><path d="m21.32539 14.53157c-.03003 0-.06 0-.09003-.02002-.33002-.19-.77002-.13995-1.25.14001-1.06.60999-1.94 2.14001-1.94 3.34997l-.03998.66003-.03003.37-.35999 5.75c0 .02002-.01001.04999-.02002.07001l-.37-.22003.37-5.82996.02002-.36005.03003-.44995c0-1.35004.95996-3.01001 2.13995-3.69.23004-.13.46002-.22003.69-.26001z" fill="#3d566e"/></g><g><path d="m25.26539 16.81657c-.03003 0-.06 0-.09003-.02002-.33002-.19-.77002-.13995-1.25.14001-1.06.60999-1.94 2.14001-1.94 3.34998l-.03998.66003-.03003.37-.35999 5.75c0 .02002-.01001.04999-.02002.07001l-.37-.22003.37-5.82996.02002-.36005.03003-.44995c0-1.35004.95996-3.01001 2.13995-3.69.23004-.13.46002-.22003.69-.26001z" fill="#3d566e"/></g><g><g><path d="m27.53677 19.13959c1.09094-.62985 1.97978-.12054 1.98333 1.13025.00356 1.25359-.87952 2.7803-1.97046 3.41016-1.08852.62846-1.97978.12616-1.98334-1.12743-.00354-1.25079.88195-2.78452 1.97047-3.41298z" fill="#d6b218"/></g><g><path d="m29.16833 20.47159c0 .32346-.0696.67151-.19653 1.00725v.0041c-.27843.73702-.81074 1.43719-1.42492 1.79342-.89261.51592-1.62553.10236-1.62963-.92538 0-.72065.35213-1.55183.87624-2.16191.2211-.26616.47496-.48726.74521-.64695.89671-.51593 1.62553-.09827 1.62963.92947z" fill="#f1c40f"/></g><g><path d="m28.9718 21.47883v.0041c-.27843.73702-.81074 1.43719-1.42492 1.79342-.89261.51592-1.62553.10236-1.62963-.92538 0-.72065.35213-1.55183.87624-2.16191z" fill="#c6a51a"/></g></g></g><g><path d="m24.00272 24.23562 10.87966 18.76108 13.78815-7.98891-.09482-5.27991-1.69038-4.20386-2.91985-5.77858-6.12361-3.52813z" fill="#e67e22"/></g><g><path d="m23.99294 24.22652.06077 12.47 1.27745.75047 7.543 4.3796 1.99894 1.16255.18255-5.5073-1.95847-3.96841-2.91986-5.77907z" fill="#db7121"/></g><g><g><path d="m25.57313 26.04963.01422 3.46127 6.28559 3.64787.14972.29596.10773.13583-6.86776-3.98549-.0154-3.73988z" fill="#e67e22"/></g><g><path d="m25.57313 26.04963 3.79434 2.14897 2.50547 4.96017-6.28559-3.64787z" fill="#84dbff"/></g></g><g><path d="m30.17732 27.73436 2.91986 5.77907 13.78815-7.98941-2.91985-5.77858z" fill="#cc6723"/></g><g><g><g><path d="m43.54359 20.45978.25383-.14702 2.55241 5.05334-.37103-.08515z" fill="#db7121"/></g><g><path d="m33.1478 32.71444 12.831-7.43349.37103.08515-13.08483 7.58001z" fill="#e67e22"/></g></g><g><path d="m45.98353 25.28398-4.82419 2.79135-1.11994.65452-1.11984.63768-4.51418 2.61889-1.25771.7235-2.42929-4.82429 3.687-2.13642 4.51418-2.61889 1.11984-.63727 1.11994-.65493 2.37766-1.37801z" fill="#84dbff"/></g></g><g><path d="m35.04592 37.47697-.16354 5.51973 13.78815-7.98891-.09482-5.27991z" fill="#cc6723"/></g><g><path d="m25.33116 37.44699 7.54301 4.3796c.04047-.22326.06077-.44603.06077-.68959 0-2.12866-1.43969-4.64296-3.30512-5.71769-.58798-.34454-1.17609-.52721-1.76407-.52721-1.17609.00001-2.35205.79058-2.53459 2.55489z" fill="#c4c6c6"/></g><g><path d="m29.13146 36.29599c1.54312.89092 2.79749 3.06356 2.79246 4.83675-.00505 1.78175-1.26762 2.50127-2.81074 1.61035-1.55062-.89525-2.80498-3.06792-2.79993-4.84967.00503-1.77318 1.26759-2.49268 2.81821-1.59743z" fill="#525566"/></g><g><g><path d="m29.1191 37.10466c1.20022.69295 2.16579 2.36019 2.16191 3.72953-.00067 1.38857-.96924 1.94053-2.176 1.24005-1.19374-.68921-2.15274-2.36156-2.14884-3.737.00387-1.3642.97244-1.91616 2.16293-1.23258zm-.40248.22561c-.54842-.14771-.93755-.0195-1.21316.39949.32265.27262.62573.53395.93538.78404.01529.01227.02998.0224.04404.03052.10883.06283.17951.00371.19149-.14229.00692-.1349.00732-.27732.01097-.41409.01042-.21174.02083-.42721.03128-.65767m.84829 1.54461c.01.20309.07572.33771.2127.41679.03242.01871.06882.03432.10941.04697.08485.03023.16972.05669.25132.08129.19584.0605.3917.11728.60061.17784-.26908-.72972-.65946-1.31173-1.19717-1.78359l-.0164.02432c.01534.34672.02743.69156.03953 1.03638m.86075 2.90698c.3175-.2146.47859-.57207.49972-1.1117-.27757-.04013-.53878-.09333-.79027-.11465-.10778-.00967-.15052.08578-.08567.25836.11998.31702.24649.63407.37622.96799m-2.30055-2.07526c.06237-.10664.02034-.26229-.11319-.40696-.22147-.24048-.44622-.47535-.69376-.73838.00829.53408.14402 1.05541.44297 1.62218.07868-.09723.14754-.18511.21639-.27299.0492-.0692.1049-.12714.14759-.20385m.9952 1.96711c.20902.12068.4166.1972.62875.23181-.16895-.32652-.32161-.63991-.49717-.94023-.03232-.05599-.10912-.12445-.1696-.15936-.03077-.01777-.0573-.02686-.07164-.02122-.20279.08564-.38609.21255-.58898.33191.23989.24045.47013.42515.69864.55709m-.00348-2.61832c-.25114-.145-.46385-.02003-.46466.26854-.00083.29233.20722.65645.46162.80333.00201.00119.00398.00235.00598.0035.25172.14533.46112.03114.46518-.25702.00731-.29019-.2105-.66964-.46257-.81518-.00186-.00106-.0037-.00213-.00555-.00317m.00474-.52281c-.07176-.03767-.13066-.00411-.13089.07459-.00023.08245.05828.18382.13004.22524s.12738.00972.13088-.07085c.00024-.08244-.05827-.18755-.13003-.22898m-.35424 1.65367c.00023-.08037-.05846-.18404-.12486-.22238-.00172-.001-.00344-.00195-.00517-.00284-.07175-.04143-.13065-.00787-.13088.07083-.00023.08245.05828.18381.13004.22523.06848.03955.12737.00973.13087-.07084m1.14064-.17105c.07174.04142.13064.0116.13088-.07085.0034-.07854-.0552-.18217-.12463-.22225-.0018-.00104-.00361-.00204-.00541-.00298-.0685-.03955-.1274-.00599-.12762.07271-.00024.08245.05828.18382.12678.22337m-1.60796-.92836c.07175.04143.12738.00972.13088-.07085.00023-.08037-.05537-.18226-.12464-.22225-.00179-.00104-.00359-.00203-.0054-.00297-.06849-.03955-.12739-.00599-.12761.07271-.00024.08245.05501.18193.12677.22336m1.34794 1.60784c.00023-.08037-.05536-.18226-.12464-.22225-.00179-.00104-.00359-.00203-.00539-.00297-.0685-.03955-.1274-.006-.12762.07271-.00023.08245.05502.18192.12679.22336.07174.04142.12737.00972.13086-.07085" fill="#d4d6d6"/></g></g><g><path d="m4.16773 25.14437 7.54301 4.3796c.04047-.22326.06077-.44603.06077-.68959 0-2.12866-1.43969-4.64296-3.30512-5.71768-.58798-.34455-1.17608-.52721-1.76407-.52721-1.17609 0-2.35205.79057-2.53459 2.55488z" fill="#e0e2e2"/></g><g><path d="m7.96803 23.99337c1.54312.89092 2.79749 3.06357 2.79246 4.83675-.00505 1.78175-1.26762 2.50127-2.81074 1.61035-1.55062-.89525-2.80498-3.06792-2.79993-4.84967.00503-1.77318 1.2676-2.49268 2.81821-1.59743z" fill="#525566"/></g><g><path d="m7.96803 23.99337c1.54312.89092 2.79749 3.06357 2.79246 4.83675-.00505 1.78175-1.26762 2.50127-2.81074 1.61035-1.55062-.89525-2.80498-3.06792-2.79993-4.84967.00503-1.77318 1.2676-2.49268 2.81821-1.59743z" fill="#525566"/></g><g><g><path d="m7.95567 24.80204c1.20022.69295 2.1658 2.36019 2.16191 3.72953-.00067 1.38857-.96924 1.94053-2.176 1.24005-1.19374-.68921-2.15274-2.36156-2.14884-3.737.00387-1.3642.97244-1.91616 2.16293-1.23258zm-.40248.22561c-.54842-.14771-.93755-.0195-1.21316.3995.32265.27262.62573.53395.93538.78404.01529.01227.02998.0224.04404.03052.10883.06283.17951.00371.19149-.14229.00692-.1349.00732-.27732.01097-.41409.01041-.21175.02083-.42722.03128-.65768m.84828 1.54461c.01.20309.07572.3377.2127.41679.03242.01871.06882.03432.10941.04697.08485.03023.16972.05669.25132.0813.19584.0605.3917.11727.60061.17783-.26908-.72972-.65946-1.31173-1.19717-1.78359l-.01639.02432c.01534.34672.02744.69156.03952 1.03638m.86076 2.90698c.3175-.2146.47859-.57207.49972-1.1117-.27757-.04013-.53878-.09334-.79027-.11465-.10778-.00967-.15052.08578-.08567.25836.11998.31703.24649.63407.37622.96799m-2.30055-2.07526c.06237-.10664.02034-.26229-.11319-.40696-.22147-.24048-.44622-.47535-.69376-.73838.00829.53408.14402 1.05541.44297 1.62218.07868-.09723.14754-.18511.21639-.27299.0492-.0692.1049-.12713.14759-.20385m.9952 1.96711c.20902.12068.4166.19721.62875.23181-.16895-.32652-.32161-.63991-.49717-.94023-.03232-.05599-.10912-.12445-.1696-.15936-.03077-.01776-.0573-.02686-.07164-.02122-.20279.08564-.38609.21255-.58898.33191.23989.24045.47013.42516.69864.55709m-.00348-2.61832c-.25114-.145-.46384-.02003-.46466.26854-.00083.29233.20722.65645.46162.80333.00201.00119.00398.00235.00598.0035.25172.14533.46112.03114.46517-.25702.00731-.29019-.2105-.66965-.46257-.81518-.00185-.00106-.00369-.00213-.00554-.00317m.00475-.5228c-.07176-.03767-.13066-.00412-.13089.07459-.00024.08244.05828.18381.13004.22524s.12738.00972.13088-.07085c.00023-.08245-.05828-.18756-.13003-.22898m-.35425 1.65366c.00023-.08037-.05845-.18404-.12486-.22238-.00172-.00099-.00344-.00195-.00517-.00284-.07175-.04143-.13065-.00787-.13088.07083-.00023.08245.05828.18381.13004.22523.06848.03955.12737.00973.13087-.07084m1.14064-.17105c.07174.04142.13064.0116.13088-.07085.0034-.07854-.0552-.18216-.12463-.22225-.0018-.00104-.00361-.00204-.00541-.00298-.0685-.03955-.1274-.006-.12762.07271-.00023.08245.05828.18382.12678.22337m-1.60796-.92836c.07175.04143.12738.00972.13088-.07085.00023-.08037-.05537-.18226-.12464-.22225-.00179-.00104-.00359-.00203-.0054-.00297-.06849-.03954-.12739-.00599-.12762.07271-.00023.08245.05503.18193.12678.22336m1.34794 1.60784c.00023-.08037-.05537-.18226-.12464-.22225-.00179-.00104-.00359-.00203-.00539-.00297-.0685-.03955-.1274-.00599-.12763.07271-.00023.08245.05502.18192.12679.22336.07175.04142.12738.00972.13087-.07085" fill="#d4d6d6"/></g></g><g><path d="m34.87201 41.05749.00703 1.93921 15.12096-8.73009-.00703-1.93921z" fill="#31323d"/></g><g><path d="m33.20007 40.08587.00703 1.93921 1.67194.97162-.00703-1.93921z" fill="#464957"/></g><g><g><path d="m33.56264 39.87664 1.32472.76978 14.39594-8.31168-.66774-.38784-.00792-.44125 1.3853.82167-15.12093 8.72998-1.67199-.97176z" fill="#4e5161"/></g></g></g><g><g><g><path d="m36.21384 38.04882c.33779-.19502.62551-.04574.62666.35716.00112.39535-.28477.89054-.62257 1.08557-.35054.20238-.63191.0347-.63303-.36065-.00115-.4029.27839-.87969.62894-1.08208z" fill="#f1c40f"/></g></g><g><g><path d="m36.90651 36.92278.00131.4613-1.39582.80588-.0013-.46131z" fill="#fff"/></g></g><g><g><path d="m48.26418 30.36543.0013.4613-1.39577.80585-.00131-.4613z" fill="#fff"/></g></g><g><g><path d="m47.57154 31.49145c.34415-.19869.62547-.04571.62661.35719.00112.39535-.27838.88685-.62252 1.08554-.34419.19872-.63191.03471-.63303-.36065-.00114-.4029.28475-.88337.62894-1.08208z" fill="#f1c40f"/></g></g><g enable-background="new"><g><g><path d="m46.34497 33.4467.00044.15377-8.90387 5.14065-.00043-.15377z" fill="#5b5e71"/></g></g><g><g><path d="m46.34389 33.06585.00044.15377-8.90387 5.14065-.00043-.15377z" fill="#5b5e71"/></g></g><g><g><path d="m46.34279 32.67765.00044.15377-8.90386 5.14065-.00044-.15377z" fill="#5b5e71"/></g></g><g><g><path d="m46.34169 32.28946.00044.15396-8.90387 5.14065-.00043-.15397z" fill="#5b5e71"/></g></g><g><g><path d="m46.34059 31.90145.00044.15378-8.90387 5.14064-.00043-.15377z" fill="#5b5e71"/></g></g></g><g><g><path d="m46.33951 31.52061.00042.14642-8.90387 5.14064-.00041-.14642z" fill="#5b5e71"/></g></g></g><g><g><path d="m27.05241 31.5827-.00129.82968-1.80389-1.04148.00129-.82968z" fill="#5b5e71"/></g></g><g opacity=".3"><path d="m38.91956 23.13032v6.23721l-4.51418 2.61889v-6.23721z" fill="#fff"/></g><g opacity=".3"><path d="m41.15934 21.83812v6.23721l-1.11994.65452v-6.2368z" fill="#fff"/></g></g></svg>