<svg id="Layer_1" enable-background="new 0 0 52 52" height="512" viewBox="0 0 52 52" width="512" xmlns="http://www.w3.org/2000/svg"><g><g><path d="m44.02987 12.43024-.06272 19.81719-17.94261 10.4271.06272-19.81718z" fill="#d6b218"/><path d="m26.09763 22.86269-.05923 19.8233-7.86411-4.54028-2.31478-1.33544-7.89364-4.56998.05941-19.79377v-.02953h.0297l7.83423 4.54028 1.78065 1.03876.53414.29668z" fill="#e5bd13"/><path d="m44.03413 12.44265-17.94693 10.42684-7.88926-4.56758-2.28386-1.29181-.04604-.02295-7.84322-4.5445 17.94707-10.42683 7.88926 4.54449.02309.02309 2.26063 1.29181z" fill="#f1c40f"/><g fill="#d6b218"><path d="m36.14487 7.87521-17.94693 10.4267-2.28386-1.29181-.04604-.02295 17.99311-10.42684.02309.02309z"/><path d="m18.204 18.29271-.02971 19.853-2.31478-1.33544.0297-19.8233 1.78065 1.00906z"/></g><g><path d="m15.85951 7.87521 17.94692 10.4267 2.28386-1.29181.04605-.02295-17.99311-10.42684-.02309.02309z" fill="#e5bd13"/><path d="m33.80038 18.29271.02971 19.853 2.31478-1.33544-.0297-19.8233-1.78065 1.00906z" fill="#c6a51a"/></g><g><g><path d="m23.78186 32.17524-.76816 1.46165.47574.27467 1.04981.60159z" fill="#3f434f"/></g><g><path d="m23.48944 33.91156-.0082 2.89148.57404.33142.0082-2.89148z" fill="#3f434f"/></g><g><path d="m20.63784 35.41934-.00176.61896 3.96324 2.28817.00175-.61895z" fill="#3f434f"/></g><g><path d="m10.28593 25.5288-.00584 2.06017c-.00184.65058.37409 1.40614.87316 1.78931l-.00526 1.85687c-.35004-.16137-.61396-.1463-.61451.04796l1.5452.89212c.00055-.19427-.2624-.51353-.61222-.75621l.00526-1.85687c.22815.091.42513.06896.579-.02774.18154-.13502.3004-.3877.30142-.74914l.00584-2.06017z" fill="#3f434f"/></g><g><path d="m21.19327 32.58587-.0082 2.89147.57406.33143.00819-2.89147z" fill="#3f434f"/></g><g><path d="m21.48176 30.84727-.76423 1.46393.47574.27467 1.04588.59931z" fill="#3f434f"/></g></g></g><g><g><path d="m41.64262 28.37036-10.0994 5.83377-.02308-7.10194 10.09947-5.83363z" fill="#fff"/><g fill="#5b5e71"><path d="m32.18224 27.24594.01714 6.04759-.23555.13599-.01714-6.04759z"/><path d="m33.54401 26.45972.01714 6.04759-.24292.14025-.01714-6.04759z"/><path d="m33.09499 26.71896.01714 6.04759-.14721.085-.01715-6.04759z"/><path d="m33.83845 26.28973.01714 6.04758-.14722.085-.01715-6.04758z"/><path d="m34.0151 26.18774.01714 6.04758-.05888.034-.01714-6.04759z"/><path d="m34.27273 26.03899.01715 6.04759-.14721.08499-.01715-6.04758z"/><path d="m34.64077 25.8265.01715 6.04759-.22082.12749-.01714-6.04759z"/><path d="m34.93521 25.65651.01715 6.04759-.14721.08499-.01715-6.04759z"/><path d="m32.73431 26.9272.01714 6.04759-.41221.23799-.01715-6.04759z"/><path d="m35.31798 25.43552.01714 6.04758-.23554.136-.01714-6.04759z"/><path d="m36.22338 24.91278.01714 6.04759-.14722.085-.01714-6.04759z"/><path d="m36.96683 24.48355.01714 6.04759-.14722.085-.01714-6.04759z"/><path d="m37.15084 24.37731.01715 6.04759-.05888.03399-.01715-6.04758z"/><path d="m37.76917 24.02032.01715 6.04759-.21347.12324-.01715-6.04758z"/><path d="m38.06361 23.85033.01714 6.04759-.14722.085-.01714-6.04759z"/><path d="m35.87005 25.11678.01715 6.04759-.41221.23799-.01715-6.04759z"/><path d="m38.44637 23.62934.01714 6.04759-.23554.13599-.01715-6.04758z"/><path d="m39.35913 23.10236.01714 6.04759-.14722.085-.01715-6.04759z"/><path d="m40.53687 22.42239.01714 6.04759-.14721.08499-.01715-6.04758z"/><path d="m40.90492 22.2099.01715 6.04758-.22084.1275-.01714-6.04759z"/><path d="m38.99844 23.3106.01714 6.04759-.41221.23799-.01714-6.04759z"/><path d="m36.67239 24.65355.01715 6.04758-.23556.136-.01714-6.04758z"/><path d="m37.40848 24.22857.01714 6.04759-.14721.08499-.01714-6.04759z"/><path d="m39.80814 22.84312.01715 6.04759-.23556.136-.01715-6.04759z"/><path d="m40.10258 22.67313.01714 6.04759-.14722.085-.01715-6.04759z"/><path d="m40.27924 22.57113.01715 6.04759-.05889.034-.01715-6.04759z"/><path d="m41.19936 22.0399.01714 6.04759-.14723.085-.01714-6.04759z"/></g></g></g><g><path d="m31.61863 37.08244-3.1345 4.55522c.01638-.02472-.01928-.08939-.11897-.18888-.24692-.25365-.8036-.65247-1.23714-.88924-.26599-.14385-.4252-.19567-.45092-.15616l3.1345-4.55522c.02814-.03959.18736.01225.45093.15616.43596.23671.99016.63314 1.23957.88916.09726.09955.13534.16418.11653.18896z" fill="#e74c3c"/><path d="m28.03091 41.48294c-.43405-.23612-.98861-.63457-1.23877-.89032-.24925-.25483-.09927-.27002.33477-.0339.43562.23697.99018.63542 1.23943.89025.25017.25575.10019.27094-.33543.03397z" fill="#d8463f"/><path d="m30.30503 39.79563c-.13603.34326-.27851.69305-.42747 1.02982-1.276 2.89525-3.10252 5.62209-5.53789 8.16107-.31737.32385-.64122.6477-.978.97155.02589-.03886-.02593-.12955-.16841-.27203-.35623-.36275-1.15293-.93269-1.7747-1.27599-.38216-.20727-.60884-.27851-.6477-.22023.17485-.42747.36271-.84849.55053-1.26299 1.41847-3.07658 3.24499-5.80991 5.58319-8.12869.2591-.26554.53112-.52464.80314-.77073.03886-.05831.27206.01293.6477.2202.62829.33682 1.41847.9068 1.78118 1.27599.13605.14248.18788.23317.16843.27203z" fill="#9b59b6"/><path d="m22.71575 49.74327c-.62322-.33902-1.41925-.91096-1.77806-1.2778-.35788-.36589-.1426-.38769.48062-.04867.62482.3399 1.41924.91097 1.77713 1.27686.3588.36683.14513.38951-.47969.04961z" fill="#76508c"/><path d="m24.33967 48.99301c-.31737.32385-.64122.6477-.978.97155.02589-.03886-.02593-.12955-.16841-.27206-.35623-.36271-1.15293-.93269-1.7747-1.27596-.38216-.20727-.60884-.27851-.6477-.22024.17485-.42746.36271-.84849.55053-1.26299 1.11847.52437 2.1494 1.21358 3.01828 2.0597z" fill="#e0e2e2"/><path d="m30.30503 39.79563c-.13603.34326-.27851.69305-.42747 1.02982l-2.97297-2.02731c.2591-.26554.53112-.52464.80314-.77073.03886-.05831.27206.01293.6477.2202.62829.33682 1.41847.9068 1.78118 1.27599.13604.14248.18787.23317.16842.27203z" fill="#e0e2e2"/><path d="m35.63086 36.06027c3.70145-2.137 6.70296-7.33567 6.69086-11.5888-.00444-1.56591-.41351-2.76233-1.14624-3.49368-.36362-.15488-.76915-.23952-1.21732-.23952-.85252 0-1.82716.30243-2.81834.87477-3.70133 2.13689-6.70284 7.33567-6.69086 11.5888.00444 1.56618.41347 2.76279 1.14617 3.49416.36345.15479.76876.23938 1.21671.23938.85263.00001 1.8275-.30254 2.81902-.87511z" fill="#84dbff" opacity=".2"/><path d="m41.81617 20.51357c-1.28551-.7456-3.06419-.64042-5.02753.49317-3.90095 2.25316-7.05396 7.71542-7.03994 12.19602.00468 2.22978.79235 3.79577 2.05916 4.53437l-1.96145-1.14201c-1.26681-.73625-2.05448-2.30457-2.0615-4.53202-.01168-4.48293 3.13899-9.9452 7.04228-12.19836 1.96334-1.13358 3.74202-1.23877 5.02519-.49083z" fill="#e74c3c"/><path d="m41.81329 20.51327c-.06479-.03886-.13603-.07772-.20727-.1101-.05831-.02593-.11658-.05183-.17489-.07776-.16193-.07124-.33682-.12951-.51167-.17485-.07127-.01945-.14251-.03238-.21375-.04534-.07772-.01945-.16192-.03238-.24613-.03886-.05183-.00648-.10361-.01297-.16193-.01945-.1101-.00648-.2202-.01293-.33033-.01293-.71894 0-1.50912.17485-2.3382.54405-.27851.11658-.55701.2591-.84201.42751-3.89918 2.25399-7.05348 7.71412-7.04052 12.1962 0 .18786.00648.37568.01941.55706 0 .02589 0 .05178.00648.07772.01297.16841.02589.33033.05183.49226 0 .01941 0 .03886.00648.05827.01941.16193.05179.31089.08421.45988.03238.16192.07124.32385.12306.47929.03886.13603.08417.26554.13599.3886.03886.11014.08421.21375.12955.31737.04534.09069.09069.18138.14248.27206.09717.17485.20079.34326.31741.49226 0 0 0 .00644.00644.01293.04535.05831.09069.11014.13603.16193.13603.16192.28499.31737.44692.44691.05183.04535.1101.08421.16193.12307.07124.05831.14251.10365.21375.14896 1.2954.7967 3.10248.7125 5.1039-.44688 3.90562-2.25403 7.05993-7.71415 7.047-12.19624-.00649-2.2281-.7967-3.80201-2.06617-4.53392zm-11.36721 12.68846c-.00644-4.25541 2.99242-9.44995 6.69077-11.58736.991-.57647 1.96904-.87442 2.82397-.87442.44692 0 .84849.0842 1.21769.23965.73191.73191 1.13996 1.92369 1.14645 3.49112.00648 4.25541-2.99238 9.44999-6.69726 11.5874-.99097.57647-1.96252.87438-2.81749.87438-.44692 0-.84849-.0842-1.21768-.23964-.73191-.72543-1.13997-1.92366-1.14645-3.49113z" fill="#c44"/><path d="m43.17345 25.04719c.01297 4.25541-2.9859 9.44995-6.69078 11.5874-.99096.57642-1.96252.88087-2.81749.88087-.842 0-1.54153-.29147-2.07265-.82259.36919.15544.77077.23964 1.21768.23964.85497 0 1.82652-.29792 2.81749-.87438 3.70488-2.13741 6.70374-7.33199 6.69726-11.5874-.00648-1.56743-.41454-2.75922-1.14645-3.49112 1.26303.53759 1.98845 1.97547 1.99494 4.06758z" fill="#e74c3c"/></g></g></svg>