<svg id="Layer_1" enable-background="new 0 0 50 50" height="512" viewBox="0 0 50 50" width="512" xmlns="http://www.w3.org/2000/svg"><g><g><g><g enable-background="new"><g><path d="m49 33.12482-.00181.63855-1.94796 1.13203.00181-.63855z" fill="#765f54"/></g><g><path d="m47.05204 34.25685-.00181.63855-25.08175-14.48095.00181-.63855z" fill="#8b6f62"/></g><g><path d="m49 33.12482-1.94796 1.13203-25.08175-14.48095 1.94797-1.13203z" fill="#a18b82"/></g></g><g enable-background="new"><g><path d="m44.80619 35.56199-.0018.63855-1.9477 1.13187.00182-.63854z" fill="#765f54"/></g><g><path d="m42.85851 36.69387-.00182.63854-25.08174-14.48095.00181-.63854z" fill="#8b6f62"/></g><g><path d="m44.80619 35.56199-1.94768 1.13188-25.08175-14.48095 1.94769-1.13188z" fill="#a18b82"/></g></g><g enable-background="new"><g><path d="m40.61266 37.99901-.00181.63854-1.94796 1.13204.00181-.63855z" fill="#765f54"/></g><g><path d="m38.6647 39.13104-.00181.63855-25.08174-14.48095.00181-.63855z" fill="#8b6f62"/></g><g><path d="m40.61266 37.99901-1.94796 1.13203-25.08174-14.48095 1.94796-1.13203z" fill="#a18b82"/></g></g><g enable-background="new"><g><path d="m36.41885 40.43618-.0018.63855-1.9477 1.13187.00181-.63855z" fill="#765f54"/></g><g><path d="m34.47116 41.56805-.00181.63855-25.08174-14.48095.00181-.63855z" fill="#8b6f62"/></g><g><path d="m36.41885 40.43618-1.94769 1.13187-25.08174-14.48095 1.94769-1.13187z" fill="#a18b82"/></g></g><g enable-background="new"><g><path d="m32.22505 42.87336-.00181.63854-1.94769 1.13188.00181-.63855z" fill="#765f54"/></g><g><path d="m30.27736 44.00523-.00181.63855-25.08175-14.48096.00182-.63854z" fill="#8b6f62"/></g><g><path d="m32.22505 42.87336-1.94769 1.13187-25.08174-14.48095 1.94769-1.13188z" fill="#a18b82"/></g></g><g enable-background="new"><g><path d="m28.03152 45.31037-.00181.63855-1.94797 1.13203.00181-.63855z" fill="#765f54"/></g><g><path d="m26.08355 46.4424-.00181.63855-25.08174-14.48095.00181-.63855z" fill="#8b6f62"/></g><g><path d="m28.03152 45.31037-1.94797 1.13203-25.08174-14.48095 1.94796-1.13203z" fill="#a18b82"/></g></g></g><g><g enable-background="new"><g><path d="m6.05316 33.32243.00181 1.50444 1.94769 1.13187-.00181-1.50444z" fill="#765f54"/></g><g><path d="m8.00085 34.4543.00181 1.50444 23.53459-13.58769-.00181-1.50445z" fill="#69534b"/></g><g><path d="m6.05316 33.32243 1.94769 1.13187 23.53459-13.5877-1.94769-1.13187z" fill="#8b6f62"/></g></g><g enable-background="new"><g><path d="m18.6343 40.63379.00181 1.50444 1.9477 1.13188-.00181-1.50444z" fill="#765f54"/></g><g><path d="m20.582 41.76567.00181 1.50444 23.53458-13.5877-.00181-1.50444z" fill="#69534b"/></g><g><path d="m18.6343 40.63379 1.9477 1.13188 23.53458-13.5877-1.94769-1.13188z" fill="#8b6f62"/></g></g></g><g><g enable-background="new"><g><path d="m49 30.99003-.00181.63855-1.94796 1.13203.00181-.63854z" fill="#765f54"/></g><g><path d="m47.05204 32.12207-.00181.63854-25.08175-14.48095.00181-.63854z" fill="#8b6f62"/></g><g><path d="m49 30.99003-1.94796 1.13204-25.08175-14.48095 1.94797-1.13204z" fill="#a18b82"/></g></g><g enable-background="new"><g><path d="m44.80619 33.42721-.0018.63854-1.9477 1.13188.00182-.63855z" fill="#765f54"/></g><g><path d="m42.85851 34.55908-.00182.63855-25.08174-14.48095.00181-.63855z" fill="#8b6f62"/></g><g><path d="m44.80619 33.42721-1.94768 1.13187-25.08175-14.48095 1.94769-1.13187z" fill="#a18b82"/></g></g><g enable-background="new"><g><path d="m40.61266 35.86422-.00181.63855-1.94796 1.13203.00181-.63855z" fill="#765f54"/></g><g><path d="m38.6647 36.99625-.00181.63855-25.08174-14.48095.00181-.63855z" fill="#8b6f62"/></g><g><path d="m40.61266 35.86422-1.94796 1.13203-25.08174-14.48095 1.94796-1.13203z" fill="#a18b82"/></g></g><g enable-background="new"><g><path d="m36.41885 38.3014-.0018.63855-1.9477 1.13187.00181-.63855z" fill="#765f54"/></g><g><path d="m34.47116 39.43327-.00181.63855-25.08174-14.48095.00181-.63855z" fill="#8b6f62"/></g><g><path d="m36.41885 38.3014-1.94769 1.13187-25.08174-14.48095 1.94769-1.13187z" fill="#a18b82"/></g></g><g enable-background="new"><g><path d="m32.22505 40.73857-.00181.63855-1.94769 1.13187.00181-.63854z" fill="#765f54"/></g><g><path d="m30.27736 41.87045-.00181.63854-25.08175-14.48095.00182-.63855z" fill="#8b6f62"/></g><g><path d="m32.22505 40.73857-1.94769 1.13188-25.08174-14.48096 1.94769-1.13187z" fill="#a18b82"/></g></g><g enable-background="new"><g><path d="m28.03152 43.17559-.00181.63854-1.94797 1.13204.00181-.63855z" fill="#765f54"/></g><g><path d="m26.08355 44.30762-.00181.63855-25.08174-14.48096.00181-.63854z" fill="#8b6f62"/></g><g><path d="m28.03152 43.17559-1.94797 1.13203-25.08174-14.48095 1.94796-1.13203z" fill="#a18b82"/></g></g></g></g><g><g><g><g><g><g enable-background="new"><g><path d="m14.39089 19.35673.01508 5.3175 5.91942 3.43999-.01507-5.3175z" fill="#b0b8bc"/></g><g><path d="m16.69737 20.70016.00327 1.15539.40854.23742.46912.27262-.00328-1.15539z" fill="#40545d"/></g><g><path d="m20.31032 22.79672.01507 5.3175 8.31907-4.80302-.01508-5.31749z" fill="#9aa1a5"/></g><g><path d="m14.39089 19.35673 5.91943 3.43999 8.31906-4.80301-5.91942-3.44z" fill="#cfd8dd"/></g><g><path d="m16.69737 20.70016.87765.51004 8.31907-4.80302-.87766-.51003z" fill="#485f69"/></g></g></g><g><g><path d="m26.37423 23.24747c-.00844.04315-.01356.08604-.01345.12478.00043.15178.05883.27176.178.33419.05481.02796.08593.0926.08618.17939l-.08173.04719c-.01331.00768-.02562.02737-.02557.04485.00005.01694.01244.02234.02574.01466l.21667-.12509c.01473-.0085.02705-.02817.027-.04511-.00005-.01748-.01244-.02291-.02717-.0144l-.08173.04719c-.00025-.08845.03183-.18954.08582-.28033.14779-.24774.20187-.47802.16284-.64636z" fill="#56707b"/></g><g><path d="m25.94229 24.49709-1.00638.58103-.00328-1.1564 1.00638-.58103zm-.95807.49737.90897-.5248-.00296-1.04449-.90897.5248z" fill="#56707b"/></g><g><path d="m25.43334 23.76114c-.0095.00549-.01755.01999-.01752.03091l.00004.01309c-.1696.1094-.30557.32682-.35106.56635.01131-.03988.03549-.07298.06162-.0886.02756-.01591.0509-.01025.06286.0129.01227-.03714.03407-.06943.06163-.08587.02756-.01591.04995-.0097.06191.01401.01227-.0377.03502-.07054.06258-.08645.01815-.01051.03226-.01154.0433-.00367l.0035.39503c.00069.07692.056.10875.12402.06948.06834-.03999.12375-.13708.12306-.21432l-.0006-.04342c-.00003-.012-.00861-.01689-.01907-.01086-.0095.00605-.01803.02026-.01752.03255l.00012.04366c.00063.05379-.03821.1216-.08572.1496-.04752.02743-.08661.00538-.08723-.04865l-.0035-.395c.01136-.02134.02702-.0375.04318-.04683.02773-.01601.05059-.01019.06239.0132.01274-.03798.03549-.07078.0621-.08615.02708-.01564.05042-.00997.06239.01537.01131-.03934.03454-.07189.06162-.08806.02756-.01591.0509-.01025.06287.01566-.04907-.18497-.18868-.24162-.35738-.15134l-.00004-.01365c-.00052-.01061-.00862-.01525-.01955-.00894z" fill="#56707b"/></g><g><path d="m27.55573 23.33151.00019.06771.61865-.35718-.00019-.06771z" fill="#56707b"/></g><g><path d="m27.55536 23.19993.00019.06768.61865-.35718-.00019-.06768-.09598.05541-.07888.04554-.26846.155-.07888.04554z" fill="#56707b"/></g><g><path d="m27.68948 22.49686-.14992.33428.11118-.0642.00107.3773.07888-.04554-.00107-.37729.11023-.06365z" fill="#56707b"/></g><g><path d="m28.36891 23.09609-1.0059.58076-.00328-1.1564 1.00591-.58076zm-.9576.49708.90897-.52479-.00296-1.04449-.90897.52479z" fill="#56707b"/></g><g><path d="m28.03682 22.29633-.14993.33427.11119-.06419.00107.37729.07888-.04554-.00107-.37729.11023-.06364z" fill="#56707b"/></g><g><path d="m27.15584 23.79645-1.00638.58103-.00328-1.1564 1.00638-.58103zm-.95807.49737.90897-.5248-.00296-1.04449-.90897.5248z" fill="#56707b"/></g></g></g><g><g><path d="m14.71695 23.45049-.0031 1.09383-.09453-.05458.00311-1.09382z" fill="#485f69"/></g><g><path d="m14.92508 23.57066-.0031 1.09382-.0937-.0541.0031-1.09382z" fill="#485f69"/></g><g><path d="m15.13321 23.69082-.0031 1.09382-.0937-.0541.0031-1.09382z" fill="#485f69"/></g><g><path d="m15.34216 23.81146-.0031 1.09382-.03559-.02055.0031-1.09382z" fill="#485f69"/></g><g><path d="m15.24048 23.75469-.0031 1.09382-.03559-.02055.0031-1.09382z" fill="#485f69"/></g><g><path d="m15.49349 23.89882-.0031 1.09383-.0369-.0213.0031-1.09383z" fill="#485f69"/></g><g><path d="m15.70161 24.01899-.0031 1.09382-.15597-.09005.0031-1.09383z" fill="#485f69"/></g><g><path d="m15.91057 24.13963-.0031 1.09382-.09453-.05458.0031-1.09382z" fill="#485f69"/></g><g><path d="m16.1187 24.25979-.00311 1.09382-.09452-.05457.0031-1.09382z" fill="#485f69"/></g><g><path d="m16.32682 24.37995-.0031 1.09382-.12484-.07207.00311-1.09382z" fill="#485f69"/></g><g><path d="m16.53495 24.50011-.0031 1.09383-.0937-.0541.0031-1.09382z" fill="#485f69"/></g></g></g><g><g><g><g enable-background="new"><g><path d="m14.39089 13.5394.01508 5.3175 5.91942 3.43999-.01507-5.3175z" fill="#b0b8bc"/></g><g><path d="m16.69737 14.88283.00327 1.15539.40854.23742.46912.27262-.00328-1.15539z" fill="#40545d"/></g><g><path d="m20.31032 16.97939.01507 5.3175 8.31907-4.80302-.01508-5.3175z" fill="#9aa1a5"/></g><g><path d="m14.39089 13.5394 5.91943 3.43999 8.31906-4.80302-5.91942-3.43999z" fill="#cfd8dd"/></g><g><path d="m16.69737 14.88283.87765.51004 8.31907-4.80302-.87766-.51004z" fill="#485f69"/></g></g></g><g><g><path d="m26.37423 17.43014c-.00844.04315-.01356.08604-.01345.12478.00043.15178.05883.27176.178.33419.05481.02796.08593.0926.08618.17939l-.08173.04719c-.01331.00768-.02562.02737-.02557.04485.00005.01694.01244.02234.02574.01466l.21667-.12509c.01473-.0085.02705-.02817.027-.04511-.00005-.01748-.01244-.0229-.02717-.0144l-.08173.04719c-.00025-.08845.03183-.18954.08582-.28033.14779-.24774.20187-.47802.16284-.64636z" fill="#56707b"/></g><g><path d="m25.94229 18.67976-1.00638.58103-.00328-1.1564 1.00638-.58103zm-.95807.49737.90897-.5248-.00296-1.04449-.90897.5248z" fill="#56707b"/></g><g><path d="m25.43334 17.94381c-.0095.00549-.01755.01999-.01752.03092l.00004.01309c-.1696.1094-.30557.32682-.35106.56635.01131-.03988.03549-.07298.06162-.0886.02756-.01591.0509-.01025.06286.0129.01227-.03714.03407-.06943.06163-.08587.02756-.01591.04995-.0097.06191.01401.01227-.0377.03502-.07054.06258-.08645.01815-.01051.03226-.01154.0433-.00367l.0035.39503c.00069.07692.056.10875.12402.06948.06834-.03999.12375-.13708.12306-.21432l-.0006-.04342c-.00003-.012-.00861-.01689-.01907-.01086-.0095.00605-.01803.02026-.01752.03255l.00012.04366c.00063.05379-.03821.1216-.08572.1496-.04752.02743-.08661.00538-.08723-.04865l-.0035-.395c.01136-.02134.02702-.0375.04318-.04683.02773-.01601.05059-.01019.06239.01321.01274-.03798.03549-.07078.0621-.08615.02708-.01564.05042-.00997.06239.01537.01131-.03934.03454-.07189.06162-.08806.02756-.01591.0509-.01025.06287.01566-.04907-.18497-.18868-.24162-.35738-.15134l-.00004-.01365c-.00052-.01063-.00862-.01527-.01955-.00896z" fill="#56707b"/></g><g><path d="m27.55573 17.51418.00019.06771.61865-.35718-.00019-.06771z" fill="#56707b"/></g><g><path d="m27.55536 17.3826.00019.06768.61865-.35718-.00019-.06768-.09598.05541-.07888.04554-.26846.155-.07888.04554z" fill="#56707b"/></g><g><path d="m27.68948 16.67953-.14992.33428.11118-.0642.00107.3773.07888-.04554-.00107-.3773.11023-.06364z" fill="#56707b"/></g><g><path d="m28.36891 17.27876-1.0059.58076-.00328-1.1564 1.00591-.58076zm-.9576.49708.90897-.52479-.00296-1.04449-.90897.5248z" fill="#56707b"/></g><g><path d="m28.03682 16.479-.14993.33427.11119-.06419.00107.37729.07888-.04554-.00107-.37729.11023-.06365z" fill="#56707b"/></g><g><path d="m27.15584 17.97912-1.00638.58103-.00328-1.1564 1.00638-.58103zm-.95807.49736.90897-.5248-.00296-1.04449-.90897.52479z" fill="#56707b"/></g></g></g><g><g><path d="m14.71695 17.63316-.0031 1.09382-.09453-.05457.00311-1.09382z" fill="#485f69"/></g><g><path d="m14.92508 17.75332-.0031 1.09383-.0937-.0541.0031-1.09382z" fill="#485f69"/></g><g><path d="m15.13321 17.87349-.0031 1.09382-.0937-.0541.0031-1.09382z" fill="#485f69"/></g><g><path d="m15.34216 17.99413-.0031 1.09382-.03559-.02055.0031-1.09382z" fill="#485f69"/></g><g><path d="m15.24048 17.93736-.0031 1.09382-.03559-.02055.0031-1.09382z" fill="#485f69"/></g><g><path d="m15.49349 18.0815-.0031 1.09382-.0369-.02131.0031-1.09382z" fill="#485f69"/></g><g><path d="m15.70161 18.20166-.0031 1.09382-.15597-.09005.0031-1.09383z" fill="#485f69"/></g><g><path d="m15.91057 18.3223-.0031 1.09382-.09453-.05458.0031-1.09382z" fill="#485f69"/></g><g><path d="m16.1187 18.44246-.00311 1.09382-.09452-.05458.0031-1.09382z" fill="#485f69"/></g><g><path d="m16.32682 18.56262-.0031 1.09382-.12484-.07207.00311-1.09382z" fill="#485f69"/></g><g><path d="m16.53495 18.68278-.0031 1.09382-.0937-.05409.0031-1.09382z" fill="#485f69"/></g></g></g><g><g><g><g enable-background="new"><g><path d="m14.39089 7.72207.01508 5.3175 5.91942 3.43999-.01507-5.3175z" fill="#b0b8bc"/></g><g><path d="m16.69737 9.0655.00327 1.15539.40854.23742.46912.27262-.00328-1.15539z" fill="#40545d"/></g><g><path d="m20.31032 11.16206.01507 5.3175 8.31907-4.80302-.01508-5.3175z" fill="#9aa1a5"/></g><g><path d="m14.39089 7.72207 5.91943 3.43999 8.31906-4.80302-5.91942-3.43999z" fill="#cfd8dd"/></g><g><path d="m16.69737 9.0655.87765.51004 8.31907-4.80302-.87766-.51004z" fill="#485f69"/></g></g></g><g><g><path d="m26.37423 11.61281c-.00844.04315-.01356.08604-.01345.12478.00043.15178.05883.27175.178.33419.05481.02796.08593.0926.08618.17939l-.08173.04718c-.01331.00768-.02562.02737-.02557.04485.00005.01694.01244.02234.02574.01466l.21667-.12509c.01473-.0085.02705-.02817.027-.04511-.00005-.01748-.01244-.0229-.02717-.0144l-.08173.04718c-.00025-.08845.03183-.18954.08582-.28033.14779-.24774.20187-.47802.16284-.64636z" fill="#56707b"/></g><g><path d="m25.94229 12.86243-1.00638.58103-.00328-1.1564 1.00638-.58103zm-.95807.49736.90897-.5248-.00296-1.04449-.90897.52479z" fill="#56707b"/></g><g><path d="m25.43334 12.12648c-.0095.00549-.01755.01998-.01752.03092l.00004.01309c-.1696.1094-.30557.32682-.35106.56635.01131-.03988.03549-.07298.06162-.0886.02756-.01591.0509-.01025.06286.0129.01227-.03714.03407-.06943.06163-.08587.02756-.01591.04995-.0097.06191.01401.01227-.0377.03502-.07054.06258-.08645.01815-.01051.03226-.01154.0433-.00367l.0035.39503c.00069.07692.056.10875.12402.06948.06834-.03999.12375-.13708.12306-.21432l-.0006-.04342c-.00003-.012-.00861-.01689-.01907-.01086-.0095.00605-.01803.02026-.01752.03254l.00012.04366c.00063.05379-.03821.1216-.08572.1496-.04752.02743-.08661.00538-.08723-.04865l-.0035-.395c.01136-.02134.02702-.0375.04318-.04683.02773-.01601.05059-.01019.06239.01321.01274-.03798.03549-.07078.0621-.08615.02708-.01564.05042-.00997.06239.01537.01131-.03935.03454-.07189.06162-.08806.02756-.01591.0509-.01025.06287.01566-.04907-.18497-.18868-.24162-.35738-.15134l-.00004-.01366c-.00052-.01061-.00862-.01525-.01955-.00894z" fill="#56707b"/></g><g><path d="m27.55573 11.69685.00019.06771.61865-.35718-.00019-.06771z" fill="#56707b"/></g><g><path d="m27.55536 11.56526.00019.06769.61865-.35718-.00019-.06768-.09598.05541-.07888.04554-.26846.155-.07888.04553z" fill="#56707b"/></g><g><path d="m27.68948 10.8622-.14992.33428.11118-.0642.00107.37729.07888-.04553-.00107-.3773.11023-.06364z" fill="#56707b"/></g><g><path d="m28.36891 11.46142-1.0059.58076-.00328-1.1564 1.00591-.58076zm-.9576.49709.90897-.52479-.00296-1.04449-.90897.52479z" fill="#56707b"/></g><g><path d="m28.03682 10.66166-.14993.33428.11119-.06419.00107.37729.07888-.04554-.00107-.37729.11023-.06365z" fill="#56707b"/></g><g><path d="m27.15584 12.16179-1.00638.58103-.00328-1.1564 1.00638-.58103zm-.95807.49736.90897-.52479-.00296-1.04449-.90897.52479z" fill="#56707b"/></g></g></g><g><g><path d="m14.71695 11.81583-.0031 1.09382-.09453-.05457.00311-1.09382z" fill="#485f69"/></g><g><path d="m14.92508 11.93599-.0031 1.09382-.0937-.05409.0031-1.09382z" fill="#485f69"/></g><g><path d="m15.13321 12.05616-.0031 1.09382-.0937-.0541.0031-1.09382z" fill="#485f69"/></g><g><path d="m15.34216 12.1768-.0031 1.09382-.03559-.02055.0031-1.09382z" fill="#485f69"/></g><g><path d="m15.24048 12.12002-.0031 1.09383-.03559-.02055.0031-1.09383z" fill="#485f69"/></g><g><path d="m15.49349 12.26416-.0031 1.09382-.0369-.0213.0031-1.09382z" fill="#485f69"/></g><g><path d="m15.70161 12.38433-.0031 1.09382-.15597-.09006.0031-1.09382z" fill="#485f69"/></g><g><path d="m15.91057 12.50497-.0031 1.09382-.09453-.05458.0031-1.09382z" fill="#485f69"/></g><g><path d="m16.1187 12.62513-.00311 1.09382-.09452-.05458.0031-1.09382z" fill="#485f69"/></g><g><path d="m16.32682 12.74529-.0031 1.09382-.12484-.07207.00311-1.09382z" fill="#485f69"/></g><g><path d="m16.53495 12.86545-.0031 1.09382-.0937-.05409.0031-1.09382z" fill="#485f69"/></g></g></g></g><g><g><g><g><g enable-background="new"><g><path d="m22.44869 23.83867.01507 5.31749 5.91943 3.44-.01508-5.3175z" fill="#b0b8bc"/></g><g><path d="m24.75516 25.1821.00327 1.15539.40855.23741.46911.27262-.00327-1.15538z" fill="#40545d"/></g><g><path d="m28.36811 27.27866.01508 5.3175 8.31907-4.80302-.01508-5.3175z" fill="#9aa1a5"/></g><g><path d="m22.44869 23.83867 5.91942 3.43999 8.31907-4.80302-5.91942-3.43999z" fill="#cfd8dd"/></g><g><path d="m24.75516 25.1821.87766.51004 8.31907-4.80302-.87766-.51004z" fill="#485f69"/></g></g></g><g><g><path d="m34.43202 27.72941c-.00844.04315-.01356.08604-.01345.12478.00043.15178.05883.27175.17799.33419.05481.02796.08593.0926.08618.17939l-.08173.04719c-.01331.00768-.02562.02737-.02557.04485.00005.01694.01244.02234.02574.01466l.21667-.1251c.01473-.0085.02705-.02817.027-.04511-.00005-.01748-.01244-.0229-.02717-.0144l-.08173.04718c-.00025-.08845.03183-.18954.08583-.28033.14779-.24774.20187-.47802.16284-.64636z" fill="#56707b"/></g><g><path d="m34.00008 28.97903-1.00638.58103-.00328-1.1564 1.00638-.58103zm-.95806.49736.90897-.5248-.00296-1.04449-.90897.5248z" fill="#56707b"/></g><g><path d="m33.49113 28.24308c-.0095.00549-.01756.01998-.01752.03091l.00003.01309c-.1696.1094-.30557.32682-.35106.56635.01131-.03988.03549-.07298.06162-.0886.02756-.01591.0509-.01025.06286.0129.01227-.03714.03407-.06943.06163-.08587.02756-.01591.04995-.0097.06191.01401.01227-.0377.03502-.07054.06258-.08645.01815-.01051.03226-.01154.0433-.00367l.0035.39503c.00069.07692.056.10875.12402.06948.06834-.03999.12375-.13708.12306-.21432l-.0006-.04342c-.00003-.012-.00861-.01689-.01907-.01086-.0095.00605-.01803.02026-.01752.03254l.00013.04366c.00063.05379-.03821.1216-.08572.1496-.04752.02744-.08661.00538-.08723-.04865l-.0035-.395c.01136-.02134.02702-.0375.04317-.04683.02773-.01601.05059-.01019.06239.0132.01274-.03798.0355-.07078.0621-.08615.02708-.01564.05042-.00997.06239.01537.01131-.03935.03454-.07189.06162-.08806.02756-.01591.0509-.01025.06287.01566-.04907-.18497-.18868-.24162-.35738-.15134l-.00004-.01366c-.00051-.01059-.00861-.01523-.01954-.00892z" fill="#56707b"/></g><g><path d="m35.61352 27.81344.0002.06772.61864-.35718-.00019-.06772z" fill="#56707b"/></g><g><path d="m35.61315 27.68186.00019.06769.61865-.35718-.00019-.06769-.09598.05542-.07888.04554-.26846.155-.07887.04553z" fill="#56707b"/></g><g><path d="m35.74727 26.9788-.14992.33427.11119-.06419.00107.37729.07887-.04553-.00107-.3773.11024-.06364z" fill="#56707b"/></g><g><path d="m36.4267 27.57802-1.00591.58076-.00328-1.1564 1.00591-.58076zm-.9576.49709.90897-.5248-.00296-1.04449-.90897.52479z" fill="#56707b"/></g><g><path d="m36.09461 26.77826-.14992.33428.11118-.06419.00107.37729.07888-.04554-.00107-.37729.11024-.06365z" fill="#56707b"/></g><g><path d="m35.21363 28.27839-1.00638.58103-.00328-1.1564 1.00638-.58103zm-.95807.49736.90897-.52479-.00296-1.04449-.90897.5248z" fill="#56707b"/></g></g></g><g><g><path d="m22.77475 27.93243-.0031 1.09382-.09453-.05457.0031-1.09382z" fill="#485f69"/></g><g><path d="m22.98287 28.05259-.0031 1.09382-.0937-.05409.00311-1.09382z" fill="#485f69"/></g><g><path d="m23.191 28.17275-.0031 1.09383-.0937-.0541.0031-1.09382z" fill="#485f69"/></g><g><path d="m23.39996 28.2934-.00311 1.09382-.03559-.02055.0031-1.09382z" fill="#485f69"/></g><g><path d="m23.29827 28.23662-.0031 1.09382-.03559-.02055.0031-1.09382z" fill="#485f69"/></g><g><path d="m23.55128 28.38076-.0031 1.09382-.0369-.0213.00311-1.09382z" fill="#485f69"/></g><g><path d="m23.75941 28.50093-.0031 1.09382-.15598-.09006.0031-1.09382z" fill="#485f69"/></g><g><path d="m23.96836 28.62156-.0031 1.09383-.09453-.05458.0031-1.09382z" fill="#485f69"/></g><g><path d="m24.17649 28.74173-.0031 1.09382-.09453-.05458.0031-1.09382z" fill="#485f69"/></g><g><path d="m24.38462 28.86189-.0031 1.09382-.12484-.07207.0031-1.09383z" fill="#485f69"/></g><g><path d="m24.59274 28.98205-.0031 1.09382-.0937-.05409.0031-1.09383z" fill="#485f69"/></g></g></g><g><g><g><g enable-background="new"><g><path d="m22.44869 18.02133.01507 5.3175 5.91943 3.44-.01508-5.3175z" fill="#b0b8bc"/></g><g><path d="m24.75516 19.36477.00327 1.15538.40855.23742.46911.27262-.00327-1.15538z" fill="#40545d"/></g><g><path d="m28.36811 21.46133.01508 5.3175 8.31907-4.80302-.01508-5.3175z" fill="#9aa1a5"/></g><g><path d="m22.44869 18.02133 5.91942 3.44 8.31907-4.80302-5.91942-3.43999z" fill="#cfd8dd"/></g><g><path d="m24.75516 19.36477.87766.51004 8.31907-4.80302-.87766-.51004z" fill="#485f69"/></g></g></g><g><g><path d="m34.43202 21.91208c-.00844.04315-.01356.08604-.01345.12478.00043.15178.05883.27176.17799.33419.05481.02796.08593.0926.08618.17939l-.08173.04719c-.01331.00768-.02562.02737-.02557.04485.00005.01694.01244.02234.02574.01466l.21667-.1251c.01473-.0085.02705-.02817.027-.04511-.00005-.01748-.01244-.02291-.02717-.0144l-.08173.04718c-.00025-.08845.03183-.18954.08583-.28032.14779-.24774.20187-.47802.16284-.64636z" fill="#56707b"/></g><g><path d="m34.00008 23.1617-1.00638.58103-.00328-1.1564 1.00638-.58103zm-.95806.49736.90897-.5248-.00296-1.04449-.90897.5248z" fill="#56707b"/></g><g><path d="m33.49113 22.42575c-.0095.00549-.01756.01999-.01752.03091l.00003.01309c-.1696.1094-.30557.32682-.35106.56635.01131-.03988.03549-.07298.06162-.0886.02756-.01591.0509-.01025.06286.0129.01227-.03714.03407-.06943.06163-.08587.02756-.01591.04995-.0097.06191.01401.01227-.0377.03502-.07054.06258-.08645.01815-.01051.03226-.01154.0433-.00367l.0035.39503c.00069.07692.056.10875.12402.06948.06834-.03999.12375-.13708.12306-.21432l-.0006-.04342c-.00003-.012-.00861-.01689-.01907-.01086-.0095.00605-.01803.02026-.01752.03255l.00013.04366c.00063.05379-.03821.1216-.08572.1496-.04752.02743-.08661.00538-.08723-.04865l-.0035-.395c.01136-.02134.02702-.0375.04317-.04683.02773-.01601.05059-.01019.06239.0132.01274-.03798.0355-.07078.0621-.08615.02708-.01564.05042-.00997.06239.01537.01131-.03934.03454-.07189.06162-.08806.02756-.01591.0509-.01025.06287.01566-.04907-.18497-.18868-.24162-.35738-.15134l-.00004-.01365c-.00051-.01061-.00861-.01525-.01954-.00894z" fill="#56707b"/></g><g><path d="m35.61352 21.99611.0002.06772.61864-.35718-.00019-.06772z" fill="#56707b"/></g><g><path d="m35.61315 21.86453.00019.06769.61865-.35718-.00019-.06769-.09598.05542-.07888.04554-.26846.15499-.07887.04554z" fill="#56707b"/></g><g><path d="m35.74727 21.16147-.14992.33427.11119-.06419.00107.37729.07887-.04554-.00107-.37729.11024-.06364z" fill="#56707b"/></g><g><path d="m36.4267 21.76069-1.00591.58076-.00328-1.1564 1.00591-.58076zm-.9576.49709.90897-.5248-.00296-1.04449-.90897.52479z" fill="#56707b"/></g><g><path d="m36.09461 20.96093-.14992.33428.11118-.0642.00107.3773.07888-.04554-.00107-.37729.11024-.06365z" fill="#56707b"/></g><g><path d="m35.21363 22.46106-1.00638.58103-.00328-1.1564 1.00638-.58103zm-.95807.49736.90897-.52479-.00296-1.04449-.90897.5248z" fill="#56707b"/></g></g></g><g><g><path d="m22.77475 22.1151-.0031 1.09382-.09453-.05458.0031-1.09382z" fill="#485f69"/></g><g><path d="m22.98287 22.23526-.0031 1.09382-.0937-.05409.00311-1.09382z" fill="#485f69"/></g><g><path d="m23.191 22.35542-.0031 1.09383-.0937-.0541.0031-1.09382z" fill="#485f69"/></g><g><path d="m23.39996 22.47606-.00311 1.09383-.03559-.02055.0031-1.09383z" fill="#485f69"/></g><g><path d="m23.29827 22.41929-.0031 1.09382-.03559-.02055.0031-1.09382z" fill="#485f69"/></g><g><path d="m23.55128 22.56343-.0031 1.09382-.0369-.0213.00311-1.09382z" fill="#485f69"/></g><g><path d="m23.75941 22.68359-.0031 1.09382-.15598-.09005.0031-1.09382z" fill="#485f69"/></g><g><path d="m23.96836 22.80423-.0031 1.09383-.09453-.05458.0031-1.09382z" fill="#485f69"/></g><g><path d="m24.17649 22.9244-.0031 1.09382-.09453-.05458.0031-1.09382z" fill="#485f69"/></g><g><path d="m24.38462 23.04456-.0031 1.09382-.12484-.07207.0031-1.09383z" fill="#485f69"/></g><g><path d="m24.59274 23.16472-.0031 1.09382-.0937-.0541.0031-1.09382z" fill="#485f69"/></g></g></g><g><g><g><g enable-background="new"><g><path d="m22.44869 12.204.01507 5.3175 5.91943 3.43999-.01508-5.31749z" fill="#b0b8bc"/></g><g><path d="m24.75516 13.54744.00327 1.15538.40855.23742.46911.27262-.00327-1.15538z" fill="#40545d"/></g><g><path d="m28.36811 15.644.01508 5.31749 8.31907-4.80301-.01508-5.3175z" fill="#9aa1a5"/></g><g><path d="m22.44869 12.204 5.91942 3.44 8.31907-4.80302-5.91942-3.43999z" fill="#cfd8dd"/></g><g><path d="m24.75516 13.54744.87766.51004 8.31907-4.80302-.87766-.51004z" fill="#485f69"/></g></g></g><g><g><path d="m34.43202 16.09475c-.00844.04315-.01356.08604-.01345.12478.00043.15178.05883.27176.17799.33419.05481.02796.08593.0926.08618.17939l-.08173.04719c-.01331.00768-.02562.02737-.02557.04485.00005.01694.01244.02234.02574.01466l.21667-.12509c.01473-.0085.02705-.02817.027-.04511-.00005-.01748-.01244-.0229-.02717-.0144l-.08173.04719c-.00025-.08845.03183-.18954.08583-.28033.14779-.24774.20187-.47802.16284-.64636z" fill="#56707b"/></g><g><path d="m34.00008 17.34437-1.00638.58103-.00328-1.1564 1.00638-.58103zm-.95806.49736.90897-.5248-.00296-1.04449-.90897.5248z" fill="#56707b"/></g><g><path d="m33.49113 16.60842c-.0095.00549-.01756.01999-.01752.03092l.00003.01309c-.1696.1094-.30557.32682-.35106.56635.01131-.03988.03549-.07298.06162-.0886.02756-.01591.0509-.01025.06286.0129.01227-.03714.03407-.06943.06163-.08587.02756-.01591.04995-.0097.06191.01401.01227-.0377.03502-.07054.06258-.08645.01815-.01051.03226-.01154.0433-.00367l.0035.39503c.00069.07692.056.10875.12402.06948.06834-.03999.12375-.13708.12306-.21432l-.0006-.04342c-.00003-.012-.00861-.01689-.01907-.01086-.0095.00605-.01803.02026-.01752.03255l.00013.04366c.00063.05379-.03821.1216-.08572.1496-.04752.02743-.08661.00538-.08723-.04865l-.0035-.395c.01136-.02134.02702-.0375.04317-.04683.02773-.01601.05059-.01019.06239.01321.01274-.03798.0355-.07079.0621-.08615.02708-.01564.05042-.00997.06239.01537.01131-.03934.03454-.07189.06162-.08806.02756-.01591.0509-.01025.06287.01566-.04907-.18497-.18868-.24162-.35738-.15134l-.00004-.01365c-.00051-.01063-.00861-.01527-.01954-.00896z" fill="#56707b"/></g><g><path d="m35.61352 16.17878.0002.06772.61864-.35718-.00019-.06772z" fill="#56707b"/></g><g><path d="m35.61315 16.0472.00019.06769.61865-.35718-.00019-.06769-.09598.05542-.07888.04554-.26846.15499-.07887.04554z" fill="#56707b"/></g><g><path d="m35.74727 15.34414-.14992.33427.11119-.06419.00107.37729.07887-.04554-.00107-.37729.11024-.06364z" fill="#56707b"/></g><g><path d="m36.4267 15.94336-1.00591.58076-.00328-1.1564 1.00591-.58076zm-.9576.49709.90897-.52479-.00296-1.04449-.90897.52479z" fill="#56707b"/></g><g><path d="m36.09461 15.1436-.14992.33428.11118-.0642.00107.3773.07888-.04554-.00107-.3773.11024-.06364z" fill="#56707b"/></g><g><path d="m35.21363 16.64373-1.00638.58103-.00328-1.1564 1.00638-.58103zm-.95807.49736.90897-.5248-.00296-1.04449-.90897.5248z" fill="#56707b"/></g></g></g><g><g><path d="m22.77475 16.29777-.0031 1.09382-.09453-.05457.0031-1.09383z" fill="#485f69"/></g><g><path d="m22.98287 16.41793-.0031 1.09382-.0937-.0541.00311-1.09382z" fill="#485f69"/></g><g><path d="m23.191 16.53809-.0031 1.09382-.0937-.05409.0031-1.09382z" fill="#485f69"/></g><g><path d="m23.39996 16.65873-.00311 1.09382-.03559-.02055.0031-1.09382z" fill="#485f69"/></g><g><path d="m23.29827 16.60196-.0031 1.09382-.03559-.02055.0031-1.09382z" fill="#485f69"/></g><g><path d="m23.55128 16.7461-.0031 1.09382-.0369-.0213.00311-1.09382z" fill="#485f69"/></g><g><path d="m23.75941 16.86626-.0031 1.09382-.15598-.09005.0031-1.09382z" fill="#485f69"/></g><g><path d="m23.96836 16.9869-.0031 1.09382-.09453-.05457.0031-1.09382z" fill="#485f69"/></g><g><path d="m24.17649 17.10707-.0031 1.09382-.09453-.05458.0031-1.09382z" fill="#485f69"/></g><g><path d="m24.38462 17.22723-.0031 1.09382-.12484-.07208.0031-1.09382z" fill="#485f69"/></g><g><path d="m24.59274 17.34739-.0031 1.09382-.0937-.0541.0031-1.09382z" fill="#485f69"/></g></g></g></g><g><g><g><g><g enable-background="new"><g><path d="m30.50648 28.3206.01508 5.3175 5.91942 3.43999-.01507-5.3175z" fill="#b0b8bc"/></g><g><path d="m32.81295 29.66404.00328 1.15538.40854.23742.46912.27262-.00328-1.15539z" fill="#40545d"/></g><g><path d="m36.42591 31.76059.01507 5.3175 8.31907-4.80301-.01508-5.3175z" fill="#9aa1a5"/></g><g><path d="m30.50648 28.3206 5.91943 3.43999 8.31906-4.80301-5.91942-3.43999z" fill="#cfd8dd"/></g><g><path d="m32.81295 29.66404.87766.51003 8.31907-4.80301-.87766-.51004z" fill="#485f69"/></g></g></g><g><g><path d="m42.48981 32.21135c-.00845.04315-.01356.08604-.01345.12478.00043.15178.05883.27176.17799.33419.05481.02796.08593.0926.08618.17939l-.08173.04718c-.01331.00768-.02562.02737-.02557.04485.00005.01694.01244.02234.02574.01466l.21667-.1251c.01473-.0085.02705-.02816.027-.04511-.00005-.01748-.01244-.0229-.02717-.0144l-.08173.04719c-.00025-.08845.03183-.18954.08582-.28033.14779-.24774.20187-.47802.16284-.64636z" fill="#56707b"/></g><g><path d="m42.05788 33.46097-1.00638.58103-.00328-1.1564 1.00638-.58104zm-.95807.49736.90897-.5248-.00296-1.04449-.90897.5248z" fill="#56707b"/></g><g><path d="m41.54892 32.72502c-.0095.00549-.01755.01999-.01752.03091l.00004.01309c-.1696.1094-.30558.32682-.35106.56635.01131-.03988.03549-.07298.06162-.0886.02756-.01591.0509-.01025.06286.0129.01227-.03714.03407-.06943.06163-.08587.02756-.01591.04995-.0097.06191.01402.01226-.0377.03502-.07054.06258-.08645.01815-.01051.03226-.01154.0433-.00367l.0035.39503c.00069.07692.056.10875.12402.06948.06834-.03999.12375-.13708.12305-.21432l-.0006-.04342c-.00003-.012-.00861-.0169-.01907-.01086-.0095.00605-.01803.02026-.01752.03255l.00012.04366c.00063.05379-.0382.1216-.08572.1496-.04752.02743-.08661.00538-.08723-.04865l-.0035-.395c.01136-.02134.02702-.0375.04318-.04683.02773-.01601.05058-.01019.06238.01321.01274-.03798.0355-.07079.0621-.08615.02708-.01564.05042-.00997.06239.01537.01131-.03934.03454-.0719.06162-.08807.02756-.01591.0509-.01025.06287.01566-.04907-.18497-.18868-.24162-.35738-.15134l-.00004-.01366c-.00049-.01062-.0086-.01525-.01953-.00894z" fill="#56707b"/></g><g><path d="m43.67132 32.29538.00019.06771.61865-.35717-.00019-.06772z" fill="#56707b"/></g><g><path d="m43.67094 32.1638.00019.06769.61866-.35718-.00019-.06769-.09599.05542-.07887.04554-.26846.15499-.07888.04554z" fill="#56707b"/></g><g><path d="m43.80507 31.46074-.14993.33427.11119-.06419.00107.37729.07888-.04554-.00107-.37729.11023-.06365z" fill="#56707b"/></g><g><path d="m44.48449 32.05996-1.0059.58076-.00328-1.15641 1.00591-.58076zm-.95759.49709.90897-.5248-.00296-1.04449-.90897.5248z" fill="#56707b"/></g><g><path d="m44.1524 31.2602-.14992.33427.11119-.06419.00107.3773.07887-.04554-.00107-.3773.11024-.06364z" fill="#56707b"/></g><g><path d="m43.27142 32.76033-1.00638.58103-.00328-1.1564 1.00638-.58103zm-.95807.49736.90897-.52479-.00296-1.04449-.90897.5248z" fill="#56707b"/></g></g></g><g><g><path d="m30.83254 32.41437-.0031 1.09382-.09453-.05458.0031-1.09382z" fill="#485f69"/></g><g><path d="m31.04067 32.53453-.0031 1.09382-.0937-.0541.0031-1.09382z" fill="#485f69"/></g><g><path d="m31.24879 32.65469-.0031 1.09382-.0937-.05409.00311-1.09383z" fill="#485f69"/></g><g><path d="m31.45775 32.77533-.0031 1.09382-.03559-.02055.0031-1.09382z" fill="#485f69"/></g><g><path d="m31.35607 32.71856-.0031 1.09382-.0356-.02055.0031-1.09382z" fill="#485f69"/></g><g><path d="m31.60907 32.8627-.0031 1.09382-.03689-.0213.0031-1.09382z" fill="#485f69"/></g><g><path d="m31.8172 32.98286-.0031 1.09382-.15598-.09005.0031-1.09382z" fill="#485f69"/></g><g><path d="m32.02616 33.1035-.0031 1.09382-.09453-.05457.0031-1.09382z" fill="#485f69"/></g><g><path d="m32.23428 33.22366-.0031 1.09383-.09453-.05458.00311-1.09382z" fill="#485f69"/></g><g><path d="m32.44241 33.34383-.0031 1.09382-.12484-.07208.0031-1.09382z" fill="#485f69"/></g><g><path d="m32.65054 33.46399-.00311 1.09382-.09369-.0541.0031-1.09382z" fill="#485f69"/></g></g></g><g><g><g><g enable-background="new"><g><path d="m30.50648 22.50327.01508 5.3175 5.91942 3.43999-.01507-5.3175z" fill="#b0b8bc"/></g><g><path d="m32.81295 23.8467.00328 1.15539.40854.23742.46912.27262-.00328-1.15539z" fill="#40545d"/></g><g><path d="m36.42591 25.94326.01507 5.3175 8.31907-4.80301-.01508-5.3175z" fill="#9aa1a5"/></g><g><path d="m30.50648 22.50327 5.91943 3.43999 8.31906-4.80301-5.91942-3.44z" fill="#cfd8dd"/></g><g><path d="m32.81295 23.8467.87766.51004 8.31907-4.80301-.87766-.51004z" fill="#485f69"/></g></g></g><g><g><path d="m42.48981 26.39401c-.00845.04315-.01356.08604-.01345.12478.00043.15178.05883.27175.17799.33419.05481.02796.08593.0926.08618.17939l-.08173.04718c-.01331.00768-.02562.02737-.02557.04485.00005.01694.01244.02234.02574.01466l.21667-.1251c.01473-.0085.02705-.02817.027-.04511-.00005-.01748-.01244-.0229-.02717-.0144l-.08173.04718c-.00025-.08845.03183-.18954.08582-.28033.14779-.24774.20187-.47802.16284-.64636z" fill="#56707b"/></g><g><path d="m42.05788 27.64364-1.00638.58103-.00328-1.1564 1.00638-.58103zm-.95807.49736.90897-.5248-.00296-1.04449-.90897.52479z" fill="#56707b"/></g><g><path d="m41.54892 26.90769c-.0095.00549-.01755.01998-.01752.03091l.00004.01309c-.1696.1094-.30558.32682-.35106.56635.01131-.03988.03549-.07298.06162-.0886.02756-.01591.0509-.01025.06286.0129.01227-.03714.03407-.06943.06163-.08587.02756-.01591.04995-.0097.06191.01401.01226-.0377.03502-.07054.06258-.08645.01815-.01051.03226-.01154.0433-.00367l.0035.39503c.00069.07692.056.10875.12402.06948.06834-.03999.12375-.13708.12305-.21432l-.0006-.04342c-.00003-.012-.00861-.01689-.01907-.01086-.0095.00605-.01803.02026-.01752.03254l.00012.04366c.00063.05379-.0382.1216-.08572.1496-.04752.02744-.08661.00538-.08723-.04865l-.0035-.395c.01136-.02134.02702-.0375.04318-.04683.02773-.01601.05058-.01019.06238.0132.01274-.03798.0355-.07078.0621-.08615.02708-.01564.05042-.00997.06239.01537.01131-.03935.03454-.07189.06162-.08806.02756-.01591.0509-.01025.06287.01566-.04907-.18497-.18868-.24162-.35738-.15134l-.00004-.01366c-.00049-.0106-.0086-.01523-.01953-.00892z" fill="#56707b"/></g><g><path d="m43.67132 26.47805.00019.06771.61865-.35717-.00019-.06772z" fill="#56707b"/></g><g><path d="m43.67094 26.34647.00019.06769.61866-.35718-.00019-.06769-.09599.05542-.07887.04553-.26846.155-.07888.04554z" fill="#56707b"/></g><g><path d="m43.80507 25.64341-.14993.33427.11119-.06419.00107.37729.07888-.04554-.00107-.37729.11023-.06365z" fill="#56707b"/></g><g><path d="m44.48449 26.24263-1.0059.58076-.00328-1.1564 1.00591-.58076zm-.95759.49709.90897-.5248-.00296-1.04449-.90897.52479z" fill="#56707b"/></g><g><path d="m44.1524 25.44287-.14992.33428.11119-.0642.00107.37729.07887-.04553-.00107-.3773.11024-.06364z" fill="#56707b"/></g><g><path d="m43.27142 26.943-1.00638.58103-.00328-1.1564 1.00638-.58103zm-.95807.49736.90897-.52479-.00296-1.04449-.90897.5248z" fill="#56707b"/></g></g></g><g><g><path d="m30.83254 26.59704-.0031 1.09382-.09453-.05458.0031-1.09382z" fill="#485f69"/></g><g><path d="m31.04067 26.7172-.0031 1.09382-.0937-.0541.0031-1.09382z" fill="#485f69"/></g><g><path d="m31.24879 26.83736-.0031 1.09382-.0937-.0541.00311-1.09382z" fill="#485f69"/></g><g><path d="m31.45775 26.958-.0031 1.09382-.03559-.02055.0031-1.09382z" fill="#485f69"/></g><g><path d="m31.35607 26.90123-.0031 1.09382-.0356-.02055.0031-1.09382z" fill="#485f69"/></g><g><path d="m31.60907 27.04537-.0031 1.09382-.03689-.0213.0031-1.09382z" fill="#485f69"/></g><g><path d="m31.8172 27.16553-.0031 1.09382-.15598-.09005.0031-1.09382z" fill="#485f69"/></g><g><path d="m32.02616 27.28617-.0031 1.09382-.09453-.05457.0031-1.09382z" fill="#485f69"/></g><g><path d="m32.23428 27.40633-.0031 1.09382-.09453-.05457.00311-1.09382z" fill="#485f69"/></g><g><path d="m32.44241 27.52649-.0031 1.09383-.12484-.07208.0031-1.09382z" fill="#485f69"/></g><g><path d="m32.65054 27.64666-.00311 1.09382-.09369-.0541.0031-1.09382z" fill="#485f69"/></g></g></g><g><g><g><g enable-background="new"><g><path d="m30.50648 16.68594.01508 5.3175 5.91942 3.43999-.01507-5.3175z" fill="#b0b8bc"/></g><g><path d="m32.81295 18.02937.00328 1.15539.40854.23742.46912.27262-.00328-1.15539z" fill="#40545d"/></g><g><path d="m36.42591 20.12593.01507 5.3175 8.31907-4.80301-.01508-5.3175z" fill="#9aa1a5"/></g><g><path d="m30.50648 16.68594 5.91943 3.43999 8.31906-4.80301-5.91942-3.44z" fill="#cfd8dd"/></g><g><path d="m32.81295 18.02937.87766.51004 8.31907-4.80301-.87766-.51004z" fill="#485f69"/></g></g></g><g><g><path d="m42.48981 20.57668c-.00845.04315-.01356.08604-.01345.12478.00043.15178.05883.27176.17799.33419.05481.02796.08593.0926.08618.17939l-.08173.04719c-.01331.00768-.02562.02737-.02557.04485.00005.01694.01244.02234.02574.01466l.21667-.1251c.01473-.0085.02705-.02817.027-.04511-.00005-.01748-.01244-.0229-.02717-.0144l-.08173.04718c-.00025-.08845.03183-.18954.08582-.28032.14779-.24774.20187-.47802.16284-.64636z" fill="#56707b"/></g><g><path d="m42.05788 21.82631-1.00638.58103-.00328-1.1564 1.00638-.58103zm-.95807.49736.90897-.5248-.00296-1.04449-.90897.5248z" fill="#56707b"/></g><g><path d="m41.54892 21.09035c-.0095.00549-.01755.01999-.01752.03091l.00004.01309c-.1696.1094-.30558.32682-.35106.56635.01131-.03988.03549-.07298.06162-.0886.02756-.01591.0509-.01025.06286.0129.01227-.03714.03407-.06943.06163-.08587.02756-.01591.04995-.0097.06191.01401.01226-.0377.03502-.07054.06258-.08645.01815-.01051.03226-.01154.0433-.00367l.0035.39503c.00069.07692.056.10875.12402.06948.06834-.03999.12375-.13708.12305-.21432l-.0006-.04342c-.00003-.012-.00861-.01689-.01907-.01086-.0095.00605-.01803.02026-.01752.03254l.00012.04366c.00063.05379-.0382.1216-.08572.1496-.04752.02743-.08661.00538-.08723-.04865l-.0035-.395c.01136-.02134.02702-.0375.04318-.04683.02773-.01601.05058-.01019.06238.0132.01274-.03798.0355-.07078.0621-.08615.02708-.01564.05042-.00997.06239.01537.01131-.03934.03454-.07189.06162-.08806.02756-.01591.0509-.01025.06287.01566-.04907-.18497-.18868-.24162-.35738-.15134l-.00004-.01365c-.00049-.0106-.0086-.01523-.01953-.00893z" fill="#56707b"/></g><g><path d="m43.67132 20.66072.00019.06771.61865-.35717-.00019-.06772z" fill="#56707b"/></g><g><path d="m43.67094 20.52914.00019.06768.61866-.35717-.00019-.06769-.09599.05542-.07887.04553-.26846.155-.07888.04554z" fill="#56707b"/></g><g><path d="m43.80507 19.82607-.14993.33428.11119-.06419.00107.37729.07888-.04554-.00107-.37729.11023-.06365z" fill="#56707b"/></g><g><path d="m44.48449 20.4253-1.0059.58076-.00328-1.1564 1.00591-.58076zm-.95759.49709.90897-.5248-.00296-1.04449-.90897.52479z" fill="#56707b"/></g><g><path d="m44.1524 19.62554-.14992.33427.11119-.06419.00107.37729.07887-.04553-.00107-.3773.11024-.06364z" fill="#56707b"/></g><g><path d="m43.27142 21.12567-1.00638.58103-.00328-1.1564 1.00638-.58103zm-.95807.49736.90897-.52479-.00296-1.04449-.90897.5248z" fill="#56707b"/></g></g></g><g><g><path d="m30.83254 20.77971-.0031 1.09382-.09453-.05458.0031-1.09382z" fill="#485f69"/></g><g><path d="m31.04067 20.89987-.0031 1.09382-.0937-.0541.0031-1.09382z" fill="#485f69"/></g><g><path d="m31.24879 21.02003-.0031 1.09382-.0937-.0541.00311-1.09382z" fill="#485f69"/></g><g><path d="m31.45775 21.14067-.0031 1.09382-.03559-.02055.0031-1.09382z" fill="#485f69"/></g><g><path d="m31.35607 21.0839-.0031 1.09382-.0356-.02055.0031-1.09382z" fill="#485f69"/></g><g><path d="m31.60907 21.22804-.0031 1.09382-.03689-.0213.0031-1.09382z" fill="#485f69"/></g><g><path d="m31.8172 21.3482-.0031 1.09382-.15598-.09005.0031-1.09382z" fill="#485f69"/></g><g><path d="m32.02616 21.46884-.0031 1.09382-.09453-.05457.0031-1.09383z" fill="#485f69"/></g><g><path d="m32.23428 21.589-.0031 1.09382-.09453-.05457.00311-1.09382z" fill="#485f69"/></g><g><path d="m32.44241 21.70916-.0031 1.09383-.12484-.07208.0031-1.09382z" fill="#485f69"/></g><g><path d="m32.65054 21.82933-.00311 1.09382-.09369-.0541.0031-1.09382z" fill="#485f69"/></g></g></g></g><g><g><g><g><g enable-background="new"><g><path d="m4.95503 24.87029.01507 5.3175 5.91943 3.43999-.01508-5.3175z" fill="#b0b8bc"/></g><g><path d="m7.2615 26.21372.00327 1.15539.40854.23742.46912.27262-.00327-1.15539z" fill="#40545d"/></g><g><path d="m10.87445 28.31028.01508 5.3175 8.31906-4.80302-.01507-5.31749z" fill="#9aa1a5"/></g><g><path d="m4.95503 24.87029 5.91942 3.43999 8.31907-4.80301-5.91943-3.44z" fill="#cfd8dd"/></g><g><path d="m7.2615 26.21372.87766.51004 8.31906-4.80302-.87766-.51003z" fill="#485f69"/></g></g></g><g><g><path d="m16.93836 28.76103c-.00844.04315-.01356.08604-.01345.12478.00043.15178.05883.27176.178.33419.05481.02796.08593.0926.08618.17939l-.08173.04719c-.01331.00768-.02562.02737-.02557.04485.00005.01694.01244.02234.02574.01466l.21667-.1251c.01473-.0085.02705-.02817.027-.04511-.00005-.01748-.01244-.02291-.02717-.0144l-.08173.04719c-.00025-.08845.03183-.18954.08582-.28033.14779-.24774.20187-.47802.16284-.64636z" fill="#56707b"/></g><g><path d="m16.50642 30.01065-1.00638.58103-.00328-1.1564 1.00638-.58103zm-.95807.49736.90897-.5248-.00296-1.04449-.90897.5248z" fill="#56707b"/></g><g><path d="m15.99747 29.2747c-.0095.00549-.01755.01999-.01752.03091l.00004.01309c-.1696.1094-.30557.32682-.35106.56635.01131-.03988.03549-.07298.06162-.0886.02756-.01591.0509-.01025.06286.0129.01227-.03714.03407-.06943.06163-.08587.02756-.01591.04994-.0097.06191.01401.01227-.0377.03502-.07054.06258-.08645.01815-.01051.03226-.01154.0433-.00367l.0035.39503c.00069.07692.056.10875.12402.06948.06834-.03999.12375-.13708.12306-.21432l-.0006-.04342c-.00003-.012-.00861-.01689-.01907-.01086-.0095.00605-.01803.02026-.01752.03255l.00012.04366c.00063.05379-.03821.1216-.08572.1496-.04752.02743-.08661.00538-.08723-.04865l-.0035-.395c.01136-.02134.02702-.0375.04318-.04683.02773-.01601.05058-.01019.06239.0132.01274-.03798.03549-.07078.0621-.08615.02708-.01564.05042-.00997.06239.01537.01131-.03934.03454-.07189.06162-.08806.02756-.01591.05089-.01025.06287.01566-.04907-.18497-.18868-.24162-.35738-.15134l-.00004-.01365c-.00052-.01061-.00862-.01525-.01955-.00894z" fill="#56707b"/></g><g><path d="m18.11986 28.84507.00019.06771.61865-.35718-.00019-.06771z" fill="#56707b"/></g><g><path d="m18.11949 28.71349.00019.06768.61865-.35718-.00019-.06768-.09598.05541-.07888.04554-.26846.155-.07888.04554z" fill="#56707b"/></g><g><path d="m18.25361 28.01042-.14992.33428.11118-.0642.00107.3773.07888-.04554-.00107-.3773.11024-.06364z" fill="#56707b"/></g><g><path d="m18.93304 28.60965-1.0059.58076-.00328-1.1564 1.0059-.58076zm-.9576.49708.90897-.52479-.00296-1.04449-.90897.52479z" fill="#56707b"/></g><g><path d="m18.60095 27.80989-.14992.33427.11118-.06419.00107.37729.07888-.04554-.00107-.37729.11023-.06364z" fill="#56707b"/></g><g><path d="m17.71997 29.31001-1.00638.58103-.00328-1.1564 1.00638-.58103zm-.95807.49736.90897-.5248-.00296-1.04449-.90897.5248z" fill="#56707b"/></g></g></g><g><g><path d="m5.28109 28.96405-.0031 1.09382-.09453-.05457.0031-1.09382z" fill="#485f69"/></g><g><path d="m5.48921 29.08422-.0031 1.09382-.0937-.0541.0031-1.09382z" fill="#485f69"/></g><g><path d="m5.69734 29.20438-.0031 1.09382-.0937-.0541.0031-1.09382z" fill="#485f69"/></g><g><path d="m5.90629 29.32502-.0031 1.09382-.03559-.02055.0031-1.09382z" fill="#485f69"/></g><g><path d="m5.80461 29.26825-.0031 1.09382-.03559-.02055.0031-1.09382z" fill="#485f69"/></g><g><path d="m6.05762 29.41238-.0031 1.09383-.0369-.0213.0031-1.09383z" fill="#485f69"/></g><g><path d="m6.26575 29.53255-.00311 1.09382-.15597-.09005.0031-1.09383z" fill="#485f69"/></g><g><path d="m6.4747 29.65319-.0031 1.09382-.09453-.05458.0031-1.09382z" fill="#485f69"/></g><g><path d="m6.68283 29.77335-.0031 1.09382-.09453-.05457.0031-1.09383z" fill="#485f69"/></g><g><path d="m6.89095 29.89351-.0031 1.09382-.12483-.07207.0031-1.09382z" fill="#485f69"/></g><g><path d="m7.09908 30.01367-.0031 1.09382-.0937-.05409.0031-1.09382z" fill="#485f69"/></g></g></g><g><g><g><g enable-background="new"><g><path d="m4.95503 19.05296.01507 5.31749 5.91943 3.44-.01508-5.3175z" fill="#b0b8bc"/></g><g><path d="m7.2615 20.39639.00327 1.15539.40854.23742.46912.27262-.00327-1.15539z" fill="#40545d"/></g><g><path d="m10.87445 22.49295.01508 5.3175 8.31906-4.80302-.01507-5.3175z" fill="#9aa1a5"/></g><g><path d="m4.95503 19.05296 5.91942 3.43999 8.31907-4.80302-5.91943-3.43999z" fill="#cfd8dd"/></g><g><path d="m7.2615 20.39639.87766.51004 8.31906-4.80302-.87766-.51004z" fill="#485f69"/></g></g></g><g><g><path d="m16.93836 22.9437c-.00844.04315-.01356.08604-.01345.12478.00043.15178.05883.27176.178.33419.05481.02796.08593.0926.08618.17939l-.08173.04719c-.01331.00768-.02562.02737-.02557.04485.00005.01694.01244.02234.02574.01466l.21667-.12509c.01473-.0085.02705-.02817.027-.04511-.00005-.01748-.01244-.0229-.02717-.0144l-.08173.04719c-.00025-.08845.03183-.18954.08582-.28033.14779-.24774.20187-.47802.16284-.64636z" fill="#56707b"/></g><g><path d="m16.50642 24.19332-1.00638.58103-.00328-1.1564 1.00638-.58103zm-.95807.49737.90897-.5248-.00296-1.04449-.90897.5248z" fill="#56707b"/></g><g><path d="m15.99747 23.45737c-.0095.00549-.01755.01999-.01752.03092l.00004.01309c-.1696.1094-.30557.32682-.35106.56635.01131-.03988.03549-.07298.06162-.0886.02756-.01591.0509-.01025.06286.0129.01227-.03714.03407-.06943.06163-.08587.02756-.01591.04994-.0097.06191.01401.01227-.0377.03502-.07054.06258-.08645.01815-.01051.03226-.01154.0433-.00367l.0035.39503c.00069.07692.056.10875.12402.06948.06834-.03999.12375-.13708.12306-.21432l-.0006-.04342c-.00003-.012-.00861-.01689-.01907-.01086-.0095.00605-.01803.02026-.01752.03255l.00012.04366c.00063.05379-.03821.1216-.08572.1496-.04752.02743-.08661.00538-.08723-.04865l-.0035-.395c.01136-.02134.02702-.0375.04318-.04683.02773-.01601.05058-.01019.06239.01321.01274-.03798.03549-.07078.0621-.08615.02708-.01564.05042-.00997.06239.01537.01131-.03934.03454-.07189.06162-.08806.02756-.01591.05089-.01025.06287.01566-.04907-.18497-.18868-.24162-.35738-.15134l-.00004-.01365c-.00052-.01063-.00862-.01527-.01955-.00896z" fill="#56707b"/></g><g><path d="m18.11986 23.02773.00019.06772.61865-.35718-.00019-.06771z" fill="#56707b"/></g><g><path d="m18.11949 22.89615.00019.06769.61865-.35718-.00019-.06768-.09598.05541-.07888.04554-.26846.155-.07888.04554z" fill="#56707b"/></g><g><path d="m18.25361 22.19309-.14992.33428.11118-.0642.00107.3773.07888-.04554-.00107-.3773.11024-.06364z" fill="#56707b"/></g><g><path d="m18.93304 22.79231-1.0059.58076-.00328-1.1564 1.0059-.58076zm-.9576.49709.90897-.52479-.00296-1.04449-.90897.5248z" fill="#56707b"/></g><g><path d="m18.60095 21.99256-.14992.33427.11118-.06419.00107.37729.07888-.04554-.00107-.37729.11023-.06365z" fill="#56707b"/></g><g><path d="m17.71997 23.49268-1.00638.58103-.00328-1.1564 1.00638-.58103zm-.95807.49736.90897-.5248-.00296-1.04449-.90897.52479z" fill="#56707b"/></g></g></g><g><g><path d="m5.28109 23.14672-.0031 1.09382-.09453-.05457.0031-1.09382z" fill="#485f69"/></g><g><path d="m5.48921 23.26688-.0031 1.09382-.0937-.05409.0031-1.09382z" fill="#485f69"/></g><g><path d="m5.69734 23.38705-.0031 1.09382-.0937-.0541.0031-1.09382z" fill="#485f69"/></g><g><path d="m5.90629 23.50769-.0031 1.09382-.03559-.02055.0031-1.09382z" fill="#485f69"/></g><g><path d="m5.80461 23.45091-.0031 1.09382-.03559-.02054.0031-1.09383z" fill="#485f69"/></g><g><path d="m6.05762 23.59505-.0031 1.09383-.0369-.02131.0031-1.09382z" fill="#485f69"/></g><g><path d="m6.26575 23.71522-.00311 1.09382-.15597-.09006.0031-1.09382z" fill="#485f69"/></g><g><path d="m6.4747 23.83586-.0031 1.09382-.09453-.05458.0031-1.09382z" fill="#485f69"/></g><g><path d="m6.68283 23.95602-.0031 1.09382-.09453-.05458.0031-1.09382z" fill="#485f69"/></g><g><path d="m6.89095 24.07618-.0031 1.09382-.12483-.07207.0031-1.09382z" fill="#485f69"/></g><g><path d="m7.09908 24.19634-.0031 1.09382-.0937-.05409.0031-1.09382z" fill="#485f69"/></g></g></g><g><g><g><g enable-background="new"><g><path d="m4.95503 13.23563.01507 5.31749 5.91943 3.44-.01508-5.3175z" fill="#b0b8bc"/></g><g><path d="m7.2615 14.57906.00327 1.15539.40854.23741.46912.27263-.00327-1.15539z" fill="#40545d"/></g><g><path d="m10.87445 16.67562.01508 5.3175 8.31906-4.80302-.01507-5.3175z" fill="#9aa1a5"/></g><g><path d="m4.95503 13.23563 5.91942 3.43999 8.31907-4.80302-5.91943-3.43999z" fill="#cfd8dd"/></g><g><path d="m7.2615 14.57906.87766.51004 8.31906-4.80302-.87766-.51004z" fill="#485f69"/></g></g></g><g><g><path d="m16.93836 17.12637c-.00844.04315-.01356.08604-.01345.12478.00043.15178.05883.27176.178.33419.05481.02796.08593.0926.08618.17939l-.08173.04718c-.01331.00768-.02562.02737-.02557.04485.00005.01694.01244.02234.02574.01466l.21667-.1251c.01473-.0085.02705-.02817.027-.04511-.00005-.01748-.01244-.0229-.02717-.0144l-.08173.04719c-.00025-.08845.03183-.18954.08582-.28033.14779-.24774.20187-.47802.16284-.64636z" fill="#56707b"/></g><g><path d="m16.50642 18.37599-1.00638.58103-.00328-1.15641 1.00638-.58103zm-.95807.49736.90897-.5248-.00296-1.04449-.90897.5248z" fill="#56707b"/></g><g><path d="m15.99747 17.64004c-.0095.00549-.01755.01999-.01752.03092l.00004.01309c-.1696.1094-.30557.32682-.35106.56635.01131-.03988.03549-.07298.06162-.0886.02756-.01591.0509-.01025.06286.0129.01227-.03714.03407-.06943.06163-.08587.02756-.01591.04994-.0097.06191.01401.01227-.0377.03502-.07054.06258-.08645.01815-.01051.03226-.01154.0433-.00367l.0035.39503c.00069.07692.056.10875.12402.06948.06834-.03999.12375-.13708.12306-.21432l-.0006-.04342c-.00003-.012-.00861-.01689-.01907-.01086-.0095.00605-.01803.02026-.01752.03255l.00012.04366c.00063.05379-.03821.1216-.08572.1496-.04752.02744-.08661.00538-.08723-.04865l-.0035-.395c.01136-.02134.02702-.0375.04318-.04683.02773-.01601.05058-.01019.06239.01321.01274-.03798.03549-.07078.0621-.08615.02708-.01564.05042-.00997.06239.01537.01131-.03934.03454-.07189.06162-.08806.02756-.01591.05089-.01025.06287.01566-.04907-.18497-.18868-.24162-.35738-.15134l-.00004-.01366c-.00052-.01062-.00862-.01526-.01955-.00895z" fill="#56707b"/></g><g><path d="m18.11986 17.2104.00019.06772.61865-.35718-.00019-.06771z" fill="#56707b"/></g><g><path d="m18.11949 17.07882.00019.06769.61865-.35718-.00019-.06768-.09598.05541-.07888.04554-.26846.155-.07888.04553z" fill="#56707b"/></g><g><path d="m18.25361 16.37576-.14992.33428.11118-.0642.00107.37729.07888-.04553-.00107-.3773.11024-.06364z" fill="#56707b"/></g><g><path d="m18.93304 16.97499-1.0059.58076-.00328-1.15641 1.0059-.58076zm-.9576.49708.90897-.52479-.00296-1.04449-.90897.52479z" fill="#56707b"/></g><g><path d="m18.60095 16.17522-.14992.33428.11118-.06419.00107.37729.07888-.04554-.00107-.37729.11023-.06365z" fill="#56707b"/></g><g><path d="m17.71997 17.67535-1.00638.58103-.00328-1.15641 1.00638-.58103zm-.95807.49736.90897-.5248-.00296-1.04449-.90897.52479z" fill="#56707b"/></g></g></g><g><g><path d="m5.28109 17.32939-.0031 1.09382-.09453-.05457.0031-1.09382z" fill="#485f69"/></g><g><path d="m5.48921 17.44955-.0031 1.09383-.0937-.0541.0031-1.09382z" fill="#485f69"/></g><g><path d="m5.69734 17.56972-.0031 1.09382-.0937-.0541.0031-1.09382z" fill="#485f69"/></g><g><path d="m5.90629 17.69036-.0031 1.09382-.03559-.02055.0031-1.09382z" fill="#485f69"/></g><g><path d="m5.80461 17.63358-.0031 1.09382-.03559-.02055.0031-1.09382z" fill="#485f69"/></g><g><path d="m6.05762 17.77772-.0031 1.09382-.0369-.0213.0031-1.09382z" fill="#485f69"/></g><g><path d="m6.26575 17.89788-.00311 1.09383-.15597-.09006.0031-1.09382z" fill="#485f69"/></g><g><path d="m6.4747 18.01853-.0031 1.09382-.09453-.05458.0031-1.09382z" fill="#485f69"/></g><g><path d="m6.68283 18.13869-.0031 1.09382-.09453-.05458.0031-1.09382z" fill="#485f69"/></g><g><path d="m6.89095 18.25885-.0031 1.09382-.12483-.07207.0031-1.09382z" fill="#485f69"/></g><g><path d="m7.09908 18.37901-.0031 1.09382-.0937-.05409.0031-1.09383z" fill="#485f69"/></g></g></g></g><g><g><g><g><g enable-background="new"><g><path d="m13.01282 29.35222.01508 5.3175 5.91942 3.43999-.01507-5.31749z" fill="#b0b8bc"/></g><g><path d="m15.31929 30.69566.00328 1.15539.40854.23741.46912.27262-.00328-1.15538z" fill="#40545d"/></g><g><path d="m18.93225 32.79222.01507 5.31749 8.31907-4.80301-.01508-5.3175z" fill="#9aa1a5"/></g><g><path d="m13.01282 29.35222 5.91943 3.44 8.31906-4.80302-5.91942-3.43999z" fill="#cfd8dd"/></g><g><path d="m15.31929 30.69566.87766.51004 8.31907-4.80302-.87766-.51004z" fill="#485f69"/></g></g></g><g><g><path d="m24.99615 33.24297c-.00845.04315-.01356.08604-.01345.12479.00043.15178.05883.27176.17799.33419.05481.02796.08593.0926.08618.17939l-.08173.04719c-.0133.00768-.02562.02737-.02557.04485.00005.01694.01244.02234.02574.01466l.21667-.1251c.01473-.0085.02705-.02817.027-.04511-.00005-.01748-.01244-.0229-.02717-.0144l-.08173.04718c-.00025-.08845.03183-.18954.08582-.28033.14779-.24774.20187-.47802.16284-.64636z" fill="#56707b"/></g><g><path d="m24.56422 34.49259-1.00638.58103-.00328-1.15641 1.00638-.58103zm-.95807.49736.90897-.5248-.00296-1.04449-.90897.5248z" fill="#56707b"/></g><g><path d="m24.05526 33.75664c-.0095.00549-.01755.01999-.01752.03092l.00004.01309c-.1696.1094-.30557.32682-.35106.56635.01131-.03988.03549-.07298.06162-.0886.02756-.01591.0509-.01025.06286.0129.01227-.03714.03407-.06943.06163-.08587.02756-.01591.04994-.0097.06191.01401.01227-.0377.03502-.07054.06258-.08645.01815-.01051.03226-.01154.0433-.00367l.0035.39503c.00069.07692.056.10875.12402.06948.06834-.03999.12375-.13708.12306-.21432l-.0006-.04342c-.00003-.012-.00862-.01689-.01907-.01086-.0095.00605-.01803.02026-.01752.03254l.00012.04366c.00063.05379-.0382.1216-.08572.1496-.04752.02744-.08661.00538-.08723-.04865l-.0035-.395c.01136-.02134.02702-.0375.04318-.04683.02773-.01601.05058-.01019.06238.01321.01274-.03798.03549-.07079.0621-.08615.02708-.01564.05042-.00998.06239.01537.01131-.03934.03454-.07189.06162-.08806.02756-.01591.0509-.01025.06287.01566-.04907-.18497-.18868-.24162-.35738-.15134l-.00004-.01365c-.0005-.01062-.00861-.01526-.01954-.00895z" fill="#56707b"/></g><g><path d="m26.17765 33.327.0002.06772.61865-.35718-.00019-.06771z" fill="#56707b"/></g><g><path d="m26.17728 33.19542.00019.06769.61866-.35718-.0002-.06768-.09598.05541-.07887.04554-.26847.155-.07887.04553z" fill="#56707b"/></g><g><path d="m26.31141 32.49236-.14993.33427.11119-.06419.00107.37729.07887-.04553-.00107-.3773.11024-.06364z" fill="#56707b"/></g><g><path d="m26.99083 33.09158-1.0059.58076-.00328-1.1564 1.0059-.58076zm-.95759.49709.90897-.52479-.00296-1.04449-.90897.5248z" fill="#56707b"/></g><g><path d="m26.65874 32.29182-.14992.33428.11119-.0642.00107.3773.07887-.04554-.00107-.37729.11024-.06365z" fill="#56707b"/></g><g><path d="m25.77776 33.79195-1.00638.58103-.00328-1.15641 1.00638-.58103zm-.95807.49736.90897-.5248-.00296-1.04449-.90897.52479z" fill="#56707b"/></g></g></g><g><g><path d="m13.33888 33.44599-.0031 1.09382-.09453-.05457.0031-1.09383z" fill="#485f69"/></g><g><path d="m13.54701 33.56615-.0031 1.09382-.0937-.05409.0031-1.09383z" fill="#485f69"/></g><g><path d="m13.75513 33.68631-.0031 1.09383-.0937-.0541.00311-1.09382z" fill="#485f69"/></g><g><path d="m13.96409 33.80695-.0031 1.09383-.03559-.02055.0031-1.09383z" fill="#485f69"/></g><g><path d="m13.86241 33.75018-.0031 1.09382-.0356-.02055.0031-1.09382z" fill="#485f69"/></g><g><path d="m14.11541 33.89432-.0031 1.09382-.03689-.0213.0031-1.09382z" fill="#485f69"/></g><g><path d="m14.32354 34.01448-.0031 1.09382-.15598-.09005.0031-1.09382z" fill="#485f69"/></g><g><path d="m14.5325 34.13512-.00311 1.09383-.09452-.05458.0031-1.09382z" fill="#485f69"/></g><g><path d="m14.74062 34.25529-.0031 1.09382-.09453-.05458.0031-1.09382z" fill="#485f69"/></g><g><path d="m14.94875 34.37545-.0031 1.09382-.12484-.07208.0031-1.09381z" fill="#485f69"/></g><g><path d="m15.15688 34.49561-.00311 1.09382-.09369-.05409.0031-1.09383z" fill="#485f69"/></g></g></g><g><g><g><g enable-background="new"><g><path d="m13.01282 23.53489.01508 5.3175 5.91942 3.44-.01507-5.3175z" fill="#b0b8bc"/></g><g><path d="m15.31929 24.87833.00328 1.15538.40854.23742.46912.27262-.00328-1.15539z" fill="#40545d"/></g><g><path d="m18.93225 26.97489.01507 5.3175 8.31907-4.80302-.01508-5.3175z" fill="#9aa1a5"/></g><g><path d="m13.01282 23.53489 5.91943 3.44 8.31906-4.80302-5.91942-3.43999z" fill="#cfd8dd"/></g><g><path d="m15.31929 24.87833.87766.51003 8.31907-4.80301-.87766-.51004z" fill="#485f69"/></g></g></g><g><g><path d="m24.99615 27.42564c-.00845.04315-.01356.08604-.01345.12478.00043.15178.05883.27176.17799.33419.05481.02796.08593.0926.08618.17939l-.08173.04719c-.0133.00768-.02562.02737-.02557.04485.00005.01694.01244.02234.02574.01466l.21667-.1251c.01473-.0085.02705-.02817.027-.04511-.00005-.01748-.01244-.02291-.02717-.0144l-.08173.04718c-.00025-.08845.03183-.18954.08582-.28032.14779-.24774.20187-.47802.16284-.64636z" fill="#56707b"/></g><g><path d="m24.56422 28.67526-1.00638.58103-.00328-1.1564 1.00638-.58103zm-.95807.49736.90897-.5248-.00296-1.04449-.90897.5248z" fill="#56707b"/></g><g><path d="m24.05526 27.93931c-.0095.00549-.01755.01999-.01752.03091l.00004.01309c-.1696.1094-.30557.32682-.35106.56635.01131-.03988.03549-.07298.06162-.0886.02756-.01591.0509-.01025.06286.0129.01227-.03714.03407-.06943.06163-.08587.02756-.01591.04994-.0097.06191.01401.01227-.0377.03502-.07054.06258-.08645.01815-.01051.03226-.01154.0433-.00367l.0035.39503c.00069.07692.056.10875.12402.06948.06834-.03999.12375-.13708.12306-.21432l-.0006-.04342c-.00003-.012-.00862-.01689-.01907-.01086-.0095.00605-.01803.02026-.01752.03255l.00012.04366c.00063.05379-.0382.1216-.08572.1496-.04752.02743-.08661.00538-.08723-.04865l-.0035-.395c.01136-.02134.02702-.0375.04318-.04683.02773-.01601.05058-.01019.06238.0132.01274-.03798.03549-.07078.0621-.08615.02708-.01564.05042-.00997.06239.01537.01131-.03934.03454-.07189.06162-.08806.02756-.01591.0509-.01025.06287.01566-.04907-.18497-.18868-.24162-.35738-.15134l-.00004-.01365c-.0005-.01061-.00861-.01525-.01954-.00894z" fill="#56707b"/></g><g><path d="m26.17765 27.50967.0002.06772.61865-.35718-.00019-.06772z" fill="#56707b"/></g><g><path d="m26.17728 27.37809.00019.06769.61866-.35718-.0002-.06769-.09598.05542-.07887.04554-.26847.15499-.07887.04554z" fill="#56707b"/></g><g><path d="m26.31141 26.67503-.14993.33427.11119-.06419.00107.37729.07887-.04554-.00107-.37729.11024-.06364z" fill="#56707b"/></g><g><path d="m26.99083 27.27425-1.0059.58076-.00328-1.1564 1.0059-.58076zm-.95759.49709.90897-.5248-.00296-1.04449-.90897.52479z" fill="#56707b"/></g><g><path d="m26.65874 26.47449-.14992.33428.11119-.0642.00107.3773.07887-.04554-.00107-.37729.11024-.06365z" fill="#56707b"/></g><g><path d="m25.77776 27.97462-1.00638.58103-.00328-1.1564 1.00638-.58103zm-.95807.49736.90897-.52479-.00296-1.04449-.90897.5248z" fill="#56707b"/></g></g></g><g><g><path d="m13.33888 27.62866-.0031 1.09382-.09453-.05458.0031-1.09382z" fill="#485f69"/></g><g><path d="m13.54701 27.74882-.0031 1.09382-.0937-.05409.0031-1.09382z" fill="#485f69"/></g><g><path d="m13.75513 27.86898-.0031 1.09382-.0937-.05409.00311-1.09382z" fill="#485f69"/></g><g><path d="m13.96409 27.98962-.0031 1.09382-.03559-.02055.0031-1.09382z" fill="#485f69"/></g><g><path d="m13.86241 27.93285-.0031 1.09382-.0356-.02055.0031-1.09382z" fill="#485f69"/></g><g><path d="m14.11541 28.07699-.0031 1.09382-.03689-.0213.0031-1.09382z" fill="#485f69"/></g><g><path d="m14.32354 28.19715-.0031 1.09382-.15598-.09005.0031-1.09382z" fill="#485f69"/></g><g><path d="m14.5325 28.31779-.00311 1.09383-.09452-.05458.0031-1.09382z" fill="#485f69"/></g><g><path d="m14.74062 28.43796-.0031 1.09382-.09453-.05458.0031-1.09382z" fill="#485f69"/></g><g><path d="m14.94875 28.55812-.0031 1.09382-.12484-.07208.0031-1.09382z" fill="#485f69"/></g><g><path d="m15.15688 28.67828-.00311 1.09382-.09369-.0541.0031-1.09382z" fill="#485f69"/></g></g></g><g><g><g><g enable-background="new"><g><path d="m13.01282 17.71756.01508 5.3175 5.91942 3.43999-.01507-5.3175z" fill="#b0b8bc"/></g><g><path d="m15.31929 19.061.00328 1.15538.40854.23742.46912.27262-.00328-1.15539z" fill="#40545d"/></g><g><path d="m18.93225 21.15755.01507 5.3175 8.31907-4.80301-.01508-5.3175z" fill="#9aa1a5"/></g><g><path d="m13.01282 17.71756 5.91943 3.43999 8.31906-4.80301-5.91942-3.43999z" fill="#cfd8dd"/></g><g><path d="m15.31929 19.061.87766.51003 8.31907-4.80301-.87766-.51004z" fill="#485f69"/></g></g></g><g><g><path d="m24.99615 21.6083c-.00845.04315-.01356.08604-.01345.12478.00043.15178.05883.27176.17799.33419.05481.02796.08593.0926.08618.17939l-.08173.04719c-.0133.00768-.02562.02737-.02557.04485.00005.01694.01244.02234.02574.01466l.21667-.12509c.01473-.0085.02705-.02817.027-.04511-.00005-.01748-.01244-.02291-.02717-.0144l-.08173.04719c-.00025-.08845.03183-.18954.08582-.28033.14779-.24774.20187-.47802.16284-.64636z" fill="#56707b"/></g><g><path d="m24.56422 22.85793-1.00638.58103-.00328-1.1564 1.00638-.58103zm-.95807.49736.90897-.5248-.00296-1.04449-.90897.5248z" fill="#56707b"/></g><g><path d="m24.05526 22.12198c-.0095.00549-.01755.01999-.01752.03092l.00004.01309c-.1696.1094-.30557.32682-.35106.56635.01131-.03988.03549-.07298.06162-.0886.02756-.01591.0509-.01025.06286.0129.01227-.03714.03407-.06943.06163-.08587.02756-.01591.04994-.0097.06191.01401.01227-.0377.03502-.07054.06258-.08645.01815-.01051.03226-.01154.0433-.00367l.0035.39503c.00069.07692.056.10875.12402.06948.06834-.03999.12375-.13708.12306-.21432l-.0006-.04342c-.00003-.012-.00862-.01689-.01907-.01086-.0095.00605-.01803.02026-.01752.03255l.00012.04366c.00063.05379-.0382.1216-.08572.1496-.04752.02743-.08661.00538-.08723-.04865l-.0035-.395c.01136-.02134.02702-.0375.04318-.04683.02773-.01601.05058-.01019.06238.01321.01274-.03798.03549-.07079.0621-.08615.02708-.01564.05042-.00997.06239.01537.01131-.03934.03454-.07189.06162-.08806.02756-.01591.0509-.01025.06287.01566-.04907-.18497-.18868-.24162-.35738-.15134l-.00004-.01365c-.0005-.01063-.00861-.01527-.01954-.00896z" fill="#56707b"/></g><g><path d="m26.17765 21.69234.0002.06772.61865-.35718-.00019-.06772z" fill="#56707b"/></g><g><path d="m26.17728 21.56076.00019.06769.61866-.35718-.0002-.06769-.09598.05542-.07887.04554-.26847.15499-.07887.04554z" fill="#56707b"/></g><g><path d="m26.31141 20.8577-.14993.33427.11119-.06419.00107.37729.07887-.04554-.00107-.37729.11024-.06365z" fill="#56707b"/></g><g><path d="m26.99083 21.45692-1.0059.58076-.00328-1.1564 1.0059-.58076zm-.95759.49709.90897-.52479-.00296-1.04449-.90897.5248z" fill="#56707b"/></g><g><path d="m26.65874 20.65716-.14992.33428.11119-.0642.00107.3773.07887-.04554-.00107-.3773.11024-.06364z" fill="#56707b"/></g><g><path d="m25.77776 22.15729-1.00638.58103-.00328-1.1564 1.00638-.58103zm-.95807.49736.90897-.5248-.00296-1.04449-.90897.52479z" fill="#56707b"/></g></g></g><g><g><path d="m13.33888 21.81133-.0031 1.09382-.09453-.05458.0031-1.09382z" fill="#485f69"/></g><g><path d="m13.54701 21.93149-.0031 1.09382-.0937-.0541.0031-1.09382z" fill="#485f69"/></g><g><path d="m13.75513 22.05165-.0031 1.09382-.0937-.05409.00311-1.09383z" fill="#485f69"/></g><g><path d="m13.96409 22.17229-.0031 1.09382-.03559-.02055.0031-1.09382z" fill="#485f69"/></g><g><path d="m13.86241 22.11552-.0031 1.09382-.0356-.02055.0031-1.09382z" fill="#485f69"/></g><g><path d="m14.11541 22.25966-.0031 1.09382-.03689-.0213.0031-1.09382z" fill="#485f69"/></g><g><path d="m14.32354 22.37982-.0031 1.09382-.15598-.09005.0031-1.09382z" fill="#485f69"/></g><g><path d="m14.5325 22.50046-.00311 1.09382-.09452-.05457.0031-1.09382z" fill="#485f69"/></g><g><path d="m14.74062 22.62062-.0031 1.09383-.09453-.05458.0031-1.09382z" fill="#485f69"/></g><g><path d="m14.94875 22.74079-.0031 1.09382-.12484-.07208.0031-1.09382z" fill="#485f69"/></g><g><path d="m15.15688 22.86095-.00311 1.09382-.09369-.0541.0031-1.09382z" fill="#485f69"/></g></g></g></g><g><g><g><g><g enable-background="new"><g><path d="m21.07062 33.83416.01507 5.3175 5.91942 3.43999-.01507-5.3175z" fill="#b0b8bc"/></g><g><path d="m23.37709 35.17759.00327 1.15539.40854.23742.46912.27262-.00328-1.15539z" fill="#40545d"/></g><g><path d="m26.99004 37.27415.01507 5.3175 8.31907-4.80301-.01508-5.3175z" fill="#9aa1a5"/></g><g><path d="m21.07062 33.83416 5.91942 3.43999 8.31906-4.80301-5.91942-3.43999z" fill="#cfd8dd"/></g><g><path d="m23.37709 35.17759.87765.51004 8.31907-4.80301-.87766-.51004z" fill="#485f69"/></g></g></g><g><g><path d="m33.05395 37.7249c-.00845.04315-.01356.08604-.01345.12479.00043.15178.05883.27176.17799.33419.05481.02797.08593.0926.08618.17939l-.08173.04719c-.01331.00768-.02562.02737-.02557.04485.00005.01694.01244.02234.02574.01466l.21667-.1251c.01473-.0085.02705-.02817.027-.04511-.00005-.01748-.01244-.02291-.02717-.0144l-.08173.04718c-.00025-.08845.03183-.18954.08582-.28033.14779-.24774.20187-.47802.16284-.64636z" fill="#56707b"/></g><g><path d="m32.62201 38.97453-1.00638.58104-.00328-1.15641 1.00638-.58103zm-.95807.49736.90897-.5248-.00296-1.04449-.90897.5248z" fill="#56707b"/></g><g><path d="m32.11306 38.23857c-.0095.00549-.01755.01999-.01752.03091l.00004.0131c-.1696.1094-.30558.32682-.35106.56635.01131-.03988.03549-.07298.06162-.0886.02756-.01591.0509-.01025.06286.0129.01227-.03714.03407-.06943.06163-.08587.02756-.01591.04995-.0097.06191.01401.01227-.0377.03502-.07054.06258-.08645.01815-.01051.03226-.01154.0433-.00367l.0035.39503c.00069.07692.056.10875.12402.06948.06834-.03999.12375-.13708.12305-.21432l-.0006-.04342c-.00003-.012-.00861-.01689-.01907-.01086-.0095.00605-.01803.02026-.01752.03254l.00012.04366c.00063.05378-.0382.1216-.08572.1496-.04752.02744-.08661.00538-.08723-.04865l-.0035-.395c.01136-.02134.02702-.0375.04318-.04683.02773-.01601.05058-.01019.06238.0132.01274-.03798.0355-.07078.0621-.08614.02708-.01564.05042-.00998.06239.01537.01131-.03934.03454-.07189.06162-.08806.02756-.01591.0509-.01025.06287.01566-.04907-.18497-.18868-.24162-.35738-.15134l-.00004-.01365c-.0005-.01062-.0086-.01525-.01953-.00895z" fill="#56707b"/></g><g><path d="m34.23545 37.80894.00019.06772.61865-.35718-.00019-.06772z" fill="#56707b"/></g><g><path d="m34.23508 37.67736.00019.06768.61865-.35717-.00019-.06769-.09598.05542-.07888.04553-.26846.155-.07888.04554z" fill="#56707b"/></g><g><path d="m34.3692 36.9743-.14992.33427.11118-.06419.00107.37729.07888-.04554-.00107-.37729.11023-.06365z" fill="#56707b"/></g><g><path d="m35.04863 37.57352-1.0059.58076-.00328-1.1564 1.00591-.58076zm-.9576.49709.90897-.5248-.00296-1.04449-.90897.52479z" fill="#56707b"/></g><g><path d="m34.71654 36.77376-.14992.33428.11118-.0642.00107.37729.07888-.04553-.00107-.3773.11023-.06364z" fill="#56707b"/></g><g><path d="m33.83556 38.27389-1.00638.58103-.00328-1.15641 1.00638-.58103zm-.95807.49736.90897-.5248-.00296-1.04449-.90897.5248z" fill="#56707b"/></g></g></g><g><g><path d="m21.39667 37.92793-.0031 1.09382-.09452-.05458.0031-1.09382z" fill="#485f69"/></g><g><path d="m21.6048 38.04809-.0031 1.09382-.0937-.0541.0031-1.09382z" fill="#485f69"/></g><g><path d="m21.81293 38.16825-.0031 1.09382-.0937-.0541.0031-1.09382z" fill="#485f69"/></g><g><path d="m22.02188 38.28889-.0031 1.09382-.03559-.02055.0031-1.09382z" fill="#485f69"/></g><g><path d="m21.9202 38.23212-.0031 1.09382-.03559-.02055.0031-1.09382z" fill="#485f69"/></g><g><path d="m22.17321 38.37626-.00311 1.09382-.03689-.0213.0031-1.09382z" fill="#485f69"/></g><g><path d="m22.38133 38.49642-.0031 1.09382-.15597-.09005.0031-1.09382z" fill="#485f69"/></g><g><path d="m22.59029 38.61706-.0031 1.09382-.09453-.05457.0031-1.09383z" fill="#485f69"/></g><g><path d="m22.79842 38.73722-.00311 1.09382-.09452-.05457.0031-1.09382z" fill="#485f69"/></g><g><path d="m23.00654 38.85738-.0031 1.09383-.12484-.07208.00311-1.09382z" fill="#485f69"/></g><g><path d="m23.21467 38.97755-.0031 1.09382-.0937-.0541.0031-1.09382z" fill="#485f69"/></g></g></g><g><g><g><g enable-background="new"><g><path d="m21.07062 28.01683.01507 5.3175 5.91942 3.43999-.01507-5.3175z" fill="#b0b8bc"/></g><g><path d="m23.37709 29.36026.00327 1.15539.40854.23742.46912.27262-.00328-1.15539z" fill="#40545d"/></g><g><path d="m26.99004 31.45682.01507 5.3175 8.31907-4.80301-.01508-5.3175z" fill="#9aa1a5"/></g><g><path d="m21.07062 28.01683 5.91942 3.43999 8.31906-4.80301-5.91942-3.44z" fill="#cfd8dd"/></g><g><path d="m23.37709 29.36026.87765.51004 8.31907-4.80301-.87766-.51004z" fill="#485f69"/></g></g></g><g><g><path d="m33.05395 31.90757c-.00845.04315-.01356.08604-.01345.12478.00043.15178.05883.27176.17799.33419.05481.02796.08593.0926.08618.17939l-.08173.04718c-.01331.00768-.02562.02737-.02557.04485.00005.01694.01244.02234.02574.01466l.21667-.12509c.01473-.00851.02705-.02817.027-.04511-.00005-.01748-.01244-.0229-.02717-.0144l-.08173.04719c-.00025-.08845.03183-.18954.08582-.28033.14779-.24774.20187-.47802.16284-.64636z" fill="#56707b"/></g><g><path d="m32.62201 33.1572-1.00638.58103-.00328-1.1564 1.00638-.58104zm-.95807.49736.90897-.5248-.00296-1.04449-.90897.5248z" fill="#56707b"/></g><g><path d="m32.11306 32.42125c-.0095.00549-.01755.01999-.01752.03091l.00004.01309c-.1696.1094-.30558.32682-.35106.56635.01131-.03988.03549-.07298.06162-.0886.02756-.01591.0509-.01025.06286.0129.01227-.03714.03407-.06943.06163-.08587.02756-.01591.04995-.0097.06191.01402.01227-.0377.03502-.07054.06258-.08645.01815-.01051.03226-.01154.0433-.00367l.0035.39503c.00069.07692.056.10875.12402.06948.06834-.03999.12375-.13708.12305-.21432l-.0006-.04342c-.00003-.012-.00861-.0169-.01907-.01086-.0095.00605-.01803.02026-.01752.03255l.00012.04366c.00063.05379-.0382.1216-.08572.1496-.04752.02743-.08661.00538-.08723-.04865l-.0035-.395c.01136-.02134.02702-.0375.04318-.04683.02773-.01601.05058-.01019.06238.01321.01274-.03798.0355-.07079.0621-.08615.02708-.01564.05042-.00997.06239.01537.01131-.03934.03454-.0719.06162-.08807.02756-.01591.0509-.01025.06287.01566-.04907-.18497-.18868-.24162-.35738-.15134l-.00003-.01365c-.00051-.01063-.00861-.01526-.01954-.00895z" fill="#56707b"/></g><g><path d="m34.23545 31.99161.00019.06771.61865-.35718-.00019-.06771z" fill="#56707b"/></g><g><path d="m34.23508 31.86003.00019.06769.61865-.35718-.00019-.06769-.09598.05541-.07888.04554-.26846.155-.07888.04554z" fill="#56707b"/></g><g><path d="m34.3692 31.15697-.14992.33427.11118-.06419.00107.37729.07888-.04554-.00107-.37729.11023-.06365z" fill="#56707b"/></g><g><path d="m35.04863 31.75619-1.0059.58076-.00328-1.1564 1.00591-.58076zm-.9576.49709.90897-.5248-.00296-1.04449-.90897.52479z" fill="#56707b"/></g><g><path d="m34.71654 30.95643-.14992.33427.11118-.06419.00107.37729.07888-.04554-.00107-.37729.11023-.06364z" fill="#56707b"/></g><g><path d="m33.83556 32.45655-1.00638.58103-.00328-1.1564 1.00638-.58103zm-.95807.49737.90897-.5248-.00296-1.04449-.90897.5248z" fill="#56707b"/></g></g></g><g><g><path d="m21.39667 32.1106-.0031 1.09382-.09452-.05458.0031-1.09382z" fill="#485f69"/></g><g><path d="m21.6048 32.23076-.0031 1.09382-.0937-.0541.0031-1.09382z" fill="#485f69"/></g><g><path d="m21.81293 32.35092-.0031 1.09382-.0937-.0541.0031-1.09382z" fill="#485f69"/></g><g><path d="m22.02188 32.47156-.0031 1.09382-.03559-.02055.0031-1.09382z" fill="#485f69"/></g><g><path d="m21.9202 32.41479-.0031 1.09382-.03559-.02055.0031-1.09382z" fill="#485f69"/></g><g><path d="m22.17321 32.55893-.00311 1.09382-.03689-.0213.0031-1.09383z" fill="#485f69"/></g><g><path d="m22.38133 32.67909-.0031 1.09382-.15597-.09005.0031-1.09382z" fill="#485f69"/></g><g><path d="m22.59029 32.79973-.0031 1.09382-.09453-.05458.0031-1.09381z" fill="#485f69"/></g><g><path d="m22.79842 32.91989-.00311 1.09382-.09452-.05457.0031-1.09382z" fill="#485f69"/></g><g><path d="m23.00654 33.04005-.0031 1.09383-.12484-.07208.00311-1.09382z" fill="#485f69"/></g><g><path d="m23.21467 33.16022-.0031 1.09382-.0937-.0541.0031-1.09382z" fill="#485f69"/></g></g></g><g><g><g><g enable-background="new"><g><path d="m21.07062 22.1995.01507 5.3175 5.91942 3.43999-.01507-5.3175z" fill="#b0b8bc"/></g><g><path d="m23.37709 23.54293.00327 1.15539.40854.23742.46912.27262-.00328-1.15539z" fill="#40545d"/></g><g><path d="m26.99004 25.63949.01507 5.3175 8.31907-4.80302-.01508-5.31749z" fill="#9aa1a5"/></g><g><path d="m21.07062 22.1995 5.91942 3.43999 8.31906-4.80301-5.91942-3.44z" fill="#cfd8dd"/></g><g><path d="m23.37709 23.54293.87765.51004 8.31907-4.80301-.87766-.51004z" fill="#485f69"/></g></g></g><g><g><path d="m33.05395 26.09024c-.00845.04315-.01356.08604-.01345.12478.00043.15178.05883.27176.17799.33419.05481.02796.08593.0926.08618.17939l-.08173.04719c-.01331.00768-.02562.02737-.02557.04485.00005.01694.01244.02234.02574.01466l.21667-.1251c.01473-.0085.02705-.02817.027-.04511-.00005-.01748-.01244-.0229-.02717-.0144l-.08173.04718c-.00025-.08845.03183-.18954.08582-.28032.14779-.24774.20187-.47802.16284-.64636z" fill="#56707b"/></g><g><path d="m32.62201 27.33986-1.00638.58103-.00328-1.1564 1.00638-.58103zm-.95807.49737.90897-.5248-.00296-1.04449-.90897.5248z" fill="#56707b"/></g><g><path d="m32.11306 26.60391c-.0095.00549-.01755.01999-.01752.03091l.00004.01309c-.1696.1094-.30558.32682-.35106.56635.01131-.03988.03549-.07298.06162-.0886.02756-.01591.0509-.01025.06286.0129.01227-.03714.03407-.06943.06163-.08587.02756-.01591.04995-.0097.06191.01401.01227-.0377.03502-.07054.06258-.08645.01815-.01051.03226-.01154.0433-.00367l.0035.39503c.00069.07692.056.10875.12402.06948.06834-.03999.12375-.13708.12305-.21432l-.0006-.04342c-.00003-.012-.00861-.01689-.01907-.01086-.0095.00605-.01803.02026-.01752.03254l.00012.04366c.00063.05379-.0382.1216-.08572.1496-.04752.02744-.08661.00538-.08723-.04865l-.0035-.395c.01136-.02134.02702-.0375.04318-.04683.02773-.01601.05058-.01019.06238.0132.01274-.03798.0355-.07078.0621-.08615.02708-.01564.05042-.00997.06239.01537.01131-.03935.03454-.07189.06162-.08806.02756-.01591.0509-.01025.06287.01566-.04907-.18497-.18868-.24162-.35738-.15134l-.00004-.01365c-.0005-.0106-.0086-.01524-.01953-.00893z" fill="#56707b"/></g><g><path d="m34.23545 26.17428.00019.06771.61865-.35717-.00019-.06772z" fill="#56707b"/></g><g><path d="m34.23508 26.0427.00019.06768.61865-.35718-.00019-.06768-.09598.05541-.07888.04554-.26846.155-.07888.04554z" fill="#56707b"/></g><g><path d="m34.3692 25.33963-.14992.33428.11118-.0642.00107.3773.07888-.04554-.00107-.37729.11023-.06365z" fill="#56707b"/></g><g><path d="m35.04863 25.93886-1.0059.58076-.00328-1.1564 1.00591-.58076zm-.9576.49709.90897-.5248-.00296-1.04449-.90897.52479z" fill="#56707b"/></g><g><path d="m34.71654 25.1391-.14992.33427.11118-.06419.00107.37729.07888-.04554-.00107-.37729.11023-.06364z" fill="#56707b"/></g><g><path d="m33.83556 26.63923-1.00638.58103-.00328-1.1564 1.00638-.58103zm-.95807.49736.90897-.52479-.00296-1.0445-.90897.5248z" fill="#56707b"/></g></g></g><g><g><path d="m21.39667 26.29326-.0031 1.09383-.09452-.05458.0031-1.09382z" fill="#485f69"/></g><g><path d="m21.6048 26.41343-.0031 1.09382-.0937-.0541.0031-1.09382z" fill="#485f69"/></g><g><path d="m21.81293 26.53359-.0031 1.09382-.0937-.0541.0031-1.09382z" fill="#485f69"/></g><g><path d="m22.02188 26.65423-.0031 1.09382-.03559-.02055.0031-1.09382z" fill="#485f69"/></g><g><path d="m21.9202 26.59746-.0031 1.09382-.03559-.02055.0031-1.09382z" fill="#485f69"/></g><g><path d="m22.17321 26.7416-.00311 1.09382-.03689-.0213.0031-1.09383z" fill="#485f69"/></g><g><path d="m22.38133 26.86176-.0031 1.09382-.15597-.09005.0031-1.09382z" fill="#485f69"/></g><g><path d="m22.59029 26.9824-.0031 1.09382-.09453-.05458.0031-1.09382z" fill="#485f69"/></g><g><path d="m22.79842 27.10256-.00311 1.09382-.09452-.05457.0031-1.09382z" fill="#485f69"/></g><g><path d="m23.00654 27.22272-.0031 1.09383-.12484-.07208.00311-1.09382z" fill="#485f69"/></g><g><path d="m23.21467 27.34289-.0031 1.09382-.0937-.0541.0031-1.09382z" fill="#485f69"/></g></g></g></g></g></g></svg>