<svg id="Layer_1" enable-background="new 0 0 50 50" height="512" viewBox="0 0 50 50" width="512" xmlns="http://www.w3.org/2000/svg"><g><g><g><g><g><g enable-background="new"><g><path d="m20.99701 25.40492.02699 7.79844 9.2409 5.37022-.02698-7.79844z" fill="#fed44c"/></g><g><path d="m45.13552 22.17301-5.26583 3.04191-.02653-2.31461-6.3222-3.6733 3.28055-1.89497z" fill="#fee182"/></g></g></g><g><g enable-background="new"><g fill="#fed44c"><path d="m39.86969 25.21492-9.62926 5.55764-9.24474-5.36505 10.54528-5.03382v-.00545l1.97999-1.14123 6.3222 3.6733z"/><path d="m33.52096 19.22701-1.97999 1.14123-.02653-2.30916z"/></g><g><path d="m31.51226 18.05938 8.33017 4.84096 5.26439-3.0394-8.33017-4.84096z" fill="#fee182"/><path d="m32.48925 18.21969 4.53794-2.62052 7.28851 4.23567-4.53794 2.62052z" fill="#fed44c"/></g></g></g></g></g><g><g enable-background="new"><g><path d="m35.36061 13.64153-9.20129-5.40018 4.6382-2.67786 9.20129 5.40017z" fill="#778c95"/></g><g><path d="m30.17479 22.626.02258 8.17734-9.20035-5.39842-.02507-8.17991c-.00753-3.30253 2.31454-7.32477 5.18826-8.98472l9.20034 5.40086c-2.87373 1.66008-5.19579 5.6822-5.18576 8.98485z" fill="#56707b"/><path d="m21.79148 24.94808-.02333-7.72554c-.00622-2.89326 1.9367-6.39938 4.40423-8.05187l7.70533 4.52333c-2.60387 2.0707-4.50843 5.751-4.4991 8.9343l.01866 6.78234z" fill="#4bb5e7"/></g><g><path d="m39.99881 10.96366.02934 10.34837c.00597 2.10461-1.47335 4.66685-3.30494 5.72432l-6.52582 3.76768-.02319-8.17929c-.00936-3.30234 2.31256-7.324 5.18641-8.98322z" fill="#485f69"/><path d="m39.23375 21.31543c0 1.36986-.75602 3.02406-1.8189 4.13917-.33685.35964-.70361.66629-1.09282.89106l-.81591.47148-1.90123 1.10012-2.61238 1.51203-.02243-6.23489v-.56907c0-.94333.20212-1.95354.56139-2.94914.32186-.86073.76351-1.70684 1.28744-2.47765.80841-1.19771 1.83389-2.22328 2.94173-2.8669l.6063-.3516 2.83689-1.63922.02243 6.78129z" fill="#4bb5e7"/></g></g></g><g><path d="m45.16208 29.97631-7.72888 4.45892-5.31893 3.07352-1.84727 1.0671-.02657-7.8033 7.60951-4.39267c1.24191-.71691 2.00304-2.04563 1.99321-3.47957l5.26582-3.04165.01594 2.31979.01059-.00544z" fill="#d8b441"/></g><g><path d="m30.23792 31.79176.02698 2.30858 14.89539-8.59986-.02699-2.30858z" fill="#be9e39"/></g><g><g><g enable-background="new"><g><path d="m18.49203 33.72691-.00283.9961-1.69689-.97969.00283-.99611z" fill="#485f69"/></g><g><path d="m20.30207 34.77194-.00283.9961-1.81004-1.04503.00283-.9961z" fill="#2e3d42"/></g><g><path d="m27.66699 39.02408-.00283.9961-7.36492-4.25214.00283-.9961z" fill="#485f69"/></g><g><path d="m29.47703 40.06911-.00283.9961-1.81004-1.04503.00283-.9961z" fill="#2e3d42"/></g><g><path d="m32.93719 40.02411-.00283.9961-1.76326 1.0247.00282-.9961z" fill="#40545d"/></g><g><path d="m32.93719 40.02411-1.76327 1.0247-1.69689-.9797-1.81004-1.04503-7.36492-4.25214-1.81004-1.04503-1.69689-.9797 1.76326-1.0247z" fill="#56707b"/></g><g><path d="m31.17392 41.04881-.00282.9961-1.6969-.9797.00283-.9961z" fill="#485f69"/></g></g></g><g><g><g enable-background="new"><g><path d="m20.64946 10.99664-.00272 22.69727c-.00029.1042-.0688.20824-.20566.28778-.27548.16009-.72327.16008-1.00055 0-.13953-.08056-.20922-.18626-.20893-.29181l.00272-22.69727c-.0003.10554.06939.21124.20893.29181.27728.16009.72507.16009 1.00055 0 .13685-.07954.20536-.18358.20566-.28778z" fill="#9aa1a5"/></g><g><path d="m20.44055 10.70484c.27728.16009.27873.41948.00325.57957s-.72327.16009-1.00055 0-.27876-.41947-.00327-.57956c.27547-.16009.72329-.1601 1.00057-.00001z" fill="#dde4e7"/></g></g></g></g><g><g><g enable-background="new"><g><path d="m21.86888 1.41164-.00272 19.53601c-.00029.1042-.0688.20824-.20566.28778-.27548.16009-.72327.16009-1.00055 0-.13953-.08056-.20922-.18626-.20893-.29181l.00272-19.53601c-.0003.10554.06939.21125.20893.29181.27728.16009.72507.16009 1.00055 0 .13686-.07953.20537-.18358.20566-.28778z" fill="#b0b8bc"/></g><g><g enable-background="new"><g><path d="m28.60194 6.31187c-.05566-.0323-.13229-.02741-.21699.02178-.16859.09678-.30411.33231-.30411.52594.00081.09599.03469.16373.08874.1952l-6.82194-3.99259c-.05485-.03226-.08873-.09922-.08873-.19599-.00081-.19359.13471-.42834.3033-.52594.0847-.04841.16133-.05325.21699-.02099z" fill="#778c95"/></g><g><path d="m28.38458 6.3333c-.16841.09723-.30393.33258-.30339.52609.00055.19351.13696.27124.30537.17401s.30445-.33226.3039-.52578-.13746-.27155-.30588-.17432z" fill="#b0b8bc"/></g></g></g><g><path d="m21.65997 1.11985c.27728.16009.27873.41948.00325.57957s-.72327.16009-1.00055 0-.27876-.41947-.00327-.57956c.27547-.16009.72329-.1601 1.00057-.00001z" fill="#dde4e7"/></g></g></g></g><g><g enable-background="new"><g><path d="m28.60194 10.30459c-.05566-.0323-.13229-.02741-.21699.02178-.16859.09678-.30411.33231-.30411.52594.00081.09599.03469.16373.08874.1952l-6.82194-3.99259c-.05485-.03226-.08873-.09922-.08873-.19599-.00081-.19359.13471-.42834.3033-.52594.0847-.04841.16133-.05325.21699-.02099z" fill="#56707b"/></g><g><path d="m28.38458 10.32602c-.16841.09723-.30393.33258-.30339.52609.00055.19351.13696.27124.30537.17401s.30445-.33226.3039-.52578c-.00054-.1935-.13746-.27155-.30588-.17432z" fill="#b0b8bc"/></g></g></g><g><g enable-background="new"><g><path d="m28.60194 11.90904c-.05566-.0323-.13229-.02741-.21699.02178-.16859.09678-.30411.33231-.30411.52594.00081.09599.03469.16373.08874.1952l-6.82194-3.99259c-.05485-.03226-.08873-.09922-.08873-.19599-.00081-.19359.13471-.42834.3033-.52594.0847-.04841.16133-.05325.21699-.02099z" fill="#56707b"/></g><g><path d="m28.38458 11.93047c-.16841.09723-.30393.33258-.30339.52609.00055.19351.13696.27124.30537.17401s.30445-.33226.3039-.52578c-.00054-.1935-.13746-.27155-.30588-.17432z" fill="#b0b8bc"/></g></g></g><g><g enable-background="new"><g><path d="m28.60194 13.51349c-.05566-.0323-.13229-.02741-.21699.02178-.16859.09678-.30411.33231-.30411.52594.00081.09599.03469.16373.08874.1952l-6.82194-3.99259c-.05485-.03226-.08873-.09922-.08873-.19599-.00081-.19359.13471-.42834.3033-.52594.0847-.04841.16133-.05325.21699-.02099z" fill="#56707b"/></g><g><path d="m28.38458 13.53492c-.16841.09723-.30393.33258-.30339.52609.00055.19351.13696.27124.30537.17401s.30445-.33226.3039-.52578c-.00054-.19351-.13746-.27155-.30588-.17432z" fill="#b0b8bc"/></g></g></g><g><g enable-background="new"><g><path d="m28.60194 15.11794c-.05566-.0323-.13229-.02741-.21699.02178-.16859.09678-.30411.33231-.30411.52594.00081.09599.03469.16373.08874.19521l-6.82194-3.99259c-.05485-.03226-.08873-.09922-.08873-.19599-.00081-.19359.13471-.42834.3033-.52594.0847-.04841.16133-.05325.21699-.02099z" fill="#56707b"/></g><g><path d="m28.38458 15.13937c-.16841.09723-.30393.33258-.30339.52609.00055.19351.13696.27124.30537.17401s.30445-.33226.3039-.52578-.13746-.27155-.30588-.17432z" fill="#b0b8bc"/></g></g></g><g><g enable-background="new"><g><path d="m28.60194 16.72239c-.05566-.0323-.13229-.02741-.21699.02178-.16859.09678-.30411.33231-.30411.52594.00081.09599.03469.16373.08874.1952l-6.82194-3.99259c-.05485-.03226-.08873-.09922-.08873-.19599-.00081-.19359.13471-.42834.3033-.52594.0847-.04841.16133-.05325.21699-.02099z" fill="#56707b"/></g><g><path d="m28.38458 16.74382c-.16841.09723-.30393.33258-.30339.52609.00055.19351.13696.27124.30537.17401s.30445-.33226.3039-.52578c-.00054-.19351-.13746-.27155-.30588-.17432z" fill="#b0b8bc"/></g></g></g><g><g enable-background="new"><g><path d="m28.60194 18.32684c-.05566-.0323-.13229-.02741-.21699.02178-.16859.09678-.30411.33231-.30411.52594.00081.09599.03469.16373.08874.19521l-6.82194-3.99259c-.05485-.03226-.08873-.09922-.08873-.19599-.00081-.19359.13471-.42834.3033-.52594.0847-.04841.16133-.05325.21699-.02099z" fill="#56707b"/></g><g><path d="m28.38458 18.34827c-.16841.09723-.30393.33258-.30339.52609.00055.19351.13696.27124.30537.17401s.30445-.33227.3039-.52578-.13746-.27155-.30588-.17432z" fill="#b0b8bc"/></g></g></g><g><g><g enable-background="new"><g><path d="m28.82718 4.7046-.00272 19.53601c-.00029.1042-.0688.20824-.20566.28778-.27548.16009-.72327.16009-1.00055 0-.13953-.08056-.20922-.18626-.20893-.29181l.00272-19.53601c-.0003.10554.06939.21125.20893.29181.27728.16009.72507.16009 1.00055 0 .13685-.07954.20536-.18358.20566-.28778z" fill="#b0b8bc"/></g><g><path d="m28.61827 4.4128c.27728.16009.27873.41948.00325.57957s-.72327.16009-1.00055 0-.27876-.41947-.00327-.57956c.27547-.16009.72328-.1601 1.00057-.00001z" fill="#dde4e7"/></g></g></g></g><g><g><g enable-background="new"><g><path d="m29.74314 16.28353-.00272 22.69727c-.0003.1042-.06881.20824-.20567.28778-.27548.16009-.72327.16008-1.00055 0-.13953-.08056-.20922-.18626-.20893-.29181l.00273-22.69727c-.0003.10554.06939.21124.20893.29181.27728.16009.72507.1601 1.00055 0 .13686-.07954.20537-.18358.20566-.28778z" fill="#9aa1a5"/></g><g><path d="m29.53423 15.99173c.27728.16009.27873.41948.00325.57957s-.72327.16009-1.00055 0-.27876-.41947-.00327-.57956c.27547-.16009.72329-.1601 1.00057-.00001z" fill="#dde4e7"/></g></g></g></g><g><g><g><path d="m23.25494 4.16729v3.11341c0 .02393-.01582.04785-.04742.06329-.06324.03975-.17389.03975-.23713 0-.03951-.01544-.05528-.03936-.05528-.06329v-3.31099z" fill="#b0b8bc"/></g></g><g><g><path d="m23.83186 4.50688v3.09797c0 .02393-.01582.05557-.05533.071-.06324.03975-.17385.03975-.23709 0-.0316-.01544-.04742-.04708-.04742-.071v-3.30327z" fill="#b0b8bc"/></g></g><g><g><path d="m24.40086 4.83875v3.09797c0 .02393-.01577.04746-.04742.07139-.0711.03936-.17385.03936-.245 0-.0316-.02393-.04742-.04747-.04742-.07139v-3.30327z" fill="#b0b8bc"/></g></g><g><g><path d="m24.97783 5.17062v3.09797c0 .02393-.02373.04785-.05533.06329-.06324.03975-.17389.03975-.23708 0-.03164-.01544-.05533-.03936-.04742-.071v-3.28784z" fill="#b0b8bc"/></g></g><g><g><path d="m25.54683 5.50249v3.09026c0 .02392-.01577.05557-.04742.071-.0711.03975-.17385.03975-.245 0-.0316-.02354-.04742-.04708-.04742-.071v-3.28784z" fill="#b0b8bc"/></g></g><g><g><path d="m26.12379 5.84246-.00791 3.08215c0 .02393-.01582.04747-.04742.07139-.06324.03164-.17389.03164-.23709 0-.03164-.02393-.05533-.04747-.05533-.07139v-3.28744z" fill="#b0b8bc"/></g></g><g><g><path d="m26.69279 6.17433v3.07443c0 .03164-.01582.05557-.04742.071-.07115.03975-.17385.03975-.245 0-.0316-.01544-.04742-.03936-.04742-.071v-3.27201z" fill="#b0b8bc"/></g></g></g><g><g enable-background="new"><g><path d="m17.65913 20.96114.639-.37134 1.93621-.89746-.639.37135z" fill="#778c95"/></g><g><path d="m19.59534 20.06369.639-.37135 7.95065 4.59031-.639.37135z" fill="#778c95"/></g><g><path d="m29.4737 27.78228.639-.37134-.01602 5.65051-.639.37134z" fill="#40545d"/></g><g><path d="m27.54599 24.654.639-.37135 1.92771 3.12829-.639.37134z" fill="#485f69"/></g><g><path d="m27.54599 24.654 1.92771 3.12828-.01602 5.65051-11.81456-6.82114.01601-5.65051 1.93621-.89745z" fill="#56707b"/></g></g></g><g><g><path d="m20.30207 34.77194-.00283.9961-8.82474 5.12838.00282-.9961z" fill="#40545d"/></g><g><path d="m29.47703 40.06911-.00283.9961-8.82474 5.12838.00282-.9961z" fill="#40545d"/></g><g><g><g><path d="m20.30207 34.77194-8.82475 5.12838-5.52093 2.8062-1.11565-.64413 4.82654-3.20709 8.82475-5.12839z" fill="#56707b"/></g><g><path d="m11.47732 39.90032-.00282.9961-5.52093 2.8062.00282-.9961z" fill="#40545d"/></g><g><path d="m5.95639 42.70652-.00282.9961-1.11565-.64412.00282-.99611z" fill="#485f69"/></g></g><g><g><path d="m20.65228 45.19749-.00282.9961-5.52093 2.8062.00282-.99611z" fill="#40545d"/></g><g><path d="m15.13135 48.00368-.00282.99611-1.11177-.64188.00283-.99611z" fill="#485f69"/></g><g><path d="m29.47703 40.06911-8.82475 5.12838-5.52093 2.80619-1.11176-.64188 4.82265-3.20934 8.82475-5.12838z" fill="#56707b"/></g></g></g></g></g><g fill="#be9e39"><path d="m34.76311 32.82149c-.16456.09564-.32911.2071-.48835.3398 1.26338-.48832 2.22418.21772 2.22418 1.73582 0 .0267 0 .05313-.00531.07957l.93958-.54145c.00528-.03188.00528-.05832.00528-.0902-.00001-1.69331-1.19965-2.3781-2.67538-1.52354z"/><path d="m34.27476 33.16129c-1.23684.97146-2.16579 2.76042-2.16048 4.25727v.0902l4.37935-2.53207c.00531-.02644.00531-.05288.00531-.07957 0-1.5181-.9608-2.22415-2.22418-1.73583z"/></g><g><g><g enable-background="new"><g><path d="m37.30502 33.53188c-.38379-.22352-.91412-.18842-1.5003.15333-1.16533.66986-2.10036 2.29581-2.10036 3.63555.00694.39797.09072.72575.24422.97005.09072.16048.21632.29302.36986.37684l-.50943-.30018-.85131-.49542c-.2512-.13935-.43962-.39081-.53732-.73972.48847-1.32576 1.18976-2.69366 2.23647-3.51685.19648-.16375.56436-.5387 1.41448-.6744.10932-.01745.2252.00679.321.06227z" fill="#364950"/></g><g><path d="m35.80378 33.68135c-1.16442.67228-2.10144 2.29948-2.09764 3.63744s.94695 1.87542 2.11137 1.20314 2.10501-2.29732 2.10122-3.63527c-.00381-1.33797-.95053-1.87759-2.11495-1.20531z" fill="#364950"/></g></g></g><g><g><path d="m35.61787 36.42828c-.04313.0249-.0784.08469-.07825.13549.00014.04956.03564.06981.07877.04491s.07839-.086.07825-.13556c-.00015-.05081-.03565-.06974-.07877-.04484z" fill="#cfd8dd"/></g><g><path d="m37.1329 35.9952c-.20944-.03947-.8507-.03195-.84555-.16729-.04686-.11926.82371-1.08859.86953-1.13961.24752.57615-.0104 1.27036-.02398 1.3069zm-.3548-.13625c.00599-.01638.1198-.32754.02589-.63603-.01701.0186-.34008.372-.4304.5463.00227.00466.04566.09329.40451.08973" fill="#cfd8dd"/></g><g><path d="m36.09138 36.38786c.18456-.10655.85147.02942.88657.03658-.4085.84803-.94838 1.18268-.9768 1.20029.01245-.29608-.04847-1.07926.05308-1.20024.00724-.01459.01996-.02671.03715-.03663zm-.01873.67125c.01271-.00804.25428-.16083.47686-.56676-.01535-.00348-.30699-.06968-.44418-.01719-.0033.00725-.06604.14509-.03268.58395" fill="#cfd8dd"/></g><g><g><path d="m36.01733 36.21057c-.04313.0249-.0784.08469-.07825.13549.00014.04956.03564.06981.07876.04491.04423-.02554.0795-.08664.07936-.1362-.00014-.0508-.03564-.06973-.07987-.0442z" fill="#cfd8dd"/></g><g><path d="m35.82587 35.87306c-.11057.06384-.19874.21783-.19839.34364.00036.12581.08911.17765.19968.11381.10947-.0632.19875-.21783.19839-.34364-.00035-.12581-.09021-.17701-.19968-.11381z" fill="#cfd8dd"/></g></g><g><path d="m35.81055 35.63484c-.04423.02554-.0795.08664-.07936.13744.00014.04956.03564.06981.07987.04427.04312-.0249.07839-.086.07825-.13556-.00014-.05081-.03564-.07105-.07876-.04615z" fill="#cfd8dd"/></g><g><path d="m35.49614 36.0735c-.04423.02554-.0784.08593-.07825.1368.00014.0495.03453.07037.07877.04484.04313-.0249.07839-.086.07825-.13549-.00015-.05087-.03565-.07105-.07877-.04615z" fill="#cfd8dd"/></g><g><path d="m36.13444 35.71528c-.04313.0249-.0784.086-.07825.1368.00014.04956.03564.06981.07877.04491.04423-.02554.0795-.08664.07936-.1362-.00015-.05081-.03565-.07105-.07988-.04551z" fill="#cfd8dd"/></g><g><path d="m35.32639 36.3598c.05238.11358-.80445 1.10883-.84954 1.16121-.2685-.55513-.02531-1.25047-.01251-1.28707.21273.0299.86388-.0075.86205.12586zm-.50663.61833c.01673-.01908.33451-.38149.42152-.55642-.00245-.0045-.04899-.09007-.41332-.07063-.00566.01644-.11315.32874-.0082.62705" fill="#cfd8dd"/></g><g><path d="m35.58605 35.75431c-.00722.01494-.02029.02739-.03813.03768-.18607.10743-.85583-.0153-.89108-.02176.40295-.85117.94176-1.19125.97012-1.20915-.00912.29418.05954 1.07157-.04091 1.19323zm-.05108-.04943c.00325-.00728.06493-.14569.02604-.58136-.01271.00823-.25428.16462-.47353.57243.01546.00317.30919.0633.44749.00893" fill="#cfd8dd"/></g><g><path d="m35.56444 36.7264c.13387-.05312.06135 1.0914.05754 1.15164-.66597.27755-.9511-.08614-.9661-.10529.20825-.24086.72983-.95062.88083-1.03779.01149-.00664.02083-.00961.02773-.00856zm-.02022.67978c.00166-.02234.03307-.4467-.0149-.56918 0 0-.00106.00048-.0033.00177-.02071.01196-.14162.09315-.43941.4995.00682.0084.13669.16792.45761.06791" fill="#cfd8dd"/></g><g><path d="m36.95683 34.44234c-.20668.24265-.7272.96015-.87638 1.04628-.01098.00634-.01994.0093-.02662.00832-.13496.05631-.07191-1.08517-.06859-1.14525.66594-.2852.95631.07186.97159.09065zm-.86898.94458s.00087-.00037.0027-.00142c.01884-.01088.13898-.09081.43779-.50361-.007-.0083-.14002-.166-.46092-.06096-.00144.0222-.02865.44414.02043.56599" fill="#cfd8dd"/></g><g><path d="m37.91724 34.88565c.00379 1.33795-.93525 2.96442-2.0974 3.6354-1.16215.67097-2.10844.13299-2.11223-1.20496-.00379-1.3354.93636-2.96252 2.09851-3.63348 1.16216-.67098 2.10733-.13236 2.11112 1.20304zm-2.0991 3.03436c.87355-.50434 1.58004-1.72672 1.57718-2.73302-.00285-1.00376-.71395-1.409-1.5875-.90466s-1.58003 1.72803-1.57719 2.73179c.00286 1.0063.71396 1.41023 1.58751.90589" fill="#40545d"/></g></g></g><path d="m43.13252 29.25552c-.09887.05747-.19774.12443-.29342.20417.75909-.2934 1.33637.13082 1.33637 1.04295 0 .01588 0 .03193-.00319.04781l.56451-.32533c.00319-.01916.00319-.03504.00319-.0542 0-1.01741-.72081-1.42885-1.60746-.9154z" fill="#be9e39"/><path d="m42.8391 29.45969c-.74314.58369-1.30129 1.65841-1.2981 2.55793v.0542l2.63128-1.52136c.00319-.01588.00319-.03193.00319-.04781 0-.91215-.57729-1.33637-1.33637-1.04296z" fill="#be9e39"/><g><g><g enable-background="new"><g><path d="m44.51896 29.71728c-.23059-.1343-.54924-.11321-.90144.09212-.70017.40248-1.26198 1.37941-1.26198 2.18438.00417.23911.0545.43606.14673.58284.05451.09642.12997.17606.22223.22642l-.30608-.18036-.5115-.29766c-.15093-.08373-.26414-.23481-.32285-.44445.2935-.79657.71486-1.61845 1.34376-2.11306.11805-.09838.33909-.32367.84987-.40521.06568-.01048.13531.00408.19286.03741z" fill="#364950"/></g><g><path d="m43.61695 29.80709c-.69963.40393-1.26262 1.38161-1.26035 2.18551.00228.80389.56896 1.12682 1.26859.72289s1.26477-1.38031 1.26249-2.18421c-.00227-.8039-.57109-1.12813-1.27073-.72419z" fill="#364950"/></g></g></g><g><g><path d="m43.50525 31.45755c-.02591.01496-.0471.05088-.04702.08141.00009.02978.02142.04194.04733.02698s.0471-.05167.04702-.08145c-.00009-.03053-.02142-.04191-.04733-.02694z" fill="#cfd8dd"/></g><g><path d="m44.41554 31.19734c-.12584-.02372-.51114-.0192-.50804-.10051-.02815-.07166.49492-.65407.52245-.68472.14872.34617-.00625.76327-.01441.78523zm-.21318-.08187c.0036-.00984.07198-.1968.01555-.38215-.01022.01118-.20433.22351-.2586.32824.00138.0028.02745.05605.24305.05391" fill="#cfd8dd"/></g><g><path d="m43.78976 31.43326c.11089-.06402.5116.01768.53269.02198-.24545.50953-.56982.7106-.5869.72118.00748-.17789-.02912-.64846.03189-.72115.00434-.00877.01199-.01605.02232-.02201zm-.01125.40332c.00764-.00483.15278-.09663.28651-.34053-.00922-.00209-.18445-.04186-.26688-.01033-.00198.00435-.03968.08717-.01963.35086" fill="#cfd8dd"/></g><g><g><path d="m43.74527 31.32674c-.02591.01496-.0471.05088-.04702.08141.00008.02978.02141.04194.04733.02698.02657-.01534.04776-.05206.04768-.08183-.00009-.03053-.02142-.0419-.04799-.02656z" fill="#cfd8dd"/></g><g><path d="m43.63023 31.12395c-.06644.03836-.11941.13088-.1192.20647s.05354.10674.11998.06838c.06578-.03798.11942-.13088.1192-.20647-.00021-.07559-.05421-.10635-.11998-.06838z" fill="#cfd8dd"/></g></g><g><path d="m43.62103 30.98082c-.02658.01534-.04777.05206-.04768.08258.00008.02978.02141.04194.04799.0266.02591-.01496.0471-.05167.04702-.08145-.0001-.03053-.02143-.04269-.04733-.02773z" fill="#cfd8dd"/></g><g><path d="m43.43211 31.24438c-.02657.01534-.0471.05163-.04701.0822.00008.02974.02075.04228.04733.02694.02591-.01496.0471-.05167.04702-.08141-.0001-.03057-.02143-.04269-.04734-.02773z" fill="#cfd8dd"/></g><g><path d="m43.81563 31.02915c-.02591.01496-.0471.05167-.04702.0822.00008.02978.02142.04194.04733.02698.02658-.01534.04777-.05206.04768-.08183-.00009-.03053-.02142-.04269-.04799-.02735z" fill="#cfd8dd"/></g><g><path d="m43.33012 31.4164c.03147.06825-.48334.66623-.51044.6977-.16132-.33355-.01521-.75133-.00751-.77332.12782.01797.51905-.0045.51795.07562zm-.3044.37152c.01005-.01146.20099-.22922.25327-.33432-.00147-.0027-.02943-.05412-.24834-.04244-.00341.00988-.06799.19752-.00493.37676" fill="#cfd8dd"/></g><g><path d="m43.48614 31.0526c-.00434.00898-.01219.01646-.02291.02264-.1118.06455-.51421-.00919-.53539-.01307.24211-.51142.56585-.71575.58289-.7265-.00549.17674.03576.64383-.02459.71693zm-.0307-.0297c.00195-.00438.03902-.08754.01565-.3493-.00764.00495-.15278.09891-.28451.34394.00929.0019.18577.03803.26886.00536" fill="#cfd8dd"/></g><g><path d="m43.47315 31.63667c.08043-.03192.03687.65575.03457.69195-.40014.16676-.57145-.05176-.58047-.06326.12512-.14472.43851-.57117.52924-.62355.00691-.00398.01252-.00577.01666-.00514zm-.01215.40844c.00099-.01342.01987-.26839-.00896-.34199 0 0-.00064.00029-.00198.00106-.01244.00718-.08509.05597-.26402.30012.00411.00505.08214.1009.27496.04081" fill="#cfd8dd"/></g><g><path d="m44.30975 30.26432c-.12418.14579-.43693.57689-.52657.62864-.0066.00381-.01198.00559-.016.005-.08109.03383-.04321-.65201-.04121-.68811.40014-.17135.5746.04318.58378.05447zm-.52211.56754s.00053-.00022.00162-.00085c.01132-.00654.0835-.05456.26304-.30259-.0042-.00499-.08413-.09974-.27694-.03663-.00086.01334-.01721.26686.01228.34007" fill="#cfd8dd"/></g><g><path d="m44.8868 30.53068c.00228.80389-.56193 1.78114-1.2602 2.18428s-1.26683.07991-1.26911-.72399c-.00227-.80236.5626-1.77999 1.26087-2.18314.69827-.40314 1.26617-.07951 1.26844.72285zm-1.26122 1.82315c.52486-.30303.94934-1.03748.94763-1.64211-.00171-.6031-.42897-.84658-.95383-.54355s-.94934 1.03827-.94764 1.64136c.00173.60464.42898.84733.95384.5443" fill="#40545d"/></g></g></g></g><g fill="#61c4f0"><path d="m35.50612 26.81715-1.90123 1.10012-2.63482-4.72286v-.56907c0-.94333.20212-1.95354.56139-2.94914z"/><path d="m39.23375 21.31543c0 1.36986-.75602 3.02406-1.8189 4.13917l-4.59594-8.25605c.80841-1.19771 1.83389-2.22328 2.94173-2.8669l.6063-.3516 2.85932 5.14207z"/></g></g></svg>