<svg id="Layer_1" enable-background="new 0 0 52 52" height="512" viewBox="0 0 52 52" width="512" xmlns="http://www.w3.org/2000/svg"><g><g><g><g><g><path d="m2.35507 38.11774v1.1712l18.43123 10.71106v-1.17121z" fill="#1d9981"/><path d="m20.7863 48.82879v1.17121l27.56308-15.91377v-1.17121z" fill="#1c8e78"/><path d="m48.34771 32.91693-27.56246 15.91452-18.43251-10.71972 27.56246-15.91452z" fill="#1faa8f"/></g><g><g><path d="m8.47646 14.07375.09785 21.40782 16.74466 9.73094-.09785-21.40783z" fill="#e0e2e2"/><path d="m25.22112 23.80468.09785 21.40783 20.91235-12.07375-.09786-21.40783z" fill="#d4d6d6"/><path d="m8.47646 14.07375 16.74466 9.73093 20.91234-12.07375-16.74466-9.73093z" fill="#ecf0f1"/><g><path d="m10.38402 14.07646.93304.54222 18.07071-10.43375v-1.08094z" fill="#d4d6d6"/><path d="m29.38777 3.10399v1.08094l13.90509 8.08246.93296-.53855z" fill="#e0e2e2"/></g><path d="m43.29286 12.26739-13.90509-8.08246-18.07071 10.43375 13.90568 8.0813z" fill="#5b5e71"/><g><g><path d="m20.81188 13.75354-.00132.6714-3.2102 1.86557.00132-.67141z" fill="#d4d6d6"/><path d="m17.60168 15.6191-.00132.67141-3.2312-1.86554.00132-.6714z" fill="#e0e2e2"/><path d="m20.81188 13.75149-3.2102 1.86556-3.2312-1.86553 3.2102-1.86556z" fill="#ecf0f1"/><g fill="#4c7891"><path d="m17.75357 12.14798c.07298.04214.07335.10956.00085.15169s-.1889.04214-.26188 0-.07335-.10955-.00085-.15169c.0725-.04213.1889-.04213.26188 0z"/><path d="m20.35896 13.65221c.07298.04214.07335.10956.00085.15169s-.1889.04214-.26188 0-.07335-.10956-.00085-.15169c.07251-.04213.1889-.04214.26188 0z"/><path d="m18.82841 13.03251c.69183.39943.69538 1.03855.00807 1.43797s-1.79069.39945-2.48252.00002-.69539-1.03855-.00808-1.43797 1.7907-.39945 2.48253-.00002z"/><path d="m15.08535 13.69858c.07298.04214.07155.11061-.00096.15274-.07251.04214-.18708.04108-.26006-.00105-.07298-.04214-.07517-.1085-.00267-.15063.07251-.04214.19071-.04319.26369-.00106z"/><path d="m17.69074 15.20281c.07298.04214.07155.11061-.00096.15274-.07251.04214-.18708.04108-.26006-.00105-.07298-.04214-.07517-.1085-.00267-.15064.07251-.04213.19071-.04319.26369-.00105z"/></g><path d="m18.18038 13.12576c.02172.01254.04005.02753.05367.04476.06291.07879.00097.17286-.13834.20543-.09288.02171-.18707.05548-.25272.10653-.05879.03578-.10017.08161-.12976.12704.02572.00764.05007.01769.07165.03015.02159.01246.03901.02653.05298.04181.14706-.01287.32474-.01126.46793.02733.10632.01878.19759.05513.27193.09805.05293.03056.09728.06445.1324.09772.08373.0796.03087.18291-.11396.2211-.10314.02747-.22172.01322-.29763-.0306-.02406-.01389-.04383-.03075-.05747-.0502-.02895-.04222-.07284-.08596-.13407-.12131-.01573-.00908-.03261-.01761-.05067-.02542-.06126-.03377-.13983-.05829-.21904-.07517-.01241.01528-.02968.02935-.05043.04141-.02214.01287-.04776.02291-.07478.03055.02338.08482.02118.18774-.04498.27055-.05423.10573-.19884.18492-.33668.23357-.10902.03835-.24333.02716-.32788-.02166-.02181-.01259-.0403-.02768-.05421-.04508-.06291-.07879-.00097-.17286.13834-.20543.09288-.02171.18707-.05548.25272-.10653.05879-.03498.10017-.08161.12976-.12703-.02572-.00683-.05006-.01688-.07095-.02894-.02298-.01327-.03971-.02774-.05229-.04301-.14775.01327-.32543.01166-.46931-.02734-.10625-.01847-.19688-.05447-.27086-.09719-.05323-.03074-.09785-.06494-.13347-.09859-.08303-.0792-.03226-.18211.11396-.2211.10314-.02747.22171-.01322.29763.0306.02406.01389.04383.03075.05747.0502.03006.04286.0733.08622.13421.12139.01565.00904.03247.01753.05053.02534.06127.03457.14122.05829.21974.07558.01241-.01447.02968-.02854.05113-.04101.02214-.01286.04637-.02291.07201-.03055-.02338-.08563-.02118-.18774.04636-.27135.05493-.10533.19884-.18492.33668-.23357.10899-.03835.24419-.02665.3284.02197z" fill="#ecf0f1"/></g><g><path d="m25.88051 10.80797-.00132.67141-3.2102 1.86556.00132-.6714z" fill="#d4d6d6"/><path d="m22.67031 12.67354-.00132.6714-3.23119-1.86553.00132-.67141z" fill="#e0e2e2"/><path d="m25.88051 10.80592-3.2102 1.86557-3.23119-1.86554 3.21019-1.86556z" fill="#ecf0f1"/><g fill="#4c7891"><path d="m22.8222 9.20242c.07298.04214.07335.10956.00085.15169s-.1889.04214-.26188 0-.07335-.10955-.00085-.15169.1889-.04214.26188 0z"/><path d="m25.42759 10.70664c.07298.04214.07335.10956.00085.15169s-.1889.04214-.26188 0-.07336-.10956-.00085-.15169.1889-.04213.26188 0z"/><path d="m23.89704 10.08695c.69183.39943.69538 1.03855.00807 1.43797s-1.79069.39945-2.48252.00002-.69539-1.03855-.00808-1.43797 1.7907-.39945 2.48253-.00002z"/><path d="m20.15398 10.75302c.07298.04214.07155.11061-.00096.15274-.07251.04214-.18708.04108-.26006-.00105-.07298-.04214-.07517-.1085-.00267-.15063.07251-.04214.19071-.0432.26369-.00106z"/><path d="m22.75937 12.25724c.07298.04214.07155.11061-.00096.15274-.07251.04214-.18708.04108-.26006-.00105-.07298-.04214-.07517-.1085-.00266-.15064.0725-.04213.1907-.04318.26368-.00105z"/></g><path d="m23.24901 10.18019c.02172.01254.04005.02753.05367.04476.06291.07879.00097.17286-.13834.20543-.09288.02171-.18707.05548-.25272.10653-.05879.03578-.10017.08161-.12976.12704.02572.00764.05007.01769.07166.03015.02158.01246.03901.02653.05298.04181.14706-.01287.32474-.01126.46793.02733.10632.01878.19759.05513.27193.09805.05294.03056.09728.06445.1324.09772.08373.0796.03087.18291-.11396.2211-.10314.02747-.22172.01322-.29763-.0306-.02406-.01389-.04383-.03075-.05747-.0502-.02895-.04222-.07285-.08596-.13408-.12131-.01573-.00908-.03261-.01761-.05067-.02542-.06126-.03377-.13983-.05829-.21904-.07517-.01241.01528-.02968.02935-.05043.04141-.02214.01287-.04776.02291-.07478.03055.02338.08482.02118.18774-.04498.27055-.05423.10573-.19884.18492-.33668.23357-.10902.03835-.24333.02716-.32788-.02166-.02181-.01259-.0403-.02768-.05421-.04508-.06291-.07879-.00097-.17286.13834-.20543.09288-.02171.18707-.05548.25272-.10653.05879-.03498.10017-.08161.12976-.12703-.02572-.00683-.05006-.01688-.07095-.02894-.02298-.01327-.03971-.02774-.05229-.04301-.14775.01327-.32543.01166-.46931-.02734-.10625-.01847-.19687-.05447-.27086-.09719-.05323-.03074-.09785-.06494-.13347-.09859-.08303-.0792-.03226-.18211.11396-.2211.10314-.02747.22171-.01322.29763.0306.02406.01389.04384.03075.05748.0502.03006.04286.0733.08622.13421.12139.01565.00904.03247.01753.05053.02534.06127.03457.14121.05829.21974.07558.01241-.01447.02968-.02854.05113-.04101.02214-.01286.04637-.02291.07201-.03055-.02338-.08563-.02118-.18774.04636-.27135.05493-.10533.19884-.18492.33668-.23357.10899-.03835.24418-.02665.32839.02197z" fill="#ecf0f1"/></g><g><path d="m30.94914 7.86241-.00132.6714-3.2102 1.86556.00133-.6714z" fill="#d4d6d6"/><path d="m27.73895 9.72797-.00133.6714-3.23119-1.86553.00132-.6714z" fill="#e0e2e2"/><path d="m30.94914 7.86036-3.21019 1.86556-3.2312-1.86553 3.21019-1.86556z" fill="#ecf0f1"/><g fill="#4c7891"><path d="m27.89083 6.25685c.07298.04214.07335.10955.00085.15169-.0725.04213-.1889.04214-.26188 0-.07298-.04213-.07335-.10955-.00085-.15169.0725-.04213.1889-.04213.26188 0z"/><path d="m30.49622 7.76108c.07298.04213.07335.10955.00085.15169-.0725.04213-.1889.04214-.26188 0s-.07335-.10955-.00085-.15169.1889-.04214.26188 0z"/><path d="m28.96567 7.14138c.69183.39943.69538 1.03855.00807 1.43797s-1.79069.39945-2.48252.00002-.69539-1.03855-.00808-1.43797 1.7907-.39945 2.48253-.00002z"/><path d="m25.22261 7.80745c.07298.04214.07155.1106-.00096.15274s-.18708.04108-.26006-.00105c-.07298-.04214-.07517-.1085-.00266-.15064.0725-.04213.1907-.04318.26368-.00105z"/><path d="m27.828 9.31168c.07298.04214.07155.11061-.00096.15274-.07251.04214-.18708.04108-.26007-.00105-.07298-.04214-.07517-.1085-.00266-.15064s.19071-.04319.26369-.00105z"/></g><path d="m28.31764 7.23463c.02172.01254.04005.02753.05367.04476.06291.07879.00097.17286-.13834.20542-.09288.02171-.18707.05548-.25272.10653-.05879.03578-.10018.08161-.12976.12703.02572.00764.05007.01769.07165.03015s.03901.02653.05298.04181c.14706-.01286.32474-.01126.46793.02733.10632.01878.19759.05513.27193.09806.05293.03056.09728.06445.13239.09772.08373.0796.03087.18291-.11396.2211-.10314.02747-.22171.01322-.29763-.0306-.02406-.01389-.04384-.03075-.05747-.0502-.02895-.04222-.07284-.08596-.13408-.12131-.01573-.00908-.03261-.01761-.05067-.02542-.06126-.03377-.13983-.05829-.21904-.07517-.01241.01528-.02968.02935-.05043.04141-.02214.01287-.04776.02291-.07478.03055.02338.08482.02118.18774-.04498.27055-.05423.10573-.19884.18492-.33668.23357-.10902.03835-.24334.02716-.32788-.02166-.02181-.01259-.04031-.02768-.05421-.04508-.06291-.07879-.00097-.17286.13834-.20543.09288-.02171.18707-.05548.25272-.10653.05879-.03498.10017-.08161.12976-.12703-.02572-.00683-.05006-.01688-.07095-.02894-.02298-.01327-.03972-.02774-.0523-.04301-.14775.01327-.32543.01166-.46931-.02733-.10625-.01847-.19687-.05448-.27086-.09719-.05323-.03073-.09785-.06494-.13347-.09859-.08303-.07919-.03226-.18211.11396-.2211.10314-.02747.22172-.01322.29763.0306.02406.01389.04383.03075.05747.0502.03006.04286.0733.08622.13421.12139.01565.00904.03247.01753.05053.02534.06127.03457.14121.05829.21974.07558.01241-.01447.02968-.02854.05113-.041.02213-.01286.04637-.02291.07201-.03055-.02339-.08563-.02118-.18774.04636-.27135.05493-.10533.19884-.18492.33668-.23357.10903-.03836.24422-.02666.32843.02196z" fill="#ecf0f1"/></g></g><g><path d="m43.86584 16.92863.63397-.36425v3.16329l-.63397-.34826z" fill="#e0e2e2"/><path d="m27.7341 28.65521 16.13177-9.27583.63394.34823v.00008l-16.76571 9.64049z" fill="#ecf0f1"/><path d="m27.7341 26.19288 16.12939-9.27013v2.46119l-16.12939 9.2718z" fill="#3087a5"/></g><path d="m49.64726 40.58027-.90154.51905-.62825.36882-8.14074 4.68507-.62834.36865-.90145.51905-6.07823-4.9035.88786-.51905.64193-.36881 8.12707-4.68492.64201-.36881.90145-.51921z" fill="#ecf0f1"/><g><g><path d="m48.74572 41.09932-.62825.36882-6.0919-4.90351-1.4205-1.14746.4371-.53255 1.62541 1.3112z" fill="#f1c40f"/></g><g><path d="m39.97673 46.15321-.62834.36865-6.09182-4.9035-1.62541-1.3112.4371-.53288 1.83024 1.47527z" fill="#f1c40f"/></g></g><g><path d="m32.36669 42.14275 6.07428 4.89865-6.07774-3.73166z" fill="#c4c6c6"/></g><g><path d="m32.36323 42.15033-.66201-.38471-.04269-12.32946.662.38471z" fill="#525566"/></g><g><path d="m32.32053 29.82087-.662-.38471 11.20615-6.46988.662.38471z" fill="#5b5e71"/></g><path d="m43.52668 23.35099.0427 12.32946-11.20615 6.46988-.0427-12.32946z" fill="#474b59"/><path d="m42.61183 36.22816-.03535-11.22457-.72129.41633.03284 10.42309z" fill="#5b5e71"/><path d="m41.88803 35.84301-8.57716 4.95235.0025.80166 9.29846-5.36886z" fill="#5b5e71"/><g><path d="m41.88901 35.78598-.24585-.15023-.81958-.46435-.05461-.04102-.21859-.12305-.91512-.53255-1.01075-.58741-.8195-.47802-.04101-.02735-.23218-.13655h-.01367l-.91513-.53272-.99715-.58724-.79216-.46452-.05469-.02735-.2185-.13655-.02735-.01368-.91512-.51904-.31413-.19108v-.39616l.40975-.23226.35514-.20492.87411-.50537 6.93875-4.01564z" fill="#6dbcc9"/><path d="m41.88901 35.78598v.05469l-8.57783 4.95802-.01367-3.94727v-3.36004l-.01359-.23226v-2.48585l.31413.19108.91512.51904.02735.01368.2185.13655.05469.02735.79216.46452.99715.58724.91513.53272h.01367l.23218.13655.04101.02735.8195.47802.99708.58741h.01367l.91512.53255.21859.12305h.01367l.04094.04102.81958.46435z" fill="#84dbff"/></g><g><g><path d="m12.72522 26.3234.18765-.10905.00734-5.08158-.18765.10905z" fill="#d4d6d6"/><path d="m12.73256 21.24182.18765-.10905-3.25657-1.88018-.18765.10905z" fill="#fff"/><path d="m9.47599 19.36164-.00734 5.08157 3.25657 1.88019.00734-5.08158z" fill="#e0e2e2"/><path d="m9.84747 24.23716.00968-4.48895-.23696-.13541-.00481 4.74524z" fill="#d4d6d6"/><path d="m9.84747 24.23716-.23209.12088 2.96606 1.71532v-.26109z" fill="#fff"/><path d="m9.85715 19.74821-.00968 4.48895 2.73397 1.57511.00481-4.48895z" fill="#3087a5"/></g><g><path d="m17.90062 29.31142.18765-.10905.00734-5.08158-.18765.10905z" fill="#d4d6d6"/><path d="m17.90796 24.22984.18765-.10905-3.25657-1.88018-.18765.10905z" fill="#fff"/><path d="m14.65139 22.34966-.00734 5.08157 3.25657 1.88019.00734-5.08158z" fill="#e0e2e2"/><path d="m15.02287 27.22517.00968-4.48894-.23696-.13541-.00481 4.74524z" fill="#d4d6d6"/><path d="m15.02287 27.22517-.23209.12089 2.96606 1.71532v-.26109z" fill="#fff"/><path d="m15.03255 22.73623-.00968 4.48894 2.73397 1.57512.00481-4.48895z" fill="#3087a5"/></g><g><path d="m23.07602 32.29943.18765-.10904.00734-5.08158-.18765.10905z" fill="#d4d6d6"/><path d="m23.08336 27.21786.18765-.10905-3.25657-1.88018-.18765.10905z" fill="#fff"/><path d="m19.82679 25.33768-.00734 5.08157 3.25657 1.88018.00734-5.08157z" fill="#e0e2e2"/><path d="m20.19827 30.21319.00968-4.48894-.23696-.13541-.00481 4.74524z" fill="#d4d6d6"/><path d="m20.19827 30.21319-.23209.12089 2.96606 1.71532v-.26109z" fill="#fff"/><path d="m20.20795 25.72425-.00968 4.48894 2.73397 1.57512.00482-4.48895z" fill="#3087a5"/></g></g><g><g><g><path d="m35.59219 29.81705-.8741.50537-.35515.20492-.76489.43701-.12297.06836-.19116-.10938v-.54622l.40975-.23226.35514-.20492.87411-.50537z" fill="#f1c40f"/><path d="m33.48875 33.19076v.17757l-.20483-.10921v-2.33579l.19116.10938v1.1473z" fill="#e5bd13"/><path d="m33.48013 31.0385.00662 2.33621 2.11753-1.22255-.00662-2.33621z" fill="#c6a51a"/><g><path d="m35.04515 31.20486-.0469.02708.00243.26564.04743.03031z" fill="#e5bd13"/><path d="m35.00068 31.49758v.00001l-.96186.55536.00054.05737 1.00875-.58243z" fill="#f1c40f"/><path d="m34.99825 31.23194-.96195.55537.00252.26564.96186-.55536z" fill="#4c7891"/></g><path d="m34.71869 30.32287v.71559l-.17739-.07456-.18143.26809v-.70148z" fill="#e0e2e2"/><path d="m34.71809 30.32242-.35515.20492-.66927-.38249.35514-.20492z" fill="#ecf0f1"/></g></g><g><g><path d="m34.39941 31.54697 2.10377 1.22258 2.11752-1.22256-2.10376-1.22257z" fill="#f1c40f"/><path d="m34.39941 31.54697.00663 2.33621 2.10376 1.22257-.00662-2.3362z" fill="#e5bd13"/><path d="m34.59943 33.74158-.00158-.55288.90295.52472.00157.55288z" fill="#fff"/><path d="m36.50318 32.76955.00662 2.3362 2.11753-1.22255-.00663-2.33621z" fill="#c6a51a"/><g><path d="m38.0682 32.93591-.04689.02707.00242.26563.04743.03032z" fill="#e5bd13"/><path d="m38.02373 33.22861v.00002l-.96186.55536.00054.05737 1.00875-.58243z" fill="#f1c40f"/><path d="m38.02131 32.96298-.96196.55537.00252.26564.96186-.55536z" fill="#4c7891"/></g><path d="m37.74173 32.05391v.71559l-.17738-.07455-.18143.26808v-.70148z" fill="#e0e2e2"/><path d="m35.63726 30.83237 2.10447 1.22154-.35881.20764-2.10447-1.22155z" fill="#ecf0f1"/></g><g><path d="m35.49665 33.34098-.31421.19125-.47803.27328-.09562.05469-.12297.06819-.2185.13656h-.01367l-.87419.50537-.08195-.05452v-1.02442l-.01359-.23226v-1.06544l.10921-.06819.08195.04085v.01367l.92879.53272.1093.06836z" fill="#f1c40f"/><path d="m33.39313 36.90611-.09562-.05469v-2.33562l.08195.05452z" fill="#e5bd13"/><path d="m33.38455 34.57022.00662 2.33621 2.11753-1.22255-.00662-2.33621z" fill="#c6a51a"/><g><path d="m34.94957 34.73658-.0469.02708.00243.26564.04743.03031z" fill="#e5bd13"/><path d="m34.9051 35.0293v.00001l-.96186.55536.00054.05737 1.00875-.58243z" fill="#f1c40f"/><path d="m34.90267 34.76366-.96195.55537.00252.26564.96186-.55536z" fill="#4c7891"/></g><path d="m34.6231 33.8546v.71558l-.17738-.07456-.18143.26809v-.70148z" fill="#e0e2e2"/><path d="m34.60879 33.8602-.12297.06819v.01368l-.2185.12288h-.01367l-.95614-.5599v-.01367l-.01359-.23226v-.17757l.20483.10921.15023.09554.76489.45085z" fill="#ecf0f1"/></g></g><g><g><path d="m37.41941 33.302 2.10376 1.22257 2.11753-1.22255-2.10376-1.22258z" fill="#f1c40f"/><path d="m37.41941 33.302.00662 2.33621 2.10377 1.22257-.00663-2.33621z" fill="#e5bd13"/><path d="m37.61942 35.49661-.00157-.55288.90295.52472.00157.55288z" fill="#fff"/><path d="m39.52317 34.52457.00663 2.33621 2.11752-1.22255-.00662-2.33621z" fill="#c6a51a"/><g><path d="m41.0882 34.69093-.0469.02708.00242.26564.04744.03031z" fill="#e5bd13"/><path d="m41.04372 34.98365v.00001l-.96185.55536.00054.05737 1.00875-.58243z" fill="#f1c40f"/><path d="m41.0413 34.71801-.96195.55537.00252.26564.96185-.55536z" fill="#4c7891"/></g><path d="m40.76173 33.80894v.71559l-.17739-.07456-.18142.26809v-.70148h-.00001z" fill="#e0e2e2"/><path d="m38.65726 32.58739 2.10447 1.22155-.35882.20764-2.10447-1.22155z" fill="#ecf0f1"/></g><g><path d="m34.30078 35.10268 2.10376 1.22257 2.11753-1.22255-2.10377-1.22258z" fill="#f1c40f"/><path d="m34.30078 35.10268.00662 2.33621 2.10377 1.22257-.00663-2.33621z" fill="#e5bd13"/><path d="m34.50079 37.29729-.00157-.55288.90295.52472.00157.55288z" fill="#fff"/><path d="m36.40454 36.32525.00663 2.33621 2.11752-1.22255-.00662-2.33621z" fill="#c6a51a"/><g><path d="m37.96956 36.49161-.04689.02708.00242.26563.04743.03032z" fill="#e5bd13"/><path d="m37.92509 36.78432v.00002l-.96186.55536.00054.05737 1.00875-.58243z" fill="#f1c40f"/><path d="m37.92267 36.51869-.96196.55537.00252.26564.96186-.55536z" fill="#4c7891"/></g><path d="m37.6431 35.60962v.71559l-.17739-.07456-.18142.26809v-.70148h-.00001z" fill="#e0e2e2"/><path d="m35.53862 34.38807 2.10448 1.22155-.35882.20764-2.10447-1.22155z" fill="#ecf0f1"/></g></g></g></g></g><g><g enable-background="new"><g><path d="m21.1664 46.91182-14.46133-8.40401-.01138-6.20163 14.46134 8.40401z" fill="#e0e2e2"/></g><g><path d="m21.15503 40.71019-14.46134-8.40401 3.5433-4.34017 14.46134 8.404z" fill="#bec1c2"/></g><g><path d="m24.69833 36.37001.01787 8.49234-3.5498 2.04947-.01137-6.20163z" fill="#d4d6d6"/></g><g><path d="m21.09175 40.78769-14.46134-8.40401-.02974-.04122 14.46134 8.40402z" fill="#525566"/></g><g><path d="m21.06201 40.74648-14.46134-8.40402-.02974-.04118 14.46134 8.40402z" fill="#525566"/></g><g><path d="m21.03227 40.7053-14.46134-8.40402 3.73308-4.57264 14.46134 8.40401z" fill="#5b5e71"/></g><g><path d="m24.76535 36.13265.05953.08236-.12655.155-3.5433 4.34018-.06328.0775-.02974-.04121-.02974-.04118z" fill="#474b59"/></g></g></g></g><g><g><path d="m10.54727 39.23961.17416-.10121.00682-2.96162-.17417.10121z" fill="#d4d6d6"/><path d="m10.55408 36.27799.17417-.10121-3.02262-1.74511-.17417.10121z" fill="#fff"/><path d="m7.53146 34.53288-.00681 2.96162 3.02262 1.74511.00681-2.96162z" fill="#e0e2e2"/><path d="m7.87625 37.30325.00899-2.41157-.21994-.12568-.00446 2.64945z" fill="#d4d6d6"/><path d="m7.87625 37.30325-.21541.1122 2.75298 1.59209v-.24234z" fill="#fff"/><path d="m7.88524 34.89168-.00899 2.41157 2.53757 1.46195.00446-2.41157z" fill="#3087a5"/></g><g><path d="m15.35087 42.01297.17416-.10121.00682-2.96162-.17417.10121z" fill="#d4d6d6"/><path d="m15.35768 39.05135.17417-.10121-3.02262-1.74512-.17417.10122z" fill="#fff"/><path d="m12.33506 37.30624-.00681 2.96162 3.02262 1.74511.00681-2.96162z" fill="#e0e2e2"/><path d="m12.67985 40.07661.00899-2.41157-.21994-.12568-.00446 2.64944z" fill="#d4d6d6"/><path d="m12.67985 40.07661-.21541.11219 2.75298 1.5921v-.24234z" fill="#fff"/><path d="m12.68884 37.66504-.00899 2.41157 2.53757 1.46195.00446-2.41156z" fill="#3087a5"/></g><g><path d="m20.15447 44.78633.17416-.10121.00682-2.96162-.17417.10121z" fill="#d4d6d6"/><path d="m20.16128 41.82471.17417-.10121-3.02262-1.74511-.17417.10121z" fill="#fff"/><path d="m17.13866 40.0796-.00681 2.96162 3.02262 1.74511.00681-2.96162z" fill="#e0e2e2"/><path d="m17.48345 42.84997.00899-2.41157-.21994-.12567-.00446 2.64944z" fill="#d4d6d6"/><path d="m17.48345 42.84997-.21541.1122 2.75298 1.59209v-.24234z" fill="#fff"/><path d="m17.49244 40.4384-.00899 2.41157 2.53757 1.46195.00446-2.41156z" fill="#3087a5"/></g></g></g><g><g enable-background="new"><g><path d="m27.05429 22.75036-.44271-.25727-.01108-3.90786.44271.25728z" fill="#e5bd13"/></g><g><path d="m27.04321 18.84251-.44271-.25728 16.8198-9.71091.44271.25727z" fill="#f1c40f"/></g><g><path d="m43.86301 9.13159.01108 3.90786-16.8198 9.71091-.01108-3.90785z" fill="#d6b218"/></g></g></g></g><g><g enable-background="new"><g><path d="m31.21593 17.65524.6799 1.3714-.27519.15888-.15579-.31001-.76729.443-.15152.48743-.2772.16004.67193-2.15188zm-.41269 1.32714.55637-.32122-.28125-.56354z" fill="#3f434f"/></g><g><path d="m30.31005 18.17826-.52929 2.06951-.25712.14845-.32479-1.01926-.01808.01044-.31796 1.39035-.2571.14844-.53929-1.45257.27718-.16003.38926 1.04676.33989-1.46774.23298-.13451.34508 1.07227.38206-1.49209z" fill="#3f434f"/></g></g><g><path d="m32.99875 17.74948.40355.4074-.3294.19018-.36726-.3798-.33946.19599.00167.59087-.25911.1496-.00499-1.76105.57046-.32935c.23298-.13451.40186-.18579.50254-.15374.10069.03434.15134.15074.1519.34924.00081.29079-.10914.53691-.3299.74066zm-.01289-.29309c.05208-.08093.07797-.1791.07764-.2945-.00033-.11541-.02668-.17881-.08104-.19133-.05433-.01024-.15081.02234-.28941.10236l-.32943.1902.00179.63009.32139-.18556c.14663-.08467.24698-.16804.29906-.25126" fill="#3f434f"/></g><g><path d="m34.77524 15.60028.0008.28157-.81753.472.00132.46623.73517-.42445.00075.26312-.73517.42445.00133.47084.84565-.48823.00079.27929-1.10275.63667-.00499-1.76106z" fill="#3f434f"/></g><g><path d="m36.41226 14.65514.00499 1.76106-.25912.1496-.00204-.72013-.76127.43952.00205.72013-.25912.1496-.00499-1.76106.25911-.1496.00217.76397.76127-.43952-.00217-.76397z" fill="#3f434f"/></g><g><path d="m38.12022 13.88867c.15515.08381.23409.25555.23483.51636.00073.2585-.07697.52067-.23114.78307s-.34676.46144-.57375.59249c-.22898.1322-.42004.15467-.5752.07085-.15515-.08382-.23409-.25554-.23483-.51404-.00074-.26082.07697-.523.23115-.78539.15417-.2624.34473-.46028.57372-.59248.22698-.13105.42006-.15467.57522-.07086zm-.18571 1.20995c.1041-.18263.15589-.36511.1554-.54051-.0005-.17773-.05316-.29992-.15796-.36194-.1068-.06317-.23352-.05243-.3862.03571-.15265.08813-.27901.22351-.3851.4096-.10411.18263-.1559.36512-.1554.54285.0005.1754.05315.29758.15795.3596.1068.06319.23352.05244.38616-.03569.15269-.08814.27906-.22352.38515-.40962" fill="#3f434f"/></g><g><path d="m39.15191 13.03178c.0984-.05681.19487-.09401.29139-.11275.09652-.01873.18104-.01666.25152.01199l-.13795.30391c-.04634-.0218-.10668-.02395-.18512-.00872-.07643.01175-.15479.04314-.22911.08604-.07432.04291-.13652.09731-.18464.15977-.0481.06245-.07206.12945-.07185.20101.0002.07155.02447.11302.07277.12212.04832.00908.15088-.0085.30768-.05512.15678-.04659.27546-.05269.35603-.0206.08059.03207.11906.12545.1195.2801.00043.15233-.04942.30826-.14957.46086-.10018.15263-.23261.27764-.39531.37158-.24102.13916-.4542.16744-.63953.08488l.16206-.31783c.1551.06535.316.04875.48273-.04751.08233-.04753.14856-.10657.19867-.17712.04808-.06707.07204-.13638.07184-.20563-.00019-.06693-.02243-.10725-.06874-.11752-.04632-.01256-.12676-.00079-.23933.03415-.11255.03261-.197.05363-.25532.06187-.06034.0094-.11065.00377-.15697-.0111-.09063-.02859-.13515-.1231-.13562-.28697-.00046-.16157.04942-.31751.15161-.46437.10419-.14799.23058-.26489.38326-.35304z" fill="#3f434f"/></g><g><path d="m41.33741 11.81161.0028.98785c.00072.25388-.05899.48487-.18112.69178-.12014.20576-.2746.36429-.46542.47446-.19081.11017-.34567.13023-.46659.06364-.12293-.06543-.18372-.22684-.18444-.48072l-.0028-.98785.25909-.14958.00277.97631c.00046.16155.03498.26878.10554.32282.07059.05404.16512.0457.28564-.02389.1205-.06957.21479-.17025.28482-.30546.07005-.13522.10382-.28188.10337-.44343l-.00277-.97631z" fill="#3f434f"/></g><g><path d="m42.81976 10.95577.0008.28157-.8175.47199.00132.46622.73316-.42328.00074.26312-.73315.42328.00133.47085.84363-.48707.00079.27929-1.10274.63667-.005-1.76106z" fill="#3f434f"/></g></g></g></svg>