<svg id="Layer_1" enable-background="new 0 0 52 52" height="512" viewBox="0 0 52 52" width="512" xmlns="http://www.w3.org/2000/svg"><g><g><g><g><g enable-background="new"><g><path d="m2.36455 21.22597 25.88134-15.05207 4.29038 4.40029-25.88134 15.05207z" fill="#e5bd13"/></g><g><path d="m6.65493 25.62626 25.88134-15.05207-.08425.19977-25.88134 15.05208z" fill="#6f4f2d"/></g><g><path d="m2.36455 21.22597 4.29038 4.40029-.08425.19978-4.29039-4.40029z" fill="#d6b218"/></g></g><g enable-background="new"><g><path d="m45.65111 18.39057-13.22977-7.6883-.08425-.19977 13.22977 7.6883z" fill="#5e4427"/></g><g><path d="m45.53121 18.17891-13.22977-7.6883 4.29038-4.4083 13.22977 7.6883z" fill="#f1c40f"/></g><g><path d="m49.81895 13.76838.08423.19979-4.29036 4.40829-.08425-.19977z" fill="#e5bd13"/></g></g><g><g enable-background="new"><g><path d="m6.22693 25.64169.03024 12.53909 13.20496 7.67389-.03024-12.53909z" fill="#e5bd13"/></g><g><path d="m19.43189 33.31558-.07861 12.60211 26.21295-15.17594.07862-12.60211z" fill="#d6b218"/></g></g></g><g enable-background="new"><g><path d="m15.31261 33.73234-13.22976-7.6883 4.30129-.5521 13.22977 7.6883z" fill="#e5bd13"/></g><g><path d="m15.22977 34.02859-13.22977-7.6883.08285-.29625 13.22976 7.6883z" fill="#d6b218"/></g><g><path d="m15.31261 33.73234 4.3013-.5521-.08285.29625-4.30129.5521z" fill="#c6a51a"/></g></g><g enable-background="new"><g><path d="m24.03583 33.70722 25.88135-15.05208.08282.29624-25.88134 15.05207z" fill="#c1a11b"/></g><g><path d="m19.73454 33.1471 25.88134-15.05207 4.3013.56011-25.88135 15.05208z" fill="#e5bd13"/></g><g><path d="m24.03583 33.70722.08283.29623-4.30127-.5601-.08285-.29625z" fill="#c6a51a"/></g></g><g><path d="m6.22691 25.6417 13.20501 7.67383 12.98489-7.51755v-15.31885z" fill="#f1c40f"/><path d="m32.4399 10.46576-.02309.01337v15.31885l13.19907-7.70295z" fill="#d6b218"/></g></g><g><g><path d="m21.72102 17.48939 10.60299 6.16178 10.67236-6.16169-10.60299-6.16178z" fill="#ecf0f1"/><path d="m32.33831 25.82807-1.28998.75-4.44001 2.57001-1.80999 1.04999-.72004.41998-1.88-1.09998-.44-.25-.01001-3.02002-.00995-2.10998-.01001-5.14002-.01001-1.51001 10.60999 6.16004z" fill="#e0e2e2"/><path d="m43.00829 19.63807-4.44 2.58002-1.81 1.04998-4.41998 2.56-.01001-2.17999 4.42999-2.56 1.81-1.04004 4.42999-2.56z" fill="#d4d6d6"/><path d="m38.56829 20.04804v2.17005l-1.81 1.04998v-2.17999l-10.60999-6.15002 1.81-1.04999z" fill="#5b5e71"/></g><g><path d="m9.76203 24.41225 10.60299 6.16179 10.67237-6.1617-10.603-6.16178z" fill="#ecf0f1"/><path d="m20.37828 32.76807-.94995.54999-9.66003-5.61999-.01001-3.29004 10.60998 6.17004z" fill="#e0e2e2"/><path d="m31.04833 26.57807-4.44001 2.57001-1.80999 1.04999-.72004.41998-3.70001 2.15002-.01001-2.19 1.83002-1.06 2.60004-1.5 1.80999-1.04998 4.43-2.56006z" fill="#d4d6d6"/><path d="m26.60832 26.96809v2.17999l-1.80999 1.04999v-2.18l-3.05005-1.77002-7.56-4.39001 1.81-1.04999 5.74005 3.33002z" fill="#5b5e71"/></g></g><path d="m6.2283 25.63807 3.54 2.06 9.66 5.62.95-.55 3.7-2.15.72-.42 1.81-1.05 4.44-2.57 1.29-.75 4.42-2.56 1.81-1.05 4.44-2.58 2.62-1.52" fill="none"/></g><g><g><g><g><g><g><path d="m24.41832 41.25589c0 .14001-.09003.29999-.21002.37l-2.75 1.59003c-.03998.01996-.08002.02997-.10999.02997-.03003 0-.06 0-.08002-.02002-.06-.02997-.08997-.08997-.08997-.16998l-.01001-3.15997c0-.14001.09998-.31.21997-.38l2.75-1.59003c.07001-.03998.13-.03998.19-.01001.04999.03003.08002.09003.08002.17004z" fill="#fff"/></g></g></g></g><g><g><g><path d="m22.20059 39.43076.39285.74762-.2433.14049-.53689.30771z" fill="#3f434f"/></g></g></g><g><g><g><path d="m22.35014 40.31887.00419 1.47896-.29357.16952-.0042-1.47896z" fill="#3f434f"/></g></g></g><g><g><g><path d="m23.80849 41.09008.0009.31659-2.02686 1.17038-.0009-.31659z" fill="#3f434f"/></g></g></g><g><g><g><path d="m28.50829 38.88589c0 .14001-.08997.31-.20996.38l-2.75 1.58997c-.04004.02002-.08002.03003-.11005.03003-.02997 0-.06-.01001-.07996-.02002-.06-.02997-.09003-.08997-.09003-.16998l-.01001-3.16998c0-.13.10004-.30005.22003-.38l2.75-1.58002c.07001-.03998.13-.04999.19-.01001.04999.03003.07996.09003.07996.16998z" fill="#fff"/></g></g></g><g><g><g><path d="m27.51253 36.45201.00299 1.05376c.00094.33277-.19131.71923-.44654.91521l.00269.94977c.17902-.08254.31399-.07483.31427.02453l-.79024.45631c-.00028-.09937.1342-.26266.3131-.3868l-.00269-.94977c-.11668.04654-.21741.03527-.29611-.01419-.09284-.06906-.15363-.19831-.15415-.38317l-.00299-1.05376z" fill="#3f434f"/></g></g></g><g><g><g><path d="m23.52443 39.64079.00419 1.47896-.29358.16953-.00419-1.47897z" fill="#3f434f"/></g></g></g><g><g><g><path d="m23.37689 38.75152.39084.74878-.2433.14049-.53487.30655z" fill="#3f434f"/></g></g></g></g></g></g><g><g><path d="m44.76212 26.5336v1.67431l-.00953.17123v1.63627l-7.39167 4.29987v-.61831l.00952-.43762v-1.40792l.00952-.44714v-.57077z" fill="#ecf0f1"/></g><g><g><g><path d="m44.76212 28.20791-.00953.17123-7.38215 4.26183v-.1617z" fill="#a4a9b3"/></g></g><g><g><path d="m44.75259 28.81676v.18075l-7.38215 4.26184v-.17123z" fill="#a4a9b3"/></g></g><g><g><path d="m44.75259 29.43507v.18075l-7.39167 4.2619v-.18075z" fill="#a4a9b3"/></g></g><g><g><path d="m44.76212 27.58953v.17129l-7.39168 4.27136v-.18075z" fill="#a4a9b3"/></g></g><g><g><path d="m44.76212 26.97122v.17123l-7.38216 4.26184v-.17123z" fill="#a4a9b3"/></g></g></g></g></g></svg>