<svg id="Layer_1" enable-background="new 0 0 50 50" height="512" viewBox="0 0 50 50" width="512" xmlns="http://www.w3.org/2000/svg"><g><g><g><g><g enable-background="new"><g><path d="m20.01418 39.61183c-.69432.40327-1.38856.80672-2.08269 1.21032-1.2326-.71165-2.24183-2.45987-2.23781-3.87598l2.08267-1.21031c-.00401 1.41611 1.00522 3.16432 2.23783 3.87597z" fill="#40545d"/></g><g><path d="m17.93151 40.82215 2.08267-1.21032 12.27594 7.08751-2.08268 1.21032z" fill="#40545d"/></g><g><path d="m32.21889 13.87871 2.08267-1.21031-.09335 32.93058-2.08268 1.21032z" fill="#fff"/></g><g><path d="m33.64687 46.82889-2.08268 1.21032c-.34822.20237-.82902.17514-1.35675-.12955l2.08268-1.21032c.52772.30469 1.00852.33192 1.35675.12955z" fill="#40545d"/></g><g><path d="m33.64689 46.82889-2.08269 1.21032c.3448-.20037.55962-.62582.56133-1.22992l2.08268-1.21032c-.00172.6041-.21653 1.02955-.56132 1.22992z" fill="#fff"/></g><g><path d="m15.78598 4.39117 2.08267-1.21031-.09229 32.55499-2.08268 1.21032z" fill="#40545d"/></g><g><path d="m18.4255 1.95795c-.34191.19868-.55514.61975-.55685 1.22291-.61314.35631-1.22633.71257-1.83942 1.06896l-.24326.14137c.00171-.60316.21494-1.02424.55685-1.22292.6248-.36309 1.45786-.84722 2.08268-1.21032z" fill="#40545d"/></g><g><path d="m16.34281 3.16829 2.08267-1.21031c.3504-.20363.83596-.17369 1.36753.13321l-2.08268 1.21032c-.53156-.30691-1.01712-.33685-1.36752-.13322z" fill="#fff"/></g><g><path d="m17.71034 3.30151 2.08267-1.21032 1.05654.60999-2.08268 1.21032z" fill="#fff"/></g><g><path d="m18.76687 3.9115 2.08267-1.21032c.42136.24327.79781.77203.93486 1.31414.13704.54251.51349 1.07127.93485 1.31454l-2.08268 1.21032c-.42136-.24327-.79781-.77203-.93485-1.31454-.13704-.54212-.51349-1.07087-.93485-1.31414z" fill="#fff"/></g><g><path d="m28.75074 8.11825-2.08269 1.21033c-.06864.03988-.16415.0344-.26297-.02265l2.08268-1.21032c.09882.05706.19433.06253.26298.02264z" fill="#40545d"/></g><g><path d="m20.63658 6.54018 2.08268-1.21032 6.72912 3.88506-2.08268 1.21031z" fill="#fff"/></g><g><path d="m23.68933 5.32524.00001.00001c-.69423.40344-1.38846.80689-2.08268 1.21032 0 0-.00001-.00001-.00001-.00001-.20124-.11619-.36424-.39133-.36359-.62264.00033-.11491.04097-.19578.10645-.23383l2.08266-1.21031c-.06548.03805-.10612.11892-.10644.23383-.00065.23129.16235.50644.3636.62263z" fill="#40545d"/></g><g><path d="m23.68934 5.32524c.09885.05707.18974.063.25542.02484l-2.08268 1.21033c-.06567.03815-.15656.03222-.25541-.02485.69421-.40343 1.38844-.80688 2.08267-1.21032z" fill="#40545d"/></g><g><path d="m21.34953 5.67908 2.08266-1.21031c.06636-.03857.15822-.03318.2595.0253l-2.08267 1.21032c-.10128-.05848-.19314-.06387-.25949-.02531z" fill="#56707b"/></g><g><path d="m22.4312 6.30272 2.08267-1.21031c-.06641.03859-.10612.1226-.10646.24215-.00064.22386.15608.49537.36992.61883l-2.08267 1.21032c-.21384-.12346-.37055-.39497-.36992-.61883.00033-.11955.04005-.20356.10646-.24216z" fill="#40545d"/></g><g><path d="m22.43122 6.30271 2.08266-1.21032c.06625-.03849.15903-.03182.26579.02982l-2.08267 1.21032c-.10676-.06164-.19954-.06831-.26578-.02982z" fill="#56707b"/></g><g><path d="m22.69465 7.16371 2.08267-1.21032 3.71044 2.14222-2.08268 1.21032z" fill="#40545d"/></g><g><path d="m22.697 6.33253 2.08268-1.21031 3.71045 2.14222-2.08268 1.21032z" fill="#56707b"/></g><g><path d="m30.15086 9.28227-2.08268 1.21032c-.18287.10627-.43502.08706-.70248-.06735l2.08268-1.21032c.26745.15441.5196.17362.70248.06735z" fill="#fff"/></g><g><path d="m30.14803 9.28022-2.08269 1.21032c.10569-.06142.19066-.16442.24591-.30831l2.08268-1.21032c-.05525.14389-.14023.2469-.2459.30831z" fill="#40545d"/></g><g><path d="m28.54097 9.89379 2.08267-1.21031c-.10074.05853-.18022.15526-.22972.28843l-2.08268 1.21032c.04951-.13317.12899-.2299.22973-.28844z" fill="#40545d"/></g><g><path d="m28.54377 9.89587 2.08267-1.21031c.18628-.10826.43769-.087.70671.06832l-2.08268 1.21032c-.26901-.15531-.52043-.17657-.7067-.06833z" fill="#fff"/></g><g><path d="m29.25047 9.9642 2.08267-1.21032 1.06283.61363-2.08268 1.21031z" fill="#fff"/></g><g><path d="m30.31329 10.57782 2.08267-1.21032c1.05025.60636 1.90906 2.07963 1.9056 3.30089l-2.08268 1.21032c.00347-1.22126-.85534-2.69453-1.90559-3.30089z" fill="#fff"/></g><g><path d="m30.31536 9.84075c1.41502.81696 2.55587 2.7857 2.55126 4.41195l-.09336 32.93058c-.00463 1.63331-1.1529 2.2804-2.56792 1.46344l-12.27592-7.08752c-1.59738-.92225-2.8824-3.14816-2.8772-4.98339l.09229-32.55499c.00461-1.62625 1.14661-2.27698 2.5679-1.45639zm1.81015 36.96855.09336-32.93058c.00346-1.22127-.85535-2.69453-1.9056-3.30089l-1.06282-.61363c-.42136-.24327-.79955-.15767-.9392.21803-.15231.39665-.5305.48265-.94557.24301l-6.72912-3.88506c-.42136-.24327-.79781-.77202-.93484-1.31452-.13706-.54214-.51352-1.07089-.93487-1.31416l-1.05653-.61c-1.05025-.60636-1.92088-.1316-1.92434 1.08967l-.09229 32.55499c-.00401 1.41612 1.00522 3.16434 2.23782 3.87598l12.27593 7.08751c1.05024.60637 1.91463.11384 1.91807-1.10035m-9.42851-40.47675c-.21384-.12346-.3716-.02645-.37227.21233-.00063.22386.15608.49537.36992.61883l3.71043 2.14222c.18867.10893.36527.02985.3659-.19401.00068-.23877-.17488-.52822-.36355-.63715zm-1.08799-.62816c-.20124-.11619-.36529-.02281-.36594.20852-.00066.23131.16234.50645.36359.62264.19497.11257.35898.02622.35963-.20509.00065-.23132-.16231-.5135-.35728-.62607" fill="#485f69"/></g><g><path d="m30.31329 10.57782c1.05025.60636 1.90906 2.07963 1.9056 3.30089l-.09336 32.93059c-.00344 1.21421-.86783 1.70672-1.91808 1.10036l-12.27593-7.08751c-1.23262-.71165-2.24184-2.45986-2.23782-3.87598l.09229-32.55499c.00346-1.22126.8741-1.69603 1.92434-1.08967l1.05654.60999c.42136.24327.79781.77203.93485 1.31414.13704.54251.5135 1.07127.93485 1.31454l6.72912 3.88506c.41507.23964.79326.15365.93291-.22165.15231-.39705.5305-.48265.95186-.23938z" fill="#fff"/></g></g></g><g><path d="m21.60902 5.70439c.19496.11256.35793.39476.35728.62607s-.16468.31765-.35964.20509c-.20124-.11619-.36424-.39133-.36359-.62265.00066-.23131.16471-.3247.36595-.20851z" fill="#56707b"/></g><g><path d="m26.40745 8.47476c.18867.10893.36422.39839.36355.63715-.00063.22387-.17723.30294-.3659.19401l-3.71045-2.14222c-.21383-.12345-.37053-.39496-.3699-.61883.00068-.23876.15843-.33579.37226-.21234z" fill="#56707b"/></g><g><path d="m34.28263 10.677-2.06716 1.24039c.0279.05242.05832.10244.08266.15583.35459.70893.57126 1.4775.57126 2.17682l-.09848 32.92878c0 .63005-.16743 1.10284-.45312 1.41787-.03938.03944-.07876.07888-.11819.1087-.0591.04906-.10834.0885-.16743.11832l2.07834-1.20192c.0591-.03944.11819-.07888.16743-.11832.0493-.03944.08868-.0784.12806-.11783.28569-.31551.44326-.78829.45312-1.40873l.08868-32.9384c0-.69931-.20687-1.46788-.56146-2.17682-.03457-.06348-.06998-.12408-.10371-.18469z" fill="#40545d"/><path d="m34.20905 10.54618c-.0591-.11832-.13792-.23615-.20687-.34437-.0591-.08898-.1182-.16785-.16743-.23663-.41375-.56127-.90625-1.02443-1.43813-1.33946l-12.59815-7.26968c-.6107-.35447-1.17216-.43334-1.60556-.28569h-.00986c-.06896.02982-.14778.05964-.21673.0986-.62056.36457-1.45778.84745-2.07834 1.21153.06896-.03944.13792-.06878.21673-.09812.4432-.14814.9948-.06926 1.60556.28569l12.60801 7.2692c.53188.31503 1.02438.77819 1.42826 1.32937.0591.07888.1182.15775.16743.24625.07882.1087.14771.22701.21667.34485.02994.05002.05615.10629.08483.15968l2.06716-1.24039c-.02398-.04281-.04496-.08562-.07358-.13083z" fill="#56707b"/></g></g><g><g enable-background="new"><g><path d="m34.10902 16.6214c-.21842.1261-.394.43015-.39328.68126l.00542 3.06274c.00072.25359.17744.35439.39586.22828s.39399-.4303.39328-.68389l-.00542-3.06274c-.00072-.25111-.17744-.35176-.39586-.22565z" fill="#9aa1a5"/></g></g><g enable-background="new"><g fill="#cfd8dd"><path d="m34.40043 21.29687c-.07358-.04041-.1729-.03682-.27958.02946-.2207.12501-.39729.43036-.3936.68416l.00368 3.06229c0 .12501.04414.20961.11403.2538l-.2575-.15088c-.06989-.04419-.11404-.12879-.11404-.2538l-.00736-3.06229c0-.2538.17659-.55914.3936-.68416.11036-.06628.20968-.06987.27958-.02946z"/><path d="m33.57644 20.4692c-.06989-.04041-.11403-.12878-.11403-.2538l-.00737-3.06229c0-.2538.17656-.55537.39361-.68416.11035-.06251.20968-.06628.28323-.02569l.2575.1507c-.06989-.04041-.1692-.03682-.27957.02569-.2207.12878-.39359.43054-.39359.68434l.00366 3.06229c0 .12501.04414.21321.11772.25362z"/></g><g><path d="m34.11909 21.32503c-.21842.1261-.39399.43015-.39328.68389l.00542 3.06275c.00071.25096.17743.35175.39585.22565.21842-.12611.394-.4303.39328-.68126l-.00542-3.06274c-.0007-.25375-.17743-.35439-.39585-.22829z" fill="#9aa1a5"/></g></g></g></g><g><g><path d="m18.38666 22.17956 1.18207.68247c-.08418.13886-.13221.32371-.13285.54933-.0001.03533.00135.07096.00356.10705l-1.44326-.83326c-.07311-.04221-.12777-.13682-.12753-.22086l.00124-.43585c.00022-.07862.05525-.11533.12836-.07312z" fill="#40545d"/></g><g enable-background="new"><g><path d="m21.67824 24.07996c.083.23539.12986.47502.12922.70064-.0001.03533-.00176.06917-.00418.10258-.04873.67494-.56053.93328-1.18319.57379-.627-.362-1.1359-1.20965-1.18066-1.93856-.00221-.03609-.00366-.07173-.00356-.10705.00064-.22562.04868-.41047.13285-.54933.19804-.32651.59735-.3967 1.05909-.13011.45855.26473.85518.79446 1.05043 1.34804zm-1.05667.8574c.40212.23216.72762.04145.72893-.4206.00133-.46747-.32205-1.02768-.72417-1.25984-.40669-.2348-.73218-.04922-.73351.41825-.0013.46206.32206 1.02739.72875 1.26219" fill="#b0b8bc"/></g><g><path d="m25.9949 26.57218.76155.43968c-.08405.13894-.13207.32379-.13271.54941-.0001.03533.00134.07095.00355.10704l-4.824-2.78514c.00242-.03341.00408-.06726.00418-.10258.00064-.22562-.04622-.46525-.12922-.70064z" fill="#40545d"/></g><g><path d="m28.86596 28.22979c.08312.23545.12997.47508.12933.7007-.0001.03533-.00176.06917-.00417.10259-.04874.67493-.56075.93316-1.18776.57115-.62265-.35948-1.13134-1.20701-1.17609-1.93592-.00221-.03609-.00365-.07172-.00355-.10704.00064-.22562.04866-.41047.13271-.54941.19776-.32667.59612-.39741 1.05465-.13268.46176.26659.85935.79687 1.05488 1.35061zm-1.06112.85484c.40669.2348.73219.04409.7335-.41796.00133-.46747-.32205-1.02768-.72874-1.26248-.40212-.23216-.72761-.04659-.72894.42089-.0013.46205.32206 1.02738.72418 1.25955" fill="#b0b8bc"/></g><g><path d="m27.80961 27.40419c.40669.2348.73007.79501.72874 1.26248-.00131.46206-.32682.65277-.7335.41797-.40212-.23216-.72548-.7975-.72417-1.25956.00132-.46748.32682-.65306.72893-.42089z" fill="#9aa1a5"/></g><g><path d="m28.44718 22.07669 1.65348 4.42575-.00691 2.4362-1.22779-.70886c-.19553-.55374-.59312-1.08401-1.05487-1.35061-.45852-.26473-.85688-.19399-1.05465.13268l-.76155-.43968.01673-5.90165zm1.20611 4.00968.04136-.0603-1.34003-3.58735c-.03634-.10002-.10474-.18689-.17787-.2291l-1.91463-1.10541-.00856 3.01934z" fill="#485f69"/></g></g><g><path d="m20.62634 23.25692c.40212.23216.7255.79237.72417 1.25984-.00131.46206-.32682.65277-.72893.42061-.40669-.2348-.73005-.80014-.72874-1.2622.00132-.46747.32682-.65305.7335-.41825z" fill="#9aa1a5"/></g><g><path d="m25.64095 19.0364c.20563.11872.37416.40549.37349.64164l-.01954 6.89413-4.31665-2.49222c-.19525-.55358-.59189-1.0833-1.05042-1.34804-.46174-.26658-.86105-.1964-1.05909.13011l-1.18207-.68247.01591-5.61308 4.53296 2.6171.39991-.60513-4.9305-2.84663.00126-.4464c.00067-.23615.16572-.33033.37135-.21161z" fill="#ee5550"/></g><g><path d="m28.17677 22.20962c.07311.04221.14152.12907.17785.22909l1.34004 3.58737-.04136.06029-3.39972-1.96283.00856-3.01933z" fill="#78cfe2"/></g><g><path d="m30.25825 29.03362c.07311.04221.12775.14225.12753.22086l-.00124.43585c-.00024.08404-.05525.11533-.12836.07312l-1.26506-.73038c.00241-.03342.00407-.06726.00417-.10259.00064-.22562-.04622-.46525-.12933-.7007l1.22779.70886z" fill="#40545d"/></g><g><path d="m23.33545 18.57845-.39991.60514-4.53296-2.6171.00237-.83467z" fill="#fee182"/></g></g><g><g><path d="m17.9181 10.23809c.12352.21092.18498.42091.18439.62842-.00059.2075-.06304.34595-.18735.41371-.12563.06707-.27874.04848-.46197-.05731-.18192-.10503-.33595-.26376-.45947-.47468-.12352-.21084-.18498-.42083-.18439-.62833.00059-.20751.06304-.34596.18735-.41379.12431-.06784.27874-.0484.46065.05663.18324.10578.33595.26367.46079.47535zm-.15542.79483c.08465-.05131.12717-.1466.12758-.28894.0004-.14242-.04144-.28791-.12552-.43515-.08277-.14788-.18544-.25721-.30804-.32799-.12127-.07002-.22424-.07942-.30889-.02819-.08333.05058-.12586.14736-.12626.28978-.0004.14233.04144.28634.12421.43431.08408.14872.18676.25805.30804.32807.12259.07077.22555.08017.30888.02811" fill="#485f69"/></g><g><path d="m18.83649 10.9155.00067.22799-.01055-.00609c-.09623-.05556-.17015-.06186-.21914-.01729-.0503.04381-.07431.12856-.07465.25126l-.0013.46046-.19773-.11416.00305-1.07549.19773.11416-.00061.21663c.03183-.04986.07417-.08007.12966-.09051.05417-.01269.11223-.00197.17287.03304z" fill="#485f69"/></g><g><path d="m19.73536 11.02479.19773.11416-.00425 1.49962-.19773-.11416.00046-.16206c-.07284.07632-.17846.07444-.3182-.00624-.11864-.0685-.22132-.17931-.30935-.33179-.08671-.15329-.13115-.31394-.13068-.4806.00047-.16658.04699-.27324.13691-.3215.08993-.04818.19816-.03425.32339.03805.12391.07154.22393.18995.30004.35531zm-.07991 1.17376c.05291-.03472.08084-.10355.08113-.20505.00029-.10297-.02715-.20385-.07968-.30389-.05385-.09941-.12099-.17307-.19876-.21797-.07909-.04566-.14642-.04964-.20198-.01339-.05688.03688-.0848.10579-.0851.20876-.00029.10297.02715.20385.08497.30094.0565.09781.12496.16919.20141.21333.07778.0449.14378.05116.19801.01727" fill="#485f69"/></g><g><path d="m21.08529 12.71152-.00044.1545-.73293-.42316c.00373.08101.03519.1614.09174.24262.05787.08041.12371.14271.19753.18533.116.06697.20576.07632.26664.02652l.11296.20779c-.10184.06113-.23251.0448-.39466-.04882-.13182-.07611-.24241-.19-.3344-.34321-.09199-.15329-.13775-.3147-.13727-.4844.00048-.16814.04832-.27551.1422-.32149.09388-.04589.20474-.03045.33129.04261.12787.07382.23584.1802.32391.31904.0894.1396.13388.28661.13343.44267zm-.73287-.44592.5352.309c.00026-.09089-.02328-.17272-.07324-.25013-.04864-.07664-.10921-.1359-.18171-.17776-.07118-.0411-.13717-.05491-.19399-.03611-.05814.01648-.08601.06871-.08626.155" fill="#485f69"/></g><g><path d="m21.80119 12.62717.00199.22875-.01055-.00609c-.09755-.05632-.17147-.06262-.22045-.01805s-.0743.12856-.07465.25126l-.0013.46046-.19642-.1134.00305-1.07549.19642.1134-.00061.21663c.03183-.04986.07549-.07931.12965-.09051.05416-.01269.11223-.00197.17287.03304z" fill="#485f69"/></g><g><path d="m23.44012 13.43685c.11829.19119.17713.39662.17651.61629-.00062.21959-.05911.35876-.17417.42132-.11505.06108-.29187.02419-.52784-.11205l-.40733-.23517.004-1.41177.42183.24354c.22015.1271.38872.28517.507.47784zm-.15277.79331c.07933-.03611.11921-.13293.11966-.29203.00091-.32264-.15945-.57755-.48242-.76401l-.20696-.11949-.00274.96792.23069.13319c.14765.08523.26245.11052.34177.07442" fill="#485f69"/></g><g><path d="m24.72492 14.81286-.00044.1545-.73293-.42316c.00373.08101.03519.1614.09306.24338.05655.07965.12239.14195.19621.18457.11732.06774.20576.07632.26796.02728l.11165.20703c-.10184.06113-.23252.04479-.39466-.04882-.1305-.07535-.24241-.19-.3344-.34321-.09199-.15329-.13643-.31394-.13595-.48364.00048-.16814.047-.27628.14087-.32226.09388-.04589.20475-.03045.33261.04338.12655.07306.23452.17944.32391.31904.08808.13884.13255.28585.13211.44191zm-.73287-.44592.53651.30976c.00026-.09089-.0246-.17348-.07323-.25013-.04996-.07741-.11052-.13666-.18171-.17776-.0725-.04186-.13716-.05491-.19531-.03687-.05682.01725-.08601.06871-.08626.155" fill="#485f69"/></g><g><path d="m25.1401 14.14521-.00425 1.49962-.19642-.1134.00425-1.49962z" fill="#485f69"/></g><g><path d="m25.42058 15.80923.00305-1.07549.19773.11416-.00305 1.07549z" fill="#485f69"/></g><g><path d="m25.5243 14.62048c-.03427-.01979-.06324-.05018-.0882-.09348-.02365-.04246-.03673-.08336-.03662-.12272.00011-.03945.01339-.06512.03719-.0787.02513-.0143.05417-.0112.08844.00859s.06324.05017.0882.0934c.02365.04098.03674.08187.03663.12132-.00011.03937-.01339.06504-.0372.0801-.02513.01438-.05417.01128-.08844-.00851z" fill="#485f69"/></g><g><path d="m26.75372 15.50166-.37874.85859-.2241-.12939-.37396-1.29316.20432.11797.28244.97633.28703-.64754z" fill="#485f69"/></g><g><path d="m27.77925 16.57628-.00044.1545-.73293-.42316c.00505.08177.03519.1614.09306.24338.05655.07965.12239.14195.19621.18457.11732.06774.20708.07709.26796.02728l.11165.20703c-.10053.06189-.23252.04479-.39334-.04806-.13182-.07611-.24373-.19076-.3344-.34321-.092-.15329-.13775-.3147-.13727-.48441.00048-.16814.047-.27628.14219-.3215.09388-.04589.20343-.03121.3313.04262.12655.07306.23452.17944.32391.31904.08807.13885.13255.28586.1321.44192zm-.73287-.44592.53652.30976c.00026-.09089-.02459-.17348-.07323-.25013-.04996-.07741-.10921-.1359-.18171-.17776s-.13717-.05491-.19399-.03611c-.05815.01649-.08734.06795-.08759.15424" fill="#485f69"/></g><g><path d="m28.49646 16.49269.00068.22799-.01055-.00609c-.09755-.05632-.17015-.06186-.21914-.01729-.0503.04381-.0743.12856-.07465.25126l-.0013.46045-.19773-.11416.00305-1.07549.19774.11416-.00061.21663c.03183-.04986.07417-.08008.12965-.09052.05416-.01268.11222-.00195.17286.03306z" fill="#485f69"/></g><g><path d="m29.56413 17.60678-.00044.1545-.73293-.42316c.00373.08101.03519.1614.09174.24262.05787.08041.12239.14195.19621.18457.11732.06774.20708.07708.26796.02728l.11296.20779c-.10184.06113-.23252.04479-.39466-.04882-.13182-.07611-.24241-.19-.3344-.34321-.092-.15329-.13775-.3147-.13727-.48441.00048-.16814.04832-.27551.14219-.3215.09388-.04589.20475-.03045.3313.04262.12787.07382.23584.1802.32391.31904.0894.13961.13388.28662.13343.44268zm-.73286-.44592.5352.309c.00026-.09089-.02328-.17272-.07323-.25013-.04864-.07664-.1092-.1359-.18171-.17776-.07118-.0411-.13716-.05491-.19399-.03611-.05816.01648-.08603.06871-.08627.155" fill="#485f69"/></g><g><path d="m30.48155 17.2291.19641.1134-.00425 1.49962-.19641-.1134.00046-.16206c-.07284.07631-.17847.07443-.3182-.00624-.11864-.0685-.22131-.17931-.30935-.33179-.08671-.15328-.13115-.31394-.13067-.4806.00047-.16658.04567-.274.13691-.3215.08992-.04818.19816-.03425.32339.03805.12391.07154.22393.18995.30005.35531zm-.08123 1.17301c.05423-.03396.08216-.10279.08244-.20429.00029-.10297-.02715-.20384-.081-.30466-.05254-.09865-.11967-.17231-.19744-.21721-.07909-.04566-.14642-.04964-.20198-.01339-.05688.03688-.0848.10579-.08509.20876s.02715.20385.08497.30094c.0565.09781.12364.16843.20141.21333.07778.04491.14378.05116.19669.01652" fill="#485f69"/></g></g><g><g><g enable-background="new"><g><path d="m30.04462 35.57623-.0043 2.72592c-.0043.2574-.09016.42927-.2275.5064l-.90578.528c.13737-.08154.22323-.24901.22323-.50662l.00859-2.72571c0-.47664-.36919-1.12055-.78987-1.36516l-10.46136-6.03978c-.22753-.12891-.42068-.1375-.56235-.06016l.91006-.5238c.13737-.08154.33484-.07294.55805.05596l10.46566 6.03979c.4164.24482.78987.88873.78557 1.36516z" fill="#61c4f0"/></g><g><path d="m28.3493 34.74011c.41933.2421.79086.88566.78951 1.36424l-.00772 2.72424c-.00152.53548-.37531.69173-.79465.44963l-10.46147-6.03993c-.46319-.26742-.78828-.82718-.78677-1.36266l.00772-2.72423c.00136-.47859.32872-.71864.79191-.45122z" fill="#269dd6"/></g></g></g><g><g><path d="m19.31311 30.49154-.00086.30261-.5176-.29884-.00469 1.65602-.28714-.16578.00469-1.65602-.5176-.29884.00086-.30261z" fill="#fff"/></g><g><path d="m20.27754 31.49455.00093.31837-.01463-.00845c-.13534-.07814-.23608-.0857-.30586-.02493-.06796.06172-.10309.1762-.10357.34644l-.00181.63885-.27251-.15734.00422-1.49001.27252.15734-.00085.30056c.04416-.0693.10473-.11004.17989-.12775.07696-.01448.15753.00051.24167.04692z" fill="#fff"/></g><g><path d="m21.44585 32.30385c.09668.14421.14384.31032.1433.50165l-.00272.96038-.24874-.14361.00056-.19748c-.1065.08584-.25119.07596-.43226-.02858-.13351-.07708-.24496-.18562-.33432-.32561-.08755-.13689-.13293-.28095-.13252-.42804.00042-.1472.04828-.22897.14359-.2476.09348-.01764.22161.01842.38256.11134l.35299.2038.00015-.05462c.00056-.19965-.09426-.3533-.2863-.46417-.12071-.06969-.24522-.0911-.37537-.06516l-.12199-.26618c.1577-.05422.33714-.02223.5365.09287.15365.08869.2779.20463.37457.35101zm-.13035.74988.00036-.1261-.30727-.1774c-.1957-.11299-.29466-.09852-.29507.04435-.0002.07149.02341.14199.07269.20825.04745.06531.11689.12437.20285.174.08779.05069.16285.06661.22886.04796.06416-.01767.0973-.07437.09758-.17106" fill="#fff"/></g><g><path d="m22.58568 32.82716c.1957.11298.36008.28578.49499.51944l-.16159.13409c-.11125-.17581-.22449-.29806-.33788-.36353s-.21228-.07837-.29666-.04074c-.08437.03763-.12676.12679-.12715.26339s.04135.27855.12338.4207c.08204.14204.18432.24952.30503.31921.12254.07075.23611.07317.34439.00731l.16038.29462c-.15781.09208-.34097.07895-.54764-.04037-.18107-.10454-.3345-.26473-.46578-.48157-.12946-.21579-.19295-.43769-.1923-.66459.00064-.22701.06884-.37494.20459-.43978.13573-.06471.30237-.04011.49624.07182z" fill="#fff"/></g><g><path d="m23.65174 32.87642-.00346 1.22103.52853-.32847.35116.20275-.49549.3054.52784 1.20573-.33287-.19219-.38223-.87325-.19818.11502-.00119.42244-.27435-.15839.00589-2.07847z" fill="#fff"/></g><g><path d="m24.78894 35.61485.00422-1.49001.27252.15733-.00423 1.49001z" fill="#fff"/></g><g><path d="m24.93284 33.96759c-.04755-.02745-.08773-.07166-.12237-.12958-.03281-.05892-.05097-.11576-.05082-.17038.00015-.05461.01858-.09035.05161-.11124.03485-.01779.07515-.01554.1227.01191s.08773.07167.12237.12958c.03281.05891.05097.11577.05081.17038-.00015.05462-.01858.09035-.05161.11125-.03484.01779-.07514.01553-.12269-.01192z" fill="#fff"/></g><g><path d="m26.16678 34.89471c.14632.08448.26322.20462.35438.36038.08933.15265.13463.3283.13408.52373l-.00258.91204-.27434-.15839.00232-.81752c.00078-.27524-.0976-.46898-.29512-.58302-.09511-.05491-.17751-.06663-.24721-.03526-.0697.03125-.10475.11631-.10514.25496l-.00229.80703-.27434-.15839.00422-1.49001.27434.15839-.00077.27114c.04415-.06507.10472-.10377.18167-.10982.07695-.00821.16116.013.25078.06474z" fill="#fff"/></g><g><path d="m27.96275 35.9548.27434.15839-.00369 1.30085c-.00075.2627-.06349.4244-.18823.48497-.12474.05852-.28588.03286-.47975-.07906-.1957-.11299-.37107-.28585-.5298-.51637l.13054-.1647c.12588.18425.25375.31279.38361.38776.12985.07497.23238.09636.30759.0619.0752-.03242.11396-.13213.11443-.30019l.00054-.19133c-.04049.06502-.09921.10067-.17435.10983-.07697.00821-.16117-.01516-.25628-.07007-.17192-.09926-.31255-.24989-.42373-.4509-.10934-.202-.16372-.40608-.16314-.612.00058-.20387.05594-.34459.16607-.41988.11197-.07435.25299-.06237.42491.03689s.3107.26149.41631.48453zm-.10528.9496c.06792-.04701.10297-.13413.10333-.2624.00036-.12816-.03408-.2554-.10333-.38378-.06924-.13054-.15873-.22641-.2703-.29082-.10974-.06335-.19948-.0688-.26559-.01435-.0661.05229-.09932.14046-.09967.26235-.00035.12405.03227.24807.09786.37434.0656.12638.15508.22225.26665.28666.11156.06441.2013.07407.27105.028" fill="#fff"/></g></g></g></g></svg>