<svg id="Layer_1" enable-background="new 0 0 52 52" height="512" viewBox="0 0 52 52" width="512" xmlns="http://www.w3.org/2000/svg"><g><g><g fill="#363a44"><path d="m32.05872 43.71066 4.84777-3.10941-3.43167-4.90474c-.72718-.41335-1.37777-.45161-1.84477-.18373l-3.23772 1.88303c.46686-.27557 1.12521-.22962 1.8447.18367 1.43135.82671 2.58713 2.82444 2.5795 4.47015 0 .81908-.29088 1.39315-.75781 1.66103z"/><path d="m8.45374 29.75719 4.28844-2.75065-3.03573-4.33884c-.64328-.36566-1.21881-.39951-1.63192-.16254l-2.86416 1.66577c.41299-.24377.99539-.20313 1.63186.16248 1.2662.73132 2.28863 2.49856 2.28189 3.9544-.00001.72457-.25733 1.23242-.67038 1.46938z"/><path d="m14.24627 33.12177 4.28844-2.75065-3.03573-4.33884c-.64328-.36566-1.21881-.3995-1.63192-.16253l-2.86416 1.66577c.41299-.24377.99539-.20313 1.63186.16247 1.2662.73132 2.28863 2.49856 2.28189 3.9544-.00001.72457-.25733 1.23241-.67038 1.46938z"/></g><g><g enable-background="new"><path d="m23.91007 36.68889-.00478 1.69168c-.00017.05537-.01019.10252-.02809.14048-.00006.00006-.00006.00006-.00006.00011-.01796.03793-.04386.06668-.07564.08519v-.00003.00003l12.9667-10.02073c.02464-.01433.0457-.0348.06228-.06093.00478-.00748.00915-.01546.01313-.02386.00011-.00011.00011-.00029.00023-.0004 0-.00003 0-.00009 0-.00011.00299-.0063.00576-.01287.00835-.01972.00219-.00593.0042-.01206.00604-.01836.00173-.00578.00328-.01171.00466-.01781.00133-.00558.00248-.01131.00346-.01718.00098-.00541.00179-.01094.00248-.01655.00069-.0055.00127-.01108.00172-.01678.00046-.00535.00081-.01079.00104-.01632.00023-.0055.00035-.01108.00035-.01675.00006-.00032.00006-.00066.00006-.00101l.00478-1.69168z" fill="#3f434f"/><g><path d="m23.9101 36.6889-.0048 1.69168c-.00064.22485-.16376.31432-.35944.20134l-6.17181-3.5633c-.1987-.11472-.35776-.3902-.35713-.61505l.0048-1.69168z" fill="#474b59"/></g><g><path d="m20.14808 34.51616 12.96666-7.48477 4.66495.15735-12.96667 10.02073z" fill="#d6b218"/></g><g><g><path d="m2.00211 18.3751 12.96667-7.48476 23.1395 13.45033-12.96667 7.48476z" fill="#f1c40f"/><g><g><path d="m2.94281 18.37375 3.80084 2.19439 8.22621-4.72968v-4.40305z" fill="#e5bd13"/><path d="m14.96986 11.43541v4.40305l20.6203 11.99598 2.32986-3.0579z" fill="#d6b218"/></g><path d="m35.59016 27.83444-20.6203-11.99598-8.22621 4.72968 20.62065 11.99595z" fill="#c6a51a"/></g></g><g><path d="m25.14338 31.82524-.33012 5.38502-4.66352-2.69249-10.4023-6.05937-5.78114-3.36683-1.9663-1.14585v-5.56894z" fill="#d6b218"/></g></g></g></g><g><g><g><g><path d="m27.99664 12.49985-.04374 11.45419-6.77726 3.93851.04374-11.45419z" fill="#d4d6d6"/></g><path d="m21.21938 16.43836-.04374 11.45419-8.87613-5.12464.04374-11.45419z" fill="#e0e2e2"/><g><g><path d="m13.22378 13.03082-.28123-.16235-.03991 5.13637.28359-.14261z" fill="#d4d6d6"/><path d="m13.18623 17.86223-.28359.14261v.00005l7.67413 4.43041.00236-.30502z" fill="#ecf0f1"/><path d="m13.22378 13.03082-.03755 4.83141 7.3929 4.26805.03713-4.83141z" fill="#c4c6c6"/></g><g><path d="m13.22378 19.18662-.28123-.16236-.03991 2.88308.28359-.14261z" fill="#d4d6d6"/><path d="m13.18623 21.76473-.28359.14261v.00006l7.67413 4.4304.00236-.30502z" fill="#ecf0f1"/><path d="m13.22378 19.18662-.03755 2.57811 7.3929 4.26805.03713-2.57811z" fill="#c4c6c6"/></g></g><g><g><path d="m27.04347 14.24646.28124-.16235.0399 5.13637-.28359-.14261z" fill="#e0e2e2"/><path d="m27.08102 19.07787.28359.14261v.00005l-5.51746 3.18525-.00236-.30501z" fill="#ecf0f1"/><path d="m27.04347 14.24646.03755 4.83141-5.23623 3.0229-.03712-4.83141z" fill="#c4c6c6"/></g><g><path d="m27.04347 20.40226.28124-.16236.0399 2.88309-.28359-.14261z" fill="#e0e2e2"/><path d="m27.08102 22.98038.28359.14261v.00005l-5.51746 3.18525-.00236-.30502z" fill="#ecf0f1"/><path d="m27.04347 20.40226.03755 2.57812-5.23623 3.02289-.03712-2.57812z" fill="#c4c6c6"/></g></g><path d="m27.99664 12.49985-6.77726 3.93851-8.87613-5.12464 6.77726-3.93851z" fill="#ecf0f1"/><g><path d="m19.12117 8.07117v.32172l2.93729 1.69564.27777-.16141z" fill="#c4c6c6"/><path d="m13.54484 11.31196.27771.16031 5.29862-3.07938v-.32172z" fill="#d4d6d6"/><path d="m22.05846 10.08853-2.93729-1.69564-5.29862 3.07938 2.93692 1.69563z" fill="#e0e2e2"/></g><g><path d="m23.12105 10.37809v.32172l2.93729 1.69563.27776-.16141z" fill="#c4c6c6"/><path d="m17.54471 13.61888.27771.1603 5.29863-3.07937v-.32172z" fill="#d4d6d6"/><path d="m26.05834 12.39544-2.93729-1.69563-5.29863 3.07937 2.93693 1.69564z" fill="#e0e2e2"/></g></g><g><g><g><g><g><path d="m22.79229 19.10127.22315.42468-.1382.0798-.30497.17479z" fill="#3f434f"/></g></g></g><g><g><g><path d="m22.87724 19.60575.00238.84011-.16676.09629-.00238-.8401z" fill="#3f434f"/></g></g></g><g><g><g><path d="m23.70563 20.04383.00051.17984-1.15132.66481-.00051-.17983z" fill="#3f434f"/></g></g></g><g><g><g><path d="m25.80966 17.40924.0017.59857c.00054.18902-.10867.40855-.25365.51987l.00153.5395c.10169-.04689.17836-.04251.17851.01394l-.44888.2592c-.00016-.05644.07623-.1492.17785-.21971l-.00153-.5395c-.06628.02644-.1235.02004-.1682-.00806-.05274-.03923-.08727-.11264-.08756-.21766l-.0017-.59857z" fill="#3f434f"/></g></g></g><g><g><g><path d="m23.54428 19.22058.00238.8401-.16676.0963-.00239-.8401z" fill="#3f434f"/></g></g></g><g><g><g><path d="m23.46047 18.71544.22201.42534-.1382.0798-.30383.17413z" fill="#3f434f"/></g></g></g></g><g><g><g><g><path d="m24.58594 19.91604c-.03121-.01722-.0495-.05274-.0495-.09741l-.00484-1.79747c-.00108-.07857.05488-.1749.12376-.21527l1.56152-.90142c.03767-.02153.07587-.02422.10654-.007.03067.01776.04843.05382.04843.09902l.00538 1.79747c0 .07857-.05435.1749-.12107.21365l-1.56152.90142c-.02152.01238-.04358.01884-.06403.01884-.01615.00001-.03122-.00376-.04467-.01183zm1.66429-2.95452-1.56152.90142c-.04843.02798-.09147.10333-.09147.15822l.00484 1.79747c.00054.01991.00646.03444.01614.04036.01022.0043.02529.00323.04305-.007l1.56152-.90142c.04735-.02745.08878-.10064.08878-.15661l-.00538-1.79747c0-.02045-.00592-.03606-.0156-.04198-.00323-.00162-.00699-.00269-.0113-.00269-.00807.00001-.01829.00324-.02906.0097z" fill="#3f434f"/></g></g></g><g><g><g><path d="m22.26033 21.25768c-.03067-.01776-.04789-.05328-.04789-.09687l-.00484-1.79747c-.00108-.07911.05489-.17598.12376-.21527l1.56152-.90196c.03767-.02206.07533-.02476.10654-.00646.03121.01776.04843.05382.04843.09849l.00538 1.79801c0 .08019-.05327.17437-.12161.21365l-1.56152.90142c-.02099.01238-.04305.0183-.06349.0183-.01668 0-.03229-.00377-.04628-.01184zm1.66591-2.95452-1.56152.90196c-.04843.02798-.09147.10279-.09147.15822l.00484 1.79747c0 .01937.00592.0339.0156.03982.01022.00484.02637.00323.04358-.00646l1.56098-.90142c.04735-.02745.08932-.10064.08932-.15661l-.00538-1.79801c0-.02045-.00592-.03552-.0156-.04144-.00323-.00162-.00753-.00269-.01184-.00269-.00806.00001-.01774.00324-.02851.00916z" fill="#3f434f"/></g></g></g></g></g></g></g><g><g enable-background="new"><g><path d="m24.80807 37.21274-.33234-.19314-.04169-15.03711.33235.19313z" fill="#d6b218"/></g><g><path d="m24.76639 22.17562-.33235-.19313 11.75192-6.78497.33234.19314z" fill="#cfa90d"/></g><g><path d="m36.5183 15.39066.04168 15.03711-11.75191 6.78497-.04168-15.03712z" fill="#ba980c"/></g></g></g><g><g><g enable-background="new"><g><path d="m32.24384 33.54309 10.94687-6.36163c.15655.42272.43884.81063.76828 1.04782l-10.94687 6.36162c-.32945-.23719-.61174-.62509-.76828-1.04781z" fill="#e74c3c"/></g><path d="m36.62423 18.6335c-.13947-.08052-.26577-.088-.35701-.03499l-10.94691 6.36162c.09123-.05301.21759-.0455.357.03499l3.6983 2.13522 10.94691-6.36162z" fill="#e74c3c"/><g><path d="m30.35371 28.36979 10.94688-6.36163 1.89012 5.1733-10.94687 6.36163z" fill="#c44"/><path d="m30.91416 28.5726 10.14468-5.89542 1.57167 4.30145-10.14468 5.89542z" fill="#84dbff"/></g><g><path d="m38.66509 42.83974 10.94687-6.36163c.5645.79586.45786 1.31505.03315 1.69761l-10.94688 6.36163c.42472-.38256.53135-.90175-.03314-1.69761z" fill="#5b5e71"/></g><g><path d="m29.37565 27.13035 10.94687-6.36163c.40833.23575.78381.71438.97806 1.23944l-10.94687 6.36163c-.19425-.52506-.56972-1.00369-.97806-1.23944z" fill="#e74c3c"/></g><g><path d="m33.01212 34.5909 10.94687-6.36163 4.3849 3.15268-10.94688 6.36163z" fill="#e74c3c"/></g><g><path d="m29.37565 27.13035c.40833.23575.78381.71438.97806 1.23944l1.89012 5.1733c.15655.42272.43884.81063.76828 1.04782l4.3849 3.15267c.2099.15139.40203.38988.52399.65836.25842.5621.41412 1.28311.52287 2.08778.10307.73761.16214 1.54044.22122 2.35003.56449.79586.45786 1.31505.03315 1.69761l-1.08703.08743-11.84746-6.84013c-.34417-.19871-.62326-.68211-.62214-1.07759l.03239-11.42514c.0009-.31841.22621-.4468.50333-.28681z" fill="#d8463f"/></g><g><path d="m37.39701 37.74358 10.94687-6.36163c.2099.1514.40203.38988.52399.65835.25842.5621.41412 1.28311.52287 2.08779.10307.73761.16214 1.54044.22122 2.35002l-10.94688 6.36163c-.05908-.80959-.11814-1.61242-.22121-2.35003-.10875-.80468-.26445-1.52568-.52287-2.08778-.12195-.26847-.31409-.50696-.52399-.65835z" fill="#c14242"/></g><g><path d="m48.8679 32.04029c-.12201-.26849-.31409-.50696-.52399-.65839l-10.9469 6.36163c.2099.15143.40204.38989.52399.65839.04016.08734.07367.18512.10907.27985l10.94684-6.36163c-.0354-.09473-.06885-.1925-.10901-.27985z" fill="#e74c3c"/><path d="m48.97691 32.32014-10.94684 6.36163c.19244.51495.32196 1.1283.41382 1.80792.10303.73761.16211 1.54047.22119 2.35004l10.9469-6.36163c-.05908-.80957-.11816-1.61243-.22125-2.35004-.0918-.67962-.22138-1.29297-.41382-1.80792z" fill="#c14242"/></g></g></g><g><path d="m26.41173 30.52332c-.20019-.1156-.3599-.39216-.35923-.62228l.0087-3.06019c.00022-.09764.01762-.18006.04405-.25245-.17053.05866-.2815.23301-.28228.50288l-.00864 3.06016c-.00067.23011.15899.50668.35929.6223l4.38856 2.53375c.20555.11864.35266.00739.35199-.20864-.03558-.00652-.07305-.01826-.11387-.04179z" fill="#e74c3c"/><path d="m29.39837 28.7599c-.12603-.357-.38243-.68178-.65947-.84168l-2.16924-1.25244c-.17711-.10224-.33693-.12126-.46441-.07737-.02643.07238-.04383.1548-.04405.25245l-.0087 3.06019c-.00067.23011.15904.50668.35923.62228l4.38856 2.53374c.04082.02353.07829.03527.11387.04179-.00022-.06112-.01026-.12932-.03658-.20465z" fill="#84dbff"/></g></g><path d="m9.75216 28.28865c0 .0613 0 .11317-.00472.16975l-5.78114-3.36683c.19335-1.16942 1.02799-1.69755 1.84375-1.69755.42912 0 .88179.13674 1.33917.4008 1.46184.83936 2.60294 2.81986 2.60294 4.49383z" fill="#c6a51a"/><path d="m6.83992 24.33305c1.2667.73133 2.28796 2.50022 2.28383 3.95575-.00413 1.45554-1.03206 2.04133-2.29876 1.31s-2.28796-2.50022-2.28383-3.95576c.00413-1.45553 1.03207-2.04132 2.29876-1.30999z" fill="#5b5e71"/><path d="m6.83786 25.06756c-.91336-.52734-1.65451-.10499-1.65751.94451-.00294 1.0495.73343 2.32496 1.64672 2.85223.91336.52735 1.65451.10492 1.65751-.94451.00293-1.04949-.73343-2.32495-1.64672-2.85223zm-.67599 2.37913c-.03873.00355-.08054-.00827-.12173-.03197-.08218-.04747-.16141-.14263-.20622-.25739-.06401-.16654-.02486-.31429.09119-.32139.03757-.00423.0791.00738.12009.03108.08197.04734.16196.1429.20459.25636.06721.16845.02814.3162-.08792.32331zm.0901-1.09602c-.04365.06469-.12521.06708-.20814.01913-.0401-.02309-.08054-.05799-.11715-.10328-.11558-.14447-.15376-.33314-.08901-.42912.04529-.06277.1248-.06619.20704-.01872.04112.0237.08293.06018.12145.10834.11566.14085.15378.33321.08581.42365zm.57755 2.04442c-.1319-.07616-.24093-.26504-.24052-.41661.00041-.15158.11018-.21046.24209-.13429.13197.07616.23778.2595.23737.41108-.00047.15157-.10697.21598-.23894.13982zm.00595-2.09271c-.1319-.07616-.24099-.26135-.24052-.41293.00041-.15158.11018-.21415.24209-.13798.1319.07616.23778.26319.23731.41477-.00042.15158-.10691.2123-.23888.13614zm.9902 2.00493c-.0431.06394-.12337.06701-.20629.01913-.04146-.02398-.08361-.06059-.12214-.10882-.11244-.13894-.15055-.3313-.08586-.42358.04529-.06271.1248-.06619.20704-.01871.04112.02377.08293.06018.12145.10841.11244.13893.15377.3332.0858.42357zm-.08416-.99301c-.03784.00232-.07869-.0097-.11886-.03292-.08327-.04809-.1638-.14406-.20909-.26005-.06394-.1666-.02486-.31436.08798-.32331.03866-.00362.08088.0084.12234.03238.08293.04789.16292.14345.20554.25691.06722.17214.02494.31436-.08791.32699z" fill="#ecf0f1"/><path d="m15.54415 31.65508c0 .06411-.00173.1265-.00518.18714l-5.78735-3.34245c.18368-1.19733 1.02405-1.73967 1.85229-1.73967.428 0 .88198.13342 1.33769.40026 1.4607.83865 2.60255 2.81743 2.60255 4.49472z" fill="#c4c6c6"/><path d="m12.63245 27.69763c1.2667.73133 2.28796 2.50022 2.28383 3.95575-.00413 1.45554-1.03206 2.04133-2.29876 1.31s-2.28796-2.50022-2.28383-3.95575c.00413-1.45554 1.03207-2.04133 2.29876-1.31z" fill="#5b5e71"/><path d="m12.63039 28.43214c-.91336-.52734-1.65451-.10499-1.65751.94451-.00294 1.0495.73343 2.32496 1.64672 2.85224.91336.52734 1.65451.10492 1.65751-.94451.00293-1.04951-.73343-2.32497-1.64672-2.85224zm-.67599 2.37912c-.03873.00355-.08054-.00826-.12173-.03197-.08218-.04748-.16141-.14263-.20622-.25739-.064-.16654-.02486-.31429.09119-.32139.03757-.00424.0791.00738.12009.03108.08197.04734.16196.1429.20459.25636.06721.16846.02814.31621-.08792.32331zm.0901-1.09601c-.04365.06469-.12521.06708-.20814.01913-.0401-.02309-.08054-.05799-.11715-.10328-.11558-.14447-.15376-.33314-.08901-.42912.04529-.06277.1248-.06619.20704-.01872.04112.0237.08293.06018.12145.10834.11566.14085.15378.33321.08581.42365zm.57755 2.04441c-.1319-.07616-.24092-.26504-.24052-.41661.00041-.15158.11018-.21046.24209-.1343.13197.07616.23778.25951.23737.41108-.00047.15158-.10697.216-.23894.13983zm.00595-2.0927c-.1319-.07616-.24099-.26135-.24052-.41293.00041-.15158.11018-.21415.24209-.13798s.23778.26319.2373.41477c-.00041.15157-.1069.2123-.23887.13614zm.9902 2.00493c-.0431.06394-.12337.06701-.20629.01913-.04146-.02398-.08361-.06059-.12214-.10882-.11244-.13894-.15055-.3313-.08586-.42358.04529-.06271.1248-.06619.20704-.01872.04112.02377.08293.06018.12145.10841.11244.13894.15377.33321.0858.42358zm-.08416-.99301c-.03784.00232-.07869-.0097-.11886-.03292-.08327-.04809-.1638-.14406-.20909-.26005-.06394-.1666-.02486-.31436.08798-.32331.03866-.00362.08088.0084.12234.03238.08293.04788.16292.14345.20554.25691.06722.17214.02494.31435-.08791.32699z" fill="#ecf0f1"/><path d="m15.54415 31.65508c0 .06411-.00173.1265-.00518.18714l-5.78735-3.34245c.18368-1.19733 1.02405-1.73967 1.85229-1.73967.428 0 .88198.13342 1.33769.40026 1.4607.83865 2.60255 2.81743 2.60255 4.49472z" fill="#c4c6c6"/><path d="m12.63245 27.69763c1.2667.73133 2.28796 2.50022 2.28383 3.95575-.00413 1.45554-1.03206 2.04133-2.29876 1.31s-2.28796-2.50022-2.28383-3.95575c.00413-1.45554 1.03207-2.04133 2.29876-1.31z" fill="#5b5e71"/><path d="m12.63039 28.43214c-.91336-.52734-1.65451-.10499-1.65751.94451-.00294 1.0495.73343 2.32496 1.64672 2.85224.91336.52734 1.65451.10492 1.65751-.94451.00293-1.04951-.73343-2.32497-1.64672-2.85224zm-.67599 2.37912c-.03873.00355-.08054-.00826-.12173-.03197-.08218-.04748-.16141-.14263-.20622-.25739-.064-.16654-.02486-.31429.09119-.32139.03757-.00424.0791.00738.12009.03108.08197.04734.16196.1429.20459.25636.06721.16846.02814.31621-.08792.32331zm.0901-1.09601c-.04365.06469-.12521.06708-.20814.01913-.0401-.02309-.08054-.05799-.11715-.10328-.11558-.14447-.15376-.33314-.08901-.42912.04529-.06277.1248-.06619.20704-.01872.04112.0237.08293.06018.12145.10834.11566.14085.15378.33321.08581.42365zm.57755 2.04441c-.1319-.07616-.24092-.26504-.24052-.41661.00041-.15158.11018-.21046.24209-.1343.13197.07616.23778.25951.23737.41108-.00047.15158-.10697.216-.23894.13983zm.00595-2.0927c-.1319-.07616-.24099-.26135-.24052-.41293.00041-.15158.11018-.21415.24209-.13798s.23778.26319.2373.41477c-.00041.15157-.1069.2123-.23887.13614zm.9902 2.00493c-.0431.06394-.12337.06701-.20629.01913-.04146-.02398-.08361-.06059-.12214-.10882-.11244-.13894-.15055-.3313-.08586-.42358.04529-.06271.1248-.06619.20704-.01872.04112.02377.08293.06018.12145.10841.11244.13894.15377.33321.0858.42358zm-.08416-.99301c-.03784.00232-.07869-.0097-.11886-.03292-.08327-.04809-.1638-.14406-.20909-.26005-.06394-.1666-.02486-.31436.08798-.32331.03866-.00362.08088.0084.12234.03238.08293.04788.16292.14345.20554.25691.06722.17214.02494.31435-.08791.32699z" fill="#ecf0f1"/><path d="m15.54415 31.65508c0 .06411-.00173.1265-.00518.18714l-5.78735-3.34245c.18368-1.19733 1.02405-1.73967 1.85229-1.73967.428 0 .88198.13342 1.33769.40026 1.4607.83865 2.60255 2.81743 2.60255 4.49472z" fill="#c6a51a"/><path d="m12.63245 27.69763c1.2667.73133 2.28796 2.50022 2.28383 3.95575-.00413 1.45554-1.03206 2.04133-2.29876 1.31s-2.28796-2.50022-2.28383-3.95575c.00413-1.45554 1.03207-2.04133 2.29876-1.31z" fill="#5b5e71"/><path d="m12.63039 28.43214c-.91336-.52734-1.65451-.10499-1.65751.94451-.00294 1.0495.73343 2.32496 1.64672 2.85224.91336.52734 1.65451.10492 1.65751-.94451.00293-1.04951-.73343-2.32497-1.64672-2.85224zm-.67599 2.37912c-.03873.00355-.08054-.00826-.12173-.03197-.08218-.04748-.16141-.14263-.20622-.25739-.064-.16654-.02486-.31429.09119-.32139.03757-.00424.0791.00738.12009.03108.08197.04734.16196.1429.20459.25636.06721.16846.02814.31621-.08792.32331zm.0901-1.09601c-.04365.06469-.12521.06708-.20814.01913-.0401-.02309-.08054-.05799-.11715-.10328-.11558-.14447-.15376-.33314-.08901-.42912.04529-.06277.1248-.06619.20704-.01872.04112.0237.08293.06018.12145.10834.11566.14085.15378.33321.08581.42365zm.57755 2.04441c-.1319-.07616-.24092-.26504-.24052-.41661.00041-.15158.11018-.21046.24209-.1343.13197.07616.23778.25951.23737.41108-.00047.15158-.10697.216-.23894.13983zm.00595-2.0927c-.1319-.07616-.24099-.26135-.24052-.41293.00041-.15158.11018-.21415.24209-.13798s.23778.26319.2373.41477c-.00041.15157-.1069.2123-.23887.13614zm.9902 2.00493c-.0431.06394-.12337.06701-.20629.01913-.04146-.02398-.08361-.06059-.12214-.10882-.11244-.13894-.15055-.3313-.08586-.42358.04529-.06271.1248-.06619.20704-.01872.04112.02377.08293.06018.12145.10841.11244.13894.15377.33321.0858.42358zm-.08416-.99301c-.03784.00232-.07869-.0097-.11886-.03292-.08327-.04809-.1638-.14406-.20909-.26005-.06394-.1666-.02486-.31436.08798-.32331.03866-.00362.08088.0084.12234.03238.08293.04788.16292.14345.20554.25691.06722.17214.02494.31435-.08791.32699z" fill="#ecf0f1"/><path d="m33.52588 42.05267c0 .07247-.00196.14299-.00586.21155l-6.54217-3.77839c.20764-1.35349 1.15762-1.96658 2.09387-1.96658.48383 0 .99701.15083 1.51216.45247 1.65122.94803 2.942 3.1849 2.942 5.08095z" fill="#c4c6c6"/><path d="m30.23442 37.57907c1.43191.82671 2.58636 2.82631 2.5817 4.47168-.00467 1.64537-1.16667 2.30757-2.59857 1.48085-1.43191-.82671-2.58636-2.82631-2.5817-4.47169.00466-1.64536 1.16667-2.30756 2.59857-1.48084z" fill="#5b5e71"/><path d="m30.23209 38.40937c-1.03248-.59612-1.8703-.11869-1.8737 1.06769-.00332 1.18638.82909 2.6282 1.8615 3.22424 1.03248.59612 1.8703.11861 1.8737-1.0677.00331-1.18636-.8291-2.62818-1.8615-3.22423zm-.76415 2.68943c-.04378.00402-.09104-.00934-.1376-.03614-.09289-.05367-.18246-.16123-.23312-.29096-.07235-.18826-.02811-.35528.10309-.36331.04247-.00479.08942.00834.13575.03514.09266.05351.18308.16154.23127.2898.07597.19042.0318.35744-.09939.36547zm.10185-1.23896c-.04934.07313-.14154.07583-.23528.02162-.04533-.0261-.09104-.06556-.13243-.11675-.13065-.16331-.17382-.37659-.10062-.48508.0512-.07096.14108-.07483.23405-.02116.04649.02679.09374.06803.13729.12247.13073.15921.17382.37666.09699.4789zm.65288 2.31106c-.14911-.0861-.27235-.29961-.27188-.47095.00046-.17134.12455-.23791.27366-.15181.14919.0861.2688.29335.26833.4647-.00054.17134-.12093.24416-.27011.15806zm.00672-2.36566c-.14911-.0861-.27243-.29544-.27188-.46678.00046-.17135.12455-.24208.27366-.15598s.2688.29752.26826.46887c-.00048.17135-.12086.23999-.27004.15389zm1.11935 2.26643c-.04872.07227-.13946.07575-.2332.02162-.04687-.0271-.09451-.06849-.13807-.123-.1271-.15706-.17019-.37451-.09706-.47883.0512-.07088.14108-.07482.23405-.02116.04649.02687.09374.06803.13729.12254.1271.15706.17382.37667.09699.47883zm-.09514-1.12252c-.04278.00262-.08895-.01096-.13436-.03722-.09413-.05436-.18517-.16285-.23636-.29397-.07228-.18834-.02811-.35536.09946-.36547.0437-.00409.09143.0095.1383.0366.09374.05413.18417.16216.23235.29042.07598.19459.02818.35536-.09939.36964z" fill="#ecf0f1"/></g><g><g enable-background="new"><g><path d="m40.27747 39.69482c-.11813-.07084-.2835-.06137-.4678.04257-.35913.21262-.65209.71825-.65209 1.13403 0 .20794.07089.3544.18902.42062l-.24099-.13705c-.11813-.07089-.189-.21734-.189-.42056 0-.41583.29297-.9262.65207-1.13408.18429-.10394.3497-.1134.46783-.04724z" fill="#fed57a"/></g><g><path d="m39.81101 39.73919c.35986-.20776.65742-.0407.6586.37531.00118.41602-.29447.92557-.65433 1.13334-.36203.20902-.65742.0407-.6586-.37532-.00117-.41602.29229-.92431.65433-1.13333z" fill="#f9bb4a"/></g></g><g enable-background="new"><g><path d="m48.97676 34.67189c-.12286-.06622-.28824-.05676-.4678.04718-.36386.20794-.65682.71352-.65682 1.13414.00473.20316.07559.34967.19372.4205l-.24096-.14178c-.11813-.07084-.18903-.21262-.18903-.4205-.00473-.41583.28824-.92614.65209-1.13408.17957-.10394.34494-.1134.4678-.04251z" fill="#fed57a"/></g><g><path d="m48.50862 34.71762c.35986-.20776.65742-.0407.6586.37531s-.29447.92557-.65433 1.13333c-.36204.20902-.65742.0407-.6586-.37531s.29229-.92431.65433-1.13333z" fill="#f9bb4a"/></g><g><path d="m48.5096 35.06394c.1947-.11241.3557-.02202.35634.20306s-.15932.50078-.35402.61319c-.19588.11309-.3557.02202-.35634-.20306-.00065-.22508.15814-.5001.35402-.61319z" fill="#e4e8f4"/></g><g><path d="m39.81199 40.12403c.1947-.11241.3557-.02202.35634.20306.00064.22509-.15932.50078-.35403.61319-.19588.11309-.3557.02202-.35634-.20306s.15815-.5001.35403-.61319z" fill="#e4e8f4"/></g></g><g enable-background="new"><g><path d="m45.65019 38.18781-.24075-.13991.76551-.44197.24075.13991z" fill="#cad0dd"/></g><g><path d="m47.26147 37.1101c.00473.08035-.05197.17956-.12759.22207l-.54812.31662-.24099-.14172.54812-.31662c.07562-.04251.13232-.14178.13232-.22213l-.00946-1.83335c0-.03784-.01416-.06622-.03778-.08035l.24096.13699c.02365.01419.03781.04257.03781.08508z" fill="#cad0dd"/></g><g><path d="m44.71675 38.72673-.24075-.13991.76333-.44071.24075.13991z" fill="#cad0dd"/></g><g><path d="m46.4157 37.74584-.24075-.13991-.00603-2.12765.24075.13991z" fill="#cad0dd"/></g><g><path d="m43.7833 39.26566-.24075-.13991.76333-.44071.24075.13991z" fill="#cad0dd"/></g><g><path d="m45.48008 38.28602-.24075-.13991-.00603-2.12765.24075.13991z" fill="#cad0dd"/></g><g><path d="m42.84986 39.80458-.24075-.13991.76333-.44071.24075.13991z" fill="#cad0dd"/></g><g><path d="m44.54663 38.82495-.24075-.13991-.00603-2.12765.24075.13991z" fill="#cad0dd"/></g><g><path d="m41.91423 40.34476-.24075-.1399.76551-.44197.24075.13991z" fill="#cad0dd"/></g><g><path d="m43.61319 39.36387-.24075-.13991-.00603-2.12765.24075.13991z" fill="#cad0dd"/></g><g><path d="m41.19234 40.76155-.24075-.13991.55178-.31857.24075.13991z" fill="#cad0dd"/></g><g><path d="m41.10289 40.77031-.24075-.1399c.02297.01334.0546.01135.08945-.00877l.24075.13991c-.03485.02012-.06648.02211-.08945.00876z" fill="#cad0dd"/></g><g><path d="m42.67974 39.9028-.24075-.13991-.00603-2.12765.24075.13991z" fill="#cad0dd"/></g><g><path d="m41.74412 40.44298-.24075-.13991-.00603-2.12765.24075.13991z" fill="#cad0dd"/></g><g><path d="m47.12884 35.0097c.16575-.0957.29922-.01965.29976.16832l.00519 1.83194c.00053.18793-.13206.42015-.29781.51584l-5.94307 3.43124c-.16358.09444-.29705.01584-.29758-.17209l-.0052-1.83194c-.00053-.18797.13206-.41763.29564-.51207zm-4.4491 4.8931-.00603-2.12765-.76551.44197.00603 2.12765zm3.73596-2.15696-.00603-2.12765-.76551.44197.00603 2.12765zm-1.86907 1.07911-.00603-2.12765-.76333.44071.00603 2.12765zm.93345-.53893-.00603-2.12765-.76333.44071.00603 2.12765zm-1.86689 1.07785-.00603-2.12765-.76333.44071.00603 2.12765zm-1.86907 1.07911-.00603-2.12765-.55178.31857c-.06979.04029-.1263.14067-.12608.22089l.0052 1.83194c.00023.0827.05713.11512.12691.07482zm5.51955-3.33481-.00519-1.83194c-.00023-.08021-.05712-.11512-.12909-.07357l-.54959.31731.00603 2.12765.54959-.31731c.07197-.04155.12848-.13944.12825-.22214z" fill="#d4dae8"/></g><g><path d="m47.30401 34.96953c-.04727-.00946-.1087 0-.17486.03784l-5.9444 3.4353c-.16067.09448-.29296.32129-.29296.51031l.00473 1.83342c0 .09448.03305.16064.08505.18896l-.24099-.13699c-.05197-.03305-.08505-.09927-.08505-.19376l-.00473-1.83336c0-.18435.13229-.41589.29296-.51037l5.94443-3.43056c.08505-.04724.16064-.05197.21262-.02365z" fill="#e4e8f4"/></g></g></g></g></svg>