<svg id="Layer_1" enable-background="new 0 0 52 52" height="512" viewBox="0 0 52 52" width="512" xmlns="http://www.w3.org/2000/svg"><g><g><g><path d="m13.05106 36.15178.02743 8.93367c.02743 1.23304.82208 2.46641 2.46624 3.42548 3.28849 1.89071 8.57741 1.89071 11.89334 0 1.67159-.95907 2.49368-2.21987 2.49368-3.48034l-.02726-8.93368c0 1.2608-.82225 2.52127-2.49384 3.48034-3.31576 1.89104-8.60485 1.89104-11.89317 0-1.64434-.95906-2.43899-2.19244-2.46642-3.42547z" fill="#525566"/></g><g><path d="m15.55497 32.68119c-3.30682 1.90919-3.32426 4.98-.03884 6.88929 3.28519 1.90914 8.58689 1.90921 11.89372.00002 3.30681-1.90919 3.34152-4.99024.05633-6.89938-3.28543-1.90929-8.6044-1.89912-11.91121.01007z" fill="#5b5e71"/></g><g><g enable-background="new"><g><path d="m13.84932 8.22102.06968 27.31284c.00315 1.11903.738 2.23638 2.20604 3.08951 2.97232 1.72733 7.76832 1.71728 10.74272.00002 1.50328-.86792 2.25969-2.00937 2.25646-3.14915l-.06963-27.3128c.0032 1.13978-.75321 2.28123-2.25649 3.14915-2.97439 1.71727-7.77039 1.72731-10.74272-.00002-1.46804-.85315-2.20288-1.9705-2.20606-3.08955z" fill="#d8463f"/></g><g><path d="m16.09046 5.08797c-2.97439 1.71727-2.9902 4.50526-.03508 6.22258 2.97233 1.72733 7.76832 1.71728 10.74272.00002 2.97439-1.71726 3.0249-4.50535.05257-6.23268-2.95512-1.71733-7.78582-1.70718-10.76021.01008z" fill="#e74c3c"/></g></g></g><g><g enable-background="new"><g><path d="m13.10733 6.96792.07645 2.43618c.00346 1.22774.8097 2.45365 2.42036 3.38966 3.26109 1.89514 8.52303 1.88412 11.7864.00002 1.64933-.95224 2.47923-2.20458 2.47568-3.4551l-.0764-2.43615c.00351 1.25051-.82639.61757-2.47572 1.56981-3.26336 1.8841-8.5253 1.89512-11.7864-.00002-1.61065-.93601-2.41689-.27663-2.42037-1.5044z" fill="#c14242"/></g><g><path d="m15.5662 3.48968c-3.26336 1.8841-3.2807 4.94295-.03849 6.82712 3.2611 1.89514 8.52303 1.88412 11.7864.00002 3.26336-1.8841 3.31877-4.94306.05768-6.8382-3.24222-1.88416-8.54224-1.87304-11.80559.01106z" fill="#d8463f"/></g></g></g><g><path d="m31.64583 16.38347-2.15932-1.25486-1.38875 1.13787 3.5536 2.06513z" fill="#c44"/></g><g><path d="m31.65136 18.33161-3.5536-2.06513-4.97931 3.68243 2.85646 1.66z" fill="#e74c3c"/></g><g><path d="m25.66795 19.48903-2.85646-1.66.00748 2.6387 2.85646 1.65999z" fill="#c44"/></g><g><path d="m31.94206 18.50968-6.26663 3.61804-.00748-2.6387 6.26663-3.61804zm-5.96715 3.09923 5.67645-3.2773-.00552-1.94814-5.67645 3.2773z" fill="#d8463f"/></g><g><path d="m29.07863 14.21131 2.85596 1.65955-6.26672 3.61816-2.85646-1.66022.04215-.02409c1.56555-.13381 3.08193-.57404 4.28854-1.35681.98532-.63926 1.61238-1.41835 1.93653-2.23659z" fill="#e74c3c"/><path d="m16.58583 12.12659c2.90196 1.89505 7.58422 1.88401 10.48819 0 1.4677-.95238 2.20616-.31913 2.20315-1.5699l.06791 2.43631c.001.41079-.10772.81756-.26645 1.21832l-.0005-.00033-6.22457 3.59374c-2.20197.188-4.5038-.24888-6.19982-1.35681-1.43325-.93598-2.15063-2.16166-2.15364-3.38968l-.06808-2.43631c.00302 1.22801.72056.56867 2.15381 1.50466z" fill="none"/></g><g><g enable-background="new"><g><path d="m28.76427 27.60659-.70727-.41102-2.94722 1.70158.70726.41102z" fill="#e74c3c"/></g><g><path d="m28.74962 22.43845-.70727-.41102.01465 5.16814.70727.41102z" fill="#c44"/></g><g><path d="m25.45524 23.92738-.70726-.41102.01699 5.99295.70726.41101z" fill="#c44"/></g><g><path d="m29.10724 21.8189-.70726-.41102-3.652 2.10848.70726.41102z" fill="#e74c3c"/></g><g><path d="m29.12423 27.81184-3.65199 2.10848-.01699-5.99295 3.65199-2.10848zm-3.30719 1.49633 2.94723-1.70158-.01465-5.16814-2.94722 1.70158z" fill="#c14242"/></g></g></g><path d="m28.04235 22.84678-2.23996 1.29325.01234 4.35012 2.24227-1.29458z" fill="#fed57a"/></g><g><g><path d="m38.94894 21.28428-.00119.2142-4.73048 2.74906.00059-.21035z" fill="#d4d6d6"/></g><g><path d="m34.21786 23.99851-.00059.24903-8.74304-5.0478.00976-.20912z" fill="#c4c6c6"/></g><path d="m38.94894 21.28428-4.73091 2.75249-.17199-.10311-.28387-.16349-.24087-.13766-.30965-.17199-.24943-.14616-.28386-.16348-.23227-.13766-.30103-.1806h-.00861l-.24082-.13765-.27526-.16349-.24948-.13755-.30965-.1806-.24082-.13766-.28387-.16348-.24087-.14616-.30964-.172-.24082-.13776-.28387-.16338-.24948-.14616-.30104-.17209-.24082-.14627-.27526-.16338h-.00861l-.23226-.13755-.30965-.18071h-.00861l-.24943-.13765-.26664-.16338-.24949-.13766-.30103-.1806-.24087-.13766-.28382-.16338-.24948-.13765-.30104-.18071-.21504-.12033 4.7223-2.74398.21504.12905.30104.17199.24948.13765.27526.16349.24081.13755.30965.1806.24948.14627.27526.15487.24943.14616.30104.1721.24948.13765.27526.16339.24943.14616.30103.17209.24948.13766.28387.16338.24082.13765.30104.18071.24948.13755.28387.16338.24082.13766.30965.1807.24087.13755.28386.16349.24083.13766.30964.1806.24087.13755.27526.16348.25804.14627.30103.17199.24088.13766.28387.16338z" fill="#d4d6d6"/><g><g enable-background="new"><g><path d="m30.96664 16.68242-.59352.34409-.16343-.09461-3.53527 2.05581.16344.09461-.59352.34408-.24948-.13765 4.7223-2.74398z" fill="#3293c9"/></g><g fill="#e74c3c"><path d="m27.36255 19.38335-.59352.34409-.24087-.13766.59351-.34408z"/><path d="m31.48271 16.98346-.59351.34409-.24082-.13766.59352-.34398z"/></g><g fill="#e74c3c"><path d="m29.51296 20.62194-.60213.3527-.24082-.14627.59352-.34398z"/><path d="m33.64174 18.23066-.59352.34419-.24943-.14627.59352-.34408z"/></g><g fill="#3293c9"><path d="m30.06347 20.9403-.60212.35259-.24948-.14616.60212-.3527z"/><path d="m34.19225 18.54041-.60212.35259-.24082-.14616.59346-.34409z"/></g><g fill="#e74c3c"><path d="m30.58816 21.24123-.60212.3528-.24082-.13776.60207-.35259z"/><path d="m34.71694 18.84144-.60213.3527-.24081-.13765.60212-.3527z"/></g><g fill="#3293c9"><path d="m31.13868 21.55959-.60213.3526-.24087-.14616.59352-.34409z"/><path d="m35.26746 19.1597-.60213.3527-.24943-.14627.60208-.34398z"/></g><g fill="#e74c3c"><path d="m31.66337 21.86063-.60213.3527-.24082-.13766.60208-.3527z"/><path d="m35.79215 19.46074-.60213.35269-.24082-.13765.60213-.3527z"/></g><g fill="#3293c9"><path d="m32.21389 22.1875-.59352.34398-.24948-.13755.60212-.3527z"/><path d="m36.34267 19.77899-.60213.3527-.24082-.13765.60208-.3526z"/></g><g fill="#e74c3c"><path d="m32.73857 22.48853-.59351.34409h-.00861l-.24082-.13765.60207-.3527z"/><path d="m36.86736 20.08014-.60213.35259-.24082-.13755.60212-.3527z"/></g><g fill="#3293c9"><path d="m33.28048 22.79818-.60212.3527-.23227-.13766.60213-.35259z"/><path d="m37.41787 20.39829-.61073.35269-.23221-.13765.60207-.35259z"/></g><g fill="#e74c3c"><path d="m33.81378 23.10793-.60213.35259-.24943-.14616.60213-.3528z"/><path d="m37.95117 20.70804-.61073.35259-.24944-.14616.60213-.3527z"/></g><g><path d="m38.49308 21.01769-4.73091 2.75248-.24087-.13766.60212-.35259 3.5181-2.04719.61068-.3527z" fill="#3293c9"/></g><g><path d="m38.94894 21.28428-4.73091 2.75249-.17199-.10311 4.73091-2.75259z" fill="#e74c3c"/></g></g><g fill="#3293c9"><path d="m27.91306 19.70161-.59351.34409-.24949-.13766.59352-.34409z"/><path d="m32.04184 17.31033-.59351.34408-.24943-.14616.59346-.34419z"/></g><g fill="#3293c9"><path d="m28.98827 20.3209-.59352.34409h-.00861l-.23226-.13755.59352-.34419z"/><path d="m33.11705 17.92111-.59352.34399-.24942-.13756.59346-.34408z"/></g><g fill="#e74c3c"><path d="m28.43775 20.00265-.59352.34408h-.00861l-.24943-.13765.60213-.35259z"/><path d="m32.56653 17.61136-.59352.34409-.24942-.14627.59351-.34398z"/></g></g><path d="m26.19319 19.08859 4.18485-2.43274 7.85648 4.53606-4.18484 2.43274z" fill="#ecf0f1"/><path d="m37.74474 21.29289-3.52671 2.0472-.09461-.06017 3.5181-2.04719z" fill="#ecf0f1"/><path d="m37.60101 21.19532-2.6321-1.52987-1.11046.6412 2.6321 1.52987z" fill="#d4d6d6"/><g><g><path d="m37.25211 21.16896-.06371.03703-2.35188-1.35787.06371-.03702z" fill="#3d566e"/></g><g><path d="m37.10858 21.25238-.06382.03708-2.35189-1.35786.06382-.03709z" fill="#3d566e"/></g><g><path d="m36.53444 21.58603-.05581.03244-2.35189-1.35787.05581-.03243z" fill="#3d566e"/></g><g><path d="m36.67797 21.50262-.05581.03243-2.35188-1.35786.05581-.03244z" fill="#3d566e"/></g><g><path d="m36.82151 21.4192-.05581.03244-2.35189-1.35787.05581-.03243z" fill="#3d566e"/></g><g><path d="m36.96505 21.33579-.05582.03244-2.35188-1.35787.05581-.03243z" fill="#3d566e"/></g></g><g><g><path d="m29.34902 19.89205-.05265.0306-1.94359-1.12214.05264-.03059z" fill="#5b5e71"/></g><g><path d="m29.2304 19.96099-.05274.03064-1.94359-1.12213.05274-.03065z" fill="#5b5e71"/></g><g><path d="m28.75594 20.23672-.04613.0268-1.94359-1.12214.04612-.0268z" fill="#5b5e71"/></g><g><path d="m28.87455 20.16778-.04612.02681-1.9436-1.12214.04613-.0268z" fill="#5b5e71"/></g><g><path d="m28.99317 20.09885-.04613.0268-1.94359-1.12213.04612-.0268z" fill="#5b5e71"/></g><g><path d="m29.11178 20.02992-.04612.0268-1.94359-1.12213.04612-.02681z" fill="#5b5e71"/></g></g></g><path d="m31.64583 16.38347-5.67644 3.2773-.30152-.17174 6.22776-3.59556z" fill="#d8463f"/><path d="m25.66787 19.48903-2.85638-1.66 3.95473-.17462 3.23074-1.76094 1.93763-.02261z" fill="#e74c3c"/></g></svg>