<svg id="Layer_1" enable-background="new 0 0 50 50" height="512" viewBox="0 0 50 50" width="512" xmlns="http://www.w3.org/2000/svg"><g><g><g><g enable-background="new"><g><path d="m48.93443 25.69988-25.06503-14.5662-2.98125-.66217 25.06502 14.5662z" fill="#fed44c"/></g><g><path d="m45.95317 25.03771-25.06502-14.5662-16.85246 9.72977 25.06502 14.56621z" fill="#fee182"/></g><g><path d="m29.10071 34.76749-25.06502-14.56621-2.96776 4.09684 25.06502 14.5662z" fill="#fed44c"/></g><g><path d="m29.10071 34.76749-2.96776 4.09683 2.98127.66727 16.85246-9.72977 2.96775-4.10194-2.98126-.66217z" fill="#d8b441"/></g></g></g><path d="m48.93443 25.69988-2.98126 1.33588-15.9985 8.99858-3.82172 2.82998 2.96776-4.09683 16.85246-9.72978z" fill="#be9e39"/><g><path d="m26.13608 38.86375-1.46535.85156-25.06815-14.56562 1.46535-.85157z" fill="#fee182"/></g><g><path d="m50.39742 24.84988-1.46535.85157-25.06815-14.56562 1.46535-.85157z" fill="#fee182"/></g></g><path d="m6.85809 20.05614 9.75918-5.67134 4.44023 2.56336-9.75917 5.67134z" fill="#616ab1"/><g fill="#d8b441"><path d="m25.46899 31.4374 9.75917-5.67134.63896.36887-9.75917 5.67134z"/><path d="m26.73254 32.18404 9.75917-5.67134.63896.36887-9.75917 5.67134z"/><path d="m27.99609 32.93068 2.67197-1.55276.63896.36887-2.67198 1.55276z"/></g></g></svg>