<svg id="Layer_1" enable-background="new 0 0 52 52" height="512" viewBox="0 0 52 52" width="512" xmlns="http://www.w3.org/2000/svg"><g><g><g><g enable-background="new"><g><path d="m13.05762 28.61876-1.03325-.60046.01082 3.81694 1.03325.60046z" fill="#c4c6c6"/></g><g><path d="m17.29581 26.17184-1.03325-.60046-4.23819 2.44692 1.03325.60046z" fill="#e0e2e2"/></g><g><path d="m13.05762 28.61876.01082 3.81694 4.23819-2.44693-.01082-3.81693z" fill="#e0e2e2"/></g></g></g><g><g enable-background="new"><g><path d="m23.39595 47.34572.00201.70852 3.34818 1.94576-.00201-.70853z" fill="#474b59"/></g><g><path d="m26.74413 49.29147.00201.70853 1.97561-1.14062-.00201-.70852z" fill="#525566"/></g><g><path d="m23.39595 47.34572 3.34818 1.94575 1.97561-1.14061-3.34818-1.94576z" fill="#5b5e71"/></g></g><g enable-background="new"><g><path d="m40.99582 37.18443.00201.70853 3.34818 1.94575-.002-.70853z" fill="#474b59"/></g><g><path d="m44.34401 39.13018.002.70853 1.97482-1.14016-.00201-.70853z" fill="#525566"/></g><g><path d="m40.99582 37.18443 3.34819 1.94575 1.97481-1.14016-3.34819-1.94575z" fill="#5b5e71"/></g></g></g><g><g enable-background="new"><g><path d="m5.67917 34.2869.01005 3.54264 20.19158 11.73407-.01004-3.54264z" fill="#3293c9"/></g><g><path d="m25.87076 46.02097.01004 3.54264 20.32368-11.73388-.01005-3.54264z" fill="#3498db"/></g><g><path d="m5.67917 34.2869 20.19159 11.73407 20.32367-11.73388-20.19159-11.73406z" fill="#ecf0f1"/></g></g></g><g><g enable-background="new"><g><path d="m5.67917 33.59892.01005 3.54264 20.19158 11.73406-.01004-3.54263z" fill="#d4d6d6"/></g><g><path d="m25.87076 45.33299.01004 3.54263 20.32368-11.73387-.01005-3.54264z" fill="#e0e2e2"/></g><g><path d="m5.67917 33.59892 20.19159 11.73407 20.32367-11.73388-20.19159-11.73407z" fill="#ecf0f1"/></g></g></g><g><g enable-background="new"><g><path d="m13.67022 10.09111-.6126-.356.05102 17.99608.6126.356z" fill="#d4d6d6"/></g><g><path d="m15.9772 8.75917-.61259-.356-2.30699 1.33194.6126.356z" fill="#474958"/></g><g><path d="m13.67022 10.09111.05102 17.99608 2.30698-1.33194-.05102-17.99608z" fill="#ecf0f1"/></g></g></g><g><g><path d="m9.86483 15.07174-1.13318-.50446-.64746-7.71216 1.13318.50445z" fill="#e0e2e2"/></g><g><path d="m9.21737 7.35957-1.13318-.50445 9.66157-4.85512 1.13318.50445z" fill="#ecf0f1"/></g><g><path d="m18.87894 2.50445.64746 7.71217-9.66157 4.85512-.64746-7.71217z" fill="#d4d6d6"/></g><g><path d="m18.62019 2.99539.58932 7.01956-9.08593 4.56585-.58931-7.01956z" fill="#5b5e71"/></g><g><path d="m18.29151 3.52175.35411 4.21797-8.36506 4.2036-.35411-4.21797z" fill="#84dbff"/></g><g><g enable-background="new"><g><path d="m10.39836 13.81638-.13332-.05935-.09235-1.10006.13331.05934z" fill="#e5bd13"/></g><g><path d="m10.306 12.71631-.13331-.05934 1.35809-.68247.13331.05935z" fill="#f1c40f"/></g><g><path d="m11.66409 12.03385.09236 1.10007-1.35809.68246-.09236-1.10007z" fill="#d6b218"/></g></g><g enable-background="new"><g><path d="m12.18624 12.91794-.13331-.05935-.09236-1.10007.13332.05935z" fill="#d8463f"/></g><g><path d="m12.09389 11.81787-.13332-.05935 1.35809-.68247.13332.05935z" fill="#e74c3c"/></g><g><path d="m13.45198 11.1354.09235 1.10007-1.35809.68247-.09235-1.10007z" fill="#c44"/></g></g><g enable-background="new"><g><path d="m13.97412 12.01949-.13331-.05934-.09236-1.10007.13332.05934z" fill="#e0e2e2"/></g><g><path d="m13.88177 10.91942-.13332-.05934 1.35809-.68247.13332.05935z" fill="#ecf0f1"/></g><g><path d="m15.23986 10.23696.09236 1.10007-1.3581.68246-.09235-1.10007z" fill="#d4d6d6"/></g></g><g enable-background="new"><g><path d="m15.76201 11.12105-.13332-.05935-.09235-1.10007.13331.05935z" fill="#2ebf69"/></g><g><path d="m15.66965 10.02098-.13331-.05935 1.35809-.68246.13331.05934z" fill="#2ecc71"/></g><g><path d="m17.02774 9.33851.09236 1.10007-1.35809.68247-.09236-1.10007z" fill="#30b265"/></g></g><g enable-background="new"><g><path d="m17.54924 10.22293-.13331-.05935-.09236-1.10007.13332.05935z" fill="#3293c9"/></g><g><path d="m17.45689 9.12286-.13332-.05935 1.35874-.68279.13332.05935z" fill="#3498db"/></g><g><path d="m18.81563 8.44007.09235 1.10007-1.35874.68279-.09235-1.10007z" fill="#328eb7"/></g></g></g></g></g><g><g><g><path d="m38.02853 35.25598-12.11777 7.04208-12.19777-7.04238 12.11778-7.04208z" fill="#525566"/></g><g><path d="m31.00596 14.2075-5.11831 2.97443-5.15209-2.97456 5.11831-2.97444z" fill="#5b5e71"/></g><path d="m20.73556 14.20737-7.02257 21.04831 12.19777 7.04238-.02311-25.11613z" fill="#525566"/><path d="m38.02836 35.25577-12.11787 7.04198-.02247-25.11543 5.11745-2.97498z" fill="#474b59"/></g><g><g enable-background="new"><path d="m27.08999 12.30499c-.00094-.33249-.11445-.57946-.31916-.69547l-.24618-.14306c.20473.11602.31823.36298.31916.69547l.00414 1.45744.24618.14306z" fill="#3f434f"/><path d="m26.69914 11.16358c-.2517-.14343-.58554-.10982-.94069.09521-.73313.42328-1.32718 1.4522-1.32479 2.29463l.00414 1.45744.24617.14306-.00413-1.45743c-.00239-.84244.59165-1.87136 1.32479-2.29464.35514-.20504.68899-.23865.94069-.09521z" fill="#525566"/><g><path d="m26.00463 11.40186c.35514-.20504.68899-.23865.94069-.09522.2517.14344.39105.44735.39221.85543l.00413 1.45744-.24754.14291-.00413-1.45742c-.00094-.33249-.11445-.57946-.31916-.69547-.20472-.11731-.4766-.08931-.76539.07742-.59655.34442-1.08001 1.1818-1.07806 1.86664l.00413 1.45744-.24754.14292-.00413-1.45744c-.00239-.84244.59165-1.87137 1.32479-2.29465z" fill="#474b59"/></g></g></g></g><g><g><path d="m32.07157 22.23112c.24148.22339.39915.6156.47224 1.18009s.03202 1.07295-.12204 1.52471c-.1554.45102-.43201.79137-.83099 1.02173-.39898.23035-.72027.23519-.96157.01321-.24148-.22339-.39934-.617-.47242-1.1815-.07309-.56449-.03184-1.07154.12223-1.5233.15425-.45036.43184-.79277.83082-1.02312.39897-.23036.71929-.23314.96173-.01182zm-.0581 2.53106c.08162-.30908.09689-.66564.04448-1.07046-.05223-.4034-.15129-.69397-.2962-.87375-.14359-.17905-.33904-.19868-.58482-.05678-.24579.14191-.41046.36946-.49401.68265-.08469.31385-.09996.67041-.04827 1.06962.05187.40061.15092.69117.29945.87037.1472.17846.34379.19744.58958.05553.24578-.14189.40949-.36738.48979-.67718" fill="#c4c6c6"/></g><g><path d="m29.0566 23.5232-.78241 2.7445.6985-.40328-.08487-.65555.46986-.27127.08487.65554.35097-.20263.07109.54909-.35097.20263.11698.90346-.46986.27128-.11698-.90347-1.25525.72472-.06909-.53368.79756-2.7698z" fill="#c4c6c6"/></g><g><path d="m30.35531 28.1941-.97307 2.24939 1.45334 1.32722-.58532.33794-1.17485-1.00778-.35352.80928.13021 1.00572-.49501.2858-.46427-3.58586.49502-.28579.22651 1.7495 1.11219-2.5224z" fill="#c4c6c6"/></g><g><path d="m32.16521 27.05582c.42184-.24355.79108-.29565 1.10901-.15554l-.20424.6147c-.12992-.05446-.25494-.0711-.37753-.05-.12145.02044-.25925.07592-.41244.16436-.29609.17095-.52912.43044-.69986.78192-.17092.35009-.23162.71633-.18229 1.09733s.18736.63099.41277.74924c.22523.11685.47579.09715.75359-.06324s.5014-.36928.66871-.62394l-.12749-.98471.49387-.28514.15868 1.22563c-.22709.53306-.59853.94773-1.11183 1.24408-.43328.25015-.8172.28363-1.15388.10317-.33782-.17981-.54014-.53721-.60923-1.07089-.0691-.53368.02204-1.06351.27321-1.5909.25116-.52738.5871-.91252 1.00895-1.15607z" fill="#c4c6c6"/></g></g></g></svg>