<svg id="Layer_1" enable-background="new 0 0 50 50" height="512" viewBox="0 0 50 50" width="512" xmlns="http://www.w3.org/2000/svg"><g><g><g><g><g><path d="m48.99723 17.53968-.01089 3.54784c0 .46819-.30471.92522-.9033 1.27331l-14.19244 8.24995.01089-3.54784 14.18153-8.24995c.6095-.34809.91421-.81628.91421-1.27331z" fill="#485f69"/></g><g><path d="m33.90095 27.06024-.01006 3.5488-4.95838 1.40828.01006-3.54881z" fill="#40545d"/></g><g><path d="m28.94257 28.46851-.01006 3.54881-14.27714 8.29697.01006-3.54881z" fill="#485f69"/></g><g><path d="m14.66996 36.76052-.01089 3.55847c-.87068.50114-2.28556.50114-3.16714 0l-9.83893-5.68102c-.43531-.26146-.653-.58776-.653-.92522l.01089-3.54784c0 .3263.21762.66376.653.92522l9.83887 5.67038c.88158.51125 2.29652.51125 3.1672.00001z" fill="#56707b"/></g><g><path d="m48.08303 18.81299-14.18153 8.24995-4.96298 1.40404-14.26856 8.29353c-.87069.51124-2.28562.51124-3.1672 0l-9.83887-5.67038c-.87069-.51177-.88158-1.32805-.01089-1.83982l14.27945-8.293 2.42712-2.87345 14.18147-8.23932c1.21897-.71796 3.21071-.71796 4.42968-.01063l11.10142 6.41067c1.22986.71796 1.24076 1.86107.01089 2.56841z" fill="#778c95"/></g></g><path d="m46.11401 18.2682-.15238.08662-7.53153 4.37528-4.93036 2.86229-8.18458-4.72337-3.65692-2.11138 5.32216-3.09081 1.16457-.68607 1.79577-1.0448 4.33177-2.51367 7.18324 4.14623 2.9713 1.73087z" fill="#4bb5e7"/></g><g><g enable-background="new"><g><path d="m17.59581 23.07278-.00208.73364-1.42164.82616.00209-.73364z" fill="#525ba8"/></g><g><path d="m16.17418 23.89894-.00209.73364-1.90198-1.09811.00208-.73364z" fill="#616ab1"/></g><g><path d="m17.59581 23.07278-1.42163.82616-1.90199-1.09811 1.42163-.82617z" fill="#8189c3"/></g></g><g enable-background="new"><g><path d="m20.32526 24.64862-.00208.73365-1.42164.82616.00208-.73364z" fill="#bf9960"/></g><g><path d="m18.90362 25.47479-.00208.73364-1.90198-1.09811.00208-.73365z" fill="#d9ae6d"/></g><g><path d="m20.32526 24.64862-1.42164.82617-1.90198-1.09812 1.42163-.82616z" fill="#ffd69a"/></g></g><g enable-background="new"><g><path d="m23.0547 26.22447-.00207.73365-1.42164.82616.00208-.73364z" fill="#6b993f"/></g><g><path d="m21.63307 27.05064-.00208.73364-1.89625-1.09481.00207-.73364z" fill="#7eb442"/></g><g><path d="m23.0547 26.22447-1.42163.82617-1.89626-1.09481 1.42164-.82616z" fill="#97c269"/></g></g><g enable-background="new"><g><path d="m25.78988 27.80363-.00208.73364-1.42163.82617.00208-.73365z" fill="#269dd6"/></g><g><path d="m24.36825 28.62979-.00208.73365-1.90199-1.09812.00208-.73364z" fill="#4bb5e7"/></g><g><path d="m25.78988 27.80363-1.42163.82616-1.90199-1.09811 1.42164-.82616z" fill="#61c4f0"/></g></g><g enable-background="new"><g><path d="m14.9582 24.60559-.00208.73364-1.42132.82598.00208-.73364z" fill="#9aa1a5"/></g><g><path d="m13.53688 25.43157-.00208.73364-1.90199-1.09811.00208-.73364z" fill="#b0b8bc"/></g><g><path d="m14.9582 24.60559-1.42132.82598-1.90199-1.09811 1.42132-.82599z" fill="#cfd8dd"/></g></g><g enable-background="new"><g><path d="m17.68765 26.18143-.00208.73365-1.42132.82598.00207-.73364z" fill="#9aa1a5"/></g><g><path d="m16.26632 27.00742-.00207.73364-1.90199-1.09811.00208-.73364z" fill="#b0b8bc"/></g><g><path d="m17.68765 26.18143-1.42133.82599-1.90198-1.09811 1.42132-.82599z" fill="#cfd8dd"/></g></g><g enable-background="new"><g><path d="m20.4171 27.75728-.00208.73365-1.42133.82598.00209-.73364z" fill="#9aa1a5"/></g><g><path d="m18.99578 28.58327-.00209.73364-1.89625-1.0948.00208-.73365z" fill="#b0b8bc"/></g><g><path d="m20.4171 27.75728-1.42132.82599-1.89626-1.09481 1.42132-.82598z" fill="#cfd8dd"/></g></g><g enable-background="new"><g><path d="m23.15228 29.33644-.00209.73364-1.42132.82598.00208-.73364z" fill="#9aa1a5"/></g><g><path d="m21.73095 30.16242-.00208.73364-1.90198-1.09811.00208-.73364z" fill="#b0b8bc"/></g><g><path d="m23.15228 29.33644-1.42133.82598-1.90198-1.09811 1.42132-.82598z" fill="#cfd8dd"/></g></g><g enable-background="new"><g><path d="m12.32648 26.13498-.00208.73364-1.42164.82616.00208-.73364z" fill="#9aa1a5"/></g><g><path d="m10.90484 26.96114-.00208.73364-1.90198-1.09811.00208-.73364z" fill="#b0b8bc"/></g><g><path d="m12.32648 26.13498-1.42164.82616-1.90198-1.09811 1.42163-.82616z" fill="#cfd8dd"/></g></g><g enable-background="new"><g><path d="m15.05593 27.71082-.00208.73365-1.42164.82616.00208-.73364z" fill="#9aa1a5"/></g><g><path d="m13.63429 28.53699-.00208.73364-1.90198-1.09811.00208-.73364z" fill="#b0b8bc"/></g><g><path d="m15.05593 27.71082-1.42164.82617-1.90198-1.09811 1.42163-.82617z" fill="#cfd8dd"/></g></g><g enable-background="new"><g><path d="m17.78537 29.28667-.00208.73365-1.42163.82616.00208-.73364z" fill="#9aa1a5"/></g><g><path d="m16.36374 30.11284-.00208.73364-1.89626-1.09481.00208-.73364z" fill="#b0b8bc"/></g><g><path d="m17.78537 29.28667-1.42163.82617-1.89626-1.09481 1.42164-.82616z" fill="#cfd8dd"/></g></g><g enable-background="new"><g><path d="m20.52055 30.86583-.00208.73364-1.42163.82617.00208-.73365z" fill="#b4403c"/></g><g><path d="m19.09892 31.69199-.00208.73365-1.90199-1.09812.00208-.73364z" fill="#cb4844"/></g><g><path d="m20.52055 30.86583-1.42163.82616-1.90199-1.09811 1.42163-.82616z" fill="#ee5550"/></g></g><g enable-background="new"><g><path d="m9.68887 27.66779-.00208.73364-1.42132.82598.00208-.73364z" fill="#9aa1a5"/></g><g><path d="m8.26755 28.49377-.00208.73364-1.90199-1.09811.00208-.73364z" fill="#b0b8bc"/></g><g><path d="m9.68887 27.66779-1.42132.82598-1.90199-1.09811 1.42132-.82598z" fill="#cfd8dd"/></g></g><g enable-background="new"><g><path d="m12.41832 29.24364-.00208.73364-1.42132.82598.00207-.73364z" fill="#9aa1a5"/></g><g><path d="m10.99699 30.06962-.00207.73364-1.90199-1.09811.00208-.73364z" fill="#b0b8bc"/></g><g><path d="m12.41832 29.24364-1.42133.82598-1.90198-1.09811 1.42132-.82599z" fill="#cfd8dd"/></g></g><g enable-background="new"><g><path d="m15.14777 30.81948-.00208.73365-1.42133.82598.00208-.73364z" fill="#9aa1a5"/></g><g><path d="m13.72644 31.64547-.00208.73364-1.89625-1.0948.00208-.73365z" fill="#b0b8bc"/></g><g><path d="m15.14777 30.81948-1.42133.82599-1.89625-1.09481 1.42132-.82598z" fill="#cfd8dd"/></g></g><g enable-background="new"><g><path d="m17.88294 32.39864-.00208.73364-1.42132.82599.00208-.73365z" fill="#b4403c"/></g><g><path d="m16.46162 33.22462-.00208.73365-1.90198-1.09812.00208-.73364z" fill="#cb4844"/></g><g><path d="m17.88294 32.39864-1.42132.82598-1.90198-1.09811 1.42132-.82598z" fill="#ee5550"/></g></g><g enable-background="new"><g><path d="m7.05715 29.19718-.00208.73364-1.42133.82598.00208-.73364z" fill="#9aa1a5"/></g><g><path d="m5.63582 30.02316-.00208.73364-1.90198-1.09811.00208-.73364z" fill="#b0b8bc"/></g><g><path d="m7.05715 29.19718-1.42133.82598-1.90198-1.09811 1.42132-.82598z" fill="#cfd8dd"/></g></g><g enable-background="new"><g><path d="m9.78659 30.77303-.00208.73364-1.42132.82598.00208-.73364z" fill="#9aa1a5"/></g><g><path d="m8.36527 31.59901-.00208.73364-1.90198-1.09811.00208-.73364z" fill="#b0b8bc"/></g><g><path d="m9.78659 30.77303-1.42132.82598-1.90198-1.09811 1.42132-.82599z" fill="#cfd8dd"/></g></g><g enable-background="new"><g><path d="m12.51604 32.34887-.00208.73365-1.42132.82598.00208-.73364z" fill="#9aa1a5"/></g><g><path d="m11.09472 33.17486-.00208.73364-1.89626-1.09481.00208-.73364z" fill="#b0b8bc"/></g><g><path d="m12.51604 32.34887-1.42132.82599-1.89626-1.09481 1.42133-.82598z" fill="#cfd8dd"/></g></g><g enable-background="new"><g><path d="m15.25122 33.92803-.00208.73364-1.42132.82599.00208-.73365z" fill="#b4403c"/></g><g><path d="m13.8299 34.75401-.00208.73365-1.90199-1.09812.00208-.73364z" fill="#cb4844"/></g><g><path d="m15.25122 33.92803-1.42132.82598-1.90199-1.09811 1.42132-.82598z" fill="#ee5550"/></g></g></g><g><g><g enable-background="new"><path d="m20.87905 20.88777-.00184.6434c-.00065.23415-.15506.46797-.46354.64724-.62066.36069-1.63033.36367-2.25521.00289-.31445-.18155-.47148-.42058-.4708-.65923l.00182-.64338c-.00067.23864.15635.47767.47081.65922.62489.36078 1.63456.3578 2.25521-.00289.30847-.17928.46288-.41309.46355-.64725z" fill="#485f69"/><g><path d="m20.40823 20.23154c.62489.36078.6282.94263.00727 1.30347-.62066.36069-1.63033.36367-2.25521.00289-.62489-.36078-.62809-.94855-.00744-1.30923.62092-.36085 1.63049-.35791 2.25538.00287z" fill="#56707b"/></g></g></g><g><g enable-background="new"><path d="m20.66007 20.03665-.00158.67758c-.00056.20189-.13369.40348-.39967.55805-.53513.31098-1.40567.31356-1.94445.00249-.27112-.15653-.40651-.36262-.40593-.56839l.00157-.67757c-.00058.20575.13481.41184.40593.56837.53878.31107 1.40932.30849 1.94445-.00249.26598-.15456.39911-.35615.39968-.55804z" fill="#fed44c"/><g><path d="m20.25413 19.47084c.53878.31106.54163.81273.00627 1.12385-.53513.31099-1.40567.31356-1.94445.00249-.53878-.31106-.54154-.81784-.00641-1.12882.53536-.31111 1.40581-.30858 1.94459.00248z" fill="#fee182"/></g></g></g></g><g><g><g enable-background="new"><path d="m29.99005 25.90745-.00183.6434c-.00065.23415-.15506.46797-.46354.64724-.62066.36069-1.63033.36367-2.25522.00289-.31445-.18155-.47148-.42058-.4708-.65923l.00182-.64338c-.00067.23864.15635.47766.47081.65922.62489.36078 1.63456.35779 2.25521-.00289.30847-.17927.46288-.41309.46355-.64725z" fill="#485f69"/><g><path d="m29.51922 25.25122c.62489.36078.6282.94263.00727 1.30347-.62066.36069-1.63033.36367-2.25521.00289-.62489-.36078-.6281-.94855-.00744-1.30923.62093-.36084 1.6305-.35791 2.25538.00287z" fill="#56707b"/></g></g></g><g><g enable-background="new"><path d="m29.77107 25.05633-.00158.67758c-.00056.20189-.13369.40348-.39966.55805-.53513.31098-1.40567.31356-1.94445.00249-.27112-.15653-.40651-.36262-.40593-.56839l.00157-.67757c-.00058.20575.13481.41184.40593.56837.53878.31106 1.40932.30849 1.94445-.00249.26597-.15455.3991-.35615.39967-.55804z" fill="#cb4844"/><g><path d="m29.36513 24.49053c.53878.31106.54163.81273.00627 1.12385-.53513.31098-1.40567.31356-1.94445.00249s-.54154-.81784-.00641-1.12882c.53536-.31112 1.40581-.30859 1.94459.00248z" fill="#ee5550"/></g></g></g></g></g><g><path d="m34.27251 10.46411v.95818l11.8415 6.84591.83801-.48998z" fill="#40545d"/><path d="m20.83106 18.27882.82718.47882 12.61427-7.33535v-.95818z" fill="#485f69"/></g><g fill="#61c4f0"><path d="m44.42705 17.29939-16.28208-2.31863 1.79577-1.0448 11.51501 1.63256z"/><path d="m45.96163 18.35482-7.53153 4.37528-13.11494-1.86108-3.65692-2.11138 5.32216-3.09081z"/></g></g></svg>