<svg id="Layer_1" enable-background="new 0 0 52 52" height="512" viewBox="0 0 52 52" width="512" xmlns="http://www.w3.org/2000/svg"><g><g><g><g><g enable-background="new"><g><path d="m21.09766 20.07048.03297 12.63036 10.41893 6.05481-.03298-12.63035z" fill="#e5bd13"/></g><g><path d="m31.51658 26.1253.03298 12.63035 18.45044-10.65237-.03297-12.63035z" fill="#d6b218"/></g><g><path d="m21.09766 20.07048 10.41892 6.05482 18.45045-10.65237-10.41893-6.05482z" fill="#f1c40f"/></g></g></g><g><g><path d="m39.54769 9.41787-4.01535 8.35384 14.43511-2.29854z" fill="#e5bd13"/></g><g><path d="m21.09724 20.07024 10.41976 6.0553 4.01534-8.35383z" fill="#d6b218"/></g></g><g><path d="m42.78273 19.62651.00688 2.42479-4.05576 2.34159-.00688-2.42478z" fill="#c6a51a"/></g><g><path d="m42.78273 29.84188.00688 2.42478-4.05576 2.34159-.00688-2.42478z" fill="#c6a51a"/></g></g><g><g><path d="m27.9188 28.21105-.00122.43117 2.24366 1.29538.00123-.43117z" fill="#3293c9"/></g><g><path d="m27.9163 29.09112-.00122.43116 2.24367 1.29538.00122-.43116z" fill="#3293c9"/></g><g><path d="m30.60064 31.55633-3.1302-1.80722.01344-4.73963 3.1302 1.80722zm-2.68307-2.91411 2.24367 1.29538.00122-.43117-2.24367-1.29538zm-.00249.88006 2.24367 1.29538.00122-.43116-2.24367-1.29538z" fill="#fff"/></g></g></g><g><g><g><g enable-background="new"><g><path d="m2.00042 31.09628.03297 12.63035 10.41892 6.05482-.03297-12.63035z" fill="#e5bd13"/></g><g><path d="m12.41934 37.1511.03297 12.63035 18.45045-10.65237-.03297-12.63035z" fill="#d6b218"/></g><g><path d="m2.00042 31.09628 10.41892 6.05482 18.45045-10.65237-10.41893-6.05482z" fill="#f1c40f"/></g></g></g><g><g><path d="m20.45044 20.44367-4.01534 8.35383 14.4351-2.29853z" fill="#d6b218"/></g><g><path d="m2 31.09604 10.41976 6.0553 4.01534-8.35384z" fill="#d6b218"/></g></g><g><path d="m23.68549 30.65231.00688 2.42479-4.05576 2.34159-.00688-2.42479z" fill="#c6a51a"/></g><g><path d="m23.68549 40.86767.00688 2.42479-4.05576 2.34159-.00688-2.42478z" fill="#c6a51a"/></g></g><g><g><path d="m8.82156 39.23685-.00123.43116 2.24367 1.29539.00122-.43117z" fill="#3293c9"/></g><g><path d="m8.81906 40.11692-.00122.43116 2.24367 1.29538.00122-.43116z" fill="#3293c9"/></g><g><path d="m11.5034 42.58213-3.1302-1.80722.01344-4.73963 3.1302 1.80722zm-2.68307-2.91412 2.24367 1.29539.00122-.43117-2.24367-1.29538zm-.00249.88007 2.24367 1.29538.00122-.43116-2.24367-1.29538z" fill="#fff"/></g></g></g><g><g><g><g enable-background="new"><g><path d="m10.4549 12.87116.03297 12.63035 10.41892 6.05482-.03297-12.63035z" fill="#e5bd13"/></g><g><path d="m20.87382 18.92598.03297 12.63035 18.45045-10.65237-.03298-12.63035z" fill="#d6b218"/></g><g><path d="m10.4549 12.87116 10.41892 6.05482 18.45044-10.65237-10.41892-6.05482z" fill="#f1c40f"/></g></g></g><g><g><path d="m28.90492 2.21855-4.01534 8.35383 14.4351-2.29853z" fill="#d6b218"/></g><g><path d="m10.45448 12.87092 10.41976 6.0553 4.01534-8.35384z" fill="#d6b218"/></g></g><g><path d="m32.13997 12.42719.00688 2.42478-4.05576 2.3416-.00688-2.42479z" fill="#c6a51a"/></g><g><path d="m32.13997 22.64255.00688 2.42479-4.05576 2.34159-.00688-2.42478z" fill="#c6a51a"/></g></g><g><g><path d="m17.27603 21.01172-.00122.43117 2.24367 1.29539.00122-.43117z" fill="#3293c9"/></g><g><path d="m17.27354 21.89179-.00122.43117 2.24367 1.29538.00122-.43116z" fill="#3293c9"/></g><g><path d="m19.95788 24.35701-3.1302-1.80722.01344-4.73963 3.1302 1.80722zm-2.68307-2.91412 2.24367 1.29538.00122-.43117-2.24367-1.29538zm-.00249.88006 2.24367 1.29538.00122-.43116-2.24367-1.29538z" fill="#fff"/></g></g></g></g></svg>