<svg id="Layer_1" enable-background="new 0 0 50 50" height="512" viewBox="0 0 50 50" width="512" xmlns="http://www.w3.org/2000/svg"><g><g><g enable-background="new"><g><path d="m34.05086 24.56283-.02138 7.53908-14.83606-8.56561.02137-7.53908z" fill="#dde4e7"/></g><g><path d="m32.36327 8.35616-.02138 7.53908-13.1485 7.64107.02138-7.53908z" fill="#40545d"/></g><g><path d="m47.19932 16.92176-.02137 7.53908-14.83606-8.5656.02138-7.53908z" fill="#485f69"/></g><g><path d="m47.19935 17.90332-13.14849 7.64107-14.83607-8.56561 13.1485-7.64107z" fill="#fee182"/></g><g><path d="m47.19935 16.92176-.02137 7.53908-13.1485 7.64107.02138-7.53908z" fill="#dde4e7"/></g><g><path d="m49 17.03808-.02308 7.5376c0 .38159-.25437.76319-.76305 1.0635l-15.30636 8.90197-18.45091 7.93048.02314-7.5376 18.43934-7.94234 15.31794-8.89012c.50868-.3003.76298-.6819.76298-1.06349z" fill="#40545d"/></g><g><path d="m48.23129 15.96293c1.01855.58806 1.02369 1.54281.00441 2.13515l-15.3116 8.89813-18.44373 7.93922c-.7337.31524-1.74934.27272-2.39888-.10229l-10.52549-6.0769c-.64214-.37074-.71889-.95892-.18424-1.38077l13.63837-10.7219 15.3116-8.89813c1.01928-.59234 2.67489-.58825 3.69348-.00017zm-14.18047 8.5999 13.1485-7.64107-14.83605-8.5656-13.1485 7.64107z" fill="#56707b"/></g><g><path d="m14.47975 34.93403-.02314 7.5376c-.72826.32345-1.74561.27716-2.393-.10386l-10.53186-6.06937c-.35838-.2083-.53175-.48603-.53175-.76319l.01157-7.5376c0 .27773.18494.55489.54332.76319l10.53179 6.06937c.64739.38159 1.66474.41602 2.39307.10386z" fill="#40545d"/></g></g></g><g><g><path d="m32.80365 11.01864-5.12963 2.98101-.52984-.3059 5.12963-2.98101z" fill="#485f69"/></g><g><path d="m33.45964 11.39738-5.12963 2.98101-.13074-.07548 5.12963-2.98102z" fill="#485f69"/></g><g><path d="m34.39547 11.93768-5.12963 2.98101-.12844-.07415 5.12963-2.98102z" fill="#485f69"/></g><g enable-background="new"><g><path d="m33.06972 11.17226-5.12963 2.98101-.12845-.07416 5.12963-2.98102z" fill="#485f69"/></g><g><path d="m34.00784 11.71388-5.12963 2.98101-.13074-.07548 5.12962-2.98102z" fill="#485f69"/></g><g><path d="m34.93679 12.25021-5.12963 2.98101-.37617-.21718 5.12963-2.98101z" fill="#485f69"/></g><g><path d="m35.34507 12.48593-5.12963 2.98101-.24313-.14037 5.12963-2.98101z" fill="#485f69"/></g><g><path d="m35.90474 12.80905-5.12963 2.98102-.13074-.07548 5.12963-2.98102z" fill="#485f69"/></g><g><path d="m36.41623 13.10436-5.12964 2.98101-.24083-.13904 5.12962-2.98102z" fill="#485f69"/></g><g><path d="m36.81762 13.33611-5.12962 2.98101-.24085-.13905 5.12963-2.98101z" fill="#485f69"/></g><g><path d="m37.64566 13.81417-5.12963 2.98102-.52297-.30194 5.12963-2.98101z" fill="#485f69"/></g><g><path d="m37.95988 13.99559-5.85658 3.40348-.15138-.0874 5.85658-3.40348z" fill="#485f69"/></g><g><path d="m38.70305 14.42466-5.12963 2.98101-.24084-.13905 5.12963-2.98101z" fill="#485f69"/></g><g><path d="m38.30624 14.19556-5.85659 3.40348-.1491-.08609 5.85659-3.40347z" fill="#485f69"/></g><g><path d="m39.09068 14.64846-5.12963 2.98101-.24084-.13905 5.12963-2.98101z" fill="#485f69"/></g><g><path d="m39.50813 14.88948-5.12962 2.98101-.12157-.07019 5.12963-2.98101z" fill="#485f69"/></g><g><path d="m40.05174 15.20333-5.12963 2.98101-.12156-.07018 5.12963-2.98102z" fill="#485f69"/></g><g><path d="m40.48983 15.45626-5.12962 2.98101-.24084-.13904 5.12962-2.98102z" fill="#485f69"/></g><g><path d="m41.11372 15.81646-5.12963 2.98102-.12844-.07416 5.12963-2.98101z" fill="#485f69"/></g><g><path d="m41.43025 15.99921-5.12963 2.98101-.13074-.07548 5.12963-2.98101z" fill="#485f69"/></g><g><path d="m41.74448 16.18063-5.12963 2.98102-.13074-.07549 5.12963-2.98101z" fill="#485f69"/></g><g><path d="m42.33856 16.52362-5.12963 2.98102-.24314-.14038 5.12963-2.98101z" fill="#485f69"/></g><g><path d="m42.71243 16.73948-5.12963 2.98101-.24084-.13905 5.12963-2.98101z" fill="#485f69"/></g><g><path d="m43.16658 17.00168-5.12963 2.98101-.12844-.07415 5.12963-2.98102z" fill="#485f69"/></g><g><path d="m43.5978 17.25064-5.12963 2.98102-.13074-.07548 5.12963-2.98102z" fill="#485f69"/></g><g><path d="m43.91433 17.43339-5.12963 2.98102-.13074-.07549 5.12963-2.98101z" fill="#485f69"/></g></g><g><path d="m32.13618 10.63328-5.85659 3.40347-.15138-.0874 5.85659-3.40348z" fill="#485f69"/></g><g><path d="m31.86552 10.47701-5.85659 3.40348-.15138-.0874 5.85659-3.40348z" fill="#485f69"/></g><g><path d="m44.25379 17.62938-5.85659 3.40348-.15138-.0874 5.85659-3.40348z" fill="#485f69"/></g><g><path d="m44.52445 17.78565-5.85659 3.40347-.1491-.08608 5.85659-3.40347z" fill="#485f69"/></g></g><g><path d="m28.59808 11.52 13.94463 8.10373 1.10197-.63623-13.94462-8.10372z" fill="#ee5550"/></g><g><g><g><g enable-background="new"><g><path d="m31.28246 25.24252-.00172.39142c-.00068.24114-.15838.48171-.47459.66547-.63895.37132-1.68527.37132-2.32834.00005-.32241-.18614-.48284-.43061-.48214-.67493l.00171-.39141c-.00069.24432.15974.48879.48215.67493.64306.37127 1.68939.37127 2.32834-.00005.31621-.18376.47391-.42433.47459-.66548z" fill="#40545d"/></g><g><path d="m30.79549 24.56216c.64306.37127.65132.97453.01237 1.34585s-1.68527.37132-2.32834.00005-.64173-.9746-.00278-1.34592c.63895-.37133 1.67568-.37126 2.31875.00002z" fill="#778c95"/></g></g></g><g><g enable-background="new"><g><path d="m30.99184 24.40094-.00141.77452c-.00056.19849-.13037.39652-.39067.54779-.52596.30565-1.38725.30566-1.91659.00004-.26539-.15322-.39745-.35446-.39688-.55558l.00141-.77451c-.00057.20111.13149.40235.39688.55557.52935.30562 1.39064.30561 1.9166-.00004.26028-.15126.3901-.34929.39066-.54779z" fill="#ee5550"/></g><g><path d="m30.59099 23.84089c.52934.30562.53614.80219.01018 1.10785-.52596.30565-1.38725.30566-1.9166.00004-.52934-.30562-.52825-.80225-.00229-1.10791.52596-.30565 1.37936-.3056 1.90871.00002z" fill="#f17572"/></g></g></g></g><g><g><g enable-background="new"><g><path d="m18.86566 18.30819-.00172.39142c-.00068.24114-.15838.48171-.47459.66548-.63895.37132-1.68527.37132-2.32834.00005-.32241-.18614-.48284-.43061-.48214-.67493l.00171-.39141c-.00069.24432.15974.48879.48215.67493.64307.37127 1.68939.37127 2.32834-.00005.31621-.18377.47391-.42434.47459-.66549z" fill="#40545d"/></g><g><path d="m18.37869 17.62783c.64306.37127.65132.97453.01237 1.34585s-1.68527.37132-2.32834.00005c-.64306-.37127-.64173-.9746-.00278-1.34592s1.67569-.37125 2.31875.00002z" fill="#778c95"/></g></g></g><g><g enable-background="new"><g><path d="m18.57504 17.46661-.00141.77452c-.00056.19849-.13037.39652-.39067.54779-.52596.30565-1.38725.30566-1.91659.00004-.26539-.15322-.39745-.35446-.39688-.55558l.0014-.77451c-.00057.20111.13149.40235.39689.55557.52935.30562 1.39064.30561 1.9166-.00004.26029-.15125.3901-.34928.39066-.54779z" fill="#4bb5e7"/></g><g><path d="m18.17419 16.90657c.52935.30562.53614.80219.01018 1.10785-.52596.30565-1.38725.30566-1.9166.00004s-.52825-.80225-.00229-1.10791 1.37936-.3056 1.90871.00002z" fill="#54c7de"/></g></g></g></g></g><g enable-background="new"><g><path d="m26.604 21.52162-.00261.92132-2.8106 1.63334.00261-.92132z" fill="#b0b8bc"/></g><g><path d="m18.39169 23.15083-.00262.92132-2.82874-1.63317.00262-.92132z" fill="#cfd8dd"/></g><g><path d="m23.93367 26.3505-.00261.92132-2.82874-1.63317.00261-.92132z" fill="#cfd8dd"/></g><g><path d="m26.62214 24.78813-.00261.92133-2.68847 1.56236.00261-.92132z" fill="#b0b8bc"/></g><g><path d="m18.29472 26.35044-.00261.92132-2.71325-1.56649.00262-.92132z" fill="#cfd8dd"/></g><g><path d="m21.10493 24.71733-.00261.92132-2.81021 1.63311.00261-.92132z" fill="#b0b8bc"/></g><g><path d="m26.604 21.52162-2.8106 1.63334 2.82874 1.63317-2.68847 1.56237-2.82874-1.63317-2.81021 1.63311-2.71324-1.56649 2.81021-1.63312-2.82874-1.63317 2.68846-1.56237 2.82874 1.63317 2.8106-1.63334z" fill="#dde4e7"/></g></g><g><g><path d="m15.44283 29.72261c.18089.10443.18471.26986.00498.37431l-4.29516 2.49607c-.17973.10445-.46518.10268-.64606-.00175-.17788-.1027-.18489-.26978-.00516-.37423l4.29516-2.49607c.17973-.10445.46836-.10103.64624.00167z" fill="#40545d"/></g><g><path d="m14.23084 29.02286c.17788.1027.18471.26986.00498.37431l-4.29516 2.49607c-.17973.10445-.46818.10094-.64606-.00175-.18089-.10443-.18487-.26977-.00514-.37422l4.29516-2.49607c.17973-.10445.46533-.10277.64622.00166z" fill="#40545d"/></g><g><path d="m13.01584 28.32138c.18091.10444.1817.26813.00198.37258l-4.29516 2.49607c-.17973.10445-.46215.10442-.64305-.00002-.18089-.10443-.18487-.26977-.00514-.37422l4.29516-2.49607c.17972-.10445.46532-.10277.64621.00166z" fill="#40545d"/></g><g><path d="m11.80086 27.61991c.17788.1027.18471.26986.00498.37431l-4.29516 2.49607c-.17973.10445-.46818.10094-.64606-.00175-.18091-.10445-.18187-.26803-.00214-.37248l4.29516-2.49607c.17973-.10445.46231-.10453.64322-.00008z" fill="#40545d"/></g><g><path d="m10.58586 26.91843c.18089.10443.18471.26986.00498.37431l-4.29516 2.49607c-.17973.10445-.46518.10268-.64606-.00175-.18089-.10443-.18487-.26977-.00514-.37422l4.29516-2.49607c.17972-.10445.46533-.10277.64622.00166z" fill="#40545d"/></g></g></g></svg>