<svg id="Layer_1" enable-background="new 0 0 52 52" height="512" viewBox="0 0 52 52" width="512" xmlns="http://www.w3.org/2000/svg"><g><g><g enable-background="new"><g><path d="m50 31.6376-.00353.55745-23.91757 13.89938.00353-.55745z" fill="#30b265"/></g><g><path d="m26.08243 45.53698-.00353.55745-24.0789-13.90196.00353-.55745z" fill="#2ebf69"/></g><g><path d="m50 31.6376-23.91757 13.89938-24.0789-13.90196 23.91757-13.89938z" fill="#2ecc71"/></g></g></g><g><g><g><g><g><g><path d="m34.95121 31.15119.0084 2.65324 2.66766 1.55027-.0084-2.65324z" fill="#d6b218"/></g><g><path d="m37.61887 32.70146.0084 2.65324 2.41797-1.39602-.0084-2.65324z" fill="#e5bd13"/></g><g><path d="m34.95064 31.15285 2.66823 1.55024 1.05626-.61154.30578-.17295.00617-.00307 1.05009-.60845-2.66825-1.55023-1.05626.60844-.00309.00309-.30267.17296z" fill="#f1c40f"/></g><g><path d="m36.0069 30.54134 2.66823 1.55021.30578-.17295.00617-.00307-2.67442-1.55024-.00309.00309z" fill="#ecf0f1"/></g><g><path d="m38.67513 32.09155.00285.43819.17102-.21897.13808.04246-.00285-.43819z" fill="#e0e2e2"/></g><g><g><g><path d="m37.08393 34.18455-.08322.15835.05154.02976.11374.06518z" fill="#3f434f"/></g></g><g><g><path d="m37.05225 34.37266-.00089.31326.0622.03591.00088-.31326z" fill="#3f434f"/></g></g><g><g><path d="m36.74331 34.53601-.00019.06706.42938.24791.00019-.06706z" fill="#3f434f"/></g></g><g><g><path d="m36.28694 33.7244-.00063.2232c-.0002.07049.04053.15234.0946.19386l-.00057.20118c-.03792-.01748-.06652-.01585-.06657.0052l.1674.09665c.00006-.02105-.02843-.05563-.06633-.08193l.00057-.20118c.02472.00986.04605.00747.06273-.00301.01966-.01463.03254-.042.03265-.08116l.00063-.2232z" fill="#3f434f"/></g></g><g><g><path d="m36.80348 34.22903-.00089.31327.0622.03591.00089-.31327z" fill="#3f434f"/></g></g><g><g><path d="m36.83474 34.04068-.0828.1586.05154.02975.11331.06493z" fill="#3f434f"/></g></g></g></g><g><g><path d="m37.99221 34.26835v.65287l.98224-.57137v-.65363z" fill="#ecf0f1"/></g><g><g><g><path d="m37.99221 34.57812v.03056l.98224-.56705v-.0311z" fill="#a4a9b3"/></g></g><g><g><path d="m37.99221 34.6924v.03257l.98224-.56706v-.03384z" fill="#3f434f"/></g></g><g><g><path d="m37.99221 34.80643v.03399l.98224-.56633v-.03399z" fill="#a4a9b3"/></g></g><g><g><path d="m37.99221 34.46041v.03364l.98224-.56759v-.03238z" fill="#a4a9b3"/></g></g><g><g><path d="m37.99221 34.34496v.0322l.98224-.56707v-.03219z" fill="#a4a9b3"/></g></g></g></g></g></g><g><g><g><g><path d="m31.71725 33.01832.0084 2.65324 2.66765 1.55027-.00839-2.65324z" fill="#d6b218"/></g><g><path d="m34.38491 34.56859.00839 2.65324 2.41798-1.39602-.0084-2.65324z" fill="#e5bd13"/></g><g><path d="m31.71668 33.01998 2.66823 1.55024 1.05626-.61154.30578-.17295.00616-.00308 1.0501-.60844-2.66825-1.55023-1.05626.60844-.00309.00309-.30267.17296z" fill="#f1c40f"/></g><g><path d="m32.77294 32.40847 2.66823 1.55021.30578-.17295.00616-.00308-2.67441-1.55023-.00309.00309z" fill="#ecf0f1"/></g><g><path d="m35.44117 33.95868.00285.43819.17102-.21897.13807.04245-.00284-.43818z" fill="#e0e2e2"/></g><g><g><g><path d="m33.84997 36.05168-.08322.15835.05154.02976.11374.06518z" fill="#3f434f"/></g></g><g><g><path d="m33.81829 36.23979-.00089.31326.06219.03591.00089-.31326z" fill="#3f434f"/></g></g><g><g><path d="m33.50935 36.40314-.00019.06706.42937.24791.00019-.06706z" fill="#3f434f"/></g></g><g><g><path d="m33.05297 35.59153-.00063.2232c-.0002.07048.04053.15234.0946.19386l-.00057.20117c-.03792-.01748-.06651-.01585-.06657.0052l.16741.09665c.00006-.02105-.02843-.05564-.06633-.08193l.00057-.20118c.02472.00986.04606.00747.06273-.00301.01967-.01463.03254-.042.03266-.08116l.00063-.2232z" fill="#3f434f"/></g></g><g><g><path d="m33.56952 36.09616-.00089.31327.0622.03591.00088-.31327z" fill="#3f434f"/></g></g><g><g><path d="m33.60078 35.90781-.0828.1586.05154.02975.11331.06493z" fill="#3f434f"/></g></g></g></g><g><g><path d="m34.75826 36.13548v.65287l.98223-.57137v-.65363z" fill="#ecf0f1"/></g><g><g><g><path d="m34.75826 36.44525v.03056l.98223-.56705v-.0311z" fill="#a4a9b3"/></g></g><g><g><path d="m34.75826 36.55953v.03256l.98223-.56705v-.03384z" fill="#3f434f"/></g></g><g><g><path d="m34.75826 36.67356v.03399l.98223-.56633v-.034z" fill="#a4a9b3"/></g></g><g><g><path d="m34.75826 36.32755v.03363l.98223-.56759v-.03238z" fill="#a4a9b3"/></g></g><g><g><path d="m34.75826 36.21209v.0322l.98223-.56707v-.03219z" fill="#a4a9b3"/></g></g></g></g></g></g><g><g><g><g><path d="m28.48329 34.88545.0084 2.65323 2.66765 1.55028-.0084-2.65324z" fill="#d6b218"/></g><g><path d="m31.15094 36.43572.0084 2.65324 2.41798-1.39602-.0084-2.65324z" fill="#e5bd13"/></g><g><path d="m28.48272 34.88711 2.66823 1.55023 1.05626-.61153.30578-.17296.00616-.00307 1.05009-.60844-2.66824-1.55024-1.05626.60845-.0031.00309-.30266.17295z" fill="#f1c40f"/></g><g><path d="m29.53898 34.27559 2.66823 1.55022.30578-.17296.00616-.00307-2.67441-1.55023-.0031.00309z" fill="#ecf0f1"/></g><g><path d="m32.20721 35.82581.00285.43819.17101-.21898.13808.04246-.00285-.43819z" fill="#e0e2e2"/></g><g><g><g><path d="m30.61601 37.9188-.08322.15836.05154.02976.11373.06518z" fill="#3f434f"/></g></g><g><g><path d="m30.58433 38.10692-.00089.31327.06219.0359.00089-.31326z" fill="#3f434f"/></g></g><g><g><path d="m30.27538 38.27027-.00019.06706.42938.2479.00019-.06706z" fill="#3f434f"/></g></g><g><g><path d="m29.81901 37.45866-.00063.2232c-.0002.07048.04053.15234.0946.19385l-.00057.20118c-.03792-.01748-.06651-.01585-.06658.0052l.16741.09665c.00006-.02105-.02843-.05563-.06633-.08193l.00057-.20117c.02472.00986.04606.00747.06273-.00301.01967-.01463.03255-.042.03266-.08116l.00063-.2232z" fill="#3f434f"/></g></g><g><g><path d="m30.33556 37.96329-.00089.31327.06219.03591.00089-.31327z" fill="#3f434f"/></g></g><g><g><path d="m30.36681 37.77493-.08279.15861.05154.02975.11331.06493z" fill="#3f434f"/></g></g></g></g><g><g><path d="m31.52429 38.00261v.65287l.98224-.57137v-.65363z" fill="#ecf0f1"/></g><g><g><g><path d="m31.52429 38.31238v.03056l.98224-.56705v-.0311z" fill="#a4a9b3"/></g></g><g><g><path d="m31.52429 38.42665v.03257l.98224-.56705v-.03384z" fill="#3f434f"/></g></g><g><g><path d="m31.52429 38.54069v.03399l.98224-.56634v-.03399z" fill="#a4a9b3"/></g></g><g><g><path d="m31.52429 38.19467v.03364l.98224-.56759v-.03239z" fill="#a4a9b3"/></g></g><g><g><path d="m31.52429 38.07922v.0322l.98224-.56707v-.03219z" fill="#a4a9b3"/></g></g></g></g></g></g></g><g><g><path d="m40.58485 28.51416v1.27904l-11.77003 6.7927v-4.89104l11.75503-6.78521v1.05772l.00751.85893v1.27904z" fill="#525566"/><g><g><path d="m40.58485 29.36936v.42384l-11.77003 6.7927v-.41633z" fill="#5b5e71"/></g><g><path d="m28.81385 32.33472v.41689l11.75616-6.78601v-.41026z" fill="#5b5e71"/></g><g><path d="m28.81385 35.30839 11.76963-6.79374-.00674-.41026-11.76289 6.78987z" fill="#5b5e71"/></g><g><path d="m28.81385 33.61639v.41689l11.76289-6.7965v-.41026z" fill="#5b5e71"/></g></g></g><g><g><path d="m43.95006 16.70164-.06041 15.38498-2.20036 1.27876-1.09582-.6118-.02591-7.82879-11.666 6.73903.02586 9.12057-3.61544 2.09677.04314-11.84722.01727-3.53781z" fill="#d8463f"/><path d="m25.37276 27.49342-.06017 15.3881-18.69261-10.79219.06017-15.3881z" fill="#e74c3c"/><g><path d="m43.94958 16.69775-.01342 3.54231-18.58157 10.81536.01817-3.562z" fill="#d4d6d6"/></g><g><path d="m25.37276 27.49342-.01817 3.562-18.6885-10.75817.01406-3.59602z" fill="#e0e2e2"/></g><path d="m43.94958 16.69775-18.57682 10.79567-18.69261-10.79219 18.57682-10.79566z" fill="#ecf0f1"/><path d="m8.4249 16.69612.96297.55154 15.87198-9.21855v-1.11179z" fill="#e0e2e2"/><path d="m25.25985 6.91732v1.11179l15.97704 9.22731.96297-.5603z" fill="#d4d6d6"/><path d="m9.38787 17.24766 15.9858 9.23602 15.86322-9.22726-15.97704-9.22731z" fill="#5b5e71"/><g><path d="m17.77894 16.47761-.00116.58918-2.81706 1.6371.00115-.58918z" fill="#d4d6d6"/><path d="m14.96187 18.11471-.00115.58918-2.8355-1.63707.00116-.58918z" fill="#e0e2e2"/><path d="m17.77894 16.47581-2.81707 1.6371-2.83549-1.63707 2.81707-1.6371z" fill="#ecf0f1"/><g fill="#384f63"><path d="m15.09516 15.06868c.06404.03697.06437.09614.00075.13311s-.16576.03698-.22981 0c-.06404-.03698-.06437-.09614-.00075-.13311s.16577-.03698.22981 0z"/><path d="m17.38149 16.38869c.06404.03698.06437.09614.00075.13311s-.16576.03698-.22981 0c-.06404-.03698-.06437-.09614-.00075-.13311s.16576-.03698.22981 0z"/><path d="m16.03837 15.84488c.6071.35051.61022.91136.00708 1.26187s-1.5714.35053-2.1785.00002c-.60711-.35051-.61023-.91137-.00709-1.26187s1.5714-.35053 2.17851-.00002z"/><path d="m12.7537 16.42938c.06404.03697.06279.09706-.00084.13403-.06363.03698-.16417.03605-.22822-.00092-.06404-.03697-.06597-.09521-.00234-.13219.06363-.03697.16735-.03789.2314-.00092z"/><path d="m15.04003 17.7494c.06404.03697.06279.09706-.00084.13403-.06363.03698-.16417.03605-.22822-.00092-.06404-.03697-.06597-.09521-.00234-.13219.06363-.03697.16735-.0379.2314-.00092z"/></g><path d="m15.4697 15.92671c.01906.01101.03514.02416.0471.03928.0552.06914.00085.15169-.1214.18027-.0815.01905-.16417.04868-.22177.09349-.05159.0314-.08791.07161-.11387.11148.02257.0067.04394.01552.06288.02646.01894.01093.03424.02328.04649.03669.12905-.01129.28497-.00988.41062.02399.0933.01648.17339.04838.23863.08605.04645.02682.08537.05656.11618.08575.07348.06985.02709.16051-.10001.19403-.09051.02411-.19456.0116-.26118-.02686-.02111-.01219-.03847-.02699-.05044-.04405-.0254-.03705-.06392-.07543-.11766-.10645-.0138-.00797-.02861-.01546-.04446-.02231-.05376-.02963-.1227-.05115-.19222-.06597-.01089.0134-.02604.02575-.04425.03633-.01943.01129-.04191.02011-.06563.02681.02052.07444.01859.16475-.03947.23742-.04759.09278-.17449.16228-.29545.20496-.09567.03365-.21354.02383-.28773-.019-.01914-.01105-.03537-.02429-.04757-.03955-.0552-.06914-.00085-.15169.1214-.18027.0815-.01905.16417-.04868.22177-.09349.05159-.03069.08791-.07161.11387-.11148-.02257-.006-.04393-.01482-.06226-.0254-.02016-.01164-.03485-.02434-.04589-.03775-.12966.01164-.28558.01023-.41184-.02399-.09324-.01621-.17276-.0478-.23769-.08529-.04671-.02697-.08587-.05699-.11713-.08651-.07287-.0695-.02831-.15981.10001-.19403.09051-.02411.19456-.0116.26118.02686.02111.01219.03847.02699.05044.04405.02638.03761.06432.07566.11778.10653.01373.00793.02849.01538.04434.02224.05377.03034.12392.05115.19283.06632.01089-.0127.02605-.02505.04487-.03598.01943-.01129.04069-.02011.06319-.02681-.02052-.07514-.01859-.16475.04068-.23812.0482-.09243.17449-.16228.29545-.20496.09568-.03367.21431-.02341.28821.01926z" fill="#ecf0f1"/></g><g><path d="m22.22685 13.89277-.00116.58918-2.81706 1.6371.00116-.58918z" fill="#d4d6d6"/><path d="m19.40979 15.52987-.00116.58918-2.8355-1.63708.00116-.58918z" fill="#e0e2e2"/><path d="m22.22685 13.89097-2.81706 1.6371-2.8355-1.63707 2.81707-1.63711z" fill="#ecf0f1"/><g fill="#384f63"><path d="m19.54307 12.48383c.06404.03698.06437.09614.00075.13311s-.16576.03698-.2298 0c-.06404-.03697-.06437-.09614-.00075-.13311s.16576-.03697.2298 0z"/><path d="m21.8294 13.80384c.06404.03697.06437.09614.00075.13311s-.16576.03698-.2298 0c-.06404-.03697-.06437-.09614-.00075-.13311s.16576-.03697.2298 0z"/><path d="m20.48628 13.26004c.6071.35051.61022.91136.00708 1.26187-.60314.3505-1.5714.35053-2.1785.00002-.60711-.35051-.61023-.91137-.00709-1.26187.60314-.35051 1.5714-.35054 2.17851-.00002z"/><path d="m17.20161 13.84454c.06404.03697.06278.09706-.00084.13403-.06363.03698-.16417.03605-.22822-.00092-.06404-.03697-.06597-.09521-.00234-.13219.06363-.03697.16736-.0379.2314-.00092z"/><path d="m19.48794 15.16455c.06404.03697.06279.09706-.00084.13403-.06363.03698-.16417.03605-.22822-.00092s-.06597-.09521-.00234-.13219c.06363-.03697.16735-.03789.2314-.00092z"/></g><path d="m19.91761 13.34187c.01906.01101.03514.02416.04709.03928.0552.06914.00085.15169-.1214.18027-.0815.01905-.16417.04868-.22177.09349-.05159.0314-.08791.07161-.11387.11148.02257.0067.04394.01552.06288.02646s.03424.02328.04649.03669c.12905-.01129.28497-.00988.41062.02399.0933.01648.17339.04838.23863.08605.04645.02682.08537.05656.11618.08575.07348.06985.02709.16051-.10001.19403-.09051.02411-.19456.0116-.26118-.02686-.02111-.01219-.03847-.02699-.05043-.04405-.02541-.03705-.06392-.07543-.11766-.10645-.0138-.00797-.02861-.01546-.04446-.02231-.05376-.02963-.1227-.05115-.19222-.06597-.01089.0134-.02604.02575-.04425.03633-.01943.01129-.04191.02011-.06563.02681.02052.07444.01859.16475-.03947.23742-.04759.09278-.17449.16228-.29544.20496-.09567.03365-.21354.02383-.28773-.019-.01914-.01105-.03537-.02429-.04757-.03956-.0552-.06914-.00085-.15169.1214-.18027.0815-.01905.16417-.04868.22177-.09349.05159-.03069.08791-.07161.11387-.11148-.02257-.006-.04393-.01482-.06226-.0254-.02016-.01164-.03485-.02434-.04589-.03775-.12966.01164-.28558.01023-.41184-.02399-.09324-.01621-.17277-.0478-.23769-.08529-.04671-.02697-.08587-.05699-.11713-.08651-.07287-.0695-.02831-.15981.10001-.19403.09051-.02411.19456-.0116.26118.02686.02111.01219.03847.02699.05044.04405.02638.03761.06432.07566.11778.10653.01373.00793.02849.01539.04434.02224.05377.03034.12392.05115.19283.06632.01089-.0127.02605-.02505.04487-.03598.01942-.01129.04069-.02011.06319-.02681-.02052-.07514-.01859-.16475.04068-.23812.0482-.09243.17449-.16228.29545-.20496.09567-.03367.2143-.0234.2882.01927z" fill="#ecf0f1"/></g><g><path d="m26.67476 11.30793-.00116.58918-2.81706 1.6371.00116-.58918z" fill="#d4d6d6"/><path d="m23.8577 12.94503-.00116.58918-2.8355-1.63708.00116-.58918z" fill="#e0e2e2"/><path d="m26.67476 11.30613-2.81706 1.6371-2.8355-1.63708 2.81707-1.6371z" fill="#ecf0f1"/><g fill="#384f63"><path d="m23.99098 9.89899c.06404.03697.06437.09614.00075.13311-.06363.03697-.16576.03698-.22981 0-.06404-.03698-.06437-.09614-.00075-.13311s.16577-.03698.22981 0z"/><path d="m26.27731 11.219c.06404.03697.06437.09614.00075.13311-.06363.03697-.16577.03698-.22981 0-.06404-.03697-.06437-.09614-.00075-.13311.06363-.03697.16577-.03697.22981 0z"/><path d="m24.93419 10.6752c.6071.35051.61022.91136.00708 1.26187s-1.5714.35053-2.1785.00002c-.60711-.35051-.61023-.91137-.00709-1.26187s1.57141-.35054 2.17851-.00002z"/><path d="m21.64952 11.2597c.06404.03698.06278.09706-.00084.13403-.06363.03698-.16417.03605-.22821-.00092s-.06597-.09521-.00234-.13219c.06362-.03697.16735-.0379.23139-.00092z"/><path d="m23.93585 12.57971c.06404.03697.06278.09706-.00084.13403-.06363.03698-.16417.03605-.22821-.00092-.06404-.03698-.06597-.09521-.00234-.13219.06362-.03697.16735-.03789.23139-.00092z"/></g><path d="m24.36552 10.75702c.01906.01101.03514.02416.0471.03928.0552.06914.00085.15169-.1214.18027-.0815.01905-.16416.04868-.22177.09349-.05159.0314-.08791.07161-.11387.11148.02257.0067.04394.01552.06288.02646s.03424.02328.04649.03669c.12905-.01129.28497-.00988.41063.02399.0933.01648.17339.04838.23863.08605.04645.02682.08537.05656.11618.08575.07348.06985.02709.16051-.10001.19403-.09051.02411-.19456.0116-.26118-.02686-.02111-.01219-.03847-.02699-.05044-.04405-.0254-.03705-.06392-.07543-.11765-.10646-.01381-.00797-.02861-.01546-.04446-.02231-.05376-.02963-.1227-.05115-.19222-.06597-.01089.01341-.02604.02575-.04425.03634-.01943.01129-.04191.02011-.06562.02681.02052.07444.01859.16475-.03947.23742-.04759.09278-.17449.16228-.29544.20496-.09567.03365-.21354.02383-.28773-.019-.01914-.01105-.03537-.02429-.04757-.03955-.0552-.06914-.00085-.15169.1214-.18027.0815-.01905.16417-.04868.22177-.09349.05159-.03069.08791-.07161.11387-.11148-.02257-.006-.04393-.01482-.06226-.0254-.02016-.01164-.03485-.02434-.04589-.03775-.12966.01164-.28558.01023-.41184-.02399-.09324-.01621-.17277-.0478-.23769-.08529-.04671-.02697-.08587-.05699-.11713-.08651-.07287-.0695-.02831-.15981.10001-.19403.09051-.02411.19456-.0116.26118.02686.02111.01219.03847.02699.05044.04405.02638.03761.06432.07566.11778.10653.01373.00793.02849.01539.04434.02224.05377.03034.12392.05115.19283.06632.01089-.0127.02605-.02505.04487-.03598.01943-.01129.04069-.02011.06319-.02681-.02052-.07514-.01859-.16475.04068-.23812.0482-.09243.17449-.16228.29545-.20496.09564-.03367.21428-.0234.28817.01926z" fill="#ecf0f1"/></g><path d="m41.68928 33.35506-1.09581-.60148-.02591-7.82879 1.09587-.62988z" fill="#fa5168"/><path d="m41.68928 33.36538-1.09581-.6118-.02591-7.82879 1.09587-.62988z" fill="#fa5168"/><g><path d="m17.06887 27.91483 6.97379 4.02635-.00168 2.43157-6.97379-4.02629z" fill="#84dbff"/><path d="m8.35371 22.88318 6.97379 4.02628-.00168 2.43157-6.97379-4.02628z" fill="#84dbff"/><path d="m7.95008 25.46889.00252-2.81729.40111.23158-.00168 2.43157z" fill="#d8463f"/><path d="m8.35203 25.31475 6.97379 4.02628-.00085.38579-7.37489-4.25793z" fill="#ed564f"/><path d="m16.66777 27.68325.4011.23158-.00168 2.43163-.40194.15415z" fill="#d8463f"/><path d="m17.06719 30.34646 6.97379 4.02629-.00084.38572-7.37489-4.25786z" fill="#ed564f"/></g><g><path d="m17.06887 32.94648 6.97379 4.02635-.00168 2.43157-6.97379-4.02629z" fill="#84dbff"/><path d="m8.35371 27.91483 6.97379 4.02628-.00168 2.43157-6.97379-4.02628z" fill="#84dbff"/><path d="m7.95008 30.50055.00252-2.8173.40111.23158-.00168 2.43157z" fill="#d8463f"/><path d="m8.35203 30.3464 6.97379 4.02628-.00085.38579-7.37489-4.25792z" fill="#ed564f"/><path d="m16.66777 32.7149.4011.23158-.00168 2.43163-.40194.15415z" fill="#d8463f"/><path d="m17.06719 35.37811 6.97379 4.02629-.00084.38572-7.37489-4.25786z" fill="#ed564f"/></g></g></g></g></g></g></svg>