<svg id="Layer_1" enable-background="new 0 0 50 50" height="512" viewBox="0 0 50 50" width="512" xmlns="http://www.w3.org/2000/svg"><g><g><g enable-background="new"><g><path d="m27.01597 22.00527c-.44901-.26055-1.06722-.22115-1.75049.17571-1.36006.7807-2.4533 2.6808-2.4533 4.24283.00651.77434.27981 1.32086.71584 1.57474l-1.73686-1.01278c-.4425-.26023-.7158-.8004-.7158-1.58109-.00651-1.56171 1.08672-3.45546 2.44678-4.24283.68327-.39051 1.30148-.42959 1.75049-.16936z" fill="#778c95"/></g><g><path d="m25.26255 22.17814c-1.3586.78439-2.45187 2.68294-2.44744 4.24401s1.10485 2.18815 2.46345 1.40377c1.3586-.78439 2.45604-2.68041 2.45161-4.24148-.00442-1.56108-1.10902-2.19069-2.46762-1.4063z" fill="#485f69"/></g></g></g><g><g enable-background="new"><g><path d="m16.05178 34.16772-.00418 1.47319-6.82672 3.96726.00417-1.47319z" fill="#b0b8bc"/></g><g><path d="m9.22348 38.13203v1.47324l-4.56326 1.50897c-.23495.07236-.53316.05427-.73198-.05427-.11743-.07236-.17164-.16237-.17164-.25282v-1.47323c0 .09045.0632.1809.18068.25326.18978.10854.48799.12619.72294.05427z" fill="#b0b8bc"/></g><g><path d="m26.81729 40.38319-.00418 1.47319-10.76551-6.21547.00418-1.47319z" fill="#cfd8dd"/></g><g><path d="m43.02772 34.22432-.00418 1.47319-20.22176 11.7516.00418-1.47319z" fill="#b0b8bc"/></g><g><path d="m22.80484 45.97561v1.47323l-4.57231 1.49971c-.2259.08162-.52411.06309-.72289-.05427-.11747-.07236-.18073-.16237-.18073-.25282l.00904-1.47323c0 .09045.05422.1809.17169.25326.19877.11737.49698.13546.72289.05427z" fill="#b0b8bc"/></g><g><path d="m43.02772 34.22432-20.22176 11.7516-4.56896 1.49891c-.2296.07999-.52879.06-.72493-.05324-.19617-.11326-.23162-.28648-.10007-.42307l2.57857-2.64807 6.82673-3.96726-10.76551-6.21547-6.82673 3.96726-4.56321 1.50223c-.23539.07665-.53454.05668-.72493-.05324-.19618-.11326-.23163-.28648-.10007-.42308l2.57857-2.64807 20.22176-11.7516z" fill="#dde4e7"/></g></g></g><g><g enable-background="new"><g><path d="m41.7794 31.17805 1.27373-.74021-.02354 3.78875-1.27374.74021z" fill="#b4403c"/></g><g><path d="m25.38881 21.71494 1.27373-.74022 16.39059 9.46312-1.27373.74021z" fill="#374950"/></g><g><path d="m41.7794 31.17805-.02355 3.78875-16.39059-9.46311.02355-3.78875z" fill="#ee5550"/></g></g><g enable-background="new"><g><path d="m36.83819 21.12735 1.27373-.74022 4.94121 10.05071-1.27373.74021z" fill="#cb4844"/></g><g><path d="m30.37656 17.39673 1.27374-.74022 6.46162 3.73062-1.27373.74022z" fill="#f17572"/></g><g><path d="m36.83819 21.12735 4.94121 10.0507-16.39059-9.46311 4.98775-4.31821z" fill="#ee5550"/></g></g></g><g><g><g enable-background="new"><g><path d="m38.33064 17.69674-.00545.44118c0 .40288-.26141.81135-.79512 1.11637l-1.9443 1.13285v-.44649l1.94972-1.12754c.5283-.31034.7897-.71349.79515-1.11637z" fill="#40545d"/></g><g><path d="m35.58773 19.94105-.00126.44395-3.89449-2.24849.00126-.44395z" fill="#485f69"/></g><g><path d="m37.52017 16.56216c1.071.61834 1.08004 1.62822.01266 2.24852l-1.9451 1.13037-3.89449-2.24849 1.9451-1.13037c1.06738-.62029 2.8039-.62237 3.88183-.00003z" fill="#56707b"/></g></g></g><g><g enable-background="new"><g><path d="m36.35482 9.49102.62384-.36254.07533 8.44787-.73916.44227z" fill="#525ba8"/></g><g><path d="m36.64516 8.92357.62384-.36254c-.17579.10034-.28955.29475-.29033.56744l-.62385.36254c.00077-.27268.11453-.4671.29034-.56744z" fill="#525ba8"/></g><g><path d="m36.20013 8.15918.62384-.36254 2.98232-1.69946-.62385.36254z" fill="#b0b8bc"/></g><g fill="#8189c3"><path d="m36.8207 7.79645-.62.35986c-.07001.04004-.15997.02979-.25-.02002-.08997-.06006-.16998-.14014-.23999-.25977l-2.96002-5.13037c-.15997-.27002-.09998-.43994-.07996-.47998.01996-.02002.02997-.05957.07996-.08984l.63-.35986c-.04999.02002-.07001.06982-.07996.08984-.03003.04004-.08002.20996.07996.47021l2.95001 5.13965c.07001.11035.15002.2002.25.25.09004.06007.18.07032.24.03028z"/><path d="m40.2607 6.85651-.63.36963c.29999-.17969.37-.63965.17999-1.18994-.16998-.48975-.53998-.92969-.91998-1.1499l-5.84998-3.37012c-.27002-.16992-.56-.19971-.73999-.08984l.62-.35986c.19-.10986.46997-.08008.75.07959l5.84998 3.38037c.38.21973.73999.65967.90997 1.1499h.01001c.17999.54004.11004 1.00976-.18 1.18017z"/></g><g><path d="m39.81193 6.03624c.19088.55239.11595 1.02292-.19011 1.19095l-2.97666 1.69638c-.1758.10034-.28957.29475-.29034.56744l-.03998 8.5276-.8051-.47912.03695-8.51505c.00079-.27939-.11152-.59762-.2805-.89031l-2.96294-5.13233c-.29855-.5171-.37057-1.07247-.17719-1.40301.17071-.29178.53865-.30696.91727-.08836l5.84919 3.37703c.38426.22186.75098.6612.91941 1.14878zm-.62949.42348c.15307-.087.09713-.32114.0747-.39265-.02249-.07155-.10669-.30866-.32148-.43266l-5.93955-3.4292c-.21479-.12401-.30006.01526-.32281.06068s-.07991.21427.07787.48074l2.95724 5.12866c.06762.11735.15655.20751.24553.25888.08904.05141.17813.06403.24619.02501z" fill="#616ab1"/></g></g></g></g><g><g enable-background="new"><g><path d="m45.52919 32.4767c-.44901-.26055-1.06722-.22115-1.75049.17571-1.36006.7807-2.4533 2.6808-2.4533 4.24283.00652.77434.27982 1.32086.71584 1.57474l-1.73686-1.01278c-.4425-.26023-.7158-.8004-.7158-1.58109-.00651-1.56171 1.08672-3.45546 2.44678-4.24283.68327-.39051 1.30148-.42959 1.75049-.16936z" fill="#778c95"/></g><g><path d="m43.77577 32.64957c-1.3586.78439-2.45187 2.68293-2.44744 4.244s1.10485 2.18816 2.46346 1.40377 2.45604-2.68041 2.45161-4.24148c-.00444-1.56107-1.10903-2.19068-2.46763-1.40629z" fill="#485f69"/></g><g><path d="m43.7805 33.9741c-.72141.41651-1.30194 1.42463-1.29959 2.25356s.58667 1.16191 1.30809.7454 1.30415-1.42329 1.3018-2.25222c-.00234-.82893-.58889-1.16325-1.3103-.74674z" fill="#40545d"/></g></g></g></g></svg>