<svg id="Layer_1" enable-background="new 0 0 50 50" height="512" viewBox="0 0 50 50" width="512" xmlns="http://www.w3.org/2000/svg"><g><g><g enable-background="new"><g><path d="m34.0271 32.87429-.03467 10.22744c-.00375 1.3268-.87612 2.65161-2.6188 3.66434-3.5078 2.03851-9.20969 2.03843-12.7404-.00003-1.77674-1.0258-2.66414-2.37176-2.66033-3.71566l.03465-10.22743c-.00379 1.3439.8836 2.68986 2.66034 3.71566 3.53071 2.03846 9.2326 2.03854 12.7404.00003 1.74268-1.01273 2.61505-2.33754 2.61881-3.66435z" fill="#40545d"/></g><g><path d="m31.36695 29.15873c3.53071 2.03845 3.54915 5.3414.04135 7.37992s-9.20969 2.03843-12.7404-.00003c-3.53072-2.03846-3.54949-5.3412-.04169-7.37971s9.21002-2.03865 12.74074-.00018z" fill="#56707b"/></g></g></g><g><g enable-background="new"><g><path d="m33.35434 8.56841-.03209 23.98358c-.00348 1.22792-.81083 2.45399-2.42363 3.39125-3.24638 1.88659-8.52332 1.88651-11.7909-.00003-1.64432-.94935-2.46559-2.195-2.46206-3.43874l.03207-23.98357c-.00351 1.24374.81775 2.48939 2.46207 3.43874 3.26757 1.88654 8.54452 1.88662 11.79089.00003 1.61281-.93726 2.42016-2.16334 2.42365-3.39126z" fill="#ee5550"/></g><g><path d="m30.89244 5.12976c3.26757 1.88654 3.28464 4.94332.03826 6.82991s-8.52332 1.88651-11.79089-.00003c-3.26758-1.88654-3.28496-4.94314-.03858-6.82972s8.52362-1.8867 11.79121-.00016z" fill="#f17572"/></g></g></g><g><g enable-background="new"><g><path d="m34.16022 7.02633-.03518 1.07846c-.00381 1.34637-.88904 2.69071-2.65742 3.71838-3.55954 2.06858-9.34551 2.06849-12.92829-.00003-1.80294-1.04093-2.70343-2.40674-2.69956-3.77046l.03516-1.07846c-.00385 1.36372.89663 2.72953 2.69958 3.77046 3.58278 2.06852 9.36875 2.06861 12.92829.00003 1.76838-1.02766 2.65361-2.37201 2.65742-3.71838z" fill="#cb4844"/></g><g><path d="m31.46084 3.25597c3.58278 2.06852 3.60149 5.42017.04195 7.48875s-9.34551 2.06849-12.92829-.00003c-3.58279-2.06852-3.60184-5.41997-.0423-7.48854s9.34586-2.0687 12.92864-.00018z" fill="#ee5550"/></g></g></g><path d="m18.15609 13.54726-.01001 1.32031 4.55005 2.62012v-1.32031z" fill="#b4403c"/><g><path d="m18.14608 14.86757.01001-1.32031-.28998-.16992-.01001 1.66015z" fill="#cb4844"/><path d="m18.14608 14.86757-.28998.16992 4.84003 2.79981v-.34961z" fill="#f17572"/></g><g><path d="m23.06135 22.60553c-.00762 2.6878-.01524 5.3756-.02285 8.05875-.88112-.03227-1.82985-.34166-2.7774-.88873s-1.89392-1.33181-2.77023-2.31419c.00761-2.68315.01523-5.37095.02285-8.05875.87632.98239 1.82269 1.76713 2.77023 2.3142.94755.54706 1.89628.85645 2.7774.88872z" fill="#ffd69a"/></g></g></svg>