<svg id="Layer_1" enable-background="new 0 0 52 52" height="512" viewBox="0 0 52 52" width="512" xmlns="http://www.w3.org/2000/svg"><g><g><g><g><g><g><g><g enable-background="new"><g><g><g><path d="m27.15383 48.06779c-.14131-.07998-.33326-.06932-.54921.05333-.42658.24794-.7705.84248-.76784 1.33038 0 .24528.08532.41591.22394.49589l-.38311-.22203c-.13863-.07998-.22394-.25328-.22394-.49589-.00267-.49057.34125-1.0851.76784-1.33038.21328-.12265.4079-.13597.54921-.05333z" fill="#5b5e71"/></g></g></g><g><g><g><path d="m26.60476 48.12231c.42555-.24569.77222-.05009.77361.4389.00139.49096-.34303 1.08751-.76858 1.33321-.42555.24569-.77222.04814-.77362-.44281-.00139-.489.34304-1.0836.76859-1.3293z" fill="#474b59"/></g></g></g><g><g><g><path d="m26.60518 48.27219c.35355-.20412.64157-.04162.64272.36464.00116.40789-.28499.90351-.63855 1.10764s-.64157.04-.64273-.36789c-.00114-.40626.28501-.90027.63856-1.10439z" fill="#d4d6d6"/></g></g></g><g><g><g><path d="m26.60518 48.27219c.35355-.20412.64157-.04162.64272.36464.00116.40789-.28499.90351-.63855 1.10764s-.64157.04-.64273-.36789c-.00114-.40626.28501-.90027.63856-1.10439z" fill="#d4d6d6"/></g></g></g></g></g><g><g enable-background="new"><g><g><g><path d="m26.45871 49.50137-.06191-.03598-.12332-1.8256.06192.03598z" fill="#c4c6c6"/></g></g></g><g><g><g><path d="m26.94105 47.3261-.11576 1.96362-.36658.21165-.12331-1.8256z" fill="#ecf0f1"/></g></g></g></g></g><g><g enable-background="new"><g><g><g><path d="m27.42781 47.44463-.00118.26439c-.00038.13404-.08829.26803-.26312.36963-.34702.20167-.92298.20356-1.27555 0-.17907-.10339-.26767-.23923-.26729-.37439l.00117-.26438c-.00038.13515.08823.271.2673.37438.35258.20356.92853.20167 1.27555 0 .17483-.1016.26274-.23559.26312-.36963z" fill="#d4d6d6"/></g></g></g><g><g><g><path d="m27.16378 47.07352c.35258.20356.35121.53717.00091.74074-.34702.20167-.92298.20356-1.27555 0-.35584-.20544-.35445-.53906-.00743-.74073.3503-.20357.92623-.20545 1.28207-.00001z" fill="#ecf0f1"/></g></g></g></g></g><g><g><g><path d="m26.65116 48.98111c.07207-.04161.13078-.00848.13101.07433.00024.08314-.05809.18417-.13016.22578s-.13078.00815-.13101-.07499c-.00024-.08281.05809-.18351.13016-.22512z" fill="#5b5e71"/></g></g></g></g><g><g><g enable-background="new"><g><g><g><path d="m14.8571 40.93862c-.14131-.07998-.33326-.06932-.54921.05333-.42658.24794-.7705.84248-.76783 1.33038 0 .24528.08532.41591.22394.49589l-.38311-.22203c-.13863-.07998-.22394-.25328-.22394-.49589-.00267-.49057.34125-1.0851.76783-1.33038.21328-.12265.4079-.13597.54921-.05333z" fill="#5b5e71"/></g></g></g><g><g><g><path d="m14.30803 40.99315c.42555-.24569.77222-.05009.77361.4389.00139.49095-.34303 1.08751-.76858 1.3332s-.77223.04814-.77362-.44281c-.00139-.48899.34303-1.0836.76859-1.32929z" fill="#474b59"/></g></g></g><g><g><g><path d="m14.30845 41.14302c.35355-.20412.64157-.04161.64272.36464.00116.40789-.28499.90351-.63855 1.10764-.35355.20412-.64157.04-.64273-.36789-.00115-.40626.28501-.90026.63856-1.10439z" fill="#d4d6d6"/></g></g></g><g><g><g><path d="m14.30845 41.14302c.35355-.20412.64157-.04161.64272.36464.00116.40789-.28499.90351-.63855 1.10764-.35355.20412-.64157.04-.64273-.36789-.00115-.40626.28501-.90026.63856-1.10439z" fill="#d4d6d6"/></g></g></g></g></g><g><g enable-background="new"><g><g><g><path d="m14.16198 42.3722-.06192-.03598-.12331-1.8256.06192.03598z" fill="#c4c6c6"/></g></g></g><g><g><g><path d="m14.64431 40.19693-.11576 1.96362-.36657.21165-.12331-1.8256z" fill="#ecf0f1"/></g></g></g></g></g><g><g enable-background="new"><g><g><g><path d="m15.13108 40.31546-.00118.26439c-.00038.13404-.08829.26803-.26312.36963-.34702.20167-.92297.20356-1.27555 0-.17907-.10339-.26767-.23923-.26729-.37439l.00118-.26438c-.00038.13515.08823.271.2673.37438.35258.20356.92853.20167 1.27555 0 .17482-.1016.26273-.23559.26311-.36963z" fill="#d4d6d6"/></g></g></g><g><g><g><path d="m14.86705 39.94435c.35258.20356.35121.53717.00091.74074-.34702.20167-.92298.20356-1.27555 0-.35584-.20544-.35445-.53906-.00743-.74073.3503-.20357.92623-.20545 1.28207-.00001z" fill="#ecf0f1"/></g></g></g></g></g><g><g><g><path d="m14.35442 41.85194c.07207-.04161.13078-.00848.13101.07433.00024.08315-.05809.18417-.13016.22578s-.13078.00815-.13101-.07499c-.00023-.08281.0581-.18351.13016-.22512z" fill="#5b5e71"/></g></g></g></g><g><g><g enable-background="new"><g><g><g><path d="m38.3319 41.71265c-.14131-.07998-.33326-.06932-.54921.05333-.42659.24794-.7705.84248-.76784 1.33038 0 .24528.08532.41591.22395.49589l-.38311-.22203c-.13863-.07998-.22394-.25328-.22394-.49589-.00267-.49057.34125-1.0851.76783-1.33038.21328-.12265.4079-.13597.54921-.05333z" fill="#5b5e71"/></g></g></g><g><g><g><path d="m37.78283 41.76718c.42555-.24569.77222-.05009.77361.4389.00139.49095-.34303 1.08751-.76858 1.3332s-.77222.04814-.77362-.44281c-.00139-.48899.34304-1.0836.76859-1.32929z" fill="#474b59"/></g></g></g><g><g><g><path d="m37.78326 41.91706c.35355-.20412.64157-.04162.64272.36464.00116.40789-.28499.90351-.63855 1.10764-.35355.20412-.64157.04-.64273-.36789-.00115-.40627.285-.90027.63856-1.10439z" fill="#d4d6d6"/></g></g></g><g><g><g><path d="m37.78326 41.91706c.35355-.20412.64157-.04162.64272.36464.00116.40789-.28499.90351-.63855 1.10764-.35355.20412-.64157.04-.64273-.36789-.00115-.40627.285-.90027.63856-1.10439z" fill="#d4d6d6"/></g></g></g></g></g><g><g enable-background="new"><g><g><g><path d="m37.63678 43.14623-.06191-.03598-.12331-1.82559.06191.03598z" fill="#c4c6c6"/></g></g></g><g><g><g><path d="m38.11912 40.97097-.11576 1.96362-.36658.21164-.12331-1.82559z" fill="#ecf0f1"/></g></g></g></g></g><g><g enable-background="new"><g><g><g><path d="m38.60589 41.0895-.00118.26439c-.00038.13404-.08829.26803-.26312.36963-.34702.20167-.92298.20356-1.27555 0-.17907-.10339-.26768-.23923-.26729-.37439l.00117-.26438c-.00038.13515.08823.271.2673.37438.35258.20356.92853.20167 1.27555 0 .17482-.1016.26274-.23559.26312-.36963z" fill="#d4d6d6"/></g></g></g><g><g><g><path d="m38.34185 40.71839c.35258.20356.35121.53717.00091.74074-.34702.20167-.92297.20356-1.27555 0-.35583-.20544-.35445-.53906-.00743-.74073.35031-.20358.92624-.20546 1.28207-.00001z" fill="#ecf0f1"/></g></g></g></g></g><g><g><g><path d="m37.82923 42.62598c.07207-.04161.13078-.00848.13101.07433.00024.08315-.05809.18417-.13016.22578s-.13078.00815-.13102-.07499c-.00023-.08282.0581-.18352.13017-.22512z" fill="#5b5e71"/></g></g></g></g></g></g></g><g><path d="m26.22161 21.43136c-.15997-.09998-.39001-.08002-.64001.06l-9.79999 5.66003c-.5.28998-.89996.97998-.89996 1.56l.01996 7.78998v2.69l.01001 2.15997v.01001l-1.87-1.08997-.01001-2.16003v-2.69l-.02002-7.79999c0-.57001.40002-1.27002.90002-1.56l9.79999-5.65997c.25-.14001.48004-.15002.64001-.06z" fill="#ecf0f1"/><g><path d="m25.58075 21.49132c.49713-.28702.90242-.05606.90404.51616l.03586 12.65012-11.60432 6.69976-.03586-12.65012c-.00162-.57222.40104-1.26965.89818-1.55667z" fill="#e0e2e2"/></g></g><g enable-background="new"><g><path d="m37.34849 30.12503-.03066 10.8129-11.52639 6.69841.03065-10.8129z" fill="#b6b9ba"/></g><g><path d="m25.82209 36.82344-.03065 10.8129-10.8796-6.28134.03066-10.8129z" fill="#ecf0f1"/></g><path d="m37.34849 30.12503-11.5264 6.69841-10.87959-6.28134 11.52639-6.69841z" fill="#d4d6d6"/></g><g><path d="m15.72313 30.44707 9.71388 5.60831 1.02059-.5931v-11.25337z" fill="#5b5e71"/><path d="m26.4576 24.20891v11.25337l9.71388-5.64513z" fill="#474b59"/></g><g><g enable-background="new"><g><path d="m26.97898 35.98684-.46745-.27165-.2151-.16629.46745.27165z" fill="#796208"/></g><g><path d="m26.76248 35.32717-.46745-.27165 3.37408-5.24268.46745.27165z" fill="#e74c3c"/></g><g><path d="m27.25397 27.95889-.46745-.27165 3.90227 1.53689.46744.27165z" fill="#c14242"/></g><g><path d="m23.37063 33.9908-.46745-.27165 3.39185 1.33637.46745.27165z" fill="#c14242"/></g><g><path d="m26.74103 27.75986-.46745-.27165 3.37408-5.24269.46745.27165z" fill="#e74c3c"/></g><g><path d="m22.35094 34.57952-.46745-.27165 3.88082-6.03045.46744.27165z" fill="#e74c3c"/></g><g><path d="m27.23252 20.39257-.46745-.27165 3.90227 1.53589.46744.27165z" fill="#c14242"/></g><g><path d="m23.34918 26.42348-.46745-.27165 3.39185 1.33638.46745.27165z" fill="#c14242"/></g><g><path d="m26.71957 20.19256-.46744-.27165 3.37408-5.24171.46744.27165z" fill="#e74c3c"/></g><g><path d="m22.32948 27.0122-.46744-.27165 3.88082-6.02945.46744.27165z" fill="#e74c3c"/></g><g><path d="m27.21107 12.82625-.46745-.27165 3.90227 1.53589.46744.27165z" fill="#c14242"/></g><g><path d="m23.32773 18.85716-.46745-.27165 3.39185 1.3354.46744.27165z" fill="#c14242"/></g><g><path d="m26.69812 12.62624-.46744-.27165 3.37408-5.24171.46744.27165z" fill="#e74c3c"/></g><g><path d="m22.30803 19.44588-.46744-.27165 3.88081-6.02945.46745.27165z" fill="#e74c3c"/></g><g><path d="m26.67808 5.55721-.46744-.27165.21345-.41469.46744.27165z" fill="#ae8d0b"/></g><g><path d="m26.89153 5.14252-.46744-.27165 4.20035 1.6533.46744.27165z" fill="#c14242"/></g><g><path d="m23.30628 11.29084-.46745-.27165 3.39185 1.3354.46744.27165z" fill="#c14242"/></g><g><path d="m27.21107 12.82625 3.90226 1.53589-3.88081 6.03043 3.90226 1.53589-3.88081 6.03043 3.90227 1.53688-4.17726 6.49107-.2151-.16629-.21258.41321-4.20036-1.65424 3.88081-6.03045-3.90227-1.53687 3.88082-6.02946-3.90227-1.53687 3.88081-6.02945-3.90226-1.53687 4.17727-6.49012.21422.16777.21345-.41469 4.20035 1.6533zm2.92549 17.25824-3.39273-1.33588-3.3732 5.2422 3.39185 1.33637zm-.02145-7.56732-3.39273-1.33489-3.3732 5.2412 3.39185 1.33637zm-6.80883-11.22633 3.39185 1.3354 3.37408-5.24171-3.39273-1.33491zm3.41329 8.90172 3.37408-5.24171-3.39272-1.33489-3.3732 5.2412z" fill="#d8463f"/></g><g><path d="m22.28658 11.87956-.46744-.27165 4.17727-6.49012.46745.27165z" fill="#e74c3c"/></g></g></g><g><g enable-background="new"><g><path d="m38.98841 8.38708-.00539 1.9013-10.99136 6.38748.00539-1.9013z" fill="#c44"/></g><g><path d="m27.99705 14.77456-.00539 1.9013-11.06327-6.38738.00539-1.9013z" fill="#d8463f"/></g><g><path d="m38.9883 8.38694-10.99149 6.3879-11.06344-6.3879 10.99151-6.38694z" fill="#e74c3c"/><g><g><path d="m17.51505 8.38615 1.78275 1.02934 8.62752-5.0133v-2.06526z" fill="#c44"/><path d="m27.92532 2.33693v2.06526l8.69851 5.02167 1.78274-1.03609z" fill="#d8463f"/></g><path d="m36.62383 9.42386-8.69851-5.02167-8.62752 5.0133 8.69851 5.02245z" fill="#c14242"/></g></g></g></g><path d="m20.53129 33.22306 4.8609 2.83232-.18567.41266-5.52138-3.18777z" fill="#d4d6d6"/><path d="m38.41161 28.46139c-.15997-.09003-.39001-.08002-.64001.06995l-9.79999 5.66004c-.5.27997-.89996.97998-.89996 1.54999l.01996 7.81.01001 2.69.01001 2.15002-1.32001-.76001-.54999-.32001-.01001-2.15002-.01001-2.69-.01001-6-.01001-1.81c0-.57996.40002-1.26996.90002-1.56l9.79999-5.65998c.25-.15002.48004-.16003.64001-.06z" fill="#ecf0f1"/><g><path d="m38.7116 41.69137-11.59998 6.70001-.03998-12.65002c0-.57001.39996-1.27002.89996-1.54999l9.79999-5.66004c.5-.28998.90002-.06.90002.51001l.02002 7.83002.00995 2.67999z" fill="#e0e2e2"/></g><g><g><g><g><path d="m26.61466 4.13087.01147 3.62449 3.64419 2.11777-.01147-3.62449z" fill="#d6b218"/></g><g><path d="m30.25885 6.24864.01147 3.62449 3.30311-1.90705-.01148-3.62449z" fill="#e5bd13"/></g><g><path d="m26.61389 4.13314 3.64497 2.11772 1.44291-.83539.41771-.23627.00843-.0042 1.43449-.83117-3.645-2.11772-1.44291.83117-.00423.00422-.41346.23627z" fill="#f1c40f"/></g><g><path d="m28.0568 3.29777 3.64497 2.1177.41771-.23627.00843-.0042-3.65342-2.11772-.00423.00422z" fill="#5b5e71"/></g><g><path d="m31.70177 5.41547.00389.59859.23362-.29913.18863.05799-.00389-.59859z" fill="#474b59"/></g><g><g><g><path d="m29.52809 8.27463-.11368.21632.07041.04065.15537.08904z" fill="#3f434f"/></g></g><g><g><path d="m29.48482 8.5316-.00122.42794.08496.04905.00121-.42794z" fill="#3f434f"/></g></g><g><g><path d="m29.06278 8.75475-.00026.09161.58656.33865.00026-.09161z" fill="#3f434f"/></g></g><g><g><path d="m28.43935 7.64604-.00087.3049c-.00027.09629.05537.20811.12923.26482l-.00078.27482c-.05181-.02388-.09086-.02165-.09095.0071l.22869.13203c.00008-.02875-.03884-.076-.09061-.11192l.00078-.27482c.03377.01347.06292.01021.08569-.00411.02688-.01997.04447-.05737.04462-.11086l.00086-.3049z" fill="#3f434f"/></g></g><g><g><path d="m29.14498 8.3354-.00121.42794.08496.04905.00121-.42794z" fill="#3f434f"/></g></g><g><g><path d="m29.18768 8.07809-.11311.21666.07041.04065.15479.0887z" fill="#3f434f"/></g></g></g></g><g><g><path d="m30.76887 8.38911v.89186l1.34179-.78053v-.8929z" fill="#ecf0f1"/></g><g><g><g><path d="m30.76887 8.81227v.04175l1.34179-.77463v-.04248z" fill="#a4a9b3"/></g></g><g><g><path d="m30.76887 8.96838v.04449l1.34179-.77463v-.04622z" fill="#3f434f"/></g></g><g><g><path d="m30.76887 9.12416v.04644l1.34179-.77366v-.04643z" fill="#a4a9b3"/></g></g><g><g><path d="m30.76887 8.65148v.04595l1.34179-.77536v-.04424z" fill="#a4a9b3"/></g></g><g><g><path d="m30.76887 8.49376v.04399l1.34179-.77466v-.04397z" fill="#a4a9b3"/></g></g></g></g></g></g><g><g><g><g><path d="m20.66251 6.11816.01147 3.62449 3.64418 2.11776-.01147-3.62449z" fill="#d6b218"/></g><g><path d="m24.30669 8.23592.01147 3.62449 3.30311-1.90704-.01147-3.62449z" fill="#e5bd13"/></g><g><path d="m20.66173 6.12043 3.64497 2.11771 1.44292-.83539.41771-.23627.00842-.00419 1.43449-.83118-3.64499-2.11771-1.44292.83117-.00422.00422-.41347.23627z" fill="#f1c40f"/></g><g><path d="m22.10464 5.28506 3.64498 2.11769.41771-.23627.00842-.00419-3.65342-2.11772-.00422.00422z" fill="#5b5e71"/></g><g><path d="m25.74962 7.40275.00389.59859.23362-.29913.18862.058-.00389-.59859z" fill="#474b59"/></g><g><g><g><path d="m23.57594 10.26191-.11369.21633.07041.04065.15537.08903z" fill="#3f434f"/></g></g><g><g><path d="m23.53266 10.51889-.00122.42794.08496.04905.00122-.42794z" fill="#3f434f"/></g></g><g><g><path d="m23.11062 10.74204-.00026.09161.58656.33865.00026-.09161z" fill="#3f434f"/></g></g><g><g><path d="m22.48719 9.63333-.00086.3049c-.00027.09629.05536.20811.12923.26482l-.00078.27482c-.05181-.02388-.09087-.02165-.09095.0071l.22869.13203c.00008-.02875-.03884-.076-.09061-.11192l.00078-.27482c.03377.01347.06292.01021.08569-.00411.02687-.01998.04446-.05738.04461-.11087l.00086-.3049z" fill="#3f434f"/></g></g><g><g><path d="m23.19283 10.32269-.00122.42793.08496.04906.00121-.42794z" fill="#3f434f"/></g></g><g><g><path d="m23.23552 10.06537-.1131.21667.07041.04065.15478.0887z" fill="#3f434f"/></g></g></g></g><g><g><path d="m24.81671 10.3764v.89185l1.34179-.78052v-.8929z" fill="#ecf0f1"/></g><g><g><g><path d="m24.81671 10.79956v.04175l1.34179-.77463v-.04249z" fill="#a4a9b3"/></g></g><g><g><path d="m24.81671 10.95567v.04449l1.34179-.77463v-.04623z" fill="#3f434f"/></g></g><g><g><path d="m24.81671 11.11145v.04643l1.34179-.77365v-.04643z" fill="#a4a9b3"/></g></g><g><g><path d="m24.81671 10.63876v.04596l1.34179-.77537v-.04424z" fill="#a4a9b3"/></g></g><g><g><path d="m24.81671 10.48104v.04399l1.34179-.77465v-.04397z" fill="#a4a9b3"/></g></g></g></g></g></g><g><g><g><g><path d="m26.02121 8.6699.00902 2.85124 2.86673 1.66595-.00902-2.85123z" fill="#d6b218"/></g><g><path d="m28.88794 10.33586.00902 2.85123 2.59841-1.50019-.00902-2.85123z" fill="#e5bd13"/></g><g><path d="m26.0206 8.67169 2.86734 1.66592 1.13509-.65717.32859-.18586.00662-.0033 1.12846-.65385-2.86736-1.66592-1.13509.65385-.00332.00332-.32525.18586z" fill="#f1c40f"/></g><g><path d="m27.15568 8.01454 2.86735 1.6659.32859-.18586.00662-.0033-2.87399-1.66592-.00332.00332z" fill="#5b5e71"/></g><g><path d="m30.02303 9.68044.00305.47089.18378-.23532.14838.04563-.00305-.47089z" fill="#474b59"/></g><g><g><g><path d="m28.31308 11.92962-.08943.17017.05539.03198.12222.07004z" fill="#3f434f"/></g></g><g><g><path d="m28.27904 12.13177-.00096.33664.06684.03859.00095-.33664z" fill="#3f434f"/></g></g><g><g><path d="m27.94704 12.30732-.00021.07206.46142.2664.00021-.07206z" fill="#3f434f"/></g></g><g><g><path d="m27.45661 11.43514-.00068.23986c-.00022.07574.04355.16371.10166.20832l-.00061.21619c-.04075-.01879-.07148-.01703-.07154.00558l.1799.10387c.00006-.02262-.03055-.05979-.07128-.08804l.00061-.21619c.02656.01059.0495.00803.06741-.00323.02114-.01572.03498-.04514.03509-.08722l.00068-.23985z" fill="#3f434f"/></g></g><g><g><path d="m28.0117 11.97743-.00095.33664.06683.03859.00096-.33664z" fill="#3f434f"/></g></g><g><g><path d="m28.04529 11.77501-.08897.17044.05538.03198.12177.06977z" fill="#3f434f"/></g></g></g></g><g><g><path d="m29.28914 12.01968v.70158l1.05554-.614v-.70241z" fill="#ecf0f1"/></g><g><g><g><path d="m29.28914 12.35256v.03285l1.05554-.60937v-.03343z" fill="#a4a9b3"/></g></g><g><g><path d="m29.28914 12.47537v.035l1.05554-.60937v-.03637z" fill="#3f434f"/></g></g><g><g><path d="m29.28914 12.59791v.03653l1.05554-.6086v-.03652z" fill="#a4a9b3"/></g></g><g><g><path d="m29.28914 12.22607v.03615l1.05554-.60994v-.03481z" fill="#a4a9b3"/></g></g><g><g><path d="m29.28914 12.102v.03461l1.05554-.60939v-.03459z" fill="#a4a9b3"/></g></g></g></g></g></g></g><g><path d="m38.70159 39.55135-11.58997 6.69001-.01001-2.68 11.59003-6.69z" fill="#d4d6d6"/></g><g><path d="m27.10161 46.24136-1.29999-.76001-.57-.32001-10.31-5.95996-.02002-.01001-1.87-1.08002v-2.69l1.87 1.08002.02002.02002 10.29999 5.94995.58001.33001 1.28998.75z" fill="#e0e2e2"/></g></g></svg>