<svg id="Layer_1" enable-background="new 0 0 52 52" height="512" viewBox="0 0 52 52" width="512" xmlns="http://www.w3.org/2000/svg"><g><g><g><g><g><g><path d="m42.86681 29.54648.0037 1.17077 1.17714.68408-.00371-1.17078z" fill="#d6b218"/></g><g><path d="m44.04394 30.23055.00371 1.17078 1.06695-.61601-.0037-1.17078z" fill="#e5bd13"/></g><g><path d="m42.86655 29.54721 1.17739.68406.46609-.26984.13493-.07632.00272-.00136.46337-.26848-1.1774-.68406-.46609.26848-.00137.00137-.13355.07631z" fill="#f1c40f"/></g><g><path d="m43.33264 29.27737 1.17739.68406.13493-.07632.00272-.00136-1.18012-.68406-.00137.00137z" fill="#ecf0f1"/></g><g><path d="m44.51003 29.96143.00125.19335.07547-.09662.06093.01873-.00126-.19336z" fill="#e0e2e2"/></g><g><g><g><path d="m43.80789 30.88498-.03672.06988.02274.01313.05019.02876z" fill="#3f434f"/></g></g><g><g><path d="m43.79391 30.96799-.00039.13823.02744.01585.0004-.13823z" fill="#3f434f"/></g></g><g><g><path d="m43.65759 31.04007-.00008.02959.18946.10939.00009-.02959z" fill="#3f434f"/></g></g><g><g><path d="m43.45621 30.68194-.00028.09849c-.00009.0311.01788.06722.04174.08554l-.00025.08877c-.01674-.00772-.02935-.00699-.02938.00229l.07387.04265c.00003-.00929-.01255-.02455-.02927-.03615l.00025-.08877c.01091.00435.02032.0033.02768-.00133.00868-.00646.01436-.01854.01441-.03581l.00028-.09849z" fill="#3f434f"/></g></g><g><g><path d="m43.68414 30.90462-.00039.13823.02744.01584.0004-.13823z" fill="#3f434f"/></g></g><g><g><path d="m43.69793 30.8215-.03653.06998.02274.01314.05.02865z" fill="#3f434f"/></g></g></g></g><g><g><path d="m44.20868 30.92196v.28809l.43343-.25212v-.28843z" fill="#ecf0f1"/></g><g><g><g><path d="m44.20868 31.05865v.01349l.43343-.25022v-.01372z" fill="#a4a9b3"/></g></g><g><g><path d="m44.20868 31.10908v.01437l.43343-.25022v-.01493z" fill="#3f434f"/></g></g><g><g><path d="m44.20868 31.1594v.015l.43343-.24991v-.015z" fill="#a4a9b3"/></g></g><g><g><path d="m44.20868 31.00671v.01485l.43343-.25046v-.01429z" fill="#a4a9b3"/></g></g><g><g><path d="m44.20868 30.95577v.01421l.43343-.25023v-.0142z" fill="#a4a9b3"/></g></g></g></g></g></g><g><g><g><g><path d="m41.43978 30.37037.00371 1.17078 1.17713.68407-.0037-1.17077z" fill="#d6b218"/></g><g><path d="m42.61692 31.05445.0037 1.17077 1.06696-.61601-.0037-1.17077z" fill="#e5bd13"/></g><g><path d="m41.43953 30.37111 1.17739.68405.46608-.26984.13493-.07632.00272-.00136.46337-.26848-1.1774-.68406-.46609.26848-.00136.00137-.13355.07632z" fill="#f1c40f"/></g><g><path d="m41.90562 30.10127 1.17738.68405.13493-.07632.00272-.00136-1.18012-.68406-.00136.00137z" fill="#ecf0f1"/></g><g><path d="m43.083 30.78532.00126.19335.07547-.09662.06092.01873-.00125-.19335z" fill="#e0e2e2"/></g><g><g><g><path d="m42.38087 31.70888-.03672.06987.02274.01313.05019.02876z" fill="#3f434f"/></g></g><g><g><path d="m42.36689 31.79188-.00039.13823.02744.01585.00039-.13823z" fill="#3f434f"/></g></g><g><g><path d="m42.23056 31.86397-.00008.02959.18947.10938.00008-.02958z" fill="#3f434f"/></g></g><g><g><path d="m42.02919 31.50583-.00028.09849c-.00009.0311.01788.06722.04174.08554l-.00025.08877c-.01673-.00772-.02935-.00699-.02938.00229l.07387.04265c.00003-.00929-.01255-.02455-.02927-.03615l.00025-.08877c.01091.00435.02032.0033.02768-.00133.00868-.00645.01436-.01854.01441-.03581l.00028-.09849z" fill="#3f434f"/></g></g><g><g><path d="m42.25712 31.72851-.00039.13823.02744.01584.00039-.13823z" fill="#3f434f"/></g></g><g><g><path d="m42.27091 31.64539-.03653.06999.02274.01313.05.02865z" fill="#3f434f"/></g></g></g></g><g><g><path d="m42.78166 31.74586v.28808l.43342-.25212v-.28842z" fill="#ecf0f1"/></g><g><g><g><path d="m42.78166 31.88255v.01348l.43342-.25022v-.01372z" fill="#a4a9b3"/></g></g><g><g><path d="m42.78166 31.93297v.01437l.43342-.25022v-.01493z" fill="#3f434f"/></g></g><g><g><path d="m42.78166 31.98329v.015l.43342-.2499v-.015z" fill="#a4a9b3"/></g></g><g><g><path d="m42.78166 31.83061v.01484l.43342-.25046v-.01429z" fill="#a4a9b3"/></g></g><g><g><path d="m42.78166 31.77966v.01421l.43342-.25023v-.0142z" fill="#a4a9b3"/></g></g></g></g></g></g><g><g><g><g><path d="m40.01276 31.19426.0037 1.17078 1.17714.68407-.00371-1.17077z" fill="#d6b218"/></g><g><path d="m41.18989 31.87834.00371 1.17077 1.06696-.61601-.00371-1.17077z" fill="#e5bd13"/></g><g><path d="m40.0125 31.195 1.1774.68406.46608-.26985.13493-.07632.00272-.00135.46337-.26849-1.1774-.68406-.46609.26849-.00136.00136-.13356.07632z" fill="#f1c40f"/></g><g><path d="m40.47859 30.92516 1.17739.68405.13493-.07632.00272-.00135-1.18012-.68406-.00136.00136z" fill="#ecf0f1"/></g><g><path d="m41.65598 31.60921.00126.19336.07546-.09663.06093.01874-.00126-.19336z" fill="#e0e2e2"/></g><g><g><g><path d="m40.95385 32.53277-.03673.06988.02275.01313.05018.02876z" fill="#3f434f"/></g></g><g><g><path d="m40.93987 32.61578-.0004.13823.02745.01584.00039-.13823z" fill="#3f434f"/></g></g><g><g><path d="m40.80354 32.68786-.00008.02959.18946.10939.00009-.02959z" fill="#3f434f"/></g></g><g><g><path d="m40.60216 32.32972-.00028.09849c-.00009.0311.01788.06722.04174.08554l-.00025.08877c-.01673-.00771-.02935-.00699-.02938.0023l.07387.04265c.00003-.00929-.01254-.02455-.02927-.03615l.00025-.08877c.01091.00435.02032.0033.02768-.00132.00868-.00646.01436-.01854.01441-.03582l.00028-.09849z" fill="#3f434f"/></g></g><g><g><path d="m40.83009 32.5524-.00039.13823.02744.01584.0004-.13823z" fill="#3f434f"/></g></g><g><g><path d="m40.84388 32.46928-.03653.06999.02274.01313.05.02865z" fill="#3f434f"/></g></g></g></g><g><g><path d="m41.35464 32.56975v.28808l.43342-.25212v-.28842z" fill="#ecf0f1"/></g><g><g><g><path d="m41.35464 32.70644v.01348l.43342-.25022v-.01372z" fill="#a4a9b3"/></g></g><g><g><path d="m41.35464 32.75687v.01437l.43342-.25022v-.01494z" fill="#3f434f"/></g></g><g><g><path d="m41.35464 32.80718v.015l.43342-.2499v-.015z" fill="#a4a9b3"/></g></g><g><g><path d="m41.35464 32.6545v.01484l.43342-.25046v-.01429z" fill="#a4a9b3"/></g></g><g><g><path d="m41.35464 32.60355v.01421l.43342-.25023v-.0142z" fill="#a4a9b3"/></g></g></g></g></g></g></g><g><g><g><g><g enable-background="new"><g><path d="m34.9518 37.1375-17.16946-9.98531-.03204-1.00277 17.2015 9.99641z" fill="#db7121"/></g><g><path d="m49.9693 27.47132-4.08002 2.36005-.53998.29999v-1.38001l-5.23004 3.01001v.85999l.01001.20001v.33002l-.52997.31-.37006.20996-4.27996 2.47003-1.5-.87-8.09003-4.70001-2.66998-1.54999-4.94001-2.86999.77002-.44 4.20996-2.43006.02002-.01996.19001-.10998.60998-.35004 1.17005-.66998.14996-.09003.23999-.13995.30005-.17005.13995-.08996h.01001l.19-.11005.06-.02997.72003-.41998.01996-.01001.71002-.41003 5.51001-3.18 5.20996 3.03003 2.40003 1.39002 4.47998 2.59997.36005.21003.64996.38 3.33002 1.92999z" fill="#e67e22"/></g><g fill="#cc6723"><path d="m39.5993 33.46138.52997-.31v1.00995l-.52997.30999-.37006.21003-4.27996 2.46002v-1l4.27996-2.47003z"/><path d="m49.99926 28.48133-4.10998 2.37-.53998-.3389v-.38107l.53998-.29999 4.08002-2.36005z"/></g></g></g><g><g enable-background="new"><g><path d="m34.8974 35.84112-16.38189-9.52012-.03051-10.76127 16.38189 9.52011z" fill="#ecf0f1"/></g><g><path d="m34.86689 25.07984-16.38189-9.52011 14.3014-8.25692 16.38189 9.52012z" fill="#9b210c"/></g><g><path d="m49.19928 27.02137v.56l-3.32001 1.90997-.52997.31v-1.04999l-5.23004 3.01001v.85999l.01001.20001-.53998.31-.36999.21002-4.32001 2.5-.03003-10.76001 5.51001-3.17999 8.78998-5.08002z" fill="#d4d6d6"/></g></g><g enable-background="new"><g><path d="m42.00811 15.28304-16.38189-9.52011 7.89831 1.11372 16.38189 9.52011z" fill="#3498db"/></g><g><path d="m34.13533 25.50221-16.38189-9.52011 7.87278-10.21917 16.38189 9.52011z" fill="#328eb7"/></g><g><path d="m42.00811 15.28304 7.89831 1.11372-.73813.42617-14.3014 8.25691-.73156.42237z" fill="#3087a5"/></g></g></g><g><g><g><g><g><path d="m39.59879 34.89838-.37168-.216-.02397-6.92233.37167.216z" fill="#525566"/></g><g><path d="m39.57481 27.97605-.37167-.216 6.29165-3.63249.37168.216z" fill="#5b5e71"/></g><path d="m45.88928 29.83137v1.01996l-.53998-.33339v-1.76659l-5.23004 3.01001v.85999l.01001.20001v1.77002l-.52997.31v-1.44l-.01001-.33002-.01001-5.16004 5.64002-3.25994.64996-.37v.75l.01001 4.39996z" fill="#474b59"/><g><path d="m45.3493 28.56135v.19l-5.23004 3.01001v-3.48004l4.81-2.76996v-.01001l.40002-.22998v.84998l.01001.34003v1.75994z" fill="#cad0dd"/></g></g></g><g><g enable-background="new"><g><path d="m45.3493 28.56135v.19l-5.23004 3.01001v-.19z" fill="#9ca1ab"/></g><g><path d="m45.33814 28.02972v.19433l-5.21602 3.01612v-.19434z" fill="#9ca1ab"/></g><g><path d="m45.33814 27.50896v.19433l-5.21602 3.00824v-.19434z" fill="#9ca1ab"/></g><g><path d="m45.33814 26.9881v.18656l-5.21602 3.01611v-.19434z" fill="#9ca1ab"/></g></g><g><path d="m45.33814 26.45946v.19434l-5.2238 3.00842v-.19433z" fill="#9ca1ab"/></g><g><path d="m45.33036 25.93092v.19434l-5.21602 3.00832v-.18655z" fill="#9ca1ab"/></g><g><path d="m45.33036 25.40228v.19434l-5.21602 3.01611v-.19434z" fill="#9ca1ab"/></g></g></g></g><g><g><path d="m22.74827 23.2949.19207-.11162.00751-3.26606-.19207.11162z" fill="#cad0dd"/><path d="m22.75578 20.02884.19207-.11162-3.33333-1.9245-.19207.11162z" fill="#fff"/><path d="m19.42245 18.10434-.00752 3.26606 3.33334 1.9245.00751-3.26606z" fill="#d4d6d6"/><path d="m19.80268 21.15948.00991-2.65946-.24254-.13859-.00492 2.92179z" fill="#cad0dd"/><path d="m19.80268 21.15948-.23755.12374 3.03597 1.75576v-.26726z" fill="#fff"/><path d="m19.81259 18.50002-.00991 2.65946 2.79842 1.61224.00492-2.65946z" fill="#5b5e71"/></g><g><path d="m28.04566 26.35335.19207-.11162.00751-3.26606-.19207.11162z" fill="#cad0dd"/><path d="m28.05317 23.08729.19207-.11162-3.33333-1.9245-.19207.11162z" fill="#fff"/><path d="m24.71984 21.16279-.00752 3.26606 3.33334 1.9245.00751-3.26606z" fill="#d4d6d6"/><path d="m25.10007 24.21794.00991-2.65947-.24254-.1386-.00492 2.9218z" fill="#cad0dd"/><path d="m25.10007 24.21794-.23755.12373 3.03597 1.75576v-.26726z" fill="#fff"/><path d="m25.10998 21.55847-.00991 2.65947 2.79842 1.61223.00492-2.65946z" fill="#5b5e71"/></g><g><path d="m33.34305 29.4118.19207-.11162.00751-3.26606-.19207.11162z" fill="#cad0dd"/><path d="m33.35056 26.14574.19207-.11162-3.33333-1.9245-.19207.11162z" fill="#fff"/><path d="m30.01723 24.22124-.00752 3.26606 3.33334 1.9245.00751-3.26606z" fill="#d4d6d6"/><path d="m30.39746 27.27638.00991-2.65946-.24254-.1386-.00492 2.9218z" fill="#cad0dd"/><path d="m30.39746 27.27638-.23755.12374 3.03597 1.75575v-.26725z" fill="#fff"/><path d="m30.40737 24.61692-.00991 2.65946 2.79842 1.61224.00492-2.65946z" fill="#5b5e71"/></g></g></g><g><g><g enable-background="new"><g><path d="m19.20223 46.23707-17.16946-9.98531-.03203-1.00277 17.20149 9.99641z" fill="#db7121"/></g><g><path d="m19.20223 45.2454-17.20149-9.99641 15.0169-8.67001 17.2015 9.99641z" fill="#e67e22"/></g><g><path d="m34.21914 36.57539.03203 1.00277-15.04894 8.65891v-.99167z" fill="#cc6723"/></g></g></g><g><g enable-background="new"><g><path d="m19.14784 44.94069-16.38189-9.52012-.03051-10.76127 16.38189 9.52011z" fill="#ecf0f1"/></g><g><path d="m19.11733 34.17941-16.38189-9.52011 14.30139-8.25691 16.38189 9.52011z" fill="#9b210c"/></g><g><path d="m33.41872 25.9225.03051 10.76127-14.30139 8.25692-.03051-10.76128z" fill="#d4d6d6"/></g></g><g enable-background="new"><g><path d="m26.25855 24.38261-16.38189-9.52011 7.8983 1.11372 16.3819 9.52012z" fill="#3498db"/></g><g><path d="m18.38577 34.60178-16.3819-9.52011 7.87279-10.21917 16.38189 9.52011z" fill="#328eb7"/></g><g><path d="m26.25855 24.38261 7.89831 1.11373-.73814.42616-14.30139 8.25691-.73156.42237z" fill="#3087a5"/></g></g></g><g><g><g><g><g><path d="m23.84922 43.99795-.37168-.21599-.02397-6.92234.37168.216z" fill="#525566"/></g><g><path d="m23.82525 37.07562-.37168-.216 6.29165-3.63249.37168.216z" fill="#5b5e71"/></g><path d="m30.1169 33.44313.02397 6.92233-6.29165 3.63249-.02397-6.92233z" fill="#474b59"/><g><path d="m29.60413 39.76451v.90953l-5.22379 3.01601v-1.77228l-.00779-.19433v-2.62744l-.00778-.3342v-1.37592l4.81178-2.77519.00779-.00778.39645-.23324v.85516l.00778.3342v1.7646l.00778.3343v1.77228z" fill="#cad0dd"/></g></g></g><g><g enable-background="new"><g><path d="m29.60413 40.29314v.18656l-5.22379 3.01602v-.19434z" fill="#9ca1ab"/></g><g><path d="m29.60413 39.76451v.19433l-5.22379 3.01611v-.19433z" fill="#9ca1ab"/></g><g><path d="m29.59635 39.23587v.19434l-5.21601 3.00842v-.18655z" fill="#9ca1ab"/></g><g><path d="m29.59635 38.71511v.18655l-5.21601 3.01611-.00779-.19433z" fill="#9ca1ab"/></g><g><path d="m29.59635 38.18657v.18655l-5.2238 3.01602v-.19434z" fill="#9ca1ab"/></g><g><path d="m29.59635 37.65793v.19433l-5.2238 3.00833v-.18655z" fill="#9ca1ab"/></g><g><path d="m29.58857 37.12929v.19434l-5.21602 3.01611v-.19434z" fill="#9ca1ab"/></g><g><path d="m29.58857 36.60853v.19433l-5.21602 3.00824v-.19434z" fill="#9ca1ab"/></g><g><path d="m29.58857 36.08767v.18656l-5.21602 3.01611v-.19434z" fill="#9ca1ab"/></g></g><g><path d="m29.58857 35.55903v.19434l-5.2238 3.00843v-.19434z" fill="#9ca1ab"/></g><g><path d="m29.58079 35.03049v.19434l-5.21602 3.00832v-.18655z" fill="#9ca1ab"/></g><g><path d="m29.58079 34.50185v.19434l-5.21602 3.01611v-.19434z" fill="#9ca1ab"/></g></g></g></g><g><g><g><path d="m6.9987 31.93962.19207-.11162.00752-2.26606-.19207.11162z" fill="#d4d6d6"/><path d="m7.00622 29.67356.19207-.11162-3.33334-1.9245-.19207.11162z" fill="#fff"/><path d="m3.67288 27.74906-.00751 2.26606 3.33333 1.9245.00752-2.26606z" fill="#e0e2e2"/><path d="m4.05312 29.80421.00991-1.65947-.24255-.13859-.00492 1.92179z" fill="#d4d6d6"/><path d="m4.05312 29.80421-.23756.12373 3.03597 1.75576v-.26726z" fill="#fff"/><path d="m4.06303 28.14474-.00991 1.65947 2.79841 1.61223.00493-1.65946z" fill="#5b5e71"/></g><g><path d="m12.29609 34.99807.19207-.11162.00752-2.26606-.19207.11162z" fill="#d4d6d6"/><path d="m12.30361 32.73201.19207-.11162-3.33334-1.9245-.19207.11162z" fill="#fff"/><path d="m8.97027 30.80751-.00751 2.26606 3.33333 1.9245.00752-2.26606z" fill="#e0e2e2"/><path d="m9.35051 32.86266.0099-1.65947-.24254-.1386-.00492 1.9218z" fill="#d4d6d6"/><path d="m9.35051 32.86266-.23756.12373 3.03597 1.75576v-.26725z" fill="#fff"/><path d="m9.36041 31.20319-.0099 1.65947 2.79841 1.61224.00493-1.65947z" fill="#5b5e71"/></g><g><path d="m17.59348 38.05652.19207-.11162.00751-2.26606-.19207.11162z" fill="#d4d6d6"/><path d="m17.60099 35.79046.19207-.11162-3.33333-1.9245-.19207.11162z" fill="#fff"/><path d="m14.26766 33.86596-.00751 2.26606 3.33333 1.9245.00751-2.26606z" fill="#e0e2e2"/><path d="m14.6479 35.9211.0099-1.65946-.24254-.1386-.00492 1.9218z" fill="#d4d6d6"/><path d="m14.6479 35.9211-.23756.12374 3.03597 1.75575v-.26725z" fill="#fff"/><path d="m14.6578 34.26164-.0099 1.65946 2.79841 1.61224.00493-1.65946z" fill="#5b5e71"/></g></g><g><g><path d="m6.9987 36.21507.19207-.11162.00752-2.26606-.19207.11162z" fill="#d4d6d6"/><path d="m7.00622 33.94901.19207-.11162-3.33334-1.9245-.19207.11162z" fill="#fff"/><path d="m3.67288 32.02451-.00751 2.26606 3.33333 1.9245.00752-2.26606z" fill="#e0e2e2"/><path d="m4.05312 34.07966.00991-1.65947-.24255-.13859-.00492 1.92179z" fill="#d4d6d6"/><path d="m4.05312 34.07966-.23756.12373 3.03597 1.75576v-.26726z" fill="#fff"/><path d="m4.06303 32.42019-.00991 1.65947 2.79841 1.61223.00493-1.65946z" fill="#5b5e71"/></g><g><path d="m12.29609 39.27352.19207-.11162.00752-2.26606-.19207.11162z" fill="#d4d6d6"/><path d="m12.30361 37.00746.19207-.11162-3.33334-1.9245-.19207.11162z" fill="#fff"/><path d="m8.97027 35.08296-.00751 2.26606 3.33333 1.9245.00752-2.26606z" fill="#e0e2e2"/><path d="m9.35051 37.13811.0099-1.65947-.24254-.13859-.00492 1.92179z" fill="#d4d6d6"/><path d="m9.35051 37.13811-.23756.12373 3.03597 1.75576v-.26725z" fill="#fff"/><path d="m9.36041 35.47864-.0099 1.65947 2.79841 1.61224.00493-1.65947z" fill="#5b5e71"/></g><g><path d="m17.59348 42.33197.19207-.11162.00751-2.26606-.19207.11162z" fill="#d4d6d6"/><path d="m17.60099 40.06591.19207-.11162-3.33333-1.9245-.19207.11162z" fill="#fff"/><path d="m14.26766 38.14141-.00751 2.26606 3.33333 1.9245.00751-2.26606z" fill="#e0e2e2"/><path d="m14.6479 40.19656.0099-1.65947-.24254-.1386-.00492 1.9218z" fill="#d4d6d6"/><path d="m14.6479 40.19656-.23756.12373 3.03597 1.75576v-.26725z" fill="#fff"/><path d="m14.6578 38.53709-.0099 1.65947 2.79841 1.61224.00493-1.65947z" fill="#5b5e71"/></g></g></g></g></g><g><g enable-background="new"><g><path d="m22.4917 36.60484-.27345-.15892-.00816-2.31882.27344.15891z" fill="#d8463f"/></g><g><path d="m22.48353 34.28601-.27344-.15891 7.8153-4.51217.27345.15891z" fill="#e74c3c"/></g><g><path d="m30.29884 29.77384.00817 2.31882-7.81531 4.51218-.00817-2.31883z" fill="#c44"/></g></g></g><g><g><path d="m24.43619 33.87352.31383.63403-.12879.07436-.07014-.14577-.35504.20498-.07083.22716-.12705.07335.30922-.99376zm-.19177.61349.25758-.14871-.12974-.26166z" fill="#fff"/></g><g><path d="m24.01675 34.11568-.24483.95658-.11834.06833-.14952-.47255-.0087.00503-.14809.64436-.11834.06833-.24945-.67121.12879-.07436.17918.48345.15672-.67738.1079-.0623.16003.49451.17586-.68844z" fill="#fff"/></g><g><path d="m25.25911 33.91716.18707.18846-.15316.08843-.16959-.17649-.15664.09044.00078.27396-.12009.06933-.00231-.8139.2628-.15173c.10964-.0633.18627-.08755.23338-.07269.04711.01492.06993.06982.07019.16183.00038.13399-.04985.24711-.15243.34236zm-.14474-.01859c.06787-.03918.11484-.07831.13912-.11836.0243-.03609.03464-.0821.03449-.13408-.00015-.05403-.01244-.08296-.03687-.08891-.02442-.0059-.0697.01019-.13409.04737l-.15141.08742.00083.29197z" fill="#fff"/></g><g><path d="m26.08084 32.92397.00037.12797-.37766.21805.00061.21596.33937-.19593.00035.122-.33937.19594.00062.21797.38984-.22508.00037.12998-.50993.29441-.00231-.81389z" fill="#fff"/></g><g><path d="m26.83617 32.48788.00231.8139-.12009.06933-.00094-.33395-.35156.20297.00095.33396-.12009.06933-.00231-.8139.12009-.06933.001.35197.35155-.20298-.00099-.35196z" fill="#fff"/></g><g><path d="m27.62485 32.13268c.07158.03876.10842.1177.10876.23764.00034.12-.03592.24113-.10705.3623-.07112.12322-.15977.21445-.26419.27474-.10616.06129-.19503.07256-.26662.03173-.07158-.03877-.10841-.1177-.10876-.2377-.00034-.11995.03592-.24109.10705-.36224.07113-.12122.15977-.21244.26594-.27374.10441-.06028.19329-.07155.26487-.03273zm-.08557.56018c.04683-.08512.07099-.16917.07076-.25119-.00023-.08197-.02479-.13588-.07195-.16674-.04889-.02986-.10815-.02374-.17776.01645-.07136.04119-.13045.10341-.17902.18953-.04683.08512-.071.16716-.07077.24913.00023.08203.0248.13794.07195.1688.04889.02785.10815.02368.1795-.01752.06963-.04018.12871-.10433.17729-.18846" fill="#fff"/></g><g><path d="m28.47388 31.54236.00129.45596c.00033.11598-.02725.22407-.08451.31917-.05551.09617-.12678.16938-.21379.21961-.08876.05125-.16021.06044-.21608.02858-.05761-.02879-.08572-.10472-.08605-.2207l-.00129-.45597.12009-.06933.00128.44994c.00021.074.01604.12495.04923.14785.03145.02591.07676.02181.13246-.01035.05395-.03115.09914-.0793.13034-.14138.03295-.06108.04844-.13013.04823-.20412l-.00128-.44994z" fill="#fff"/></g><g><path d="m28.87933 31.28822c.04525-.02613.09052-.04422.13582-.05239.04356-.00912.08191-.00719.11507.00567l-.06409.14117c-.02095-.00991-.04885-.01184-.08543-.00474-.03485.0061-.06968.01817-.10449.03826-.03655.0211-.06437.04521-.08694.07628-.02258.02907-.03296.05907-.03286.09309.00009.03201.01061.05196.03328.0549.02267.0049.06971-.00422.14287-.0244.07316-.02224.12719-.0254.16384-.01048.03839.01392.05595.05785.05615.12984.0002.06998-.02226.14104-.06913.21216-.04687.07113-.10772.12832-.18255.17153-.11138.06431-.20897.07658-.29624.03883l.07455-.1452c.07156.02878.14649.02155.22307-.02267.03829-.02211.06959-.05017.09216-.08125.02257-.03303.03295-.06309.03286-.09504-.00009-.03201-.0106-.05001-.03154-.05591-.02093-.00395-.05752.00115-.10977.0173-.05226.01414-.09232.02526-.11846.02829-.02788.00409-.05055.00115-.0715-.00676-.04187-.01191-.06292-.05583-.06313-.13183-.00021-.074.02225-.14505.07087-.21518.04686-.0671.10597-.12128.17559-.16147z" fill="#fff"/></g><g><path d="m29.79657 30.7787.00037.12797-.37767.21804.00061.21597.33937-.19594.00035.12201-.33937.19593.00062.21798.38984-.22508.00037.12998-.50993.29441-.00231-.8139z" fill="#fff"/></g></g><g><g enable-background="new"><g><path d="m38.07806 27.53225-.27345-.15891-.00816-2.31882.27344.15891z" fill="#d8463f"/></g><g><path d="m38.06989 25.21343-.27344-.15891 7.81531-4.51217.27344.15891z" fill="#e74c3c"/></g><g><path d="m45.8852 20.70126.00817 2.31882-7.81531 4.51217-.00817-2.31882z" fill="#c44"/></g></g></g><g><g><path d="m40.02254 24.80093.31383.63404-.12879.07435-.07014-.14577-.35504.20498-.07083.22716-.12705.07335.30922-.99376zm-.19176.6135.25758-.14871-.12974-.26166z" fill="#fff"/></g><g><path d="m39.60311 25.04309-.24483.95659-.11834.06832-.14952-.47254-.0087.00503-.14809.64436-.11835.06833-.24944-.67122.12879-.07435.17918.48345.15672-.67738.10789-.0623.16004.49451.17586-.68844z" fill="#fff"/></g><g><path d="m40.84547 24.84458.18707.18846-.15316.08843-.16959-.17649-.15664.09043.00078.27395-.12009.06933-.00231-.81389.2628-.15173c.10964-.0633.18628-.08755.23338-.07269.04711.01492.06993.06983.07019.16183.00038.134-.04985.24712-.15243.34237zm-.14474-.01859c.06787-.03919.11484-.07831.13912-.11836.0243-.03609.03464-.0821.03449-.13408-.00015-.05403-.01244-.08296-.03686-.08891-.02442-.0059-.0697.01019-.1341.04737l-.15141.08742.00083.29197z" fill="#fff"/></g><g><path d="m41.66721 23.85139.00036.12797-.37766.21804.00061.21597.33937-.19594.00035.12201-.33937.19594.00061.21797.38985-.22508.00037.12998-.50993.29441-.00231-.8139z" fill="#fff"/></g><g><path d="m42.42253 23.4153.00231.8139-.12009.06933-.00094-.33396-.35156.20298.00095.33395-.12009.06934-.00231-.8139.12009-.06934.001.35197.35155-.20297-.001-.35197z" fill="#fff"/></g><g><path d="m43.21121 23.0601c.07158.03876.10841.1177.10875.23764.00034.12-.03592.24113-.10705.3623-.07113.12322-.15977.21445-.26419.27474-.10617.06129-.19503.07256-.26663.03173-.07158-.03877-.10841-.1177-.10875-.2377-.00034-.11995.03592-.24108.10706-.36224.07113-.12122.15977-.21244.26594-.27374.10441-.06029.19329-.07155.26487-.03273zm-.08557.56018c.04683-.08512.07099-.16917.07076-.2512-.00023-.08197-.02479-.13588-.07195-.16674-.0489-.02986-.10815-.02374-.17776.01645-.07135.0412-.13045.10341-.17901.18953-.04683.08512-.071.16717-.07077.24914.00023.08203.0248.13794.07195.1688.04889.02785.10815.02368.1795-.01751.06961-.04019.1287-.10435.17728-.18847" fill="#fff"/></g><g><path d="m44.06023 22.46977.00129.45596c.00033.11599-.02725.22407-.08451.31918-.05551.09617-.12678.16937-.21379.21961-.08876.05125-.16021.06044-.21608.02858-.05761-.02879-.08572-.10472-.08604-.22071l-.00129-.45596.12009-.06933.00127.44994c.00021.074.01604.12495.04923.14785.03146.02591.07676.02181.13246-.01035.05395-.03115.09914-.0793.13034-.14138.03295-.06108.04845-.13012.04824-.20412l-.00128-.44994z" fill="#fff"/></g><g><path d="m44.46569 22.21563c.04525-.02613.09052-.04422.13582-.05239.04356-.00912.08191-.00719.11507.00567l-.06409.14117c-.02095-.00991-.04885-.01184-.08543-.00474-.03484.0061-.06968.01817-.10448.03827-.03655.0211-.06437.04521-.08694.07628-.02258.02907-.03296.05907-.03286.09309.00009.03201.01061.05196.03328.0549.02267.0049.06972-.00422.14287-.0244.07316-.02224.12719-.0254.16384-.01048.03839.01392.05595.05785.05615.12984.0002.06998-.02226.14104-.06912.21216-.04687.07113-.10772.12832-.18256.17153-.11138.06431-.20897.07658-.29624.03883l.07454-.14519c.07156.02878.1465.02154.22307-.02267.03829-.02211.06958-.05017.09216-.08125.02257-.03303.03295-.06309.03286-.09504-.00009-.03201-.0106-.05001-.03154-.05591-.02093-.00394-.05752.00115-.10977.0173-.05226.01414-.09232.02526-.11846.02829-.02788.00409-.05055.00115-.0715-.00676-.04187-.01191-.06292-.05583-.06313-.13184-.00021-.074.02225-.14505.07087-.21518.04686-.0671.10597-.12128.17559-.16148z" fill="#fff"/></g><g><path d="m45.38293 21.70611.00036.12798-.37766.21804.00061.21597.33937-.19594.00035.12201-.33937.19593.00062.21798.38984-.22508.00037.12998-.50993.29441-.00231-.8139z" fill="#fff"/></g></g></g></g></svg>