<svg id="Layer_1" enable-background="new 0 0 52 52" height="512" viewBox="0 0 52 52" width="512" xmlns="http://www.w3.org/2000/svg"><g><g><path d="m39.40506 27.08082c0 .60416.21751 1.03108.5639 1.23247l2.27166 1.32112c-.34638-.20139-.5639-.62835-.5639-1.24058-.00806-1.21634.85388-2.70664 1.91722-3.31887.53164-.30611 1.02307-.33832 1.36945-.13693l-2.27166-1.31305c-.34638-.20945-.82974-.1772-1.36945.12892-1.06334.61217-1.91722 2.10247-1.91722 3.32692z" fill="#363a44"/><g><path d="m38.87048 27.41439.00303 1.06894-.28724.16583-6.02954 3.48116-16.67869 10.20372-.00303-1.64321z" fill="#474b59"/></g><g fill="#363a44"><path d="m16.46007 40.71049c0 .38412.13829.65556.35852.7836l1.44431.83995c-.22023-.12804-.35852-.3995-.35852-.78875-.00513-.77334.54289-1.72086 1.21895-2.11011.33801-.19463.65046-.2151.87068-.08706l-1.44431-.83483c-.22023-.13317-.52754-.11266-.87068.08196-.67606.38922-1.21895 1.33674-1.21895 2.11524z"/><path d="m19.60081 38.89588c0 .38412.13829.65556.35852.7836l1.44431.83995c-.22023-.12804-.35852-.3995-.35852-.78875-.00513-.77334.54289-1.72086 1.21895-2.11011.33801-.19462.65046-.2151.87069-.08706l-1.44431-.83483c-.22023-.13317-.52754-.11266-.87069.08196-.67605.38922-1.21895 1.33674-1.21895 2.11524z"/><path d="m26.8926 34.68534c0 .38412.13829.65556.35852.7836l1.44431.83995c-.22023-.12804-.35852-.3995-.35852-.78875-.00513-.77334.54289-1.72086 1.21895-2.11011.33801-.19462.65046-.2151.87069-.08706l-1.44431-.83483c-.22023-.13317-.52754-.11266-.87069.08196-.67606.38922-1.21895 1.33674-1.21895 2.11524z"/></g><g><g enable-background="new"><g><path d="m41.30812 14.21997 8.48586 6.92492c-.04234-.02461-.09165-.04408-.14837-.05809l-8.48586-6.92491c.05672.014.10603.03347.14837.05808z" fill="#e74c3c"/></g><path d="m38.70419 11.89351c-.10777-.0626-.25066-.06107-.40575.00615l-2.27185.71864c-.20617.0915-.39451.09142-.5373.00846l10.18177 5.91694c.14274.08298.33113.08306.5373-.00844l-5.09088-2.9585 5.09088 2.9585 2.27185-.71864c.15503-.06721.29797-.06875.4057-.00615z" fill="#d8463f"/><g><path d="m49.41552 22.9122-.70779.87206-2.24535 1.29602-3.52079 2.006-3.24428 1.87389c-.30957.17748-.56129.03713-.56542-.31783l-.02892-10.32294c0-.29304.20225-.63976.44994-.78421l3.34323-1.92755c.37154-.21464.70998-.17751.88748.09492l1.72941 2.68702c.14032.21875.40036.27654.69339.14445l2.27014-.71819c.1899-.08256.36327-.06605.47472.0454.2352.2394.38383.72645.48289 1.33731.09492.55723.15272 1.21762.21051 1.88628.38696.09596.42797.445.26583.94611-.10446.32289-.28113.61776-.49499.88126z" fill="#c44"/></g><path d="m33.43118 9.61934c-.18713-.10878-.44339-.08739-.71501.06943l-3.34414 1.93072c-.24774.14304-.44999.49035-.44918.78104l.02927 10.32294c.0005.17713.06313.30125.1637.3597l10.18172 5.91697c-.10062-.05844-.1632-.18257-.1637-.3597l-.02928-10.32294c-.00086-.2907.20144-.638.44918-.78102l3.34414-1.93075c.27157-.15682.52783-.17821.71506-.06941z" fill="#e74c3c"/></g></g><g><path d="m44.90246 19.1148-1.51477-2.44319c-.08218-.13082-.21505-.1834-.36877-.17262.03295.02681.06605.05363.09094.09324l1.51477 2.44321c.12233.20522-.04887.63039-.31551.78436l-4.43875 2.5627c-.02041.01176-.03794.01234-.05739.01995.05613.11674.18431.14652.33521.05943l4.4387-2.5627c.2667-.15397.43791-.57914.31557-.78438z" fill="#e74c3c"/><path d="m44.30913 19.81981c.26664-.15398.43784-.57915.31551-.78436l-1.51477-2.44321c-.02489-.0396-.05799-.06643-.09094-.09324-.09422.00663-.19444.03157-.30095.09304l-2.19406 1.26675c-.41855.24165-.75164.82246-.75023 1.29952l.00877 3.09517c.00015.05935.01128.10901.03053.14899.01945-.00761.03698-.00819.05739-.01995z" fill="#84dbff"/></g><g enable-background="new"><path d="m32.5609 33.61106-.00413-1.48076-10.18177-5.91696.00423 1.48076c.00025.09891.03537.16806.0915.20068l10.18172 5.91697c-.05613-.03262-.09125-.10178-.09155-.20069z" fill="#474b59"/><g><path d="m32.55673 32.13032-10.18171-5.91697 6.02954-3.48116 10.18171 5.91697z" fill="#c74134"/></g><g><path d="m38.58627 28.64916.0042 1.48076c.00056.19986-.13866.44099-.31259.54141l-5.40232 3.11903c-.17132.09891-.31407.02058-.31463-.17928l-.0042-1.48076z" fill="#5b5e71"/></g></g><g enable-background="new"><g><path d="m15.87804 42.33404-10.18172-5.91697-.00303-1.64321 10.18172 5.91697z" fill="#525566"/></g><g><path d="m15.87501 40.69083-10.18172-5.91697 22.99547-13.27643 10.18172 5.91696z" fill="#5b5e71"/></g><g><path d="m38.8718 27.41235v1.64688l-.28477.16511-6.03031 3.4795-1.49416.86263-3.08738 1.77897v.00413l-4.20593 2.42699-3.0833 1.77896v.00413l-.05366.0289-3.08738 1.77896v.00413l-1.66753.96172-.00414-1.64277z" fill="#474b59"/></g></g><g><g enable-background="new"><g><path d="m38.1339 27.20456.08727.05072c.01751.01017.02871.03095.02879.06026.00021.07268-.0471.14549-.09982.17593l-.08727-.05072c.05272-.03044.10003-.10325.09982-.17593-.00008-.02931-.01128-.05009-.02879-.06026z" fill="#c4c6c6"/></g><g><path d="m38.07542 27.50105-.08728-.05071c.0186.01081.04494.00761.07472-.00959l.08727.05072c-.02977.01719-.05611.02039-.07471.00958z" fill="#c4c6c6"/></g><g><path d="m37.8951 27.20667-.08728-.05071c.03015.01752.07284.01388.12223-.01464.08961-.05173.1658-.17761.16549-.28662-.00014-.05114-.01913-.08766-.04919-.10512l.08727.05072c.03006.01747.04905.05398.04919.10512.00031.10901-.07589.23488-.16549.28662-.04939.02851-.09208.03215-.12222.01463z" fill="#c4c6c6"/></g><g><path d="m38.08751 27.7369-.08728-.05071-.55636-.71913.08727.05072z" fill="#d4d6d6"/></g><g><path d="m37.53114 27.01778-.08727-.05072.78793-.45491.08727.05071z" fill="#ecf0f1"/></g><g><path d="m37.53114 27.01778.78793-.45491.00294 1.03864-.23451.1354zm.31697.08088c.00031.10901.0717.14967.16921.09338.08961-.05173.1658-.17761.16549-.28662-.00029-.10297-.07697-.14665-.16658-.09492-.0975.0563-.16841.18519-.16812.28816m.30203.3928c.05272-.03044.10003-.10325.09982-.17593-.00017-.06055-.04775-.08466-.10048-.05422-.05797.03347-.10262.11082-.10245.17137.00022.07269.04514.09225.10311.05878" fill="#ecf0f1"/></g></g><g enable-background="new"><g><path d="m32.6815 30.35251.08727.05072c.01751.01017.02871.03094.0288.06025.00021.07268-.04713.14551-.09982.17592l-.08727-.05072c.05268-.03042.10002-.10324.09982-.17592-.00009-.02931-.01129-.05007-.0288-.06025z" fill="#c4c6c6"/></g><g><path d="m32.62303 30.64899-.08727-.05071c.0186.0108.04493.0076.07472-.00959l.08727.05072c-.02979.01719-.05612.02039-.07472.00958z" fill="#c4c6c6"/></g><g><path d="m32.44527 30.35455-.08728-.05071c.02942.01709.07095.01355.11967-.01458.08957-.05171.16576-.17759.16545-.2866-.00014-.05115-.01914-.08766-.04919-.10513l.08727.05072c.03006.01746.04905.05398.04919.10513.00031.109-.07588.23488-.16545.28659-.04871.02813-.09025.03167-.11966.01458z" fill="#c4c6c6"/></g><g><path d="m32.63508 30.88486-.08727-.05071-.55372-.72066.08727.05072z" fill="#c4c6c6"/></g><g><path d="m32.08136 30.16421-.08727-.05072.78531-.4534.08728.05072z" fill="#ecf0f1"/></g><g><path d="m32.08136 30.16421.78531-.4534.00294 1.03864-.23454.13541zm.31701.08086c.00031.10901.06906.1512.16657.0949.08957-.05171.16576-.17759.16545-.28659-.00029-.10297-.07697-.14665-.16653-.09494-.09752.05629-.16578.18366-.16549.28663m.29938.39433c.05268-.03042.10002-.10325.09982-.17592-.00017-.06055-.04779-.08464-.10047-.05422-.05798.03347-.10262.11082-.10244.17137.0002.07268.04511.09225.10309.05877" fill="#ecf0f1"/></g></g><g enable-background="new"><g><path d="m27.22907 33.50045.08727.05072c.01752.01017.02872.03095.0288.06027.00021.07268-.04709.14548-.09978.1759l-.08727-.05072c.05269-.03042.09999-.10323.09978-.1759-.00009-.02932-.01129-.05009-.0288-.06027z" fill="#c4c6c6"/></g><g><path d="m27.1706 33.79693-.08727-.05071c.01861.01081.04496.00761.07475-.00959l.08727.05072c-.02979.0172-.05614.0204-.07475.00958z" fill="#c4c6c6"/></g><g><path d="m26.99284 33.50251-.08727-.05071c.02941.01709.07095.01355.11967-.01458.08961-.05173.16579-.17761.16549-.28661-.00014-.05114-.01913-.08766-.04919-.10513l.08727.05072c.03006.01746.04904.05398.04919.10512.00031.10901-.07588.23488-.16549.28661-.04872.02813-.09026.03167-.11967.01458z" fill="#c4c6c6"/></g><g><path d="m27.18532 34.03128-.08727-.05072-.55636-.71913.08728.05072z" fill="#c4c6c6"/></g><g><path d="m26.62897 33.31215-.08728-.05072.78532-.4534.08727.05072z" fill="#ecf0f1"/></g><g><path d="m26.62897 33.31215.78531-.4534.00294 1.03865-.2319.13389zm.31697.08088c.00031.109.06906.1512.16657.0949.08961-.05173.16579-.1776.16549-.28661-.00029-.10297-.07696-.14666-.16657-.09492-.09752.0563-.16579.18367-.16549.28663m.29941.39432c.05269-.03042.09999-.10323.09978-.1759-.00017-.06055-.04774-.08466-.10044-.05424-.05798.03347-.10265.11084-.10248.17139.00022.07267.04516.09222.10314.05875" fill="#ecf0f1"/></g></g><g enable-background="new"><g><path d="m21.77668 36.6484.08727.05072c.01752.01017.02871.03095.0288.06027.00021.07267-.04709.14548-.09982.17592l-.08727-.05072c.05272-.03044.10002-.10324.09982-.17592-.0001-.02932-.01129-.05009-.0288-.06027z" fill="#c4c6c6"/></g><g><path d="m21.7182 36.94489-.08727-.05071c.0186.0108.04494.0076.07472-.00959l.08727.05072c-.02978.01719-.05612.02039-.07472.00958z" fill="#c4c6c6"/></g><g><path d="m21.54044 36.65046-.08727-.05072c.02942.01709.07095.01355.11967-.01458.08961-.05173.1658-.17761.16549-.28662-.00014-.05114-.01913-.08765-.04918-.10512l.08727.05072c.03006.01746.04904.05397.04919.10511.00031.10901-.07588.23488-.16549.28662-.04873.02814-.09027.03168-.11968.01459z" fill="#c4c6c6"/></g><g><path d="m21.73293 37.17922-.08727-.05071-.55636-.71913.08727.05071z" fill="#c4c6c6"/></g><g><path d="m21.17657 36.46009-.08727-.05071.78532-.45341.08727.05072z" fill="#ecf0f1"/></g><g><path d="m21.17657 36.46009.78532-.45341.00294 1.03865-.2319.13389zm.31697.08088c.00031.10901.06906.1512.16657.09491.08961-.05174.1658-.17761.16549-.28662-.00029-.10297-.07697-.14665-.16657-.09491-.09751.05629-.16578.18366-.16549.28662m.29938.39434c.05272-.03044.10002-.10324.09982-.17592-.00017-.06055-.04775-.08466-.10047-.05422-.05798.03347-.10262.11082-.10244.17137.0002.07267.04512.09224.10309.05877" fill="#ecf0f1"/></g></g><g enable-background="new"><g><path d="m16.47187 39.71114.08727.05072c.01751.01017.02871.03094.02879.06026.00021.07268-.0471.14548-.09982.17593l-.08727-.05072c.05272-.03044.10003-.10325.09982-.17593-.00008-.02932-.01127-.05009-.02879-.06026z" fill="#c4c6c6"/></g><g><path d="m16.41339 40.00763-.08727-.05071c.0186.0108.04494.00761.07472-.00959l.08727.05072c-.02978.01719-.05612.02038-.07472.00958z" fill="#c4c6c6"/></g><g><path d="m16.23307 39.71325-.08727-.05071c.03015.01752.07284.01388.12222-.01464.08958-.05172.16576-.17759.16545-.28659-.00014-.05115-.01913-.08767-.04919-.10514l.08727.05072c.03006.01746.04905.05399.04919.10513.00031.109-.07587.23488-.16545.28659-.04938.02852-.09207.03216-.12222.01464z" fill="#c4c6c6"/></g><g><path d="m16.42548 40.24348-.08727-.05072-.55637-.71912.08727.05071z" fill="#c4c6c6"/></g><g><path d="m15.86911 39.52435-.08727-.05071.78793-.45492.08728.05072z" fill="#ecf0f1"/></g><g><path d="m15.86911 39.52435.78793-.45491.00294 1.03864-.23451.1354zm.31698.08089c.00031.109.0717.14967.16921.09338.08958-.05172.16576-.17759.16545-.28659-.00029-.10297-.07696-.14666-.16653-.09494-.09751.05628-.16843.18518-.16813.28815m.30202.3928c.05272-.03044.10003-.10325.09982-.17593-.00017-.06055-.04775-.08466-.10048-.05422-.05797.03347-.10262.11082-.10245.17138.00022.07268.04514.09224.10311.05877" fill="#ecf0f1"/></g></g></g><g><g enable-background="new"><g><path d="m28.57512 21.56365.08727.05072c.01752.01017.02871.03095.02879.06026.00021.07268-.0471.14549-.09982.17593l-.08727-.05072c.05272-.03044.10003-.10325.09982-.17593-.00009-.02932-.01128-.05009-.02879-.06026z" fill="#c4c6c6"/></g><g><path d="m28.51663 21.86014-.08727-.05071c.0186.01081.04494.00761.07472-.00959l.08727.05072c-.02978.01719-.05612.02039-.07472.00958z" fill="#c4c6c6"/></g><g><path d="m28.33631 21.56576-.08727-.05071c.03015.01752.07284.01388.12223-.01464.08961-.05174.1658-.17761.16549-.28662-.00014-.05114-.01913-.08766-.04919-.10512l.08727.05072c.03006.01747.04905.05398.04919.10512.00031.109-.07588.23488-.16549.28662-.04939.02851-.09208.03215-.12223.01463z" fill="#c4c6c6"/></g><g><path d="m28.52872 22.09599-.08727-.05071-.55637-.71913.08728.05072z" fill="#d4d6d6"/></g><g><path d="m27.97236 21.37687-.08728-.05072.78794-.45491.08727.05071z" fill="#ecf0f1"/></g><g><path d="m27.97236 21.37687.78793-.45491.00294 1.03864-.23451.1354zm.31697.08088c.00031.109.0717.14967.16921.09338.08961-.05174.1658-.17761.16549-.28662-.00029-.10297-.07697-.14665-.16657-.09492-.09751.0563-.16843.18519-.16813.28816m.30202.39281c.05272-.03044.10003-.10325.09982-.17593-.00017-.06056-.04775-.08466-.10048-.05422-.05797.03347-.10262.11082-.10245.17137.00022.07268.04514.09224.10311.05878" fill="#ecf0f1"/></g></g><g enable-background="new"><g><path d="m23.12271 24.7116.08727.05072c.01751.01017.02871.03094.0288.06025.00021.07268-.04713.14551-.09982.17592l-.08727-.05072c.05268-.03042.10002-.10324.09982-.17592-.00009-.02931-.01129-.05007-.0288-.06025z" fill="#c4c6c6"/></g><g><path d="m23.06424 25.00808-.08727-.05071c.0186.0108.04494.0076.07472-.00959l.08727.05072c-.02978.01719-.05612.02039-.07472.00958z" fill="#c4c6c6"/></g><g><path d="m22.88648 24.71364-.08728-.05071c.02942.01709.07095.01355.11967-.01458.08957-.05171.16576-.17759.16545-.28659-.00015-.05115-.01914-.08767-.04919-.10513l.08727.05072c.03006.01746.04905.05398.04919.10513.00031.10901-.07588.23488-.16545.28659-.04871.02812-.09025.03166-.11966.01457z" fill="#c4c6c6"/></g><g><path d="m23.07629 25.24396-.08727-.05072-.55371-.72066.08727.05072z" fill="#c4c6c6"/></g><g><path d="m22.52258 24.5233-.08727-.05072.78531-.4534.08727.05072z" fill="#ecf0f1"/></g><g><path d="m22.52258 24.5233.78531-.4534.00294 1.03864-.23454.13541zm.317.08086c.00031.109.06906.1512.16657.0949.08957-.05171.16576-.17759.16545-.28659-.00029-.10297-.07697-.14665-.16653-.09494-.09751.0563-.16578.18366-.16549.28663m.29938.39433c.05268-.03042.10002-.10324.09982-.17592-.00017-.06055-.04779-.08464-.10047-.05422-.05798.03347-.10262.11082-.10244.17137.0002.07268.04512.09225.10309.05877" fill="#ecf0f1"/></g></g><g enable-background="new"><g><path d="m17.67028 27.85954.08727.05072c.01752.01018.02872.03095.0288.06027.00021.07268-.04709.14548-.09978.1759l-.08727-.05072c.05269-.03042.09999-.10323.09978-.1759-.00009-.02932-.01128-.05009-.0288-.06027z" fill="#c4c6c6"/></g><g><path d="m17.61182 28.15602-.08728-.05071c.01861.01081.04496.00761.07475-.00959l.08727.05072c-.02979.0172-.05614.0204-.07474.00958z" fill="#c4c6c6"/></g><g><path d="m17.43405 27.8616-.08727-.05071c.02941.01709.07095.01355.11966-.01458.08961-.05174.16579-.17761.16549-.28661-.00014-.05114-.01913-.08766-.04919-.10513l.08727.05072c.03006.01746.04905.05398.04919.10512.00031.10901-.07588.23488-.16549.28661-.04871.02813-.09025.03167-.11966.01458z" fill="#c4c6c6"/></g><g><path d="m17.62654 28.39037-.08728-.05072-.55635-.71913.08727.05072z" fill="#c4c6c6"/></g><g><path d="m17.07018 27.67124-.08727-.05072.78531-.4534.08727.05072z" fill="#ecf0f1"/></g><g><path d="m17.07018 27.67124.78531-.4534.00294 1.03864-.2319.13389zm.31697.08088c.00031.10901.06906.1512.16657.0949.08961-.05174.16579-.17761.16549-.28661-.00029-.10297-.07696-.14666-.16657-.09492-.09751.0563-.16578.18366-.16549.28663m.29942.39432c.05269-.03042.09999-.10323.09978-.1759-.00017-.06055-.04774-.08466-.10044-.05424-.05798.03347-.10265.11084-.10248.17139.00021.07267.04516.09222.10314.05875" fill="#ecf0f1"/></g></g><g enable-background="new"><g><path d="m12.21789 31.00749.08727.05072c.01752.01018.02871.03095.0288.06027.00021.07268-.04709.14548-.09982.17592l-.08727-.05072c.05272-.03044.10002-.10324.09982-.17592-.00009-.02932-.01129-.05009-.0288-.06027z" fill="#c4c6c6"/></g><g><path d="m12.15942 31.30398-.08727-.05071c.0186.0108.04494.0076.07472-.00959l.08727.05072c-.02979.01719-.05612.02039-.07472.00958z" fill="#c4c6c6"/></g><g><path d="m11.98166 31.00954-.08728-.05071c.02941.01709.07095.01355.11967-.01458.08961-.05173.1658-.17761.16549-.28662-.00014-.05114-.01913-.08766-.04919-.10512l.08727.05072c.03006.01746.04904.05398.04919.10512.00031.10901-.07588.23488-.16549.28662-.04872.02812-.09025.03167-.11966.01457z" fill="#c4c6c6"/></g><g><path d="m12.17415 31.53831-.08727-.05072-.55637-.71912.08727.05071z" fill="#c4c6c6"/></g><g><path d="m11.61778 30.81918-.08727-.05071.78532-.45341.08727.05072z" fill="#ecf0f1"/></g><g><path d="m11.61778 30.81918.78532-.45341.00294 1.03864-.2319.13389zm.31697.08088c.00031.10901.06906.1512.16657.0949.08961-.05174.1658-.17761.16549-.28662-.00029-.10297-.07697-.14665-.16658-.09492-.0975.05631-.16577.18368-.16548.28664m.29939.39434c.05272-.03044.10002-.10324.09982-.17592-.00017-.06055-.04775-.08466-.10047-.05422-.05798.03347-.10262.11082-.10244.17137.0002.07268.04511.09224.10309.05877" fill="#ecf0f1"/></g></g><g enable-background="new"><g><path d="m6.91309 34.07022.08727.05072c.01751.01017.02871.03094.02879.06026.00021.07268-.0471.14549-.09982.17593l-.08727-.05072c.05272-.03044.10003-.10325.09982-.17593-.00009-.02931-.01128-.05008-.02879-.06026z" fill="#c4c6c6"/></g><g><path d="m6.85461 34.36671-.08728-.05071c.0186.01081.04494.00761.07472-.00959l.08727.05072c-.02978.01719-.05611.0204-.07471.00958z" fill="#c4c6c6"/></g><g><path d="m6.67429 34.07233-.08727-.05071c.03015.01752.07283.01388.12222-.01464.08958-.05172.16576-.17759.16545-.28659-.00014-.05115-.01913-.08767-.04919-.10513l.08727.05072c.03006.01747.04905.05399.04919.10513.00031.109-.07588.23488-.16545.28659-.04939.02852-.09208.03216-.12222.01463z" fill="#c4c6c6"/></g><g><path d="m6.86669 34.60257-.08727-.05072-.55636-.71912.08727.05071z" fill="#c4c6c6"/></g><g><path d="m6.31033 33.88344-.08727-.05071.78793-.45491.08727.05071z" fill="#ecf0f1"/></g><g><path d="m6.31033 33.88344.78793-.45491.00294 1.03864-.23451.1354zm.31697.08088c.00031.109.0717.14967.16921.09338.08958-.05172.16576-.17759.16545-.28659-.00029-.10297-.07696-.14666-.16653-.09494-.09751.05629-.16842.18519-.16813.28815m.30203.39281c.05272-.03044.10003-.10325.09982-.17593-.00017-.06055-.04775-.08466-.10048-.05422-.05797.03347-.10262.11082-.10244.17138.0002.07268.04513.09224.1031.05877" fill="#ecf0f1"/></g></g></g><g enable-background="new"><g><path d="m15.87207 39.65219-10.18172-5.91697-.01107-10.82661 10.18172 5.91697z" fill="#e0e2e2"/></g><g><path d="m15.861 28.82558-10.18172-5.91697 22.44995-12.96148 10.18172 5.91696z" fill="#ecf0f1"/></g><g><path d="m38.31095 15.86409.01107 10.82661-22.44995 12.96149-.01107-10.82661z" fill="#d4d6d6"/></g></g><g><g><path d="m14.36874 40.12087-.00144.50831-.62734-.3622.00144-.50831z" fill="#e74c3c"/></g><g><path d="m14.9975 40.48117-.00144.50832-.62734-.3622.00144-.50831z" fill="#f1c40f"/></g><g><path d="m6.899 35.81871-.00144.50831-.62732-.36218.00144-.50831z" fill="#e74c3c"/></g><g><path d="m7.52776 36.17902-.00144.50831-.62732-.36218.00144-.50832z" fill="#f1c40f"/></g></g><g><path d="m40.04484 23.79386v.51944l1.52342-.87955v-.51945z" fill="#474b59"/></g><path d="m20.63229 39.58855-3.08738 1.77896c.07014-.86677.65631-1.82436 1.39097-2.25364.25177-.14445.49946-.21875.73879-.21875.39629.00001.7843.21875.95762.69343z" fill="#3f434f"/><path d="m19.1228 39.4359c-.67362.38891-1.22119 1.33734-1.21899 2.11139.00221.77779.55335 1.09188 1.22697.70296.67689-.3908 1.22446-1.33924 1.22225-2.11702-.0022-.77405-.55334-1.08814-1.23023-.69733z" fill="#525566"/><g><path d="m20.07238 40.32697c.0017.60042-.41693 1.33045-.93803 1.63131-.52679.30578-.9496.06483-.94989-.54132-.0017-.59776.41981-1.32556.94374-1.62805.51968-.2984.94249-.05746.94418.53806zm-.76849-.43958c.00456.10061.00911.19466.01365.28709.00159.0597.00177.12187.00479.18076.00523.06373.03608.08954.08359.06211.00614-.00354.01255-.00797.01923-.01332.13517-.10917.26747-.22325.40832-.34225-.12031-.1829-.29018-.23887-.52958-.17439m-.3703.67427c.00528-.15052.01056-.30106.01725-.45241l-.00716-.01062c-.23472.20598-.40514.46004-.5226.77859.0912-.02644.17669-.05122.26218-.07763.03562-.01074.07267-.02229.10971-.03549.01772-.00552.03361-.01234.04776-.02051.0598-.03451.08849-.09327.09286-.18193m-.37575 1.26898c.05663-.14576.11186-.28416.16423-.42256.02831-.07534.00965-.117-.0374-.11278-.10978.00931-.2238.03253-.34497.05005.00922.23557.07954.39162.21814.48529m1.00426-.90591c.01863.03349.04295.05878.06443.08898.03006.03836.06011.07673.09446.11917.1305-.24741.18975-.47499.19337-.70813-.10806.11482-.20617.21735-.30285.32233-.05829.06315-.07664.1311-.04941.17765m-.43444.8587c.09975-.05759.20026-.13822.30498-.24318-.08857-.0521-.16859-.10751-.25711-.14489-.00626-.00246-.01784.00151-.03127.00926-.0264.01524-.05993.04512-.07404.06956-.07664.1311-.14328.2679-.21703.41043.09262-.01509.18323-.0485.27447-.10118m.00153-1.14297c-.00081.00045-.00161.00092-.00242.00138-.11004.06353-.20512.22918-.20193.35585.00177.12579.09318.17564.20306.1122.00087-.0005.00173-.00101.00261-.00153.11106-.06411.20187-.22306.20151-.35068-.00035-.12597-.0932-.18052-.20283-.11722m-.00208-.22822c-.03132.01808-.05686.06396-.05676.09996.00153.03517.02581.04901.05713.03093.03132-.01809.05687-.06234.05677-.09833-.0001-.03436-.02581-.04901-.05714-.03256m.15464.72187c.00152.03517.02723.04819.05713.03093.03132-.01809.05687-.06233.05676-.09832-.0001-.03436-.02581-.049-.05713-.03092-.00076.00039-.00151.0008-.00226.00124-.02898.01674-.0546.06199-.0545.09707m-.49792-.07467c.0299-.01727.05545-.06152.05535-.09751-.0001-.03436-.02581-.049-.05571-.03174-.00079.00041-.00157.00084-.00236.0013-.03031.0175-.05589.06273-.0544.09702.00009.036.0258.04902.05712.03093m.70192-.40525c.03132-.01809.05544-.06151.05534-.0975-.0001-.03436-.02581-.049-.05571-.03174-.00079.00041-.00157.00085-.00236.0013-.03024.01746-.05451.06194-.05441.09702.00154.03516.02582.049.05714.03092m-.58842.70187c.00153.03517.02581.04901.05713.03093.03133-.01809.05545-.06151.05535-.0975-.0001-.03436-.02581-.049-.05571-.03174-.00079.00041-.00157.00084-.00235.00129-.03025.01746-.05452.06194-.05442.09702" fill="#ecf0f1"/></g><path d="m23.76925 37.77656-3.0833 1.77896c.07019-.8709.65626-1.82849 1.39097-2.25361.25182-.14448.49941-.21877.73884-.21877.3921-.00001.78833.21877.95349.69342z" fill="#3f434f"/><path d="m22.26354 37.62129c-.67362.38891-1.22119 1.33734-1.21899 2.11138.0022.77779.55335 1.09188 1.22697.70297.67689-.3908 1.22446-1.33924 1.22225-2.11703-.00219-.77404-.55333-1.08813-1.23023-.69732z" fill="#525566"/><g><path d="m23.21313 38.51236c.0017.60042-.41693 1.33045-.93803 1.63131-.52679.30578-.9496.06483-.94989-.54132-.0017-.59776.41981-1.32556.94374-1.62805.51968-.2984.94249-.05746.94418.53806zm-.76849-.43958c.00456.10061.00911.19466.01365.28709.0016.05971.00177.12188.00479.18077.00523.06373.03609.08954.08359.06211.00614-.00354.01255-.00797.01923-.01332.13517-.10917.26748-.22325.40832-.34225-.12032-.18291-.29018-.23888-.52958-.1744m-.3703.67427c.00528-.15053.01056-.30106.01725-.45241l-.00716-.01062c-.23472.20598-.40514.46004-.5226.77859.09119-.02644.17669-.05122.26218-.07763.03562-.01074.07267-.02229.10971-.03548.01772-.00552.03361-.01234.04776-.02051.0598-.03452.08849-.09329.09286-.18194m-.37575 1.26898c.05663-.14577.11186-.28416.16423-.42256.02831-.07534.00965-.117-.0374-.11278-.10978.00931-.22381.03253-.34497.05005.00922.23557.07954.39162.21814.48529m1.00426-.90591c.01863.03349.04295.05878.06443.08898.03006.03836.06011.07673.09446.11917.1305-.24741.18975-.47499.19337-.70813-.10806.11482-.20617.21735-.30285.32233-.05829.06315-.07664.1311-.04941.17765m-.43444.8587c.09975-.05759.20026-.13822.30498-.24318-.08857-.0521-.16858-.10751-.25711-.14489-.00626-.00246-.01784.00151-.03127.00926-.0264.01524-.05993.04512-.07404.06956-.07664.1311-.14328.2679-.21703.41043.09262-.01509.18323-.0485.27447-.10118m.00152-1.14297c-.00081.00045-.00161.00092-.00242.00138-.11004.06353-.20512.22918-.20193.35585.00177.12579.09318.17564.20306.1122.00087-.0005.00173-.00101.00261-.00153.11105-.06412.20187-.22307.20151-.35068-.00034-.12597-.0932-.18052-.20283-.11722m-.00207-.22822c-.03132.01809-.05686.06397-.05676.09996.00153.03517.02581.04901.05713.03093.03132-.01809.05687-.06234.05676-.09833-.00009-.03436-.0258-.04901-.05713-.03256m.15464.72187c.00153.03517.02723.04819.05713.03093.03132-.01809.05687-.06233.05677-.09832-.0001-.03436-.02581-.049-.05713-.03092-.00076.00039-.00151.0008-.00226.00124-.02899.01673-.05461.06199-.05451.09707m-.49793-.07467c.0299-.01726.05545-.06151.05535-.0975-.0001-.03436-.02581-.049-.05571-.03174-.00079.00041-.00157.00085-.00236.0013-.03031.0175-.05589.06273-.0544.09702.00009.03599.02581.04901.05712.03092m.70193-.40525c.03132-.01809.05544-.06151.05534-.0975-.0001-.03436-.02581-.049-.05571-.03174-.00079.00041-.00158.00085-.00236.0013-.03024.01746-.05451.06194-.05441.09702.00153.03516.02581.049.05714.03092m-.58842.70187c.00153.03517.02581.04901.05713.03093.03133-.01809.05545-.06151.05535-.0975-.0001-.03436-.02581-.049-.05571-.03174-.00079.00041-.00157.00084-.00235.00129-.03025.01746-.05452.06193-.05442.09702" fill="#ecf0f1"/></g><path d="m31.06256 33.56647-3.08738 1.77896c.07014-.8709.66039-1.82849 1.39511-2.25361.25177-.14448.49941-.21877.73466-.21877.39627 0 .7925.21878.95761.69342z" fill="#3f434f"/><path d="m29.55533 33.41075c-.67362.38891-1.22119 1.33734-1.21899 2.11138.0022.77779.55335 1.09188 1.22697.70297.67689-.3908 1.22446-1.33924 1.22225-2.11703-.00219-.77404-.55334-1.08812-1.23023-.69732z" fill="#525566"/><g><path d="m30.50491 34.30182c.0017.60042-.41693 1.33045-.93803 1.63131-.52679.30578-.9496.06483-.94989-.54132-.0017-.59776.41981-1.32556.94374-1.62805.51968-.2984.94249-.05746.94418.53806zm-.76849-.43958c.00456.10061.00911.19466.01365.28709.0016.05971.00177.12188.00479.18077.00523.06373.03609.08954.08359.06211.00614-.00354.01255-.00797.01923-.01332.13517-.10917.26748-.22325.40832-.34225-.12031-.18291-.29018-.23887-.52958-.1744m-.3703.67427c.00528-.15053.01056-.30106.01725-.45241l-.00716-.01062c-.23472.20598-.40514.46004-.5226.77859.09119-.02644.17669-.05122.26218-.07763.03562-.01074.07267-.02229.10971-.03548.01772-.00552.03361-.01234.04776-.02051.0598-.03452.0885-.09328.09286-.18194m-.37575 1.26899c.05663-.14577.11186-.28416.16423-.42256.02831-.07534.00965-.117-.0374-.11278-.10978.00931-.22381.03253-.34497.05005.00922.23556.07955.39161.21814.48529m1.00426-.90591c.01863.03349.04295.05878.06443.08898.03006.03836.06011.07673.09446.11917.1305-.24741.18975-.47499.19337-.70813-.10806.11482-.20617.21735-.30285.32233-.05829.06315-.07663.13109-.04941.17765m-.43443.85869c.09975-.05759.20026-.13822.30498-.24318-.08857-.0521-.16858-.10751-.25711-.14489-.00626-.00246-.01784.00151-.03127.00926-.0264.01524-.05993.04512-.07404.06956-.07664.1311-.14328.2679-.21703.41043.09261-.01509.18322-.0485.27447-.10118m.00152-1.14297c-.00081.00045-.00161.00092-.00242.00138-.11004.06353-.20512.22918-.20193.35585.00177.12579.09318.17564.20306.1122.00087-.0005.00173-.00101.00261-.00153.11105-.06412.20187-.22307.20151-.35068-.00035-.12596-.0932-.18051-.20283-.11722m-.00208-.22822c-.03132.01809-.05686.06397-.05676.09996.00153.03517.02581.04901.05713.03093.03132-.01809.05687-.06234.05676-.09833-.00009-.03435-.0258-.049-.05713-.03256m.15464.72188c.00153.03517.02723.04819.05713.03093.03132-.01809.05687-.06233.05677-.09832-.0001-.03436-.02581-.049-.05713-.03092-.00076.00039-.00151.0008-.00226.00124-.02899.01673-.0546.06198-.05451.09707m-.49792-.07468c.0299-.01726.05545-.06151.05535-.0975-.0001-.03436-.02581-.049-.05571-.03174-.00079.00041-.00157.00085-.00236.0013-.03031.0175-.05589.06273-.0544.09702.00009.03599.0258.04901.05712.03092m.70192-.40525c.03132-.01809.05544-.06151.05534-.0975-.0001-.03436-.02581-.049-.05571-.03174-.00079.00041-.00158.00085-.00236.0013-.03024.01746-.05451.06194-.05441.09702.00154.03516.02582.04901.05714.03092m-.58841.70187c.00153.03517.02581.04901.05713.03093.03133-.01809.05545-.06151.05535-.0975-.0001-.03436-.02581-.049-.05571-.03174-.00079.00041-.00157.00084-.00235.00129-.03026.01746-.05452.06194-.05442.09702" fill="#ecf0f1"/></g><path d="m45.82221 25.41733-4.54028 2.62099c.13619-1.28781 1.01122-2.68702 2.10503-3.31855.36736-.21461.72645-.32193 1.07315-.32193.65218 0 1.14746.38799 1.3621 1.01949z" fill="#c14242"/><path d="m43.5931 25.07609c-1.05949.6117-1.92073 2.10342-1.91728 3.32087.00347 1.22333.87034 1.71735 1.92983 1.10565 1.06464-.61467 1.92588-2.10641 1.92241-3.32974-.00345-1.21745-.87032-1.71145-1.93496-1.09678z" fill="#525566"/><g><path d="m45.08664 26.4776c.00268.94436-.65576 2.09259-1.47538 2.56579-.82855.48094-1.49356.10197-1.49402-.85141-.00267-.94018.66029-2.08489 1.48435-2.56066.81739-.46934 1.4824-.09037 1.48505.84628zm-1.20871-.69138c.00718.15823.01433.30617.02147.45155.00251.09391.00278.19169.00753.28431.00823.10024.05676.14083.13148.09769.00965-.00557.01974-.01253.03024-.02095.2126-.17171.42069-.35113.64222-.53831-.18923-.28768-.4564-.3757-.83294-.27429m-.58242 1.06052c.0083-.23675.0166-.47351.02713-.71157l-.01125-.0167c-.36918.32398-.63721.72358-.82196 1.2246.14344-.04158.2779-.08056.41237-.1221.05603-.01689.1143-.03506.17256-.05582.02787-.00869.05286-.0194.07512-.03225.09404-.0543.13916-.14672.14603-.28616m-.59099 1.99591c.08907-.22927.17593-.44695.25831-.66462.04453-.11849.01518-.18403-.05882-.17739-.17267.01464-.35201.05117-.54259.07872.0145.37051.12511.61595.3431.76329m1.57954-1.42486c.02931.05267.06755.09245.10133.13996.04728.06034.09455.12068.14857.18744.20526-.38914.29845-.74708.30414-1.11377-.16996.1806-.32427.34186-.47633.50697-.09168.09932-.12054.20619-.07771.2794m-.6833 1.3506c.15689-.09058.31498-.2174.47969-.38248-.13931-.08195-.26516-.16909-.40439-.22789-.00984-.00388-.02806.00237-.04919.01457-.04153.02397-.09426.07097-.11645.10941-.12054.2062-.22535.42136-.34135.64555.14566-.02376.28818-.0763.43169-.15916m.00239-1.79771c-.00127.00071-.00254.00144-.00381.00218-.17307.09992-.32262.36045-.3176.5597.00278.19785.14655.27625.31938.17647.00138-.00079.00273-.00159.00411-.00241.17467-.10085.31752-.35085.31694-.55156-.00055-.19814-.14658-.28394-.31902-.18438m-.00326-.35896c-.04927.02844-.08944.10061-.08928.15722.0024.05532.04059.07709.08986.04865s.08944-.09804.08928-.15465c-.00014-.05404-.04058-.07708-.08986-.05122m.24322 1.1354c.0024.05532.04284.07579.08986.04864.04926-.02844.08944-.09803.08928-.15464-.00016-.05404-.0406-.07707-.08986-.04863-.00119.00061-.00237.00127-.00355.00195-.04559.02632-.08588.0975-.08573.15268m-.78315-.11745c.04704-.02715.08721-.09675.08705-.15336-.00015-.05404-.04059-.07707-.08763-.04992-.00124.00064-.00248.00133-.00371.00204-.04767.02752-.0879.09867-.08557.15259.00016.05662.0406.07709.08986.04865m1.10401-.6374c.04927-.02844.0872-.09675.08704-.15336-.00015-.05404-.04059-.07708-.08762-.04992-.00124.00065-.00248.00133-.00371.00204-.04756.02746-.08573.09742-.08558.1526.00241.05531.0406.07708.08987.04864m-.92548 1.10393c.0024.05532.04059.07708.08985.04864.04927-.02845.08721-.09674.08705-.15335-.00016-.05404-.0406-.07708-.08763-.04992-.00124.00064-.00247.00133-.0037.00204-.04756.02745-.08573.09741-.08557.15259" fill="#ecf0f1"/></g><path d="m49.91052 22.03095c-.10447.32288-.28114.61775-.495.88124l-.70779.87206.93696-2.69942c.38695.09598.42797.44502.26583.94612z" fill="#525566"/></g><g><g><path d="m6.62018 24.14956-.32848-.19086.03069 10.76085.32728-.22011z" fill="#474b59"/><path d="m16.04743 40.37043-.00108-.41072-9.39668-5.46003v-.00024l-.32728.22011z" fill="#5b5e71"/></g><path d="" fill="#e4e8f4"/><g><path d="m6.62018 24.14956.02949 10.35012.00731.00407 8.92038-5.15z" fill="#474b59"/><path d="m16.0177 29.60958-.44034-.25583-8.92038 5.15 9.38937 5.45596z" fill="#5b5e71"/></g><g><g enable-background="new"><g><path d="m19.67882 31.92061.19801-.11507-.02852 10.52786-.198.11506z" fill="#c4c6c6"/></g><g><path d="m15.14982 29.30578.198-.11506 4.52901 2.61482-.19801.11507z" fill="#ecf0f1"/></g><g><g><g><g><path d="m12.17992 31.83847-.01341 3.5118-2.07787 1.20753.01341-3.5118z" fill="#d6b218"/></g><path d="m10.10205 33.046-.01341 3.5118-2.72138-1.57119.01341-3.5118z" fill="#e5bd13"/><g><g><path d="m7.65063 32.00127-.08622-.04978-.01224 1.57479.08695-.04372z" fill="#d6b218"/><path d="m7.63912 33.48256-.08695.04372v.00001l2.35285 1.35835.00073-.09352z" fill="#f1c40f"/><path d="m7.65063 32.00127-.01151 1.48129 2.26663 1.30856.01138-1.48129z" fill="#c6a51a"/></g><g><path d="m7.65063 33.88861-.08622-.04978-.01224.88394.08695-.04373z" fill="#d6b218"/><path d="m7.63912 34.67904-.08695.04373v.00002l2.35285 1.35834.00073-.09352z" fill="#f1c40f"/><path d="m7.65063 33.88861-.01151.79043 2.26663 1.30857.01138-.79044z" fill="#c6a51a"/></g></g><g><g><path d="m11.88769 32.37398.08622-.04978.01224 1.57479-.08695-.04373z" fill="#e5bd13"/><path d="m11.8992 33.85526.08695.04373v.00002l-1.69163.97658-.00073-.09352z" fill="#f1c40f"/><path d="m11.88769 32.37398.01151 1.48128-1.60541.92681-.01138-1.48129z" fill="#c6a51a"/></g><g><path d="m11.88769 34.26131.08622-.04977.01224.88394-.08695-.04373z" fill="#e5bd13"/><path d="m11.8992 35.05175.08695.04373v.00001l-1.69163.97659-.00073-.09352z" fill="#f1c40f"/><path d="m11.88769 34.26131.01151.79044-1.60541.92681-.01138-.79044z" fill="#c6a51a"/></g></g><path d="m12.17992 31.83847-2.07787 1.20753-2.72138-1.57119 2.07787-1.20753z" fill="#f1c40f"/><g><path d="m9.45875 30.48066v.09864l.90055.51987.08517-.04948z" fill="#c6a51a"/><path d="m7.74907 31.47427.08514.04915 1.62454-.94412v-.09864z" fill="#d6b218"/><path d="m10.3593 31.09917-.90055-.51987-1.62454.94412.90045.51988z" fill="#e5bd13"/></g><g><path d="m10.68509 31.18795v.09864l.90056.51987.08516-.04948z" fill="#c6a51a"/><path d="m8.97541 32.18156.08514.04915 1.62454-.94412v-.09864z" fill="#d6b218"/><path d="m11.58565 31.80646-.90056-.51987-1.62454.94412.90045.51988z" fill="#e5bd13"/></g></g><g><g><g><g><g><path d="m10.58429 33.86244.06842.13021-.04237.02446-.09351.05359z" fill="#3f434f"/></g></g></g><g><g><g><path d="m10.61034 34.01711.00073.25757-.05113.02953-.00073-.25758z" fill="#3f434f"/></g></g></g><g><g><g><path d="m10.86432 34.15142.00016.05514-.353.20383-.00015-.05514z" fill="#3f434f"/></g></g></g><g><g><g><path d="m11.5094 33.34367.00052.18352c.00016.05796-.03332.12526-.07777.15939l.00047.16541c.03118-.01438.05468-.01303.05473.00427l-.13763.07947c-.00005-.0173.02337-.04574.05453-.06736l-.00047-.16541c-.02032.00811-.03786.00615-.05157-.00247-.01617-.01203-.02676-.03454-.02685-.06673l-.00052-.18352z" fill="#3f434f"/></g></g></g><g><g><g><path d="m10.81485 33.89902.00073.25757-.05113.02953-.00073-.25758z" fill="#3f434f"/></g></g></g><g><g><g><path d="m10.78915 33.74414.06807.13041-.04237.02447-.09315.05339z" fill="#3f434f"/></g></g></g></g><g><g><g><g><path d="m11.13422 34.11224c-.00957-.00528-.01518-.01617-.01518-.02987l-.00148-.55109c-.00033-.02409.01683-.05363.03794-.066l.47876-.27637c.01155-.0066.02326-.00743.03266-.00214.0094.00544.01485.0165.01485.03036l.00165.5511c0 .02409-.01666.05362-.03712.0655l-.47876.27637c-.0066.00379-.01336.00578-.01963.00578-.00495 0-.00957-.00116-.01369-.00364zm.51026-.90584-.47875.27637c-.01485.00858-.02805.03168-.02805.04851l.00148.55109c.00016.0061.00198.01056.00495.01237.00313.00132.00775.00099.0132-.00214l.47876-.27637c.01452-.00842.02722-.03085.02722-.04801l-.00165-.5511c0-.00627-.00181-.01105-.00478-.01287-.00099-.00049-.00214-.00082-.00346-.00082-.00248 0-.00562.00099-.00892.00297z" fill="#3f434f"/></g></g></g><g><g><g><path d="m10.4212 34.52359c-.0094-.00545-.01468-.01633-.01468-.0297l-.00148-.55109c-.00033-.02426.01683-.05396.03794-.066l.47876-.27654c.01155-.00677.0231-.00759.03267-.00198.00957.00544.01485.0165.01485.03019l.00165.55126c0 .02458-.01633.05346-.03728.0655l-.47875.27637c-.00643.00379-.0132.00561-.01947.00561-.00514 0-.00992-.00115-.01421-.00362zm.51076-.90585-.47875.27654c-.01485.00858-.02805.03152-.02805.04851l.00148.55109c0 .00594.00181.0104.00478.01221.00313.00148.00808.00099.01336-.00198l.47859-.27637c.01452-.00842.02739-.03085.02739-.04801l-.00165-.55126c0-.00627-.00181-.01089-.00478-.01271-.00099-.00049-.00231-.00082-.00363-.00082-.00247 0-.00544.00099-.00874.0028z" fill="#3f434f"/></g></g></g></g></g></g><g><g><g><path d="m15.37726 33.68938-.0134 3.5118-2.07788 1.20753.01341-3.5118z" fill="#d6b218"/></g><path d="m13.29939 34.89691-.01341 3.5118-2.72138-1.57119.01341-3.5118z" fill="#e5bd13"/><g><g><path d="m10.84798 33.85217-.08623-.04978-.01223 1.57479.08694-.04372z" fill="#d6b218"/><path d="m10.83646 35.33346-.08694.04372v.00002l2.35285 1.35834.00072-.09352z" fill="#f1c40f"/><path d="m10.84798 33.85217-.01152 1.48129 2.26663 1.30856.01139-1.48128z" fill="#c6a51a"/></g><g><path d="m10.84798 35.73951-.08623-.04978-.01223.88394.08694-.04372z" fill="#d6b218"/><path d="m10.83646 36.52995-.08694.04372v.00002l2.35285 1.35834.00072-.09352z" fill="#f1c40f"/><path d="m10.84798 35.73951-.01152.79044 2.26663 1.30856.01139-.79043z" fill="#c6a51a"/></g></g><g><g><path d="m15.08503 34.22488.08623-.04977.01223 1.57478-.08695-.04372z" fill="#e5bd13"/><path d="m15.09654 35.70617.08695.04372v.00002l-1.69163.97658-.00072-.09352z" fill="#f1c40f"/><path d="m15.08503 34.22488.01151 1.48129-1.6054.9268-.01138-1.48128z" fill="#c6a51a"/></g><g><path d="m15.08503 36.11222.08623-.04978.01223.88394-.08695-.04372z" fill="#e5bd13"/><path d="m15.09654 36.90266.08695.04372v.00002l-1.69163.97658-.00072-.09352z" fill="#f1c40f"/><path d="m15.08503 36.11222.01151.79044-1.6054.9268-.01138-.79044z" fill="#c6a51a"/></g></g><path d="m15.37726 33.68938-2.07787 1.20753-2.72138-1.57119 2.07787-1.20753z" fill="#f1c40f"/><g><path d="m12.65609 32.33157v.09863l.90056.51988.08516-.04949z" fill="#c6a51a"/><path d="m10.94641 33.32518.08515.04915 1.62453-.94413v-.09863z" fill="#d6b218"/><path d="m13.55665 32.95008-.90056-.51988-1.62453.94413.90044.51987z" fill="#e5bd13"/></g><g><path d="m13.88243 33.03886v.09863l.90056.51988.08516-.04949z" fill="#c6a51a"/><path d="m12.17275 34.03247.08515.04915 1.62453-.94413v-.09863z" fill="#d6b218"/><path d="m14.78299 33.65737-.90056-.51988-1.62453.94413.90045.51987z" fill="#e5bd13"/></g></g><g><g><g><g><g><path d="m13.78164 35.71334.06841.13021-.04237.02447-.0935.05358z" fill="#3f434f"/></g></g></g><g><g><g><path d="m13.80768 35.86802.00073.25757-.05113.02952-.00073-.25757z" fill="#3f434f"/></g></g></g><g><g><g><path d="m14.06166 36.00233.00016.05513-.35299.20384-.00016-.05514z" fill="#3f434f"/></g></g></g><g><g><g><path d="m14.70675 35.19458.00052.18352c.00016.05795-.03332.12526-.07777.15939l.00047.16541c.03118-.01437.05468-.01303.05473.00427l-.13763.07947c-.00005-.01731.02337-.04575.05453-.06736l-.00047-.16541c-.02032.00811-.03786.00614-.05157-.00247-.01617-.01203-.02676-.03453-.02685-.06673l-.00052-.18352z" fill="#3f434f"/></g></g></g><g><g><g><path d="m14.01219 35.74992.00073.25758-.05113.02952-.00073-.25757z" fill="#3f434f"/></g></g></g><g><g><g><path d="m13.9865 35.59505.06807.13041-.04238.02446-.09315.05339z" fill="#3f434f"/></g></g></g></g><g><g><g><g><path d="m14.33156 35.96315c-.00957-.00528-.01518-.01617-.01518-.02986l-.00148-.5511c-.00033-.02409.01683-.05362.03794-.066l.47876-.27637c.01155-.0066.02326-.00742.03266-.00214.0094.00544.01485.0165.01485.03036l.00165.55109c0 .02409-.01666.05362-.03712.06551l-.47875.27636c-.0066.0038-.01336.00578-.01963.00578-.00496 0-.00958-.00116-.0137-.00363zm.51027-.90585-.47876.27637c-.01485.00858-.02805.03168-.02805.04851l.00148.5511c.00016.0061.00198.01056.00495.01237.00313.00132.00775.00099.0132-.00215l.47876-.27637c.01452-.00842.02722-.03086.02722-.04802l-.00165-.55109c0-.00627-.00181-.01105-.00478-.01287-.00099-.0005-.00214-.00082-.00346-.00082-.00248.00001-.00561.00099-.00891.00297z" fill="#3f434f"/></g></g></g><g><g><g><path d="m13.61854 36.37449c-.0094-.00544-.01468-.01633-.01468-.0297l-.00148-.5511c-.00033-.02425.01683-.05396.03794-.066l.47876-.27654c.01155-.00676.0231-.00759.03267-.00198.00957.00544.01485.0165.01485.03019l.00165.55126c0 .02459-.01633.05346-.03728.06551l-.47875.27637c-.00643.0038-.0132.00561-.01947.00561-.00514.00001-.00992-.00115-.01421-.00362zm.51076-.90584-.47875.27654c-.01485.00858-.02805.03151-.02805.04851l.00148.5511c0 .00594.00181.0104.00478.01221.00313.00149.00808.00099.01336-.00198l.47859-.27637c.01452-.00842.02739-.03086.02739-.04802l-.00165-.55126c0-.00627-.00181-.01089-.00478-.0127-.00099-.0005-.00231-.00082-.00363-.00082-.00247-.00002-.00544.00097-.00874.00279z" fill="#3f434f"/></g></g></g></g></g></g></g><g><path d="m19.67882 31.92061-.02851 10.52785-4.52901-2.61482.02852-10.52786z" fill="#d4d6d6"/></g></g><g enable-background="new"><g><path d="m6.56646 24.34614.198-.11507-.02851 10.52607-.198.11506z" fill="#c4c6c6"/></g><g><path d="m2.02851 21.72615.198-.11506 4.53795 2.61998-.198.11507z" fill="#e0e2e2"/></g><g><path d="m6.56646 24.34614-.02851 10.52606-4.53795-2.61998.02851-10.52607z" fill="#d4d6d6"/></g></g></g><g><g><g><path d="m15.7209 31.20296.20212.11703v1.05488l-.20212.15013z" fill="#c4c6c6"/><path d="m15.92302 32.37487 3.14688 1.81565-.00238.26548-3.34662-1.931z" fill="#ecf0f1"/></g><path d="m15.92302 31.31999 3.15621 1.82576-.00933 1.04477-3.14688-1.81565z" fill="#c4c6c6"/></g><g><g><path d="m15.7209 34.25061.20212.11702v1.05488l-.20212.15013z" fill="#c4c6c6"/><path d="m15.92302 35.42251 3.14688 1.81566-.00238.26547-3.34662-1.931z" fill="#ecf0f1"/></g><path d="m15.92302 34.36763 3.15621 1.82576-.00933 1.04478-3.14688-1.81566z" fill="#c4c6c6"/></g><g><g><path d="m15.7209 37.29825.20212.11702v1.05488l-.20212.15014z" fill="#c4c6c6"/><path d="m15.92302 38.47015 3.14688 1.81566-.00238.26547-3.34662-1.93099z" fill="#ecf0f1"/></g><path d="m15.92302 37.41527 3.15621 1.82576-.00933 1.04478-3.14688-1.81566z" fill="#c4c6c6"/></g></g><g><g><g><path d="m2.60406 23.62502.20212.11702v1.05488l-.20212.15013z" fill="#c4c6c6"/><path d="m2.80618 24.79692 3.14689 1.81566-.00239.26547-3.34662-1.931z" fill="#e0e2e2"/></g><path d="m2.80618 23.74204 3.15622 1.82576-.00933 1.04478-3.14689-1.81566z" fill="#b4b5b5"/></g><g><g><path d="m2.60406 26.67266.20212.11702v1.05488l-.20212.15014z" fill="#c4c6c6"/><path d="m2.80618 27.84456 3.14689 1.81566-.00239.26547-3.34662-1.93099z" fill="#e0e2e2"/></g><path d="m2.80618 26.78968 3.15622 1.82576-.00933 1.04478-3.14689-1.81566z" fill="#b4b5b5"/></g><g><g><path d="m2.60406 29.7203.20212.11703v1.05487l-.20212.15014z" fill="#c4c6c6"/><path d="m2.80618 30.8922 3.14689 1.81566-.00239.26548-3.34662-1.931z" fill="#e0e2e2"/></g><path d="m2.80618 29.83733 3.15622 1.82576-.00933 1.04477-3.14689-1.81566z" fill="#b4b5b5"/></g></g></g></g></svg>