<svg id="Layer_1" enable-background="new 0 0 50 50" height="512" viewBox="0 0 50 50" width="512" xmlns="http://www.w3.org/2000/svg"><g><g><g><g><g enable-background="new"><g><path d="m38.87896 17.56201-.00479 1.68479c.00026-.08627-.05613-.17265-.16899-.23781l.00478-1.68478c.11286.06516.16924.15155.169.2378z" fill="#485f69"/></g><g><path d="m37.72313 19.24356.00477-1.68477c.00025-.08517.05568-.17019.16644-.23456.22299-.12959.59126-.12955.81561-.00002l-.00478 1.68478c-.22436-.12953-.59262-.12957-.81561.00002-.11076.06436-.16619.14939-.16643.23455z" fill="#485f69"/></g><g><path d="m46.97255 23.65155-.00478 1.68478-19.21308-11.09268.00477-1.68478z" fill="#485f69"/></g><g><path d="m38.87898 17.56203-.00478 1.68479c-.00024.08515-.05567.17019-.16644.23456-.22298.12958-.59124.12956-.81555.00006-.1129-.06519-.1693-.15159-.16906-.23786l.00476-1.68477c-.00023.08626.05617.17266.16907.23785.22431.1295.59257.12953.81555-.00006.11077-.06438.16621-.14941.16645-.23457z" fill="#fff"/></g><g><path d="m27.75946 12.55887-.00477 1.68478-24.24028 14.08691.00478-1.68478z" fill="#485f69"/></g><g><path d="m12.89041 34.48323.00019-.07046c-.00007.02376-.00013.04716-.00019.07046zm.00435-1.53759c-.00012.04774-.00028.09741-.00043.14787z" fill="#fff"/></g><g><path d="m38.70996 17.3242c.22431.1295.22555.34281.00257.47239s-.59124.12956-.81555.00006c-.22435-.12953-.22559-.34284-.00261-.47242s.59124-.12956.81559-.00003z" fill="#485f69"/></g><g><path d="m46.97258 23.65156-.00478 1.68478-24.24028 14.08691.00478-1.68478z" fill="#fff"/></g><g><path d="m46.97258 23.65156-24.24028 14.08691-19.21311-11.09269 24.24028-14.08691z" fill="#61c4f0"/></g></g></g><g><path d="m48.44342 22.06299c.73896.42664.74294 1.11985.01533 1.54269l-26.28589 15.2757c-.72762.42284-1.92439.4228-2.66334-.00384l-17.95292-10.36512c-.73238-.42284-.73639-1.11606-.00877-1.53891l26.28589-15.27569c.72762-.42284 1.92441-.42279 2.65679.00005zm-25.71114 15.67547 24.24027-14.08691-19.21309-11.09268-24.24027 14.08691zm15.97767-20.41425c-.22436-.12953-.59262-.12957-.81561.00002s-.22172.3429.00264.47243c.22429.1295.59253.12952.81552-.00007s.22175-.34289-.00255-.47238" fill="#56707b"/></g><g><path d="m12.73241 32.42071c.49482.28568.49739.75808.0059 1.0437-.49825.28955-1.31379.2896-1.80861.00392-.50146-.28952-.49746-.75812.00079-1.04766.49149-.28563 1.30046-.28948 1.80192.00004zm-1.65191.95998c.41561.23996 1.08644.23999 1.50608-.00388.41289-.23994.41066-.62852-.00495-.86848-.4157-.24-1.0931-.24381-1.50599-.00386-.41965.24387-.41084.63622.00486.87622" fill="#485f69"/></g></g><g><g enable-background="new"><g><path d="m21.6861 21.10968.34033-.10352.25862.0775c.23197.06209.44681-.01043.66143.04151l.33904.11395c.17836.01015.24179-.08807.38467-.10896l.2598-.02567.27808-.18127.33097-.0466.27761-.08804c.2271-.01015.33369.13776.53088.02392.25637-.15866.29337-.33459.02598-.46919-.20527-.10886-.50925-.11929-.71427-.21766-.23186-.1036-.07948-.15012.01952-.25881.13495-.15016-.11572-.07768-.1152-.19167 1.767-.50083 1.03773-.13193 1.16225.03126l.10613.14482c.03548.05176.0436.19156.20462.17084l.17996-.14478c.19933.11584.37959.18631.49164-.01559.08123-.16059-.22222-.28501-.40042-.37814.28647-.32567 1.05916-.21607 1.27131-.28988.13418-.04667.16112-.08294.31344-.10872.24173-.0466.56423-.18127.81403-.08803.28539.10349.02454.35713-.07452.48657.47179.05489.30965.30789-.11682.15033l-.16066-.03101-.1882.06721-.1875-.05696-.22343.00523-.41081-.07252c-.1555.00014-.44583.07699-.46598.21751-.00941.07768.11537.1294.01647.19658-.08971.0518-.22319-.00499-.30415.03111-.13661.07831.10863.24978.19516.28999.36625-.07761.3782.03982.29213.08951-.04014.02318-.10197.03143-.15853-.00144.11578.07764.28558.13474.40106.22264.08889.07244.1422.13464.26722.19686.21646-.01826.51065-.0269.31355-.15023-.11572-.07768-.40233.03627-.45499-.10862.50973-.05976.33094-.11073.66258-.24869l.10673.12431c.05312.05166.18744.057.10637.1346.1258.05211.48331-.04138.38527-.15019.79385-.18936.62152-.07511.7782-.08807l.31363-.07747.15166.03621.29485-.01566.40228.02592c.29479.00509.68884-.088.92939.02065.09655.04674.30043.23145.42566.15915.01405-.00811.02703-.01952.03881-.03473l-.12403-.24873-.026-.0774.23319-.13463c.1256-.07252.23285-.08291.38473-.12972.47461-.1465.36172-.30957 1.08113.15034.09813.05703.1692.09833.16873.17084-.00008.13155-.13165.11595-.27766.12951l-.17896.03108-.17855-.0414-.28656.0932.36569.10865.40216.04671c.0889.09316-.37691.22769-.27895.34698.12819.14963.75931.10429.19188.4319-.08333.04811-.13802.10265-.06118.16357.07006-.07127.36598-.13906.46598-.19679.505-.29156-.09394-.41834.05691-.62145l.10801-.11388c.04001-.1001.18495-.46268.14493-.36258l.21526-.12428c.05388-.07255-.01688-.1241.00117-.19669l.03646-.15546c-.06756-.23982-.33141-.2974-.30041-.57981.01816-.11409-.0439-.16059-.15044-.25365-.20504-.17116-.01654-.24862-.0602-.41943-.02636-.09846-.26705-.25912-.40953-.31071-.33929-.12445-.81334-.08822-1.14314-.21759-.16955-.06732-.32104-.16579-.4816-.2383-.11559-.04639-.24056-.10865-.31181-.1812-.15714-.12993-.02429-.27328.19601-.40047.25357-.1464.62324-.27134.80059-.32949.1115-.03413.22288-.0794.32044-.13572.03571-.02061.06929-.04281.10053-.06644.14402-.10331.1083-.14485-.04325-.22257-.39217-.18633-.89398.01043-1.29672.09846-.35066.07645-.64669.16111-.90099.30793-.03801.02195-.07525.04512-.11146.06995-.18317.12199-.35578.33982-.58186.47035-.06186.03571-.1278.06482-.19866.08389-.012.05397-.06872.10296-.14633.14777-.16057.09271-.41125.16743-.54426.23022-.0194.01008-.03831.02044-.05674.03108-.152.08776-.27396.19289-.41.28992l-.17896.0518-.05301-.11388c-.16038-.13478-.71602.11377-.88603.16041-.8413.25809-1.35872.64723-2.11478.84911-.36719.10214-1.14064.43904-1.74843.93721-.10023.03545-1.84482.78487-2.08915 1.16533z" fill="#269dd6"/></g><g><path d="m29.17663 21.25467-.03649.06195-.02705.07778-.06277.03624-.12519.02075-.11648.02581-.08112.09836.09813.05703.10754-.02065.14313-.03111.13414-.00519.07171-.04141.07147-.01046.09871-.07771.0276-.09826-.05367-.0519-.11572-.07768-.06217-.00499z" fill="#269dd6"/></g><g><path d="m25.99072 21.83453-.11671.10883-.02718.04649-.0273.06729-.17013.08814-.06295.00498-.09812.03649-.12554.07248.06237.03624.07106.0413.18808-.02571.04489-.02591.14288-.04162.09885-.0257.02688-.01552.07183-.06219.08947-.0623.12572-.04122.12495-.03126-.09708-.19149-.17873-.05194z" fill="#269dd6"/></g><g><path d="m28.8048 22.15035.00853.06732-.00929.05689.02631.11922.18733.11922.071.06205.07125.05183.15131.08793.07166.00007.09865-.05696.17937-.10355.08947-.0623.00065-.06198.03605-.1037-.07983-.0984-.04448-.02584-.08036-.00513-.15196-.02595.06271-.01549-.14313.03112-.07171.0414-.05407.02058-.15131-.06722-.16955-.06731z" fill="#269dd6"/></g><g><path d="m32.54378 21.77761c-.01655.09492-.18196.06025-.29395.12491-.07755.04477-.02285.08544-.04755.15458l-.13465.11918c-.1247.1329.19446.22261-.06422.33669-.13727.03979-.29284.17555-.1716.27436l.1605.09327c.07971.08783-.01876.15532.15979.19672l.19644.0518c.0252.07397-.22136.10708-.29597.15016l-.10771.10363-.1166.06732.04407.09833c-.49652.06083-.2605.12762-.35031.31594-.04523.09836-.19791.15514-.09088.24848.1599.1345.44605.11378.69626.15525.64802.11267.85232.55096 1.55377.27957.24208-.09833.28604.04151.48242.11406l.39281.10363.14313-.03111.32151.07255c.13353.03603.15137.06718.26766.01011l.15289-.16052c.10308.04391.14584.45288.66991.1503l.10648.09309.15284-.11904.2048.18138c.09765.05675.08025.04663.07959.10861l.03507.12424c.10109.04331.54501.0701.54325.35728.00842.10883-.0727.22791.0072.32627.38816-.13464.51918-.62352.47806-.79236-.06078-.28469-.48854-.48127-.80023-.70398-.47706-.34087-.54623-.62505-1.35367-.95289-.79019-.34408.02594-.23104-.31591-1.05641-.04377-.1293-.10567-.25877-.15856-.39344l-.20503-.09836c-.04169-.01457-.20621-.03775-.1286-.08256.0059-.00341.01301-.00695.02158-.01078-.31998-.18596-.47568.07679-.89274-.16558l-.24056-.12937c-.10066-.00271-.68179-.01834-.58113-.01563-.12555.03046-.09003.07244-.16159.15546l-.29462-.06735c-.15855.04436-.01602.1118-.06395.21221z" fill="#269dd6"/></g><g><path d="m15.81725 25.0553c-.21484.07251-.36656.05706-.57281.15542-.66074.35314-2.63827 1.91731-2.82833 2.12801-.2699.30031-.61015.4766-.97818.71988-.24219.16055-.62904.55919.0232.59536.24156.01566.45722-.18109.63583-.16044l.24903.19672c.13035.1398.3818.41185.51592.33442.03978-.02297.0696-.07659.0821-.17397.03746-.28989-.1761-.45557-.46097-.67304.13046-.0246.16304-.08853.33638-.18861.1406-.08117.3038-.02649.48752-.07034.24173-.06732.51157-.34688.70648-.06738.12439.197-.27007.36258-.21758.56973.07032.2383.6321.4712 1.0173.32104.24178-.08807.383.27451.67779.2796.09168-.15793-.10417-.40245.12426-.53433.13618-.07862.33265-.02068.36959.1148.02378.1783-.42564.23318.50627.62672.24956.10345.40146.15016.70555.11908.16078-.0105.27726-.03631.42045-.08817.04507-.01538.07195-.0309.09884-.04642.05383-.03108.09865-.05696.17877-.04161.16109.03132.22239.20202.29394.26432.17749.15515.45376.32606.7215.40893.11684-.07754.19742-.15542.26954-.24859.09813.05703.19597.12431.31205.17098.39462-.22783-.00731-.26404-.18517-.48169-.09754-.11897.00106-.13446-.03425-.24848-.01748-.08287-.19579-.11378-.11496-.20189.11426.07852.18688.09204.22161.07199.05462-.03153.01537-.14608-.10484-.22229-.21297-.1313-.27974-.36325-.08602-.47509.07354-.04246.1848-.06749.33956-.06331.20549.00513.37493.11395.55378.12439.15154.00492.26813-.0624.42922-.03108.20519.0361.49012.23282.66879.30552.24219-.16055-.05933-.58514-.21942-.75089-.09802-.09854-.19586-.18654-.1948-.30028-.01742-.10363.0274-.12951.04551-.22285.037-.17593-.06119-.21221.10959-.36233.09871-.07771.3409-.23826.39538-.33132.07553-.13881-.03651-.34295.15113-.45128.03637-.021.08406-.03845.14658-.05102.09789.06725.1502.26387.13185.34671-.01852.1451-.29608.21238-.32354.34193-.00935.07764.25757.28476.39141.31054.35758.06237.55523-.17607.82378-.23816l.35798-.08291c.16982-.09748.15524-.30804.20848-.42951.09029-.18654.04598-.29536-.10487-.47653-.08854-.10345-.40047-.33666-.33705-.43488.3388.12417.48013.42452.63116.63695.15967.21751.27458.46087.05862.66788-.22466.22267-.80689.43505-.10987.48682.41993.02581.78561.13446 1.21513.09313.40239-.03631.689-.15026.98281.06206.28492.19672.37278.49714.85519.59049.28574.05176.53658-.08298.80456.0104.18695.05671.28492.19672.44517.27949.16055.07252.31257.07771.48212.12431.39243.09601.562.4299.94653.20789.34073-.20792.61911-.42016.70086-.67402.12747-.37265-.29008-.86467-.74455-1.108-.4013-.21242-1.19673-.19673-1.35553-.57995-.0356-.08305.055-.22777-.02538-.30569-.13572-.14697-1.08007-.19184-.00428-.81295.20448-.11805 1.34866-.41253.76603-1.07175-.1419-.16561-.47247-.21221-.66844-.33652-.26733-.15536-.59744-.29519-.99083-.26408-.20603.01534-.25068.05176-.44735.01018-.13354-.03603-.20478-.08786-.3481-.088-.25896-.00506-.99345.21234-.88386-.14999l.17064-.20213-.2315-.15532c-.1969.06215-1.25533.71468-1.22694.37795.00624-.04168.05343-.07957.11639-.11592.06717-.03878.14706-.07259.2226-.1162.1065-.06149.16755-.12586.02133-.20273-.22286-.12951-.61707.02584-.82267.06222-.1879.03624-.48359.08263-.67989.08284l-.34804-.10876.04494-.06739c-.00818-.11904.01852-.1451-.15968-.21751-.16925-.07757-.36634-.06739-.40124-.23317-.02612-.10869.11695-.11905-.04306-.21203-.13373-.06728-.15191-.04671-.31317-.03649-.50462.01692-1.02916.22344-1.44829.46543-.22675.13091-.42282.27211-.5677.39945-.13465.11918-.23372.24862-.12729.38319.11618.13565.31982.15809.09496.28792-.01527.00881-.03248.01819-.05217.02788-.18831.10872-.50157.20725-.70782.32633-.01333.00938-.02738.01805-.04161.02627-.15826.09137-.36901.11504-.54955.19128-.02389.01043-.04669.02247-.06925.0355-.05444.03143-.10709.06911-.16418.10935-.04431.03006-.09037.06114-.13885.08912-.05997.03462-.12355.06461-.19295.08171-.25067.05176-.49117-.07764-.73255-.06205-.50326.0389-.47576.52143-.90662.64721z" fill="#269dd6"/></g><g><path d="m20.94899 29.74147-.05388.05183.01723.07237.10714.05184.04447.02584.05371-.01029.08042-.01563.05366.03119.09813.05703.11578.07764.10684.06209.10743.02086.09824-.0052.08895.05169.12473.07248.07182-.06219.10796-.09313.1073-.03114.04493-.06739-.00858-.04657.00929-.03617-.02659-.03617-.0623-.05699-.0712-.07259-.10683-.06208-.07106-.0413-.09855-.00527-.05371.01029-.08042.01563-.17931.0828-.15196-.02595-.13383-.00506-.11679.03607-.06242-.01549-.0713-.03108-.05348-.02065z" fill="#269dd6"/></g><g><path d="m22.55353 28.95957c-.09847.06749-.10818.17614-.10882.25884-.00922.10893.01666.20712.13262.29529l.07919.1811-.00887.05721-.02754.0775.06225.09847.07119.07259-.03629.0932-.18031.19651-.11647.11933-.17967.11381-.16142.0932c-.08971.0518-.17155.10352-.25591.15223-.04221.02437-.08502.04797-.12977.07044l-.21495.11402-.02748.05675.06254.04678h.12513l.08042-.01563.10766-.06216.08965-.05176.15272-.09826c.09866-.05696.17942-.12431.27808-.18127l.18819-.11929.07225-.06187.09866-.05696.05388-.05183.09871-.07771.03588-.04144.11671-.10883.02694-.03628.04518-.05689.01835-.08284.00076-.10349-.00019-.03125.00948-.02563.00011-.04151.00011-.04151.00041-.07248-.02671-.04674-.017-.08259-.02672-.06746-.04431-.08811-.05312-.05166-.01783-.03115-.05318-.0309-.01807-.04165.02735-.08804.00954-.04639-.03542-.07252-.02666-.08821-.07111.00018-.07196.01018-.06247.00527z" fill="#269dd6"/></g><g><path d="m17.03546 31.01024-.0273.06728-.04488.04664-.04507.0361.05336.04143-.03594.04148-.06277.03624-.04459.01566-.06271.01548-.07171.02069-.03589.02072-.04507.03609-.07182.06219-.036.08295-.02753.0775-.018.03112-.09001.08277-.01781.06236-.0093.03617.05336.04144.00859.04656-.03582.02069-.018.03111.05312.05165.07124.05184.03578.04151.00883.03634-.03659.12417.01777.0519.06212.02575.09001-.08277.036-.06223-.01759-.04137-.00877-.0571.00953-.04639-.00013-.052.04518-.05689.16131-.05169.07137.03104.07147-.03118.11678-.05678.0357-.03126-.04442-.0466.12614-.1137-.07191-.01057-.04428.0054-.11578-.07764.00887-.0572.01865-.0931.0267-.02605.04536-.04636.00906-.04667.04477-.00512.04459-.01566.05412-.06206-.04466-.03638-.06218-.0257-.06254-.04678.03588-.02072.01824-.04133-.04472-.03634z" fill="#269dd6"/></g><g><path d="m18.0201 32.32012-.10741.07265-.09001.08277.00883.03635.08895.05169.12472.07248.10702.09334.03553.03101.02612.10869.07101.06205.02671.04674-.009.02591.05336.04144.04424.03606.06219.0985-.03618.05169.00859.04657.01778.07262.02636.09846.12472.07248.09819.03627.05342.02068.07136.03104.03553.01029.25915.03631.15196.02595.06236.03624.23202.04133.18766-.02602.11625-.01559.08078.00544.08012.01535.18774.04674.16972-.01566.11678-.05678.05353-.02082.08042-.01563.16156-.04119.06277-.03624-.02696-.05724.0896-.01029.08036.00513.03582-.02068.02748-.03603.03605-.10369.00035-.05173-.00883-.03635-.06236-.03624-.14261-.08288-.08025-.04663.04507-.0361.1163-.03635.08101-.05685-.00865-.04653-.05336-.04144-.03566-.0623.07171-.0414.20649-.10858.14319-.05186.09842-.04674.13467-.04639.06248-.00527.09854-.01545.10731-.01043.09865-.05696.1253-.08298.05407-.02058.19685-.02068.11654-.04656.07147-.03119.07171-.0414-.03542-.0518-.07136-.03104.04524-.07764-.02678-.0467-.04448-.02585-.08895-.05169-.08919-.04147-.05366-.03118-.13378-.02581-.13402-.03631-.21408-.07241-.14261-.08288-.11602-.06742-.23232-.01036-.22379.05696c-.13424.0467-.24184.10882-.39386.10363l-.18725-.02574-.12537-.0105-.18796.05699-.18826.06725-.20543-.02588-.25932.02595-.17901.05183-.07201.05166-.20579.02584-.19631.00021-.14361.03083-.20607.12961.01718.09313.08925.02072.14291.07262.03542.0518-.03588.04144.00865.02581.02582.11894-.06288.07775-.05371-.01043-.0893.00003-.12489-.01022-.10702-.07262-.08889-.07244-.08895-.05169z" fill="#269dd6"/></g></g></g><g><g><g enable-background="new"><g><path d="m32.27374 14.75049-.51851.30226c-.32683.18923-.78146.16211-1.28031-.12539-.99771-.575-1.8013-1.96834-1.79884-3.11354.00246-.56768.20395-.96569.52588-1.15504l.52099-.29974c-.32438.18671-.52589.58736-.52589 1.15504-.00492 1.14268.80112 2.53602 1.79638 3.11102.5013.29002.95347.31462 1.2803.12539z" fill="#7eb442"/></g><g><path d="m32.38678 13.35464c0 .43989-.15482.74707-.40302.89202l-.52097.30226c.25066-.14495.40302-.45213.40548-.89202.00246-.88218-.61682-1.9537-1.38599-2.39839-.38582-.22366-.73723-.24334-.99033-.09587l.52097-.30226c.25311-.14747.60206-.12539.99033.09575.76672.44493 1.38599 1.51633 1.38353 2.39851z" fill="#b0b8bc"/></g><g><path d="m30.48261 11.25906c.76881.44387 1.38809 1.51652 1.38559 2.3982-.0025.88334-.62584 1.23856-1.39465.79469-.76723-.44296-1.38809-1.51652-1.38559-2.39986.00251-.88168.62741-1.23599 1.39465-.79303z" fill="#dde4e7"/></g><g><path d="m30.48836 9.78349c1.47955.85422 2.67591 2.92811 2.67109 4.62828-.00482 1.70008-2.56218 4.29799-2.69678 4.43473-.13346-.2915-2.66926-5.82994-2.66444-7.53003.00482-1.70017 1.20745-2.38901 2.69013-1.53298zm-.01458 5.14356c.99474.57431 1.80381.11324 1.80706-1.03156.00324-1.14303-.80058-2.53531-1.79532-3.10963-.99631-.57522-1.80539-.11415-1.80863 1.02889-.00324 1.14481.80059 2.53709 1.79689 3.1123" fill="#6b993f"/></g><g><path d="m33.67939 14.10902c-.00492 1.70052-2.56309 4.29809-2.69825 4.43572l-.51852.30226c.13517-.13763 2.69088-2.73508 2.6958-4.4356.00492-1.70064-1.1894-3.77469-2.67122-4.62735-.74461-.43005-1.4204-.47181-1.90696-.18683l.52097-.30226c.48657-.28258 1.15991-.24334 1.90696.18671 1.47938.8553 2.67614 2.92683 2.67122 4.62735z" fill="#7eb442"/></g></g></g><g><g><path d="m29.6433 12.69847.1748.10092c-.01245.02053-.01955.04787-.01965.08123-.00002.00522.0002.01049.00053.01583l-.21342-.12322c-.01081-.00624-.01889-.02023-.01886-.03266l.00018-.06445c.00003-.01163.00817-.01706.01898-.01081z" fill="#40545d"/></g><g enable-background="new"><g><path d="m30.13005 12.97949c.01228.03481.0192.07024.01911.10361-.00002.00522-.00026.01023-.00062.01517-.00721.09981-.08289.13801-.17497.08485-.09272-.05353-.16797-.17888-.17459-.28667-.00033-.00534-.00054-.01061-.00053-.01583.00009-.03336.0072-.0607.01965-.08123.02929-.04828.08833-.05866.15661-.01924.06781.03915.12647.11748.15534.19934zm-.15626.12679c.05946.03433.1076.00613.10779-.0622.00019-.06913-.04762-.15197-.10709-.1863-.06014-.03472-.10827-.00728-.10847.06185-.00018.06833.04763.15193.10777.18665" fill="#b0b8bc"/></g><g><path d="m30.76838 13.34803.11261.06502c-.01243.02055-.01953.04788-.01962.08124-.00002.00522.0002.01049.00052.01583l-.71335-.41185c.00036-.00494.0006-.00995.00062-.01517.00009-.03336-.00683-.0688-.01911-.10361z" fill="#40545d"/></g><g><path d="m31.19294 13.59315c.01229.03482.01922.07025.01912.10362-.00002.00522-.00026.01023-.00062.01517-.00721.09981-.08292.13799-.17564.08446-.09207-.05316-.1673-.17849-.17391-.28627-.00033-.00534-.00054-.01061-.00052-.01583.00009-.03336.0072-.0607.01962-.08124.02924-.04831.08815-.05877.15596-.01962.06828.03941.12707.11783.15599.19971zm-.15691.12641c.06014.03472.10827.00652.10847-.06181.0002-.06913-.04762-.15197-.10776-.18669-.05946-.03433-.1076-.00689-.10779.06224-.00021.06833.04761.15193.10708.18626" fill="#b0b8bc"/></g><g><path d="m31.03673 13.47106c.06014.03472.10796.11756.10776.18669-.00019.06833-.04833.09653-.10847.06181-.05946-.03433-.10728-.11793-.10709-.18626.00021-.06912.04834-.09657.1078-.06224z" fill="#9aa1a5"/></g><g><path d="m31.13101 12.68326.24451.65446-.00102.36026-.18156-.10482c-.02892-.08188-.08771-.1603-.15599-.19972-.0678-.03915-.12671-.02869-.15596.01962l-.11261-.06502.00247-.87271zm.17836.59293.00612-.00892-.19816-.53048c-.00537-.01479-.01549-.02764-.0263-.03388l-.28313-.16346-.00126.44649z" fill="#485f69"/></g></g><g><path d="m29.9745 12.85778c.05946.03433.10728.11717.10709.1863-.00019.06833-.04833.09653-.10779.0622-.06014-.03472-.10796-.11832-.10776-.18665.00019-.06912.04832-.09657.10846-.06185z" fill="#9aa1a5"/></g><g><path d="m30.71604 12.23367c.03041.01756.05533.05996.05523.09488l-.00289 1.01948-.63833-.36854c-.02887-.08186-.08752-.16019-.15533-.19934-.06828-.03942-.12733-.02904-.15661.01924l-.1748-.10092.00235-.83004.67031.38701.05914-.08949-.7291-.42095.00019-.06601c.0001-.03492.02451-.04885.05491-.03129z" fill="#ee5550"/></g><g><path d="m31.09102 12.70291c.01081.00624.02093.01909.0263.03388l.19816.53049-.00612.00892-.50274-.29025.00126-.44649z" fill="#78cfe2"/></g><g><path d="m31.39883 13.71202c.01081.00624.01889.02103.01886.03266l-.00018.06445c-.00003.01243-.00817.01706-.01898.01081l-.18707-.10801c.00036-.00494.0006-.00995.00062-.01517.0001-.03336-.00683-.0688-.01912-.10362l.18156.10482z" fill="#40545d"/></g><g><path d="m30.37511 12.16595-.05914.08949-.67031-.38701.00035-.12343z" fill="#fee182"/></g></g></g><g><g><g enable-background="new"><g><path d="m21.75411 28.84679-.51851.30226c-.32683.18923-.78146.16211-1.28031-.12539-.99771-.575-1.8013-1.96834-1.79884-3.11354.00246-.56768.20395-.96569.52588-1.15504l.52099-.29974c-.32438.18671-.52589.58736-.52589 1.15504-.00492 1.14268.80112 2.53602 1.79638 3.11102.5013.29002.95348.31462 1.2803.12539z" fill="#f17572"/></g><g><path d="m21.86716 27.45093c0 .43989-.15482.74707-.40302.89202l-.52097.30226c.25066-.14495.40302-.45213.40548-.89202.00246-.88218-.61682-1.9537-1.38599-2.39839-.38582-.22366-.73723-.24334-.99033-.09587l.52097-.30226c.25311-.14747.60206-.12539.99033.09575.76672.44493 1.38599 1.51633 1.38353 2.39851z" fill="#b0b8bc"/></g><g><path d="m19.96298 25.35535c.76881.44387 1.38809 1.51652 1.38559 2.3982-.0025.88334-.62584 1.23856-1.39465.79469-.76723-.44296-1.38809-1.51652-1.38559-2.39986.00251-.88168.62742-1.23599 1.39465-.79303z" fill="#dde4e7"/></g><g><path d="m19.96874 23.87979c1.47955.85422 2.67591 2.92811 2.67109 4.62828-.00482 1.70008-2.56218 4.29799-2.69678 4.43473-.13346-.2915-2.66926-5.82994-2.66444-7.53003.00482-1.70017 1.20745-2.38901 2.69013-1.53298zm-.01458 5.14356c.99474.57431 1.80381.11324 1.80706-1.03156.00324-1.14303-.80058-2.53531-1.79532-3.10963-.99631-.57522-1.80539-.11415-1.80863 1.02889-.00324 1.1448.80058 2.53708 1.79689 3.1123" fill="#ee5550"/></g><g><path d="m23.15977 28.20532c-.00492 1.70052-2.56309 4.29809-2.69825 4.43572l-.51853.30226c.13517-.13763 2.69088-2.73508 2.6958-4.4356.00492-1.70064-1.1894-3.77469-2.67122-4.62735-.74461-.43005-1.4204-.47181-1.90696-.18683l.52097-.30226c.48656-.28258 1.15991-.24334 1.90696.18671 1.47938.8553 2.67615 2.92683 2.67123 4.62735z" fill="#f17572"/></g></g></g><g><g><path d="m19.12368 26.79477.1748.10092c-.01245.02053-.01955.04787-.01965.08123-.00002.00522.0002.01049.00053.01583l-.21342-.12322c-.01081-.00624-.01889-.02023-.01886-.03266l.00018-.06445c.00003-.01163.00817-.01706.01898-.01081z" fill="#40545d"/></g><g enable-background="new"><g><path d="m19.61043 27.07579c.01227.03481.0192.07024.01911.10361-.00001.00522-.00026.01023-.00062.01517-.00721.09981-.08289.13801-.17496.08485-.09272-.05353-.16797-.17888-.17459-.28667-.00033-.00534-.00054-.01061-.00053-.01583.0001-.03336.0072-.0607.01965-.08123.02929-.04828.08834-.05866.15661-.01924.0678.03914.12645.11748.15533.19934zm-.15626.12679c.05946.03433.1076.00613.10779-.0622.0002-.06913-.04762-.15197-.10709-.1863-.06014-.03472-.10827-.00728-.10847.06185-.00019.06833.04763.15193.10777.18665" fill="#b0b8bc"/></g><g><path d="m20.24876 27.44433.11262.06502c-.01243.02054-.01953.04788-.01963.08124-.00002.00522.0002.01049.00052.01583l-.71335-.41185c.00036-.00494.0006-.00994.00062-.01517.0001-.03336-.00683-.0688-.01911-.10361z" fill="#40545d"/></g><g><path d="m20.67332 27.68945c.01229.03482.01922.07025.01913.10362-.00002.00522-.00026.01023-.00062.01517-.00721.09981-.08292.13799-.17564.08446-.09208-.05316-.1673-.17849-.17392-.28628-.00033-.00534-.00054-.0106-.00052-.01583.0001-.03336.0072-.0607.01963-.08124.02924-.04831.08815-.05877.15596-.01962.06827.03942.12706.11783.15598.19972zm-.15692.12641c.06014.03472.10827.00652.10847-.06181.0002-.06913-.04762-.15197-.10776-.18669-.05946-.03433-.1076-.00689-.10779.06224-.0002.06833.04762.15193.10708.18626" fill="#b0b8bc"/></g><g><path d="m20.51711 27.56736c.06014.03472.10796.11756.10776.18669-.00019.06833-.04833.09653-.10847.06181-.05946-.03433-.10728-.11793-.10709-.18626.0002-.06913.04834-.09657.1078-.06224z" fill="#9aa1a5"/></g><g><path d="m20.61139 26.77955.24451.65446-.00102.36026-.18156-.10482c-.02891-.08188-.08771-.1603-.15599-.19972-.0678-.03915-.12671-.02869-.15596.01962l-.11262-.06502.00247-.87271zm.17836.59294.00612-.00892-.19816-.53048c-.00537-.01479-.01549-.02764-.0263-.03388l-.28313-.16346-.00127.44649z" fill="#485f69"/></g></g><g><path d="m19.45488 26.95408c.05946.03433.10728.11717.10709.1863-.00019.06833-.04833.09653-.10779.0622-.06014-.03472-.10796-.11832-.10776-.18665.00019-.06913.04832-.09657.10846-.06185z" fill="#9aa1a5"/></g><g><path d="m20.19642 26.32997c.03041.01756.05533.05996.05523.09488l-.00289 1.01948-.63833-.36854c-.02887-.08186-.08753-.16019-.15533-.19934-.06828-.03942-.12733-.02904-.15661.01924l-.1748-.10092.00235-.83004.67031.38701.05914-.08949-.7291-.42095.00019-.06601c.0001-.03492.02451-.04885.05491-.03129z" fill="#ee5550"/></g><g><path d="m20.5714 26.79921c.01081.00624.02093.01909.0263.03388l.19816.53049-.00612.00891-.50274-.29025.00127-.44649z" fill="#78cfe2"/></g><g><path d="m20.8792 27.80832c.01081.00624.01889.02104.01886.03266l-.00018.06445c-.00004.01243-.00817.01706-.01898.01081l-.18707-.10801c.00036-.00494.0006-.00995.00062-.01517.00009-.03336-.00684-.0688-.01913-.10362l.18156.10482z" fill="#40545d"/></g><g><path d="m19.85549 26.26225-.05914.08948-.67031-.387.00035-.12343z" fill="#fee182"/></g></g></g></g><g><path d="m48.99893 22.84032v1.68994c0 .27002-.17999.55029-.53998.76025l-26.29004 15.27979c-.72998.41992-1.92999.41992-2.65997 0l-17.96002-10.36963c-.35999-.22021-.54999-.49023-.54999-.77051v-1.68994c0 .28027.19.56006.56.78027l17.95001 10.35986c.73999.43018 1.92999.43018 2.66998 0l26.28003-15.27002c.35999-.20995.53998-.48974.53998-.77001z" fill="#485f69"/></g></g></svg>