<svg id="Layer_1" enable-background="new 0 0 52 52" height="512" viewBox="0 0 52 52" width="512" xmlns="http://www.w3.org/2000/svg"><g><g><path d="m14.81634 34.49418c-.00665.84336-.29218 1.43438-.75703 1.70662l-3.28041 1.89918c.46484-.26559.63098-.82587.63098-1.66919.00665-1.62693-.94306-3.61663-2.27781-4.38695-.65076-.37187-1.23513-.40506-1.67342-.15272l3.27381-1.89918c.43826-.25899 1.02927-.2258 1.67338.14607 1.33474.77032 2.41714 2.72264 2.4105 4.35617z" fill="#3f434f"/><path d="m24.88627 40.32638c-.00665.84336-.29218 1.43437-.75703 1.70662l-3.28041 1.89918c.46484-.2656.63098-.82587.63098-1.66919.00665-1.62693-.94306-3.61663-2.27781-4.38695-.65076-.37187-1.23512-.40506-1.67342-.15272l3.27381-1.89917c.43826-.25899 1.02927-.2258 1.67338.14607 1.33474.77031 2.41715 2.72262 2.4105 4.35616z" fill="#3f434f"/><g><g enable-background="new"><g><path d="m28.95661 22.00769-13.02467 7.56169-10.2293-5.90386c-.2051-.12089-.38822-.13189-.52373-.05499l13.02469-7.56169c.13184-.0769.31863-.06594.52373.05128z" fill="#f1c40f"/></g><g><path d="m29.69277 23.2786-.00367 1.24887-13.02467 7.5654.00364-1.25263c0-.4651-.32594-1.03642-.73614-1.27087l13.02467-7.56169c.40654.23441.73617.80211.73617 1.27092z" fill="#e5bd13"/></g><g><path d="m36.65514 29.39858-.01466 5.40215c-.00367.23069-.08423.39553-.21607.47247l-13.02469 7.56531c.13187-.0769.21609-.24169.21609-.47243l.01464-5.40582z" fill="#e5bd13"/></g><g><path d="m36.65514 29.39858-13.02469 7.56169c0-.46514-.32597-1.03646-.73616-1.27087l-6.22985-3.59653 13.02467-7.5654 6.22987 3.59657c.40652.23803.73616.80573.73616 1.27454z" fill="#f1c40f"/></g><g><path d="m15.93357 29.57025c.40687.23491.73551.8041.73418 1.27165l-.00354 1.24942 6.23174 3.59789c.40688.23491.73552.80415.73419 1.27169l-.01532 5.40347c-.00133.46751-.33211.65602-.73899.42111l-17.19867-9.92965c-.40688-.23491-.73552-.80415-.73419-1.27165l.02126-7.49931c.00133-.46754.33211-.65602.73899-.42111z" fill="#d6b218"/></g></g></g><g><path d="m6.08271 11.37807 12.90648-7.50042-.03541 12.49169-12.90648 7.50043z" fill="#474b59"/></g><g><path d="m6.43345 10.60651 12.90647-7.50042c-.21725.12625-.34966.39357-.35073.77156l-12.90648 7.50042c.00107-.37799.13349-.6453.35074-.77156z" fill="#474b59"/></g><g><path d="m6.06303 9.97236 12.90648-7.50042c.27982-.16261.65775-.16096 1.08458.03701.51181.23851 1.01229.49903 1.50032.78079l-12.90649 7.50043c-.48802-.28176-.9885-.54228-1.50032-.78079-.42683-.19797-.80476-.19963-1.08457-.03702z" fill="#5b5e71"/></g><g><path d="m20.0884 28.11966 12.90648-7.50043 1.3092 6.6365-12.90647 7.50042z" fill="#5b5e71"/></g><path d="m30.32179 12.94179c-2.23046-4.3364-5.17508-7.57768-8.76796-9.65065l-12.90655 7.50073c3.59289 2.07302 6.53751 5.31425 8.76796 9.65065 1.24889 2.42822 2.14987 5.01024 2.6736 7.67653l12.90655-7.50074c-.52373-2.66629-1.4247-5.24835-2.6736-7.67652zm-12.25464 7.16744c-2.07295-4.03239-4.75755-7.15278-7.99516-9.29903l11.01304-6.402c3.03987 1.99603 5.7208 4.83078 7.67289 8.62881 1.13902 2.21944 1.97775 4.55976 2.50148 6.9697l-10.8336 6.29577c-.55305-2.13158-1.34047-4.21184-2.35865-6.19325z" fill="#5b5e71"/><g><g enable-background="new"><g><path d="m12.94609 21.76456 4.69041-2.72577 4.87515 2.81467-4.69041 2.72577z" fill="#e0e2e2"/></g><g><path d="m17.82124 24.57923 4.69041-2.72577-.00387 1.36451-4.69041 2.72577z" fill="#c4c6c6"/></g><g><path d="m17.63342 19.03871-4.68755 2.72877c.034-.31706.72466-6.2614-2.00405-7.83526-.034-.0226-.07927-.04527-.1246-.06793l4.69889-2.72871c.034.02267.07927.04527.12453.06793 2.71744 1.57387 2.02679 7.51821 1.99278 7.8352z" fill="#ecf0f1"/></g><g><path d="m10.94572 13.93111c2.72486 1.5732 2.03659 7.52044 2.00036 7.83345l4.87515 2.81467-.00387 1.3645-6.36901-3.67715-.62577-8.40215c.04188.02121.08281.04339.12314.06668z" fill="#d4d6d6"/></g></g></g><path d="m31.26189 20.00957-10.83997 6.28998c-.55005-2.13-1.34003-4.21002-2.35004-6.19-2.07996-4.03003-4.76001-7.15002-8-9.29999l11.01002-6.40003c3.03998 1.98999 5.72003 4.83002 7.67999 8.63 1.14002 2.22004 1.98004 4.56 2.5 6.97004z" fill="#fff" opacity=".4"/><g><path d="m32.17134 20.25207-.91195-.24536c-.52373-2.40993-1.36245-4.75026-2.50148-6.9697-1.95208-3.79803-4.63301-6.63278-7.67289-8.62881l.46514-.26735c3.30356 2.00703 6.03575 5.07985 8.12336 9.13785 1.13539 2.21949 1.97775 4.56343 2.49782 6.97337z" fill="#525566"/><path d="m32.17134 20.25207-11.57707 6.72796c-.05494-.22707-.11353-.45048-.16848-.67755l10.8336-6.29577z" fill="#5b5e71"/></g><g><path d="m8.64792 10.79017c3.59357 2.0746 6.53741 5.31549 8.76872 9.65335 1.24619 2.42849 2.14764 5.01053 2.67176 7.67614l1.30921 6.6365-.50317-.13978-1.30921-6.6365c-.50567-2.56614-1.36992-5.05132-2.5672-7.37894-2.14895-4.18148-4.88488-7.20338-8.32889-9.19178-.48323-.279-.98031-.53762-1.49177-.77629-.6339-.2933-1.11261.02511-1.11465.74521l-.03542 12.49169-.52146-.30107.03541-12.49169c.00292-1.02911.68579-1.48532 1.58635-1.06763.51182.23851 1.0123.49903 1.50032.78079z" fill="#525566"/></g><g><g><path d="m25.94207 18.49114 1.03251-.60003-.06951 24.5212-1.03252.60003z" fill="#384f63"/></g><g><path d="m38.39243 49.04363-1.03282.60061c.00367-.50538-.35527-1.12436-.79475-1.38076l-9.59202-5.53395-1.09874-.63727 1.0328-.6007 1.09874.63727 9.59202 5.53403c.4395.25636.79844.8753.79477 1.38077z" fill="#354a59"/></g><g><path d="m25.94207 18.49114-.06952 24.5212-1.25103-.72228.06952-24.5212z" fill="#354a59"/></g><g><path d="m24.69104 17.76886 1.03252-.60003 1.25102.72228-1.03251.60003z" fill="#3d566e"/></g><g><path d="m36.56381 48.2645c.44196.25516.79856.87281.79712 1.38066l-11.48838-6.63282.00261-.91894 1.09902.63722z" fill="#3d566e"/></g></g><g><g><path d="m34.60663 13.18277 1.03252-.60003-.06952 24.5212-1.03251.60003z" fill="#384f63"/></g><g><path d="m47.057 43.73526-1.03282.60061c.00367-.50538-.35527-1.12436-.79475-1.38076l-9.59202-5.53395-1.09874-.63727 1.03279-.6007 1.09874.63727 9.59202 5.53403c.43951.25637.79845.8753.79478 1.38077z" fill="#354a59"/></g><g><path d="m34.60663 13.18277-.06951 24.5212-1.25103-.72228.06952-24.5212z" fill="#354a59"/></g><g><path d="m33.35561 12.46049 1.03252-.60003 1.25102.72228-1.03252.60003z" fill="#3d566e"/></g><g><path d="m45.22838 42.95613c.44196.25516.79855.87281.79712 1.38066l-11.48838-6.63282.00261-.91894 1.09902.63722z" fill="#3d566e"/></g></g><path d="m15.94845 38.80216.23245.13456 4.69784 2.70371 1.32128.7631.24462.13456c.01225-.09789.01225-.19571.01225-.30585 0-.5383-.08565-1.10108-.26911-1.65154-.4404-1.43142-1.41917-2.77711-2.56916-3.44996-.48931-.28143-.97869-.42823-1.45583-.42823-.2936 0-.57496.06123-.85631.17129-.66069.28135-1.19899.90068-1.35803 1.92836z" fill="#363a44"/><path d="m19.19514 37.87506c1.33553.77106 2.4129 2.72038 2.40827 4.35242-.00463 1.63205-1.08949 2.32811-2.42502 1.55704s-2.42139-2.72041-2.41677-4.35245c.00463-1.63204 1.09799-2.32808 2.43352-1.55701z" fill="#5b5e71"/><path d="m19.18908 38.50925c1.1144.6434 2.01623 2.20543 2.0126 3.48593-.00364 1.28453-.91136 1.79781-2.02575 1.15442-1.11437-.64338-2.01621-2.20141-2.01257-3.48594.00362-1.2805.91135-1.79779 2.02572-1.15441z" fill="#ecf0f1"/><g><g><path d="m18.57161 41.03186c-.01303-.00753-.02647-.01292-.04002-.01567l-.81801-.17605c.15771.44653.40998.88346.71938 1.24354l.2579-.79162c.02803-.08179-.03735-.2129-.11925-.2602z" fill="#525566"/></g></g><g><g><path d="m17.62115 39.34267c-.05413.15265-.08258.33372-.08316.53828-.00058.20455.02675.41658.07984.63237l.76055-.01758c.09238-.00097.0928-.1513.00073-.25877z" fill="#525566"/></g></g><g><g><path d="m18.44251 38.7159c-.31151.00159-.56542.14629-.72407.4114l.81634.76631c.01352.01289.02695.02299.03998.03051.0819.04728.14781-.00803.12033-.12187z" fill="#525566"/></g></g><g><g><path d="m19.18734 38.94104c-.17802-.10278-.3497-.1698-.50965-.20167l.39431 1.10276c.02344.06661.06787.1188.11238.14449.0445.02569.08908.0249.11283-.01447l.39926-.64459c-.1607-.15326-.33112-.28375-.50913-.38652z" fill="#525566"/></g></g><g><g><path d="m19.78825 41.73429c-.0815-.04705-.14607.00904-.12044.12181l.25472 1.08758c.30936-.00283.56327-.14752.72299-.41079l-.8174-.76815c-.01352-.01288-.02691-.02297-.03987-.03045z" fill="#525566"/></g></g><g><g><path d="m19.17959 41.67421c-.04451-.0257-.08908-.02552-.11282.01262l-.39927.64459c.15962.15263.33111.28374.50913.38652.17801.10278.34862.16918.50965.20168l-.39431-1.10276c-.02344-.06539-.06788-.11696-.11238-.14265z" fill="#525566"/></g></g><g><g><path d="m19.93208 39.5759-.26004.79039c-.02618.08284.03786.2132.11935.26025.01297.00749.02636.01287.03992.01562l.81907.1779c-.15556-.44652-.40783-.88346-.7183-1.24416z" fill="#525566"/></g></g><g><g><path d="m20.7472 41.1475-.7627.01635c-.09023.00221-.09066.15254-.00073.25877l.76011.89554c.05307-.1545.08258-.33372.08316-.53827.00058-.20457-.02782-.41845-.07984-.63239z" fill="#525566"/></g></g><path d="m5.87851 32.96996.23245.13456 4.69741 2.72023 1.32128.7631.24462.13456c.01225-.09789.01268-.21223.01268-.32236 0-.53829-.08565-1.10108-.26911-1.65154-.4404-1.43142-1.41917-2.77711-2.56916-3.44996-.48931-.28143-.9787-.42823-1.45583-.42823-.2936 0-.57496.06123-.85631.17129-.66069.28134-1.19898.90068-1.35803 1.92835z" fill="#363a44"/><path d="m9.12521 32.04286c1.33553.77107 2.4129 2.72038 2.40827 4.35243s-1.0895 2.32811-2.42502 1.55704-2.42139-2.7204-2.41677-4.35245 1.09799-2.32809 2.43352-1.55702z" fill="#5b5e71"/><path d="m7.09077 33.83548c0 1.28003.90002 2.84009 2.02002 3.47998 1.10999.65015 2.02002.13013 2.02002-1.1499s-.90002-2.8501-2.01001-3.48999c-1.12-.6399-2.02002-.11988-2.03003 1.15991z" fill="#ecf0f1"/><g><g><path d="m8.50168 35.19967c-.01303-.00753-.02646-.01292-.04002-.01566l-.81801-.17606c.15771.44654.40998.88346.71938 1.24354l.2579-.79162c.02802-.0818-.03736-.21291-.11925-.2602z" fill="#525566"/></g></g><g><g><path d="m7.55122 33.51048c-.05413.15266-.08258.33372-.08316.53828-.00058.20455.02675.41658.07984.63237l.76055-.01759c.09238-.00097.0928-.1513.00073-.25877z" fill="#525566"/></g></g><g><g><path d="m8.37257 32.88371c-.31151.00159-.56542.14629-.72407.4114l.81634.7663c.01352.01289.02695.02299.03998.03051.0819.04728.14781-.00803.12033-.12187z" fill="#525566"/></g></g><g><g><path d="m9.1174 33.10884c-.17802-.10278-.34969-.1698-.50965-.20167l.39431 1.10276c.02344.06661.06787.1188.11238.14449.0445.02569.08909.0249.11283-.01447l.39926-.64459c-.16069-.15326-.33112-.28375-.50913-.38652z" fill="#525566"/></g></g><g><g><path d="m9.71831 35.90209c-.0815-.04705-.14607.00904-.12044.12181l.25472 1.08758c.30936-.00283.56327-.14752.72299-.41078l-.8174-.76815c-.01352-.01289-.02691-.02298-.03987-.03046z" fill="#525566"/></g></g><g><g><path d="m9.10965 35.84201c-.04451-.0257-.08908-.02552-.11282.01263l-.39927.64459c.15962.15263.33111.28373.50913.38651.17801.10278.34862.16918.50965.20168l-.39431-1.10276c-.02344-.06539-.06788-.11696-.11238-.14265z" fill="#525566"/></g></g><g><g><path d="m9.86214 33.74371-.26004.79039c-.02618.08284.03786.2132.11935.26025.01297.00748.02636.01287.03992.01561l.81907.1779c-.15556-.44652-.40782-.88346-.7183-1.24415z" fill="#525566"/></g></g><g><g><path d="m10.67726 35.3153-.7627.01634c-.09023.00221-.09066.15254-.00073.25877l.76011.89554c.05307-.1545.08258-.33372.08316-.53827.00058-.20456-.02781-.41844-.07984-.63238z" fill="#525566"/></g></g><g><path d="m13.58917 32.17992-.00398 1.40384 2.9856 1.72373.00398-1.40384z" fill="#e67e22"/></g></g><g><path d="m5.93601 27.23754c.07384.04263.13342.14581.1332.22662l-.00441 3.21713c-.00023.08081-.0602.11499-.13404.07236l-.97754-.56438.00526-3.51611z" fill="#d8463f"/></g></g></svg>