<svg id="Layer_1" enable-background="new 0 0 50 50" height="512" viewBox="0 0 50 50" width="512" xmlns="http://www.w3.org/2000/svg"><g><g><g><g><g enable-background="new"><g><path d="m25.95139 48.25943-.00428.42848c-.00046.16365-.10806.32706-.32301.45197-.43266.25143-1.13593.25142-1.57142 0-.21914-.12653-.3286-.29254-.32813-.4583l.00427-.42848c-.00047.16576.10898.33177.32813.45829.43548.25143 1.13876.25144 1.57142 0 .21495-.1249.32255-.28831.32302-.45196z" fill="#485f69"/></g><g><path d="m25.62328 47.80115c.43548.25143.43776.65882.0051.91025s-1.13593.25142-1.57142 0c-.43548-.25143-.4378-.65879-.00514-.91022.43266-.25144 1.13598-.25146 1.57146-.00003z" fill="#56707b"/></g></g></g><g><g enable-background="new"><g><path d="m25.21222 46.04301-.00144 2.16572c-.00015.05501-.03632.10993-.10857.15192-.14543.08451-.38182.08451-.5282 0-.07366-.04253-.11045-.09833-.11029-.15405l.00144-2.16572c-.00016.05572.03663.11152.11029.15405.14638.08451.38277.08451.5282 0 .07225-.04199.10842-.09691.10857-.15192z" fill="#40545d"/></g><g><path d="m25.10194 45.88897c.14638.08451.14714.22145.00171.30596s-.38182.08451-.5282 0-.14716-.22144-.00173-.30595.38184-.08452.52822-.00001z" fill="#dde4e7"/></g></g></g></g><g><g><g enable-background="new"><g><path d="m8.38186 38.07471-.00428.42848c-.00046.16365-.10806.32705-.32301.45197-.43266.25143-1.13594.25142-1.57142 0-.21915-.12652-.3286-.29254-.32813-.45829l.00427-.42848c-.00047.16576.10898.33177.32813.45829.43548.25143 1.13876.25143 1.57142 0 .21496-.12492.32256-.28832.32302-.45197z" fill="#485f69"/></g><g><path d="m8.05375 37.61643c.43548.25142.43776.65881.0051.91025-.43266.25143-1.13594.25142-1.57142 0-.43548-.25143-.4378-.65879-.00514-.91022.43266-.25144 1.13598-.25146 1.57146-.00003z" fill="#56707b"/></g></g></g><g><g enable-background="new"><g><path d="m7.6427 35.85829-.00144 2.16572c-.00016.05501-.03632.10993-.10857.15192-.14543.08451-.38182.08451-.5282 0-.07366-.04253-.11045-.09833-.11029-.15405l.00144-2.16572c-.00016.05571.03663.11152.11029.15405.14638.08451.38277.08451.5282 0 .07224-.04199.10841-.09691.10857-.15192z" fill="#40545d"/></g><g><path d="m7.53241 35.70425c.14638.08451.14714.22145.00171.30596s-.38182.08451-.5282 0-.14716-.22144-.00173-.30595c.14544-.08452.38184-.08453.52822-.00001z" fill="#dde4e7"/></g></g></g></g><g><g><g enable-background="new"><g><path d="m43.05099 38.28996-.00428.42848c-.00046.16365-.10806.32705-.32301.45197-.43266.25143-1.13594.25142-1.57142 0-.21915-.12652-.3286-.29253-.32813-.45829l.00427-.42848c-.00047.16576.10899.33177.32813.45829.43548.25143 1.13876.25144 1.57142 0 .21496-.12491.32256-.28832.32302-.45197z" fill="#485f69"/></g><g><path d="m42.72289 37.83168c.43548.25143.43776.65882.0051.91025s-1.13594.25142-1.57142 0c-.43549-.25143-.4378-.65879-.00514-.91022.43265-.25144 1.13597-.25146 1.57146-.00003z" fill="#56707b"/></g></g></g><g><g enable-background="new"><g><path d="m42.31183 36.07354-.00143 2.16572c-.00016.05501-.03632.10993-.10857.15192-.14543.08451-.38182.08451-.5282 0-.07366-.04253-.11045-.09833-.11029-.15405l.00143-2.16572c-.00016.05572.03663.11152.11029.15405.14638.08451.38277.08451.5282 0 .07225-.04199.10842-.09691.10857-.15192z" fill="#40545d"/></g><g><path d="m42.20155 35.9195c.14638.08451.14714.22145.00171.30596s-.38182.08451-.5282 0-.14716-.22144-.00173-.30595.38183-.08452.52822-.00001z" fill="#dde4e7"/></g></g></g></g><g><g enable-background="new"><g><path d="m43.01124 34.60529-.06008 2.19422-18.17327 10.56115.06008-2.19422z" fill="#b0b8bc"/></g><g><path d="m24.83797 45.16644-.06008 2.19422-18.29205-10.56092.06008-2.19422z" fill="#cfd8dd"/></g><g><path d="m43.01124 34.60529-18.17327 10.56115-18.29205-10.56092 18.17327-10.56115z" fill="#dde4e7"/></g></g></g></g><g><g enable-background="new"><g><path d="m34.81881 13.28487-.0206 17.26787-1.12577.65423.0206-17.26788z" fill="#485f69"/></g><g><path d="m33.69304 13.93909-.0206 17.26788-3.72451-2.15034.02061-17.26788z" fill="#56707b"/></g><g><path d="m34.81881 13.28487-1.12577.65422-3.7245-2.15034 1.12577-.65423z" fill="#778c95"/></g></g></g><g><g enable-background="new"><g><g><path d="m30.998 1.55692.57614 2.01207-5.74322 5.23739-.57613-2.01207z" fill="#485f69"/></g><g><path d="m31.47527 4.64799c-.42922.11565-.85479.36116-1.26368.73404-.19204-.67067-.38412-1.34137-.57615-2.01206.4089-.37289.83447-.61841 1.26369-.73405.02018.0705.04709.16449.06727.23498.0214.07474.04993.17439.07133.24913.02221.07757.05182.18099.07404.25856.02262.07899.05278.1843.07539.26329.02262.07899.05278.1843.07539.26329.02221.07758.05184.18101.07405.25859.0214.07475.04995.17442.07135.24918.0202.07052.04713.16454.06732.23505z" fill="#40545d"/></g><g><path d="m42.08175 7.95613.57614 2.01206-11.08375-6.3992-.57614-2.01207z" fill="#485f69"/></g><g><path d="m32.68382 4.79155c-.37035-.21382-.7731-.26488-1.20855-.14356-.19203-.67068-.38411-1.34137-.57614-2.01205.43545-.12134.8382-.07027 1.20855.14355.02018.0705.04708.16449.06727.23498.0214.07474.04993.17439.07133.24913.02221.07757.05184.18099.07405.25856.02261.07899.05276.1843.07538.26329s.05277.18431.07539.26331c.02221.07758.05183.18101.07405.25859.0214.07475.04994.17442.07135.24918.02019.0705.04712.16452.06732.23502z" fill="#40545d"/></g><g><path d="m30.21159 5.38203c-.26734.24379-.45697.47591-.57548.69986-.09604-.33536-.19208-.67075-.2881-1.0061-.09601-.33531-.19205-.67064-.28806-1.00595.11852-.22396.30816-.45608.57549-.69987.02018.0705.04708.16449.06727.23498.0214.07474.04993.17439.07133.24913.02221.07757.05184.18099.07405.25856.02262.07899.05276.1843.07538.26329s.05278.18431.07539.26331c.02221.07758.05184.18101.07405.25859.0214.07475.04995.17442.07135.24918.0202.0705.04713.16452.06733.23502z" fill="#40545d"/></g><g><path d="m33.13828 5.29679c-.05585-.19511-.20862-.3633-.45446-.50524-.19204-.67067-.38411-1.34137-.57615-2.01206.24585.14193.39862.31013.45447.50524.17284.60363.4033 1.40845.57614 2.01206z" fill="#40545d"/></g><g><path d="m29.63611 6.08189c-.06541.12362-.10916.24474-.13234.36396-.19205-.67068-.38411-1.34138-.57614-2.01206.02318-.11922.06693-.24035.13234-.36396.02017.0705.04709.16449.06728.23498.0214.07474.04993.17439.07133.24913.02221.07757.05182.18099.07404.25856.02262.07899.05278.1843.07539.26329s.05278.1843.07539.26329c.01118.03906.02609.09113.03728.13019.02186.07634.051.17813.07286.25447.01058.03694.02469.08619.03526.12312.02019.07051.0749.16208.06731.23503z" fill="#40545d"/></g><g><path d="m31.9751 3.40299.57613 2.01207c-.03101-.10834-.11216-.20124-.24583-.27841-.22986-.13271-.48731-.14517-.77299-.04628-.29126.10398-.58085.28245-.87391.5497-.2927.26692-.47333.51725-.54195.74146-.02857.09371-.03217.17964-.00984.25762l-.57615-2.01206c-.02231-.07798-.01871-.16391.00986-.25762.06862-.22421.24925-.47454.54195-.74146.29306-.26725.58265-.44572.87391-.5497.28568-.09889.54313-.08643.77299.04628.13365.07716.21481.17006.24583.2784z" fill="#fff"/></g><g><path d="m32.55123 5.41501c.02234.07797.0187.16393-.01002.25778l-.57615-2.01205c.02873-.09385.03236-.17981.01003-.25779.17284.60362.40326 1.40846.57614 2.01206z" fill="#40545d"/></g><g><path d="m32.56213 3.28469.57613 2.01207c.02828.09875.03173.2044.00985.31704l-.57614-2.01206c.02189-.11263.01844-.21829-.00984-.31705z" fill="#fff"/></g><g><path d="m29.50377 6.44585c-.01937.10842-.01519.21079.01235.30698l-.57615-2.01206c-.02753-.09619-.03172-.19856-.01234-.30698.02019.0705.04709.16449.06728.23499.0214.07473.04994.17438.07133.24911.02221.07757.05182.181.07404.25858.02262.07899.05278.1843.07539.26329.01133.03958.02645.09236.03778.13194.01128.0394.02633.09194.03761.13135.01118.03906.02609.09113.03728.13019.01103.03852.02574.08988.03677.1284.01083.03782.02526.08825.03609.12607.01057.03693.02469.08617.03526.12311.0202.07051.06356.16179.06731.23503z" fill="#40545d"/></g><g><path d="m32.54121 5.67279c-.04319.12744-.12188.26493-.23731.40995-.19198-.67072-.38403-1.34144-.57608-2.01214.1154-.145.19407-.28246.23725-.40988.17283.60363.59115 1.38438.57614 2.01207z" fill="#40545d"/></g><g><path d="m32.30389 6.08274c-.08403.10557-.18755.21514-.31101.32773-.19204-.67068-.38412-1.34138-.57615-2.01206.12351-.11262.22704-.22221.31108-.32781.19205.6707.3841 1.34142.57608 2.01214z" fill="#40545d"/></g><g><path d="m30.35243 6.9176c-.13363-.07715-.21468-.17011-.24571-.27841l-.57614-2.01206c.03103.1083.11208.20126.24571.27841.02017.0705.0471.16448.06728.23498.0214.07474.04993.17439.07133.24913.02221.07757.05182.18099.07404.25856.02262.07899.05278.1843.07539.26329.02262.07899.05278.18431.07539.26331.02221.07758.05182.18101.07404.25859.0214.07475.04995.17442.07135.24918.02019.0705.04712.16452.06732.23502z" fill="#40545d"/></g><g><path d="m31.99289 6.41047c-.2927.26692-.58822.45092-.86754.55348-.19204-.67068-.38412-1.34138-.57615-2.01206.27933-.10257.57485-.28656.86755-.55348.02017.0705.04709.16449.06728.23499.0214.07473.04994.17438.07133.24911.02221.07757.05182.181.07404.25858.02262.07899.05278.1843.07539.26329s.05278.1843.07539.26329c.02221.07758.05182.18101.07404.25859.0214.07475.04995.17442.07135.24918.02019.0705.04711.16452.06732.23503z" fill="#40545d"/></g><g><path d="m31.12535 6.96395c-.29162.10431-.54306.08636-.77292-.04634-.19204-.67067-.38412-1.34137-.57615-2.01206.22987.1327.48131.15065.77293.04634.02018.0705.0471.16449.06728.23499.0214.07473.04994.17438.07133.24911.02221.07757.05182.181.07404.25858.02262.07899.05278.1843.07539.26329s.05278.1843.07539.26329c.02221.07758.05182.18101.07404.25859.0214.07475.04995.17442.07135.24918.02019.0705.04712.16452.06732.23503z" fill="#40545d"/></g><g><path d="m29.51613 6.75285-.57616-2.01205c.05616.19608.20936.36645.45783.5099.37027.21378.77345.26456 1.20268.14891.43544-.12143.85472-.3611 1.26962-.73946.4089-.37288.64293-.72898.70188-1.0584l.57614 2.01206c-.05895.32942-.29298.68552-.70188 1.0584-.41491.37836-.83418.61803-1.26962.73946-.42922.11565-.83241.06486-1.20268-.14891-.24846-.14345-.40166-.31382-.45781-.50991z" fill="#fff"/></g><g><path d="m34.16964 6.20358c-.42922.11565-.85479.36116-1.26368.73404-.19204-.67068-.38411-1.34138-.57615-2.01206.4089-.37289.83447-.6184 1.26369-.73405.02018.0705.04708.16449.06727.23498.0214.07474.04993.17439.07133.24913.02221.07757.05182.18099.07404.25856.02261.07899.05278.1843.07539.26329.02262.07899.05277.18431.07539.26331.02221.07758.05183.18101.07405.25859.0214.07475.04994.17442.07135.24918.0202.07051.04712.16453.06732.23503z" fill="#40545d"/></g><g><path d="m35.37811 6.3471c-.37027-.21378-.77302-.26484-1.20847-.14352-.19203-.67067-.38411-1.34137-.57614-2.01206.43545-.12133.8382-.07026 1.20847.14351.02018.0705.04708.16449.06727.23498.0214.07474.04995.17439.07135.24913.02221.07757.05182.18099.07404.25856.02261.079.05275.18431.07537.2633.02261.07899.05278.1843.07539.26329.02221.07758.05183.18102.07405.25861.0214.07475.04994.17442.07135.24918.02019.0705.04712.16451.06732.23502z" fill="#40545d"/></g><g><path d="m32.90595 6.93763c-.26729.24375-.45691.47584-.57542.69975-.19204-.67068-.38412-1.34138-.57615-2.01206.11852-.22392.30814-.456.57543-.69976.02018.0705.04708.16449.06727.23499.0214.07474.04995.17438.07135.24911.02221.07757.05182.181.07404.25858.02261.07898.05276.18429.07538.26328s.05277.18431.07539.26331c.02221.07758.05183.18101.07405.25859.0214.07475.04994.17442.07135.24918.02019.0705.04712.16452.06731.23503z" fill="#40545d"/></g><g><path d="m35.83259 6.85236c-.05584-.1951-.20859-.36329-.45448-.50525-.19204-.67068-.38411-1.34137-.57615-2.01205.2459.14195.39865.31014.45449.50524.17283.60362.40329 1.40845.57614 2.01206z" fill="#40545d"/></g><g><path d="m32.33054 7.63737c-.06545.12365-.10921.24481-.1324.36407-.19203-.67068-.38411-1.34137-.57614-2.01205.02319-.11927.06695-.24043.1324-.36408.02017.0705.04709.16449.06728.23498.0214.07474.04993.17439.07133.24913.02221.07757.05182.18099.07404.25856.02262.07899.05278.1843.0754.26329s.05277.18431.07539.26331c.01118.03905.02609.09112.03728.13017.02186.07634.051.17813.07286.25447.01057.03694.02468.08619.03526.12312.02018.07051.07489.1621.0673.23503z" fill="#40545d"/></g><g><path d="m34.66939 4.95854.57614 2.01207c-.03102-.10834-.11218-.20125-.24584-.27842-.22986-.13271-.49367-.14884-.77299-.04628-.29126.10398-.58077.28249-.87383.54974-.2927.26692-.4734.51721-.54203.74142l-.57614-2.01206c.06863-.22421.24933-.47449.54203-.74142.29306-.26725.58257-.44576.87383-.54974.27932-.10256.54313-.08643.77299.04628.13367.07717.21482.17007.24584.27841z" fill="#fff"/></g><g><path d="m35.24552 6.97056c.02234.07797.0187.16393-.01003.25778l-.57615-2.01206c.02873-.09384.03236-.17981.01003-.25778.17285.60363.40327 1.40846.57615 2.01206z" fill="#40545d"/></g><g><path d="m35.25643 4.84021.57613 2.01208c.02829.09875.03174.20441.00985.31706l-.57614-2.01206c.02188-.11265.01844-.21831-.00984-.31708z" fill="#fff"/></g><g><path d="m32.19814 8.00145c-.01937.10842-.01519.21079.01234.30697l-.57614-2.01205c-.02753-.0962-.03172-.19857-.01234-.30699.02018.0705.04709.16449.06727.23498.0214.07474.04993.17439.07133.24913.02221.07757.05182.18099.07404.25856.02262.07899.05278.1843.07539.26329.01133.03958.02645.09236.03778.13194.02247.07846.05242.18307.07489.26154.01103.03853.02574.08989.03677.12842.0214.07475.04994.17442.07135.24918.0202.07051.06358.16178.06732.23503z" fill="#40545d"/></g><g><path d="m32.79791 8.19178-.57615-2.01205c-.02228-.07786-.01812-.16308.01294-.25472l.57614 2.01206c-.03105.09164-.03522.17687-.01293.25471z" fill="#fff"/></g><g><path d="m35.2355 7.22834c-.07463.22021-.25518.47047-.54824.73772-.19204-.67068-.38412-1.34137-.57615-2.01205.29307-.26726.47363-.51752.54826-.73773.17282.60362.59114 1.38437.57613 2.01206z" fill="#40545d"/></g><g><path d="m33.04672 8.47316c-.13418-.07747-.21752-.17214-.2488-.28133l-.57615-2.01206c.03128.10919.11462.20386.24881.28133.02017.0705.04709.16449.06728.23498.0214.07474.04993.17439.07133.24913.02221.07757.05182.18099.07404.25856.02261.07899.05278.1843.07539.26329s.05278.1843.07539.26329c.02221.07758.05183.18102.07405.25861.0214.07475.04993.17442.07133.24918.0202.0705.04713.16451.06733.23502z" fill="#40545d"/></g><g><path d="m34.68725 7.96606c-.2927.26692-.58829.45087-.86761.55344-.19204-.67067-.38412-1.34137-.57615-2.01206.27933-.10257.57492-.28652.86763-.55345.02017.0705.04709.16449.06728.23498.0214.07474.04993.17439.07133.24913.02221.07757.05182.18099.07404.25856.02261.07899.05278.1843.07539.26329s.05278.1843.07539.26329c.02221.07758.05183.18102.07405.25861.0214.07475.04993.17442.07133.24918.0202.07051.04712.16452.06732.23503z" fill="#40545d"/></g><g><path d="m33.81964 8.5195c-.29162.10431-.54306.08636-.77292-.04634-.19204-.67068-.38412-1.34137-.57615-2.01205.22987.1327.48131.15064.77293.04633.02017.0705.04709.16449.06728.23498.0214.07474.04993.17439.07133.24913.02221.07757.05182.18099.07404.25856.02261.07899.05278.1843.07539.26329.02262.07899.05277.18431.07539.26331.02221.07758.05182.18101.07404.25859.0214.07475.04994.17442.07135.24918.02019.0705.04712.16452.06732.23502z" fill="#40545d"/></g><g><path d="m32.21049 8.30846-.57615-2.01206c.05616.19607.20934.36643.45775.50984.37035.21382.77345.26456 1.20267.14891.43552-.12139.85472-.3611 1.26962-.73946.40889-.37288.643-.72894.70188-1.0584l.57614 2.01206c-.05888.32946-.29298.68552-.70188 1.0584-.41491.37836-.8341.61807-1.26962.73946-.42922.11565-.83233.06491-1.20267-.14891-.24841-.14341-.40159-.31376-.45774-.50984z" fill="#fff"/></g><g><path d="m36.86393 7.75913c-.42922.11565-.85479.36116-1.26368.73404-.19204-.67067-.38412-1.34137-.57615-2.01205.40891-.37289.83447-.61841 1.26369-.73405.02018.07051.04708.16449.06727.23498.0214.07473.04993.17438.07133.24911.02221.07757.05184.181.07405.25858.02261.07899.05276.1843.07538.26329.02261.07899.05278.1843.07539.26329.02221.07758.05183.18101.07405.25859.0214.07475.04994.17442.07135.24918.0202.07052.04712.16453.06732.23504z" fill="#40545d"/></g><g><path d="m38.07247 7.9027c-.37671-.21749-.77309-.26488-1.20854-.14356-.19204-.67068-.38411-1.34136-.57615-2.01205.43545-.12134.83184-.07394 1.20855.14355.02018.0705.0471.16448.06728.23498.0214.07474.04993.17439.07133.24913.02221.07757.05182.18099.07404.25856.02261.07899.05278.1843.07539.26329.02262.07899.05277.18431.07539.26331.02221.07758.05182.18101.07404.25859.0214.07475.04994.17442.07135.24918.0202.0705.04713.16451.06732.23502z" fill="#40545d"/></g><g><path d="m35.60025 8.49318c-.2673.24375-.45691.47584-.57542.69975-.19204-.67068-.38411-1.34137-.57614-2.01205.11851-.22393.30812-.45601.57542-.69976.02018.0705.0471.16449.06728.23498.0214.07474.04993.17439.07133.24913.02221.07757.05182.18099.07404.25856.02261.07899.05278.1843.07539.26329.02262.07899.05277.18431.07539.26331.02221.07758.05182.18101.07404.25859.0214.07475.04994.17442.07135.24918.02019.0705.04712.16452.06732.23502z" fill="#40545d"/></g><g><path d="m38.52692 8.40793c-.05583-.1951-.2086-.36329-.45444-.50523-.19204-.67067-.38411-1.34137-.57615-2.01206.24585.14193.39862.31013.45445.50522.17284.60363.40328 1.40846.57614 2.01207z" fill="#40545d"/></g><g><path d="m35.02483 9.19293c-.06544.12365-.10921.24481-.1324.36407-.19203-.67068-.38411-1.34138-.57614-2.01206.02319-.11926.06695-.24042.1324-.36407.02018.0705.04709.16449.06728.23498.0214.07474.04993.17439.07133.24913.02221.07757.05182.18099.07404.25856.02261.07899.05278.1843.07539.26329s.05278.1843.07539.26329c.02221.07758.05183.18101.07405.25859.01083.03782.02526.08825.03609.12607.02085.07281.04865.16988.0695.24269.00992.03463.03679.07962.03307.11546z" fill="#40545d"/></g><g><path d="m37.36376 6.51413.57614 2.01207c-.03102-.10834-.11217-.20124-.24584-.27841-.22986-.13271-.49367-.14884-.77935-.04995-.29126.10398-.57449.28613-.86755.55337-.2927.26692-.47969.51358-.54832.73779-.02803.09192-.03095.17698-.00875.25449l-.57615-2.01206c-.02219-.07753-.01926-.16258.00876-.2545.06862-.22421.25561-.47086.54832-.73779.29306-.26725.57628-.44939.86754-.55337.28568-.09889.5495-.08276.77935.04995.13367.07717.21483.17008.24585.27841z" fill="#fff"/></g><g><path d="m37.93989 8.52616c.02234.07797.0187.16393-.01002.25778l-.57615-2.01205c.02873-.09385.03237-.17982.01003-.25779.17283.60362.40326 1.40845.57614 2.01206z" fill="#40545d"/></g><g><path d="m37.95075 6.39577.57614 2.01208c.02828.09876.03172.20442.00981.31706l-.57614-2.01206c.02191-.11265.01847-.21831-.00981-.31708z" fill="#fff"/></g><g><path d="m34.89243 9.557c-.0196.10967-.01579.21275.0119.30949l-.57614-2.01206c-.02769-.09675-.0315-.19982-.0119-.3095.02018.0705.04708.16449.06727.23499.0214.07473.04993.17438.07133.24911.02221.07757.05182.181.07404.25858.02261.07898.05278.18429.07539.26328.01133.03958.02644.09236.03778.13194.01128.03941.02633.09195.03761.13136.02221.07758.05183.18101.07405.25859.0214.07475.04994.17442.07135.24918.01027.03588.02397.08371.03424.11958.00993.03464.03124.07948.03308.11546z" fill="#40545d"/></g><g><path d="m37.92987 8.78393c-.04297.12679-.12318.2623-.23944.40548-.19204-.67067-.38411-1.34137-.57615-2.01206.11626-.14318.19648-.27869.23945-.40548.17283.60363.59115 1.38438.57614 2.01206z" fill="#40545d"/></g><g><path d="m37.69042 9.18941c-.08567.1055-.19091.21515-.31524.32853-.19204-.67068-.38411-1.34137-.57614-2.01205.12433-.11339.22957-.22305.31524-.32854.02018.0705.04708.16448.06727.23498.0214.07474.04993.17439.07133.24913.02221.07757.05184.18099.07405.25856.02261.07899.05276.1843.07538.26329s.05277.18431.07539.26331c.02221.07758.05183.18101.07405.25859.0214.07475.04994.17442.07135.24918.0202.0705.04713.16452.06732.23502z" fill="#40545d"/></g><g><path d="m35.74109 10.02875c-.13547-.07821-.21911-.17395-.25099-.28523l-.57614-2.01205c.03188.11126.11552.207.25099.28521.02017.0705.04709.16448.06728.23498.0214.07474.04993.17439.07133.24913.02221.07757.05182.18099.07404.25856.02261.07899.05278.1843.07539.26329.02262.07899.05277.18431.07539.26331.02221.07758.05183.18101.07405.25859.0214.07475.04994.17442.07135.24918.02019.07051.04711.16453.06731.23503z" fill="#40545d"/></g><g><path d="m37.37518 9.51794c-.2927.26692-.58186.45459-.86118.55716-.19204-.67068-.38412-1.34138-.57615-2.01206.27933-.10257.56849-.29023.86119-.55716.02018.0705.04709.16449.06728.23498.0214.07474.04993.17439.07133.24913.02221.07757.05182.18099.07404.25856.02261.07899.05278.1843.07539.26329s.05278.1843.07539.26329c.02221.07758.05183.18102.07405.25861.0214.07475.04994.17442.07135.24918.0202.0705.04711.16451.06731.23502z" fill="#40545d"/></g><g><path d="m36.514 10.07509c-.29162.10431-.54306.08636-.77291-.04635-.19204-.67067-.38412-1.34137-.57615-2.01206.22987.1327.48131.15065.77293.04634.02017.0705.04709.16449.06728.23499.0214.07474.04993.17438.07133.24911.02221.07757.05182.181.07404.25858.02261.07898.05278.18429.07539.26328.02262.07899.05277.18431.07539.26331.02221.07758.05183.18101.07405.25859.0214.07475.04993.17443.07133.24918.0202.07051.04712.16453.06732.23503z" fill="#40545d"/></g><g><path d="m34.90434 9.86652-.57615-2.01205c.05553.19385.20697.36228.45827.50736.37027.21378.77345.26456 1.2026.14887.43552-.12139.85479-.36105 1.2697-.73942.4089-.37288.64293-.72898.7018-1.05845l.57614 2.01206c-.05888.32946-.29291.68556-.7018 1.05845-.41491.37836-.83418.61803-1.2697.73942-.42915.11569-.83233.06491-1.2026-.14887-.25129-.14507-.40275-.3135-.45826-.50737z" fill="#fff"/></g><g><path d="m39.55186 9.31101c-.42915.11569-.84843.36483-1.25732.73772-.19204-.67068-.38412-1.34138-.57615-2.01206.40891-.37288.82819-.62203 1.25733-.73772.02018.0705.0471.16449.06728.23499.0214.07473.04993.17438.07133.24911.02221.07757.05182.181.07404.25857.02261.07898.05278.18429.07539.26328.02262.07899.05277.18431.07539.26331.02221.07758.05182.18102.07404.25859.0214.07475.04994.17442.07135.24918.02019.07051.04712.16452.06732.23503z" fill="#40545d"/></g><g><path d="m40.76677 9.45825c-.37671-.21749-.77946-.26856-1.2149-.14724-.19204-.67068-.38412-1.34138-.57615-2.01206.43546-.12132.83821-.07026 1.21492.14723.02017.07051.04709.16449.06728.23498.0214.07474.04993.17439.07133.24913.02221.07757.05182.18099.07404.25856.02261.07899.05278.1843.07539.26329s.05278.1843.07539.26329c.02221.07758.05182.18103.07404.25861.0214.07475.04994.17442.07135.24918.02018.07051.04711.16452.06731.23503z" fill="#40545d"/></g><g><path d="m38.29454 10.04873c-.26857.24491-.46134.47652-.58162.70033-.19204-.67068-.38411-1.34138-.57614-2.01206.12027-.22381.31305-.45542.58162-.70033.02017.0705.04709.16449.06728.23499.0214.07474.04993.17438.07133.24911.02221.07757.05182.181.07404.25858.02261.07899.05278.1843.07539.26329s.05278.1843.07539.26329c.02221.07758.05183.18101.07405.25859.0214.07475.04993.17443.07133.24918.0202.0705.04713.16452.06733.23503z" fill="#40545d"/></g><g><path d="m41.22125 9.9635c-.05584-.1951-.20859-.36329-.45448-.50525-.19204-.67068-.38412-1.34137-.57615-2.01205.2459.14195.39865.31014.45449.50524.17283.60363.40329 1.40845.57614 2.01206z" fill="#40545d"/></g><g><path d="m37.71292 10.74906c-.06554.12196-.10955.2416-.13256.35981-.19204-.67068-.38411-1.34138-.57615-2.01206.02302-.11822.06703-.23786.13257-.35982.02018.0705.04709.16449.06728.23499.0214.07474.04993.17438.07133.24911.02221.07757.05182.181.07404.25858.02261.07899.05278.1843.07539.26329.01133.03958.02644.09236.03778.13194.02246.07846.05242.18307.07489.26154.02186.07634.051.17813.07286.25447.02085.07281.04865.16988.0695.24269.00993.03464.03691.07964.03307.11546z" fill="#40545d"/></g><g><path d="m40.05595 8.06593.57613 2.01207c-.03044-.10633-.11132-.19822-.24374-.27467-.22985-.13271-.49367-.14884-.77935-.04995-.29126.10398-.57448.28613-.86754.55337-.2927.26692-.47969.51358-.54832.73779-.02803.09192-.03095.17697-.00875.25449l-.57615-2.01205c-.02219-.07753-.01926-.16258.00877-.2545.06862-.22421.25561-.47086.54831-.73779.29306-.26725.57628-.44939.86755-.55337.28568-.09889.54949-.08276.77935.04995.13241.07645.21329.16833.24374.27466z" fill="#fff"/></g><g><path d="m40.63207 10.07794c.02242.07826.01752.16435-.01428.25787l-.57615-2.01205c.03181-.09353.03671-.17962.01429-.25788.17284.60363.40325 1.40847.57614 2.01206z" fill="#40545d"/></g><g><path d="m37.58036 11.10887c-.0193.108-.01522.21.01226.30599l-.57615-2.01205c-.02747-.096-.03155-.198-.01225-.306.02018.07049.04708.16448.06727.23497.0214.07474.04993.17439.07133.24913.02221.07757.05184.18099.07405.25856.02261.07899.05276.1843.07538.26329s.05277.18431.07539.26331c.01118.03905.02609.09112.03728.13017.02186.07635.05101.17814.07288.25449.02084.07281.04864.16988.06949.24269.00992.03464.03123.07948.03307.11545z" fill="#40545d"/></g><g><path d="m38.43538 11.5843c-.13547-.07821-.21911-.17395-.25098-.28523l-.57615-2.01206c.03188.11127.11552.20701.25099.28522.02018.0705.04709.16449.06728.23498.0214.07474.04993.17439.07133.24913.02221.07757.05182.18099.07404.25856.02261.07899.05278.1843.07539.26329s.05278.1843.07539.26329c.02221.07758.05183.18102.07405.25861.0214.07475.04994.17442.07135.24918.02019.07051.04711.16452.06731.23503z" fill="#40545d"/></g><g><path d="m40.04166 8.32375.57614 2.01206c-.06826.22388-.25526.47043-.54832.73768-.2927.26692-.58186.45459-.86754.55348l-.57614-2.01206c.28568-.09889.57484-.28656.86754-.55348.29306-.26725.48005-.5138.54832-.73768z" fill="#40545d"/></g><g><path d="m39.20193 11.62697c-.28526.10798-.5367.09004-.76656-.04267-.19204-.67068-.38411-1.34137-.57614-2.01205.22985.1327.4813.15064.76656.04266.17285.60362.40329 1.40845.57614 2.01206z" fill="#40545d"/></g><g><path d="m37.59263 11.41492-.57615-2.01206c.05637.19681.21107.36835.46427.51453.37035.21382.77346.26456 1.20268.14891.43552-.12139.84835-.36477 1.26326-.74313.4089-.37288.64936-.72527.70824-1.05473l.57614 2.01206c-.05888.32946-.29934.68185-.70824 1.05473-.41491.37836-.82774.62175-1.26326.74313-.42922.11565-.83233.06491-1.20267-.14891-.2532-.14618-.40791-.31772-.46427-.51453z" fill="#fff"/></g><g><path d="m42.08175 7.95613.57614 2.01206-5.74322 5.23739-.57614-2.01206z" fill="#40545d"/></g><g><path d="m36.33853 13.19352.57614 2.01206-11.08375-6.3992-.57613-2.01207z" fill="#40545d"/></g><g><path d="m43.11678 7.54474c.19154.11058.19857.34193.01541.50896l-6.43258 5.86604c-.18316.16703-.48948.20861-.68102.09803l-11.79884-6.81207c-.1979-.11426-.20451-.33651-.02135-.50354l6.43258-5.86604c.18316-.16703.48906-.2177.68696-.10344zm-6.77825 5.64878 5.74321-5.23739-11.08374-6.39921-5.74321 5.23739z" fill="#485f69"/></g><g><path d="m36.33854 6.18579c-.29131.10403-.57449.28614-.86759.55339-.29268.26693-.47964.51361-.54832.73781-.06826.22389.01245.40705.24224.53978.2299.13273.48133.15067.77295.04632.27928-.10255.56847-.29025.86115-.55719.2931-.26725.48006-.51382.55465-.73402.06869-.2242-.00591-.40336-.23581-.53608-.22979-.13272-.49366-.14887-.77927-.05001z" fill="#40545d"/></g><g><path d="m34.42355 4.68013c.22986.13271.30443.31194.23581.53615-.07463.22021-.25518.47047-.54824.73772-.2927.26692-.58829.45087-.86761.55344-.29162.10431-.54306.08636-.77292-.04635s-.31051-.31587-.23588-.53608c.06863-.22421.24933-.47449.54203-.74142.29306-.26725.58257-.44576.87383-.54974.27931-.10257.54312-.08643.77298.04628z" fill="#40545d"/></g><g><path d="m39.81221 7.79127c.22986.13271.30443.31194.22945.53248-.06827.22388-.25526.47043-.54832.73768-.2927.26692-.58186.45459-.86754.55348-.28526.10798-.5367.09004-.76656-.04267s-.31051-.31587-.24224-.53976c.06862-.22421.25561-.47086.54831-.73779.29306-.26725.57628-.44939.86755-.55337.28568-.09889.54949-.08276.77935.04995z" fill="#40545d"/></g><g><path d="m42.07896 7.96024-5.73999 5.22998-11.08001-6.3999 5.73999-5.22998z" fill="#40545d"/></g><g><path d="m31.96504 3.66079c.06858-.2242-.00601-.40346-.23581-.53619-.2299-.13273-.48734-.14518-.77305-.04621-.2912.10392-.58082.28244-.87392.54969-.29268.26693-.47331.5172-.54189.7414-.06826.22389.00601.40336.23581.53608.2299.13273.48133.15066.77295.04642.27938-.10266.57491-.28656.86759-.55349.29299-.26724.47362-.51751.54832-.7377z" fill="#40545d"/></g><g><path d="m24.65184 9.04552-.57615-2.01206c.01929.06731.06728.12791.14407.17224l.57614 2.01206c-.0768-.04433-.12479-.10492-.14406-.17224z" fill="#485f69"/></g><g><path d="m43.83544 9.72616c.02997.11035-.01001.24023-.13.34033l-6.43005 5.87012c-.17999.15967-.48999.19971-.67999.08984l-11.8-6.81005-.58002-2.00977 11.80005 6.80957c.19.11035.5.07031.67999-.09961l6.44-5.86035c.10999-.10986.14996-.22998.12-.33984z" fill="#40545d"/></g></g></g></g><g><path d="m35.28534 5.25099c-.04963.27772-.24696.57784-.59163.89216-.34974.31893-.70309.52099-1.0702.62331-.3618.09748-.7016.05471-1.01377-.12552-.31211-.1802-.44588-.41084-.39626-.68855.05494-.28256.2469-.57779.59663-.89672.34467-.31431.70339-.52127 1.06519-.61875.36705-.10227.70654-.05922 1.01865.12098.31219.18022.44627.41059.39139.69309zm-1.70505 1.13807c.23545-.08645.48461-.24151.73134-.46651.24703-.22527.39922-.43622.46213-.62185.05785-.18899-.00502-.34007-.19877-.45193s-.41613-.12546-.65157-.03901c-.24551.08765-.48955.23812-.73658.46339-.24672.225-.39904.43597-.45689.62496-.0629.18562.00508.34002.19883.45188.19375.11187.4057.12699.65151.03907" fill="#485f69"/></g><g><path d="m33.01425 3.93978c-.04969.27768-.24696.57784-.59163.89216-.34974.31893-.70315.52095-1.0702.62331-.3618.09748-.70166.05468-1.01377-.12552-.31217-.18023-.44595-.41088-.39632-.68859.05494-.28255.2469-.57779.59664-.89672.34467-.31431.70339-.52126 1.06519-.61875.36705-.10227.70654-.05922 1.01871.12101.31212.18019.44626.4106.39138.6931zm-1.70505 1.13807c.23545-.08645.48455-.24155.73128-.46655.24702-.22527.39928-.43619.46219-.62181.05784-.18899-.00502-.34007-.19877-.45193s-.41076-.12237-.65157-.03901c-.24551.08765-.48961.23809-.73664.46336-.24673.225-.39898.436-.45683.625-.05754.18872.00508.34002.19883.45188.19375.11185.4057.12698.65151.03906" fill="#485f69"/></g><g><path d="m37.55643 6.56221c-.04963.27772-.2469.57788-.59157.89219-.34974.31893-.70315.52095-1.07026.62327-.36174.09752-.70159.05471-1.0137-.12549-.31754-.18333-.44595-.41088-.39632-.68859.05494-.28255.2469-.57779.59664-.89672.34467-.31431.70339-.52127 1.06519-.61875.36705-.10227.70118-.06232 1.01871.12101.31211.18021.44625.41061.39131.69308zm-1.70498 1.1381c.23544-.08645.47918-.24464.72591-.46964.24703-.22527.40465-.43309.46756-.61871.05784-.18899-.00502-.34007-.19877-.45193-.19376-.11186-.41613-.12546-.65694-.04211-.24551.08765-.48425.24118-.73128.46645-.24673.225-.40435.43291-.46219.6219-.05754.18872.01044.34311.20419.45498.19376.11186.4057.12699.65152.03906" fill="#485f69"/></g><g><path d="m39.82758 7.87346c-.04963.27772-.25232.57475-.59699.88906-.34974.31893-.69772.52409-1.06483.62641-.3618.09748-.7016.05471-1.01377-.12552-.31754-.18333-.45131-.41397-.40168-.69169.055-.28252.25227-.57469.602-.89363.34467-.31431.69809-.52432 1.05983-.62184.36705-.10227.70654-.05922 1.02407.12411.31218.18023.44625.4106.39137.6931zm-1.7104 1.13497c.24081-.08336.48455-.24155.73127-.46654.24703-.22527.40465-.43309.46219-.62181.06321-.1859.00035-.33698-.19341-.44884-.19375-.11186-.41613-.12546-.65693-.04211-.24551.08765-.48425.24118-.73128.46645-.24673.225-.40435.43291-.46219.6219-.05754.18872.01044.34311.20419.45498.19376.11187.4057.12699.64616.03597" fill="#485f69"/></g><g><g enable-background="new"><g><path d="m29.74669 6.24531.08584.29977c.0702.24516-.02299.53279-.28241.76936-.42016.38316-1.11786.48816-1.55733.23443-.16802-.09701-.27411-.23249-.31756-.38426l-.08584-.29977c.04346.15177.14954.28725.31757.38426.43947.25373 1.13717.14872 1.55733-.23443.25941-.23657.3526-.5242.2824-.76936z" fill="#cb4844"/></g><g><path d="m29.4291 5.86102c.43947.25373.4552.77063.03518 1.15365-.42016.38316-1.11786.48816-1.55733.23443-.43946-.25372-.45519-.77062-.03503-1.15378.42002-.38302 1.11772-.48803 1.55718-.2343z" fill="#ee5550"/></g></g><g enable-background="new"><g><path d="m32.02964 7.56337.08583.29978c.0702.24515-.02299.53279-.2824.76935-.42016.38316-1.11786.48816-1.55732.23444-.16956-.09789-.27643-.23422-.32009-.3867l-.08584-.29976c.04367.15248.15054.2888.3201.3867.43946.25372 1.13716.14872 1.55732-.23444.25941-.23658.3526-.52421.2824-.76937z" fill="#4bb5e7"/></g><g><path d="m31.71206 7.17908c.43946.25372.45519.77062.03518 1.15365-.42016.38316-1.11786.48816-1.55732.23444-.44233-.25538-.45806-.77228-.03789-1.15544.42-.38302 1.1177-.48803 1.56003-.23265z" fill="#61c4f0"/></g></g><g enable-background="new"><g><path d="m34.31226 8.88222.08583.29978c.07024.24528-.02307.53238-.28207.76857-.42016.38316-1.11786.48816-1.56019.23279-.16803-.09701-.27411-.23249-.31756-.38426l-.08584-.29977c.04347.15176.14955.28724.31757.38425.44233.25538 1.14003.15037 1.56019-.23279.259-.23619.35231-.52328.28207-.76857z" fill="#6b993f"/></g><g><path d="m33.99215 8.49549c.44233.25538.45805.77228.03804 1.1553-.42016.38316-1.11786.48816-1.56019.23279-.43946-.25372-.45519-.77063-.03503-1.15378.42002-.38303 1.11771-.48803 1.55718-.23431z" fill="#7eb442"/></g></g><g enable-background="new"><g><path d="m36.59404 10.19985.08583.29978c.07025.24531-.02201.5329-.28091.769-.42016.38316-1.1207.48652-1.56018.23279-.16803-.09701-.27411-.23249-.31756-.38426l-.08584-.29977c.04346.15177.14954.28725.31757.38426.43948.25373 1.14001.15037 1.56018-.23279.2589-.23611.35116-.52369.28091-.76901z" fill="#b0b8bc"/></g><g><path d="m36.2751 9.81356c.43947.25373.45805.77227.03803 1.1553-.42016.38316-1.1207.48652-1.56018.23279-.43946-.25372-.45519-.77063-.03503-1.15378.42002-.38303 1.11772-.48804 1.55718-.23431z" fill="#dde4e7"/></g></g></g></g></svg>