<svg id="Layer_1" enable-background="new 0 0 52 52" height="512" viewBox="0 0 52 52" width="512" xmlns="http://www.w3.org/2000/svg"><g><g><g><path d="m2.00112 21.06865.00255 2.72153c.00255.33616.22156.67231.65957.92698l28.46369 16.54037c.89895.5246 2.33525.51441 3.22658 0l14.9691-8.64326c.45074-.25977.67739-.60103.67739-.94227l-.00508-2.71643c0 .33869-.22921.67994-.67487.93716l-14.97163 8.64326c-.89132.51443-2.32507.52206-3.22659 0l-28.46114-16.54037c-.44057-.25466-.65957-.59082-.65957-.92697z" fill="#e0e2e2"/></g><g><path d="m2.0062 23.53083-.00253.25935c.00255.33616.22156.67231.65957.92698l28.46369 16.54037c.89895.5246 2.33525.51441 3.22658 0l14.9691-8.64326c.45074-.25977.67739-.60103.67739-.94227v-.25425c0 .33869-.2292.67994-.67486.93716l-14.97164 8.64326c-.89132.51442-2.32508.52205-3.22659 0l-28.46114-16.54037c-.44056-.25466-.65957-.59082-.65957-.92697z" fill="#5b5e71"/></g><g><path d="m2.67015 20.1274c-.88939.51349-.89412 1.3546-.01052 1.8681l28.4628 16.54077c.89976.52288 2.33571.5135 3.22511.00002l14.97161-8.64387c.88939-.51349.91027-1.34522.01051-1.8681l-28.4628-16.54077c-.8836-.51349-2.33571-.5135-3.2251-.00001z" fill="#5b5e71"/><path d="m32.7311 38.66201c-.56028 0-1.08462-.1254-1.47659-.35311l-28.463-16.54062c-.34137-.19855-.52911-.44825-.52874-.70328.00037-.25759.19177-.50968.53864-.70988l14.97163-8.64395c.38537-.22239.92622-.34981 1.48356-.34981s1.09599.12724 1.47842.34944l28.46263 16.54081c.34541.20057.53534.44991.53498.70199-.00037.25227-.1991.51151-.54488.71116l-14.97163 8.64377c-.3949.22808-.92218.35348-1.48502.35348z" fill="#ecf0f1"/></g><g><path d="m9.36447 18.20043c-.11218.06477-.11115.16897-.00131.2328.11146.06477.28973.06478.40192.00001l3.55535-2.05268c.11218-.06477.1144-.16897.00293-.23375-.10985-.06384-.29136-.06383-.40355.00094z" fill="#5b5e71"/></g><g><path d="m8.49597 18.7449c-.09105.05257-.09153.13706-.00107.18962.09046.05257.23633.05257.32737 0 .09106-.05257.09153-.13706.00107-.18963-.09046-.05256-.23631-.05257-.32737.00001z" fill="#5b5e71"/></g><g><path d="m13.70343 15.45579c-.22763.13142-.22882.34358-.00429.47406.22454.13049.59241.13143.82005.00001.22601-.13049.22558-.34358.00105-.47407-.22454-.13048-.5908-.13048-.81681 0z" fill="#5b5e71"/></g><g><path d="m46.66536 27.41412-16.59008 9.58002-24.75-14.39001 16.59008-9.57996z" fill="#3498db"/></g><g><path d="m37.61636 33.61154c-.22601.13049-.22715.33513-.00262.46562l.82061.47688c.22615.13142.57944.13143.80546.00094l3.18846-1.84085c.22763-.13142.22879-.33607.00264-.4675l-.82061-.47688c-.22454-.13049-.57785-.13049-.80548.00093z" fill="#5b5e71"/></g><g><g enable-background="new"><path d="m12.47735 28.57498c-.07666-.13286-.18534-.25057-.30214-.31797l-2.17339-1.25481c-.11883-.06862-.22639-.07504-.30407-.02991l-.18274.1062c.07763-.04513.18519-.03869.30407.02994l2.17339 1.25479c.11675.06743.22543.18514.30214.31797.07666.13286.1241.28547.1237.41965-.00041.13484-.0479.22964-.12456.27419l.18279-.1062c.07666-.04457.12415-.13938.12456-.27421.00041-.13419-.04703-.28678-.12375-.41964z" fill="#5b5e71"/><g><path d="m9.81907 27.10842c-.23619-.13636-.42787-.02711-.42863.24426-.00077.2714.18966.60126.42585.73762l2.17339 1.25481c.23619.13636.42787.02711.42863-.24429.00038-.13417-.04703-.28677-.12373-.41963-.0767-.13285-.18536-.25056-.30212-.31797z" fill="#525566"/></g></g><g enable-background="new"><path d="m8.93995 26.53266c-.07935-.1344-.18534-.25057-.30209-.31797l-2.17608-1.25633c-.11786-.06806-.22573-.07433-.30377-.02897l-.18279.10623c.07803-.04536.1859-.03909.30382.02894l2.17603 1.25636c.11675.0674.22274.18357.30209.31797.07672.13285.1241.28545.12375.41962-.00035.13484-.0479.22964-.12456.27419l.18279-.10622c.07666-.04455.12416-.13935.12456-.27419.00035-.13416-.04703-.28677-.12375-.41963z" fill="#5b5e71"/><g><path d="m6.27901 25.06456c-.23353-.13483-.4279-.02713-.42867.24424-.00077.2714.19236.60282.42589.73764l2.17606 1.25635c.23615.13634.42787.02711.42863-.24429.00038-.13417-.04703-.28677-.12373-.41963-.07937-.13439-.18536-.25056-.30212-.31797z" fill="#525566"/></g></g></g></g><g><g><g><g enable-background="new"><g><path d="m37.14133 18.86904-.02636 10.0973-8.32938 4.84051.02636-10.0973z" fill="#e5bd13"/></g><g><path d="m28.81195 23.70955-.02636 10.0973-14.75016-8.51601.02636-10.0973z" fill="#d6b218"/></g><g><path d="m37.14133 18.86904-8.32938 4.84051-14.75016-8.51601 8.32938-4.84051z" fill="#f1c40f"/></g></g></g><g><g><path d="m22.39151 10.35284 3.21005 6.67845-11.5401-1.83756z" fill="#d6b218"/></g><g><path d="m37.14166 18.86884-8.33004 4.8409-3.21006-6.67845z" fill="#d6b218"/></g></g><g><path d="m19.80526 18.51411-.0055 1.93849 3.24237 1.87198.00549-1.93849z" fill="#c6a51a"/></g><g><path d="m19.80526 26.68075-.0055 1.93849 3.24237 1.87198.00549-1.93849z" fill="#c6a51a"/></g></g><g><g><path d="m31.68819 25.37699.00098.3447-1.7937 1.03559-.00097-.3447z" fill="#3293c9"/></g><g><path d="m31.69018 26.08056.00098.34469-1.79369 1.03559-.00098-.34469z" fill="#3293c9"/></g><g><path d="m29.53345 24.26228 2.50243-1.44478.01074 3.78909-2.50243 1.44478zm2.15572 1.45941-.00098-.3447-1.7937 1.03559.00098.3447zm.00199.70356-.00098-.34469-1.7937 1.03559.00098.34469z" fill="#fff"/></g></g></g></g></svg>