<svg id="Layer_1" enable-background="new 0 0 52 52" height="512" viewBox="0 0 52 52" width="512" xmlns="http://www.w3.org/2000/svg"><g><g><g enable-background="new"><g><path d="m5.84154 29.28723-.00694 1.41992c-.00062.21946-.14418.43831-.43251.60587-.58357.33914-1.53183.33546-2.11922-.00367-.29316-.16926-.44081-.39295-.44017-.61662l.00692-1.41992c-.00062.22367.14702.44736.44018.61662.58739.33913 1.53565.34281 2.11922.00367.28833-.16756.4319-.38641.43252-.60587z" fill="#474b59"/></g><g><path d="m5.39576 28.66558c.58739.33913.59684.88838.01326 1.22752s-1.53183.33546-2.11922-.00367c-.581-.33544-.59045-.8847-.00688-1.22383.58358-.33914 1.53183-.33547 2.11284-.00002z" fill="#5b5e71"/></g></g></g><g><g enable-background="new"><g><path d="m45.38187 29.93176.00694 1.41992c.00062.21946.14418.43831.43251.60587.58357.33913 1.53183.33546 2.11922-.00367.29317-.16926.44081-.39295.44018-.61663l-.00692-1.41992c.00062.22367-.14702.44736-.44019.61662-.58739.33913-1.53565.34281-2.11922.00367-.28833-.16755-.43189-.3864-.43252-.60586z" fill="#474b59"/></g><g><path d="m45.82766 29.31011c-.58739.33913-.59684.88838-.01326 1.22752s1.53183.33546 2.11922-.00367c.58101-.33544.59045-.8847.00688-1.22383-.58358-.33914-1.53184-.33547-2.11284-.00002z" fill="#5b5e71"/></g></g><g enable-background="new"><g><path d="m25.19158 41.64587.00694 1.41993c.00062.21946.14418.43831.43251.60587.58357.33914 1.53183.33546 2.11922-.00367.29316-.16926.4408-.39295.44017-.61662l-.00693-1.41991c.00063.22366-.14701.44735-.44017.61661-.58739.33913-1.53565.34281-2.11922.00367-.28833-.16757-.43189-.38642-.43252-.60588z" fill="#474b59"/></g><g><path d="m25.63737 41.02422c-.58739.33913-.59684.88838-.01326 1.22752.58357.33913 1.53183.33546 2.11922-.00367.581-.33544.59044-.88469.00687-1.22382-.58358-.33915-1.53183-.33548-2.11283-.00003z" fill="#5b5e71"/></g></g></g><g><g><g><g enable-background="new"><path d="m49.01083 23.3666-20.51925 11.92448c-1.32583.7705-3.48097.77003-4.81466.00003l-20.65347-11.92428c-.67154-.38772-1.00693-.89631-1.0055-1.40413l-.01795 6.33395c-.00144.50783.33395 1.01642 1.00549 1.40413l20.65347 11.92428c1.33368.77001 3.48883.77047 4.81467-.00002l20.51924-11.92448c.65824-.38253.98774-.88324.98917-1.38469l.01796-6.33395c-.00143.50146-.33093 1.00216-.98917 1.38468z" fill="#1faa8f"/><path d="m49.01083 23.3666-20.51925 11.92448c-.65451.38037-1.51117.57202-2.3713.57678v6.33348c.85408-.00733 1.7034-.19858 2.35335-.57629l20.51924-11.92448c.65824-.38253.98774-.88324.98917-1.38469l.01796-6.33396c-.00143.50146-.33093 1.00216-.98917 1.38468z" fill="#1faa8f"/><g><path d="m48.99512 20.57778c1.33368.77 1.34071 2.01882.0157 2.78883l-20.51924 11.92448c-1.32584.77049-3.48098.77002-4.81466.00002l-20.65347-11.92429c-1.33451-.77048-1.34153-2.01834-.0157-2.78883l20.51924-11.92448c1.32501-.77001 3.48015-.7705 4.81466-.00002z" fill="#1abc9c"/></g></g></g><g><g><g><path d="m39.93874 21.35698-.00399.84897c-.00581 2.05147-1.35389 4.09983-4.04694 5.66486-5.42091 3.15029-14.24071 3.15033-19.69708.00009-2.7461-1.58546-4.11742-3.66652-4.11153-5.74436l.00399-.84897c-.00589 2.07783 1.36543 4.1589 4.11152 5.74436 5.45638 3.15024 14.27617 3.1502 19.69708-.00009 2.69306-1.56503 4.04114-3.6134 4.04695-5.66486z" fill="#474b59"/></g></g><g><g><path d="m35.8276 15.61255c5.45638 3.15024 5.48513 8.25899.06421 11.40929-5.42091 3.15029-14.24071 3.15033-19.69708.00009-5.45738-3.15082-5.48513-8.259-.06423-11.40928 5.42092-3.1503 14.23972-3.15092 19.6971-.0001z" fill="#5b5e71"/></g></g><g><g><path d="m26.04319 27.10379c-2.5394 0-5.08187-.55997-7.02134-1.67974-1.90027-1.09707-2.94802-2.5605-2.95024-4.12073-.00223-1.54949 1.02934-3.0031 2.90453-4.0928 3.85401-2.23963 10.1451-2.23986 14.02428-.00023 1.90012 1.09699 2.94772 2.56042 2.94994 4.1208.00222 1.54965-1.02926 3.00325-2.9043 4.09296-1.92698 1.11977-4.46347 1.67974-7.00287 1.67974zm-.06413-11.41829c-2.51094 0-5.01866.5536-6.92392 1.66079-1.82479 1.0604-2.82859 2.46568-2.82644 3.95688.00215 1.50178 1.02197 2.91688 2.8717 3.98495 3.83545 2.21439 10.05605 2.21439 13.86664 0 1.82464-1.0604 2.82836-2.46553 2.82621-3.95688-.00215-1.50193-1.0219-2.91703-2.87139-3.98488-1.91777-1.10727-4.43193-1.66086-6.9428-1.66086z" fill="#ecf0f1"/></g></g><g><g><path d="m28.86409 19.65883c-1.58667-.91588-4.1505-.91588-5.72461 0-1.51912.88288-1.56625 2.29361-.14767 3.21262.04714-.02984.0974-.05968.14767-.08954 1.57411-.9143 4.13794-.9143 5.72461 0 .05813.03298.11312.06756.16652.10369 1.42644-.92217 1.36832-2.34074-.16652-3.22677z" fill="#4e5161"/></g><g><path d="m23.13947 22.78192c-.05027.02986-.10053.0597-.14767.08954.05342.03613.1084.07071.16652.10369 1.58669.91587 4.14894.91587 5.72461 0 .05027-.02986.10054-.0597.14767-.08954-.05341-.03613-.1084-.07071-.16652-.10369-1.58667-.9143-4.15049-.9143-5.72461 0z" fill="#3f434f"/></g></g></g><g><g fill="#1abc9c"><path d="m32.99289 34.05485c-.04837-.0282-.10567-.04053-.16873-.03758.02914.06287.04569.14057.04595.23219l.00752 2.65009c.00105.37219-.26082.82508-.58472 1.01208-.08786.05072-.17088.07583-.24569.07924.08859.19312.29771.24405.54197.10302.3239-.187.58577-.63988.58471-1.01207l-.00751-2.6501c-.00053-.18608-.06699-.31617-.1735-.37687z"/><path d="m35.18341 32.79015c-.04837-.0282-.10566-.04053-.16872-.03758.02913.06287.04568.14057.04595.23219l.00751 2.6501c.00106.37219-.26081.82507-.58471 1.01208-.08804.05083-.17128.07596-.24629.07931.08871.19319.29822.24403.54257.10294.3239-.18701.58576-.63989.58471-1.01207l-.00752-2.6501c-.00052-.18609-.06698-.31617-.1735-.37687z"/><path d="m37.37394 31.52545c-.04857-.028-.10578-.04031-.16867-.03745.0291.06285.04564.1405.04589.23206l.00752 2.6501c.00105.37219-.26081.82507-.58471 1.01207-.08805.05083-.17129.07596-.24629.07931.08871.19319.29821.24403.54256.10295.3239-.187.58577-.63989.58472-1.01207l-.00751-2.6501c-.00054-.18609-.06699-.31617-.17351-.37687z"/><path d="m39.56447 30.26075c-.04864-.02804-.10595-.04036-.16895-.03745.02921.06282.0459.14044.04616.23206l.00751 2.6501c.00105.37218-.26081.82507-.58472 1.01207-.08804.05083-.17128.07596-.24628.07931.08871.19319.29821.24404.54256.10295.3239-.18701.58577-.63989.58471-1.01208l-.00751-2.65009c-.00051-.18609-.06757-.31583-.17348-.37687z"/><path d="m41.75499 28.99605c-.04873-.02809-.10615-.04041-.1693-.03743.0291.06293.04566.1407.04593.23239l.00751 2.6501c.00106.37219-.26021.82472-.58411 1.01173-.08805.05083-.17128.07596-.24629.07931.08871.19319.29822.24403.54257.10294.3239-.187.58517-.63954.58411-1.01173l-.00751-2.6501c-.00054-.18608-.067-.31616-.17291-.37721z"/><path d="m44.11841 28.10857c-.00053-.18609-.06698-.31617-.1735-.37687-.04837-.02819-.10567-.04053-.16872-.03758.02913.06287.04568.14057.04594.23219l.00752 2.6501c.00105.37219-.26081.82507-.58471 1.01208-.08786.05072-.17088.07583-.2457.07923.0886.19311.29771.24405.54197.10302.3239-.187.58577-.63989.58472-1.01207z"/></g><path d="m32.87763 36.89956-.00752-2.65009c-.00026-.09162-.01681-.16932-.04595-.23219-.07501.00351-.15831.02896-.2463.07975-.32391.18701-.58457.63919-.58352 1.01137l.00752 2.6501c.00026.09151.01647.16942.04535.23238.07481-.00341.15783-.02852.24569-.07924.32391-.18701.58578-.6399.58473-1.01208z" fill="#1c8e78"/><path d="m35.06815 35.63486-.00751-2.6501c-.00026-.09162-.01682-.16932-.04595-.23219-.07502.0035-.15832.02896-.2463.07975-.3239.18701-.58517.63953-.58411 1.01172l.00751 2.6501c.00026.0914.01649.1692.04536.2321.075-.00335.15825-.02848.24629-.07931.3239-.187.58577-.63988.58471-1.01207z" fill="#1c8e78"/><path d="m37.25867 34.37016-.00752-2.6501c-.00025-.09156-.01679-.1692-.04589-.23206-.07502.00341-.15826.02876-.24635.07963-.3239.187-.58517.63953-.58411 1.01171l.00751 2.6501c.00026.0914.01649.1692.04536.2321.075-.00335.15824-.02848.24629-.07931.3239-.187.58576-.63988.58471-1.01207z" fill="#1c8e78"/><path d="m39.4492 33.10546-.00751-2.6501c-.00026-.09162-.01696-.16924-.04616-.23206-.07495.00346-.15809.02883-.24608.07963-.3239.18701-.58517.63953-.58412 1.01172l.00752 2.65009c.00026.09141.01649.16921.04536.2321.075-.00335.15824-.02848.24628-.07931.3239-.187.58576-.63989.58471-1.01207z" fill="#1c8e78"/><path d="m41.63912 31.84111-.00751-2.6501c-.00026-.09169-.01682-.16946-.04593-.23239-.07486.00352-.15788.02889-.24573.07961-.3239.18701-.58517.63953-.58411 1.01172l.00751 2.6501c.00026.0914.01649.16921.04536.2321.075-.00335.15824-.02848.24629-.07931.32391-.18701.58518-.63955.58412-1.01173z" fill="#1c8e78"/><path d="m43.82965 30.57641-.00752-2.6501c-.00025-.09162-.0168-.16932-.04594-.23219-.07502.0035-.15833.02895-.24631.07975-.3239.187-.58456.63918-.58351 1.01136l.00751 2.6501c.00026.09151.01647.16941.04535.23237.07481-.0034.15784-.02851.2457-.07923.32391-.187.58577-.63988.58472-1.01206z" fill="#1c8e78"/></g><g><g fill="#1abc9c"><path d="m16.88811 32.6241c.02884-.01681.063-.02416.10059-.0224-.01737.03748-.02724.0838-.02739.13842l-.00448 3.34179c-.00063.22189.15549.49188.34859.60337.05238.03024.10187.04521.14647.04724-.05281.11513-.17748.14549-.3231.06142-.1931-.11148-.34921-.38148-.34858-.60336l.00448-3.34179c.0003-.11095.03992-.1885.10342-.22469z"/><path d="m15.58219 31.87013c.02884-.01681.06299-.02416.10059-.0224-.01737.03748-.02724.0838-.02739.13842l-.00448 3.34179c-.00063.22189.15549.49188.34858.60336.05249.0303.10211.04528.14683.04728-.05289.11517-.17779.14548-.32346.06137-.1931-.11149-.34921-.38148-.34858-.60337l.00448-3.34179c.00031-.11092.03993-.18847.10343-.22466z"/><path d="m14.27627 31.11616c.02896-.01669.06306-.02403.10056-.02233-.01735.03747-.02721.08376-.02736.13835l-.00448 3.34179c-.00063.22189.15549.49188.34858.60337.05249.0303.10211.04528.14683.04728-.05289.11517-.17778.14548-.32346.06137-.1931-.11148-.34922-.38148-.34859-.60336l.00448-3.34179c.00033-.11094.03994-.18849.10344-.22468z"/><path d="m12.97036 30.36219c.029-.01671.06316-.02406.10072-.02233-.01741.03745-.02736.08373-.02752.13835l-.00449 3.34179c-.00063.22188.15549.49188.34859.60336.05249.0303.10211.04528.14682.04728-.05289.11517-.17778.14548-.32346.06137-.1931-.11148-.34922-.38148-.34858-.60336l.00448-3.34179c.00032-.11093.0403-.18828.10344-.22467z"/><path d="m11.66444 29.60821c.02905-.01675.06329-.02409.10093-.02232-.01735.03752-.02722.08388-.02738.13854l-.00448 3.34179c-.00063.22189.15513.49167.34823.60316.05249.0303.10211.04528.14683.04728-.05289.11517-.17779.14548-.32346.06137-.1931-.11148-.34886-.38128-.34823-.60316l.00448-3.34179c.00032-.11092.03994-.18847.10308-.22487z"/><path d="m10.25544 29.07913c.00032-.11094.03993-.18849.10343-.22468.02884-.01681.06299-.02416.10059-.0224-.01737.03748-.02724.0838-.02739.13842l-.00448 3.34179c-.00063.22189.15549.49188.34858.60337.05238.03024.10187.04521.14648.04723-.05282.11513-.17749.1455-.3231.06142-.1931-.11148-.34921-.38148-.34859-.60336z"/></g><path d="m16.95683 36.08191.00448-3.34179c.00015-.05462.01002-.10094.02739-.13842.04472.00209.09438.01727.14683.04755.1931.11148.3485.38106.34787.60294l-.00448 3.34179c-.00015.05455-.00982.101-.02704.13854-.0446-.00203-.0941-.017-.14647-.04724-.19309-.11149-.34921-.38149-.34858-.60337z" fill="#1c8e78"/><path d="m15.65091 35.32794.00448-3.34179c.00016-.05462.01002-.10094.02739-.13842.04472.00209.09439.01727.14684.04755.1931.11149.34886.38127.34822.60315l-.00448 3.34179c-.00015.05449-.00983.10088-.02704.13837-.04472-.002-.09434-.01698-.14683-.04728-.19309-.11149-.34921-.38148-.34858-.60337z" fill="#1c8e78"/><path d="m14.34499 34.57397.00448-3.34179c.00015-.05459.01001-.10088.02736-.13835.04472.00204.09435.01715.14687.04747.1931.11148.34886.38127.34823.60315l-.00448 3.34179c-.00016.05449-.00983.10088-.02704.13837-.04471-.002-.09434-.01698-.14683-.04728-.1931-.11148-.34921-.38148-.34859-.60336z" fill="#1c8e78"/><path d="m13.03907 33.82.00448-3.34179c.00016-.05462.01011-.10089.02752-.13835.04468.00206.09425.01719.14671.04747.1931.11149.34886.38127.34823.60315l-.00448 3.34179c-.00016.05449-.00983.10087-.02704.13837-.04471-.002-.09433-.01698-.14682-.04728-.19311-.11149-.34922-.38148-.3486-.60336z" fill="#1c8e78"/><path d="m11.73352 33.06623.00448-3.34179c.00016-.05466.01003-.10102.02738-.13854.04463.0021.09412.01722.14649.04746.1931.11149.34886.38127.34823.60315l-.00448 3.34179c-.00016.05449-.00983.10088-.02704.13837-.04471-.002-.09434-.01698-.14683-.04728-.19311-.11149-.34886-.38127-.34823-.60316z" fill="#1c8e78"/><path d="m10.4276 32.31226.00448-3.34179c.00015-.05462.01002-.10094.02739-.13842.04472.00209.09439.01726.14684.04755.1931.11148.3485.38106.34787.60294l-.00448 3.34179c-.00016.05455-.00982.101-.02704.13853-.0446-.00203-.0941-.01699-.14648-.04723-.1931-.1115-.34921-.38149-.34858-.60337z" fill="#1c8e78"/></g><g><path d="m23.52861 39.1432-3.89243-2.24778c-.49174-.28319-.88869-.97162-.8875-1.53683.00079-.18806.04647-.33767.12423-.44445-.24901.03793-.41531.2604-.41683.62325-.00118.5652.39576 1.25364.88751 1.53683l3.89243 2.24778c.32746.18858.61314.14912.76836-.06413-.13784.02098-.3007-.01385-.47577-.11467z" fill="#1abc9c"/><path d="m23.24194 37.27685-3.89243-2.24778c-.17539-.10101-.33854-.13594-.4766-.11492-.07776.10678-.12345.25639-.12423.44445-.00118.5652.39576 1.25364.8875 1.53683l3.89243 2.24778c.17506.10082.33792.13565.47576.11468.07787-.10699.12349-.25695.12388-.44538.00119-.56522-.39457-1.25247-.88631-1.53566z" fill="#fff"/></g><g><path d="m8.55944 30.39684-3.89243-2.24778c-.49174-.28319-.88868-.97162-.88751-1.53683.00079-.18806.04647-.33767.12423-.44444-.24901.03792-.41531.2604-.41683.62325-.00118.56521.39576 1.25364.88751 1.53683l3.89243 2.24778c.32746.18859.61314.14913.76836-.06413-.13784.02097-.3007-.01386-.47576-.11468z" fill="#1abc9c"/><path d="m8.27277 28.53049-3.89243-2.24778c-.17539-.101-.33854-.13594-.4766-.11492-.07776.10678-.12345.25639-.12423.44444-.00118.5652.39576 1.25364.88751 1.53683l3.89243 2.24778c.17506.10081.33792.13564.47576.11468.07787-.10699.12349-.25695.12388-.44538.00117-.56521-.39458-1.25245-.88632-1.53565z" fill="#fff"/></g></g><g><path d="m34.62859 13.41477-.0296 9.35282-8.46811 4.92113.0296-9.35282z" fill="#d6b218"/><path d="m26.16538 18.33842-.02795 9.3557-3.71151-2.1428-1.09248-.63027-3.72544-2.15683.02804-9.34177v-.01393h.01402l3.6974 2.1428.84039.49025.25209.14002z" fill="#e5bd13"/><path d="m34.6306 13.42063-8.47014 4.921-3.72338-2.1557-1.07788-.60967-.02173-.01084-3.70164-2.14479 8.47021-4.921 3.72337 2.1448.0109.01089 1.06692.60968z" fill="#f1c40f"/><g fill="#d6b218"><path d="m30.90723 11.265-8.47015 4.92093-1.07788-.60967-.02173-.01084 8.49194-4.92099.0109.01089z"/><path d="m22.43994 16.18159-.01402 9.36973-1.09248-.63027.01402-9.35571.84039.47623z"/></g><g><path d="m21.33344 11.265 8.47015 4.92093 1.07788-.60967.02173-.01084-8.49194-4.92099-.0109.01089z" fill="#e5bd13"/><path d="m29.80073 16.18159.01402 9.36973 1.09248-.63027-.01402-9.35571-.84039.47623z" fill="#c6a51a"/></g><g><g><path d="m25.07244 22.73352-.36254.68984.22453.12963.49546.28392z" fill="#3f434f"/></g><g><path d="m24.93443 23.55299-.00387 1.36464.27092.15642.00387-1.36465z" fill="#3f434f"/></g><g><path d="m23.5886 24.26459-.00083.29212 1.87047 1.07992.00083-.29212z" fill="#3f434f"/></g><g><path d="m18.70297 19.5967-.00276.97231c-.00087.30705.17655.66364.41209.84447l-.00248.87636c-.16521-.07616-.28976-.06905-.29002.02264l.72927.42104c.00026-.09169-.12384-.24236-.28894-.3569l.00248-.87636c.10768.04295.20064.03255.27326-.01309.08568-.06373.14178-.18298.14226-.35356l.00276-.97231z" fill="#3f434f"/></g><g><path d="m23.85074 22.92732-.00387 1.36465.27093.15642.00387-1.36465z" fill="#3f434f"/></g><g><path d="m23.98689 22.10678-.36068.69091.22453.12963.49361.28285z" fill="#3f434f"/></g></g><g><path d="m33.84319 20.18806v1.83424l-2.19014 1.25928-.01362-1.82054z" fill="#fff"/></g></g></g></g></svg>