<svg id="Layer_1" enable-background="new 0 0 52 52" height="512" viewBox="0 0 52 52" width="512" xmlns="http://www.w3.org/2000/svg"><g><g><g><g enable-background="new"><g><path d="m46.17175 26.94987-.28307-.16451-.00093-.32781.28307.1645z" fill="#5b5e71"/></g><g><path d="m46.17082 26.62205-.28307-.1645 2.03479-1.17479.28307.16451z" fill="#525566"/></g><g><path d="m48.20561 25.44727-.28307-.16451-.00725-2.55397.28308.1645z" fill="#5b5e71"/></g><g><path d="m48.19837 22.89329-.28308-.1645.28529-.16471.28307.1645z" fill="#525566"/></g><g><path d="m48.48365 22.72858.00817 2.88179-2.32007 1.3395-.00093-.32782 2.03479-1.17478-.00724-2.55398z" fill="#474b59"/></g></g></g><g><g><g enable-background="new"><g><path d="m48.5042 39.87678-.61867-.35953-.02833-6.86183.61866.35953z" fill="#474b59"/></g><g><path d="m48.47383 32.30011-.61866-.35953-.01326-4.67752.61867.35953z" fill="#474b59"/></g><g><path d="m48.46058 27.62259-.61867-.35953.62208-.35916.61866.35953z" fill="#3f434f"/></g><g><path d="m38.73846 37.89351-.61867-.35953 9.73538-5.5934.61866.35953z" fill="#3f434f"/></g><g><path d="m38.10309 33.57516-.61867-.35953.62211-.35918.61867.35953z" fill="#3f434f"/></g><g><path d="m38.14671 45.82935-.61866-.35953-.04363-12.25419.61867.35953z" fill="#474b59"/></g><g><path d="m49.08265 27.26343.04363 12.25419-.62208.35916-.02834-6.86183-9.73538 5.59339.02834 6.86184-.62211.35917-.04362-12.25419.62211-.35918.01326 4.67753 9.73537-5.5934-.01325-4.67752z" fill="#5b5e71"/></g></g></g><g><g enable-background="new"><g><path d="m36.87128 33.10416-.61867-.35953-.02833-6.86183.61867.35953z" fill="#474b59"/></g><g><path d="m36.84092 25.52749-.61867-.35953-.01326-4.67752.61867.35953z" fill="#474b59"/></g><g><path d="m36.82766 20.84997-.61867-.35953.62208-.35916.61867.35953z" fill="#3f434f"/></g><g><path d="m27.10554 31.12089-.61867-.35953 9.73538-5.5934.61867.35953z" fill="#3f434f"/></g><g><path d="m26.47017 26.80253-.61866-.35953.6221-.35917.61867.35953z" fill="#3f434f"/></g><g><path d="m26.5138 39.05673-.61867-.35953-.04362-12.2542.61866.35953z" fill="#474b59"/></g><g><path d="m37.44974 20.49081.04362 12.25419-.62208.35916-.02833-6.86183-9.73539 5.59339.02834 6.86184-.6221.35917-.04363-12.2542.62211-.35917.01326 4.67753 9.73538-5.5934-.01326-4.67752z" fill="#5b5e71"/></g></g></g><g><g enable-background="new"><g><path d="m25.23836 26.33154-.61867-.35953-.02833-6.86183.61867.35953z" fill="#474b59"/></g><g><path d="m25.208 18.75487-.61867-.35953-.01326-4.67752.61867.35953z" fill="#474b59"/></g><g><path d="m25.19474 14.07735-.61867-.35953.62208-.35916.61867.35953z" fill="#3f434f"/></g><g><path d="m15.47262 24.34827-.61867-.35953 9.73538-5.5934.61867.35953z" fill="#3f434f"/></g><g><path d="m14.83725 20.02991-.61866-.35952.6221-.35918.61867.35953z" fill="#3f434f"/></g><g><path d="m14.88088 32.28411-.61867-.35953-.04362-12.25419.61866.35952z" fill="#474b59"/></g><g><path d="m25.81682 13.71819.04362 12.25419-.62208.35916-.02833-6.86183-9.73538 5.59339.02833 6.86184-.6221.35917-.04363-12.2542.62211-.35917.01326 4.67753 9.73538-5.5934-.01326-4.67752z" fill="#5b5e71"/></g></g></g><g><g enable-background="new"><g><path d="m13.60544 19.55892-.61866-.35953-.02834-6.86184.61867.35953z" fill="#474b59"/></g><g><path d="m13.57508 11.98225-.61867-.35953-.01326-4.67752.61867.35953z" fill="#474b59"/></g><g><path d="m13.56182 7.30473-.61867-.35953.62208-.35916.61867.35953z" fill="#3f434f"/></g><g><path d="m3.8397 17.57565-.61866-.35953 9.73537-5.5934.61867.35953z" fill="#3f434f"/></g><g><path d="m3.20434 13.25729-.61867-.35953.62211-.35917.61866.35953z" fill="#3f434f"/></g><g><path d="m3.24796 25.51149-.61867-.35953-.04362-12.2542.61867.35953z" fill="#474b59"/></g><g><path d="m14.1839 6.94557.04362 12.25419-.62208.35916-.02833-6.86184-9.73538 5.5934.02833 6.86184-.6221.35917-.04362-12.2542.6221-.35917.01326 4.67753 9.73538-5.5934-.01326-4.67752z" fill="#5b5e71"/></g></g></g></g><g><g><g><g><g><g><g><g><g enable-background="new"><g><path d="m47.93707 28.85597.82052.47684.82589-.47684-.82051-.47683z" fill="#ecf0f1"/></g></g><g enable-background="new"><g><path d="m37.78152 27.47095.82052.47683.81918-.47295-.82052-.47683z" fill="#ecf0f1"/></g></g></g><g><g enable-background="new"><g><path d="m12.15555 7.83831.04617 9.34897.82052.47683-.04618-9.34897z" fill="#cad0dd"/></g><g><path d="m12.97606 8.31514.04618 9.34897.8259-.47683-.04618-9.34897z" fill="#d4dae8"/></g><g><path d="m12.15555 7.83831.82051.47683.8259-.47683-.82052-.47683z" fill="#ecf0f1"/></g></g><g enable-background="new"><g><path d="m2 13.81497.82052.47683.81918-.47296-.82052-.47683z" fill="#ecf0f1"/></g></g></g><path d="m2.0019 12.51131.00486 1.71456 36.6222 21.2825-.00486-1.71456z" fill="#3293c9"/><path d="m38.6241 33.79381.00486 1.71456 10.985-6.34219-.00487-1.71456z" fill="#328eb7"/><path d="m2 12.51224 36.61903 21.28575 10.98995-6.34159-36.6191-21.28575z" fill="#3498db"/><g><g><path d="m3.46395 12.51438.23814.13893.50607.28774.06947.03973 8.71223-5.03089v-.93275l-.41674.23814z" fill="#328eb7"/><path d="m48.14028 27.45383-.80461.46435-34.3472-19.96488v-.93202z" fill="#3293c9"/></g><path d="m4.27763 12.98078.65488.37707.49615.29768.71447.41674.50608.2878.71441.41675.50608.29767.72435.41674.49614.2878.71448.41675.50607.29767.71442.41674.50607.2878.71442.41675.50607.28774.71448.4168.49614.29767.73428.41675.49615.2878.71441.41674.50608.29767.71447.41675.49615.2878.72434.41674.49615.29767.71447.40687.49615.28774.71441.41675.50608.29767.71441.4168.49615.28775.72441.41674.49614.2878.71441.41674.50608.28774.71441.41681.48628.28774.72434.42667.49615.28774.72435.41681.49614.28774.71447.41674.49615.2878.72435.41675.48621.28774.7244.42667.50602.2878.70454.40681.49615.29768.72435.4168.49614.28774.72441.41674.49614.2878.71442.41675.49614.29767.71447.40687.83349.48621 8.71229-5.03089-.86328-.49614-.71448-.41675-.49614-.2878-.71442-.41674-.49614-.29767-.71448-.41675h-.00993l-.49614-.2878-.71442-.41674-.49614-.28774-.71448-.4168-.50601-.28775-.71448-.41674-.49614-.29773h-.00993l-.71442-.41675-.49614-.28774-.70455-.40687h-.00993l-.49614-.29767-.72435-.41674-.49614-.28774-.71448-.41681-.49614-.28774-.71442-.41674-.50607-.29773-.71442-.40682-.49614-.29767-.72441-.4168-.49614-.28774-.71442-.41674-.49614-.28781-.72435-.41674-.48627-.28774-.72435-.41674-.49614-.28781-.72435-.42667-.49614-.28774-.70455-.40687-.516-.30761-.71442-.40681-.50608-.29767-.71441-.4168-.50608-.29768-.71447-.40681-.50608-.29773-.71441-.41674-.50608-.28774-.71442-.41675-.49614-.29773h-.00993l-.71448-.41674-.49614-.28775-.72435-.42667h-.00993l-.49614-.2878-.70449-.40681-.50607-.29768-.72441-.4168-.50602-.29767-.61527-.35721z" fill="#5b5e71"/></g><g><g enable-background="new"><g fill="#ecf0f1"><path d="m14.20262 8.65439-8.68249 5.05076.71448.41674 8.69243-5.0507.129-.0794c.03967-.01987.06941-.0794.06941-.16867 0-.1588-.10914-.35727-.24807-.43661-.06941-.03973-.12894-.04966-.1786-.01987z"/><path d="m4.29964 12.99067.06947.03973.65488.37707 8.67262-5.05076.12894-.06947c.04966-.02974.0794-.08927.0794-.16867 0-.15874-.10914-.35721-.258-.44654-.06947-.03967-.129-.03967-.1786-.00993l-.38701.22827z"/></g></g><g enable-background="new"><g fill="#ecf0f1"><path d="m23.96674 14.33029-8.68249 5.04082.71442.41674 8.68249-5.05076.1588-.08927c.0496-.0298.0794-.08933.0794-.16873 0-.15874-.1092-.35721-.24807-.43661-.06947-.0496-.129-.0496-.17867-.0198z"/><path d="m14.05382 18.66657.73428.41674 8.67256-5.0507.1588-.08933c.0496-.02974.07934-.08933.07934-.16867 0-.1588-.10914-.36714-.258-.44654-.06941-.03967-.129-.03967-.1786-.00993l-.51595.29767z"/><path d="m26.39785 15.73932-8.68249 5.05076.72435.41674 8.68249-5.04082.16867-.09921c.04966-.0298.0794-.08933.0794-.1786 0-.1588-.10914-.35727-.258-.43661-.06947-.03973-.129-.0496-.1786-.01987z"/><path d="m25.19716 15.0447-8.69242 5.04082.71448.41674 8.68249-5.0507.1786-.09927c.03967-.0198.06947-.07934.06947-.16867 0-.15874-.1092-.34728-.24807-.43661-.06947-.03967-.13893-.03967-.1786-.00993z"/><path d="m20.3052 12.19685-8.68249 5.05076.71442.41674 8.68249-5.05076.14887-.08927c.0496-.01987.0794-.0794.0794-.16867 0-.1588-.10914-.35727-.24807-.43661-.0794-.03973-.13894-.04966-.1786-.01987z"/><path d="m21.52569 12.91133-8.68249 5.04076.71448.4168 8.68249-5.05076.15874-.08927c.0496-.01987.0794-.0794.0794-.16873 0-.14881-.10914-.34727-.258-.43661-.06947-.03967-.129-.03967-.1786-.00993z"/><path d="m10.40222 16.54306.71442.41674 8.68249-5.0507.14887-.08933c.0496-.02974.07934-.08927.07934-.16867 0-.15874-.10914-.35721-.25794-.44654-.06947-.03967-.129-.03967-.17867-.00993l-.50601.29773z"/><path d="m7.96117 15.1241.72435.41674 8.68249-5.0507.129-.0794c.0496-.0298.0794-.08933.0794-.16867 0-.1588-.10914-.36714-.258-.44654-.06947-.03967-.129-.03967-.1786-.01987l-.49614.2878z"/><path d="m15.43311 9.36886-8.69243 5.04082.71442.41674 8.68249-5.05076.13894-.07934c.0496-.01987.0794-.0794.0794-.16873 0-.15874-.1092-.35721-.258-.43661-.06947-.03967-.129-.03967-.1786-.00993z"/><path d="m17.86416 10.77789-8.68249 5.05076.71448.41674 8.68249-5.05076h.00993l.13887-.07934c.04966-.0298.0794-.08933.0794-.16873 0-.15874-.10914-.35721-.258-.43661-.06947-.0496-.129-.0496-.1786-.0198z"/></g></g><g enable-background="new"><g fill="#ecf0f1"><path d="m31.26001 18.5673-8.68249 5.05076.72441.41674 8.68249-5.0507.18854-.10914c.0496-.01987.07934-.0794.07934-.16873 0-.15874-.10913-.35721-.258-.43661-.06941-.03967-.12894-.03967-.1786-.0198z"/><path d="m27.43973 26.44605.72435.4168 8.6825-5.05076.2084-.11907c.03967-.02974.06947-.08927.06947-.16867 0-.1588-.10913-.35721-.258-.44654-.06947-.03967-.129-.03967-.1786-.00993l-.56561.32747z"/><path d="m34.91161 20.69081-8.69236 5.04082.72435.42667 8.68249-5.0507.2084-.11913c.0496-.02974.06941-.08927.06941-.16867 0-.15874-.10914-.35721-.24807-.43661-.06941-.03967-.13887-.0496-.1786-.0198z"/><path d="m30.04945 17.86282-8.6825 5.0507.71442.4168 8.68249-5.05076.18854-.10914c.0496-.01987.0794-.0794.0794-.16867 0-.1588-.11907-.35727-.258-.43661-.06947-.03973-.13894-.04966-.1786-.01987z"/><path d="m33.70105 19.98632-8.6825 5.04076.71442.4168 8.6825-5.04082.19847-.11907c.03973-.0298.06947-.0794.06947-.16867 0-.1588-.10913-.35727-.24807-.43661-.06947-.03973-.129-.04966-.1786-.01987z"/><path d="m37.34272 22.10977-8.68249 5.04082.71448.41674 8.68249-5.0507.21827-.11907c.03973-.0298.06947-.08933.06947-.16873 0-.15874-.10914-.35721-.24807-.44648-.06947-.03973-.13894-.03973-.1786-.00993z"/><path d="m32.48056 19.28178-8.68249 5.04082.71442.41674 8.68249-5.05076.19847-.10914c.0496-.02974.06947-.08927.06947-.16867.00993-.1588-.10914-.35721-.24807-.43661-.06947-.0496-.13894-.0496-.1786-.01987z"/><path d="m28.82896 17.15828-8.68249 5.04082.71441.41674 8.69243-5.04082.1786-.10914c.0496-.02974.0794-.08927.0794-.16867 0-.15874-.1092-.35721-.258-.43661-.06947-.03967-.129-.03967-.1786-.01987z"/><path d="m27.61834 16.45379-8.6825 5.0507.71448.40687 8.69237-5.04082.16873-.09927c.0496-.02974.07934-.08927.07934-.1786 0-.15874-.10914-.35721-.24807-.43661-.06947-.03967-.13887-.03967-.18854-.0198z"/></g></g><g enable-background="new"><g fill="#ecf0f1"><path d="m29.87084 27.85514.72435.41674 8.6825-5.05076.2084-.11907c.0496-.02974.07934-.08927.07934-.16867 0-.15874-.10914-.35721-.25794-.43661-.06947-.03967-.129-.0496-.17867-.01987l-.57548.32747z"/><path d="m37.16411 32.10209.71448.40687 8.6825-5.04082.23814-.13894c.0496-.02974.07934-.08927.07934-.1786 0-.15874-.10914-.35721-.24807-.43661-.0694-.03967-.13887-.03967-.18848-.00993l-.59541.34734z"/><path d="m44.63605 26.34684-8.68249 5.04082.71442.41674 8.68249-5.04082.23814-.13887c.03973-.0298.06947-.08933.06947-.16873 0-.15874-.10913-.35721-.24807-.44654-.06947-.03967-.13894-.03967-.1786-.00987z"/><path d="m47.0671 27.75592-8.68249 5.04082.71442.41674 8.68249-5.04082.23814-.13887c.03973-.0298.06947-.08933.06947-.16873 0-.15874-.10913-.35721-.24807-.44654-.06947-.03967-.13894-.03967-.1786-.00987z"/><path d="m33.51251 29.97858.72435.4168 8.68249-5.05076.22827-.129c.0496-.02974.06947-.08927.06947-.1786 0-.15874-.09926-.34727-.24807-.42668-.06947-.03967-.129-.0496-.17867-.01987l-.58541.3374z"/><path d="m43.42543 25.63243-8.69243 5.0507.72441.41674 8.68249-5.0507.22821-.129c.03967-.0298.06947-.08933.06947-.16867 0-.16873-.10914-.35727-.24807-.44654-.06947-.03973-.129-.03973-.1786-.00993z"/><path d="m32.31182 29.2741.70454.40681 8.69242-5.04076.21828-.129c.04966-.0298.0794-.08933.0794-.16873 0-.15874-.10914-.35721-.258-.44648-.06947-.03973-.129-.03973-.1786-.00993l-.57554.33734z"/><path d="m31.0814 28.55962.72441.42668 8.68249-5.0507.21827-.129c.0496-.0298.0794-.08933.0794-.16867 0-.1588-.1092-.35727-.258-.44654-.06947-.03967-.129-.03967-.16867-.00993l-.58548.3374z"/></g></g></g></g></g></g></g></g><path d="m48.14028 27.45383-9.51968 5.49172.47842.26794 10.50996-5.75709z" fill="#3498db"/></g><g><g><g><path d="m30.82681 25.19505.01962 1.95207 5.61233 3.26153-.01962-1.95207z" fill="#d6b218"/><path d="m36.43589 28.45825.02287 1.9504 5.64862-3.26376-.01858-1.94474v-.00924h-.00929l-2.45049 1.42017-.55698.32491-.16707.0928z" fill="#e5bd13"/><path d="m30.82548 25.19894 5.61368 3.26144 2.4677-1.42871.71438-.40407.0144-.00718 2.4533-1.42148-5.61372-3.26145z" fill="#f1c40f"/><g><path d="m39.63831 23.77027-5.61368 3.2614-.71437-.40407-.0144-.00718 5.62812-3.26144.00722.00722z" fill="#d8463f"/><path d="m34.02653 27.02879-.0093 1.95442-.72404-.41772.00928-1.94512.55698.31562z" fill="#c44"/></g><g><path d="m33.29319 23.77027 5.61367 3.2614.71438-.40407.0144-.00718-5.62812-3.26144-.00723.00722z" fill="#e74c3c"/><path d="m38.90497 27.02879.00929 1.95442.72405-.41772-.00929-1.94512-.55698.31562z" fill="#d8463f"/></g></g><g><path d="m31.05233 26.28158-.0021.74162 1.56322.90252.0021-.74161z" fill="#fff"/></g></g><g><g><path d="m20.17741 19.0063.01962 1.95207 5.61233 3.26153-.01962-1.95207z" fill="#d6b218"/><path d="m25.7865 22.2695.02286 1.9504 5.64863-3.26376-.01859-1.94475v-.00923h-.00929l-2.45049 1.42017-.55697.32491-.16708.0928z" fill="#e5bd13"/><path d="m20.17608 19.01018 5.61368 3.26145 2.4677-1.42871.71438-.40407.0144-.00718 2.45331-1.42149-5.61372-3.26144z" fill="#f1c40f"/><g><path d="m28.98891 17.58152-5.61367 3.2614-.71438-.40407-.0144-.00718 5.62812-3.26144.00722.00722z" fill="#d8463f"/><path d="m23.37713 20.84004-.00929 1.95442-.72405-.41772.00929-1.94512.55697.31562z" fill="#c44"/></g><g><path d="m22.64379 17.58152 5.61367 3.2614.71438-.40407.0144-.00718-5.62812-3.26144-.00722.00722z" fill="#e74c3c"/><path d="m28.25557 20.84004.00929 1.95442.72405-.41772-.00929-1.94512-.55697.31562z" fill="#d8463f"/></g></g><g><path d="m9.52802 12.81755.01962 1.95207 5.61232 3.26153-.01962-1.95208z" fill="#d6b218"/><path d="m15.1371 16.08075.02286 1.9504 5.64863-3.26376-.01858-1.94475v-.00923h-.00929l-2.4505 1.42016-.55697.32492-.16708.0928z" fill="#e5bd13"/><path d="m9.52668 12.82143 5.61368 3.26144 2.46771-1.4287.71437-.40407.01441-.00718 2.4533-1.42149-5.61372-3.26144z" fill="#f1c40f"/><g><path d="m18.33951 11.39277-5.61367 3.2614-.71438-.40407-.0144-.00718 5.62812-3.26145.00722.00723z" fill="#d8463f"/><path d="m12.72773 14.65129-.00929 1.95442-.72405-.41772.00929-1.94513.55698.31563z" fill="#c44"/></g><g><path d="m11.99439 11.39277 5.61368 3.2614.71437-.40407.01441-.00718-5.62813-3.26145-.00722.00723z" fill="#e74c3c"/><path d="m17.60617 14.65129.0093 1.95442.72404-.41772-.00929-1.94513-.55697.31563z" fill="#d8463f"/></g></g><g><path d="m31.05233 26.28158-.0021.74162 1.56322.90252.0021-.74161z" fill="#fff"/></g></g></g></g><g><g><g enable-background="new"><g><path d="m46.35609 24.2199-1.3446-.7814-.02026-7.147 1.3446.7814z" fill="#e0e2e2"/></g><g><path d="m46.33583 17.0729-1.3446-.7814 3.64391-2.10382 1.3446.7814z" fill="#ecf0f1"/></g><g><path d="m49.97974 14.96908.02026 7.14701-3.64391 2.10381-.02026-7.147z" fill="#d4d6d6"/></g></g></g><g><g enable-background="new"><path d="m48.31235 19.63153c-.08075-.04692-.19256-.0404-.31602.03089-.24553.14175-.44362.4856-.44284.767.0004.14034.04993.23918.12985.28561l.35384.20562c-.0799-.04643-.12943-.14526-.12984-.28561-.0008-.2814.19729-.62523.44283-.767.12347-.07129.23526-.07781.31601-.03087z" fill="#2ebf69"/><g><path d="m48.35017 19.86805c.24553-.14176.44492-.02739.44571.25401.0008.28214-.19729.62598-.44281.76773-.24554.14176-.44492.02741-.44572-.25473-.00081-.28141.19728-.62525.44282-.76701z" fill="#2ecc71"/></g></g><g enable-background="new"><path d="m48.70661 16.55104c-.18366-.10671-.438-.09171-.7189.07048-.55903.32275-1.00888 1.1034-1.00706 1.74428.00091.31922.11343.54403.29512.64962l.35385.20563c-.1817-.10558-.29423-.3304-.29514-.64961-.00181-.64088.44804-1.42154 1.00706-1.74429.28091-.16219.53524-.17719.7189-.07047z" fill="#d8463f"/><g><path d="m48.34155 16.82714c.55838-.32238 1.01182-.06324 1.01364.57764.00182.64162-.44867 1.42338-1.00705 1.74576-.55902.32275-1.01183.06251-1.01365-.57911-.00182-.64088.44803-1.42153 1.00706-1.74429z" fill="#e74c3c"/></g></g><g enable-background="new"><path d="m48.31733 21.38698c-.08075-.04692-.19256-.04041-.31602.03088-.24553.14176-.44362.4856-.44283.76702.0004.14033.04993.23916.12985.2856l.35385.20564c-.07992-.04644-.12945-.14527-.12985-.28561-.0008-.28141.19729-.62526.44284-.76701.12346-.07129.23526-.0778.31601-.03088z" fill="#8c56a5"/><g><path d="m48.35514 21.62349c.24553-.14176.44492-.0274.44571.25401.0008.28213-.19729.62598-.44282.76773-.24554.14176-.44492.0274-.44572-.25473-.00079-.28141.1973-.62525.44283-.76701z" fill="#9b59b6"/></g></g></g></g></g><g><g enable-background="new"><g><path d="m21.23798 25.27967.41113-.23892.00255-.90106-.41112.23891z" fill="#d4d6d6"/></g><g><path d="m21.24054 24.3786.41112-.23891-1.3213-.76286-.41112.23892z" fill="#ecf0f1"/></g><g><path d="m19.91924 23.61575-.00255.90107 1.32129.76285.00256-.90107z" fill="#e0e2e2"/></g></g></g><g><g enable-background="new"><g><path d="m31.03509 16.97693-.28164-.16367-.01291-6.40326.28165.16368z" fill="#db7121"/></g><g><path d="m20.82272 24.0348-.28165-.16367-.01363-7.81812.28165.16368z" fill="#db7121"/></g><g><path d="m20.80909 16.21669-.28165-.16368 10.43293-6.02346.28165.16368z" fill="#e67e22"/></g><g><path d="m31.24202 10.19323.01363 6.65637-.22056.12733-.0129-6.40325-9.99183 5.76878.01291 7.565-.22055.12734-.01363-7.81811z" fill="#cc6723"/></g></g></g><path d="m31.67962 17.03412-.55827.13656-.71392-.3926-.02912-.25102.18576-.14058z" fill="#3498db"/></g></svg>