<svg id="Layer_1" enable-background="new 0 0 52 52" height="512" viewBox="0 0 52 52" width="512" xmlns="http://www.w3.org/2000/svg"><g><g><g><g><g><path d="m46.55805 14.31136-.07415 23.36227-21.21079 12.32637.07415-23.36227z" fill="#d6b218"/><path d="m25.35952 26.64405-.08641 23.35595-21.34798-12.3348.07023-23.33459v-.0349h.03511l9.2612 5.36727 2.10499 1.22796.63143.35072z" fill="#e5bd13"/><path d="m46.56308 14.32604-21.21589 12.32605-9.32625-5.39956-2.69986-1.5271-.05443-.02713-9.27183-5.37226 21.21606-12.32604z" fill="#f1c40f"/><g><path d="m22.8575 17.28067-6.83656 3.97186-2.69986-1.5271-.05443-.02713 6.89115-3.97203.0273.02729z" fill="#e5bd13"/><path d="m37.22336 8.93448-6.83656 3.97186-2.69986-1.5271-.05442-.02713 6.91845-3.94474z" fill="#e5bd13"/><path d="m16.02809 21.24166-.03512 23.37114-2.73641-1.57869.03511-23.33602 2.10499 1.19285z" fill="#d6b218"/></g></g></g><g><path d="m33.90575 24.79848 10.84073-6.2589.01943 6.85254-10.84073 6.2589zm10.62041.45701-.01787-6.30334-10.36279 5.98295.01787 6.30334z" fill="#525566"/></g><path d="m44.52024 25.26348-10.36119 5.97171-.01703-6.29508 10.36119-5.98874z" fill="#fff"/><path d="m45.11436 17.81456c.13035-.07526.25019-.0195.25065.14287l.0207 7.30188c.00046.16216-.11868.3561-.24902.43136l-11.56849 6.67907c-.14124.08155-.25019.01929-.25065-.14287l-.0207-7.30189c-.00046-.16237.10778-.34981.24902-.43136zm-.34845 7.57755-.01943-6.85254-10.84073 6.2589.01943 6.85254z" fill="#fff"/><path d="m43.96721 19.97725.00078.2746-9.27655 5.35581-.00077-.27459z" fill="#525566"/><g><path d="m43.97238 21.79954.00078.2746-9.27655 5.35581-.00078-.27459z" fill="#525566"/></g><g><path d="m43.96979 20.8884.00078.27459-9.27654 5.35582-.00078-.2746z" fill="#525566"/></g><g><path d="m41.2159 24.30363.00078.2746-6.51749 3.76287-.00078-.27459z" fill="#525566"/></g><g><path d="m5.13722 36.32824 7.0966 4.09925.01621-4.99036-7.09664-4.09915z" fill="#fff"/><g fill="#525566"><path d="m11.7848 35.53814-.01205 4.24949.16551.09556.01205-4.24949z"/><path d="m10.82791 34.98568-.01205 4.24949.1707.09855.01204-4.24949z"/><path d="m11.14343 35.16785-.01205 4.24949.10344.05972.01205-4.24949z"/><path d="m10.62102 34.86623-.01205 4.24949.10345.05973.01205-4.24949z"/><path d="m10.49689 34.79457-.01205 4.24949.04137.02388.01205-4.24949z"/><path d="m10.31586 34.69004-.01205 4.2495.10344.05972.01205-4.24949z"/><path d="m10.05724 34.54073-.01205 4.2495.15517.08958.01204-4.24949z"/><path d="m9.85035 34.42128-.01205 4.2495.10344.05972.01205-4.24949z"/><path d="m11.39687 35.31417-.01205 4.24949.28965.16723.01205-4.24949z"/><path d="m9.58138 34.266-.01204 4.24949.16551.09556.01204-4.24949z"/><path d="m8.94518 33.89869-.01205 4.24949.10346.05972.01204-4.24948z"/><path d="m8.42278 33.59708-.01205 4.24949.10345.05973.01205-4.24949z"/><path d="m8.29348 33.52242-.01205 4.2495.04137.02388.01205-4.24949z"/><path d="m7.85899 33.27158-.01204 4.24949.14999.0866.01205-4.24949z"/><path d="m7.6521 33.15213-.01205 4.24949.10345.05973.01205-4.2495z"/><path d="m9.19346 34.04203-.01205 4.24949.28965.16723.01205-4.24949z"/><path d="m7.38315 32.99685-.01205 4.24949.16551.09556.01205-4.2495z"/><path d="m6.74177 32.62654-.01205 4.2495.10345.05972.01205-4.24948z"/><path d="m5.9142 32.14875-.01204 4.24949.10344.05973.01205-4.2495z"/><path d="m5.65558 31.99944-.01205 4.24948.15518.0896.01204-4.2495z"/><path d="m6.99522 32.77288-.01205 4.24949.28965.16722.01205-4.24948z"/><path d="m8.62967 33.71653-.01205 4.24949.16552.09556.01205-4.24949z"/><path d="m8.11244 33.4179-.01204 4.2495.10344.05972.01205-4.24949z"/><path d="m6.42626 32.44439-.01205 4.24949.16552.09556.01205-4.24949z"/><path d="m6.21937 32.32494-.01205 4.24949.10345.05973.01205-4.24949z"/><path d="m6.09523 32.25327-.01205 4.24949.04138.02389.01205-4.24949z"/><path d="m5.44869 31.87999-.01205 4.24948.10345.05974.01205-4.2495z"/></g></g></g><g><g><path d="m12.04613 15.92663.00233.42072 9.29113 5.39941-.00117-.41315z" fill="#d4d6d6"/></g><g><path d="m21.33842 21.25765.00117.48911 17.17219-9.91437-.01917-.41073z" fill="#c4c6c6"/></g><path d="m12.04613 15.92663 9.29196 5.40615.33781-.20251.55754-.32111.4731-.27037.60817-.3378.48991-.28708.55754-.3211.45619-.27037.59126-.35472h.01691l.473-.27037.54063-.3211.49001-.27016.60817-.35472.473-.27037.55754-.3211.4731-.28708.60817-.3378.47299-.27058.55755-.32089.49001-.28708.59126-.33801.47299-.28728.54064-.3209h.01691l.45619-.27016.60817-.35493h.01691l.48991-.27037.52372-.32089.49001-.27037.59126-.35472.4731-.27037.55744-.32089.49-.27037.59127-.35493.42236-.23634-9.27505-5.38945-.42236.25346-.59127.33781-.49.27037-.54064.3211-.47299.27016-.60818.35472-.49.28728-.54064.30419-.4899.28708-.59127.33801-.49.27037-.54064.3209-.4899.28707-.59126.33801-.49001.27037-.55755.3209-.47299.27037-.59127.35492-.49.27017-.55755.32089-.47299.27037-.60817.35493-.4731.27016-.55755.3211-.47299.27037-.60818.35472-.47309.27016-.54064.32111-.50681.28728-.59127.3378-.47309.27037-.55755.3209z" fill="#d4d6d6"/><g><g><path d="m28.80542 6.27995 9.26583 5.38518.43158-.24919-9.27505-5.38945z" fill="#e74c3c"/></g><g enable-background="new"><g><path d="m27.72415 6.88813 1.16572.67582.321-.18581 6.94361 4.0378-.321.18582 1.16572.67582.49-.27037-9.27505-5.38945z" fill="#3293c9"/></g><g fill="#e74c3c"><path d="m34.80294 12.19302 1.16572.67582.4731-.27037-1.16572-.67582z"/><path d="m26.71052 7.47939 1.16572.67583.473-.27037-1.16573-.67562z"/></g><g fill="#e74c3c"><path d="m30.57932 14.62573 1.18263.69273.47299-.28728-1.16572-.67562z"/><path d="m22.46999 9.92901 1.16572.67603.48991-.28728-1.16573-.67582z"/></g><g fill="#3293c9"><path d="m29.49805 15.25102 1.18263.69253.49001-.28708-1.18264-.69273z"/><path d="m21.38872 10.53739 1.18263.69253.47299-.28707-1.16561-.67583z"/></g><g fill="#e74c3c"><path d="m28.46751 15.84208 1.18263.69294.47299-.27058-1.18252-.69252z"/><path d="m20.35818 11.12866 1.18264.69273.47299-.27037-1.18264-.69273z"/></g><g fill="#3293c9"><path d="m27.38624 16.46737 1.18263.69253.4731-.28708-1.16573-.67582z"/><path d="m19.27691 11.75375 1.18263.69273.48991-.28728-1.18254-.67562z"/></g><g fill="#e74c3c"><path d="m26.3557 17.05864 1.18263.69273.473-.27037-1.18254-.69273z"/><path d="m18.24637 12.34501 1.18263.69273.473-.27037-1.18264-.69273z"/></g><g fill="#3293c9"><path d="m25.27443 17.70064 1.16572.67561.49001-.27016-1.18264-.69273z"/><path d="m17.1651 12.9701 1.18263.69273.47299-.27037-1.18252-.69252z"/></g><g fill="#e74c3c"><path d="m24.24389 18.2919 1.16572.67582h.01691l.473-.27037-1.18254-.69273z"/><path d="m16.13456 13.56157 1.18263.69253.473-.27017-1.18264-.69273z"/></g><g fill="#3293c9"><path d="m23.17953 18.90008 1.18263.69273.45619-.27037-1.18264-.69252z"/><path d="m15.05329 14.18645 1.19954.69273.45609-.27036-1.18254-.69253z"/></g><g fill="#e74c3c"><path d="m22.13208 19.50846 1.18263.69253.48991-.28708-1.18264-.69293z"/><path d="m14.00584 14.79484 1.19955.69252.4899-.28707-1.18264-.69273z"/></g><g><path d="m12.94148 15.40301 9.29196 5.40615.4731-.27037-1.18264-.69252-6.90988-4.0209-1.19945-.69273z" fill="#3293c9"/></g><g><path d="m12.04613 15.92663 9.29196 5.40615.33781-.20251-9.29197-5.40636z" fill="#e74c3c"/></g></g><g fill="#3293c9"><path d="m33.72167 12.81811 1.16572.67582.49001-.27037-1.16573-.67582z"/><path d="m25.61234 8.12139 1.16572.67582.4899-.28707-1.16562-.67603z"/></g><g fill="#3293c9"><path d="m31.60986 14.03446 1.16572.67582h.01691l.45619-.27016-1.16573-.67603z"/><path d="m23.50053 9.32104 1.16572.67562.4899-.27017-1.16562-.67582z"/></g><g fill="#e74c3c"><path d="m32.69113 13.40937 1.16572.67582h.01691l.48991-.27037-1.18264-.69252z"/><path d="m24.5818 8.71266 1.16572.67582.48991-.28728-1.16573-.67562z"/></g></g><path d="m37.09966 11.61408-8.21945-4.77814-15.43091 8.90926 8.21945 4.77813z" fill="#ecf0f1"/><path d="m14.41129 15.94355 6.9268 4.02089.18581-.11817-6.90988-4.0209z" fill="#ecf0f1"/><path d="m14.69358 15.7519 5.16971-3.00481 2.18106 1.25938-5.16971 3.00481z" fill="#d4d6d6"/><g><g><path d="m15.37885 15.70014.12513.07271 4.61934-2.66697-.12513-.07272z" fill="#3d566e"/></g><g><path d="m15.66077 15.86397.12534.07284 4.61934-2.66698-.12534-.07284z" fill="#3d566e"/></g><g><path d="m16.78843 16.51929.10962.06371 4.61934-2.66698-.10962-.0637z" fill="#3d566e"/></g><g><path d="m16.50652 16.35546.10962.06371 4.61934-2.66698-.10963-.0637z" fill="#3d566e"/></g><g><path d="m16.2246 16.19163.10962.06371 4.61934-2.66698-.10962-.06371z" fill="#3d566e"/></g><g><path d="m15.94268 16.0278.10963.06371 4.61934-2.66698-.10963-.06371z" fill="#3d566e"/></g></g><g><g><path d="m30.90131 13.19216.10341.06009 3.8174-2.20398-.1034-.06009z" fill="#5b5e71"/></g><g><path d="m31.13428 13.32755.10359.06019 3.8174-2.20398-.10358-.06019z" fill="#5b5e71"/></g><g><path d="m32.06618 13.86911.09059.05264 3.81741-2.20398-.09059-.05264z" fill="#5b5e71"/></g><g><path d="m31.83321 13.73372.09059.05265 3.81741-2.20399-.09059-.05264z" fill="#5b5e71"/></g><g><path d="m31.60023 13.59833.09059.05265 3.81741-2.20399-.09059-.05264z" fill="#5b5e71"/></g><g><path d="m31.36726 13.46294.09059.05264 3.81741-2.20398-.09059-.05264z" fill="#5b5e71"/></g></g></g></g><g><g><g><path d="m48.07322 36.03592-.02438 6.02528-11.53793 6.80562.02438-6.02528z" fill="#d6b218"/></g><g><path d="m40.21423 43.08962-.00802 2.53288-2.29328 1.33271.00801-2.53288z" fill="#e4e8f4"/></g><g><path d="m36.53529 42.84154-.02438 6.02528-7.01937-4.05264.02438-6.02527z" fill="#e5bd13"/></g><path d="m48.07487 36.04075-11.5396 6.80551-3.06632-1.77528-.88767-.50209-.01789-.00892-3.04842-1.7663 11.53965-6.80552 3.06632 1.76631.00897.00898.87864.50208z" fill="#f1c40f"/><path d="m45.00855 34.26552-11.5396 6.80546-.88767-.50209-.01789-.00892 11.55755-6.80551.00897.00898z" fill="#5b5e71"/><g><path d="m33.46895 41.07098-.00826 2.91396-.8973-.51243.00826-2.91396z" fill="#474b59"/></g></g><g><g><path d="m45.19175 40.99358.24159.45971-.14963.08639-.33017.18921z" fill="#3f434f"/></g><g><path d="m45.28371 41.53968.00258.90941-.18054.10423-.00258-.9094z" fill="#3f434f"/></g><g><path d="m46.18058 42.01389.00055.19467-1.24649.71966-.00055-.19467z" fill="#3f434f"/></g><g><path d="m47.50542 39.65779.00183.64795c.00058.20462-.11766.44225-.27462.56276l.00166.58401c.11009-.05075.1931-.04601.19327.01509l-.48598.28058c-.00017-.0611.08253-.16151.19255-.23784l-.00166-.58401c-.07175.02862-.13371.02169-.1821-.00872-.0571-.04247-.09448-.12194-.0948-.23561l-.00183-.64795z" fill="#3f434f"/></g><g><path d="m46.00589 41.12273.00257.90941-.18054.10424-.00258-.90941z" fill="#3f434f"/></g><g><path d="m45.91515 40.57592.24036.46043-.14962.08638-.32894.1885z" fill="#3f434f"/></g></g><g><g><path d="m32.0872 44.03498-.215.40909.13315.07688.29383.16837z" fill="#474b59"/></g><g><path d="m32.00535 44.52095-.00229.80927.16066.09276.0023-.80928z" fill="#474b59"/></g><g><path d="m31.20724 44.94294-.00049.17324 1.10924.64042.00049-.17324z" fill="#474b59"/></g><g><path d="m30.02828 42.84626-.00163.5766c-.00052.18209.1047.39355.24438.50079l-.00147.51971c-.09797-.04517-.17184-.04095-.17199.01342l.43247.24969c.00015-.05437-.07344-.14373-.17135-.21165l.00147-.5197c.06385.02547.11898.0193.16205-.00776.05081-.03779.08408-.10851.08436-.20967l.00163-.5766z" fill="#474b59"/></g><g><path d="m31.3627 44.14991-.0023.80927.16067.09276.00229-.80927z" fill="#474b59"/></g><g><path d="m31.44344 43.66331-.21389.40972.13315.07688.29272.16774z" fill="#474b59"/></g></g></g></g></svg>