<svg id="Layer_1" enable-background="new 0 0 52 52" height="512" viewBox="0 0 52 52" width="512" xmlns="http://www.w3.org/2000/svg"><g><g><g><g><path d="m16.33698 42.31458c0 .70947.25543 1.2108.66218 1.44728l2.66761 1.55138c-.40676-.23649-.66218-.73787-.66218-1.45681-.00947-1.42835 1.00271-3.17841 2.25138-3.89734.62431-.35947 1.20139-.39729 1.60814-.1608l-2.66761-1.54192c-.40676-.24596-.97437-.20808-1.60814.15138-1.24867.71889-2.25138 2.46895-2.25138 3.90683z" fill="#363a44"/></g><g><path d="m22.13789 38.96302c0 .70947.25543 1.2108.66218 1.44729l2.66761 1.55138c-.40676-.23649-.66218-.73788-.66218-1.45681-.00947-1.42835 1.00271-3.17841 2.25138-3.89734.62431-.35947 1.20139-.39729 1.60814-.1608l-2.66761-1.54192c-.40676-.24596-.97437-.20808-1.60814.15139-1.24867.71888-2.25138 2.46894-2.25138 3.90681z" fill="#363a44"/></g><g><g><path d="m37.89931 27.88787 3.67424-2.11211c1.83326-1.01343 3.0738-.74786 3.87384.47053l3.27081-1.8884-.00294-1.03635c-.00029-.10313.07323-.23046.16296-.28227l.68865-.39759c.23458-.13543.42622-.02722.42699.24233l.00614 2.16765c.00077.26956-.18964.59937-.42421.7348l-35.6769 20.59806-.01163-4.10353 23.8607-13.77598z" fill="#525566"/></g></g><g><path d="m38.33815 31.43815 2.66761 1.55138c-.40676-.23649-.66218-.73787-.66218-1.45681-.00947-1.42835 1.00271-3.17841 2.25138-3.89734.62431-.35947 1.20139-.39729 1.60814-.1608l-2.66761-1.54192c-.40675-.24596-.97436-.20808-1.60814.15139" fill="#363a44"/></g><g><g><g><path d="m42.61144 18.39389 7.25851 4.21819c-.07748-.04503-.18483-.03868-.30309.0296l-7.25851-4.21819c.11826-.06827.22561-.07462.30309-.0296z" fill="#5b5e71"/></g></g><g><g><path d="m48.71819 24.35789-7.25852-4.21819-.00293-1.03635 7.25851 4.21819z" fill="#5b5e71"/></g></g><g><g><path d="m48.87822 23.03928-7.25852-4.21819.68865-.39759 7.25851 4.21818z" fill="#5b5e71"/></g></g><g><g><path d="m48.71525 23.32154-7.25851-4.21819c-.00029-.10313.07322-.23045.16296-.28226l7.25851 4.21819c-.08973.05181-.16325.17913-.16296.28226z" fill="#5b5e71"/></g></g><g><g><path d="m45.44738 26.24629-7.25851-4.21819 3.2708-1.8884 7.25852 4.21819z" fill="#5b5e71"/></g></g><g><g><path d="m37.35686 21.20401 7.25851 4.21819c-.75598-.43933-1.75227-.35932-3.04184.35356l-7.25851-4.21819c1.28958-.71288 2.28586-.79289 3.04184-.35356z" fill="#5b5e71"/></g></g><g><g><path d="m37.74796 28.50501-7.25851-4.21819.15134-.61714 7.25852 4.21819z" fill="#5b5e71"/></g></g><g><g><path d="m37.89931 27.88787-7.25852-4.21819 3.67424-2.11211 7.25851 4.21819z" fill="#5b5e71"/></g></g><g><g><path d="m13.88726 42.28099-11.4164-6.63449 23.8607-13.77598 11.4164 6.63449z" fill="#5b5e71"/></g></g><g><g><path d="m37.89931 27.88787 3.67424-2.11211c1.83326-1.01343 3.0738-.74786 3.87384.47053l3.27081-1.8884-.00294-1.03635c-.00029-.10313.07323-.23046.16296-.28227l.68865-.39759c.23458-.13543.42622-.02722.42699.24233l.00614 2.16765c.00077.26956-.18964.59937-.42421.7348l-35.6769 20.59806-.01163-4.10353 23.8607-13.77598z" fill="#525566"/></g></g><g><g><path d="m13.89889 46.38452-11.4164-6.63449-.01163-4.10353 11.4164 6.63449z" fill="#5b5e71"/></g></g><g><g enable-background="new"><g><g><path d="m48.75093 17.73062-11.51449-6.69149 4.72935 2.08749 7.3566 4.2752z" fill="#e74c3c"/></g></g><g><g><path d="m48.5229 17.63022-11.51449-6.69149-.79663-3.78939 11.51448 6.69149z" fill="#84dbff"/></g></g><g><g><path d="m37.21846 11.04687c.00613-.00232.01203-.0049.01798-.00774l11.51449 6.69149c-.00595.00284-.01185.00541-.01798.00774-2.45226-1.42508-9.06224-5.26641-11.51449-6.69149z" fill="#e74c3c"/></g></g><g><g><path d="m37.21846 11.04687c2.45226 1.42508 9.06223 5.26641 11.51449 6.69149-.01489.00564-.03117.00982-.05289.01282-2.45226-1.42508-9.06224-5.26641-11.51449-6.69149.02172-.00299.03799-.00717.05289-.01282z" fill="#e74c3c"/></g></g><g><g><path d="m37.16556 11.0597c.00384.00076.0079.0046.01129.00656.02903.01687 4.21597 2.45005 4.245 2.46692.0328.01906.06561.03813.0984.05719 2.38665 1.38695 4.77314 2.77386 7.15979 4.16081-.00731.00101-.01523.00188-.02393.00264l-11.51449-6.69149c.0087-.00075.01663-.00162.02394-.00263z" fill="#e74c3c"/></g></g><g><g><path d="m48.59142 17.73668-11.51449-6.69149c.01893.011.04078.01679.06469.01714l11.51449 6.69149c-.02391-.00035-.04576-.00614-.06469-.01714z" fill="#e74c3c"/></g></g><g><g><path d="m48.58902 17.73183-11.51449-6.69149c-.03463-.02013-.05632-.05451-.06612-.10161l11.51449 6.69149c.0098.04711.03149.08149.06612.10161z" fill="#84dbff"/></g></g><g><g><path d="m47.97585 13.34185-11.51449-6.69149.43895-.25343 11.51449 6.69149z" fill="#84dbff"/></g></g><g><g><path d="m47.72626 13.84083-11.51448-6.69149c-.03426-.16329.08698-.4051.24958-.49898l11.51449 6.69149c-.16261.09388-.28385.33569-.24959.49898z" fill="#84dbff"/></g></g><g><g><path d="m47.33327 12.4048c.48802-.21017.81771-.07632 1.01204.34943l.06949.33418-.43896.25343c-.16261.09388-.28384.33569-.24958.49898l.79663 3.7894c.01648.07982.06689.12262.13321.1236.04521-.00391.06955-.01114.09482-.0232l.57146-.32881.20298.96584c.03068.14286.04537.29801.04583.46138l.0108 3.80947-.68776.39708c-.08974.05181-.16326.17913-.16297.28227l.00294 1.03635-3.2717 1.88892c-.79915-1.21891-2.03969-1.48448-3.87384-.47053l-3.67334 2.1116-.02686-9.47518c-.00086-.30427.21258-.67396.47736-.82684z" fill="#d8463f"/></g></g><g><g><path d="m48.4148 13.08842.90759 4.3134-.54913.31704c-.00376.00217-.00752.00423-.01123.0062-.03636.01763-.0607.02486-.08351.02757-.08889.00015-.13911-.04309-.15561-.1224l-.79663-3.7894c-.03426-.16329.08698-.4051.24958-.49898z" fill="#84dbff"/></g></g><g><path d="m36.52435 5.69125c-.1828-.10621-.4164-.10248-.70558.02206l-8.96744 5.17736c-.26479.15287-.47824.52256-.47735.82683l.02684 9.47518 11.51451 6.6915-.02687-9.4752c-.00085-.30427.2126-.67395.47735-.82683l8.96744-5.17736c.28922-.12453.52278-.12827.70558-.02205z" fill="#e74c3c"/></g></g></g><g><g enable-background="new"><g><g><path d="m14.04377 42.22366-12.00494-6.9765-.03883-13.69815 12.00493 6.9765z" fill="#e0e2e2"/></g></g><g><g><path d="m14.00493 28.52551-12.00493-6.9765 23.7042-13.71937 12.00493 6.9765z" fill="#ecf0f1"/></g></g><g><g><path d="m37.70913 14.80614.03883 13.69816-23.70419 13.71936-.03884-13.69815z" fill="#d4d6d6"/></g></g></g></g><g><g><path d="m39.98093 18.15892c.12884-.07438.23315-.01597.23357.13207l.01037 3.65837c.00042.14804-.10323.32652-.23206.40091l-.93567.54021c-.12794.07387-.23224.01544-.23266-.1326l-.01037-3.65837c-.00042-.14804.10321-.32651.23115-.40038z" fill="#84dbff"/></g></g><g><g><g><path d="m46.61097 14.84597c.09509-.0549.17704-.02653.19778.06887l.88019 4.05923c.02794.12806-.06763.32029-.19647.39467l-.68332.39452c-.43628.25189-.87016.41239-1.28028.47327l-1.056.15559c-.41014.0609-.84312.21985-1.28032.47226l-1.36395.78747c-.11107.06413-.20199.01334-.20236-.11532l-.01013-3.57464c-.00036-.12763.08997-.2841.20104-.34822z" fill="#84dbff"/></g></g><g><g><path d="m48.27442 19.2374c.00541.02756.00817.05766.00827.08931l.01337 4.71716c.00018.06433-.04588.14307-.10184.17539l-2.2623 1.30614c-.90388-1.55832-2.46648-1.58234-4.55701-.37537-.03187.0184-.06392.03712-.09603.05608l-.02129-7.50969c-.00055-.19604.13673-.43382.30733-.53232l5.39359-3.11399c.1635-.09439.30515-.04219.33766.12415zm-.78195.13134c.12884-.07438.22441-.26661.19647-.39467l-.88019-4.05923c-.02074-.0954-.1027-.12377-.19778-.06887l-4.79381 2.76771c-.11107.06413-.20141.2206-.20105.34822l.01014 3.57464c.00036.12866.09129.17945.20236.11532l1.36395-.78748c.43719-.25241.87017-.41137 1.28031-.47227l1.056-.15559c.41012-.06088.84401-.22139 1.28029-.47328z" fill="#c14242"/></g></g></g></g><g><path d="m39.66161 31.52688 5.80091-3.34109c-.2528-1.05909-1.05221-1.54419-1.85162-1.54419-.4373 0-.89508.13662-1.35969.40302-1.44856.84049-2.5896 2.80145-2.5896 4.48226z" fill="#3f434f"/></g><g><path d="m42.59399 27.63671c-1.24416.71832-2.25551 2.47004-2.25146 3.89969.00407 1.43656 1.02203 2.01668 2.26619 1.29836 1.25021-.72181 2.26155-2.47355 2.25748-3.91011-.00405-1.42964-1.02201-2.00974-2.27221-1.28794z" fill="#525566"/></g><g><g><path d="m44.34785 29.2825c.00314 1.10897-.77006 2.45732-1.73253 3.013-.97297.56477-1.75389.11975-1.75443-.9998-.00313-1.10405.77538-2.44828 1.74307-3.00698.95984-.55115 1.74077-.10612 1.74389.99378zm-1.41939-.81188c.00843.18581.01682.35954.02521.53025.00295.11028.00327.2251.00885.33387.00966.11772.06665.16538.15439.11472.01134-.00655.02318-.01471.03551-.0246.24966-.20164.49402-.41233.75416-.63214-.22221-.33782-.53595-.44119-.97812-.3221m-.68394 1.24536c.00975-.27802.0195-.55605.03186-.83559l-.01322-.01961c-.43353.38045-.74828.8497-.96523 1.43804.16843-.04883.32634-.0946.48425-.14338.0658-.01983.13422-.04117.20263-.06555.03273-.0102.06208-.02278.08821-.03787.11044-.06376.16344-.1723.1715-.33604m-.694 2.34379c.1046-.26923.2066-.52485.30333-.78046.05228-.13915.01783-.2161-.06907-.20831-.20277.01719-.41337.06008-.63717.09244.01704.43509.14692.72331.40291.89633m1.85486-1.6732c.03442.06185.07933.10856.119.16435.05551.07085.11103.14171.17447.22011.24103-.45697.35047-.8773.35715-1.3079-.19958.21207-.38079.40144-.55935.59533-.10768.11663-.14157.24213-.09127.32811m-.8024 1.586c.18424-.10637.36987-.25529.56329-.44915-.16359-.09624-.31137-.19856-.47488-.26761-.01156-.00455-.03296.00278-.05776.01711-.04876.02815-.11068.08334-.13674.12848-.14155.24214-.26463.4948-.40085.75807.17105-.0279.33841-.0896.50694-.1869m.00281-2.11105c-.00149.00084-.00298.0017-.00447.00256-.20324.11734-.37885.42328-.37296.65725.00327.23233.1721.3244.37505.20723.00161-.00093.0032-.00187.00482-.00283.20512-.11842.37286-.412.37219-.6477-.00065-.23266-.17215-.33342-.37463-.21651m-.00383-.42152c-.05785.0334-.10503.11814-.10484.18462.00282.06496.04767.09053.10552.05713s.10503-.11513.10485-.18161c-.00018-.06346-.04767-.09051-.10553-.06014m.28562 1.33329c.00282.06496.0503.089.10552.05712.05785-.0334.10503-.11512.10485-.1816-.00018-.06346-.04767-.09051-.10552-.05711-.0014.00072-.00278.00149-.00417.00229-.05356.03091-.10087.1145-.10068.1793m-.91967-.13792c.05523-.03189.10241-.11362.10222-.18009-.00018-.06346-.04767-.09051-.1029-.05862-.00146.00076-.00291.00156-.00436.0024-.05597.03232-.10322.11587-.10048.17919.00019.06648.04768.09052.10552.05712m1.29645-.7485c.05785-.0334.1024-.11361.10221-.18009-.00018-.06346-.04767-.09051-.10289-.05863-.00146.00076-.00291.00156-.00435.0024-.05585.03225-.10067.1144-.10049.17919.00281.06497.04766.09053.10552.05713m-1.0868 1.29635c.00282.06496.04767.09052.10551.05712.05786-.03341.10241-.11361.10222-.18008-.00018-.06346-.04767-.09051-.1029-.05862-.00145.00076-.0029.00156-.00435.00239-.05584.03224-.10066.11439-.10048.17919" fill="#ecf0f1"/></g></g><g><path d="m24.12353 40.49903 5.80091-3.34109c-.25281-1.05909-1.05221-1.54419-1.85162-1.54419-.4373 0-.89507.13662-1.35969.40302-1.44857.8405-2.5896 2.80146-2.5896 4.48226z" fill="#3f434f"/></g><g><path d="m27.0559 36.60887c-1.24416.71832-2.25551 2.47004-2.25146 3.89969.00407 1.43656 1.02204 2.01668 2.26619 1.29837 1.25021-.72181 2.26155-2.47355 2.25748-3.91011-.00404-1.42965-1.022-2.00975-2.27221-1.28795z" fill="#525566"/></g><g><g><path d="m28.80976 38.25466c.00315 1.10897-.77006 2.45732-1.73253 3.013-.97297.56477-1.75389.11975-1.75443-.99981-.00313-1.10405.77538-2.44828 1.74307-3.00698.95985-.55114 1.74078-.10612 1.74389.99379zm-1.41938-.81188c.00843.18581.01682.35954.02521.53025.00295.11028.00327.2251.00885.33387.00966.11771.06665.16538.15439.11472.01134-.00655.02318-.01471.03551-.0246.24966-.20164.49402-.41233.75416-.63214-.22221-.33782-.53595-.4412-.97812-.3221m-.68394 1.24536c.00975-.27802.0195-.55605.03187-.83559l-.01322-.01961c-.43353.38044-.74828.8497-.96523 1.43804.16844-.04883.32635-.0946.48425-.14338.06579-.01984.13422-.04117.20263-.06555.03273-.0102.06207-.02278.08821-.03787.11043-.06377.16343-.1723.17149-.33604m-.694 2.34379c.1046-.26923.2066-.52485.30333-.78046.05229-.13915.01783-.21611-.06907-.20831-.20277.01719-.41336.06008-.63716.09244.01703.43509.14691.72331.4029.89633m1.85485-1.6732c.03442.06185.07933.10856.119.16435.05552.07085.11103.14171.17447.22011.24103-.45697.35047-.8773.35715-1.3079-.19958.21207-.38079.40144-.55935.59533-.10767.11663-.14156.24213-.09127.32811m-.80239 1.586c.18424-.10637.36987-.25529.56329-.44915-.16359-.09624-.31137-.19856-.47488-.26761-.01156-.00455-.03296.00278-.05776.01711-.04877.02815-.11069.08334-.13674.12849-.14155.24213-.26463.4948-.40085.75807.17105-.02791.33841-.08961.50694-.18691m.00281-2.11105c-.00149.00084-.00298.00169-.00447.00256-.20324.11734-.37885.42328-.37295.65725.00327.23233.1721.3244.37505.20723.00161-.00093.0032-.00187.00482-.00283.20511-.11842.37286-.412.37219-.6477-.00066-.23266-.17216-.33342-.37464-.21651m-.00383-.42152c-.05785.0334-.10503.11814-.10484.18462.00282.06496.04767.09053.10552.05713s.10503-.11513.10485-.18161c-.00018-.06346-.04767-.09051-.10553-.06014m.28561 1.33329c.00282.06496.0503.089.10552.05712.05785-.0334.10503-.11512.10485-.1816-.00018-.06345-.04767-.09051-.10552-.05711-.0014.00072-.00278.00149-.00417.00229-.05355.03091-.10086.1145-.10068.1793m-.91966-.13791c.05523-.03189.10241-.11362.10222-.1801-.00018-.06345-.04767-.09051-.1029-.05862-.00145.00076-.00291.00156-.00436.0024-.05598.03232-.10322.11587-.10048.17919.00019.06648.04768.09052.10552.05713m1.29644-.74851c.05785-.0334.1024-.11361.10221-.18009-.00018-.06345-.04767-.09051-.10289-.05862-.00146.00076-.00291.00156-.00435.0024-.05585.03225-.10068.1144-.10049.17919.00282.06496.04767.09052.10552.05712m-1.08679 1.29635c.00282.06496.04767.09052.10551.05712.05786-.03341.10241-.11361.10222-.18008-.00018-.06345-.04767-.09051-.1029-.05862-.00146.00076-.0029.00156-.00435.00239-.05584.03224-.10067.11439-.10048.17919" fill="#ecf0f1"/></g></g><g><path d="m18.32261 43.85059 5.80091-3.34109c-.25281-1.05909-1.05221-1.54419-1.85162-1.54419-.4373 0-.89507.13662-1.35969.40302-1.44856.84049-2.5896 2.80146-2.5896 4.48226z" fill="#3f434f"/></g><g><path d="m21.25499 39.96043c-1.24416.71832-2.25551 2.47004-2.25146 3.89969.00407 1.43656 1.02204 2.01668 2.26619 1.29836 1.25021-.72181 2.26155-2.47355 2.25748-3.91011-.00404-1.42964-1.022-2.00975-2.27221-1.28794z" fill="#525566"/></g><g><g><path d="m23.00885 41.60621c.00315 1.10897-.77006 2.45732-1.73253 3.013-.97297.56477-1.75389.11975-1.75443-.99981-.00313-1.10405.77538-2.44828 1.74307-3.00698.95985-.55113 1.74078-.10611 1.74389.99379zm-1.41938-.81188c.00843.18581.01682.35954.02521.53025.00295.11028.00327.2251.00885.33387.00966.11771.06665.16538.15439.11472.01134-.00655.02318-.01471.03551-.0246.24966-.20164.49402-.41233.75416-.63214-.22221-.33782-.53595-.44119-.97812-.3221m-.68394 1.24537c.00975-.27802.0195-.55605.03187-.8356l-.01322-.01961c-.43353.38045-.74828.8497-.96523 1.43804.16844-.04883.32635-.0946.48425-.14338.06579-.01984.13422-.04117.20263-.06554.03273-.0102.06207-.02279.08821-.03787.11043-.06377.16342-.1723.17149-.33604m-.694 2.34379c.1046-.26923.2066-.52485.30333-.78046.05229-.13914.01783-.2161-.06907-.20831-.20277.01719-.41337.06009-.63717.09244.01704.43509.14692.7233.40291.89633m1.85485-1.67321c.03442.06185.07933.10856.119.16435.05552.07085.11103.14171.17447.2201.24103-.45697.35047-.8773.35715-1.3079-.19958.21207-.38079.40144-.55935.59533-.10767.11665-.14156.24214-.09127.32812m-.8024 1.586c.18424-.10637.36987-.25529.56329-.44915-.16359-.09624-.31137-.19856-.47488-.26761-.01156-.00455-.03296.00278-.05776.01711-.04877.02814-.11069.08334-.13674.12848-.14155.24214-.26463.4948-.40085.75807.17106-.0279.33842-.0896.50694-.1869m.00281-2.11105c-.00149.00084-.00298.00169-.00447.00256-.20324.11734-.37885.42328-.37295.65725.00327.23233.1721.32441.37505.20723.00162-.00093.0032-.00187.00482-.00283.20511-.11842.37286-.412.37219-.64769-.00065-.23267-.17215-.33342-.37464-.21652m-.00382-.42152c-.05785.0334-.10502.11814-.10484.18462.00282.06496.04767.09053.10552.05713s.10503-.11513.10485-.18161c-.00018-.06345-.04767-.09051-.10553-.06014m.28561 1.3333c.00282.06496.0503.089.10552.05712.05785-.0334.10503-.11512.10485-.1816-.00018-.06346-.04767-.09051-.10552-.05711-.0014.00072-.00278.00149-.00417.00229-.05355.03091-.10086.1145-.10068.1793m-.91966-.13792c.05523-.03189.10241-.11362.10222-.18009-.00018-.06346-.04767-.09051-.1029-.05862-.00145.00076-.00291.00156-.00436.0024-.05598.03232-.10322.11587-.10048.17919.00019.06647.04768.09052.10552.05712m1.29644-.7485c.05785-.0334.1024-.11361.10221-.18009-.00018-.06346-.04767-.09051-.10289-.05863-.00146.00076-.00291.00156-.00435.0024-.05585.03225-.10068.1144-.10049.1792.00282.06495.04767.09052.10552.05712m-1.08679 1.29635c.00282.06496.04767.09052.10551.05712.05786-.03341.10241-.11361.10222-.18008-.00018-.06346-.04767-.09051-.1029-.05862-.00145.00076-.0029.00156-.00435.00239-.05584.03224-.10067.11438-.10048.17919" fill="#ecf0f1"/></g></g></g><g><g><g><path d="m6.09625 39.25423c.13152.07593.23867.25861.23824.41118l-.00194.68442c-.00043.15113-.10827.21259-.23979.13665l-2.55702-1.4763.00175-.61613.00175-.61613z" fill="#e0e2e2"/></g></g><g><g><path d="m3.53748 38.39406-.00175.61613-.54757-.31614c-.04931-.02847-.08964-.09834-.08948-.15501l.00145-.51295z" fill="#f1c40f"/></g></g><g><g><path d="m3.53923 37.77794-.00175.61613-.63734-.36797.00145-.51295c.00016-.05666.04075-.07982.09007-.05135z" fill="#e74c3c"/></g></g><g enable-background="new"><g><g><path d="m12.94833 43.44104-.00349 1.23226-2.55702-1.4763c-.13279-.07667-.23868-.26152-.23825-.41265l.00194-.68442c.00043-.15257.10701-.21185.23981-.13519z" fill="#e0e2e2"/></g></g><g><g><path d="m13.49463 43.75645c.04933.02848.08964.09835.08948.15501l-.00145.51295-.63607-.36724.00175-.61613z" fill="#e74c3c"/></g></g></g><g><g><path d="m13.58266 44.42441-.00145.51295c-.00016.05666-.04074.07983-.09007.05135l-.5463-.3154.00175-.61613z" fill="#f1c40f"/></g></g></g></g><g><g><path d="m49.86625 17.8894-1.09705-.63338c-.03028-.01749-.05767-.01907-.07743-.00759l-.1613.09375c.01977-.01149.04713-.0099.07742.00758l1.09706.63339c.06064.03501.10907.11931.10888.18815l-.00578 2.03635c-.0001.03436-.01214.05851-.03165.06985l.16132-.09374c.0195-.01134.03156-.0355.03165-.06985l.00577-2.03635c.00018-.06884-.04825-.15314-.10889-.18816z" fill="#5b5e71"/></g><g><g><path d="m48.60788 17.34976c-.06028-.0348-.10902-.0066-.10921.06224l-.00577 2.03635c-.0002.06926.04822.15314.10851.18795l1.09706.63339c.06064.03501.10939.00723.10958-.06203l.00577-2.03635c.0002-.06885-.04823-.15315-.10887-.18816z" fill="#525566"/></g><g><path d="m48.67605 19.50704c-.01384-.00802-.03381-.04227-.03389-.05823l.00539-1.9038.98276.56743c.01392.00802.03411.04249.03425.05859l-.00539 1.90365z" fill="#3498db"/></g></g></g><g><g><path d="m49.23297 17.66813h-.00014c-.03846-.00014-.06958-.0314-.06945-.06972l.00095-.34671-1.17182-.67656c-.0333-.01916-.04471-.0617-.02541-.095.01916-.03316.06197-.04458.095-.02542l1.20675.69668c.02161.01237.03493.03547.03479.06034l-.00109.38694c-.00013.03847-.03125.06945-.06958.06945z" fill="#3f434f"/></g></g></g></svg>