<svg id="Layer_1" enable-background="new 0 0 52 52" height="512" viewBox="0 0 52 52" width="512" xmlns="http://www.w3.org/2000/svg"><g><g><g><g><g><g><g><g><g><g><path d="m36.20456 26.84249-9.89786 5.81961-4.35098-2.54934-1.25957-.72101-.02539-.01281-4.3256-2.53645 9.89794-5.81961z" fill="#fed57a"/></g></g></g><g><path d="m21.01713 41.50314-.72891-.4236 2.47617-1.42962.72891.4236z" fill="#3f434f"/></g><g><path d="m31.73024 41.32766.72892-.4236-2.47618-1.42961-.72891.42359z" fill="#3f434f"/></g><g><g><g><path d="m36.19828 26.83227-.03207 11.07159-9.89889 5.81951.03207-11.0716 4.26065-2.51256 1.28139-.7457z" fill="#efac41"/></g></g></g><g><g><g><path d="m26.31245 32.65831-.04031 11.05772-9.95949-5.82374.03277-11.04764v-.01648h.01638l4.32063 2.5341.98204.57977.29458.16559z" fill="#f9bb4a"/></g></g></g><g><path d="m20.28656 42.76834-.72891-.4236-.0242-13.43368.72891.42359z" fill="#525566"/></g><g><path d="m20.26236 29.33465-.72891-.42359.73295-.42318.72892.4236z" fill="#5b5e71"/></g><g><path d="m32.46081 42.59286.72891-.4236.0242-13.43368-.72891.4236z" fill="#525566"/></g><g><path d="m32.48501 29.15918.72891-.4236-.73295-.42317-.72891.4236z" fill="#5b5e71"/></g><g><g><g><g><g><g><path d="m27.67371 39.82825.29834.57451-.18477.10796-.40773.23645z" fill="#3f434f"/></g></g></g></g><g><g><g><g><path d="m27.78728 40.51072.00318 1.1365-.22294.13026-.00319-1.1365z" fill="#3f434f"/></g></g></g></g><g><g><g><g><path d="m28.8948 41.10335.00068.24328-1.53926.89938-.00068-.24328z" fill="#3f434f"/></g></g></g></g><g><g><g><g><path d="m28.67908 39.98965.00318 1.1365-.22295.13027-.00319-1.1365z" fill="#3f434f"/></g></g></g></g><g><g><g><g><path d="m28.56703 39.30629.29682.5754-.18477.10796-.40621.23556z" fill="#3f434f"/></g></g></g></g></g><g><g><g><path d="m26.96251 42.74547c-.041-.02402-.06403-.07207-.06403-.13105l-.00647-2.43165c-.00144-.10702.07338-.23807.16546-.29121l2.08767-1.22019c.05036-.02985.10072-.03349.14244-.00874.04173.02402.06474.0728.06474.13323l.00719 2.43237c0 .10848-.07122.23589-.16258.28903l-2.08767 1.21946c-.02806.01674-.05755.02475-.08489.02475-.02229.00002-.04315-.00508-.06186-.016zm2.22723-3.99693-2.08767 1.22019c-.06474.03786-.1223.13906-.1223.21404l.00648 2.43165c0 .02621.00791.04587.02086.05387.01367.00655.03525.00437.05827-.00874l2.08695-1.21946c.06331-.03713.11942-.13614.11942-.21186l-.00719-2.43237c0-.02767-.00791-.04805-.02086-.05606-.00432-.00218-.01007-.00364-.01583-.00364-.01079.00001-.02374.00438-.03813.01238z" fill="#3f434f"/></g></g></g></g><g><g><path d="m18.75875 36.95538c.07808.04512.13942.14672.13942.23703l-.00555 1.29218c0 .08466-.06137.11855-.13387.07901l-2.01877-1.17935c-.07805-.04512-.13942-.15237-.13942-.23703l.00558-1.29225c0-.09024.06133-.12413.13383-.07894z" fill="#fff"/></g><g><path d="m18.70554 37.61111-.00017.05795-1.91201-1.11701.00016-.05795z" fill="#5b5e71"/></g><g><path d="m18.70602 37.43721-.00016.05795-1.91201-1.11701.00016-.05795z" fill="#5b5e71"/></g><g><path d="m18.707 37.08947-.00017.05795-1.91201-1.11701.00016-.05795z" fill="#5b5e71"/></g><g><path d="m18.70359 38.3066-.00017.05795-1.91201-1.11701.00016-.05795z" fill="#5b5e71"/></g><g><path d="m18.70407 38.1327-.00016.058-1.91201-1.117.00016-.05801z" fill="#5b5e71"/></g><g><path d="m18.70456 37.95886-.00016.05794-1.91202-1.117.00017-.05795z" fill="#5b5e71"/></g><g><path d="m18.70505 37.78496-.00016.05794-1.91202-1.11701.00016-.05794z" fill="#5b5e71"/></g><g><path d="m18.70651 37.26331-.00016.05801-1.91202-1.11701.00016-.058z" fill="#5b5e71"/></g></g><g><path d="m32.48498 29.15913-.7329-.42324-.02185 12.59162-.70017-.40398-.72388.42521 2.1546 1.24404z" fill="#474b59"/></g><g><path d="m21.01714 41.50283-.02186-12.59112-.73289.42274.0242 13.43365 2.19633-1.26774-.72586-.42423z" fill="#474b59"/></g></g></g></g></g></g><g><g><path d="m45.50362 34.06726-.01218 1.9829c0 .55954-.35276 1.10691-1.05835 1.52063-1.5328.88802-4.0996.83931-5.75402-.10959-.37711-.21889-.66906-.4743-.88802-.72972-.60825-.73002-1.36248-1.32609-2.2384-1.82475-2.36001-1.3748-5.70539-2.10452-9.18457-2.08032h-.25548c-4.76866-.03638-9.28184 1.36248-11.33772 3.85637-.26767.32848-.57179.55954-.93673.77843-1.64225.94891-4.20912.99762-5.72975.12177-.74205-.42589-1.09481-.98544-1.09481-1.55716v-1.9829c0 .57187.36494 1.13141 1.09481 1.55716 1.52063.87585 4.0996.82729 5.72975-.12162.37711-.21904.66906-.46228.93673-.77858 2.06799-2.49389 6.56906-3.89289 11.33772-3.85636h.26767c3.467-.02435 6.81238.70567 9.17239 2.08017.88802.49881 1.63015 1.09503 2.2384 1.82475.21896.25557.52309.51098.9002.73002 1.64225.94891 4.22122.99747 5.74185.10944.71776-.41358 1.07051-.96095 1.07051-1.52064z" fill="#d4d6d6"/></g><g><g><g><path d="m36.17913 27.21791.00562-1.98479c.00008-.02574.00037-.05148.00088-.07724l-.00563 1.98479c-.0005.02576-.00079.05151-.00087.07724z" fill="#d4d6d6"/></g><path d="m6.91617 18.06721v-1.98441c0 .63309.43825 1.29039 1.31484 1.78973.36521.20687.7791.37733 1.21742.49904l.18257.04875c1.14438.32873 2.15487.7548 3.01926 1.25398 2.33743 1.33914 3.61572 3.23824 3.61572 5.22265v.08515l.01219.17061v.13375l-.01219 1.85051-.01219-.17031v-.10967c0-1.97207-1.29047-3.87133-3.60353-5.19843-.87658-.49904-1.88707-.92525-3.03145-1.25383l-.18257-.04874c-.42614-.12171-.85221-.29217-1.21742-.49919-.86439-.49905-1.31483-1.15651-1.30265-1.78959z" fill="#d4d6d6"/><path d="m36.18303 26.58918c-.01219.0853-.01219.17046-.01219.25561v-1.98426c.01219-2.71483 2.41055-5.27154 6.72021-6.47678.46263-.12171.87651-.30436 1.2418-.51122.86432-.49933 1.29047-1.14445 1.30258-1.77754l-.01211 1.98441c0 .63309-.43833 1.27836-1.29047 1.77739-.36529.20701-.79136.38966-1.2418.51137-4.17576 1.16883-6.56193 3.60368-6.70802 6.22102z" fill="#d4d6d6"/><g><path d="m44.34558 14.54246c1.52348.87958 1.43116 2.37398-.20594 3.32536-.37067.21541-.78801.39491-1.2444.51606-4.38601 1.22517-6.79624 3.85049-6.71867 6.61489l.00857.15711c-.03963 2.01297 1.24802 3.94456 3.617 5.3123.86844.50139 1.88166.92693 3.02864 1.25315l.17077.04484c.43455.12567.84613.2917 1.21922.5071 1.64784.95138 1.75689 2.43682.24329 3.31644-1.529.88856-4.10146.83469-5.74929-.11669-.38087-.2199-.67675-.47117-.89512-.72247-.61213-.73006-1.3581-1.3265-2.23964-1.83545-2.36536-1.36588-5.7101-2.10394-9.18678-2.07778l-.26338-.00002c-4.77278-.03584-9.2817 1.36882-11.34404 3.855-.26929.32758-.57016.56546-.94084.78088-1.6371.95137-4.20897 1.00523-5.73244.12565-1.53125-.88407-1.44669-2.37397.19041-3.32534.37843-.21992.80354-.39493 1.24451-.51612 4.40143-1.22513 6.8039-3.84594 6.72644-6.6104l-.00869-.16604c.04532-2.00969-1.24506-3.94274-3.61272-5.30983-.86788-.50119-1.88025-.92612-3.02515-1.25114l-.17854-.04932c-.43453-.11667-.85377-.28725-1.2191-.49817-1.65561-.95587-1.75702-2.44575-.23566-3.32987 1.52125-.88406 4.08606-.82574 5.74167.13013.38087.21989.67662.46224.88724.71804.61991.73454 1.36588 1.33098 2.24741 1.83994 2.36556 1.36576 5.7101 2.10395 9.18678 2.07779l.27113-.00448c4.76503.04034 9.27395-1.36432 11.33629-3.85049.27704-.33209.57014-.57446.93306-.78537 1.63709-.95141 4.21672-1.00976 5.74797-.1257z" fill="#ecf0f1"/></g><g><path d="m33.68328 24.92968c.11624 1.19542-.59781 2.39084-2.15857 3.28751-2.90566 1.69361-7.63769 1.69361-10.57659 0-1.5939-.91329-2.32447-2.12533-2.19161-3.32075.083-1.01301.78033-2.02561 2.12523-2.80594 2.92228-1.69361 7.68755-1.69361 10.62645 0 1.36152.79695 2.09199 1.80955 2.17509 2.83918z" fill="#5b5e71"/></g><g><g enable-background="new"><g><path d="m33.85469 31.36614.09918.05764 3.72705-2.15181-.09917-.05764z" fill="#5b5e71"/></g><g><path d="m34.33873 31.64743.10495.061 3.72705-2.15182-.10495-.06099z" fill="#5b5e71"/></g><g><path d="m34.58359 31.78973.10496.061 3.72705-2.15182-.10496-.06099z" fill="#5b5e71"/></g><g><path d="m34.82853 31.93208.09911.05759 3.72705-2.15182-.0991-.05759z" fill="#5b5e71"/></g><g><path d="m35.0734 32.07438.09918.05764 3.72705-2.15182-.09918-.05764z" fill="#5b5e71"/></g></g><g><path d="m34.09964 31.50849.09909.05759 3.72706-2.15182-.0991-.05759z" fill="#5b5e71"/></g></g><g><g enable-background="new"><g><path d="m18.12189 31.86864-.09918.05764-3.72705-2.15182.09918-.05764z" fill="#5b5e71"/></g><g><path d="m17.63786 32.14993-.10495.06099-3.72706-2.15182.10495-.06099z" fill="#5b5e71"/></g><g><path d="m17.39299 32.29223-.10495.06099-3.72705-2.15182.10495-.06099z" fill="#5b5e71"/></g><g><path d="m17.14805 32.43457-.0991.05759-3.72705-2.15181.0991-.05759z" fill="#5b5e71"/></g><g><path d="m16.90318 32.57687-.09918.05764-3.72705-2.15181.09918-.05764z" fill="#5b5e71"/></g></g><g><path d="m17.87695 32.01098-.0991.0576-3.72705-2.15182.0991-.05759z" fill="#5b5e71"/></g></g><g><g enable-background="new"><g><path d="m41.77836 18.17565-.09918.05764-3.72705-2.15182.09918-.05763z" fill="#5b5e71"/></g><g><path d="m41.29433 18.45694-.10495.06099-3.72706-2.15181.10496-.06099z" fill="#5b5e71"/></g><g><path d="m41.04947 18.59924-.10496.06099-3.72705-2.15181.10495-.06099z" fill="#5b5e71"/></g><g><path d="m40.80452 18.74159-.0991.05759-3.72705-2.15182.0991-.05759z" fill="#5b5e71"/></g><g><path d="m40.55965 18.88389-.09917.05763-3.72706-2.15181.09918-.05764z" fill="#5b5e71"/></g></g><g><path d="m41.53342 18.318-.0991.05759-3.72706-2.15182.09911-.05759z" fill="#5b5e71"/></g></g><g><g enable-background="new"><g><path d="m10.63816 18.17565.09918.05764 3.72705-2.15182-.09918-.05763z" fill="#5b5e71"/></g><g><path d="m11.12219 18.45694.10495.06099 3.72706-2.15181-.10495-.06099z" fill="#5b5e71"/></g><g><path d="m11.36706 18.59924.10495.06099 3.72705-2.15181-.10495-.06099z" fill="#5b5e71"/></g><g><path d="m11.612 18.74159.0991.05759 3.72705-2.15182-.0991-.05759z" fill="#5b5e71"/></g><g><path d="m11.85686 18.88389.09919.05763 3.72705-2.15181-.09918-.05764z" fill="#5b5e71"/></g></g><g><path d="m10.8831 18.318.0991.05759 3.72705-2.15182-.0991-.05759z" fill="#5b5e71"/></g></g><g><path d="m43.08907 34.20821c.01787.18195-.02231.36924-.12943.50967-.45083.61366-1.68279.61366-2.13809 0-.10265-.14043-.14728-.32772-.12497-.50967.00447-.02082.00447-.04165.00893-.06247 0-.01041 0-.02597.00444-.03638.06697-.57728.32586-1.70067 1.18734-2.36112.84807.66566 1.1025 1.76822 1.1784 2.35071v.00521c0 .01562.00444.03117.00444.04158.00447.02082.00447.04164.00894.06247z" fill="#5b5e71"/></g><g><path d="m36.96662 28.41205s-1.81985.95564-.29658 1.59173 4.9046 1.84132 4.9046 1.84132l5.32308 2.99632s1.58137-.75993.61725-1.33142-5.10851-1.97622-5.10851-1.97622z" fill="#9ad898"/><g><path d="m42.49355 31.68687c.00752.0773-.03865.1546-.13958.21258-.18789.10951-.49387.10951-.68391 0-.10307-.05906-.15031-.13743-.14172-.21473.00537-.0655.05046-.13098.13742-.18144.18896-.10951.4971-.10951.68713 0 .08805.05153.13529.11701.14066.18359z" fill="#75ca75"/></g></g><g opacity=".3"><g><path d="m47.57132 28.28822c1.02506.59182 1.72494 1.30358 2.09408 2.05564l-7.90503 1.32723 2.26714-4.59011c1.29279.2153 2.52385.61837 3.54381 1.20724z" fill="#6dbcc9"/></g><g fill="#84dbff"><path d="m33.84344 32.99142c-.81188-1.61523-.12452-3.42708 2.06453-4.69922 2.18906-1.27214 5.32837-1.67622 8.11954-1.21123l-2.26548 4.58323z"/><path d="m39.49492 36.2543 2.26545-4.58321 7.90503-1.32723c.82039 1.61818.13131 3.43102-2.05774 4.70317-2.18905 1.27213-5.31477 1.6762-8.11274 1.20727"/></g><g><path d="m41.76203 31.66421-2.26712 4.59009c-1.2928-.21529-2.52388-.61835-3.54894-1.21017s-1.72492-1.30359-2.10253-2.05271z" fill="#6dbcc9"/></g></g></g></g><g><g><path d="m42.82972 15.99383c.01787.18195-.02231.36924-.12944.50967-.45083.61366-1.68279.61366-2.13809 0-.10265-.14043-.14728-.32772-.12497-.50967.00447-.02082.00447-.04165.00893-.06247 0-.01041 0-.02597.00444-.03638.06697-.57728.32586-1.70067 1.18734-2.36112.84807.66566 1.1025 1.76822 1.1784 2.35071v.00521c0 .01562.00444.03117.00444.04158.00448.02082.00448.04164.00895.06247z" fill="#5b5e71"/></g><g><path d="m36.70727 10.19767s-1.81985.95564-.29658 1.59173 4.90459 1.84132 4.90459 1.84132l5.32308 2.99632s1.58136-.75993.61724-1.33142-5.10851-1.97622-5.10851-1.97622z" fill="#9ad898"/><g><path d="m42.2342 13.47249c.00751.0773-.03866.1546-.13958.21258-.18789.10951-.49387.10951-.68391 0-.10307-.05906-.15031-.13743-.14172-.21473.00537-.0655.05046-.13098.13742-.18144.18896-.10951.49709-.10951.68713 0 .08805.05153.13529.11701.14066.18359z" fill="#75ca75"/></g></g><g opacity=".3"><g><path d="m47.31197 10.07384c1.02506.59182 1.72494 1.30358 2.09408 2.05564l-7.90503 1.32723 2.26714-4.59011c1.2928.2153 2.52386.61837 3.54381 1.20724z" fill="#6dbcc9"/></g><g fill="#84dbff"><path d="m33.5841 14.77705c-.81188-1.61523-.12453-3.42708 2.06453-4.69922 2.18905-1.27214 5.32837-1.67622 8.11954-1.21123l-2.26548 4.58323z"/><path d="m39.23557 18.03993 2.26546-4.58321 7.90503-1.32723c.82039 1.61818.13131 3.43102-2.05774 4.70316-2.18906 1.27214-5.31477 1.6762-8.11275 1.20728"/></g><g><path d="m41.50268 13.44983-2.26712 4.5901c-1.2928-.2153-2.52388-.61835-3.54894-1.21017-1.02507-.59182-1.72492-1.30359-2.10253-2.05271z" fill="#6dbcc9"/></g></g></g><g><g><path d="m11.57532 15.59047c.01787.18195-.02231.36924-.12944.50967-.45083.61366-1.68279.61366-2.13809 0-.10265-.14043-.14728-.32772-.12497-.50967.00447-.02082.00447-.04165.00894-.06247 0-.01041 0-.02597.00444-.03638.06697-.57728.32586-1.70067 1.18734-2.36112.84807.66565 1.1025 1.76822 1.1784 2.35071v.00521c0 .01562.00444.03117.00444.04158.00447.02082.00447.04164.00894.06247z" fill="#5b5e71"/></g><g><path d="m5.45287 9.79432s-1.81985.95564-.29658 1.59173 4.9046 1.84132 4.9046 1.84132l5.32308 2.99632s1.58137-.75993.61725-1.33142-5.10851-1.97622-5.10851-1.97622z" fill="#9ad898"/><g><path d="m10.9798 13.06913c.00752.0773-.03866.1546-.13958.21258-.18789.10951-.49387.10951-.68391 0-.10306-.05906-.1503-.13743-.14171-.21473.00537-.0655.05046-.13098.13742-.18144.18896-.10951.4971-.10951.68713 0 .08804.05153.13528.11701.14065.18359z" fill="#75ca75"/></g></g><g opacity=".3"><g><path d="m16.05757 9.67048c1.02506.59182 1.72494 1.30358 2.09408 2.05564l-7.90503 1.32723 2.26714-4.59011c1.2928.2153 2.52385.61837 3.54381 1.20724z" fill="#6dbcc9"/></g><g fill="#84dbff"><path d="m2.32969 14.37369c-.81188-1.61523-.12453-3.42708 2.06453-4.69922s5.32837-1.67622 8.11954-1.21122l-2.26548 4.58323z"/><path d="m7.98117 17.63657 2.26546-4.58321 7.90503-1.32723c.82039 1.61817.13131 3.43102-2.05774 4.70316-2.18906 1.27214-5.31477 1.6762-8.11275 1.20728"/></g><g><path d="m10.24828 13.04647-2.26712 4.5901c-1.2928-.2153-2.52388-.61835-3.54894-1.21017s-1.72492-1.30359-2.10253-2.05271z" fill="#6dbcc9"/></g></g></g><g><g><path d="m12.01733 33.58263c.01787.18195-.02231.36924-.12944.50967-.45083.61366-1.68279.61366-2.13809 0-.10265-.14043-.14728-.32772-.12497-.50967.00447-.02082.00447-.04165.00894-.06247 0-.01041 0-.02597.00444-.03638.06697-.57728.32586-1.70067 1.18734-2.36112.84807.66566 1.1025 1.76822 1.1784 2.35071v.0052c0 .01562.00444.03117.00444.04158.00447.02084.00447.04166.00894.06248z" fill="#5b5e71"/></g><g><path d="m5.89488 27.78648s-1.81985.95563-.29658 1.59172 4.9046 1.84132 4.9046 1.84132l5.32308 2.99632s1.58137-.75993.61725-1.33142-5.10851-1.97622-5.10851-1.97622z" fill="#9ad898"/><g><path d="m11.42181 31.06129c.00752.0773-.03866.1546-.13958.21258-.18789.10951-.49387.10951-.68391 0-.10306-.05906-.1503-.13743-.14171-.21473.00537-.0655.05046-.13098.13742-.18144.18896-.10951.4971-.10951.68713 0 .08805.05154.13528.11701.14065.18359z" fill="#75ca75"/></g></g><g opacity=".3"><g><path d="m16.49958 27.66265c1.02506.59182 1.72494 1.30358 2.09408 2.05564l-7.90503 1.32723 2.26714-4.59011c1.2928.2153 2.52385.61836 3.54381 1.20724z" fill="#6dbcc9"/></g><g fill="#84dbff"><path d="m2.7717 32.36585c-.81188-1.61523-.12453-3.42708 2.06453-4.69922 2.18905-1.27214 5.32837-1.67622 8.11954-1.21122l-2.26548 4.58323z"/><path d="m8.42318 35.62873 2.26546-4.58321 7.90503-1.32723c.82039 1.61817.13131 3.43102-2.05774 4.70316s-5.31477 1.6762-8.11275 1.20728"/></g><g><path d="m10.69029 31.03864-2.26712 4.5901c-1.2928-.2153-2.52388-.61835-3.54894-1.21017s-1.72492-1.30359-2.10253-2.0527z" fill="#6dbcc9"/></g></g></g></g></g><path d="m32.90508 25.06156c.00642.99159-.6418 1.98156-1.94307 2.73888-2.6025 1.51305-6.83676 1.51147-9.45532 0-1.30926-.75732-1.96873-1.74729-1.97515-2.73888 0-.0369 0-.0722.00161-.10751.05778-3.64221 3.02932-6.57846 6.68595-6.57846 3.69199 0 6.68598 2.99402 6.68598 6.68597z" fill="#d4d6d6"/></g></svg>