<svg id="Layer_1" enable-background="new 0 0 52 52" height="512" viewBox="0 0 52 52" width="512" xmlns="http://www.w3.org/2000/svg"><g><g><g enable-background="new"><g><path d="m20.65695 48.76896-.00429.56188c-.00131.17219-.11467.34348-.34064.47335-.46038.26459-1.20391.25975-1.66034-.0067-.23188-.13536-.34717-.31135-.34583-.48651l.00429-.56188c-.00134.17516.11395.35114.34583.4865.45643.26645 1.19996.27129 1.66034.0067.22596-.12987.33932-.30116.34064-.47334z" fill="#c4c6c6"/></g><g><path d="m20.31331 48.28308c.45643.26645.45898.69715.003.95922-.46038.26459-1.20391.25975-1.66034-.0067-.46081-.26901-.46117-.69843-.00079-.96302.45598-.26206 1.19732-.2585 1.65813.0105z" fill="#ecf0f1"/></g></g></g><g><g enable-background="new"><g><path d="m32.42947 42.05143-.00429.56188c-.00132.17219-.11467.34348-.34064.47335-.46038.26459-1.20391.25975-1.66034-.0067-.23188-.13536-.34717-.31135-.34583-.48651l.00429-.56188c-.00134.17516.11395.35114.34583.4865.45643.26645 1.19996.27129 1.66034.0067.22597-.12986.33933-.30115.34064-.47334z" fill="#c4c6c6"/></g><g><path d="m32.08583 41.56556c.45643.26645.45898.69715.003.95922-.46038.26459-1.20391.25975-1.66034-.0067-.46081-.26901-.46116-.69843-.00079-.96302.45598-.26207 1.19732-.25851 1.65813.0105z" fill="#ecf0f1"/></g></g></g><g><g enable-background="new"><g><path d="m5.93953 40.62535-.00429.56189c-.00131.17218-.11467.34347-.34064.47334-.46038.26459-1.20391.25975-1.66034-.0067-.23188-.13536-.34717-.31135-.34583-.48651l.00429-.56188c-.00134.17516.11395.35114.34583.4865.45643.26645 1.19996.27129 1.66034.0067.22596-.12986.33932-.30115.34064-.47334z" fill="#c4c6c6"/></g><g><path d="m5.59588 40.13948c.45643.26645.45898.69715.003.95922-.46038.26459-1.20391.25975-1.66034-.0067-.46081-.26901-.46117-.69843-.00079-.96302.45599-.26207 1.19732-.25851 1.65813.0105z" fill="#ecf0f1"/></g></g></g><g><g enable-background="new"><g><path d="m44.202 35.3339-.00429.56189c-.00132.17218-.11468.34347-.34064.47334-.46038.26459-1.20391.25975-1.66034-.0067-.23188-.13536-.34717-.31135-.34583-.48651l.00429-.56188c-.00134.17516.11395.35114.34583.4865.45643.26645 1.19996.27129 1.66034.0067.22597-.12986.33932-.30115.34064-.47334z" fill="#c4c6c6"/></g><g><path d="m43.85836 34.84803c.45643.26645.45898.69715.003.95922-.46038.2646-1.20391.25975-1.66034-.0067-.46081-.26901-.46117-.69843-.00079-.96302.45598-.26206 1.19731-.2585 1.65813.0105z" fill="#ecf0f1"/></g></g></g><g><g enable-background="new"><g><path d="m38.49587 3.85461-.03414 4.46966-3.16688 1.82009.03414-4.46965z" fill="#c4c6c6"/></g><g><path d="m35.32899 5.67471-.03414 4.46965-3.17694-1.85461.03414-4.46966z" fill="#e0e2e2"/></g><g><path d="m38.49587 3.85461-3.16688 1.8201-3.17694-1.85462 3.16689-1.82009z" fill="#ecf0f1"/></g></g></g><g><g enable-background="new"><g><path d="m48.04075 11.94252c-.16404-.08847-.37246-.0785-.61438.05194-.47287.2719-.85983.92801-.85148 1.47639-.00126.26318.08553.45008.23865.5385l-10.39678-6.10703c-.15313-.08842-.25089-.27537-.24957-.54953.00258-.53734.3896-1.20444.86241-1.46536.24198-.14141.4504-.15139.60347-.05185z" fill="#fa5168"/></g><g><path d="m47.42902 11.9964c.47041-.26859.85572-.04658.85466.4925s-.38811 1.20208-.85853 1.47067-.8557.04657-.85464-.49251.3881-1.20207.85851-1.47066z" fill="#f34858"/></g></g></g><g><g enable-background="new"><g><path d="m20.87535 13.27319c.16488-.08689.37319-.07491.61386.05784.47023.27643.85087.93623.83726 1.4845-.00126.26318-.08984.44924-.24381.53619l12.15873-6.99915c.15396-.08695.25352-.27295.25484-.54711.00258-.53734-.37801-1.20813-.84829-1.47358-.24061-.14373-.44893-.15571-.60294-.05765z" fill="#fa5168"/></g><g><path d="m21.48653 13.33295c-.46781-.2731-.85524-.0548-.85935.48427-.00412.53907.37655 1.20575.84436 1.47885s.85521.05478.85933-.48428c.00411-.53908-.37653-1.20575-.84434-1.47884z" fill="#f34858"/></g></g></g><g><g><g><g enable-background="new"><g><path d="m20.13674 40.56937-.05114 8.11858c-.00069.09044-.06068.18045-.18.24903-.24017.13803-.62844.13617-.86884-.00417-.12097-.07062-.18111-.16265-.18041-.25425l.05114-8.11858c-.0007.0916.05944.18363.18041.25425.2404.14034.62867.1422.86884.00417.11931-.06858.17931-.1586.18-.24903z" fill="#525566"/></g><g><path d="m19.95633 40.31512c.2404.14034.24058.36525.00041.50328s-.62844.13617-.86884-.00417-.24058-.36524-.00041-.50327c.24017-.13804.62844-.13618.86884.00416z" fill="#5b5e71"/></g></g></g><g><g enable-background="new"><g><path d="m20.43074 40.09783-.0109 1.42678c-.00102.13393-.08962.26724-.26582.3685-.35627.20476-.93232.202-1.28734-.00526-.17945-.10476-.26867-.24129-.26763-.37719l.0109-1.42677c-.00104.13589.08818.27243.26763.37718.35503.20726.93107.21002 1.28734.00526.1762-.10126.2648-.23457.26582-.3685z" fill="#5b5e71"/></g><g><path d="m20.1643 39.72156c.35503.20726.3553.54093.00062.74477-.35627.20476-.93232.202-1.28734-.00526-.35661-.20818-.35688-.54185-.00061-.74661.35467-.20384.93072-.20108 1.28733.0071z" fill="#525566"/></g></g></g></g><g><g><g enable-background="new"><g><path d="m31.91533 33.85187-.05114 8.11858c-.00069.09044-.06068.18045-.18.24903-.24017.13803-.62844.13617-.86884-.00417-.12097-.07062-.18111-.16265-.18041-.25425l.05114-8.11858c-.0007.0916.05944.18363.18041.25425.2404.14034.62867.1422.86884.00417.11931-.06858.17931-.15859.18-.24903z" fill="#525566"/></g><g><path d="m31.73492 33.59762c.2404.14034.24058.36524.00041.50328-.24017.13803-.62844.13617-.86884-.00417s-.24058-.36525-.00041-.50328.62844-.13617.86884.00417z" fill="#5b5e71"/></g></g></g><g><g enable-background="new"><g><path d="m32.20933 33.38033-.0109 1.42678c-.00102.13393-.08962.26723-.26582.3685-.35627.20476-.93232.202-1.28734-.00526-.17945-.10476-.26867-.24129-.26763-.37719l.0109-1.42678c-.00104.13589.08818.27243.26763.37719.35503.20726.93107.21002 1.28734.00526.1762-.10126.2648-.23457.26582-.3685z" fill="#5b5e71"/></g><g><path d="m31.94289 33.00407c.35502.20725.3553.54093.00062.74477-.35627.20476-.93232.202-1.28734-.00526-.35661-.20818-.35688-.54185-.00061-.74662.35467-.20384.93072-.20108 1.28733.00711z" fill="#525566"/></g></g></g></g><g><g><g enable-background="new"><g><path d="m43.69392 27.13437-.05114 8.11858c-.00069.09044-.06068.18045-.18.24902-.24017.13803-.62844.13617-.86884-.00417-.12097-.07062-.18111-.16265-.18041-.25425l.05114-8.11858c-.0007.0916.05944.18363.18041.25425.2404.14034.62867.1422.86884.00417.11932-.06856.17931-.15858.18-.24902z" fill="#525566"/></g><g><path d="m43.51351 26.88013c.2404.14034.24058.36524.00041.50328-.24017.13803-.62844.13617-.86884-.00417s-.24058-.36525-.00041-.50328.62844-.13617.86884.00417z" fill="#5b5e71"/></g></g></g><g><g enable-background="new"><g><path d="m43.98792 26.66284-.0109 1.42678c-.00102.13393-.08962.26724-.26582.3685-.35627.20476-.93232.202-1.28734-.00526-.17945-.10476-.26867-.24129-.26763-.37719l.0109-1.42677c-.00104.13589.08818.27243.26763.37719.35503.20725.93107.21002 1.28734.00526.1762-.10128.2648-.23458.26582-.36851z" fill="#5b5e71"/></g><g><path d="m43.72149 26.28657c.35503.20725.35529.54093.00062.74477-.35627.20476-.93232.202-1.28734-.00526-.35661-.20818-.35688-.54186-.00061-.74662.35467-.20383.93071-.20107 1.28733.00711z" fill="#525566"/></g></g></g></g><g><g><g enable-background="new"><g><path d="m5.41932 32.42576-.05114 8.11858c-.00069.09044-.06068.18045-.18.24902-.24017.13803-.62844.13617-.86884-.00417-.12097-.07062-.18111-.16265-.18041-.25425l.05114-8.11858c-.0007.0916.05944.18363.18041.25425.2404.14034.62867.1422.86884.00417.11931-.06856.17931-.15858.18-.24902z" fill="#525566"/></g><g><path d="m5.23891 32.17151c.2404.14034.24058.36525.00041.50328s-.62844.13617-.86884-.00417-.24058-.36525-.00041-.50328c.24017-.13802.62844-.13617.86884.00417z" fill="#5b5e71"/></g></g></g><g><g enable-background="new"><g><path d="m5.71332 31.95422-.0109 1.42678c-.00102.13393-.08962.26724-.26582.3685-.35627.20476-.93232.202-1.28734-.00526-.17945-.10476-.26867-.24129-.26763-.37719l.0109-1.42677c-.00104.13589.08818.27243.26763.37719.35503.20725.93107.21001 1.28734.00526.17619-.10127.26479-.23457.26582-.36851z" fill="#5b5e71"/></g><g><path d="m5.44688 31.57796c.35503.20726.3553.54093.00062.74477-.35627.20476-.93232.202-1.28734-.00526-.35661-.20818-.35688-.54186-.00061-.74662.35467-.20383.93072-.20107 1.28733.00711z" fill="#525566"/></g></g></g></g><g><g><path d="m4.65591 34.31663-.57836-.33983.01243-6.31326.57836.33984z" fill="#e0e2e2"/></g><g><path d="m4.66834 28.00338-.57836-.33984 27.05754-15.44884.57836.33983z" fill="#ecf0f1"/></g><g><path d="m31.72588 12.55453-.01243 6.31325-27.05754 15.44885.01243-6.31325z" fill="#c4c6c6"/></g></g><g><path d="m3.25568 33.30583c-.00022.0466-.00042.08801.00456.12942l-.00002.00518c.02964.29516.14767.50277.32831.60713l10.9107 6.41341c-.19095-.1148-.31409-.33794-.32811-.65372-.005-.03107-.00485-.06213-.0047-.09318.00037-.07764.00592-.16042.02186-.24317.06432-.4603.30997-.95601.6378-1.3271.07286-.08245.14568-.15456.22365-.22148.08835-.07719.18183-.14403.28044-.20048l1.15215-.65697.30102-.16936 1.46879-.84174.30104-.17454 1.46873-.83659.30622-.17448 1.46876-.83659.29583-.17457 1.46876-.83659.30622-.17449 1.46873-.83659.30622-.17452 1.4636-.8418.00518.00002.30098-.16933 1.46878-.84177.30102-.16936 1.46879-.84177.30098-.16933 1.47396-.84175.30104-.17454 1.46873-.83659.30101-.16933 1.46879-.84177.30098-.16936 1.46878-.84177.30622-.17449 1.46873-.83659.30104-.17454 1.46876-.83656.30104-.17454 1.46873-.83659.30622-.17452 1.46876-.83656.30101-.17454.13494-.077c.32178-.18477.61169-.19889.81815-.07887l-10.91073-6.40823c-.20641-.1252-.50152-.1059-.82328.07369l-.17128.09752-.30104.17454-1.46876.83656-.30619.17452-1.46358.83662-.30622.17452-1.46873.8417-.30102.16936-1.46876.83659-.30101.17451-1.46879.84177-.3062.16934-1.46875.84177-.29583.16936-1.46876.83659-.30622.17452-1.46875.84177-.30622.17449-1.46876.83659-.30101.17454-1.46358.83662-.3062.1693-1.46875.84177-.30104.17454-1.46876.83659-.30619.17449-1.46879.84177-.30101.16936-1.46876.83659-.30101.17451-1.46876.83659-.30104.17454-1.47394.84173-.30102.16936-1.11067.63645c-.10896.06159-.21286.13874-.31164.23142-.07797.06691-.15078.13903-.21847.2215-.3227.37627-.56315.87199-.61713 1.33238-.01068.07243-.01621.14484-.01653.21212z" fill="#5b5e71"/><g><path d="m15.33154 37.71968c-.63953.36515-1.16426 1.26402-1.1657 1.99686s.52093 1.03386 1.16046.66871l29.9286-17.08811c.64285-.36705 1.16758-1.26592 1.16903-1.99876.00072-.36834-.13116-.623-.34278-.74491-.20826-.12385-.49957-.10543-.82101.0781z" fill="#3f434f"/></g><g fill="#5b5e71"><path d="m16.26238 38.17287c-.17232.09838-.30516.32975-.30554.51961s.13186.26985.30417.17146c.16569-.0946.30184-.32782.30221-.51768s-.13515-.26799-.30084-.17339z"/><path d="m20.94121 35.50143c-.17232.09838-.30516.32975-.30553.51961s.13186.26985.30417.17147c.16236-.0927.30183-.32783.30221-.51769s-.13849-.26609-.30085-.17339z"/><path d="m25.61672 32.83189c-.16899.09649-.30184.32785-.30221.51771s.13186.26985.30085.17337c.16569-.0946.30516-.32973.30553-.51959s-.13848-.26609-.30417-.17149z"/><path d="m30.29556 30.16045c-.16899.09649-.30184.32785-.30221.51771s.13186.26985.30085.17336c.16569-.0946.30186-.32784.30223-.5177s-.13519-.26797-.30087-.17337z"/><path d="m34.97439 27.48901c-.16899.09649-.30186.32786-.30223.51772s.13188.26984.30087.17335c.16569-.0946.30183-.32783.30221-.51769s-.13517-.26798-.30085-.17338z"/><path d="m39.65322 24.81757c-.16901.0965-.30186.32786-.30223.51772s.13186.26985.30087.17335c.16569-.0946.30184-.32783.30221-.51769s-.13516-.26798-.30085-.17338z"/></g><path d="m45.09181 21.23823c.39431-.22514.71503-.04034.71414.41152-.0009.45564-.32306 1.00751-.71738 1.23265l-29.58732 16.89325c-.39762.22703-.71833.04222-.71744-.41343.00089-.45187.32305-1.00372.72067-1.23074zm-24.15195 14.95426c.16236-.0927.30183-.32782.30221-.51768.00037-.18986-.13848-.26609-.30085-.17339-.17232.09839-.30516.32975-.30554.51962-.00037.18986.13186.26984.30418.17145m4.6755-2.66954c.16569-.0946.30516-.32971.30554-.51958.00037-.18986-.13848-.26609-.30418-.17149-.16898.09648-.30183.32785-.30221.51771-.00037.18987.13187.26984.30085.17336m-9.35434 5.34098c.16568-.0946.30183-.32781.30221-.51768.00037-.18986-.13516-.26799-.30085-.17339-.17232.09839-.30516.32975-.30554.51962-.00037.18986.13187.26984.30418.17145m18.71202-10.68386c.16568-.0946.30183-.32781.30221-.51768.00037-.18986-.13516-.26799-.30085-.17339-.16899.09649-.30187.32787-.30224.51773-.00038.18987.13189.26983.30088.17334m-4.67884 2.67144c.16569-.09461.30186-.32783.30223-.5177.00037-.18986-.13518-.26798-.30087-.17338-.16898.09648-.30183.32785-.30221.51771-.00038.18988.13187.26985.30085.17337m9.35767-5.34288c.16568-.0946.30183-.32781.30221-.51768.00037-.18986-.13516-.26799-.30085-.17339-.16901.0965-.30186.32787-.30223.51772-.00037.18987.13186.26985.30087.17335m4.67883-2.67144c.16566-.09459.30183-.32781.30221-.51768.00037-.18986-.13519-.26797-.30085-.17339-.16901.0965-.30186.32787-.30223.51772-.00037.18987.13186.26985.30087.17335" fill="#c4c6c6"/><g><g><path d="m33.87255 14.48904 10.95222 6.39289.30101-.17454-10.95219-6.39289z" fill="#525566"/></g><g><path d="m28.55803 17.52236 10.95219 6.39289.30104-.17454-10.95221-6.38771z" fill="#525566"/></g><g><path d="m23.24869 20.5557 10.94701 6.39286.30101-.16933-10.95218-6.39289z" fill="#525566"/></g><g><path d="m19.69874 22.58307 10.95224 6.38771.30098-.16933-10.947-6.39287z" fill="#525566"/></g><g><path d="m17.92897 23.5942 10.95221 6.38771.30101-.16936-10.95222-6.39289z" fill="#525566"/></g><g><path d="m14.3894 25.61644 10.947 6.39286.30622-.17451-10.95218-6.39289z" fill="#525566"/></g><g><path d="m12.61445 26.62752 10.947 6.39286.30622-.17449-10.94703-6.39286z" fill="#525566"/></g><g><path d="m7.30507 29.66089 10.94704 6.39286.30104-.17454-10.94704-6.39286z" fill="#525566"/></g><g enable-background="new"><g><path d="m32.0976 15.50012 10.95219 6.39289.30622-.17452-10.95222-6.39289z" fill="#525566"/></g><g><path d="m30.3278 16.51126 10.95222 6.39289.30104-.17455-10.94704-6.39286z" fill="#525566"/></g><g><path d="m26.78826 18.53346 10.94701 6.39287.30622-.17449-10.95222-6.39289z" fill="#525566"/></g><g><path d="m25.01328 19.54457 10.95222 6.39289.30098-.16936-10.947-6.39287z" fill="#525566"/></g><g><path d="m21.47371 21.56681 10.95222 6.39289.30104-.17454-10.94704-6.39287z" fill="#525566"/></g><g><path d="m16.15919 24.60012 10.94704 6.39287.00518.00002.30098-.16933-10.947-6.39286z" fill="#525566"/></g><g><path d="m10.84465 27.63865 10.95221 6.39289.29583-.17457-10.94703-6.38768z" fill="#525566"/></g><g><path d="m9.07488 28.64975 10.947 6.39287.30622-.17449-10.95222-6.39289z" fill="#525566"/></g><g><path d="m5.53012 30.67197 10.95219 6.39289.30102-.16937-10.95219-6.39289z" fill="#525566"/></g><g><path d="m3.88934 31.76134 10.93672 6.38245c.07286-.08245.14568-.15456.22365-.22148l-10.9419-6.38248c-.07797.06692-.15079.13903-.21847.22151z" fill="#525566"/></g><g><path d="m3.25568 33.30583c-.00022.0466-.00042.08801.00456.12942l-.00002.00518 10.9109 6.36682c-.005-.03107-.00485-.06213-.0047-.09318.00037-.07764.00592-.16042.02186-.24317l-10.91607-6.37718c-.01068.07242-.01621.14483-.01653.21211z" fill="#525566"/></g></g></g></g><g><g><path d="m17.55554 41.89786-.57836-.33983.01243-6.31326.57836.33984z" fill="#e0e2e2"/></g><g><path d="m17.56797 35.58461-.57836-.33984 27.05754-15.44884.57836.33983z" fill="#ecf0f1"/></g><g><path d="m44.62551 20.13576-.01243 6.31325-27.05754 15.44885.01243-6.31325z" fill="#c4c6c6"/></g></g><g fill="#5b5e71"><path d="m19.40008 36.79957c-.17231.09838-.30516.32975-.30553.51961s.13186.26985.30417.17146c.16569-.0946.30183-.32782.30221-.51768s-.13517-.26799-.30085-.17339z"/><path d="m24.07891 34.12813c-.17232.09838-.30516.32975-.30553.51961s.13186.26985.30417.17147c.16236-.0927.30183-.32783.30221-.51769s-.13849-.26609-.30085-.17339z"/><path d="m28.75442 31.45859c-.16899.09649-.30183.32785-.30221.51771s.13186.26985.30085.17337c.16569-.0946.30516-.32973.30553-.51959s-.13849-.26609-.30417-.17149z"/><path d="m33.43325 28.78715c-.16899.09649-.30184.32785-.30221.51771s.13186.26985.30085.17336c.16568-.0946.30186-.32784.30223-.5177s-.13518-.26797-.30087-.17337z"/><path d="m38.11209 26.11571c-.16899.09649-.30186.32786-.30223.51772s.13188.26984.30087.17335c.16569-.0946.30183-.32783.30221-.51769s-.13517-.26798-.30085-.17338z"/><path d="m42.79092 23.44427c-.16901.0965-.30186.32786-.30223.51772s.13186.26985.30087.17335c.16569-.0946.30183-.32783.30221-.51769s-.13517-.26798-.30085-.17338z"/></g></g><g><g><path d="m39.0781 24.63642c-.52963-.30739-1.28722-.2618-2.1058.19651-1.63725.94617-2.97613 3.24126-2.9852 5.12971l.00467 3.12783-1.3829-.81324.00518-3.12766c-.00077-1.8885 1.33805-4.18359 2.98515-5.11987.81857-.46816 1.56631-.5138 2.09594-.20641z" fill="#fa5168"/></g><g><path d="m36.97714 24.83775c.8186-.46739 1.56719-.50552 2.10122-.19776.54033.31129.87238.97947.87053 1.91747l-.00338 3.1295-5.957 3.40123.00338-3.1295c.00371-1.88335 1.34172-4.18255 2.98525-5.12094z" fill="#f9607f"/></g></g><g><g enable-background="new"><g><path d="m48.42729 11.74146c-.20811-.12276-.44483-.01599-.72387.13915-.23549.13804-.51311.29844-.70588.59316l-9.95593 14.89125c-.84965 1.27427-.91768 2.76101-.14578 3.19954l-.87743-.51589c-.77189-.43853-.70387-1.92527.14584-3.19965l9.95592-14.89125c.19271-.29462.43736-.52826.67279-.66631.27904-.15524.54879-.18877.7569-.0659z" fill="#f34858"/></g><g><path d="m47.67205 11.81092c.2756-.15736.54961-.19193.75793-.07187.38886.22408.42086.91322.0747 1.60788l-8.88985 15.49949c-.36825.7256-.89842 1.28935-1.42845 1.59198-.46641.2663-.93266.33051-1.2889.12523-.77218-.43854-.70251-1.92494.14534-3.19933l9.95087-14.88807c.19941-.30022.43948-.52892.67836-.66531z" fill="#fa5168"/></g></g></g><path d="m38.09747 27.19856c-.66546.37995-1.1886 1.29105-1.19007 2.03871s.51925 1.06265 1.18471.68269c.65245-.37253 1.2017-1.29843 1.20317-2.04608.00147-.74766-.54536-1.04784-1.19781-.67532z" fill="#5b5e71"/><path d="m47.64614 12.23514c-.40319.23021-.72015.78223-.72105 1.23522s.31461.64384.7178.41363c.39531-.22571.72809-.7867.72898-1.23969.0009-.45299-.33041-.63487-.72573-.40916z" fill="#5b5e71"/><g><g><g><g><g><g><path d="m30.40438 23.42995-.0168 2.10752-3.46446 1.99088.01679-2.10752z" fill="#d6b218"/></g><g><path d="m27.8658 25.20928-.00552.69304-.62925.36165.00552-.69305z" fill="#ecf0f1"/></g><g><path d="m26.93991 25.42083-.01679 2.10752-1.91535-1.11813.0168-2.10752z" fill="#e5bd13"/></g><path d="m30.40483 23.43127-3.46493 1.99085-.83668-.48979-.24223-.13855-.00489-.00246-.8318-.48732 3.46494-1.99084.8367.48733.00244.00247.23976.13854z" fill="#f1c40f"/><path d="m29.56814 22.9415-3.46492 1.99083-.24223-.13855-.00489-.00246 3.46984-1.99083.00244.00247z" fill="#d6b218"/><g><path d="m26.10322 24.93233-.0061.79732-.24485-.14139.0061-.79732z" fill="#d6b218"/></g></g><g><g><path d="m27.35917 26.60093.0655.12611-.04105.02344-.0906.05134z" fill="#3f434f"/></g><g><path d="m27.38362 26.75048-.00049.24884-.04954.02829.00049-.24885z" fill="#3f434f"/></g><g><path d="m27.6284 26.88142-.00011.05326-.34201.19528.0001-.05327z" fill="#3f434f"/></g><g><path d="m27.994 26.23847-.00035.1773c-.00011.05599-.03277.12086-.07588.15362l-.00031.1598c.03019-.01374.0529-.01234.05286.00438l-.13335.07614c.00003-.01672.02279-.04408.053-.06483l.00031-.1598c-.01967.00774-.03661.00576-.04982-.00263-.01557-.01169-.02569-.03349-.02563-.06459l.00035-.1773z" fill="#3f434f"/></g><g><path d="m27.58177 26.63734-.00049.24884-.04954.02829.00049-.24884z" fill="#3f434f"/></g><g><path d="m27.55766 26.4876.06517.1263-.04106.02344-.09025.05115z" fill="#3f434f"/></g></g></g></g></g><g><g><g><g><g><path d="m30.40485 23.43333-.01611 1.51201-.00285.59234-.11525.0614-.90318-1.56942.37242-.21927z" fill="#d6b218"/></g><path d="m30.40485 23.43333-.66497.37706-.37242.21927-.42087-.73599-.11397-.2039-.42093-.73589.07982-.04387.59074.3477.00885.00004.23807.14265.23802.14265z" fill="#f1c40f"/><path d="m29.56719 22.94305-.23938.14024-.38122.21038-.11397-.2039.37241-.21927.12414-.0701z" fill="#d6b218"/></g></g></g></g><g enable-background="new"><g><path d="m27.03737 23.1431-.70934.41215-.21042-.37242.70931-.4033z" fill="#e63044"/></g><g><path d="m30.65187 25.39756-.00004.00874-.37242.21053-.98412.55222.70045-.40334.27486-.15778z" fill="#7b242c"/></g><g><path d="m29.567 20.568h.814v5.651h-.814z" fill="#e63044" transform="matrix(-.867 .498 -.498 -.867 67.619 28.741)"/></g><g><path d="m25.36913 22.74941.70557-.40551 2.85018-1.60613-.70556.40551z" fill="#7b242c"/></g><g><path d="m31.02008 26.05364-1.35655.76264-.36824-.64723.98412-.55222-.00881-.0089.00004-.00885-.90318-1.56942-.42087-.73599-.11397-.2039-.42093-.73589-.20169-.34583-1.38308.77148-.70931.4033.21042.37242-.37237.21041-.58757-1.01969.70936-.4033 2.14556-1.20107.86809 1.51615.11393.21275.12278.21279.41207.7271.64886 1.13495.26313.45222-.00004.00874z" fill="#f34858"/></g></g></g><g><g><g enable-background="new"><g><path d="m27.5037 19.57053-.01871 1.92493c-.00111.14706.09468.29509.2859.40673.37159.21691.99616.22318 1.37302.00659.18643-.10715.27915-.24987.28024-.393l.01891-1.94525z" fill="#f34858"/></g></g></g><g><g enable-background="new"><g><path d="m29.43295 20.61747-.00879.8983c-.00109.14314-.09382.28586-.28026.393-.37684.21658-1.00143.21033-1.373-.00659-.19123-.11163-.28703-.25967-.2859-.40672l.00878-.89829c-.00112.14705.11877.30619.30999.41782.37157.21692.99616.22317 1.37301.00659.18643-.10715.25507-.26097.25617-.40411z" fill="#3f434f"/></g></g></g></g><g><g enable-background="new"><g><path d="m23.18278 12.73156-.0227 2.97038-2.1046 1.20957.0227-2.97038z" fill="#c4c6c6"/></g><g><path d="m21.07818 13.94113-.0227 2.97038-2.11128-1.23251.02269-2.97038z" fill="#e0e2e2"/></g><g><path d="m23.18278 12.73156-2.1046 1.20957-2.11129-1.23251 2.1046-1.20957z" fill="#ecf0f1"/></g></g></g><g><g enable-background="new"><g><path d="m30.94145 18.76047c-.16404-.08847-.37245-.0785-.61438.05194-.47287.2719-.85983.92801-.85148 1.47639-.00126.26318.08552.45008.23865.5385l-8.11052-4.78918c-.15313-.08842-.25089-.27537-.24957-.54953.00258-.53734.38959-1.20444.86241-1.46536.24198-.14141.4504-.15139.60347-.05185z" fill="#fa5168"/></g><g><path d="m30.32972 18.81435c.47041-.26859.85572-.04658.85466.4925s-.38811 1.20208-.85853 1.47067c-.47041.26859-.8557.04657-.85464-.49251.00107-.53909.3881-1.20207.85851-1.47066z" fill="#f34858"/></g></g></g><g><g><g><g><g><path d="m21.95629 28.44457-.02083 2.6139-4.29687 2.46922.02083-2.61389z" fill="#d6b218"/></g><g><path d="m18.80777 30.65141-.00685.85957-.78044.44854.00685-.85956z" fill="#ecf0f1"/></g><g><path d="m17.65942 30.9138-.02083 2.61389-2.37555-1.38678.02083-2.61389z" fill="#e5bd13"/></g><path d="m21.95684 28.44621-4.29744 2.46919-1.03771-.60747-.30043-.17184-.00606-.00306-1.03166-.60439 4.29746-2.46919 1.03773.60442.00303.00306.29736.17183z" fill="#f1c40f"/><path d="m20.91912 27.83876-4.29743 2.46917-.30043-.17184-.00606-.00306 4.30353-2.46916.00303.00306z" fill="#d6b218"/><g><path d="m16.62169 30.30793-.00756.98889-.30368-.17537.00755-.98889z" fill="#d6b218"/></g></g><g><g><path d="m18.17941 32.37745.08124.1564-.05092.02907-.11236.06368z" fill="#3f434f"/></g><g><path d="m18.20973 32.56292-.00061.30863-.06144.03508.00061-.30863z" fill="#3f434f"/></g><g><path d="m18.51332 32.72532-.00013.06607-.42419.24219.00013-.06606z" fill="#3f434f"/></g><g><path d="m18.96677 31.92789-.00043.2199c-.00014.06944-.04065.14989-.09411.19053l-.00039.1982c.03745-.01704.06561-.0153.06557.00544l-.16538.09443c.00004-.02074.02827-.05468.06573-.0804l.00039-.1982c-.0244.0096-.04541.00714-.06178-.00326-.01931-.0145-.03186-.04153-.03179-.08011l.00043-.2199z" fill="#3f434f"/></g><g><path d="m18.45549 32.4226-.00061.30863-.06144.03508.00061-.30863z" fill="#3f434f"/></g><g><path d="m18.42559 32.23689.08082.15664-.05092.02907-.11194.06343z" fill="#3f434f"/></g></g></g></g></g><g><g enable-background="new"><g><path d="m31.16483 17.6744-.02269 2.97038-2.1046 1.20957.02269-2.97037z" fill="#c4c6c6"/></g><g><path d="m29.06023 18.88398-.02269 2.97037-2.11128-1.23251.02269-2.97038z" fill="#e0e2e2"/></g><g><path d="m31.16483 17.6744-2.1046 1.20958-2.11128-1.23252 2.1046-1.20957z" fill="#ecf0f1"/></g></g></g></g></svg>