<svg id="Layer_1" enable-background="new 0 0 52 52" height="512" viewBox="0 0 52 52" width="512" xmlns="http://www.w3.org/2000/svg"><g><g><g><g><g enable-background="new"><g><path d="m8.89184 41.78415-2.48649-1.44878-.92476-.53425-2.38377-1.38714-.06164-21.7415 2.49677 1.44873.92476.53431 2.37348 1.37679z" fill="#e5bd13"/></g><g><path d="m34.22952 5.37018-12.23728 7.06908-.92476.53425-12.23729 7.0588-2.39405-1.38708-.9247-.53431-2.47626-1.43844 12.23734-7.06908.9247-.53431 12.23735-7.06908 2.40427 1.39742.91448.53425z" fill="#f1c40f"/></g><g><path d="m34.29117 27.12196-12.23729 7.0588-.92476.53431-12.23728 7.06908-.06165-21.75184 12.24757-7.06902.92476-.53431 12.227-7.0588z" fill="#d6b218"/></g></g></g><g><path d="m31.75332 3.93168-25.31718 14.71355-.9247-.53431 25.3274-14.71349z" fill="#e74c3c"/></g><g><path d="m21.99224 12.43926-.92476.53425-5.79496-3.37011.9247-.53431z" fill="#e74c3c"/></g><g><path d="m6.45671 18.65552-.05136 21.67985-.92476-.53425.05136-21.67991z" fill="#c44"/></g><g><path d="m22.05388 34.18076-.92476.53431-.05136-21.75178.92476-.53431z" fill="#c44"/></g></g><g><g><g><g><g enable-background="new"><g><path d="m9.53889 29.56366 21.42094-12.45799 3.55098 3.64194-21.42094 12.45799z" fill="#e5bd13"/></g><g><path d="m13.08987 33.2056 21.42094-12.45799-.06974.16534-21.42094 12.45799z" fill="#6f4f2d"/></g><g><path d="m9.53889 29.56366 3.55098 3.64194-.06974.16534-3.55097-3.64194z" fill="#d6b218"/></g></g><g enable-background="new"><g><path d="m45.36543 27.21691-10.94975-6.36329-.06973-.16535 10.94974 6.3633z" fill="#5e4427"/></g><g><path d="m45.26619 27.04173-10.94975-6.36329 3.55098-3.64858 10.94974 6.36329z" fill="#f1c40f"/></g><g><path d="m48.81498 23.39131.06971.16536-3.55095 3.64856-.06974-.16534z" fill="#e5bd13"/></g></g><g><g enable-background="new"><g><path d="m12.73563 33.21837.02503 10.37809 10.92921 6.35137-.02503-10.3781z" fill="#e5bd13"/></g><g><path d="m23.66484 39.56973-.06507 10.43026 21.69541-12.56051.06506-10.43025z" fill="#d6b218"/></g></g></g><g enable-background="new"><g><path d="m20.25548 39.91467-10.94974-6.36329 3.56001-.45695 10.94974 6.36329z" fill="#e5bd13"/></g><g><path d="m20.18691 40.15986-10.94974-6.36329.06857-.24519 10.94974 6.36329z" fill="#d6b218"/></g><g><path d="m20.25548 39.91467 3.56001-.45695-.06857.2452-3.56001.45694z" fill="#c6a51a"/></g></g><g enable-background="new"><g><path d="m27.47534 39.89388 21.42093-12.45799.06855.24518-21.42093 12.45799z" fill="#c1a11b"/></g><g><path d="m23.91533 39.43029 21.42094-12.45799 3.56.46359-21.42093 12.45799z" fill="#e5bd13"/></g><g><path d="m27.47534 39.89388.06855.24518-3.55999-.46357-.06857-.2452z" fill="#c6a51a"/></g></g><g><path d="m34.40856 20.66612v12.68005l-10.74005 6.21997-10.92999-6.34997z" fill="#f1c40f"/><path d="m34.43105 20.65786-.01912.01108v12.67878l10.92434-6.37542z" fill="#d6b218"/></g></g><path d="m12.73677 33.21537 2.92991 1.70498 7.99519 4.65145.78628-.45522 3.06234-1.77946.59591-.34762 1.49807-.86904 3.6748-2.12709 1.06768-.62074 3.65826-2.11881 1.49806-.86904 3.67481-2.13536 2.16847-1.25805" fill="none"/></g><g><g><g><g><g><g><path d="m27.79191 46.1416c0 .11589-.07451.24829-.17383.30623l-2.27606 1.316c-.03309.01652-.06623.02481-.09103.02481-.02485 0-.04966 0-.06623-.01657-.04966-.0248-.07446-.07446-.07446-.14069l-.00829-2.61538c0-.11589.08274-.25657.18206-.31451l2.27606-1.316c.05794-.03309.1076-.03309.15726-.00829.04137.02486.06623.07451.06623.14074z" fill="#fff"/></g></g></g></g><g><g><g><path d="m25.95638 44.63102.32514.61878-.20137.11627-.44436.25468z" fill="#3f434f"/></g></g></g><g><g><g><path d="m26.08015 45.36607.00347 1.22408-.24298.14031-.00346-1.22408z" fill="#3f434f"/></g></g></g><g><g><g><path d="m27.28717 46.00438.00074.26203-1.67754.96867-.00075-.26203z" fill="#3f434f"/></g></g></g><g><g><g><path d="m31.17701 44.18005c0 .11589-.07446.25657-.17378.31451l-2.27606 1.31595c-.03314.01657-.06623.02485-.09108.02485-.0248 0-.04966-.00829-.06618-.01657-.04966-.02481-.07451-.07446-.07451-.14069l-.00829-2.62366c0-.1076.0828-.24834.18211-.31451l2.27606-1.30772c.05794-.03309.1076-.04137.15726-.00829.04137.02485.06618.07451.06618.14069z" fill="#fff"/></g></g></g><g><g><g><path d="m30.35286 42.16563.00247.87215c.00078.27542-.15834.59527-.36959.75748l.00223.78609c.14816-.06832.25987-.06194.26011.02031l-.65405.37767c-.00023-.08224.11107-.2174.25914-.32014l-.00223-.78609c-.09657.03852-.17995.02919-.24508-.01174-.07684-.05716-.12715-.16413-.12759-.31714l-.00247-.87215z" fill="#3f434f"/></g></g></g><g><g><g><path d="m27.05207 44.80486.00347 1.22407-.24298.14031-.00347-1.22408z" fill="#3f434f"/></g></g></g><g><g><g><path d="m26.92996 44.06884.32348.61974-.20137.11628-.44269.25371z" fill="#3f434f"/></g></g></g></g></g></g><g><g><path d="m44.62964 33.95656v1.38576l-.00788.14172v1.35428l-6.11779 3.55883v-.51175l.00788-.36221v-1.16527l.00788-.37009v-.47239z" fill="#ecf0f1"/></g><g><g><g><path d="m44.62964 35.34232-.00788.14172-6.10991 3.52735v-.13384z" fill="#a4a9b3"/></g></g><g><g><path d="m44.62176 35.84624v.1496l-6.10991 3.52735v-.14172z" fill="#a4a9b3"/></g></g><g><g><path d="m44.62176 36.35799v.14961l-6.11779 3.52739v-.14959z" fill="#a4a9b3"/></g></g><g><g><path d="m44.62964 34.83052v.14177l-6.11779 3.53522v-.14959z" fill="#a4a9b3"/></g></g><g><g><path d="m44.62964 34.31876v.14172l-6.10991 3.52735v-.14171z" fill="#a4a9b3"/></g></g></g></g></g></g><g><g><path d="m20.11852 33.73613v.11005l-.01001 1.73999v.01001 1.72998l-.13-.08002-.50995-.27997-.01001-.01001-3.41003-1.94v-1.29004c0-.29999.20001-.59998.59003-.82996h.01001c.38-.22003.62-.44.62-.87v-1.98004h1.62v1.97003c0 .34998.15002.48999.40002.71997.06.04999.13995.11005.20996.15002.01001 0 .01001.01001.02002.01001.39995.22999.59996.52998.59996.83998z" fill="#2ecc71"/><path d="m20.11852 33.73613v.11005l-.01001 1.73999v.01001 1.72998l-.13-.08002-.50995-.27997-.01001-.01001c.03998-.23004.07001-.46002.08997-.69.02002-.23004.03003-.47003.03003-.69 0-.21002 0-.41998-.02002-.62-.01001-.10999-.01001-.21002-.01996-.31-.05005-.73999-.15002-1.41003-.25-1.91003.06.04999.13995.11005.20996.15002.01001 0 .01001.01001.02002.01001.39996.22998.59997.52997.59997.83997z" fill="#30b265"/><g><path d="m19.54852 34.63615s-.00995 0-.00995.01001c-.01001 0-.02002.01001-.03003.01001-.78003.45996-2.07001.45996-2.85999 0-.33002-.19-.53003-.43005-.60004-.68005v1.04004l3.41003 1.94.01001.01001.50995.27997.13.08002v-1.72998c0-.01001 0-.01001 0-.01001l.01001-1.73999c-.01.28997-.20995.56994-.56999.78997z" fill="#ecf0f1"/></g><path d="m19.07931 30.28506-.00342.97999c-.00086.05809-.01538.11534-.04614.17088-.01965.03844-.04699.07518-.08031.11022-.02477.02648-.05383.05125-.08544.07347-.02392.0188-.05041.03589-.0786.05213-.00086.00085-.00171.00085-.00257.00171-.02734.01537-.05553.02989-.08544.04357-.02563.01195-.05297.02306-.08031.03331-.0282.01025-.05639.0205-.08629.02906-.02649.00769-.05297.01452-.08031.02136-.0282.00598-.05639.01195-.08544.01708-.02734.00513-.05383.00854-.08117.01111-.0282.00427-.05724.00683-.08544.00854-.02649.00257-.05383.00428-.08031.00428-.02905.00086-.0581.00086-.08629 0-.02734 0-.05383-.00171-.08031-.00428-.02905-.00171-.05724-.00427-.08544-.00769-.02734-.00342-.05383-.00683-.08031-.01196-.02905-.00513-.0581-.01111-.08629-.01794-.02734-.00599-.05383-.01282-.08031-.02136-.02905-.0077-.05724-.0171-.08544-.0282-.02819-.01025-.05468-.02136-.08116-.03331-.02991-.01368-.0581-.0282-.08544-.04357 0-.00086-.00085-.00086-.00085-.00086-.0282-.01624-.05468-.03333-.07946-.05213-.03247-.02307-.06152-.04784-.0863-.07348-.03332-.03418-.05981-.07006-.08031-.1068-.03332-.0581-.04956-.11962-.04956-.18028l.00342-.97999c0 .05895.01538.11791.04614.1743.01965.03759.04613.07347.08031.10851.02478.02648.05383.05211.0863.07518.02477.0188.05126.03674.08031.05298.00085.00086.00171.00086.00256.0017.02649.01538.05468.0299.08288.04272.02649.01282.05383.02393.08116.03332.02734.01111.05639.0205.08544.02906.02564.00853.05297.01537.08031.02136.0282.00768.05725.01281.08629.01794.02649.00512.05297.0094.08031.01195.0282.00428.05639.00684.08544.00855.02649.00257.05383.00342.08031.00428.02905.00086.05724.00086.08629 0 .02649 0 .05383-.00171.08031-.00342.02905-.00171.05724-.00428.08544-.0077.02734-.00341.05383-.00683.08117-.01195.02819-.00513.05724-.01026.08544-.0171.02734-.00598.05383-.01282.08031-.02136.0299-.00769.0581-.01708.08629-.02819.02819-.00941.05468-.0205.08031-.03247.02991-.01367.0581-.02819.08544-.04358.00171-.00085.00428-.00257.00598-.00342.02734-.01538.05212-.03247.07519-.04955.03161-.02307.06067-.04785.08544-.07263.03332-.03417.05981-.0692.08031-.10594.03247-.05809.04956-.11875.04956-.1794z" fill="#7d5193"/><path d="m18.78335 29.87108c.39323.22703.39453.59501.00539.82116-.39067.22703-1.02595.22748-1.41918.00045-.39245-.22658-.39375-.59456-.00308-.8216.38914-.22614 1.02442-.22659 1.41687-.00001z" fill="#9b59b6"/><path d="m18.73755 29.89801c-.36739-.21189-.9612-.21189-1.32517 0-.20078.11704-.29135.2734-.26913.42634.01623-.12388.10595-.24522.26913-.34005.36397-.21189.95778-.21189 1.32517 0 .1649.09568.25632.21701.27341.34261.02136-.15379-.07006-.31186-.27341-.4289z" fill="#7d5193"/><g fill="#76508c"><path d="m18.73755 29.98431c-.36739-.21189-.9612-.21189-1.32517 0-.16319.09483-.2529.21616-.26913.34005.01623.12474.1068.24691.27255.34176.36739.21189.96119.21189 1.32688-.00085.16234-.09399.25205-.21445.26828-.33834-.01709-.12562-.10851-.24694-.27341-.34262z"/><path d="m19.02975 30.46447v.97146c-.01965.03844-.04699.07518-.08031.11022v-.97574c.03332-.03417.05981-.0692.08031-.10594z"/><path d="m18.864 30.64304v.97657c-.02392.0188-.05041.03589-.0786.05213-.00086.00085-.00171.00085-.00257.00171v-.97744c.00171-.00085.00428-.00257.00598-.00342.02734-.01538.05212-.03246.07519-.04955z"/><path d="m18.69739 30.73959v.97743c-.02563.01195-.05297.02306-.08031.03331v-.97828c.02819-.0094.05468-.0205.08031-.03246z"/><path d="m18.53079 30.80025v.97915c-.02649.00769-.05297.01452-.08031.02136v-.97915c.02734-.00598.05382-.01282.08031-.02136z"/><path d="m18.36503 30.8387v.97913c-.02734.00513-.05383.00854-.08117.01111v-.97829c.02735-.00341.05383-.00683.08117-.01195z"/><path d="m18.19843 30.85835v.97913c-.02649.00257-.05383.00428-.08031.00428v-.97999c.02648 0 .05382-.00171.08031-.00342z"/><path d="m18.03182 30.86177v.97999c-.02734 0-.05383-.00171-.08031-.00428v-.97998c.02648.00256.05382.00342.08031.00427z"/><path d="m17.86606 30.84894v.98086c-.02734-.00342-.05383-.00683-.08031-.01196v-.98084c.02649.00511.05297.00939.08031.01194z"/><path d="m17.69946 30.81905v.98084c-.02734-.00599-.05383-.01282-.08031-.02136v-.98085c.02563.00854.05297.01539.08031.02137z"/><path d="m17.5337 30.76864v.9817c-.02819-.01025-.05468-.02136-.08116-.03331v-.98171c.02648.01281.05383.02392.08116.03332z"/><path d="m17.3671 30.69089v.98256c0-.00086-.00085-.00086-.00085-.00086-.0282-.01624-.05468-.03333-.07946-.05213v-.98256c.02477.01881.05126.03675.08031.05299z"/><path d="m17.20049 30.56273v.98425c-.03332-.03418-.05981-.07006-.08031-.1068v-.98597c.01965.0376.04613.07348.08031.10852z"/></g><path d="m20.11852 33.84617-.01001 1.73999v.01001 1.72998l-.13-.08002-.50995-.27997c.07001-.46002.10999-.94.10999-1.39001 0-.21002 0-.41998-.02002-.62 0-.10999 0-.22003-.01001-.32001.36004-.22002.55999-.49999.57-.78997z" fill="#d4d6d6"/></g><g><path d="m24.78498 31.03757-.01794 5.56213c-.00085.29904-.19907.59893-.59039.82705-.69804.40498-1.78312.45284-2.57601.14183-.10509-.04187-.2042-.08885-.29733-.14269-.40071-.23068-.60065-.534-.59979-.83816l.01794-5.55955c0-.29989.19822-.59893.59124-.82792.00171-.00086.00342-.00171.00513-.00257.37508-.21615.61602-.43403.61602-.86636v-1.97963h1.61993v1.9728c0 .34347.15123.48871.40157.71085.06579.05981.13841.11193.21617.15636.00427.00257.00854.00512.01281.00769.40072.23157.60065.53573.60065.83817z" fill="#e74c3c"/><path d="m24.78498 31.03757-.01794 5.56213c-.00085.29904-.19907.59893-.59039.82705-.69804.40498-1.78312.45284-2.57601.14183 3.26978-1.02528 2.74176-5.58605 2.35472-7.53322.06579.05981.13841.11193.21617.15636.00427.00257.00854.00512.01281.00769.40071.23156.60064.53572.60064.83816z" fill="#c44"/><g><path d="m24.21856 31.94615-.01001.01001c-.01001 0-.02002 0-.03003.01001-.35999.20996-.81.31995-1.26996.33997-.02002.01001-.05005.01001-.07001.01001h-.09003c-.38 0-.72998-.06-1.04999-.19-.01001 0-.02002 0-.02002 0-.04999-.01001-.08997-.02997-.13-.04999-.01996 0-.02997-.01001-.03998-.02002s-.01001 0-.01001 0c-.07001-.02002-.12-.06-.17999-.08997-.34003-.20001-.52997-.44-.59998-.69v1.10999l-.01001 1.27997-.01001 1.42004v.90997c.07001.25.26001.41998.60999.65002.39001.21997.89001.33997 1.39001.33997h.01001c.13 0 .26001 0 .39001-.01996.12-.01001.23999-.03003.34998-.06.01001.00995.01001.00995.01001.00995h.01001v-.00995h.00995c.01001 0 .01001-.01001.02002-.01001.02002 0 .04004 0 .06-.01001.08002-.02002.15002-.03998.22003-.07001h.01001c.08997-.03003.16998-.07001.25-.10999 0 0 .00995.01001.00995 0 .04004-.02002.08002-.04004.12-.06.09003-.04999.16003-.11005.23004-.16003.06-.04999.12-.10999.15997-.16998.04004-.03003.06-.06.08002-.09998.03998-.06.07001-.12.08997-.18005.03003-.06995.04004-.13995.04004-.21997v-2.02002l.01001-.47998v-.40997c-.01001-.01001 0-.02002 0-.02002v-1.72998c0 .27997-.20002.56995-.56.78998z" fill="#ecf0f1"/></g><path d="m23.74859 27.58924-.00342.97999c-.00085.05809-.01538.11534-.04614.17088-.01965.03844-.04699.07518-.08031.11022-.02478.02648-.05383.05125-.08544.07347-.02392.01879-.05041.03589-.0786.05213-.00085.00086-.00171.00086-.00257.00171-.02734.01537-.05553.02989-.08544.04358-.02563.01195-.05297.02306-.08031.03331-.0282.01025-.05639.02051-.08629.02906-.02649.00769-.05297.01452-.08031.02136-.0282.00598-.05639.01195-.08544.01708-.02734.00513-.05383.00854-.08117.01111-.0282.00426-.05724.00683-.08544.00854-.02649.00257-.05383.00428-.08031.00428-.02905.00085-.0581.00085-.08629 0-.02734 0-.05383-.00171-.08031-.00428-.02905-.00171-.05724-.00428-.08544-.00769-.02734-.00342-.05383-.00683-.08031-.01196-.02905-.00513-.0581-.01111-.08629-.01794-.02734-.00599-.05383-.01282-.08031-.02136-.02905-.0077-.05724-.01709-.08544-.0282-.02819-.01025-.05468-.02136-.08116-.03331-.02991-.01368-.0581-.0282-.08544-.04358 0-.00085-.00085-.00085-.00085-.00085-.0282-.01624-.05468-.03333-.07946-.05213-.03247-.02307-.06152-.04784-.08629-.07348-.03332-.03418-.05981-.07006-.08031-.1068-.03332-.0581-.04956-.11962-.04956-.18027l.00342-.97999c0 .05895.01538.11791.04614.1743.01965.03759.04613.07347.08031.10851.02477.02648.05383.05211.08629.07518.02477.01879.05126.03674.08031.05298.00085.00085.00171.00085.00256.0017.02649.01538.05468.0299.08288.04272.02649.01282.05383.02393.08116.03332.02734.01111.05639.02051.08544.02906.02564.00853.05297.01537.08031.02136.0282.00768.05725.01281.08629.01794.02649.00512.05297.0094.08031.01195.0282.00428.05639.00684.08544.00855.02649.00257.05383.00342.08031.00428.02905.00085.05724.00085.08629 0 .02649 0 .05383-.00171.08031-.00342.02905-.00171.05724-.00428.08544-.0077.02734-.00341.05383-.00683.08117-.01195.02819-.00513.05724-.01026.08544-.01709.02734-.00598.05383-.01282.08031-.02136.0299-.00769.0581-.01708.08629-.02819.02819-.00941.05468-.0205.08031-.03247.02991-.01367.0581-.02819.08544-.04358.00171-.00086.00428-.00257.00598-.00342.02734-.01538.05212-.03247.07519-.04955.03161-.02307.06066-.04785.08544-.07263.03332-.03417.05981-.0692.08031-.10594.03247-.05811.04956-.11877.04956-.17943z" fill="#7d5193"/><path d="m23.45264 27.17527c.39323.22703.39453.59501.00539.82115-.39067.22703-1.02595.22748-1.41918.00045-.39245-.22658-.39375-.59456-.00308-.8216.38913-.22614 1.02441-.22659 1.41687 0z" fill="#9b59b6"/><path d="m23.40684 27.2022c-.36739-.21189-.9612-.21189-1.32517 0-.20078.11704-.29135.2734-.26913.42634.01623-.12388.10594-.24522.26913-.34005.36397-.21189.95778-.21189 1.32517 0 .1649.09568.25632.21701.27341.34262.02135-.1538-.07007-.31187-.27341-.42891z" fill="#7d5193"/><g fill="#76508c"><path d="m23.40684 27.28849c-.36739-.21189-.9612-.21189-1.32517 0-.16319.09483-.2529.21617-.26913.34005.01623.12474.1068.24691.27255.34176.3674.21189.9612.21189 1.32688-.00086.16234-.09399.25205-.21445.26828-.33834-.0171-.1256-.10852-.24693-.27341-.34261z"/><path d="m23.69904 27.76865v.97146c-.01965.03844-.04699.07518-.08031.11022v-.97573c.03332-.03417.0598-.0692.08031-.10595z"/><path d="m23.53329 27.94723v.97657c-.02392.01879-.05041.03589-.0786.05213-.00085.00086-.00171.00086-.00257.00171v-.97744c.00171-.00086.00428-.00257.00598-.00342.02734-.01538.05212-.03247.07519-.04955z"/><path d="m23.36668 28.04378v.97743c-.02563.01195-.05297.02306-.08031.03331v-.97828c.02819-.0094.05468-.0205.08031-.03246z"/><path d="m23.20007 28.10443v.97915c-.02649.00769-.05297.01452-.08031.02136v-.97914c.02734-.00598.05383-.01282.08031-.02137z"/><path d="m23.03432 28.14289v.97914c-.02734.00513-.05383.00854-.08117.01111v-.97829c.02734-.00342.05383-.00684.08117-.01196z"/><path d="m22.86771 28.16254v.97914c-.02649.00257-.05383.00428-.08031.00428v-.97999c.02648-.00001.05382-.00172.08031-.00343z"/><path d="m22.7011 28.16596v.97999c-.02734 0-.05383-.00171-.08031-.00428v-.97999c.02649.00257.05383.00342.08031.00428z"/><path d="m22.53535 28.15313v.98086c-.02734-.00342-.05383-.00683-.08031-.01196v-.98084c.02648.00511.05297.00939.08031.01194z"/><path d="m22.36874 28.12324v.98085c-.02734-.00599-.05383-.01282-.08031-.02136v-.98084c.02563.00852.05297.01536.08031.02135z"/><path d="m22.20299 28.07282v.9817c-.02819-.01025-.05468-.02136-.08116-.03331v-.98171c.02648.01282.05382.02393.08116.03332z"/><path d="m22.03638 27.99508v.98256c0-.00085-.00085-.00085-.00085-.00085-.0282-.01624-.05468-.03333-.07946-.05213v-.98256c.02478.01879.05126.03674.08031.05298z"/><path d="m21.86978 27.86692v.98426c-.03332-.03418-.05981-.07006-.08031-.1068v-.98597c.01964.03759.04613.07347.08031.10851z"/></g><path d="m24.78337 31.15457-.01514 4.66528c-.00084.29689-.21362.6005-.60303.82675-.40034.23213-.92768.34651-1.45417.34061 1.42473-1.13288 1.62659-3.2826 1.50379-5.04459.36333-.22035.56098-.50547.56855-.78805z" fill="#d4d6d6"/></g><g><path d="m29.45426 28.34176-.01794 5.56213c-.00085.29904-.19907.59893-.59039.82705-.69804.40498-1.78312.45284-2.57601.14183-.10509-.04187-.2042-.08885-.29733-.14269-.40071-.23068-.60064-.534-.59979-.83816l.01794-5.55956c0-.29989.19822-.59893.59124-.82792.00171-.00085.00341-.00171.00513-.00257.37508-.21615.61602-.43403.61602-.86636v-1.97961h1.61993v1.9728c0 .34347.15123.48871.40157.71085.06579.05981.13841.11193.21617.15636.00427.00257.00854.00512.01281.00769.40072.23155.60065.53571.60065.83816z" fill="#e67e22"/><path d="m29.45426 28.34176-.01794 5.56213c-.00085.29904-.19907.59893-.59039.82705-.69804.40498-1.78312.45284-2.57601.14183 3.26978-1.02528 2.74176-5.58605 2.35472-7.53322.06579.05981.13841.11193.21617.15636.00427.00257.00854.00512.01281.00769.40071.23155.60064.53571.60064.83816z" fill="#db7121"/><g><path d="m28.88854 29.24614c-.01001 0-.01001 0-.01001.01001-.02002 0-.02002 0-.02997.01001-.35004.20996-.81.33002-1.28003.33997-.02002.01001-.03998.01001-.06.01001h-.09003c-.37 0-.73999-.06-1.06995-.17999-.01001 0-.02002 0-.02002 0-.03998-.02002-.07001-.02997-.10999-.06-.01001 0-.03003-.01001-.04004-.02002-.07001-.01996-.13-.04999-.19-.08997-.33997-.19-.52997-.44-.59998-.67999v1.09998l-.01001 1.27002-.01001 1.42999v.90997c.07001.25.25.42004.60999.65002.39001.22998.89001.33997 1.39001.34998h.01001c.25 0 .5-.01996.72998-.07001h.01001c.01001-.00995.01001-.00995.02002-.00995.20001-.05005.40002-.11005.57001-.20001.04999-.02002.08997-.04999.13-.07001.15997-.09003.28998-.20001.38-.31.03998-.03998.06-.07001.08997-.10999.04004-.06.07001-.12.09003-.17999.02997-.07001.03998-.15002.03998-.22003v-2.02002l.01001-.47998v-.41998c-.01001-.01001 0-.01001 0-.02002v-1.72998c.00002.28998-.19999.57001-.55998.78998z" fill="#ecf0f1"/></g><path d="m28.41788 24.89343-.00342.97999c-.00085.05809-.01538.11534-.04614.17088-.01965.03844-.04699.07518-.08031.11022-.02478.02648-.05383.05125-.08544.07347-.02392.0188-.05041.03589-.0786.05213-.00085.00085-.00171.00085-.00257.00171-.02734.01537-.05553.02989-.08544.04358-.02563.01195-.05297.02306-.08031.03331-.0282.01025-.05639.0205-.08629.02906-.02649.00769-.05297.01452-.08031.02136-.0282.00598-.05639.01195-.08544.01708-.02734.00513-.05383.00854-.08117.01111-.0282.00427-.05724.00683-.08544.00854-.02649.00257-.05383.00428-.08031.00428-.02905.00085-.0581.00085-.08629 0-.02734 0-.05383-.00171-.08031-.00428-.02905-.00171-.05724-.00428-.08544-.00769-.02734-.00342-.05383-.00683-.08031-.01196-.02905-.00513-.0581-.01111-.08629-.01794-.02734-.00599-.05383-.01282-.08031-.02136-.02905-.0077-.05724-.0171-.08544-.0282-.02819-.01025-.05468-.02136-.08116-.03331-.02991-.01369-.0581-.0282-.08544-.04358 0-.00086-.00085-.00086-.00085-.00086-.0282-.01624-.05468-.03333-.07946-.05213-.03247-.02307-.06152-.04784-.08629-.07348-.03332-.03418-.05981-.07006-.08031-.1068-.03332-.0581-.04956-.11962-.04956-.18028l.00342-.97999c0 .05895.01538.11791.04614.1743.01965.03759.04614.07347.08031.10851.02477.02648.05383.05211.08629.07518.02478.0188.05126.03675.08031.05298.00085.00086.00171.00086.00256.0017.02649.01538.05468.0299.08288.04272.02649.01282.05383.02393.08116.03332.02734.01111.05639.0205.08544.02906.02564.00853.05297.01537.08031.02136.0282.00768.05725.01281.08629.01794.02649.00512.05297.0094.08031.01195.0282.00428.05639.00684.08544.00855.02649.00257.05383.00342.08031.00428.02905.00086.05724.00086.08629 0 .02649 0 .05383-.00171.08031-.00342.02905-.00171.05724-.00428.08544-.0077.02734-.00341.05383-.00683.08117-.01195.02819-.00513.05724-.01026.08544-.01709.02734-.00598.05383-.01282.08031-.02136.0299-.00769.0581-.01708.08629-.02819.02819-.00941.05468-.0205.08031-.03247.02991-.01367.0581-.02819.08544-.04358.00171-.00085.00428-.00257.00598-.00342.02734-.01538.05212-.03247.07519-.04955.03161-.02307.06066-.04785.08544-.07263.03332-.03417.05981-.0692.08031-.10594.03247-.05809.04956-.11875.04956-.17941z" fill="#7d5193"/><path d="m28.12192 24.47945c.39323.22703.39453.59501.00539.82115-.39067.22703-1.02595.22748-1.41918.00045-.39245-.22658-.39375-.59456-.00308-.82159.38913-.22614 1.02442-.22659 1.41687-.00001z" fill="#9b59b6"/><path d="m28.07612 24.50639c-.36739-.21189-.9612-.21189-1.32517 0-.20078.11704-.29135.2734-.26913.42634.01623-.12388.10594-.24522.26913-.34005.36397-.21189.95778-.21189 1.32517 0 .1649.09568.25632.21701.27341.34261.02136-.15379-.07006-.31186-.27341-.4289z" fill="#7d5193"/><g fill="#76508c"><path d="m28.07612 24.59268c-.36739-.21189-.9612-.21189-1.32517 0-.16319.09483-.2529.21617-.26913.34005.01623.12474.1068.24691.27255.34176.3674.21189.9612.21189 1.32688-.00085.16234-.09399.25205-.21445.26828-.33834-.01709-.12561-.10851-.24694-.27341-.34262z"/><path d="m28.36832 25.07284v.97146c-.01965.03844-.04699.07518-.08031.11022v-.97574c.03332-.03416.05981-.0692.08031-.10594z"/><path d="m28.20257 25.25142v.97657c-.02392.0188-.05041.03589-.0786.05213-.00085.00085-.00171.00085-.00257.00171v-.97744c.00171-.00085.00428-.00257.00598-.00342.02734-.01539.05212-.03247.07519-.04955z"/><path d="m28.03596 25.34796v.97744c-.02563.01195-.05297.02306-.08031.03331v-.97828c.02819-.00941.05468-.0205.08031-.03247z"/><path d="m27.86936 25.40862v.97915c-.02649.00769-.05297.01452-.08031.02136v-.97915c.02734-.00597.05382-.01282.08031-.02136z"/><path d="m27.70361 25.44708v.97914c-.02734.00513-.05383.00854-.08117.01111v-.97829c.02734-.00342.05382-.00684.08117-.01196z"/><path d="m27.537 25.46673v.97914c-.02649.00257-.05383.00428-.08031.00428v-.97999c.02648-.00001.05382-.00172.08031-.00343z"/><path d="m27.37039 25.47015v.97999c-.02734 0-.05383-.00171-.08031-.00428v-.97999c.02648.00257.05382.00342.08031.00428z"/><path d="m27.20464 25.45732v.98086c-.02734-.00342-.05383-.00683-.08031-.01196v-.98085c.02648.00512.05296.00939.08031.01195z"/><path d="m27.03803 25.42743v.98084c-.02734-.00599-.05383-.01282-.08031-.02136v-.98085c.02563.00854.05296.01538.08031.02137z"/><path d="m26.87227 25.37701v.9817c-.02819-.01025-.05468-.02136-.08116-.03331v-.98171c.02649.01282.05383.02392.08116.03332z"/><path d="m26.70567 25.29927v.98256c0-.00086-.00085-.00086-.00085-.00086-.0282-.01624-.05468-.03333-.07946-.05213v-.98256c.02477.0188.05126.03675.08031.05299z"/><path d="m26.53906 25.17111v.98426c-.03332-.03418-.05981-.07006-.08031-.1068v-.98597c.01965.03759.04613.07346.08031.10851z"/></g><path d="m29.45265 28.45876-.01514 4.66528c-.00084.29689-.21362.6005-.60303.82674-.40034.23213-.92768.34651-1.45417.34062 1.42473-1.13288 1.62659-3.2826 1.50379-5.0446.36334-.22034.56099-.50546.56855-.78804z" fill="#d4d6d6"/></g><g><path d="m34.12355 25.64595-.01794 5.56213c-.00085.29904-.19907.59893-.59039.82705-.69804.40498-1.78312.45284-2.57601.14183-.10509-.04186-.2042-.08885-.29733-.14268-.40071-.23068-.60064-.534-.59979-.83816l.01794-5.55955c0-.29989.19822-.59893.59124-.82792.00171-.00086.00341-.00171.00513-.00257.37508-.21616.61602-.43403.61602-.86636v-1.97963h1.61993v1.9728c0 .34347.15123.48871.40157.71085.06579.05981.13841.11193.21616.15636.00427.00257.00854.00512.01281.00769.40073.23155.60066.53571.60066.83816z" fill="#2ecc71"/><path d="m34.12355 25.64595-.01794 5.56213c-.00085.29904-.19907.59893-.59039.82705-.69804.40498-1.78312.45284-2.57601.14183 3.26978-1.02527 2.74176-5.58604 2.35472-7.53322.06579.05981.13841.11193.21616.15636.00427.00257.00854.00512.01281.00769.40072.23155.60065.53571.60065.83816z" fill="#30b265"/><g><path d="m33.54852 26.54612c-.00995.01001-.01996.02002-.02997.03003-.35004.20001-.82001.32001-1.28003.33002-.01996.00995-.04999.00995-.07001.00995h-.07996c-.37 0-.73004-.06-1.04999-.19-.01001 0-.01001 0-.01001 0-.04004-.00995-.08002-.01996-.12-.03998h-.01001c-.02002-.01001-.03003-.02002-.04999-.02997-.07001-.02002-.13-.06-.19-.09003-.34003-.19-.53003-.42999-.60004-.67999v1.10999l-.01001 1.27002-.00995 1.41998v.91998c.06995.25.25995.42004.60999.65002.39001.21997.88.34003 1.39001.34003h.00995c.13 0 .25 0 .38-.02002.12-.01001.23999-.03003.36005-.06 0 0 0 .01001.00995 0h.02002c.01001 0 .01001-.01001.02002-.01001.09998-.02002.19-.03998.28998-.08002.09003-.02997.16998-.07001.25-.10999.04999-.01001.09003-.03998.13-.06.21002-.13.37-.27002.46997-.42999v-.01001c.04004-.04999.07001-.10999.09003-.16998.03003-.07001.03998-.15002.03998-.22003v-2.01996l.01001-.48004v-.40997c-.01001-.01001 0-.02002 0-.02002v-1.72998c.00001.27997-.2.56-.56999.77997z" fill="#ecf0f1"/></g><path d="m33.08717 22.19762-.00342.97999c-.00085.05809-.01538.11534-.04614.17088-.01965.03844-.04699.07518-.08031.11022-.02478.02648-.05383.05125-.08544.07347-.02392.01879-.0504.03589-.0786.05213-.00085.00085-.00171.00085-.00256.00171-.02734.01537-.05553.02989-.08544.04358-.02563.01195-.05297.02306-.08031.03331-.0282.01025-.05639.02051-.0863.02906-.02649.00769-.05297.01452-.08031.02136-.02819.00598-.05639.01195-.08544.01708-.02734.00513-.05383.00854-.08117.01111-.0282.00426-.05724.00683-.08544.00854-.02649.00257-.05383.00428-.08031.00428-.02905.00086-.0581.00086-.0863 0-.02734 0-.05383-.00171-.08031-.00428-.02905-.00171-.05724-.00428-.08544-.00769-.02734-.00342-.05383-.00683-.08031-.01196-.02905-.00513-.0581-.01111-.08629-.01794-.02734-.00599-.05383-.01282-.08031-.02136-.02905-.0077-.05724-.01709-.08544-.0282-.02819-.01025-.05468-.02136-.08116-.03331-.02991-.01368-.0581-.0282-.08544-.04358 0-.00085-.00086-.00085-.00086-.00085-.0282-.01624-.05468-.03333-.07946-.05213-.03247-.02307-.06152-.04784-.08629-.07348-.03332-.03418-.05981-.07006-.08031-.1068-.03332-.0581-.04955-.11962-.04955-.18027l.00341-.97999c0 .05895.01538.11791.04614.1743.01965.03759.04614.07347.08031.10851.02477.02648.05383.0521.08629.07518.02478.01879.05126.03674.08031.05298.00085.00085.00171.00085.00256.0017.02649.01538.05468.0299.08288.04272.02649.01282.05383.02393.08116.03332.02734.01111.05639.02051.08544.02906.02563.00853.05297.01537.08031.02136.0282.00768.05725.01281.08629.01794.02649.00512.05297.0094.08031.01195.0282.00428.05639.00684.08544.00855.02649.00257.05383.00342.08031.00428.02905.00085.05724.00085.0863 0 .02649 0 .05383-.00171.08031-.00342.02905-.00171.05724-.00428.08544-.0077.02734-.00341.05383-.00683.08117-.01195.02819-.00513.05724-.01026.08544-.01709.02734-.00598.05383-.01282.08031-.02136.0299-.00769.0581-.01708.0863-.02819.02819-.00941.05468-.0205.08031-.03247.02991-.01367.05811-.02819.08544-.04358.00171-.00086.00428-.00257.00598-.00342.02734-.01538.05212-.03247.07518-.04955.03161-.02307.06067-.04785.08544-.07263.03332-.03417.05981-.0692.08031-.10594.03248-.05812.04957-.11878.04957-.17943z" fill="#7d5193"/><path d="m32.79121 21.78364c.39323.22703.39453.59501.00539.82115-.39067.22703-1.02595.22748-1.41918.00045-.39245-.22658-.39375-.59456-.00308-.8216.38913-.22613 1.02441-.22658 1.41687 0z" fill="#9b59b6"/><path d="m32.74541 21.81057c-.36739-.21189-.9612-.21189-1.32517 0-.20078.11704-.29135.2734-.26913.42634.01623-.12388.10594-.24522.26913-.34005.36397-.21189.95778-.21189 1.32517 0 .1649.09568.25632.21701.27341.34261.02135-.15378-.07007-.31186-.27341-.4289z" fill="#7d5193"/><g fill="#76508c"><path d="m32.74541 21.89687c-.36739-.21189-.9612-.21189-1.32517 0-.16319.09483-.2529.21616-.26913.34005.01623.12474.1068.24691.27255.34176.3674.21189.96119.21189 1.32688-.00086.16234-.09399.25205-.21445.26828-.33834-.0171-.1256-.10851-.24693-.27341-.34261z"/><path d="m33.03761 22.37703v.97146c-.01965.03844-.04699.07518-.08031.11022v-.97573c.03332-.03418.0598-.06921.08031-.10595z"/><path d="m32.87185 22.5556v.97657c-.02392.01879-.0504.03589-.0786.05213-.00085.00085-.00171.00085-.00256.00171v-.97743c.00171-.00086.00428-.00257.00598-.00342.02734-.01539.05212-.03247.07518-.04956z"/><path d="m32.70525 22.65215v.97743c-.02563.01195-.05297.02306-.08031.03331v-.97828c.02819-.0094.05468-.0205.08031-.03246z"/><path d="m32.53864 22.71281v.97915c-.02649.00769-.05297.01452-.08031.02136v-.97915c.02734-.00598.05383-.01282.08031-.02136z"/><path d="m32.37289 22.75126v.97914c-.02734.00513-.05383.00854-.08117.01111v-.97829c.02734-.00341.05383-.00684.08117-.01196z"/><path d="m32.20628 22.77091v.97914c-.02649.00257-.05383.00428-.08031.00428v-.97999c.02648-.00001.05382-.00172.08031-.00343z"/><path d="m32.03967 22.77433v.97999c-.02734 0-.05383-.00171-.08031-.00428v-.97999c.02649.00257.05383.00343.08031.00428z"/><path d="m31.87392 22.76151v.98086c-.02734-.00342-.05383-.00683-.08031-.01196v-.98084c.02648.0051.05297.00938.08031.01194z"/><path d="m31.70731 22.73161v.98085c-.02734-.00599-.05383-.01282-.08031-.02136v-.98084c.02563.00853.05297.01537.08031.02135z"/><path d="m31.54156 22.6812v.9817c-.02819-.01025-.05468-.02136-.08116-.03331v-.98171c.02648.01281.05382.02392.08116.03332z"/><path d="m31.37496 22.60345v.98256c0-.00085-.00086-.00085-.00086-.00085-.0282-.01624-.05468-.03333-.07946-.05213v-.98256c.02478.0188.05126.03675.08032.05298z"/><path d="m31.20835 22.4753v.98425c-.03332-.03418-.05981-.07006-.08031-.1068v-.98597c.01964.03759.04613.07347.08031.10852z"/></g><path d="m34.12194 25.76294-.01514 4.66528c-.00084.29689-.21362.6005-.60303.82674-.40034.23213-.92768.34651-1.45417.34062 1.42473-1.13289 1.62659-3.2826 1.50379-5.0446.36333-.22033.56098-.50546.56855-.78804z" fill="#d4d6d6"/></g><g><path d="m38.79283 22.95014-.01794 5.56213c-.00085.29904-.19907.59893-.59039.82705-.69804.40498-1.78312.45284-2.57601.14183-.10509-.04186-.2042-.08885-.29733-.14269-.40071-.23068-.60064-.534-.59979-.83816l.01794-5.55955c0-.29989.19822-.59893.59124-.82792.00171-.00085.00341-.00171.00513-.00257.37508-.21615.61602-.43403.61602-.86636v-1.97963h1.61993v1.9728c0 .34347.15123.48871.40157.71085.06579.05981.13841.11193.21617.15636.00427.00257.00854.00512.01281.00769.40072.23156.60065.53572.60065.83817z" fill="#3498db"/><path d="m38.79283 22.95014-.01794 5.56213c-.00085.29904-.19907.59893-.59039.82705-.69804.40498-1.78312.45284-2.57601.14183 3.26978-1.02527 2.74176-5.58604 2.35472-7.53322.06579.05981.13841.11193.21617.15636.00427.00257.00854.00512.01281.00769.40071.23155.60064.53571.60064.83816z" fill="#3293c9"/><g><path d="m38.21856 23.85612c-.01001.01001-.02002.01001-.03003.02002-.34998.21002-.81.32001-1.27997.33002h-.01001c-.02002.01001-.04004.01001-.06.01001h-.08002s0 .00995-.01001 0c-.37 0-.71997-.06-1.03998-.18005-.01001 0-.02002 0-.02002 0-.03998-.00995-.08997-.02997-.13-.04999-.01996 0-.03998-.01001-.04999-.01996h-.01001c-.06-.03003-.10999-.06-.16998-.09003-.34003-.19-.53003-.44-.60004-.69v1.10999l-.00995 1.28003-.01001 1.41998v.91003c.07001.25.25.41998.60999.64996.39001.22998.88.34003 1.39001.34003h.01001c.13 0 .25995 0 .38-.02002.07996-.01001.15997-.02002.23999-.02997.02997 0 .04999-.01001.07996-.01001h.03003c.01001 0 .01001 0 .02002-.01001h.00995c.20001-.04999.40002-.10999.57001-.21002.04004-.01001.08002-.03998.12-.06.10004-.06.18005-.12.26001-.17999.09003-.08002.16003-.15997.22003-.23999v-.01001c.03998-.06.07001-.12.08997-.16998.03003-.07001.04004-.15002.04004-.22003v-2.26996l.01001-.01001v-2.39001c0 .28002-.20002.57-.57001.78997z" fill="#ecf0f1"/></g><path d="m37.75645 19.5018-.00342.97999c-.00085.05809-.01538.11534-.04614.17088-.01965.03844-.04699.07518-.08031.11022-.02478.02648-.05383.05125-.08544.07347-.02392.0188-.05041.03589-.07861.05213-.00085.00086-.00171.00086-.00256.00171-.02734.01537-.05553.02989-.08544.04358-.02563.01195-.05297.02306-.08031.03331-.0282.01025-.05639.0205-.0863.02906-.02649.00769-.05297.01452-.08031.02136-.02819.00598-.05639.01195-.08544.01708-.02734.00513-.05383.00854-.08117.01111-.02819.00427-.05724.00683-.08544.00854-.02649.00257-.05383.00428-.08031.00428-.02905.00085-.0581.00085-.0863 0-.02734 0-.05383-.00171-.08031-.00428-.02905-.00171-.05724-.00428-.08544-.00769-.02734-.00342-.05383-.00683-.08031-.01196-.02905-.00513-.0581-.01111-.08629-.01794-.02734-.00599-.05383-.01282-.08031-.02136-.02905-.0077-.05724-.01709-.08544-.0282-.02819-.01025-.05468-.02136-.08116-.03331-.02991-.01368-.05811-.0282-.08544-.04358 0-.00085-.00085-.00085-.00085-.00085-.02819-.01624-.05468-.03333-.07946-.05213-.03247-.02307-.06152-.04784-.0863-.07348-.03332-.03418-.05981-.07006-.08031-.1068-.03332-.0581-.04956-.11962-.04956-.18028l.00342-.97999c0 .05895.01538.11791.04614.1743.01965.03759.04613.07347.08031.10851.02478.02648.05383.05211.0863.07518.02477.0188.05126.03675.08031.05298.00085.00085.00171.00085.00256.0017.02649.01538.05468.0299.08288.04272.02649.01282.05383.02393.08116.03332.02734.01111.0564.0205.08544.02906.02563.00853.05297.01537.08031.02136.02819.00768.05725.01281.08629.01794.02649.00512.05297.0094.08031.01195.0282.00428.05639.00684.08544.00855.02649.00257.05383.00342.08031.00428.02905.00085.05724.00085.0863 0 .02649 0 .05383-.00171.08031-.00342.02905-.00171.05724-.00428.08544-.0077.02734-.00341.05383-.00683.08117-.01195.02819-.00513.05724-.01026.08544-.01709.02734-.00598.05383-.01282.08031-.02136.0299-.00769.0581-.01708.0863-.02819.02819-.00941.05468-.02051.08031-.03247.02991-.01367.05811-.02819.08544-.04358.00171-.00085.00428-.00257.00598-.00342.02734-.01538.05212-.03247.07519-.04955.03161-.02307.06066-.04785.08544-.07263.03332-.03417.05981-.0692.08031-.10595.03247-.05809.04956-.11875.04956-.17941z" fill="#7d5193"/><path d="m37.46049 19.08783c.39323.22703.39453.59501.00539.82115-.39067.22703-1.02595.22748-1.41918.00045-.39245-.22658-.39375-.59456-.00309-.82159.38914-.22615 1.02443-.2266 1.41688-.00001z" fill="#9b59b6"/><path d="m37.41469 19.11476c-.36739-.21189-.9612-.21189-1.32517 0-.20078.11704-.29134.2734-.26913.42634.01623-.12388.10595-.24522.26913-.34005.36398-.21189.95778-.21189 1.32517 0 .1649.09568.25632.21701.27341.34261.02136-.15379-.07006-.31186-.27341-.4289z" fill="#7d5193"/><g fill="#76508c"><path d="m37.41469 19.20105c-.36739-.21189-.9612-.21189-1.32517 0-.16319.09483-.2529.21617-.26913.34005.01623.12474.1068.24691.27255.34176.36739.21189.9612.21189 1.32688-.00085.16234-.09399.25205-.21445.26828-.33834-.01709-.12561-.10851-.24693-.27341-.34262z"/><path d="m37.70689 19.68121v.97146c-.01965.03844-.04699.07518-.08031.11022v-.97573c.03332-.03417.05981-.0692.08031-.10595z"/><path d="m37.54114 19.85979v.97657c-.02392.0188-.05041.03589-.07861.05213-.00085.00086-.00171.00086-.00256.00171v-.97744c.00171-.00085.00428-.00257.00598-.00342.02734-.01538.05212-.03247.07519-.04955z"/><path d="m37.37453 19.95634v.97744c-.02563.01195-.05297.02306-.08031.03331v-.97828c.02819-.00941.05468-.02051.08031-.03247z"/><path d="m37.20793 20.017v.97915c-.02649.00769-.05297.01452-.08031.02136v-.97915c.02734-.00598.05382-.01282.08031-.02136z"/><path d="m37.04218 20.05545v.97914c-.02734.00513-.05383.00854-.08117.01111v-.9783c.02734-.00341.05383-.00683.08117-.01195z"/><path d="m36.87557 20.0751v.97914c-.02649.00257-.05383.00428-.08031.00428v-.97999c.02648-.00001.05382-.00172.08031-.00343z"/><path d="m36.70896 20.07852v.97999c-.02734 0-.05383-.00171-.08031-.00428v-.97999c.02648.00257.05382.00343.08031.00428z"/><path d="m36.54321 20.06569v.98086c-.02734-.00342-.05383-.00683-.08031-.01196v-.98085c.02648.00512.05297.0094.08031.01195z"/><path d="m36.3766 20.0358v.98085c-.02734-.00599-.05383-.01282-.08031-.02136v-.98085c.02563.00853.05296.01537.08031.02136z"/><path d="m36.21084 19.98538v.9817c-.02819-.01025-.05468-.02136-.08116-.03331v-.98171c.02649.01282.05383.02393.08116.03332z"/><path d="m36.04424 19.90764v.98256c0-.00085-.00085-.00085-.00085-.00085-.02819-.01624-.05468-.03333-.07946-.05213v-.98256c.02477.01879.05126.03674.08031.05298z"/><path d="m35.87763 19.77948v.98426c-.03332-.03418-.05981-.07006-.08031-.1068v-.98597c.01965.03759.04613.07347.08031.10851z"/></g><path d="m38.79122 23.06713-.01514 4.66528c-.00084.29689-.21362.6005-.60303.82675-.40034.23213-.92767.34651-1.45417.34062 1.42473-1.13289 1.62659-3.2826 1.50379-5.0446.36334-.22034.56099-.50547.56855-.78805z" fill="#d4d6d6"/></g><g><path d="m24.04852 36.00615v.70001l-.00995.78998v1.85999h-.01001l-.17004.10004-.45996-.26001h-.01001l-3.28003-1.87-.13-.08002v-1.25c0-.14001.04004-.27002.13-.39996 0-.01001 0-.01001 0-.01001.10004-.15002.25-.30005.46002-.42004h.01001c.03998-.02997.08002-.04999.12-.06995v-.01001h.01001c.29999-.20001.47998-.41003.47998-.79004v-1.97998h1.62v1.96997c0 .35004.16003.49005.41003.71002.06.06.13.10999.20996.16003.01001 0 .01001 0 .01001.00995.15002.08002.27002.18005.35999.28003l.01001.01001c.16002.16998.23998.35998.23998.54999z" fill="#e67e22"/><path d="m24.04852 36.00615v.70001l-.00995.78998v1.85999h-.01001l-.17004.10004-.45996-.26001h-.01001c.01001-.03998.01001-.08002.02002-.12.06995-.40002.08997-.81.08997-1.21002v-.17999c0-.26001-.01001-.52002-.02997-.77002v-.00995c-.02002-.23004-.04004-.46002-.06-.68005 0 0 0 0 0-.00995v-.01001c-.06-.46002-.13-.87-.19-1.21002.06.06.13.10999.20996.16003.01001 0 .01001 0 .01001.00995.15002.08002.27002.18005.35999.28003l.01001.01001c.16002.16997.23998.35997.23998.54998z" fill="#db7121"/><g><path d="m23.49853 36.89616c-.01001 0-.01001.01001-.02002.01001h-.00995v.00995h-.01001c-.01001 0-.01001 0-.02002.01001-.32001.17999-.71002.29999-1.12.33002h-.01001c-.48999.03998-1.01001-.02002-1.42999-.19-.10999-.03998-.21002-.09003-.29999-.14001-.22003-.12-.35999-.26001-.47003-.40997v-.02002c-.06995-.08997-.10999-.16998-.13-.26001v1.01001l.13.08002 3.28003 1.87h.01001l.45996.26001.17004-.10004.01001-.94995v-2.29004c.00001.27-.19.55998-.54003.78001z" fill="#ecf0f1"/></g><path d="m23.00737 32.55299-.00342.97999c-.00085.05809-.01538.11534-.04614.17088-.01965.03844-.04699.07518-.08031.11022-.02478.02648-.05383.05125-.08544.07347-.02392.01879-.05041.03588-.0786.05212-.00085.00086-.00171.00086-.00257.00171-.02734.01537-.05553.02989-.08544.04358-.02563.01195-.05297.02306-.08031.03331-.0282.01025-.05639.02051-.08629.02906-.02649.00769-.05297.01452-.08031.02136-.0282.00597-.05639.01195-.08544.01708-.02734.00513-.05383.00854-.08117.01111-.0282.00426-.05724.00683-.08544.00854-.02649.00257-.05383.00428-.08031.00428-.02905.00085-.0581.00085-.0863 0-.02734 0-.05383-.00171-.08031-.00428-.02905-.00171-.05724-.00428-.08544-.00769-.02734-.00342-.05383-.00683-.08031-.01196-.02905-.00513-.0581-.01111-.08629-.01794-.02734-.00599-.05383-.01282-.08031-.02136-.02905-.00769-.05724-.01709-.08544-.0282-.02819-.01025-.05468-.02136-.08116-.03331-.02991-.01368-.0581-.0282-.08544-.04358 0-.00085-.00086-.00085-.00086-.00085-.0282-.01624-.05468-.03333-.07946-.05213-.03247-.02307-.06152-.04784-.08629-.07348-.03332-.03418-.05981-.07006-.08031-.1068-.03332-.0581-.04955-.11962-.04955-.18027l.00341-.97999c0 .05895.01538.11791.04614.1743.01965.03759.04614.07347.08031.10851.02477.02648.05383.05211.08629.07518.02478.01879.05126.03674.08031.05298.00085.00085.00171.00085.00256.0017.02649.01538.05468.0299.08288.04272.02649.01282.05383.02393.08116.03332.02734.01111.05639.02051.08544.02906.02563.00853.05297.01537.08031.02136.0282.00768.05725.01281.08629.01794.02649.00512.05297.0094.08031.01196.0282.00428.05639.00684.08544.00855.02649.00256.05383.00342.08031.00428.02905.00085.05724.00085.0863 0 .02649 0 .05383-.00171.08031-.00342.02905-.00171.05724-.00428.08544-.0077.02734-.00341.05383-.00683.08117-.01195.02819-.00513.05724-.01026.08544-.01709.02734-.00598.05383-.01282.08031-.02136.0299-.00769.0581-.01708.08629-.02819.02819-.00941.05468-.0205.08031-.03247.02991-.01367.0581-.02819.08544-.04358.00171-.00085.00428-.00257.00598-.00342.02734-.01538.05212-.03247.07519-.04955.03161-.02307.06066-.04785.08544-.07263.03332-.03417.05981-.0692.08031-.10595.03249-.0581.04957-.11876.04957-.17942z" fill="#7d5193"/><path d="m22.71142 32.13902c.39323.22703.39453.59501.00539.82116-.39067.22703-1.02595.22748-1.41918.00045-.39245-.22658-.39375-.59457-.00308-.82159.38913-.22616 1.02441-.22661 1.41687-.00002z" fill="#9b59b6"/><path d="m22.66562 32.16595c-.36739-.21189-.96119-.21189-1.32517 0-.20078.11704-.29135.2734-.26913.42635.01623-.12389.10594-.24522.26913-.34005.36397-.21189.95778-.21189 1.32517 0 .1649.09568.25632.21701.27341.34261.02135-.1538-.07007-.31187-.27341-.42891z" fill="#7d5193"/><g fill="#76508c"><path d="m22.66562 32.25224c-.36739-.21189-.96119-.21189-1.32517 0-.16319.09483-.2529.21616-.26913.34005.01623.12474.1068.24691.27255.34176.3674.21189.9612.21189 1.32688-.00086.16234-.09399.25205-.21445.26828-.33834-.0171-.1256-.10852-.24693-.27341-.34261z"/><path d="m22.95782 32.7324v.97146c-.01965.03844-.04699.07518-.08031.11022v-.97573c.03332-.03417.0598-.0692.08031-.10595z"/><path d="m22.79206 32.91098v.97657c-.02392.01879-.05041.03588-.0786.05212-.00085.00086-.00171.00086-.00257.00171v-.97744c.00171-.00085.00428-.00257.00598-.00342.02735-.01537.05213-.03246.07519-.04954z"/><path d="m22.62546 33.00753v.97744c-.02563.01195-.05297.02306-.08031.03331v-.97828c.02819-.00941.05467-.02051.08031-.03247z"/><path d="m22.45885 33.06818v.97915c-.02649.00769-.05297.01452-.08031.02136v-.97915c.02734-.00597.05383-.01281.08031-.02136z"/><path d="m22.2931 33.10664v.97913c-.02734.00513-.05383.00854-.08117.01111v-.97829c.02734-.00341.05383-.00683.08117-.01195z"/><path d="m22.12649 33.12629v.97913c-.02649.00257-.05383.00428-.08031.00428v-.97999c.02648 0 .05383-.00171.08031-.00342z"/><path d="m21.95988 33.12971v.97999c-.02734 0-.05383-.00171-.08031-.00428v-.97999c.02649.00257.05383.00342.08031.00428z"/><path d="m21.79413 33.11688v.98085c-.02734-.00342-.05383-.00683-.08031-.01196v-.98085c.02648.00513.05297.00941.08031.01196z"/><path d="m21.62752 33.08699v.98085c-.02734-.00599-.05383-.01282-.08031-.02136v-.98084c.02563.00852.05297.01537.08031.02135z"/><path d="m21.46177 33.03657v.9817c-.02819-.01025-.05468-.02136-.08116-.03331v-.98171c.02648.01282.05382.02393.08116.03332z"/><path d="m21.29517 32.95883v.98256c0-.00085-.00086-.00085-.00086-.00085-.0282-.01624-.05468-.03333-.07946-.05213v-.98256c.02478.01879.05126.03674.08032.05298z"/><path d="m21.12856 32.83067v.98426c-.03332-.03418-.05981-.07006-.08031-.1068v-.98597c.01964.03759.04613.07347.08031.10851z"/></g><path d="m24.03857 36.11613v2.29004l-.01001.94995-.17004.10004-.45996-.26001c.07996-.5.10999-1.01001.10999-1.51001 0-.26001-.01001-.52997-.03003-.77997.01001 0 .01001-.01001.02002-.01001.35002-.22003.54003-.51001.54003-.78003z" fill="#d4d6d6"/></g><g><path d="m28.70855 33.30613v1.48999l-.01001 1.85004-.75.44-.02002.01001-2.88995 1.67999-.39001.21997c-.02002-.04999-.02002-.08997-.02002-.14001v-.69995l.01001-1.15002v-.78998l.01001-2.67004v-.25c0-.13.03998-.26001.13-.38v-.00995c-.01001-.01001 0-.02002 0-.02002.09998-.15002.25-.29999.45996-.41998h.01001c.04004-.03003.08002-.05005.12-.07001v-.01001h.01001c.29999-.20001.47998-.41003.47998-.78998v-1.98004h1.62v1.98004c0 .33997.15002.48999.40002.70996.07001.06.14001.10999.22003.15002.00995.01001.00995.01001.00995.01001.15002.08997.27002.17999.36005.28998 0 0 .00995 0 .00995.01001.15001.16998.23003.35998.23003.53997z" fill="#bc874d"/><path d="m28.70855 33.30613v1.48999l-.01001 1.85004-.75.44-.02002.01001c.01001-.03003.03003-.06006.03003-.09003.01001-.03003.01001-.07001.01996-.09998.15002-.62006.20001-1.28003.19-1.92004 0-.26001-.00995-.51996-.02997-.76996v-.01001c-.02002-.23004-.03998-.45001-.06-.67004 0 0 0 0 0-.00995v-.01001c-.06-.46002-.13-.87-.20001-1.21002.07001.06.14001.10999.22003.15002.00995.01001.00995.01001.00995.01001.15002.08997.27002.17999.36005.28998 0 0 .00995 0 .00995.01001.15002.16999.23004.35999.23004.53998z" fill="#a87648"/><g><path d="m28.13854 34.20616v.01001c-.01001 0-.01001 0-.02002.00995h-.01001c-.31.18005-.70996.30005-1.12.33002h-.01001c-.48999.04004-.98999-.02002-1.41998-.17999 0 0 0 0-.01001 0-.09998-.04999-.20996-.09003-.29999-.15002-.21997-.12-.38-.26996-.46997-.41998l-.01001-.01001c-.06-.07996-.10004-.16998-.12-.25l-.01001 2.67004v.56l-.01001.22998v1.15997c.02002.24005.15002.41003.41003.61005l2.88995-1.67999.02002-.01001.75-.44.01001-1.85004v-1.37c.00002.28002-.19999.55999-.56999.78002z" fill="#ecf0f1"/></g><path d="m27.67666 29.85718-.00342.97999c-.00085.05809-.01538.11534-.04614.17088-.01965.03844-.04699.07518-.08031.11022-.02478.02648-.05383.05125-.08544.07347-.02392.01879-.05041.03589-.0786.05213-.00085.00086-.00171.00086-.00257.00171-.02734.01537-.05553.02989-.08544.04358-.02563.01195-.05297.02306-.08031.03331-.0282.01025-.05639.02051-.0863.02906-.02649.00769-.05297.01452-.08031.02136-.0282.00598-.05639.01195-.08544.01708-.02734.00513-.05383.00854-.08117.01111-.0282.00426-.05724.00683-.08544.00854-.02649.00257-.05383.00428-.08031.00428-.02905.00085-.0581.00085-.0863 0-.02734 0-.05383-.00171-.08031-.00428-.02905-.00171-.05724-.00428-.08544-.00769-.02734-.00342-.05383-.00683-.08031-.01196-.02905-.00513-.0581-.01111-.0863-.01794-.02734-.00599-.05383-.01282-.08031-.02136-.02905-.0077-.05724-.01709-.08544-.0282-.02819-.01025-.05468-.02136-.08116-.03331-.02991-.01368-.0581-.0282-.08544-.04358 0-.00085-.00086-.00085-.00086-.00085-.0282-.01624-.05468-.03333-.07946-.05213-.03247-.02307-.06152-.04784-.08629-.07348-.03332-.03418-.05981-.07006-.08031-.1068-.03332-.0581-.04956-.11962-.04956-.18027l.00342-.97999c0 .05895.01538.11791.04614.1743.01965.03759.04613.07347.08031.10851.02478.02648.05383.05211.08629.07518.02478.01879.05126.03674.08031.05298.00085.00085.00171.00085.00256.0017.02649.01538.05468.0299.08288.04272.02649.01282.05383.02393.08116.03332.02734.01111.05639.02051.08544.02906.02563.00853.05297.01537.08031.02136.0282.00768.05725.01281.0863.01794.02649.00512.05297.0094.08031.01195.0282.00428.05639.00684.08544.00855.02649.00257.05383.00342.08031.00428.02905.00085.05724.00085.0863 0 .02649 0 .05383-.00171.08031-.00342.02905-.00171.05724-.00428.08544-.0077.02734-.00341.05383-.00683.08117-.01195.02819-.00513.05724-.01026.08544-.01709.02734-.00598.05383-.01282.08031-.02136.0299-.00769.0581-.01708.0863-.02819.02819-.00941.05468-.0205.08031-.03247.02991-.01367.0581-.02819.08544-.04358.00171-.00086.00428-.00257.00598-.00342.02734-.01538.05212-.03247.07519-.04955.03161-.02307.06066-.04785.08544-.07263.03332-.03417.05981-.0692.08031-.10594.03248-.05811.04957-.11877.04957-.17943z" fill="#7d5193"/><path d="m27.3807 29.4432c.39323.22703.39453.59501.00539.82115-.39067.22703-1.02595.22748-1.41918.00045-.39245-.22658-.39375-.59456-.00308-.8216.38913-.22613 1.02442-.22658 1.41687 0z" fill="#9b59b6"/><path d="m27.3349 29.47013c-.36739-.21189-.96119-.21189-1.32517 0-.20078.11704-.29135.2734-.26913.42634.01623-.12388.10594-.24522.26913-.34005.36397-.21189.95778-.21189 1.32517 0 .1649.09568.25632.21701.27341.34262.02136-.15379-.07006-.31186-.27341-.42891z" fill="#7d5193"/><g fill="#76508c"><path d="m27.3349 29.55643c-.36739-.21189-.96119-.21189-1.32517 0-.16319.09483-.2529.21617-.26913.34005.01623.12474.1068.24691.27255.34176.3674.21189.9612.21189 1.32688-.00086.16234-.09399.25205-.21445.26828-.33834-.01709-.1256-.10851-.24693-.27341-.34261z"/><path d="m27.6271 30.03659v.97146c-.01965.03844-.04699.07518-.08031.11022v-.97573c.03332-.03417.05981-.06921.08031-.10595z"/><path d="m27.46135 30.21517v.97657c-.02392.01879-.05041.03589-.0786.05213-.00085.00086-.00171.00086-.00257.00171v-.97743c.00171-.00086.00428-.00257.00598-.00342.02734-.0154.05212-.03248.07519-.04956z"/><path d="m27.29474 30.31171v.97743c-.02563.01195-.05297.02306-.08031.03331v-.97828c.02819-.0094.05468-.02049.08031-.03246z"/><path d="m27.12814 30.37237v.97915c-.02649.00769-.05297.01452-.08031.02136v-.97915c.02734-.00597.05382-.01282.08031-.02136z"/><path d="m26.96239 30.41083v.97914c-.02734.00513-.05383.00854-.08117.01111v-.97829c.02734-.00342.05382-.00684.08117-.01196z"/><path d="m26.79578 30.43048v.97914c-.02649.00257-.05383.00428-.08031.00428v-.98c.02648 0 .05382-.00171.08031-.00342z"/><path d="m26.62917 30.4339v.97999c-.02734 0-.05383-.00171-.08031-.00428v-.97999c.02648.00257.05382.00342.08031.00428z"/><path d="m26.46342 30.42107v.98086c-.02734-.00342-.05383-.00683-.08031-.01196v-.98084c.02648.00511.05296.00938.08031.01194z"/><path d="m26.29681 30.39118v.98085c-.02734-.00599-.05383-.01282-.08031-.02136v-.98084c.02563.00852.05296.01536.08031.02135z"/><path d="m26.13105 30.34076v.9817c-.02819-.01025-.05468-.02136-.08116-.03331v-.98171c.02649.01282.05383.02392.08116.03332z"/><path d="m25.96445 30.26302v.98256c0-.00085-.00086-.00085-.00086-.00085-.0282-.01624-.05468-.03333-.07946-.05213v-.98256c.02478.01879.05127.03674.08032.05298z"/><path d="m25.79784 30.13486v.98426c-.03332-.03418-.05981-.07006-.08031-.1068v-.98597c.01965.03759.04613.07346.08031.10851z"/></g><path d="m28.70855 33.42613v1.37l-.01001 1.85004-.75.44c.01001-.06.02002-.12.02997-.17999.15002-.62006.20001-1.28003.19-1.92004 0-.26001-.00995-.51996-.02997-.76996v-.01001c.37-.22004.57001-.50001.57001-.78004z" fill="#d4d6d6"/></g><g><path d="m33.37853 30.60612v1.5l-.01001 1.84003-.76001.44h-.00995l-2.90002 1.67999-.38.21997c-.02002-.03998-.02002-.08997-.02002-.12994v-.71002l.01001-1.13v-.78998l.01001-2.67999v-.25c0-.13.03998-.26001.13-.39001-.01001-.01001 0-.01001 0-.02002.09998-.15002.25-.28998.46002-.40997 0 0 0-.01001.00995-.01001.04004-.02002.08002-.04999.12006-.07001v-.01001h.00995c.30005-.19.48004-.40002.48004-.77997v-1.98004h1.62v1.97003c0 .33997.14996.48999.39996.70996.07001.06.14001.11005.22003.16003 0 0 .01001 0 .01001.01001.14996.08997.27997.19.35999.28998.15997.16998.23998.34997.23998.53997z" fill="#3498db"/><path d="m33.37853 30.60612v1.5l-.01001 1.84003-.76001.44c.01001-.03998.02002-.07001.02002-.10999.03003-.08002.04999-.15002.06-.23004.03003-.14996.04999-.31.08002-.46997.04999-.42999.08002-.85999.07001-1.28003 0-.26001-.01001-.52997-.03003-.77997-.01996-.23004-.03998-.45001-.06-.66998 0-.01001 0-.01001 0-.02002-.06-.46002-.13-.88-.20001-1.22003.07001.06.14001.11005.22003.16003 0 0 .01001 0 .01001.01001.14996.08997.27997.19.35999.28998.15997.16999.23998.34998.23998.53998z" fill="#3293c9"/><g><path d="m33.34856 30.88615c0 .02997-.02002.07001-.04004.09998-.01996.06-.04999.12-.09998.17999-.04004.06-.09003.12-.16003.17004-.06.06-.13.10999-.20996.16998-.01001 0-.01001.01001-.02002.01001h-.02002c-.00995.01001-.00995.01001-.01996.01996-.32001.18005-.70001.29004-1.10004.32001h-.01001c-.5.06-1.01996-.00995-1.44995-.17999-.11005-.03998-.21002-.08997-.30005-.14001-.21997-.12-.37-.26996-.46997-.41998-.01001-.01001-.01001-.01001-.01001-.01001-.06-.08997-.09998-.16998-.12-.25995l-.01001 2.67999v.50995l-.01001.28003v1.14001c.02002.23999.15002.40997.40002.60999l2.90002-1.67999h.00995l.76001-.44.01001-1.84003v-1.38c.00002.05004-.00999.11003-.02995.16002z" fill="#ecf0f1"/></g><path d="m32.34594 27.16137-.00341.97999c-.00085.05809-.01538.11534-.04614.17088-.01965.03844-.04699.07518-.08031.11022-.02478.02648-.05383.05125-.08544.07347-.02392.0188-.05041.03589-.0786.05213-.00085.00085-.00171.00085-.00257.00171-.02734.01537-.05553.02989-.08544.04358-.02563.01195-.05297.02306-.08031.03331-.0282.01025-.05639.0205-.0863.02906-.02649.00769-.05297.01452-.08031.02136-.0282.00598-.05639.01195-.08544.01708-.02734.00513-.05383.00854-.08117.01111-.0282.00427-.05724.00683-.08544.00854-.02649.00257-.05383.00428-.08031.00428-.02905.00085-.0581.00085-.08629 0-.02734 0-.05383-.00171-.08031-.00428-.02905-.00171-.05724-.00428-.08544-.00769-.02734-.00342-.05383-.00683-.08031-.01196-.02905-.00513-.0581-.01111-.0863-.01794-.02734-.00599-.05383-.01282-.08031-.02136-.02905-.0077-.05724-.0171-.08544-.0282-.02819-.01025-.05468-.02136-.08116-.03331-.02991-.01369-.0581-.0282-.08544-.04358 0-.00086-.00085-.00086-.00085-.00086-.0282-.01624-.05468-.03333-.07946-.05213-.03247-.02307-.06152-.04784-.0863-.07348-.03332-.03418-.05981-.07006-.08031-.1068-.03332-.0581-.04956-.11962-.04956-.18028l.00342-.97999c0 .05895.01538.11791.04614.1743.01965.03759.04613.07347.08031.10851.02478.02648.05383.05211.0863.07518.02477.0188.05126.03675.08031.05298.00085.00086.00171.00086.00256.0017.02649.01538.05468.0299.08288.04272.02649.01282.05383.02393.08116.03332.02734.01111.05639.0205.08544.02906.02564.00853.05297.01537.08031.02136.0282.00768.05725.01281.0863.01794.02649.00512.05297.0094.08031.01195.0282.00428.05639.00684.08544.00855.02649.00257.05383.00342.08031.00428.02905.00086.05724.00086.08629 0 .02649 0 .05383-.00171.08031-.00342.02905-.00171.05724-.00428.08544-.0077.02734-.00341.05383-.00683.08117-.01195.02819-.00513.05724-.01026.08544-.01709.02734-.00598.05383-.01282.08031-.02136.0299-.00769.0581-.01708.0863-.02819.02819-.00941.05468-.0205.08031-.03247.02991-.01367.0581-.02819.08544-.04358.00171-.00085.00428-.00257.00598-.00342.02734-.01538.05212-.03247.07519-.04955.03161-.02307.06067-.04785.08544-.07263.03332-.03417.05981-.0692.08031-.10595.03246-.05809.04955-.11875.04955-.1794z" fill="#7d5193"/><path d="m32.04999 26.74739c.39323.22703.39453.59501.00539.82115-.39067.22703-1.02595.22748-1.41918.00045-.39245-.22658-.39375-.59456-.00308-.82159.38913-.22614 1.02442-.22659 1.41687-.00001z" fill="#9b59b6"/><path d="m32.00418 26.77432c-.36739-.21189-.96119-.21189-1.32517 0-.20078.11704-.29135.2734-.26913.42634.01623-.12388.10595-.24522.26913-.34005.36397-.21189.95778-.21189 1.32517 0 .1649.09568.25632.21701.27341.34261.02136-.15379-.07006-.31186-.27341-.4289z" fill="#7d5193"/><g fill="#76508c"><path d="m32.00418 26.86062c-.36739-.21189-.96119-.21189-1.32517 0-.16319.09483-.2529.21617-.26913.34005.01623.12474.1068.24691.27255.34176.36739.21189.96119.21189 1.32688-.00085.16234-.09399.25205-.21445.26828-.33834-.01708-.12561-.10851-.24694-.27341-.34262z"/><path d="m32.29639 27.34078v.97146c-.01965.03844-.04699.07518-.08031.11022v-.97573c.03332-.03418.0598-.06921.08031-.10595z"/><path d="m32.13063 27.51935v.97657c-.02392.0188-.05041.03589-.0786.05213-.00085.00085-.00171.00085-.00257.00171v-.97744c.00171-.00085.00428-.00257.00598-.00342.02735-.01538.05213-.03246.07519-.04955z"/><path d="m31.96403 27.6159v.97744c-.02563.01195-.05297.02306-.08031.03331v-.97828c.02819-.00941.05468-.02051.08031-.03247z"/><path d="m31.79742 27.67656v.97915c-.02649.00769-.05297.01452-.08031.02136v-.97915c.02734-.00598.05383-.01282.08031-.02136z"/><path d="m31.63167 27.71501v.97914c-.02734.00513-.05383.00854-.08117.01111v-.97829c.02734-.00342.05383-.00684.08117-.01196z"/><path d="m31.46506 27.73466v.97914c-.02649.00257-.05383.00428-.08031.00428v-.97999c.02648-.00001.05383-.00172.08031-.00343z"/><path d="m31.29845 27.73808v.97999c-.02734 0-.05383-.00171-.08031-.00428v-.97999c.02649.00257.05383.00343.08031.00428z"/><path d="m31.1327 27.72526v.98086c-.02734-.00342-.05383-.00683-.08031-.01196v-.98086c.02648.00512.05297.0094.08031.01196z"/><path d="m30.96609 27.69536v.98084c-.02734-.00599-.05383-.01282-.08031-.02136v-.98084c.02564.00854.05297.01538.08031.02136z"/><path d="m30.80034 27.64495v.9817c-.02819-.01025-.05468-.02136-.08116-.03331v-.98171c.02648.01281.05382.02392.08116.03332z"/><path d="m30.63374 27.5672v.98256c0-.00086-.00085-.00086-.00085-.00086-.0282-.01624-.05468-.03333-.07946-.05213v-.98256c.02477.01881.05125.03676.08031.05299z"/><path d="m30.46713 27.43904v.98426c-.03332-.03418-.05981-.07006-.08031-.1068v-.98597c.01964.03759.04613.07347.08031.10851z"/></g><path d="m33.37853 30.72612v1.38l-.01001 1.84003-.76001.44h-.00995c.01996-.03998.02997-.07001.02997-.10999.03003-.08002.04999-.15002.06-.23004.03003-.15997.04999-.31.08002-.46997.04999-.42999.08002-.85999.07001-1.28003 0-.26001-.01001-.52997-.03003-.77997h.01001c.09003-.06.16998-.12.22998-.17999.07001-.05005.12-.11005.16003-.17004.04999-.06.08002-.12.09998-.17999.02002-.02997.04004-.07001.04004-.09998.01995-.04999.02996-.10998.02996-.16003z" fill="#d4d6d6"/></g><g><path d="m38.04852 27.91612v1.49005l-.00995 1.82996-.76001.44h-.01001l-2.91003 1.70001-.37.21002c-.01996-.04004-.01996-.08002-.01996-.12v-.74005c0-.00995 0-.00995 0-.01996l.00995-1.09003v-.79999l.01001-2.65997v-.25c0-.13.04004-.26001.13-.38v-.01001c-.01001-.01001 0-.02002 0-.02002.10004-.14996.25-.29999.46002-.41998h.01001c.03998-.03003.07996-.04999.12-.07001v-.01001h.01001c.29999-.20001.47998-.40997.47998-.78998v-1.98004h1.62v1.97003c0 .34998.15002.48999.40002.71997.07001.06.13995.11005.21997.15002l.01001.01001c.15002.08997.27002.17999.35999.28998v.01001c.16003.16999.23999.36.23999.53999z" fill="#1d9981"/><path d="m38.04852 27.91612v1.49005l-.00995 1.82996-.76001.44c.02997-.09998.04999-.20001.07001-.29999.03998-.16998.06995-.34998.08997-.52002.06-.41998.08002-.83997.07001-1.25995 0-.26001-.01001-.52002-.03003-.77002v-.01001c-.01996-.22998-.03998-.45001-.06-.66998 0 0 0 0 0-.01001-.06-.46002-.12994-.88-.19995-1.22003.07001.06.13995.11005.21997.15002l.01001.01001c.15002.08997.27002.17999.35999.28998 0 0 .01001 0 0 .01001.16002.16998.23998.35999.23998.53998z" fill="#1c8e78"/><g><path d="m37.47851 28.81614v.01001h-.00995c-.01001.01001-.01001.01001-.02002.01001-.31.17999-.69.28998-1.09998.32001h-.01001c-.48999.06-1 0-1.44-.17004 0 0 0 0-.01001 0-.09998-.04999-.21002-.08997-.29999-.14996-.22003-.12-.38-.27002-.47003-.42004l-.01001-.00995c-.06-.08002-.09998-.16003-.12-.25l-.01001 2.65997v.31l-.00995.48999v1.09003.01996.03003c.02997.22998.14996.42999.38995.62l2.91003-1.70001h.01001l.76001-.44.00995-1.82996v-1.38c-.00993.28995-.19994.56998-.56999.78995z" fill="#ecf0f1"/></g><path d="m37.01523 24.46555-.00341.97999c-.00085.05809-.01538.11534-.04614.17088-.01965.03844-.04699.07518-.08031.11022-.02478.02648-.05383.05125-.08544.07347-.02392.01879-.05041.03589-.0786.05213-.00085.00085-.00171.00085-.00257.00171-.02734.01537-.05553.02989-.08544.04358-.02563.01195-.05297.02306-.08031.03331-.02819.01025-.05639.02051-.08629.02906-.02649.00769-.05297.01452-.08031.02136-.02819.00598-.05639.01195-.08544.01708-.02734.00513-.05383.00854-.08117.01111-.0282.00426-.05724.00683-.08544.00854-.02649.00257-.05383.00428-.08031.00428-.02905.00086-.0581.00086-.0863 0-.02734 0-.05383-.00171-.08031-.00428-.02905-.00171-.05724-.00428-.08544-.00769-.02734-.00342-.05383-.00683-.08031-.01196-.02905-.00513-.0581-.01111-.0863-.01794-.02734-.00599-.05383-.01282-.08031-.02136-.02905-.0077-.05724-.01709-.08544-.0282-.02819-.01025-.05468-.02136-.08116-.03331-.02991-.01368-.05811-.0282-.08544-.04358 0-.00085-.00085-.00085-.00085-.00085-.0282-.01624-.05468-.03333-.07946-.05213-.03247-.02307-.06152-.04784-.08629-.07348-.03333-.03418-.05981-.07006-.08031-.1068-.03332-.0581-.04956-.11962-.04956-.18027l.00341-.97999c0 .05895.01538.11791.04614.1743.01965.03759.04613.07347.08031.10851.02477.02648.05383.0521.08629.07518.02478.01879.05126.03674.08031.05298.00085.00085.00171.00085.00256.0017.02649.01538.05468.0299.08288.04272.02649.01282.05383.02393.08116.03332.02734.01111.05639.0205.08544.02906.02563.00853.05297.01537.08031.02136.0282.00768.05725.01281.0863.01794.02649.00512.05297.0094.08031.01195.02819.00428.05639.00684.08544.00855.02649.00257.05383.00342.08031.00428.02905.00085.05724.00085.0863 0 .02649 0 .05383-.00171.08031-.00342.02905-.00171.05724-.00427.08544-.0077.02734-.00341.05383-.00683.08117-.01195.02819-.00513.05724-.01026.08544-.01709.02734-.00598.05383-.01282.08031-.02136.0299-.00769.0581-.01708.08629-.02819.02819-.00941.05468-.0205.08031-.03247.02991-.01367.0581-.02819.08544-.04358.00171-.00086.00428-.00257.00598-.00342.02734-.01538.05212-.03247.07519-.04955.03161-.02307.06067-.04785.08544-.07263.03332-.03417.05981-.0692.08031-.10594.03247-.05811.04956-.11877.04956-.17943z" fill="#7d5193"/><path d="m36.71927 24.05158c.39323.22703.39453.59501.00539.82115-.39067.22703-1.02595.22748-1.41918.00045-.39245-.22658-.39375-.59456-.00308-.8216.38914-.22613 1.02442-.22658 1.41687 0z" fill="#9b59b6"/><path d="m36.67347 24.07851c-.36739-.21189-.96119-.21189-1.32517 0-.20078.11704-.29135.2734-.26913.42634.01623-.12388.10594-.24522.26913-.34005.36398-.21189.95778-.21189 1.32517 0 .1649.09568.25632.21701.27341.34261.02136-.15379-.07006-.31186-.27341-.4289z" fill="#7d5193"/><g fill="#76508c"><path d="m36.67347 24.1648c-.36739-.21189-.96119-.21189-1.32517 0-.16319.09483-.2529.21616-.26913.34005.01623.12474.1068.24691.27254.34176.3674.21189.9612.21189 1.32688-.00086.16234-.09399.25205-.21445.26828-.33834-.01708-.1256-.1085-.24693-.2734-.34261z"/><path d="m36.96567 24.64496v.97146c-.01965.03844-.04699.07518-.08031.11022v-.97573c.03332-.03417.05981-.0692.08031-.10595z"/><path d="m36.79992 24.82354v.97657c-.02392.01879-.05041.03589-.0786.05213-.00085.00085-.00171.00085-.00257.00171v-.97743c.00171-.00086.00428-.00257.00598-.00342.02735-.01539.05213-.03248.07519-.04956z"/><path d="m36.63331 24.92009v.97743c-.02563.01195-.05297.02306-.08031.03331v-.97828c.0282-.0094.05468-.0205.08031-.03246z"/><path d="m36.46671 24.98075v.97915c-.02649.00769-.05297.01452-.08031.02136v-.97915c.02733-.00598.05382-.01282.08031-.02136z"/><path d="m36.30096 25.0192v.97914c-.02734.00513-.05383.00854-.08117.01111v-.97829c.02734-.00342.05382-.00684.08117-.01196z"/><path d="m36.13435 25.03885v.97914c-.02649.00257-.05383.00428-.08031.00428v-.97999c.02648-.00001.05382-.00172.08031-.00343z"/><path d="m35.96774 25.04227v.97999c-.02734 0-.05383-.00171-.08031-.00428v-.97999c.02648.00257.05382.00343.08031.00428z"/><path d="m35.80199 25.02944v.98086c-.02734-.00342-.05383-.00683-.08031-.01196v-.98084c.02648.00511.05296.00939.08031.01194z"/><path d="m35.63538 24.99955v.98084c-.02734-.00599-.05383-.01282-.08031-.02136v-.98084c.02563.00853.05297.01537.08031.02136z"/><path d="m35.46962 24.94913v.9817c-.02819-.01025-.05468-.02136-.08116-.03331v-.98171c.02649.01282.05383.02393.08116.03332z"/><path d="m35.30302 24.87139v.98256c0-.00085-.00085-.00085-.00085-.00085-.0282-.01624-.05468-.03333-.07946-.05213v-.98256c.02477.01879.05126.03674.08031.05298z"/><path d="m35.13641 24.74323v.98425c-.03333-.03418-.05981-.07006-.08031-.1068v-.98597c.01965.0376.04613.07348.08031.10852z"/></g><path d="m38.04852 28.02617v1.38l-.00995 1.82996-.76001.44c.02997-.09998.04999-.20001.07001-.29999.03998-.16998.06995-.34998.08997-.52002.06-.41998.08002-.83997.07001-1.25995 0-.26001-.01001-.52002-.03003-.77002v-.01001c.37004-.21997.56005-.5.57-.78997z" fill="#d4d6d6"/></g><g><path d="m42.71856 25.21617v.12l-.01001 3.19-.75.44h-.01001l-2.92999 1.69995-.35999.21002c-.02002-.03998-.02002-.07001-.02002-.10999v-.77002l.01001-1.07001v-.79999l.01001-2.66998v-.25c0-.13.03998-.26001.13-.38v-.01001c.07996-.15997.23999-.31.45996-.44h.01001c.37-.21002.60999-.42999.60999-.85999v-1.98004h1.62v1.97003c0 .34003.15002.48999.40002.71002.07001.06.14001.10999.21997.15997h.01001c.40003.24.60004.53999.60004.84004z" fill="#e67e22"/><path d="m42.71856 25.21617v.12l-.01001 3.19-.75.44h-.01001c.02002-.05005.02997-.10004.03998-.15002.20001-.88.22003-1.83002.16003-2.69-.04999-.73999-.16003-1.40997-.26001-1.90997.07001.06.14001.10999.21997.15997h.01001c.40003.23998.60004.53997.60004.84002z" fill="#cc6723"/><g><path d="m42.14855 26.12614c-.01001 0-.02002.01001-.03003.02002-.78998.45996-2.07001.45996-2.87 0-.21997-.13-.38-.28003-.45996-.44h-.01001c-.06-.08002-.10004-.17004-.12-.25l-.01001 2.66998v.01001l-.01001.78998v1.08002c.02002.22998.14001.46002.38.65997l2.92999-1.69995h.01001l.75-.44.01001-3.19c-.00999.27996-.19999.57-.56999.78997z" fill="#ecf0f1"/></g><path d="m41.68451 21.76974-.00341.97999c-.00085.05809-.01538.11534-.04614.17088-.01965.03844-.04699.07518-.08031.11022-.02478.02648-.05383.05125-.08544.07347-.02392.0188-.0504.03589-.0786.05213-.00085.00086-.00171.00086-.00257.00171-.02734.01537-.05553.02989-.08544.04358-.02563.01195-.05297.02306-.08031.03331-.0282.01025-.0564.0205-.0863.02906-.02649.00769-.05297.01452-.08031.02136-.02819.00598-.05639.01195-.08544.01708-.02734.00513-.05383.00854-.08117.01111-.0282.00427-.05724.00683-.08544.00854-.02649.00257-.05383.00428-.08031.00428-.02905.00085-.0581.00085-.0863 0-.02734 0-.05383-.00171-.08031-.00428-.02905-.00171-.05724-.00428-.08544-.00769-.02734-.00342-.05383-.00683-.08031-.01196-.02905-.00513-.0581-.01111-.0863-.01794-.02734-.00599-.05383-.01282-.08031-.02136-.02905-.0077-.05724-.01709-.08544-.0282-.02819-.01025-.05468-.02136-.08116-.03331-.02991-.01368-.05811-.0282-.08544-.04358 0-.00085-.00085-.00085-.00085-.00085-.0282-.01624-.05468-.03333-.07946-.05213-.03247-.02307-.06152-.04784-.08629-.07348-.03333-.03418-.05981-.07006-.08031-.1068-.03332-.0581-.04956-.11962-.04956-.18028l.00342-.97999c0 .05895.01538.11791.04614.1743.01965.03759.04613.07347.08031.10851.02478.02648.05383.05211.08629.07518.02478.0188.05126.03675.08031.05298.00085.00085.00171.00085.00256.0017.02649.01538.05468.0299.08288.04272.02649.01282.05383.02393.08116.03332.02734.01111.05639.0205.08544.02906.02563.00853.05297.01537.08031.02136.0282.00768.05725.01281.0863.01794.02649.00512.05297.0094.08031.01195.02819.00428.05639.00684.08544.00855.02649.00257.05383.00342.08031.00428.02905.00085.05724.00085.0863 0 .02649 0 .05383-.00171.08031-.00342.02905-.00171.05724-.00428.08544-.0077.02734-.00341.05383-.00683.08117-.01195.02819-.00513.05724-.01026.08544-.01709.02734-.00598.05383-.01282.08031-.02136.0299-.00769.0581-.01708.0863-.02819.02819-.00941.05468-.02051.08031-.03247.02991-.01367.0581-.02819.08544-.04358.00171-.00085.00428-.00257.00598-.00342.02734-.01538.05212-.03247.07519-.04955.03161-.02307.06067-.04785.08544-.07263.03332-.03417.05981-.0692.08031-.10595.03247-.05809.04955-.11875.04955-.17941z" fill="#7d5193"/><path d="m41.38856 21.35576c.39323.22703.39453.59501.00539.82115-.39067.22703-1.02595.22748-1.41918.00045-.39245-.22658-.39375-.59456-.00308-.82159.38913-.22614 1.02442-.22659 1.41687-.00001z" fill="#9b59b6"/><path d="m41.34275 21.3827c-.36739-.21189-.96119-.21189-1.32517 0-.20078.11704-.29135.2734-.26913.42634.01623-.12388.10594-.24522.26913-.34005.36398-.21189.95778-.21189 1.32517 0 .1649.09568.25632.21701.27341.34262.02136-.1538-.07006-.31187-.27341-.42891z" fill="#7d5193"/><g fill="#76508c"><path d="m41.34275 21.46899c-.36739-.21189-.96119-.21189-1.32517 0-.16319.09483-.2529.21617-.26913.34005.01623.12474.1068.24691.27255.34176.36739.21189.96119.21189 1.32688-.00085.16234-.09399.25205-.21445.26828-.33834-.01708-.12561-.10851-.24694-.27341-.34262z"/><path d="m41.63496 21.94915v.97146c-.01965.03844-.04699.07518-.08031.11022v-.97573c.03332-.03417.0598-.0692.08031-.10595z"/><path d="m41.4692 22.12773v.97657c-.02392.0188-.0504.03589-.0786.05213-.00085.00086-.00171.00086-.00257.00171v-.97744c.00171-.00085.00428-.00257.00598-.00342.02735-.01539.05213-.03247.07519-.04955z"/><path d="m41.3026 22.22427v.97744c-.02563.01195-.05297.02306-.08031.03331v-.97828c.02819-.00941.05468-.0205.08031-.03247z"/><path d="m41.13599 22.28493v.97915c-.02649.00769-.05297.01452-.08031.02136v-.97915c.02734-.00597.05383-.01282.08031-.02136z"/><path d="m40.97024 22.32339v.97914c-.02734.00513-.05383.00854-.08117.01111v-.97829c.02734-.00342.05383-.00684.08117-.01196z"/><path d="m40.80363 22.34304v.97914c-.02649.00257-.05383.00428-.08031.00428v-.97999c.02649-.00001.05383-.00172.08031-.00343z"/><path d="m40.63702 22.34646v.97999c-.02734 0-.05383-.00171-.08031-.00428v-.97999c.02648.00257.05383.00342.08031.00428z"/><path d="m40.47127 22.33363v.98086c-.02734-.00342-.05383-.00683-.08031-.01196v-.98085c.02648.00512.05297.00939.08031.01195z"/><path d="m40.30466 22.30374v.98085c-.02734-.00599-.05383-.01282-.08031-.02136v-.98085c.02563.00853.05297.01537.08031.02136z"/><path d="m40.13891 22.25332v.9817c-.02819-.01025-.05468-.02136-.08116-.03331v-.98171c.02648.01282.05382.02392.08116.03332z"/><path d="m39.97231 22.17558v.98256c0-.00085-.00085-.00085-.00085-.00085-.0282-.01624-.05468-.03333-.07946-.05213v-.98256c.02477.01879.05125.03674.08031.05298z"/><path d="m39.8057 22.04742v.98426c-.03333-.03418-.05981-.07006-.08031-.1068v-.98597c.01964.03759.04613.07346.08031.10851z"/></g><path d="m42.71856 25.33616-.01001 3.19-.75.44c.01001-.05005.01996-.10004.02997-.15002.20001-.88.22003-1.83002.16003-2.69.37-.21997.56-.51001.57001-.78998z" fill="#d4d6d6"/></g></g><path d="m45.26854 27.04616-2.56 1.48-.75.44h-.01l-2.93 1.7-.36.21-.62.36-.76.44h-.01l-2.91 1.7-.37.21-.62.36-.76.44h-.01l-2.9 1.68-.38.22-.62.36-.75.44-.02.01-2.89 1.68-.39.22-.61.36h-.01l-.17.1-.46-.26h-.01l-3.28-1.87-.13-.08-.51-.28-.01-.01-3.41-1.94-3.18-1.8" fill="none"/></g></svg>