<svg id="Layer_1" enable-background="new 0 0 52 52" height="512" viewBox="0 0 52 52" width="512" xmlns="http://www.w3.org/2000/svg"><g><g><g enable-background="new"><g><path d="m48.86605 33.12697-.00424 1.49576-19.23566 11.17854.00424-1.49575z" fill="#d4d6d6"/></g><g><path d="m29.63039 44.30552-.00424 1.49575-26.4922-15.29528.00424-1.49575z" fill="#c4c6c6"/></g><g><path d="m48.86605 33.12697-19.23566 11.17855-26.4922-15.29528 19.23566-11.17855z" fill="#ecf0f1"/></g></g></g><g><g enable-background="new"><g><path d="m48.86605 34.34695-.00424 4.4745-19.23566 11.17855.00424-4.4745z" fill="#3f434f"/></g><g><path d="m29.63039 45.5255-.00424 4.4745-26.4922-15.29528.00424-4.4745z" fill="#474b59"/></g><g><path d="m48.38206 34.46905-18.82851 10.94193-25.93146-14.97153 18.82851-10.94194z" fill="#ecf0f1"/></g></g></g><g><g><g enable-background="new"><g><path d="m10.2983 5.09859.03588 28.99187 1.07558.62506-.03588-28.99187z" fill="#b27e4b"/></g><g><path d="m11.37388 5.72365.03588 28.99187 1.07881-.62285-.03587-28.99187z" fill="#bc874d"/></g><g><path d="m10.2983 5.09859 1.07558.62506 1.07882-.62285-1.07558-.62506z" fill="#a27442"/></g></g></g><g><path d="m8.22174 14.74422 7.53558-4.3792.01597-5.63468-7.53558 4.3792z" fill="#474b59"/></g><path d="m8.23771 9.10954 7.53558-4.3792-.82546-2.27053-7.53558 4.3792z" fill="#525566"/><path d="m8.40401 6.63046.60929 1.65143 5.75609-3.33496-.59325-1.66758z" fill="#2ecc71"/><g><path d="m7.41225 6.83901 7.53558-4.3792-.79642-.45981-7.53558 4.3792z" fill="#5b5e71"/></g><g><path d="m6.61583 6.3792-.02105 7.42569 1.62696.93933.01597-5.63468-.82546-2.27053z" fill="#3f434f"/></g><g><g><path d="m10.21044 8.59044.00303 1.06944-.92368.53329-.00303-1.06945z" fill="#ecf0f1"/></g><g><path d="m11.70796 7.72584.00303 1.06945-.9307.53734-.00304-1.06944z" fill="#ecf0f1"/></g><g><path d="m13.19845 6.86531.00303 1.06945-.9237.5333-.00303-1.06945z" fill="#84dbff"/></g><g><path d="m14.69594 6.00073.00303 1.06945-.93068.53733-.00303-1.06945z" fill="#e74c3c"/></g><g><path d="m10.21509 10.23076.00303 1.06945-.92368.53329-.00303-1.06945z" fill="#ecf0f1"/></g><g><path d="m11.71261 9.36617.00303 1.06945-.9307.53734-.00304-1.06945z" fill="#ecf0f1"/></g><g><path d="m13.2031 8.50564.00303 1.06944-.9237.53331-.00303-1.06945z" fill="#ecf0f1"/></g><g><path d="m14.70059 7.64106.00303 1.06945-.93068.53733-.00303-1.06945z" fill="#ecf0f1"/></g><g><path d="m10.21976 11.87916.00301 1.06138-.92368.53329-.003-1.06138z" fill="#ecf0f1"/></g><g><path d="m11.71728 11.01457.00301 1.06138-.9307.53734-.00301-1.06138z" fill="#ecf0f1"/></g><g><path d="m13.20777 10.15403.00301 1.06138-.9237.5333-.00301-1.06138z" fill="#ecf0f1"/></g><g><path d="m14.70526 9.28946.00301 1.06138-.93068.53732-.00301-1.06137z" fill="#ecf0f1"/></g></g></g><g><g enable-background="new"><g><path d="m48.86605 33.12697-.00424 1.49576-19.23566 11.17854.00424-1.49575z" fill="#c4c6c6"/></g><g><path d="m29.63039 44.30552-.00424 1.49575-26.4922-15.29528.00424-1.49575z" fill="#e0e2e2"/></g><g><path d="m48.86605 33.12697-19.23566 11.17855-26.4922-15.29528 19.23566-11.17855z" fill="#ecf0f1"/></g></g></g><g><path d="m41.42473 31.57244c1.48396.85676 1.48402 2.25011.00974 3.10687l-9.14841 5.31647c-1.47429.85677-3.87975.86128-5.36371.00452l-16.33893-9.43328c-1.48393-.85675-1.49183-2.25462-.01754-3.11138l9.14841-5.31647c1.47429-.85676 3.88758-.85676 5.37151-.00001zm-9.56822 8.17535 9.14841-5.31647c1.24148-.72147 1.22711-1.88939-.01472-2.60635l-16.33893-9.43328c-1.24963-.72147-3.25812-.72146-4.4996.00001l-9.14841 5.31647c-1.23376.71698-1.23493 1.88486.01469 2.60634l16.33893 9.43329c1.24183.71695 3.26587.71697 4.49963-.00001" fill="#c4c6c6"/></g><g><path d="m36.82285 28.81257v4.5657l-9.44877 5.4929v-4.56566l2.36292-1.37407.50594-.29321z" fill="#e5bd13"/><path d="m27.37443 34.30616-.00156 4.56288-12.56722-7.24939.00156-4.56287z" fill="#d6b218"/><path d="m36.82447 28.8144-9.45004 5.49176-12.56722-7.24938 9.45004-5.49177z" fill="#f1c40f"/><path d="m32.35872 31.40961-.51854.30134-12.56722-7.24938.51854-.30135z" fill="#e5bd13"/><path d="m32.35143 31.41359v.76482l-.50593.29321v-.76481z" fill="#d6b218"/></g><g><g><path d="m16.93916 30.08941c.14541.23367.21775.4864.21698.7559-.00076.26724-.07231.43916-.2127.51463-.14234.07434-.35739.02957-.64712-.1377l-.49864-.28789.0049-1.72798.51638.29813c.27001.15589.47674.3501.6202.58491zm-.18636.97218c.09686-.04389.14655-.16265.1471-.35742.00112-.39633-.19541-.70715-.58959-.93473l-.25425-.14679-.00336 1.18445.28184.16272c.18132.10469.32141.13566.41826.09177"/></g><g><path d="m18.54018 30.78692-.00078.27403-.80216-.46313-.0013.45747.72135.41648-.00074.26044-.72135-.41648-.00131.46201.82975.47906-.00078.27403-1.08202-.62471.0049-1.72798z"/></g><g><path d="m19.14524 31.13626-.00411 1.45168.68588.39599-.00078.2763-.94013-.54278.0049-1.72799z"/></g><g><path d="m20.36327 31.83948-.0049 1.72798-.25425-.14679.0049-1.72798z"/></g><g><path d="m22.07007 32.82491-.608 1.37978-.28381-.16387-.60018-2.07731.28382.16386.4595 1.55829.46486-1.02461z"/></g><g><path d="m23.3413 33.55885-.00077.27403-.80217-.46313-.00129.45747.72135.41648-.00074.26044-.72135-.41647-.00131.462.82975.47906-.00078.27403-1.08202-.62471.0049-1.72798z"/></g><g><path d="m24.56408 35.36727.3924.8549-.32322-.18661-.35706-.78913-.33308-.19231-.00165.58203-.25425-.14679.0049-1.72798.55973.32316c.2306.13314.39406.27288.49235.41809.09829.14522.14717.31635.14661.51338-.00081.28537-.10972.4017-.32673.35126zm-.01098-.30124c.05138-.0225.07723-.08924.07755-.20248s-.02508-.20504-.07817-.27878c-.05309-.07149-.14764-.14649-.28364-.22501l-.32322-.18661-.00175.61827.31731.1832c.1419.08193.24053.11165.29192.09141"/></g><g><path d="m26.3824 35.31463-.56269.72314-.00194.68168-.25819-.14907.00193-.68168-.55676-1.36946.27789.16044.40772 1.02254.41415-.54803z"/></g></g><g><g><path d="m16.93916 30.08941c.14541.23367.21775.4864.21698.7559-.00076.26724-.07231.43916-.2127.51463-.14234.07434-.35739.02957-.64712-.1377l-.49864-.28789.0049-1.72798.51638.29813c.27001.15589.47674.3501.6202.58491zm-.18636.97218c.09686-.04389.14655-.16265.1471-.35742.00112-.39633-.19541-.70715-.58959-.93473l-.25425-.14679-.00336 1.18445.28184.16272c.18132.10469.32141.13566.41826.09177"/></g><g><path d="m18.54018 30.78692-.00078.27403-.80216-.46313-.0013.45747.72135.41648-.00074.26044-.72135-.41648-.00131.46201.82975.47906-.00078.27403-1.08202-.62471.0049-1.72798z"/></g><g><path d="m19.14524 31.13626-.00411 1.45168.68588.39599-.00078.2763-.94013-.54278.0049-1.72799z"/></g><g><path d="m20.36327 31.83948-.0049 1.72798-.25425-.14679.0049-1.72798z"/></g><g><path d="m22.07007 32.82491-.608 1.37978-.28381-.16387-.60018-2.07731.28382.16386.4595 1.55829.46486-1.02461z"/></g><g><path d="m23.3413 33.55885-.00077.27403-.80217-.46313-.00129.45747.72135.41648-.00074.26044-.72135-.41647-.00131.462.82975.47906-.00078.27403-1.08202-.62471.0049-1.72798z"/></g><g><path d="m24.56408 35.36727.3924.8549-.32322-.18661-.35706-.78913-.33308-.19231-.00165.58203-.25425-.14679.0049-1.72798.55973.32316c.2306.13314.39406.27288.49235.41809.09829.14522.14717.31635.14661.51338-.00081.28537-.10972.4017-.32673.35126zm-.01098-.30124c.05138-.0225.07723-.08924.07755-.20248s-.02508-.20504-.07817-.27878c-.05309-.07149-.14764-.14649-.28364-.22501l-.32322-.18661-.00175.61827.31731.1832c.1419.08193.24053.11165.29192.09141"/></g><g><path d="m26.3824 35.31463-.56269.72314-.00194.68168-.25819-.14907.00193-.68168-.55676-1.36946.27789.16044.40772 1.02254.41415-.54803z"/></g></g></g></svg>