<svg id="Layer_1" enable-background="new 0 0 52 52" height="512" viewBox="0 0 52 52" width="512" xmlns="http://www.w3.org/2000/svg"><g><g><g><g><g><path d="m30.583 33.85333c0 .67374-.25259 1.13678-.6316 1.34749l-.88419.54681c.37901-.25233.34002-.71497.34002-1.38871 0-1.38911-.88297-2.57796-2.06189-3.29384-.6316-.33661-.97233-.83228-1.39349-.57994l.88419-.54681c.4209-.2107.96822-.16856 1.59982.16805 1.17866.67374 2.14714 2.35784 2.14714 3.74695z" fill="#525566"/></g><g><path d="m27.54048 30.6242c1.18268.68282 2.1472 2.35375 2.14326 3.74332-.00377 1.32841-.97468 1.91255-2.15736 1.22973-1.20957-.69835-2.20089-2.41538-2.19712-3.74379.00394-1.38957 1.00165-1.92761 2.21122-1.22926z" fill="#3f434f"/></g></g><g><path d="m11.21834 11.60603c-.03872.02254-.07223.05432-.09852.09592-.00751.01213-.01445.02485-.0208.03814-.0052.0104-.00953.02138-.01387.03236-.00347.00982-.00693.01965-.00982.03005-.00289.00924-.0052.01907-.00751.02889-.00231.00925-.00404.01849-.00578.02831-.00144.00867-.00289.01791-.00405.02774-.00115.00925-.00231.01849-.00289.02831-.00087.00925-.00144.01849-.00173.02774-.00058.00925-.00058.01849-.00087.02831v.00173l-.013 4.61931 1.00083-.58189.01329-4.61873c.00029-.18549.06501-.30973.16555-.36751z" fill="#c14242"/><path d="m12.63291 9.88289c-.01647-.00925-.03294-.01849-.04941-.02774-.02138-.01155-.04247-.02195-.06356-.03235s-.04189-.0208-.0627-.03005c-.0208-.00925-.0416-.01791-.06212-.026-.0208-.00867-.0416-.01618-.06241-.02369-.0208-.00693-.0416-.01387-.06212-.02022-.02138-.00636-.04247-.01213-.06356-.01791-.02138-.00462-.04276-.00924-.06385-.01387-.02282-.00462-.04536-.00809-.06761-.01098-.01676-.00231-.03351-.00404-.05027-.0052-.00115 0-.00231 0-.00347 0-.00491-.00058-.00982-.00116-.01445-.00173-.02485-.00173-.0497-.00289-.07396-.00289-.02745.00058-.05403.00173-.08032.00462-.03063.00231-.06038.00693-.08957.01271-.03785.00751-.07454.01733-.11008.03005-.04449.01618-.08697.03583-.12741.05894l-1.00083.58189c.14128-.08205.30944-.11788.49579-.10228h.00347c.18664.01618.39149.08379.60761.2086l2.75026 1.58792 1.00083-.58189z" fill="#e74c3c"/><g><path d="m15.4202 9.03411 1.00089-.58166-.08074 28.4776-1.00089.58166z" fill="#c14242"/></g><g><path d="m14.39261 8.44083 1.00089-.58166 1.02759.59328-1.00089.58166z" fill="#e74c3c"/></g><g><path d="m15.4202 9.03411-.08073 28.4776-1.02759-.59328.06715-23.68525-2.75031-1.58789c-.30222-.17449-.575-.05361-.57608.32841l-.01309 4.61901-.99741-.57585.01309-4.61901c.00286-1.00708.70035-1.43901 1.57683-.93298l2.75031 1.58789.01024-3.61193z" fill="#c44"/></g></g><g><path d="m21.89929 5.38412c-.03872.02254-.07223.05432-.09852.09592-.00751.01214-.01445.02485-.0208.03814-.0052.0104-.00953.02138-.01387.03236-.00347.00982-.00693.01965-.00982.03005-.00289.00925-.0052.01907-.00751.02889-.00231.00925-.00404.01849-.00578.02831-.00145.00867-.00289.01791-.00405.02774-.00116.00925-.00231.01849-.00289.02831-.00087.00925-.00144.01849-.00173.02774-.00058.00925-.00058.01849-.00087.02831v.00173l-.013 4.61931 1.00083-.58189.01329-4.61873c.00029-.18549.06501-.30973.16555-.36751z" fill="#c14242"/><path d="m23.31386 3.66098c-.01647-.00925-.03294-.01849-.04941-.02774-.02138-.01156-.04247-.02196-.06356-.03236s-.04189-.0208-.0627-.03005c-.0208-.00925-.0416-.01791-.06212-.026-.0208-.00867-.0416-.01618-.06241-.02369-.0208-.00693-.0416-.01387-.06212-.02022-.02138-.00636-.04247-.01213-.06356-.01791-.02138-.00462-.04276-.00925-.06385-.01387-.02283-.00462-.04536-.00809-.06761-.01098-.01676-.00231-.03352-.00405-.05027-.0052-.00116 0-.00231 0-.00347 0-.00491-.00058-.00982-.00116-.01445-.00173-.02485-.00173-.04969-.00289-.07396-.00289-.02745.00058-.05403.00173-.08032.00462-.03063.00231-.06039.00693-.08957.01271-.03785.00751-.07454.01734-.11008.03005-.04449.01618-.08697.03583-.12742.05894l-1.00083.58189c.14128-.08205.30944-.11788.49579-.10228h.00347c.18664.01618.39149.08379.6076.2086l2.75026 1.58792 1.00083-.58189z" fill="#e74c3c"/><g><path d="m26.10114 2.81219 1.0009-.58166-.08074 28.47761-1.00089.58165z" fill="#c14242"/></g><g><path d="m25.07355 2.21891 1.0009-.58166 1.02759.59328-1.0009.58166z" fill="#e74c3c"/></g><g><path d="m26.10114 2.81219-.08073 28.4776-1.02759-.59328.06715-23.68525-2.75031-1.58789c-.30222-.17449-.575-.05361-.57608.32841l-.01309 4.61901-.99741-.57585.0131-4.61901c.00286-1.00708.70035-1.43901 1.57683-.93298l2.75031 1.58789.01024-3.61193z" fill="#c44"/></g></g><g enable-background="new"><g><path d="m25.69343 35.72294-.91326-.53073-.01014-3.57713.91326.53073z" fill="#525566"/></g><g><path d="m25.67778 30.2008-.67334-.3913-.02373-8.36943.67334.3913z" fill="#525566"/></g><g><path d="m17.80425 34.74659-.67334-.3913 7.87353-4.54579.67334.3913z" fill="#5b5e71"/></g><g><path d="m25.64854 19.88653-.67334-.3913-.01831-6.45975.67333.3913z" fill="#525566"/></g><g><path d="m25.6127 7.24528-.67334-.3913 1.66239-.95977.67333.3913z" fill="#5b5e71"/></g><g><path d="m25.62481 11.51657-.67334-.3913-.01211-4.27129.67334.3913z" fill="#525566"/></g><g><path d="m17.77501 24.43232-.67334-.3913 7.87353-4.54579.67334.3913z" fill="#5b5e71"/></g><g><path d="m17.75128 16.06236-.67334-.3913 7.87353-4.54579.67334.3913z" fill="#5b5e71"/></g><g><path d="m16.15767 41.22842-.67334-.3913-.08073-28.47766.67334.3913z" fill="#525566"/></g><g><path d="m25.6127 7.24528 1.66238-.95978.08073 28.47766-1.66238.95978-.01014-3.57713-7.87353 4.54579.01014 3.57713-1.66223.95969-.08073-28.47766 1.66223-.95969.01211 4.27129 7.87353-4.54579zm.06508 22.95552-.02373-8.36943-7.87353 4.54579.02373 8.36943zm-.02924-10.31427-.01831-6.45976-7.87353 4.54578.01831 6.45976z" fill="#474b59"/></g><g><path d="m16.07694 12.75076-.67334-.3913 1.66223-.95969.67334.3913z" fill="#5b5e71"/></g></g><g><path d="m32.43332 49.41026-1.65002.9517-14.61691-10.3752 1.65001-.95197z" fill="#525566"/><g><path d="m16.16352 39.9215 14.6103 10.44124-14.61615-9.17382z" fill="#474b59"/></g></g><g><path d="m41.95787 43.93777-1.65002.9517-14.617-10.35677 1.65002-.95197z" fill="#525566"/><g><path d="m25.68773 34.52275 14.61064 10.3675-14.61615-9.17382z" fill="#474b59"/></g></g><g><g><path d="m18.04707 40.86479c0 .67374-.25259 1.13678-.6316 1.34749l-.93029.55022c.37901-.25233.61587-.72652.61587-1.40026 0-1.38911-1.00282-2.77993-2.18174-3.49582-.6316-.33662-1.08223-.62217-1.50339-.36983l.88419-.54681c.4209-.2107.96822-.16856 1.59982.16805 1.17867.67375 2.14714 2.35785 2.14714 3.74696z" fill="#3f434f"/></g><g><path d="m15.00455 37.63566c1.18268.68282 2.1472 2.35375 2.14326 3.74332-.00377 1.32841-.97468 1.91255-2.15736 1.22973-1.20957-.69835-2.20089-2.41538-2.19712-3.74379.00394-1.38957 1.00166-1.92761 2.21122-1.22926z" fill="#525566"/></g><g><path d="m14.99421 38.38971c.82273.475 1.49369 1.63738 1.49096 2.60403-.00262.92411-.67803 1.33046-1.50076.85546-.84143-.4858-1.53104-1.68025-1.52842-2.60436.00273-.96665.69679-1.34093 1.53822-.85513z" fill="#ecf0f1"/></g></g></g></g><g><g enable-background="new"><path d="m39.53815 42.00001c-.26188-.20452-.5125-.25651-.67957-.17087l-.78223.40054c.16734-.08557.41796-.03365.67984.17094.43026.33625.72684.94499.66831 1.35011l.78197-.40061c.05865-.40506-.23793-1.01386-.66832-1.35011z" fill="#ecf0f1"/><g><path d="m38.75609 42.40062c.43037.33624.72691.94501.66832 1.35009l-1.54538-1.20738c.0586-.40508.45315-.47391.87706-.14271z" fill="#d4d6d6"/></g></g></g><g><g enable-background="new"><path d="m30.15038 47.71431c-.26188-.20453-.5125-.25651-.67957-.17088l-.78223.40054c.16734-.08557.41796-.03365.67983.17094.43027.33625.72684.94498.66831 1.35011l.78197-.40061c.05866-.40505-.23792-1.01385-.66831-1.3501z" fill="#ecf0f1"/><g><path d="m29.36832 48.11491c.43037.33624.72691.94501.66832 1.35009l-1.54538-1.20738c.0586-.40508.45315-.4739.87706-.14271z" fill="#d4d6d6"/></g></g></g><g><path d="m38.16736 34.48635-5.9155-3.43773-12.52117 7.22915.03817 6.60229 5.9155 3.43772 12.5212-7.22915-.03799-6.56413z" fill="#f1c40f"/><g><path d="m32.25185 31.04864-12.52117 7.22913.03818 6.60234 5.91551 3.43769 12.52117-7.22914-.03818-6.60234z" fill="#ecf0f1"/><g><g><g><path d="m19.73068 38.27775.03818 6.60233 5.91551 3.43772-.03818-6.60233z" fill="#d6b218"/></g><path d="m25.64619 41.71547.03818 6.60233 12.52118-7.22911-.03818-6.60233z" fill="#e5bd13"/><g><g><path d="m37.39881 35.98513.24547-.14172.03483 4.48328-.24753-.12448z" fill="#d6b218"/><path d="m37.43158 40.20221.24753.12448v.00005l-11.47202 6.62315-.00206-.26624z" fill="#f1c40f"/><path d="m37.39881 35.98513.03277 4.21708-11.22655 6.48144-.0324-4.21709z" fill="#c6a51a"/><path d="m30.49637 40.45851.01866 2.40131-3.67443 2.12131-.01845-2.40131z" fill="#ecf0f1"/></g></g><g><g><path d="m20.56264 39.80228-.24547-.14172-.03483 4.48328.24753-.12448z" fill="#e5bd13"/><path d="m20.52987 44.01936-.24753.12448v.00005l4.8159 2.78023.00206-.26623z" fill="#f1c40f"/><path d="m20.56264 39.80228-.03277 4.21708 4.57043 2.63853.03241-4.21709z" fill="#c6a51a"/></g></g><path d="m19.73068 38.27775 5.91551 3.43772 12.52118-7.22911-5.91551-3.43772z" fill="#f1c40f"/><g><path d="m32.25128 31.65611v.28081l-4.34236 2.50796-.24245-.14089z" fill="#eaaa42"/><path d="m37.11857 34.48483-.2424.13992-4.62489-2.68783v-.28081z" fill="#d6b218"/><path d="m27.90892 34.44488 4.34236-2.50796 4.62489 2.68783-4.34204 2.50796z" fill="#e5bd13"/></g><g><path d="m26.98145 34.69762v.28081l-5.55893 3.20819-.24245-.14089z" fill="#c6a51a"/><path d="m31.84874 37.52634-.2424.13992-4.62489-2.68783v-.28081z" fill="#d6b218"/><path d="m21.42252 38.18662 5.55893-3.20819 4.62489 2.68783-5.55861 3.20819z" fill="#e5bd13"/></g></g><g><g><g><g><g><path d="m24.27328 44.03979-.19478.37068.12063.06966.2662.15256z" fill="#3f434f"/></g></g></g><g><g><g><path d="m24.19913 44.48013-.00207.73328.14555.08404.00208-.73328z" fill="#3f434f"/></g></g></g><g><g><g><path d="m23.47607 44.8625-.00044.15697 1.00493.58028.00044-.15697z" fill="#3f434f"/></g></g></g><g><g><g><path d="m21.63958 42.5629-.00148.52246c-.00047.16499.09486.3566.2214.45377l-.00134.47091c-.08876-.04092-.15568-.0371-.15582.01216l.39181.22625c.00014-.04927-.06654-.13023-.15524-.19178l.00134-.47091c.05785.02308.1078.01749.14681-.00703.04603-.03424.07617-.09832.07643-.18998l.00148-.52246z" fill="#3f434f"/></g></g></g><g><g><g><path d="m23.61691 44.14393-.00208.73328.14556.08405.00208-.73328z" fill="#3f434f"/></g></g></g><g><g><g><path d="m23.69006 43.70302-.19378.37125.12063.06966.2652.15198z" fill="#3f434f"/></g></g></g></g><g><g><g><g><path d="m22.66872 44.76129c-.01785 0-.0371-.00564-.05589-.01644l-1.36297-.78681c-.05824-.03382-.10567-.1179-.10567-.18649l.0047-1.56892c0-.03946.0155-.07093.04227-.08643.02677-.01503.06012-.01268.09299.00611l1.36297.78681c.06012.03523.10896.11931.10802.18789l-.00423 1.56892c0 .03899-.01597.06999-.04321.08502-.01174.00705-.02489.01034-.03898.01034zm-1.43906-2.59764c-.00376 0-.00705.00094-.00986.00235-.00846.00517-.01362.01879-.01362.03664l-.0047 1.56892c0 .04885.03617.11274.0775.13669l1.36297.78681c.0155.00893.02865.00986.03757.00611.00845-.00517.01362-.01785.01409-.03523l.00423-1.56892c0-.04791-.03757-.11367-.07984-.1381l-1.36297-.78681c-.0094-.00564-.01833-.00846-.02537-.00846z" fill="#3f434f"/></g></g></g><g><g><g><path d="m24.69721 45.93234c-.01785 0-.0371-.00517-.05542-.01597l-1.36297-.78681c-.05965-.03429-.10614-.11649-.10614-.18649l.0047-1.56939c0-.03899.01503-.07046.04227-.08596.02724-.01597.06012-.01362.09299.00563l1.36297.78728c.06012.03429.10896.11884.10802.18789l-.00423 1.56892c0 .03805-.01503.06905-.0418.08455-.01221.00706-.02583.01035-.04039.01035zm-1.43859-2.59717c-.00376 0-.00751.00094-.01033.00235-.00845.00517-.01362.01832-.01362.03617l-.0047 1.56939c0 .04885.03663.11274.07796.13669l1.3625.78681c.01503.00846.02912.00986.03804.00564.00845-.00517.01362-.01785.01362-.03476l.00423-1.56892c0-.04838-.03757-.11367-.07984-.1381l-1.36297-.78728c-.00939-.00517-.01785-.00799-.02489-.00799z" fill="#3f434f"/></g></g></g></g></g></g><g><g enable-background="new"><g><path d="m30.20812 42.7388.00022.07735-3.04099 1.75572-.00022-.07735z" fill="#b0b3bd"/></g><g><path d="m30.20746 42.50676.00022.07735-3.04099 1.75571-.00022-.07735z" fill="#b0b3bd"/></g><g><path d="m30.2068 42.27471.00022.07735-3.04099 1.75572-.00022-.07735z" fill="#b0b3bd"/></g><g><path d="m30.20614 42.04273.00022.07728-3.04099 1.75572-.00022-.07728z" fill="#b0b3bd"/></g><g><path d="m30.20549 41.81068.00022.07735-3.041 1.75572-.00022-.07735z" fill="#b0b3bd"/></g><g><path d="m30.20483 41.57863.00022.07735-3.041 1.75572-.00021-.07735z" fill="#b0b3bd"/></g><g><path d="m30.20417 41.34658.00022.07735-3.04099 1.75572-.00022-.07735z" fill="#b0b3bd"/></g><g><path d="m30.20351 41.11454.00022.07735-3.04099 1.75572-.00022-.07736z" fill="#b0b3bd"/></g><g><path d="m30.20286 40.88256.00022.07735-3.041 1.75572-.00022-.07735z" fill="#b0b3bd"/></g></g></g><path d="m37.17119 38.73488.0102 1.31241-2.00822 1.15938-.01008-1.31241z" fill="#ecf0f1"/><g><g enable-background="new"><g><path d="m37.01365 39.98115.00012.04227-1.66202.95957-.00012-.04227z" fill="#b0b3bd"/></g><g><path d="m37.01329 39.85432.00012.04228-1.66202.95957-.00012-.04228z" fill="#b0b3bd"/></g><g><path d="m37.01293 39.7275.00012.04228-1.66202.95956-.00012-.04227z" fill="#b0b3bd"/></g><g><path d="m37.01257 39.60072.00012.04223-1.66202.95957-.00012-.04224z" fill="#b0b3bd"/></g><g><path d="m37.01221 39.47389.00012.04228-1.66202.95956-.00012-.04227z" fill="#b0b3bd"/></g><g><path d="m37.01185 39.34707.00012.04227-1.66202.95957-.00012-.04227z" fill="#b0b3bd"/></g><g><path d="m37.01149 39.22025.00012.04227-1.66202.95957-.00012-.04228z" fill="#b0b3bd"/></g><g><path d="m37.01114 39.09342.00011.04228-1.66202.95956-.00012-.04227z" fill="#b0b3bd"/></g><g><path d="m37.01078 38.96664.00011.04227-1.66202.95957-.00012-.04228z" fill="#b0b3bd"/></g></g></g></g></g><g><path d="m38.16736 27.08118-5.9155-3.43773-12.52117 7.22915.03817 6.60229 5.9155 3.43773 12.5212-7.22915-.03799-6.56414z" fill="#f1c40f"/><g><path d="m32.25185 23.64347-12.52117 7.22914.03818 6.60234 5.91551 3.43768 12.52117-7.22914-.03818-6.60233z" fill="#ecf0f1"/><g><g><g><path d="m19.73068 30.87258.03818 6.60233 5.91551 3.43772-.03818-6.60233z" fill="#d6b218"/></g><path d="m25.64619 34.3103.03818 6.60233 12.52118-7.22911-.03818-6.60233z" fill="#e5bd13"/><g><g><path d="m37.39881 28.57996.24547-.14171.03483 4.48327-.24753-.12448z" fill="#d6b218"/><path d="m37.43158 32.79704.24753.12448v.00005l-11.47202 6.62315-.00206-.26624z" fill="#f1c40f"/><path d="m37.39881 28.57996.03277 4.21708-11.22655 6.48144-.0324-4.21708z" fill="#c6a51a"/><path d="m30.49637 33.05334.01866 2.40131-3.67443 2.12132-.01845-2.40131z" fill="#ecf0f1"/></g></g><g><g><path d="m20.56264 32.39711-.24547-.14171-.03483 4.48327.24753-.12448z" fill="#e5bd13"/><path d="m20.52987 36.61419-.24753.12448v.00005l4.8159 2.78024.00206-.26624z" fill="#f1c40f"/><path d="m20.56264 32.39711-.03277 4.21708 4.57043 2.63853.03241-4.21708z" fill="#c6a51a"/></g></g><path d="m19.73068 30.87258 5.91551 3.43772 12.52118-7.22911-5.91551-3.43772z" fill="#f1c40f"/><g><path d="m32.25128 24.25094v.28081l-4.34236 2.50796-.24245-.14088z" fill="#eaaa42"/><path d="m37.11857 27.07966-.2424.13992-4.62489-2.68783v-.28081z" fill="#d6b218"/><path d="m27.90892 27.03971 4.34236-2.50796 4.62489 2.68783-4.34204 2.50796z" fill="#e5bd13"/></g><g><path d="m26.98145 27.29246v.28081l-5.55893 3.20818-.24245-.14088z" fill="#c6a51a"/><path d="m31.84874 30.12117-.2424.13993-4.62489-2.68783v-.28081z" fill="#d6b218"/><path d="m21.42252 30.78145 5.55893-3.20818 4.62489 2.68783-5.55861 3.20818z" fill="#e5bd13"/></g></g><g><g><g><g><g><path d="m24.27328 36.63462-.19478.37068.12063.06966.2662.15256z" fill="#3f434f"/></g></g></g><g><g><g><path d="m24.19913 37.07496-.00207.73328.14555.08405.00208-.73328z" fill="#3f434f"/></g></g></g><g><g><g><path d="m23.47607 37.45733-.00044.15697 1.00493.58028.00044-.15696z" fill="#3f434f"/></g></g></g><g><g><g><path d="m21.63958 35.15773-.00148.52246c-.00047.16499.09486.3566.2214.45377l-.00134.47091c-.08876-.04092-.15568-.0371-.15582.01216l.39181.22625c.00014-.04927-.06654-.13023-.15524-.19178l.00134-.47091c.05785.02308.1078.01749.14681-.00703.04603-.03424.07617-.09832.07643-.18998l.00148-.52246z" fill="#3f434f"/></g></g></g><g><g><g><path d="m23.61691 36.73876-.00208.73328.14556.08405.00208-.73328z" fill="#3f434f"/></g></g></g><g><g><g><path d="m23.69006 36.29785-.19378.37125.12063.06966.2652.15199z" fill="#3f434f"/></g></g></g></g><g><g><g><g><path d="m22.66872 37.35612c-.01785 0-.0371-.00564-.05589-.01644l-1.36297-.78681c-.05824-.03382-.10567-.1179-.10567-.18649l.0047-1.56892c0-.03946.0155-.07093.04227-.08643.02677-.01503.06012-.01268.09299.00611l1.36297.78681c.06012.03523.10896.11931.10802.18789l-.00423 1.56892c0 .03899-.01597.06999-.04321.08502-.01174.00706-.02489.01034-.03898.01034zm-1.43906-2.59764c-.00376 0-.00705.00094-.00986.00235-.00846.00517-.01362.01879-.01362.03664l-.0047 1.56892c0 .04885.03617.11274.0775.13669l1.36297.78681c.0155.00893.02865.00986.03757.00611.00845-.00517.01362-.01785.01409-.03523l.00423-1.56892c0-.04791-.03757-.11367-.07984-.1381l-1.36297-.78681c-.0094-.00564-.01833-.00846-.02537-.00846z" fill="#3f434f"/></g></g></g><g><g><g><path d="m24.69721 38.52718c-.01785 0-.0371-.00517-.05542-.01597l-1.36297-.78681c-.05965-.03429-.10614-.11649-.10614-.18649l.0047-1.56939c0-.03899.01503-.07046.04227-.08596.02724-.01597.06012-.01363.09299.00563l1.36297.78728c.06012.03429.10896.11884.10802.18789l-.00423 1.56892c0 .03805-.01503.06905-.0418.08455-.01221.00706-.02583.01035-.04039.01035zm-1.43859-2.59718c-.00376 0-.00751.00094-.01033.00235-.00845.00517-.01362.01832-.01362.03617l-.0047 1.56939c0 .04885.03663.11274.07796.13669l1.3625.78681c.01503.00846.02912.00986.03804.00564.00845-.00517.01362-.01785.01362-.03476l.00423-1.56892c0-.04838-.03757-.11367-.07984-.1381l-1.36297-.78728c-.00939-.00517-.01785-.00799-.02489-.00799z" fill="#3f434f"/></g></g></g></g></g></g><g><g enable-background="new"><g><path d="m30.20812 35.33364.00022.07735-3.04099 1.75572-.00022-.07735z" fill="#b0b3bd"/></g><g><path d="m30.20746 35.10159.00022.07735-3.04099 1.75572-.00022-.07735z" fill="#b0b3bd"/></g><g><path d="m30.2068 34.86954.00022.07735-3.04099 1.75572-.00022-.07735z" fill="#b0b3bd"/></g><g><path d="m30.20614 34.63756.00022.07728-3.04099 1.75572-.00022-.07728z" fill="#b0b3bd"/></g><g><path d="m30.20549 34.40551.00022.07735-3.041 1.75572-.00022-.07735z" fill="#b0b3bd"/></g><g><path d="m30.20483 34.17347.00022.07735-3.041 1.75571-.00021-.07735z" fill="#b0b3bd"/></g><g><path d="m30.20417 33.94142.00022.07735-3.04099 1.75572-.00022-.07735z" fill="#b0b3bd"/></g><g><path d="m30.20351 33.70937.00022.07735-3.04099 1.75572-.00022-.07735z" fill="#b0b3bd"/></g><g><path d="m30.20286 33.47739.00022.07735-3.041 1.75572-.00022-.07735z" fill="#b0b3bd"/></g></g></g><path d="m37.17119 31.32971.0102 1.31241-2.00822 1.15938-.01008-1.31241z" fill="#ecf0f1"/><g><g enable-background="new"><g><path d="m37.01365 32.57598.00012.04228-1.66202.95956-.00012-.04227z" fill="#b0b3bd"/></g><g><path d="m37.01329 32.44916.00012.04227-1.66202.95957-.00012-.04227z" fill="#b0b3bd"/></g><g><path d="m37.01293 32.32233.00012.04228-1.66202.95957-.00012-.04228z" fill="#b0b3bd"/></g><g><path d="m37.01257 32.19555.00012.04224-1.66202.95956-.00012-.04223z" fill="#b0b3bd"/></g><g><path d="m37.01221 32.06873.00012.04227-1.66202.95957-.00012-.04228z" fill="#b0b3bd"/></g><g><path d="m37.01185 31.9419.00012.04228-1.66202.95956-.00012-.04227z" fill="#b0b3bd"/></g><g><path d="m37.01149 31.81508.00012.04227-1.66202.95957-.00012-.04227z" fill="#b0b3bd"/></g><g><path d="m37.01114 31.68826.00011.04227-1.66202.95957-.00012-.04228z" fill="#b0b3bd"/></g><g><path d="m37.01078 31.56147.00011.04228-1.66202.95956-.00012-.04227z" fill="#b0b3bd"/></g></g></g></g></g><g><path d="m38.16736 19.67601-5.9155-3.43772-12.52117 7.22915.03817 6.60229 5.9155 3.43772 12.5212-7.22915-.03799-6.56414z" fill="#f1c40f"/><g><path d="m32.25185 16.23831-12.52117 7.22913.03818 6.60234 5.91551 3.43769 12.52117-7.22914-.03818-6.60234z" fill="#ecf0f1"/><g><g><g><path d="m19.73068 23.46742.03818 6.60232 5.91551 3.43773-.03818-6.60233z" fill="#d6b218"/></g><path d="m25.64619 26.90514.03818 6.60233 12.52118-7.22911-.03818-6.60233z" fill="#e5bd13"/><g><g><path d="m37.39881 21.17479.24547-.14171.03483 4.48328-.24753-.12448z" fill="#d6b218"/><path d="m37.43158 25.39188.24753.12448v.00004l-11.47202 6.62315-.00206-.26623z" fill="#f1c40f"/><path d="m37.39881 21.17479.03277 4.21709-11.22655 6.48144-.0324-4.21709z" fill="#c6a51a"/><path d="m30.49637 25.64818.01866 2.40131-3.67443 2.12131-.01845-2.40131z" fill="#ecf0f1"/></g></g><g><g><path d="m20.56264 24.99194-.24547-.14171-.03483 4.48328.24753-.12448z" fill="#e5bd13"/><path d="m20.52987 29.20903-.24753.12448v.00004l4.8159 2.78024.00206-.26623z" fill="#f1c40f"/><path d="m20.56264 24.99194-.03277 4.21709 4.57043 2.63853.03241-4.21709z" fill="#c6a51a"/></g></g><path d="m19.73068 23.46742 5.91551 3.43772 12.52118-7.22911-5.91551-3.43772z" fill="#f1c40f"/><g><path d="m32.25128 16.84578v.28081l-4.34236 2.50795-.24245-.14088z" fill="#eaaa42"/><path d="m37.11857 19.67449-.2424.13992-4.62489-2.68782v-.28081z" fill="#d6b218"/><path d="m27.90892 19.63454 4.34236-2.50795 4.62489 2.68782-4.34204 2.50796z" fill="#e5bd13"/></g><g><path d="m26.98145 19.88729v.28081l-5.55893 3.20819-.24245-.14089z" fill="#c6a51a"/><path d="m31.84874 22.716-.2424.13993-4.62489-2.68783v-.28081z" fill="#d6b218"/><path d="m21.42252 23.37629 5.55893-3.20819 4.62489 2.68783-5.55861 3.20819z" fill="#e5bd13"/></g></g><g><g><g><g><g><path d="m24.27328 29.22946-.19478.37067.12063.06966.2662.15256z" fill="#3f434f"/></g></g></g><g><g><g><path d="m24.19913 29.66979-.00207.73328.14555.08405.00208-.73328z" fill="#3f434f"/></g></g></g><g><g><g><path d="m23.47607 30.05216-.00044.15697 1.00493.58029.00044-.15697z" fill="#3f434f"/></g></g></g><g><g><g><path d="m21.63958 27.75257-.00148.52246c-.00047.16499.09486.3566.2214.45377l-.00134.47091c-.08876-.04092-.15568-.0371-.15582.01216l.39181.22624c.00014-.04926-.06654-.13023-.15524-.19178l.00134-.4709c.05785.02308.1078.01749.14681-.00704.04603-.03424.07617-.09832.07643-.18998l.00148-.52246z" fill="#3f434f"/></g></g></g><g><g><g><path d="m23.61691 29.33359-.00208.73329.14556.08404.00208-.73328z" fill="#3f434f"/></g></g></g><g><g><g><path d="m23.69006 28.89268-.19378.37126.12063.06965.2652.15199z" fill="#3f434f"/></g></g></g></g><g><g><g><g><path d="m22.66872 29.95096c-.01785 0-.0371-.00564-.05589-.01644l-1.36297-.78681c-.05824-.03382-.10567-.1179-.10567-.18649l.0047-1.56892c0-.03946.0155-.07093.04227-.08643.02677-.01503.06012-.01268.09299.00611l1.36297.78681c.06012.03523.10896.11931.10802.18789l-.00423 1.56892c0 .03899-.01597.06999-.04321.08502-.01174.00705-.02489.01034-.03898.01034zm-1.43906-2.59764c-.00376 0-.00705.00094-.00986.00235-.00846.00517-.01362.01879-.01362.03664l-.0047 1.56892c0 .04885.03617.11274.0775.13669l1.36297.78681c.0155.00892.02865.00986.03757.00611.00845-.00517.01362-.01785.01409-.03523l.00423-1.56892c0-.04791-.03757-.11368-.07984-.1381l-1.36297-.78681c-.0094-.00564-.01833-.00846-.02537-.00846z" fill="#3f434f"/></g></g></g><g><g><g><path d="m24.69721 31.12201c-.01785 0-.0371-.00517-.05542-.01597l-1.36297-.78681c-.05965-.03429-.10614-.11649-.10614-.18649l.0047-1.56939c0-.03899.01503-.07046.04227-.08596.02724-.01597.06012-.01362.09299.00564l1.36297.78728c.06012.03429.10896.11884.10802.18789l-.00423 1.56892c0 .03805-.01503.06905-.0418.08455-.01221.00705-.02583.01034-.04039.01034zm-1.43859-2.59717c-.00376 0-.00751.00094-.01033.00235-.00845.00517-.01362.01832-.01362.03617l-.0047 1.56939c0 .04885.03663.11274.07796.13669l1.3625.78681c.01503.00846.02912.00986.03804.00564.00845-.00517.01362-.01785.01362-.03476l.00423-1.56892c0-.04838-.03757-.11368-.07984-.1381l-1.36297-.78728c-.00939-.00517-.01785-.00799-.02489-.00799z" fill="#3f434f"/></g></g></g></g></g></g><g><g enable-background="new"><g><path d="m30.20812 27.92847.00022.07735-3.04099 1.75572-.00022-.07735z" fill="#b0b3bd"/></g><g><path d="m30.20746 27.69642.00022.07735-3.04099 1.75572-.00022-.07735z" fill="#b0b3bd"/></g><g><path d="m30.2068 27.46437.00022.07735-3.04099 1.75572-.00022-.07735z" fill="#b0b3bd"/></g><g><path d="m30.20614 27.2324.00022.07728-3.04099 1.75571-.00022-.07727z" fill="#b0b3bd"/></g><g><path d="m30.20549 27.00035.00022.07735-3.041 1.75572-.00022-.07735z" fill="#b0b3bd"/></g><g><path d="m30.20483 26.7683.00022.07735-3.041 1.75572-.00021-.07735z" fill="#b0b3bd"/></g><g><path d="m30.20417 26.53625.00022.07735-3.04099 1.75572-.00022-.07735z" fill="#b0b3bd"/></g><g><path d="m30.20351 26.3042.00022.07735-3.04099 1.75572-.00022-.07735z" fill="#b0b3bd"/></g><g><path d="m30.20286 26.07223.00022.07734-3.041 1.75572-.00022-.07735z" fill="#b0b3bd"/></g></g></g><path d="m37.17119 23.92455.0102 1.31241-2.00822 1.15937-.01008-1.3124z" fill="#ecf0f1"/><g><g enable-background="new"><g><path d="m37.01365 25.17081.00012.04228-1.66202.95957-.00012-.04228z" fill="#b0b3bd"/></g><g><path d="m37.01329 25.04399.00012.04228-1.66202.95956-.00012-.04227z" fill="#b0b3bd"/></g><g><path d="m37.01293 24.91717.00012.04227-1.66202.95957-.00012-.04227z" fill="#b0b3bd"/></g><g><path d="m37.01257 24.79038.00012.04224-1.66202.95957-.00012-.04224z" fill="#b0b3bd"/></g><g><path d="m37.01221 24.66356.00012.04227-1.66202.95957-.00012-.04227z" fill="#b0b3bd"/></g><g><path d="m37.01185 24.53674.00012.04227-1.66202.95957-.00012-.04227z" fill="#b0b3bd"/></g><g><path d="m37.01149 24.40991.00012.04228-1.66202.95957-.00012-.04228z" fill="#b0b3bd"/></g><g><path d="m37.01114 24.28309.00011.04227-1.66202.95957-.00012-.04227z" fill="#b0b3bd"/></g><g><path d="m37.01078 24.15631.00011.04227-1.66202.95957-.00012-.04228z" fill="#b0b3bd"/></g></g></g></g></g></g></svg>