<svg id="Layer_1" enable-background="new 0 0 52 52" height="512" viewBox="0 0 52 52" width="512" xmlns="http://www.w3.org/2000/svg"><g><g><g><g><g><g><g enable-background="new"><g><g><g><path d="m27.68172 46.36304c.26599-.15055.62729-.13048 1.03377.10037.80295.4667 1.4503 1.58578 1.44528 2.50414 0 .46168-.16059.78286-.42152.9334l.72113-.41793c.26093-.15055.42152-.47675.42152-.9334.00502-.92339-.64233-2.04247-1.44528-2.50414-.40146-.23085-.76779-.25594-1.03377-.10037z" fill="#5b5e71"/></g></g></g><g><g><g><path d="m28.71522 46.46568c-.80101-.46246-1.45354-.09429-1.45615.82613-.00262.92411.64568 2.047 1.44669 2.50946s1.45354.09061 1.45616-.8335c.00262-.92042-.64569-2.03964-1.4467-2.50209z" fill="#474b59"/></g></g></g><g><g><g><path d="m28.71442 46.74778c-.66548-.38422-1.20761-.07833-1.20978.68636-.00218.76777.53644 1.70067 1.20192 2.08488.66549.38422 1.20762.07528 1.20979-.69248.00218-.76469-.53644-1.69454-1.20193-2.07876z" fill="#d4d6d6"/></g></g></g><g><g><g><path d="m28.71442 46.74778c-.66548-.38422-1.20761-.07833-1.20978.68636-.00218.76777.53644 1.70067 1.20192 2.08488.66549.38422 1.20762.07528 1.20979-.69248.00218-.76469-.53644-1.69454-1.20193-2.07876z" fill="#d4d6d6"/></g></g></g></g></g><g><g enable-background="new"><g><g><g><path d="m28.99013 49.06143.11654-.06772.2321-3.43628-.11654.06772z" fill="#c4c6c6"/></g></g></g><g><g><g><path d="m28.08223 44.96697.21789 3.69609.69001.39837.2321-3.43628z" fill="#ecf0f1"/></g></g></g></g></g><g><g enable-background="new"><g><g><g><path d="m27.166 45.19007.00223.49765c.00071.2523.16619.50451.49526.69574.65319.3796 1.7373.38316 2.40094 0 .33706-.1946.50384-.4503.50312-.7047l-.00221-.49764c.00071.25439-.16607.51009-.50313.70469-.66364.38316-1.74775.3796-2.40094 0-.32908-.19123-.49456-.44343-.49527-.69574z" fill="#d4d6d6"/></g></g></g><g><g><g><path d="m27.66298 44.49155c-.66364.38316-.66108 1.0111-.00172 1.39428.65319.3796 1.7373.38316 2.40094 0 .66979-.3867.66718-1.01466.01399-1.39426-.65936-.38319-1.74342-.38673-2.41321-.00002z" fill="#ecf0f1"/></g></g></g></g></g><g><g><g><path d="m28.62789 48.08216c-.13565-.07832-.24616-.01596-.2466.13991-.00044.1565.10935.34666.245.42498s.24616.01535.2466-.14116c.00044-.15586-.10935-.34541-.245-.42373z" fill="#5b5e71"/></g></g></g></g><g><g><g enable-background="new"><g><g><g><path d="m42.42054 37.79777c.26599-.15055.62729-.13048 1.03378.10037.80295.4667 1.4503 1.58578 1.44528 2.50414 0 .46168-.16059.78286-.42152.9334l.72113-.41793c.26093-.15055.42152-.47675.42152-.9334.00502-.92339-.64233-2.04246-1.44528-2.50414-.40146-.23085-.76779-.25594-1.03378-.10038z" fill="#5b5e71"/></g></g></g><g><g><g><path d="m43.45404 37.90041c-.80101-.46246-1.45354-.09429-1.45615.82613-.00262.92411.64568 2.047 1.44669 2.50946s1.45354.09061 1.45616-.8335c.00261-.92041-.64569-2.03963-1.4467-2.50209z" fill="#474b59"/></g></g></g><g><g><g><path d="m43.45324 38.18251c-.66548-.38422-1.20761-.07833-1.20978.68636-.00217.76777.53644 1.70067 1.20192 2.08488.66549.38422 1.20761.07528 1.20979-.69248.00217-.76469-.53645-1.69454-1.20193-2.07876z" fill="#d4d6d6"/></g></g></g><g><g><g><path d="m43.45324 38.18251c-.66548-.38422-1.20761-.07833-1.20978.68636-.00217.76777.53644 1.70067 1.20192 2.08488.66549.38422 1.20761.07528 1.20979-.69248.00217-.76469-.53645-1.69454-1.20193-2.07876z" fill="#d4d6d6"/></g></g></g></g></g><g><g enable-background="new"><g><g><g><path d="m43.72895 40.49617.11654-.06773.2321-3.43628-.11654.06773z" fill="#c4c6c6"/></g></g></g><g><g><g><path d="m42.82105 36.40171.21789 3.69608.69001.39838.2321-3.43628z" fill="#ecf0f1"/></g></g></g></g></g><g><g enable-background="new"><g><g><g><path d="m41.90482 36.62481.00223.49765c.00071.2523.16619.50451.49527.69574.65319.3796 1.7373.38316 2.40094 0 .33706-.1946.50384-.4503.50312-.7047l-.00221-.49764c.00071.25439-.16607.51009-.50313.7047-.66365.38316-1.74775.37959-2.40094 0-.32909-.19124-.49457-.44344-.49528-.69575z" fill="#d4d6d6"/></g></g></g><g><g><g><path d="m42.4018 35.92628c-.66364.38316-.66108 1.0111-.00171 1.39428.65319.3796 1.7373.38316 2.40094 0 .66978-.3867.66718-1.01467.01398-1.39426-.65936-.38318-1.74342-.38672-2.41321-.00002z" fill="#ecf0f1"/></g></g></g></g></g><g><g><g><path d="m43.3667 39.5169c-.13565-.07832-.24616-.01597-.2466.1399-.00044.1565.10935.34666.245.42498s.24616.01535.2466-.14116c.00045-.15586-.10934-.34541-.245-.42372z" fill="#5b5e71"/></g></g></g></g><g><g><g enable-background="new"><g><g><g><path d="m6.24257 34.14178c.26599-.15054.62729-.13048 1.03377.10037.80295.4667 1.4503 1.58578 1.44528 2.50414 0 .46168-.16059.78286-.42152.9334l.72113-.41793c.26093-.15054.42152-.47675.42152-.9334.00502-.92339-.64233-2.04246-1.44528-2.50414-.40146-.23085-.76779-.25594-1.03377-.10037z" fill="#5b5e71"/></g></g></g><g><g><g><path d="m7.27607 34.24442c-.80101-.46246-1.45354-.09429-1.45614.82613-.00262.92411.64568 2.047 1.44669 2.50946s1.45354.09061 1.45616-.8335c.00261-.92041-.6457-2.03963-1.44671-2.50209z" fill="#474b59"/></g></g></g><g><g><g><path d="m7.27527 34.52652c-.66548-.38422-1.20761-.07833-1.20978.68636-.00218.76776.53644 1.70066 1.20192 2.08488s1.20762.07528 1.20979-.69248c.00218-.76468-.53644-1.69454-1.20193-2.07876z" fill="#d4d6d6"/></g></g></g><g><g><g><path d="m7.27527 34.52652c-.66548-.38422-1.20761-.07833-1.20978.68636-.00218.76776.53644 1.70066 1.20192 2.08488s1.20762.07528 1.20979-.69248c.00218-.76468-.53644-1.69454-1.20193-2.07876z" fill="#d4d6d6"/></g></g></g></g></g><g><g enable-background="new"><g><g><g><path d="m7.55098 36.84018.11654-.06773.2321-3.43628-.11654.06773z" fill="#c4c6c6"/></g></g></g><g><g><g><path d="m6.64308 32.74572.21789 3.69608.69001.39838.2321-3.43628z" fill="#ecf0f1"/></g></g></g></g></g><g><g enable-background="new"><g><g><g><path d="m5.72685 32.96882.00223.49765c.00071.2523.16619.50451.49526.69574.65319.37959 1.7373.38316 2.40094 0 .33706-.1946.50384-.4503.50312-.7047l-.00221-.49764c.00071.25439-.16607.51009-.50313.7047-.66365.38316-1.74775.37959-2.40094 0-.32908-.19124-.49456-.44344-.49527-.69575z" fill="#d4d6d6"/></g></g></g><g><g><g><path d="m6.22383 32.27029c-.66365.38316-.66108 1.0111-.00172 1.39428.65319.3796 1.7373.38316 2.40094 0 .66979-.3867.66718-1.01467.01398-1.39426-.65935-.38318-1.74341-.38672-2.4132-.00002z" fill="#ecf0f1"/></g></g></g></g></g><g><g><g><path d="m7.18874 35.86091c-.13565-.07832-.24616-.01597-.2466.13991-.00044.1565.10935.34666.245.42498s.24616.01534.2466-.14116c.00044-.15587-.10935-.34541-.245-.42373z" fill="#5b5e71"/></g></g></g></g></g></g></g><g><g enable-background="new"><g><path d="m46.79047 36.25126-.00257.90771-17.4351 10.13217.00257-.90771z" fill="#328eb7"/></g><g><path d="m29.35537 46.38343-.00257.90771-24.14327-13.96794.00257-.90771z" fill="#3293c9"/></g><g><path d="m46.79047 36.25126-17.4351 10.13217-24.14327-13.96794 17.4351-10.13217z" fill="#3498db"/></g></g></g><g><g enable-background="new"><g><path d="m9.61126 32.17665-.00103.36308-1.55675.90469.00103-.36309z" fill="#c4c6c6"/></g><g><path d="m8.05451 33.08133-.00103.36309-1.56694-.90468.00103-.36309z" fill="#d4d6d6"/></g><g><path d="m9.61126 32.17665-1.55675.90468-1.56694-.90468 1.55675-.90468z" fill="#e0e2e2"/></g></g></g><g><g enable-background="new"><g><path d="m24.29498 23.83122-.00103.36309-1.55675.90468.00103-.36308z" fill="#c4c6c6"/></g><g><path d="m22.73823 24.73591-.00103.36308-1.56694-.90467.00103-.36309z" fill="#d4d6d6"/></g><g><path d="m24.29498 23.83122-1.55675.90469-1.56694-.90468 1.55674-.90468z" fill="#e0e2e2"/></g></g></g><g><g enable-background="new"><g><path d="m22.60322 24.295-.61766-.35894-.05011-20.35011.61766.35894z" fill="#e0e2e2"/></g><g><path d="m21.69322 3.05436.61766.35895c.14899.08658.24149.27047.24223.53158l-.61766-.35895c-.00074-.2611-.09324-.445-.24223-.53158z" fill="#e0e2e2"/></g><g><path d="m8.71509 15.60506-.61766-.35894 13.84841-7.99539.61766.35895z" fill="#3498db"/></g><g><path d="m21.71837 2.57856c.88546-.51122 1.6082-.09935 1.61109.9181l.05011 20.35011-.77635.44823-.05011-20.35011c-.00149-.52561-.37479-.73833-.83221-.47425l-12.19079 7.03836c-.45742.26409-.8269.90566-.82541 1.43127l.01039 3.66479.01595 5.62577.02377 11.05956-.77775.44903-.05011-20.35011c-.00288-1.01745.71516-2.26117 1.60062-2.77239z" fill="#d4d6d6"/></g><g><path d="m22.5635 7.60968.01595 5.62576-13.84841 7.99539-.01595-5.62577z" fill="#3293c9"/></g><path d="m22.24285 2.10865c-.29219-.1698-.69655-.14629-1.14213.11096l-12.1908 7.03837c-.88546.5112-1.6035 1.75493-1.60063 2.77238l.05011 20.35012.61767.35894-.05011-20.35012c-.00289-1.01745.71517-2.26115 1.60063-2.77238l12.19079-7.03836c.44558-.25726.84996-.28075 1.14213-.11096z" fill="#ecf0f1"/></g></g><g><g><g><g><g enable-background="new"><g><path d="m21.18937 24.20953.01868 7.15409 5.90149 3.42957-.01868-7.15409z" fill="#e5bd13"/></g><g><path d="m27.09086 27.6391.01868 7.15409 10.45071-6.03372-.01868-7.15409z" fill="#d6b218"/></g><g><path d="m21.18937 24.20953 5.90149 3.42957 10.45071-6.03372-5.90149-3.42957z" fill="#f1c40f"/></g></g></g><g><g><path d="m31.63984 18.17567-2.27437 4.73179 8.17634-1.30194z" fill="#e5bd13"/></g><g><path d="m21.18913 24.20939 5.90197 3.42985 2.27437-4.73178z" fill="#d6b218"/></g></g><g><path d="m33.47224 23.95806.00389 1.37344-2.29726 1.32633-.0039-1.37345z" fill="#c6a51a"/></g><g><path d="m33.47224 29.74424.00389 1.37345-2.29726 1.32633-.0039-1.37345z" fill="#c6a51a"/></g></g><g><g><path d="m25.053 28.82051-.00069.24422 1.27086.73373.00069-.24422z" fill="#3293c9"/></g><g><path d="m25.05159 29.319-.00069.24422 1.27086.73373.00069-.24422z" fill="#3293c9"/></g><g><path d="m26.57205 30.71535-1.77301-1.02365.00761-2.68462 1.77301 1.02365zm-1.51974-1.65062 1.27086.73373.00069-.24422-1.27086-.73373zm-.00141.49849 1.27086.73373.00069-.24422-1.27086-.73373z" fill="#fff"/></g></g></g><g><g><g><g enable-background="new"><g><path d="m10.37231 30.45477.01867 7.15408 5.90149 3.42958-.01867-7.1541z" fill="#e5bd13"/></g><g><path d="m16.2738 33.88433.01867 7.1541 10.45071-6.03372-.01868-7.15409z" fill="#d6b218"/></g><g><path d="m10.37231 30.45477 5.90149 3.42956 10.4507-6.03371-5.90149-3.42957z" fill="#f1c40f"/></g></g></g><g><g><path d="m20.82277 24.42091-2.27437 4.73178 8.17634-1.30193z" fill="#d6b218"/></g><g><path d="m10.37207 30.45463 5.90196 3.42984 2.27437-4.73178z" fill="#d6b218"/></g></g><g><path d="m22.65517 30.20329.0039 1.37345-2.29727 1.32632-.00389-1.37344z" fill="#c6a51a"/></g><g><path d="m22.65517 35.98948.0039 1.37345-2.29727 1.32632-.00389-1.37344z" fill="#c6a51a"/></g></g><g><g><path d="m14.23594 35.06575-.0007.24422 1.27086.73373.0007-.24422z" fill="#3293c9"/></g><g><path d="m14.23452 35.56424-.00069.24422 1.27086.73373.00069-.24422z" fill="#3293c9"/></g><g><path d="m15.75499 36.96058-1.77301-1.02365.00761-2.68462 1.77301 1.02365zm-1.51975-1.65061 1.27086.73373.00069-.24422-1.27086-.73373zm-.00141.49848 1.27086.73373.00069-.24422-1.27086-.73373z" fill="#fff"/></g></g></g><g><g><g><g enable-background="new"><g><path d="m15.16109 20.13169.01868 7.15408 5.90149 3.42958-.01868-7.15409z" fill="#e5bd13"/></g><g><path d="m21.06258 23.56126.01868 7.15409 10.45071-6.03372-.01868-7.15409z" fill="#d6b218"/></g><g><path d="m15.16109 20.13169 5.90149 3.42957 10.45071-6.03372-5.90149-3.42957z" fill="#f1c40f"/></g></g></g><g><g><path d="m25.61156 14.09783-2.27437 4.73178 8.17634-1.30193z" fill="#d6b218"/></g><g><path d="m15.16086 20.13155 5.90196 3.42984 2.27437-4.73178z" fill="#d6b218"/></g></g><g><path d="m27.44396 19.88021.00389 1.37345-2.29726 1.32633-.00389-1.37345z" fill="#c6a51a"/></g><g><path d="m27.44396 25.6664.00389 1.37345-2.29726 1.32632-.00389-1.37344z" fill="#c6a51a"/></g></g><g><g><path d="m19.02472 24.74267-.00069.24422 1.27086.73373.00069-.24422z" fill="#3293c9"/></g><g><path d="m19.02331 25.24116-.00069.24422 1.27086.73373.00069-.24422z" fill="#3293c9"/></g><g><path d="m20.54378 26.6375-1.77301-1.02365.00761-2.68462 1.77301 1.02365zm-1.51975-1.65061 1.27086.73373.00069-.24422-1.27086-.73373zm-.00141.49848 1.27086.73373.00069-.24422-1.27086-.73373z" fill="#fff"/></g></g></g></g><g><g><g><g><g enable-background="new"><g><path d="m27.98274 28.07365.01868 7.15409 5.90149 3.42957-.01868-7.15409z" fill="#e5bd13"/></g><g><path d="m33.88423 31.50322.01868 7.15409 10.4507-6.03372-.01867-7.15409z" fill="#d6b218"/></g><g><path d="m27.98274 28.07365 5.90149 3.42957 10.45071-6.03372-5.90149-3.42957z" fill="#f1c40f"/></g></g></g><g><g><path d="m38.43321 22.03979-2.27437 4.73178 8.17633-1.30193z" fill="#e5bd13"/></g><g><path d="m27.98251 28.07351 5.90196 3.42985 2.27437-4.73179z" fill="#d6b218"/></g></g><g><path d="m40.26561 27.82217.00389 1.37345-2.29726 1.32633-.0039-1.37345z" fill="#c6a51a"/></g><g><path d="m40.26561 33.60836.00389 1.37345-2.29726 1.32633-.0039-1.37345z" fill="#c6a51a"/></g></g><g><g><path d="m31.84637 32.68463-.00069.24422 1.27086.73373.00069-.24422z" fill="#3293c9"/></g><g><path d="m31.84496 33.18312-.00069.24422 1.27086.73373.00069-.24422z" fill="#3293c9"/></g><g><path d="m33.36543 34.57946-1.77301-1.02365.00761-2.68462 1.77301 1.02365zm-1.51975-1.65061 1.27086.73373.00069-.24422-1.27086-.73373zm-.00141.49849 1.27086.73373.00069-.24422-1.27086-.73373z" fill="#fff"/></g></g></g><g><g><g><g enable-background="new"><g><path d="m17.16568 34.31888.01867 7.15409 5.90149 3.42957-.01867-7.15408z" fill="#e5bd13"/></g><g><path d="m23.06717 37.74846.01867 7.15408 10.45071-6.03372-.01868-7.15408z" fill="#d6b218"/></g><g><path d="m17.16568 34.31888 5.90149 3.42958 10.4507-6.03372-5.90149-3.42957z" fill="#f1c40f"/></g></g></g><g><g><path d="m27.61615 28.28503-2.27438 4.73178 8.17634-1.30194z" fill="#d6b218"/></g><g><path d="m17.16544 34.31874 5.90196 3.42985 2.27437-4.73178z" fill="#d6b218"/></g></g><g><path d="m29.44854 34.06741.0039 1.37345-2.29727 1.32633-.00389-1.37345z" fill="#c6a51a"/></g><g><path d="m29.44854 39.8536.0039 1.37345-2.29727 1.32632-.00389-1.37345z" fill="#c6a51a"/></g></g><g><g><path d="m21.02931 38.92987-.0007.24422 1.27086.73373.0007-.24422z" fill="#3293c9"/></g><g><path d="m21.02789 39.42835-.00069.24422 1.27086.73373.00069-.24421z" fill="#3293c9"/></g><g><path d="m22.54836 40.8247-1.77301-1.02365.00761-2.68462 1.77301 1.02364zm-1.51975-1.65061 1.27086.73373.00069-.24422-1.27086-.73373zm-.00141.49848 1.27086.73373.00069-.24422-1.27086-.73373z" fill="#fff"/></g></g></g><g><g><g><g enable-background="new"><g><path d="m21.95446 23.9958.01868 7.15409 5.90149 3.42957-.01868-7.15409z" fill="#e5bd13"/></g><g><path d="m27.85595 27.42537.01868 7.15409 10.45071-6.03371-.01868-7.15409z" fill="#d6b218"/></g><g><path d="m21.95446 23.9958 5.90149 3.42957 10.45071-6.03371-5.90149-3.42957z" fill="#f1c40f"/></g></g></g><g><g><path d="m32.40493 17.96195-2.27437 4.73178 8.17634-1.30194z" fill="#d6b218"/></g><g><path d="m21.95423 23.99567 5.90196 3.42984 2.27437-4.73178z" fill="#d6b218"/></g></g><g><path d="m34.23733 23.74433.0039 1.37345-2.29727 1.32633-.00389-1.37345z" fill="#c6a51a"/></g><g><path d="m34.23733 29.53052.0039 1.37345-2.29727 1.32632-.00389-1.37344z" fill="#c6a51a"/></g></g><g><g><path d="m25.8181 28.60679-.0007.24422 1.27086.73373.00069-.24422z" fill="#3293c9"/></g><g><path d="m25.81668 29.10527-.00069.24422 1.27086.73374.00069-.24422z" fill="#3293c9"/></g><g><path d="m27.33715 30.50162-1.77301-1.02365.00761-2.68462 1.77301 1.02365zm-1.51975-1.65061 1.27086.73373.00069-.24422-1.27086-.73373zm-.00141.49848 1.27086.73373.00069-.24422-1.27086-.73373z" fill="#fff"/></g></g></g></g></g></svg>