<svg id="Layer_1" enable-background="new 0 0 52 52" height="512" viewBox="0 0 52 52" width="512" xmlns="http://www.w3.org/2000/svg"><g><g enable-background="new"><g><path d="m8.56372 50-1.88425-1.09501-.06272-23.96812 1.88425 1.095z" fill="#e0e2e2"/></g><g><path d="m8.501 26.03187-1.88425-1.095 25.93329-15.00027 1.90814 1.10889z" fill="#cbcfcf"/></g><g><path d="m34.45818 11.04549.06272 23.96812-25.95718 14.98639-.06272-23.96813z" fill="#ecf0f1"/></g></g><g enable-background="new"><g><path d="m9.27521 26.55807-3.30265-1.91929-.00229-.80668 3.30265 1.91929z" fill="#d4d6d6"/></g><g><path d="m9.27292 25.75139-3.30265-1.91929 21.06787-17.82775 8.19196 4.76065z" fill="#b6b8b8"/></g><g><path d="m35.2301 10.765.00229.80668-25.95718 14.98639-.00229-.80668z" fill="#c4c6c6"/></g></g><g><path d="m9.27292 25.75139-3.30265-1.91929-.0194-6.84571 3.30264 1.91928z" fill="#d8463f"/></g><path d="m31.90805 2 3.30265 1.91929-25.95719 14.98638-3.30264-1.91928z" fill="#e74c3c"/><g><path d="m35.2107 3.91929.0194 6.84571-25.95718 14.98639-.01941-6.84572z" fill="#c44"/></g><g><g><path d="m14.46092 39.37481.01131 3.98926-3.47171 2.0044-.01131-3.98927z" fill="#2ecc71"/></g><g><path d="m20.3018 24.57029.01133 3.99467-3.47644 2.00713-.01132-3.99468z" fill="#e67e22"/></g><g><path d="m20.31795 30.2646.01131 3.98926-3.47644 2.00712-.01131-3.98926z" fill="#5b5e71"/></g><g><path d="m20.37744 35.9589.01131 3.98927-3.47643 2.00712-.01132-3.98926z" fill="#5b5e71"/></g><g><path d="m26.22974 26.85142.01131 3.98926-3.47171 2.00439-.01131-3.98926z" fill="#5b5e71"/></g><g><path d="m26.28924 32.54573.01131 3.98926-3.47171 2.00439-.01131-3.98926z" fill="#5b5e71"/></g><g><path d="m32.00548 17.81318-3.34709 1.93241.01133 3.99468 3.33576-1.92593z" fill="#5b5e71"/></g><g><path d="m32.00548 23.51679-3.33091 1.92309.01127 3.98926 3.31964-1.91661z" fill="#5b5e71"/></g><g><path d="m32.04883 29.2204-3.31479 1.91377.01134 3.98926 3.30345-1.90722z" fill="#e67e22"/></g><g><path d="m14.40142 33.6805.01131 3.98927-3.47171 2.00439-.01131-3.98927z" fill="#2ecc71"/></g><g><path d="m26.2136 21.15711.01132 3.99468-3.47171 2.00439-.01132-3.99468z" fill="#5b5e71"/></g></g><g><g><path d="m14.71872 19.7584c0 .0665-.00475.13616-.01504.20424-.04117.266-.15595.5399-.31903.77423-.01979.0285-.03958.0562-.06095.08312-.11637.1512-.25253.28182-.40057.37603-.01663.01188-.03325.02217-.05067.03167-.14724.08471-.28895.12745-.42511.12745-.34595 0-.57869-.28103-.58027-.70139 0-.01108 0-.02138.00159-.03167.00237-.13854.0285-.28262.07362-.42432.01821-.057.03879-.1132.06254-.16862.05067-.11637.1132-.22958.18525-.33566.14329-.21137.32457-.39266.52486-.50903.14487-.08313.28737-.12587.42353-.12587.34592.00001.57866.28183.58025.69982z" fill="#9e3535"/></g><g><path d="m14.71872 25.63634c0 .0665-.00475.13616-.01504.20424-.00554.03721-.01266.07521-.02217.11242-.05225.22957-.15674.46073-.29687.66181-.14091.20424-.31744.37919-.51219.49082-.14724.0847-.28895.12744-.42511.12744-.34595 0-.57869-.28103-.58027-.70138 0-.0111 0-.02138.00159-.03168.00237-.16861.04117-.34515.10608-.51694.0095-.02533.019-.05066.03008-.076.06334-.14566.14487-.28577.24066-.41244.13299-.17812.2937-.33011.46944-.43223.14487-.08313.28737-.12588.42353-.12588.22958 0 .40928.12429.50427.33012.04908.10449.0752.22958.076.3697z" fill="#d4d6d6"/></g><g><g><path d="m14.32369 20.81999c-.33328-.44253-.71881-.83122-1.13363-1.1265-.07204.10608-.13458.21928-.18525.33566-.02375.05542-.04433.11162-.06254.16862.35862.26599.69189.60957.98084.99826.64202.86447 1.06476 1.9514 1.06159 2.90532-.00079.50031-.12112.90168-.34199 1.16529-.07599.09025-.16308.16386-.26203.22087-.30399.17495-.69744.17574-1.13521.00712-.09579.12667-.17733.26678-.24066.41244-.01108.02534-.02058.05068-.03008.076.30716.12745.60482.19158.88427.19158.28895 0 .55811-.06888.79797-.20663.00871-.00475.01663-.0095.02454-.01504.55178-.33091.85498-.98559.85735-1.85086.00317-1.07899-.48132-2.31078-1.21517-3.28213z" fill="#5b5e71"/></g></g></g><g><g><path d="m24.01706 14.39c0 .06649-.00475.13616-.01504.20424-.04117.266-.15595.5399-.31903.77423-.01979.0285-.03958.0562-.06095.08312-.11637.1512-.25253.28182-.40057.37603-.01663.01188-.03325.02217-.05066.03167-.14725.08471-.28895.12745-.42511.12745-.34595 0-.57869-.28103-.58027-.70139 0-.01108 0-.02138.00159-.03167.00237-.13854.0285-.28262.07362-.42432.01821-.057.03879-.1132.06254-.16862.05067-.11637.1132-.22958.18525-.33566.14329-.21137.32457-.39266.52486-.50902.14487-.08313.28736-.12587.42352-.12587.34592 0 .57866.28182.58025.69981z" fill="#9e3535"/></g><g><path d="m24.01706 20.26794c0 .0665-.00475.13616-.01504.20424-.00554.03721-.01266.07521-.02217.11242-.05225.22957-.15674.46073-.29687.66181-.14091.20424-.31745.37919-.51219.49082-.14725.0847-.28895.12744-.42511.12744-.34595 0-.57869-.28103-.58027-.70138 0-.01109 0-.02138.00159-.03168.00237-.16861.04117-.34514.10608-.51694.0095-.02533.019-.05066.03008-.076.06334-.14566.14487-.28577.24066-.41244.133-.17812.2937-.33011.46944-.43223.14487-.08313.28736-.12588.42352-.12588.22958 0 .40928.12429.50428.33012.04908.10449.07521.22958.076.3697z" fill="#d4d6d6"/></g><g><g><path d="m23.62203 15.45159c-.33328-.44253-.71881-.83122-1.13363-1.1265-.07204.10608-.13458.21928-.18525.33566-.02375.05542-.04433.11162-.06254.16862.35862.26599.69189.60956.98084.99826.64202.86447 1.06476 1.9514 1.06159 2.90532-.00079.50031-.12112.90168-.34199 1.16529-.07599.09025-.16308.16387-.26203.22087-.30399.17495-.69744.17574-1.13521.00712-.09579.12667-.17733.26678-.24066.41244-.01108.02534-.02058.05068-.03008.076.30716.12745.60481.19158.88427.19158.28895 0 .55811-.06888.79797-.20663.00871-.00475.01663-.0095.02454-.01504.55177-.33091.85498-.98559.85735-1.85086.00317-1.07899-.48132-2.31079-1.21517-3.28213z" fill="#5b5e71"/></g></g></g><g><g><path d="m33.3154 9.0216c0 .06649-.00475.13616-.01504.20424-.04117.266-.15595.5399-.31903.77423-.01979.0285-.03958.0562-.06095.08312-.11637.1512-.25253.28182-.40057.37603-.01663.01188-.03325.02217-.05067.03167-.14724.08471-.28895.12745-.42511.12745-.34595 0-.57869-.28103-.58028-.70139 0-.01108 0-.02138.00159-.03167.00237-.13854.0285-.28262.07362-.42432.01821-.057.03879-.1132.06254-.16862.05067-.11637.1132-.22958.18525-.33566.14329-.21137.32457-.39266.52486-.50902.14487-.08313.28736-.12587.42353-.12587.34593-.00001.57868.28182.58026.69981z" fill="#9e3535"/></g><g><path d="m33.3154 14.89953c0 .0665-.00475.13616-.01504.20424-.00554.03721-.01266.07521-.02217.11242-.05225.22957-.15675.46073-.29687.66181-.14091.20424-.31744.37919-.51219.49082-.14724.0847-.28895.12744-.42511.12744-.34595 0-.57869-.28103-.58028-.70138 0-.01109 0-.02138.00159-.03168.00237-.16861.04117-.34515.10608-.51693.0095-.02533.019-.05067.03008-.076.06334-.14566.14487-.28577.24066-.41244.133-.17812.2937-.33011.46944-.43223.14487-.08313.28736-.12588.42353-.12588.22958 0 .40928.12429.50427.33012.0491.10449.07522.22957.07601.36969z" fill="#d4d6d6"/></g><g><g><path d="m32.92038 10.08319c-.33328-.44253-.71881-.83122-1.13363-1.1265-.07204.10608-.13458.21928-.18525.33566-.02375.05542-.04433.11162-.06254.16862.35862.26599.69189.60956.98085.99826.64202.86447 1.06476 1.9514 1.06159 2.90532-.00079.50031-.12112.90168-.34199 1.16529-.07599.09025-.16308.16387-.26203.22087-.30399.17495-.69744.17574-1.13521.00712-.09579.12667-.17733.26678-.24066.41244-.01108.02534-.02058.05068-.03008.076.30716.12745.60482.19158.88427.19158.28895 0 .55811-.06888.79797-.20663.00871-.00474.01662-.0095.02454-.01504.55178-.33091.85498-.98559.85735-1.85086.00315-1.07899-.48134-2.31079-1.21518-3.28213z" fill="#5b5e71"/></g></g></g><g><g><path d="m43.5003 22.65607c-1.58916-.92666-3.78719-.79682-6.21796.60884-4.8258 2.78444-8.72042 9.53517-8.70703 15.07273.00896 2.75758.98041 4.69596 2.5517 5.60472l-2.33868-1.36679c-1.56681-.91324-2.54274-2.85159-2.54722-5.60472-.01787-5.53756 3.88124-12.29277 8.70255-15.07721 2.43077-1.40118 4.62874-1.53099 6.21796-.60881z" fill="#1abc9c"/></g><g><path d="m37.28327 23.26282c4.82458-2.78547 8.75012-.5484 8.76582 4.98884.01572 5.54381-3.88433 12.29899-8.70891 15.08446s-8.74729.54677-8.76301-4.99704c-.0157-5.53725 3.88152-12.29079 8.7061-15.07626z" fill="#1faa8f"/></g><g><path d="m42.82968 23.89736c1.11052.89846 1.78135 2.48547 1.78725 4.63268.00891 4.9153-3.43806 10.89157-7.70876 13.35818-2.16994 1.252-4.13234 1.3556-5.54171.51438 1.42451 1.1517 3.57276 1.17036 5.97402-.21509 4.2707-2.46661 7.71767-8.44287 7.70876-13.35818-.00661-2.41243-.85363-4.11591-2.21956-4.93197z" fill="#1abc9c"/><path d="m36.90818 41.88821c4.2707-2.46661 7.71767-8.44287 7.70876-13.35818-.0059-2.14721-.67674-3.73421-1.78725-4.63268-1.40954-.8421-3.37177-.73911-5.53838.51357-4.27518 2.46659-7.72663 8.44735-7.71318 13.3537.0059 2.15057.67674 3.73921 1.78835 4.63797 1.40936.84123 3.37176.73762 5.5417-.51438z" fill="#fff"/></g><g><path d="m44.61874 28.60859-7.29686 4.1901-.00448-8.39364c4.25725-2.41738 7.42669-.72521 7.30134 4.20354z" fill="#f1c40f"/></g><g><g><path d="m40.50269 25.94543-2.43008 5.86531c.09212.10507.14119.26603.14177.4705.00162.57005-.40149 1.26514-.90028 1.55312-.4988.28487-.90182.05209-.90075-.5226-.00161-.56696.4015-1.26205.89759-1.54847z" fill="#474b59"/></g><g><path d="m37.53273 24.27464.00225 1.74886-.45023.25994.00042-1.7504z" fill="#474b59"/></g><g><path d="m43.08558 29.22681 1.52334-.87639.00147.51737-1.52335.8733z" fill="#474b59"/></g><g><path d="m30.01734 36.72832 1.52061-.87171.00146.51428-1.5206.8748z" fill="#474b59"/></g><g><path d="m37.54028 39.31423.00225 1.74887-.45028.25996-.00224-1.74886z" fill="#474b59"/></g></g><path d="m37.86717 21.68878c.52141.30103.53012.7896.01208 1.09065s-1.36744.30104-1.88884.00001c-.52143-.30105-.51825-.78961-.00022-1.09066.51804-.30105 1.35556-.30104 1.87698 0z" fill="#1faa8f"/><g><path d="m38.03325 19.1993c.61398.35448.62424.92979.01423 1.28429s-1.61022.35449-2.2242.00001c-.61401-.3545-.61027-.9298-.00026-1.2843s1.59623-.3545 2.21023 0z" fill="#384f63"/><path d="m38.03325 19.1993c.61398.35448.62424.92979.01423 1.28429s-1.61022.35449-2.2242.00001c-.61401-.3545-.61027-.9298-.00026-1.2843s1.59623-.3545 2.21023 0z" fill="#384f63"/><g><path d="m38.03325 19.1993c.61398.35448.62424.92979.01423 1.28429s-1.61022.35449-2.2242.00001c-.61401-.3545-.61027-.9298-.00026-1.2843s1.59623-.3545 2.21023 0z" fill="#384f63"/></g><g><path d="m38.03325 19.1993c.61398.35448.62424.92979.01423 1.28429s-1.61022.35449-2.2242.00001c-.61401-.3545-.61027-.9298-.00026-1.2843s1.59623-.3545 2.21023 0z" fill="#384f63"/></g><path d="m37.86885 20.67178-.01286 1.474c-.00039.13804-.09137.27588-.27312.3815-.36265.21075-.95507.21075-1.3233-.00185-.18369-.10605-.27542-.24563-.27503-.385l.01286-1.47399c-.00039.13936.09135.27894.27503.38499.36824.2126.96066.2126 1.3233.00185.18175-.10561.27273-.24345.27312-.3815z" fill="#5b5e71"/><path d="m38.4994 19.84991-.01016.87541c-.00065.22961-.15063.45857-.45193.63367-.61001.3545-1.61022.35449-2.2242.00001-.30723-.17738-.4598-.41004-.45914-.64266l.01015-.8754c-.00065.23262.15191.46528.45914.64265.61398.35448 1.61419.35449 2.2242-.00001.30132-.17509.45129-.40405.45194-.63367z" fill="#2e414c"/><path d="m35.9505 19.42759c.53868-.31465 1.41334-.31465 1.95736 0 .24001.13867.37334.31469.40535.496.03734-.23467-.10134-.47468-.40535-.65066-.54402-.31469-1.41868-.31469-1.95736 0-.30401.17598-.43734.41599-.40001.64532.032-.17597.16-.35198.40001-.49066z" fill="#2e414c"/><path d="m37.90786 19.42759c-.54402-.31465-1.41868-.31465-1.95736 0-.24001.13867-.36801.31469-.40001.49067.032.18135.16.35736.40001.4907.54399.31465 1.42936.31465 1.96804 0 .23467-.13334.36267-.30935.39467-.48536-.03201-.18132-.16534-.35733-.40535-.49601z" fill="#354a59"/></g></g></g></svg>