<svg id="Layer_1" enable-background="new 0 0 52 52" height="512" viewBox="0 0 52 52" width="512" xmlns="http://www.w3.org/2000/svg"><g><g><g><g enable-background="new"><g><path d="m21.61354 48.2121-16.08459-9.3703.00507 1.78789 16.08459 9.37031z" fill="#525566"/></g><g><path d="m23.16948 47.31378-16.08459-9.37031-1.55594.89833 16.08459 9.3703z" fill="#91663e"/></g><g><path d="m21.61354 48.2121.00507 1.7879 1.55594-.89832-.00507-1.7879z" fill="#5b5e71"/></g></g></g><g><g enable-background="new"><g><path d="m33.48513 41.38111-16.0846-9.3703.00507 1.7879 16.0846 9.3703z" fill="#525566"/></g><g><path d="m35.04107 40.48279-16.0846-9.3703-1.55594.89832 16.0846 9.3703z" fill="#91663e"/></g><g><path d="m33.48513 41.38111.00507 1.7879 1.55593-.89832-.00506-1.7879z" fill="#5b5e71"/></g></g></g><g><g enable-background="new"><g><path d="m44.9132 34.78263-16.08459-9.3703.00507 1.78789 16.08459 9.37031z" fill="#525566"/></g><g><path d="m46.46914 33.88431-16.08459-9.37031-1.55594.89833 16.08459 9.3703z" fill="#91663e"/></g><g><path d="m44.9132 34.78263.00507 1.7879 1.55594-.89832-.00507-1.7879z" fill="#5b5e71"/></g></g></g><g><g enable-background="new"><g><path d="m5.52579 37.60368.00351 1.23837 16.11734 9.36637-.00351-1.23837z" fill="#a87648"/></g><g><path d="m21.64313 46.97005.00351 1.23837 24.82249-14.32042-.00351-1.23837z" fill="#b27e4b"/></g><g><path d="m5.52579 37.60368 16.11734 9.36637 24.82249-14.32042-16.11734-9.36637z" fill="#bc874d"/></g></g></g><g><g enable-background="new"><g><path d="m15.2021 30.86042.00504 1.11074 5.54533 3.2226-.00505-1.11075z" fill="#d4d6d6"/></g><g><path d="m20.74742 34.08301.00505 1.11075 6.31977-3.64873-.00505-1.11074z" fill="#e0e2e2"/></g><g><path d="m15.2021 30.86042 5.54532 3.22259 6.31977-3.64872-5.54532-3.22259z" fill="#ecf0f1"/></g></g></g><g><g enable-background="new"><g><path d="m21.90643 11.47312-.0704 19.27841-1.49255.86737.07041-19.27841z" fill="#d4d6d6"/></g><g><path d="m20.41389 12.34049-.07041 19.27841-1.50191-.86713.0704-19.27841z" fill="#e0e2e2"/></g><g><path d="m21.90643 11.47312-1.49254.86737-1.50192-.86713 1.49254-.86737z" fill="#ecf0f1"/></g></g></g><g><g enable-background="new"><g><path d="m17.71925 13.49601 7.38146-4.28964-.00304 2.3186-7.38146 4.28964z" fill="#3087a5"/></g><g><path d="m15.39272 6.9942 7.38146-4.28964 2.32653 6.50181-7.38146 4.28964z" fill="#5b5e71"/><path d="m15.99269 7.21346 6.51799-3.78784 1.99004 5.56149-6.51796 3.78784z" fill="#84dbff"/></g><g><path d="m14.17239 6.28963 7.38145-4.28963 1.22034.70456-7.38146 4.28964z" fill="#3498db"/></g><g><path d="m15.39272 6.9942 2.32653 6.50181-.00304 2.3186-3.56147-2.05621.01765-7.46877z" fill="#3293c9"/></g></g></g><g><g><path d="m18.38996 7.88053c.11471-.06623.23666-.07885.36575-.03779.13021.04329.2324.14321.30775.30197.04198.08845.06392.1827.06503.28607.00287.10237-.01574.24603-.05223.4289l-.12498.59804.62025-.3581.13241.27896-.93575.54026-.11733-.2472.16617-.7663c.03437-.17298.05656-.30426.06371-.39507.00714-.09081-.00726-.16917-.03955-.23722-.03337-.0703-.08105-.1179-.1449-.14172-.06672-.02505-.13054-.01998-.19507.01727-.11116.06418-.16994.19058-.17632.37919l-.25103-.02844c.00715-.14861.03258-.27308.07734-.37117.04553-.10142.12584-.18246.23875-.24765z"/></g><g><path d="m17.64208 8.36433.82136 1.73045-.21868.12626-.69756-1.46964-.27787.16042-.12379-.26081z"/></g><g><path d="m20.29082 7.82903c.18327.03001.31956.13913.41107.33191.06997.14741.08079.30009.03493.45371-.04478.15587-.1448.27718-.29716.36515-.15235.08796-.29974.10948-.4414.06126-.14238-.04493-.24818-.14279-.31814-.2902-.09151-.19278-.09515-.37848-.0149-.56064-.14526-.04615-.2514-.13512-.31491-.26893-.06244-.13155-.07036-.26856-.02524-.4044.04584-.13916.13475-.2454.2674-.32198.13087-.07556.26069-.0956.3905-.05786.12873.03547.2245.12176.28694.25331.0635.13382.07109.27969.02091.43867zm.18562.71345c.03658-.08178.03368-.16969-.00937-.26041-.04307-.09073-.10512-.14446-.18618-.16123-.07994-.01453-.15811-.00118-.22984.04023-.07347.04242-.12622.10465-.16094.18538-.0337.08302-.02902.16988.01405.26061.04305.09071.10512.14446.1887.15687.08282.01575.15919.00346.22732-.03587.06812-.03932.11901-.1005.15626-.18558m-.9147-.94553c-.0247.07783-.02072.15355.01373.22612.03553.07485.08968.1216.16175.14357.07211.02193.14417.01501.21049-.02328s.1108-.09865.1355-.17648c.02649-.07886.02072-.15355-.01481-.2284-.03445-.07257-.08681-.12036-.16067-.14129-.07207-.02196-.1413-.01376-.20763.02453s-.11361.09737-.13836.17523"/></g><g><path d="m20.55651 6.54588.5124 1.07955.15718-.80444.28146-.1625-.14571.75159.80159.54852-.26707.15419-.58178-.39803-.06374.29396.17762.37421-.21868.12626-.87196-1.83705z"/></g><g><path d="m22.4648 6.10582.21873-.12629.54577 1.14984c.11088.2336.14354.43725.09987.60983-.04553.17363-.1448.30608-.30254.39715-.15595.09004-.32771.10828-.51135.05828l.00205-.2699c.14852.03851.2733.02716.37727-.03287s.17137-.1394.19999-.24263c.02869-.10324.00567-.22863-.06431-.37606l-.07966-.16783c.00437.09572-.01321.18389-.0526.26442-.03652.08178-.09389.14379-.17096.18829-.13806.07971-.28005.08367-.42605.01193-.14774-.07073-.26472-.19681-.35083-.37823-.08612-.18144-.1134-.35928-.08192-.53349.03082-.17094.11467-.29737.25273-.37708.13799-.07967.28254-.07354.43746.02194zm.34059.93891c.02005-.10694.00173-.21772-.0521-.33111-.05275-.11113-.12773-.1921-.21986-.23715-.09325-.04729-.18509-.04339-.27291.00732-.08962.05175-.14018.13294-.15447.24234-.01504.11269.00328.22346.05388.33008.05167.10885.12269.18632.21416.23464.08858.04711.17968.04651.26931-.00524.08782-.05071.14305-.13169.16199-.24088"/></g></g><g><g enable-background="new"><g><path d="m18.95093 13.36964.26027.15125c-.07923-.04605-.18903-.03948-.31019.03047l-.26027-.15125c.12115-.06995.23095-.07652.31019-.03047z" fill="#7ccfe8"/></g><g><path d="m18.59391 14.58204-.26027-.15125c-.0782-.04545-.1267-.14206-.12709-.27934-.00078-.27634.19369-.61249.43418-.75134l.26027.15125c-.2405.13885-.43497.475-.43418.75134.00038.13729.04889.2339.12709.27934z" fill="#7ccfe8"/></g><g><path d="m18.901 13.55136c.24048-.13884.43622-.02798.437.24836s-.19369.61317-.43417.75201c-.2405.13885-.43624.02731-.43702-.24903s.19369-.61248.43419-.75134z" fill="#77c6d8"/></g></g><g enable-background="new"><g><path d="m20.78997 12.30787.26027.15125c-.07923-.04605-.18904-.03948-.3102.03047l-.26027-.15125c.12116-.06995.23096-.07652.3102-.03047z" fill="#f1c40f"/></g><g><path d="m20.43295 13.52027-.26027-.15125c-.0782-.04545-.1267-.14206-.12709-.27934-.00078-.27634.19369-.61249.43418-.75134l.26027.15125c-.2405.13885-.43497.475-.43418.75134.00038.13729.04889.2339.12709.27934z" fill="#f1c40f"/></g><g><path d="m20.74004 12.48959c.24048-.13884.43622-.02798.437.24836s-.19368.61317-.43417.75201c-.2405.13885-.43624.02731-.43702-.24903-.00078-.27633.19369-.61249.43419-.75134z" fill="#d6b218"/></g></g><g enable-background="new"><g><path d="m22.62901 11.2461.26027.15125c-.07924-.04605-.18904-.03948-.31021.03048l-.26027-.15125c.12116-.06996.23097-.07652.31021-.03048z" fill="#e74c3c"/></g><g><path d="m22.27199 12.45851-.26027-.15125c-.0782-.04545-.12671-.14206-.12709-.27934-.00078-.27634.19369-.61249.43417-.75133l.26027.15125c-.24048.13884-.43495.47499-.43417.75133.00038.13728.04889.23389.12709.27934z" fill="#e74c3c"/></g><g><path d="m22.57906 11.42783c.2405-.13885.43623-.02799.43702.24835s-.19368.61317-.43418.75202c-.24048.13884-.43622.0273-.437-.24904-.00079-.27634.19368-.61249.43416-.75133z" fill="#c44"/></g></g><g enable-background="new"><path d="m24.46812 10.18412c-.07915-.046-.18889-.0394-.31029.03069-.24049.13884-.43435.47466-.43357.751.00039.13745.04886.23421.12708.27967l.26028.15125c-.07822-.04546-.12671-.14222-.1271-.27968-.00078-.27634.1931-.61215.43359-.751.12137-.07008.23114-.07668.31029-.03069z" fill="#ecf0f1"/><g><path d="m24.4181 10.36606c.24108-.13919.43623-.02798.43701.24836s-.19309.61283-.43417.75202c-.24049.13885-.43564.02696-.43642-.24938s.1931-.61215.43358-.751z" fill="#d4d6d6"/></g></g></g></g><g><path d="m39.66003 24.99439-8.38163-4.87089-17.74118 10.24294.05409 9.35474 8.38164 4.8709 17.74121-10.24294-.05382-9.30069z" fill="#f1c40f"/><g><path d="m31.27838 20.12353-17.74117 10.24292.0541 9.35481 8.38165 4.87084 17.74117-10.24292-.05409-9.35482z" fill="#ecf0f1"/><g><g><g><path d="m13.53721 30.36641.05409 9.3548 8.38165 4.87088-.05409-9.35479z" fill="#d6b218"/></g><path d="m21.91886 35.2373.05409 9.35479 17.7412-10.24287-.0541-9.3548z" fill="#e5bd13"/><g><g><path d="m38.57108 27.11801.3478-.20079.04936 6.35232-.35073-.17637z" fill="#d6b218"/><path d="m38.61751 33.09317.35073.17637v.00007l-16.25464 9.3843-.00292-.37723z" fill="#f1c40f"/><path d="m38.57108 27.11801.04643 5.97516-15.90683 9.18351-.04591-5.97516z" fill="#c6a51a"/><path d="m28.79105 33.45632.02644 3.4024-5.20627 3.00568-.02614-3.40241z" fill="#ecf0f1"/></g></g><g><g><path d="m14.71601 32.5265-.34781-.20079-.04935 6.35233.35073-.17637z" fill="#e5bd13"/><path d="m14.66958 38.50167-.35073.17637v.00006l6.82363 3.93931.00292-.37723z" fill="#f1c40f"/><path d="m14.71601 32.5265-.04643 5.97517 6.47582 3.73851.04591-5.97516z" fill="#c6a51a"/></g></g><path d="m13.53721 30.36641 8.38165 4.87089 17.74119-10.24288-8.38165-4.87089z" fill="#f1c40f"/><g><path d="m31.27757 20.98425v.39788l-6.15267 3.55351-.34352-.19962z" fill="#eaaa42"/><path d="m38.17401 24.99224-.34346.19825-6.55298-3.80836v-.39788z" fill="#d6b218"/><path d="m25.1249 24.93564 6.15267-3.55351 6.55298 3.80836-6.15221 3.55352z" fill="#e5bd13"/></g><g><path d="m23.81078 25.29375v.39788l-7.87641 4.54566-.34353-.19962z" fill="#c6a51a"/><path d="m30.70722 29.30174-.34346.19826-6.55298-3.80837v-.39788z" fill="#d6b218"/><path d="m15.93437 30.23729 7.87641-4.54566 6.55298 3.80837-7.87596 4.54566z" fill="#e5bd13"/></g></g><g><g><g><g><g><path d="m19.9736 38.53061-.27598.52521.17092.0987.37716.21617z" fill="#3f434f"/></g></g></g><g><g><g><path d="m19.86854 39.15452-.00295 1.03898.20624.11909.00294-1.03898z" fill="#3f434f"/></g></g></g><g><g><g><path d="m18.84403 39.6963-.00063.22241 1.42389.8222.00063-.2224z" fill="#3f434f"/></g></g></g><g><g><g><path d="m16.24191 36.43801-.0021.74027c-.00066.23377.1344.50526.3137.64294l-.00189.66722c-.12576-.05798-.22058-.05257-.22078.01723l.55515.32056c.0002-.06981-.09427-.18452-.21995-.27173l.00189-.66722c.08197.0327.15274.02478.20802-.00997.06522-.04852.10793-.13931.10829-.26918l.0021-.74027z" fill="#3f434f"/></g></g></g><g><g><g><path d="m19.04359 38.67816-.00295 1.03898.20624.1191.00295-1.03899z" fill="#3f434f"/></g></g></g><g><g><g><path d="m19.14723 38.05344-.27456.52603.17092.09869.37575.21535z" fill="#3f434f"/></g></g></g></g><g><g><g><g><path d="m17.7001 39.5529c-.02529 0-.05257-.00799-.07919-.0233l-1.93119-1.11482c-.08252-.04792-.14973-.16706-.14973-.26423l.00665-2.22299c0-.05591.02196-.1005.05989-.12247.03793-.0213.08518-.01797.13176.00866l1.93119 1.11482c.08518.04992.15439.16905.15306.26622l-.00599 2.22299c0 .05524-.02263.09917-.06122.12046-.01663.01-.03527.01466-.05523.01466zm-2.03899-3.68058c-.00532 0-.00998.00133-.01398.00333-.01198.00732-.0193.02662-.0193.05191l-.00665 2.22299c0 .06922.05124.15974.1098.19368l1.93119 1.11482c.02196.01265.04059.01398.05324.00865.01198-.00732.0193-.02529.01996-.04992l.00599-2.22299c0-.06789-.05324-.16106-.11313-.19567l-1.93119-1.11482c-.01331-.00798-.02595-.01198-.03593-.01198z" fill="#3f434f"/></g></g></g><g><g><g><path d="m20.57425 41.21216c-.02529 0-.05257-.00732-.07852-.02263l-1.93119-1.11482c-.08451-.04859-.1504-.16506-.1504-.26423l.00665-2.22365c0-.05524.0213-.09984.05989-.1218.0386-.02263.08518-.0193.13176.00798l1.93119 1.11549c.08518.04859.15439.16839.15306.26623l-.00599 2.22299c0 .05391-.02129.09784-.05923.1198-.01729.00998-.03659.01464-.05722.01464zm-2.03833-3.67991c-.00532 0-.01065.00133-.01464.00333-.01198.00732-.0193.02596-.0193.05125l-.00665 2.22365c0 .06922.05191.15974.11047.19368l1.93052 1.11482c.0213.01198.04126.01398.0539.00799.01198-.00732.0193-.02529.0193-.04925l.00599-2.22299c0-.06855-.05324-.16107-.11313-.19568l-1.93119-1.11549c-.0133-.00732-.02528-.01131-.03527-.01131z" fill="#3f434f"/></g></g></g></g></g></g><g><g enable-background="new"><g><path d="m28.38263 36.68725.00031.1096-4.30876 2.48767-.00031-.1096z" fill="#b0b3bd"/></g><g><path d="m28.3817 36.35847.00031.10959-4.30877 2.48767-.00031-.1096z" fill="#b0b3bd"/></g><g><path d="m28.38077 36.02968.00031.10959-4.30877 2.48767-.00031-.10959z" fill="#b0b3bd"/></g><g><path d="m28.37984 35.70099.00031.1095-4.30877 2.48766-.00031-.10949z" fill="#b0b3bd"/></g><g><path d="m28.3789 35.3722.00031.1096-4.30876 2.48766-.00031-.10959z" fill="#b0b3bd"/></g><g><path d="m28.37797 35.04342.00031.10959-4.30876 2.48767-.00032-.1096z" fill="#b0b3bd"/></g><g><path d="m28.37704 34.71463.00031.10959-4.30877 2.48767-.00031-.1096z" fill="#b0b3bd"/></g><g><path d="m28.37611 34.38584.00031.10959-4.30877 2.48767-.00031-.1096z" fill="#b0b3bd"/></g><g><path d="m28.37517 34.05715.00031.10959-4.30876 2.48767-.00031-.10959z" fill="#b0b3bd"/></g></g></g><path d="m38.24857 31.01412.01445 1.85954-2.84543 1.64272-.01429-1.85955z" fill="#ecf0f1"/><g><g enable-background="new"><g><path d="m38.02535 32.77995.00017.05989-2.35491 1.35961-.00017-.0599z" fill="#b0b3bd"/></g><g><path d="m38.02484 32.60025.00017.0599-2.35491 1.35961-.00017-.0599z" fill="#b0b3bd"/></g><g><path d="m38.02433 32.42056.00017.05989-2.35491 1.35961-.00017-.0599z" fill="#b0b3bd"/></g><g><path d="m38.02382 32.24091.00017.05985-2.35491 1.35961-.00017-.05985z" fill="#b0b3bd"/></g><g><path d="m38.02332 32.06122.00016.0599-2.3549 1.3596-.00018-.05989z" fill="#b0b3bd"/></g><g><path d="m38.0228 31.88153.00018.05989-2.35492 1.35961-.00016-.0599z" fill="#b0b3bd"/></g><g><path d="m38.02229 31.70183.00017.0599-2.3549 1.3596-.00017-.05989z" fill="#b0b3bd"/></g><g><path d="m38.02179 31.52213.00016.0599-2.3549 1.35961-.00017-.0599z" fill="#b0b3bd"/></g><g><path d="m38.02127 31.34249.00018.0599-2.35491 1.35961-.00017-.0599z" fill="#b0b3bd"/></g></g></g></g></g></g></svg>