<svg id="Layer_1" enable-background="new 0 0 52 52" height="512" viewBox="0 0 52 52" width="512" xmlns="http://www.w3.org/2000/svg"><g><g><g><g><path d="m31.14414 29.73704-23.4935-13.67837.02278 9.93221 23.49349 13.67837z" fill="#3498db"/><g><g><path d="m45.64333 21.36593-23.4935-13.67837-7.25623.77356 23.4935 13.67837z" fill="#2f873b"/></g><g><path d="m46.86009 20.63605-23.49349-13.67836-8.47537.66655 23.4935 13.67836z" fill="#ecf0f1"/></g><g><path d="m38.3871 22.13949-23.4935-13.67837-7.24296 7.59755 23.4935 13.67837z" fill="#2f873b"/></g><g><path d="m38.3871 21.99232-7.24296 7.59755.02277 10.07938 14.49919-8.37112-.02277-10.07937z" fill="#3293c9"/></g><g><path d="m29.86288 30.23924-23.49349-13.67836.25693.57115 23.4935 13.67836z" fill="#d4d6d6"/></g><g><path d="m38.38473 21.3026-23.4935-13.67836-8.52184 8.93664 23.49349 13.67836z" fill="#e0e2e2"/></g><g><path d="m38.38473 21.3026-8.52185 8.93664.25694.57115 8.26728-8.6709 8.28327-.88456.18972-.61888z" fill="#c4c6c6"/></g></g><g><g enable-background="new"><g><path d="m31.15994 26.1424-5.62729-3.27023-.00784-1.29276 5.62729 3.27023z" fill="#d4d6d6"/></g><g><path d="m33.55406 23.4582-2.40059 1.39231-5.6294-3.27679 2.41261-1.38037z" fill="#ecf0f1"/></g><g><path d="m33.55934 23.45982.00276.4819-2.40216 2.20068-.00784-1.29276z" fill="#c4c6c6"/></g></g></g><g><g enable-background="new"><g><path d="m17.56719 18.24223-5.6273-3.27023-.00784-1.29276 5.6273 3.27023z" fill="#d4d6d6"/></g><g><path d="m19.9613 15.55803-2.40059 1.39231-5.62939-3.27679 2.4126-1.38037z" fill="#ecf0f1"/></g><g><path d="m19.96658 15.55965.00276.4819-2.40215 2.20068-.00784-1.29276z" fill="#c4c6c6"/></g></g></g></g><g><g><g><g><g><path d="m36.09933 37.20614-.32899-.19119-.02122-6.12738.329.19119z" fill="#525566"/></g><g><path d="m36.07812 31.07876-.329-.19119 5.56912-3.21534.329.1912z" fill="#5b5e71"/></g><path d="m41.64724 27.86343.02122 6.12737-5.56913 3.21534-.02121-6.12738z" fill="#474b59"/><g><path d="m41.19336 33.45886v.80508l-4.6239 2.66966v-1.56875l-.00689-.17202v-2.32571l-.00689-.29582v-1.21791l4.2592-2.45648.00689-.00689.35093-.20646v.75695l.00688.29583v1.56195l.00689.29591v1.56875z" fill="#ecf0f1"/></g></g></g><g><g enable-background="new"><g><path d="m41.19336 33.92679v.16513l-4.6239 2.66966v-.17202z" fill="#d4d6d6"/></g><g><path d="m41.19336 33.45886v.17202l-4.6239 2.66974v-.17202z" fill="#d4d6d6"/></g><g><path d="m41.18647 32.99093v.17202l-4.61701 2.66294v-.16513z" fill="#d4d6d6"/></g><g><path d="m41.18647 32.52997v.16513l-4.61701 2.66975-.00689-.17202z" fill="#d4d6d6"/></g><g><path d="m41.18647 32.06213v.16513l-4.6239 2.66966v-.17202z" fill="#d4d6d6"/></g><g><path d="m41.18647 31.5942v.17202l-4.6239 2.66285v-.16513z" fill="#d4d6d6"/></g><g><path d="m41.17958 31.12627v.17202l-4.61701 2.66974v-.17202z" fill="#d4d6d6"/></g><g><path d="m41.17958 30.66531v.17202l-4.61701 2.66277v-.17202z" fill="#d4d6d6"/></g><g><path d="m41.17958 30.20427v.16513l-4.61701 2.66974v-.17202z" fill="#d4d6d6"/></g></g><g><path d="m41.17958 29.73634v.17202l-4.6239 2.66294v-.17202z" fill="#d4d6d6"/></g><g><path d="m41.1727 29.26849v.17202l-4.61702 2.66286v-.16513z" fill="#d4d6d6"/></g><g><path d="m41.1727 28.80056v.17202l-4.61702 2.66975v-.17202z" fill="#d4d6d6"/></g></g></g></g></g><g><g enable-background="new"><g><path d="m22.47277 38.59376-14.04035-8.15936-.01105-3.67099 14.04035 8.15936z" fill="#3498db"/></g><g><path d="m22.46172 34.92277-14.04035-8.15936 3.44016-4.21383 14.04035 8.15936z" fill="#bec1c2"/></g><g><path d="m25.90188 30.70894.01735 5.895-3.44646 1.98982-.01105-3.67099z" fill="#3293c9"/></g><g><path d="m22.40029 34.99801-14.04035-8.15936-.02888-.04001 14.04035 8.15936z" fill="#d4d6d6"/></g><g><path d="m22.37141 34.958-14.04035-8.15936-.02887-.03998 14.04035 8.15936z" fill="#d4d6d6"/></g><g><path d="m22.34254 34.91802-14.04035-8.15936 3.6244-4.43953 14.04035 8.15936z" fill="#ecf0f1"/></g><g><path d="m25.96694 30.47849.05781.07996-.12287.15049-3.44016 4.21383-.06143.07524-.02888-.04001-.02887-.03998z" fill="#c4c6c6"/></g></g></g><g><path d="m43.64629 23.16632.45919-.26382v1.6083l-.45919-.18139z" fill="#328eb7"/><path d="m43.64629 23.16632v1.16309l-2.10658 1.21722-.01033-1.16388z" fill="#e0e2e2"/><path d="m34.82204 28.26163v1.16309l-2.11692 1.21635v-1.1631z" fill="#e0e2e2"/><path d="m41.53971 25.54663 2.10658-1.21722.45919.18139-2.56186 1.48025z" fill="#3498db"/><g><path d="m39.23421 25.71402v1.16309l-2.11692 1.21634v-1.16309z" fill="#e0e2e2"/><g><path d="m39.23421 25.71402.45919-.26382v1.60821l-.45919-.1813z" fill="#328eb7"/><path d="m39.23421 26.87711.45919.1813v.00008l-2.57611 1.48017v-.44521z" fill="#3498db"/></g></g><g><path d="m34.82204 28.26163.45919-.26382v1.60821l-.45919-.1813z" fill="#328eb7"/><path d="m34.82204 29.42472.45919.1813v.00009l-2.57611 1.48016v-.4452z" fill="#3498db"/></g></g><g><path d="m10.12469 28.85052-.45919-.26382v1.60829l.45919-.18138z" fill="#328eb7"/><path d="m10.12469 28.85052v1.16309l2.10657 1.21721.01034-1.16387z" fill="#e0e2e2"/><path d="m18.94894 33.94583v1.16309l2.11692 1.21634v-1.16309z" fill="#e0e2e2"/><path d="m12.23126 31.23082-2.10657-1.21721-.45919.18138 2.56186 1.48025z" fill="#3da8e2"/><g><path d="m14.53677 31.39822v1.16309l2.11691 1.21634v-1.16309z" fill="#e0e2e2"/><g><path d="m14.53677 31.39822-.45919-.26382v1.60821l.45919-.1813z" fill="#328eb7"/><path d="m14.53677 32.56131-.45919.1813v.00008l2.5761 1.48016v-.4452z" fill="#3da8e2"/></g></g><g><path d="m18.94894 33.94583-.45919-.26382v1.60821l.45919-.1813z" fill="#328eb7"/><path d="m18.94894 35.10892-.45919.1813v.00008l2.57611 1.48017v-.44521z" fill="#3da8e2"/></g></g></g><g><g enable-background="new"><g><path d="m50 31.47178-.00266.93746-21.73855 12.63306.00266-.93745z" fill="#474b59"/></g><g><path d="m28.26145 44.10485-.00266.93745-26.25879-15.16052.00266-.93746z" fill="#525566"/></g><g><path d="m50 31.47178-21.73855 12.63307-26.25879-15.16053 21.73855-12.63306z" fill="#5b5e71"/></g></g></g><g><path d="m40.93802 33.37094-1.27635-.74174-2.70163 1.55979.00824 1.42454 1.27636.74174 2.70163-1.55979-.0082-1.41631z" fill="#f1c40f"/><g><path d="m39.66167 32.6292-2.70163 1.5598.00824 1.42454 1.27636.74174 2.70162-1.55979-.00823-1.42456z" fill="#ecf0f1"/><g><g><g><path d="m36.96004 34.18899.00824 1.42455 1.27636.74173-.00824-1.42454z" fill="#d6b218"/></g><path d="m38.2364 34.93073.00824 1.42454 2.70162-1.55978-.00823-1.42455z" fill="#e5bd13"/><g><g><path d="m40.7722 33.69432.05296-.03057.00752.96733-.05341-.02686z" fill="#d6b218"/><path d="m40.77927 34.60422.05341.02686v.00001l-2.47526 1.42904-.00044-.05744z" fill="#f1c40f"/><path d="m40.7722 33.69432.00707.9099-2.42229 1.39847-.00699-.9099z" fill="#c6a51a"/><path d="m39.2829 34.65952.00402.51812-.79281.4577-.00398-.51811z" fill="#ecf0f1"/></g></g><g><g><path d="m37.13955 34.51793-.05296-.03058-.00752.96734.05341-.02686z" fill="#e5bd13"/><path d="m37.13248 35.42783-.05341.02686 1.0391.59988.00045-.05744z" fill="#f1c40f"/><path d="m37.13955 34.51793-.00707.9099.98614.5693.00699-.9099z" fill="#c6a51a"/></g></g><path d="m36.96004 34.18899 1.27636.74174 2.70163-1.55979-1.27636-.74174z" fill="#f1c40f"/><g><path d="m39.66154 32.76027v.06059l-.93692.54113-.05232-.0304z" fill="#eaaa42"/><path d="m40.71173 33.37061-.0523.03019-.99789-.57994v-.06059z" fill="#d6b218"/><path d="m38.72462 33.36199.93692-.54113.99789.57994-.93686.54113z" fill="#e5bd13"/></g><g><path d="m38.5245 33.41652v.06059l-1.19942.69222-.05231-.0304z" fill="#c6a51a"/><path d="m39.57469 34.02686-.0523.03019-.99789-.57994v-.06059z" fill="#d6b218"/><path d="m37.32508 34.16933 1.19942-.69222.99789.57994-1.19935.69221z" fill="#e5bd13"/></g></g><g><g><g><g><g><path d="m37.94017 35.43223-.04202.07998.02603.01503.05743.03292z" fill="#3f434f"/></g></g></g><g><g><g><path d="m37.92418 35.52724-.00045.15822.0314.01813.00045-.15821z" fill="#3f434f"/></g></g></g><g><g><g><path d="m37.76817 35.60975-.0001.03386.21683.12521.00009-.03387z" fill="#3f434f"/></g></g></g><g><g><g><path d="m37.37191 35.11357-.00032.11273c-.0001.0356.02047.07694.04777.09791l-.00029.1016c-.01915-.00883-.03359-.00801-.03362.00262l.08454.04881c.00003-.01063-.01435-.0281-.03349-.04138l.00029-.1016c.01248.00498.02326.00377.03167-.00152.00993-.00739.01644-.02121.01649-.04099l.00032-.11273z" fill="#3f434f"/></g></g></g><g><g><g><path d="m37.79855 35.4547-.00045.15822.03141.01813.00045-.15821z" fill="#3f434f"/></g></g></g><g><g><g><path d="m37.81433 35.35957-.0418.0801.02602.01503.05722.0328z" fill="#3f434f"/></g></g></g></g><g><g><g><g><path d="m37.59397 35.58791c-.00385 0-.00801-.00122-.01206-.00355l-.29408-.16977c-.01257-.0073-.0228-.02544-.0228-.04024l.00101-.33852c0-.00851.00335-.0153.00912-.01865.00578-.00324.01297-.00274.02007.00132l.29408.16977c.01297.0076.02351.02575.02331.04054l-.00092.33852c0 .00841-.00344.0151-.00932.01834-.00254.00153-.00537.00224-.00841.00224zm-.3105-.56048c-.00081 0-.00152.00021-.00213.00051-.00183.00112-.00294.00406-.00294.00791l-.00101.33852c0 .01054.0078.02432.01672.02949l.29408.16977c.00335.00193.00618.00213.00811.00132.00182-.00112.00294-.00385.00304-.0076l.00091-.33852c0-.01034-.00811-.02453-.01723-.0298l-.29408-.16977c-.00203-.00122-.00395-.00183-.00547-.00183z" fill="#3f434f"/></g></g></g><g><g><g><path d="m38.03164 35.84058c-.00385 0-.00801-.00111-.01196-.00345l-.29408-.16976c-.01287-.0074-.0229-.02514-.0229-.04024l.00101-.33862c0-.00841.00324-.0152.00912-.01855.00588-.00344.01297-.00294.02007.00122l.29408.16986c.01297.0074.02351.02564.02331.04054l-.00091.33852c0 .00821-.00324.0149-.00902.01824-.00264.00153-.00558.00224-.00872.00224zm-.3104-.56038c-.00081 0-.00162.0002-.00223.00051-.00182.00111-.00294.00395-.00294.0078l-.00101.33862c0 .01054.0079.02432.01682.02949l.29398.16977c.00324.00182.00628.00213.00821.00122.00183-.00111.00294-.00385.00294-.0075l.00091-.33852c0-.01044-.00811-.02453-.01723-.0298l-.29408-.16986c-.00202-.00112-.00384-.00173-.00537-.00173z" fill="#3f434f"/></g></g></g></g></g></g><g><g enable-background="new"><g><path d="m39.2207 35.15153.00005.01669-.65614.37882-.00005-.01669z" fill="#b0b3bd"/></g><g><path d="m39.22056 35.10146.00005.01669-.65614.37882-.00005-.01669z" fill="#b0b3bd"/></g><g><path d="m39.22042 35.05139.00005.01669-.65614.37882-.00005-.01669z" fill="#b0b3bd"/></g><g><path d="m39.22028 35.00134.00004.01667-.65613.37883-.00005-.01668z" fill="#b0b3bd"/></g><g><path d="m39.22013 34.95127.00005.01669-.65614.37882-.00004-.01669z" fill="#b0b3bd"/></g><g><path d="m39.21999 34.9012.00005.01669-.65614.37882-.00005-.01668z" fill="#b0b3bd"/></g><g><path d="m39.21985 34.85114.00005.01668-.65614.37883-.00005-.01669z" fill="#b0b3bd"/></g><g><path d="m39.21971 34.80107.00005.01669-.65614.37882-.00005-.01669z" fill="#b0b3bd"/></g><g><path d="m39.21957 34.75101.00004.01669-.65613.37883-.00005-.01669z" fill="#b0b3bd"/></g></g></g><path d="m40.72309 34.28762.0022.28317-.43331.25016-.00217-.28318z" fill="#ecf0f1"/><g><g enable-background="new"><g><path d="m40.68909 34.55652.00003.00912-.3586.20705-.00003-.00912z" fill="#b0b3bd"/></g><g><path d="m40.68902 34.52916.00002.00912-.3586.20704-.00003-.00912z" fill="#b0b3bd"/></g><g><path d="m40.68894 34.50179.00002.00912-.3586.20705-.00003-.00912z" fill="#b0b3bd"/></g><g><path d="m40.68886 34.47444.00003.00911-.35861.20704-.00002-.00911z" fill="#b0b3bd"/></g><g><path d="m40.68879 34.44707.00002.00913-.35861.20704-.00002-.00913z" fill="#b0b3bd"/></g><g><path d="m40.68871 34.41971.00002.00912-.3586.20704-.00003-.00912z" fill="#b0b3bd"/></g><g><path d="m40.68863 34.39235.00003.00912-.35861.20704-.00003-.00912z" fill="#b0b3bd"/></g><g><path d="m40.68855 34.36498.00003.00912-.35861.20705-.00002-.00912z" fill="#b0b3bd"/></g><g><path d="m40.68847 34.33763.00003.00912-.3586.20704-.00003-.00912z" fill="#b0b3bd"/></g></g></g></g></g><g><g><g><path d="m31.14414 29.73704-23.4935-13.67837.02278 9.93221 23.49349 13.67837z" fill="#3498db"/><g><g><path d="m45.64333 21.36593-23.4935-13.67837-7.25623.77356 23.4935 13.67837z" fill="#2f873b"/></g><g><path d="m46.86009 20.63605-23.49349-13.67836-8.47537.66655 23.4935 13.67836z" fill="#ecf0f1"/></g><g><path d="m38.3871 22.13949-23.4935-13.67837-7.24296 7.59755 23.4935 13.67837z" fill="#2f873b"/></g><g><path d="m45.66851 31.30091-4 2.31-.47998.28003v-1.83002l-4.63 2.66004v.46997l.01.16998v1.19l-.46997.27002-.33001.19001-4.60004 2.65997-.01996-9.92999v-.14997l7.14997-7.5.09002-.10003 7.03998-.75h.01001l.20001-.01996v.13995z" fill="#3293c9"/></g><g><path d="m29.86288 30.23924-23.49349-13.67836.25693.57115 23.4935 13.67836z" fill="#d4d6d6"/></g><g><path d="m38.38473 21.3026-23.4935-13.67836-8.52184 8.93664 23.49349 13.67836z" fill="#e0e2e2"/></g><g><path d="m38.38473 21.3026-8.52185 8.93664.25694.57115 8.26728-8.6709 8.28327-.88456.18972-.61888z" fill="#c4c6c6"/></g></g><g><g enable-background="new"><g><path d="m31.15994 26.1424-5.62729-3.27023-.00784-1.29276 5.62729 3.27023z" fill="#d4d6d6"/></g><g><path d="m33.55406 23.4582-2.40059 1.39231-5.6294-3.27679 2.41261-1.38037z" fill="#ecf0f1"/></g><g><path d="m33.55934 23.45982.00276.4819-2.40216 2.20068-.00784-1.29276z" fill="#c4c6c6"/></g></g></g><g><g enable-background="new"><g><path d="m17.56719 18.24223-5.6273-3.27023-.00784-1.29276 5.6273 3.27023z" fill="#d4d6d6"/></g><g><path d="m19.9613 15.55803-2.40059 1.39231-5.62939-3.27679 2.4126-1.38037z" fill="#ecf0f1"/></g><g><path d="m19.96658 15.55965.00276.4819-2.40215 2.20068-.00784-1.29276z" fill="#c4c6c6"/></g></g></g></g><g><g><g><g><g><path d="m36.07812 31.07876-.329-.19119 5.56912-3.21534.329.1912z" fill="#5b5e71"/></g><g><g><path d="m36.09856 37.2666-.33001-.25566-.02002-6.12.33001.19z" fill="#525566"/></g><path d="m41.18853 33.89094v-1.83002l-4.63 2.66004v.46997l.01.16998v1.63567l-.46997.27002-.02002-6.18566 5.57001-3.22003.01996 5.75z" fill="#474b59"/></g><g><path d="m41.18853 31.59095v.46997l-4.63 2.66004v-3.37l4.26-2.45001v-.01001l.34998-.21002v.76001l.01001.29999v1.55999z" fill="#ecf0f1"/></g></g></g><g><g enable-background="new"><g><path d="m41.18647 31.5942v.17202l-4.6239 2.66285v-.16513z" fill="#d4d6d6"/></g><g><path d="m41.17958 31.12627v.17202l-4.61701 2.66974v-.17202z" fill="#d4d6d6"/></g><g><path d="m41.17958 30.66531v.17202l-4.61701 2.66277v-.17202z" fill="#d4d6d6"/></g><g><path d="m41.17958 30.20427v.16513l-4.61701 2.66974v-.17202z" fill="#d4d6d6"/></g></g><g><path d="m41.17958 29.73634v.17202l-4.6239 2.66294v-.17202z" fill="#d4d6d6"/></g><g><path d="m41.1727 29.26849v.17202l-4.61702 2.66286v-.16513z" fill="#d4d6d6"/></g><g><path d="m41.1727 28.80056v.17202l-4.61702 2.66975v-.17202z" fill="#d4d6d6"/></g></g></g></g></g><g><g enable-background="new"><g><path d="m22.47277 38.59376-14.04035-8.15936-.01105-3.67099 14.04035 8.15936z" fill="#3498db"/></g><g><path d="m22.46172 34.92277-14.04035-8.15936 3.44016-4.21383 14.04035 8.15936z" fill="#bec1c2"/></g><g><path d="m25.90188 30.70894.01735 5.895-3.44646 1.98982-.01105-3.67099z" fill="#3293c9"/></g><g><path d="m22.40029 34.99801-14.04035-8.15936-.02888-.04001 14.04035 8.15936z" fill="#d4d6d6"/></g><g><path d="m22.37141 34.958-14.04035-8.15936-.02887-.03998 14.04035 8.15936z" fill="#d4d6d6"/></g><g><path d="m22.34254 34.91802-14.04035-8.15936 3.6244-4.43953 14.04035 8.15936z" fill="#ecf0f1"/></g><g><path d="m25.96694 30.47849.05781.07996-.12287.15049-3.44016 4.21383-.06143.07524-.02888-.04001-.02887-.03998z" fill="#c4c6c6"/></g></g></g><g><path d="m43.64629 23.16632.45919-.26382v1.6083l-.45919-.18139z" fill="#328eb7"/><path d="m43.64629 23.16632v1.16309l-2.10658 1.21722-.01033-1.16388z" fill="#e0e2e2"/><path d="m34.82204 28.26163v1.16309l-2.11692 1.21635v-1.1631z" fill="#e0e2e2"/><path d="m41.53971 25.54663 2.10658-1.21722.45919.18139-2.56186 1.48025z" fill="#3498db"/><g><path d="m39.23421 25.71402v1.16309l-2.11692 1.21634v-1.16309z" fill="#e0e2e2"/><g><path d="m39.23421 25.71402.45919-.26382v1.60821l-.45919-.1813z" fill="#328eb7"/><path d="m39.23421 26.87711.45919.1813v.00008l-2.57611 1.48017v-.44521z" fill="#3498db"/></g></g><g><path d="m34.82204 28.26163.45919-.26382v1.60821l-.45919-.1813z" fill="#328eb7"/><path d="m34.82204 29.42472.45919.1813v.00009l-2.57611 1.48016v-.4452z" fill="#3498db"/></g></g><g><path d="m10.12469 28.85052-.45919-.26382v1.60829l.45919-.18138z" fill="#328eb7"/><path d="m10.12469 28.85052v1.16309l2.10657 1.21721.01034-1.16387z" fill="#e0e2e2"/><path d="m18.94894 33.94583v1.16309l2.11692 1.21634v-1.16309z" fill="#e0e2e2"/><path d="m12.23126 31.23082-2.10657-1.21721-.45919.18138 2.56186 1.48025z" fill="#3da8e2"/><g><path d="m14.53677 31.39822v1.16309l2.11691 1.21634v-1.16309z" fill="#e0e2e2"/><g><path d="m14.53677 31.39822-.45919-.26382v1.60821l.45919-.1813z" fill="#328eb7"/><path d="m14.53677 32.56131-.45919.1813v.00008l2.5761 1.48016v-.4452z" fill="#3da8e2"/></g></g><g><path d="m18.94894 33.94583-.45919-.26382v1.60821l.45919-.1813z" fill="#328eb7"/><path d="m18.94894 35.10892-.45919.1813v.00008l2.57611 1.48017v-.44521z" fill="#3da8e2"/></g></g></g></g></svg>