<svg id="Layer_1" enable-background="new 0 0 52 52" height="512" viewBox="0 0 52 52" width="512" xmlns="http://www.w3.org/2000/svg"><g><g><g><g><g><g><path d="m2.00066 24.56255.0066 2.15061c0 .27706.18473.56076.54756.77183l28.69009 16.67048c.73885.42882 1.9461.42882 2.69156 0l15.50281-8.95205c.37603-.21768.56072-.50138.56072-.77844l-.0066-2.15722c0 .28371-.18469.56737-.56072.78504l-15.50281 8.95205c-.74546.42882-1.95271.42882-2.69156 0l-28.69009-16.67043c-.36283-.21111-.54756-.49477-.54756-.77187z" fill="#354a59"/></g><g><path d="m2.56013 23.77812c-.74131.42799-.74942 1.12591-.00876 1.55634l28.68507 16.66994c.74066.43042 1.94975.43044 2.69106.00245l15.50828-8.95371c.74551-.43042.74524-1.12835.00458-1.55877l-28.68507-16.66995c-.74066-.43042-1.94136-.43043-2.68687-.00001z" fill="#3d566e"/></g><g><g><path d="m9.29112 21.41919 4.67889-2.7036-.30927-.16958-4.6689 2.69362z" fill="#416e84"/><path d="m4.34291 25.29 26.98588 15.68272c.68837.39907 1.82568.39907 2.52397 0l13.79724-7.97105c.69835-.39908.69835-1.05749.00999-1.45656l-26.98588-15.68272c-.69835-.40906-1.83567-.40906-2.53402 0l-3.81089 2.20472.51873.29934c.33922.18955.32924.5088-.00999.70828l-4.93822 2.85327c-.32924.18955-.87792.18955-1.21714 0l-.51879-.30926-3.81089 2.20471c-.70834.39908-.70834 1.05749-.00999 1.46655z" fill="#ecf0f1"/></g></g></g><g><path d="m5.8483 28.02456c.07463-.04471.17909-.03725.29097.02238l2.99909 1.73627c.2238.12667.39538.43217.39538.68555 0 .12667-.04476.21609-.11188.26079l.15664-.09688c.06716-.03725.11192-.12667.11192-.25333 0-.25338-.17157-.56634-.38795-.69301l-3.00651-1.72882c-.11192-.06709-.21633-.06709-.29097-.02979z" fill="#d4d6d6"/></g><g><path d="m6.14021 28.04971c-.22387-.1291-.40546-.02574-.40618.22574-.00073.25695.1797.56361.40357.69271l3.00081 1.73052c.21911.12635.39592.02571.39665-.23125.00071-.25148-.17493-.56085-.39404-.68721z" fill="#ecf0f1"/></g><g><path d="m10.30842 30.70635c.07463-.04471.17909-.03725.29097.02238l2.99909 1.73627c.2238.12667.39538.43217.39538.68555 0 .12667-.04476.21608-.11188.2608l.15664-.09688c.06716-.03725.11192-.12667.11192-.25333 0-.25338-.17157-.56634-.38795-.69301l-3.00651-1.72882c-.11192-.06709-.21633-.06709-.29097-.02979z" fill="#d4d6d6"/></g><g><path d="m10.60033 30.7315c-.22387-.1291-.40546-.02574-.40617.22574-.00073.25695.1797.56361.40357.69271l3.00081 1.73052c.21911.12636.39592.02571.39665-.23124.00071-.25148-.17493-.56085-.39404-.68721z" fill="#ecf0f1"/></g></g><g><g><path d="m17.02278 25.53684c-.00532.67467-.23374 1.14748-.60561 1.36526l-2.62428 1.51931c.37187-.21247.50477-.66069.50477-1.33533.00532-1.30152-.75443-2.89324-1.82221-3.50949-.5206-.29749-.98808-.32404-1.33871-.12217l2.61899-1.51931c.3506-.20719.8234-.18063 1.33868.11686 1.06778.61624 1.93368 2.17806 1.92837 3.48487z" fill="#363a44"/><path d="m28.83528 32.27105c-.00532.67467-.23374 1.14747-.60561 1.36526l-2.62428 1.51931c.37187-.21247.50477-.66069.50477-1.33533.00532-1.30152-.75443-2.89324-1.82221-3.50949-.52059-.29749-.98808-.32404-1.33871-.12217l2.61899-1.51931c.3506-.20719.8234-.18063 1.33868.11685 1.06778.61625 1.93369 2.17807 1.92837 3.48488z" fill="#363a44"/><path d="m8.05231 12.74656 20.08131 21.69982 8.70598-5.22364v-3.58974l-2.10938-2.33953-1.60315-6.35118-16.37646-9.41937z" fill="#2ecc71"/><path d="m8.05231 12.74656v10.24784l13.62274 7.77011 5.30032 3.02212 1.15825.65975v-3.58973l-2.10938-2.33954-1.60315-6.35118z" fill="#2ebf69"/><path d="m24.42109 22.16593 1.60315 6.35118 8.70598-5.22364-1.60315-6.35118z" fill="#30b265"/><g><g><path d="m32.92546 18.35823.20716-.12365 1.24378 4.90784-.26392-.10013z" fill="#2ebf69"/><path d="m34.11248 23.04229.26392.10013-3.89946 2.35325-.05684-.22515z" fill="#2ecc71"/></g><g><path d="m29.86564 25.59744-1.18708-4.68407.20716-.12392 1.24385 4.90812z" fill="#2ebf69"/><path d="m29.86564 25.59744.26393.10013-3.91068 2.34175-.05629-.2246z" fill="#2ecc71"/></g><g fill="#525566"><path d="m29.22952 20.57031 1.18752 4.69927.10147-.06096.37554-.22326.22333-.14199 1.71533-1.02515 1.2789-.7714-1.18758-4.68936-.09132.0508-1.71533 1.03531-.22333.13208-.37554.22301z"/><path d="m24.98682 23.11769 1.17742 4.69952.10148-.06096.37554-.22327.23349-.14198 1.70517-1.02515 1.28899-.7714-1.18752-4.6792-.10147.06096-1.70517 1.01498-.23349.14224-.37554.22302z"/></g></g><path d="m36.8396 25.633-8.70598 5.22365v3.58973l8.70598-5.22364z" fill="#30b265"/><path d="m34.13829 30.32199v-2.28267l-3.30336 1.98193v2.28376z" fill="#525566"/><path d="m21.67505 30.76451 5.30033 3.02212c.00768-1.5723-1.01251-3.39029-2.30882-4.14198-.40656-.23783-.81307-.35281-1.21195-.35281-.86677 0-1.5341.57528-1.77956 1.47267z" fill="#32a560"/><path d="m24.28247 30.31003c1.0684.61684 1.93028 2.17626 1.92658 3.48187s-.87158 1.86245-1.93998 1.24561-1.93707-2.17628-1.93337-3.48189c.00369-1.30561.87837-1.86243 1.94677-1.24559z" fill="#5b5e71"/><path d="m24.27762 30.81737c.8915.51471 1.61295 1.76431 1.61004 2.78869-.00291 1.0276-.72907 1.43822-1.62057.92351-.89148-.51469-1.61294-1.7611-1.61003-2.7887.00292-1.02437.72908-1.43819 1.62056-.9235z" fill="#ecf0f1"/><g><g><path d="m23.78366 32.83542c-.01043-.00602-.02117-.01033-.03202-.01253l-.65439-.14084c.12617.35722.32797.70676.57549.99481l.20631-.63329c.02242-.06542-.02988-.17031-.09539-.20815z" fill="#525566"/></g></g><g><g><path d="m23.0233 31.48409c-.04331.12212-.06606.26697-.06652.43061s.0214.33326.06387.50589l.60843-.01406c.0739-.00078.07424-.12104.00059-.20701z" fill="#525566"/></g></g><g><g><path d="m23.68038 30.98269c-.2492.00127-.45233.11703-.57925.32911l.65306.61303c.01082.01031.02156.0184.03198.02441.06552.03783.11825-.00643.09626-.09749z" fill="#525566"/></g></g><g><g><path d="m24.27623 31.16279c-.14241-.08222-.27975-.13584-.40771-.16133l.31544.88219c.01875.05329.05429.09504.0899.11559.0356.02056.07127.01992.09026-.01158l.3194-.51567c-.12855-.12259-.26489-.22698-.40729-.3092z" fill="#525566"/></g></g><g><g><path d="m24.75902 33.37875c-.06273-.03622-.11243.00696-.0927.09376l.19606.83712c.23812-.00218.43356-.11355.5565-.31619l-.62916-.59125c-.01041-.00992-.02072-.01769-.0307-.02344z" fill="#525566"/></g></g><g><g><path d="m24.27003 33.34928c-.03561-.02056-.07127-.02041-.09026.0101l-.3194.51566c.12769.1221.26488.22698.4073.3092.14241.08222.27889.13535.40771.16134l-.31544-.88219c-.01876-.0523-.05431-.09356-.08991-.11411z" fill="#525566"/></g></g><g><g><path d="m24.86973 31.71741-.20016.60838c-.02015.06376.02914.1641.09186.20031.00998.00576.02029.00991.03073.01202l.63045.13693c-.11973-.34369-.3139-.68001-.55288-.95764z" fill="#525566"/></g></g><g><g><path d="m25.49714 32.92709-.58706.01258c-.06945.00171-.06978.11742-.00056.19918l.58507.6893c.04085-.11892.06356-.25687.06401-.41431.00044-.15745-.02142-.32208-.06146-.48675z" fill="#525566"/></g></g><path d="m9.86254 24.0303 5.30033 3.02212c.00768-1.5723-1.01251-3.39029-2.30882-4.14198-.40656-.23783-.81307-.35281-1.21195-.35281-.86677 0-1.5341.57529-1.77956 1.47267z" fill="#32a560"/><path d="m12.46996 23.57582c1.0684.61684 1.93028 2.17626 1.92658 3.48187s-.87158 1.86245-1.93998 1.24561-1.93707-2.17628-1.93337-3.48189.87837-1.86243 1.94677-1.24559z" fill="#5b5e71"/><path d="m12.46512 24.08316c.8915.51471 1.61295 1.76431 1.61004 2.78869-.00291 1.0276-.72907 1.43822-1.62057.92351-.89148-.5147-1.61294-1.7611-1.61003-2.7887.00291-1.02437.72908-1.43819 1.62056-.9235z" fill="#ecf0f1"/><g><g><path d="m11.97115 26.10121c-.01043-.00602-.02117-.01033-.03202-.01253l-.65439-.14084c.12617.35722.32797.70676.57549.99481l.20631-.63329c.02243-.06542-.02987-.17031-.09539-.20815z" fill="#525566"/></g></g><g><g><path d="m11.2108 24.74989c-.04331.12212-.06606.26697-.06652.43061s.0214.33326.06387.50589l.60843-.01407c.0739-.00078.07424-.12104.00059-.20701z" fill="#525566"/></g></g><g><g><path d="m11.86787 24.24848c-.2492.00127-.45233.11703-.57925.32911l.65306.61303c.01082.01031.02156.01839.03198.02441.06552.03782.11825-.00643.09626-.09749z" fill="#525566"/></g></g><g><g><path d="m12.46372 24.42858c-.14241-.08222-.27975-.13584-.40771-.16133l.31544.88219c.01875.05329.05429.09504.0899.11559.0356.02056.07127.01992.09026-.01158l.3194-.51566c-.12855-.1226-.26488-.22699-.40729-.30921z" fill="#525566"/></g></g><g><g><path d="m12.94652 26.64454c-.06273-.03622-.11243.00696-.0927.09376l.19606.83712c.23812-.00218.43356-.11355.55649-.31619l-.62916-.59125c-.01041-.00992-.02072-.01768-.03069-.02344z" fill="#525566"/></g></g><g><g><path d="m12.45752 26.61507c-.03561-.02056-.07127-.02041-.09026.0101l-.31941.51566c.12769.1221.26488.22698.4073.30921.14241.08222.27889.13534.40771.16134l-.31544-.88219c-.01875-.05231-.0543-.09356-.0899-.11412z" fill="#525566"/></g></g><g><g><path d="m13.05722 24.9832-.20016.60838c-.02015.06376.02914.1641.09186.20032.00998.00576.02029.0099.03073.01202l.63045.13693c-.11973-.3437-.3139-.68002-.55288-.95765z" fill="#525566"/></g></g><g><g><path d="m13.68463 26.19288-.58706.01258c-.06945.0017-.06978.11741-.00056.19918l.58507.68931c.04085-.11892.06356-.25687.06401-.41431.00044-.15746-.02141-.32209-.06146-.48676z" fill="#525566"/></g></g></g><g><path d="m20.83565 21.65776.01196 3.79004 4.22413 2.40358.04391.19013-4.40927-2.50918-.01251-3.95336z" fill="#2ecc71"/><path d="m20.83556 21.65617.01016 3.79604 1.04541.59893.34512.18263.20301.12192 1.54274.87275 1.08604.61925-1.01499-4.40513-.83229-.4567-1.53264-.85243-.20295-.12192-.34512-.18287z" fill="#525566"/></g><g><g><g><path d="m35.33441 27.43047c-.49105.28351-.8845.97632-.8829 1.54056.00157.55313.39762.77871.88867.4952.48143-.27795.87491-.95936.87334-1.5125-.0016-.56424-.39768-.80122-.87911-.52326z" fill="#fff"/><path d="m34.93948 29.36504c.08371 0 .18329-.03283.28834-.09301.41418-.23965.76271-.8426.76162-1.31861 0-.12475-.02736-.41583-.27193-.41583-.07933 0-.17289.03064-.27083.08645-.41966.24184-.77256.85901-.77092 1.34596 0 .11928.02626.39504.26372.39504z" fill="#f1c40f"/></g></g><g><g><path d="m29.59399 30.87558c-.49105.28351-.8845.97632-.8829 1.54056.00157.55313.39762.77871.88867.4952.48143-.27795.87491-.95936.87334-1.5125-.00159-.56424-.39768-.80122-.87911-.52326z" fill="#fff"/><path d="m29.19888 32.80984c.08426 0 .18384-.03173.28889-.09192.41418-.23965.76271-.8426.76107-1.31751 0-.12584-.02736-.41801-.27193-.41801-.07934 0-.1729.03064-.27083.08645-.41911.24183-.77201.85901-.77092 1.34706 0 .11817.02682.39393.26372.39393z" fill="#f1c40f"/></g></g></g><g><path d="m20.81539 26.28298-.00148.52166 1.48383.85669.00148-.52166z" fill="#32a560"/></g></g><g><path d="m44.24257 32.29559c.00025.07872-.05216.15757-.15707.21813l-9.9491 5.74411c-.20852.1204-.54107.1204-.74825 0l-3.79848-2.20744c-.10294-.05984-.15442-.13747-.15463-.21519l.00159.56046c.00021.07772.0517.15535.15463.21519l3.79848 2.20744c.20718.12035.53973.12035.74825 0l9.9491-5.74411c.10491-.0606.15732-.13945.15707-.21817z" fill="#c44"/><g><path d="m29.59213 35.617c-.2085.12038-.2096.31301-.00245.43339l3.79851 2.20745c.20715.12038.53972.12038.74822 0l9.9491-5.74411c.2085-.12038.20956-.313.00241-.43338l-3.79852-2.20745c-.20715-.12038-.53967-.12039-.74817-.00001z" fill="#e74c3c"/></g></g></g><g><g><path d="m38.38382 31.94363.34985.2033.68953-.3981 1.91319 1.11182.38516-.22237-1.91318-1.11183.68958-.39813-.34984-.20331z" fill="#ecf0f1"/></g><g><path d="m35.87125 33.39426 2.26302 1.31513.38512-.22234-1.65081-.95934 2.94197.21388.41815-.24141-2.26302-1.31513-.38517.22237 1.69089.98264-3.01504-.21814z" fill="#ecf0f1"/></g><g><path d="m33.74015 34.62465 2.26303 1.31513 1.63956-.9466-.35713-.20754-1.25445.72425-.60856-.35366 1.09305-.63108-.33892-.19696-1.09305.63108-.59762-.34729 1.2141-.70097-.36079-.20967z" fill="#ecf0f1"/></g><g><path d="m33.13747 35.17524c.26698-.01904.52619.0466.78495.19698.3717.21601.4435.44897.21179.6925l1.41779.13554-.4878.28163-1.30451-.1292-.50621.29226.76164.44262-.38512.22235-2.26303-1.31513.84729-.48919c.34845-.20116.65623-.31129.92321-.33036zm-.23018 1.26854.48054-.27744c.21642-.12495.33031-.22871.34176-.31129.01143-.08683-.05389-.17153-.20332-.25837-.14575-.0847-.28814-.1207-.4235-.10589-.13537.01482-.30753.08047-.51662.20119l-.48785.28166z" fill="#ecf0f1"/></g></g></g><g><path d="m16.71152 20.8956 2.32838 3.45457-2.3432.76076.00268-.94592-5.04-2.90984.00659-2.32515 5.04287 2.9115z" fill="#ecf0f1"/></g><g><g><path d="m10.23149 16.76278c.09564.15713.14445.324.14393.50487-.00051.17811-.04764.29244-.14141.34305-.09377.05062-.23658.01908-.4309-.09311l-.33207-.19172.00326-1.15032.34437.19882c.17956.10367.31717.23403.41282.38841zm-.12503.64687c.06414-.02809.09886-.10712.09922-.23715.00074-.26284-.13171-.46956-.39244-.62009l-.16973-.09799-.00223.78574.18694.10793c.12054.06958.2141.0925.27824.06156" fill="#363a44"/></g><g><path d="m11.297 17.22789-.00052.1837-.53377-.30817-.00087.30524.47966.27693-.00049.17243-.47966-.27693-.00086.30524.55099.31811-.00052.18371-.72072-.4161.00326-1.15033z" fill="#363a44"/></g><g><path d="m11.7004 17.46079-.00274.96661.45506.26273-.00052.18371-.62478-.36072.00326-1.15032z" fill="#363a44"/></g><g><path d="m12.50967 17.92802-.00326 1.15032-.16973-.09799.00326-1.15032z" fill="#363a44"/></g><g><path d="m13.64608 18.58413-.4042.91884-.18941-.10935-.40014-1.38323.1894.10935.30504 1.03671.30991-.68167z" fill="#363a44"/></g><g><path d="m14.49224 19.07266-.00052.18371-.53377-.30818-.00087.30524.47966.27693-.00049.17244-.47965-.27693-.00087.30523.55099.31812-.00052.1837-.72071-.4161.00326-1.15032z" fill="#363a44"/></g><g><path d="m15.3068 20.27622.25955.56878-.214-.12355-.2375-.52495-.22384-.12923-.0011.38719-.16726-.09657.00326-1.15032.37143.21444c.1525.08805.26311.18301.32689.27927.06625.09777.10042.21089.10005.34092-.00054.18938-.07467.26831-.21748.23402zm-.20375-.2621c.09593.05539.15993.07536.19447.06136.03453-.01401.0519-.05782.05211-.13411.00022-.07636-.01686-.13714-.05121-.18531-.03682-.04951-.09828-.09921-.18929-.15175l-.21646-.12497-.00117.41266z" fill="#363a44"/></g><g><path d="m16.51417 20.24002-.37339.48083-.00129.45505-.17219-.09941.00129-.45505-.36945-.90971.18448.10651.27155.68054.27452-.36527z" fill="#363a44"/></g></g></g></svg>