<svg id="Layer_1" enable-background="new 0 0 52 52" height="512" viewBox="0 0 52 52" width="512" xmlns="http://www.w3.org/2000/svg"><g><g><g enable-background="new"><path d="m2 28.12261.00483-1.15761c-.00062.22013.14514.4406.43698.60909l-.00484 1.15762c-.29183-.16849-.43759-.38896-.43697-.6091z" fill="none"/><path d="m2.44181 27.57408c-.29183-.1685-.43761-.38897-.437-.6091l-.00481 1.15764c-.00061.22013.14512.4406.437.60907l29.45772 17.00746.00485-1.15761z" fill="#7ccfe8"/><g><path d="m36.33653 42.00307-.00484 1.15762-4.43694 2.57847.00483-1.15761z" fill="#5c99a7"/></g><g><path d="m36.33653 42.00307-4.43694 2.57847-29.45777-17.00745c-.57996-.33484-.58302-.87493-.00683-1.20977l2.35256-1.36716c.57619-.33485 1.51125-.33638 2.09121-.00154z" fill="#84dbff"/></g></g></g><g><g enable-background="new"><path d="m14.88344 20.63558.00483-1.15761c-.00062.22013.14514.4406.43698.60909l-.00484 1.15762c-.29184-.1685-.43759-.38897-.43697-.6091z" fill="none"/><path d="m15.32524 20.08704c-.29183-.1685-.43761-.38897-.437-.6091l-.0048 1.15764c-.00061.22013.14512.4406.437.60907l29.45772 17.00746.00485-1.15762z" fill="#7ccfe8"/><g><path d="m49.21997 34.51604-.00484 1.15762-4.43695 2.57846.00484-1.15761z" fill="#5c99a7"/></g><g><path d="m49.21997 34.51604-4.43695 2.57847-29.45777-17.00745c-.57996-.33484-.58302-.87493-.00683-1.20977l2.35256-1.36716c.57619-.33485 1.51125-.33638 2.09121-.00154z" fill="#84dbff"/></g></g></g><g><path d="m34.8191 18.35868-8.38164-4.8709-17.74118 10.24294.05409 9.35475 8.38164 4.87089 17.74121-10.24294-.05382-9.30069z" fill="#f1c40f"/><g><path d="m26.43745 13.48781-17.74118 10.24292.0541 9.35482 8.38165 4.87084 17.74118-10.24293-.0541-9.35481z" fill="#ecf0f1"/><g><g><g><path d="m8.69627 23.7307.05409 9.3548 8.38166 4.87088-.0541-9.3548z" fill="#d6b218"/></g><path d="m17.07792 28.60158.0541 9.3548 17.74119-10.24288-.0541-9.3548z" fill="#e5bd13"/><g><g><path d="m33.73014 20.48229.34781-.20079.04935 6.35233-.35073-.17638z" fill="#d6b218"/><path d="m33.77657 26.45745.35073.17638v.00006l-16.25464 9.38431-.00292-.37723z" fill="#f1c40f"/><path d="m33.73014 20.48229.04643 5.97516-15.90683 9.18352-.04591-5.97516z" fill="#c6a51a"/><path d="m23.95012 26.82061.02643 3.4024-5.20627 3.00567-.02614-3.4024z" fill="#ecf0f1"/></g></g><g><g><path d="m9.87508 25.89079-.34781-.20079-.04936 6.35232.35073-.17637z" fill="#e5bd13"/><path d="m9.82864 31.86595-.35073.17637v.00007l6.82363 3.9393.00292-.37722z" fill="#f1c40f"/><path d="m9.87508 25.89079-.04644 5.97516 6.47582 3.73852.04591-5.97517z" fill="#c6a51a"/></g></g><path d="m8.69627 23.7307 8.38165 4.87088 17.74119-10.24288-8.38165-4.87088z" fill="#f1c40f"/><g><path d="m26.43663 14.34853v.39788l-6.15266 3.55351-.34353-.19962z" fill="#eaaa42"/><path d="m33.33308 18.35652-.34346.19826-6.55299-3.80837v-.39788z" fill="#d6b218"/><path d="m20.28397 18.29992 6.15266-3.55351 6.55299 3.80837-6.15221 3.55351z" fill="#e5bd13"/></g><g><path d="m18.96984 18.65804v.39787l-7.87641 4.54567-.34352-.19963z" fill="#c6a51a"/><path d="m25.86628 22.66603-.34346.19825-6.55298-3.80837v-.39787z" fill="#d6b218"/><path d="m11.09343 23.60158 7.87641-4.54567 6.55298 3.80837-7.87595 4.54566z" fill="#e5bd13"/></g></g><g><g><g><g><g><path d="m15.13266 31.8949-.27598.52521.17092.0987.37717.21616z" fill="#3f434f"/></g></g></g><g><g><g><path d="m15.0276 32.51881-.00294 1.03898.20623.11909.00295-1.03899z" fill="#3f434f"/></g></g></g><g><g><g><path d="m14.0031 33.06059-.00063.22241 1.42388.8222.00063-.22241z" fill="#3f434f"/></g></g></g><g><g><g><path d="m11.40098 29.8023-.0021.74027c-.00066.23377.1344.50526.3137.64294l-.00189.66722c-.12576-.05799-.22058-.05257-.22078.01723l.55515.32056c.0002-.06981-.09427-.18452-.21995-.27173l.00189-.66722c.08197.0327.15274.02478.20802-.00997.06522-.04852.10793-.13931.10829-.26918l.0021-.74027z" fill="#3f434f"/></g></g></g><g><g><g><path d="m14.20265 32.04245-.00294 1.03898.20624.11909.00294-1.03898z" fill="#3f434f"/></g></g></g><g><g><g><path d="m14.3063 31.41773-.27457.52602.17092.0987.37575.21535z" fill="#3f434f"/></g></g></g></g><g><g><g><g><path d="m12.85916 32.91719c-.02529 0-.05257-.00798-.07919-.02329l-1.93119-1.11482c-.08252-.04792-.14973-.16706-.14973-.26423l.00665-2.22299c0-.05591.02196-.1005.05989-.12246.03793-.0213.08518-.01797.13176.00865l1.93119 1.11482c.08518.04992.15439.16905.15306.26623l-.00599 2.22299c0 .05524-.02263.09917-.06122.12047-.01663.00997-.03527.01463-.05523.01463zm-2.03899-3.68058c-.00532 0-.00998.00133-.01398.00333-.01198.00732-.0193.02662-.0193.05191l-.00665 2.22299c0 .06922.05124.15973.1098.19368l1.93119 1.11482c.02196.01265.04059.01398.05324.00866.01198-.00732.0193-.02529.01996-.04992l.00599-2.22299c0-.06789-.05324-.16107-.11313-.19568l-1.93119-1.11482c-.01331-.00799-.02595-.01198-.03593-.01198z" fill="#3f434f"/></g></g></g><g><g><g><path d="m15.73332 34.57644c-.02529 0-.05257-.00732-.07853-.02263l-1.93119-1.11482c-.08451-.04859-.1504-.16506-.1504-.26423l.00665-2.22366c0-.05524.02129-.09984.05989-.1218.0386-.02263.08518-.0193.13176.00799l1.93119 1.11549c.08518.04859.15439.16839.15306.26623l-.00598 2.22299c0 .05391-.02129.09784-.05923.1198-.0173.00998-.0366.01464-.05722.01464zm-2.03833-3.67991c-.00532 0-.01065.00133-.01464.00333-.01198.00732-.0193.02596-.0193.05125l-.00665 2.22366c0 .06922.05191.15973.11047.19368l1.93052 1.11482c.0213.01198.04126.01398.0539.00798.01198-.00732.0193-.02529.0193-.04925l.00599-2.22299c0-.06855-.05324-.16107-.11313-.19567l-1.93119-1.11549c-.01331-.00733-.02529-.01132-.03527-.01132z" fill="#3f434f"/></g></g></g></g></g></g><g><g enable-background="new"><g><path d="m23.54169 30.05154.00032.10959-4.30877 2.48767-.00031-.10959z" fill="#b0b3bd"/></g><g><path d="m23.54076 29.72275.00031.1096-4.30876 2.48766-.00031-.10959z" fill="#b0b3bd"/></g><g><path d="m23.53983 29.39396.00031.1096-4.30877 2.48767-.00031-.1096z" fill="#b0b3bd"/></g><g><path d="m23.5389 29.06528.00031.10949-4.30877 2.48767-.00031-.1095z" fill="#b0b3bd"/></g><g><path d="m23.53797 28.73649.00031.10959-4.30877 2.48767-.00031-.1096z" fill="#b0b3bd"/></g><g><path d="m23.53703 28.4077.00031.1096-4.30876 2.48766-.00031-.10959z" fill="#b0b3bd"/></g><g><path d="m23.5361 28.07891.00031.1096-4.30876 2.48766-.00032-.10959z" fill="#b0b3bd"/></g><g><path d="m23.53517 27.75012.00031.1096-4.30876 2.48767-.00032-.1096z" fill="#b0b3bd"/></g><g><path d="m23.53424 27.42143.00031.1096-4.30877 2.48767-.00031-.1096z" fill="#b0b3bd"/></g></g></g><path d="m33.40763 24.3784.01445 1.85955-2.84543 1.64271-.01429-1.85954z" fill="#ecf0f1"/><g><g enable-background="new"><g><path d="m33.18441 26.14423.00018.0599-2.35491 1.35961-.00017-.0599z" fill="#b0b3bd"/></g><g><path d="m33.18391 25.96454.00016.0599-2.3549 1.3596-.00017-.0599z" fill="#b0b3bd"/></g><g><path d="m33.1834 25.78484.00017.0599-2.35491 1.35961-.00017-.0599z" fill="#b0b3bd"/></g><g><path d="m33.18289 25.6052.00017.05984-2.35491 1.35961-.00017-.05984z" fill="#b0b3bd"/></g><g><path d="m33.18238 25.4255.00016.0599-2.3549 1.35961-.00017-.0599z" fill="#b0b3bd"/></g><g><path d="m33.18187 25.24581.00017.0599-2.35491 1.35961-.00017-.0599z" fill="#b0b3bd"/></g><g><path d="m33.18136 25.06611.00017.0599-2.35491 1.35961-.00017-.0599z" fill="#b0b3bd"/></g><g><path d="m33.18085 24.88642.00017.0599-2.35491 1.35961-.00017-.0599z" fill="#b0b3bd"/></g><g><path d="m33.18034 24.70678.00017.0599-2.35491 1.3596-.00017-.05989z" fill="#b0b3bd"/></g></g></g></g></g><g><path d="m44.65892 24.29006-8.38164-4.87089-17.74118 10.24294.05409 9.35474 8.38164 4.8709 17.74121-10.24294-.05383-9.30069z" fill="#f1c40f"/><g><path d="m36.27726 19.4192-17.74117 10.24292.0541 9.35481 8.38165 4.87084 17.74118-10.24292-.0541-9.35481z" fill="#ecf0f1"/><g><g><g><path d="m18.53609 29.66208.05409 9.3548 8.38165 4.87089-.05409-9.3548z" fill="#d6b218"/></g><path d="m26.91774 34.53297.05409 9.3548 17.74119-10.24288-.05409-9.3548z" fill="#e5bd13"/><g><g><path d="m43.56996 26.41368.34781-.20079.04935 6.35232-.35073-.17637z" fill="#d6b218"/><path d="m43.61639 32.38884.35073.17637v.00007l-16.25464 9.3843-.00292-.37723z" fill="#f1c40f"/><path d="m43.56996 26.41368.04643 5.97516-15.90683 9.18351-.04591-5.97516z" fill="#c6a51a"/><path d="m33.78993 32.75199.02644 3.4024-5.20627 3.00567-.02614-3.4024z" fill="#ecf0f1"/></g></g><g><g><path d="m19.71489 31.82218-.34781-.20079-.04935 6.35232.35073-.17637z" fill="#e5bd13"/><path d="m19.66846 37.79734-.35073.17637v.00006l6.82363 3.93931.00292-.37723z" fill="#f1c40f"/><path d="m19.71489 31.82218-.04643 5.97516 6.47582 3.73851.04591-5.97516z" fill="#c6a51a"/></g></g><path d="m18.53609 29.66208 8.38165 4.87089 17.74119-10.24288-8.38165-4.87089z" fill="#f1c40f"/><g><path d="m36.27645 20.27992v.39788l-6.15266 3.55351-.34353-.19962z" fill="#eaaa42"/><path d="m43.17289 24.28791-.34346.19825-6.55298-3.80836v-.39788z" fill="#d6b218"/><path d="m30.12379 24.23131 6.15266-3.55351 6.55298 3.80836-6.15221 3.55352z" fill="#e5bd13"/></g><g><path d="m28.80966 24.58942v.39788l-7.87641 4.54566-.34353-.19962z" fill="#c6a51a"/><path d="m35.7061 28.59741-.34346.19826-6.55298-3.80837v-.39788z" fill="#d6b218"/><path d="m20.93325 29.53296 7.87641-4.54566 6.55298 3.80837-7.87596 4.54566z" fill="#e5bd13"/></g></g><g><g><g><g><g><path d="m24.97248 37.82628-.27598.52521.17092.0987.37717.21617z" fill="#3f434f"/></g></g></g><g><g><g><path d="m24.86742 38.45019-.00295 1.03898.20624.11909.00295-1.03898z" fill="#3f434f"/></g></g></g><g><g><g><path d="m23.84291 38.99197-.00062.22241 1.42388.8222.00063-.22241z" fill="#3f434f"/></g></g></g><g><g><g><path d="m21.2408 35.73369-.0021.74027c-.00066.23377.1344.50526.3137.64294l-.00189.66722c-.12576-.05799-.22058-.05257-.22078.01723l.55515.32056c.0002-.06981-.09427-.18452-.21995-.27172l.00189-.66722c.08197.0327.15274.02478.20802-.00997.06522-.04852.10793-.13931.1083-.26918l.0021-.74027z" fill="#3f434f"/></g></g></g><g><g><g><path d="m24.04247 37.97383-.00295 1.03899.20624.11909.00295-1.03898z" fill="#3f434f"/></g></g></g><g><g><g><path d="m24.14611 37.34911-.27456.52603.17092.09869.37575.21536z" fill="#3f434f"/></g></g></g></g><g><g><g><g><path d="m22.69898 38.84857c-.02529 0-.05257-.00798-.07919-.02329l-1.93119-1.11482c-.08252-.04792-.14973-.16706-.14973-.26423l.00665-2.22299c0-.05591.02196-.1005.05989-.12246.03793-.0213.08518-.01797.13176.00865l1.93119 1.11482c.08518.04992.15439.16905.15306.26623l-.00599 2.22299c0 .05524-.02263.09917-.06122.12047-.01663.00997-.03527.01463-.05523.01463zm-2.03899-3.68057c-.00533 0-.00998.00133-.01398.00333-.01198.00732-.0193.02662-.0193.05191l-.00665 2.22299c0 .06922.05124.15974.1098.19368l1.93119 1.11482c.02196.01265.04059.01398.05324.00866.01198-.00732.0193-.02529.01996-.04992l.00599-2.22299c0-.06789-.05324-.16107-.11313-.19568l-1.93119-1.11482c-.01331-.00799-.02595-.01198-.03593-.01198z" fill="#3f434f"/></g></g></g><g><g><g><path d="m25.57313 40.50783c-.02529 0-.05257-.00732-.07852-.02263l-1.93119-1.11482c-.08451-.04859-.1504-.16506-.1504-.26423l.00665-2.22366c0-.05524.0213-.09983.05989-.1218.0386-.02263.08518-.0193.13176.00799l1.93119 1.11549c.08518.04859.15439.16839.15306.26623l-.00599 2.22299c0 .05391-.02129.09784-.05923.1198-.01729.00998-.03659.01464-.05722.01464zm-2.03832-3.67991c-.00532 0-.01065.00133-.01464.00333-.01198.00732-.0193.02596-.0193.05125l-.00665 2.22366c0 .06922.05191.15974.11047.19368l1.93052 1.11482c.0213.01198.04126.01398.0539.00799.01198-.00732.0193-.0253.0193-.04926l.00599-2.22299c0-.06855-.05324-.16107-.11313-.19567l-1.93119-1.11549c-.01331-.00733-.02529-.01132-.03527-.01132z" fill="#3f434f"/></g></g></g></g></g></g><g><g enable-background="new"><g><path d="m33.38151 35.98293.00031.10959-4.30876 2.48767-.00031-.1096z" fill="#b0b3bd"/></g><g><path d="m33.38058 35.65414.00031.10959-4.30877 2.48767-.00031-.1096z" fill="#b0b3bd"/></g><g><path d="m33.37965 35.32535.00031.10959-4.30877 2.48767-.00031-.1096z" fill="#b0b3bd"/></g><g><path d="m33.37872 34.99666.0003.1095-4.30876 2.48766-.00031-.10949z" fill="#b0b3bd"/></g><g><path d="m33.37778 34.66787.00031.1096-4.30876 2.48767-.00031-.1096z" fill="#b0b3bd"/></g><g><path d="m33.37685 34.33908.00031.1096-4.30876 2.48767-.00032-.1096z" fill="#b0b3bd"/></g><g><path d="m33.37592 34.0103.00031.10959-4.30877 2.48767-.00031-.1096z" fill="#b0b3bd"/></g><g><path d="m33.37499 33.68151.00031.10959-4.30877 2.48767-.00031-.10959z" fill="#b0b3bd"/></g><g><path d="m33.37405 33.35282.00032.1096-4.30877 2.48766-.00031-.10959z" fill="#b0b3bd"/></g></g></g><path d="m43.24745 30.30979.01445 1.85954-2.84543 1.64272-.01429-1.85955z" fill="#ecf0f1"/><g><g enable-background="new"><g><path d="m43.02423 32.07562.00017.0599-2.35491 1.3596-.00017-.05989z" fill="#b0b3bd"/></g><g><path d="m43.02372 31.89592.00017.0599-2.35491 1.35961-.00016-.0599z" fill="#b0b3bd"/></g><g><path d="m43.02321 31.71623.00017.05989-2.3549 1.35961-.00018-.0599z" fill="#b0b3bd"/></g><g><path d="m43.02271 31.53659.00016.05984-2.35491 1.35961-.00016-.05985z" fill="#b0b3bd"/></g><g><path d="m43.02219 31.35689.00018.0599-2.35492 1.35961-.00016-.0599z" fill="#b0b3bd"/></g><g><path d="m43.02169 31.17719.00016.0599-2.3549 1.35961-.00018-.0599z" fill="#b0b3bd"/></g><g><path d="m43.02118 30.9975.00016.0599-2.3549 1.3596-.00017-.05989z" fill="#b0b3bd"/></g><g><path d="m43.02066 30.8178.00018.0599-2.35491 1.35961-.00017-.0599z" fill="#b0b3bd"/></g><g><path d="m43.02016 30.63816.00016.0599-2.3549 1.35961-.00017-.0599z" fill="#b0b3bd"/></g></g></g></g></g><path d="m32.21072 44.86382 6.91833-17.61827-1.47518-.85726-6.91833 17.61827c-.21421.54607-.12616.9847.13664 1.13744l1.47517.85726c-.2628-.15273-.35089-.59137-.13663-1.13744z" fill="#7ccfe8"/><g><path d="m39.12902 27.24557-1.47515-.85726 3.75237-2.16644 1.47515.85726z" fill="#84dbff"/></g><g><path d="m42.88139 25.07913 6.99543 9.58517c.34399.472-.07323 1.55264-.74675 1.9415l-16.16409 9.33234c-.67348.38884-1.09546-.2073-.75526-1.07431l6.91831-17.61826z" fill="#77c6d8"/></g><g><g enable-background="new"><g><path d="m38.74546 43.76748-1.07994-.62759-.0175-6.17361 1.07993.62759z" fill="#e0e2e2"/></g><g><path d="m38.72795 37.59387-1.07993-.62759 6.64108-3.83423 1.07994.62759z" fill="#ecf0f1"/></g><g><path d="m45.36904 33.75964.0175 6.17361-6.64108 3.83423-.01751-6.17361z" fill="#d4d6d6"/><path d="m39.22884 37.88185 5.64258-3.25733.01367 5.02051-5.64258 3.25781z" fill="#c4c6c6"/></g></g></g><g><g enable-background="new"><g><path d="m41.0853 15.8604-.73798-.42887.02943 20.26114.73798.42887z" fill="#d8463f"/></g><g><path d="m44.4538 11.24563-.73798-.42887-2.62921 3.21074.73798.42887z" fill="#f34858"/></g><g><path d="m44.44361 7.65052-.73798-.42887.01019 3.59511.73798.42887z" fill="#d8463f"/></g><g><path d="m41.08254 14.88479-.73798-.42887-2.6321-.17311.73798.42886z" fill="#f34858"/></g><g><path d="m41.06755 9.59968-.73798-.42886.01499 5.2851.73798.42887z" fill="#d8463f"/></g><g><path d="m37.69576 10.69232-.73798-.42886.01402 4.94711.73798.42887z" fill="#d8463f"/></g><g><path d="m45.18325 6.36942-.73798-.42887-7.48749 4.32291.73798.42886z" fill="#e74c3c"/></g><g><path d="m45.19727 11.31653-3.36991 4.11544.02942 20.26114-.74205.42842-.02943-20.26113-3.37553-.22096-.01402-4.94711 7.48749-4.32291zm-3.37268 3.13984 2.62921-3.21074-.01019-3.59511-2.634 1.52074zm-3.37415.2553 2.6321.17312-.01498-5.28511-2.62731 1.51688z" fill="#c14242"/></g></g></g><g><g><g><g><g enable-background="new"><g><g><g><path d="m43.91396 38.76899c.26575-.15041.62674-.13037 1.03286.10028.80224.46629 1.44902 1.58438 1.444 2.50193 0 .46127-.16045.78217-.42115.93258l.72049-.41756c.2607-.15041.42115-.47633.42115-.93258.00502-.92257-.64176-2.04066-1.444-2.50193-.40111-.23065-.76711-.25571-1.03286-.10028z" fill="#5b5e71"/></g></g></g><g><g><g><path d="m44.94655 38.87154c-.8003-.46206-1.45225-.0942-1.45486.8254-.00262.9233.64511 2.04519 1.44541 2.50724s1.45226.09053 1.45488-.83276c.0026-.9196-.64513-2.03783-1.44543-2.49988z" fill="#474b59"/></g></g></g><g><g><g><path d="m44.94576 39.15339c-.6649-.38388-1.20654-.07826-1.20871.68575-.00217.76708.53596 1.69916 1.20086 2.08304.66489.38388 1.20655.07521 1.20872-.69187.00216-.76401-.53598-1.69304-1.20087-2.07692z" fill="#3498db"/></g></g></g><g><g><g><path d="m44.94576 39.15339c-.6649-.38388-1.20654-.07826-1.20871.68575-.00217.76708.53596 1.69916 1.20086 2.08304.66489.38388 1.20655.07521 1.20872-.69187.00216-.76401-.53598-1.69304-1.20087-2.07692z" fill="#fff"/></g></g></g></g></g><g><g><g><path d="m44.85929 40.4866c-.13553-.07825-.24594-.01595-.24638.13978-.00045.15636.10925.34636.24478.42461s.24594.01533.24639-.14103c.00044-.15574-.10925-.34511-.24479-.42336z" fill="#5b5e71"/></g></g></g></g><g><g enable-background="new"><g><path d="m41.69847 37.24462.16765-.09743 3.68089 2.79287-.16764.09743z" fill="#ecf0f1"/></g><g><path d="m45.37937 40.03749.16764-.09743-.00448 1.58279-.16765.09742z" fill="#d4d6d6"/></g><g><path d="m41.69847 37.24462 3.6809 2.79287-.00449 1.58278-3.68467-1.46313z" fill="#e0e2e2"/></g></g></g><g><g enable-background="new"><g><g><g><path d="m42.12733 39.74854c.26575-.15041.62674-.13037 1.03286.10028.80224.46629 1.44902 1.58437 1.444 2.50193 0 .46127-.16045.78217-.42115.93258l.72049-.41756c.2607-.15041.42115-.47632.42115-.93258.00502-.92257-.64176-2.04066-1.444-2.50192-.4011-.23065-.76711-.25571-1.03286-.10028z" fill="#5b5e71"/></g></g></g><g><g><g><path d="m43.15992 39.85109c-.8003-.46205-1.45225-.0942-1.45486.8254-.00262.9233.64511 2.04519 1.44541 2.50724s1.45226.09053 1.45488-.83276c.00261-.91961-.64513-2.03783-1.44543-2.49988z" fill="#474b59"/></g></g></g><g><g><g><path d="m43.15913 40.13294c-.6649-.38388-1.20654-.07827-1.20871.68575-.00217.76709.53596 1.69917 1.20086 2.08304.6649.38388 1.20655.07522 1.20872-.69187.00217-.76401-.53598-1.69304-1.20087-2.07692z" fill="#3498db"/></g></g></g><g><g><g><path d="m43.15913 40.13294c-.6649-.38388-1.20654-.07827-1.20871.68575-.00217.76709.53596 1.69917 1.20086 2.08304.6649.38388 1.20655.07522 1.20872-.69187.00217-.76401-.53598-1.69304-1.20087-2.07692z" fill="#fff"/></g></g></g></g></g></g><g><g><g><path d="m43.15714 40.83669c-.32682-.18869-.59305-.03847-.59412.33707-.00107.37704.26344.83519.59026 1.02387.32682.18869.59306.03697.59412-.34007.00106-.37554-.26345-.83218-.59026-1.02087z" fill="#5b5e71"/></g></g></g></g></g></svg>