<svg id="Layer_1" enable-background="new 0 0 50 50" height="512" viewBox="0 0 50 50" width="512" xmlns="http://www.w3.org/2000/svg"><g><g><g enable-background="new"><g><path d="m44.66165 41.42007-29.83884-17.34044-4.75056.14982 29.83883 17.34044z" fill="#9ba2a6"/></g><g><path d="m39.91108 41.56989-29.83883-17.34044-4.74235 5.33092 29.83884 17.34043z" fill="#b0b8bc"/></g><g><path d="m39.85653 22.32734-29.83884-17.34044 4.80512 19.09273 29.83884 17.34044z" fill="#b0b8bc"/></g><g><path d="m39.84692 18.94023-29.61623-17.22337-5.95848 29.9427 29.83883 17.34044z" fill="#dde4e7"/></g><g><path d="m39.84692 18.94023-1.21565 6.37871-29.66689-17.23858 1.21565-6.37872z" fill="#515aa7"/><path d="m39.84443 18.93858-23.39554-13.59732-.39722-.22407-.56019-.32593-3.00465-1.75187-.39723-.22407-1.90464-1.1102" fill="none"/></g><g><path d="m45.72778 42.29307-5.81413.18678-5.80261 6.52015 5.73588-30.05977zm-1.06613-.873-4.80512-19.09273-4.68779 24.57346 4.74234-5.33092z" fill="#cfd8dd"/></g></g></g><g><g><g enable-background="new"><g><path d="m15.17718 4.59662-.34433-.20023c.39442-.55728.64487-1.2396.64487-1.83448 0-.38823-.10646-.68873-.29427-.87032-.0501-.05625-.10642-.09996-.16905-.13756l.35063.20023c.82604.50026.39442 2.02914-.18785 2.84236z" fill="#475e68"/></g><g><path d="m15.61156 1.32994c-.34914-.20145-.83595-.17215-1.36702.13278-1.0572.61466-1.91773 2.10474-1.91773 3.31917l-.34421-.20145c-.00492-1.21468.85561-2.70451 1.91284-3.31918.53597-.30493 1.01785-.33446 1.36699-.13278z" fill="#475e68"/></g><g><path d="m15.42136 4.73449-.24417-.13787c.83107-1.16069.86145-2.74325.00627-2.90503-.26294-.08132-.5885-.02476-.9391.17547-.51338.3005-.97039.84525-1.2584 1.45236-.19408.4133-.30677.85167-.30677 1.25855l-.35059.20635c0-.51326.15025-1.07666.41322-1.60246.34433-.72022.889-1.36493 1.50253-1.71556 1.82191-1.05647 2.63722 1.17639 1.17701 3.26819z" fill="#35484f"/></g></g></g><g><g enable-background="new"><g><path d="m16.85295 5.58489-.34433-.20023c.39442-.55728.64487-1.2396.64487-1.83448 0-.40627-.11637-.79959-.46332-1.00788.17032.09803.36489.158.55721.38181.00627.00611.01254.01253.01254.01895.05515.06871.10468.1253.17528.3381.20683.75674-.12593 1.66643-.58225 2.30373z" fill="#475e68"/></g><g><path d="m17.28733 2.31821c-1.27135-.73354-3.28475 1.57548-3.28475 3.45195l-.34422-.20145c-.00492-1.21468.8556-2.70451 1.91284-3.31918 1.0219-.58138 1.52846.00927 1.71613.06868z" fill="#475e68"/></g><g><path d="m17.09713 5.72276-.24417-.13787c.45638-.63739.78905-1.54707.58224-2.30372-.23723-.71507-.88065-.78816-1.51507-.42583-.51338.3005-.97039.84525-1.2584 1.45236-.19408.4133-.30677.85167-.30677 1.25855l-.3506.20634c0-.51326.15025-1.07666.41322-1.60246.34433-.72022.889-1.36493 1.50253-1.71556 1.82192-1.05647 2.63723 1.1764 1.17702 3.26819z" fill="#35484f"/></g></g></g><g><g enable-background="new"><g><path d="m19.17359 4.73899c.00627.601-.25044 1.28331-.64487 1.83417l-.34433-.20023c.39442-.55728.64487-1.2396.64487-1.83448 0-.40627-.11637-.79958-.46332-1.00788.17032.09803.36489.158.55721.38181.00627.00611.01253.01253.01253.01895.1283.15983.20582.38459.21911.55698.01253.08133.0188.16295.0188.25068z" fill="#475e68"/></g><g><path d="m18.9631 3.30648c-1.27135-.73354-3.28475 1.57548-3.28475 3.45195l-.34422-.20145c-.00492-1.21468.85561-2.70451 1.91284-3.31917 1.02394-.58255 1.52884.00938 1.71613.06867z" fill="#475e68"/></g><g><path d="m19.52418 4.53846c0 .70738-.288 1.50891-.75129 2.17258l-.24417-.13787c.39442-.55086.65113-1.23318.64487-1.83417 0-.08773-.00627-.16936-.0188-.25067-.10355-1.34362-1.90564-1.11412-2.81729.80765-.19408.4133-.30677.85167-.30677 1.25855l-.35059.20634c0-.51326.15025-1.07666.41322-1.60246.34433-.72022.889-1.36493 1.50253-1.71556 1.05805-.61354 1.92202-.11892 1.92829 1.09561z" fill="#35484f"/></g></g></g></g><g><g><g enable-background="new"><g><path d="m24.35602 9.94251-.34433-.20023c.56696-.80106 1.0259-2.33544.18154-2.84236.14198.10468.53782.21908.68243.58235.32964.65625-.01081 1.7496-.51964 2.46024z" fill="#475e68"/></g><g><path d="m24.7904 6.67583c-.34914-.20145-.83595-.17215-1.36702.13278-1.0572.61466-1.91773 2.10474-1.91773 3.31917l-.34422-.20145c-.00492-1.21468.8556-2.70451 1.91284-3.31918 1.02189-.58138 1.52846.00927 1.71613.06868z" fill="#475e68"/></g><g><path d="m24.60019 10.08038-.24417-.13787c1.24238-1.73514.57122-3.58855-.93283-2.72956-.51338.3005-.97039.84525-1.2584 1.45236-.19408.4133-.30676.85167-.30676 1.25855l-.3506.20634c0-.51326.15025-1.07666.41323-1.60246.34433-.72022.889-1.36493 1.50253-1.71557 1.8219-1.05645 2.63721 1.17641 1.177 3.26821z" fill="#35484f"/></g></g></g><g><g enable-background="new"><g><path d="m26.03178 10.93079-.34433-.20023c.57914-.81828 1.01913-2.3395.18155-2.84236.29623.17049.34021.13822.56974.40077.51939.64704.09952 1.93445-.40696 2.64182z" fill="#475e68"/></g><g><path d="m26.46616 7.6641c-1.27135-.73354-3.28475 1.57548-3.28475 3.45195l-.34422-.20145c-.00777-1.91723 2.04887-4.16304 3.27983-3.45195z" fill="#475e68"/></g><g><path d="m26.27596 11.06865-.24417-.13787c1.95272-2.72723-.71801-4.38273-2.19123-1.2772-.19408.4133-.30677.85167-.30677 1.25855l-.3506.20634c0-.51326.15025-1.07666.41323-1.60246.34433-.72022.889-1.36493 1.50253-1.71556 1.82191-1.05646 2.63722 1.17641 1.17701 3.2682z" fill="#35484f"/></g></g></g><g><g enable-background="new"><g><path d="m27.70755 11.91906-.34433-.20023c.39442-.55728.64487-1.2396.64487-1.83448 0-.40627-.11637-.79959-.46332-1.00788.24818.16148.37159.1658.55721.38181.00627.00611.01253.01253.01253.01895.53292.66391.10187 1.93119-.40696 2.64183z" fill="#475e68"/></g><g><path d="m28.14193 8.65238c-1.27135-.73354-3.28475 1.57548-3.28475 3.45195l-.34422-.20145c-.00777-1.91723 2.04887-4.16304 3.27983-3.45195z" fill="#475e68"/></g><g><path d="m27.95173 12.05693-.24417-.13787c.50345-.70313.93705-1.98144.40696-2.64182 0-.00642-.00627-.01284-.01253-.01895-.72433-.84297-2.05298.2607-2.58565 1.38358-.19408.4133-.30676.85167-.30676 1.25855l-.3506.20634c0-.51326.15025-1.07666.41322-1.60246.34433-.72022.889-1.36493 1.50253-1.71556 1.8219-1.05647 2.63721 1.17639 1.177 3.26819z" fill="#35484f"/></g></g></g></g><g><g><g enable-background="new"><g><path d="m34.17971 13.45423c.00626.601-.25044 1.28331-.64487 1.83417l-.34433-.20023c.39442-.55728.64487-1.2396.64487-1.83448 0-.38823-.10646-.68873-.29427-.87032-.0501-.05625-.10642-.09996-.16905-.13756l.35064.20023c.0313.01895.06259.0376.08762.06267.04383.0376.08139.0752.11895.11892.00627.00611.01253.01253.01253.01895.02503.03118.0501.05625.06886.09385.0188.02507.0313.05625.04383.08774.02503.04983.04383.09996.06259.15652.04091.14964.06263.31514.06263.46954z" fill="#475e68"/></g><g><path d="m33.96923 12.02172c-.34914-.20145-.83595-.17215-1.36702.13278-1.0572.61466-1.91773 2.10474-1.91773 3.31917l-.34422-.20145c-.00492-1.21468.8556-2.70451 1.91283-3.31917.53597-.30493 1.01786-.33446 1.36699-.13278z" fill="#475e68"/></g><g><path d="m33.77902 15.42627-.24417-.13787c.39442-.55086.65113-1.23318.64487-1.83417 0-.1544-.02173-.3199-.06263-.46955-.01876-.05655-.03756-.10669-.06259-.15652-.01254-.03149-.02503-.06267-.04383-.08774-.01876-.0376-.04383-.06267-.06886-.09385 0-.00642-.00626-.01284-.01253-.01895-.03756-.04371-.07513-.08132-.11895-.11892-.08139-.06267-.16901-.10638-.2692-.12534-.26294-.08132-.5885-.02476-.9391.17547-.51338.3005-.97039.84525-1.2584 1.45236-.19408.4133-.30677.85167-.30677 1.25855l-.3506.20634c0-.51326.15025-1.07666.41323-1.60246.34433-.72022.889-1.36493 1.50253-1.71556 1.8219-1.05645 2.63721 1.17642 1.177 3.26821z" fill="#35484f"/></g></g></g><g><g enable-background="new"><g><path d="m35.21062 16.27668-.34433-.20023c.56696-.80106 1.0259-2.33544.18155-2.84236.29623.17049.34021.13822.56974.40077.51938.64705.09951 1.93446-.40696 2.64182z" fill="#475e68"/></g><g><path d="m35.645 13.01c-1.27135-.73354-3.28475 1.57548-3.28475 3.45195l-.34422-.20145c-.00492-1.21468.8556-2.70451 1.91283-3.31917 1.02395-.58256 1.52884.00938 1.71614.06867z" fill="#475e68"/></g><g><path d="m35.45479 16.41455-.24417-.13787c1.14909-1.60486.662-3.64039-.93283-2.72956-.51338.3005-.97039.84525-1.2584 1.45236-.19408.4133-.30677.85167-.30677 1.25855l-.3506.20634c0-.51326.15025-1.07666.41323-1.60246.34433-.72022.889-1.36493 1.50253-1.71556 1.82191-1.05647 2.63722 1.1764 1.17701 3.2682z" fill="#35484f"/></g></g></g><g><g enable-background="new"><g><path d="m37.53125 15.43078c.00627.601-.25044 1.28331-.64487 1.83417l-.34433-.20023c.39442-.55728.64486-1.2396.64486-1.83448 0-.40627-.11637-.79959-.46332-1.00788.35698.20546.74387.37421.78885.95775.01254.08131.01881.16293.01881.25067z" fill="#475e68"/></g><g><path d="m37.32076 13.99827c-1.27135-.73354-3.28475 1.57548-3.28475 3.45195l-.34422-.20145c-.00777-1.91723 2.04887-4.16304 3.27983-3.45195z" fill="#475e68"/></g><g><path d="m37.88184 15.23024c0 .70738-.288 1.50891-.75129 2.17258l-.24417-.13787c.39442-.55086.65113-1.23318.64487-1.83417 0-.08774-.00627-.16936-.0188-.25067-.10307-1.3373-1.90287-1.11996-2.8173.80765-.19408.4133-.30677.85167-.30677 1.25855l-.35059.20634c0-.51326.15025-1.07666.41322-1.60246.34433-.72022.889-1.36493 1.50253-1.71556 1.05806-.61353 1.92204-.11892 1.9283 1.09561z" fill="#35484f"/></g></g></g></g><g><g><path d="m20.80821 35.94795 2.4037 1.38505-.53984 3.00485-2.41391-1.38505z" fill="#ee534f"/><path d="m21.66373 31.2119 2.40371 1.38506-.53979 3.00485-2.4037-1.38506z" fill="#ee534f"/><path d="m12.21185 25.75224 2.4037 1.38556-.54998 3.00485-2.40377-1.38556z" fill="#7db343"/><path d="m23.38505 21.73981 2.4037 1.395-.53978 3.00485-2.41391-1.38506z" fill="#ee534f"/><g fill="#cfd8dd"><path d="m27.25543 29.20518 2.40377 1.39551-.55004 3.00485-2.40371-1.3955z"/><path d="m17.80354 23.74603 2.40371 1.38505-.54998 3.0148-2.40377-1.38506z"/><path d="m26.38971 33.94123 2.4139 1.38556-.54998 3.00435-2.40377-1.38506z"/><path d="m28.11102 24.46914 2.40371 1.3955-.53979 3.00485-2.4139-1.38555z"/><path d="m31.12588 36.67106 2.40371 1.38506-.55005 3.00485-2.4037-1.38506z"/><path d="m7.48587 23.02291 2.40371 1.38506-.54998 3.00485-2.40371-1.38506z"/></g><path d="m22.51932 26.47585 2.41391 1.39501-.55005 3.00485-2.4037-1.3955z" fill="#ee534f"/><path d="m16.93776 28.48207 2.40377 1.38506-.53985 3.00485-2.40371-1.38506z" fill="#cfd8dd"/><path d="m31.98141 31.93501 2.4037 1.3955-.53978 3.00436-2.4139-1.395z" fill="#cfd8dd"/><path d="m11.35626 30.48879 2.4037 1.38505-.54998 3.00485-2.4037-1.38555z" fill="#7db343"/><path d="m35.2509 28.59397-.55004 3.00485-2.40371-1.38506.53985-3.01479z" fill="#cfd8dd"/><path d="m6.62009 27.75896 2.40377 1.38505-.53985 3.00485-2.40371-1.38505z" fill="#cfd8dd"/><path d="m16.08223 33.21812 2.40371 1.38555-.54998 3.00435-2.40377-1.38505z" fill="#cfd8dd"/><path d="m13.06737 21.0162 2.40371 1.38555-.53979 3.0148-2.4037-1.3955z" fill="#7db343"/><path d="m8.3414 18.28687 2.40377 1.38505-.55005 3.0148-2.4037-1.3955z" fill="#cfd8dd"/></g></g></g></svg>