<svg id="Layer_1" enable-background="new 0 0 50 50" height="512" viewBox="0 0 50 50" width="512" xmlns="http://www.w3.org/2000/svg"><g><g><g><path d="" fill="#f17572"/><g><path d="m46.84264 22.12446c-.22952.2882-.46651.57446-.71082.85867.2443-.28422.48129-.57047.71082-.85867z" fill="none"/><path d="m45.7599 23.40799c-.25157.28226-.51038.5624-.77623.84049.26585-.2781.52466-.55823.77623-.84049z" fill="none"/><path d="m48.97062 19.03304c-3.13329 5.3728-8.49908 9.68867-13.91246 12.81419-1.99773 1.15335-4.13632 2.22494-6.39304 3.20155-1.28955.55805-2.61768 1.08516-3.98015 1.57874-6.43073 2.33005-13.67635 3.93245-21.28524 4.51018-.79653.06047-1.59662.10978-2.39973.14747 2.4973 1.78802 6.89049 3.15154 6.55451 8.52491 12.84976-.6031 18.40052-2.3271 27.53304-7.59982 6.2441-3.60504 11.11043-8.00942 13.91245-12.8141z" fill="#f17572"/><g><path d="m48.99743 28.44331c-2.80047 4.8037-7.6677 9.20782-13.90974 12.81099-9.13151 5.27042-14.6816 6.9976-27.52528 7.60052.01634.30328.0127.6211-.00727.95533 12.84912-.60301 18.39922-2.32647 27.53255-7.60052 6.24386-3.60504 11.11109-8.00915 13.91156-12.81285z" fill="#cb4844"/><path d="m2.37735 41.2089c-.45766.02909-.91714.05453-1.37662.07626 2.32828 1.66724 6.30378 2.96398 6.55805 7.48613.23791-4.41679-2.74417-6.09671-5.18143-7.56239z" fill="#cb4844"/><path d="m7.55514 48.85483h.00727c0-.02909 0-.05631-.00364-.08353.00001.02722-.00181.05444-.00363.08353z" fill="#f17572"/><path d="m48.99743 28.44331-.02724-9.41116c-3.11745 5.36137-8.51062 9.69824-13.91157 12.81463-1.99774 1.15326-4.13714 2.22476-6.39278 3.20182-1.28945.55761-2.61886 1.08604-3.98096 1.57821-6.43354 2.33258-13.58019 3.91179-21.28505 4.51133-.34143.02536-.68105.04895-1.02248.07076 2.43726 1.46568 5.41934 3.1456 5.18143 7.56239.00364.02722.00364.05445.00364.08353 12.84367-.60292 18.39377-2.33011 27.52528-7.60052 6.24203-3.60317 11.10926-8.00729 13.90973-12.81099z" fill="#ee5550"/></g><path d="m24.68498 36.62752c1.36246-.49358 2.6906-1.02069 3.98015-1.57874 2.25672-.97661 4.39531-2.0482 6.39304-3.20155 5.41186-3.12464 10.77859-7.44042 13.91246-12.81419l-9.39801-5.46152c-.03242.0063-.06436.01339-.09676.01969v.55424l8.74368 5.08126c-3.12111 5.0723-8.26905 9.16677-13.43378 12.14865-9.18637 5.30376-20.77907 8.59212-32.75166 9.30731-.12849.00763-.25678.01676-.38536.02386 1.27537-6.79834 6.93872-13.39601 16.03001-18.64496 6.24996-3.60841 13.78282-6.34378 21.79712-7.91613v-.55424c-8.26544 1.6104-15.84925 4.40722-22.06956 7.99851-9.1315 5.27212-15.32252 12.25438-16.40631 19.69546.80311-.03769 1.6032-.08699 2.39973-.14747 7.60938-.57777 14.85491-2.18037 21.28525-4.51018z" fill="#485f69"/><path d="m28.66512 35.04878c-1.28955.55805-2.61768 1.08516-3.98015 1.57874 1.36247-.49359 2.6906-1.02069 3.98015-1.57874z" fill="#778c95"/><path d="m24.68498 36.62752c-6.13109 2.22139-12.95753 3.76581-20.09317 4.41103 7.13563-.64522 13.96207-2.18955 20.09317-4.41103z" fill="#778c95"/><path d="m1.64871 40.70654c.12858-.0071.25687-.01623.38536-.02386 1.80587-6.2277 7.26888-12.20851 15.64465-17.04432 6.24996-3.60841 13.78282-6.34378 21.79712-7.91613v-1.57679c-8.0143 1.57235-15.54716 4.30772-21.79712 7.91613-9.09129 5.24897-14.75463 11.84663-16.03001 18.64497z" fill="#40545d"/><path d="m47.47072 20.36836c.26296-.37848.51335-.759.7488-1.14164l-8.74368-5.08126v1.57679z" fill="#56707b"/><path d="m39.47585 16.57674v-.8545c-8.0143 1.57235-15.54716 4.30772-21.79712 7.91613-8.37577 4.8358-13.83879 10.81662-15.64465 17.04432 11.9726-.71519 23.56529-4.00356 32.75166-9.30731 5.53783-3.19729 9.88328-6.9749 12.68498-11.00701l-7.99488-4.64612v.85449z" fill="#dde4e7"/></g></g><g><g enable-background="new"><g><path d="m43.71021 15.84498-.02493 8.7935-6.13279 3.56398.02493-8.79349z" fill="#b0b8bc"/></g><g><path d="m37.57742 19.40897-.02493 8.79349-11.8651-6.85032.02493-8.79349z" fill="#cfd8dd"/></g><g><path d="m43.71021 15.84498-6.13279 3.56399-11.8651-6.85032 6.13279-3.56399z" fill="#dde4e7"/></g></g></g><g><g><path d="m28.12431 15.65358-.00658 2.32237-1.43319-.82745.00658-2.32237z" fill="#b0b8bc"/></g><g><path d="m30.3657 16.94765-.00659 2.32237-1.43319-.82746.00659-2.32237z" fill="#b0b8bc"/></g><g><path d="m32.60708 18.24171-.00658 2.32237-1.43319-.82745.00658-2.32237z" fill="#b0b8bc"/></g><g><path d="m34.84847 19.53577-.00659 2.32237-1.43318-.82745.00658-2.32237z" fill="#b0b8bc"/></g><g><path d="m37.08986 20.82984-.00659 2.32237-1.43319-.82745.00659-2.32237z" fill="#b0b8bc"/></g><g><path d="m28.11482 19.00055-.00658 2.32237-1.43319-.82745.00658-2.32237z" fill="#b0b8bc"/></g><g><path d="m30.35621 20.29461-.00659 2.32238-1.43318-.82746.00658-2.32237z" fill="#b0b8bc"/></g><g><path d="m32.59759 21.58868-.00658 2.32237-1.43319-.82745.00659-2.32237z" fill="#b0b8bc"/></g><g><path d="m34.83898 22.88274-.00659 2.32237-1.43318-.82745.00658-2.32237z" fill="#b0b8bc"/></g><g><path d="m37.08036 24.17681-.00658 2.32237-1.43319-.82745.00658-2.32237z" fill="#b0b8bc"/></g></g><g><g><g enable-background="new"><g><path d="m33.11865 11.85173-1.9484 1.12504c-.38041.22002-.87855.33039-1.37521.32967-.4974 0-.99406-.10965-1.37227-.32892-.37526-.21855-.56363-.50403-.56436-.79023l-.01472-5.0388c.00147.28624.1891.57247.5651.79027.37747.22002.87413.32964 1.37153.32964.49667 0 .9948-.10962 1.37521-.32964l1.94914-1.12504z" fill="#56707b"/></g><g><path d="m28.41747 6.34738c-.76105.43939-.76505 1.1522-.00895 1.5916.37805.2197.87471.32927 1.37201.32928.49681.00027.99473-.10985 1.37525-.32954l1.94866-1.12506-2.73832-1.59134z" fill="#778c95"/></g></g><g><g><g><g enable-background="new"><g><path d="m30.84425 6.2163-.00374.78012c-.00041.14321-.09457.28621-.28267.39552-.37863.22003-.99408.22002-1.37518 0-.19178-.11072-.28756-.256-.28715-.40106l.00374-.78012c-.00041.14506.09538.29034.28715.40106.3811.22003.99655.22004 1.37518 0 .1881-.10931.28226-.25231.28267-.39552z" fill="#dde4e7"/></g><g><path d="m30.55712 5.81525c.3811.22003.38309.57654.00446.79658-.37863.22003-.99408.22002-1.37518 0-.3811-.22003-.38313-.57652-.0045-.79655.37863-.22005.99412-.22006 1.37522-.00003z" fill="#dde4e7"/></g></g></g><g><g enable-background="new"><g><path d="m30.84425 5.43618-.00374.78012c-.00041.14321-.09457.28621-.28267.39552-.37863.22003-.99408.22002-1.37518 0-.19178-.11072-.28756-.256-.28715-.40106l.00374-.78012c-.00041.14506.09537.29034.28715.40106.3811.22003.99655.22004 1.37518 0 .1881-.10931.28226-.25231.28267-.39552z" fill="#778c95"/></g><g><path d="m30.55712 5.03513c.3811.22003.38309.57654.00446.79658-.37863.22003-.99408.22002-1.37518 0-.3811-.22003-.38313-.57652-.0045-.79655.37863-.22005.99412-.22006 1.37522-.00003z" fill="#dde4e7"/></g></g></g></g><g><g><g enable-background="new"><g><path d="m30.84425 4.65606-.00374.78012c-.00041.14321-.09457.28621-.28267.39552-.37863.22003-.99408.22002-1.37518 0-.19178-.11072-.28756-.256-.28715-.40106l.00374-.78012c-.00041.14506.09538.29034.28715.40106.3811.22003.99655.22004 1.37518 0 .1881-.10931.28226-.25231.28267-.39552z" fill="#dde4e7"/></g><g><path d="m30.55712 4.25501c.3811.22003.38309.57654.00446.79658-.37863.22003-.99408.22002-1.37518 0-.3811-.22003-.38313-.57652-.0045-.79655.37863-.22005.99412-.22006 1.37522-.00003z" fill="#dde4e7"/></g></g></g><g><g enable-background="new"><g><path d="m30.84425 3.87594-.00374.78012c-.00041.14321-.09457.28621-.28267.39552-.37863.22003-.99408.22002-1.37518 0-.19178-.11072-.28756-.256-.28715-.40106l.00374-.78012c-.00041.14506.09538.29034.28715.40106.3811.22003.99655.22004 1.37518 0 .1881-.1093.28226-.2523.28267-.39552z" fill="#778c95"/></g><g><path d="m30.55712 3.47489c.3811.22003.38309.57654.00446.79658-.37863.22003-.99408.22002-1.37518 0-.3811-.22003-.38313-.57652-.0045-.79655.37863-.22004.99412-.22006 1.37522-.00003z" fill="#dde4e7"/></g></g></g></g><g><g><g enable-background="new"><g><path d="m30.84425 3.09583-.00374.78012c-.00041.14321-.09457.28621-.28267.39552-.37863.22003-.99408.22002-1.37518 0-.19178-.11072-.28756-.256-.28715-.40106l.00374-.78012c-.00041.14506.09538.29034.28715.40106.3811.22003.99655.22004 1.37518 0 .1881-.10931.28226-.25231.28267-.39552z" fill="#dde4e7"/></g><g><path d="m30.55712 2.69478c.3811.22003.38309.57654.00446.79658-.37863.22003-.99408.22002-1.37518 0-.3811-.22003-.38313-.57652-.0045-.79655.37863-.22005.99412-.22006 1.37522-.00003z" fill="#dde4e7"/></g></g></g><g><g enable-background="new"><g><path d="m30.84425 2.31571-.00374.78012c-.00041.14321-.09457.28621-.28267.39552-.37863.22003-.99408.22002-1.37518 0-.19178-.11072-.28756-.256-.28715-.40106l.00374-.78012c-.00041.14506.09538.29034.28715.40106.3811.22003.99655.22004 1.37518 0 .1881-.10931.28226-.25231.28267-.39552z" fill="#778c95"/></g><g><path d="m30.55712 1.91466c.3811.22003.38309.57654.00446.79658-.37863.22003-.99408.22002-1.37518 0-.3811-.22003-.38313-.57652-.0045-.79655.37863-.22005.99412-.22006 1.37522-.00003z" fill="#dde4e7"/></g></g></g></g><g><g><g enable-background="new"><g><path d="m30.84425 1.53559-.00374.78012c-.00041.14321-.09457.28621-.28267.39552-.37863.22003-.99408.22002-1.37518 0-.19178-.11072-.28756-.256-.28715-.40106l.00374-.78012c-.00041.14506.09538.29034.28715.40106.3811.22003.99655.22004 1.37518 0 .1881-.10931.28226-.25231.28267-.39552z" fill="#dde4e7"/></g><g><path d="m30.55712 1.13454c.3811.22003.38309.57654.00446.79658-.37863.22003-.99408.22002-1.37518 0-.3811-.22003-.38313-.57652-.0045-.79655.37863-.22005.99412-.22006 1.37522-.00003z" fill="#dde4e7"/></g></g></g><g><g enable-background="new"><g><path d="m30.84425.75547-.00374.78012c-.00041.14321-.09457.28621-.28267.39553-.37863.22003-.99408.22002-1.37518 0-.19178-.11072-.28756-.256-.28715-.40106l.00374-.78012c-.00041.14505.09537.29033.28715.40106.3811.22003.99655.22004 1.37518 0 .1881-.10931.28226-.25231.28267-.39553z" fill="#778c95"/></g><g><path d="m30.55712.35442c.3811.22003.38309.57654.00446.79658-.37863.22003-.99408.22002-1.37518 0-.3811-.22003-.38313-.57652-.0045-.79655.37863-.22004.99412-.22006 1.37522-.00003z" fill="#dde4e7"/><g><path d="m30.50334.44812c-.16838-.09713-.39398-.1511-.63468-.1511-.24071 0-.46522.05397-.63252.1511-.14787.08528-.22883.19321-.22883.30331 0 .08744.05289.17487.15004.2504.02375-.0194.04965-.03779.07879-.05397.16731-.09713.39182-.1511.63252-.1511s.46629.05397.63468.1511c.03022.01729.05828.03563.08311.05613.09715-.07447.15004-.16191.15004-.24929 0-.1112-.08312-.22019-.23315-.30658z" fill="#b0b8bc"/><path d="m29.86867.79676c-.24071 0-.46522.05397-.63252.1511-.02915.01619-.05505.03458-.0788.05398.02482.01945.05289.0389.08311.05613.16838.09719.39397.15005.63468.15005.2407 0 .46521-.05286.63252-.15005.02915-.01723.05505-.03452.07879-.05397-.02482-.0205-.05289-.03884-.08311-.05613-.16838-.09714-.39397-.15111-.63467-.15111z" fill="#9aa1a5"/></g></g></g></g></g></g></g><g><g enable-background="new"><g><path d="m37.16013 14.02566-1.9484 1.12504c-.38041.22002-.87855.33039-1.37521.32967-.49739 0-.99406-.10965-1.37226-.32892-.37526-.21855-.56363-.50403-.56436-.79023l-.01472-5.0388c.00147.28624.1891.57247.56509.79027.37747.22002.87413.32964 1.37153.32964.49667 0 .9948-.10962 1.37521-.32964l1.94914-1.12504z" fill="#485f69"/></g><g><path d="m32.45895 8.5213c-.76105.43939-.76506 1.1522-.00895 1.5916.37806.2197.87471.32927 1.37201.32928.49681.00027.99473-.10985 1.37525-.32954l1.94866-1.12506-2.73832-1.59134z" fill="#778c95"/></g></g><g><g><g><g enable-background="new"><g><path d="m34.88573 8.39022-.00374.78012c-.0004.14321-.09457.28621-.28267.39552-.37863.22003-.99408.22002-1.37518 0-.19178-.11072-.28756-.256-.28715-.40106l.00374-.78012c-.00041.14506.09538.29034.28715.40106.3811.22003.99655.22004 1.37518 0 .1881-.10931.28227-.2523.28267-.39552z" fill="#dde4e7"/></g><g><path d="m34.5986 7.98917c.3811.22003.38309.57654.00446.79658s-.99408.22003-1.37518 0-.38313-.57652-.0045-.79655c.37863-.22004.99412-.22006 1.37522-.00003z" fill="#dde4e7"/></g></g></g><g><g enable-background="new"><g><path d="m34.88573 7.61011-.00374.78012c-.0004.14321-.09457.28621-.28267.39552-.37863.22003-.99408.22003-1.37518 0-.19178-.11072-.28756-.256-.28715-.40106l.00374-.78012c-.00041.14506.09538.29034.28715.40106.3811.22003.99655.22004 1.37518 0 .1881-.10931.28227-.25231.28267-.39552z" fill="#778c95"/></g><g><path d="m34.5986 7.20905c.3811.22003.38309.57654.00446.79658-.37863.22003-.99408.22002-1.37518 0-.3811-.22003-.38313-.57652-.0045-.79656.37863-.22003.99412-.22004 1.37522-.00002z" fill="#dde4e7"/></g></g></g></g><g><g><g enable-background="new"><g><path d="m34.88573 6.82999-.00374.78012c-.0004.14321-.09457.28621-.28267.39552-.37863.22003-.99408.22002-1.37518 0-.19178-.11072-.28756-.256-.28715-.40106l.00374-.78012c-.00041.14506.09538.29034.28715.40106.3811.22003.99655.22004 1.37518 0 .1881-.10931.28227-.25231.28267-.39552z" fill="#dde4e7"/></g><g><path d="m34.5986 6.42894c.3811.22003.38309.57654.00446.79658-.37863.22003-.99408.22002-1.37518 0-.3811-.22003-.38313-.57652-.0045-.79655.37863-.22005.99412-.22006 1.37522-.00003z" fill="#dde4e7"/></g></g></g><g><g enable-background="new"><g><path d="m34.88573 6.04987-.00374.78012c-.0004.14321-.09457.28621-.28267.39552-.37863.22003-.99408.22002-1.37518 0-.19178-.11072-.28756-.256-.28715-.40106l.00374-.78012c-.00041.14506.09538.29034.28715.40106.3811.22003.99655.22004 1.37518 0 .1881-.10931.28227-.25231.28267-.39552z" fill="#778c95"/></g><g><path d="m34.5986 5.64882c.3811.22003.38309.57654.00446.79658-.37863.22003-.99408.22002-1.37518 0-.3811-.22003-.38313-.57652-.0045-.79655.37863-.22005.99412-.22006 1.37522-.00003z" fill="#dde4e7"/></g></g></g></g><g><g><g enable-background="new"><g><path d="m34.88573 5.26975-.00374.78012c-.0004.14321-.09457.28621-.28267.39552-.37863.22003-.99408.22002-1.37518 0-.19178-.11072-.28756-.256-.28715-.40106l.00374-.78012c-.00041.14506.09538.29034.28715.40106.3811.22003.99655.22004 1.37518 0 .1881-.10931.28227-.2523.28267-.39552z" fill="#dde4e7"/></g><g><path d="m34.5986 4.8687c.3811.22003.38309.57654.00446.79658-.37863.22003-.99408.22002-1.37518 0-.3811-.22003-.38313-.57652-.0045-.79655.37863-.22004.99412-.22006 1.37522-.00003z" fill="#dde4e7"/></g></g></g><g><g enable-background="new"><g><path d="m34.88573 4.48964-.00374.78012c-.0004.14321-.09457.28621-.28267.39552-.37863.22003-.99408.22002-1.37518 0-.19178-.11072-.28756-.256-.28715-.40106l.00374-.78012c-.00041.14506.09538.29034.28715.40106.3811.22003.99655.22004 1.37518 0 .1881-.10931.28227-.25231.28267-.39552z" fill="#778c95"/></g><g><path d="m34.5986 4.08858c.3811.22003.38309.57654.00446.79658-.37863.22003-.99408.22002-1.37518 0-.3811-.22003-.38313-.57652-.0045-.79655.37863-.22004.99412-.22005 1.37522-.00003z" fill="#dde4e7"/></g></g></g></g><g><g><g enable-background="new"><g><path d="m34.88573 3.70952-.00374.78012c-.0004.14321-.09457.28621-.28267.39552-.37863.22003-.99408.22002-1.37518 0-.19178-.11072-.28756-.256-.28715-.40106l.00374-.78012c-.00041.14506.09538.29034.28715.40106.3811.22003.99655.22004 1.37518 0 .1881-.10931.28227-.25231.28267-.39552z" fill="#dde4e7"/></g><g><path d="m34.5986 3.30847c.3811.22003.38309.57654.00446.79658-.37863.22003-.99408.22002-1.37518 0-.3811-.22003-.38313-.57652-.0045-.79655.37863-.22005.99412-.22006 1.37522-.00003z" fill="#dde4e7"/></g></g></g><g><g enable-background="new"><g><path d="m34.88573 2.9294-.00374.78012c-.0004.14321-.09457.28621-.28267.39552-.37863.22003-.99408.22002-1.37518 0-.19178-.11072-.28756-.256-.28715-.40106l.00374-.78012c-.00041.14506.09538.29034.28715.40106.3811.22003.99655.22004 1.37518 0 .1881-.10931.28227-.25231.28267-.39552z" fill="#778c95"/></g><g><path d="m34.5986 2.52835c.3811.22003.38309.57654.00446.79658-.37863.22003-.99408.22002-1.37518 0-.3811-.22003-.38313-.57652-.0045-.79655.37863-.22005.99412-.22006 1.37522-.00003z" fill="#dde4e7"/><g><path d="m34.54483 2.62205c-.16838-.09713-.39398-.1511-.63468-.1511-.24071 0-.46521.05397-.63253.1511-.14787.08528-.22883.19321-.22883.30331 0 .08744.05289.17487.15004.2504.02375-.0194.04966-.03779.07879-.05397.16731-.09713.39182-.1511.63253-.1511.2407 0 .46629.05397.63468.1511.03022.01729.05828.03563.08311.05613.09715-.07447.15004-.16191.15004-.24929-.00001-.11121-.08313-.2202-.23315-.30658z" fill="#b0b8bc"/><path d="m33.91015 2.97069c-.24071 0-.46521.05397-.63253.1511-.02914.01618-.05504.03457-.07879.05397.02483.01945.05289.0389.08311.05613.16838.09719.39397.15005.63468.15005.2407 0 .46521-.05286.63252-.15005.02914-.01723.05505-.03452.07879-.05397-.02482-.0205-.05289-.03884-.08311-.05613-.16838-.09713-.39397-.1511-.63467-.1511z" fill="#9aa1a5"/></g></g></g></g></g></g></g><g><g enable-background="new"><g><path d="m41.20161 16.19958-1.9484 1.12504c-.38041.22002-.87854.33039-1.37521.32967-.4974 0-.99406-.10965-1.37227-.32892-.37526-.21855-.56363-.50403-.56436-.79023l-.01472-5.0388c.00147.28624.1891.57247.56509.79027.37747.22002.87413.32964 1.37153.32964.49667 0 .9948-.10962 1.37521-.32964l1.94914-1.12504z" fill="#56707b"/></g><g><path d="m36.50043 10.69523c-.76105.43939-.76505 1.15219-.00895 1.5916.37806.2197.87471.32927 1.37202.32928.49681.00027.99472-.10985 1.37525-.32954l1.94867-1.12506-2.73832-1.59134z" fill="#778c95"/></g></g><g><g><g><g enable-background="new"><g><path d="m38.92721 10.56415-.00374.78012c-.0004.14321-.09457.28621-.28267.39552-.37862.22003-.99408.22003-1.37518 0-.19178-.11072-.28756-.256-.28715-.40106l.00374-.78012c-.00041.14506.09538.29034.28716.40106.3811.22003.99655.22004 1.37518 0 .1881-.10931.28226-.25231.28266-.39552z" fill="#dde4e7"/></g><g><path d="m38.64008 10.1631c.3811.22003.38309.57654.00446.79658-.37862.22003-.99408.22002-1.37518 0-.3811-.22003-.38313-.57652-.0045-.79655.37863-.22005.99412-.22006 1.37522-.00003z" fill="#dde4e7"/></g></g></g><g><g enable-background="new"><g><path d="m38.92721 9.78403-.00374.78012c-.0004.14321-.09457.28621-.28267.39552-.37862.22003-.99408.22002-1.37518 0-.19178-.11072-.28756-.256-.28715-.40106l.00374-.78012c-.00041.14506.09538.29034.28716.40106.3811.22003.99655.22004 1.37518 0 .1881-.10931.28226-.25231.28266-.39552z" fill="#778c95"/></g><g><path d="m38.64008 9.38298c.3811.22003.38309.57654.00446.79658-.37862.22003-.99408.22003-1.37518 0s-.38313-.57652-.0045-.79655.99412-.22006 1.37522-.00003z" fill="#dde4e7"/></g></g></g></g><g><g><g enable-background="new"><g><path d="m38.92721 9.00391-.00374.78012c-.0004.14321-.09457.28621-.28267.39552-.37862.22003-.99408.22003-1.37518 0-.19178-.11072-.28756-.256-.28715-.40106l.00374-.78012c-.00041.14506.09538.29034.28716.40106.3811.22003.99655.22004 1.37518 0 .1881-.10931.28226-.2523.28266-.39552z" fill="#dde4e7"/></g><g><path d="m38.64008 8.60286c.3811.22003.38309.57654.00446.79658-.37862.22003-.99408.22002-1.37518 0-.3811-.22003-.38313-.57652-.0045-.79655.37863-.22004.99412-.22006 1.37522-.00003z" fill="#dde4e7"/></g></g></g><g><g enable-background="new"><g><path d="m38.92721 8.2238-.00374.78012c-.0004.14321-.09457.28621-.28267.39552-.37862.22003-.99408.22002-1.37518 0-.19178-.11072-.28756-.256-.28715-.40106l.00374-.78012c-.00041.14506.09538.29034.28716.40106.3811.22003.99655.22004 1.37518 0 .1881-.10931.28226-.25231.28266-.39552z" fill="#778c95"/></g><g><path d="m38.64008 7.82274c.3811.22003.38309.57654.00446.79658-.37862.22003-.99408.22003-1.37518 0s-.38313-.57652-.0045-.79655.99412-.22005 1.37522-.00003z" fill="#dde4e7"/></g></g></g></g><g><g><g enable-background="new"><g><path d="m38.92721 7.44368-.00374.78012c-.0004.14321-.09457.28621-.28267.39552-.37862.22003-.99408.22003-1.37518 0-.19178-.11072-.28756-.256-.28715-.40106l.00374-.78012c-.00041.14506.09538.29034.28716.40106.3811.22003.99655.22004 1.37518 0 .1881-.10931.28226-.25231.28266-.39552z" fill="#dde4e7"/></g><g><path d="m38.64008 7.04263c.3811.22003.38309.57654.00446.79658-.37862.22003-.99408.22002-1.37518 0-.3811-.22003-.38313-.57652-.0045-.79655s.99412-.22006 1.37522-.00003z" fill="#dde4e7"/></g></g></g><g><g enable-background="new"><g><path d="m38.92721 6.66356-.00374.78012c-.0004.14321-.09457.28621-.28267.39552-.37862.22003-.99408.22002-1.37518 0-.19178-.11072-.28756-.256-.28715-.40106l.00374-.78012c-.00041.14506.09538.29034.28716.40106.3811.22003.99655.22004 1.37518 0 .1881-.10931.28226-.25231.28266-.39552z" fill="#778c95"/></g><g><path d="m38.64008 6.26251c.3811.22003.38309.57654.00446.79658-.37862.22003-.99408.22002-1.37518 0-.3811-.22003-.38313-.57652-.0045-.79655s.99412-.22006 1.37522-.00003z" fill="#dde4e7"/></g></g></g></g><g><g><g enable-background="new"><g><path d="m38.92721 5.88344-.00374.78012c-.0004.14321-.09457.28621-.28267.39552-.37862.22003-.99408.22002-1.37518 0-.19178-.11072-.28756-.256-.28715-.40106l.00374-.78012c-.00041.14506.09538.29034.28716.40106.3811.22003.99655.22004 1.37518 0 .1881-.10931.28226-.2523.28266-.39552z" fill="#dde4e7"/></g><g><path d="m38.64008 5.48239c.3811.22003.38309.57654.00446.79658-.37862.22003-.99408.22002-1.37518 0-.3811-.22003-.38313-.57652-.0045-.79655s.99412-.22006 1.37522-.00003z" fill="#dde4e7"/></g></g></g><g><g enable-background="new"><g><path d="m38.92721 5.10333-.00374.78012c-.0004.14321-.09457.28621-.28267.39552-.37862.22003-.99408.22002-1.37518 0-.19178-.11072-.28756-.256-.28715-.40106l.00374-.78012c-.00041.14506.09538.29034.28716.40106.3811.22003.99655.22004 1.37518 0 .1881-.10931.28226-.25231.28266-.39552z" fill="#778c95"/></g><g><path d="m38.64008 4.70227c.3811.22003.38309.57654.00446.79658-.37862.22003-.99408.22002-1.37518 0-.3811-.22003-.38313-.57652-.0045-.79655s.99412-.22005 1.37522-.00003z" fill="#dde4e7"/><g><path d="m38.58631 4.79598c-.16838-.09713-.39398-.1511-.63468-.1511-.24071 0-.46521.05397-.63252.1511-.14788.08528-.22883.19321-.22883.30331 0 .08744.05289.17487.15004.2504.02375-.0194.04965-.03779.07879-.05397.16731-.09713.39182-.1511.63252-.1511s.46629.05397.63468.1511c.03022.01729.05828.03563.08311.05613.09715-.07447.15004-.16191.15004-.24929-.00001-.11121-.08312-.2202-.23315-.30658z" fill="#b0b8bc"/><path d="m37.95163 5.14461c-.24071 0-.46521.05397-.63252.1511-.02914.01618-.05505.03457-.07879.05397.02482.01945.05289.0389.08311.05613.16838.09719.39397.15005.63468.15005.2407 0 .46521-.05286.63251-.15005.02915-.01723.05505-.03452.07879-.05397-.02482-.0205-.05289-.03884-.08311-.05613-.16838-.09713-.39397-.1511-.63467-.1511z" fill="#9aa1a5"/></g></g></g></g></g></g></g></g></g><g><g><g><g><g enable-background="new"><g><path d="m28.84284 24.05658-.00588 2.07177-2.08983 1.21448.00587-2.07177z" fill="#b0b8bc"/></g><g><path d="m26.753 25.27106-.00587 2.07177-3.88523-2.24313.00588-2.07177z" fill="#cfd8dd"/></g><g><path d="m28.84284 24.05658-2.08984 1.21448-3.88522-2.24313 2.08983-1.21449z" fill="#dde4e7"/></g></g></g><g><g enable-background="new"><g><path d="m26.38497 25.50808-.00587 2.07177-2.08984 1.21448.00587-2.07177z" fill="#b0b8bc"/></g><g><path d="m24.29513 26.72256-.00587 2.07177-3.88522-2.24313.00587-2.07178z" fill="#cfd8dd"/></g><g><path d="m26.38497 25.50808-2.08984 1.21448-3.88522-2.24314 2.08984-1.21448z" fill="#dde4e7"/></g></g></g><g><g enable-background="new"><g><path d="m23.9271 26.95957-.00587 2.07178-2.08984 1.21447.00588-2.07177z" fill="#b0b8bc"/></g><g><path d="m21.83727 28.17405-.00588 2.07177-3.88522-2.24313.00588-2.07177z" fill="#cfd8dd"/></g><g><path d="m23.9271 26.95957-2.08983 1.21448-3.88522-2.24313 2.08983-1.21448z" fill="#dde4e7"/></g></g></g></g><g><g><g enable-background="new"><g><path d="m28.84284 21.8288-.00588 2.07178-2.08983 1.21448.00587-2.07178z" fill="#b0b8bc"/></g><g><path d="m26.753 23.04328-.00587 2.07178-3.88523-2.24314.00588-2.07177z" fill="#cfd8dd"/></g><g><path d="m28.84284 21.8288-2.08984 1.21448-3.88522-2.24313 2.08983-1.21448z" fill="#dde4e7"/></g></g></g><g><g enable-background="new"><g><path d="m26.38497 23.2803-.00587 2.07177-2.08984 1.21448.00587-2.07177z" fill="#b0b8bc"/></g><g><path d="m24.29513 24.49478-.00587 2.07177-3.88522-2.24313.00587-2.07178z" fill="#cfd8dd"/></g><g><path d="m26.38497 23.2803-2.08984 1.21448-3.88522-2.24314 2.08984-1.21448z" fill="#dde4e7"/></g></g></g><g><g enable-background="new"><g><path d="m23.9271 24.73179-.00587 2.07178-2.08984 1.21448.00588-2.07178z" fill="#b0b8bc"/></g><g><path d="m21.83727 25.94627-.00588 2.07178-3.88522-2.24314.00588-2.07177z" fill="#cfd8dd"/></g><g><path d="m23.9271 24.73179-2.08983 1.21448-3.88522-2.24313 2.08983-1.21448z" fill="#dde4e7"/></g></g></g></g><g><g><g enable-background="new"><g><path d="m28.84284 19.60103-.00588 2.07177-2.08983 1.21448.00587-2.07177z" fill="#b0b8bc"/></g><g><path d="m26.753 20.81551-.00587 2.07177-3.88523-2.24313.00588-2.07178z" fill="#cfd8dd"/></g><g><path d="m28.84284 19.60103-2.08984 1.21448-3.88522-2.24314 2.08983-1.21448z" fill="#dde4e7"/></g></g></g><g><g enable-background="new"><g><path d="m26.38497 21.05252-.00587 2.07178-2.08984 1.21448.00587-2.07178z" fill="#b0b8bc"/></g><g><path d="m24.29513 22.267-.00587 2.07178-3.88522-2.24314.00587-2.07177z" fill="#cfd8dd"/></g><g><path d="m26.38497 21.05252-2.08984 1.21448-3.88522-2.24313 2.08984-1.21448z" fill="#dde4e7"/></g></g></g><g><g enable-background="new"><g><path d="m23.9271 22.50402-.00587 2.07177-2.08984 1.21448.00588-2.07177z" fill="#b0b8bc"/></g><g><path d="m21.83727 23.7185-.00588 2.07177-3.88522-2.24313.00588-2.07178z" fill="#cfd8dd"/></g><g><path d="m23.9271 22.50402-2.08983 1.21448-3.88522-2.24314 2.08983-1.21447z" fill="#dde4e7"/></g></g></g></g></g><g><g><g><g enable-background="new"><g><path d="m20.68832 28.44181-.00587 2.07177-2.08984 1.21448.00587-2.07177z" fill="#cb4844"/></g><g><path d="m18.59848 29.65629-.00587 2.07177-3.88522-2.24313.00587-2.07178z" fill="#ee5550"/></g><g><path d="m20.68832 28.44181-2.08984 1.21448-3.88522-2.24314 2.08984-1.21447z" fill="#f17572"/></g></g></g><g><g enable-background="new"><g><path d="m18.23045 29.8933-.00587 2.07178-2.08984 1.21448.00588-2.07178z" fill="#cb4844"/></g><g><path d="m16.14062 31.10778-.00588 2.07178-3.88522-2.24314.00588-2.07177z" fill="#ee5550"/></g><g><path d="m18.23045 29.8933-2.08983 1.21448-3.88522-2.24313 2.08983-1.21448z" fill="#f17572"/></g></g></g><g><g enable-background="new"><g><path d="m15.77259 31.3448-.00587 2.07178-2.08984 1.21447.00587-2.07177z" fill="#cb4844"/></g><g><path d="m13.68275 32.55928-.00587 2.07177-3.88522-2.24313.00587-2.07178z" fill="#ee5550"/></g><g><path d="m15.77259 31.3448-2.08984 1.21448-3.88522-2.24314 2.08984-1.21447z" fill="#f17572"/></g></g></g></g><g><g><g enable-background="new"><g><path d="m20.68832 26.21403-.00587 2.07178-2.08984 1.21448.00587-2.07178z" fill="#cb4844"/></g><g><path d="m18.59848 27.42851-.00587 2.07178-3.88522-2.24314.00587-2.07177z" fill="#ee5550"/></g><g><path d="m20.68832 26.21403-2.08984 1.21448-3.88522-2.24313 2.08984-1.21448z" fill="#f17572"/></g></g></g><g><g enable-background="new"><g><path d="m18.23045 27.66553-.00587 2.07177-2.08984 1.21448.00588-2.07177z" fill="#cb4844"/></g><g><path d="m16.14062 28.88001-.00588 2.07177-3.88522-2.24313.00588-2.07177z" fill="#ee5550"/></g><g><path d="m18.23045 27.66553-2.08983 1.21448-3.88522-2.24313 2.08983-1.21448z" fill="#f17572"/></g></g></g><g><g enable-background="new"><g><path d="m15.77259 29.11703-.00587 2.07177-2.08984 1.21448.00587-2.07178z" fill="#cb4844"/></g><g><path d="m13.68275 30.3315-.00587 2.07178-3.88522-2.24314.00587-2.07177z" fill="#ee5550"/></g><g><path d="m15.77259 29.11703-2.08984 1.21447-3.88522-2.24313 2.08984-1.21448z" fill="#f17572"/></g></g></g></g><g><g><g enable-background="new"><g><path d="m20.68832 23.98626-.00587 2.07177-2.08984 1.21448.00587-2.07177z" fill="#cb4844"/></g><g><path d="m18.59848 25.20074-.00587 2.07177-3.88522-2.24313.00587-2.07178z" fill="#ee5550"/></g><g><path d="m20.68832 23.98626-2.08984 1.21448-3.88522-2.24314 2.08984-1.21448z" fill="#f17572"/></g></g></g><g><g enable-background="new"><g><path d="m18.23045 25.43775-.00587 2.07178-2.08984 1.21448.00588-2.07178z" fill="#cb4844"/></g><g><path d="m16.14062 26.65223-.00588 2.07178-3.88522-2.24314.00588-2.07177z" fill="#ee5550"/></g><g><path d="m18.23045 25.43775-2.08983 1.21448-3.88522-2.24313 2.08983-1.21448z" fill="#f17572"/></g></g></g><g><g enable-background="new"><g><path d="m15.77259 26.88925-.00587 2.07177-2.08984 1.21448.00587-2.07177z" fill="#cb4844"/></g><g><path d="m13.68275 28.10373-.00587 2.07177-3.88522-2.24313.00587-2.07178z" fill="#ee5550"/></g><g><path d="m15.77259 26.88925-2.08984 1.21448-3.88522-2.24314 2.08984-1.21448z" fill="#f17572"/></g></g></g></g></g><g><g><g><g enable-background="new"><g><path d="m33.38776 27.07599-.00587 2.07178-2.08984 1.21448.00587-2.07178z" fill="#cb4844"/></g><g><path d="m31.29792 28.29047-.00587 2.07178-3.88522-2.24314.00587-2.07177z" fill="#ee5550"/></g><g><path d="m33.38776 27.07599-2.08984 1.21448-3.88522-2.24313 2.08984-1.21448z" fill="#f17572"/></g></g></g><g><g enable-background="new"><g><path d="m30.92989 28.52749-.00587 2.07177-2.08984 1.21448.00588-2.07177z" fill="#cb4844"/></g><g><path d="m28.84006 29.74197-.00588 2.07177-3.88522-2.24313.00588-2.07178z" fill="#ee5550"/></g><g><path d="m30.92989 28.52749-2.08983 1.21448-3.88522-2.24314 2.08983-1.21447z" fill="#f17572"/></g></g></g><g><g enable-background="new"><g><path d="m28.47203 29.97898-.00588 2.07178-2.08983 1.21448.00587-2.07178z" fill="#cb4844"/></g><g><path d="m26.38219 31.19346-.00587 2.07178-3.88522-2.24314.00587-2.07177z" fill="#ee5550"/></g><g><path d="m28.47203 29.97898-2.08984 1.21448-3.88522-2.24313 2.08984-1.21448z" fill="#f17572"/></g></g></g></g><g><g><g enable-background="new"><g><path d="m33.38776 24.84822-.00587 2.07177-2.08984 1.21448.00587-2.07177z" fill="#cb4844"/></g><g><path d="m31.29792 26.0627-.00587 2.07177-3.88522-2.24313.00587-2.07178z" fill="#ee5550"/></g><g><path d="m33.38776 24.84822-2.08984 1.21448-3.88522-2.24314 2.08984-1.21448z" fill="#f17572"/></g></g></g><g><g enable-background="new"><g><path d="m30.92989 26.29971-.00587 2.07178-2.08984 1.21448.00588-2.07178z" fill="#cb4844"/></g><g><path d="m28.84006 27.51419-.00588 2.07178-3.88522-2.24314.00588-2.07177z" fill="#ee5550"/></g><g><path d="m30.92989 26.29971-2.08983 1.21448-3.88522-2.24313 2.08983-1.21448z" fill="#f17572"/></g></g></g><g><g enable-background="new"><g><path d="m28.47203 27.75121-.00588 2.07177-2.08983 1.21448.00587-2.07177z" fill="#cb4844"/></g><g><path d="m26.38219 28.96569-.00587 2.07177-3.88522-2.24313.00587-2.07177z" fill="#ee5550"/></g><g><path d="m28.47203 27.75121-2.08984 1.21448-3.88522-2.24313 2.08984-1.21448z" fill="#f17572"/></g></g></g></g><g><g><g enable-background="new"><g><path d="m33.38776 22.62044-.00587 2.07178-2.08984 1.21448.00587-2.07178z" fill="#cb4844"/></g><g><path d="m31.29792 23.83492-.00587 2.07178-3.88522-2.24314.00587-2.07177z" fill="#ee5550"/></g><g><path d="m33.38776 22.62044-2.08984 1.21448-3.88522-2.24313 2.08984-1.21448z" fill="#f17572"/></g></g></g><g><g enable-background="new"><g><path d="m30.92989 24.07194-.00587 2.07177-2.08984 1.21448.00588-2.07177z" fill="#cb4844"/></g><g><path d="m28.84006 25.28642-.00588 2.07177-3.88522-2.24313.00588-2.07178z" fill="#ee5550"/></g><g><path d="m30.92989 24.07194-2.08983 1.21448-3.88522-2.24314 2.08983-1.21448z" fill="#f17572"/></g></g></g><g><g enable-background="new"><g><path d="m28.47203 25.52343-.00588 2.07178-2.08983 1.21448.00587-2.07178z" fill="#cb4844"/></g><g><path d="m26.38219 26.73791-.00587 2.07178-3.88522-2.24314.00587-2.07177z" fill="#ee5550"/></g><g><path d="m28.47203 25.52343-2.08984 1.21448-3.88522-2.24313 2.08984-1.21448z" fill="#f17572"/></g></g></g></g></g><g><g><g><g enable-background="new"><g><path d="m25.63047 31.59952-.00587 2.07178-2.08983 1.21448.00587-2.07178z" fill="#525ba8"/></g><g><path d="m23.54064 32.814-.00587 2.07178-3.88523-2.24314.00588-2.07177z" fill="#616ab1"/></g><g><path d="m25.63047 31.59952-2.08983 1.21448-3.88522-2.24313 2.08983-1.21448z" fill="#8189c3"/></g></g></g><g><g enable-background="new"><g><path d="m23.17261 33.05102-.00588 2.07177-2.08983 1.21448.00587-2.07177z" fill="#525ba8"/></g><g><path d="m21.08277 34.2655-.00587 2.07177-3.88522-2.24313.00587-2.07178z" fill="#616ab1"/></g><g><path d="m23.17261 33.05102-2.08984 1.21448-3.88522-2.24314 2.08984-1.21448z" fill="#8189c3"/></g></g></g><g><g enable-background="new"><g><path d="m20.71474 34.50251-.00587 2.07178-2.08984 1.21447.00588-2.07177z" fill="#525ba8"/></g><g><path d="m18.62491 35.71699-.00588 2.07177-3.88522-2.24313.00587-2.07177z" fill="#616ab1"/></g><g><path d="m20.71474 34.50251-2.08983 1.21448-3.88523-2.24313 2.08984-1.21448z" fill="#8189c3"/></g></g></g></g><g><g><g enable-background="new"><g><path d="m25.63047 29.37174-.00587 2.07178-2.08983 1.21448.00587-2.07177z" fill="#525ba8"/></g><g><path d="m23.54064 30.58623-.00587 2.07177-3.88523-2.24313.00588-2.07178z" fill="#616ab1"/></g><g><path d="m25.63047 29.37174-2.08983 1.21449-3.88522-2.24314 2.08983-1.21448z" fill="#8189c3"/></g></g></g><g><g enable-background="new"><g><path d="m23.17261 30.82324-.00588 2.07178-2.08983 1.21447.00587-2.07177z" fill="#525ba8"/></g><g><path d="m21.08277 32.03772-.00587 2.07177-3.88522-2.24313.00587-2.07177z" fill="#616ab1"/></g><g><path d="m23.17261 30.82324-2.08984 1.21448-3.88522-2.24313 2.08984-1.21448z" fill="#8189c3"/></g></g></g><g><g enable-background="new"><g><path d="m20.71474 32.27473-.00587 2.07178-2.08984 1.21448.00588-2.07177z" fill="#525ba8"/></g><g><path d="m18.62491 33.48922-.00588 2.07177-3.88522-2.24313.00587-2.07178z" fill="#616ab1"/></g><g><path d="m20.71474 32.27473-2.08983 1.21449-3.88523-2.24314 2.08984-1.21448z" fill="#8189c3"/></g></g></g></g><g><g><g enable-background="new"><g><path d="m25.63047 27.14397-.00587 2.07177-2.08983 1.21448.00587-2.07177z" fill="#525ba8"/></g><g><path d="m23.54064 28.35845-.00587 2.07177-3.88523-2.24313.00588-2.07178z" fill="#616ab1"/></g><g><path d="m25.63047 27.14397-2.08983 1.21448-3.88522-2.24314 2.08983-1.21447z" fill="#8189c3"/></g></g></g><g><g enable-background="new"><g><path d="m23.17261 28.59546-.00588 2.07178-2.08983 1.21448.00587-2.07178z" fill="#525ba8"/></g><g><path d="m21.08277 29.80994-.00587 2.07178-3.88522-2.24314.00587-2.07177z" fill="#616ab1"/></g><g><path d="m23.17261 28.59546-2.08984 1.21448-3.88522-2.24313 2.08984-1.21448z" fill="#8189c3"/></g></g></g><g><g enable-background="new"><g><path d="m20.71474 30.04696-.00587 2.07178-2.08984 1.21447.00588-2.07177z" fill="#525ba8"/></g><g><path d="m18.62491 31.26144-.00588 2.07177-3.88522-2.24313.00587-2.07177z" fill="#616ab1"/></g><g><path d="m20.71474 30.04696-2.08983 1.21448-3.88523-2.24313 2.08984-1.21448z" fill="#8189c3"/></g></g></g></g></g></g></g></svg>