<svg id="Layer_1" enable-background="new 0 0 52 52" height="512" viewBox="0 0 52 52" width="512" xmlns="http://www.w3.org/2000/svg"><g><g><g><g><g><g><g><g><g><g enable-background="new"><g><path d="m50 34.66838-17.96173 10.43822-30.02762-17.33646 17.96173-10.43821z" fill="#bc874d"/></g></g></g></g></g></g></g></g></g><g><g><g><g><g><g><g><g enable-background="new"><g><path d="m50 33.08803-.01065 1.80699-17.96173 10.43821.01065-1.80698z" fill="#525566"/></g><g><path d="m32.03827 43.52625-.01065 1.80698-30.02762-17.33645.01065-1.80699z" fill="#5b5e71"/></g><g><path d="m50 33.08803-17.96173 10.43822-30.02762-17.33646 17.96173-10.43821z" fill="#bc874d"/></g></g></g></g></g></g></g></g></g><g><g><g><g><g><g><g><g enable-background="new"><g><path d="m50 31.50768-.01065 1.80699-17.96173 10.43821.01065-1.80698z" fill="#7ccfe8"/></g><g><path d="m50 31.50768-.01065 1.80699-3.72936 2.16726.01065-1.80698z" fill="#a87648"/></g><g><path d="m32.03827 41.9459-.01065 1.80698-30.02762-17.33646.01065-1.80698z" fill="#7ccfe8"/></g><g><path d="m49.9996 31.51179-3.72959 2.1579v.01249l-14.23232 8.2575-30.02392-17.32582 14.23232-8.26999 3.72967-2.17039 7.47166 4.31588.0249.01241.06242.03746.58623.33681 5.15159 2.96872.57381.33674 5.1516 2.9812.58622.33681 5.1516 2.96872.22451.13719.1123.06235.237.13719z" fill="#84dbff"/></g><g opacity=".5"><g fill="#ecf0f1"><path d="m23.85502 20.29797c0-.01241 0-.01241 0-.02489.33681-.1123 1.06022-.46152 1.98326-.92303-1.18493.62367-1.98326 1.01035-1.98326.94792z"/><path d="m27.53474 18.53923c-.12478.06235-.26197.11222-.39916.13719.11222-.04987.22452-.11222.33674-.17465l-.0249-.01241c-1.12847.61559-2.80655.27064-2.80655.46152-1.27711.14113-2.41212.73508-2.60701 2.0332 0 2.31109-4.41092 1.25507-5.46343 2.30758-1.73782 1.0298-.23267 1.89664-1.77123 2.79407-.10011.03337-.6792.51245-2.20785.53636-.91738.05247-1.52607.1266-2.2951.56133 1.26672-.63343 2.44428-.29332 3.62978-.52387 3.88662-.66618.36609-3.41495 5.26389-3.55502.93598 0 1.80783-.123 2.61942-.57374 1.78315-1.05683.49182-2.26784 1.95836-2.75669-.07484.17465-.1123.3493-.13719.52387 0 .03746.07484.02497.22452-.02489 0-.19962.03738-.39916.12471-.59878 1.34103-.6066 2.65855-.05691 4.14124-.79825z"/></g><g enable-background="new"><g><path d="m33.84637 22.1815c-1.89754.90724-5.15125-.0561-5.25141 2.14549-.5086 3.3934-6.43777.90169-6.73577 3.80443-.06049.57589-.25418.98751-.98538 1.39703-.83104.83104-3.50662.23872-4.93957 1.01036 2.1733-1.08665 2.94709-.19712 4.45308-1.07271 1.67633-.83817.17505-1.80495 1.88352-2.8565 1.85812-1.10085 5.47592-.07061 5.47592-2.30758.27375-2.73496 3.97469-1.73598 5.52579-2.45726z" fill="#ecf0f1"/></g><g><path d="m39.58419 25.49951c-1.75408.83887-4.10381.07574-5.02681 1.40952-.54011.65571.17759 1.36863-1.3222 2.25772-1.94607 1.04217-2.92821.12024-4.85224 1.0852-1.09522.62228-.57882 1.22984-1.07271 1.97077-1.01418 1.6896-4.01349.72668-5.66306 1.64652.02497-.02489.04994-.03738.08732-.06236.27446-.16216.59871-.29935.97297-.38668.82756-.20069 4.3283.03118 4.3283-1.99574.0792-1.5825 1.88963-2.06012 3.51756-2.10804 4.92369-.07041.85666-3.81691 6.58601-3.81691.72349-.01249 1.3222-.08732 1.85863-.33681z" fill="#ecf0f1"/></g></g></g><g><path d="m49.9996 31.51179-3.72959 2.1579-5.9873-3.4552-.63616-.3742-5.08917-2.93126-.63617-.37427-5.08924-2.93126-.64865-.36171-5.07676-2.94382-.64857-.3617-6.2119-3.5924 3.72967-2.17039 7.47166 4.31588.0249.01241.06242.03746.58623.33681 5.15159 2.96872.57381.33674 5.1516 2.9812.58622.33681 5.1516 2.96872.22451.13719.1123.06235.237.13719z" fill="#bc874d"/></g></g></g></g></g></g></g></g></g></g><g><g><g><path d="m39.246 34.70729c-.09008.17757-.18787.34743-.28567.51214-1.09629 1.82202-2.64555 2.854-4.18964 3.08304-1.19153-.00772.30882-.00772-.82608-.01286-4.76354-.04376-6.96132-.30367-11.13036-2.72276l-15.06009-8.75504c-.1364-.08235-.25993-.18528-.36543-.30881-.73346-.92389-1.03455-2.14115-1.07829-3.53084-.00516-.19816-.00516-.39889-.00259-.60476l16.59646 9.26971c5.27824 3.06762 8.41018 2.98784 16.34169 3.07018z" fill="#354a59"/></g><path d="m39.246 34.70729c-.09008.17757-.18787.34743-.28567.51214-.8441-.00773-1.63416-.0103-2.38047-.01288-6.17125-.02058-9.26973-.03344-14.03585-2.80252l-16.23358-9.43187c-.00515-.19816-.00515-.39889-.00258-.60476l16.59646 9.26971c5.27824 3.06762 8.41018 2.98784 16.34169 3.07018z" fill="#f1c40f"/><path d="m18.0642 15.59008 16.49122 9.58365c5.2596 3.05654 4.5881 4.9272 4.69116 9.53378-7.93628-.08407-11.16269.32055-16.44371-2.74844l-16.49122-9.58365z" fill="#d4d6d6"/><g><path d="m7.87528 22.37765.54675.31775 9.64038-5.56517.00077-.63416z" fill="#416e84"/><path d="m38.44779 33.23148c-.01186-3.46473-.01646-4.89877-4.28604-7.37992l-16.09857-9.3555-.00076.63416 15.82378 9.19552c3.99709 2.32309 4.0013 3.47812 4.01278 6.90688l.00067.6808c.18313.00096.3631.00177.55159.00311-.00192-.23536-.00269-.46346-.00345-.68505z" fill="#c4c6c6"/><path d="m36.58549 33.90773c.42099.00134.86245.00325 1.31415.00569l-.00067-.6808c-.01148-3.42875-.01569-4.58379-4.01278-6.90688l-15.82378-9.19552-9.64038 5.56518 14.77452 8.58576c4.4663 2.59558 7.44804 2.60591 13.38894 2.62657z" fill="#fff"/></g><g><path d="m14.21771 18.69908.02465 6.54388 6.35901-3.75795-.02432-6.4575z" fill="#c4c6c6"/><g><path d="m10.29276 16.41815.02465 6.54388 3.92495 2.28093-.02465-6.54388z" fill="#d4d6d6"/><path d="m10.29276 16.41815 3.92495 2.28093 6.35934-3.67157-3.92495-2.28093z" fill="#ecf0f1"/><g><path d="m16.65178 13.04409v.43139l3.03923 1.76632.37237-.21498z" fill="#d4d6d6"/><path d="m10.80648 16.41887.37237.21639 5.47293-3.15978v-.43139z" fill="#c4c6c6"/><path d="m19.69101 15.2418-3.03923-1.76632-5.47293 3.15978 3.03923 1.76616z" fill="#525566"/></g><g><g><path d="m10.72837 19.95211-.16209-.09313v.90506l.16209-.08904z" fill="#c4c6c6"/><path d="m13.96884 22.72084-.00156-.18318-3.23891-1.86266-.16209.08904v.00002z" fill="#e4e8f4"/><path d="m13.96798 22.53819-3.23902-1.86202v-.72556l3.23902 1.86158z" fill="#3498db"/></g><g><path d="m10.72837 18.31395-.16209-.09313v.90506l.16209-.08904z" fill="#c4c6c6"/><path d="m13.96884 21.08268-.00156-.18318-3.23891-1.86266-.16209.08904v.00002z" fill="#e4e8f4"/><path d="m13.96798 20.90002-3.23902-1.86201v-.72556l3.23902 1.86157z" fill="#3498db"/></g></g><g><g><g><path d="m17.05445 20.3455.16209-.09313v.90507l-.16209-.08905z" fill="#d4d6d6"/><path d="m14.85592 22.51539.00156-.18318 2.19697-1.26382.16209.08905v.00002z" fill="#e4e8f4"/><path d="m14.85678 22.33274 2.19707-1.26318v-.72555l-2.19707 1.26273z" fill="#3498db"/></g><g><path d="m17.05445 18.70734.16209-.09313v.90506l-.16209-.08904z" fill="#d4d6d6"/><path d="m14.85592 20.87723.00156-.18318 2.19697-1.26382.16209.08904v.00002z" fill="#e4e8f4"/><path d="m14.85678 20.69457 2.19707-1.26317v-.72556l-2.19707 1.26273z" fill="#3498db"/></g></g><g><g><path d="m19.8014 18.76693.16209-.09313v.90506l-.16209-.08905z" fill="#d4d6d6"/><path d="m17.60287 20.93682.00156-.18319 2.19697-1.26382.16209.08905v.00002z" fill="#e4e8f4"/><path d="m17.60373 20.75416 2.19707-1.26317v-.72556l-2.19707 1.26273z" fill="#3498db"/></g><g><path d="m19.8014 17.12876.16209-.09313v.90506l-.16209-.08904z" fill="#d4d6d6"/><path d="m17.60287 19.29865.00156-.18318 2.19697-1.26382.16209.08904v.00002z" fill="#e4e8f4"/><path d="m17.60373 19.11599 2.19707-1.26317v-.72556l-2.19707 1.26273z" fill="#3498db"/></g></g></g><g enable-background="new"><g><path d="m18.23534 14.54766-.00085.30225-.59583.34626.00086-.30226z" fill="#d4d6d6"/></g><g><path d="m17.63952 14.89391-.00086.30226-.59973-.34626.00086-.30225z" fill="#c4c6c6"/></g><g><path d="m18.23534 14.54766-.59582.34625-.59973-.34625.59583-.34625z" fill="#fff"/></g></g><g enable-background="new"><g><path d="m19.14756 15.07433-.00086.30225-.59582.34625.00085-.30225z" fill="#d4d6d6"/></g><g><path d="m18.55173 15.42058-.00085.30225-.59973-.34625.00086-.30225z" fill="#c4c6c6"/></g><g><path d="m19.14756 15.07433-.59583.34625-.59972-.34625.59582-.34626z" fill="#fff"/></g></g></g></g></g><g><path d="m27.2908 22.07689-.01069 3.84731-.14342.08285-.15322.08908-.29128.16925-.15322.08908-.29217.17014-.15233.08819-.29218.17014-.15322.08908-.29217.17014-.15233.08819-.29218.16924-.15322.08908-.29218.17015-.15232.08818-.29218.17014-.15321.08908-.29218.17014-.15233.08819-.29218.17015-.15321.08908-.29129.16924-.15322.08908-.29218.16925-.15322.08908-.29128.16925-.15322.08908-.29218.17014-.15232.08819-.19865.1158.01069-3.84732.17638-.10244.15322-.08908.29217-.17014.15233-.08819.29217-.17014.15322-.08908.29218-.16925.15233-.08908.29218-.16925.15321-.08908.29218-.17014.15233-.08818.29218-.17015.15321-.08908.29218-.17014.15232-.08818.29219-.17015.15321-.08908.29129-.16924.15321-.08908.29218-.16925.15233-.08908.29218-.16926.15322-.08908.29217-.17013.15233-.08819.29218-.17014.15322-.08908z" fill="#2ebf69"/><path d="m17.66427 23.79223 6.27825-3.64852 3.34817 1.93307-6.27825 3.64852z" fill="#2ecc71"/><path d="m18.19743 23.79149 5.74551-3.33898 2.8146 1.625-5.74555 3.33898z" fill="#30b265"/><g><path d="m21.01244 25.7253-.01091 3.84729-3.34817-1.93306.01091-3.8473z" fill="#30b265"/></g><g fill="#32a560"><path d="m24.013 24.188-.034.02"/><path d="m24.457 23.93-.034.019"/><path d="m24.903 23.671-.034.019"/><path d="m25.347 23.412-.034.02"/><path d="m25.792 23.154-.034.02"/><path d="m26.237 22.896-.034.019"/><path d="m26.682 22.637-.035.02"/><path d="m23.979 24.208-.12.069"/><path d="m24.42314 23.94939-.02919.01686-.08908.05167"/><path d="m24.869 23.69-.12.07"/><path d="m25.313 23.432-.119.069"/><path d="m25.75756 23.1737-.0301.01756-.08818.05167"/><path d="m26.203 22.915-.119.07"/><path d="m26.64746 22.65685-.02921.01686-.08908.05167"/></g><g><path d="m27.06746 25.80244-.08497.04947.0001.03845.11916-.06937z" fill="#2ecc71"/><path d="m27.10195 25.82088.0098-3.434-.03426.01989-.00969 3.39548-.00034.00019.03429.01855z" fill="#30b265"/><path d="m27.07749 22.40677-.10381.06028.00881 3.38486.08531-.04966z" fill="#32a560"/></g><g><path d="m26.63939 26.05276-.08497.04946.0001.03845.11916-.06936z" fill="#2ecc71"/><path d="m26.67388 26.07119.0098-3.434-.03426.0199-.00969 3.39547-.00034.0002.03429.01855z" fill="#30b265"/><path d="m26.64942 22.65709-.10382.06027.00882 3.38486.08531-.04966z" fill="#32a560"/></g><g><path d="m26.21132 26.30307-.08498.04946.0001.03845.11916-.06936z" fill="#2ecc71"/><path d="m26.24581 26.3215.00979-3.434-.03426.0199-.00968 3.39547-.00034.0002.03428.01855z" fill="#30b265"/><path d="m26.22134 22.9074-.10381.06027.00881 3.38486.08532-.04966z" fill="#32a560"/></g><g><path d="m25.78325 26.55338-.08498.04946.0001.03845.11916-.06936z" fill="#2ecc71"/><path d="m25.81773 26.57181.0098-3.43399-.03426.01989-.00969 3.39547-.00033.0002.03428.01855z" fill="#30b265"/><path d="m25.79327 23.15771-.10381.06027.00881 3.38486.08531-.04966z" fill="#32a560"/></g><g><path d="m25.35517 26.80369-.08497.04947.0001.03845.11916-.06937z" fill="#2ecc71"/><path d="m25.38966 26.82212.0098-3.43399-.03426.01989-.00969 3.39547-.00034.0002.03429.01855z" fill="#30b265"/><path d="m25.3652 23.40802-.10381.06028.00881 3.38486.08531-.04967z" fill="#32a560"/></g><g><path d="m24.9271 27.054-.08497.04947.00009.03845.11917-.06937z" fill="#2ecc71"/><path d="m24.96159 27.07243.00979-3.43399-.03425.01989-.00969 3.39548-.00034.00019.03429.01855z" fill="#30b265"/><path d="m24.93713 23.65833-.10382.06028.00882 3.38486.08531-.04966z" fill="#32a560"/></g><g><path d="m24.49903 27.30431-.08498.04947.0001.03845.11916-.06937z" fill="#2ecc71"/><path d="m24.53351 27.32274.0098-3.43399-.03426.01989-.00969 3.39548-.00033.00019.03428.01855z" fill="#30b265"/><path d="m24.50905 23.90864-.10381.06028.00881 3.38486.08531-.04966z" fill="#32a560"/></g><g><path d="m24.07096 27.55462-.08498.04947.0001.03845.11916-.06936z" fill="#2ecc71"/><path d="m24.10544 27.57306.0098-3.434-.03426.0199-.00969 3.39547-.00033.00019.03428.01856z" fill="#30b265"/><path d="m24.08098 24.15896-.10381.06027.00881 3.38486.08531-.04966z" fill="#32a560"/></g><g><path d="m23.64288 27.80494-.08497.04946.0001.03845.11916-.06936z" fill="#2ecc71"/><path d="m23.67737 27.82337.0098-3.434-.03426.0199-.00969 3.39547-.00034.0002.03429.01855z" fill="#30b265"/><path d="m23.65291 24.40927-.10381.06027.00881 3.38486.08531-.04966z" fill="#32a560"/></g><g><path d="m23.21481 28.05525-.08497.04946.00009.03845.11916-.06936z" fill="#2ecc71"/><path d="m23.2493 28.07368.00979-3.43399-.03426.01989-.00968 3.39547-.00034.0002.03428.01855z" fill="#30b265"/><path d="m23.22483 24.65958-.10381.06027.00882 3.38486.08531-.04966z" fill="#32a560"/></g><g><path d="m22.78674 28.30556-.08498.04947.0001.03845.11916-.06937z" fill="#2ecc71"/><path d="m22.82122 28.32399.0098-3.43399-.03426.01989-.00969 3.39547-.00033.0002.03428.01855z" fill="#30b265"/><path d="m22.79676 24.90989-.10381.06028.00881 3.38486.08531-.04967z" fill="#32a560"/></g><g><path d="m22.35866 28.55587-.08497.04947.0001.03845.11916-.06937z" fill="#2ecc71"/><path d="m22.39315 28.5743.0098-3.43399-.03426.01989-.00969 3.39548-.00034.00019.03429.01855z" fill="#30b265"/><path d="m22.36869 25.1602-.10381.06028.00881 3.38486.08531-.04966z" fill="#32a560"/></g><g><path d="m21.93059 28.80618-.08497.04947.00009.03845.11917-.06936z" fill="#2ecc71"/><path d="m21.96508 28.82462.00979-3.434-.03425.01989-.00969 3.39548-.00034.00019.03429.01856z" fill="#30b265"/><path d="m21.94062 25.41051-.10382.06028.00882 3.38486.08531-.04966z" fill="#32a560"/></g><g><path d="m21.50252 29.0565-.08498.04946.0001.03845.11916-.06936z" fill="#2ecc71"/><path d="m21.537 29.07493.0098-3.434-.03426.0199-.00968 3.39547-.00034.0002.03428.01855z" fill="#30b265"/><path d="m21.51254 25.66083-.10381.06027.00881 3.38486.08532-.04966z" fill="#32a560"/></g><path d="m19.09929 25.32835-1.09962-.63168-.10596.0428 1.20536.69241z" fill="#2ecc71"/><path d="m17.99967 24.69667.00083-.3993-.10574-.06074-.00105.50284z" fill="#2ebf69"/><path d="m18.0005 24.29737-.00083.3993 1.09962.63168.00083-.3993z" fill="#32a560"/><g><path d="m19.09929 26.242-1.09962-.63167-.10596.04279 1.20536.69242z" fill="#2ecc71"/><path d="m17.99967 25.61033.00083-.3993-.10574-.06074-.00105.50283z" fill="#2ebf69"/><path d="m18.0005 25.21103-.00083.3993 1.09962.63167.00083-.39929z" fill="#32a560"/></g><g><path d="m19.09929 27.15566-1.09962-.63167-.10596.04279 1.20536.69242z" fill="#2ecc71"/><path d="m17.99967 26.52399.00083-.3993-.10574-.06075-.00105.50284z" fill="#2ebf69"/><path d="m18.0005 26.12469-.00083.3993 1.09962.63167.00083-.39929z" fill="#32a560"/></g><g><path d="m19.09929 28.06932-1.09962-.63168-.10596.0428 1.20536.69242z" fill="#2ecc71"/><path d="m17.99967 27.43764.00083-.3993-.10574-.06074-.00105.50284z" fill="#2ebf69"/><path d="m18.0005 27.03834-.00083.3993 1.09962.63168.00083-.3993z" fill="#32a560"/></g><g><path d="m20.6969 26.22707-1.09962-.63167-.10596.04279 1.20536.69242z" fill="#2ecc71"/><path d="m19.59728 25.5954.00083-.39931-.10574-.06074-.00105.50284z" fill="#2ebf69"/><path d="m19.59811 25.19609-.00083.39931 1.09962.63167.00083-.39929z" fill="#32a560"/></g><g><path d="m20.6969 27.14073-1.09962-.63168-.10596.0428 1.20536.69241z" fill="#2ecc71"/><path d="m19.59728 26.50905.00083-.3993-.10574-.06074-.00105.50284z" fill="#2ebf69"/><path d="m19.59811 26.10975-.00083.3993 1.09962.63168.00083-.3993z" fill="#32a560"/></g><g><path d="m20.6969 28.05439-1.09962-.63168-.10596.0428 1.20536.69241z" fill="#2ecc71"/><path d="m19.59728 27.42271.00083-.3993-.10574-.06074-.00105.50284z" fill="#2ebf69"/><path d="m19.59811 27.02341-.00083.3993 1.09962.63168.00083-.3993z" fill="#32a560"/></g><g><path d="m20.6969 28.96804-1.09962-.63167-.10596.04279 1.20536.69242z" fill="#2ecc71"/><path d="m19.59728 28.33637.00083-.3993-.10574-.06074-.00105.50283z" fill="#2ebf69"/><path d="m19.59811 27.93707-.00083.3993 1.09962.63167.00083-.39929z" fill="#32a560"/></g><g><g><path d="m19.87276 27.81808-.00048.16879-.27269-.15744.00048-.16879z" fill="#d4d6d6"/></g><g><g><path d="m19.87276 25.98094-.00048.16878-.27269-.15743.00048-.16879z" fill="#d4d6d6"/></g><g><path d="m20.57258 26.3491-.00047.16878-.27269-.15743.00047-.16879z" fill="#d4d6d6"/></g><g><path d="m20.57258 28.18624-.00047.16879-.27269-.15744.00047-.16879z" fill="#d4d6d6"/></g><g><g><g><path d="m20.52017 25.75191-.01301 3.08121c-.00003.01224-.00804.02444-.02415.0338-.03318.01928-.08614.01899-.11903 0-.0168-.0097-.0252-.02221-.02516-.03471l.013-3.08121c-.00003.0125.00836.02501.02516.03471.03289.01899.08585.01928.11903 0 .01612-.00936.02413-.02156.02416-.0338z" fill="#ecf0f1"/></g><g><path d="m20.49513 25.71705c.03289.01899.03357.04967.00089.06866-.03318.01928-.08614.01899-.11903 0-.0334-.01928-.03357-.04967-.00039-.06895.03268-.01899.08514-.01899.11853.00029z" fill="#d4d6d6"/></g></g><g><g><path d="m19.82035 25.36937-.013 3.08121c-.00004.01224-.00804.02444-.02415.0338-.03318.01928-.08614.01899-.11903 0-.0168-.0097-.0252-.02221-.02516-.03471l.013-3.08121c-.00003.01249.00836.02501.02516.03471.03289.01899.08585.01928.11903 0 .01611-.00936.02411-.02156.02415-.0338z" fill="#ecf0f1"/></g><g><path d="m19.79531 25.33451c.03289.01899.03357.04967.00089.06866-.03318.01928-.08614.01899-.11903 0-.0334-.01928-.03357-.04967-.00039-.06895.03268-.01899.08513-.01899.11853.00029z" fill="#d4d6d6"/></g></g></g></g></g><g><g><path d="m18.28317 26.94451-.00048.16878-.27269-.15743.00048-.16879z" fill="#d4d6d6"/></g><g><g><path d="m18.28317 25.10736-.00048.16879-.27269-.15744.00048-.16878z" fill="#d4d6d6"/></g><g><path d="m18.98299 25.47552-.00047.16879-.27269-.15744.00047-.16878z" fill="#d4d6d6"/></g><g><path d="m18.98299 27.31267-.00047.16878-.27269-.15744.00047-.16878z" fill="#d4d6d6"/></g><g><g><g><path d="m18.93058 24.87833-.013 3.08121c-.00003.01224-.00804.02444-.02415.0338-.03318.01928-.08614.01899-.11903 0-.01681-.0097-.0252-.02221-.02516-.03471l.013-3.08121c-.00003.01249.00836.02501.02516.03471.03289.01899.08585.01928.11903 0 .01611-.00936.02412-.02156.02415-.0338z" fill="#ecf0f1"/></g><g><path d="m18.90554 24.84348c.03289.01899.03357.04967.00089.06866-.03318.01928-.08614.01899-.11903 0-.0334-.01928-.03357-.04967-.00039-.06895.03268-.01899.08514-.01899.11853.00029z" fill="#d4d6d6"/></g></g><g><g><path d="m18.23076 24.49579-.013 3.08121c-.00004.01224-.00804.02444-.02415.0338-.03318.01928-.08614.01899-.11903 0-.0168-.0097-.0252-.02221-.02516-.03471l.013-3.08121c-.00003.01249.00836.02501.02516.03471.03289.01899.08585.01928.11903 0 .01611-.00935.02411-.02155.02415-.0338z" fill="#ecf0f1"/></g><g><path d="m18.20572 24.46094c.03289.01899.03357.04967.00089.06866-.03318.01928-.08614.01899-.11903 0-.0334-.01928-.03357-.04967-.00039-.06895.03268-.01899.08513-.01899.11853.00029z" fill="#d4d6d6"/></g></g></g></g></g></g><g><path d="m31.60915 24.59464-.01069 3.84732-.14341.08285-.15322.08908-.29129.16924-.15322.08908-.29217.17015-.15233.08818-.29218.17014-.15321.08908-.29218.17015-.15233.08818-.29218.16925-.15321.08908-.29218.17014-.15233.08819-.29218.17014-.15321.08908-.29218.17014-.15232.08819-.29219.17014-.15321.08908-.29129.16925-.15322.08908-.29218.16925-.15321.08908-.29129.16925-.15322.08908-.29217.17014-.15233.08819-.19864.1158.01068-3.84732.17638-.10244.15322-.08908.29217-.17014.15233-.08819.29218-.17014.15322-.08908.29217-.16925.15233-.08908.29218-.16925.15321-.08908.29219-.17014.15232-.08819.29218-.17014.15321-.08908.29219-.17014.15232-.08819.29218-.17014.15321-.08908.29129-.16925.15321-.08908.29219-.16925.15232-.08908.29218-.16925.15322-.08908.29217-.17014.15233-.08818.29218-.17015.15322-.08908z" fill="#c44"/><path d="m21.98262 26.30999 6.27825-3.64852 3.34817 1.93306-6.27825 3.64852z" fill="#e74c3c"/><path d="m22.51578 26.30925 5.74551-3.33898 2.8146 1.62499-5.74555 3.33899z" fill="#d8463f"/><g><path d="m25.33079 28.24305-.01091 3.8473-3.34816-1.93306.0109-3.8473z" fill="#d8463f"/></g><g fill="#c14242"><path d="m28.331 26.706-.034.02"/><path d="m28.776 26.447-.034.02"/><path d="m29.221 26.188-.034.02"/><path d="m29.665 25.93-.034.02"/><path d="m30.11 25.672-.034.019"/><path d="m30.555 25.413-.034.02"/><path d="m31 25.155-.034.02"/><path d="m28.297 26.726-.119.069"/><path d="m28.7415 26.46715-.02919.01686-.08908.05166"/><path d="m29.187 26.208-.119.069"/><path d="m29.631 25.95-.119.069"/><path d="m30.07591 25.69146-.0301.01756-.08818.05166"/><path d="m30.521 25.433-.119.069"/><path d="m30.96581 25.1746-.0292.01687-.08908.05167"/></g><g><path d="m31.38582 28.3202-.08498.04947.0001.03845.11916-.06937z" fill="#e74c3c"/><path d="m31.4203 28.33863.0098-3.43399-.03426.01989-.00969 3.39548-.00033.00019.03428.01855z" fill="#d8463f"/><path d="m31.39584 24.92453-.10381.06028.00881 3.38486.08531-.04966z" fill="#c14242"/></g><g><path d="m30.95774 28.57051-.08497.04947.0001.03845.11916-.06937z" fill="#e74c3c"/><path d="m30.99223 28.58894.0098-3.43399-.03426.01989-.00969 3.39548-.00034.00019.03429.01855z" fill="#d8463f"/><path d="m30.96777 25.17484-.10381.06028.00881 3.38486.08531-.04966z" fill="#c14242"/></g><g><path d="m30.52967 28.82082-.08497.04947.0001.03845.11916-.06937z" fill="#e74c3c"/><path d="m30.56416 28.83925.0098-3.43399-.03426.0199-.00969 3.39547-.00034.00019.03429.01855z" fill="#d8463f"/><path d="m30.5397 25.42516-.10382.06027.00882 3.38486.08531-.04966z" fill="#c14242"/></g><g><path d="m30.1016 29.07113-.08498.04947.0001.03845.11916-.06936z" fill="#e74c3c"/><path d="m30.13609 29.08957.00979-3.434-.03426.0199-.00968 3.39547-.00034.00019.03428.01856z" fill="#d8463f"/><path d="m30.11162 25.67547-.10381.06027.00881 3.38486.08532-.04966z" fill="#c14242"/></g><g><path d="m29.67352 29.32145-.08497.04946.0001.03845.11916-.06936z" fill="#e74c3c"/><path d="m29.70801 29.33988.0098-3.434-.03426.0199-.00969 3.39547-.00034.0002.03429.01855z" fill="#d8463f"/><path d="m29.68355 25.92578-.10381.06027.00881 3.38486.08531-.04966z" fill="#c14242"/></g><g><path d="m29.24545 29.57176-.08497.04946.0001.03845.11916-.06936z" fill="#e74c3c"/><path d="m29.27994 29.59019.0098-3.43399-.03426.01989-.00969 3.39547-.00034.0002.03429.01855z" fill="#d8463f"/><path d="m29.25548 26.17609-.10382.06027.00882 3.38486.08531-.04966z" fill="#c14242"/></g><g><path d="m28.81738 29.82207-.08497.04947.00009.03845.11917-.06937z" fill="#e74c3c"/><path d="m28.85187 29.8405.00979-3.43399-.03425.01989-.00969 3.39547-.00034.0002.03429.01855z" fill="#d8463f"/><path d="m28.82741 26.4264-.10382.06028.00882 3.38486.08531-.04967z" fill="#c14242"/></g><g><path d="m28.38931 30.07238-.08498.04947.0001.03845.11916-.06937z" fill="#e74c3c"/><path d="m28.42379 30.09081.0098-3.43399-.03426.01989-.00969 3.39548-.00033.00019.03428.01855z" fill="#d8463f"/><path d="m28.39933 26.67671-.10381.06028.00881 3.38486.08531-.04966z" fill="#c14242"/></g><g><path d="m27.96124 30.32269-.08498.04947.0001.03845.11916-.06936z" fill="#e74c3c"/><path d="m27.99572 30.34113.0098-3.434-.03426.01989-.00969 3.39548-.00033.00019.03428.01856z" fill="#d8463f"/><path d="m27.97126 26.92702-.10381.06028.00881 3.38486.08531-.04966z" fill="#c14242"/></g><g><path d="m27.53316 30.57301-.08497.04946.0001.03845.11916-.06936z" fill="#e74c3c"/><path d="m27.56765 30.59144.0098-3.434-.03426.0199-.00969 3.39547-.00034.0002.03429.01855z" fill="#d8463f"/><path d="m27.54319 27.17734-.10382.06027.00882 3.38486.08531-.04966z" fill="#c14242"/></g><g><path d="m27.10509 30.82332-.08498.04946.0001.03845.11916-.06936z" fill="#e74c3c"/><path d="m27.13958 30.84175.00979-3.434-.03426.0199-.00969 3.39547-.00033.0002.03428.01855z" fill="#d8463f"/><path d="m27.11511 27.42765-.10381.06027.00881 3.38486.08531-.04966z" fill="#c14242"/></g><g><path d="m26.67702 31.07363-.08498.04946.0001.03845.11916-.06936z" fill="#e74c3c"/><path d="m26.7115 31.09206.0098-3.43399-.03426.01989-.00969 3.39547-.00033.0002.03428.01855z" fill="#d8463f"/><path d="m26.68704 27.67796-.10381.06027.00881 3.38486.08531-.04966z" fill="#c14242"/></g><g><path d="m26.24894 31.32394-.08497.04947.0001.03845.11916-.06937z" fill="#e74c3c"/><path d="m26.28343 31.34237.0098-3.43399-.03426.01989-.00969 3.39548-.00034.00019.03429.01855z" fill="#d8463f"/><path d="m26.25897 27.92827-.10381.06028.00881 3.38486.08531-.04966z" fill="#c14242"/></g><g><path d="m25.82087 31.57425-.08497.04947.00009.03845.11917-.06937z" fill="#e74c3c"/><path d="m25.85536 31.59268.00979-3.43399-.03425.01989-.00969 3.39548-.00034.00019.03429.01855z" fill="#d8463f"/><path d="m25.8309 28.17858-.10382.06028.00882 3.38486.08531-.04966z" fill="#c14242"/></g><path d="m23.41764 27.8461-1.09962-.63167-.10596.04279 1.20536.69242z" fill="#e74c3c"/><path d="m22.31802 27.21443.00083-.3993-.10574-.06075-.00105.50284z" fill="#c44"/><path d="m22.31885 26.81513-.00083.3993 1.09962.63167.00083-.39929z" fill="#c14242"/><g><path d="m23.41764 28.75976-1.09962-.63167-.10596.04279 1.20536.69242z" fill="#e74c3c"/><path d="m22.31802 28.12809.00083-.39931-.10574-.06074-.00105.50284z" fill="#c44"/><path d="m22.31885 27.72878-.00083.39931 1.09962.63167.00083-.39929z" fill="#c14242"/></g><g><path d="m23.41764 29.67342-1.09962-.63168-.10596.0428 1.20536.69241z" fill="#e74c3c"/><path d="m22.31802 29.04174.00083-.3993-.10574-.06074-.00105.50284z" fill="#c44"/><path d="m22.31885 28.64244-.00083.3993 1.09962.63168.00083-.3993z" fill="#c14242"/></g><g><path d="m23.41764 30.58708-1.09962-.63168-.10596.0428 1.20536.69241z" fill="#e74c3c"/><path d="m22.31802 29.9554.00083-.3993-.10574-.06074-.00105.50284z" fill="#c44"/><path d="m22.31885 29.5561-.00083.3993 1.09962.63168.00083-.3993z" fill="#c14242"/></g><g><path d="m25.01525 28.74483-1.09962-.63168-.10596.0428 1.20536.69241z" fill="#e74c3c"/><path d="m23.91563 28.11315.00083-.3993-.10574-.06074-.00105.50284z" fill="#c44"/><path d="m23.91646 27.71385-.00083.3993 1.09962.63168.00083-.3993z" fill="#c14242"/></g><g><path d="m25.01525 29.65849-1.09962-.63168-.10596.04279 1.20536.69242z" fill="#e74c3c"/><path d="m23.91563 29.02681.00083-.3993-.10574-.06074-.00105.50283z" fill="#c44"/><path d="m23.91646 28.62751-.00083.3993 1.09962.63168.00083-.3993z" fill="#c14242"/></g><g><path d="m25.01525 30.57214-1.09962-.63167-.10596.04279 1.20536.69242z" fill="#e74c3c"/><path d="m23.91563 29.94047.00083-.3993-.10574-.06074-.00105.50283z" fill="#c44"/><path d="m23.91646 29.54117-.00083.3993 1.09962.63167.00083-.39929z" fill="#c14242"/></g><g><path d="m25.01525 31.4858-1.09962-.63167-.10596.04279 1.20536.69242z" fill="#e74c3c"/><path d="m23.91563 30.85413.00083-.3993-.10574-.06075-.00105.50284z" fill="#c44"/><path d="m23.91646 30.45483-.00083.3993 1.09962.63167.00083-.39929z" fill="#c14242"/></g><g><g><path d="m24.19111 30.33584-.00047.16879-.27269-.15744.00047-.16879z" fill="#d4d6d6"/></g><g><g><path d="m24.19111 28.4987-.00047.16878-.27269-.15744.00047-.16878z" fill="#d4d6d6"/></g><g><path d="m24.89094 28.86686-.00048.16878-.27269-.15744.00048-.16878z" fill="#d4d6d6"/></g><g><path d="m24.89094 30.704-.00048.16878-.27269-.15743.00048-.16879z" fill="#d4d6d6"/></g><g><g><g><path d="m24.83852 28.26966-.013 3.08121c-.00003.01224-.00804.02444-.02415.0338-.03318.01928-.08614.01899-.11903 0-.0168-.0097-.0252-.02221-.02516-.03471l.013-3.08121c-.00003.0125.00836.02501.02516.03471.03289.01899.08585.01928.11903 0 .01612-.00935.02412-.02156.02415-.0338z" fill="#ecf0f1"/></g><g><path d="m24.81349 28.23481c.03289.01899.03357.04967.00089.06866-.03318.01928-.08614.01899-.11903 0-.0334-.01928-.03357-.04967-.00039-.06895.03267-.01899.08513-.01899.11853.00029z" fill="#d4d6d6"/></g></g><g><g><path d="m24.1387 27.88713-.013 3.08121c-.00003.01224-.00804.02444-.02415.0338-.03318.01928-.08614.01899-.11903 0-.0168-.0097-.0252-.02221-.02516-.03471l.013-3.08121c-.00003.01249.00836.02501.02516.03471.03289.01899.08585.01928.11904 0 .0161-.00936.02411-.02156.02414-.0338z" fill="#ecf0f1"/></g><g><path d="m24.11366 27.85227c.03289.01899.03357.04967.00089.06866-.03318.01928-.08614.01899-.11904 0-.0334-.01928-.03357-.04967-.00039-.06895.03269-.01899.08515-.01899.11854.00029z" fill="#d4d6d6"/></g></g></g></g></g><g><g><path d="m22.60152 29.46227-.00047.16878-.27269-.15744.00047-.16878z" fill="#d4d6d6"/></g><g><g><path d="m22.60152 27.62512-.00047.16879-.27269-.15744.00047-.16879z" fill="#d4d6d6"/></g><g><path d="m23.30135 27.99328-.00048.16879-.27269-.15744.00048-.16879z" fill="#d4d6d6"/></g><g><path d="m23.30135 29.83042-.00048.16879-.27269-.15744.00048-.16878z" fill="#d4d6d6"/></g><g><g><g><path d="m23.24893 27.39609-.013 3.08121c-.00004.01224-.00804.02444-.02415.0338-.03318.01928-.08614.01899-.11903 0-.0168-.0097-.0252-.02221-.02516-.03471l.013-3.08121c-.00003.01249.00836.02501.02516.03471.03289.01899.08585.01928.11903 0 .01611-.00936.02412-.02156.02415-.0338z" fill="#ecf0f1"/></g><g><path d="m23.2239 27.36124c.03289.01899.03357.04967.00089.06866-.03318.01928-.08614.01899-.11903 0-.0334-.01928-.03357-.04967-.00039-.06895.03267-.01899.08513-.01899.11853.00029z" fill="#d4d6d6"/></g></g><g><g><path d="m22.54911 27.01355-.013 3.08121c-.00003.01224-.00804.02444-.02415.0338-.03318.01928-.08614.01899-.11903 0-.0168-.0097-.0252-.02221-.02516-.03471l.013-3.08121c-.00003.01249.00836.02501.02516.03471.03289.01899.08585.01928.11903 0 .01611-.00936.02412-.02156.02415-.0338z" fill="#ecf0f1"/></g><g><path d="m22.52407 26.9787c.03289.01899.03357.04967.00089.06866-.03318.01928-.08614.01899-.11903 0-.0334-.01928-.03357-.04967-.00039-.06895.03268-.01899.08513-.01899.11853.00029z" fill="#d4d6d6"/></g></g></g></g></g></g><g><path d="m16.12481 16.34651c0 .14154-.10111.29327-.29327.4045-.38432.22253-1.00122.22253-1.38554 0-.19216-.11123-.28321-.25284-.29333-.4045v-1.40578c0-.01012 0-.01012 0-.01012l-.01012-.6574v-3.2565l-.01006-.64727v-1.27432c0 .1416.09099.28321.28314.39444.38432.22253 1.01135.22253 1.39566 0 .19216-.11123.28321-.25284.28321-.40456v1.26418l.01006.71808v3.16551l.01012.70795v1.39566z" fill="#7d5193"/><g fill="#e0e2e2"><path d="m16.10457 11.06725c-.05055.06068-.13148.13148-.22247.18203-.41469.23265-1.08215.23265-1.48671 0-.12136-.0708-.21234-.15166-.25284-.23259l-.01006-.64727c.05055.08092.13148.15173.23259.2124.41462.23259 1.08215.23259 1.49677 0 .11123-.0708.19216-.15173.23265-.23265z"/><path d="m16.10457 12.28088v.71808c-.05055.07074-.12136.13142-.22247.19216-.41469.24271-1.08215.24271-1.48671 0-.12136-.06074-.21234-.1416-.25284-.22253v-.64728c.04049.08092.12142.1416.22253.20228.41462.24271 1.08215.24271 1.49677 0 .12136-.06068.20229-.15172.24272-.24271z"/><path d="m16.11469 14.94072c-.05055.0708-.13148.1416-.23259.20228-.41469.23259-1.08215.23259-1.48671 0-.11123-.06068-.19216-.13148-.24271-.20228 0-.01012 0-.01012 0-.01012l-.01012-.6574c.04049.0708.12142.1416.22253.20228.41462.23265 1.08215.23265 1.49677 0 .12136-.0708.20228-.15166.24271-.24271z"/></g><path d="m14.41998 9.50298c.38043.22436 1.00147.22436 1.38841 0 .38368-.2211.38694-.58202.00325-.80315-.38368-.2211-1.00475-.2211-1.38843 0-.38368.22113-.38694.58205-.00323.80315z" fill="#9b59b6"/><path d="m14.52149 8.7565c-.33045.19078-.33219.49976-.00389.69055.32754.19035.86096.19035 1.19141-.00044.32968-.19034.33142-.49932.00388-.68966-.3283-.19079-.86172-.19079-1.1914-.00045z" fill="#7d5193"/><path d="m15.70902 9.44662c-.33046.19078-.86388.19078-1.19142.00043-.07555-.0439-.13156-.09451-.17216-.14805.0413-.05448.09881-.10592.17605-.15051.32968-.19034.8631-.19032 1.1914.00046.0753.04376.1311.09423.17161.14763-.04121.05434-.09852.1056-.17548.15004z" fill="#26373f"/><path d="m12.3599 7.40835c0 .41003.33158.73803.7416.73803.11409 0 .22462-.02496.32087-.07131.09627.22819.31732.38507.58116.38507.11053 0 .21748-.02853.30662-.082-.00355.02853-.00712.05347-.00712.082 0 .27097.22105.48845.49202.48845s.48845-.21748.48845-.48845-.21748-.49202-.48845-.49202c-.06774 0-.12837.01428-.18898.03921.01782-.05704.02853-.11764.02853-.17827 0-.34583-.28166-.63106-.63108-.63106-.06417 0-.12835.01068-.18538.03208-.07844-.32444-.36724-.56332-.71664-.56332-.41002 0-.7416.33158-.7416.74159z" fill="#d4d6d6"/></g></g></g></svg>