<svg id="Layer_1" enable-background="new 0 0 50 50" height="512" viewBox="0 0 50 50" width="512" xmlns="http://www.w3.org/2000/svg"><g><g><g><g><path d="m22.40584 28.53353c-.00079.01757-.00129.0357-.00135.05407-.00026.09076.00893.18446.026.27909l-1.29824-.58827-.01158-.00668c-.07509-.04336-.13271-.13651-.13826-.21944-.01129-.0996.04668-.13936.12184-.10932z" fill="#ee5550"/></g><g><path d="m23.40725 28.02253c.45942.26525.84879.84901.96253 1.40208.02214.10767.03405.21411.03375.31712-.00002.00612-.00037.01241-.00048.01848-.01062.62341-.45888.86644-1.00229.5527-.47057-.27168-.86763-.87721-.97025-1.44622-.01708-.09464-.02627-.18834-.02601-.2791.00005-.01837.00056-.03648.00135-.05406.00555-.12234.02906-.2289.06733-.31865.03433-.08047.08054-.14723.1368-.19917.09125-.08369.20866-.12846.34326-.12976.08365-.00077.17393.01564.26879.04984.06013.02174.12198.05023.18522.08674z" fill="#485f69"/></g><g><path d="m21.40817 20.76417c.28887.16678.50764.56547.50676.87774-.00058.20566-.08193.31816-.20931.34454-.06957.03957-.16207.01286-.26029-.04385l-.04049-.00354c-.27734-.16012-.5135-.54901-.51254-.88757.00053-.18585.09929-.32184.23822-.33471.06953-.02624.16786-.01601.2603.03737z" fill="#fff"/></g><g><path d="m42.00322 36.21174c-.01806 4.85947-1.72835 8.27099-4.49737 9.88153l-3.1853 1.85533c2.75996-1.61098 4.47931-5.03135 4.48837-9.89082.02712-9.77284-6.84111-21.67231-15.34728-26.58612-4.28926-2.47966-8.1623-2.70589-10.96749-1.07679l3.1853-1.85533c2.8052-1.62866 6.68724-1.3936 10.96749 1.07679 8.51517 4.91382 15.38346 16.81329 15.35628 26.59541z" fill="#8189c3"/></g><g><path d="m23.46164 11.47167c-2.4885-1.43911-4.84124-2.11779-6.92258-2.11779-.18999 0-.37099.00928-.55198.01856-.14476.00884-.29858.01767-.45245.03579-.1267.01812-.24429.02739-.37099.05435-.10858.01812-.22623.03623-.33481.05435-.1267.02695-.24434.05435-.37104.08174-.14476.03579-.28052.0813-.41622.11753-.13576.04507-.26246.09014-.3891.13565-.26246.09058-.5158.19927-.76015.32564-.06335.02739-.11764.06363-.18099.09058-.07241.04507-.14476.0813-.21717.12681-2.76902 1.60171-4.47931 5.02207-4.49737 9.87226-.02719 9.78212 6.8501 21.69086 15.36533 26.60423 4.2802 2.47966 8.15324 2.69705 10.95844 1.07723.05429-.03623.10859-.06363.16288-.09986.11764-.0813.24434-.15377.36198-.23507.14476-.1087.29864-.21739.4434-.34376.3167-.26246.61533-.54303.89585-.85984.11765-.13565.22623-.27129.34387-.41622.16288-.21739.32575-.44362.47057-.67868.10859-.18116.21717-.36188.3167-.55187.09953-.16304.18099-.33492.2624-.5068.01812-.04507.04529-.09058.06335-.13565.08147-.17188.15388-.35304.22623-.54303.07241-.17188.13576-.35304.19005-.53376.06335-.18116.11764-.36232.17194-.55231.04523-.15376.09047-.31636.1267-.4794.06335-.22623.10858-.45246.15382-.68796.04523-.20811.08147-.42506.10859-.64245l.02718-.1626c.03617-.22623.06329-.46173.08141-.6968.00906-.17188.02717-.33492.03623-.5068.009-.17188.01806-.33492.02712-.5068.00906-.24434.01812-.49796.01812-.75114.02709-9.77285-6.84114-21.67232-15.34731-26.58613zm-.09952 34.21466c-7.92702-4.57889-14.35185-15.70954-14.32473-24.82181.02717-9.10344 6.48818-12.78626 14.41519-8.21664 7.92701 4.57889 14.3609 15.7091 14.33378 24.82181-.02716 9.10343-6.49723 12.79509-14.42424 8.21664z" fill="#616ab1"/></g><g><path d="m23.45259 12.64787c-7.92701-4.56961-14.38802-.88679-14.41519 8.21664-.02712 9.11228 6.39771 20.24292 14.32473 24.82182 7.92701 4.57845 14.39708.88679 14.42425-8.21665.02711-9.11271-6.40678-20.24292-14.33379-24.82181zm-.09047 31.85298c-7.35692-4.25325-13.32029-14.57796-13.29312-23.03895.02712-8.44287 6.02667-11.87251 13.38358-7.61971 7.35692 4.24442 13.3203 14.57841 13.29312 23.03011-.01806 8.45171-6.02667 11.87252-13.38358 7.62855z" fill="#525ba8"/></g><g><path d="m20.65645 25.66964c.04523-.09058.06335-.20811.06335-.32564 0-.64289-.44345-1.42099-.99543-1.7378-.33481-.19883-.60627-.1626-.78727.00928l-1.11302-1.34808c-.02717-.0274-.04523-.04551-.07241-.06363-.04523-.02695-.09047-.01812-.11764.01812-.03618.06318-.01812.16304.04523.25318l1.12208 1.34853c-.04523.09941-.07235.22623-.07235.37115 0 .61506.43434 1.39359.99538 1.70996.33481.19927.63345.18116.81444-.01768l1.93652 2.32546c.03618-.08174.08141-.14493.1357-.19927zm-.24435-.28986c-.02717.09986-.07241.17232-.1267.21739-.1357.10869-.33481.12681-.56104-.00884-.40722-.23551-.72392-.79666-.72392-1.23983 0-.09058.01812-.17188.04523-.24434.02717-.09942.06335-.17188.13576-.20811.14476-.09058.3167-.09986.54292.02695.39816.22623.71491.79666.71491 1.25795.00002.0813-.0181.14493-.02716.19883z" fill="#40545d"/></g><g><path d="m23.45259 13.84219c-7.35692-4.2528-13.35647-.82317-13.38359 7.61971-.02717 8.46099 5.9362 18.7857 13.29312 23.03895 7.35692 4.24397 13.36553.82317 13.38358-7.62854.02718-8.45171-5.9362-18.7857-13.29311-23.03012zm8.16229 19.18425-7.21215-3.2666c-.009.62433-.46146.86868-1.00444.55187-.47051-.2713-.86868-.87751-.96826-1.44794l-1.31207-.5881c-.07241-.04507-.1267-.14493-.13576-.22623-.00906-.09941.04523-.13565.11764-.10869l1.30307.58854c.00906-.11798.03618-.22623.07241-.31681l-1.93652-2.32546c-.18099.19883-.47963.21695-.81444.01768-.56104-.31637-.99538-1.09491-.99538-1.70996 0-.14493.02712-.27174.07235-.37115l-1.12208-1.34853c-.06335-.09014-.08141-.18999-.04523-.25318.02717-.03623.07241-.04507.11764-.01812.02717.01812.04523.03623.07241.06363l1.11302 1.34808c.18099-.17188.45246-.20811.78727-.00928.55198.31681.99543 1.09491.99543 1.7378 0 .11753-.01812.23507-.06335.32564l1.95458 2.34357c.09052-.0813.20811-.12637.34387-.12637l-1.41166-5.56554-.13576-.06318c-.43434-.24434-.79632-.85984-.79632-1.36664.00906-.33448.17193-.53376.42533-.53376l-.37099-1.44794c-.02717-.09942.009-.17188.08141-.1626.01812 0 .03618.00884.04523.01812.06335.02695.10859.09942.13576.18072l.37099 1.45678.10859.04551c.44345.25318.78727.8594.78727 1.35736 0 .33492-.15382.53376-.3891.55187l1.42071 5.57438c.05429.02695.11764.05435.18099.09058.46151.26246.85062.85056.9592 1.40243l7.22116 3.27588c.00906 0 .01812.00883.01812.00883.08147.04551.1267.13565.13576.21739.00906.09058-.05429.13565-.1267.09942z" fill="#fff"/></g><g><path d="m19.72676 23.92275c.39864.23016.71532.79868.71402 1.25682-.00023.0796-.01776.14921-.0295.20231-.0292.09606-.0699.16564-.12214.21557-.1392.11228-.336.12493-.56711-.0085-.40444-.2335-.72112-.79514-.71985-1.23996.00026-.09292.01784-.16936.047-.2456.02343-.09942.06413-.169.13369-.20857.13913-.09284.31859-.10215.54389.02793z" fill="#fff"/></g><g><path d="m21.80564 22.35753c.23528-.01812.3891-.21695.3891-.55187 0-.49796-.34381-1.10418-.78727-1.35736l-.10859-.04551-.37097-1.45679c-.02717-.0813-.07241-.15376-.13576-.18072-.00906-.00928-.02712-.01812-.04523-.01812-.07241-.00928-.10858.06318-.08141.1626l.37099 1.44794c-.2534 0-.41628.19927-.42533.53376 0 .5068.36198 1.1223.79632 1.36664l.13576.06318 1.41166 5.56554c.08147 0 .17193.01767.27146.04507zm-.36193-.41622h-.03623c-.28052-.1626-.51575-.55187-.51575-.88679 0-.19.09953-.32564.23523-.33492.07241-.02695.17193-.01812.26246.03623l.01806.00928c.28958.1626.50675.56115.50675.87751 0 .20811-.08141.31681-.20811.34376-.07241.03623-.16288.00927-.26241-.04507z" fill="#40545d"/></g><g><path d="m31.61011 32.71048c.07453.04303.12351.13337.13385.21835.00553.08978-.05246.13603-.12759.0995l-7.21333-3.26811c.00077-.1215-.01113-.22795-.03327-.33559l7.21857 3.27474c.00749.00323.01475.00706.02177.01111z" fill="#ee5550"/></g><g><g><path d="m17.40369 37.19844c.05734.03311.11509.0834.16698.14872.16148.19966.21859.46533.12564.59782-.06287.08961-.1784.09398-.29655.02576-.0566-.03268-.11378-.08192-.16607-.14639-.16148-.19966-.21279-.46883-.11984-.60132.06198-.08831.17516-.0908.28984-.02459z" fill="#40545d"/></g><g><path d="m13.04836 29.64503c.11817.06823.2333.20577.29546.36756.09192.23923.03349.43819-.12859.45104-.05209.00528-.10991-.01115-.16728-.04427-.11468-.06621-.22747-.19916-.28875-.35864-.09192-.23923-.03923-.44836.12283-.46122.05248-.00397.10975.01286.16633.04553z" fill="#40545d"/></g><g><path d="m23.37204 42.48528c.18488.10674.33461.36599.33399.58535-.0006.21214-.15131.2983-.33619.19156s-.34039-.36969-.33979-.58184c.00062-.21936.15711-.30181.34199-.19507z" fill="#40545d"/></g><g><path d="m17.49236 13.46521c.11815.06822.23328.20576.29544.36755.09192.23923.03349.43819-.12859.45104-.05402.00453-.11248-.01227-.16982-.04538-.11469-.06621-.22492-.19804-.28621-.35753-.09192-.23923-.03923-.448.12283-.46086.05248-.00433.10975.01251.16635.04518z" fill="#40545d"/></g><g><path d="m23.44975 15.07345c.18488.10674.33459.37284.33399.58535s-.15131.2983-.33619.19156-.34039-.36933-.33979-.58184.15711-.30181.34199-.19507z" fill="#40545d"/></g><g><path d="m33.76491 27.91383c.11817.06823.2333.20613.29546.36792.09192.23923.03349.43819-.12859.45104-.05401.00417-.11248-.01263-.16982-.04574-.11469-.06621-.22493-.19769-.28621-.35717-.0977-.24293-.03923-.44836.12283-.46122.05248-.00397.10976.0125.16633.04517z" fill="#40545d"/></g><g><path d="m29.41482 20.36705c.05822.03362.11724.08465.17105.15107.1557.19632.21281.46199.11986.59448-.06287.08961-.1784.09398-.29655.02576-.0566-.03268-.11378-.08192-.16607-.14639-.16148-.19966-.21279-.46883-.11984-.60132.06199-.08831.17517-.0908.29155-.0236z" fill="#40545d"/></g><g><path d="m35.33571 35.66777c.1849.10675.34039.36933.33979.58184-.0006.21215-.15709.30146-.34199.19471-.18488-.10674-.33459-.37284-.33399-.58498.0006-.21252.15131-.29831.33619-.19157z" fill="#40545d"/></g><g><path d="m29.3221 44.09401c-.05694-.03289-.11466-.04962-.16751-.0455-.16209.01283-.21475.22163-.12284.46087.06128.15947.1715.2913.2862.35752.05735.03311.11583.0499.16982.04537.16206-.01249.22055-.2183.12863-.45751-.06197-.157-.17653-.29276-.2943-.36075z" fill="#40545d"/></g><g><path d="m11.14407 22.08641c-.0006.21212.1491.47823.33397.58497.19067.11007.34139.01743.34199-.19469.0006-.21253-.1491-.47177-.33977-.58187-.18487-.1067-.33558-.02094-.33619.19159z" fill="#40545d"/></g><g><path d="m13.10602 15.95971c.05697.03289.11462.08241.16728.14745.16146.19964.21277.46882.11982.60131-.06198.08832-.17259.09229-.28727.02607-.05736-.03312-.11571-.08376-.16955-.1502-.16148-.19966-.21857-.47217-.1256-.60465.06264-.08469.17758-.08796.29532-.01998z" fill="#40545d"/></g><g><path d="m33.71723 41.6049c.05658.03267.11378.08192.16607.14639.16148.19966.2128.46883.11982.60131-.06197.08833-.17259.09229-.28727.02607-.05734-.03311-.11572-.08376-.16955-.1502-.16146-.19965-.21855-.47216-.12562-.59781.06286-.0896.1784-.09397.29655-.02576z" fill="#40545d"/></g></g></g></g><g><g><g enable-background="new"><g><path d="m24.74048 7.66094-.00561 1.97718c-.00061.21454-.14167.42877-.42346.59253-.56721.32963-1.48921.32961-2.06013 0-.2873-.16587-.43079-.38351-.43018-.60082l.0056-1.97718c-.0006.2173.1429.43494.4302.60081.57092.32962 1.49291.32963 2.06013 0 .28178-.16375.42284-.37798.42345-.59252z" fill="#b0b8bc"/></g><g><path d="m24.31034 7.06013c.57092.32962.5739.86371.00669 1.19333-.56721.32963-1.48921.32961-2.06013 0-.57092-.32962-.57395-.86367-.00674-1.1933s1.48926-.32965 2.06018-.00003z" fill="#cfd8dd"/></g></g></g><g><g enable-background="new"><g><path d="m24.73693 8.83514-.00162.80361c0 .01784-.00162.03719-.00486.05495-.01455.12617-.07761.25234-.19081.36383-.17464-.00963-.35736-.04043-.54655-.09372v-1.34864c.06145.02913.12127.05503.1811.07769.19568.07596.38324.12286.56274.14228z" fill="#b0b8bc"/></g></g></g><g><g enable-background="new"><g><path d="m23.74247 1.45188c-1.95062-1.12891-3.97596.02833-3.98268 2.27351-.00485 1.61534.84893 3.49756 2.06491 4.79597v-.36697l.00162-.50129c0-.20702.12936-.41238.39131-.57408-.72765-.97983-1.20305-2.20719-1.19981-3.28738.00407-1.73266.92595-1.927 2.15223-1.21915 1.49573.86345 2.70848 2.96556 2.70362 4.68441-.00162.50287-.10672.91849-.29268 1.23217-.13098.22155-.36382.35411-.62092.35901-.07277.00158-.14715-.00332-.22154-.01295h-.00161c-.06267-.00679-.12668-.01816-.19132-.03174v.27721l-.39537.18271-.15713.70049c.18919.0533.37191.08409.54655.09372.06468.0049.12774.00647.19081.0049.31047-.00805.59183-.08575.83761-.22802l.57081-.33145c.60961-.35577.9896-1.10924.99284-2.18137.00645-2.15383-1.51514-4.78793-3.38925-5.8697z" fill="#dde4e7"/></g></g></g><g><path d="m24.6334 8.82493c-.48095-.14348-1.02233.79425-.65483 1.13426h.00001c.481.14363 1.02249-.79435.65482-1.13426z" fill="#dde4e7"/></g></g><g><g><g enable-background="new"><g><path d="m31.5977 13.54503-1.11369 1.40626c-.13157.16622-.372.24636-.69087.20133-.64185-.09064-1.35775-.65403-1.59965-1.25883-.12173-.30435-.10016-.56102.03311-.72938l1.11369-1.40626c-.13326.16836-.15483.42504-.0331.72939.2419.6048.9578 1.16819 1.59965 1.25883.31886.04502.55929-.03512.69086-.20134z" fill="#40545d"/></g><g><path d="m31.63082 12.81567c.2419.6048-.08214 1.02133-.72399.93069s-1.35775-.65403-1.59965-1.25883.08208-1.02134.72392-.9307c.64185.09065 1.35782.65405 1.59972 1.25884z" fill="#dde4e7"/></g></g></g><g><g enable-background="new"><g><path d="m33.20183 11.97584-1.45646 1.84003c-.15804.19966-.44685.29593-.82987.24184-.77099-.10888-1.63094-.78563-1.92151-1.51211-.14622-.36559-.12031-.67391.03977-.87614l1.45645-1.84003c-.16007.20224-.18598.51056-.03976.87614.29057.72649 1.15051 1.40323 1.9215 1.51211.38303.05409.67184-.04218.82988-.24184z" fill="#ee5550"/></g><g><path d="m33.24161 11.09973c.29057.72649-.09867 1.22683-.86966 1.11795s-1.63094-.78563-1.9215-1.51211c-.29057-.72649.09859-1.22684.86958-1.11796s1.63102.78563 1.92158 1.51212z" fill="#f17572"/></g></g></g></g></g></svg>