<svg id="Layer_1" enable-background="new 0 0 50 50" height="512" viewBox="0 0 50 50" width="512" xmlns="http://www.w3.org/2000/svg"><g><g><g><path d="m31.2849 9.6616-8.83-5.1314.5549-.3204 8.83 5.1314z" fill="#d7d7d7"/></g><g><g><path d="m31.3079 17.8017-8.8299-5.1314-.0231-8.1401 8.83 5.1314z" fill="#b0afb0"/></g><g><path d="m31.8398 9.3412.0231 8.1401-.555.3204-.023-8.1401z" fill="#929393"/></g></g></g><g><g><g><path d="m41.211 22.4525 2.3972-1.3931-.0188 6.6453-2.3972 1.393z" fill="#27313d"/></g><g><path d="m6.4671 2.3931 2.3972-1.3931 34.7439 20.0594-2.3972 1.3931z" fill="#475160"/></g><g><path d="m41.211 22.4525-.0188 6.6452-34.744-20.0594.0189-6.6452z" fill="#39414d"/></g><g><g><g enable-background="new"><g><path d="m41.211 28.8442 2.3972-1.3931-.0753 20.1558-2.3972 1.3931z" fill="#b0afb0"/></g><g><path d="m41.211 28.8442-.0753 20.1558-34.7439-20.0594.0753-20.1559z" fill="#e8e8e8"/></g></g></g><g><g enable-background="new"><g><path d="m32.5955 30.7478-.0029 1.036-9.584-5.5333.0029-1.0361z" fill="#929393"/></g><g><path d="m28.7293 30.5483-.0029 1.0366-5.7236-3.3045.003-1.0366z" fill="#929393"/></g><g><path d="m25.002 34.6932-.003 1.0365-1.9962-1.1525.003-1.0365z" fill="#d7d7d7"/></g><g><path d="m27.4093 36.0561-.0029 1.0365-1.9962-1.1525.0029-1.0365z" fill="#d7d7d7"/></g><g><path d="m29.8167 37.419-.0029 1.0366-1.9962-1.1525.0029-1.0366z" fill="#d7d7d7"/></g><g><path d="m32.2241 38.782-.003 1.0365-1.9962-1.1525.003-1.0365z" fill="#d7d7d7"/></g></g><g><path d="m38.2541 30.6609-.0061 2.1409-15.2331-8.7949.0061-2.1409z" fill="#787677"/></g><g><path d="m36.1208 37.964c1.4905.8605 2.6864 2.9318 2.6816 4.6448-.0049 1.7125-1.2086 2.4071-2.6991 1.5466s-2.6939-2.9449-2.689-4.6574c.0048-1.7131 1.216-2.3945 2.7065-1.534z" fill="#fee44b"/></g><g><path d="m23.8072 14.4579c.6958.4017 1.2541 1.3686 1.2518 2.1682-.0023.7994-.5642 1.1237-1.26.722s-1.2575-1.3747-1.2553-2.1742c.0023-.7996.5678-1.1177 1.2635-.716z" fill="#27313d"/></g></g></g></g><g><g><path d="m20.666 27.0239c-.0139 1.4832-.4159 2.6063-1.123 3.3131-.1109.111-.2358.222-.3605.3053-1.0676.79-2.6343.7623-4.3812-.2498-1.941-1.1231-3.6601-3.2027-4.7277-5.4902-.1386-.3046-.2773-.61-.3882-.9288-.4713-1.2341-.7348-2.5095-.7348-3.7017.0139-3.7294 2.6481-5.1991 5.8785-3.3415 3.2442 1.8718 5.8369 6.3777 5.8369 10.0936z" fill="#fff"/></g><g><g><path d="m15.5203 24.6342-.001.8246-1.2103.1329c-.0798-.1009-1.2904-1.6315-1.2105-1.5305l.0014-.7284c.5445 1.055 1.5334 2.086 2.4204 1.3014z" fill="#f9c895"/></g><g><path d="m19.1825 30.6423c-1.0676.79-2.6343.7623-4.3812-.2498-1.941-1.1231-3.6601-3.2027-4.7277-5.4902-.1386-.3046-.2773-.61-.3882-.9288.0555-.1246.1248-.222.1941-.2633.4021-.2498 1.6915.4021 2.246.4854.2634.0413.929-.1252.9705-.1388.0794.1013 1.2856 1.64 1.2062 1.5388l1.2201-.1388c.0278.0555.6932.9843.9705 1.2477.5407.5551 1.8301 1.3864 2.2321 2.1081.2219.3878.3605 1.1365.4576 1.8297z" fill="#39414d"/></g><g><path d="m14.8083 18.4798c1.1361.9141 1.569 2.1188 1.513 3.881-.1522-.0871-.2623.0034-.2762.1726l-.0176.2176-.1676-.1554c.0593-.2738.0791-.5815.0536-.9259-.0397-.5047-.3322-.9725-.4571-1.0446-.0065-.0038-.0131-.0071-.0196-.0097-.2339-.1025-.2654.3567-1.3483-.0125l.0606-.0561-.9033-.4543.1586-.0017-.6656-.3626.1265.0123c-.0381-.094-.099-.1441-.1902-.1749-.101.3258-.1022.7483-.0469 1.2229l-.1339-.0729c.0175-.311.015-.5517-.2718-.7233l-.0417-.6142c-.2017-.1403-.3729-.3542-.5118-.6514.054.0538.1382.1231.1887.0655-.19-.279-.3456-.6487-.4672-1.0704.1165.1231.3639.3549.526.3037l-.0881-.2353c.0781.057.1856.1276.2585.0646-.0564-.0976-.0976-.1995-.0973-.3144.0025.0019.0501.0372.0878.059.3635.2098.6475-.7938 2.7309.8804z" fill="#704e2c"/></g><g><path d="m15.9134 21.6698c.0255.3445.0057.6521-.0536.9259l.1676.1554c.0205-.1251-.0136-.3552.1296-.4134.0844-.0364.1684.0183.2377.0786.5305.4822.132 1.4177-.3687 1.1286-.0059-.0034-.0118-.007-.0178-.0108-.247 1.7105-1.7732 1.9981-2.9083-.2015-.2723-.5277-.4728-1.1481-.538-1.8251-.0149-.0077-.0296-.0157-.0442-.0241-.3652-.2109-.6001-.6614-.6074-1.2917-.0059-.4819.6276-.2546.5839.5237l.1339.0729c-.0553-.4746-.0541-.897.0469-1.2229.0913.0309.1522.0809.1902.1749l-.1265-.0123.6656.3626-.1586.0017.9033.4543-.0606.0561c1.0829.3692 1.1144-.09 1.3483.0125.3032.3171.4466.672.4767 1.0546z" fill="#f8d5b4"/></g></g></g></g><g><g><path d="m27.9553 11.5839-8.83-5.1314.5549-.3204 8.83 5.1314z" fill="#d7d7d7"/></g><g><path d="m28.5148 11.2677.02 8.14-.56.32-.02-8.14z" fill="#929393"/></g><path d="m27.9784 19.7241-8.83-5.1315-.024-8.1401 8.83 5.1314z" fill="#bfbfbf"/></g><g><path d="m27.9562 11.5839-8.83-5.1314-.0009-.316 8.83 5.1314z" fill="#bfbfbf"/><g><path d="m27.9553 11.2679-8.83-5.1314 3.8845-2.2427 8.83 5.1314z" fill="#d7d7d7"/><path d="m31.8398 9.0252.0018.4854-.5549.3204-2.7747 1.602-.5549.2933-.0009-.1424-.0009-.316z" fill="#929393"/></g></g></g></svg>