<svg xmlns="http://www.w3.org/2000/svg" viewBox="0 0 77.74 105.39"><defs><style>.cls-1{fill:#e52525;}.cls-2{fill:#52362b;}.cls-3{fill:#f94646;}.cls-4{fill:#deb29e;}.cls-5{fill:#ffaa94;}.cls-6{fill:#ffc2b0;}.cls-7{fill:#fea351;}.cls-8{fill:#ea7e34;}.cls-9{fill:#ffab95;}</style></defs><g id="Layer_2" data-name="Layer 2"><g id="Layer_1-2" data-name="Layer 1"><path class="cls-1" d="M57.78,30.16A79.56,79.56,0,0,0,61.49,17l-.78-1.09s-3-.17-5.37,5.33-5.07,11-3.43,13.35C53.76,35.43,54.83,33.66,57.78,30.16Z"/><path class="cls-2" d="M55.05,87.61S54,88.8,52.5,90.22s-1.77,1.69-3,2.92c-.74.71-.13,1.37,1.26,1.32a25.09,25.09,0,0,0,5.56-1.21,26.6,26.6,0,0,0,4.16-2.17,2.73,2.73,0,0,0,1.24-1.56v-2.2Z"/><path class="cls-2" d="M69.39,94.55s-.26,2.25-.41,5.08.24,5.33,1.11,5.64,3.33.27,4.73-3.66a15.56,15.56,0,0,0,.56-7.73Z"/><path class="cls-3" d="M75.16,51a29.88,29.88,0,0,0-2.5-14.07C67.24,38,57.23,39.78,57.23,39.78s-3,14.35-4.18,22c-1.29,8.75.67,25.23.67,25.23s.17,1.9,3.42,1.89a7.49,7.49,0,0,0,4.56-2L62,68.68l3-11s.24,10.77,1.4,16.36c1.61,7.66,1.85,21.59,1.85,21.59s4.22,1.51,7.12.06,2.32-3.07,2.32-3.07,1-12.37-2.77-20.74C74.55,65.51,74.92,54.71,75.16,51Z"/><polygon class="cls-4" points="54.96 22.1 57.91 23.28 56.75 25.88 53.88 24.59 54.96 22.1"/><path class="cls-3" d="M57,41.86c5.49,3,12.77,3.55,17.77-.25,0-.07-.48-2.36-.49-2.43-1.31-5.4.67-14.49.48-15.95-.33-2.44-5.86-5.08-5.86-5.08s-3.93-3-8-1.44c0,0-4.35,3.51-4.87,8.47-.26,2.47.94,8.93,1,14.38C57,39.56,57,41.75,57,41.86Z"/><path class="cls-1" d="M60.09,45c.49-3.65,1.1-8,1.51-9.88.76-3.63,1.37-10.4,1.37-10.4L61.6,24.2S60.54,33,60,37c-.27,1.84-.42,4.92-.51,7.73Z"/><path class="cls-1" d="M57,41.11l-.24,2.78s6.35,3.77,11.19,2.66a22.23,22.23,0,0,0,7.18-2.73l-.36-2.21a16.11,16.11,0,0,1-9.84,2.33C59,43.6,57,41.11,57,41.11Z"/><path class="cls-5" d="M61.74,16.07l-.26,3.83s-.4,2.65.89,3.75c1.39-.44,6.06-4.42,6.06-4.42l-1-5.18Z"/><path class="cls-6" d="M68.09,6.36A5,5,0,0,0,59.83,7c-2.83,4.18-.16,11,2.32,10.61,1.38-.22,4.5-1.48,5.87-3.72C69.56,11.35,69.21,7.78,68.09,6.36Z"/><path class="cls-2" d="M59,8.79c.56-.74.86-1.82,2.76-1.17,4.18,1.43,4,4.91,4,4.91a2.23,2.23,0,0,0,.69-.1c.25-.95.66-1.18,1.13-.77s.45,2.2.45,2.2a6.44,6.44,0,0,0,2-4.6c0-1.8-1.33-5.35-4.62-5.76s-5.3,1-6,2.45A4.39,4.39,0,0,0,59,8.79Z"/><path class="cls-1" d="M68.57,39.47c-.27,2-1.67,3.66.88,3.86,1.54.13,4.71-1.58,5-3.1,1-4.7,2.9-9.58,2.4-13.08-.68-4.81-1.2-6-3.69-6.42-1.18.6-2.66,3.21-3.16,7.49C69.59,32.06,69.05,35.91,68.57,39.47Z"/><path class="cls-1" d="M56.39,36.24l2.24-4s4.92,2.45,6.64,3.4,4.39,2.94,4.39,2.94,2.61,4.23.71,4.69-4.92-.24-6.24-.71C61.09,41.46,56.39,36.24,56.39,36.24Z"/><path class="cls-6" d="M62.69,33a12.5,12.5,0,0,1,4,1.1,6.11,6.11,0,0,1,2.39,1.77,15.74,15.74,0,0,1-.33,2.44A31.15,31.15,0,0,1,63,36.24C61.61,35.31,62.69,33,62.69,33Z"/><path class="cls-1" d="M51.41,32.05a4.13,4.13,0,0,0,1.5,3.85c2.54,1.76,10.51,1.5,10.51,1.5a12.91,12.91,0,0,1,0-2.22c.2-1.26.41-2.33.41-2.33s-6.38-3.54-9.27-2.52S51.41,32.05,51.41,32.05Z"/><path class="cls-6" d="M56,28.36c-1.16-.52-2.08-1-3.52-.32s-1.69,1.92-.7,2.2a10.48,10.48,0,0,0,2.77.09l3,.22A2.93,2.93,0,0,0,56,28.36Z"/><path class="cls-7" d="M68.07,6.29c2.6,1,3.17,3.09,1.27,4.59s-5.55,1.89-8.15.86S58,8.65,59.92,7.15,65.47,5.26,68.07,6.29Z"/><path class="cls-7" d="M58.82,9.39S57.71,2.7,63.5,1.85c6.74-1,7,6.92,7,6.92Z"/><path class="cls-8" d="M64.37,2.25a4.07,4.07,0,0,0-1.78,2.36,2.4,2.4,0,0,0,1.15,3.16,7.53,7.53,0,0,1,2.09,2,2.77,2.77,0,0,0-.89-2.31c-1.07-.89-2.07-1.36-1.46-2.82.76-1.79,3.24-2.45,3.24-2.45S65.88,1.37,64.37,2.25Z"/><path class="cls-8" d="M63.5,1.85a5.59,5.59,0,0,0-2.32,1.7c-.32.5-.3,2.22-.6,2.64a17.13,17.13,0,0,1-1.85,1.67s-.46-.44.12-1.22,1.28-.85,1.35-2C60.24,3.83,59.84,2.08,63.5,1.85Z"/><path class="cls-8" d="M70.25,10a8.09,8.09,0,0,1-3,2.37c-2.5,1.22-3.4,1.31-5.37.5s-4.61-2-4.91-2.68,1.71-2.28,1.71-2.28-.37,1.1,2.46,2.28,4,1.68,5.53,1A30.81,30.81,0,0,1,70.25,10Z"/><path class="cls-1" d="M62.6,18.73a8.92,8.92,0,0,0,.22-1.33A1.93,1.93,0,0,1,61,17.3c-.24.4-.31,1.63-.34,3.83A11.18,11.18,0,0,0,62,26.4l.8-3.65L62.14,20A7.81,7.81,0,0,0,62.6,18.73Z"/><path class="cls-1" d="M67.61,15.05a6.13,6.13,0,0,1,1.33.56c.52.33,1,3,1,3S67.7,20.81,66,22.49s-4,3.91-4,3.91-.3-3.12.62-4.64,5.16-5.56,5.16-5.56Z"/><path class="cls-2" d="M66.68,13.86c-.36.08-1.93,3-4.38,2.92S59,14,59,14s-.43,2.43.66,3.86,3.31,1.62,5,0c.59-.57,1.52-1.38,2.05-2A4.74,4.74,0,0,0,66.68,13.86Z"/><path class="cls-1" d="M69.63,27.76s.08,5.26-3,4.87c-1.21-.15-2.09-.38-2.46-1.08-.89-1.69,0-4.86,0-4.86Z"/><path class="cls-4" d="M70,28.89l-.46,3.35a25.82,25.82,0,0,1,3.41.41,28.36,28.36,0,0,1,3.24.89,16.8,16.8,0,0,0,.66-3.39C75.18,29.24,75,29.05,70,28.89Z"/><path class="cls-1" d="M67.45,45.69a26.19,26.19,0,0,0,2.48,4.17c1.36,1.75,5.19,3.19,5.19,3.19s-2.58-2.34-3.83-3.68A15,15,0,0,1,69.05,45Z"/><path class="cls-1" d="M58.61,43.82c-1,2.46-2.77,4.64-2.71,4.34l1-4.9S58.45,43.39,58.61,43.82Z"/><path class="cls-4" d="M66.57,73.27a8.72,8.72,0,0,0,5.11.56,19.23,19.23,0,0,0,3.87-1.21l1.23,3.55s-1.07,1.64-4.45,2.16a10.9,10.9,0,0,1-5-.57Z"/><path class="cls-4" d="M53.4,70.55a7.34,7.34,0,0,0,3.28,1.71,17.44,17.44,0,0,0,6,0l-.06,4a20,20,0,0,1-5.37.45A10.18,10.18,0,0,1,53.48,75Z"/><path class="cls-6" d="M25.35,20.24s.7,1.47,1.75,4c.81,1.94,2.07,5.2,2.07,5.2a40.47,40.47,0,0,1,5.7-2,7.28,7.28,0,0,0,3.65-2.14c1.07-1,1.52-2.78,2.13-2.47s.74,1.16,0,1.89.55,1.33,2.07,2.38,2.14,1.11,3,1.9.46,2.42-2.58,1.75-3.75-1.51-4.21-1.29A62.6,62.6,0,0,1,32.6,33.1c-2.58,1.16-4.82,1.31-5.82.89s-4.71-8-4.71-8Z"/><path class="cls-2" d="M10.55,88.13l-5.76-.65a15,15,0,0,0,.55,7.43c1.34,3.77,3.71,3.81,4.54,3.51s1.21-2.7,1.06-5.42S10.55,88.13,10.55,88.13Z"/><path class="cls-2" d="M29.53,88c-1.4-1.37-2.45-2.51-2.45-2.51l-6.38-.27v2.11a2.63,2.63,0,0,0,1.19,1.5,26.61,26.61,0,0,0,4,2.08,24.1,24.1,0,0,0,5.34,1.16c1.33,0,1.91-.58,1.21-1.27C31.23,89.64,30.83,89.27,29.53,88Z"/><path class="cls-3" d="M27.21,56.49c-.84-7.14-2.75-17.42-2.75-17.42s-15-3.11-14.65-.5c0,0-3.09,3.88-2.6,11.62.23,3.55-.08,12.4-.38,18.5A60.06,60.06,0,0,0,2.56,86S2,87.56,4.79,89s6.84-.06,6.84-.06,0-12,3.22-18.76c1.76-3.71,2.23-16.58,2.23-16.58L19.7,67.34l1,7.45h0v10c-.59,0,1.39,2,3.78,2,3.13,0,3.29-1.81,3.29-1.81a179.49,179.49,0,0,0,.11-19.53C27.86,65,27.66,60.38,27.21,56.49Z"/><path class="cls-1" d="M13.48,42.71s-.33,3-.84,5.15a28.57,28.57,0,0,1-1.77,4.73s2.53-2.43,3-4.73,1-5.27,1-5.27Z"/><path class="cls-1" d="M23.21,41.07l2.05,2.52s-.69-3.24-.71-3.66S23.21,41.07,23.21,41.07Z"/><path class="cls-1" d="M29.45,27.81c-1.11-2.23-3.23-8.14-3.59-8.74A19.37,19.37,0,0,0,22,14.62a3,3,0,0,0-3.21-.12C21,16.6,23,22,23.36,25.24c.21.78.64,8.31,3.49,9.82,1,.55,1.27.18,3-.38,2.94-1,6.69-2.16,8.23-4.37-1.54-1.8-1.76-2.5-1.84-3.63C34.76,26.15,31.39,27,29.45,27.81Z"/><path class="cls-4" d="M26.87,21.54a17.3,17.3,0,0,1-2.34,1.83,7.34,7.34,0,0,1-1.63.78l.68,2.64a8.26,8.26,0,0,0,2.94-.93c1-.68,1.6-1.17,1.6-1.17Z"/><path class="cls-3" d="M7.19,36.23c-.15,1.33-.34,2.93-.52,4.64,6.52,2.65,12,1.92,17.79-1.8-.3-3.37.19-14.55.07-15.7-.49-4.73-4.64-8.08-4.64-8.08-3.88-1.53-7.63,1.37-7.63,1.37S7,19.18,6.68,21.51C6.49,22.9,7.78,31,7.19,36.23Z"/><path class="cls-9" d="M18.41,15.14l.25,3.65s1.23,2.26,0,3.31c-1.32-.41-6.09-4.8-6.09-4.8l1-5.66Z"/><path class="cls-1" d="M18.77,25.19a11.18,11.18,0,0,0,1.35-5.27C20.07,17,19.23,16,19.23,16L18,15.85a9.43,9.43,0,0,0,.25,1.67,7.31,7.31,0,0,0,.45,1.27L18,21.54Z"/><path class="cls-6" d="M13,5.41A4.8,4.8,0,0,1,20.91,6c2.69,4,.15,10.5-2.21,10.12a9.22,9.22,0,0,1-5.61-3.54C11.63,10.18,12,6.77,13,5.41Z"/><path class="cls-2" d="M18.43,6c-3.56,1.28-4.46,4.1-4.9,4.49s-.44,2.11-.44,2.11a6.17,6.17,0,0,1-1.89-4.4c0-1.71,1.5-5.42,4.64-5.81s6.72,1.89,5.34,4.06A3,3,0,0,0,18.43,6Z"/><path class="cls-1" d="M13.19,13.84a6.35,6.35,0,0,0-1.33.56c-.52.33-1,3-1,3s2.24,2.19,3.9,3.87,4,3.91,4,3.91.29-3.12-.62-4.64S13,15,13,15Z"/><path class="cls-1" d="M20.33,41.07l.92-.4c-.09-1.88-.22-3.65-.4-4.87-.59-4-1.64-12.81-1.64-12.81l-1.38.55s.61,6.77,1.38,10.4C19.51,35.39,19.93,38.2,20.33,41.07Z"/><path class="cls-1" d="M11.86,27.46s-.07,5.26,3,4.87c1.21-.15,2.09-.38,2.46-1.08.89-1.69,0-4.86,0-4.86Z"/><path class="cls-1" d="M8.7,42.63s5.62,1.79,10,.48,6.35-2,6.35-2l-.36-2a45.58,45.58,0,0,1-7.38,2.33,55.39,55.39,0,0,1-8.59-.07Z"/><path class="cls-6" d="M13.59,11.64s-1.51-1.26-.73-2.48,1.47.06,1.47.06Z"/><path class="cls-7" d="M13.39,4.52c-2.61,1-3.17,3.09-1.27,4.6S17.66,11,20.27,10s3.17-3.09,1.27-4.59S16,3.49,13.39,4.52Z"/><path class="cls-7" d="M22.64,7.62S23.74.94,18,.09C11.22-.91,11,7,11,7Z"/><path class="cls-8" d="M17.08.48a4.11,4.11,0,0,1,1.79,2.37A2.41,2.41,0,0,1,17.72,6a7.37,7.37,0,0,0-2.1,2,2.75,2.75,0,0,1,.89-2.3c1.08-.9,2.08-1.36,1.46-2.82C17.21,1.05,14.73.39,14.73.39S15.58-.4,17.08.48Z"/><path class="cls-8" d="M18,.09a5.59,5.59,0,0,1,2.32,1.69c.31.5.29,2.22.59,2.65a17.94,17.94,0,0,0,1.85,1.66s.47-.43-.11-1.22-1.29-.85-1.35-2C21.21,2.06,21.62.31,18,.09Z"/><path class="cls-8" d="M11.2,8.18a8.07,8.07,0,0,0,3,2.37c2.49,1.23,3.39,1.31,5.36.51s4.62-2,4.91-2.69-1.71-2.28-1.71-2.28.37,1.11-2.45,2.28-4.06,1.68-5.54,1A30.13,30.13,0,0,0,11.2,8.18Z"/><path class="cls-6" d="M10.64,42.71A20.84,20.84,0,0,0,15,44.63c1.74.4,2.33.68,2,1a3,3,0,0,1-2,.62s1,.79,2.16,1.89,2.07,3,.3,3.58a4,4,0,0,1-4-1.13c-.81-.8-2.16-3.18-3.15-4.35A6.35,6.35,0,0,0,8.5,44.63Z"/><path class="cls-1" d="M7.76,19.52c-2.45.44-3.33,3.6-5.24,8.29a38.64,38.64,0,0,0-2.5,9c-.2,1,1.47,4.71,3.87,6.43s6.37,4.33,6.37,4.33a5.94,5.94,0,0,1,3.22-4.5c-.65-.61-6.35-6.18-6.35-6.18S11,31.23,11,27.8C11,21.34,7.76,19.52,7.76,19.52Z"/><path class="cls-4" d="M2.52,27.81s2,1,4.14,2a12.15,12.15,0,0,1,3.26,2.06L8.5,34.67s-1.79-1-3.79-2.07-3.3-1.75-3.3-1.75Z"/><path class="cls-4" d="M13.81,72.81a9.46,9.46,0,0,1-5.08.36C5.64,72.4,5.54,71.8,5.54,71.8L4.41,75.72s1.06,1.63,4.44,2.16a6,6,0,0,0,3.82-.39Z"/><path class="cls-4" d="M27.7,70.05a6.32,6.32,0,0,1-3.12,1.79,10.67,10.67,0,0,1-4.88,0L19.76,76A15,15,0,0,0,24,76.2a10,10,0,0,0,3.7-1.71Z"/></g></g></svg>