<svg id="Layer_1" enable-background="new 0 0 50 50" height="512" viewBox="0 0 50 50" width="512" xmlns="http://www.w3.org/2000/svg"><g><g><g><g><path d="m36.58047 30.92256c.16913.13462.32726.26241.47241.38097l-5.32792 1.63313 5.32794-1.63313c-.14515-.11856-.30326-.24635-.47239-.38097z" fill="none"/><path d="m40.411 28.10621c-.02481-.01657-.04728-.03212-.07252-.04886.02524.01674.0477.03229.07252.04886z" fill="none"/><path d="m30.95817 33.1719-.72408.22192h-.00002l.72412-.22192c-.04215-.06398-.09592-.14299-.16101-.23448.06507.09148.11884.1705.16099.23448z" fill="none"/><path d="m46.56637 25.18873-2.21064.6731 2.21064-.6731-.20951-.25652h-.00002z" fill="none"/><rect fill="#cfd8dd" height="0" transform="matrix(-1 .018 -.018 -1 70.24 36.023)" width="8.066" x="30.924" y="18.331"/><rect fill="#cfd8dd" height="7.433" width="0" x="26.17" y="10.219"/><rect fill="#cfd8dd" height="0" transform="matrix(-.633 -.774 .774 -.633 55.926 74.796)" width="2.064" x="44.672" y="24.133"/><path d="m30.9608 17.90497c.10979-.00202 7.30022-.13409 7.19398-.13214h-.00002z" fill="#cfd8dd"/><rect fill="#cfd8dd" height="6.093" width="0" x="38.612" y="17.611"/><rect fill="#cfd8dd" height=".75" width="0" x="45.807" y="22.163"/><path d="m29.25131 13.58003h-.00004c.70078 1.28249 1.10535 3.21914.69016 5.67523h.00002c.3175-1.87837.22706-3.99649-.69014-5.67523z" fill="#cfd8dd"/><path d="m23.84533 15.186h-.00002c.00384.1412.00418.31955-.00258.52507h.00002c.00675-.20552.00643-.38388.00258-.52507z" fill="#cfd8dd"/><path d="m19.731 13.183h.504v.001h-.504z" fill="#cfd8dd" transform="matrix(.305 -.953 .953 .305 1.34 28.203)"/><path d="m44.68656 22.88293-5.56644 1.70641h.00002l5.56646-1.70641-2.04258-2.50124-.00005-.00009z" fill="#cfd8dd"/><rect fill="#cfd8dd" height="0" transform="matrix(.729 -.684 .684 .729 -5.611 29.927)" width=".265" x="34.877" y="22.054"/><rect fill="#cfd8dd" height="2.879" width="0" x="32.259" y="14.101"/><path d="m35.83482 26.15977c.56951.28675 1.10116.57154 1.59445.84932-.49329-.27778-1.02493-.56257-1.59445-.84932z" fill="#dde4e7"/><rect fill="#dde4e7" height="2.947" width="0" x="33.838" y="21.679"/><path d="m38.51059 27.64213-3.75275 1.14453 3.7528-1.14453c-.81145-.49385-.78017-.47489-.00005 0z" fill="#dde4e7"/><path d="m29.77437 20.10211c-.0552-.01332-.12352-.02964-.19779-.04715.07427.01751.14256.03383.19777.04715-.20007.83087-.4993 1.74016-.92908 2.72196.42976-.9818.72905-1.89109.9291-2.72196z" fill="#dde4e7"/><rect fill="#dde4e7" height="0" transform="matrix(-.283 .959 -.959 -.283 40.946 5.237)" width="2.606" x="17.213" y="17.917"/><path d="m32.23849 27.2621.69585-.21329z" fill="#dde4e7"/><path d="m29.88396 19.58789c.02234-.11369.0388-.22218.05749-.33262h-.00002c-.01869.11045-.03515.21893-.05747.33262z" fill="#dde4e7"/><path d="m23.19935 18.94093c-1.20362-.12856-2.43288-.20543-3.56359-.17477 1.13071-.03067 2.35998.04621 3.56359.17477z" fill="#dde4e7"/><path d="m25.41215 18.71978c1.80634.2777 2.77991.46793.90922.14726-.30855-.05279-.61085-.10139-.90922-.14726z" fill="#dde4e7"/><path d="m31.19585 24.16874c.22719.08217.45035.16495.6693.24814-.21895-.0832-.44211-.16597-.6693-.24814z" fill="#dde4e7"/><path d="m19.13377 18.78709c.13752-.00803.27761-.0135.41855-.01802-.14094.00452-.28102.00999-.41855.01802z" fill="#dde4e7"/><path d="m33.30407 24.99286c.37061.15615.72689.31229 1.06814.46733-.34124-.15504-.6975-.31118-1.06814-.46733z" fill="#dde4e7"/><rect fill="#dde4e7" height="2.679" width="0" x="21.322" y="14.034"/><path d="m32.07133 24.49572c.38016.14666.74767.29444 1.10199.4423-.35432-.14794-.72184-.29563-1.10199-.4423z" fill="#dde4e7"/><path d="m19.485 13.36h.005v2.747h-.005z" fill="#dde4e7"/><path d="m30.27821 23.84825c.22188.07483.44033.15034.65516.22653-.21484-.0762-.43328-.15171-.65516-.22653z" fill="#dde4e7"/><rect fill="#dde4e7" height="3.316" width="0" x="37.535" y="23.417"/><path d="m24.03983 19.04198c1.02415.1318 2.0054.29418 2.86692.454-.86152-.15982-1.84277-.3222-2.86692-.454z" fill="#dde4e7"/><path d="m27.47963 22.44994c-.24402-.06304-.48887-.1242-.73456-.18348.24569.05928.49052.12044.73456.18348z" fill="#dde4e7"/><path d="m30.57727 20.36597v.00009l2.36128.83258z" fill="#dde4e7"/><path d="m28.88589 19.89736c.13518.0299.25937.05783.37234.08362-.11297-.02579-.23715-.05372-.37234-.08362z" fill="#dde4e7"/><path d="m26.05647 22.10596c-1.12492-.25335-2.26518-.46818-3.41804-.64073.47767.08069 1.57127.2248 3.41804.64073z" fill="#dde4e7"/><path d="m29.95456 23.74053c-2.00521-.65944-4.28743-1.25361-6.82305-1.67737v.00009c2.53562.42376 4.81784 1.01785 6.82305 1.67728z" fill="#dde4e7"/><path d="m36.64857 25.90949 1.91998-.58853z" fill="#dde4e7"/><path d="m27.50462 19.61001c.21551.0422.42035.08345.61388.12352-.19354-.04006-.39837-.08132-.61388-.12352z" fill="#dde4e7"/><path d="m21.82029 21.30122c.55909-.66832.96575-1.37806 1.25816-2.06253-.29242.68447-.6991 1.39422-1.25816 2.06253z" fill="#dde4e7"/><path d="m19.70708 18.26415c.89978-.01862 1.89888.02229 2.99182.1207-1.09295-.0984-2.09208-.13932-2.99182-.1207z" fill="#dde4e7"/><path d="m23.37136 18.45079h.00002c.26822-.82348.43949-1.77108.47136-2.73973h-.00002c-.03185.96933-.20338 1.9169-.47136 2.73973z" fill="#dde4e7"/><path d="m40.33847 28.05735c-.04831-.03203-.10105-.06586-.15081-.09849.04976.03263.10253.06646.15081.09849z" fill="#dde4e7"/><path d="m31.56625 26.90471 3.56248-1.09174c-.93336-.44725-.89731-.43004-.00004 0z" fill="#dde4e7"/><path d="m39.12027 28.02062c.26595.16904.5133.33177.74355.48697h.00002c-.23024-.1552-.47762-.31793-.74357-.48697z" fill="#dde4e7"/><path d="m27.87926 19.15524c-.09439-.01871-.19083-.03758-.28918-.05663.09838.01905.1948.03793.28918.05663z" fill="#dde4e7"/><g fill="#cfd8dd"><path d="m26.84322 28.35384h.00004l3.90151-1.19732c-.6289-.31827-1.30166-.63244-2.01362-.9373.71197.30486 1.38471.61903 2.0136.9373z"/><path d="m27.41655 28.74147.46297-.14197z"/><path d="m11.80017 21.66759c1.12566-.10967 1.18139-.1151 0 0z"/><path d="m33.97277 29.02643-2.09919.63928 2.09921-.63928c-.83525-.5462-1.68115-1.04885-2.54805-1.51405.35624.19117.6983.38293 1.02612.57384.54639.31819 1.0535.6339 1.52191.94021z"/><rect height="0" transform="matrix(.014 -1 1 .014 -9.678 30.354)" width="1.706" x="9.706" y="20.086"/><path d="m10.6219 18.65264-.03968.0123-1.74024.53933-.00025.00009 1.74054-.53942z"/><path d="m27.13633 25.58242c.43837.16289.86354.33023 1.27454.50141-.41099-.17118-.83617-.33851-1.27454-.50141z"/><path d="m24.25033 24.64418c.41702.11634.82028.23934 1.21731.36517-.39704-.12583-.8003-.24883-1.21731-.36517z"/><path d="m18.08011 25.31711h.00002c.04497.0035.08948.00641.13483.01042-.04535-.00401-.08986-.00692-.13485-.01042z"/><path d="m30.4511 32.47787c-.30661-.38695-.73144-.87691-1.28771-1.42316h-.00002c.55629.54625.98112 1.03621 1.28773 1.42316z"/><path d="m18.86477 25.39672c-.19691-.02434-.39333-.04604-.58706-.06364.19373.0176.39015.0393.58706.06364z"/><path d="m23.46789 24.43456h-.00004l-1.33651 1.5653z"/><path d="m21.06347 26.29601c.1658.03519.32113.06936.46558.10216-.14447-.0328-.29978-.06696-.46558-.10216z"/><path d="m21.94568 25.95647c-.11931-.02742-.2566-.05826-.40474-.09055.14814.0323.28541.06313.40474.09055z"/><path d="m34.54607 29.41406c.80907.55573 1.4849 1.07124 2.0344 1.5085h.00004c-.54954-.43726-1.22538-.95276-2.03442-1.5085z"/><path d="m12.834 21.57747c.51328-.03895.99778-.06757 1.44826-.08798-.45048.02041-.93498.04903-1.44826.08798z"/><path d="m26.93964 29.19855c.50199.36081.94638.71274 1.33439 1.04399-.38802-.33126-.83237-.68318-1.33439-1.04399z"/><path d="m28.27403 30.24254c.15521.13248.3014.26172.43865.38686-.13725-.12514-.28344-.25438-.43865-.38686z"/><path d="m25.0885 28.00003c-.64397-.37431-1.35229-.74391-2.12772-1.09678.77541.35287 1.48375.72248 2.12772 1.09678.33997.19757.66221.3966.96724.59511l-1.529.46835 1.52902-.46835c-.30505-.1985-.62729-.39753-.96726-.59511z"/><path d="m19.29816 25.97091c.46237.07107.92122.15427 1.34326.23841-.42203-.08415-.88089-.16734-1.34326-.23841z"/><path d="m27.73461 30.92768.97807-.29828z"/><path d="m30.49191 32.53006c-.05453-.06976-.05428-.06952-.00002 0z"/><path d="m21.1623 25.78546c-.32829-.06799-.69738-.13949-1.08691-.20706.38953.06757.75865.13907 1.08691.20706z"/><rect height="1.88" width="0" x="17.88" y="19.128"/><path d="m14.49386 20.97902c-.90015.03588-1.94215.10327-3.09285.22235.10069-.00856 1.39199-.15456 3.09285-.22235z"/><path d="m16.18712 22.84338c-.60695-.00461-1.39327.00273-2.29484.04006.90155-.03733 1.68789-.04468 2.29484-.04006z"/><path d="m20.50532 23.79793c.15894.02793.31678.05655.47339.08593-.15661-.02938-.31444-.05799-.47339-.08593z"/><path d="m14.83244 21.4677c.29042-.00965.56409-.01606.819-.0199-.25492.00385-.52856.01025-.819.0199z"/><path d="m15.32159 20.95323c-.01181.00026-.02385.0006-.03571.00085.01188-.00026.0239-.0006.03571-.00085z"/><path d="m17.07232 22.86012h.00002l.39844-1.39626c-1.38815-.05146-1.44081-.05342-.00002 0z"/><path d="m17.78783 23.4121c.32754.03553.64927.07551.96835.11754-.31908-.04203-.64081-.08201-.96835-.11754z"/><path d="m19.91049 21.13252c-.47796-.0451-.95708-.08448-1.43747-.11506.27327.01993.62594.03848 1.43747.11506z"/><path d="m23.13151 22.06325v-.00009c-1.5126-.25275-3.11416-.44546-4.80195-.5542.84315.07727 2.25037.12777 4.80195.55429z"/><path d="m15.84647 23.34231c.44584-.00009.81473.00666 1.08512.01401l-.31588 1.10976h.00002l.3159-1.10976c-.27042-.00735-.63932-.0141-1.08516-.01401z"/><path d="m21.78518 21.34462h.00002c.01219-.01435.02306-.02904.03509-.04339-.01205.01434-.02294.02904-.03511.04339z"/><path d="m16.05352 20.94332c-.00226 0-.00474.00009-.007.00009.00226-.00001.00474-.00009.007-.00009z"/><path d="m19.86453 25.5427c-.27189-.0451-.55065-.0873-.83074-.12428.28009.03698.55885.07918.83074.12428z"/></g><rect fill="#dde4e7" height="6.742" width="0" x="24.51" y="28.54"/><path d="m22.07351 29.8151c-.11314-.07918-.26202-.17656-.44873-.28453-.36408-.21056-.87373-.46169-1.54192-.69821.66819.23652 1.1778.48766 1.5419.69821.18673.10797.33561.20535.44871.28453l-6.35562 1.94977h.00002z" fill="#dde4e7"/><rect fill="#dde4e7" height="0" transform="matrix(-.082 .997 -.997 -.082 39.365 22.295)" width="1.587" x="8.62" y="29.28"/><path d="m19.22931 28.56619c.13142.03579.2582.07252.38061.11011-.12241-.0375-.24919-.07432-.38061-.11011z" fill="#dde4e7"/><rect fill="#dde4e7" height=".359" width="0" x="10.544" y="20.939"/><path d="m6.94103 20.35854.28718-.08901z" fill="#dde4e7"/><rect fill="#dde4e7" height="1.753" width="0" x="23.689" y="28.444"/><path d="m18.50697 28.39006c.1163.02494.22867.05116.3392.07782-.11053-.02666-.2229-.05288-.3392-.07782z" fill="#dde4e7"/><path d="m9.52233 27.95861c-.06511.01093-.13206.0246-.19742.03588.06537-.01127.13231-.02494.19745-.03588l.34921-4.20868c-.13767.0199-.27704.0422-.41614.06406.1391-.02187.27845-.04416.41612-.06406z" fill="#dde4e7"/><path d="m27.33455 35.74403c-.29164-.13693-.58138-.26805-.86978-.39549.28842.12745.57816.25857.86978.39549z" fill="#dde4e7"/><path d="m25.37213 34.88429.00256-.00077c-3.78707-1.55027-7.24541-2.31332-10.09669-2.6602l-.31588 1.10993.0104.00607.31586-1.10993c2.84804.34645 6.29927 1.10677 10.08375 2.6549z" fill="#dde4e7"/><path d="m16.45708 28.08836c.71824.06338 1.40493.16289 2.04988.3017-.64495-.13881-1.33163-.23832-2.04988-.3017z" fill="#dde4e7"/><path d="m12.67281 32.00285c.55172.02537 1.13859.0662 1.75948.12847l-.21878.76689h.00002l.21878-.76689c-.62091-.06227-1.20778-.1031-1.7595-.12847z" fill="#dde4e7"/><rect fill="#dde4e7" height="3.192" width="0" x="16.179" y="24.405"/><path d="m17.25398 25.28055c.2616.00043.5403.01435.82615.03656h-.00002c-.28583-.02221-.56453-.03613-.82613-.03656z" fill="#dde4e7"/><path d="m13.08357 27.55304c-.48065.02682-.97284.06851-1.47322.12155.50041-.05305.99259-.09473 1.47324-.12147.4596-.02648.91136-.04083 1.3546-.04348-.44326.00265-.895.017-1.35462.0434z" fill="#dde4e7"/><path d="m14.57315 31.63521h.00002l1.02776-3.60263c-.40147-.01777-.81261-.02443-1.23289-.02007.42026-.00436.83138.00231 1.23285.02007z" fill="#dde4e7"/><path d="m22.77967 29.52519c-.02157-.01563-.04344-.03126-.0674-.04809.02396.01683.04583.03246.0674.04809z" fill="#dde4e7"/><path d="m11.80017 21.66759c-2.99271.29195-5.85097.85746-8.50181 1.64346l-.02996.02426c2.60596-.7909 5.06782-1.24507 7.07209-1.50363.66387-.08533 1.05022-.12155 1.45968-.16409z" fill="#dde4e7"/><path d="m7.70754 28.30823c-.30471.06509-.61205.13462-.92161.20774.30958-.07312.61689-.14265.92161-.20774z" fill="#dde4e7"/><path d="m16.59534 27.59378c.34567.03066.68252.07115 1.01328.11805-.33079-.04689-.66764-.08738-1.01328-.11805z" fill="#dde4e7"/><path d="m4.38931 24.56115c1.25239-.48253 2.72029-.87008 4.36986-1.15512 1.31336-.22619 2.74097-.38601 4.24891-.478.30537-.01837.59998-.03289.88419-.04459-.28421.0117-.57882.02622-.88424.04459-1.5079.092-2.93555.25181-4.24887.478-1.64957.28504-3.11749.67259-4.36991 1.15512l-.19042.07389-.01371 2.4353.00002.00008.01371-2.43538z" fill="#dde4e7"/><path d="m21.83664 28.95715c-.0548-.02793-.11175-.05612-.17043-.08456.05868.02844.11566.05663.17043.08456z" fill="#dde4e7"/><path d="m30.49189 32.53006c.12091.15427.22281.29145.30529.40736-.08247-.11591-.18438-.25309-.30527-.40736z" fill="#dde4e7"/><path d="m17.11319 25.77965c.5073-.01119 1.13494.04493 1.78017.13266-.64523-.08773-1.27287-.14384-1.78017-.13266z" fill="#dde4e7"/><path d="m28.86859 33.81237 1.36548-.41856h.00002z" fill="#dde4e7"/><path d="m10.15581 21.34615c-2.01115.25839-3.96263.63706-5.82357 1.12685.87025-.19824 2.61303-.71435 5.82357-1.12685.07308-.00957.07396-.00968 0 0z" fill="#dde4e7"/><path d="m40.18767 27.95886c.04976.03263.1025.06646.15081.09849l.6368-.604-1.06475.32451c.09609.06184.18589.12112.27714.181z" fill="#fecd82"/><path d="m18.14676 19.16643.73861-2.49953-3.29076 1.01632z" fill="#7eb442"/><path d="m15.59461 17.68322-4.15499 1.28325-.03861 2.2349c2.35503-.2437 4.59199-.30053 6.21303-.23225l.53271-1.80268z" fill="#6b993f"/><path d="m8.64099 19.83168 1.90559 1.10745.02465-1.70564z" fill="#6b993f"/><path d="m10.5414 21.29789.00519-.35876-1.90559-1.10746-1.41279.43786-.28718.08901-2.60878 2.11446c2.083-.54824 4.31947-.95679 6.20915-1.17511z" fill="#7eb442"/><path d="m18.08011 25.31711c.04499.0035.0895.00641.13486.01042.02089.00179.04177.00367.06274.00555 1.21079.10997 2.69355.39165 3.85363.66678l1.33651-1.5653c-.79378-.2039-1.62463-.38814-2.48913-.5507-.15662-.02938-.31445-.058-.47339-.08593-.56827-.09977-1.15117-.18963-1.74915-.2683-.31908-.04203-.64081-.082-.96835-.11754l-.42517 1.48808z" fill="#d9ae6d"/><path d="m17.36265 24.90018-.10868.38037c.2616.00043.5403.01435.82613.03656z" fill="#fecd82"/><path d="m46.35684 24.93221-4.21406 1.41369-.29446.27932 2.50741-.76339 2.21064-.6731z" fill="#fecd82"/><path d="m42.14278 26.3459 4.21406-1.41369-1.30557-1.59836-5.2974 1.62382z" fill="#d9ae6d"/><path d="m39.30597 27.39937 2.54235-.77415.29446-.27932-2.38891-1.38823-1.18532.36329-1.91998.58854c.91608.46919 1.80686.96841 2.6574 1.48987z" fill="#fecd82"/><path d="m16.61571 24.46608.31588-1.10976c-.27039-.00735-.63928-.0141-1.08512-.01401-.33819 0-.72196.00418-1.13932.01461z" fill="#fecd82"/><path d="m14.70715 23.35692c-.49966.01256-1.04807.03434-1.63163.07022-.69796.0422-1.49231.10711-2.33388.20808l-.34629 4.18929c.41067-.05826.8153-.10746 1.215-.14991.50038-.05305.99257-.09473 1.47322-.12155.45962-.02639.91136-.04074 1.35462-.04339.44326-.00256.87798.00649 1.30356.02682l.87396-3.07038z" fill="#fecd82"/><path d="m35.83482 26.15977c-.40351.12368-3.76704 1.15466-3.59633 1.10233.90976.49917 1.75486 1.01464 2.51934 1.52456l3.75275-1.14453c-.85351-.51957-1.75026-1.01637-2.67576-1.48236z" fill="#61c4f0"/><path d="m23.24516 15.36384.60015-.17784h.00002c.00385.1412.00416.31955-.00258.52507l.83591.48586c.03733-.47997.03477-.86649.02452-1.11625-.00231-.05646-.00502-.106-.00773-.14803l4.55582-1.35261h.00004c.91719 1.67871 1.00765 3.79682.69014 5.67523l.78579.45665c.05678-.28222.10662-.56248.14481-.83881.01913-.15837.03818-.31366.05213-.46895h.00002v-.00009l8.06475-.14649-.83416-.48475-7.19398.13214h-.00002c.02366-.49159.01591-.97113-.02573-1.44016l3.35282-.93918-.64256-.37345-2.77229.77731h-.00002c-.14056-.88574-.39191-1.8038-.84454-2.57863l.34242-.10156-.63819-.37089-7.12622 2.11429z" fill="#cfd8dd"/><path d="m39.12014 24.58934.63373.36833 5.29738-1.62382h.00002l1.30559 1.59836.74962-.25147-1.29122-1.58068.98601-.30247-.6362-.36969-.71688.21978h-.00002l-.98941-1.21141-1.81474-1.05458 2.04258 2.50124z" fill="#cfd8dd"/><path d="m20.05963 12.94366-.15286.48014.73774.42872.36933-1.15922c2.08243-.55702 3.92222-1.1166 5.51548-1.67652l-.49494-.28761-6.82457 2.28957.17105.09943c.37552-.09481.57636-.14794.67877-.17451z" fill="#cfd8dd"/><path d="m35.71208 21.59199h-.00002l-4.45101-1.56983 2.56 1.48766 1.28494.45315h-.00003.00005l-.19328.18134.62584.36371.47023-.44093 6.13063-1.97864-.62849-.36526z" fill="#cfd8dd"/><path d="m40.18767 27.95886c-.09125-.05988-.18105-.11916-.27714-.181l1.06475-.32451.87302-.82814-2.54232.77415c-.85047-.52137-1.74076-1.02037-2.65742-1.48988h.00002l1.91998-.58854 1.18532-.36329-.63372-.36833-3.16994.97181h-.00002c-.80742-.3966-1.63323-.76766-2.47736-1.116l2.06575-1.93713-.62584-.36371-2.14906 2.01589h-.00002c-1.02357-.40121-2.07064-.77065-3.13351-1.10088.40856-.91236.7261-1.81413.9471-2.69334l.00002.00008v-.00008l2.36128.83266.88251.31118-2.56001-1.48766-.55578-.19604c.00797-.03827.01431-.07602.02197-.11421l-.78579-.45665c-.01869.11045-.03515.21893-.05749.33262-1.36643-.32077-2.94981-.63413-4.47181-.86811-.40841-.0627-.80845-.11976-1.19787-.16947.25746-.78735.40342-1.56973.46438-2.35338l-.83591-.48586c-.03182.96687-.20261 1.9146-.47136 2.73973h-.00002c-.22841-.0246-.45174-.04604-.67246-.06594-1.09294-.0984-2.09204-.13932-2.99182-.1207-.14393.00299-.28583.00726-.42468.01324l.5627-1.90612 3.40006-1.00743-.6387-.37115-2.56789.76185v-.00008l-.00004.00008.60598-1.90202-.73774-.42872-.83309 2.61724-.00474.00145-.00051.00154-4.11019 1.26941.63635.36978 3.29079-1.01631h.00002l-.73862 2.49953.74616.43359.24082-.81293h.00002c.13752-.00803.27761-.0135.41855-.01802.02791-.00085.0554-.00222.08343-.0029 1.13071-.03066 2.35998.04621 3.56359.17477-.03799.09857-.07824.19792-.12091.29777-.29241.68446-.69907 1.39421-1.25816 2.06253l1.31122.76194c4.24812.70996 8.34078 1.99769 11.99722 3.74981l-3.56248 1.09174c-.39407-.20209-.2609-.1358-.73499-.36687l4.52392 2.62903 3.7651-1.14624c.26595.16904.51332.33177.74357.48697l.47463-.45024c-.0483-.03205-.10107-.06588-.15082-.09851zm-11.34242-5.13479c-1.67231-.49945-3.97535-1.02486-6.20682-1.35884.65277-.79158 1.10005-1.63304 1.40138-2.42325h.00002c1.70362.21925 3.57225.5631 5.21839.93901.11965.02733.226.05211.31836.07397.07427.01751.14259.03383.19779.04715-.20005.83087-.49934 1.74016-.9291 2.72196zm5.91259 5.96259c-.80081-.53412-1.64776-1.04629-2.51934-1.52456.20528-.06292 3.71933-1.14004 3.59631-1.10233h.00002c.95432.4805 1.84764.97834 2.67581 1.48236z" fill="#dde4e7"/><path d="m19.20982 13.01875-.20259.19211c.12467-.03084.25036-.06159.37364-.09268z" fill="#dde4e7"/><path d="m8.64097 19.83168 1.93025-.59819h.00002l-.02464 1.70565 1.25357.72845c1.851-.18034 3.90504-.26917 5.6706-.20372l-.39844 1.39626h-.00002c-.22228-.007-.52178-.01392-.8852-.01674-.60695-.00461-1.39329.00273-2.29484.04006l.81485.47348c.41738-.01042.80114-.01461 1.13934-.01461.44584-.00009.81475.00666 1.08516.01401l-.3159 1.10976.74693.4341.42513-1.48808h.00004c.32754.03553.64927.07551.96835.11754.59798.07867 1.18088.16853 1.74915.2683.15894.02793.31678.05655.47339.08593.8645.16255 1.69535.3468 2.48915.5507h-.00002.00002l-1.33653 1.5653c-1.16286-.27579-2.64475-.55698-3.85363-.66678-.02097-.00188-.04185-.00376-.06274-.00555-.04536-.00401-.08986-.00692-.13483-.01042l1.09174.63449c1.00676.14907 2.19517.39603 2.95123.58811.28769.11873.56663.24011.83768.36354.77543.35287 1.48375.72247 2.12772 1.09678.33997.19757.66221.3966.96726.59511l-1.52902.46835.63436.36858 1.4704-.45093c.10502.07278.20774.1453.30813.21739.50203.36081.94638.71274 1.33439 1.04399.15521.13248.3014.26172.43865.38686l-.97807.29828.63488.36892.79388-.24191h.00002c.4612.45289.92565.95998 1.32852 1.47536l.47053.27343.54139-.18126c-.31317-.42829-.82382-1.05894-1.57895-1.79969l4.62119-1.40847h.00002c.80905.55573 1.48488 1.07124 2.03442 1.5085l.75092-.25139c-.54023-.43239-1.20552-.9432-2.00047-1.49697l.02422-.00735c-1.60353-.72229-6.6116-5.07591-17.42662-6.2478l.401-1.4101c.49127.04502 2.16539.11363 4.80195.5542l-1.31122-.76194c-.01202.01435-.02289.02904-.03509.04339h-.00002c-1.11422-.1488-2.32725-.26428-3.31216-.32715h-.00002l.41994-1.41744-.74616-.43359-.53271 1.80268h-.00002c-1.95514-.08185-4.24896.02901-6.21303.23225h-.00004l.03861-2.2349 4.15501-1.28325-.63635-.36978-4.33634 1.3392-.03963.0123-1.74054.53942-.81227.27197zm22.78378 7.6807c.86543.46441 1.71134.9669 2.54805 1.51405l-2.09921.63928-2.39677.72999c-.63189-.57906-1.32126-1.13394-2.06031-1.65422h.00004c.15103-.04632 4.25663-1.30528 4.0082-1.2291zm-.67998-.35586-3.90151 1.19732h-.00004c-.37845-.24925-.76822-.49005-1.16866-.7217-.8808-.5097-1.81289-.97523-2.78965-1.39105l1.36542-1.59691c2.191.61126 4.4234 1.46423 6.49444 2.51234z" fill="#cfd8dd"/><path d="m30.79718 32.93742.16526-.13393-.47053-.27343c.12089.15427.22279.29145.30527.40736z" fill="#fff"/><path d="m11.80017 21.66759-1.25357-.72845-.00519.35876h-.00001c-1.8822.2174-4.12122.62556-6.20915 1.1751l-1.03389.83805c2.60541-.77253 5.04978-1.22235 7.04217-1.47937.50436-.06484.99031-.11831 1.45964-.16409z" fill="#dde4e7"/><path d="m26.99364 34.94989 2.12334-.65055 1.11709-.90553-1.36549.41855-2.63855.80875c-1.32203-.5565-2.65738-1.04202-4.00372-1.45229l6.14316-1.87222-.63488-.36892-6.44905 1.96677h-.00004c-.26262-.07397-.52518-.14487-.78765-.21269-1.17246-.30307-2.35306-.54736-3.52874-.73742l8.19198-2.51226-.63436-.36858-1.67611.51337h-.00002c-.02127-.01597-.04668-.03417-.07094-.05168-.02157-.01563-.04344-.03126-.0674-.04809-.1208-.08456-.27037-.18254-.45415-.29-.1252-.0732-.26548-.15042-.42148-.22995-.05478-.02793-.11175-.05612-.17043-.08456-.66552-.3222-1.5836-.67105-2.79484-.93645-.40706-.08901-.82916-.16281-1.26275-.22431-.33076-.0469-.66761-.08739-1.01328-.11805h-.00002l.51783-1.81413h.00004c.6323-.01395 1.43124.07874 2.05868.17195l-1.09174-.63449c-.28585-.02221-.56455-.03613-.82615-.03656h-.00002l.1087-.38037-.74693-.4341-.87398 3.07038c-.42558-.02033-.86032-.02938-1.30356-.02682-.44324.00265-.895.017-1.3546.04348-.48065.02674-.97284.06842-1.47324.12147-.39972.04245-.80433.09165-1.21502.14991l.34629-4.18929c.84159-.10097 1.6359-.16588 2.3339-.20808.58354-.03588 1.13195-.05766 1.63161-.07022l-.81485-.47348c-.28421.0117-.57882.02622-.88419.04459-1.50794.092-2.93555.25181-4.24891.478-1.64957.28504-3.11747.67259-4.36986 1.15512l-.19044.07389-.01371 2.43538.85799.49859.01335-2.6655c1.39177-.51525 2.92955-.85795 4.39893-1.08952.1391-.02187.27847-.04416.41614-.06406l-.34921 4.20868c-.06513.01093-.13208.0246-.19745.03588-.53054.0914-1.07036.19681-1.61737.31374-.30471.06509-.61203.13462-.92161.20774-.0268.00632-.05362.01264-.08046.01905l.65741.38208c.71923-.16477 1.42507-.30828 2.11487-.42761h.00002l-.12982 1.58119.82293.47818.18235-2.20108c1.41099-.21039 2.75401-.32237 4.01482-.33527.42028-.00436.83143.00231 1.23289.02007l-1.02776 3.60263h-.00002c-.80407-.07688-1.60825-.12668-2.40736-.1523-.13599-.00367-.26884-.0059-.40177-.0082l.90879.52815c.55172.02537 1.13859.0662 1.7595.12847l-.21878.76689.74859.43504.31588-1.10993c2.85128.34689 6.30962 1.10993 10.09669 2.6602l-.00256.00077h.00004l-5.06893 1.55292.63351.36816 5.21192-1.59614c.10494.04536.21069.09277.31609.13932.2884.12745.57814.25856.86978.39549l.50169-.4066c-.28041-.13172-.56106-.26232-.8426-.38755zm-11.27581-3.18501c-.10139-.01358-.20026-.02563-.29914-.03767l1.0384-3.63885c.71824.06338 1.40493.16289 2.04988.3017.1163.02494.22867.05116.3392.07782.1318.03169.25946.06458.38315.09832.13142.03579.2582.07261.38061.11011.16582.05091.32331.1031.47294.15606.66819.23652 1.17784.48766 1.54192.69821.1867.10797.33559.20535.44873.28453l-6.35564 1.94977h-.00002z" fill="#dde4e7"/><path d="m8.64097 19.83168-.61151-.35535-1.08843.88221.28718-.08901z" fill="#dde4e7"/><path d="m40.18767 27.95886c-.09125-.05988-.18105-.11916-.27714-.181l1.06475-.32451-1.06475.32451c.09609.06184.18589.12112.27714.181z" fill="#fff"/><rect fill="#fff" height="3.444" width="0" x="17.24" y="15.453"/><path d="m15.28588 20.95408c-.24968.00564-.51414.01384-.79203.02494.2779-.0111.54233-.0193.79203-.02494z" fill="#fff"/><path d="m16.04652 20.9434c-.22501.00111-.46716.00419-.72493.00982.25777-.00563.49991-.00871.72493-.00982z" fill="#fff"/><path d="m16.05352 20.94332c.74608-.00359 1.14747.01194 1.56052.0258-.33668-.01418-.86803-.02913-1.56052-.0258z" fill="#fff"/><path d="m11.40097 21.20137h.00004l.03861-2.2349 4.15499-1.28325h-.00002l-4.15501 1.28325z" fill="#fff"/><rect fill="#fff" height="0" transform="matrix(.955 -.296 .296 .955 -5.351 3.719)" width="2.021" x="8.596" y="19.533"/><path d="m10.5414 21.29789c-.11164.0129-.22098.02716-.3304.04134.29175-.0378.22998-.02899.3304-.04134z" fill="#fff"/><path d="m7.22821 20.26953 1.41278-.43785h-.00002z" fill="#fff"/><path d="m23.46787 24.43456c-.7938-.2039-1.62465-.38814-2.48915-.5507 1.30408.24521 2.04782.44526 2.48915.5507z" fill="#fff"/><path d="m21.54094 25.86593c-.11858-.02588-.2449-.0527-.37864-.08046.13375.02775.26006.05458.37864.08046z" fill="#fff"/><path d="m18.75618 23.52963c.59798.07867 1.18088.16853 1.74915.2683-.56828-.09976-1.15118-.18963-1.74915-.2683z" fill="#fff"/><rect fill="#fff" height="1.548" width="0" x="17.575" y="23.382"/><path d="m19.03379 25.41842c-.05642-.00743-.11263-.01469-.16902-.0217.0564.007.1126.01427.16902.0217z" fill="#fff"/><path d="m18.2777 25.33308c-.02097-.00188-.04185-.00376-.06274-.00555.02089.00179.04177.00368.06274.00555z" fill="#fff"/><path d="m20.07539 25.57841c-.06977-.01204-.13992-.02392-.21086-.03571.07092.01179.14109.02366.21086.03571z" fill="#fff"/><rect fill="#fff" height="0" transform="matrix(.275 -.962 .962 .275 -11.572 34.839)" width=".396" x="17.111" y="25.09"/><path d="m41.8483 26.62522 2.50743-.76339-2.50741.76339z" fill="#fff"/><rect fill="#fff" height="5.541" width="0" x="42.403" y="21.375"/><path d="m39.30597 27.39937c-.85-.52112-1.74073-1.02037-2.65741-1.48988h-.00002c.91657.46945 1.80685.96845 2.65743 1.48988l2.54232-.77415h.00002z" fill="#fff"/><path d="m39.75387 24.95767-1.18532.36329z" fill="#fff"/><path d="m15.84647 23.34231c-.33819 0-.72196.00418-1.13934.01461h.00002c.41736-.01043.80112-.01461 1.13932-.01461z" fill="#fff"/><path d="m14.43819 27.50965c.44324-.00256.87798.00649 1.30356.02682-.42559-.02033-.8603-.02939-1.30356-.02682z" fill="#fff"/><path d="m10.74164 23.63521c.84157-.10097 1.63592-.16588 2.33388-.20808.58356-.03588 1.13197-.05766 1.63163-.07022h-.00002c-.49966.01256-1.04807.03434-1.63161.07022-.698.0422-1.49231.10711-2.3339.20808l-.34629 4.18929c.41069-.05826.8153-.10746 1.21502-.14991-.3997.04245-.80433.09165-1.215.14991z" fill="#fff"/><path d="m35.8348 26.15977-2.90046.88904 2.90048-.88904z" fill="#fff"/><path d="m32.23849 27.2621c.87115.47802 1.71813.99017 2.51934 1.52456-.76454-.50996-1.60964-1.02543-2.51934-1.52456z" fill="#fff"/><path d="m29.73256 12.87832-3.20323-1.86145c-1.59326.55984-3.43303 1.11942-5.51548 1.67643l-.36931 1.15922 1.96188 1.14009z" fill="#d9ae6d"/><path d="m20.64454 13.85252-.60597 1.90194 2.56785-.76185z" fill="#fecd82"/><path d="m20.64451 13.85252h.00002l.36931-1.15922c2.08245-.55702 3.92222-1.1166 5.51548-1.67643v-.00009c-1.59326.55992-3.43305 1.1195-5.51548 1.67652z" fill="#fecd82"/><rect fill="#fecd82" height="0" transform="matrix(.304 -.953 .953 .304 .062 29.691)" width="1.996" x="19.343" y="14.803"/><path d="m30.37089 13.24929-.34242.10156c.45254.77487.70387 1.69221.84454 2.57863l2.77229-.77731z" fill="#d9ae6d"/><path d="m30.87299 15.92948h.00002c-.14063-.88617-.39191-1.80362-.84454-2.57863l.34242-.10156h-.00002l-.34242.10156c.45268.77494.704 1.69308.84454 2.57863z" fill="#d9ae6d"/><path d="m34.28789 15.52562-3.3528.93918c.0416.46904.04937.94858.02571 1.44016l7.19396-.13214z" fill="#d9ae6d"/><path d="m30.96078 17.90497h.00002c.02366-.49159.01589-.97113-.02571-1.44016l3.3528-.93918h-.00002l-3.35282.93918c.04163.46903.04939.94857.02573 1.44016z" fill="#fecd82"/><path d="m23.84273 15.71107c.00677-.20552.00643-.38387.00258-.52507l-.60015.17784z" fill="#fecd82"/><path d="m23.84273 15.71107-.59757-.34723-3.40006 1.00743-.5627 1.90612c.13885-.00598.28077-.01025.42468-.01324.89974-.01862 1.89886.02229 2.99182.1207.22072.0199.44405.04134.67246.06594.26789-.82255.43951-1.77012.47137-2.73972z" fill="#fecd82"/><rect fill="#fecd82" height=".626" width="0" x="23.545" y="14.962"/><path d="m19.8451 16.37127 3.40006-1.00743-3.40006 1.00743-.5627 1.90612c.13885-.00598.28075-.01025.42468-.01324-.14391.00299-.28583.00726-.42468.01324z" fill="#fecd82"/><path d="m23.37136 18.45079c-.22841-.0246-.45174-.04604-.67246-.06594.22073.0199.44406.04134.67246.06594z" fill="#fecd82"/><path d="m20.05959 12.94366c-.2232.05851-.44969.11668-.6787.17451l.5253.30529z" fill="#d9ae6d"/><path d="m19.38089 13.11817c-.1233.03109-.249.06184-.37366.09276l-4.22025 4.00299.17045.099 4.11151-1.27044.83725-2.61903z" fill="#fecd82"/><path d="m10.6219 18.65264 4.33553-1.33971-.17046-.099-5.94499 1.99034 1.74024-.53933z" fill="#fecd82"/><path d="m20.05959 12.94366c-.2232.05851-.44969.11668-.67872.17451.10194-.02621.78066-.20072.67872-.17451z" fill="#fecd82"/><path d="m19.38089 13.11817c-.09341.0232-.249.06184-.37366.09268v.00008c.12466-.03091.25036-.06166.37366-.09276z" fill="#fecd82"/><path d="m14.863 16.677h4.302v.002h-4.302z" fill="#fecd82" transform="matrix(-.955 .295 -.295 -.955 38.191 27.593)"/><path d="m10.6219 18.65264 4.33634-1.3392-.00081-.00051z" fill="#fecd82"/><path d="m24.6787 16.19693 5.26273 3.05834c.41485-2.45407.01145-4.39122-.69016-5.67523l-4.55582 1.35261c.00271.04203.00542.09157.00773.14803.01024.24976.01285.63628-.02448 1.11625z" fill="#4bb5e7"/><path d="m24.6787 16.19693c-.061.78422-.20706 1.56653-.46442 2.35338.38943.04971.78946.10677 1.19787.16947 1.51743.23328 3.10113.54636 4.47181.86811.02232-.11369.03878-.22218.05747-.33262z" fill="#61c4f0"/><path d="m29.25126 13.58003-4.55582 1.35261z" fill="#fecd82"/><path d="m24.70317 15.08067c-.00231-.05646-.00502-.106-.00773-.14803.00272.04203.00543.09157.00773.14803z" fill="#fecd82"/><path d="m24.70317 15.08067c.01025.24977.01281.63629-.02452 1.11625h.00004c.03734-.47996.03473-.86648.02448-1.11625z" fill="#fecd82"/><path d="m24.6787 16.19693h-.00004c-.06088.78261-.20658 1.56498-.46438 2.35338.38943.04971.78946.10677 1.19787.16947-.40841-.0627-.80845-.11976-1.19787-.16947.25663-.78464.40323-1.56672.46442-2.35338z" fill="#fecd82"/><path d="m27.59008 19.09861c-.08474-.01631-.17082-.0328-.25831-.04929.08751.01649.17357.03298.25831.04929z" fill="#fecd82"/><path d="m29.88396 19.58789c-.42575-.09994-1.12702-.25856-2.0047-.43265.87768.17409 1.57897.33271 2.0047.43265z" fill="#fecd82"/><path d="m21.82029 21.30122c.55907-.66832.96575-1.37806 1.25816-2.06253.04267-.09985.08292-.1992.12091-.29777-1.20362-.12856-2.43288-.20543-3.56359-.17477-.02804.00068-.05552.00205-.08343.0029-.14094.00453-.28103.00999-.41855.01802l-.24084.81293z" fill="#fecd82"/><path d="m18.89293 19.60002-.41992 1.41744c.9719.06187 2.18925.1772 3.31216.32715.01217-.01435.02306-.02904.03511-.04339z" fill="#fecd82"/><rect fill="#fecd82" height=".848" width="0" x="19.013" y="18.77"/><path d="m19.55233 18.76906c.02791-.00085.0554-.00222.08343-.0029-.02804.00068-.05552.00205-.08343.0029z" fill="#fecd82"/><rect fill="#fecd82" height="0" transform="matrix(-.284 .959 -.959 -.284 43.462 8.164)" width="1.478" x="17.944" y="20.309"/><path d="m21.78518 21.34462c-.62172-.08303-1.24712-.15298-1.87469-.2121 1.02495.09654 1.65015.18455 1.87469.2121z" fill="#fecd82"/><path d="m30.72726 19.71192.53376.31024 4.45106 1.56983 5.79886-1.8688-2.522-1.46562-8.06475.14658c-.01397.15529-.03299.31058-.05213.46895-.0382.27634-.08804.5566-.1448.83882z" fill="#d9ae6d"/><path d="m30.70527 19.82612.55576.19604-.53376-.31024c-.0077.03818-.01402.07594-.022.1142z" fill="#fecd82"/><rect fill="#fecd82" height="0" transform="matrix(.943 .333 -.333 .943 8.827 -9.953)" width="4.72" x="31.127" y="20.807"/><path d="m30.87207 18.8731c.01913-.15837.03816-.31366.05213-.46895h-.00002c-.01394.15529-.03299.31058-.05213.46895-.03818.27633-.08802.55659-.14481.83881h.00002c.05676-.28221.1066-.56247.14481-.83881z" fill="#fecd82"/><path d="m30.70527 19.82612c.00799-.03827.01431-.07602.02199-.11421h-.00002c-.00767.03819-.01401.07595-.02197.11421l.55578.19604h-.00002z" fill="#fecd82"/><path d="m44.45883 21.43636.98936 1.21132.71688-.21978z" fill="#d9ae6d"/><rect fill="#fecd82" height="0" transform="matrix(.633 .775 -.775 .633 33.588 -26.718)" width="1.564" x="44.171" y="22.042"/><path d="m29.57658 20.05496c-.09236-.02187-.19871-.04664-.31836-.07397-1.64089-.3747-3.51002-.71915-5.21839-.93901-.30134.79021-.74863 1.63167-1.40141 2.42325 2.23762.3349 4.53865.86075 6.20684 1.35884.42978-.98181.72901-1.89109.92908-2.72196-.05519-.01332-.12349-.02964-.19776-.04715z" fill="#fecd82"/><path d="m29.25823 19.98099c.11965.02733.226.05211.31836.07397-.09237-.02187-.19871-.04664-.31836-.07397z" fill="#fecd82"/><path d="m26.74507 22.26646c-.22884-.0551-.45838-.10865-.6886-.1605.23024.05184.45977.10532.6886.1605z" fill="#fecd82"/><path d="m26.90675 19.49598c.20695.03835.406.07645.59787.11403-.19187-.03758-.39092-.07568-.59787-.11403z" fill="#fecd82"/><path d="m27.47963 22.44994c.40489.1046.96475.25442 1.36561.37414h.00002c-.40168-.11994-.95974-.26928-1.36563-.37414z" fill="#fecd82"/><path d="m24.03981 19.04198c-.30134.79021-.74861 1.63167-1.40138 2.42325.65277-.79158 1.10007-1.63304 1.40141-2.42325z" fill="#fecd82"/><path d="m28.1185 19.73353c.28242.05834.54004.11361.76738.16383-.22734-.05022-.48496-.10549-.76738-.16383z" fill="#fecd82"/><path d="m34.9127 22.14431.19326-.18134-1.28491-.45307z" fill="#6b993f"/><rect fill="#6b993f" height="1.363" width="0" x="34.464" y="21.055"/><path d="m30.57727 20.36606-.00002-.00008c-.221.87922-.53854 1.78098-.9471 2.69334 1.06287.33023 2.10993.69967 3.13351 1.10088-1.02357-.40121-2.07064-.77065-3.13349-1.10088.40853-.91236.72608-1.81413.9471-2.69326z" fill="#fecd82"/><path d="m33.82105 21.50982-.8825-.31118.8825.31126z" fill="#fecd82"/><path d="m47.10648 24.68074 1.86089-.62433-2.1661-1.25882-.98597.30247z" fill="#d9ae6d"/><rect fill="#fecd82" height="0" transform="matrix(-.633 -.774 .774 -.633 57.876 77.086)" width=".354" x="47.041" y="24.818"/><path d="m47.10648 24.68074-1.29118-1.58068.98597-.30247-.98601.30247z" fill="#fecd82"/><path d="m44.68656 22.88293-2.04259-2.50133-.50452-.29315-6.13065 1.97864-.47019.44093 3.58151 2.08132z" fill="#d9ae6d"/><path d="m35.53861 22.50802-2.06577 1.93713c.84411.34834 1.66994.7194 2.47736 1.116l3.16992-.97181z" fill="#fecd82"/><path d="m35.53857 22.50802h.00004l.47019-.44093 6.13065-1.97864h-.00002l-6.13063 1.97864z" fill="#fecd82"/><path d="m35.53861 22.50802h-.00004l-2.06575 1.93713c.84413.34834 1.66994.7194 2.47736 1.116h.00002c-.80742-.3966-1.63325-.76766-2.47736-1.116z" fill="#fecd82"/><path d="m31.56625 26.90471 3.56244-1.09174c-3.52743-1.69062-7.60597-3.01584-11.99718-3.74972 4.49069 2.58052 6.77107 3.9883 8.43474 4.84146z" fill="#61c4f0"/><path d="m30.83098 26.53766-7.69947-4.47442c-1.51258-.25284-3.11416-.44555-4.80195-.55428l-.40098 1.4101c4.68241.50739 9.01539 1.72341 12.9024 3.6186z" fill="#4bb5e7"/><path d="m33.17332 24.93802c.04374.01828.08741.03656.13076.05484-.04338-.01828-.08703-.03656-.13076-.05484z" fill="#4bb5e7"/><path d="m34.37222 25.46019c.02208.01008.04425.02007.06624.03015-.022-.01008-.04414-.02007-.06624-.03015z" fill="#4bb5e7"/><path d="m31.86515 24.41688c.06913.02622.13789.05253.20618.07884-.06829-.02631-.13706-.05262-.20618-.07884z" fill="#4bb5e7"/><path d="m29.95456 23.74053c.10868.0357.21658.07166.32365.10771-.10707-.03613-.21497-.072-.32365-.10771z" fill="#4bb5e7"/><path d="m30.83098 26.53766c.32152.15991.11232.04759.73526.36704-.08828-.04527-.17912-.092-.26736-.13727-.1548-.07832-.31165-.15357-.4679-.22977z" fill="#4bb5e7"/><path d="m30.93338 24.07478c.08807.03126.17558.06253.26247.09396-.08687-.03144-.17441-.0627-.26247-.09396z" fill="#4bb5e7"/><path d="m17.92858 22.91906.40098-1.4101-.401 1.4101c4.68254.50739 9.01563 1.7235 12.9027 3.61877-1.24335-.47061-5.41701-2.80762-12.90268-3.61877z" fill="#4bb5e7"/><path d="m24.25033 24.64418-1.36538 1.59691c.97677.41582 1.90882.88135 2.78966 1.39105.4004.23166.79017.47245 1.16862.7217l3.90153-1.19732c-2.07877-1.05201-4.3118-1.90342-6.49443-2.51234z" fill="#d9ae6d"/><path d="m25.46763 25.00935c.57688.18271 1.13338.37405 1.6687.57308-.53532-.19903-1.09182-.39037-1.6687-.57308z" fill="#fecd82"/><path d="m28.73115 26.21922c-.10596-.04536-.21246-.09055-.32028-.13539.10782.04485.21432.09003.32028.13539z" fill="#fecd82"/><path d="m22.88495 26.24109 1.36538-1.59691-1.36542 1.59691c.97676.41582 1.90886.88135 2.78965 1.39105.40044.23166.79021.47245 1.16866.7217-.37845-.24925-.76822-.49005-1.16862-.7217-.88084-.5097-1.81289-.97523-2.78965-1.39105z" fill="#fecd82"/><path d="m5.04319 27.56901 1.66227.966c.02684-.00641.05366-.01273.08046-.01905.30956-.07312.6169-.14265.92161-.20774.547-.11694 1.08683-.22235 1.61737-.31374.06537-.01127.13231-.02494.19742-.03588l.34921-4.20868c-.13767.0199-.27701.0422-.41612.06406-1.46936.23157-3.00713.57427-4.39891 1.08952z" fill="#fecd82"/><path d="m5.05652 24.90351c1.39177-.51525 2.92955-.85795 4.39891-1.08952-1.46938.23157-3.00715.57427-4.39893 1.08952l-.01335 2.6655h.00004z" fill="#fecd82"/><path d="m9.3249 27.99448c-.53054.0914-1.07036.19681-1.61737.31374.54701-.11693 1.08683-.22234 1.61737-.31374z" fill="#fecd82"/><path d="m6.70546 28.53501c.02684-.00641.05366-.01273.08046-.01905-.02679.00633-.05361.01265-.08046.01905z" fill="#fecd82"/><path d="m24.52674 29.0635 1.529-.46835c-.30503-.19851-.62728-.39754-.96724-.59511-.64397-.37431-1.35231-.74391-2.12772-1.09678-.27106-.12334-.54997-.24481-.83768-.36354-.75144-.19091-1.93817-.43803-2.9512-.58811z" fill="#d9ae6d"/><path d="m19.17189 25.9516c-.62778-.09324-1.4264-.1859-2.0587-.17195l-.51785 1.81413c.34565.03066.6825.07115 1.01328.11805.43359.0615.85568.1353 1.26277.22431 1.21122.2654 2.1293.61425 2.79482.93645.05868.02844.11564.05663.17043.08456.15602.07952.29632.15674.4215.22995.18378.10746.33335.20543.45413.29.02396.01683.04583.03246.0674.04809.02426.01751.04967.03571.07094.05168l1.67613-.51337z" fill="#fecd82"/><path d="m19.17187 25.9516h.00002c.17148.02541.16541.0245-.00002 0z" fill="#fecd82"/><path d="m20.64142 26.20931c.14585.02913.28699.05808.42205.0867-.13507-.02861-.27622-.05757-.42205-.0867z" fill="#fecd82"/><path d="m22.96078 26.90326c-.27106-.12343-.54999-.24481-.83768-.36354-.76845-.19523-.8069-.205 0 0 .28771.11873.56662.24019.83768.36354z" fill="#fecd82"/><rect fill="#fecd82" height="0" transform="matrix(.274 -.962 .962 .274 -13.434 35.569)" width="1.887" x="15.911" y="26.687"/><path d="m21.83664 28.95715c.156.07952.29628.15674.42148.22995.18378.10746.33335.20543.45415.29-.12078-.08456-.27035-.18254-.45413-.29-.12518-.0732-.26548-.15042-.4215-.22995z" fill="#fecd82"/><path d="m22.85061 29.57687c-.02127-.01597-.04668-.03417-.07094-.05168.02426.01751.04967.03571.07094.05168z" fill="#fecd82"/><path d="m18.89336 25.91231c.0927.01256.18536.02546.27853.03929-.10065-.01448-.11468-.0171-.27853-.03929z" fill="#fecd82"/><path d="m17.60862 27.71183c.43359.0615.85568.1353 1.26275.22431 1.21124.2654 2.12932.61425 2.79484.93645-.66552-.3222-1.5836-.67105-2.79482-.93645-.40709-.089-.82919-.16281-1.26277-.22431z" fill="#fecd82"/><path d="m16.18712 22.84338c.36339.00282.66294.00974.8852.01674l.39844-1.39626c-1.77611-.06585-3.82863.02428-5.67058.20372l2.0921 1.21585c.90157-.03732 1.68789-.04467 2.29484-.04005z" fill="#4bb5e7"/><path d="m4.38927 24.56115c1.25241-.48253 2.72034-.87008 4.36991-1.15512 1.31332-.22619 2.74097-.38601 4.24887-.478.30542-.01837.60003-.03289.88424-.04459l-2.0921-1.21585c-3.07179.29966-5.93242.87883-8.53177 1.66772l-2.30102 1.86512 3.21775 1.86991.01371-2.4353z" fill="#61c4f0"/><path d="m15.65143 21.4478c.27347-.00401.52616-.00521.75506-.00436-.2289-.00085-.48159.00035-.75506.00436z" fill="#4bb5e7"/><path d="m12.66666 21.59054c.0561-.00444.1119-.0088.16734-.01307-.05544.00418-.11122.00863-.16734.01307z" fill="#4bb5e7"/><path d="m17.07232 22.86012c-.22226-.007-.5218-.01392-.8852-.01674.36341.00282.66291.00974.8852.01674z" fill="#4bb5e7"/><path d="m14.28225 21.48949c.18935-.00854.37313-.01589.55018-.02178-.17707.00589-.36082.01324-.55018.02178z" fill="#4bb5e7"/><path d="m27.41655 28.74147c.739.5202 1.42842 1.07517 2.06028 1.65422l2.39675-.72999 2.09919-.63928c-.8349-.54597-1.68107-1.04882-2.54803-1.51405-.36274.11124-4.25381 1.30442-4.00819 1.2291z" fill="#d9ae6d"/><path d="m27.41655 28.74147h-.00004c.73905.52029 1.42842 1.07517 2.06031 1.65422l2.39677-.72999-2.39675.72999c-.63187-.57905-1.32129-1.13402-2.06029-1.65422z" fill="#fecd82"/><path d="m27.87952 28.5995 3.54523-1.08712z" fill="#fecd82"/><path d="m35.35518 29.16686 2.36478 1.37422 2.14387-2.03348c-.23025-.15521-.4776-.31793-.74355-.48697z" fill="#61c4f0"/><path d="m37.33145 30.67117.3885-.13009-2.36478-1.37422-.02419.00735c.79493.55377 1.46021 1.06457 2.00047 1.49696z" fill="#4bb5e7"/><path d="m37.33143 30.67117c.11892.09524.23388.18792.34048.27496-.10661-.08704-.22153-.17981-.34046-.27496z" fill="#4bb5e7"/><rect fill="#4bb5e7" height="3.936" width="0" x="37.238" y="26.626"/><path d="m37.33143 30.67117h.00002c-.54026-.43239-1.20554-.9432-2.00047-1.49697l.02419-.00735-.02422.00735c.79496.55378 1.46024 1.06458 2.00048 1.49697z" fill="#4bb5e7"/><path d="m11.76402 31.47471c.13293.00231.2658.00453.40179.0082.79912.02563 1.60327.07542 2.40734.1523l1.02774-3.60263c-.40147-.01777-.81259-.02443-1.23285-.02007-1.26081.0129-2.60383.12488-4.01478.33527l-.18237 2.20116" fill="#fecd82"/><path d="m10.35326 28.34777c1.41095-.21039 2.75397-.32237 4.01478-.33527-1.26081.0129-2.60383.12488-4.01482.33527l-.18235 2.20108.00002.00009z" fill="#fecd82"/><path d="m11.76402 31.47471c.13293.00231.26578.00453.40177.0082.79912.02563 1.60329.07542 2.40736.1523-.80407-.07688-1.60823-.12668-2.40734-.1523-.13599-.00368-.26886-.0059-.40179-.0082z" fill="#fecd82"/><path d="" fill="#fecd82"/><path d="m9.34792 30.07067.12982-1.58119c-.68978.11933-1.39564.26283-2.11487.42761" fill="#fecd82"/><path d="" fill="#fecd82"/><path d="m9.47774 28.48948c-.6898.11933-1.39564.26283-2.11487.42761.71923-.16477 1.42509-.30827 2.11487-.42761z" fill="#fecd82"/><path d="m21.62476 29.53057c-.3641-.21056-.87371-.46169-1.5419-.69821-.14963-.05296-.30712-.10515-.47294-.15606-.12241-.03758-.24919-.07431-.38061-.11011-.12369-.03374-.25135-.06663-.38315-.09832-.11053-.02665-.2229-.05287-.3392-.07782-.64496-.13881-1.33164-.23832-2.04988-.3017l-1.03837 3.63885c.09885.01204.19772.02409.29914.03767l6.35562-1.94977c-.1131-.07918-.26198-.17656-.44871-.28453z" fill="#fecd82"/><path d="m16.45708 28.08836-1.0384 3.63885c.09887.01204.19775.02409.29914.03767h.00002c-.10141-.01358-.20029-.02563-.29914-.03767z" fill="#fecd82"/><path d="m18.84617 28.46787c.1318.03169.25946.06458.38315.09832-.12369-.03374-.25135-.06662-.38315-.09832z" fill="#fecd82"/><path d="m19.60992 28.6763c.16582.05091.32331.1031.47294.15606-.14963-.05296-.30712-.10515-.47294-.15606z" fill="#fecd82"/><path d="m27.73461 30.92768.97807-.29828c-.13725-.12514-.28344-.25438-.43865-.38686-.38802-.33125-.83241-.68318-1.33439-1.04399-.10039-.07209-.20311-.14461-.30813-.21739l-1.4704.45093z" fill="#d9ae6d"/><path d="m25.16111 29.43208-8.19193 2.51226c1.17566.19006 2.35626.43436 3.52872.73742.26247.06782.52501.13872.78763.21269l6.44909-1.96677z" fill="#fecd82"/><path d="m26.63151 28.98116-1.4704.45092z" fill="#fecd82"/><path d="m16.96917 31.94434 8.19193-2.51226-8.19198 2.51226c1.17568.19006 2.35628.43436 3.52874.73742.26247.06782.52503.13872.78765.21269-.26262-.07397-.52515-.14487-.78763-.21269-1.17245-.30306-2.35305-.54736-3.52871-.73742z" fill="#fecd82"/><path d="m29.9249 30.82253c.75513.74075 1.2658 1.3714 1.57895 1.79969l5.07662-1.69967c-.5495-.43726-1.22533-.95276-2.0344-1.5085z" fill="#d9ae6d"/><path d="m29.9249 30.82253 4.62117-1.40847-4.62119 1.40847c.75513.74075 1.26578 1.3714 1.57895 1.79969h.00002c-.31315-.42828-.82382-1.05893-1.57895-1.79969z" fill="#fecd82"/><path d="m30.49189 32.53006c-.39876-.51092-.86776-1.02291-1.32852-1.47536l-.79388.24191z" fill="#6b993f"/><path d="m30.79718 32.93742c-.08247-.11591-.18438-.25309-.30529-.40736l-2.12241-1.23345-6.14314 1.87222c1.34631.41027 2.68166.89579 4.00374 1.45229l2.63851-.80875 1.36551-.41855z" fill="#7eb442"/><rect fill="#7eb442" height=".83" width="0" x="28.766" y="30.761"/><path d="m22.22635 33.16882 6.14314-1.87222-6.14316 1.87222c1.34633.41027 2.68168.89579 4.00372 1.45229l2.63855-.80875-2.63851.80875c-1.32208-.5565-2.65744-1.04202-4.00374-1.45229z" fill="#7eb442"/><path d="m12.67281 32.00285 1.5407.89536.21878-.76689c-.62089-.06227-1.20776-.1031-1.75948-.12847z" fill="#7eb442"/><path d="m27.83626 35.33744 1.28071-1.03809-2.12328.65055c.28149.12522.56214.25582.84257.38754z" fill="#fecd82"/><path d="m27.83624 35.33744h.00002c-.28043-.13171-.56107-.26232-.84257-.38754l2.12328-.65055h.00002l-2.12334.65055c.28153.12522.56218.25582.84259.38754z" fill="#fecd82"/><path d="m26.14868 35.20922-5.21192 1.59614 2.96361 1.72222 3.43419-2.78355c-.29162-.13693-.58136-.26805-.86978-.39549-.10542-.04655-.21117-.09396-.3161-.13932z" fill="#7eb442"/><path d="m26.14868 35.20922c.10494.04536.21069.09277.31609.13932-.10541-.04655-.21116-.09396-.31609-.13932l-5.21192 1.59614z" fill="#7eb442"/><path d="m25.37213 34.88429c-3.78449-1.54813-7.23571-2.30844-10.08375-2.6549l-.31586 1.10993 5.33072 3.09789z" fill="#7eb442"/><rect fill="#7eb442" height="0" transform="matrix(-.956 .293 -.293 -.956 55.119 63.068)" width="5.301" x="20.187" y="35.661"/></g><path d="m23.9 38.528.05.251" fill="#707476"/><path d="m42.14279 26.34594 6.82458-2.28954.06525.79893-6.76088 2.26949-4.42282 4.19517-6.77207 2.26688-7.01186 5.68353-.16464-.7428 7.06209-5.7241 6.75753-2.2624z" fill="#b0b8bc"/><path d="m34.91322 22.14397-2.15 2.017c-1.02338-.40232-2.06951-.7715-3.13312-1.10208.40933-.9115.72598-1.81413.9464-2.69232l2.36166.83266.88345.31144z" fill="#7eb442"/></g><path d="m24.06499 39.2704-.16464-.7428-22.93297-13.32717.2199.94204z" fill="#cfd8dd"/></g><g><g enable-background="new"><g><path d="m41.50339 18.72643-.38513.22223c-.2658.15734-.64011.13032-1.04696-.10304-.81913-.47201-1.48096-1.61654-1.48096-2.555.00543-.46645.16816-.79198.434-.94932l.3797-.2225c-.2658.15734-.42854.48287-.42854.94932-.00543.93846.66183 2.08299 1.47552 2.555.41227.23892.78113.26038 1.05237.10331z" fill="#ee5550"/></g><g><path d="m38.53492 14.40007.38232-.22218c.39536-.22976.94271-.19802 1.54706.1509l-.38233.22219c-.60434-.34892-1.15169-.38066-1.54705-.15091z" fill="#ee5550"/></g><g><path d="m42.6263 18.08066c-.0054 1.37789-2.07763 4.40489-2.18612 4.56753l-.37973.2225c.1085-.16263 2.18073-3.18964 2.18073-4.56753.00543-1.37789-.96017-3.05959-2.15904-3.75383l.37973-.2225c1.19886.6945 2.16986 2.37594 2.16443 3.75383z" fill="#ee5550"/></g><g><path d="m40.08197 14.55098c1.19835.69187 2.16494 2.37412 2.16103 3.75101-.00391 1.38102-2.07558 4.40748-2.18461 4.56677-.10813-.28466-2.16249-5.69329-2.15857-7.07431.00391-1.37689.98033-1.93734 2.18215-1.24347zm-.01217 4.29417c.81392.46992 1.47758.09181 1.48024-.84743s-.65669-2.08141-1.4706-2.55133c-.81739-.47192-1.48452-.09559-1.48719.84365-.00266.93925.66016 2.08319 1.47755 2.55511" fill="#cb4844"/></g></g></g><g><g enable-background="new"><g><path d="m19.56987 20.09108c-.25463.08756-.59711.59811-1.43209.11919-.81913-.47201-1.48096-1.61654-1.48096-2.555.00543-.46645.16816-.79198.434-.94932l.3797-.2225c-.2658.15734-.42854.48287-.42854.94932-.00543.93846.66183 2.08299 1.47553 2.555.41226.23892.78113.26038 1.05236.10331z" fill="#ee5550"/></g><g><path d="m16.60141 15.76472.38232-.22218c.39536-.22976.94271-.19802 1.54706.1509l-.38233.22219c-.60435-.34892-1.1517-.38066-1.54705-.15091z" fill="#ee5550"/></g><g><path d="m20.69278 19.44531c-.0054 1.37789-2.07762 4.40489-2.18612 4.56753l-.37973.2225c.1085-.16263 2.18073-3.18964 2.18073-4.56753.00543-1.37789-.96018-3.05959-2.15904-3.75383l.37973-.2225c1.19886.69451 2.16986 2.37594 2.16443 3.75383z" fill="#ee5550"/></g><g><path d="m18.14846 15.91563c1.19835.69187 2.16494 2.37412 2.16103 3.75102-.00392 1.38101-2.07558 4.40748-2.18462 4.56677-.10812-.28466-2.16248-5.69329-2.15857-7.07431.00391-1.3769.98034-1.93735 2.18216-1.24348zm-.01218 4.29418c.81392.46992 1.47758.09181 1.48024-.84743s-.65669-2.08141-1.4706-2.55133c-.81739-.47192-1.48452-.09559-1.48718.84365-.00267.93924.66016 2.08319 1.47754 2.55511" fill="#cb4844"/></g></g></g><g><g enable-background="new"><g><path d="m21.74564 31.33033-.38513.22223c-.2658.15734-.64011.13032-1.04696-.10304-.81913-.47201-1.48096-1.61654-1.48096-2.555.00543-.46645.16816-.79198.434-.94932l.3797-.2225c-.2658.15734-.42854.48287-.42854.94932-.00543.93846.66183 2.08299 1.47553 2.555.41226.23893.78113.26039 1.05236.10331z" fill="#ee5550"/></g><g><path d="m18.77718 27.00398.38232-.22218c.39536-.22976.94271-.19802 1.54706.1509l-.38233.22219c-.60435-.34892-1.1517-.38066-1.54705-.15091z" fill="#ee5550"/></g><g><path d="m22.86855 30.68457c-.0054 1.37788-2.07762 4.40489-2.18612 4.56753l-.37973.2225c.1085-.16264 2.18073-3.18964 2.18073-4.56753.00543-1.37789-.96018-3.05959-2.15904-3.75383l.37973-.2225c1.19886.6945 2.16986 2.37594 2.16443 3.75383z" fill="#ee5550"/></g><g><path d="m20.32423 27.15489c1.19835.69187 2.16494 2.37412 2.16103 3.75101-.00391 1.38102-2.07558 4.40748-2.18461 4.56677-.10813-.28466-2.16249-5.69329-2.15857-7.07431.0039-1.37689.98033-1.93734 2.18215-1.24347zm-.01218 4.29417c.81392.46991 1.47758.09181 1.48024-.84743s-.65669-2.08141-1.4706-2.55133c-.81739-.47192-1.48452-.09559-1.48718.84365-.00267.93925.66016 2.08319 1.47754 2.55511" fill="#cb4844"/></g></g></g></g></svg>