<svg id="Layer_1" enable-background="new 0 0 52 52" height="512" viewBox="0 0 52 52" width="512" xmlns="http://www.w3.org/2000/svg"><g><g><g><g enable-background="new"><g><g><path d="m2 23.11489.00121.42708 2.04055 1.18584-.00121-.42709z" fill="#b27e4b"/></g></g><g><g><path d="m4.04055 24.30072.00121.42709 13.72161-7.92218-.00121-.42708z" fill="#a87648"/></g></g><g><g><path d="m2 23.11489 2.04055 1.18583 13.72161-7.92217-2.04055-1.18584z" fill="#bc874d"/></g></g></g><g enable-background="new"><g><g><path d="m6.60452 25.79074.00121.42709 2.04055 1.18583-.00121-.42708z" fill="#b27e4b"/></g></g><g><g><path d="m8.64507 26.97658.00121.42708 13.72161-7.92217-.00121-.42709z" fill="#a87648"/></g></g><g><g><path d="m6.60452 25.79074 2.04055 1.18584 13.72161-7.92218-2.04055-1.18584z" fill="#bc874d"/></g></g></g><g enable-background="new"><g><g><path d="m11.2107 28.46756.00121.42709 2.03889 1.18487-.00121-.42709z" fill="#b27e4b"/></g></g><g><g><path d="m13.24959 29.65243.00121.42709 13.72161-7.92218-.00121-.42708z" fill="#a87648"/></g></g><g><g><path d="m11.2107 28.46756 2.03889 1.18487 13.72161-7.92217-2.03888-1.18487z" fill="#bc874d"/></g></g></g><g enable-background="new"><g><g><path d="m15.81522 31.14342.00121.42709 2.04055 1.18583-.00121-.42709z" fill="#b27e4b"/></g></g><g><g><path d="m17.85577 32.32925.00121.42709 13.72161-7.92218-.00121-.42708z" fill="#a87648"/></g></g><g><g><path d="m15.81522 31.14342 2.04055 1.18583 13.72161-7.92217-2.04054-1.18584z" fill="#bc874d"/></g></g></g><g enable-background="new"><g><g><path d="m20.42141 33.82024.00121.42709 2.03888 1.18486-.00121-.42708z" fill="#b27e4b"/></g></g><g><g><path d="m22.46029 35.00511.00121.42708 13.72161-7.92217-.00121-.42709z" fill="#a87648"/></g></g><g><g><path d="m20.42141 33.82024 2.03888 1.18487 13.72161-7.92218-2.03888-1.18487z" fill="#bc874d"/></g></g></g><g enable-background="new"><g><g><path d="m25.02593 36.49609.00121.42709 2.04054 1.18584-.00121-.42709z" fill="#b27e4b"/></g></g><g><g><path d="m27.06647 37.68193.00121.42709 13.72162-7.92218-.00121-.42709z" fill="#a87648"/></g></g><g><g><path d="m25.02593 36.49609 2.04054 1.18584 13.72162-7.92218-2.04055-1.18583z" fill="#bc874d"/></g></g></g><g enable-background="new"><g><g><path d="m29.63211 39.17292.00121.42708 2.03888 1.18487-.0012-.42709z" fill="#b27e4b"/></g></g><g><g><path d="m31.671 40.35778.0012.42709 13.72162-7.92218-.00122-.42708z" fill="#a87648"/></g></g><g><g><path d="m29.63211 39.17292 2.03889 1.18486 13.7216-7.92217-2.03888-1.18487z" fill="#bc874d"/></g></g></g><g enable-background="new"><g><g><path d="m34.23663 41.84877.00121.42709 2.04055 1.18583-.00121-.42708z" fill="#b27e4b"/></g></g><g><g><path d="m36.27718 43.03461.00121.42708 13.72161-7.92217-.00121-.42709z" fill="#a87648"/></g></g><g><g><path d="m34.23663 41.84877 2.04055 1.18584 13.72161-7.92218-2.04055-1.18584z" fill="#bc874d"/></g></g></g></g><g><g enable-background="new"><g><g><path d="m12.53978 15.33765.00182.64063 36.65504 21.30158-.00181-.64063z" fill="#474b59"/></g></g><g><g><path d="m49.19483 36.63923.00181.64063.51013-.29452-.00181-.64063z" fill="#525566"/></g></g><g><g><path d="m12.53978 15.33765 36.65505 21.30158.51013-.29452-36.65505-21.30158z" fill="#5b5e71"/></g></g></g><g enable-background="new"><g><g><path d="m2.24188 21.28314.00182.64063 36.65504 21.30159-.00181-.64063z" fill="#474b59"/></g></g><g><g><path d="m38.89693 42.58473.00181.64063.51013-.29452-.00182-.64063z" fill="#525566"/></g></g><g><g><path d="m2.24188 21.28314 36.65505 21.30159.51012-.29452-36.65504-21.30159z" fill="#5b5e71"/></g></g></g></g></g><g><g><g><g enable-background="new"><g><g><path d="m10.50423 25.69361.28694-.16675c.20959-.12181.33951-.38087.34056-.74879.00063-.22163-.04556-.45832-.12822-.69034l-.28694.16675c.08266.23202.12885.46871.12823.69034-.00106.36792-.13098.62699-.34057.74879z" fill="#afb2b2"/></g></g><g><path d="m13.57838 24.8611c-.05403-.04017-.10966-.07647-.16579-.10889l-3.44366-1.9882c-.3242-.18717-.61801-.20462-.83016-.08133l-.28694.16675c.21215-.12329.50595-.10584.83015.08133l3.44367 1.9882c.05614.03242.11175.06871.16579.10889.56589.41886.99944 1.22924.99753 1.90547-.00105.36777-.13098.6267-.34056.74849l.28695-.16675c.20957-.1218.33951-.38072.34055-.74849.00191-.67623-.43164-1.48661-.99753-1.90547z" fill="#afb2b2"/></g><g><g><path d="m9.68198 22.93077c-.64413-.37189-1.1683-.07377-1.1704.66698-.0021.74015.51867 1.64276 1.1628 2.01465.64465.37219 1.16831.07258 1.17041-.66757.00063-.22163-.04556-.45832-.12823-.69034l1.37039.7912c-.0837.13597-.13108.31863-.13171.54026-.0021.74015.51868 1.64277 1.1628 2.01465.64464.37218 1.16882.07287 1.17092-.66728.00192-.67623-.43163-1.4866-.99752-1.90546-.05404-.04018-.10966-.07648-.1658-.10889z" fill="#d4d6d6"/></g></g></g></g></g><g><g><path d="m9.68501 23.42371c-.42114-.24315-.7636-.04726-.76498.43666-.00137.48393.33886 1.07397.76 1.31712.42178.24352.76424.04762.76561-.4363.00138-.48392-.33885-1.07396-.76063-1.31748z" fill="#b7baba"/></g></g><g><g><path d="m9.68405 23.8099c-.23569-.13608-.42735-.02645-.42812.24438s.18964.60105.42534.73713c.23605.13628.42771.02665.42848-.24418s-.18965-.60105-.4257-.73733z" fill="#525566"/></g></g><g><g><path d="m13.15666 25.50156c-.42114-.24315-.7636-.04726-.76498.43667-.00137.48393.33886 1.07397.76 1.31712.42178.24351.76424.04762.76561-.4363.00138-.48393-.33885-1.07397-.76063-1.31749z" fill="#b7baba"/></g></g><g><g><path d="m13.15571 25.88775c-.23569-.13608-.42735-.02645-.42812.24438s.18964.60105.42534.73713c.23605.13628.42771.02665.42848-.24418.00076-.27083-.18965-.60104-.4257-.73733z" fill="#525566"/></g></g></g><g><g><g><g enable-background="new"><g><g><path d="m33.1293 38.7562.28695-.16675c.20959-.1218.33952-.38087.34056-.74879.00063-.22163-.04556-.45832-.12822-.69034l-.28695.16676c.08266.23202.12885.46871.12823.69033-.00106.36793-.13098.62699-.34057.74879z" fill="#afb2b2"/></g></g><g><path d="m36.20346 37.92369c-.05404-.04018-.10966-.07647-.16579-.10889l-3.44367-1.9882c-.3242-.18718-.61801-.20462-.83016-.08133l-.28694.16676c.21215-.12329.50595-.10584.83015.08133l3.44367 1.9882c.05614.03242.11175.06871.16579.10889.56589.41886.99944 1.22924.99753 1.90547-.00105.36777-.13099.6267-.34056.74849l.28695-.16675c.20957-.1218.33951-.38072.34055-.74849.00191-.67624-.43164-1.48661-.99752-1.90548z" fill="#afb2b2"/></g><g><g><path d="m32.30705 35.99336c-.64413-.37189-1.1683-.07377-1.1704.66698-.0021.74015.51867 1.64277 1.1628 2.01465.64465.37219 1.16831.07258 1.17041-.66758.00063-.22163-.04556-.45832-.12823-.69033l1.3704.79119c-.0837.13597-.13108.31864-.13171.54026-.0021.74015.51868 1.64277 1.1628 2.01465.64464.37218 1.16882.07288 1.17092-.66727.00192-.67623-.43163-1.4866-.99752-1.90546-.05404-.04018-.10966-.07648-.1658-.10889z" fill="#d4d6d6"/></g></g></g></g></g><g><g><path d="m32.31008 36.48631c-.42114-.24315-.7636-.04726-.76497.43666s.33886 1.07397.76 1.31712c.42178.24352.76424.04762.76561-.4363.00137-.48393-.33886-1.07397-.76064-1.31748z" fill="#b7baba"/></g></g><g><g><path d="m32.30912 36.87249c-.23569-.13608-.42735-.02645-.42812.24438s.18965.60105.42534.73713c.23605.13628.42771.02665.42847-.24418.00078-.27083-.18964-.60105-.42569-.73733z" fill="#525566"/></g></g><g><g><path d="m35.78173 38.56416c-.42115-.24315-.7636-.04726-.76498.43666-.00137.48393.33886 1.07397.76 1.31712.42178.24352.76424.04762.76561-.43631.00138-.48392-.33885-1.07396-.76063-1.31747z" fill="#b7baba"/></g></g><g><g><path d="m35.78078 38.95034c-.23569-.13608-.42736-.02645-.42812.24438s.18964.60105.42534.73713c.23605.13628.42771.02665.42848-.24418s-.18965-.60104-.4257-.73733z" fill="#525566"/></g></g></g><g><g><g><g enable-background="new"><g><g><path d="m43.3611 32.84227.28695-.16676c.20959-.1218.33951-.38087.34056-.74879.00063-.22163-.04556-.45832-.12823-.69034l-.28694.16675c.08266.23202.12885.46871.12822.69034-.00105.36793-.13097.62699-.34056.7488z" fill="#afb2b2"/></g></g><g><path d="m46.43525 32.00975c-.05403-.04017-.10965-.07647-.16579-.10889l-3.44366-1.9882c-.3242-.18717-.61801-.20462-.83017-.08133l-.28694.16675c.21215-.12329.50595-.10584.83015.08133l3.44367 1.9882c.05614.03242.11175.06871.16579.10889.56589.41886.99944 1.22924.99753 1.90547-.00105.36777-.13099.6267-.34056.74849l.28695-.16675c.20957-.1218.33951-.38072.34055-.74849.00192-.67623-.43163-1.4866-.99752-1.90547z" fill="#afb2b2"/></g><g><g><path d="m42.53885 30.07942c-.64413-.37189-1.1683-.07377-1.1704.66698-.0021.74015.51867 1.64277 1.1628 2.01465.64465.37219 1.16831.07257 1.17041-.66758.00063-.22163-.04556-.45832-.12822-.69034l1.3704.7912c-.0837.13597-.13108.31863-.13171.54026-.0021.74015.51868 1.64277 1.1628 2.01466.64464.37218 1.16882.07288 1.17092-.66728.00192-.67623-.43163-1.4866-.99752-1.90546-.05404-.04018-.10966-.07648-.1658-.10889z" fill="#d4d6d6"/></g></g></g></g></g><g><g><path d="m42.54188 30.57237c-.42114-.24315-.7636-.04726-.76497.43666-.00137.48393.33886 1.07397.76 1.31712.42178.24352.76424.04762.76561-.4363.00137-.48393-.33886-1.07397-.76064-1.31748z" fill="#b7baba"/></g></g><g><g><path d="m42.54092 30.95855c-.23569-.13608-.42735-.02645-.42812.24438s.18964.60105.42534.73713c.23605.13629.42771.02665.42847-.24418.00078-.27083-.18964-.60104-.42569-.73733z" fill="#525566"/></g></g><g><g><path d="m46.01353 32.65022c-.42115-.24315-.7636-.04726-.76498.43666s.33886 1.07397.76 1.31712c.42178.24352.76424.04763.76561-.4363.00138-.48393-.33885-1.07397-.76063-1.31748z" fill="#b7baba"/></g></g><g><g><path d="m46.01258 33.0364c-.23569-.13608-.42735-.02645-.42812.24438s.18964.60105.42534.73713c.23605.13628.42771.02665.42848-.24418.00076-.27082-.18965-.60104-.4257-.73733z" fill="#525566"/></g></g></g><g><g><g><g><g><g><g><path d="m37.24582 37.71269 11.14421-6.4763-.00795 1.33353-11.14421 6.4763z" fill="#525566"/></g></g></g><g><g><g><path d="m37.24582 37.71269-.00461 1.33737-31.93081-18.43808.00857-1.33227z" fill="#525566"/></g></g></g><g><g><g><path d="m5.31897 19.27971 11.14421-6.4763 31.92685 18.43298-11.14421 6.4763z" fill="#5b5e71"/></g></g></g></g></g></g><g><g><path d="m43.27999 24.26517c-.83742-.48597-1.99721-.4181-3.27816.32115-2.32927 1.34521-4.24891 4.44281-4.54946 7.20107-.02787.2545-.04243.50537-.04121.75259 0 .02787 0 .05453.00121.0812.02182 1.40943.53081 2.40076 1.34279 2.8734l-1.0083-.58535c-.00121-.00121-.00121-.00121-.00121-.00121l-.49203-.286-.45082-.26177c-.00121 0-.00121-.00121-.00243-.00121l-.48717-.28358-22.96784-13.34902-.38781-.22421-.55504-.32357-.17572-.1018c-.07878-.04605-.15513-.09695-.22784-.15269-.65926-.50173-1.07133-1.39853-1.11251-2.61891-.00243-.05938-.00364-.11998-.00364-.18178-.00121-.21571.00969-.43628.03151-.65806.26661-2.7813 2.20443-5.93464 4.56034-7.29439 1.24583-.71987 2.37775-.80469 3.21031-.35993h.00121c.02303.01212.04485.02544.06666.03757l.43144.25086h.00121l.43143.25086.4896.28479 22.59578 13.13209s0 0 .00121.00121l.38903.22541.0012.00121.54173.31388.3878.22541z" fill="#ecf0f1"/></g></g><g><g><path d="m35.41116 32.53999c0 .02787 0 .05453.00121.0812l-26.52593-15.31593c-.00243-.05938-.00364-.11998-.00364-.18178-.00121-.21571.00969-.43628.03151-.65806l26.53806 15.32198c-.02787.2545-.04242.50536-.04121.75259z" fill="#d4d6d6"/></g></g><g><g><path d="m42.02382 23.53486c-.75137-.143-1.63606.05817-2.56557.59382-2.58498 1.49306-4.68155 5.12389-4.67307 8.09546.00364 1.18887.34176 2.12202.96104 2.68434l-.49202-.286c-.42174-.59504-.64716-1.41428-.6508-2.39834-.00848-3.02853 2.12809-6.73087 4.76397-8.25301.80227-.46294 1.57546-.68472 2.26866-.66169z" fill="#e74c3c"/></g></g><g><g><path d="m41.09309 22.99436c-.75258-.14543-1.6397.05575-2.57164.59383-2.58498 1.49306-4.68155 5.12389-4.67307 8.09546.00364 1.1816.33812 2.11233.95256 2.67586l-.48719-.28358c-.41931-.59383-.64352-1.41185-.64716-2.39228-.00848-3.02852 2.12809-6.73086 4.76396-8.253.80349-.46416 1.57789-.68715 2.2723-.66291 0 0 0 0 .00121.00121z" fill="#e74c3c"/></g></g><g><g><path d="m18.1071 9.63564c-.80713-.25935-1.79725-.07999-2.84431.52354-2.58619 1.49305-4.68156 5.12389-4.67429 8.09545.00364 1.0495.26782 1.90025.75743 2.47227l-.3878-.22421c-.35752-.57928-.54899-1.34399-.55142-2.24806-.00849-3.02852 2.12931-6.73086 4.76518-8.253.87013-.50294 1.70754-.72229 2.4456-.65079z" fill="#e74c3c"/></g></g><g><g><path d="m17.18484 9.09999c-.80954-.26783-1.80571-.08969-2.85886.51869-2.58618 1.49184-4.68276 5.12389-4.67427 8.09545.00364 1.04465.2654 1.89298.75137 2.465l-.17572-.1018c-.07878-.04605-.15513-.09695-.22785-.1527-.34416-.57565-.52716-1.32702-.52958-2.21049-.00849-3.02852 2.12929-6.73086 4.76516-8.253.87257-.50415 1.71241-.72229 2.45046-.64957h.00121c.02302.01212.04482.02544.06664.03757z" fill="#e74c3c"/></g></g><g><g><path d="m24.039 27.11373c-.02071 0-.04178-.00533-.06095-.01651l-1.56469-.91277c-.05775-.03373-.07728-.10793-.04367-.16575.03385-.0577.10817-.07722.16581-.04361l1.56469.91277c.05775.03373.07728.10793.04367.16575-.02261.03858-.0632.06012-.10486.06012z" fill="#a4a6a6"/></g></g><g><g><path d="m24.039 25.98906c-.02071 0-.04178-.00533-.06095-.01651l-1.56469-.91271c-.05775-.03373-.07728-.10793-.04367-.16575.03385-.05769.10817-.07722.16581-.04361l1.56469.91271c.05775.03373.07728.10793.04367.16575-.02261.03858-.0632.06012-.10486.06012z" fill="#a4a6a6"/></g></g><g><g><path d="m24.039 24.86439c-.02071 0-.04178-.00533-.06095-.01651l-1.56469-.91271c-.05775-.03373-.07728-.10793-.04367-.16575.03385-.05775.10817-.07716.16581-.04361l1.56469.91271c.05775.03373.07728.10793.04367.16575-.02261.03858-.0632.06012-.10486.06012z" fill="#a4a6a6"/></g></g><g><g><path d="m24.039 23.73978c-.02071 0-.04178-.00533-.06095-.01651l-1.56469-.91271c-.05775-.03373-.07728-.10793-.04367-.16575.03385-.0577.10817-.07716.16581-.04361l1.56469.91271c.05775.03373.07728.10793.04367.16575-.02261.03858-.0632.06012-.10486.06012z" fill="#a4a6a6"/></g></g><g><g><path d="m24.01651 22.5928c-.02059 0-.04142-.00521-.06048-.01621l-1.54221-.8904c-.05799-.03349-.07788-.10758-.04438-.16557s.1077-.07781.16557-.04438l1.54221.8904c.05799.03349.07787.10758.04438.16557-.02248.03887-.0632.06059-.10509.06059z" fill="#a4a6a6"/></g></g><g><g><path d="m23.98515 21.45002c-.02059 0-.04142-.00521-.06048-.01621l-1.51084-.87229c-.05799-.03349-.07788-.10758-.04438-.16557.03349-.05805.1077-.07793.16557-.04438l1.51084.87229c.05799.03349.07787.10758.04438.16557-.02249.03887-.0632.06059-.10509.06059z" fill="#a4a6a6"/></g></g><g><g><path d="m24.4331 20.58388c-.02059 0-.04142-.00521-.06048-.01621l-1.58765-.9162c-.05799-.03349-.07787-.10758-.04438-.16557.03349-.05805.1077-.07793.16557-.04438l1.58765.9162c.05799.03349.07787.10758.04438.16557-.02248.03887-.0632.06059-.10509.06059z" fill="#a4a6a6"/></g></g><g><g><path d="m24.85241 19.70165c-.02059 0-.04142-.00521-.06048-.01621l-1.58765-.9162c-.05799-.03349-.07787-.10758-.04438-.16557.03349-.05805.1077-.07787.16557-.04438l1.58765.9162c.05799.03349.07788.10758.04438.16557-.02248.03887-.06319.06059-.10509.06059z" fill="#a4a6a6"/></g></g><g><g><path d="m40.00274 24.58693c2.54441-1.46901 4.61347-.28992 4.62175 2.6338.00829 2.92316-2.04734 6.48364-4.59174 7.95266-2.54393 1.46873-4.61298.28964-4.62127-2.63352-.00829-2.92372 2.04733-6.4842 4.59126-7.95294z" fill="#e0e2e2"/></g></g><g><g><g><path d="m24.06101 29.14046c-.06675 0-.12095-.05403-.12119-.12083l-.02189-7.72459c0-.01811.00391-.03598.01172-.05231l1.45321-3.06424c.02876-.0603.10083-.08628.16143-.05752.06048.02864.08628.10095.05752.16143l-1.44137 3.03938.02178 7.69713c.00024.06693-.05397.12137-.12083.12155-.00014 0-.00026 0-.00038 0z" fill="#a4a6a6"/></g></g><g><g><path d="m22.47395 28.22414c-.06675 0-.12095-.05403-.12119-.12083l-.02189-7.72458c0-.01811.00391-.03598.01172-.05231l1.45321-3.06423c.02864-.0603.10083-.08628.16143-.05752.06048.02864.08628.10095.05752.16143l-1.44137 3.03938.02178 7.69713c.00024.06693-.05397.12137-.12083.12154-.00014-.00001-.00026-.00001-.00038-.00001z" fill="#a4a6a6"/></g></g></g><g enable-background="new"><g><g><g><path d="m28.87934 16.47644-.00248.87413c-.00116.41042-.27181.82023-.81248 1.13444-1.09512.63641-2.85576.63641-3.9512.00396-.55208-.31874-.82912-.73688-.82794-1.15474l.00248-.87412c-.00118.41785.27586.83599.82794 1.15473 1.09544.63245 2.85608.63246 3.9512-.00396.54067-.3142.81132-.72402.81248-1.13444z" fill="#d6b218"/></g></g></g><g><g><g><path d="m28.054 15.32613c1.09544.63245 1.10118 1.65229.01286 2.28475-1.09512.63641-2.85576.63641-3.9512.00396s-1.10802-1.65622-.01291-2.29263c1.08832-.63246 2.85581-.62853 3.95125.00392z" fill="#f1c40f"/></g></g></g></g></g><g><g enable-background="new"><g><g><path d="m33.08724 32.83159-.00014.47943-1.45854.84761.00013-.47943z" fill="#3f434f"/></g></g><g><g><path d="m31.62869 33.6792-.00013.47943-2.11036-1.21841.00014-.47944z" fill="#474b59"/></g></g><g><g><path d="m33.08724 32.83159-1.45855.84761-2.11035-1.21842 1.45854-.84761z" fill="#525566"/></g></g></g></g><g><g enable-background="new"><g><g><path d="m14.72693 22.23126-.00014.47943-1.45854.84761.00013-.47943z" fill="#3f434f"/></g></g><g><g><path d="m13.26838 23.07887-.00013.47943-2.11036-1.21841.00014-.47943z" fill="#474b59"/></g></g><g><g><path d="m14.72693 22.23126-1.45855.84761-2.11035-1.21841 1.45855-.84762z" fill="#525566"/></g></g></g></g></g></svg>