<svg id="Layer_1" enable-background="new 0 0 52 52" height="512" viewBox="0 0 52 52" width="512" xmlns="http://www.w3.org/2000/svg"><g><g><g enable-background="new"><g><path d="m46.65671 47.94844-.00099.35083-2.92656 1.70073.00099-.35083z" fill="#474b59"/></g><g><path d="m43.73015 49.64917-.00099.35083-2.9457-1.7007.001-.35083z" fill="#525566"/></g><g><path d="m46.65671 47.94844-2.92656 1.70073-2.94569-1.7007 2.92656-1.70073z" fill="#5b5e71"/></g></g></g><g><g enable-background="new"><g><path d="m44.56261 39.41772-.03052 8.49435-.84251.48962.03051-8.49435z" fill="#d4d6d6"/></g><g><path d="m43.72009 39.90734-.03051 8.49435-.84803-.48961.03051-8.49435z" fill="#ecf0f1"/></g><g><path d="m44.56261 39.41772-.84252.48962-.84803-.48961.84252-.48962z" fill="#cbcfd0"/></g></g></g><g><g><path d="m15.05837 27.96236c-.00761.78344-.28144 1.3387-.73024 1.59734l-4.29 2.49489c.44875-.25859.72258-.81385.73019-1.59733 0-1.58215-1.11812-3.51417-2.49489-4.31284-.69221-.40316-1.31595-.43357-1.77232-.17498l4.29005-2.49489c.44875-.25864 1.0801-.22057 1.77227.17493 1.37681.79866 2.49494 2.73073 2.49494 4.31288z" fill="#363a44"/></g><g><path d="m21.25354 31.2081c-.00761.78344-.28143 1.3387-.73023 1.59734l-4.29 2.49489c.44876-.25859.72258-.81385.73019-1.59733 0-1.58216-1.11813-3.51418-2.49489-4.31284-.69221-.40316-1.31595-.43357-1.77231-.17498l4.29005-2.49489c.44876-.25864 1.0801-.22057 1.77227.17493 1.3768.79866 2.49492 2.73072 2.49492 4.31288z" fill="#363a44"/></g><g><g><g><path d="m37.41005 42.62195 11.95472-6.94732-.00853 1.78242-11.95472 6.94732z" fill="#525566"/></g></g><g><g><path d="m37.4051 42.62135v1.78714l-19.81342-11.43682-6.03645-3.49217-.21948-.12971-5.83694-3.36246-2.86358-1.65625.00999-1.77716z" fill="#525566"/></g></g><g><g><path d="m2.64443 22.55001 11.95472-6.94732 34.76562 20.07194-11.95472 6.94732z" fill="#5b5e71"/></g></g></g><g><path d="m17.59168 32.97167-6.03645-3.49217c.37915-.7683 1.08759-1.12748 1.79596-1.12748.46898 0 .96786.1397 1.46674.42903 1.38684.80819 2.50439 2.54429 2.77375 4.19062z" fill="#3f434f"/></g><g><path d="m14.4684 29.39074c1.37923.7963 2.49744 2.72749 2.49294 4.31233-.00449 1.58484-1.12996 2.21507-2.50919 1.41877s-2.48774-2.71631-2.48324-4.30115 1.12026-2.22625 2.49949-1.42995z" fill="#5b5e71"/></g><g><path d="m14.47215 29.77553c1.19189.68814 2.15644 2.3588 2.15256 3.72835-.00389 1.37386-.97473 1.92284-2.16663 1.2347-1.19187-.68812-2.15643-2.3545-2.15253-3.72836.00388-1.36956.97474-1.92282 2.1666-1.23469z" fill="#fff"/></g><g><g><g><path d="m12.88328 30.26142c-.02117.02243-.03332.05008-.05752.07769.34262.43349.67921.8635 1.01581 1.29005.03026-.03452.0575-.06731.08776-.10183-.34869-.41965-.69435-.84104-1.04605-1.26591z" fill="#525566"/></g></g><g enable-background="new"><g><g><path d="m14.13696 32.76321c-.38309.01103-.7511.02384-1.13118.03661.30896.60467.69065 1.08498 1.17218 1.46003-.01365-.50349-.02736-.98622-.041-1.49664z" fill="#525566"/></g></g><g><g><path d="m13.84285 32.24336c-.33794.04403-.67586.0846-1.01984.12862.01796.04849.03293.08833.05089.13683.35294-.01804.69685-.03784 1.04677-.05416-.02694-.07448-.05088-.13682-.07782-.21129z" fill="#525566"/></g></g><g><g><path d="m12.72872 30.52223c-.16408.42515-.17155.93378-.0044 1.55362.36209-.05089.71513-.10007 1.07419-.14923-.35759-.47332-.71219-.93798-1.06979-1.40439z" fill="#525566"/></g></g></g><g><g><path d="m14.86451 32.53514c-.00068.24031-.18507.35068-.39381.23016-.00166-.00095-.0033-.00191-.00496-.0029-.22583-.13731-.3969-.4371-.39617-.69315.00373-.25085.17594-.35245.40178-.22206.21681.12518.39088.43017.39316.68795zm-.40451.12345c.17465.10083.31662.02683.31719-.17386s-.13148-.43636-.30914-.53893c-.17465-.10084-.3136-.02856-.31417.17213-.00057.20068.13449.43809.30612.54066" fill="#525566"/></g></g><g><g><path d="m14.75308 30.34626c.01668.49832.03039.98451.04705 1.48975.37706-.01105.74808-.02212 1.12513-.02971-.30592-.60986-.69065-1.08499-1.17218-1.46004z" fill="#525566"/></g></g><g><g><path d="m16.05415 32.09212c-.34992.01632-.69985.03264-1.04677.05416.02695.07101.05089.13682.08086.20265.34093-.03538.67886-.07595 1.0198-.11478-.01796-.0485-.03593-.09353-.05389-.14203z" fill="#525566"/></g></g><g enable-background="new"><g><g><path d="m14.79342 33.14222c-.01947.48438-.03288.95838-.05235 1.44276.47906.18301.86525.14257 1.17661-.10396-.37275-.44396-.74551-.88445-1.12426-1.3388z" fill="#525566"/></g></g><g><g><path d="m15.08048 32.9579c-.02425.04145-.04547.07772-.07274.12436.34568.41793.69136.83585 1.04003 1.25898.01817-.02418.03633-.04834.05451-.07597-.3396-.43521-.67618-.86868-1.0218-1.30737z" fill="#525566"/></g></g></g><g><g><path d="m16.20373 32.52507c-.36209.05088-.71513.10353-1.08023.15268.36361.4768.7152.93626 1.07582 1.4044.1701-.42167.17155-.93377.00441-1.55708z" fill="#525566"/></g></g><g><g><path d="m14.13503 29.99541c-.27474-.15864-.93804-.09534-1.11565.13664.17134.20289.34271.39888.51107.59312.11423.13527.22843.28092.34566.42138.06613.07977.13828.16302.20441.24279.01674.02125.02935.03486.03874.04028.0159.00918.0226-.00505.02461-.04529.00995-.32004.02294-.64527.0329-.96531.00339-.12975.00074-.25951.00112-.39446-.01291-.01043-.02727-.02015-.04286-.02915z" fill="#525566"/></g></g><g><g><path d="m14.38354 33.02688c.00773.46542.01549.92046.02022 1.38068l.05419.03476c.00584.00433.01117.0079.01602.01069.03009.01737.04166.005.04438-.03821.00722-.41866.01745-.83559.0307-1.25423l.00011-.03806z" fill="#525566"/></g></g><g><g><path d="m14.41589 30.12732c-.00733.45672-.01764.90479-.02798 1.35632l.16562.09562c-.01076-.46024-.01851-.91874-.02623-1.38761z" fill="#525566"/></g></g></g><g><path d="m11.33575 29.34979-5.83695-3.36245c.40912-.59863 1.03771-.87803 1.65632-.87803.46892 0 .9678.1397 1.46668.42903 1.2871.74831 2.34472 2.2849 2.71395 3.81145z" fill="#3f434f"/></g><g><path d="m8.27323 26.145c1.37923.7963 2.49744 2.72748 2.49294 4.31233-.00449 1.58485-1.12996 2.21507-2.50919 1.41877s-2.48774-2.71631-2.48324-4.30116c.00449-1.58484 1.12025-2.22624 2.49949-1.42994z" fill="#5b5e71"/></g><g><path d="m8.27697 26.52979c1.19189.68814 2.15644 2.3588 2.15256 3.72835-.00389 1.37386-.97473 1.92283-2.16663 1.2347-1.19187-.68813-2.15643-2.35451-2.15253-3.72836.00389-1.36955.97474-1.92281 2.1666-1.23469z" fill="#fff"/></g><g><g><g><path d="m6.78235 27.09159c-.01991.0211-.03133.0471-.0541.07306.32221.40766.63875.81205.95529 1.21319.02846-.03246.05407-.0633.08253-.09577-.32791-.39465-.65298-.79093-.98372-1.19048z" fill="#525566"/></g></g><g enable-background="new"><g><g><path d="m7.96133 29.44433c-.36027.01038-.70635.02242-1.06378.03444.29055.56865.6495 1.02034 1.10234 1.37305-.01284-.47351-.02573-.92749-.03856-1.40749z" fill="#525566"/></g></g><g><g><path d="m7.68474 28.95544c-.3178.04141-.6356.07956-.95908.12096.01689.0456.03097.08307.04786.12867.33192-.01697.65533-.03559.98441-.05093-.02533-.07003-.04785-.12866-.07319-.1987z" fill="#525566"/></g></g><g><g><path d="m6.63699 27.33686c-.1543.39982-.16133.87814-.00414 1.46106.34052-.04786.67252-.0941 1.01019-.14034-.33628-.44512-.66975-.88211-1.00605-1.32072z" fill="#525566"/></g></g></g><g><g><path d="m8.64554 29.22985c-.00064.22599-.17404.32979-.37035.21645-.00156-.0009-.00311-.0018-.00466-.00273-.21237-.12913-.37325-.41106-.37257-.65186.00351-.23591.16546-.33145.37785-.20883.20388.11772.36759.40454.36973.64697zm-.38042.11609c.16425.09483.29776.02523.2983-.1635s-.12364-.41036-.29072-.50682c-.16425-.09483-.29492-.02686-.29545.16187s.12647.41199.28787.50845" fill="#525566"/></g></g><g><g><path d="m8.54075 27.17137c.01569.46863.02858.92586.04425 1.40099.35459-.01039.70351-.0208 1.0581-.02794-.2877-.57352-.64951-1.02034-1.10235-1.37305z" fill="#525566"/></g></g><g><g><path d="m9.7643 28.81322c-.32907.01535-.65815.03069-.98441.05093.02534.06678.04786.12867.07604.19057.32062-.03327.63842-.07143.95904-.10795-.01688-.0456-.03378-.08795-.05067-.13355z" fill="#525566"/></g></g><g enable-background="new"><g><g><path d="m8.57868 29.80075c-.01831.45552-.03092.90129-.04923 1.3568.45051.1721.8137.13408 1.10651-.09776-.35054-.41751-.70109-.83176-1.05728-1.25904z" fill="#525566"/></g></g><g><g><path d="m8.84864 29.62742c-.0228.03898-.04276.07309-.06841.11695.32508.39303.65017.78605.97807 1.18397.01708-.02274.03417-.04546.05126-.07145-.31936-.40928-.63589-.81692-.96092-1.22947z" fill="#525566"/></g></g></g><g><g><path d="m9.90497 29.22037c-.34052.04786-.67252.09736-1.01587.14358.34195.44839.67259.88048 1.01172 1.32073.15997-.39654.16133-.87814.00415-1.46431z" fill="#525566"/></g></g><g><g><path d="m7.95952 26.84142c-.25837-.14919-.88215-.08966-1.04918.1285.16113.19081.32229.37511.48062.55779.10742.12721.21482.26418.32507.39628.06219.07502.13004.15331.19223.22832.01575.01998.0276.03278.03644.03788.01495.00863.02126-.00475.02315-.04259.00936-.30097.02157-.60682.03094-.90779.00318-.12202.00069-.24405.00105-.37096-.01216-.00982-.02566-.01896-.04032-.02743z" fill="#525566"/></g></g><g><g><path d="m8.19322 29.69229c.00727.43769.01457.86561.01901 1.29842l.05096.03269c.0055.00407.01051.00742.01506.01006.02829.01633.03918.00471.04174-.03593.00679-.39372.01641-.78581.02887-1.17951l.0001-.0358z" fill="#525566"/></g></g><g><g><path d="m8.22365 26.96548c-.00689.42951-.01659.85089-.02631 1.27551l.15576.08993c-.01012-.43282-.01741-.864-.02466-1.30494z" fill="#525566"/></g></g></g><g><g><g><path d="m15.18774 4.73576 30.69797 17.83972c-.47422-.27559-1.0132-.43978-1.60229-.48469l-30.698-17.83971c.58911.0449 1.1281.20909 1.60232.48468z" fill="#e0e2e2"/></g></g><g><g><path d="m37.04755 26.26842-30.69798-17.83972 7.23587-4.17763 30.69798 17.83972z" fill="#ecf0f1"/></g></g><g><g><path d="m44.28342 22.09079c2.22327.16951 3.7327 2.03782 3.74161 5.18216.01319 4.65259-3.26311 10.32738-7.31766 12.66827-4.05452 2.34088-7.34668.45839-7.35987-4.19419-.00891-3.14434 1.48501-6.74664 3.70005-9.4786z" fill="#d4d6d6"/></g></g><g><g><g><path d="m5.70656 13.16611s0 0-.00056 0c-.07852 0-.142-.06459-.142-.14255l.01838-8.4117c.00168-.58246.20827-1.02014.5808-1.23508.37531-.21494.86478-.17262 1.37596.12251.99731.57577 1.80585 1.97456 1.80306 3.11832l-.00557.91212c-.00055.07795-.06403.14143-.14255.14143-.00056 0-.00056 0-.00111 0-.07852 0-.142-.06459-.14144-.14367l.00557-.911c.00278-1.05244-.74227-2.33986-1.66051-2.86998-.41875-.24166-.80631-.28398-1.09142-.12249-.28065.16148-.43601.51229-.43768.98784l-.01838 8.4117c.00001.07907-.06403.14255-.14255.14255z" fill="#474b59"/></g></g></g><g><g><path d="m9.76318 2.25752c-.51119-.29513-1.00065-.33745-1.37597-.12251-.37253.21495-.57911.65374-.58079 1.2362l-.00946 4.32306.28545-.16483.00912-4.15824c.00167-.47554.15703-.82746.43824-.98895.28288-.1626.67155-.12028 1.09086.12251.91824.53123 1.6633 1.81866 1.66051 2.87109l-.00557.911c-.00056.07907.06292.14367.14144.14367h.00111c.07852 0 .142-.06348.14255-.14144l.00557-.91211c.00279-1.14377-.80575-2.54256-1.80306-3.11945z" fill="#474b59"/></g></g><g><g enable-background="new"><g><g><path d="m40.33754 21.85211-.00259.91332c-.00121.42882-.284.857-.84891 1.1853-1.14421.66495-2.98379.66494-4.12834.00414-.57683-.33303-.86629-.76992-.86505-1.2065l.00259-.91331c-.00124.43659.28822.87347.86506 1.2065 1.14455.6608 2.98412.66081 4.12834-.00414.5649-.3283.84769-.75649.8489-1.18531z" fill="#d6b218"/></g></g><g><g><path d="m39.47519 20.65023c1.14455.6608 1.15054 1.72637.01344 2.38718-1.14421.66495-2.98379.66494-4.12834.00414s-1.1577-1.73047-.01348-2.39542c1.13711-.66081 2.98384-.65671 4.12838.0041z" fill="#f1c40f"/></g></g></g><g enable-background="new"><g><g><path d="m32.27181 17.15776-.00259.91332c-.00121.42882-.284.857-.84891 1.1853-1.14422.66495-2.98379.66494-4.12834.00414-.57683-.33303-.86629-.76992-.86505-1.2065l.00259-.91331c-.00124.43659.28822.87347.86506 1.2065 1.14455.6608 2.98412.66081 4.12834-.00414.5649-.32829.84768-.75648.8489-1.18531z" fill="#d6b218"/></g></g><g><g><path d="m31.40946 15.95588c1.14455.6608 1.15055 1.72637.01344 2.38718-1.14422.66495-2.98379.66494-4.12834.00414s-1.1577-1.73047-.01348-2.39542c1.1371-.66081 2.98383-.6567 4.12838.0041z" fill="#f1c40f"/></g></g></g><g enable-background="new"><g><g><path d="m24.20607 12.46342-.00259.91332c-.00121.42882-.284.85701-.84891 1.1853-1.14422.66495-2.98379.66494-4.12834.00414-.57683-.33303-.86629-.76992-.86505-1.2065l.00259-.91331c-.00123.43659.28823.87347.86506 1.2065 1.14455.6608 2.98412.66081 4.12834-.00414.5649-.3283.84768-.75648.8489-1.18531z" fill="#d6b218"/></g></g><g><g><path d="m23.34372 11.26154c1.14455.6608 1.15054 1.72637.01344 2.38718-1.14422.66495-2.98379.66494-4.12834.00414s-1.1577-1.73047-.01348-2.39542c1.13711-.66081 2.98383-.6567 4.12838.0041z" fill="#f1c40f"/></g></g></g><g enable-background="new"><g><g><path d="m16.14034 7.76908-.0026.91332c-.00121.42882-.284.85701-.84891 1.1853-1.14422.66495-2.98379.66494-4.12834.00414-.57683-.33303-.86629-.76992-.86505-1.2065l.00259-.91331c-.00124.43659.28822.87347.86506 1.2065 1.14455.6608 2.98412.66081 4.12834-.00414.5649-.3283.84769-.75649.84891-1.18531z" fill="#d6b218"/></g></g><g><g><path d="m15.27799 6.5672c1.14455.6608 1.15054 1.72637.01344 2.38718-1.14422.66495-2.98379.66494-4.12834.00414s-1.1577-1.73047-.01348-2.39542c1.1371-.66082 2.98383-.65671 4.12838.0041z" fill="#f1c40f"/></g></g></g></g><g><g><path d="m33.34447 35.75146c.01141 1.67638.43336 2.98789 1.18601 3.87738l.53137.53178-30.27343-17.54679c-1.31151-.76406-2.13258-2.39485-2.14399-4.70993 0-3.13615 1.49395-6.73984 3.70636-9.47687l30.70004 17.83616c-2.22383 2.73695-3.71778 6.34071-3.70636 9.48827z" fill="#e0e2e2"/></g></g><g><path d="m6.701 6.182h.247v2.776h-.247z" fill="#474b59" transform="matrix(.549 .836 -.836 .549 9.407 -2.289)"/></g><g><path d="m6.701 4.881h.247v2.776h-.247z" fill="#474b59" transform="matrix(.549 .836 -.836 .549 8.319 -2.876)"/></g><g><path d="m6.701 3.58h.247v2.776h-.247z" fill="#474b59" transform="matrix(.549 .836 -.836 .549 7.232 -3.463)"/></g></g></g></g></svg>