<svg id="Layer_1" enable-background="new 0 0 50 50" height="512" viewBox="0 0 50 50" width="512" xmlns="http://www.w3.org/2000/svg"><g><g><g><g enable-background="new"><g><path d="m44.09288 45.15046-.00198.69557-2.06227 1.19846.00197-.69556z" fill="#485f69"/></g><g><path d="m42.0306 46.34893-.00197.69556-2.07565-1.19837.00198-.69556z" fill="#56707b"/></g><g><path d="m44.09288 45.15046-2.06228 1.19847-2.07564-1.19837 2.06227-1.19847z" fill="#778c95"/></g></g></g><g><g enable-background="new"><g><path d="m43.00975 38.01387-.00094 7.21138-.98316.57135.00093-7.21137z" fill="#b0b8bc"/></g><g><path d="m42.02658 38.58523-.00093 7.21137-.98954-.57131.00094-7.21137z" fill="#dde4e7"/></g><g><path d="m43.00975 38.01387-.98317.57136-.98953-.57131.98316-.57135z" fill="#778c95"/></g></g></g></g><g><g><g enable-background="new"><g><path d="m2.52908 25.68865c.49649-.2881 1.18007-.24454 1.93559.19429 1.50388.86325 2.71272 2.96428 2.71272 4.69149-.0072.85622-.3094 1.46054-.79153 1.74126l19.7733-11.49139c.48929-.28775.79149-.88503.79149-1.74829.0072-1.72685-1.20164-3.82086-2.70552-4.69149-.75552-.4318-1.4391-.47502-1.93559-.18727z" fill="#364950"/></g><g><path d="m4.46791 25.8798c1.50226.86733 2.71114 2.96664 2.70625 4.69279-.00489 1.72614-1.22169 2.41954-2.72395 1.55221-1.50227-.86734-2.71575-2.96385-2.71086-4.69s1.2263-2.42234 2.72856-1.555z" fill="#364950"/></g></g></g><g><g enable-background="new"><g><path d="m9.6229 29.87826c.49649-.2881 1.18007-.24454 1.93559.19429 1.50388.86325 2.71272 2.96429 2.71272 4.69149-.0072.85622-.3094 1.46053-.79153 1.74126l19.7733-11.49139c.48929-.28775.79149-.88503.79149-1.74829.0072-1.72685-1.20164-3.82086-2.70552-4.69149-.75552-.4318-1.4391-.47502-1.93559-.18727z" fill="#364950"/></g><g><path d="m11.56173 30.06941c1.50226.86733 2.71114 2.96664 2.70625 4.69279s-1.22169 2.41954-2.72395 1.55221c-1.50227-.86733-2.71575-2.96385-2.71086-4.69s1.22629-2.42233 2.72856-1.555z" fill="#364950"/></g></g></g><g><g><g><path d="m11.80158 33.61332c.05564.03212.10114.10926.10096.1748-.00018.06395-.04598.09006-.10162.05794s-.10114-.11095-.10096-.17489c.00019-.06555.04599-.08997.10162-.05785z" fill="#cfd8dd"/></g><g><path d="m9.81604 31.36852c.05911.06582 1.18227 1.31639 1.12182 1.47025.00665.17461-.82067.1649-1.09087.21583-.01752-.04715-.35028-.94277-.03095-1.68608zm.48869 1.5103c.46296.00459.51894-.10975.52188-.11577-.11653-.22486-.53334-.6808-.55528-.7048-.12115.39799.02567.79944.0334.82057" fill="#cfd8dd"/></g><g><path d="m11.2386 33.60844c.13102.15609.05242 1.16649.06849 1.54847-.03666-.02272-.73318-.45447-1.2602-1.54854.04529-.00924.9057-.18466 1.1438-.0472.02217.01281.03859.02844.04791.04727zm-.02375.81875c.04304-.5662-.0379-.74402-.04216-.75338-.17699-.06771-.55325.01768-.57305.02217.28714.52371.5988.72083.61521.73121" fill="#cfd8dd"/></g><g><g><path d="m11.28622 33.33245c.05564.03212.10114.10926.10096.1748-.00018.06395-.04598.09006-.10162.05794-.05706-.03294-.10256-.11177-.10238-.17572.00018-.06554.04597-.08996.10304-.05702z" fill="#cfd8dd"/></g><g><path d="m11.53323 32.89702c.14266.08236.25641.28103.25595.44334s-.11496.22919-.25762.14683c-.14123-.08154-.25641-.28103-.25595-.44334s.11639-.22837.25762-.14683z" fill="#cfd8dd"/></g></g><g><path d="m11.553 32.58968c.05706.03295.10257.11177.10238.17732-.00018.06395-.04598.09006-.10304.05712-.05564-.03212-.10114-.11095-.10096-.1749.00018-.06554.04598-.09166.10162-.05954z" fill="#cfd8dd"/></g><g><path d="m11.95863 33.15561c.05706.03294.10114.11086.10095.17649-.00018.06385-.04455.09079-.10162.05785-.05564-.03212-.10114-.11095-.10096-.17481.0002-.06562.046-.09165.10163-.05953z" fill="#cfd8dd"/></g><g><path d="m11.13514 32.69346c.05564.03212.10114.11095.10095.17649-.00018.06395-.04598.09006-.10162.05794-.05706-.03294-.10256-.11177-.10238-.17572.00018-.06554.04598-.09166.10305-.05871z" fill="#cfd8dd"/></g><g><path d="m13.28979 33.3626c.01651.04721.33026.9443-.01614 1.6605-.05818-.06758-1.1636-1.35158-1.09602-1.49812-.00237-.17205.8377-.1238 1.11216-.16238zm-.45854.96011c.13541-.38486-.00327-.78778-.01057-.80898-.47004-.02507-.53008.08532-.53324.09113.11224.22568.52223.69324.54381.71785" fill="#cfd8dd"/></g><g><path d="m11.78983 31.20439c.03659.02309.73173.46184 1.2516 1.55996-.04548.00834-.90955.16667-1.14961.02807-.02301-.01329-.03987-.02934-.04919-.04862-.12959-.15695-.04101-1.15989-.0528-1.53941zm.11871 1.47565c.17842.07014.55737-.00743.57732-.01152-.28286-.52614-.59451-.7279-.61091-.73852-.05019.56209.0294.74065.03359.75004" fill="#cfd8dd"/></g><g><path d="m11.90629 34.00899c.1948.11247.86772 1.02816 1.13639 1.33889-.01936.0247-.38721.4939-1.2464.13583-.00492-.07772-.09848-1.5543.07423-1.48577.00889-.00136.02095.00248.03578.01105zm-.00969.86596c.41402.12902.58157-.07678.59039-.08761-.3842-.52425-.54019-.62901-.56691-.64443-.00288-.00167-.00419-.00225-.00419-.00225-.06195.15799-.02142.70548-.01929.73429" fill="#cfd8dd"/></g><g><path d="m11.32763 30.93424c.00428.07751.08563 1.55018-.08849 1.47753-.00863.00126-.02018-.00256-.03434-.01074-.19247-.11112-.86402-1.0368-1.13066-1.34984.01971-.02424.39432-.48489 1.25349-.11695zm-.13239 1.33558c.06332-.1572.02821-.70156.02636-.73021-.414-.13551-.58562.06794-.59465.07865.3855.53257.5405.63569.56481.64972.00235.00136.00342.00181.00342.00181" fill="#cfd8dd"/></g><g><path d="m11.55871 30.07102c1.49934.86564 2.71225 2.96484 2.70737 4.68769-.00489 1.72614-1.22573 2.42021-2.72506 1.55457s-2.71082-2.96401-2.70593-4.69016c.00487-1.72284 1.22428-2.41774 2.72362-1.5521zm-.0155 5.46683c1.127.65067 2.04441.12955 2.04809-1.16872.00367-1.29498-.90779-2.8737-2.03479-3.52438-1.127-.65067-2.04442-.12786-2.04809 1.16713-.00368 1.29827.90779 2.8753 2.03479 3.52597" fill="#40545d"/></g></g><g><g><path d="m4.70776 29.42371c.05564.03212.10114.10926.10096.1748-.00018.06394-.04598.09006-.10162.05794s-.10114-.11095-.10096-.17489c.00019-.06555.04599-.08997.10162-.05785z" fill="#cfd8dd"/></g><g><path d="m2.72222 27.1789c.05911.06582 1.18226 1.31639 1.12182 1.47025.00665.17461-.82067.1649-1.09087.21583-.01752-.04714-.35028-.94276-.03095-1.68608zm.48869 1.51031c.46296.00459.51893-.10975.52188-.11577-.11653-.22486-.53334-.6808-.55528-.7048-.12115.39799.02567.79944.0334.82057" fill="#cfd8dd"/></g><g><path d="m4.14478 29.41883c.13102.15608.05242 1.16649.06849 1.54848-.03666-.02272-.73318-.45447-1.2602-1.54855.04528-.00923.9057-.18466 1.1438-.04719.02217.0128.03859.02843.04791.04726zm-.02375.81874c.04304-.5662-.0379-.74402-.04216-.75338-.17699-.06771-.55325.01768-.57305.02218.28714.52371.5988.72083.61521.7312" fill="#cfd8dd"/></g><g><g><path d="m4.1924 29.14284c.05564.03212.10114.10926.10096.17481-.00018.06394-.04598.09006-.10162.05794-.05706-.03295-.10256-.11177-.10238-.17572.00018-.06555.04598-.08998.10304-.05703z" fill="#cfd8dd"/></g><g><path d="m4.43941 28.70741c.14266.08237.25641.28103.25595.44334s-.11496.22919-.25762.14683c-.14123-.08154-.25641-.28103-.25595-.44334s.11639-.22837.25762-.14683z" fill="#cfd8dd"/></g></g><g><path d="m4.45918 28.40007c.05706.03295.10257.11177.10238.17732-.00018.06394-.04598.09006-.10304.05711-.05564-.03212-.10114-.11095-.10096-.17489.00018-.06555.04598-.09166.10162-.05954z" fill="#cfd8dd"/></g><g><path d="m4.86481 28.966c.05706.03295.10114.11086.10095.1765-.00018.06385-.04455.09079-.10162.05785-.05564-.03212-.10114-.11095-.10096-.1748.0002-.06564.046-.09167.10163-.05955z" fill="#cfd8dd"/></g><g><path d="m4.04132 28.50385c.05564.03212.10114.11095.10095.17649-.00018.06394-.04598.09006-.10162.05794-.05706-.03295-.10256-.11177-.10238-.17572.00018-.06554.04598-.09166.10305-.05871z" fill="#cfd8dd"/></g><g><path d="m6.19597 29.17299c.01651.04721.33026.9443-.01614 1.6605-.05818-.06758-1.1636-1.35158-1.09602-1.49812-.00237-.17205.8377-.1238 1.11216-.16238zm-.45854.96011c.13541-.38486-.00327-.78778-.01057-.80898-.47004-.02507-.53008.08532-.53324.09113.11224.22567.52223.69324.54381.71785" fill="#cfd8dd"/></g><g><path d="m4.69601 27.01478c.03659.02309.73173.46184 1.2516 1.55996-.04548.00834-.90955.16667-1.14961.02807-.02301-.01328-.03987-.02934-.04919-.04862-.12959-.15695-.04101-1.15989-.0528-1.53941zm.11871 1.47565c.17842.07014.55737-.00743.57732-.01152-.28286-.52614-.59451-.7279-.61091-.73852-.05019.56208.0294.74064.03359.75004" fill="#cfd8dd"/></g><g><path d="m4.81247 29.81937c.1948.11247.86772 1.02816 1.13639 1.3389-.01936.02469-.38721.4939-1.2464.13583-.00492-.07771-.09847-1.5543.07423-1.48577.00889-.00136.02095.00248.03578.01104zm-.00969.86597c.41402.12902.58157-.07678.59039-.08761-.3842-.52424-.54019-.629-.56691-.64443-.00288-.00166-.00419-.00225-.00419-.00225-.06195.15798-.02142.70548-.01929.73429" fill="#cfd8dd"/></g><g><path d="m4.23381 26.74463c.00428.07751.08563 1.55018-.08849 1.47753-.00863.00126-.02018-.00256-.03434-.01074-.19247-.11112-.86402-1.0368-1.13066-1.34984.01971-.02425.39432-.48489 1.25349-.11695zm-.13239 1.33558c.06332-.1572.02821-.70156.02636-.73021-.414-.13551-.58562.06794-.59465.07865.3855.53257.5405.63569.56481.64972.00235.00136.00342.00181.00342.00181" fill="#cfd8dd"/></g><g><path d="m4.46489 25.88141c1.49934.86564 2.71225 2.96484 2.70737 4.68769-.00489 1.72614-1.22573 2.42021-2.72506 1.55457-1.49934-.86564-2.71082-2.96401-2.70593-4.69016.00487-1.72285 1.22428-2.41774 2.72362-1.5521zm-.0155 5.46683c1.127.65067 2.04441.12955 2.04809-1.16872.00367-1.29498-.90779-2.8737-2.03479-3.52438-1.127-.65067-2.04442-.12786-2.04809 1.16713-.00368 1.29827.90779 2.8753 2.03479 3.52597" fill="#40545d"/></g></g></g></g><g><g><g enable-background="new"><g><path d="m49 34.56082-.00288 1.01721-14.21616 8.26153.00288-1.01721z" fill="#485f69"/></g><g><path d="m34.78384 42.82235-.00288 1.01721-33.78096-19.50344.00288-1.01722z" fill="#56707b"/></g><g><path d="m49 34.56082-14.21616 8.26153-33.78096-19.50345 14.21617-8.26153z" fill="#778c95"/></g></g></g><g><g><g enable-background="new"><g><path d="m45.97773 21.99318c-1.33966-.77737-3.18415-.65982-5.22274.52425-4.05787 2.32928-7.31963 7.99841-7.31963 12.65886.01943 2.31032.83485 3.94091 2.13576 4.69837l-31.90086-18.54391c-1.32023-.77642-2.13564-2.38805-2.13564-4.71733-.01943-4.6595 3.24233-10.30968 7.3002-12.65886 2.03859-1.16511 3.88308-1.28172 5.22274-.50529z" fill="#fed44c"/></g><g><path d="m40.74624 22.50895c-4.0535 2.34029-7.31536 8.00477-7.30216 12.66236.01321 4.65759 3.29643 6.52855 7.34993 4.18826 4.05351-2.34029 7.32781-7.99725 7.3146-12.65484-.0132-4.65758-3.30886-6.53608-7.36237-4.19578z" fill="#d8b441"/></g></g></g><g><g><g enable-background="new"><g><path d="m20.32708 7.10128c-1.33967-.77737-3.18415-.65982-5.22274.52425-4.05787 2.32928-7.31964 7.99842-7.31964 12.65887.01943 2.31032.83485 3.9409 2.13576 4.69837l-.97614-.5783c-1.32023-.77643-1.92838-2.26764-1.92838-4.59692-.01943-4.6595 3.24233-10.30968 7.3002-12.65886 2.03859-1.16511 3.88307-1.28172 5.22274-.50529z" fill="#d8b441"/></g></g></g><g><g enable-background="new"><g><path d="m22.6601 8.44973c-1.33967-.77737-3.18415-.65982-5.22274.52425-4.05787 2.32928-7.31963 7.99841-7.31963 12.65886.01943 2.31032.83485 3.9409 2.13576 4.69837l-.97614-.57831c-1.32023-.77642-1.92838-2.26764-1.92838-4.59692-.01943-4.6595 3.24233-10.30968 7.3002-12.65886 2.03859-1.16511 3.88307-1.28172 5.22274-.50529z" fill="#d8b441"/></g></g></g></g><g><g><g enable-background="new"><g><path d="m37.1776 16.88641c-1.33966-.77737-3.18415-.65982-5.22274.52425-4.05787 2.32928-7.31964 7.99841-7.31964 12.65886.01943 2.31032.83485 3.94091 2.13576 4.69837l-.97614-.5783c-1.32023-.77642-1.92838-2.26764-1.92838-4.59692-.01943-4.6595 3.24233-10.30968 7.3002-12.65886 2.03859-1.16511 3.88307-1.28172 5.22274-.50529z" fill="#d8b441"/></g></g></g><g><g enable-background="new"><g><path d="m39.48688 18.23486c-1.33966-.77737-3.18415-.65982-5.22274.52425-4.05787 2.32928-7.31963 7.99841-7.31963 12.65886.01943 2.31032.83485 3.9409 2.13576 4.69837l-.97614-.57831c-1.32023-.77642-1.92838-2.26764-1.92838-4.59692-.01943-4.6595 3.24233-10.30968 7.3002-12.65886 2.03859-1.16511 3.88308-1.28172 5.22274-.50529z" fill="#d8b441"/></g></g></g></g><g><g><g enable-background="new"><g><path d="m27.85662 10.38521-.01358 1.86722c-.00147.51964-.34313 1.03851-1.02566 1.43515-1.37384.79839-3.60699.79835-4.98979-.00001-.69586-.40176-1.04341-.9289-1.04192-1.45524l.01357-1.86722c-.00149.52634.34606 1.05349 1.04193 1.45524 1.3828.79836 3.61596.7984 4.98979.00001.68252-.39664 1.02419-.9155 1.02566-1.43515z" fill="#be9e39"/></g><g><path d="m26.81477 8.93001c1.38281.79836 1.39003 2.09197.01619 2.89035-1.37384.79839-3.60699.79835-4.98979-.00001-1.38281-.79837-1.39016-2.09189-.01633-2.89027 1.37384-.79839 3.60712-.79844 4.98993-.00007z" fill="#dde4e7"/></g></g></g><g><g enable-background="new"><g><path d="m28.40807 9.72961-.0157.83048c-.0017.60069-.39665 1.20049-1.18563 1.65899-1.58812.92291-4.16959.92288-5.76807-.00001-.8044-.46442-1.20616-1.07379-1.20443-1.68223l.01569-.83048c-.00172.60844.40004 1.2178 1.20444 1.68222 1.59849.92289 4.17996.92293 5.76808.00001.78896-.45849 1.18392-1.05829 1.18562-1.65898z" fill="#d8b441"/></g><g><path d="m27.20372 8.04743c1.59849.92289 1.60684 2.41826.01872 3.34117s-4.16959.92288-5.76808-.00001-1.60699-2.41817-.01887-3.34108 4.16973-.92297 5.76823-.00008z" fill="#fee182"/></g></g></g></g></g></g></g></svg>