<svg xmlns="http://www.w3.org/2000/svg" viewBox="0 0 52.2 117.44"><defs><style>.cls-1{fill:#f79043;}.cls-2{fill:#e87b31;}.cls-3{fill:#52362b;}.cls-4{fill:#fff;}.cls-5{fill:#ffb755;}.cls-6{fill:#f43838;}.cls-7{fill:#e52525;}.cls-8{fill:#52a5dd;}.cls-9{fill:#2680c4;}.cls-10{fill:#deb29e;}.cls-11{fill:#ffc2b0;}</style></defs><g id="Layer_2" data-name="Layer 2"><g id="Layer_1-2" data-name="Layer 1"><polygon class="cls-1" points="0 14.69 0 53.6 10 59.47 10 20.56 0 14.69"/><polygon class="cls-2" points="10 59.05 36 43.79 36 5.62 10 20.87 10 59.05"/><path class="cls-3" d="M11,57.42V31.13l11-6.45V51Zm0-26V56.57l10-5.86V25.53Z"/><path class="cls-4" d="M11,30V21.73l.11-.07L35,7.54v8.3l-.1.06ZM11,22V29.2L34,15.61V8.36Z"/><polygon class="cls-5" points="26 0 0 15.12 9.81 20.87 35.82 5.62 26 0"/><polygon class="cls-3" points="13 45.93 18 42.99 18 51.92 13 54.85 13 45.93"/><polygon class="cls-3" points="23 40.11 35 33.07 35 43.15 23 50.19 23 40.11"/><polygon class="cls-3" points="12 32.33 17 29.39 17 30.34 12 33.27 12 32.33"/><polygon class="cls-4" points="26 35.17 23 37.17 23 38.12 26 36.12 26 35.17"/><polygon class="cls-4" points="31 32.74 28 34.74 28 35.69 31 33.69 31 32.74"/><polygon class="cls-4" points="35 30.37 32 32.37 32 33.32 35 31.32 35 30.37"/><polygon class="cls-4" points="26 27.55 23 29.54 23 30.5 26 28.5 26 27.55"/><polygon class="cls-4" points="31 25.12 28 27.12 28 28.07 31 26.07 31 25.12"/><polygon class="cls-4" points="35 22.74 32 24.74 32 25.7 35 23.7 35 22.74"/><polygon class="cls-3" points="12 34.35 17 31.42 17 32.37 12 35.3 12 34.35"/><polygon class="cls-3" points="12 36.45 17 33.52 17 34.47 12 37.4 12 36.45"/><polygon class="cls-4" points="14 46.68 17 44.92 17 51.46 14 53.22 14 46.68"/><polygon class="cls-4" points="18 29.08 21 27.32 21 32.38 18 34.14 18 29.08"/><path class="cls-3" d="M14.33,21.31a4.73,4.73,0,0,0-2,3.77c0,1.46.88,2.13,2,1.5a4.74,4.74,0,0,0,2-3.78C16.31,21.35,15.42,20.68,14.33,21.31Z"/><path class="cls-4" d="M14.57,22.11a3.31,3.31,0,0,0-1.38,2.63c0,1,.62,1.47,1.38,1a3.33,3.33,0,0,0,1.37-2.63C15.94,22.14,15.32,21.67,14.57,22.11Z"/><path class="cls-3" d="M20.32,17.78a4.74,4.74,0,0,0-2,3.78c0,1.45.89,2.12,2,1.49a4.73,4.73,0,0,0,2-3.77C22.29,17.82,21.41,17.15,20.32,17.78Z"/><path class="cls-4" d="M20.55,18.59a3.26,3.26,0,0,0-1.37,2.62c0,1,.61,1.48,1.37,1a3.28,3.28,0,0,0,1.37-2.63C21.92,18.61,21.31,18.15,20.55,18.59Z"/><path class="cls-3" d="M26.18,14.26a4.73,4.73,0,0,0-2,3.77c0,1.46.88,2.12,2,1.49a4.74,4.74,0,0,0,2-3.77C28.16,14.3,27.27,13.63,26.18,14.26Z"/><path class="cls-4" d="M26.41,15.06A3.28,3.28,0,0,0,25,17.68c0,1,.61,1.48,1.37,1a3.29,3.29,0,0,0,1.38-2.62C27.79,15.09,27.17,14.62,26.41,15.06Z"/><path class="cls-3" d="M31.68,11a4.73,4.73,0,0,0-2,3.77c0,1.46.88,2.12,2,1.49a4.74,4.74,0,0,0,2-3.77C33.66,11,32.77,10.36,31.68,11Z"/><path class="cls-4" d="M31.91,11.79a3.28,3.28,0,0,0-1.37,2.62c0,1,.61,1.48,1.37,1a3.29,3.29,0,0,0,1.38-2.62C33.29,11.82,32.67,11.35,31.91,11.79Z"/><path class="cls-3" d="M32.93,18.45a3.1,3.1,0,0,0-1.28,2.45c0,1,.58,1.38,1.28,1a3.05,3.05,0,0,0,1.29-2.45C34.22,18.47,33.64,18,32.93,18.45Z"/><polygon class="cls-6" points="34.61 19.41 33.63 18.86 32.4 21.5 33.37 22.05 34.61 19.41"/><path class="cls-6" d="M33.05,18.94a2.27,2.27,0,0,0-.95,1.81c0,.7.43,1,.95.72a2.26,2.26,0,0,0,1-1.82C34,19,33.58,18.63,33.05,18.94Z"/><path class="cls-7" d="M34,19.47a2.29,2.29,0,0,0-1,1.82c0,.7.43,1,1,.71a2.25,2.25,0,0,0,1-1.81C35,19.49,34.53,19.17,34,19.47Z"/><path class="cls-3" d="M29,20.78a3.08,3.08,0,0,0-1.29,2.45c0,.95.58,1.39,1.29,1a3.08,3.08,0,0,0,1.28-2.46C30.3,20.8,29.73,20.37,29,20.78Z"/><polygon class="cls-8" points="30.69 21.74 29.71 21.19 28.48 23.83 29.45 24.38 30.69 21.74"/><path class="cls-8" d="M29.14,21.27a2.25,2.25,0,0,0-1,1.81c0,.7.43,1,1,.72A2.29,2.29,0,0,0,30.09,22C30.09,21.29,29.66,21,29.14,21.27Z"/><path class="cls-9" d="M30.09,21.8a2.26,2.26,0,0,0-.95,1.82c0,.7.42,1,.95.72A2.31,2.31,0,0,0,31,22.52C31,21.82,30.61,21.5,30.09,21.8Z"/><path class="cls-3" d="M24.71,23.35a3.08,3.08,0,0,0-1.29,2.46c0,.94.58,1.38,1.29,1A3.08,3.08,0,0,0,26,24.32C26,23.37,25.42,22.94,24.71,23.35Z"/><polygon class="cls-6" points="26.38 24.31 25.4 23.77 24.17 26.4 25.14 26.95 26.38 24.31"/><path class="cls-6" d="M24.83,23.84a2.25,2.25,0,0,0-.95,1.81c0,.7.42,1,.95.72a2.27,2.27,0,0,0,1-1.81C25.78,23.86,25.35,23.54,24.83,23.84Z"/><path class="cls-7" d="M25.78,24.37a2.28,2.28,0,0,0-1,1.82c0,.7.42,1,1,.72a2.31,2.31,0,0,0,.95-1.82C26.73,24.39,26.3,24.07,25.78,24.37Z"/><path class="cls-3" d="M13.86,37.44a1.87,1.87,0,0,0-.77,1.47c0,.57.35.83.77.59A1.85,1.85,0,0,0,14.63,38C14.63,37.46,14.29,37.2,13.86,37.44Z"/><polygon class="cls-6" points="14.87 38.02 14.28 37.69 13.54 39.27 14.12 39.6 14.87 38.02"/><path class="cls-6" d="M13.93,37.73a1.39,1.39,0,0,0-.57,1.09c0,.42.26.61.57.43a1.35,1.35,0,0,0,.57-1.09C14.5,37.74,14.25,37.55,13.93,37.73Z"/><path class="cls-7" d="M14.5,38.05a1.39,1.39,0,0,0-.57,1.09c0,.42.26.61.57.43a1.35,1.35,0,0,0,.57-1.09C15.07,38.07,14.82,37.87,14.5,38.05Z"/><path class="cls-3" d="M16.37,36a1.82,1.82,0,0,0-.77,1.47c0,.57.34.83.77.58a1.86,1.86,0,0,0,.77-1.47C17.14,36,16.79,35.72,16.37,36Z"/><polygon class="cls-6" points="17.37 36.54 16.78 36.22 16.04 37.8 16.63 38.12 17.37 36.54"/><path class="cls-6" d="M16.44,36.26a1.35,1.35,0,0,0-.57,1.09c0,.42.25.61.57.43A1.38,1.38,0,0,0,17,36.69C17,36.27,16.75,36.08,16.44,36.26Z"/><path class="cls-7" d="M17,36.58a1.35,1.35,0,0,0-.57,1.09c0,.42.25.61.57.43A1.38,1.38,0,0,0,17.58,37C17.58,36.59,17.32,36.4,17,36.58Z"/><path class="cls-3" d="M18.89,34.49A1.83,1.83,0,0,0,18.12,36c0,.57.34.83.77.58a1.84,1.84,0,0,0,.77-1.47C19.66,34.5,19.31,34.24,18.89,34.49Z"/><polygon class="cls-6" points="19.89 35.07 19.3 34.74 18.56 36.32 19.15 36.65 19.89 35.07"/><path class="cls-6" d="M19,34.78a1.35,1.35,0,0,0-.57,1.09c0,.42.25.61.57.43a1.38,1.38,0,0,0,.57-1.09C19.53,34.79,19.27,34.6,19,34.78Z"/><path class="cls-7" d="M19.53,35.1A1.36,1.36,0,0,0,19,36.19c0,.42.25.61.57.43a1.38,1.38,0,0,0,.57-1.09C20.1,35.11,19.84,34.92,19.53,35.1Z"/><path class="cls-3" d="M13.86,41.16a1.84,1.84,0,0,0-.77,1.47c0,.57.35.83.77.58a1.83,1.83,0,0,0,.77-1.47C14.63,41.17,14.29,40.91,13.86,41.16Z"/><polygon class="cls-6" points="14.87 41.73 14.28 41.41 13.54 42.98 14.12 43.31 14.87 41.73"/><path class="cls-6" d="M13.93,41.45a1.38,1.38,0,0,0-.57,1.09c0,.42.26.61.57.43a1.35,1.35,0,0,0,.57-1.09C14.5,41.46,14.25,41.27,13.93,41.45Z"/><path class="cls-7" d="M14.5,41.77a1.38,1.38,0,0,0-.57,1.09c0,.42.26.61.57.43a1.35,1.35,0,0,0,.57-1.09C15.07,41.78,14.82,41.59,14.5,41.77Z"/><path class="cls-3" d="M16.37,39.68a1.85,1.85,0,0,0-.77,1.47c0,.57.34.83.77.59a1.88,1.88,0,0,0,.77-1.48C17.14,39.7,16.79,39.44,16.37,39.68Z"/><polygon class="cls-6" points="17.37 40.26 16.78 39.93 16.04 41.51 16.63 41.84 17.37 40.26"/><path class="cls-6" d="M16.44,40a1.36,1.36,0,0,0-.57,1.09c0,.42.25.61.57.43A1.38,1.38,0,0,0,17,40.4C17,40,16.75,39.79,16.44,40Z"/><path class="cls-7" d="M17,40.29a1.36,1.36,0,0,0-.57,1.09c0,.42.25.61.57.43a1.37,1.37,0,0,0,.57-1.08C17.58,40.31,17.32,40.11,17,40.29Z"/><path class="cls-3" d="M18.89,38.21a1.82,1.82,0,0,0-.77,1.47c0,.56.34.83.77.58a1.87,1.87,0,0,0,.77-1.47C19.66,38.22,19.31,38,18.89,38.21Z"/><polygon class="cls-6" points="19.89 38.78 19.3 38.45 18.56 40.03 19.15 40.36 19.89 38.78"/><path class="cls-6" d="M19,38.5a1.35,1.35,0,0,0-.57,1.09c0,.42.25.61.57.43a1.38,1.38,0,0,0,.57-1.09C19.53,38.51,19.27,38.32,19,38.5Z"/><path class="cls-7" d="M19.53,38.82A1.35,1.35,0,0,0,19,39.91c0,.42.25.61.57.43a1.38,1.38,0,0,0,.57-1.09C20.1,38.83,19.84,38.64,19.53,38.82Z"/><path class="cls-3" d="M32.93,26.2a3.1,3.1,0,0,0-1.28,2.46c0,.95.58,1.38,1.28,1a3.08,3.08,0,0,0,1.29-2.45C34.22,26.23,33.64,25.79,32.93,26.2Z"/><polygon class="cls-6" points="34.61 27.17 33.63 26.62 32.4 29.25 33.37 29.8 34.61 27.17"/><path class="cls-6" d="M33.05,26.69a2.31,2.31,0,0,0-.95,1.82c0,.7.43,1,.95.72a2.28,2.28,0,0,0,1-1.82C34,26.71,33.58,26.39,33.05,26.69Z"/><path class="cls-7" d="M34,27.23a2.27,2.27,0,0,0-1,1.81c0,.7.43,1,1,.72A2.25,2.25,0,0,0,35,28C35,27.25,34.53,26.92,34,27.23Z"/><path class="cls-3" d="M29,28.53A3.08,3.08,0,0,0,27.73,31c0,1,.58,1.38,1.29,1a3.07,3.07,0,0,0,1.28-2.45C30.3,28.56,29.73,28.12,29,28.53Z"/><polygon class="cls-8" points="30.69 29.5 29.71 28.95 28.48 31.59 29.45 32.13 30.69 29.5"/><path class="cls-8" d="M29.14,29a2.29,2.29,0,0,0-1,1.82c0,.7.43,1,1,.72a2.31,2.31,0,0,0,.95-1.82C30.09,29,29.66,28.72,29.14,29Z"/><path class="cls-9" d="M30.09,29.56a2.25,2.25,0,0,0-.95,1.81c0,.7.42,1,.95.72A2.27,2.27,0,0,0,31,30.28C31,29.58,30.61,29.26,30.09,29.56Z"/><path class="cls-3" d="M24.71,31.11a3.08,3.08,0,0,0-1.29,2.45c0,.95.58,1.38,1.29,1A3.07,3.07,0,0,0,26,32.08C26,31.13,25.42,30.7,24.71,31.11Z"/><polygon class="cls-6" points="26.38 32.07 25.4 31.52 24.17 34.16 25.14 34.71 26.38 32.07"/><path class="cls-6" d="M24.83,31.59a2.28,2.28,0,0,0-.95,1.82c0,.7.42,1,.95.72a2.29,2.29,0,0,0,1-1.82C25.78,31.61,25.35,31.29,24.83,31.59Z"/><path class="cls-7" d="M25.78,32.13a2.26,2.26,0,0,0-1,1.82c0,.7.42,1,1,.71a2.27,2.27,0,0,0,.95-1.81C26.73,32.15,26.3,31.83,25.78,32.13Z"/><path class="cls-3" d="M26.31,109.49c2.15.09,6.5,2,6.5,2l3.72.87s1.48,3.18-.37,4.38c-1.39.9-2,.84-3.75.13-1.93-.79-3.74-1.06-6.1-3S24.16,109.4,26.31,109.49Z"/><path class="cls-3" d="M39.78,102.53a22.22,22.22,0,0,1,5.61,1.54l3.72.87s1.53,3.17-.37,4.38c-1.4.88-2,.84-3.76.13a17.87,17.87,0,0,1-5.76-3.19C36.86,104.3,37.63,102.44,39.78,102.53Z"/><path class="cls-8" d="M46.93,60.62c1,.77,1.65.63,2,2.74a48.09,48.09,0,0,1,.69,7.84c-.08,4.87-.82,9.84-.88,12.61-.15,6.59,1,19.31,1.15,21.12-2,2.31-6.11,1.22-7.41-.36-.1-.72-1.8-11.72-2.11-15.82-.42-5.56-.41-7.2-.46-12.3-1.72,5-2,11-2.22,15.27-.36,6.15-.41,19.68-.41,19.68s-.42,2.08-4.54,2.06c-1.83,0-3.72-2-3.72-2s-.1-12-.1-23.31c0-6.44,2.6-25.52,2.6-25.52S43.94,58.2,46.93,60.62Z"/><path class="cls-9" d="M43.68,43.37l-2-6.42s2.83-1.43,4.74.85a44.52,44.52,0,0,1,5.72,12.49c.47,2-1.23,5.68-2.19,7.6s-1.28,3.6-2.25,3.93-4.58-2.68-4.58-2.68.67-7.41,1-11a6.75,6.75,0,0,1-1.11.07A27.23,27.23,0,0,1,43.68,43.37Z"/><path class="cls-10" d="M48.65,41.58a9.52,9.52,0,0,1-2.92,2.24c-1.74.82.23,4.93.23,4.93s3.55-1.69,4.57-3.16A23,23,0,0,0,48.65,41.58Z"/><path class="cls-11" d="M37.38,24.36a4,4,0,0,1,5.69,1.95c.7,1.47-.29,5.44-.45,8.23a6.85,6.85,0,0,0,.63,3.55l-1.93.79a5.79,5.79,0,0,1-3.94,0l.07-3.43A9.2,9.2,0,0,1,35,34.81c-.88-.8-1.34-3.18-.93-6.26C34.68,24,36.83,24.75,37.38,24.36Z"/><path class="cls-8" d="M48.49,59.68c0,.53.1,1.19.19,1.91-2.48,1.71-6.81,2.5-9.61,2.36-3-.15-5.46-1.61-7.74-3.38.34-2.52.6-4.69.57-5.07a38.22,38.22,0,0,1-.4-6.19,22.08,22.08,0,0,1,2.85-8.77c.72-1.58,3-2.54,3-2.54a38.89,38.89,0,0,1,4.27-1.32c.48-.07,2.15-.18,2.15-.18s3.87,2.41,4.37,8.57c.08.93.32,3.06.56,5.45C48.84,52.05,48.28,56,48.49,59.68Z"/><path class="cls-9" d="M48.2,60.16l.21,3.2s-5.29,2-9.52,1.76A20.29,20.29,0,0,1,31,62.65V60.57s6.31,1.54,9.84,1.34A27.71,27.71,0,0,0,48.2,60.16Z"/><path class="cls-3" d="M42.1,22.49c1.43.83,4.47,2.34,3.41,7.27-.86,4-1.69,4.43-2.9,5.37a6.8,6.8,0,0,1-2.9,1,3.41,3.41,0,0,1-1.22-2.26c-.06-.47,0-1.91,0-1.91s1-2.09.24-2.83-1.76.47-2,1c-.71,1.79-1.42,2.62-1.24-.36-.23-.77-.76-2.55-.89-3.27a3.51,3.51,0,0,1,.94-3.26C36.71,22,40.67,21.66,42.1,22.49Z"/><path class="cls-9" d="M34.93,39.23c-2,.67-8,9.91-8.87,15.18A5.47,5.47,0,0,0,27,55.8c2.14,2.24,4.83-.4,6.49-1.89a.54.54,0,0,1,.27-.14C34.92,52,37,51.13,37.43,47,37.71,44.07,36.12,38.84,34.93,39.23Z"/><path class="cls-8" d="M36.51,24.92c2.65-1.05,6.37-.66,8.3.87s1.36,3.62-1.29,4.67-6.36.66-8.3-.87S33.87,26,36.51,24.92Z"/><path class="cls-8" d="M41.17,20.4c5.89.86,4.76,7.67,4.76,7.67l-11.84-.62S34.31,19.39,41.17,20.4Z"/><path class="cls-9" d="M37.89,20.71s.86-.8,2.39.09a4.16,4.16,0,0,1,1.81,2.41,2.44,2.44,0,0,1-1.17,3.22,7.71,7.71,0,0,0-2.13,2,2.82,2.82,0,0,1,.91-2.35c1.09-.91,2.11-1.39,1.48-2.87C40.41,21.38,37.89,20.71,37.89,20.71Z"/><path class="cls-9" d="M44.53,23.21c.06,1.19.78,1.26,1.37,2.06s.12,1.24.12,1.24a17.48,17.48,0,0,1-1.88-1.69c-.31-.44-.29-2.19-.61-2.7a5.7,5.7,0,0,0-2.36-1.72C44.89,20.63,44.49,22.41,44.53,23.21Z"/><path class="cls-9" d="M34.33,25.68A2.46,2.46,0,0,0,35.41,28c1.35,1.13,3.21,2.95,3.21,2.95S34.4,29.84,33,28.07,34.33,25.68,34.33,25.68Z"/><path class="cls-11" d="M23.81,40.05a13.74,13.74,0,0,1-2-3.9c-.38-1.7-.83-.85-1.17-.57s0,2.11,0,2.11a9.28,9.28,0,0,0-2.79-2.11,1.78,1.78,0,0,0-2.21,2.62c.92,1.67,4.54,2.67,5.79,4.36C22.1,43.44,24.84,41.69,23.81,40.05Z"/><path class="cls-9" d="M24.47,39.79C22.09,39.34,20,41.07,20.22,43a26.83,26.83,0,0,0,1.91,4.92C24,51.8,25.44,54.39,27,55.8s3.26-3.69,4-4.58S25.81,41.78,24.47,39.79Z"/><path class="cls-10" d="M48.3,45.07a24.63,24.63,0,0,1-5,1.22,49.89,49.89,0,0,1-5.3.46l0,5.17a49.79,49.79,0,0,0,7-.41,38.84,38.84,0,0,0,3.94-1Z"/><path class="cls-9" d="M45.06,36.78s-.24,1.34-2.75,1.69-8.22,1.32-8.22,1.32a26.62,26.62,0,0,1,3.33-3,8.68,8.68,0,0,1,5.21-1.19A4,4,0,0,1,45.06,36.78Z"/><path class="cls-10" d="M48.63,89.2a8.42,8.42,0,0,1-3.89,1.25A17,17,0,0,1,40.3,90l.44,3.72c.87.55,1.7,1,4.32,1a9.89,9.89,0,0,0,3.79-1.13Z"/><path class="cls-10" d="M37.65,94.33A6.43,6.43,0,0,1,34,96a16.63,16.63,0,0,1-5-.56l0,3.87a16.88,16.88,0,0,0,4.6.56,7.72,7.72,0,0,0,3.9-1.47Z"/><path class="cls-10" d="M36.12,50.93a6.17,6.17,0,0,0-2.69-3.17,13.55,13.55,0,0,0-3.85-1.86l-1.45,2.83a28.92,28.92,0,0,0,2.8,2.49c1.19.85,3,2.27,3,2.27Z"/><path class="cls-9" d="M33.66,62.4a21.86,21.86,0,0,0,.14,4.76c.36,2.88.39,5,.39,5S32,69,32.12,66s0-4.13,0-4.13Z"/></g></g></svg>