<svg xmlns="http://www.w3.org/2000/svg" viewBox="0 0 130.75 104.07"><defs><style>.cls-1{fill:#33150f;}.cls-2{fill:#52362b;}.cls-3{fill:#84524e;}.cls-4{fill:#fff;}.cls-5{fill:#262626;}.cls-6{fill:#95655f;}.cls-7{fill:#703e3c;}.cls-8{fill:#52a5dd;}.cls-9{fill:#deb29e;}.cls-10{fill:#2f94cc;}.cls-11{fill:#6abfef;}.cls-12{fill:#2680c4;}.cls-13{fill:#fc2e3d;}.cls-14{fill:#ffe4d9;}.cls-15{fill:#edc3b2;}.cls-16{fill:#bf8573;}.cls-17{fill:#a56d5e;}.cls-18{fill:#f43838;}.cls-19{fill:#ddb19e;}.cls-20{fill:#af7161;}</style></defs><g id="Layer_2" data-name="Layer 2"><g id="Layer_1-2" data-name="Layer 1"><polygon class="cls-1" points="67 71.53 72 74.42 72 79.54 67 76.66 67 71.53"/><path class="cls-1" d="M123.35,43.6c0,3.65-2.22,7.9-5,9.49s-5-.1-5-3.76,2.23-7.91,5-9.49S123.35,39.94,123.35,43.6Z"/><polygon class="cls-1" points="118.89 55.44 115.3 53.42 121.72 39.63 125.16 41.55 118.89 55.44"/><path class="cls-2" d="M127.08,45.67c0,3.66-2.22,7.91-5,9.5s-5-.1-5-3.76,2.22-7.91,5-9.49S127.08,42,127.08,45.67Z"/><path class="cls-3" d="M125.34,46.8A7.7,7.7,0,0,1,122.11,53c-1.77,1-3.22-.06-3.22-2.43a7.72,7.72,0,0,1,3.22-6.15C123.89,43.34,125.34,44.43,125.34,46.8Z"/><ellipse class="cls-4" cx="122.11" cy="48.66" rx="3.55" ry="2.01" transform="translate(29.53 141.97) rotate(-66.95)"/><path class="cls-2" d="M123.23,48a2.67,2.67,0,0,1-1.12,2.14c-.61.36-1.11,0-1.11-.85a2.69,2.69,0,0,1,1.11-2.13C122.73,46.81,123.23,47.19,123.23,48Z"/><path class="cls-2" d="M122.33,46.23a.51.51,0,0,1-.22.41c-.11.07-.21,0-.21-.16a.53.53,0,0,1,.21-.41C122.23,46,122.33,46.07,122.33,46.23Z"/><path class="cls-2" d="M123.78,46.23a.51.51,0,0,1-.22.41c-.11.07-.21,0-.21-.16a.53.53,0,0,1,.21-.41C123.68,46,123.78,46.07,123.78,46.23Z"/><path class="cls-2" d="M121,47.83a.51.51,0,0,1-.22.41c-.11.07-.21,0-.21-.16a.53.53,0,0,1,.21-.41C120.9,47.6,121,47.68,121,47.83Z"/><path class="cls-2" d="M123.78,49.24a.51.51,0,0,1-.22.41c-.11.07-.21,0-.21-.16a.53.53,0,0,1,.21-.41C123.68,49,123.78,49.08,123.78,49.24Z"/><path class="cls-2" d="M121,50.84a.51.51,0,0,1-.22.41c-.11.07-.21,0-.21-.16a.53.53,0,0,1,.21-.41C120.9,50.61,121,50.68,121,50.84Z"/><path class="cls-2" d="M124.12,47.62a.51.51,0,0,1-.21.41c-.12.07-.22,0-.22-.16a.5.5,0,0,1,.22-.41C124,47.39,124.12,47.46,124.12,47.62Z"/><path class="cls-2" d="M120.57,49.67a.51.51,0,0,1-.21.4c-.12.07-.22,0-.22-.16a.51.51,0,0,1,.22-.41C120.47,49.43,120.57,49.51,120.57,49.67Z"/><path class="cls-2" d="M122.33,50.84a.51.51,0,0,1-.22.41c-.11.07-.21,0-.21-.16a.53.53,0,0,1,.21-.41C122.23,50.61,122.33,50.68,122.33,50.84Z"/><path class="cls-1" d="M111.69,50.42c0,3.66-2.22,7.91-5,9.49s-5-.09-5-3.75,2.23-7.91,5-9.49S111.69,46.77,111.69,50.42Z"/><polygon class="cls-1" points="107.23 62.27 103.64 60.25 110.06 46.46 113.5 48.38 107.23 62.27"/><path class="cls-2" d="M115.42,52.5c0,3.66-2.22,7.91-5,9.49s-5-.09-5-3.75,2.22-7.91,5-9.49S115.42,48.84,115.42,52.5Z"/><path class="cls-3" d="M113.68,53.63a7.72,7.72,0,0,1-3.23,6.15c-1.77,1-3.22-.06-3.22-2.43a7.76,7.76,0,0,1,3.22-6.16C112.23,50.17,113.68,51.26,113.68,53.63Z"/><path class="cls-4" d="M112.77,54.15a5.53,5.53,0,0,1-2.32,4.42c-1.27.74-2.31,0-2.31-1.75a5.53,5.53,0,0,1,2.31-4.41C111.73,51.67,112.77,52.45,112.77,54.15Z"/><path class="cls-2" d="M111.57,54.84A2.67,2.67,0,0,1,110.45,57c-.61.35-1.11,0-1.11-.85A2.67,2.67,0,0,1,110.45,54C111.07,53.64,111.57,54,111.57,54.84Z"/><path class="cls-2" d="M110.67,53.06a.51.51,0,0,1-.22.41c-.11.07-.21,0-.21-.16a.53.53,0,0,1,.21-.41C110.57,52.83,110.67,52.9,110.67,53.06Z"/><path class="cls-2" d="M112.12,53.06a.51.51,0,0,1-.22.41c-.11.07-.21,0-.21-.16a.53.53,0,0,1,.21-.41C112,52.83,112.12,52.9,112.12,53.06Z"/><path class="cls-2" d="M109.34,54.66a.51.51,0,0,1-.22.41c-.11.07-.21,0-.21-.16a.53.53,0,0,1,.21-.41C109.24,54.43,109.34,54.5,109.34,54.66Z"/><path class="cls-2" d="M112.12,56.07a.53.53,0,0,1-.22.41c-.11.06-.21,0-.21-.17a.55.55,0,0,1,.21-.41C112,55.84,112.12,55.91,112.12,56.07Z"/><path class="cls-2" d="M109.34,57.67a.51.51,0,0,1-.22.41c-.11.07-.21,0-.21-.16a.53.53,0,0,1,.21-.41C109.24,57.44,109.34,57.51,109.34,57.67Z"/><path class="cls-2" d="M112.46,54.45a.49.49,0,0,1-.21.4c-.12.07-.22,0-.22-.16a.53.53,0,0,1,.22-.41C112.37,54.22,112.46,54.29,112.46,54.45Z"/><path class="cls-2" d="M108.91,56.49a.53.53,0,0,1-.21.41c-.12.07-.22,0-.22-.16a.51.51,0,0,1,.22-.41C108.81,56.26,108.91,56.34,108.91,56.49Z"/><path class="cls-2" d="M110.67,57.67a.51.51,0,0,1-.22.41c-.11.07-.21,0-.21-.16a.53.53,0,0,1,.21-.41C110.57,57.44,110.67,57.51,110.67,57.67Z"/><path class="cls-1" d="M67.46,75.79c0,3.65-2.22,7.9-5,9.49s-5-.1-5-3.76,2.22-7.91,5-9.49S67.46,72.13,67.46,75.79Z"/><polygon class="cls-1" points="63.01 87.63 59.41 85.61 65.83 71.82 69.27 73.75 63.01 87.63"/><path class="cls-2" d="M71.19,77.87c0,3.65-2.22,7.9-5,9.49s-5-.1-5-3.76,2.22-7.91,5-9.49S71.19,74.21,71.19,77.87Z"/><path class="cls-3" d="M69.45,79a7.72,7.72,0,0,1-3.22,6.15c-1.78,1-3.22-.06-3.22-2.43a7.69,7.69,0,0,1,3.22-6.15C68,75.53,69.45,76.62,69.45,79Z"/><path class="cls-4" d="M68.54,79.52a5.55,5.55,0,0,1-2.31,4.41c-1.28.74-2.32,0-2.32-1.75a5.53,5.53,0,0,1,2.32-4.41C67.5,77,68.54,77.81,68.54,79.52Z"/><path class="cls-2" d="M67.34,80.21a2.69,2.69,0,0,1-1.11,2.13c-.62.36-1.12,0-1.12-.84a2.67,2.67,0,0,1,1.12-2.14C66.84,79,67.34,79.38,67.34,80.21Z"/><path class="cls-2" d="M66.44,78.42a.53.53,0,0,1-.21.41c-.12.07-.22,0-.22-.16a.51.51,0,0,1,.22-.41C66.34,78.19,66.44,78.26,66.44,78.42Z"/><path class="cls-2" d="M67.89,78.42a.51.51,0,0,1-.22.41c-.11.07-.21,0-.21-.16a.53.53,0,0,1,.21-.41C67.79,78.19,67.89,78.26,67.89,78.42Z"/><path class="cls-2" d="M65.11,80a.51.51,0,0,1-.22.41c-.11.07-.21,0-.21-.16a.53.53,0,0,1,.21-.41C65,79.79,65.11,79.87,65.11,80Z"/><path class="cls-2" d="M67.89,81.43a.51.51,0,0,1-.22.41c-.11.07-.21,0-.21-.16a.53.53,0,0,1,.21-.41C67.79,81.2,67.89,81.27,67.89,81.43Z"/><path class="cls-2" d="M65.11,83a.51.51,0,0,1-.22.41c-.11.07-.21,0-.21-.16a.53.53,0,0,1,.21-.41C65,82.8,65.11,82.87,65.11,83Z"/><path class="cls-2" d="M68.23,79.81a.51.51,0,0,1-.21.41c-.12.07-.21,0-.21-.16a.49.49,0,0,1,.21-.41C68.14,79.58,68.23,79.65,68.23,79.81Z"/><path class="cls-2" d="M64.68,81.86a.51.51,0,0,1-.21.4c-.12.07-.22,0-.22-.16a.53.53,0,0,1,.22-.41C64.58,81.63,64.68,81.7,64.68,81.86Z"/><path class="cls-2" d="M66.44,83a.53.53,0,0,1-.21.41c-.12.07-.22,0-.22-.16a.51.51,0,0,1,.22-.41C66.34,82.8,66.44,82.87,66.44,83Z"/><path class="cls-5" d="M48.12,89.39l-3.81-2.31-2.56-2s2-.75,2.23-.87S49.11,85.8,48.12,89.39Z"/><polygon class="cls-6" points="37.56 82.94 49.73 75.91 59.67 81.65 47.5 88.67 37.56 82.94"/><polygon class="cls-3" points="59 81.81 47 88.74 47 93.45 59 86.53 59 81.81"/><polygon class="cls-2" points="59 85.64 49 91.39 49 91.95 59 86.21 59 85.64"/><polygon class="cls-2" points="59 84.44 49 90.19 49 90.75 59 85.01 59 84.44"/><polygon class="cls-6" points="62.05 69.33 94.42 50.19 104.35 55.93 71.99 75.07 62.05 69.33"/><polygon class="cls-3" points="104 56.07 72 74.99 72 79.78 104 60.87 104 56.07"/><polygon class="cls-2" points="103 60.13 73 77.72 73 78.26 103 60.67 103 60.13"/><polygon class="cls-2" points="103 58.92 73 76.51 73 77.06 103 59.47 103 58.92"/><polygon class="cls-7" points="41.77 90.74 128 40.97 128 38.99 100.98 25.37 14.75 75.14 41.77 90.74"/><polygon class="cls-6" points="42.03 88.76 128.26 38.99 101.24 23.39 15.02 73.16 42.03 88.76"/><path class="cls-8" d="M54.56,79.35l72-41.46v0c2.44-1.39,4-4.14,4.15-8L51.78,75.42Z"/><path class="cls-8" d="M122.57,9.86,47.74,52.93l-1.15-1,75-43.19c-.44-.48-.89-.95-1.35-1.4L42.43,52.2l-3.32-3.93L116.16,3.92c-.7-.5-1.4-1-2.12-1.38a22.43,22.43,0,0,0-3.11-1.49L37,43.59l-4.95-.86L106.3,0a8.54,8.54,0,0,0-5.44,1.46h0l-72,41.47L48,70.06l81.76-47.21A36.55,36.55,0,0,0,122.57,9.86Z"/><path class="cls-9" d="M37,43.59,110.93,1.05a14.71,14.71,0,0,0-4.63-1L32.09,42.73Z"/><path class="cls-10" d="M37,43.59,110.93,1.05a14.71,14.71,0,0,0-4.63-1L32.09,42.73Z"/><path class="cls-9" d="M47.74,52.93,122.57,9.86c-.3-.37-.62-.73-.94-1.08L46.59,52Z"/><path class="cls-11" d="M47.74,52.93,122.57,9.86c-.3-.37-.62-.73-.94-1.08L46.59,52Z"/><path class="cls-9" d="M42.43,52.2,120.28,7.38a32.56,32.56,0,0,0-4.12-3.46l-77,44.35Z"/><path class="cls-11" d="M42.43,52.2,120.28,7.38a32.56,32.56,0,0,0-4.12-3.46l-77,44.35Z"/><path class="cls-9" d="M129.76,22.85,48,70.06l3.78,5.36,78.94-45.57c0-.25,0-.48,0-.73A22.52,22.52,0,0,0,129.76,22.85Z"/><path class="cls-10" d="M129.76,22.85,48,70.06l3.78,5.36,78.94-45.57c0-.25,0-.48,0-.73A22.52,22.52,0,0,0,129.76,22.85Z"/><ellipse class="cls-12" cx="42.25" cy="60.79" rx="12.67" ry="22.32" transform="translate(-27.82 36.91) rotate(-36.38)"/><polygon class="cls-13" points="27 46.52 27 71.58 29.82 69.75 8.09 57.24 27 46.52"/><polygon class="cls-13" points="22.98 73.99 2 86.1 2 73.11 4.67 64.05 22.98 73.99"/><path class="cls-14" d="M5.25,61a6.35,6.35,0,0,1,2.92-3.7l.1-.06L30,69.75l6.71,3.86-.84,7.54L22.66,74,4.35,64.05Z"/><path class="cls-15" d="M6.22,59.05,33,74.14l-5.22,14-26.07-15s2.67-9.45,3.85-12.87A9.93,9.93,0,0,1,6.22,59.05Z"/><path class="cls-1" d="M44.1,89c0,3.66-2.23,7.91-5,9.5s-5-.1-5-3.76,2.23-7.91,5-9.49S44.1,85.34,44.1,89Z"/><polygon class="cls-1" points="39.64 100.84 36.05 98.82 42.47 85.03 45.91 86.95 39.64 100.84"/><path class="cls-2" d="M47.83,91.07c0,3.66-2.22,7.91-5,9.5s-5-.1-5-3.76,2.22-7.91,5-9.49S47.83,87.42,47.83,91.07Z"/><ellipse class="cls-3" cx="42.86" cy="94.06" rx="4.94" ry="2.8" transform="translate(-60.47 96.67) rotate(-66.95)"/><path class="cls-4" d="M45.17,92.73a5.52,5.52,0,0,1-2.31,4.41c-1.27.74-2.31,0-2.31-1.75A5.55,5.55,0,0,1,42.86,91C44.14,90.24,45.17,91,45.17,92.73Z"/><path class="cls-2" d="M44,93.41a2.67,2.67,0,0,1-1.12,2.14c-.61.35-1.11,0-1.11-.85a2.69,2.69,0,0,1,1.11-2.13C43.48,92.21,44,92.59,44,93.41Z"/><path class="cls-2" d="M43.08,91.63a.51.51,0,0,1-.22.41c-.12.07-.21,0-.21-.16a.51.51,0,0,1,.21-.41C43,91.4,43.08,91.47,43.08,91.63Z"/><path class="cls-2" d="M44.53,91.63a.51.51,0,0,1-.22.41c-.12.07-.21,0-.21-.16a.51.51,0,0,1,.21-.41C44.43,91.4,44.53,91.47,44.53,91.63Z"/><path class="cls-2" d="M41.75,93.23a.51.51,0,0,1-.22.41c-.12.07-.21,0-.21-.16a.51.51,0,0,1,.21-.41C41.65,93,41.75,93.08,41.75,93.23Z"/><path class="cls-2" d="M44.53,94.64a.51.51,0,0,1-.22.41c-.12.07-.21,0-.21-.16a.49.49,0,0,1,.21-.41C44.43,94.41,44.53,94.48,44.53,94.64Z"/><path class="cls-2" d="M41.75,96.24a.51.51,0,0,1-.22.41c-.12.07-.21,0-.21-.16a.51.51,0,0,1,.21-.41C41.65,96,41.75,96.08,41.75,96.24Z"/><path class="cls-2" d="M44.87,93a.52.52,0,0,1-.21.41c-.12.06-.22,0-.22-.17a.5.5,0,0,1,.22-.4C44.78,92.79,44.87,92.86,44.87,93Z"/><path class="cls-2" d="M41.32,95.06a.5.5,0,0,1-.22.41c-.11.07-.21,0-.21-.16a.53.53,0,0,1,.21-.41C41.22,94.83,41.32,94.91,41.32,95.06Z"/><path class="cls-2" d="M43.08,96.24a.51.51,0,0,1-.22.41c-.12.07-.21,0-.21-.16a.51.51,0,0,1,.21-.41C43,96,43.08,96.08,43.08,96.24Z"/><path class="cls-16" d="M53,61.73,34.45,72.44a6.31,6.31,0,0,0-2.92,3.7L28,88.09v12.84l7.73-4.46c.64-4.39,3.31-9,6.52-10.81s5.88-.37,6.51,3.28L53,86.5Z"/><polygon class="cls-17" points="39 87.88 39 69.21 40 68.9 40 87.88 39 87.88"/><path class="cls-4" d="M42.15,86.38c-2.94,1.7-5.39,5.88-6,9.91l-.61.35c.64-4.44,3.35-9.06,6.59-10.93s6-.38,6.59,3.32l-.62.36C47.54,86,45.09,84.68,42.15,86.38Z"/><polygon class="cls-9" points="2 73.15 28 88.16 28 101.12 2 86.11 2 73.15"/><polygon class="cls-4" points="122 38.78 124 37.8 124 35.55 122 36.52 122 38.78"/><polygon class="cls-16" points="122 36.26 121 36.52 121 38.78 122 38.52 122 36.26"/><polygon class="cls-14" points="121.75 36.26 123.44 35.29 123.9 35.55 122.21 36.52 121.75 36.26"/><polygon class="cls-4" points="67 70.97 69 70 69 67.74 67 68.71 67 70.97"/><polygon class="cls-16" points="66 68.45 66 68.71 66 70.97 66 70.71 66 68.45"/><polygon class="cls-14" points="66.23 68.45 67.92 67.48 68.38 67.74 66.68 68.71 66.23 68.45"/><polygon class="cls-14" points="2 73.14 28 88.15 28 89.17 2 74.16 2 73.14"/><polygon class="cls-17" points="53 73.66 28 88.09 28 89.1 53 74.67 53 73.66"/><path class="cls-2" d="M23,90.11v.72L6,81v-.72s0-.05,0-.08L23,90S23,90.08,23,90.11Z"/><path class="cls-2" d="M23,93.74A1.25,1.25,0,0,1,23,94L6,84.16a2,2,0,0,1,0-.23v-.59l17,9.82Z"/><path class="cls-2" d="M7.24,79.19l14.92,8.62a2.69,2.69,0,0,1,1.09,1.46L6.16,79.4A.73.73,0,0,1,7.24,79.19Z"/><polygon class="cls-2" points="23 92.37 6 82.56 6 81.8 23 91.61 23 92.37"/><path class="cls-2" d="M22.16,94.84,7.24,86.22a2.71,2.71,0,0,1-1-1.28l17,9.79A.75.75,0,0,1,22.16,94.84Z"/><path class="cls-3" d="M23.25,89.27a2.92,2.92,0,0,1,.17.86L6,80.06a1.52,1.52,0,0,1,.18-.66Z"/><polygon class="cls-3" points="23 91.59 6 81.78 6 81.03 23 90.85 23 91.59"/><polygon class="cls-3" points="23 93.14 6 83.32 6 82.58 23 92.39 23 93.14"/><path class="cls-3" d="M23.18,94.73,6.23,84.94A2.93,2.93,0,0,1,6,84L23.41,94.1A1.08,1.08,0,0,1,23.18,94.73Z"/><path class="cls-18" d="M1,75.93l2.87,1.43A2.65,2.65,0,0,1,5,79.81v3.65c.14.93-.43,1.36-1.13,1L1,83Z"/><path class="cls-18" d="M25.5,89.74,28,91v7l-2.5-1.29A4.1,4.1,0,0,1,24,94.35V90.7C24.23,89.77,24.8,89.34,25.5,89.74Z"/><path class="cls-4" d="M24.79,91.3A2.85,2.85,0,0,0,26,93.58c.67.39,1.2,0,1.2-.9A2.85,2.85,0,0,0,26,90.39C25.32,90,24.79,90.42,24.79,91.3Z"/><path class="cls-4" d="M25.32,95a2.23,2.23,0,0,0,.93,1.78c.51.3.93,0,.93-.7a2.24,2.24,0,0,0-.93-1.78C25.74,94,25.32,94.28,25.32,95Z"/><path class="cls-4" d="M2.11,78.13A2.85,2.85,0,0,0,3.3,80.41c.67.39,1.2,0,1.2-.9a2.85,2.85,0,0,0-1.2-2.29C2.64,76.84,2.11,77.25,2.11,78.13Z"/><path class="cls-4" d="M2.64,81.79a2.23,2.23,0,0,0,.93,1.78c.52.3.93,0,.93-.7a2.21,2.21,0,0,0-.93-1.78C3.06,80.79,2.64,81.11,2.64,81.79Z"/><path class="cls-8" d="M6.74,61.55l-2.9,9.17-.35-.2,2.65-8.71a1,1,0,0,1,1-.7A.7.7,0,0,0,6.74,61.55Z"/><path class="cls-2" d="M25.31,85.63,4.58,73.71a2.55,2.55,0,0,1-1.16-3l.07-.23,24,13.9-.1.36A1.46,1.46,0,0,1,25.31,85.63Z"/><path class="cls-8" d="M13.87,66.8C15.78,68,24.69,73,30.05,76a.08.08,0,0,1,0,0l-2.5,8.4L6.19,72.08l.95-2.94C8.44,65.12,11.11,65.13,13.87,66.8Z"/><path class="cls-10" d="M6.74,61.55a.7.7,0,0,1,.4-.44.88.88,0,0,1,.44.12l21.34,12A2.39,2.39,0,0,1,30.05,76c-5.36-3-14.27-8-16.18-9.18-2.76-1.67-5.43-1.68-6.73,2.34l-.95,2.94L3.84,70.72Z"/><path class="cls-16" d="M33,97.32v2.52a2.7,2.7,0,0,1-1.34,2.08l-.36-3Z"/><polygon class="cls-9" points="27.57 101.37 27.51 104.07 23 101.46 23.04 98.75 27.57 101.37"/><polygon class="cls-9" points="0 85.33 5 87.94 5 90.61 0 88 0 85.33"/><polygon class="cls-2" points="23 98.8 22.96 101.53 4 90.56 4 87.86 23 98.8"/><polygon class="cls-4" points="8 90.31 19.86 97.14 19.82 98.75 8 91.91 8 90.31"/><path class="cls-16" d="M28,101.41v2.52l3.1-1.79a2,2,0,0,0,.9-1.56V99.1Z"/><path class="cls-14" d="M33.06,97.32l-5,2.88L2,85.13V84.4l-1.68.93L28.09,101.4l3.43-2a3.08,3.08,0,0,0,1.35-1.22Z"/><path class="cls-4" d="M20.57,98.56a1.66,1.66,0,0,0,.7,1.33c.38.23.7,0,.7-.52a1.69,1.69,0,0,0-.7-1.34C20.88,97.81,20.57,98,20.57,98.56Z"/><path class="cls-4" d="M5.28,89.73A1.66,1.66,0,0,0,6,91.06c.38.23.7,0,.7-.52A1.69,1.69,0,0,0,6,89.2C5.59,89,5.28,89.22,5.28,89.73Z"/><polygon class="cls-15" points="34.34 72.29 53.03 61.5 26.96 46.45 8.27 57.24 34.34 72.29"/><path class="cls-16" d="M35.32,67.6,50,59.87V56.62S45.15,59,40.93,60.91,35.32,67.6,35.32,67.6Z"/><path class="cls-14" d="M35.62,67.6s.67-2.46,4-4.9c2.69-2,10.73-6.08,10.73-6.08L29.83,44.79s-7.91,4.13-10.64,6c-3.61,2.51-4,5-4,5Z"/><path class="cls-10" d="M34.14,74.36l3.38-1.94a.54.54,0,0,1,.86.24.72.72,0,0,0-.32.11l-3.37,1.94A1.6,1.6,0,0,0,34,76.54v6c-.27.19-.24.35-.18.48-.37,0-.63-.28-.82-.83v-6A3.27,3.27,0,0,1,34.14,74.36Z"/><path class="cls-8" d="M34,76.47a2.4,2.4,0,0,1,1-1.92l3.56-2.06a.76.76,0,0,1,.33-.11,1.29,1.29,0,0,1,.1.51V79.2a2.4,2.4,0,0,1-1,1.92l-3.56,2.06a.76.76,0,0,1-.33.11,1.29,1.29,0,0,1-.1-.51Z"/><polygon class="cls-4" points="33 95.9 35 94.92 35 92.66 33 93.64 33 95.9"/><polygon class="cls-19" points="34 93.37 33 93.64 33 95.9 34 95.63 34 93.37"/><polygon class="cls-14" points="32.86 93.37 34.55 92.4 35.01 92.66 33.32 93.64 32.86 93.37"/><polygon class="cls-4" points="50 86.15 52 85.17 52 82.91 50 83.89 50 86.15"/><polygon class="cls-19" points="49 83.63 49 83.89 49 86.15 49 85.89 49 83.63"/><polygon class="cls-14" points="49.22 83.63 50.92 82.65 51.38 82.92 49.68 83.89 49.22 83.63"/><path class="cls-20" d="M58.57,39.4c0,2-2.84,3.56-6.33,3.56s-6.33-1.59-6.33-3.56,2.83-3.56,6.33-3.56S58.57,37.43,58.57,39.4Z"/><rect class="cls-20" x="46" y="36.88" width="13" height="2"/><path class="cls-14" d="M58.57,37.49c0,2-2.84,3.56-6.33,3.56s-6.33-1.6-6.33-3.56,2.83-3.57,6.33-3.57S58.57,35.52,58.57,37.49Z"/><path class="cls-20" d="M109.51,10.08c0,2-2.84,3.56-6.34,3.56s-6.33-1.59-6.33-3.56,2.84-3.57,6.33-3.57S109.51,8.11,109.51,10.08Z"/><rect class="cls-20" x="97" y="7.88" width="13" height="2"/><path class="cls-14" d="M109.51,8.16c0,2-2.84,3.57-6.34,3.57s-6.33-1.6-6.33-3.57,2.84-3.56,6.33-3.56S109.51,6.2,109.51,8.16Z"/></g></g></svg>