<?xml version="1.0" encoding="utf-8"?>
<!-- Generator: Adobe Illustrator 24.1.2, SVG Export Plug-In . SVG Version: 6.00 Build 0)  -->
<svg version="1.1" id="Layer_1" xmlns="http://www.w3.org/2000/svg" xmlns:xlink="http://www.w3.org/1999/xlink" x="0px" y="0px"
	 width="512px" height="512px" viewBox="0 0 512 512" enable-background="new 0 0 512 512" xml:space="preserve">
<g>
	<circle fill="#EADED4" cx="256" cy="256" r="256"/>
</g>
<g>
	<path fill="#264C75" d="M305,337.7v112c-21.5-4.2-43-9.5-64.7-16.1v-96H305z"/>
	<rect x="240.3" y="337.7" fill="#0F3251" width="64.7" height="24.4"/>
	<path fill="#264C75" d="M168.3,120.5L168.3,120.5c-47.2,0-85.5,38.3-85.5,85.5v131.7h171V206C253.8,158.8,215.5,120.5,168.3,120.5z
		"/>
	<g>
		<g>
			<path fill="#F79831" d="M292.9,171.9v110.4c0,7.7-6.3,14-14,14H76.7c-7.7,0-14-6.3-14-14V171.9l115.1,67.9L292.9,171.9z"/>
			<path fill="#F9B630" d="M289,292l-74.1-74.1l-37.1,21.9l-37.1-21.9L66.6,292c2.5,2.7,6.1,4.4,10.1,4.4h202.1
				C282.9,296.4,286.4,294.7,289,292z"/>
			<g>
				<polygon fill="#F79831" points="177.8,249.9 223.3,226.3 214.9,217.9 177.8,239.8 140.7,217.9 132.3,226.2 				"/>
			</g>
		</g>
		<polygon fill="#F9B630" points="62.7,171.9 292.9,171.9 177.8,239.8 		"/>
	</g>
	<g>
		<g>
			<g>
				<rect x="41" y="318.5" fill="#2390E2" width="212.8" height="19.1"/>
				<path fill="#2390E2" d="M385.5,120.5H168.3c47.2,0,85.5,38.3,85.5,85.5v131.7H471V206C471,158.8,432.7,120.5,385.5,120.5z"/>
			</g>
			<g>
				<rect x="41" y="327.4" fill="#0E80C6" width="212.8" height="10.3"/>
				<rect x="253.8" y="327.4" fill="#0E80C6" width="217.2" height="10.3"/>
			</g>
			<path fill="#0E80C6" d="M385.5,120.5L385.5,120.5h-81.3c47.2,0,85.5,38.3,85.5,85.5v131.7H471V206
				C471,158.8,432.7,120.5,385.5,120.5z"/>
			<g>
				<circle fill="#FFFFFF" cx="302.1" cy="256" r="25.5"/>
				<path fill="#264C75" d="M316.1,256c0-7.7-6.3-14-14-14c-7.7,0-14,6.3-14,14c0,7.7,6.3,14,14,14C309.8,270,316.1,263.8,316.1,256
					z"/>
				<rect x="297.7" y="62.3" fill="#264C75" width="8" height="193.7"/>
				<polygon fill="#F43B51" points="305.5,132.5 382.7,98.8 305.5,65.2 				"/>
			</g>
		</g>
		<polygon fill="#CC2340" points="356.3,87.3 305.5,104.7 305.5,132.5 382.7,98.8 		"/>
	</g>
	<path opacity="0.29" fill="#264C75" d="M253.8,206v131.7h0v-19.1H232V206c0-43.5-32.5-79.4-74.6-84.7c3.6-0.5,7.2-0.7,10.9-0.7h0
		C215.5,120.5,253.8,158.8,253.8,206z"/>
</g>
</svg>
