<?xml version="1.0" encoding="utf-8"?>
<!-- Generator: Adobe Illustrator 24.1.2, SVG Export Plug-In . SVG Version: 6.00 Build 0)  -->
<svg version="1.1" id="Layer_1" xmlns="http://www.w3.org/2000/svg" xmlns:xlink="http://www.w3.org/1999/xlink" x="0px" y="0px"
	 width="512px" height="512px" viewBox="0 0 512 512" enable-background="new 0 0 512 512" xml:space="preserve">
<g>
	<circle fill="#FFFFFF" cx="256" cy="256" r="256"/>
</g>
<polygon fill="#FFC837" stroke="#E5AA0A" stroke-width="13.0583" stroke-miterlimit="10" points="381.5,141 381.5,160.2 
	354.5,160.2 354.5,141 70.5,141 70.5,165.6 79.3,165.6 79.3,399.8 432.7,399.8 432.7,165.6 441.5,165.6 441.5,141 "/>
<path fill="#F7931E" d="M429.6,138.8c-54.7-10.2-111.1-15.7-168.7-16v-3.6c1.9-0.7,3.3-1.8,3.3-3.1c0-2.1-3.7-3.9-8.1-3.9
	c-4.5,0-8.1,1.8-8.1,3.9c0,1.3,1.3,2.4,3.3,3.1v3.6c-58.1,0.2-114.9,5.7-170.1,16h278.2v15.7h17.5v-15.7H429.6z"/>
<path opacity="0.5" fill="#FFFFFF" d="M117.6,368.1c0,5.8-2.6,10.6-5.8,10.6h-7.8c-3.2,0-5.8-4.8-5.8-10.6V197.3
	c0-5.8,2.6-10.6,5.8-10.6h7.8c3.2,0,5.8,4.8,5.8,10.6V368.1z M105.8,146.4H96v13.8h9.8V146.4z M123.1,146.4h-9.8v13.8h9.8V146.4z
	 M140.3,146.4h-9.8v13.8h9.8V146.4z M157.5,146.4h-9.8v13.8h9.8V146.4z M174.7,146.4H165v13.8h9.8V146.4z M192,146.4h-9.8v13.8h9.8
	V146.4z M209.2,146.4h-9.8v13.8h9.8V146.4z M226.4,146.4h-9.8v13.8h9.8V146.4z M243.7,146.4h-9.8v13.8h9.8V146.4z M260.9,146.4h-9.8
	v13.8h9.8V146.4z M278.1,146.4h-9.8v13.8h9.8V146.4z M295.4,146.4h-9.8v13.8h9.8V146.4z M312.6,146.4h-9.8v13.8h9.8V146.4z
	 M329.8,146.4H320v13.8h9.8V146.4z M347,146.4h-9.8v13.8h9.8V146.4z M398.8,146.4h-9.8v13.8h9.8V146.4z M416,146.4h-9.8v13.8h9.8
	V146.4z M88.6,146.4h-9.8v13.8h9.8V146.4z M433.2,146.4h-9.8v13.8h9.8V146.4z"/>
<g>
	<rect x="101" y="185" fill="#9E005D" width="310" height="69"/>
</g>
<g>
	<rect x="101" y="254" fill="#00A99D" width="310" height="69"/>
</g>
<g>
	<rect x="101" y="323" fill="#0071BC" width="310" height="69"/>
</g>
<path fill="none" stroke="#000000" stroke-width="1.1987" stroke-linecap="round" stroke-miterlimit="10" d="M359.7,399.7v-11.1
	h16.5v11.1h4V165.6h-4v11.7h-16.5v-11.7h-4v234.1H359.7z M359.7,181.8h16.5v12.7h-16.5V181.8z M359.7,199h16.5v12.7h-16.5V199z
	 M359.7,216.3h16.5V229h-16.5V216.3z M359.7,233.5h16.5v12.7h-16.5V233.5z M359.7,250.7h16.5v12.7h-16.5V250.7z M359.7,268h16.5
	v12.7h-16.5V268z M359.7,285.2h16.5v12.7h-16.5V285.2z M359.7,302.4h16.5v12.7h-16.5V302.4z M359.7,319.7h16.5v12.7h-16.5V319.7z
	 M359.7,336.9h16.5v12.7h-16.5V336.9z M359.7,354.1h16.5v12.7h-16.5V354.1z M359.7,371.3h16.5v12.7h-16.5V371.3z"/>
</svg>
