<?xml version="1.0" encoding="utf-8"?>
<!-- Generator: Adobe Illustrator 24.1.2, SVG Export Plug-In . SVG Version: 6.00 Build 0)  -->
<svg version="1.1" id="Layer_1" xmlns="http://www.w3.org/2000/svg" xmlns:xlink="http://www.w3.org/1999/xlink" x="0px" y="0px"
	 width="512px" height="512px" viewBox="0 0 512 512" style="enable-background:new 0 0 512 512;" xml:space="preserve">
<style type="text/css">
	.st0{clip-path:url(#SVGID_2_);}
	.st1{fill:url(#SVGID_3_);}
	.st2{fill:#FFFFFF;}
	.st3{fill:#86A4B6;}
	.st4{fill:url(#SVGID_4_);}
	.st5{fill:url(#SVGID_5_);}
	.st6{fill:url(#SVGID_6_);}
	.st7{fill:url(#SVGID_7_);}
	.st8{fill:url(#SVGID_8_);}
	.st9{fill:url(#SVGID_9_);}
	.st10{fill:url(#SVGID_10_);}
	.st11{clip-path:url(#SVGID_14_);}
	.st12{clip-path:url(#SVGID_16_);fill:#E9EFF4;}
	.st13{clip-path:url(#SVGID_16_);fill:#D0D1D3;}
	.st14{clip-path:url(#SVGID_16_);fill:#FED8B2;}
	.st15{clip-path:url(#SVGID_16_);fill:#EFC095;}
	.st16{clip-path:url(#SVGID_16_);fill:#F4E3C3;}
	.st17{clip-path:url(#SVGID_16_);fill:#3F3B3B;}
	.st18{clip-path:url(#SVGID_16_);fill:#272525;}
	.st19{clip-path:url(#SVGID_16_);fill:#FC9483;}
	.st20{clip-path:url(#SVGID_16_);fill:#FD8469;}
	.st21{clip-path:url(#SVGID_16_);fill:#324A5E;}
	.st22{clip-path:url(#SVGID_16_);fill:#2B3B4E;}
	.st23{clip-path:url(#SVGID_16_);fill:#1B2B3A;}
	.st24{clip-path:url(#SVGID_16_);fill:#FC6F58;}
	.st25{clip-path:url(#SVGID_16_);fill:#FFFFFF;}
</style>
<g>
	<defs>
		<circle id="SVGID_1_" cx="256" cy="256" r="256"/>
	</defs>
	<clipPath id="SVGID_2_">
		<use xlink:href="#SVGID_1_"  style="overflow:visible;"/>
	</clipPath>
	<g class="st0">
		<g>
			<linearGradient id="SVGID_3_" gradientUnits="userSpaceOnUse" x1="26.5169" y1="54.4126" x2="250.3212" y2="54.4126">
				<stop  offset="0" style="stop-color:#C8FF4A"/>
				<stop  offset="1" style="stop-color:#009E00"/>
			</linearGradient>
			<path class="st1" d="M218.6-36.1l-18.2,1.4c-2.5-32-29.2-57.2-61.8-57.2c-34.2,0-62,27.8-62,62c0,1.7,0.1,3.3,0.2,5L53.3-23
				c-0.7,0.1-1.3,0.1-2,0.2c-23.8,3.3-33,32.9-16.1,49.9L200.1,192c18.5,18.5,50.2,5.4,50.2-20.8V-6.8
				C250.3-23.9,235.7-37.5,218.6-36.1z"/>
			
				<ellipse transform="matrix(0.1651 -0.9863 0.9863 0.1651 145.1172 111.7902)" class="st2" cx="138.6" cy="-29.8" rx="48.7" ry="48.7"/>
			<g>
				<path class="st3" d="M133.9-29.4h-3.3l2.3-2.3c1.2-1.2,1.2-3.1,0-4.3l-1.1-1.1c-1.2-1.2-3.1-1.2-4.3,0l-2.3,2.3v-3.3
					c0-1.7-1.4-3.1-3.1-3.1h-1.5c-1.7,0-3.1,1.4-3.1,3.1v3.3l-2.3-2.3c-1.2-1.2-3.1-1.2-4.3,0l-1.1,1.1c-1.2,1.2-1.2,3.1,0,4.3
					l2.3,2.3h-3.3c-1.7,0-3.1,1.4-3.1,3.1v1.5c0,1.7,1.4,3.1,3.1,3.1h3.3l-2.3,2.3c-1.2,1.2-1.2,3.1,0,4.3l1.1,1.1
					c1.2,1.2,3.1,1.2,4.3,0l2.3-2.3v3.3c0,1.7,1.4,3.1,3.1,3.1h1.5c1.7,0,3.1-1.4,3.1-3.1v-3.3l2.3,2.3c1.2,1.2,3.1,1.2,4.3,0
					l1.1-1.1c1.2-1.2,1.2-3.1,0-4.3l-2.3-2.3h3.3c1.7,0,3.1-1.4,3.1-3.1v-1.5C137-28,135.6-29.4,133.9-29.4z M126.4-25.6
					c0,2.8-2.2,5-5,5c-2.8,0-5-2.2-5-5s2.2-5,5-5C124.1-30.5,126.4-28.3,126.4-25.6z"/>
				<path class="st3" d="M166.3-24.7l-3.9,0.4c-0.4-1.2-1-2.2-1.7-3.1l2.5-3.1c0.7-0.8,0.5-2.1-0.3-2.7s-2.1-0.5-2.7,0.3l-2.5,3.1
					c-1.1-0.5-2.2-0.9-3.4-1l-0.4-3.9c-0.1-1.1-1.1-1.8-2.2-1.7c-1.1,0.1-1.8,1.1-1.7,2.2l0.4,3.9c-1.2,0.4-2.2,1-3.1,1.7l-3.1-2.5
					c-0.8-0.7-2.1-0.5-2.7,0.3c-0.7,0.8-0.5,2.1,0.3,2.7l3.1,2.5c-0.5,1.1-0.9,2.2-1,3.4l-3.9,0.4c-1.1,0.1-1.8,1.1-1.7,2.2
					c0.1,1.1,1.1,1.8,2.2,1.7l3.9-0.4c0.4,1.2,1,2.2,1.7,3.1l-2.5,3.1c-0.7,0.8-0.5,2.1,0.3,2.7c0.8,0.7,2.1,0.5,2.7-0.3l2.5-3.1
					c1.1,0.5,2.2,0.9,3.4,1l0.4,3.9c0.1,1.1,1.1,1.8,2.2,1.7c1.1-0.1,1.8-1.1,1.7-2.2l-0.4-3.9c1.2-0.4,2.2-1,3.1-1.7l3.1,2.5
					c0.8,0.7,2.1,0.5,2.7-0.3c0.7-0.8,0.5-2.1-0.3-2.7l-3.1-2.5c0.5-1.1,0.9-2.2,1-3.4l3.9-0.4c1.1-0.1,1.8-1.1,1.7-2.2
					C168.3-24.1,167.4-24.8,166.3-24.7z M153.8-16.1c-2.9,0.3-5.5-1.8-5.9-4.7c-0.3-2.9,1.8-5.5,4.7-5.9c2.9-0.3,5.5,1.8,5.9,4.7
					C158.8-19,156.7-16.4,153.8-16.1z"/>
				<path class="st3" d="M141.6-44.6c0.8,0.4,1.8,0,2.2-0.9c0.4-0.8,0-1.8-0.9-2.2c-0.8-0.4-1.8,0-2.2,0.9
					C140.3-45.9,140.7-45,141.6-44.6z"/>
				<path class="st3" d="M139.2-35.2l1.3-3c1,0.2,2,0.2,3,0l1.2,3.1c0.3,0.8,1.3,1.3,2.1,0.9c0.8-0.3,1.3-1.3,0.9-2.1l-1.2-3.1
					c0.8-0.5,1.6-1.2,2.2-2.1l3,1.3c0.8,0.4,1.8,0,2.2-0.9c0.4-0.8,0-1.8-0.9-2.2l-3-1.3c0.2-1,0.2-2,0-3l3.1-1.2
					c0.8-0.3,1.3-1.3,0.9-2.1c-0.3-0.8-1.3-1.3-2.1-0.9l-3.1,1.2c-0.5-0.8-1.2-1.6-2.1-2.2l1.3-3c0.4-0.8,0-1.8-0.9-2.2
					c-0.8-0.4-1.8,0-2.2,0.9l-1.3,3c-1-0.2-2-0.2-3,0l-1.2-3.1c-0.3-0.8-1.3-1.3-2.1-0.9c-0.8,0.3-1.3,1.3-0.9,2.1l1.2,3.1
					c-0.8,0.5-1.6,1.2-2.2,2.1l-3-1.3c-0.8-0.4-1.8,0-2.2,0.9c-0.4,0.8,0,1.8,0.9,2.2l3,1.3c-0.2,1-0.2,2,0,3l-3.1,1.2
					c-0.8,0.3-1.3,1.3-0.9,2.1c0.3,0.8,1.3,1.3,2.1,0.9l3.1-1.2c0.5,0.8,1.2,1.6,2.1,2.2l-1.3,3c-0.4,0.8,0,1.8,0.9,2.2
					C137.9-34,138.9-34.3,139.2-35.2z M136.4-48.6c1.4-3.2,5.1-4.6,8.3-3.3c3.2,1.4,4.6,5.1,3.3,8.3c-1.4,3.2-5.1,4.6-8.3,3.3
					C136.5-41.7,135.1-45.4,136.4-48.6z"/>
			</g>
		</g>
		<g>
			<linearGradient id="SVGID_4_" gradientUnits="userSpaceOnUse" x1="311.4185" y1="138.352" x2="603.6891" y2="138.352">
				<stop  offset="0" style="stop-color:#FFB82F"/>
				<stop  offset="1" style="stop-color:#E66C17"/>
			</linearGradient>
			<path class="st4" d="M603.7,138.7c0-34.2-27.8-62-62-62c-1.6,0-3.1,0.1-4.6,0.2l-1.9-23.5c-0.1-1.3-0.3-2.6-0.5-3.9
				c-4.4-22.8-33.1-30.9-49.5-14.4l-165,165c-18.5,18.5-5.4,50.2,20.8,50.2h178.2c17.2,0,30.7-14.7,29.3-31.8l-1.5-18.1
				C578.7,197.7,603.7,171.1,603.7,138.7z"/>
			<circle class="st2" cx="541.7" cy="138.7" r="48.7"/>
			<g>
				<g>
					<rect x="527.1" y="143.6" class="st3" width="7.7" height="10.2"/>
					<rect x="537.7" y="138.4" class="st3" width="7.7" height="15.4"/>
					<rect x="548.2" y="132.1" class="st3" width="7.7" height="21.7"/>
					<rect x="558.8" y="122.2" class="st3" width="7.7" height="31.6"/>
				</g>
				<path class="st3" d="M522,158.6h47.7c0.4,0,0.7-0.3,0.7-0.7l0,0c0-0.4-0.3-0.7-0.7-0.7H522c-0.4,0-0.7,0.3-0.7,0.7l0,0
					C521.3,158.3,521.6,158.6,522,158.6z"/>
				<path class="st3" d="M522.7,157.9v-38.7c0-0.4-0.3-0.7-0.7-0.7l0,0c-0.4,0-0.7,0.3-0.7,0.7v38.7c0,0.4,0.3,0.7,0.7,0.7l0,0
					C522.4,158.6,522.7,158.3,522.7,157.9z"/>
			</g>
		</g>
		<g>
			<linearGradient id="SVGID_5_" gradientUnits="userSpaceOnUse" x1="261.7694" y1="457.5789" x2="485.5541" y2="457.5789">
				<stop  offset="0" style="stop-color:#FF845F"/>
				<stop  offset="1" style="stop-color:#B92D60"/>
			</linearGradient>
			<path class="st5" d="M476.9,485L312,320.1c-18.5-18.5-50.2-5.4-50.2,20.8v177.9c0,17.2,14.6,30.7,31.8,29.3l17.9-1.4
				c2.5,31.9,29.2,57.1,61.8,57.1c34.2,0,62-27.8,62-62c0-1.6-0.1-3.2-0.2-4.8l23.9-1.9c0.6-0.1,1.3-0.1,1.9-0.2
				C484.6,531.6,493.8,501.9,476.9,485z"/>
			
				<ellipse transform="matrix(0.1615 -0.9869 0.9869 0.1615 -221.702 822.5635)" class="st2" cx="373.2" cy="541.7" rx="48.7" ry="48.7"/>
			<path class="st3" d="M373,516.9c-9.5,0-17.2,7.7-17.2,17.2c0,9.5,17.2,32.7,17.2,32.7s17.2-23.3,17.2-32.7
				C390.1,524.6,382.4,516.9,373,516.9z M373,539.9c-3.3,0-5.9-2.6-5.9-5.9c0-3.3,2.6-5.9,5.9-5.9c3.3,0,5.9,2.6,5.9,5.9
				C378.9,537.3,376.2,539.9,373,539.9z M378.8,572.4c0,1-2.6,1.8-5.8,1.8c-3.2,0-5.8-0.8-5.8-1.8c0-1,2.6-1.8,5.8-1.8
				C376.2,570.5,378.8,571.3,378.8,572.4z M378.8,572.4c0,1-2.6,1.8-5.8,1.8c-3.2,0-5.8-0.8-5.8-1.8c0-1,2.6-1.8,5.8-1.8
				C376.2,570.5,378.8,571.3,378.8,572.4z M373,576.5c-5.9,0-12.2-1.5-12.2-4.2c0-2.7,6.3-4.2,12.2-4.2s12.2,1.5,12.2,4.2
				C385.2,575.1,378.9,576.5,373,576.5z M373,569.1c-6.6,0-11.3,1.7-11.3,3.2c0,1.5,4.6,3.2,11.3,3.2c6.6,0,11.3-1.7,11.3-3.2
				C384.3,570.8,379.6,569.1,373,569.1z"/>
		</g>
		<g>
			<linearGradient id="SVGID_6_" gradientUnits="userSpaceOnUse" x1="-91.7603" y1="157.9313" x2="200.674" y2="157.9313">
				<stop  offset="0" style="stop-color:#00B0FF"/>
				<stop  offset="1" style="stop-color:#3863C7"/>
			</linearGradient>
			<path class="st6" d="M192,200.1L66.1,74.2C54,62,34,62.8,22.9,75.9L11,89.8C-13.4,69-50,70.1-73.1,93.2
				c-24.2,24.2-24.2,63.5,0.1,87.7c1.2,1.2,2.4,2.3,3.6,3.3l-14.7,17.2c-2.6,3-4.5,6.3-5.8,9.7c-7.2,19,7.5,39.2,27.8,39.2h233.3
				C197.4,250.3,210.5,218.6,192,200.1z"/>
			<path class="st2" d="M-29.2,185.7c-13,0-25.2-5.1-34.4-14.2c-9.2-9.2-14.3-21.4-14.3-34.4c0-13,5-25.2,14.2-34.4
				c9.2-9.2,21.4-14.3,34.4-14.3c13,0,25.2,5.1,34.4,14.2c9.2,9.2,14.3,21.4,14.3,34.4c0,13-5,25.2-14.2,34.4
				C-4,180.6-16.2,185.7-29.2,185.7z"/>
			<path class="st3" d="M-30.2,111.8c-13.2,0-23.8,10.7-23.8,23.8c0,13.2,10.7,23.8,23.8,23.8c13.2,0,23.8-10.7,23.8-23.8
				C-6.4,122.5-17.1,111.8-30.2,111.8z M-9.6,135.6c0,2.4-0.4,4.6-1.1,6.7c-0.7-1.9-1.8-4.4-3.4-7.2c1-2.7,1.8-5.6,2.3-8.9
				C-10.5,129.1-9.6,132.2-9.6,135.6z M-14.2,122.7c-0.2,3.6-0.8,6.8-1.7,9.7c-2.9-4.1-6.9-8.4-12.7-11.6c3.7-2,6.8-3,8.1-3.3
				C-18,118.8-15.9,120.6-14.2,122.7z M-21.4,146.6l4.8,4.5c-1,0.9-2.1,1.6-3.2,2.3c-2.5-0.5-4.9-1.2-7-2
				C-25,150.1-23.2,148.5-21.4,146.6z M-29.5,150.2c-7-3.4-11.4-8.6-14.3-13.4c1.2-2.7,2.7-5.1,4.4-7.1l16.1,15.1
				C-25.3,147.1-27.4,148.8-29.5,150.2z M-39.5,126.1l-5.3-5c0.7-0.7,1.5-1.4,2.3-2c3.2,0.4,6,1.1,8.6,2.1
				C-35.8,122.6-37.7,124.2-39.5,126.1z M-41.2,128c-1.5,1.8-2.9,3.8-4.1,6.1c-1.7-3.6-2.6-6.7-3-8.4c0.5-0.9,1.1-1.8,1.8-2.6
				L-41.2,128z M-37.6,127.8c2.1-2.2,4.3-4,6.5-5.4c6.8,3.3,11.3,8.3,14.2,12.9c-1.2,2.9-2.8,5.5-4.5,7.6L-37.6,127.8z M-24.1,116
				c-1.9,0.7-4.5,1.9-7.2,3.5c-2.3-1-4.9-1.9-7.8-2.5c2.7-1.3,5.7-2,8.8-2C-28.1,115-26,115.4-24.1,116z M-49.9,129.4
				c0.7,2.1,1.7,4.7,3.3,7.5c-1,2.3-1.7,4.8-2.2,7.5c-1.3-2.7-2-5.6-2-8.8C-50.8,133.5-50.5,131.4-49.9,129.4z M-46.8,147.9
				c0.4-3,1-5.7,1.8-8.1c2.9,4.4,7,8.8,12.9,12.1c-2.6,1.5-4.8,2.4-6,2.9C-41.5,153.2-44.5,150.9-46.8,147.9z M-34.1,155.8
				c1.4-0.7,3-1.6,4.8-2.7c1.7,0.8,3.6,1.5,5.6,2c-2,0.7-4.2,1.1-6.5,1.1C-31.6,156.2-32.9,156.1-34.1,155.8z M-14.8,149.2l-4.9-4.6
				c1.6-1.9,3-4.1,4.3-6.6c2,3.9,2.9,7,3.1,7.9C-13.1,147.1-13.9,148.2-14.8,149.2z"/>
		</g>
		<g>
			<linearGradient id="SVGID_7_" gradientUnits="userSpaceOnUse" x1="65.4379" y1="457.7002" x2="250.3212" y2="457.7002">
				<stop  offset="0" style="stop-color:#C77AFF"/>
				<stop  offset="1" style="stop-color:#6F46FF"/>
			</linearGradient>
			<path class="st7" d="M200.1,320.1l-126,126c-12.1,12.1-11.3,32.1,1.7,43.2l13.8,11.7c-20.6,24.4-19.5,60.9,3.5,83.9
				c24.2,24.2,63.5,24.2,87.7-0.1c1.1-1.1,2.2-2.3,3.2-3.5l18,15.3c1.2,1,2.3,1.9,3.6,2.7c19.2,12.5,44.7-2.2,44.7-25.1V340.9
				C250.3,314.7,218.6,301.5,200.1,320.1z"/>
			<path class="st2" d="M171.3,506.6c-9.2-9.2-21.4-14.2-34.4-14.2c-13,0-25.2,5.1-34.4,14.3c-19,19-18.9,49.9,0,68.8
				c9.2,9.2,21.4,14.2,34.4,14.2c13,0,25.2-5.1,34.4-14.3c9.2-9.2,14.2-21.4,14.2-34.4C185.6,528,180.5,515.8,171.3,506.6z"/>
			<g>
				<path class="st3" d="M136.5,517.6c-13.2,0-23.8,10.7-23.8,23.8c0,13.2,10.7,23.8,23.8,23.8c13.2,0,23.8-10.7,23.8-23.8
					C160.4,528.3,149.7,517.6,136.5,517.6z M136.5,562c-11.4,0-20.6-9.2-20.6-20.6c0-11.4,9.2-20.6,20.6-20.6
					c11.4,0,20.6,9.2,20.6,20.6C157.1,552.8,147.9,562,136.5,562z"/>
				<path class="st3" d="M136.5,527.8L136.5,527.8c1,0,1.7-0.8,1.7-1.7v-1.5c0-1-0.8-1.7-1.7-1.7h0c-1,0-1.7,0.8-1.7,1.7v1.5
					C134.8,527,135.6,527.8,136.5,527.8z"/>
				<path class="st3" d="M136.5,555.1L136.5,555.1c-1,0-1.7,0.8-1.7,1.7v1.5c0,1,0.8,1.7,1.7,1.7h0c1,0,1.7-0.8,1.7-1.7v-1.5
					C138.3,555.9,137.5,555.1,136.5,555.1z"/>
				<path class="st3" d="M153.4,539.7H152c-1,0-1.7,0.8-1.7,1.7v0c0,1,0.8,1.7,1.7,1.7h1.5c1,0,1.7-0.8,1.7-1.7v0
					C155.2,540.5,154.4,539.7,153.4,539.7z"/>
				<path class="st3" d="M121.1,539.7h-1.5c-1,0-1.7,0.8-1.7,1.7v0c0,1,0.8,1.7,1.7,1.7h1.5c1,0,1.7-0.8,1.7-1.7v0
					C122.9,540.5,122.1,539.7,121.1,539.7z"/>
				<path class="st3" d="M145.2,531.5l-8.2,8.2c-0.1,0-0.3,0-0.4,0c-1,0-1.7,0.8-1.7,1.7c0,0.6,0.3,1.1,0.8,1.4v8c0,0.5,0.4,1,1,1h0
					c0.5,0,1-0.4,1-1v-8c0.5-0.3,0.8-0.8,0.8-1.4c0-0.1,0-0.2,0-0.2l8.3-8.3c0.4-0.4,0.4-1,0-1.4
					C146.2,531.1,145.6,531.1,145.2,531.5z"/>
			</g>
		</g>
		<g>
			<linearGradient id="SVGID_8_" gradientUnits="userSpaceOnUse" x1="311.4193" y1="354.129" x2="603.8985" y2="354.129">
				<stop  offset="0" style="stop-color:#00D4FF"/>
				<stop  offset="1" style="stop-color:#008CCE"/>
			</linearGradient>
			<path class="st8" d="M581.4,327.9l14.8-17.3c2.6-3,4.5-6.3,5.8-9.6c7.3-18.9-7.5-39.2-27.8-39.2H340.9
				c-26.2,0-39.3,31.7-20.8,50.2L446,437.9c12.1,12.1,32.1,11.4,43.2-1.7l11.8-13.9c24.4,20.6,60.9,19.4,83.9-3.6
				c24.2-24.2,24.2-63.5-0.1-87.7C583.7,330,582.6,328.9,581.4,327.9z"/>
			<path class="st2" d="M541,423.6c-13,0-25.2-5.1-34.4-14.2c-9.2-9.2-14.3-21.4-14.3-34.4c0-13,5-25.2,14.2-34.4
				c9.2-9.2,21.4-14.3,34.4-14.3c13,0,25.2,5.1,34.4,14.2c19,19,19,49.8,0,68.8C566.2,418.5,554,423.6,541,423.6z"/>
			<path class="st3" d="M542,350.7c-13.8,0-25,11.2-25,25c0,7.2,3.1,13.7,8,18.3l-1.5,6.7l6.7-2.9c3.5,1.9,7.5,2.9,11.8,2.9
				c13.8,0,25-11.2,25-25S555.8,350.7,542,350.7z M531.6,379.1c-1.8,0-3.3-1.5-3.3-3.3s1.5-3.3,3.3-3.3c1.8,0,3.3,1.5,3.3,3.3
				S533.4,379.1,531.6,379.1z M542,379.1c-1.8,0-3.3-1.5-3.3-3.3s1.5-3.3,3.3-3.3c1.8,0,3.3,1.5,3.3,3.3S543.8,379.1,542,379.1z
				 M552.4,379.1c-1.8,0-3.3-1.5-3.3-3.3s1.5-3.3,3.3-3.3c1.8,0,3.3,1.5,3.3,3.3S554.2,379.1,552.4,379.1z"/>
		</g>
		<g>
			<linearGradient id="SVGID_9_" gradientUnits="userSpaceOnUse" x1="261.7694" y1="54.3277" x2="446.697" y2="54.3277">
				<stop  offset="0" style="stop-color:#FF5196"/>
				<stop  offset="1" style="stop-color:#8923A3"/>
			</linearGradient>
			<path class="st9" d="M436.3,22.7l-14-11.9c20.5-24.4,19.3-60.8-3.6-83.8C394.4-97.2,355.2-97.2,331-73c-1.1,1.1-2.1,2.2-3.1,3.3
				l-17.8-15.1c-1.2-1-2.4-1.9-3.6-2.7c-19.3-12.5-44.7,2.2-44.7,25.1v233.5c0,26.2,31.7,39.3,50.2,20.8L438.1,65.9
				C450.2,53.8,449.4,33.8,436.3,22.7z"/>
			<path class="st2" d="M374.9,19.5c-13,0-25.2-5.1-34.4-14.2c-19-19-19-49.8,0-68.8c9.2-9.2,21.4-14.3,34.4-14.3
				c13,0,25.2,5.1,34.4,14.2c9.2,9.2,14.3,21.4,14.3,34.4c0,13-5,25.2-14.2,34.4C400.1,14.5,387.9,19.5,374.9,19.5z"/>
			<path class="st3" d="M390.6-36.3c-2,0-3.9,0.8-5.3,2.1l-13-9.1c0.4-0.9,0.6-2,0.6-3c0-4.2-3.4-7.7-7.7-7.7
				c-4.2,0-7.7,3.4-7.7,7.7c0,4.2,3.4,7.7,7.7,7.7c2,0,3.9-0.8,5.3-2.1l13,9.1c-0.4,0.9-0.6,2-0.6,3c0,1.1,0.2,2.1,0.6,3l-13,9.1
				c-1.4-1.3-3.2-2.1-5.3-2.1c-4.2,0-7.7,3.4-7.7,7.7c0,4.2,3.4,7.7,7.7,7.7c4.2,0,7.7-3.4,7.7-7.7c0-1.1-0.2-2.1-0.6-3l13-9.1
				c1.4,1.3,3.2,2.1,5.3,2.1c4.2,0,7.7-3.4,7.7-7.7C398.3-32.9,394.8-36.3,390.6-36.3z"/>
		</g>
		<g>
			<linearGradient id="SVGID_10_" gradientUnits="userSpaceOnUse" x1="-91.8985" y1="373.6784" x2="200.6731" y2="373.6784">
				<stop  offset="0" style="stop-color:#00FF83"/>
				<stop  offset="1" style="stop-color:#00ABA8"/>
			</linearGradient>
			<path class="st10" d="M171.2,261.8H-6.9c-17.2,0-30.7,14.7-29.3,31.8l1.4,17.9c-31.9,2.5-57.1,29.2-57.1,61.8
				c0,34.2,27.8,62,62,62c1.7,0,3.3-0.1,5-0.2l1.9,23.6c0.1,1.3,0.3,2.6,0.5,3.8c4.4,22.8,33.1,30.9,49.5,14.4l165-165
				C210.5,293.4,197.4,261.8,171.2,261.8z"/>
			<circle class="st2" cx="-29.9" cy="373.3" r="48.7"/>
			<g>
				<polygon class="st3" points="-55.2,358 -55.2,363.7 -30.5,372.8 -5.9,363.7 -5.9,358 				"/>
				<path class="st3" d="M-23.9,374.9L-23.9,374.9l-6.6,2.4l-6.6-2.4l0,0l-2.1-0.8l0,0l-16-5.9v22.9v1.3h1.6h46.1h1.6v-1.3v-22.9
					l-16.2,6L-23.9,374.9z M-53.1,371.2l12.4,4.6L-53.1,389V371.2z M-51.6,390.4l13-13.9l7.4,2.7l0.7,0.3l0.7-0.3l7.4-2.7l13,13.9
					H-51.6z M-7.9,389l-12.4-13.2l12.4-4.6V389z"/>
			</g>
		</g>
		
			<ellipse transform="matrix(1 -2.377273e-03 2.377273e-03 1 -0.6079 0.6094)" class="st2" cx="256" cy="256" rx="103.5" ry="103.5"/>
	</g>
</g>
<g>
	<defs>
		<circle id="SVGID_11_" cx="256" cy="256" r="256"/>
	</defs>
	<clipPath id="SVGID_12_">
		<use xlink:href="#SVGID_11_"  style="overflow:visible;"/>
	</clipPath>
</g>
<g>
	<g>
		<defs>
			<circle id="SVGID_13_" cx="256" cy="256" r="256"/>
		</defs>
		<clipPath id="SVGID_14_">
			<use xlink:href="#SVGID_13_"  style="overflow:visible;"/>
		</clipPath>
		<g class="st11">
			<defs>
				<circle id="SVGID_15_" cx="255.6" cy="256" r="256"/>
			</defs>
			<clipPath id="SVGID_16_">
				<use xlink:href="#SVGID_15_"  style="overflow:visible;"/>
			</clipPath>
			<path class="st12" d="M412.9,422h-312v-52.9c0-37.6,24.1-71,59.7-82.9l57.3-19.1h78l57.3,19.1c35.7,11.9,59.7,45.3,59.7,82.9
				L412.9,422L412.9,422z"/>
			<path class="st13" d="M412.9,369.1c0-37.6-24.1-71-59.7-82.9l-57.3-19.1h-39V422h156V369.1z"/>
			<polygon class="st14" points="295.9,267.2 256.9,306.2 217.9,267.2 217.9,228.2 295.9,228.2 			"/>
			<polygon class="st15" points="295.9,228.2 256.9,228.2 256.9,306.2 295.9,267.2 			"/>
			<path class="st16" d="M178.9,150.2c0-43.1,34.9-78,78-78s78,34.9,78,78s-34.9,117-78,117S178.9,193.3,178.9,150.2z"/>
			<path class="st14" d="M334.9,150.2c0-43.1-34.9-78-78-78v195C300,267.2,334.9,193.3,334.9,150.2z"/>
			<path class="st17" d="M334.9,150.2c0-43.1-34.9-78-78-78s-78,34.9-78,78c0,17.2,5.6,39.3,15,59.6c-2.2-11.7-1.6-23.7-0.5-32.7
				c49.5-3.9,97.3-27.1,97.3-27.1s6,11.1,28.7,21c1.6,9.2,3.2,24.2,0.4,38.8C329.3,189.5,334.9,167.4,334.9,150.2z"/>
			<path class="st18" d="M334.9,150.2c0-43.1-34.9-78-78-78v91.2c20.2-6.7,33.8-13.3,33.8-13.3s6,11.1,28.7,21
				c1.6,9.2,3.2,24.2,0.4,38.8C329.3,189.5,334.9,167.4,334.9,150.2z"/>
			<polygon class="st19" points="240.5,420.7 251.4,319.2 262.4,319.2 273.3,420.7 			"/>
			<polygon class="st20" points="262.4,319.2 256.9,319.2 256.9,420.7 273.3,420.7 			"/>
			<path class="st21" d="M256.9,420.7l-56.8-147.5l-39.5,13.2c-35.7,11.9-59.7,45.3-59.7,82.9V422h156L256.9,420.7L256.9,420.7z"/>
			<path class="st22" d="M412.9,369.1c0-37.6-24.1-71-59.7-82.9l-39.5-13.2l-56.8,147.5v1.4h156L412.9,369.1L412.9,369.1z"/>
			<polygon class="st23" points="313.8,273.1 324.6,319.2 304.1,329.4 324.6,353 256.9,420.7 			"/>
			<polygon class="st22" points="200.1,273.1 189.3,319.2 209.8,329.4 189.3,353 256.9,420.7 			"/>
			<polygon class="st20" points="278.4,306.4 264.1,340.2 249.7,340.2 235.4,306.4 			"/>
			<polygon class="st24" points="278.4,306.4 256.9,306.4 256.9,340.2 264.1,340.2 			"/>
			<polygon class="st12" points="290.7,319.2 313.8,273.1 295.9,267.2 256.9,306.2 			"/>
			<polygon class="st25" points="223.1,319.2 200.1,273.1 217.9,267.2 256.9,306.2 			"/>
		</g>
	</g>
</g>
</svg>
