<?xml version="1.0" encoding="utf-8"?>
<!-- Generator: Adobe Illustrator 24.1.2, SVG Export Plug-In . SVG Version: 6.00 Build 0)  -->
<svg version="1.1" id="Layer_1" xmlns="http://www.w3.org/2000/svg" xmlns:xlink="http://www.w3.org/1999/xlink" x="0px" y="0px"
	 width="512px" height="512px" viewBox="0 0 512 512" enable-background="new 0 0 512 512" xml:space="preserve">
<circle fill="#FFFFFF" cx="256" cy="256" r="256"/>
<g>
	<defs>
		<circle id="SVGID_1_" cx="256" cy="256" r="256"/>
	</defs>
	<clipPath id="SVGID_2_">
		<use xlink:href="#SVGID_1_"  overflow="visible"/>
	</clipPath>
	<g clip-path="url(#SVGID_2_)">
		<g>
			<g>
				<path fill="#F2C4AE" d="M166,196.2c0,0,11.2-74.9-61.3-74.9c-72.8,0-60.6,74.9-60.6,74.9c-7.5-0.4-15.9-0.6-14.2,19.8
					c1.7,20.4,20.7,22.4,20.7,22.4c1.1,20.6,14.3,40.7,24.1,49.3c9.7,8.6,30.4,8.6,30.4,8.6s20.6,0,30.4-8.6
					c9.7-8.6,22.9-28.7,24.1-49.3c0,0,19-1.9,20.7-22.4C181.9,195.6,173.6,195.8,166,196.2z"/>
				<path fill="#454440" d="M105.2,104.2c-0.1,0-0.1,0-0.1,0c-0.1,0-0.1,0-0.2,0c-63.4-3.3-64.3,59.8-61.6,92
					c1.2,0.5,2.5,1.3,3.4,3.1c1.9,3.8,2.6,2.5,2.6,2.6c0,0,0.2-18.5,0.2-23.6c-0.1-5.9,9.4-37.4,19.5-40.3
					c10.1-3.6,24.3,11.4,35.3,11.3c0.3,0,0.5,0,0.8,0c0.3,0,0.5,0,0.8,0c11,0.2,25.2-14.8,35.3-11.3c10.2,3,19.6,34.5,19.5,40.3
					c0,5.1,0.2,23.6,0.2,23.6c0,0,0.7,1.2,2.6-2.5c0.9-1.9,2.2-2.6,3.4-3.1C169.5,164,168.6,100.9,105.2,104.2z"/>
				<g>
					<polygon fill="none" points="76.7,372.2 59.5,319.4 81.9,387.9 76.7,372.2 					"/>
					<polygon fill="none" points="96,344.1 96,344.1 97.3,342.2 97.3,342.2 					"/>
					<polygon fill="none" points="122,343.4 122.5,344.1 122.5,344.1 122,343.4 					"/>
					<polygon fill="none" points="145.3,310.8 149.2,306.8 145.3,310.8 					"/>
					<polygon fill="none" points="141.8,372.2 141.8,372.2 136.6,387.9 159,319.4 					"/>
					<polygon fill="#D1443B" points="122.5,344.1 122.5,344.1 127.2,351 115.5,367 119.8,387.9 136.6,387.9 141.8,372.2 					"/>
					<path fill="#D1443B" d="M91.4,350.7l4.6-6.7l0,0l-19.3,28.1l5.1,15.8h14.3l6-20.9C98.6,361.6,95,356.2,91.4,350.7z"/>
					<polygon fill="#EDC0AA" points="97.3,342.2 100.3,337.9 97.3,342.2 					"/>
					<polygon fill="#EDC0AA" points="75.4,290.5 75.3,291.3 75.5,290.5 					"/>
					<path fill="#EDC0AA" d="M118.2,337.9l27.1-27.1l0,0l0,0l-0.5-4l-2.5-18.5l0,0l0.6,4.6c-4.5,5.9-25.7,17.8-34.8,17.9
						c-8.8,0.1-31.4-15.3-33-16.4l-1.8,16.4l27.1,27.1H118.2z"/>
					<polygon fill="#EDC0AA" points="118.2,337.9 122,343.4 122,343.4 					"/>
					<path fill="#282828" d="M60.4,371l-25.8-11.2l12.3-37l-64.2,18.6c0,0-13.5,13.5-31.8,46.4h95.4l-4.9-11.5L60.4,371z"/>
					<polygon fill="#3B3B3D" points="69.2,306.8 48,319.4 46.9,322.9 34.6,359.8 60.4,371 41.5,376.5 46.3,387.9 74.9,387.9 
						81.9,387.9 59.5,319.4 					"/>
					<polygon fill="#DE4840" points="76.7,372.2 76.7,372.2 96,344.1 97.3,342.2 100.3,337.9 73.2,310.8 69.2,306.8 59.5,319.4 
											"/>
					<polygon fill="#A83731" points="73.6,306.8 69.2,306.8 73.2,310.8 					"/>
					<path fill="#282828" d="M235.8,341.5l-64.2-18.6l12.3,37L158.1,371l18.9,5.4l-4.9,11.5h95.4C249.3,355,235.8,341.5,235.8,341.5
						z"/>
					<polygon fill="#3B3B3D" points="158.1,371 183.9,359.8 171.6,322.9 170.4,319.4 149.2,306.8 159,319.4 136.6,387.9 
						143.6,387.9 172.1,387.9 177,376.5 					"/>
					<polygon fill="#DE4840" points="118.2,337.9 122,343.4 122.5,344.1 141.8,372.2 141.8,372.2 159,319.4 149.2,306.8 
						145.3,310.8 					"/>
					<polygon fill="#A83731" points="145.3,310.8 149.2,306.8 144.7,306.8 144.7,306.8 145.3,310.8 					"/>
					<path fill="#3B3B3D" d="M127.2,351l-4.8-6.9l-0.5-0.7l-3.8-5.5h-17.9l-3,4.4l-1.3,1.8l-4.6,6.7c3.6,5.4,7.2,10.8,10.8,16.3
						l-6,20.9c3.8,0.1,7.8,0.2,11.9,0.2c4,0,7.9-0.1,11.7-0.2c-1.4-7-2.9-13.9-4.3-20.9L127.2,351z"/>
					<path fill="#E0A489" d="M142.9,292.9l-0.6-4.6l-0.9-6.8c-2,2.4-4,4.5-5.9,6.1c-9.7,8.6-30.4,8.6-30.4,8.6s-19.2,0-29.3-7.7
						l-0.3,2l-0.1,0.8l-0.4,3.1c0,0,0,0,0.1,0.1c1.6,1.1,24.2,16.4,33,16.4C117.1,310.7,138.4,298.8,142.9,292.9z"/>
				</g>
				<path fill="#454440" d="M137.9,262.2c-0.5-2.8-2.1-5.2-4.4-7.1c-0.9-0.8-1.9-1.5-2.9-1.8c-2-1-4.2-1.6-6.7-1.7
					c-2.7-0.2-5.8-0.1-9.2,0c-9.4,0.3-19.6,0.4-27.7,0.4c-1.5,0.4-2.8,1-4,1.9c0,0-0.1,0-0.1,0.1c0,0-0.1,0.1-0.1,0.1
					c-4.5,2.8-7.8,10.8-7.8,20.3c0,6.2,1.4,11.8,3.7,15.8c3.2,6.5,14.8,11.3,28.7,11.3c10.5,0,19.7-2.7,24.9-6.9
					c4.4-2.9,7.6-10.8,7.6-20.2C139.9,269.8,139.1,265.6,137.9,262.2z M130.6,286.1c-2.8,1.8-6.3,3.2-10.4,4.2
					c-2.3,0.6-4.6-0.4-6-2.3c-1.5-2-4-3.4-6.8-3.4c-2.8,0-5.3,1.3-6.8,3.4c-1.4,1.9-3.7,2.8-6,2.3c-4-1-7.6-2.4-10.3-4.1
					c-1.2-3.4-2.7-4.4-2.7-12c0-1.9,0.8-7.4,1.1-9.2c6.5-1.2,18.6,5.4,24.2-0.7c5.5,6,17.2,0.2,25.4,1c0.2,1.6,0.3,7.1,0.3,8.8
					C132.5,281.2,131.8,282.7,130.6,286.1z"/>
			</g>
			<path fill="none" d="M107.4,27.6L107.4,27.6c99.1,0,179.4,80.3,179.4,179.4v0c0,99.1-80.3,179.4-179.4,179.4h0
				C8.3,386.4-72,306.1-72,207v0C-72,108,8.3,27.6,107.4,27.6z"/>
		</g>
		<g>
			<g>
				<path fill="#F2C4AE" d="M457.8,172.5c0,0,3.5-68.8-52.3-68.5c-55.8-0.2-52.3,68.5-52.3,68.5c-6.4-0.4-13.6-0.6-12.2,17
					c1.5,17.5,17.8,19.2,17.8,19.2c1,17.7,12.3,34.9,20.6,42.3c8.4,7.4,26,7.4,26,7.4s17.7,0,26-7.4c8.4-7.4,19.7-24.6,20.6-42.3
					c0,0,16.3-1.7,17.8-19.2S464.3,172.1,457.8,172.5z"/>
				<path fill="#454440" d="M439.5,100.4c0.1-0.4,0.3-0.8,0.5-1.1c1.5-3.4,4.1-5,7.6-5.8c-2-0.2-3.8-0.2-5.7,0.5
					c-2,0.7-3.7,2.2-5.1,3.7C430,85.5,409.6,82.9,393,86.2c-55.1,10.9-52.4,53.2-40.6,86.3c1,0.4,3.3,0.9,4.1,2.5
					c1.6,3.2,2.2,2.2,2.2,2.2c0,0,0.2-15.8,0.2-20.2c-0.1-5,3.7-27.5,16.8-32.8c2-0.8,4.2-0.8,6.6-0.3c-3.4,8-1.1,15,0.4,18.7
					c3.6,8.7,8.9,9.3,8.9,9.3s-1.5-1.3,2.8-8.6c2.6-4.4,17.6-8.4,26.5-9.1c9.6-0.7,15.4-3.4,18.7-6.6c0.7,0.4,1.3,0.9,1.7,1.6
					c4.4,6.2,12.8,22.8,12.7,27.8c0,4.4,0.2,20.2,0.2,20.2c0,0,0.6,1,2.2-2.2c0.8-1.6,1.9-2.2,2.9-2.7
					C465.3,150.6,477.6,109.7,439.5,100.4z"/>
				<path fill="#323232" d="M455.8,174.6c-0.3-2.3-1.3-1-3.8-1.1c0-0.1,0-0.1-0.1-0.2c-3.1-8.3-15.7-9.2-18.2-9.3
					c-7.3-0.3-12.8,1.5-16.4,5.4c-1.1,1.2-2,2.5-2.6,4l-0.1-2.8l-0.2-0.2c-0.1-0.1-1.9-3.4-8.4-3.4c-6.2,0-8.2,3.3-8.3,3.4l0,0.2
					l-0.1,2.7c-0.7-1.4-1.6-2.8-2.6-3.9c-3.6-3.9-9.2-5.7-16.4-5.4c-2.5,0.1-15.1,1-18.2,9.2c0,0.1,0,0.1-0.1,0.2
					c-2.5,0.1-3.4-1.2-3.8,1.1c-0.3,2.1,1.4,2.3,2.9,2.3c-1.2,7.1,0.9,16.1,6.6,20.5c3.3,2.6,7.5,3.7,12,3.7c0,0,0,0,0,0
					c4.1,0,8.2-0.9,11.6-3c6.5-4,9.7-12.4,9.4-18.7c0-0.8-0.1-1.6-0.3-2.5l0.1,0l0.2-5.8c0.4-0.5,2.5-2,7-2c4.8,0,6.7,1.5,7.2,2
					l0.3,5.8l0.1,0c-0.2,0.8-0.3,1.7-0.3,2.5c-0.3,6.3,2.9,14.9,9.4,18.9c3.4,2.1,7.5,3.2,11.6,3.2c4.5,0,8.7-1.4,12-3.9
					c5.8-4.4,7.8-13.6,6.6-20.7C454.4,176.9,456.1,176.7,455.8,174.6z M389,197.1c-3.1,1.9-7,3-10.8,3c-4.2,0-8.1-1.3-11.2-3.6
					c-2.9-2.3-5-6.1-5.9-10.7c-0.8-4.2-0.5-8.6,0.7-11.9c1-2.8,3.5-4.9,7.2-6.4c3.9-1.6,8.1-1.9,9.7-1.9c0.5,0,0.9,0,1.4,0
					c16.3,0,17.6,11.7,17.7,14.1C398,185.4,395,193.4,389,197.1z M451.4,185.7c-0.9,4.7-3,8.5-5.9,10.7c-3.1,2.4-7,3.6-11.2,3.6
					c-3.8,0-7.7-1.1-10.8-3c-6.1-3.7-9-11.7-8.8-17.6c0.1-2.3,1.4-14.1,17.7-14.1c0.4,0,0.9,0,1.4,0c1.6,0.1,5.8,0.4,9.7,1.9
					c3.7,1.5,6.2,3.7,7.2,6.4C451.9,177.1,452.2,181.5,451.4,185.7z"/>
				<g>
					<polygon fill="none" points="440,270.7 443.4,267.3 440,270.7 					"/>
					<path fill="#E6C783" d="M517.6,297l-65.9-18.8L437,323.3l-16.9-24.7l0,0l4.5,6.5l-10,13.7l3.7,17.9h126.7
						C529.2,308.7,517.6,297,517.6,297z"/>
					<path fill="#E6C783" d="M393.9,305l5-7.3l0,0l-17.6,25.7l-14.5-44.5L300.6,297c0,0-11.6,11.6-27.3,39.8h124.6l5.2-17.9
						C400,314.3,396.9,309.6,393.9,305z"/>
					<path fill="#EDC0AA" d="M380.4,251.6C380.4,251.6,380.4,251.6,380.4,251.6l-0.4,2.4L380.4,251.6
						C380.4,251.6,380.4,251.6,380.4,251.6z"/>
					<path fill="#EDC0AA" d="M432.8,249.7c-0.4,0.4-0.8,0.8-1.2,1.1C432,250.5,432.4,250.1,432.8,249.7z"/>
					<path fill="#EDC0AA" d="M434.1,248.4c0.4-0.4,0.8-0.9,1.2-1.3C434.9,247.6,434.5,248,434.1,248.4z"/>
					<path fill="#EDC0AA" d="M432.8,249.7c0.4-0.4,0.8-0.8,1.2-1.2C433.7,248.9,433.2,249.3,432.8,249.7z"/>
					<polygon fill="#EDC0AA" points="420.1,298.7 420.1,298.7 416.8,293.9 					"/>
					<polygon fill="#EDC0AA" points="398.9,297.7 398.9,297.7 401.4,293.9 					"/>
					<path fill="#EDC0AA" d="M401.4,293.9h15.4l23.2-23.2l0,0l0,0l-0.4-3.4l-2.9-21.7c-0.4,0.5-0.8,0.9-1.2,1.4
						c0.4-0.4,0.8-0.9,1.2-1.4l1.3,9.8c-3.8,5-22.1,15.2-29.9,15.3c-7.5,0.1-26.9-13.1-28.3-14l-1.5,14L401.4,293.9z"/>
					<path fill="#DB6489" d="M408.9,317.6c-2.7,0-4.8,0.8-5.8,1.4l-5.2,17.9h11.5h8.8l-3.7-17.9
						C413.5,318.4,411.5,317.6,408.9,317.6z"/>
					<polygon fill="#F0E3B9" points="398.9,297.7 401.4,293.9 378.2,270.7 374.8,267.3 366.5,278.1 366.7,278.8 381.2,323.3 					
						"/>
					<polygon fill="#CED0D1" points="378.6,267.3 374.8,267.3 378.2,270.7 					"/>
					<polygon fill="#F0E3B9" points="416.8,293.9 420.1,298.7 437,323.3 451.7,278.2 451.8,278.1 443.4,267.3 440,270.7 					"/>
					<polygon fill="#CED0D1" points="440,270.7 443.4,267.3 439.6,267.3 439.6,267.3 440,270.7 					"/>
					<path fill="#D16985" d="M401.4,293.9l-2.6,3.8l-5,7.3c3.1,4.6,6.2,9.3,9.2,13.9c1-0.5,3.1-1.4,5.8-1.4c2.6,0,4.6,0.8,5.7,1.4
						l10-13.7l-4.5-6.5l-3.3-4.7H401.4z"/>
					<path fill="#E0A489" d="M408.1,270.7c7.8-0.1,26-10.3,29.9-15.3l-1.3-9.8c-0.4,0.5-0.8,0.9-1.2,1.4c0,0-0.1,0.1-0.1,0.1
						c-0.4,0.5-0.8,0.9-1.2,1.3c0,0,0,0,0,0c-0.4,0.4-0.8,0.8-1.2,1.2c0,0,0,0,0,0c-0.4,0.4-0.8,0.8-1.2,1.1c-8.4,7.4-26,7.4-26,7.4
						s-16.5,0-25.1-6.6c0,0,0,0,0,0l-0.3,2.4l-0.4,2.6c0,0,0,0,0.1,0.1C381.1,257.6,400.5,270.8,408.1,270.7z"/>
				</g>
			</g>
			<path fill="none" d="M409.2,28.1L409.2,28.1c84.9,0,153.8,68.9,153.8,153.8v0c0,84.9-68.9,153.8-153.8,153.8h0
				c-84.9,0-153.8-68.9-153.8-153.8v0C255.4,96.9,324.3,28.1,409.2,28.1z"/>
		</g>
		<g>
			<g>
				<g>
					<path fill="none" d="M326,259.1c0.4,1.3,0.8,2.5,1.2,3.8c0-0.1,0-0.1,0-0.2C326.9,261.4,326.5,260.2,326,259.1z"/>
					<path fill="#FFC7AD" d="M335.1,289c0,0.3-0.1,0.6-0.1,0.9c-2.8,2.7-5.8,8.7-8.1,11.9c1.9-11,4.1-22.6,0.3-39
						c-0.4-1.2-0.7-2.5-1.2-3.8c-4.1-10.2-13.9-12.7-24.4-16.1c-14.3-4.6-29.3-1.2-43.6-4.8c-9-2.3-16.1-10.3-25.1-10.9
						c-41.4-2.8-49.2,42-44.1,74.4c-3-3.9-5.7-8.1-8.2-12.4c-9.2-4.8-19.4,3-17.6,16.7c4.2,31.4,20,26.1,20,26.1
						c27.1,67.7,74.4,67.3,74.4,67.3s47.4,0.3,74.4-67.3c0,0,15.8,5.4,20-26.1C353.6,292.8,344,285.1,335.1,289z"/>
					<path fill="#864242" d="M339,234.1C340.8,245.7,337.6,224.5,339,234.1L339,234.1z"/>
					<path fill="#864242" d="M232.9,227.4c9,0.6,16.1,8.6,25.1,10.9c14.4,3.6,29.3,0.2,43.6,4.8c10.6,3.4,20.4,5.8,24.4,16.1
						c0.4,1.1,0.8,2.3,1.1,3.6c0,0.1,0,0.1,0,0.2c3.7,16.4,1.6,28-0.3,39c2.3-3.2,5.3-9.2,8.1-11.9c0-0.3,0.1-0.6,0.1-0.9
						c1.6-19.7,7.1-33.7,3.9-54.8c-3.8-26.8-14-43.2-38.8-54.5c1.2-27.3-29.3-43.5-53.3-38.7c-14.2,2.9-22.5,11.3-30.5,22.6
						c-5.8,8.2-5.1,9-12,15c-5.3,4.5-11.4,7.2-16.4,12.6c-26.4,28.2-24.7,67.5-7.4,98.4c2.4,4.3,5.2,8.5,8.2,12.4
						C183.7,269.3,191.5,224.6,232.9,227.4z"/>
				</g>
				<g>
					<path fill="#F35B74" d="M274.8,448.6l-11.2,8.4l4.8,59.8h106.7c0,0-12.9-70.3-24.9-78.2c-6-3.9-32.1-10.6-55.2-15.9L282.6,457
						L274.8,448.6z"/>
					<path fill="#F35B74" d="M257.4,455.9C257.4,455.9,257.4,455.9,257.4,455.9c0.1,0,0.2,0,0.3,0
						C257.6,455.9,257.5,455.9,257.4,455.9z"/>
					<path fill="#F35B74" d="M240,448.6l-7.7,8.4l-12.6-34.4c-23.3,5.3-50,12.1-56,16.1c-11.9,7.9-24.9,78.2-24.9,78.2h107.8
						l4.6-59.8L240,448.6z"/>
					<path fill="#F0BBA3" d="M257.4,429.6l21.4-21.4V394c-12.4,5.5-21.4,5.5-21.4,5.5s-9.4,0.1-22.1-5.8l-0.3,14.2l0,0L257.4,429.6z
						"/>
					<path fill="#26A7DE" d="M263.7,457l11.2-8.4l-17.4-19l-17.4,19l11.2,8.4l-4.6,59.8l0,0.1h21.9l0-0.1L263.7,457z M257.4,455.9
						c0.1,0,0.2,0,0.3,0C257.6,455.9,257.5,455.9,257.4,455.9C257.4,455.9,257.4,455.9,257.4,455.9z"/>
					<polygon fill="#FFFFFF" points="240,448.6 257.4,429.6 234.9,407.9 234.9,407.9 219.6,422.3 219.6,422.5 232.2,457 					"/>
					<polygon fill="#FFFFFF" points="257.4,429.6 274.8,448.6 282.6,457 295.1,422.7 295.3,422.3 278.8,408.2 					"/>
				</g>
				<path fill="#323232" d="M277.5,287.8c-7.1,3.1-14.6,8.9-19.4,8.9c-4.8,0-12.9-5.8-20-8.9c-8.8-4-35.9-10.1-55.1-2.6
					c0,1.6,0,3.3,0,4.9c0,0,3.6,1.2,4.5,6.9c1,5.7,1.8,14.8,4.4,20.7c2.8,6.1,5.4,10.7,20.5,13.6c15.1,2.9,22.7-0.6,28.7-7.4
					c6-6.8,10.4-16.8,12-18.4c1.6-1.7,2.9-2.4,4.9-2.4c1.9,0,3.3,0.7,4.9,2.4c1.6,1.7,6,11.6,12,18.4c6,6.8,13.6,10.3,28.7,7.3
					c15.1-2.9,17.6-7.5,20.3-13.6c2.7-5.9,3.1-15,4.1-20.7c1-5.7,3.9-6.9,3.9-6.9c0-1.6,0-3.3,0-4.9
					C314.9,277.8,286.3,283.9,277.5,287.8z M243.8,314.7c-2.5,4.4-7.3,13.2-16.2,14.6c-9.8,1.5-19.2-0.9-25.9-4.5
					c-6.7-3.6-7.7-10.7-8.7-16.6c-1-5.9-1-17.5,2.3-20.1c3.2-2.6,16.2-2.3,24.3-1.4c7.4,0.8,20.2,3.8,25.8,10.1
					C251,303.1,245.8,311.3,243.8,314.7z M323.2,308.2c-1,5.9-2,13-8.7,16.6c-6.7,3.6-16.1,6-25.9,4.5c-8.9-1.4-13.7-10.1-16.2-14.6
					c-2-3.5-7.2-11.6-1.6-17.9c5.6-6.3,18.4-9.3,25.8-10.1c8.1-0.9,21-1.2,24.3,1.4C324.2,290.8,324.2,302.3,323.2,308.2z"/>
				<g>
					<path fill="#864242" d="M334.5,384.9c-7.9-9.3-12-19.8-13.7-30.3c-8.3,13.8-17.5,23.4-26.3,30c0,0,0,0,0,0
						c36.7,41.6-11.5,132.2-11.5,132.2s32.9,0,71.5-0.1C363.6,486.5,364.5,420.3,334.5,384.9z"/>
				</g>
			</g>
			<path fill="none" d="M257.3,92.3L257.3,92.3c117,0,211.8,94.8,211.8,211.8v0c0,117-94.8,211.8-211.8,211.8h0
				c-117,0-211.8-94.8-211.8-211.8v0C45.6,187.1,140.4,92.3,257.3,92.3z"/>
		</g>
	</g>
</g>
</svg>
