<?xml version="1.0" encoding="utf-8"?>
<!-- Generator: Adobe Illustrator 24.1.2, SVG Export Plug-In . SVG Version: 6.00 Build 0)  -->
<svg version="1.1" id="Capa_1" xmlns="http://www.w3.org/2000/svg" xmlns:xlink="http://www.w3.org/1999/xlink" x="0px" y="0px"
	 width="512px" height="512px" viewBox="0 0 512 512" style="enable-background:new 0 0 512 512;" xml:space="preserve">
<style type="text/css">
	.st0{fill:#9FF2FF;}
	.st1{fill:#F29F5C;}
	.st2{fill:#D37D42;}
	.st3{fill:#F9C295;}
	.st4{fill:#E59F6A;}
	.st5{fill:#5C9CEE;}
	.st6{fill:#3580D3;}
	.st7{fill:#ED5575;}
	.st8{fill:#CC3A60;}
	.st9{fill:#EBEEF2;}
</style>
<circle class="st0" cx="256" cy="256" r="256"/>
<g>
	
		<image style="overflow:visible;opacity:0.75;" width="456" height="287" xlink:href="8B81FBF0.png"  transform="matrix(1 0 0 1 35 134.002)">
	</image>
	<g>
		<g>
			<path class="st1" d="M390.7,265.3l-10.8-87.7l-20.2,2.5l0,0L320.5,158c-4.2-2.4-9-3.4-13.8-2.9l-61.9,5.7
				c-7.6,0.7-14.4,5-18.3,11.7l-43.7,75.1c-3.2,5.5-0.7,12.7,5.3,14.9l1.8,0.7c3.4,1.3,7,2,10.5,2.3l-5.5,4.8l-11.1,9.6l-31.5,26.8
				c-5.6,4.9-6.2,13.4-1.3,19l3.2,3.7c6.3,7.2,17.2,7.9,24.4,1.7l12,13.8c3.9,4.5,9.6,6.5,15.1,5.8c3.3-0.4,6.5-1.8,9.2-4.1l12,13.8
				c3.9,4.5,9.7,6.5,15.2,5.8c3.3-0.4,6.5-1.8,9.2-4.1l6.5,5.6c6.3,7.2,17.2,7.9,24.4,1.7l8.9-7.7l74.6-58.1l0.1-0.1l29.4,0
				L390.7,265.3z"/>
			<path class="st2" d="M358.7,280.8L358.7,280.8L284,339l-8.9,7.7c-7.2,6.3-18.1,5.5-24.4-1.7l-6.5-5.6c-2.7,2.4-5.9,3.7-9.2,4.1
				c-5.5,0.7-11.2-1.3-15.2-5.8l-12-13.8c-2.7,2.4-5.9,3.7-9.2,4.1c-5.5,0.7-11.2-1.3-15.1-5.8l-12-13.8c-6.2,5.4-15,5.6-21.4,1
				c-3.3,4.9-3,11.6,1.1,16.3l3.2,3.7c6.3,7.2,17.2,7.9,24.4,1.7l12,13.8c3.9,4.5,9.6,6.5,15.1,5.8c3.3-0.4,6.5-1.8,9.2-4.1l12,13.8
				c3.9,4.5,9.7,6.5,15.2,5.8c3.3-0.4,6.5-1.8,9.2-4.1l6.5,5.6c6.3,7.2,17.2,7.9,24.4,1.7l8.9-7.7l74.6-58.1l0.1-0.1l29.4,0
				l-3.3-26.5L358.7,280.8z"/>
			<path class="st3" d="M372.3,318.8l-40-34.5l-11.1-9.6l-8-6.9L279,238.4l4-33.6c1.3-11.4-5.8-22-16.9-25.1L191.6,159
				c-7.9-2.2-16.2,1.5-20,8.8l-9.4,18.3l-40.3-2.7l-10.3,87.8l-4.5,38.1l39.2,2.6l0.1,0.1l81.9,70.6l8.9,7.7
				c7.2,6.2,18.2,5.4,24.4-1.8l11.9-13.9c2.7,2.3,5.9,3.7,9.3,4.1c5.5,0.6,11.2-1.4,15.1-5.9l11.9-13.9c2.7,2.3,5.9,3.7,9.3,4.1
				c5.5,0.6,11.2-1.4,15.1-5.9l12-13.9c7.2,6.2,18.1,5.4,24.4-1.8l3.2-3.7C378.6,332.1,377.9,323.6,372.3,318.8z"/>
			<g>
				<path class="st4" d="M372.3,318.8l-12.2-10.5c4,5.2,3.9,12.7-0.6,17.9l-3.4,3.9c-6.6,7.7-18.2,8.5-25.9,1.9l-12.7,14.7
					c-4.1,4.8-10.2,6.9-16,6.2c-3.5-0.4-6.9-1.8-9.8-4.3l-12.7,14.7c-4.1,4.8-10.2,6.9-16.1,6.2c-3.5-0.4-6.9-1.8-9.8-4.3
					l-12.7,14.7c-2.4,2.8-5.4,4.6-8.7,5.6l5.4,4.7c7.2,6.2,18.2,5.4,24.4-1.8l11.9-13.9c2.7,2.3,5.9,3.7,9.3,4.1
					c5.5,0.6,11.2-1.4,15.1-5.9l11.9-13.9c2.7,2.3,5.9,3.7,9.3,4.1c5.5,0.6,11.2-1.4,15.1-5.9l12-13.9c7.2,6.2,18.1,5.4,24.4-1.8
					l3.2-3.7C378.6,332.1,377.9,323.6,372.3,318.8z"/>
				<path class="st4" d="M350.2,338.6l-21.9-18.9c-2.6-2.2-6.5-2-8.8,0.6c-2.2,2.6-2,6.5,0.6,8.8l21.9,18.9l4.1-4.8
					c1.6,1.4,3.5,2.5,5.4,3.1C353,343.8,352.5,340.6,350.2,338.6z"/>
				<path class="st4" d="M315.2,362c1.5-2.5,1-5.9-1.3-7.9l-19.7-17c-2.6-2.2-6.5-2-8.8,0.6c-2.2,2.6-2,6.5,0.6,8.8l19.7,17
					c0,0,0,0,0,0l4.1-4.7C311.5,360.3,313.3,361.3,315.2,362z"/>
			</g>
			<g>
				<path class="st1" d="M148.4,311.8l-4.7,6.3c-5.2,6.8-3.8,16.5,3,21.7l0,0c6.8,5.2,16.5,3.8,21.7-3l4.7-6.3
					c5.2-6.8,3.8-16.5-3-21.7l0,0C163.3,303.6,153.6,305,148.4,311.8z"/>
				<path class="st1" d="M177.3,325l-8.9,11.8c-5.2,6.8-3.8,16.5,3,21.7l0,0c6.8,5.2,16.5,3.8,21.7-3l8.9-11.8
					c5.2-6.8,3.8-16.5-3-21.7l0,0C192.2,316.8,182.5,318.1,177.3,325z"/>
				<path class="st1" d="M205.2,339.4l-12.2,16.1c-5.2,6.8-3.8,16.5,3,21.7l0,0c6.8,5.2,16.5,3.8,21.7-3l12.2-16.1
					c5.2-6.8,3.8-16.5-3-21.7l0,0C220.1,331.2,210.4,332.6,205.2,339.4z"/>
				<path class="st1" d="M230.6,357.2l-12.9,17c-5.2,6.8-3.8,16.5,3,21.7l0,0c6.8,5.2,16.5,3.8,21.7-3l12.9-17
					c5.2-6.8,3.8-16.5-3-21.7l0,0C245.5,349,235.8,350.3,230.6,357.2z"/>
				<path class="st1" d="M359.7,180L320.5,158c-4.2-2.4-9-3.4-13.8-2.9l-61.9,5.7c-7.6,0.7-14.4,5-18.3,11.7l-43.7,75.1
					c-3.2,5.5-0.7,12.7,5.3,14.9l1.8,0.7c16,6,34.1,0.9,44.5-12.7l16.7-21.8c0,0,40.2,46.5,84.5-7.8"/>
			</g>
			<path class="st5" d="M468.5,315.1L448,148.5c-0.2-1.6-1-3.1-2.3-4.1c-1.3-1-3-1.5-4.6-1.3l-48,5.9c-12.5,1.5-21.3,12.9-19.8,25.4
				l16.5,133.8c1.4,11.5,11.3,20,22.6,20c0.9,0,1.9-0.1,2.8-0.2l48-5.9C466.5,321.6,468.9,318.5,468.5,315.1z"/>
			<path class="st6" d="M468.5,315.1l-2.3-18.3c-1,1.5-2.7,2.6-4.6,2.8l-50.3,6.2c-1,0.1-2,0.2-2.9,0.2c-8.5,0-16.1-4.5-20.4-11.5
				l1.7,13.6c1.4,11.5,11.3,20,22.6,20c0.9,0,1.9-0.1,2.8-0.2l48-5.9C466.5,321.6,468.9,318.5,468.5,315.1z"/>
			<path class="st7" d="M119,149L71,143c-1.6-0.2-3.3,0.3-4.6,1.3s-2.1,2.5-2.3,4.1L43.5,315.1c-0.4,3.4,2,6.5,5.4,6.9l48,5.9
				c0.9,0.1,1.9,0.2,2.8,0.2c11.3,0,21.2-8.5,22.6-20l16.5-133.8C140.3,161.9,131.4,150.5,119,149z"/>
			<path class="st8" d="M43.5,315.1l2.3-18.3c1,1.5,2.7,2.6,4.6,2.8l50.3,6.2c1,0.1,2,0.2,2.9,0.2c8.5,0,16.1-4.5,20.4-11.5
				l-1.7,13.6c-1.4,11.5-11.3,20-22.6,20c-0.9,0-1.9-0.1-2.8-0.2l-48-5.9C45.5,321.6,43.1,318.5,43.5,315.1z"/>
			<g>
				<circle class="st9" cx="428.7" cy="288.4" r="12"/>
				<circle class="st9" cx="82.7" cy="288.4" r="12"/>
			</g>
		</g>
	</g>
</g>
</svg>
