<?xml version="1.0" encoding="utf-8"?>
<!-- Generator: Adobe Illustrator 24.1.2, SVG Export Plug-In . SVG Version: 6.00 Build 0)  -->
<svg version="1.1" id="Layer_1" xmlns="http://www.w3.org/2000/svg" xmlns:xlink="http://www.w3.org/1999/xlink" x="0px" y="0px"
	 width="512px" height="512px" viewBox="0 0 512 512" enable-background="new 0 0 512 512" xml:space="preserve">
<circle fill="#6FADD9" cx="256" cy="256" r="256"/>
<g>
	<defs>
		<circle id="SVGID_1_" cx="256" cy="256" r="256"/>
	</defs>
	<clipPath id="SVGID_2_">
		<use xlink:href="#SVGID_1_"  overflow="visible"/>
	</clipPath>
	<g clip-path="url(#SVGID_2_)">
		<path fill-rule="evenodd" clip-rule="evenodd" fill="#D5B275" d="M432,180.5c2.3-4.1,1.1-9.4-3-10.8l-43-15.3
			c-7-2.5-36.9-4.7-40.8,2.4c-3.9,7.2,15,19.3,22.1,21.6l34.7,11.4C413.5,193.7,427.2,189.4,432,180.5z"/>
		<path fill-rule="evenodd" clip-rule="evenodd" fill="#D5B275" d="M319.7,434.6c2.2-0.4,4.1-1.8,4.9-4l15.3-43
			c2.5-7,4.7-36.9-2.4-40.8c-7.2-3.9-19.3,15-21.6,22.1l-11.4,34.7c-2.2,6.8-1.7,14.4,1,20.4L319.7,434.6z"/>
		<path fill-rule="evenodd" clip-rule="evenodd" fill="#D5B275" d="M432,180.5c2.3-4.1,1.1-9.4-3-10.8l-43-15.3
			c-7-2.5-36.9-4.7-40.8,2.4c-3.9,7.2,15,19.3,22.1,21.6l34.7,11.4C413.5,193.7,427.2,189.4,432,180.5z"/>
		<path fill-rule="evenodd" clip-rule="evenodd" fill="#D5B275" d="M80,331.5c-2.3,4.1-1.1,9.4,3,10.8l43,15.3
			c7,2.5,36.9,4.7,40.8-2.4c3.9-7.2-15-19.3-22.1-21.6l-34.7-11.4C98.5,318.3,84.8,322.6,80,331.5z"/>
		<path fill-rule="evenodd" clip-rule="evenodd" fill="#D5B275" d="M313.8,433.6c4.1,2.3,9.4,1.1,10.8-3l15.3-43
			c2.5-7,4.7-36.9-2.4-40.8c-7.2-3.9-19.3,15-21.6,22.1l-11.4,34.7C300.7,415.1,305,428.8,313.8,433.6z"/>
		<path fill-rule="evenodd" clip-rule="evenodd" fill="#FEC900" d="M231.1,316.4l355.6,266.4v3.9H459.8L187.7,382.8
			C214.7,372.8,232.8,346.5,231.1,316.4z"/>
		<path fill-rule="evenodd" clip-rule="evenodd" fill="#FFDB59" d="M231.1,316.4l355.6,266.4v3.9h-63.9L218.9,359
			C227.4,347.1,232,332.3,231.1,316.4z"/>
		<path fill-rule="evenodd" clip-rule="evenodd" fill="#DE6146" d="M207.4,302.4l19.4,14.6c0,27.5-16.9,51.4-41.8,61l-18.2-13.6
			C192.1,355.1,209,330.5,207.4,302.4z"/>
		<g>
			<path fill-rule="evenodd" clip-rule="evenodd" fill="#F7ECD7" d="M252.6,452.7c-11.2,3.7-21.1-10.8-14.7-21.7
				c-11,5.4-21.7-7.5-17.8-18.5c-10.9,3.3-20.5-11.6-12.8-22l40.4-54c6.5-8.7,19.6-17.4,32.2-21.6c28-9.4,58.8,17.6,60.3,37.6
				c1,13.7,0.1,25.8-5.1,33.1l-60.3,84C266.5,481.1,247,466.5,252.6,452.7z"/>
			<path fill-rule="evenodd" clip-rule="evenodd" fill="#D5B275" d="M253.1,454.8V449c8.2-10,21.4-24.7,21.4-24.7L253.1,454.8
				L253.1,454.8z M253.1,411.7v-0.8c2.1-2.4,3.4-3.9,3.4-3.9S255.1,408.8,253.1,411.7z M236.9,391c0,0-0.2,0.2-0.6,0.6v0.1
				C236.7,391.3,236.9,391,236.9,391L236.9,391z M253.1,410.9v0.8c-4.6,6.3-12.5,17.4-16.7,23.9V435c0.3-1.4,0.8-2.8,1.6-4.1
				c-0.5,0.3-1.1,0.5-1.6,0.7v-0.6C241.2,424.8,248.7,415.9,253.1,410.9L253.1,410.9z M253.1,449v5.7l-1.4,2c0-1.6,0.5-2.8,1-4
				c-1,0.3-2,0.5-3,0.5C250.6,452,251.8,450.6,253.1,449z M236.3,391.7c-2.5,2.7-12.5,13.9-18.1,21.1c0.6-0.1,1.3-0.2,1.9-0.4
				c-0.3,1-0.6,2-0.7,2.9c4.9-7.8,14.5-20.4,16.9-23.6V391.7L236.3,391.7z M236.3,431.1v0.6c-0.2,0.1-0.4,0.1-0.6,0.2
				C236,431.5,236.1,431.3,236.3,431.1L236.3,431.1z M236.3,435v0.6l-0.2,0.3C236.2,435.6,236.3,435.3,236.3,435z"/>
			<path fill-rule="evenodd" clip-rule="evenodd" fill="#DE6146" d="M298.8,282.5L566.4-74.7h20.3v105L365.2,325.9
				C355.2,298.9,328.8,280.8,298.8,282.5z"/>
			<path fill-rule="evenodd" clip-rule="evenodd" fill="#AFCF5D" d="M284.8,306.2l14.6-19.4c27.5,0,51.4,16.9,61,41.8l-13.6,18.2
				C337.4,321.5,312.8,304.6,284.8,306.2z"/>
		</g>
		<path fill-rule="evenodd" clip-rule="evenodd" fill="#EDA08E" d="M586.7-35.6v65.8L365.2,325.9c-4.9-13.3-13.8-24.5-25.2-32.2
			L586.7-35.6z"/>
		<path fill-rule="evenodd" clip-rule="evenodd" fill="#D5B275" d="M198.2,78.4c-4.1-2.3-9.4-1.1-10.8,3l-15.3,43
			c-2.5,7-4.7,36.9,2.4,40.8c7.2,3.9,19.3-15,21.6-22.1l11.4-34.7C211.3,96.9,207,83.2,198.2,78.4z"/>
		<g>
			<path fill-rule="evenodd" clip-rule="evenodd" fill="#F7ECD7" d="M451.1,241.7c3.7,11.2-10.8,21.1-21.7,14.7
				c5.4,11-7.5,21.7-18.5,17.8c3.3,10.9-11.6,20.5-22,12.8l-54-40.4c-8.7-6.5-17.4-19.6-21.6-32.2c-9.4-28,17.6-58.8,37.6-60.3
				c13.7-1,25.8-0.1,33.1,5.1l84,60.3C479.5,227.9,464.9,247.4,451.1,241.7z"/>
			<path fill-rule="evenodd" clip-rule="evenodd" fill="#D5B275" d="M428.5,257.3v-2.9c2.1,1.5,4.1,2.8,5.8,3.9
				c-1.7-0.3-3.3-0.9-4.9-1.8c0.4,0.7,0.6,1.5,0.8,2.2C429.6,258.2,429.1,257.7,428.5,257.3L428.5,257.3z M428.5,225v-1.1l26.7,18.8
				c-1.6,0-2.8-0.5-4-1c0.3,1,0.5,2,0.5,3C445.6,240,435,230.8,428.5,225z M409.6,274.8c0.6,0.4,1.1,0.9,1.6,1.3
				c-0.1-0.6-0.2-1.3-0.4-1.9c1,0.3,2,0.6,2.9,0.7c-1.3-0.8-2.7-1.7-4.2-2.8V274.8L409.6,274.8z M428.5,223.9v1.1
				c-3.4-3-5.8-5.1-5.8-5.1L428.5,223.9L428.5,223.9z M428.5,254.3v2.9c-6.1-4.8-14.1-11.6-18.9-15.7v-0.6
				C414.3,244.3,422.1,249.9,428.5,254.3z M389.4,257.5c0,0,11.8,10.7,20.1,17.3v-2.7C400.7,266.1,389.4,257.5,389.4,257.5
				L389.4,257.5z M409.6,240.9v0.6c-2.5-2.2-4.2-3.6-4.2-3.6S407,239.1,409.6,240.9z"/>
			<path fill-rule="evenodd" clip-rule="evenodd" fill="#AFCF5D" d="M280.9,195.6L-74.7-70.8v-3.9H52.2l272.1,203.9
				C297.3,139.2,279.2,165.5,280.9,195.6z"/>
			<path fill-rule="evenodd" clip-rule="evenodd" fill="#2D5F82" d="M304.6,209.6L285.1,195c0-27.5,16.9-51.4,41.8-61l18.2,13.6
				C319.9,156.9,303,181.5,304.6,209.6z"/>
		</g>
		<g>
			<path fill-rule="evenodd" clip-rule="evenodd" fill="#D5B275" d="M198.2,78.4c-2.4-1.3-5.1-1.5-7.3-0.6l16.4,12.3
				C205.5,85,202.4,80.7,198.2,78.4z"/>
			<g>
				<path fill-rule="evenodd" clip-rule="evenodd" fill="#FFFCF7" d="M451.1,241.7c3.7,11.2-10.8,21.1-21.7,14.7l0,0.1l-108.9-81.6
					c8.1-11.7,20.1-20.1,30.3-20.9c13.7-1,25.8-0.1,33.1,5.1l84,60.3C479.5,227.9,464.9,247.4,451.1,241.7z"/>
				<path fill-rule="evenodd" clip-rule="evenodd" fill="#E8CEA2" d="M429.4,256.5l-0.9-0.7v-1.5c2.1,1.5,4.1,2.8,5.8,3.9
					C432.6,257.9,430.9,257.3,429.4,256.5L429.4,256.5L429.4,256.5z M428.5,225v-1.1l26.7,18.8c-1.6,0-2.8-0.5-4-1
					c0.3,1,0.5,2,0.5,3C445.6,240,435,230.8,428.5,225z M428.5,255.8l-18.1-13.5c-3-2.6-5-4.4-5-4.4s13.2,9.7,23.1,16.4V255.8
					L428.5,255.8z M428.5,223.9v1.1c-3.4-3-5.8-5.1-5.8-5.1L428.5,223.9z"/>
				<path fill-rule="evenodd" clip-rule="evenodd" fill="#D0E698" d="M-12.7-74.7h64.9l272.1,203.9c-13.2,4.9-24.2,13.6-31.9,24.7
					L-12.7-74.7z"/>
				<path fill-rule="evenodd" clip-rule="evenodd" fill="#457191" d="M297,157.3c7.3-10.4,17.7-18.6,29.9-23.3l18.2,13.6
					c-12.4,4.6-22.7,12.8-29.9,23.3L297,157.3z"/>
			</g>
		</g>
		<g>
			<path fill-rule="evenodd" clip-rule="evenodd" fill="#F7ECD7" d="M259.4,59.3c11.2-3.7,21.1,10.8,14.7,21.7
				c11-5.4,21.7,7.5,17.8,18.5c10.9-3.3,20.5,11.6,12.8,22l-40.4,54c-6.5,8.7-19.6,17.4-32.2,21.6c-28,9.4-58.8-17.6-60.3-37.6
				c-1-13.7-0.1-25.8,5.1-33.1l60.3-84C245.5,30.9,265,45.5,259.4,59.3z"/>
			<path fill-rule="evenodd" clip-rule="evenodd" fill="#D5B275" d="M275.7,120.3c2.5-2.7,12.5-13.9,18.1-21.1
				c-0.6,0.1-1.3,0.2-1.9,0.4c0.3-1,0.6-2,0.7-2.9c-4.9,7.8-14.5,20.4-16.9,23.6V120.3L275.7,120.3z M275.7,80.9v-0.6
				c0.2-0.1,0.4-0.1,0.6-0.2C276,80.5,275.9,80.7,275.7,80.9L275.7,80.9z M275.7,77v-0.6l0.2-0.3C275.8,76.4,275.7,76.7,275.7,77z
				 M275.1,121c0,0,0.2-0.2,0.6-0.6v-0.1C275.3,120.7,275.1,121,275.1,121L275.1,121z M275.7,76.4V77c-0.3,1.4-0.8,2.8-1.6,4.1
				c0.5-0.3,1.1-0.5,1.6-0.7v0.6c-4.8,6.3-12.4,15.1-16.7,20.1v-0.8C263.5,94,271.5,82.9,275.7,76.4L275.7,76.4z M258.9,63v-5.7
				l1.4-2c0,1.6-0.5,2.8-1,4c1-0.3,2-0.5,3-0.5C261.4,60,260.2,61.4,258.9,63z M258.9,57.2V63c-8.2,10-21.4,24.7-21.4,24.7
				L258.9,57.2L258.9,57.2z M258.9,100.3v0.8c-2.1,2.4-3.4,3.9-3.4,3.9S256.9,103.2,258.9,100.3z"/>
			<path fill-rule="evenodd" clip-rule="evenodd" fill="#2D5F82" d="M213.2,229.5L-54.4,586.7h-20.3v-105l221.5-295.7
				C156.8,213.1,183.2,231.2,213.2,229.5z"/>
			<path fill-rule="evenodd" clip-rule="evenodd" fill="#FEC900" d="M227.2,205.8l-14.6,19.4c-27.5,0-51.4-16.9-61-41.8l13.6-18.2
				C174.6,190.5,199.2,207.4,227.2,205.8z"/>
		</g>
		<path fill-rule="evenodd" clip-rule="evenodd" fill="#457191" d="M-74.7,545.4v-63.7l221.5-295.7c4.8,12.9,13.3,23.8,24.1,31.4
			L-74.7,545.4z"/>
		<path fill-rule="evenodd" clip-rule="evenodd" fill="#F7ECD7" d="M60.9,270.3c-3.7-11.2,10.8-21.1,21.7-14.7
			c-5.4-11,7.5-21.7,18.5-17.8c-3.3-10.9,11.6-20.5,22-12.8l54,40.4c8.7,6.5,17.4,19.6,21.6,32.2c9.4,28-17.6,58.8-37.6,60.3
			c-13.7,1-25.8,0.1-33.1-5.1l-84-60.3C32.5,284.1,47.1,264.6,60.9,270.3z"/>
		<path fill-rule="evenodd" clip-rule="evenodd" fill="#D5B275" d="M122.6,254.5c0,0-11.8-10.7-20.1-17.3v2.7
			C111.3,245.9,122.6,254.5,122.6,254.5L122.6,254.5z M102.4,271.1v-0.6c2.5,2.2,4.2,3.6,4.2,3.6S105,272.9,102.4,271.1z
			 M102.4,237.2c-0.6-0.5-1.1-0.9-1.6-1.3c0.1,0.6,0.2,1.3,0.4,1.9c-1-0.3-2-0.6-2.9-0.7c1.3,0.8,2.7,1.7,4.2,2.8V237.2L102.4,237.2
			z M102.4,270.5v0.6c-4.7-3.4-12.5-9-18.9-13.4v-2.9C89.6,259.5,97.6,266.3,102.4,270.5L102.4,270.5z M83.5,288.1V287
			c3.4,3,5.8,5.1,5.8,5.1L83.5,288.1z M83.5,254.7v2.9c-2.1-1.5-4.1-2.8-5.8-3.9c1.7,0.3,3.3,0.9,4.9,1.8c-0.4-0.7-0.6-1.5-0.8-2.2
			C82.4,253.8,82.9,254.3,83.5,254.7L83.5,254.7z M83.5,287v1.1l-26.7-18.8c1.6,0,2.8,0.5,4,1c-0.3-1-0.5-2-0.5-3
			C66.4,272,77,281.2,83.5,287z"/>
		<path fill-rule="evenodd" clip-rule="evenodd" fill="#FFFCF7" d="M252.6,452.7c-11.2,3.7-21.1-10.8-14.7-21.7
			c-0.4,0.2-0.7,0.3-1.1,0.5L319,321.8c12,8.1,20.6,20.3,21.3,30.6c1,13.7,0.1,25.8-5.1,33.1l-60.3,84
			C266.5,481.1,247,466.5,252.6,452.7z"/>
		<path fill-rule="evenodd" clip-rule="evenodd" fill="#E8CEA2" d="M253.1,410.9c2.1-2.4,3.4-3.9,3.4-3.9s-1.4,1.9-3.4,4.7V410.9
			L253.1,410.9z M253.1,454.8V449c8.2-10,21.4-24.7,21.4-24.7L253.1,454.8z M236.9,431.4l9.6-12.8c2.5-2.9,4.8-5.7,6.6-7.7v0.8
			c-4.6,6.4-12.7,17.7-16.9,24.2c0.3-1.7,0.9-3.3,1.8-4.9C237.6,431.1,237.2,431.3,236.9,431.4L236.9,431.4z M253.1,449v5.7l-1.4,2
			c0-1.6,0.5-2.8,1-4c-1,0.3-2,0.5-3,0.5C250.6,452,251.8,450.6,253.1,449z"/>
		<path fill-rule="evenodd" clip-rule="evenodd" fill="#D0E698" d="M336.6,298.3c10.6,7.3,19,17.8,23.8,30.2l-13.6,18.2
			c-4.6-12.6-13.1-23-23.8-30.2L336.6,298.3z"/>
		<path fill-rule="evenodd" clip-rule="evenodd" fill="#EDA08E" d="M207.4,302.4l19.4,14.6c0,14.4-4.6,27.8-12.5,38.6L196.1,342
			C204,330.9,208.3,317.1,207.4,302.4z"/>
		<path fill-rule="evenodd" clip-rule="evenodd" fill="#D5B275" d="M170.5,132.3c-1.5,11.5-1.5,30,4,33c5.6,3,14.1-7.7,18.7-15.9
			L170.5,132.3z"/>
		<path fill-rule="evenodd" clip-rule="evenodd" fill="#FFFCF7" d="M78.6,254c1.4,0.3,2.7,0.9,4,1.6c-5.4-11,7.5-21.7,18.5-17.8
			c-3.3-10.9,11.6-20.5,22-12.8l54,40.4c8.7,6.5,17.4,19.6,21.6,32.2c4.8,14.1,0.2,28.9-8,40.4L78.6,254z"/>
		<path fill-rule="evenodd" clip-rule="evenodd" fill="#E8CEA2" d="M122.6,254.5c0,0-11.8-10.7-20.1-17.3v2.7
			C111.3,245.9,122.6,254.5,122.6,254.5L122.6,254.5z M102.4,271.1v-0.6c2.5,2.2,4.2,3.6,4.2,3.6S105,272.9,102.4,271.1z
			 M102.4,237.2c-0.6-0.5-1.1-0.9-1.6-1.3c0.1,0.6,0.2,1.3,0.4,1.9c-1-0.3-2-0.6-2.9-0.7c1.3,0.8,2.7,1.7,4.2,2.8V237.2L102.4,237.2
			z M102.4,270.5v0.6c-4.6-3.3-12.1-8.7-18.3-13l-5.4-4.1c1.4,0.3,2.7,0.8,4,1.6c-0.4-0.7-0.6-1.5-0.8-2.2
			C88,258.1,97.2,265.9,102.4,270.5z"/>
		<path fill-rule="evenodd" clip-rule="evenodd" fill="#FFFFFF" d="M-2.7,244.5c2.3,0,6.4-0.2,7.9-0.7c0,0.1-0.1,0.3-0.1,0.4
			c-0.1,0.7-5.2,0.9-7.8,0.9V244.5z"/>
		<path fill-rule="evenodd" clip-rule="evenodd" fill="#FFFCF7" d="M259.4,59.3c10.2-3.4,19.3,8.4,16,18.8l-83.4,111.4
			c-11.4-8.1-19.5-19.9-20.3-29.9c-1-13.7-0.1-25.8,5.1-33.1l60.3-84C245.5,30.9,265,45.5,259.4,59.3z"/>
		<path fill-rule="evenodd" clip-rule="evenodd" fill="#E8CEA2" d="M275.4,78.1L264.2,93c4.1-5.8,8.8-12.4,11.6-16.8
			C275.7,76.8,275.6,77.5,275.4,78.1L275.4,78.1z M259.4,59.2c1-0.3,2-0.5,3-0.5c-7.2,9.2-24.8,29-24.8,29l22.8-32.5
			C260.3,56.8,259.8,58.1,259.4,59.2z"/>
		<path fill-rule="evenodd" clip-rule="evenodd" fill="#FFDB59" d="M174.3,213c-10.1-7.3-18.1-17.5-22.7-29.5l13.6-18.2
			c4.5,12.1,12.5,22.3,22.7,29.5L174.3,213z"/>
	</g>
</g>
</svg>
